G04 MADE WITH FRITZING*
G04 WWW.FRITZING.ORG*
G04 DOUBLE SIDED*
G04 HOLES PLATED*
G04 CONTOUR ON CENTER OF CONTOUR VECTOR*
%ASAXBY*%
%FSLAX23Y23*%
%MOIN*%
%OFA0B0*%
%SFA1.0B1.0*%
%ADD10C,0.075000*%
%ADD11C,0.082000*%
%ADD12C,0.080000*%
%ADD13C,0.071889*%
%ADD14C,0.071917*%
%ADD15C,0.124033*%
%ADD16C,0.078000*%
%ADD17C,0.062992*%
%ADD18C,0.125984*%
%ADD19R,0.082000X0.082000*%
%ADD20R,0.080000X0.080000*%
%ADD21R,0.075000X0.075000*%
%ADD22R,0.078000X0.078000*%
%ADD23R,0.062992X0.062992*%
%ADD24C,0.024000*%
%LNCOPPER0*%
G90*
G70*
G54D10*
X1588Y888D03*
X1588Y488D03*
X1487Y888D03*
X1487Y488D03*
X1388Y888D03*
X1388Y488D03*
X1287Y888D03*
X1287Y488D03*
X1687Y888D03*
X1687Y488D03*
X1187Y888D03*
X1187Y488D03*
X1088Y488D03*
X1088Y888D03*
G54D11*
X1851Y788D03*
X1851Y490D03*
G54D12*
X2508Y667D03*
X2508Y529D03*
G54D10*
X2030Y771D03*
X2330Y771D03*
X2030Y671D03*
X2330Y671D03*
X2030Y571D03*
X2330Y571D03*
X2030Y471D03*
X2330Y471D03*
X2030Y371D03*
X2330Y371D03*
X2030Y271D03*
X2330Y271D03*
X2030Y171D03*
X2330Y171D03*
X1619Y148D03*
X1619Y248D03*
X1619Y348D03*
X1419Y149D03*
X1419Y249D03*
X1419Y349D03*
X1246Y348D03*
X1246Y248D03*
X1246Y148D03*
X1046Y348D03*
X1046Y248D03*
X1046Y148D03*
X1895Y247D03*
X1795Y247D03*
G54D13*
X421Y185D03*
X521Y185D03*
G54D14*
X621Y185D03*
G54D15*
X326Y480D03*
X715Y480D03*
G54D16*
X2510Y391D03*
X2510Y291D03*
X2510Y191D03*
G54D17*
X822Y885D03*
X822Y786D03*
X522Y885D03*
X522Y787D03*
X222Y885D03*
X222Y786D03*
G54D12*
X2508Y967D03*
X2508Y829D03*
G54D18*
X325Y480D03*
X715Y480D03*
G54D19*
X1851Y789D03*
G54D20*
X2508Y667D03*
G54D21*
X2030Y771D03*
X1895Y247D03*
G54D22*
X2510Y391D03*
G54D23*
X822Y885D03*
X522Y885D03*
X222Y885D03*
G54D20*
X2508Y967D03*
G54D24*
X324Y997D02*
X2067Y997D01*
D02*
X2067Y997D02*
X2207Y857D01*
D02*
X2207Y857D02*
X2207Y581D01*
D02*
X241Y904D02*
X324Y997D01*
D02*
X2207Y581D02*
X2309Y490D01*
D02*
X1933Y539D02*
X1933Y337D01*
D02*
X1827Y621D02*
X1933Y539D01*
D02*
X1933Y337D02*
X2007Y287D01*
D02*
X1091Y621D02*
X1827Y621D01*
D02*
X842Y866D02*
X1091Y621D01*
D02*
X1129Y681D02*
X1887Y681D01*
D02*
X871Y950D02*
X1129Y681D01*
D02*
X1887Y681D02*
X2008Y588D01*
D02*
X587Y950D02*
X871Y950D01*
D02*
X541Y904D02*
X587Y950D01*
D02*
X1875Y80D02*
X2358Y80D01*
D02*
X2413Y134D02*
X2413Y592D01*
D02*
X2358Y80D02*
X2413Y134D01*
D02*
X1795Y218D02*
X1795Y144D01*
D02*
X1795Y144D02*
X1875Y80D01*
D02*
X2413Y592D02*
X2351Y651D01*
D02*
X1647Y248D02*
X1766Y247D01*
D02*
X2615Y738D02*
X2615Y323D01*
D02*
X2615Y323D02*
X2581Y291D01*
D02*
X2581Y291D02*
X2540Y291D01*
D02*
X2532Y809D02*
X2615Y738D01*
D02*
X156Y521D02*
X156Y943D01*
D02*
X156Y943D02*
X240Y1039D01*
D02*
X400Y211D02*
X156Y521D01*
D02*
X240Y1039D02*
X2433Y1039D01*
D02*
X2433Y1039D02*
X2486Y988D01*
G04 End of Copper0*
M02*