; NON-PLATED HOLES START AT T1
; THROUGH (PLATED) HOLES START AT T100
M48
INCH
T1C0.086614
T100C0.035000
T101C0.040000
T102C0.042000
T103C0.086614
T104C0.044111
T105C0.031497
T106C0.038000
T107C0.044139
T108C0.088356
%
T1
X000777Y000755
X000777Y011033
X026777Y011033
X026777Y000755
T100
X015878Y004877
X015878Y008877
X020303Y005709
X023303Y001709
X020303Y006709
X013877Y008877
X018947Y002471
X020303Y003709
X023303Y003709
X016874Y004882
X012871Y008878
X023303Y004709
X020303Y002709
X012871Y004878
X012460Y001482
X010460Y003478
X020303Y007709
X014187Y002490
X011871Y008878
X023303Y002709
X016186Y003481
X014187Y003490
X014872Y004883
X012460Y002482
X020303Y004709
X023303Y007709
X020303Y001709
X013877Y004877
X016186Y002481
X012460Y003482
X010460Y002478
X017947Y002471
X014187Y001490
X010877Y004880
X023303Y005709
X023303Y006709
X011871Y004878
X014872Y008883
X016186Y001481
X010460Y001478
X016874Y008882
X010877Y008880
T101
X025084Y009667
X025080Y006667
X025084Y008289
X025080Y005289
T102
X018511Y004896
X018511Y007876
T103
X003253Y004795
X007152Y004795
T104
X005205Y001845
X004205Y001845
T105
X008224Y007863
X002224Y008846
X005217Y008852
X002224Y007861
X008224Y008847
X005217Y007868
T106
X025097Y001908
X025097Y002908
X025097Y003908
T107
X006205Y001845
T108
X007146Y004798
X003263Y004798
T00
M30
