G04 MADE WITH FRITZING*
G04 WWW.FRITZING.ORG*
G04 DOUBLE SIDED*
G04 HOLES PLATED*
G04 CONTOUR ON CENTER OF CONTOUR VECTOR*
%ASAXBY*%
%FSLAX23Y23*%
%MOIN*%
%OFA0B0*%
%SFA1.0B1.0*%
%ADD10R,0.001000X0.001000*%
%LNSILK0*%
G90*
G70*
G36*
X445Y785D02*
X445Y778D01*
X447Y778D01*
X447Y770D01*
X449Y770D01*
X449Y762D01*
X450Y762D01*
X450Y753D01*
X445Y753D01*
X445Y757D01*
X444Y757D01*
X444Y760D01*
X442Y760D01*
X442Y773D01*
X440Y773D01*
X440Y785D01*
X445Y785D01*
G37*
D02*
G36*
X401Y778D02*
X401Y775D01*
X403Y775D01*
X403Y771D01*
X404Y771D01*
X404Y768D01*
X406Y768D01*
X406Y763D01*
X408Y763D01*
X408Y758D01*
X409Y758D01*
X409Y755D01*
X411Y755D01*
X411Y752D01*
X412Y752D01*
X412Y747D01*
X414Y747D01*
X414Y744D01*
X412Y744D01*
X412Y742D01*
X409Y742D01*
X409Y744D01*
X408Y744D01*
X408Y748D01*
X406Y748D01*
X406Y752D01*
X404Y752D01*
X404Y755D01*
X403Y755D01*
X403Y758D01*
X401Y758D01*
X401Y763D01*
X399Y763D01*
X399Y770D01*
X398Y770D01*
X398Y773D01*
X396Y773D01*
X396Y778D01*
X401Y778D01*
G37*
D02*
G36*
X348Y750D02*
X348Y748D01*
X350Y748D01*
X350Y747D01*
X352Y747D01*
X352Y744D01*
X353Y744D01*
X353Y742D01*
X355Y742D01*
X355Y740D01*
X360Y740D01*
X360Y739D01*
X362Y739D01*
X362Y737D01*
X363Y737D01*
X363Y735D01*
X367Y735D01*
X367Y734D01*
X370Y734D01*
X370Y732D01*
X371Y732D01*
X371Y730D01*
X375Y730D01*
X375Y729D01*
X378Y729D01*
X378Y727D01*
X380Y727D01*
X380Y724D01*
X375Y724D01*
X375Y725D01*
X371Y725D01*
X371Y727D01*
X368Y727D01*
X368Y729D01*
X367Y729D01*
X367Y730D01*
X363Y730D01*
X363Y732D01*
X360Y732D01*
X360Y734D01*
X357Y734D01*
X357Y737D01*
X352Y737D01*
X352Y739D01*
X350Y739D01*
X350Y740D01*
X348Y740D01*
X348Y742D01*
X345Y742D01*
X345Y744D01*
X344Y744D01*
X344Y745D01*
X342Y745D01*
X342Y750D01*
X348Y750D01*
G37*
D02*
G36*
X611Y760D02*
X611Y758D01*
X618Y758D01*
X618Y757D01*
X621Y757D01*
X621Y755D01*
X622Y755D01*
X622Y752D01*
X603Y752D01*
X603Y750D01*
X599Y750D01*
X599Y748D01*
X598Y748D01*
X598Y747D01*
X596Y747D01*
X596Y745D01*
X595Y745D01*
X595Y742D01*
X593Y742D01*
X593Y739D01*
X591Y739D01*
X591Y732D01*
X590Y732D01*
X590Y729D01*
X591Y729D01*
X591Y721D01*
X593Y721D01*
X593Y719D01*
X601Y719D01*
X601Y717D01*
X583Y717D01*
X583Y735D01*
X585Y735D01*
X585Y742D01*
X586Y742D01*
X586Y745D01*
X588Y745D01*
X588Y748D01*
X590Y748D01*
X590Y750D01*
X591Y750D01*
X591Y752D01*
X593Y752D01*
X593Y753D01*
X595Y753D01*
X595Y757D01*
X599Y757D01*
X599Y758D01*
X604Y758D01*
X604Y760D01*
X611Y760D01*
G37*
D02*
G36*
X624Y752D02*
X624Y750D01*
X626Y750D01*
X626Y748D01*
X627Y748D01*
X627Y747D01*
X629Y747D01*
X629Y744D01*
X622Y744D01*
X622Y745D01*
X621Y745D01*
X621Y748D01*
X619Y748D01*
X619Y750D01*
X614Y750D01*
X614Y752D01*
X624Y752D01*
G37*
D02*
G36*
X657Y747D02*
X657Y745D01*
X659Y745D01*
X659Y744D01*
X636Y744D01*
X636Y745D01*
X644Y745D01*
X644Y747D01*
X657Y747D01*
G37*
D02*
G36*
X660Y744D02*
X660Y742D01*
X624Y742D01*
X624Y744D01*
X660Y744D01*
G37*
D02*
G36*
X660Y744D02*
X660Y742D01*
X624Y742D01*
X624Y744D01*
X660Y744D01*
G37*
D02*
G36*
X662Y742D02*
X662Y740D01*
X663Y740D01*
X663Y739D01*
X642Y739D01*
X642Y737D01*
X634Y737D01*
X634Y735D01*
X631Y735D01*
X631Y734D01*
X629Y734D01*
X629Y735D01*
X627Y735D01*
X627Y737D01*
X626Y737D01*
X626Y740D01*
X624Y740D01*
X624Y742D01*
X662Y742D01*
G37*
D02*
G36*
X667Y739D02*
X667Y735D01*
X670Y735D01*
X670Y732D01*
X672Y732D01*
X672Y729D01*
X673Y729D01*
X673Y719D01*
X672Y719D01*
X672Y716D01*
X670Y716D01*
X670Y714D01*
X668Y714D01*
X668Y712D01*
X667Y712D01*
X667Y709D01*
X665Y709D01*
X665Y707D01*
X663Y707D01*
X663Y706D01*
X662Y706D01*
X662Y704D01*
X660Y704D01*
X660Y703D01*
X657Y703D01*
X657Y701D01*
X655Y701D01*
X655Y699D01*
X652Y699D01*
X652Y698D01*
X650Y698D01*
X650Y694D01*
X647Y694D01*
X647Y693D01*
X640Y693D01*
X640Y691D01*
X639Y691D01*
X639Y689D01*
X622Y689D01*
X622Y691D01*
X626Y691D01*
X626Y693D01*
X631Y693D01*
X631Y694D01*
X634Y694D01*
X634Y696D01*
X637Y696D01*
X637Y699D01*
X642Y699D01*
X642Y701D01*
X645Y701D01*
X645Y703D01*
X647Y703D01*
X647Y704D01*
X650Y704D01*
X650Y706D01*
X652Y706D01*
X652Y707D01*
X655Y707D01*
X655Y709D01*
X657Y709D01*
X657Y712D01*
X659Y712D01*
X659Y714D01*
X660Y714D01*
X660Y716D01*
X662Y716D01*
X662Y717D01*
X663Y717D01*
X663Y719D01*
X665Y719D01*
X665Y729D01*
X663Y729D01*
X663Y730D01*
X662Y730D01*
X662Y732D01*
X660Y732D01*
X660Y734D01*
X659Y734D01*
X659Y735D01*
X655Y735D01*
X655Y737D01*
X652Y737D01*
X652Y739D01*
X667Y739D01*
G37*
D02*
G36*
X568Y732D02*
X568Y730D01*
X570Y730D01*
X570Y727D01*
X572Y727D01*
X572Y725D01*
X573Y725D01*
X573Y724D01*
X563Y724D01*
X563Y722D01*
X555Y722D01*
X555Y721D01*
X554Y721D01*
X554Y719D01*
X550Y719D01*
X550Y717D01*
X552Y717D01*
X552Y714D01*
X539Y714D01*
X539Y716D01*
X535Y716D01*
X535Y722D01*
X537Y722D01*
X537Y725D01*
X547Y725D01*
X547Y727D01*
X550Y727D01*
X550Y729D01*
X555Y729D01*
X555Y730D01*
X562Y730D01*
X562Y732D01*
X568Y732D01*
G37*
D02*
G36*
X573Y724D02*
X573Y721D01*
X575Y721D01*
X575Y719D01*
X580Y719D01*
X580Y717D01*
X568Y717D01*
X568Y719D01*
X567Y719D01*
X567Y721D01*
X565Y721D01*
X565Y724D01*
X573Y724D01*
G37*
D02*
G36*
X624Y717D02*
X624Y716D01*
X567Y716D01*
X567Y717D01*
X624Y717D01*
G37*
D02*
G36*
X624Y717D02*
X624Y716D01*
X567Y716D01*
X567Y717D01*
X624Y717D01*
G37*
D02*
G36*
X624Y716D02*
X624Y714D01*
X562Y714D01*
X562Y716D01*
X624Y716D01*
G37*
D02*
G36*
X622Y714D02*
X622Y712D01*
X540Y712D01*
X540Y714D01*
X622Y714D01*
G37*
D02*
G36*
X622Y714D02*
X622Y712D01*
X540Y712D01*
X540Y714D01*
X622Y714D01*
G37*
D02*
G36*
X606Y712D02*
X606Y711D01*
X601Y711D01*
X601Y709D01*
X585Y709D01*
X585Y707D01*
X580Y707D01*
X580Y706D01*
X563Y706D01*
X563Y704D01*
X544Y704D01*
X544Y706D01*
X545Y706D01*
X545Y707D01*
X542Y707D01*
X542Y709D01*
X544Y709D01*
X544Y711D01*
X542Y711D01*
X542Y712D01*
X606Y712D01*
G37*
D02*
G36*
X601Y709D02*
X601Y704D01*
X603Y704D01*
X603Y703D01*
X604Y703D01*
X604Y701D01*
X606Y701D01*
X606Y699D01*
X608Y699D01*
X608Y696D01*
X609Y696D01*
X609Y694D01*
X613Y694D01*
X613Y693D01*
X614Y693D01*
X614Y691D01*
X618Y691D01*
X618Y689D01*
X603Y689D01*
X603Y691D01*
X601Y691D01*
X601Y693D01*
X599Y693D01*
X599Y694D01*
X598Y694D01*
X598Y698D01*
X596Y698D01*
X596Y699D01*
X595Y699D01*
X595Y703D01*
X593Y703D01*
X593Y704D01*
X591Y704D01*
X591Y706D01*
X590Y706D01*
X590Y707D01*
X586Y707D01*
X586Y709D01*
X601Y709D01*
G37*
D02*
G36*
X580Y706D02*
X580Y704D01*
X565Y704D01*
X565Y706D01*
X580Y706D01*
G37*
D02*
G36*
X578Y704D02*
X578Y703D01*
X544Y703D01*
X544Y704D01*
X578Y704D01*
G37*
D02*
G36*
X578Y704D02*
X578Y703D01*
X544Y703D01*
X544Y704D01*
X578Y704D01*
G37*
D02*
G36*
X576Y703D02*
X576Y699D01*
X575Y699D01*
X575Y698D01*
X573Y698D01*
X573Y696D01*
X565Y696D01*
X565Y694D01*
X560Y694D01*
X560Y693D01*
X557Y693D01*
X557Y691D01*
X549Y691D01*
X549Y693D01*
X545Y693D01*
X545Y694D01*
X544Y694D01*
X544Y696D01*
X542Y696D01*
X542Y699D01*
X544Y699D01*
X544Y703D01*
X576Y703D01*
G37*
D02*
G36*
X636Y689D02*
X636Y688D01*
X604Y688D01*
X604Y689D01*
X636Y689D01*
G37*
D02*
G36*
X636Y689D02*
X636Y688D01*
X604Y688D01*
X604Y689D01*
X636Y689D01*
G37*
D02*
G36*
X632Y688D02*
X632Y686D01*
X627Y686D01*
X627Y684D01*
X624Y684D01*
X624Y683D01*
X611Y683D01*
X611Y684D01*
X608Y684D01*
X608Y686D01*
X606Y686D01*
X606Y688D01*
X632Y688D01*
G37*
D02*
G36*
X770Y739D02*
X770Y734D01*
X768Y734D01*
X768Y732D01*
X767Y732D01*
X767Y730D01*
X765Y730D01*
X765Y727D01*
X764Y727D01*
X764Y725D01*
X762Y725D01*
X762Y719D01*
X765Y719D01*
X765Y717D01*
X777Y717D01*
X777Y716D01*
X780Y716D01*
X780Y714D01*
X782Y714D01*
X782Y712D01*
X783Y712D01*
X783Y709D01*
X767Y709D01*
X767Y706D01*
X768Y706D01*
X768Y704D01*
X752Y704D01*
X752Y716D01*
X754Y716D01*
X754Y725D01*
X755Y725D01*
X755Y729D01*
X757Y729D01*
X757Y732D01*
X759Y732D01*
X759Y734D01*
X760Y734D01*
X760Y735D01*
X762Y735D01*
X762Y737D01*
X765Y737D01*
X765Y739D01*
X770Y739D01*
G37*
D02*
G36*
X785Y709D02*
X785Y707D01*
X786Y707D01*
X786Y704D01*
X775Y704D01*
X775Y706D01*
X777Y706D01*
X777Y709D01*
X785Y709D01*
G37*
D02*
G36*
X785Y704D02*
X785Y703D01*
X752Y703D01*
X752Y704D01*
X785Y704D01*
G37*
D02*
G36*
X785Y704D02*
X785Y703D01*
X752Y703D01*
X752Y704D01*
X785Y704D01*
G37*
D02*
G36*
X785Y703D02*
X785Y698D01*
X783Y698D01*
X783Y696D01*
X762Y696D01*
X762Y694D01*
X750Y694D01*
X750Y703D01*
X785Y703D01*
G37*
D02*
G36*
X782Y696D02*
X782Y694D01*
X768Y694D01*
X768Y696D01*
X782Y696D01*
G37*
D02*
G36*
X767Y696D02*
X767Y694D01*
X764Y694D01*
X764Y696D01*
X767Y696D01*
G37*
D02*
G36*
X764Y694D02*
X764Y691D01*
X765Y691D01*
X765Y689D01*
X767Y689D01*
X767Y686D01*
X768Y686D01*
X768Y683D01*
X772Y683D01*
X772Y681D01*
X773Y681D01*
X773Y671D01*
X775Y671D01*
X775Y670D01*
X773Y670D01*
X773Y668D01*
X772Y668D01*
X772Y665D01*
X770Y665D01*
X770Y663D01*
X764Y663D01*
X764Y671D01*
X765Y671D01*
X765Y676D01*
X764Y676D01*
X764Y680D01*
X762Y680D01*
X762Y681D01*
X760Y681D01*
X760Y683D01*
X757Y683D01*
X757Y686D01*
X755Y686D01*
X755Y688D01*
X754Y688D01*
X754Y691D01*
X752Y691D01*
X752Y693D01*
X750Y693D01*
X750Y694D01*
X764Y694D01*
G37*
D02*
G36*
X850Y734D02*
X850Y729D01*
X849Y729D01*
X849Y724D01*
X847Y724D01*
X847Y721D01*
X846Y721D01*
X846Y717D01*
X844Y717D01*
X844Y716D01*
X842Y716D01*
X842Y712D01*
X841Y712D01*
X841Y706D01*
X839Y706D01*
X839Y704D01*
X837Y704D01*
X837Y699D01*
X831Y699D01*
X831Y704D01*
X832Y704D01*
X832Y707D01*
X834Y707D01*
X834Y712D01*
X836Y712D01*
X836Y716D01*
X837Y716D01*
X837Y717D01*
X839Y717D01*
X839Y722D01*
X841Y722D01*
X841Y727D01*
X842Y727D01*
X842Y730D01*
X844Y730D01*
X844Y732D01*
X846Y732D01*
X846Y734D01*
X850Y734D01*
G37*
D02*
G36*
X319Y703D02*
X319Y701D01*
X326Y701D01*
X326Y699D01*
X329Y699D01*
X329Y698D01*
X335Y698D01*
X335Y696D01*
X342Y696D01*
X342Y694D01*
X350Y694D01*
X350Y693D01*
X355Y693D01*
X355Y691D01*
X358Y691D01*
X358Y688D01*
X357Y688D01*
X357Y686D01*
X348Y686D01*
X348Y688D01*
X340Y688D01*
X340Y689D01*
X335Y689D01*
X335Y691D01*
X324Y691D01*
X324Y693D01*
X321Y693D01*
X321Y694D01*
X314Y694D01*
X314Y696D01*
X311Y696D01*
X311Y698D01*
X309Y698D01*
X309Y701D01*
X311Y701D01*
X311Y703D01*
X319Y703D01*
G37*
D02*
G36*
X606Y793D02*
X606Y791D01*
X627Y791D01*
X627Y789D01*
X636Y789D01*
X636Y788D01*
X642Y788D01*
X642Y786D01*
X590Y786D01*
X590Y785D01*
X585Y785D01*
X585Y783D01*
X575Y783D01*
X575Y781D01*
X568Y781D01*
X568Y780D01*
X563Y780D01*
X563Y778D01*
X560Y778D01*
X560Y776D01*
X557Y776D01*
X557Y775D01*
X554Y775D01*
X554Y773D01*
X549Y773D01*
X549Y771D01*
X545Y771D01*
X545Y770D01*
X544Y770D01*
X544Y768D01*
X540Y768D01*
X540Y766D01*
X539Y766D01*
X539Y765D01*
X537Y765D01*
X537Y763D01*
X535Y763D01*
X535Y762D01*
X534Y762D01*
X534Y758D01*
X532Y758D01*
X532Y757D01*
X529Y757D01*
X529Y753D01*
X527Y753D01*
X527Y752D01*
X526Y752D01*
X526Y750D01*
X524Y750D01*
X524Y747D01*
X522Y747D01*
X522Y745D01*
X521Y745D01*
X521Y744D01*
X519Y744D01*
X519Y739D01*
X517Y739D01*
X517Y730D01*
X516Y730D01*
X516Y725D01*
X517Y725D01*
X517Y722D01*
X516Y722D01*
X516Y719D01*
X517Y719D01*
X517Y714D01*
X519Y714D01*
X519Y711D01*
X521Y711D01*
X521Y707D01*
X522Y707D01*
X522Y704D01*
X524Y704D01*
X524Y703D01*
X526Y703D01*
X526Y699D01*
X527Y699D01*
X527Y696D01*
X529Y696D01*
X529Y694D01*
X531Y694D01*
X531Y693D01*
X532Y693D01*
X532Y691D01*
X535Y691D01*
X535Y689D01*
X537Y689D01*
X537Y681D01*
X535Y681D01*
X535Y678D01*
X534Y678D01*
X534Y675D01*
X532Y675D01*
X532Y673D01*
X534Y673D01*
X534Y671D01*
X522Y671D01*
X522Y673D01*
X524Y673D01*
X524Y675D01*
X526Y675D01*
X526Y676D01*
X527Y676D01*
X527Y681D01*
X529Y681D01*
X529Y684D01*
X527Y684D01*
X527Y686D01*
X526Y686D01*
X526Y688D01*
X524Y688D01*
X524Y691D01*
X521Y691D01*
X521Y693D01*
X519Y693D01*
X519Y698D01*
X517Y698D01*
X517Y699D01*
X516Y699D01*
X516Y704D01*
X514Y704D01*
X514Y707D01*
X513Y707D01*
X513Y711D01*
X511Y711D01*
X511Y722D01*
X509Y722D01*
X509Y730D01*
X511Y730D01*
X511Y740D01*
X513Y740D01*
X513Y744D01*
X514Y744D01*
X514Y747D01*
X516Y747D01*
X516Y750D01*
X517Y750D01*
X517Y752D01*
X519Y752D01*
X519Y753D01*
X521Y753D01*
X521Y755D01*
X522Y755D01*
X522Y757D01*
X524Y757D01*
X524Y758D01*
X526Y758D01*
X526Y760D01*
X527Y760D01*
X527Y762D01*
X529Y762D01*
X529Y765D01*
X531Y765D01*
X531Y766D01*
X532Y766D01*
X532Y768D01*
X534Y768D01*
X534Y770D01*
X535Y770D01*
X535Y771D01*
X537Y771D01*
X537Y773D01*
X539Y773D01*
X539Y775D01*
X542Y775D01*
X542Y776D01*
X545Y776D01*
X545Y778D01*
X549Y778D01*
X549Y780D01*
X552Y780D01*
X552Y781D01*
X555Y781D01*
X555Y783D01*
X558Y783D01*
X558Y785D01*
X565Y785D01*
X565Y786D01*
X568Y786D01*
X568Y788D01*
X573Y788D01*
X573Y789D01*
X580Y789D01*
X580Y791D01*
X604Y791D01*
X604Y793D01*
X606Y793D01*
G37*
D02*
G36*
X647Y786D02*
X647Y785D01*
X652Y785D01*
X652Y783D01*
X663Y783D01*
X663Y781D01*
X672Y781D01*
X672Y780D01*
X677Y780D01*
X677Y778D01*
X655Y778D01*
X655Y776D01*
X652Y776D01*
X652Y778D01*
X649Y778D01*
X649Y780D01*
X645Y780D01*
X645Y781D01*
X637Y781D01*
X637Y783D01*
X626Y783D01*
X626Y785D01*
X614Y785D01*
X614Y786D01*
X647Y786D01*
G37*
D02*
G36*
X681Y778D02*
X681Y776D01*
X685Y776D01*
X685Y775D01*
X686Y775D01*
X686Y773D01*
X690Y773D01*
X690Y771D01*
X691Y771D01*
X691Y770D01*
X693Y770D01*
X693Y768D01*
X695Y768D01*
X695Y766D01*
X696Y766D01*
X696Y765D01*
X698Y765D01*
X698Y763D01*
X700Y763D01*
X700Y760D01*
X701Y760D01*
X701Y757D01*
X703Y757D01*
X703Y753D01*
X704Y753D01*
X704Y750D01*
X706Y750D01*
X706Y744D01*
X708Y744D01*
X708Y739D01*
X709Y739D01*
X709Y730D01*
X711Y730D01*
X711Y722D01*
X709Y722D01*
X709Y712D01*
X708Y712D01*
X708Y711D01*
X706Y711D01*
X706Y706D01*
X704Y706D01*
X704Y701D01*
X703Y701D01*
X703Y699D01*
X701Y699D01*
X701Y698D01*
X700Y698D01*
X700Y694D01*
X698Y694D01*
X698Y691D01*
X696Y691D01*
X696Y689D01*
X695Y689D01*
X695Y688D01*
X693Y688D01*
X693Y686D01*
X690Y686D01*
X690Y684D01*
X688Y684D01*
X688Y683D01*
X686Y683D01*
X686Y675D01*
X685Y675D01*
X685Y668D01*
X683Y668D01*
X683Y666D01*
X681Y666D01*
X681Y665D01*
X680Y665D01*
X680Y663D01*
X681Y663D01*
X681Y657D01*
X683Y657D01*
X683Y655D01*
X670Y655D01*
X670Y653D01*
X668Y653D01*
X668Y658D01*
X667Y658D01*
X667Y660D01*
X665Y660D01*
X665Y665D01*
X668Y665D01*
X668Y666D01*
X672Y666D01*
X672Y668D01*
X673Y668D01*
X673Y670D01*
X675Y670D01*
X675Y671D01*
X677Y671D01*
X677Y675D01*
X678Y675D01*
X678Y680D01*
X677Y680D01*
X677Y684D01*
X678Y684D01*
X678Y686D01*
X680Y686D01*
X680Y688D01*
X683Y688D01*
X683Y689D01*
X685Y689D01*
X685Y691D01*
X686Y691D01*
X686Y693D01*
X688Y693D01*
X688Y694D01*
X691Y694D01*
X691Y698D01*
X693Y698D01*
X693Y699D01*
X695Y699D01*
X695Y703D01*
X696Y703D01*
X696Y706D01*
X698Y706D01*
X698Y707D01*
X700Y707D01*
X700Y712D01*
X701Y712D01*
X701Y716D01*
X703Y716D01*
X703Y739D01*
X701Y739D01*
X701Y744D01*
X700Y744D01*
X700Y748D01*
X698Y748D01*
X698Y753D01*
X696Y753D01*
X696Y757D01*
X695Y757D01*
X695Y758D01*
X693Y758D01*
X693Y762D01*
X691Y762D01*
X691Y763D01*
X690Y763D01*
X690Y766D01*
X688Y766D01*
X688Y768D01*
X685Y768D01*
X685Y770D01*
X681Y770D01*
X681Y771D01*
X680Y771D01*
X680Y773D01*
X675Y773D01*
X675Y775D01*
X673Y775D01*
X673Y776D01*
X665Y776D01*
X665Y778D01*
X681Y778D01*
G37*
D02*
G36*
X560Y673D02*
X560Y671D01*
X550Y671D01*
X550Y673D01*
X560Y673D01*
G37*
D02*
G36*
X549Y673D02*
X549Y671D01*
X542Y671D01*
X542Y673D01*
X549Y673D01*
G37*
D02*
G36*
X562Y671D02*
X562Y670D01*
X521Y670D01*
X521Y671D01*
X562Y671D01*
G37*
D02*
G36*
X562Y671D02*
X562Y670D01*
X521Y670D01*
X521Y671D01*
X562Y671D01*
G37*
D02*
G36*
X562Y671D02*
X562Y670D01*
X521Y670D01*
X521Y671D01*
X562Y671D01*
G37*
D02*
G36*
X562Y670D02*
X562Y668D01*
X563Y668D01*
X563Y666D01*
X539Y666D01*
X539Y665D01*
X532Y665D01*
X532Y663D01*
X526Y663D01*
X526Y662D01*
X517Y662D01*
X517Y663D01*
X514Y663D01*
X514Y665D01*
X516Y665D01*
X516Y666D01*
X517Y666D01*
X517Y668D01*
X519Y668D01*
X519Y670D01*
X562Y670D01*
G37*
D02*
G36*
X598Y668D02*
X598Y666D01*
X601Y666D01*
X601Y665D01*
X603Y665D01*
X603Y663D01*
X606Y663D01*
X606Y662D01*
X608Y662D01*
X608Y660D01*
X583Y660D01*
X583Y662D01*
X590Y662D01*
X590Y663D01*
X591Y663D01*
X591Y666D01*
X593Y666D01*
X593Y668D01*
X598Y668D01*
G37*
D02*
G36*
X567Y666D02*
X567Y665D01*
X570Y665D01*
X570Y663D01*
X573Y663D01*
X573Y662D01*
X578Y662D01*
X578Y660D01*
X562Y660D01*
X562Y662D01*
X560Y662D01*
X560Y663D01*
X558Y663D01*
X558Y665D01*
X547Y665D01*
X547Y666D01*
X567Y666D01*
G37*
D02*
G36*
X611Y660D02*
X611Y658D01*
X563Y658D01*
X563Y660D01*
X611Y660D01*
G37*
D02*
G36*
X611Y660D02*
X611Y658D01*
X563Y658D01*
X563Y660D01*
X611Y660D01*
G37*
D02*
G36*
X613Y658D02*
X613Y657D01*
X614Y657D01*
X614Y655D01*
X618Y655D01*
X618Y653D01*
X621Y653D01*
X621Y652D01*
X634Y652D01*
X634Y650D01*
X609Y650D01*
X609Y652D01*
X606Y652D01*
X606Y653D01*
X604Y653D01*
X604Y655D01*
X601Y655D01*
X601Y657D01*
X599Y657D01*
X599Y658D01*
X613Y658D01*
G37*
D02*
G36*
X596Y658D02*
X596Y657D01*
X595Y657D01*
X595Y655D01*
X591Y655D01*
X591Y653D01*
X581Y653D01*
X581Y652D01*
X576Y652D01*
X576Y653D01*
X570Y653D01*
X570Y655D01*
X567Y655D01*
X567Y657D01*
X565Y657D01*
X565Y658D01*
X596Y658D01*
G37*
D02*
G36*
X685Y655D02*
X685Y653D01*
X688Y653D01*
X688Y652D01*
X691Y652D01*
X691Y650D01*
X693Y650D01*
X693Y648D01*
X695Y648D01*
X695Y647D01*
X678Y647D01*
X678Y648D01*
X677Y648D01*
X677Y650D01*
X675Y650D01*
X675Y652D01*
X673Y652D01*
X673Y653D01*
X672Y653D01*
X672Y655D01*
X685Y655D01*
G37*
D02*
G36*
X663Y653D02*
X663Y652D01*
X667Y652D01*
X667Y650D01*
X672Y650D01*
X672Y648D01*
X657Y648D01*
X657Y652D01*
X659Y652D01*
X659Y653D01*
X663Y653D01*
G37*
D02*
G36*
X652Y653D02*
X652Y652D01*
X654Y652D01*
X654Y650D01*
X636Y650D01*
X636Y652D01*
X649Y652D01*
X649Y653D01*
X652Y653D01*
G37*
D02*
G36*
X652Y650D02*
X652Y648D01*
X611Y648D01*
X611Y650D01*
X652Y650D01*
G37*
D02*
G36*
X652Y650D02*
X652Y648D01*
X611Y648D01*
X611Y650D01*
X652Y650D01*
G37*
D02*
G36*
X677Y648D02*
X677Y647D01*
X659Y647D01*
X659Y648D01*
X677Y648D01*
G37*
D02*
G36*
X649Y648D02*
X649Y647D01*
X644Y647D01*
X644Y645D01*
X619Y645D01*
X619Y647D01*
X614Y647D01*
X614Y648D01*
X649Y648D01*
G37*
D02*
G36*
X696Y647D02*
X696Y645D01*
X660Y645D01*
X660Y647D01*
X696Y647D01*
G37*
D02*
G36*
X696Y647D02*
X696Y645D01*
X660Y645D01*
X660Y647D01*
X696Y647D01*
G37*
D02*
G36*
X700Y645D02*
X700Y642D01*
X703Y642D01*
X703Y640D01*
X704Y640D01*
X704Y639D01*
X706Y639D01*
X706Y635D01*
X708Y635D01*
X708Y632D01*
X706Y632D01*
X706Y630D01*
X698Y630D01*
X698Y632D01*
X691Y632D01*
X691Y634D01*
X688Y634D01*
X688Y635D01*
X685Y635D01*
X685Y637D01*
X680Y637D01*
X680Y639D01*
X677Y639D01*
X677Y640D01*
X672Y640D01*
X672Y642D01*
X668Y642D01*
X668Y643D01*
X665Y643D01*
X665Y645D01*
X700Y645D01*
G37*
D02*
G36*
X868Y619D02*
X868Y617D01*
X877Y617D01*
X877Y616D01*
X887Y616D01*
X887Y614D01*
X891Y614D01*
X891Y612D01*
X896Y612D01*
X896Y611D01*
X901Y611D01*
X901Y609D01*
X891Y609D01*
X891Y607D01*
X888Y607D01*
X888Y609D01*
X872Y609D01*
X872Y611D01*
X857Y611D01*
X857Y612D01*
X855Y612D01*
X855Y617D01*
X857Y617D01*
X857Y619D01*
X868Y619D01*
G37*
D02*
G36*
X905Y609D02*
X905Y607D01*
X895Y607D01*
X895Y609D01*
X905Y609D01*
G37*
D02*
G36*
X767Y617D02*
X767Y616D01*
X768Y616D01*
X768Y612D01*
X759Y612D01*
X759Y614D01*
X760Y614D01*
X760Y616D01*
X764Y616D01*
X764Y617D01*
X767Y617D01*
G37*
D02*
G36*
X754Y617D02*
X754Y616D01*
X755Y616D01*
X755Y614D01*
X757Y614D01*
X757Y612D01*
X747Y612D01*
X747Y617D01*
X754Y617D01*
G37*
D02*
G36*
X768Y612D02*
X768Y611D01*
X747Y611D01*
X747Y612D01*
X768Y612D01*
G37*
D02*
G36*
X768Y612D02*
X768Y611D01*
X747Y611D01*
X747Y612D01*
X768Y612D01*
G37*
D02*
G36*
X768Y611D02*
X768Y609D01*
X767Y609D01*
X767Y607D01*
X765Y607D01*
X765Y606D01*
X759Y606D01*
X759Y604D01*
X755Y604D01*
X755Y606D01*
X750Y606D01*
X750Y607D01*
X749Y607D01*
X749Y609D01*
X747Y609D01*
X747Y611D01*
X768Y611D01*
G37*
D02*
G36*
X624Y579D02*
X624Y578D01*
X622Y578D01*
X622Y579D01*
X624Y579D01*
G37*
D02*
G36*
X839Y565D02*
X839Y563D01*
X844Y563D01*
X844Y561D01*
X847Y561D01*
X847Y560D01*
X850Y560D01*
X850Y558D01*
X854Y558D01*
X854Y557D01*
X855Y557D01*
X855Y555D01*
X857Y555D01*
X857Y553D01*
X859Y553D01*
X859Y552D01*
X860Y552D01*
X860Y550D01*
X864Y550D01*
X864Y548D01*
X867Y548D01*
X867Y547D01*
X868Y547D01*
X868Y545D01*
X870Y545D01*
X870Y543D01*
X872Y543D01*
X872Y542D01*
X877Y542D01*
X877Y540D01*
X878Y540D01*
X878Y538D01*
X880Y538D01*
X880Y537D01*
X882Y537D01*
X882Y535D01*
X883Y535D01*
X883Y534D01*
X887Y534D01*
X887Y532D01*
X888Y532D01*
X888Y529D01*
X887Y529D01*
X887Y527D01*
X883Y527D01*
X883Y529D01*
X880Y529D01*
X880Y530D01*
X878Y530D01*
X878Y532D01*
X875Y532D01*
X875Y534D01*
X873Y534D01*
X873Y535D01*
X870Y535D01*
X870Y537D01*
X868Y537D01*
X868Y538D01*
X864Y538D01*
X864Y540D01*
X862Y540D01*
X862Y542D01*
X859Y542D01*
X859Y543D01*
X854Y543D01*
X854Y547D01*
X852Y547D01*
X852Y548D01*
X849Y548D01*
X849Y550D01*
X847Y550D01*
X847Y552D01*
X844Y552D01*
X844Y553D01*
X842Y553D01*
X842Y555D01*
X841Y555D01*
X841Y557D01*
X837Y557D01*
X837Y558D01*
X836Y558D01*
X836Y560D01*
X832Y560D01*
X832Y563D01*
X834Y563D01*
X834Y565D01*
X839Y565D01*
G37*
D02*
G36*
X381Y563D02*
X381Y560D01*
X380Y560D01*
X380Y558D01*
X376Y558D01*
X376Y555D01*
X375Y555D01*
X375Y553D01*
X373Y553D01*
X373Y542D01*
X370Y542D01*
X370Y540D01*
X368Y540D01*
X368Y543D01*
X367Y543D01*
X367Y555D01*
X368Y555D01*
X368Y558D01*
X370Y558D01*
X370Y560D01*
X371Y560D01*
X371Y561D01*
X375Y561D01*
X375Y563D01*
X381Y563D01*
G37*
D02*
G36*
X696Y538D02*
X696Y537D01*
X698Y537D01*
X698Y532D01*
X696Y532D01*
X696Y530D01*
X698Y530D01*
X698Y524D01*
X700Y524D01*
X700Y519D01*
X701Y519D01*
X701Y514D01*
X703Y514D01*
X703Y511D01*
X704Y511D01*
X704Y502D01*
X703Y502D01*
X703Y504D01*
X700Y504D01*
X700Y509D01*
X698Y509D01*
X698Y511D01*
X696Y511D01*
X696Y516D01*
X695Y516D01*
X695Y519D01*
X693Y519D01*
X693Y524D01*
X691Y524D01*
X691Y525D01*
X693Y525D01*
X693Y527D01*
X691Y527D01*
X691Y534D01*
X693Y534D01*
X693Y537D01*
X695Y537D01*
X695Y538D01*
X696Y538D01*
G37*
D02*
G36*
X677Y532D02*
X677Y530D01*
X678Y530D01*
X678Y525D01*
X680Y525D01*
X680Y524D01*
X681Y524D01*
X681Y517D01*
X683Y517D01*
X683Y516D01*
X685Y516D01*
X685Y514D01*
X686Y514D01*
X686Y511D01*
X688Y511D01*
X688Y507D01*
X690Y507D01*
X690Y502D01*
X683Y502D01*
X683Y504D01*
X681Y504D01*
X681Y506D01*
X680Y506D01*
X680Y507D01*
X678Y507D01*
X678Y512D01*
X677Y512D01*
X677Y516D01*
X675Y516D01*
X675Y519D01*
X672Y519D01*
X672Y525D01*
X673Y525D01*
X673Y530D01*
X675Y530D01*
X675Y532D01*
X677Y532D01*
G37*
D02*
G36*
X655Y529D02*
X655Y525D01*
X657Y525D01*
X657Y520D01*
X659Y520D01*
X659Y507D01*
X660Y507D01*
X660Y506D01*
X662Y506D01*
X662Y504D01*
X663Y504D01*
X663Y501D01*
X665Y501D01*
X665Y496D01*
X659Y496D01*
X659Y497D01*
X657Y497D01*
X657Y499D01*
X655Y499D01*
X655Y502D01*
X652Y502D01*
X652Y507D01*
X650Y507D01*
X650Y519D01*
X649Y519D01*
X649Y520D01*
X650Y520D01*
X650Y525D01*
X649Y525D01*
X649Y527D01*
X652Y527D01*
X652Y529D01*
X655Y529D01*
G37*
D02*
G36*
X440Y722D02*
X440Y721D01*
X452Y721D01*
X452Y719D01*
X457Y719D01*
X457Y717D01*
X462Y717D01*
X462Y716D01*
X419Y716D01*
X419Y714D01*
X414Y714D01*
X414Y712D01*
X409Y712D01*
X409Y711D01*
X406Y711D01*
X406Y709D01*
X404Y709D01*
X404Y704D01*
X406Y704D01*
X406Y699D01*
X408Y699D01*
X408Y698D01*
X409Y698D01*
X409Y694D01*
X411Y694D01*
X411Y693D01*
X412Y693D01*
X412Y691D01*
X401Y691D01*
X401Y688D01*
X399Y688D01*
X399Y676D01*
X404Y676D01*
X404Y675D01*
X406Y675D01*
X406Y673D01*
X408Y673D01*
X408Y668D01*
X409Y668D01*
X409Y665D01*
X406Y665D01*
X406Y662D01*
X408Y662D01*
X408Y660D01*
X409Y660D01*
X409Y657D01*
X398Y657D01*
X398Y655D01*
X389Y655D01*
X389Y663D01*
X391Y663D01*
X391Y681D01*
X393Y681D01*
X393Y712D01*
X394Y712D01*
X394Y714D01*
X399Y714D01*
X399Y716D01*
X404Y716D01*
X404Y717D01*
X409Y717D01*
X409Y719D01*
X419Y719D01*
X419Y721D01*
X427Y721D01*
X427Y722D01*
X440Y722D01*
G37*
D02*
G36*
X468Y716D02*
X468Y714D01*
X472Y714D01*
X472Y712D01*
X475Y712D01*
X475Y711D01*
X476Y711D01*
X476Y709D01*
X478Y709D01*
X478Y707D01*
X481Y707D01*
X481Y704D01*
X485Y704D01*
X485Y703D01*
X486Y703D01*
X486Y701D01*
X488Y701D01*
X488Y698D01*
X490Y698D01*
X490Y694D01*
X491Y694D01*
X491Y691D01*
X493Y691D01*
X493Y684D01*
X494Y684D01*
X494Y680D01*
X493Y680D01*
X493Y678D01*
X494Y678D01*
X494Y675D01*
X493Y675D01*
X493Y666D01*
X491Y666D01*
X491Y657D01*
X481Y657D01*
X481Y655D01*
X478Y655D01*
X478Y653D01*
X458Y653D01*
X458Y655D01*
X462Y655D01*
X462Y657D01*
X468Y657D01*
X468Y658D01*
X472Y658D01*
X472Y660D01*
X473Y660D01*
X473Y662D01*
X475Y662D01*
X475Y663D01*
X478Y663D01*
X478Y665D01*
X480Y665D01*
X480Y666D01*
X481Y666D01*
X481Y671D01*
X483Y671D01*
X483Y676D01*
X485Y676D01*
X485Y680D01*
X483Y680D01*
X483Y681D01*
X485Y681D01*
X485Y684D01*
X483Y684D01*
X483Y686D01*
X485Y686D01*
X485Y689D01*
X483Y689D01*
X483Y694D01*
X481Y694D01*
X481Y698D01*
X480Y698D01*
X480Y699D01*
X478Y699D01*
X478Y703D01*
X475Y703D01*
X475Y704D01*
X472Y704D01*
X472Y706D01*
X470Y706D01*
X470Y707D01*
X467Y707D01*
X467Y709D01*
X465Y709D01*
X465Y711D01*
X462Y711D01*
X462Y712D01*
X455Y712D01*
X455Y714D01*
X449Y714D01*
X449Y716D01*
X468Y716D01*
G37*
D02*
G36*
X412Y691D02*
X412Y689D01*
X414Y689D01*
X414Y688D01*
X417Y688D01*
X417Y684D01*
X419Y684D01*
X419Y683D01*
X421Y683D01*
X421Y680D01*
X422Y680D01*
X422Y676D01*
X424Y676D01*
X424Y675D01*
X426Y675D01*
X426Y673D01*
X427Y673D01*
X427Y671D01*
X429Y671D01*
X429Y670D01*
X430Y670D01*
X430Y668D01*
X432Y668D01*
X432Y665D01*
X435Y665D01*
X435Y663D01*
X437Y663D01*
X437Y662D01*
X439Y662D01*
X439Y660D01*
X440Y660D01*
X440Y657D01*
X444Y657D01*
X444Y655D01*
X453Y655D01*
X453Y653D01*
X434Y653D01*
X434Y655D01*
X432Y655D01*
X432Y657D01*
X430Y657D01*
X430Y658D01*
X429Y658D01*
X429Y662D01*
X427Y662D01*
X427Y663D01*
X426Y663D01*
X426Y665D01*
X424Y665D01*
X424Y666D01*
X422Y666D01*
X422Y668D01*
X421Y668D01*
X421Y670D01*
X419Y670D01*
X419Y671D01*
X417Y671D01*
X417Y673D01*
X416Y673D01*
X416Y676D01*
X414Y676D01*
X414Y678D01*
X412Y678D01*
X412Y681D01*
X411Y681D01*
X411Y683D01*
X409Y683D01*
X409Y684D01*
X408Y684D01*
X408Y686D01*
X406Y686D01*
X406Y688D01*
X403Y688D01*
X403Y691D01*
X412Y691D01*
G37*
D02*
G36*
X754Y680D02*
X754Y678D01*
X757Y678D01*
X757Y675D01*
X754Y675D01*
X754Y673D01*
X752Y673D01*
X752Y671D01*
X750Y671D01*
X750Y668D01*
X749Y668D01*
X749Y665D01*
X747Y665D01*
X747Y663D01*
X750Y663D01*
X750Y660D01*
X752Y660D01*
X752Y657D01*
X754Y657D01*
X754Y655D01*
X757Y655D01*
X757Y653D01*
X759Y653D01*
X759Y652D01*
X762Y652D01*
X762Y650D01*
X731Y650D01*
X731Y653D01*
X732Y653D01*
X732Y657D01*
X734Y657D01*
X734Y663D01*
X736Y663D01*
X736Y668D01*
X737Y668D01*
X737Y671D01*
X739Y671D01*
X739Y673D01*
X742Y673D01*
X742Y675D01*
X744Y675D01*
X744Y676D01*
X747Y676D01*
X747Y678D01*
X750Y678D01*
X750Y680D01*
X754Y680D01*
G37*
D02*
G36*
X785Y676D02*
X785Y675D01*
X788Y675D01*
X788Y673D01*
X790Y673D01*
X790Y671D01*
X791Y671D01*
X791Y670D01*
X793Y670D01*
X793Y668D01*
X795Y668D01*
X795Y665D01*
X796Y665D01*
X796Y662D01*
X798Y662D01*
X798Y652D01*
X800Y652D01*
X800Y650D01*
X778Y650D01*
X778Y652D01*
X785Y652D01*
X785Y655D01*
X788Y655D01*
X788Y658D01*
X786Y658D01*
X786Y660D01*
X788Y660D01*
X788Y662D01*
X785Y662D01*
X785Y665D01*
X783Y665D01*
X783Y666D01*
X782Y666D01*
X782Y668D01*
X778Y668D01*
X778Y671D01*
X777Y671D01*
X777Y675D01*
X778Y675D01*
X778Y676D01*
X785Y676D01*
G37*
D02*
G36*
X491Y657D02*
X491Y647D01*
X490Y647D01*
X490Y632D01*
X488Y632D01*
X488Y630D01*
X490Y630D01*
X490Y629D01*
X488Y629D01*
X488Y624D01*
X486Y624D01*
X486Y620D01*
X485Y620D01*
X485Y617D01*
X483Y617D01*
X483Y616D01*
X485Y616D01*
X485Y612D01*
X483Y612D01*
X483Y609D01*
X485Y609D01*
X485Y607D01*
X488Y607D01*
X488Y606D01*
X491Y606D01*
X491Y604D01*
X493Y604D01*
X493Y602D01*
X494Y602D01*
X494Y601D01*
X475Y601D01*
X475Y599D01*
X473Y599D01*
X473Y598D01*
X472Y598D01*
X472Y594D01*
X470Y594D01*
X470Y593D01*
X468Y593D01*
X468Y591D01*
X455Y591D01*
X455Y593D01*
X457Y593D01*
X457Y594D01*
X460Y594D01*
X460Y596D01*
X462Y596D01*
X462Y598D01*
X463Y598D01*
X463Y599D01*
X465Y599D01*
X465Y601D01*
X467Y601D01*
X467Y602D01*
X468Y602D01*
X468Y606D01*
X470Y606D01*
X470Y609D01*
X468Y609D01*
X468Y614D01*
X470Y614D01*
X470Y616D01*
X476Y616D01*
X476Y617D01*
X478Y617D01*
X478Y622D01*
X480Y622D01*
X480Y625D01*
X481Y625D01*
X481Y630D01*
X483Y630D01*
X483Y657D01*
X491Y657D01*
G37*
D02*
G36*
X422Y657D02*
X422Y655D01*
X424Y655D01*
X424Y653D01*
X417Y653D01*
X417Y657D01*
X422Y657D01*
G37*
D02*
G36*
X411Y657D02*
X411Y655D01*
X399Y655D01*
X399Y657D01*
X411Y657D01*
G37*
D02*
G36*
X414Y655D02*
X414Y653D01*
X389Y653D01*
X389Y655D01*
X414Y655D01*
G37*
D02*
G36*
X414Y655D02*
X414Y653D01*
X389Y653D01*
X389Y655D01*
X414Y655D01*
G37*
D02*
G36*
X475Y653D02*
X475Y652D01*
X437Y652D01*
X437Y653D01*
X475Y653D01*
G37*
D02*
G36*
X475Y653D02*
X475Y652D01*
X437Y652D01*
X437Y653D01*
X475Y653D01*
G37*
D02*
G36*
X424Y653D02*
X424Y652D01*
X404Y652D01*
X404Y653D01*
X424Y653D01*
G37*
D02*
G36*
X424Y653D02*
X424Y652D01*
X404Y652D01*
X404Y653D01*
X424Y653D01*
G37*
D02*
G36*
X398Y653D02*
X398Y650D01*
X399Y650D01*
X399Y648D01*
X401Y648D01*
X401Y647D01*
X403Y647D01*
X403Y645D01*
X404Y645D01*
X404Y643D01*
X409Y643D01*
X409Y642D01*
X411Y642D01*
X411Y639D01*
X412Y639D01*
X412Y635D01*
X399Y635D01*
X399Y632D01*
X401Y632D01*
X401Y630D01*
X399Y630D01*
X399Y629D01*
X401Y629D01*
X401Y625D01*
X403Y625D01*
X403Y622D01*
X404Y622D01*
X404Y620D01*
X408Y620D01*
X408Y619D01*
X411Y619D01*
X411Y617D01*
X412Y617D01*
X412Y616D01*
X414Y616D01*
X414Y612D01*
X416Y612D01*
X416Y611D01*
X417Y611D01*
X417Y609D01*
X419Y609D01*
X419Y607D01*
X422Y607D01*
X422Y606D01*
X424Y606D01*
X424Y602D01*
X427Y602D01*
X427Y601D01*
X429Y601D01*
X429Y599D01*
X432Y599D01*
X432Y598D01*
X434Y598D01*
X434Y596D01*
X435Y596D01*
X435Y594D01*
X437Y594D01*
X437Y593D01*
X440Y593D01*
X440Y591D01*
X426Y591D01*
X426Y593D01*
X424Y593D01*
X424Y596D01*
X421Y596D01*
X421Y599D01*
X417Y599D01*
X417Y601D01*
X416Y601D01*
X416Y602D01*
X414Y602D01*
X414Y604D01*
X412Y604D01*
X412Y606D01*
X411Y606D01*
X411Y607D01*
X409Y607D01*
X409Y609D01*
X406Y609D01*
X406Y611D01*
X403Y611D01*
X403Y612D01*
X401Y612D01*
X401Y616D01*
X399Y616D01*
X399Y617D01*
X398Y617D01*
X398Y620D01*
X396Y620D01*
X396Y622D01*
X394Y622D01*
X394Y624D01*
X393Y624D01*
X393Y629D01*
X391Y629D01*
X391Y630D01*
X393Y630D01*
X393Y637D01*
X391Y637D01*
X391Y643D01*
X389Y643D01*
X389Y645D01*
X391Y645D01*
X391Y648D01*
X389Y648D01*
X389Y653D01*
X398Y653D01*
G37*
D02*
G36*
X472Y652D02*
X472Y650D01*
X467Y650D01*
X467Y648D01*
X463Y648D01*
X463Y647D01*
X462Y647D01*
X462Y645D01*
X458Y645D01*
X458Y643D01*
X457Y643D01*
X457Y642D01*
X455Y642D01*
X455Y637D01*
X453Y637D01*
X453Y632D01*
X455Y632D01*
X455Y630D01*
X453Y630D01*
X453Y619D01*
X455Y619D01*
X455Y617D01*
X453Y617D01*
X453Y607D01*
X452Y607D01*
X452Y593D01*
X453Y593D01*
X453Y591D01*
X442Y591D01*
X442Y594D01*
X444Y594D01*
X444Y599D01*
X445Y599D01*
X445Y601D01*
X444Y601D01*
X444Y604D01*
X445Y604D01*
X445Y614D01*
X447Y614D01*
X447Y642D01*
X445Y642D01*
X445Y647D01*
X444Y647D01*
X444Y648D01*
X442Y648D01*
X442Y650D01*
X440Y650D01*
X440Y652D01*
X472Y652D01*
G37*
D02*
G36*
X426Y652D02*
X426Y650D01*
X429Y650D01*
X429Y648D01*
X430Y648D01*
X430Y647D01*
X432Y647D01*
X432Y645D01*
X430Y645D01*
X430Y643D01*
X426Y643D01*
X426Y645D01*
X422Y645D01*
X422Y647D01*
X421Y647D01*
X421Y648D01*
X419Y648D01*
X419Y650D01*
X417Y650D01*
X417Y652D01*
X426Y652D01*
G37*
D02*
G36*
X416Y652D02*
X416Y650D01*
X414Y650D01*
X414Y648D01*
X409Y648D01*
X409Y650D01*
X406Y650D01*
X406Y652D01*
X416Y652D01*
G37*
D02*
G36*
X800Y650D02*
X800Y648D01*
X731Y648D01*
X731Y650D01*
X800Y650D01*
G37*
D02*
G36*
X800Y650D02*
X800Y648D01*
X731Y648D01*
X731Y650D01*
X800Y650D01*
G37*
D02*
G36*
X798Y648D02*
X798Y645D01*
X796Y645D01*
X796Y643D01*
X798Y643D01*
X798Y642D01*
X737Y642D01*
X737Y637D01*
X736Y637D01*
X736Y635D01*
X734Y635D01*
X734Y630D01*
X732Y630D01*
X732Y625D01*
X731Y625D01*
X731Y620D01*
X729Y620D01*
X729Y617D01*
X727Y617D01*
X727Y614D01*
X726Y614D01*
X726Y611D01*
X724Y611D01*
X724Y604D01*
X722Y604D01*
X722Y601D01*
X721Y601D01*
X721Y594D01*
X719Y594D01*
X719Y589D01*
X718Y589D01*
X718Y584D01*
X703Y584D01*
X703Y583D01*
X696Y583D01*
X696Y581D01*
X663Y581D01*
X663Y583D01*
X673Y583D01*
X673Y584D01*
X683Y584D01*
X683Y586D01*
X690Y586D01*
X690Y588D01*
X695Y588D01*
X695Y589D01*
X698Y589D01*
X698Y591D01*
X703Y591D01*
X703Y593D01*
X706Y593D01*
X706Y594D01*
X709Y594D01*
X709Y598D01*
X711Y598D01*
X711Y599D01*
X713Y599D01*
X713Y604D01*
X714Y604D01*
X714Y607D01*
X716Y607D01*
X716Y612D01*
X718Y612D01*
X718Y617D01*
X719Y617D01*
X719Y622D01*
X721Y622D01*
X721Y624D01*
X722Y624D01*
X722Y630D01*
X724Y630D01*
X724Y635D01*
X726Y635D01*
X726Y640D01*
X727Y640D01*
X727Y642D01*
X729Y642D01*
X729Y647D01*
X731Y647D01*
X731Y648D01*
X798Y648D01*
G37*
D02*
G36*
X796Y642D02*
X796Y639D01*
X747Y639D01*
X747Y637D01*
X745Y637D01*
X745Y639D01*
X744Y639D01*
X744Y640D01*
X741Y640D01*
X741Y642D01*
X796Y642D01*
G37*
D02*
G36*
X796Y639D02*
X796Y635D01*
X795Y635D01*
X795Y632D01*
X793Y632D01*
X793Y627D01*
X791Y627D01*
X791Y625D01*
X790Y625D01*
X790Y620D01*
X788Y620D01*
X788Y619D01*
X786Y619D01*
X786Y614D01*
X785Y614D01*
X785Y609D01*
X783Y609D01*
X783Y606D01*
X782Y606D01*
X782Y602D01*
X780Y602D01*
X780Y601D01*
X782Y601D01*
X782Y599D01*
X785Y599D01*
X785Y598D01*
X788Y598D01*
X788Y596D01*
X790Y596D01*
X790Y594D01*
X791Y594D01*
X791Y593D01*
X793Y593D01*
X793Y589D01*
X795Y589D01*
X795Y584D01*
X777Y584D01*
X777Y586D01*
X780Y586D01*
X780Y589D01*
X775Y589D01*
X775Y591D01*
X770Y591D01*
X770Y593D01*
X768Y593D01*
X768Y594D01*
X767Y594D01*
X767Y596D01*
X765Y596D01*
X765Y601D01*
X767Y601D01*
X767Y604D01*
X770Y604D01*
X770Y607D01*
X772Y607D01*
X772Y609D01*
X773Y609D01*
X773Y612D01*
X775Y612D01*
X775Y616D01*
X777Y616D01*
X777Y620D01*
X778Y620D01*
X778Y624D01*
X780Y624D01*
X780Y627D01*
X778Y627D01*
X778Y629D01*
X773Y629D01*
X773Y630D01*
X764Y630D01*
X764Y632D01*
X759Y632D01*
X759Y634D01*
X755Y634D01*
X755Y635D01*
X752Y635D01*
X752Y637D01*
X749Y637D01*
X749Y639D01*
X796Y639D01*
G37*
D02*
G36*
X411Y635D02*
X411Y634D01*
X406Y634D01*
X406Y635D01*
X411Y635D01*
G37*
D02*
G36*
X404Y635D02*
X404Y634D01*
X403Y634D01*
X403Y635D01*
X404Y635D01*
G37*
D02*
G36*
X608Y609D02*
X608Y607D01*
X596Y607D01*
X596Y609D01*
X608Y609D01*
G37*
D02*
G36*
X593Y609D02*
X593Y607D01*
X578Y607D01*
X578Y609D01*
X593Y609D01*
G37*
D02*
G36*
X609Y607D02*
X609Y606D01*
X573Y606D01*
X573Y607D01*
X609Y607D01*
G37*
D02*
G36*
X609Y607D02*
X609Y606D01*
X573Y606D01*
X573Y607D01*
X609Y607D01*
G37*
D02*
G36*
X613Y606D02*
X613Y604D01*
X614Y604D01*
X614Y602D01*
X576Y602D01*
X576Y601D01*
X573Y601D01*
X573Y599D01*
X570Y599D01*
X570Y596D01*
X568Y596D01*
X568Y594D01*
X567Y594D01*
X567Y593D01*
X527Y593D01*
X527Y594D01*
X552Y594D01*
X552Y596D01*
X554Y596D01*
X554Y598D01*
X555Y598D01*
X555Y599D01*
X558Y599D01*
X558Y601D01*
X562Y601D01*
X562Y602D01*
X565Y602D01*
X565Y604D01*
X567Y604D01*
X567Y606D01*
X613Y606D01*
G37*
D02*
G36*
X618Y602D02*
X618Y601D01*
X603Y601D01*
X603Y594D01*
X606Y594D01*
X606Y591D01*
X608Y591D01*
X608Y588D01*
X609Y588D01*
X609Y584D01*
X608Y584D01*
X608Y583D01*
X603Y583D01*
X603Y581D01*
X596Y581D01*
X596Y579D01*
X595Y579D01*
X595Y578D01*
X593Y578D01*
X593Y571D01*
X583Y571D01*
X583Y584D01*
X585Y584D01*
X585Y586D01*
X588Y586D01*
X588Y588D01*
X591Y588D01*
X591Y589D01*
X595Y589D01*
X595Y593D01*
X593Y593D01*
X593Y594D01*
X591Y594D01*
X591Y598D01*
X590Y598D01*
X590Y601D01*
X588Y601D01*
X588Y602D01*
X618Y602D01*
G37*
D02*
G36*
X619Y601D02*
X619Y599D01*
X621Y599D01*
X621Y598D01*
X622Y598D01*
X622Y594D01*
X624Y594D01*
X624Y591D01*
X626Y591D01*
X626Y589D01*
X627Y589D01*
X627Y588D01*
X629Y588D01*
X629Y586D01*
X631Y586D01*
X631Y584D01*
X632Y584D01*
X632Y583D01*
X636Y583D01*
X636Y581D01*
X624Y581D01*
X624Y583D01*
X622Y583D01*
X622Y588D01*
X621Y588D01*
X621Y589D01*
X618Y589D01*
X618Y591D01*
X616Y591D01*
X616Y593D01*
X614Y593D01*
X614Y594D01*
X613Y594D01*
X613Y598D01*
X609Y598D01*
X609Y599D01*
X604Y599D01*
X604Y601D01*
X619Y601D01*
G37*
D02*
G36*
X498Y601D02*
X498Y599D01*
X501Y599D01*
X501Y598D01*
X504Y598D01*
X504Y596D01*
X513Y596D01*
X513Y594D01*
X519Y594D01*
X519Y593D01*
X493Y593D01*
X493Y594D01*
X491Y594D01*
X491Y596D01*
X488Y596D01*
X488Y598D01*
X485Y598D01*
X485Y599D01*
X481Y599D01*
X481Y601D01*
X498Y601D01*
G37*
D02*
G36*
X760Y598D02*
X760Y596D01*
X764Y596D01*
X764Y591D01*
X765Y591D01*
X765Y589D01*
X767Y589D01*
X767Y586D01*
X775Y586D01*
X775Y584D01*
X757Y584D01*
X757Y586D01*
X755Y586D01*
X755Y588D01*
X754Y588D01*
X754Y596D01*
X755Y596D01*
X755Y598D01*
X760Y598D01*
G37*
D02*
G36*
X562Y593D02*
X562Y591D01*
X496Y591D01*
X496Y593D01*
X562Y593D01*
G37*
D02*
G36*
X562Y593D02*
X562Y591D01*
X496Y591D01*
X496Y593D01*
X562Y593D01*
G37*
D02*
G36*
X562Y591D02*
X562Y589D01*
X560Y589D01*
X560Y588D01*
X526Y588D01*
X526Y586D01*
X513Y586D01*
X513Y588D01*
X506Y588D01*
X506Y589D01*
X501Y589D01*
X501Y591D01*
X562Y591D01*
G37*
D02*
G36*
X465Y591D02*
X465Y589D01*
X424Y589D01*
X424Y591D01*
X465Y591D01*
G37*
D02*
G36*
X465Y591D02*
X465Y589D01*
X424Y589D01*
X424Y591D01*
X465Y591D01*
G37*
D02*
G36*
X465Y591D02*
X465Y589D01*
X424Y589D01*
X424Y591D01*
X465Y591D01*
G37*
D02*
G36*
X465Y589D02*
X465Y588D01*
X463Y588D01*
X463Y586D01*
X430Y586D01*
X430Y584D01*
X429Y584D01*
X429Y583D01*
X427Y583D01*
X427Y579D01*
X426Y579D01*
X426Y578D01*
X424Y578D01*
X424Y573D01*
X422Y573D01*
X422Y570D01*
X421Y570D01*
X421Y558D01*
X422Y558D01*
X422Y552D01*
X424Y552D01*
X424Y547D01*
X426Y547D01*
X426Y543D01*
X427Y543D01*
X427Y540D01*
X429Y540D01*
X429Y538D01*
X430Y538D01*
X430Y535D01*
X432Y535D01*
X432Y534D01*
X434Y534D01*
X434Y530D01*
X422Y530D01*
X422Y535D01*
X421Y535D01*
X421Y542D01*
X419Y542D01*
X419Y543D01*
X417Y543D01*
X417Y545D01*
X416Y545D01*
X416Y555D01*
X414Y555D01*
X414Y558D01*
X412Y558D01*
X412Y570D01*
X414Y570D01*
X414Y575D01*
X416Y575D01*
X416Y579D01*
X417Y579D01*
X417Y581D01*
X419Y581D01*
X419Y584D01*
X421Y584D01*
X421Y586D01*
X422Y586D01*
X422Y589D01*
X465Y589D01*
G37*
D02*
G36*
X560Y588D02*
X560Y584D01*
X562Y584D01*
X562Y581D01*
X565Y581D01*
X565Y578D01*
X567Y578D01*
X567Y576D01*
X570Y576D01*
X570Y575D01*
X572Y575D01*
X572Y573D01*
X576Y573D01*
X576Y571D01*
X560Y571D01*
X560Y573D01*
X558Y573D01*
X558Y575D01*
X557Y575D01*
X557Y576D01*
X555Y576D01*
X555Y579D01*
X554Y579D01*
X554Y583D01*
X550Y583D01*
X550Y586D01*
X549Y586D01*
X549Y588D01*
X560Y588D01*
G37*
D02*
G36*
X462Y586D02*
X462Y584D01*
X458Y584D01*
X458Y581D01*
X450Y581D01*
X450Y579D01*
X440Y579D01*
X440Y581D01*
X437Y581D01*
X437Y584D01*
X432Y584D01*
X432Y586D01*
X462Y586D01*
G37*
D02*
G36*
X793Y584D02*
X793Y583D01*
X757Y583D01*
X757Y584D01*
X793Y584D01*
G37*
D02*
G36*
X793Y584D02*
X793Y583D01*
X757Y583D01*
X757Y584D01*
X793Y584D01*
G37*
D02*
G36*
X716Y584D02*
X716Y581D01*
X714Y581D01*
X714Y573D01*
X713Y573D01*
X713Y568D01*
X714Y568D01*
X714Y565D01*
X716Y565D01*
X716Y563D01*
X718Y563D01*
X718Y561D01*
X719Y561D01*
X719Y560D01*
X721Y560D01*
X721Y558D01*
X726Y558D01*
X726Y557D01*
X731Y557D01*
X731Y555D01*
X739Y555D01*
X739Y553D01*
X713Y553D01*
X713Y555D01*
X711Y555D01*
X711Y557D01*
X709Y557D01*
X709Y560D01*
X708Y560D01*
X708Y561D01*
X706Y561D01*
X706Y563D01*
X704Y563D01*
X704Y568D01*
X703Y568D01*
X703Y570D01*
X704Y570D01*
X704Y573D01*
X703Y573D01*
X703Y576D01*
X704Y576D01*
X704Y584D01*
X716Y584D01*
G37*
D02*
G36*
X791Y583D02*
X791Y581D01*
X788Y581D01*
X788Y579D01*
X780Y579D01*
X780Y578D01*
X770Y578D01*
X770Y576D01*
X767Y576D01*
X767Y575D01*
X765Y575D01*
X765Y571D01*
X764Y571D01*
X764Y568D01*
X762Y568D01*
X762Y563D01*
X760Y563D01*
X760Y558D01*
X759Y558D01*
X759Y557D01*
X757Y557D01*
X757Y553D01*
X747Y553D01*
X747Y555D01*
X749Y555D01*
X749Y560D01*
X750Y560D01*
X750Y563D01*
X752Y563D01*
X752Y570D01*
X754Y570D01*
X754Y573D01*
X755Y573D01*
X755Y576D01*
X757Y576D01*
X757Y581D01*
X759Y581D01*
X759Y583D01*
X791Y583D01*
G37*
D02*
G36*
X640Y583D02*
X640Y581D01*
X637Y581D01*
X637Y583D01*
X640Y583D01*
G37*
D02*
G36*
X691Y581D02*
X691Y579D01*
X626Y579D01*
X626Y581D01*
X691Y581D01*
G37*
D02*
G36*
X691Y581D02*
X691Y579D01*
X626Y579D01*
X626Y581D01*
X691Y581D01*
G37*
D02*
G36*
X691Y581D02*
X691Y579D01*
X626Y579D01*
X626Y581D01*
X691Y581D01*
G37*
D02*
G36*
X460Y581D02*
X460Y578D01*
X462Y578D01*
X462Y563D01*
X460Y563D01*
X460Y561D01*
X458Y561D01*
X458Y560D01*
X457Y560D01*
X457Y558D01*
X453Y558D01*
X453Y555D01*
X452Y555D01*
X452Y553D01*
X450Y553D01*
X450Y552D01*
X449Y552D01*
X449Y548D01*
X447Y548D01*
X447Y537D01*
X437Y537D01*
X437Y543D01*
X439Y543D01*
X439Y550D01*
X440Y550D01*
X440Y553D01*
X442Y553D01*
X442Y557D01*
X444Y557D01*
X444Y558D01*
X445Y558D01*
X445Y560D01*
X447Y560D01*
X447Y561D01*
X449Y561D01*
X449Y563D01*
X450Y563D01*
X450Y565D01*
X453Y565D01*
X453Y570D01*
X455Y570D01*
X455Y575D01*
X453Y575D01*
X453Y581D01*
X460Y581D01*
G37*
D02*
G36*
X783Y579D02*
X783Y578D01*
X782Y578D01*
X782Y579D01*
X783Y579D01*
G37*
D02*
G36*
X686Y579D02*
X686Y578D01*
X683Y578D01*
X683Y576D01*
X670Y576D01*
X670Y575D01*
X662Y575D01*
X662Y573D01*
X640Y573D01*
X640Y571D01*
X639Y571D01*
X639Y568D01*
X637Y568D01*
X637Y561D01*
X636Y561D01*
X636Y560D01*
X616Y560D01*
X616Y561D01*
X621Y561D01*
X621Y563D01*
X624Y563D01*
X624Y565D01*
X627Y565D01*
X627Y566D01*
X629Y566D01*
X629Y571D01*
X631Y571D01*
X631Y576D01*
X629Y576D01*
X629Y578D01*
X627Y578D01*
X627Y579D01*
X686Y579D01*
G37*
D02*
G36*
X596Y571D02*
X596Y570D01*
X563Y570D01*
X563Y571D01*
X596Y571D01*
G37*
D02*
G36*
X596Y571D02*
X596Y570D01*
X563Y570D01*
X563Y571D01*
X596Y571D01*
G37*
D02*
G36*
X598Y570D02*
X598Y568D01*
X599Y568D01*
X599Y566D01*
X601Y566D01*
X601Y565D01*
X603Y565D01*
X603Y563D01*
X608Y563D01*
X608Y561D01*
X573Y561D01*
X573Y563D01*
X572Y563D01*
X572Y565D01*
X570Y565D01*
X570Y566D01*
X568Y566D01*
X568Y568D01*
X567Y568D01*
X567Y570D01*
X598Y570D01*
G37*
D02*
G36*
X611Y563D02*
X611Y561D01*
X609Y561D01*
X609Y563D01*
X611Y563D01*
G37*
D02*
G36*
X613Y561D02*
X613Y560D01*
X590Y560D01*
X590Y561D01*
X613Y561D01*
G37*
D02*
G36*
X613Y561D02*
X613Y560D01*
X590Y560D01*
X590Y561D01*
X613Y561D01*
G37*
D02*
G36*
X632Y560D02*
X632Y558D01*
X595Y558D01*
X595Y560D01*
X632Y560D01*
G37*
D02*
G36*
X632Y560D02*
X632Y558D01*
X595Y558D01*
X595Y560D01*
X632Y560D01*
G37*
D02*
G36*
X627Y558D02*
X627Y557D01*
X624Y557D01*
X624Y555D01*
X622Y555D01*
X622Y553D01*
X619Y553D01*
X619Y552D01*
X608Y552D01*
X608Y555D01*
X603Y555D01*
X603Y557D01*
X596Y557D01*
X596Y558D01*
X627Y558D01*
G37*
D02*
G36*
X755Y553D02*
X755Y552D01*
X714Y552D01*
X714Y553D01*
X755Y553D01*
G37*
D02*
G36*
X755Y553D02*
X755Y552D01*
X714Y552D01*
X714Y553D01*
X755Y553D01*
G37*
D02*
G36*
X752Y552D02*
X752Y545D01*
X731Y545D01*
X731Y543D01*
X729Y543D01*
X729Y540D01*
X727Y540D01*
X727Y538D01*
X729Y538D01*
X729Y529D01*
X727Y529D01*
X727Y517D01*
X729Y517D01*
X729Y514D01*
X731Y514D01*
X731Y511D01*
X721Y511D01*
X721Y512D01*
X719Y512D01*
X719Y516D01*
X718Y516D01*
X718Y524D01*
X716Y524D01*
X716Y525D01*
X718Y525D01*
X718Y540D01*
X719Y540D01*
X719Y550D01*
X716Y550D01*
X716Y552D01*
X752Y552D01*
G37*
D02*
G36*
X750Y545D02*
X750Y543D01*
X742Y543D01*
X742Y542D01*
X739Y542D01*
X739Y545D01*
X750Y545D01*
G37*
D02*
G36*
X478Y540D02*
X478Y538D01*
X481Y538D01*
X481Y537D01*
X450Y537D01*
X450Y538D01*
X465Y538D01*
X465Y540D01*
X478Y540D01*
G37*
D02*
G36*
X403Y538D02*
X403Y537D01*
X406Y537D01*
X406Y535D01*
X412Y535D01*
X412Y534D01*
X416Y534D01*
X416Y532D01*
X419Y532D01*
X419Y530D01*
X396Y530D01*
X396Y527D01*
X394Y527D01*
X394Y525D01*
X396Y525D01*
X396Y522D01*
X401Y522D01*
X401Y520D01*
X404Y520D01*
X404Y519D01*
X388Y519D01*
X388Y525D01*
X386Y525D01*
X386Y530D01*
X388Y530D01*
X388Y534D01*
X389Y534D01*
X389Y535D01*
X391Y535D01*
X391Y537D01*
X393Y537D01*
X393Y538D01*
X403Y538D01*
G37*
D02*
G36*
X481Y537D02*
X481Y535D01*
X437Y535D01*
X437Y537D01*
X481Y537D01*
G37*
D02*
G36*
X481Y537D02*
X481Y535D01*
X437Y535D01*
X437Y537D01*
X481Y537D01*
G37*
D02*
G36*
X481Y535D02*
X481Y532D01*
X458Y532D01*
X458Y530D01*
X462Y530D01*
X462Y529D01*
X439Y529D01*
X439Y534D01*
X437Y534D01*
X437Y535D01*
X481Y535D01*
G37*
D02*
G36*
X481Y532D02*
X481Y529D01*
X467Y529D01*
X467Y530D01*
X468Y530D01*
X468Y532D01*
X481Y532D01*
G37*
D02*
G36*
X435Y530D02*
X435Y529D01*
X404Y529D01*
X404Y530D01*
X435Y530D01*
G37*
D02*
G36*
X435Y530D02*
X435Y529D01*
X404Y529D01*
X404Y530D01*
X435Y530D01*
G37*
D02*
G36*
X480Y529D02*
X480Y527D01*
X440Y527D01*
X440Y529D01*
X480Y529D01*
G37*
D02*
G36*
X480Y529D02*
X480Y527D01*
X440Y527D01*
X440Y529D01*
X480Y529D01*
G37*
D02*
G36*
X435Y529D02*
X435Y519D01*
X417Y519D01*
X417Y522D01*
X414Y522D01*
X414Y524D01*
X412Y524D01*
X412Y525D01*
X409Y525D01*
X409Y527D01*
X406Y527D01*
X406Y529D01*
X435Y529D01*
G37*
D02*
G36*
X478Y527D02*
X478Y525D01*
X476Y525D01*
X476Y524D01*
X475Y524D01*
X475Y522D01*
X470Y522D01*
X470Y520D01*
X455Y520D01*
X455Y522D01*
X450Y522D01*
X450Y524D01*
X445Y524D01*
X445Y525D01*
X444Y525D01*
X444Y527D01*
X478Y527D01*
G37*
D02*
G36*
X408Y520D02*
X408Y519D01*
X406Y519D01*
X406Y520D01*
X408Y520D01*
G37*
D02*
G36*
X770Y519D02*
X770Y517D01*
X773Y517D01*
X773Y516D01*
X777Y516D01*
X777Y512D01*
X778Y512D01*
X778Y502D01*
X764Y502D01*
X764Y504D01*
X765Y504D01*
X765Y506D01*
X767Y506D01*
X767Y507D01*
X768Y507D01*
X768Y509D01*
X767Y509D01*
X767Y511D01*
X739Y511D01*
X739Y512D01*
X744Y512D01*
X744Y514D01*
X749Y514D01*
X749Y516D01*
X752Y516D01*
X752Y517D01*
X759Y517D01*
X759Y519D01*
X770Y519D01*
G37*
D02*
G36*
X434Y519D02*
X434Y517D01*
X389Y517D01*
X389Y519D01*
X434Y519D01*
G37*
D02*
G36*
X434Y519D02*
X434Y517D01*
X389Y517D01*
X389Y519D01*
X434Y519D01*
G37*
D02*
G36*
X434Y519D02*
X434Y517D01*
X389Y517D01*
X389Y519D01*
X434Y519D01*
G37*
D02*
G36*
X430Y517D02*
X430Y516D01*
X429Y516D01*
X429Y514D01*
X424Y514D01*
X424Y512D01*
X408Y512D01*
X408Y511D01*
X406Y511D01*
X406Y512D01*
X399Y512D01*
X399Y514D01*
X396Y514D01*
X396Y516D01*
X391Y516D01*
X391Y517D01*
X430Y517D01*
G37*
D02*
G36*
X759Y511D02*
X759Y509D01*
X721Y509D01*
X721Y511D01*
X759Y511D01*
G37*
D02*
G36*
X759Y511D02*
X759Y509D01*
X721Y509D01*
X721Y511D01*
X759Y511D01*
G37*
D02*
G36*
X757Y509D02*
X757Y507D01*
X754Y507D01*
X754Y506D01*
X752Y506D01*
X752Y504D01*
X749Y504D01*
X749Y502D01*
X741Y502D01*
X741Y501D01*
X739Y501D01*
X739Y499D01*
X737Y499D01*
X737Y497D01*
X739Y497D01*
X739Y496D01*
X741Y496D01*
X741Y494D01*
X729Y494D01*
X729Y496D01*
X727Y496D01*
X727Y497D01*
X726Y497D01*
X726Y499D01*
X727Y499D01*
X727Y501D01*
X726Y501D01*
X726Y502D01*
X724Y502D01*
X724Y506D01*
X722Y506D01*
X722Y507D01*
X721Y507D01*
X721Y509D01*
X757Y509D01*
G37*
D02*
G36*
X762Y504D02*
X762Y502D01*
X760Y502D01*
X760Y504D01*
X762Y504D01*
G37*
D02*
G36*
X777Y502D02*
X777Y501D01*
X760Y501D01*
X760Y502D01*
X777Y502D01*
G37*
D02*
G36*
X777Y502D02*
X777Y501D01*
X760Y501D01*
X760Y502D01*
X777Y502D01*
G37*
D02*
G36*
X775Y501D02*
X775Y499D01*
X772Y499D01*
X772Y497D01*
X770Y497D01*
X770Y496D01*
X765Y496D01*
X765Y494D01*
X747Y494D01*
X747Y496D01*
X752Y496D01*
X752Y497D01*
X757Y497D01*
X757Y499D01*
X759Y499D01*
X759Y501D01*
X775Y501D01*
G37*
D02*
G36*
X762Y494D02*
X762Y493D01*
X729Y493D01*
X729Y494D01*
X762Y494D01*
G37*
D02*
G36*
X762Y494D02*
X762Y493D01*
X729Y493D01*
X729Y494D01*
X762Y494D01*
G37*
D02*
G36*
X759Y493D02*
X759Y491D01*
X755Y491D01*
X755Y489D01*
X754Y489D01*
X754Y488D01*
X749Y488D01*
X749Y486D01*
X736Y486D01*
X736Y488D01*
X732Y488D01*
X732Y489D01*
X731Y489D01*
X731Y491D01*
X729Y491D01*
X729Y493D01*
X759Y493D01*
G37*
D02*
G54D10*
X0Y1181D02*
X1180Y1181D01*
X0Y1180D02*
X1180Y1180D01*
X0Y1179D02*
X1180Y1179D01*
X0Y1178D02*
X1180Y1178D01*
X0Y1177D02*
X1180Y1177D01*
X0Y1176D02*
X1180Y1176D01*
X0Y1175D02*
X1180Y1175D01*
X0Y1174D02*
X1180Y1174D01*
X0Y1173D02*
X7Y1173D01*
X1173Y1173D02*
X1180Y1173D01*
X0Y1172D02*
X7Y1172D01*
X1173Y1172D02*
X1180Y1172D01*
X0Y1171D02*
X7Y1171D01*
X1173Y1171D02*
X1180Y1171D01*
X0Y1170D02*
X7Y1170D01*
X1173Y1170D02*
X1180Y1170D01*
X0Y1169D02*
X7Y1169D01*
X1173Y1169D02*
X1180Y1169D01*
X0Y1168D02*
X7Y1168D01*
X1173Y1168D02*
X1180Y1168D01*
X0Y1167D02*
X7Y1167D01*
X1173Y1167D02*
X1180Y1167D01*
X0Y1166D02*
X7Y1166D01*
X1173Y1166D02*
X1180Y1166D01*
X0Y1165D02*
X7Y1165D01*
X1173Y1165D02*
X1180Y1165D01*
X0Y1164D02*
X7Y1164D01*
X1173Y1164D02*
X1180Y1164D01*
X0Y1163D02*
X7Y1163D01*
X1173Y1163D02*
X1180Y1163D01*
X0Y1162D02*
X7Y1162D01*
X1173Y1162D02*
X1180Y1162D01*
X0Y1161D02*
X7Y1161D01*
X1173Y1161D02*
X1180Y1161D01*
X0Y1160D02*
X7Y1160D01*
X1173Y1160D02*
X1180Y1160D01*
X0Y1159D02*
X7Y1159D01*
X1173Y1159D02*
X1180Y1159D01*
X0Y1158D02*
X7Y1158D01*
X1173Y1158D02*
X1180Y1158D01*
X0Y1157D02*
X7Y1157D01*
X1173Y1157D02*
X1180Y1157D01*
X0Y1156D02*
X7Y1156D01*
X1173Y1156D02*
X1180Y1156D01*
X0Y1155D02*
X7Y1155D01*
X1173Y1155D02*
X1180Y1155D01*
X0Y1154D02*
X7Y1154D01*
X1173Y1154D02*
X1180Y1154D01*
X0Y1153D02*
X7Y1153D01*
X1173Y1153D02*
X1180Y1153D01*
X0Y1152D02*
X7Y1152D01*
X1173Y1152D02*
X1180Y1152D01*
X0Y1151D02*
X7Y1151D01*
X1173Y1151D02*
X1180Y1151D01*
X0Y1150D02*
X7Y1150D01*
X1173Y1150D02*
X1180Y1150D01*
X0Y1149D02*
X7Y1149D01*
X1173Y1149D02*
X1180Y1149D01*
X0Y1148D02*
X7Y1148D01*
X1173Y1148D02*
X1180Y1148D01*
X0Y1147D02*
X7Y1147D01*
X1173Y1147D02*
X1180Y1147D01*
X0Y1146D02*
X7Y1146D01*
X1173Y1146D02*
X1180Y1146D01*
X0Y1145D02*
X7Y1145D01*
X1173Y1145D02*
X1180Y1145D01*
X0Y1144D02*
X7Y1144D01*
X1173Y1144D02*
X1180Y1144D01*
X0Y1143D02*
X7Y1143D01*
X1173Y1143D02*
X1180Y1143D01*
X0Y1142D02*
X7Y1142D01*
X1173Y1142D02*
X1180Y1142D01*
X0Y1141D02*
X7Y1141D01*
X1173Y1141D02*
X1180Y1141D01*
X0Y1140D02*
X7Y1140D01*
X1173Y1140D02*
X1180Y1140D01*
X0Y1139D02*
X7Y1139D01*
X1173Y1139D02*
X1180Y1139D01*
X0Y1138D02*
X7Y1138D01*
X1173Y1138D02*
X1180Y1138D01*
X0Y1137D02*
X7Y1137D01*
X1173Y1137D02*
X1180Y1137D01*
X0Y1136D02*
X7Y1136D01*
X1173Y1136D02*
X1180Y1136D01*
X0Y1135D02*
X7Y1135D01*
X1173Y1135D02*
X1180Y1135D01*
X0Y1134D02*
X7Y1134D01*
X1173Y1134D02*
X1180Y1134D01*
X0Y1133D02*
X7Y1133D01*
X1173Y1133D02*
X1180Y1133D01*
X0Y1132D02*
X7Y1132D01*
X1173Y1132D02*
X1180Y1132D01*
X0Y1131D02*
X7Y1131D01*
X1173Y1131D02*
X1180Y1131D01*
X0Y1130D02*
X7Y1130D01*
X1173Y1130D02*
X1180Y1130D01*
X0Y1129D02*
X7Y1129D01*
X1173Y1129D02*
X1180Y1129D01*
X0Y1128D02*
X7Y1128D01*
X1173Y1128D02*
X1180Y1128D01*
X0Y1127D02*
X7Y1127D01*
X1173Y1127D02*
X1180Y1127D01*
X0Y1126D02*
X7Y1126D01*
X1173Y1126D02*
X1180Y1126D01*
X0Y1125D02*
X7Y1125D01*
X1173Y1125D02*
X1180Y1125D01*
X0Y1124D02*
X7Y1124D01*
X1173Y1124D02*
X1180Y1124D01*
X0Y1123D02*
X7Y1123D01*
X214Y1123D02*
X219Y1123D01*
X995Y1123D02*
X999Y1123D01*
X1173Y1123D02*
X1180Y1123D01*
X0Y1122D02*
X7Y1122D01*
X214Y1122D02*
X219Y1122D01*
X994Y1122D02*
X1000Y1122D01*
X1173Y1122D02*
X1180Y1122D01*
X0Y1121D02*
X7Y1121D01*
X149Y1121D02*
X160Y1121D01*
X214Y1121D02*
X219Y1121D01*
X240Y1121D02*
X256Y1121D01*
X273Y1121D02*
X288Y1121D01*
X305Y1121D02*
X322Y1121D01*
X336Y1121D02*
X337Y1121D01*
X374Y1121D02*
X389Y1121D01*
X401Y1121D02*
X410Y1121D01*
X437Y1121D02*
X454Y1121D01*
X614Y1121D02*
X615Y1121D01*
X665Y1121D02*
X681Y1121D01*
X694Y1121D02*
X695Y1121D01*
X874Y1121D02*
X875Y1121D01*
X939Y1121D02*
X940Y1121D01*
X994Y1121D02*
X1000Y1121D01*
X1173Y1121D02*
X1180Y1121D01*
X0Y1120D02*
X7Y1120D01*
X149Y1120D02*
X161Y1120D01*
X214Y1120D02*
X219Y1120D01*
X239Y1120D02*
X257Y1120D01*
X272Y1120D02*
X289Y1120D01*
X304Y1120D02*
X323Y1120D01*
X335Y1120D02*
X338Y1120D01*
X372Y1120D02*
X389Y1120D01*
X400Y1120D02*
X411Y1120D01*
X436Y1120D02*
X454Y1120D01*
X613Y1120D02*
X616Y1120D01*
X663Y1120D02*
X681Y1120D01*
X693Y1120D02*
X696Y1120D01*
X874Y1120D02*
X876Y1120D01*
X939Y1120D02*
X941Y1120D01*
X994Y1120D02*
X1000Y1120D01*
X1173Y1120D02*
X1180Y1120D01*
X0Y1119D02*
X7Y1119D01*
X149Y1119D02*
X161Y1119D01*
X214Y1119D02*
X219Y1119D01*
X238Y1119D02*
X258Y1119D01*
X271Y1119D02*
X290Y1119D01*
X303Y1119D02*
X324Y1119D01*
X335Y1119D02*
X338Y1119D01*
X371Y1119D02*
X389Y1119D01*
X400Y1119D02*
X412Y1119D01*
X435Y1119D02*
X454Y1119D01*
X613Y1119D02*
X616Y1119D01*
X662Y1119D02*
X681Y1119D01*
X693Y1119D02*
X696Y1119D01*
X873Y1119D02*
X877Y1119D01*
X938Y1119D02*
X942Y1119D01*
X994Y1119D02*
X1000Y1119D01*
X1173Y1119D02*
X1180Y1119D01*
X0Y1118D02*
X7Y1118D01*
X149Y1118D02*
X161Y1118D01*
X214Y1118D02*
X219Y1118D01*
X238Y1118D02*
X258Y1118D01*
X270Y1118D02*
X291Y1118D01*
X303Y1118D02*
X324Y1118D01*
X335Y1118D02*
X339Y1118D01*
X370Y1118D02*
X389Y1118D01*
X400Y1118D02*
X413Y1118D01*
X434Y1118D02*
X454Y1118D01*
X613Y1118D02*
X616Y1118D01*
X662Y1118D02*
X681Y1118D01*
X693Y1118D02*
X697Y1118D01*
X873Y1118D02*
X877Y1118D01*
X938Y1118D02*
X942Y1118D01*
X967Y1118D02*
X969Y1118D01*
X994Y1118D02*
X1000Y1118D01*
X1173Y1118D02*
X1180Y1118D01*
X0Y1117D02*
X7Y1117D01*
X149Y1117D02*
X161Y1117D01*
X214Y1117D02*
X219Y1117D01*
X237Y1117D02*
X258Y1117D01*
X270Y1117D02*
X291Y1117D01*
X302Y1117D02*
X323Y1117D01*
X335Y1117D02*
X339Y1117D01*
X370Y1117D02*
X389Y1117D01*
X400Y1117D02*
X414Y1117D01*
X433Y1117D02*
X454Y1117D01*
X613Y1117D02*
X616Y1117D01*
X661Y1117D02*
X681Y1117D01*
X693Y1117D02*
X697Y1117D01*
X873Y1117D02*
X877Y1117D01*
X938Y1117D02*
X942Y1117D01*
X966Y1117D02*
X970Y1117D01*
X995Y1117D02*
X1000Y1117D01*
X1173Y1117D02*
X1180Y1117D01*
X0Y1116D02*
X7Y1116D01*
X149Y1116D02*
X160Y1116D01*
X215Y1116D02*
X219Y1116D01*
X237Y1116D02*
X259Y1116D01*
X270Y1116D02*
X291Y1116D01*
X302Y1116D02*
X323Y1116D01*
X335Y1116D02*
X340Y1116D01*
X369Y1116D02*
X389Y1116D01*
X401Y1116D02*
X414Y1116D01*
X433Y1116D02*
X454Y1116D01*
X613Y1116D02*
X616Y1116D01*
X661Y1116D02*
X681Y1116D01*
X693Y1116D02*
X698Y1116D01*
X873Y1116D02*
X877Y1116D01*
X938Y1116D02*
X942Y1116D01*
X966Y1116D02*
X970Y1116D01*
X995Y1116D02*
X999Y1116D01*
X1173Y1116D02*
X1180Y1116D01*
X0Y1115D02*
X7Y1115D01*
X149Y1115D02*
X152Y1115D01*
X237Y1115D02*
X241Y1115D01*
X255Y1115D02*
X259Y1115D01*
X270Y1115D02*
X273Y1115D01*
X287Y1115D02*
X291Y1115D01*
X302Y1115D02*
X306Y1115D01*
X336Y1115D02*
X340Y1115D01*
X368Y1115D02*
X374Y1115D01*
X385Y1115D02*
X389Y1115D01*
X410Y1115D02*
X415Y1115D01*
X433Y1115D02*
X437Y1115D01*
X450Y1115D02*
X454Y1115D01*
X613Y1115D02*
X616Y1115D01*
X660Y1115D02*
X665Y1115D01*
X678Y1115D02*
X681Y1115D01*
X694Y1115D02*
X698Y1115D01*
X873Y1115D02*
X877Y1115D01*
X938Y1115D02*
X942Y1115D01*
X966Y1115D02*
X970Y1115D01*
X1173Y1115D02*
X1180Y1115D01*
X0Y1114D02*
X7Y1114D01*
X149Y1114D02*
X152Y1114D01*
X237Y1114D02*
X241Y1114D01*
X255Y1114D02*
X259Y1114D01*
X270Y1114D02*
X273Y1114D01*
X288Y1114D02*
X291Y1114D01*
X302Y1114D02*
X306Y1114D01*
X336Y1114D02*
X341Y1114D01*
X368Y1114D02*
X373Y1114D01*
X385Y1114D02*
X389Y1114D01*
X411Y1114D02*
X415Y1114D01*
X433Y1114D02*
X436Y1114D01*
X450Y1114D02*
X454Y1114D01*
X613Y1114D02*
X616Y1114D01*
X660Y1114D02*
X664Y1114D01*
X678Y1114D02*
X681Y1114D01*
X694Y1114D02*
X698Y1114D01*
X873Y1114D02*
X877Y1114D01*
X938Y1114D02*
X942Y1114D01*
X966Y1114D02*
X970Y1114D01*
X1173Y1114D02*
X1180Y1114D01*
X0Y1113D02*
X7Y1113D01*
X149Y1113D02*
X152Y1113D01*
X237Y1113D02*
X241Y1113D01*
X255Y1113D02*
X259Y1113D01*
X270Y1113D02*
X273Y1113D01*
X288Y1113D02*
X291Y1113D01*
X302Y1113D02*
X306Y1113D01*
X337Y1113D02*
X341Y1113D01*
X368Y1113D02*
X372Y1113D01*
X385Y1113D02*
X389Y1113D01*
X411Y1113D02*
X416Y1113D01*
X432Y1113D02*
X436Y1113D01*
X450Y1113D02*
X454Y1113D01*
X613Y1113D02*
X616Y1113D01*
X660Y1113D02*
X664Y1113D01*
X678Y1113D02*
X681Y1113D01*
X695Y1113D02*
X699Y1113D01*
X873Y1113D02*
X877Y1113D01*
X938Y1113D02*
X942Y1113D01*
X966Y1113D02*
X970Y1113D01*
X1173Y1113D02*
X1180Y1113D01*
X0Y1112D02*
X7Y1112D01*
X149Y1112D02*
X152Y1112D01*
X237Y1112D02*
X241Y1112D01*
X255Y1112D02*
X259Y1112D01*
X270Y1112D02*
X273Y1112D01*
X288Y1112D02*
X291Y1112D01*
X302Y1112D02*
X306Y1112D01*
X337Y1112D02*
X341Y1112D01*
X368Y1112D02*
X371Y1112D01*
X385Y1112D02*
X389Y1112D01*
X412Y1112D02*
X417Y1112D01*
X432Y1112D02*
X436Y1112D01*
X450Y1112D02*
X454Y1112D01*
X613Y1112D02*
X616Y1112D01*
X660Y1112D02*
X664Y1112D01*
X678Y1112D02*
X681Y1112D01*
X695Y1112D02*
X699Y1112D01*
X873Y1112D02*
X877Y1112D01*
X938Y1112D02*
X942Y1112D01*
X966Y1112D02*
X970Y1112D01*
X1173Y1112D02*
X1180Y1112D01*
X0Y1111D02*
X7Y1111D01*
X149Y1111D02*
X152Y1111D01*
X237Y1111D02*
X241Y1111D01*
X255Y1111D02*
X259Y1111D01*
X270Y1111D02*
X273Y1111D01*
X288Y1111D02*
X291Y1111D01*
X302Y1111D02*
X306Y1111D01*
X338Y1111D02*
X342Y1111D01*
X367Y1111D02*
X371Y1111D01*
X385Y1111D02*
X389Y1111D01*
X412Y1111D02*
X417Y1111D01*
X432Y1111D02*
X436Y1111D01*
X450Y1111D02*
X454Y1111D01*
X613Y1111D02*
X616Y1111D01*
X660Y1111D02*
X664Y1111D01*
X678Y1111D02*
X681Y1111D01*
X695Y1111D02*
X700Y1111D01*
X873Y1111D02*
X877Y1111D01*
X938Y1111D02*
X942Y1111D01*
X966Y1111D02*
X970Y1111D01*
X1173Y1111D02*
X1180Y1111D01*
X0Y1110D02*
X7Y1110D01*
X149Y1110D02*
X152Y1110D01*
X237Y1110D02*
X241Y1110D01*
X255Y1110D02*
X259Y1110D01*
X270Y1110D02*
X273Y1110D01*
X288Y1110D02*
X291Y1110D01*
X302Y1110D02*
X306Y1110D01*
X338Y1110D02*
X342Y1110D01*
X367Y1110D02*
X371Y1110D01*
X385Y1110D02*
X389Y1110D01*
X413Y1110D02*
X418Y1110D01*
X432Y1110D02*
X436Y1110D01*
X450Y1110D02*
X454Y1110D01*
X613Y1110D02*
X616Y1110D01*
X660Y1110D02*
X664Y1110D01*
X678Y1110D02*
X681Y1110D01*
X696Y1110D02*
X700Y1110D01*
X873Y1110D02*
X877Y1110D01*
X938Y1110D02*
X942Y1110D01*
X966Y1110D02*
X970Y1110D01*
X1173Y1110D02*
X1180Y1110D01*
X0Y1109D02*
X7Y1109D01*
X149Y1109D02*
X152Y1109D01*
X237Y1109D02*
X241Y1109D01*
X255Y1109D02*
X259Y1109D01*
X270Y1109D02*
X273Y1109D01*
X288Y1109D02*
X291Y1109D01*
X302Y1109D02*
X306Y1109D01*
X338Y1109D02*
X343Y1109D01*
X367Y1109D02*
X371Y1109D01*
X385Y1109D02*
X389Y1109D01*
X414Y1109D02*
X418Y1109D01*
X432Y1109D02*
X436Y1109D01*
X450Y1109D02*
X454Y1109D01*
X613Y1109D02*
X616Y1109D01*
X660Y1109D02*
X664Y1109D01*
X678Y1109D02*
X681Y1109D01*
X696Y1109D02*
X701Y1109D01*
X873Y1109D02*
X877Y1109D01*
X938Y1109D02*
X942Y1109D01*
X966Y1109D02*
X970Y1109D01*
X1173Y1109D02*
X1180Y1109D01*
X0Y1108D02*
X7Y1108D01*
X149Y1108D02*
X152Y1108D01*
X177Y1108D02*
X183Y1108D01*
X191Y1108D02*
X193Y1108D01*
X215Y1108D02*
X223Y1108D01*
X237Y1108D02*
X241Y1108D01*
X255Y1108D02*
X259Y1108D01*
X270Y1108D02*
X273Y1108D01*
X288Y1108D02*
X291Y1108D01*
X302Y1108D02*
X306Y1108D01*
X339Y1108D02*
X343Y1108D01*
X367Y1108D02*
X371Y1108D01*
X385Y1108D02*
X389Y1108D01*
X414Y1108D02*
X419Y1108D01*
X432Y1108D02*
X436Y1108D01*
X450Y1108D02*
X454Y1108D01*
X470Y1108D02*
X481Y1108D01*
X499Y1108D02*
X510Y1108D01*
X531Y1108D02*
X543Y1108D01*
X569Y1108D02*
X578Y1108D01*
X601Y1108D02*
X608Y1108D01*
X613Y1108D02*
X616Y1108D01*
X634Y1108D02*
X643Y1108D01*
X660Y1108D02*
X664Y1108D01*
X678Y1108D02*
X681Y1108D01*
X697Y1108D02*
X701Y1108D01*
X729Y1108D02*
X731Y1108D01*
X738Y1108D02*
X741Y1108D01*
X744Y1108D02*
X746Y1108D01*
X764Y1108D02*
X773Y1108D01*
X791Y1108D02*
X803Y1108D01*
X861Y1108D02*
X868Y1108D01*
X873Y1108D02*
X877Y1108D01*
X889Y1108D02*
X890Y1108D01*
X907Y1108D02*
X908Y1108D01*
X925Y1108D02*
X931Y1108D01*
X938Y1108D02*
X942Y1108D01*
X956Y1108D02*
X973Y1108D01*
X995Y1108D02*
X1003Y1108D01*
X1019Y1108D02*
X1020Y1108D01*
X1026Y1108D02*
X1033Y1108D01*
X1173Y1108D02*
X1180Y1108D01*
X0Y1107D02*
X7Y1107D01*
X149Y1107D02*
X152Y1107D01*
X176Y1107D02*
X185Y1107D01*
X190Y1107D02*
X193Y1107D01*
X214Y1107D02*
X224Y1107D01*
X237Y1107D02*
X241Y1107D01*
X255Y1107D02*
X259Y1107D01*
X270Y1107D02*
X273Y1107D01*
X288Y1107D02*
X291Y1107D01*
X302Y1107D02*
X306Y1107D01*
X339Y1107D02*
X344Y1107D01*
X367Y1107D02*
X371Y1107D01*
X385Y1107D02*
X389Y1107D01*
X415Y1107D02*
X419Y1107D01*
X433Y1107D02*
X437Y1107D01*
X450Y1107D02*
X454Y1107D01*
X469Y1107D02*
X482Y1107D01*
X498Y1107D02*
X512Y1107D01*
X530Y1107D02*
X544Y1107D01*
X567Y1107D02*
X579Y1107D01*
X600Y1107D02*
X610Y1107D01*
X613Y1107D02*
X616Y1107D01*
X632Y1107D02*
X644Y1107D01*
X660Y1107D02*
X664Y1107D01*
X678Y1107D02*
X681Y1107D01*
X697Y1107D02*
X701Y1107D01*
X728Y1107D02*
X733Y1107D01*
X736Y1107D02*
X742Y1107D01*
X744Y1107D02*
X747Y1107D01*
X762Y1107D02*
X774Y1107D01*
X791Y1107D02*
X805Y1107D01*
X860Y1107D02*
X870Y1107D01*
X873Y1107D02*
X877Y1107D01*
X888Y1107D02*
X891Y1107D01*
X906Y1107D02*
X909Y1107D01*
X924Y1107D02*
X933Y1107D01*
X938Y1107D02*
X942Y1107D01*
X955Y1107D02*
X974Y1107D01*
X995Y1107D02*
X1004Y1107D01*
X1018Y1107D02*
X1021Y1107D01*
X1025Y1107D02*
X1035Y1107D01*
X1173Y1107D02*
X1180Y1107D01*
X0Y1106D02*
X7Y1106D01*
X149Y1106D02*
X152Y1106D01*
X175Y1106D02*
X186Y1106D01*
X190Y1106D02*
X193Y1106D01*
X214Y1106D02*
X224Y1106D01*
X237Y1106D02*
X241Y1106D01*
X255Y1106D02*
X259Y1106D01*
X270Y1106D02*
X273Y1106D01*
X288Y1106D02*
X291Y1106D01*
X302Y1106D02*
X306Y1106D01*
X340Y1106D02*
X344Y1106D01*
X367Y1106D02*
X371Y1106D01*
X385Y1106D02*
X389Y1106D01*
X415Y1106D02*
X420Y1106D01*
X433Y1106D02*
X438Y1106D01*
X450Y1106D02*
X454Y1106D01*
X468Y1106D02*
X482Y1106D01*
X497Y1106D02*
X513Y1106D01*
X530Y1106D02*
X546Y1106D01*
X566Y1106D02*
X580Y1106D01*
X599Y1106D02*
X611Y1106D01*
X613Y1106D02*
X616Y1106D01*
X631Y1106D02*
X645Y1106D01*
X660Y1106D02*
X666Y1106D01*
X678Y1106D02*
X681Y1106D01*
X698Y1106D02*
X702Y1106D01*
X727Y1106D02*
X747Y1106D01*
X761Y1106D02*
X775Y1106D01*
X790Y1106D02*
X806Y1106D01*
X859Y1106D02*
X871Y1106D01*
X873Y1106D02*
X877Y1106D01*
X888Y1106D02*
X891Y1106D01*
X906Y1106D02*
X909Y1106D01*
X923Y1106D02*
X934Y1106D01*
X938Y1106D02*
X942Y1106D01*
X955Y1106D02*
X974Y1106D01*
X994Y1106D02*
X1004Y1106D01*
X1018Y1106D02*
X1021Y1106D01*
X1024Y1106D02*
X1036Y1106D01*
X1173Y1106D02*
X1180Y1106D01*
X0Y1105D02*
X7Y1105D01*
X149Y1105D02*
X152Y1105D01*
X174Y1105D02*
X187Y1105D01*
X190Y1105D02*
X194Y1105D01*
X214Y1105D02*
X224Y1105D01*
X237Y1105D02*
X241Y1105D01*
X255Y1105D02*
X259Y1105D01*
X270Y1105D02*
X273Y1105D01*
X288Y1105D02*
X291Y1105D01*
X302Y1105D02*
X306Y1105D01*
X340Y1105D02*
X345Y1105D01*
X367Y1105D02*
X371Y1105D01*
X385Y1105D02*
X389Y1105D01*
X416Y1105D02*
X420Y1105D01*
X433Y1105D02*
X454Y1105D01*
X467Y1105D02*
X482Y1105D01*
X497Y1105D02*
X514Y1105D01*
X530Y1105D02*
X546Y1105D01*
X565Y1105D02*
X581Y1105D01*
X598Y1105D02*
X616Y1105D01*
X630Y1105D02*
X646Y1105D01*
X661Y1105D02*
X681Y1105D01*
X698Y1105D02*
X702Y1105D01*
X726Y1105D02*
X747Y1105D01*
X760Y1105D02*
X776Y1105D01*
X790Y1105D02*
X807Y1105D01*
X858Y1105D02*
X877Y1105D01*
X888Y1105D02*
X891Y1105D01*
X906Y1105D02*
X909Y1105D01*
X922Y1105D02*
X935Y1105D01*
X938Y1105D02*
X942Y1105D01*
X955Y1105D02*
X974Y1105D01*
X994Y1105D02*
X1004Y1105D01*
X1018Y1105D02*
X1036Y1105D01*
X1173Y1105D02*
X1180Y1105D01*
X0Y1104D02*
X7Y1104D01*
X149Y1104D02*
X152Y1104D01*
X174Y1104D02*
X188Y1104D01*
X190Y1104D02*
X194Y1104D01*
X214Y1104D02*
X224Y1104D01*
X237Y1104D02*
X241Y1104D01*
X255Y1104D02*
X259Y1104D01*
X270Y1104D02*
X273Y1104D01*
X288Y1104D02*
X291Y1104D01*
X302Y1104D02*
X306Y1104D01*
X341Y1104D02*
X345Y1104D01*
X368Y1104D02*
X372Y1104D01*
X385Y1104D02*
X389Y1104D01*
X416Y1104D02*
X421Y1104D01*
X434Y1104D02*
X454Y1104D01*
X466Y1104D02*
X482Y1104D01*
X498Y1104D02*
X515Y1104D01*
X530Y1104D02*
X547Y1104D01*
X565Y1104D02*
X582Y1104D01*
X597Y1104D02*
X616Y1104D01*
X630Y1104D02*
X647Y1104D01*
X661Y1104D02*
X681Y1104D01*
X698Y1104D02*
X703Y1104D01*
X726Y1104D02*
X747Y1104D01*
X760Y1104D02*
X777Y1104D01*
X790Y1104D02*
X808Y1104D01*
X857Y1104D02*
X877Y1104D01*
X888Y1104D02*
X891Y1104D01*
X906Y1104D02*
X909Y1104D01*
X922Y1104D02*
X936Y1104D01*
X938Y1104D02*
X942Y1104D01*
X955Y1104D02*
X974Y1104D01*
X994Y1104D02*
X1004Y1104D01*
X1018Y1104D02*
X1037Y1104D01*
X1173Y1104D02*
X1180Y1104D01*
X0Y1103D02*
X7Y1103D01*
X149Y1103D02*
X152Y1103D01*
X173Y1103D02*
X194Y1103D01*
X214Y1103D02*
X223Y1103D01*
X237Y1103D02*
X241Y1103D01*
X255Y1103D02*
X259Y1103D01*
X270Y1103D02*
X273Y1103D01*
X288Y1103D02*
X291Y1103D01*
X302Y1103D02*
X306Y1103D01*
X341Y1103D02*
X345Y1103D01*
X368Y1103D02*
X372Y1103D01*
X385Y1103D02*
X389Y1103D01*
X417Y1103D02*
X421Y1103D01*
X434Y1103D02*
X454Y1103D01*
X466Y1103D02*
X481Y1103D01*
X498Y1103D02*
X516Y1103D01*
X531Y1103D02*
X548Y1103D01*
X564Y1103D02*
X582Y1103D01*
X596Y1103D02*
X616Y1103D01*
X629Y1103D02*
X647Y1103D01*
X662Y1103D02*
X681Y1103D01*
X699Y1103D02*
X703Y1103D01*
X726Y1103D02*
X747Y1103D01*
X759Y1103D02*
X778Y1103D01*
X791Y1103D02*
X808Y1103D01*
X857Y1103D02*
X877Y1103D01*
X888Y1103D02*
X891Y1103D01*
X906Y1103D02*
X909Y1103D01*
X921Y1103D02*
X942Y1103D01*
X956Y1103D02*
X973Y1103D01*
X994Y1103D02*
X1003Y1103D01*
X1018Y1103D02*
X1038Y1103D01*
X1173Y1103D02*
X1180Y1103D01*
X0Y1102D02*
X7Y1102D01*
X149Y1102D02*
X152Y1102D01*
X173Y1102D02*
X177Y1102D01*
X183Y1102D02*
X194Y1102D01*
X214Y1102D02*
X217Y1102D01*
X237Y1102D02*
X241Y1102D01*
X255Y1102D02*
X259Y1102D01*
X270Y1102D02*
X273Y1102D01*
X288Y1102D02*
X291Y1102D01*
X302Y1102D02*
X306Y1102D01*
X342Y1102D02*
X346Y1102D01*
X368Y1102D02*
X373Y1102D01*
X385Y1102D02*
X389Y1102D01*
X417Y1102D02*
X421Y1102D01*
X435Y1102D02*
X454Y1102D01*
X466Y1102D02*
X470Y1102D01*
X510Y1102D02*
X516Y1102D01*
X543Y1102D02*
X549Y1102D01*
X563Y1102D02*
X569Y1102D01*
X578Y1102D02*
X583Y1102D01*
X596Y1102D02*
X601Y1102D01*
X608Y1102D02*
X616Y1102D01*
X628Y1102D02*
X634Y1102D01*
X643Y1102D02*
X648Y1102D01*
X663Y1102D02*
X681Y1102D01*
X699Y1102D02*
X704Y1102D01*
X726Y1102D02*
X729Y1102D01*
X731Y1102D02*
X738Y1102D01*
X740Y1102D02*
X747Y1102D01*
X759Y1102D02*
X764Y1102D01*
X773Y1102D02*
X778Y1102D01*
X803Y1102D02*
X809Y1102D01*
X856Y1102D02*
X862Y1102D01*
X868Y1102D02*
X877Y1102D01*
X888Y1102D02*
X891Y1102D01*
X906Y1102D02*
X909Y1102D01*
X921Y1102D02*
X926Y1102D01*
X931Y1102D02*
X942Y1102D01*
X966Y1102D02*
X970Y1102D01*
X994Y1102D02*
X998Y1102D01*
X1018Y1102D02*
X1026Y1102D01*
X1033Y1102D02*
X1038Y1102D01*
X1173Y1102D02*
X1180Y1102D01*
X0Y1101D02*
X7Y1101D01*
X149Y1101D02*
X152Y1101D01*
X173Y1101D02*
X177Y1101D01*
X184Y1101D02*
X194Y1101D01*
X214Y1101D02*
X217Y1101D01*
X237Y1101D02*
X241Y1101D01*
X255Y1101D02*
X259Y1101D01*
X270Y1101D02*
X273Y1101D01*
X288Y1101D02*
X291Y1101D01*
X302Y1101D02*
X306Y1101D01*
X342Y1101D02*
X346Y1101D01*
X369Y1101D02*
X375Y1101D01*
X385Y1101D02*
X389Y1101D01*
X418Y1101D02*
X421Y1101D01*
X436Y1101D02*
X454Y1101D01*
X466Y1101D02*
X469Y1101D01*
X511Y1101D02*
X517Y1101D01*
X544Y1101D02*
X550Y1101D01*
X563Y1101D02*
X568Y1101D01*
X579Y1101D02*
X583Y1101D01*
X596Y1101D02*
X600Y1101D01*
X609Y1101D02*
X616Y1101D01*
X628Y1101D02*
X633Y1101D01*
X644Y1101D02*
X648Y1101D01*
X664Y1101D02*
X681Y1101D01*
X700Y1101D02*
X704Y1101D01*
X725Y1101D02*
X729Y1101D01*
X732Y1101D02*
X738Y1101D01*
X741Y1101D02*
X747Y1101D01*
X758Y1101D02*
X763Y1101D01*
X774Y1101D02*
X778Y1101D01*
X804Y1101D02*
X810Y1101D01*
X856Y1101D02*
X861Y1101D01*
X869Y1101D02*
X877Y1101D01*
X888Y1101D02*
X891Y1101D01*
X906Y1101D02*
X909Y1101D01*
X921Y1101D02*
X925Y1101D01*
X932Y1101D02*
X942Y1101D01*
X966Y1101D02*
X970Y1101D01*
X994Y1101D02*
X998Y1101D01*
X1018Y1101D02*
X1025Y1101D01*
X1034Y1101D02*
X1039Y1101D01*
X1173Y1101D02*
X1180Y1101D01*
X0Y1100D02*
X7Y1100D01*
X149Y1100D02*
X152Y1100D01*
X173Y1100D02*
X176Y1100D01*
X185Y1100D02*
X194Y1100D01*
X214Y1100D02*
X217Y1100D01*
X237Y1100D02*
X241Y1100D01*
X255Y1100D02*
X259Y1100D01*
X270Y1100D02*
X273Y1100D01*
X288Y1100D02*
X291Y1100D01*
X302Y1100D02*
X321Y1100D01*
X342Y1100D02*
X347Y1100D01*
X369Y1100D02*
X389Y1100D01*
X418Y1100D02*
X421Y1100D01*
X438Y1100D02*
X454Y1100D01*
X466Y1100D02*
X469Y1100D01*
X512Y1100D02*
X518Y1100D01*
X545Y1100D02*
X550Y1100D01*
X563Y1100D02*
X567Y1100D01*
X579Y1100D02*
X584Y1100D01*
X595Y1100D02*
X600Y1100D01*
X610Y1100D02*
X616Y1100D01*
X628Y1100D02*
X632Y1100D01*
X644Y1100D02*
X649Y1100D01*
X666Y1100D02*
X681Y1100D01*
X700Y1100D02*
X704Y1100D01*
X725Y1100D02*
X729Y1100D01*
X733Y1100D02*
X738Y1100D01*
X742Y1100D02*
X747Y1100D01*
X758Y1100D02*
X762Y1100D01*
X775Y1100D02*
X779Y1100D01*
X805Y1100D02*
X810Y1100D01*
X855Y1100D02*
X860Y1100D01*
X870Y1100D02*
X877Y1100D01*
X888Y1100D02*
X891Y1100D01*
X906Y1100D02*
X909Y1100D01*
X921Y1100D02*
X924Y1100D01*
X934Y1100D02*
X942Y1100D01*
X966Y1100D02*
X970Y1100D01*
X994Y1100D02*
X998Y1100D01*
X1018Y1100D02*
X1025Y1100D01*
X1035Y1100D02*
X1039Y1100D01*
X1173Y1100D02*
X1180Y1100D01*
X0Y1099D02*
X7Y1099D01*
X149Y1099D02*
X152Y1099D01*
X173Y1099D02*
X176Y1099D01*
X187Y1099D02*
X194Y1099D01*
X214Y1099D02*
X217Y1099D01*
X237Y1099D02*
X241Y1099D01*
X255Y1099D02*
X259Y1099D01*
X270Y1099D02*
X273Y1099D01*
X288Y1099D02*
X291Y1099D01*
X302Y1099D02*
X322Y1099D01*
X343Y1099D02*
X347Y1099D01*
X370Y1099D02*
X389Y1099D01*
X418Y1099D02*
X421Y1099D01*
X441Y1099D02*
X446Y1099D01*
X450Y1099D02*
X454Y1099D01*
X465Y1099D02*
X469Y1099D01*
X513Y1099D02*
X518Y1099D01*
X546Y1099D02*
X551Y1099D01*
X563Y1099D02*
X566Y1099D01*
X580Y1099D02*
X584Y1099D01*
X595Y1099D02*
X599Y1099D01*
X611Y1099D02*
X616Y1099D01*
X628Y1099D02*
X631Y1099D01*
X645Y1099D02*
X649Y1099D01*
X669Y1099D02*
X673Y1099D01*
X678Y1099D02*
X681Y1099D01*
X701Y1099D02*
X705Y1099D01*
X725Y1099D02*
X729Y1099D01*
X734Y1099D02*
X738Y1099D01*
X743Y1099D02*
X747Y1099D01*
X758Y1099D02*
X762Y1099D01*
X775Y1099D02*
X779Y1099D01*
X806Y1099D02*
X811Y1099D01*
X855Y1099D02*
X859Y1099D01*
X871Y1099D02*
X877Y1099D01*
X888Y1099D02*
X891Y1099D01*
X905Y1099D02*
X909Y1099D01*
X921Y1099D02*
X924Y1099D01*
X935Y1099D02*
X942Y1099D01*
X966Y1099D02*
X970Y1099D01*
X994Y1099D02*
X998Y1099D01*
X1018Y1099D02*
X1024Y1099D01*
X1035Y1099D02*
X1039Y1099D01*
X1173Y1099D02*
X1180Y1099D01*
X0Y1098D02*
X7Y1098D01*
X149Y1098D02*
X152Y1098D01*
X173Y1098D02*
X176Y1098D01*
X188Y1098D02*
X194Y1098D01*
X214Y1098D02*
X217Y1098D01*
X237Y1098D02*
X241Y1098D01*
X255Y1098D02*
X259Y1098D01*
X270Y1098D02*
X273Y1098D01*
X288Y1098D02*
X291Y1098D01*
X303Y1098D02*
X323Y1098D01*
X343Y1098D02*
X348Y1098D01*
X370Y1098D02*
X389Y1098D01*
X418Y1098D02*
X421Y1098D01*
X441Y1098D02*
X445Y1098D01*
X450Y1098D02*
X454Y1098D01*
X465Y1098D02*
X469Y1098D01*
X514Y1098D02*
X518Y1098D01*
X546Y1098D02*
X551Y1098D01*
X563Y1098D02*
X566Y1098D01*
X580Y1098D02*
X584Y1098D01*
X595Y1098D02*
X599Y1098D01*
X611Y1098D02*
X616Y1098D01*
X628Y1098D02*
X631Y1098D01*
X645Y1098D02*
X649Y1098D01*
X669Y1098D02*
X673Y1098D01*
X678Y1098D02*
X681Y1098D01*
X701Y1098D02*
X705Y1098D01*
X725Y1098D02*
X729Y1098D01*
X734Y1098D02*
X738Y1098D01*
X743Y1098D02*
X747Y1098D01*
X758Y1098D02*
X761Y1098D01*
X775Y1098D02*
X779Y1098D01*
X807Y1098D02*
X811Y1098D01*
X855Y1098D02*
X859Y1098D01*
X872Y1098D02*
X877Y1098D01*
X888Y1098D02*
X891Y1098D01*
X905Y1098D02*
X909Y1098D01*
X921Y1098D02*
X924Y1098D01*
X936Y1098D02*
X942Y1098D01*
X966Y1098D02*
X970Y1098D01*
X994Y1098D02*
X998Y1098D01*
X1018Y1098D02*
X1023Y1098D01*
X1036Y1098D02*
X1039Y1098D01*
X1173Y1098D02*
X1180Y1098D01*
X0Y1097D02*
X7Y1097D01*
X149Y1097D02*
X152Y1097D01*
X173Y1097D02*
X176Y1097D01*
X189Y1097D02*
X194Y1097D01*
X214Y1097D02*
X217Y1097D01*
X237Y1097D02*
X241Y1097D01*
X255Y1097D02*
X259Y1097D01*
X270Y1097D02*
X273Y1097D01*
X288Y1097D02*
X291Y1097D01*
X303Y1097D02*
X323Y1097D01*
X344Y1097D02*
X348Y1097D01*
X370Y1097D02*
X389Y1097D01*
X418Y1097D02*
X421Y1097D01*
X441Y1097D02*
X445Y1097D01*
X450Y1097D02*
X454Y1097D01*
X465Y1097D02*
X469Y1097D01*
X515Y1097D02*
X519Y1097D01*
X547Y1097D02*
X551Y1097D01*
X562Y1097D02*
X566Y1097D01*
X580Y1097D02*
X584Y1097D01*
X595Y1097D02*
X599Y1097D01*
X612Y1097D02*
X616Y1097D01*
X628Y1097D02*
X631Y1097D01*
X645Y1097D02*
X649Y1097D01*
X668Y1097D02*
X673Y1097D01*
X678Y1097D02*
X681Y1097D01*
X701Y1097D02*
X706Y1097D01*
X725Y1097D02*
X729Y1097D01*
X734Y1097D02*
X738Y1097D01*
X743Y1097D02*
X747Y1097D01*
X758Y1097D02*
X761Y1097D01*
X775Y1097D02*
X779Y1097D01*
X807Y1097D02*
X811Y1097D01*
X855Y1097D02*
X859Y1097D01*
X872Y1097D02*
X877Y1097D01*
X888Y1097D02*
X891Y1097D01*
X905Y1097D02*
X909Y1097D01*
X921Y1097D02*
X924Y1097D01*
X937Y1097D02*
X942Y1097D01*
X966Y1097D02*
X970Y1097D01*
X994Y1097D02*
X998Y1097D01*
X1018Y1097D02*
X1022Y1097D01*
X1036Y1097D02*
X1039Y1097D01*
X1173Y1097D02*
X1180Y1097D01*
X0Y1096D02*
X7Y1096D01*
X149Y1096D02*
X152Y1096D01*
X173Y1096D02*
X176Y1096D01*
X190Y1096D02*
X194Y1096D01*
X214Y1096D02*
X217Y1096D01*
X237Y1096D02*
X241Y1096D01*
X255Y1096D02*
X259Y1096D01*
X270Y1096D02*
X273Y1096D01*
X288Y1096D02*
X291Y1096D01*
X304Y1096D02*
X324Y1096D01*
X344Y1096D02*
X348Y1096D01*
X369Y1096D02*
X389Y1096D01*
X418Y1096D02*
X421Y1096D01*
X440Y1096D02*
X444Y1096D01*
X450Y1096D02*
X454Y1096D01*
X465Y1096D02*
X469Y1096D01*
X515Y1096D02*
X519Y1096D01*
X548Y1096D02*
X551Y1096D01*
X562Y1096D02*
X566Y1096D01*
X580Y1096D02*
X584Y1096D01*
X595Y1096D02*
X599Y1096D01*
X613Y1096D02*
X616Y1096D01*
X628Y1096D02*
X631Y1096D01*
X645Y1096D02*
X649Y1096D01*
X668Y1096D02*
X672Y1096D01*
X678Y1096D02*
X681Y1096D01*
X702Y1096D02*
X706Y1096D01*
X725Y1096D02*
X729Y1096D01*
X734Y1096D02*
X738Y1096D01*
X743Y1096D02*
X747Y1096D01*
X758Y1096D02*
X761Y1096D01*
X775Y1096D02*
X779Y1096D01*
X808Y1096D02*
X811Y1096D01*
X855Y1096D02*
X859Y1096D01*
X873Y1096D02*
X877Y1096D01*
X888Y1096D02*
X891Y1096D01*
X905Y1096D02*
X909Y1096D01*
X921Y1096D02*
X924Y1096D01*
X938Y1096D02*
X942Y1096D01*
X966Y1096D02*
X970Y1096D01*
X994Y1096D02*
X998Y1096D01*
X1018Y1096D02*
X1022Y1096D01*
X1036Y1096D02*
X1039Y1096D01*
X1173Y1096D02*
X1180Y1096D01*
X0Y1095D02*
X7Y1095D01*
X141Y1095D02*
X142Y1095D01*
X149Y1095D02*
X152Y1095D01*
X173Y1095D02*
X176Y1095D01*
X190Y1095D02*
X194Y1095D01*
X214Y1095D02*
X217Y1095D01*
X237Y1095D02*
X241Y1095D01*
X255Y1095D02*
X259Y1095D01*
X270Y1095D02*
X273Y1095D01*
X288Y1095D02*
X291Y1095D01*
X306Y1095D02*
X324Y1095D01*
X345Y1095D02*
X349Y1095D01*
X369Y1095D02*
X389Y1095D01*
X400Y1095D02*
X409Y1095D01*
X418Y1095D02*
X421Y1095D01*
X440Y1095D02*
X444Y1095D01*
X450Y1095D02*
X454Y1095D01*
X465Y1095D02*
X482Y1095D01*
X515Y1095D02*
X519Y1095D01*
X548Y1095D02*
X551Y1095D01*
X562Y1095D02*
X566Y1095D01*
X580Y1095D02*
X584Y1095D01*
X595Y1095D02*
X599Y1095D01*
X613Y1095D02*
X616Y1095D01*
X628Y1095D02*
X631Y1095D01*
X645Y1095D02*
X649Y1095D01*
X667Y1095D02*
X672Y1095D01*
X678Y1095D02*
X681Y1095D01*
X702Y1095D02*
X707Y1095D01*
X725Y1095D02*
X729Y1095D01*
X734Y1095D02*
X738Y1095D01*
X743Y1095D02*
X747Y1095D01*
X758Y1095D02*
X761Y1095D01*
X775Y1095D02*
X779Y1095D01*
X808Y1095D02*
X812Y1095D01*
X855Y1095D02*
X859Y1095D01*
X873Y1095D02*
X877Y1095D01*
X888Y1095D02*
X891Y1095D01*
X905Y1095D02*
X909Y1095D01*
X921Y1095D02*
X924Y1095D01*
X938Y1095D02*
X942Y1095D01*
X966Y1095D02*
X970Y1095D01*
X994Y1095D02*
X998Y1095D01*
X1018Y1095D02*
X1021Y1095D01*
X1036Y1095D02*
X1039Y1095D01*
X1173Y1095D02*
X1180Y1095D01*
X0Y1094D02*
X7Y1094D01*
X140Y1094D02*
X143Y1094D01*
X149Y1094D02*
X152Y1094D01*
X173Y1094D02*
X176Y1094D01*
X190Y1094D02*
X194Y1094D01*
X214Y1094D02*
X217Y1094D01*
X237Y1094D02*
X241Y1094D01*
X255Y1094D02*
X259Y1094D01*
X270Y1094D02*
X273Y1094D01*
X288Y1094D02*
X291Y1094D01*
X320Y1094D02*
X324Y1094D01*
X345Y1094D02*
X349Y1094D01*
X368Y1094D02*
X373Y1094D01*
X385Y1094D02*
X389Y1094D01*
X400Y1094D02*
X410Y1094D01*
X418Y1094D02*
X421Y1094D01*
X439Y1094D02*
X444Y1094D01*
X450Y1094D02*
X454Y1094D01*
X465Y1094D02*
X483Y1094D01*
X515Y1094D02*
X519Y1094D01*
X548Y1094D02*
X551Y1094D01*
X562Y1094D02*
X566Y1094D01*
X580Y1094D02*
X584Y1094D01*
X595Y1094D02*
X599Y1094D01*
X613Y1094D02*
X616Y1094D01*
X628Y1094D02*
X631Y1094D01*
X645Y1094D02*
X649Y1094D01*
X667Y1094D02*
X671Y1094D01*
X678Y1094D02*
X681Y1094D01*
X703Y1094D02*
X707Y1094D01*
X725Y1094D02*
X729Y1094D01*
X734Y1094D02*
X738Y1094D01*
X743Y1094D02*
X747Y1094D01*
X758Y1094D02*
X761Y1094D01*
X775Y1094D02*
X779Y1094D01*
X808Y1094D02*
X812Y1094D01*
X855Y1094D02*
X859Y1094D01*
X873Y1094D02*
X877Y1094D01*
X888Y1094D02*
X891Y1094D01*
X905Y1094D02*
X909Y1094D01*
X921Y1094D02*
X924Y1094D01*
X938Y1094D02*
X942Y1094D01*
X966Y1094D02*
X970Y1094D01*
X994Y1094D02*
X998Y1094D01*
X1018Y1094D02*
X1021Y1094D01*
X1036Y1094D02*
X1039Y1094D01*
X1173Y1094D02*
X1180Y1094D01*
X0Y1093D02*
X7Y1093D01*
X140Y1093D02*
X143Y1093D01*
X149Y1093D02*
X152Y1093D01*
X173Y1093D02*
X176Y1093D01*
X190Y1093D02*
X194Y1093D01*
X214Y1093D02*
X217Y1093D01*
X237Y1093D02*
X241Y1093D01*
X255Y1093D02*
X259Y1093D01*
X270Y1093D02*
X273Y1093D01*
X288Y1093D02*
X291Y1093D01*
X320Y1093D02*
X324Y1093D01*
X345Y1093D02*
X350Y1093D01*
X368Y1093D02*
X372Y1093D01*
X385Y1093D02*
X389Y1093D01*
X400Y1093D02*
X410Y1093D01*
X418Y1093D02*
X421Y1093D01*
X439Y1093D02*
X443Y1093D01*
X450Y1093D02*
X454Y1093D01*
X465Y1093D02*
X484Y1093D01*
X515Y1093D02*
X519Y1093D01*
X548Y1093D02*
X551Y1093D01*
X562Y1093D02*
X584Y1093D01*
X595Y1093D02*
X599Y1093D01*
X613Y1093D02*
X616Y1093D01*
X628Y1093D02*
X649Y1093D01*
X667Y1093D02*
X671Y1093D01*
X678Y1093D02*
X681Y1093D01*
X703Y1093D02*
X708Y1093D01*
X725Y1093D02*
X729Y1093D01*
X734Y1093D02*
X738Y1093D01*
X743Y1093D02*
X747Y1093D01*
X758Y1093D02*
X761Y1093D01*
X775Y1093D02*
X779Y1093D01*
X808Y1093D02*
X812Y1093D01*
X831Y1093D02*
X836Y1093D01*
X855Y1093D02*
X859Y1093D01*
X873Y1093D02*
X877Y1093D01*
X888Y1093D02*
X891Y1093D01*
X905Y1093D02*
X909Y1093D01*
X921Y1093D02*
X924Y1093D01*
X938Y1093D02*
X942Y1093D01*
X966Y1093D02*
X970Y1093D01*
X994Y1093D02*
X998Y1093D01*
X1018Y1093D02*
X1021Y1093D01*
X1036Y1093D02*
X1039Y1093D01*
X1173Y1093D02*
X1180Y1093D01*
X0Y1092D02*
X7Y1092D01*
X140Y1092D02*
X143Y1092D01*
X149Y1092D02*
X152Y1092D01*
X173Y1092D02*
X176Y1092D01*
X190Y1092D02*
X194Y1092D01*
X214Y1092D02*
X217Y1092D01*
X237Y1092D02*
X241Y1092D01*
X255Y1092D02*
X259Y1092D01*
X270Y1092D02*
X273Y1092D01*
X288Y1092D02*
X291Y1092D01*
X320Y1092D02*
X324Y1092D01*
X346Y1092D02*
X350Y1092D01*
X368Y1092D02*
X372Y1092D01*
X385Y1092D02*
X389Y1092D01*
X400Y1092D02*
X410Y1092D01*
X418Y1092D02*
X421Y1092D01*
X438Y1092D02*
X443Y1092D01*
X450Y1092D02*
X454Y1092D01*
X465Y1092D02*
X485Y1092D01*
X515Y1092D02*
X519Y1092D01*
X548Y1092D02*
X551Y1092D01*
X562Y1092D02*
X584Y1092D01*
X595Y1092D02*
X599Y1092D01*
X613Y1092D02*
X616Y1092D01*
X628Y1092D02*
X649Y1092D01*
X666Y1092D02*
X670Y1092D01*
X678Y1092D02*
X681Y1092D01*
X704Y1092D02*
X708Y1092D01*
X725Y1092D02*
X729Y1092D01*
X734Y1092D02*
X738Y1092D01*
X743Y1092D02*
X747Y1092D01*
X758Y1092D02*
X761Y1092D01*
X775Y1092D02*
X779Y1092D01*
X808Y1092D02*
X812Y1092D01*
X830Y1092D02*
X837Y1092D01*
X855Y1092D02*
X859Y1092D01*
X873Y1092D02*
X877Y1092D01*
X888Y1092D02*
X891Y1092D01*
X905Y1092D02*
X909Y1092D01*
X921Y1092D02*
X924Y1092D01*
X938Y1092D02*
X942Y1092D01*
X966Y1092D02*
X970Y1092D01*
X994Y1092D02*
X998Y1092D01*
X1018Y1092D02*
X1021Y1092D01*
X1036Y1092D02*
X1039Y1092D01*
X1173Y1092D02*
X1180Y1092D01*
X0Y1091D02*
X7Y1091D01*
X140Y1091D02*
X143Y1091D01*
X149Y1091D02*
X152Y1091D01*
X173Y1091D02*
X176Y1091D01*
X190Y1091D02*
X194Y1091D01*
X214Y1091D02*
X217Y1091D01*
X237Y1091D02*
X241Y1091D01*
X255Y1091D02*
X259Y1091D01*
X270Y1091D02*
X273Y1091D01*
X288Y1091D02*
X291Y1091D01*
X320Y1091D02*
X324Y1091D01*
X346Y1091D02*
X351Y1091D01*
X368Y1091D02*
X371Y1091D01*
X385Y1091D02*
X389Y1091D01*
X400Y1091D02*
X410Y1091D01*
X418Y1091D02*
X421Y1091D01*
X438Y1091D02*
X442Y1091D01*
X450Y1091D02*
X454Y1091D01*
X465Y1091D02*
X485Y1091D01*
X515Y1091D02*
X519Y1091D01*
X548Y1091D02*
X551Y1091D01*
X562Y1091D02*
X584Y1091D01*
X595Y1091D02*
X599Y1091D01*
X613Y1091D02*
X616Y1091D01*
X628Y1091D02*
X649Y1091D01*
X666Y1091D02*
X670Y1091D01*
X678Y1091D02*
X681Y1091D01*
X704Y1091D02*
X708Y1091D01*
X725Y1091D02*
X729Y1091D01*
X734Y1091D02*
X738Y1091D01*
X743Y1091D02*
X747Y1091D01*
X758Y1091D02*
X761Y1091D01*
X775Y1091D02*
X779Y1091D01*
X808Y1091D02*
X812Y1091D01*
X830Y1091D02*
X837Y1091D01*
X855Y1091D02*
X859Y1091D01*
X873Y1091D02*
X877Y1091D01*
X888Y1091D02*
X891Y1091D01*
X905Y1091D02*
X909Y1091D01*
X921Y1091D02*
X924Y1091D01*
X938Y1091D02*
X942Y1091D01*
X966Y1091D02*
X970Y1091D01*
X994Y1091D02*
X998Y1091D01*
X1018Y1091D02*
X1021Y1091D01*
X1036Y1091D02*
X1039Y1091D01*
X1173Y1091D02*
X1180Y1091D01*
X0Y1090D02*
X7Y1090D01*
X140Y1090D02*
X143Y1090D01*
X149Y1090D02*
X152Y1090D01*
X173Y1090D02*
X176Y1090D01*
X190Y1090D02*
X194Y1090D01*
X214Y1090D02*
X217Y1090D01*
X237Y1090D02*
X241Y1090D01*
X255Y1090D02*
X259Y1090D01*
X270Y1090D02*
X273Y1090D01*
X288Y1090D02*
X291Y1090D01*
X320Y1090D02*
X324Y1090D01*
X347Y1090D02*
X351Y1090D01*
X367Y1090D02*
X371Y1090D01*
X385Y1090D02*
X389Y1090D01*
X400Y1090D02*
X409Y1090D01*
X418Y1090D02*
X421Y1090D01*
X438Y1090D02*
X442Y1090D01*
X450Y1090D02*
X454Y1090D01*
X465Y1090D02*
X486Y1090D01*
X515Y1090D02*
X519Y1090D01*
X548Y1090D02*
X551Y1090D01*
X563Y1090D02*
X584Y1090D01*
X595Y1090D02*
X599Y1090D01*
X613Y1090D02*
X616Y1090D01*
X628Y1090D02*
X649Y1090D01*
X665Y1090D02*
X670Y1090D01*
X678Y1090D02*
X681Y1090D01*
X705Y1090D02*
X709Y1090D01*
X725Y1090D02*
X729Y1090D01*
X734Y1090D02*
X738Y1090D01*
X743Y1090D02*
X747Y1090D01*
X758Y1090D02*
X761Y1090D01*
X775Y1090D02*
X779Y1090D01*
X808Y1090D02*
X812Y1090D01*
X829Y1090D02*
X837Y1090D01*
X855Y1090D02*
X859Y1090D01*
X873Y1090D02*
X877Y1090D01*
X888Y1090D02*
X891Y1090D01*
X905Y1090D02*
X909Y1090D01*
X921Y1090D02*
X924Y1090D01*
X938Y1090D02*
X942Y1090D01*
X966Y1090D02*
X970Y1090D01*
X994Y1090D02*
X998Y1090D01*
X1018Y1090D02*
X1021Y1090D01*
X1036Y1090D02*
X1039Y1090D01*
X1173Y1090D02*
X1180Y1090D01*
X0Y1089D02*
X7Y1089D01*
X140Y1089D02*
X143Y1089D01*
X149Y1089D02*
X152Y1089D01*
X172Y1089D02*
X176Y1089D01*
X190Y1089D02*
X194Y1089D01*
X214Y1089D02*
X217Y1089D01*
X237Y1089D02*
X241Y1089D01*
X255Y1089D02*
X259Y1089D01*
X270Y1089D02*
X273Y1089D01*
X288Y1089D02*
X291Y1089D01*
X320Y1089D02*
X324Y1089D01*
X347Y1089D02*
X351Y1089D01*
X367Y1089D02*
X371Y1089D01*
X385Y1089D02*
X389Y1089D01*
X400Y1089D02*
X403Y1089D01*
X418Y1089D02*
X421Y1089D01*
X437Y1089D02*
X441Y1089D01*
X450Y1089D02*
X454Y1089D01*
X465Y1089D02*
X470Y1089D01*
X482Y1089D02*
X486Y1089D01*
X515Y1089D02*
X519Y1089D01*
X548Y1089D02*
X551Y1089D01*
X563Y1089D02*
X584Y1089D01*
X595Y1089D02*
X599Y1089D01*
X613Y1089D02*
X616Y1089D01*
X628Y1089D02*
X649Y1089D01*
X665Y1089D02*
X669Y1089D01*
X678Y1089D02*
X681Y1089D01*
X705Y1089D02*
X709Y1089D01*
X725Y1089D02*
X729Y1089D01*
X734Y1089D02*
X738Y1089D01*
X743Y1089D02*
X747Y1089D01*
X758Y1089D02*
X761Y1089D01*
X775Y1089D02*
X779Y1089D01*
X808Y1089D02*
X812Y1089D01*
X829Y1089D02*
X837Y1089D01*
X855Y1089D02*
X859Y1089D01*
X873Y1089D02*
X877Y1089D01*
X888Y1089D02*
X891Y1089D01*
X905Y1089D02*
X909Y1089D01*
X921Y1089D02*
X924Y1089D01*
X938Y1089D02*
X942Y1089D01*
X966Y1089D02*
X970Y1089D01*
X994Y1089D02*
X998Y1089D01*
X1018Y1089D02*
X1022Y1089D01*
X1036Y1089D02*
X1039Y1089D01*
X1173Y1089D02*
X1180Y1089D01*
X0Y1088D02*
X7Y1088D01*
X140Y1088D02*
X143Y1088D01*
X149Y1088D02*
X152Y1088D01*
X172Y1088D02*
X176Y1088D01*
X190Y1088D02*
X194Y1088D01*
X214Y1088D02*
X217Y1088D01*
X237Y1088D02*
X241Y1088D01*
X255Y1088D02*
X259Y1088D01*
X270Y1088D02*
X273Y1088D01*
X288Y1088D02*
X291Y1088D01*
X320Y1088D02*
X324Y1088D01*
X348Y1088D02*
X352Y1088D01*
X367Y1088D02*
X371Y1088D01*
X385Y1088D02*
X389Y1088D01*
X400Y1088D02*
X403Y1088D01*
X418Y1088D02*
X421Y1088D01*
X437Y1088D02*
X441Y1088D01*
X450Y1088D02*
X454Y1088D01*
X465Y1088D02*
X469Y1088D01*
X482Y1088D02*
X486Y1088D01*
X515Y1088D02*
X519Y1088D01*
X548Y1088D02*
X551Y1088D01*
X563Y1088D02*
X584Y1088D01*
X595Y1088D02*
X599Y1088D01*
X613Y1088D02*
X616Y1088D01*
X628Y1088D02*
X649Y1088D01*
X664Y1088D02*
X669Y1088D01*
X678Y1088D02*
X681Y1088D01*
X705Y1088D02*
X710Y1088D01*
X725Y1088D02*
X729Y1088D01*
X734Y1088D02*
X738Y1088D01*
X743Y1088D02*
X747Y1088D01*
X758Y1088D02*
X761Y1088D01*
X775Y1088D02*
X779Y1088D01*
X808Y1088D02*
X812Y1088D01*
X829Y1088D02*
X837Y1088D01*
X855Y1088D02*
X859Y1088D01*
X873Y1088D02*
X877Y1088D01*
X888Y1088D02*
X891Y1088D01*
X905Y1088D02*
X909Y1088D01*
X921Y1088D02*
X924Y1088D01*
X938Y1088D02*
X942Y1088D01*
X966Y1088D02*
X970Y1088D01*
X994Y1088D02*
X998Y1088D01*
X1018Y1088D02*
X1022Y1088D01*
X1036Y1088D02*
X1039Y1088D01*
X1173Y1088D02*
X1180Y1088D01*
X0Y1087D02*
X7Y1087D01*
X140Y1087D02*
X143Y1087D01*
X149Y1087D02*
X152Y1087D01*
X172Y1087D02*
X176Y1087D01*
X190Y1087D02*
X194Y1087D01*
X214Y1087D02*
X217Y1087D01*
X237Y1087D02*
X241Y1087D01*
X255Y1087D02*
X259Y1087D01*
X270Y1087D02*
X273Y1087D01*
X288Y1087D02*
X291Y1087D01*
X320Y1087D02*
X324Y1087D01*
X348Y1087D02*
X352Y1087D01*
X367Y1087D02*
X371Y1087D01*
X385Y1087D02*
X389Y1087D01*
X400Y1087D02*
X403Y1087D01*
X418Y1087D02*
X421Y1087D01*
X436Y1087D02*
X441Y1087D01*
X450Y1087D02*
X454Y1087D01*
X465Y1087D02*
X469Y1087D01*
X483Y1087D02*
X486Y1087D01*
X515Y1087D02*
X519Y1087D01*
X548Y1087D02*
X551Y1087D01*
X565Y1087D02*
X584Y1087D01*
X595Y1087D02*
X599Y1087D01*
X613Y1087D02*
X616Y1087D01*
X630Y1087D02*
X649Y1087D01*
X664Y1087D02*
X668Y1087D01*
X678Y1087D02*
X681Y1087D01*
X706Y1087D02*
X710Y1087D01*
X725Y1087D02*
X729Y1087D01*
X734Y1087D02*
X738Y1087D01*
X743Y1087D02*
X747Y1087D01*
X758Y1087D02*
X761Y1087D01*
X775Y1087D02*
X779Y1087D01*
X808Y1087D02*
X812Y1087D01*
X829Y1087D02*
X837Y1087D01*
X855Y1087D02*
X859Y1087D01*
X873Y1087D02*
X877Y1087D01*
X888Y1087D02*
X891Y1087D01*
X905Y1087D02*
X909Y1087D01*
X921Y1087D02*
X924Y1087D01*
X938Y1087D02*
X942Y1087D01*
X966Y1087D02*
X970Y1087D01*
X994Y1087D02*
X998Y1087D01*
X1018Y1087D02*
X1023Y1087D01*
X1036Y1087D02*
X1039Y1087D01*
X1173Y1087D02*
X1180Y1087D01*
X0Y1086D02*
X7Y1086D01*
X140Y1086D02*
X143Y1086D01*
X149Y1086D02*
X152Y1086D01*
X172Y1086D02*
X176Y1086D01*
X190Y1086D02*
X194Y1086D01*
X214Y1086D02*
X217Y1086D01*
X237Y1086D02*
X241Y1086D01*
X255Y1086D02*
X259Y1086D01*
X270Y1086D02*
X273Y1086D01*
X288Y1086D02*
X291Y1086D01*
X320Y1086D02*
X324Y1086D01*
X348Y1086D02*
X353Y1086D01*
X367Y1086D02*
X371Y1086D01*
X385Y1086D02*
X389Y1086D01*
X400Y1086D02*
X403Y1086D01*
X418Y1086D02*
X421Y1086D01*
X436Y1086D02*
X440Y1086D01*
X450Y1086D02*
X454Y1086D01*
X465Y1086D02*
X469Y1086D01*
X483Y1086D02*
X486Y1086D01*
X515Y1086D02*
X519Y1086D01*
X547Y1086D02*
X551Y1086D01*
X580Y1086D02*
X584Y1086D01*
X595Y1086D02*
X599Y1086D01*
X612Y1086D02*
X616Y1086D01*
X645Y1086D02*
X649Y1086D01*
X664Y1086D02*
X668Y1086D01*
X678Y1086D02*
X681Y1086D01*
X706Y1086D02*
X711Y1086D01*
X725Y1086D02*
X729Y1086D01*
X734Y1086D02*
X738Y1086D01*
X743Y1086D02*
X747Y1086D01*
X758Y1086D02*
X761Y1086D01*
X775Y1086D02*
X779Y1086D01*
X808Y1086D02*
X811Y1086D01*
X829Y1086D02*
X837Y1086D01*
X855Y1086D02*
X859Y1086D01*
X873Y1086D02*
X877Y1086D01*
X888Y1086D02*
X892Y1086D01*
X905Y1086D02*
X909Y1086D01*
X921Y1086D02*
X924Y1086D01*
X938Y1086D02*
X942Y1086D01*
X966Y1086D02*
X970Y1086D01*
X994Y1086D02*
X998Y1086D01*
X1018Y1086D02*
X1024Y1086D01*
X1035Y1086D02*
X1039Y1086D01*
X1173Y1086D02*
X1180Y1086D01*
X0Y1085D02*
X7Y1085D01*
X140Y1085D02*
X143Y1085D01*
X149Y1085D02*
X152Y1085D01*
X172Y1085D02*
X176Y1085D01*
X190Y1085D02*
X194Y1085D01*
X214Y1085D02*
X217Y1085D01*
X237Y1085D02*
X241Y1085D01*
X255Y1085D02*
X259Y1085D01*
X270Y1085D02*
X273Y1085D01*
X288Y1085D02*
X291Y1085D01*
X320Y1085D02*
X324Y1085D01*
X349Y1085D02*
X353Y1085D01*
X367Y1085D02*
X371Y1085D01*
X385Y1085D02*
X389Y1085D01*
X400Y1085D02*
X403Y1085D01*
X418Y1085D02*
X421Y1085D01*
X435Y1085D02*
X440Y1085D01*
X450Y1085D02*
X454Y1085D01*
X465Y1085D02*
X469Y1085D01*
X483Y1085D02*
X486Y1085D01*
X514Y1085D02*
X519Y1085D01*
X547Y1085D02*
X551Y1085D01*
X580Y1085D02*
X584Y1085D01*
X595Y1085D02*
X599Y1085D01*
X612Y1085D02*
X616Y1085D01*
X645Y1085D02*
X649Y1085D01*
X663Y1085D02*
X667Y1085D01*
X678Y1085D02*
X681Y1085D01*
X707Y1085D02*
X711Y1085D01*
X725Y1085D02*
X729Y1085D01*
X734Y1085D02*
X738Y1085D01*
X743Y1085D02*
X747Y1085D01*
X758Y1085D02*
X761Y1085D01*
X775Y1085D02*
X779Y1085D01*
X807Y1085D02*
X811Y1085D01*
X829Y1085D02*
X837Y1085D01*
X855Y1085D02*
X859Y1085D01*
X872Y1085D02*
X877Y1085D01*
X888Y1085D02*
X893Y1085D01*
X905Y1085D02*
X909Y1085D01*
X921Y1085D02*
X924Y1085D01*
X938Y1085D02*
X942Y1085D01*
X954Y1085D02*
X955Y1085D01*
X966Y1085D02*
X970Y1085D01*
X994Y1085D02*
X998Y1085D01*
X1018Y1085D02*
X1025Y1085D01*
X1035Y1085D02*
X1039Y1085D01*
X1173Y1085D02*
X1180Y1085D01*
X0Y1084D02*
X7Y1084D01*
X140Y1084D02*
X143Y1084D01*
X149Y1084D02*
X152Y1084D01*
X172Y1084D02*
X176Y1084D01*
X190Y1084D02*
X194Y1084D01*
X214Y1084D02*
X217Y1084D01*
X237Y1084D02*
X241Y1084D01*
X255Y1084D02*
X259Y1084D01*
X270Y1084D02*
X273Y1084D01*
X288Y1084D02*
X291Y1084D01*
X320Y1084D02*
X324Y1084D01*
X349Y1084D02*
X354Y1084D01*
X368Y1084D02*
X371Y1084D01*
X385Y1084D02*
X389Y1084D01*
X400Y1084D02*
X403Y1084D01*
X418Y1084D02*
X421Y1084D01*
X435Y1084D02*
X439Y1084D01*
X450Y1084D02*
X454Y1084D01*
X465Y1084D02*
X469Y1084D01*
X483Y1084D02*
X486Y1084D01*
X513Y1084D02*
X518Y1084D01*
X546Y1084D02*
X551Y1084D01*
X580Y1084D02*
X584Y1084D01*
X595Y1084D02*
X599Y1084D01*
X611Y1084D02*
X616Y1084D01*
X645Y1084D02*
X649Y1084D01*
X663Y1084D02*
X667Y1084D01*
X678Y1084D02*
X681Y1084D01*
X707Y1084D02*
X711Y1084D01*
X725Y1084D02*
X729Y1084D01*
X734Y1084D02*
X738Y1084D01*
X743Y1084D02*
X747Y1084D01*
X758Y1084D02*
X761Y1084D01*
X775Y1084D02*
X779Y1084D01*
X806Y1084D02*
X811Y1084D01*
X830Y1084D02*
X837Y1084D01*
X855Y1084D02*
X859Y1084D01*
X871Y1084D02*
X877Y1084D01*
X888Y1084D02*
X894Y1084D01*
X905Y1084D02*
X909Y1084D01*
X920Y1084D02*
X924Y1084D01*
X938Y1084D02*
X942Y1084D01*
X953Y1084D02*
X956Y1084D01*
X966Y1084D02*
X970Y1084D01*
X994Y1084D02*
X998Y1084D01*
X1018Y1084D02*
X1026Y1084D01*
X1034Y1084D02*
X1039Y1084D01*
X1173Y1084D02*
X1180Y1084D01*
X0Y1083D02*
X7Y1083D01*
X140Y1083D02*
X143Y1083D01*
X149Y1083D02*
X152Y1083D01*
X172Y1083D02*
X176Y1083D01*
X190Y1083D02*
X194Y1083D01*
X214Y1083D02*
X217Y1083D01*
X237Y1083D02*
X241Y1083D01*
X255Y1083D02*
X259Y1083D01*
X270Y1083D02*
X273Y1083D01*
X288Y1083D02*
X291Y1083D01*
X320Y1083D02*
X324Y1083D01*
X350Y1083D02*
X354Y1083D01*
X368Y1083D02*
X372Y1083D01*
X385Y1083D02*
X389Y1083D01*
X400Y1083D02*
X403Y1083D01*
X418Y1083D02*
X421Y1083D01*
X435Y1083D02*
X439Y1083D01*
X450Y1083D02*
X454Y1083D01*
X465Y1083D02*
X470Y1083D01*
X483Y1083D02*
X486Y1083D01*
X512Y1083D02*
X518Y1083D01*
X545Y1083D02*
X550Y1083D01*
X580Y1083D02*
X584Y1083D01*
X595Y1083D02*
X599Y1083D01*
X610Y1083D02*
X616Y1083D01*
X645Y1083D02*
X649Y1083D01*
X662Y1083D02*
X667Y1083D01*
X678Y1083D02*
X681Y1083D01*
X708Y1083D02*
X712Y1083D01*
X725Y1083D02*
X728Y1083D01*
X734Y1083D02*
X738Y1083D01*
X743Y1083D02*
X747Y1083D01*
X758Y1083D02*
X762Y1083D01*
X775Y1083D02*
X779Y1083D01*
X805Y1083D02*
X811Y1083D01*
X830Y1083D02*
X837Y1083D01*
X855Y1083D02*
X860Y1083D01*
X870Y1083D02*
X877Y1083D01*
X888Y1083D02*
X895Y1083D01*
X905Y1083D02*
X909Y1083D01*
X920Y1083D02*
X924Y1083D01*
X938Y1083D02*
X942Y1083D01*
X953Y1083D02*
X956Y1083D01*
X966Y1083D02*
X970Y1083D01*
X994Y1083D02*
X998Y1083D01*
X1018Y1083D02*
X1027Y1083D01*
X1032Y1083D02*
X1038Y1083D01*
X1173Y1083D02*
X1180Y1083D01*
X0Y1082D02*
X7Y1082D01*
X140Y1082D02*
X143Y1082D01*
X149Y1082D02*
X152Y1082D01*
X172Y1082D02*
X176Y1082D01*
X190Y1082D02*
X194Y1082D01*
X214Y1082D02*
X217Y1082D01*
X237Y1082D02*
X241Y1082D01*
X255Y1082D02*
X259Y1082D01*
X270Y1082D02*
X273Y1082D01*
X288Y1082D02*
X291Y1082D01*
X320Y1082D02*
X324Y1082D01*
X350Y1082D02*
X355Y1082D01*
X368Y1082D02*
X372Y1082D01*
X385Y1082D02*
X389Y1082D01*
X400Y1082D02*
X404Y1082D01*
X417Y1082D02*
X421Y1082D01*
X434Y1082D02*
X438Y1082D01*
X450Y1082D02*
X454Y1082D01*
X465Y1082D02*
X471Y1082D01*
X483Y1082D02*
X486Y1082D01*
X512Y1082D02*
X517Y1082D01*
X544Y1082D02*
X550Y1082D01*
X579Y1082D02*
X583Y1082D01*
X595Y1082D02*
X600Y1082D01*
X609Y1082D02*
X616Y1082D01*
X644Y1082D02*
X649Y1082D01*
X662Y1082D02*
X666Y1082D01*
X678Y1082D02*
X681Y1082D01*
X708Y1082D02*
X712Y1082D01*
X725Y1082D02*
X728Y1082D01*
X734Y1082D02*
X738Y1082D01*
X743Y1082D02*
X747Y1082D01*
X758Y1082D02*
X763Y1082D01*
X774Y1082D02*
X779Y1082D01*
X804Y1082D02*
X810Y1082D01*
X831Y1082D02*
X836Y1082D01*
X856Y1082D02*
X860Y1082D01*
X869Y1082D02*
X877Y1082D01*
X888Y1082D02*
X897Y1082D01*
X905Y1082D02*
X909Y1082D01*
X920Y1082D02*
X924Y1082D01*
X938Y1082D02*
X942Y1082D01*
X953Y1082D02*
X957Y1082D01*
X966Y1082D02*
X970Y1082D01*
X994Y1082D02*
X998Y1082D01*
X1018Y1082D02*
X1038Y1082D01*
X1173Y1082D02*
X1180Y1082D01*
X0Y1081D02*
X7Y1081D01*
X140Y1081D02*
X143Y1081D01*
X149Y1081D02*
X152Y1081D01*
X172Y1081D02*
X176Y1081D01*
X190Y1081D02*
X194Y1081D01*
X214Y1081D02*
X217Y1081D01*
X237Y1081D02*
X241Y1081D01*
X255Y1081D02*
X259Y1081D01*
X270Y1081D02*
X273Y1081D01*
X288Y1081D02*
X291Y1081D01*
X320Y1081D02*
X324Y1081D01*
X351Y1081D02*
X355Y1081D01*
X368Y1081D02*
X373Y1081D01*
X385Y1081D02*
X389Y1081D01*
X400Y1081D02*
X404Y1081D01*
X417Y1081D02*
X421Y1081D01*
X434Y1081D02*
X438Y1081D01*
X450Y1081D02*
X454Y1081D01*
X465Y1081D02*
X473Y1081D01*
X482Y1081D02*
X486Y1081D01*
X511Y1081D02*
X517Y1081D01*
X543Y1081D02*
X549Y1081D01*
X578Y1081D02*
X583Y1081D01*
X596Y1081D02*
X601Y1081D01*
X608Y1081D02*
X616Y1081D01*
X643Y1081D02*
X648Y1081D01*
X661Y1081D02*
X666Y1081D01*
X678Y1081D02*
X681Y1081D01*
X708Y1081D02*
X713Y1081D01*
X725Y1081D02*
X728Y1081D01*
X734Y1081D02*
X738Y1081D01*
X743Y1081D02*
X747Y1081D01*
X758Y1081D02*
X764Y1081D01*
X773Y1081D02*
X778Y1081D01*
X803Y1081D02*
X809Y1081D01*
X856Y1081D02*
X861Y1081D01*
X868Y1081D02*
X877Y1081D01*
X888Y1081D02*
X898Y1081D01*
X904Y1081D02*
X908Y1081D01*
X920Y1081D02*
X924Y1081D01*
X938Y1081D02*
X942Y1081D01*
X953Y1081D02*
X957Y1081D01*
X965Y1081D02*
X970Y1081D01*
X994Y1081D02*
X998Y1081D01*
X1018Y1081D02*
X1037Y1081D01*
X1173Y1081D02*
X1180Y1081D01*
X0Y1080D02*
X7Y1080D01*
X140Y1080D02*
X160Y1080D01*
X172Y1080D02*
X176Y1080D01*
X190Y1080D02*
X194Y1080D01*
X208Y1080D02*
X222Y1080D01*
X237Y1080D02*
X259Y1080D01*
X270Y1080D02*
X291Y1080D01*
X304Y1080D02*
X324Y1080D01*
X351Y1080D02*
X355Y1080D01*
X369Y1080D02*
X389Y1080D01*
X400Y1080D02*
X421Y1080D01*
X433Y1080D02*
X438Y1080D01*
X450Y1080D02*
X454Y1080D01*
X465Y1080D02*
X486Y1080D01*
X499Y1080D02*
X516Y1080D01*
X531Y1080D02*
X548Y1080D01*
X564Y1080D02*
X583Y1080D01*
X596Y1080D02*
X616Y1080D01*
X629Y1080D02*
X648Y1080D01*
X661Y1080D02*
X665Y1080D01*
X678Y1080D02*
X681Y1080D01*
X709Y1080D02*
X713Y1080D01*
X725Y1080D02*
X728Y1080D01*
X734Y1080D02*
X738Y1080D01*
X743Y1080D02*
X747Y1080D01*
X759Y1080D02*
X778Y1080D01*
X792Y1080D02*
X809Y1080D01*
X856Y1080D02*
X877Y1080D01*
X888Y1080D02*
X908Y1080D01*
X920Y1080D02*
X924Y1080D01*
X938Y1080D02*
X942Y1080D01*
X953Y1080D02*
X969Y1080D01*
X989Y1080D02*
X1003Y1080D01*
X1018Y1080D02*
X1021Y1080D01*
X1023Y1080D02*
X1036Y1080D01*
X1173Y1080D02*
X1180Y1080D01*
X0Y1079D02*
X7Y1079D01*
X140Y1079D02*
X161Y1079D01*
X172Y1079D02*
X176Y1079D01*
X190Y1079D02*
X194Y1079D01*
X207Y1079D02*
X223Y1079D01*
X237Y1079D02*
X259Y1079D01*
X270Y1079D02*
X291Y1079D01*
X303Y1079D02*
X324Y1079D01*
X352Y1079D02*
X356Y1079D01*
X369Y1079D02*
X389Y1079D01*
X401Y1079D02*
X420Y1079D01*
X433Y1079D02*
X437Y1079D01*
X450Y1079D02*
X454Y1079D01*
X465Y1079D02*
X486Y1079D01*
X498Y1079D02*
X515Y1079D01*
X530Y1079D02*
X547Y1079D01*
X563Y1079D02*
X582Y1079D01*
X597Y1079D02*
X616Y1079D01*
X628Y1079D02*
X647Y1079D01*
X660Y1079D02*
X665Y1079D01*
X678Y1079D02*
X681Y1079D01*
X709Y1079D02*
X714Y1079D01*
X725Y1079D02*
X728Y1079D01*
X734Y1079D02*
X738Y1079D01*
X743Y1079D02*
X747Y1079D01*
X760Y1079D02*
X777Y1079D01*
X791Y1079D02*
X808Y1079D01*
X857Y1079D02*
X877Y1079D01*
X888Y1079D02*
X908Y1079D01*
X920Y1079D02*
X924Y1079D01*
X938Y1079D02*
X942Y1079D01*
X954Y1079D02*
X969Y1079D01*
X988Y1079D02*
X1004Y1079D01*
X1018Y1079D02*
X1021Y1079D01*
X1024Y1079D02*
X1035Y1079D01*
X1173Y1079D02*
X1180Y1079D01*
X0Y1078D02*
X7Y1078D01*
X140Y1078D02*
X161Y1078D01*
X172Y1078D02*
X176Y1078D01*
X190Y1078D02*
X194Y1078D01*
X207Y1078D02*
X224Y1078D01*
X238Y1078D02*
X258Y1078D01*
X270Y1078D02*
X291Y1078D01*
X302Y1078D02*
X324Y1078D01*
X352Y1078D02*
X356Y1078D01*
X370Y1078D02*
X389Y1078D01*
X401Y1078D02*
X420Y1078D01*
X433Y1078D02*
X437Y1078D01*
X450Y1078D02*
X454Y1078D01*
X465Y1078D02*
X485Y1078D01*
X498Y1078D02*
X514Y1078D01*
X530Y1078D02*
X547Y1078D01*
X563Y1078D02*
X581Y1078D01*
X598Y1078D02*
X616Y1078D01*
X628Y1078D02*
X646Y1078D01*
X660Y1078D02*
X664Y1078D01*
X678Y1078D02*
X681Y1078D01*
X710Y1078D02*
X714Y1078D01*
X725Y1078D02*
X728Y1078D01*
X734Y1078D02*
X738Y1078D01*
X743Y1078D02*
X747Y1078D01*
X760Y1078D02*
X777Y1078D01*
X790Y1078D02*
X807Y1078D01*
X858Y1078D02*
X877Y1078D01*
X888Y1078D02*
X891Y1078D01*
X894Y1078D02*
X907Y1078D01*
X920Y1078D02*
X924Y1078D01*
X938Y1078D02*
X942Y1078D01*
X954Y1078D02*
X968Y1078D01*
X988Y1078D02*
X1004Y1078D01*
X1018Y1078D02*
X1021Y1078D01*
X1025Y1078D02*
X1034Y1078D01*
X1173Y1078D02*
X1180Y1078D01*
X0Y1077D02*
X7Y1077D01*
X140Y1077D02*
X161Y1077D01*
X172Y1077D02*
X176Y1077D01*
X190Y1077D02*
X194Y1077D01*
X207Y1077D02*
X224Y1077D01*
X238Y1077D02*
X258Y1077D01*
X271Y1077D02*
X290Y1077D01*
X302Y1077D02*
X324Y1077D01*
X352Y1077D02*
X356Y1077D01*
X371Y1077D02*
X389Y1077D01*
X402Y1077D02*
X419Y1077D01*
X432Y1077D02*
X436Y1077D01*
X450Y1077D02*
X454Y1077D01*
X465Y1077D02*
X484Y1077D01*
X497Y1077D02*
X513Y1077D01*
X530Y1077D02*
X546Y1077D01*
X563Y1077D02*
X581Y1077D01*
X598Y1077D02*
X611Y1077D01*
X613Y1077D02*
X616Y1077D01*
X628Y1077D02*
X646Y1077D01*
X660Y1077D02*
X664Y1077D01*
X678Y1077D02*
X681Y1077D01*
X710Y1077D02*
X714Y1077D01*
X725Y1077D02*
X728Y1077D01*
X734Y1077D02*
X738Y1077D01*
X743Y1077D02*
X747Y1077D01*
X761Y1077D02*
X776Y1077D01*
X790Y1077D02*
X806Y1077D01*
X859Y1077D02*
X871Y1077D01*
X873Y1077D02*
X877Y1077D01*
X888Y1077D02*
X891Y1077D01*
X895Y1077D02*
X907Y1077D01*
X920Y1077D02*
X924Y1077D01*
X938Y1077D02*
X942Y1077D01*
X955Y1077D02*
X968Y1077D01*
X988Y1077D02*
X1004Y1077D01*
X1018Y1077D02*
X1021Y1077D01*
X1027Y1077D02*
X1033Y1077D01*
X1173Y1077D02*
X1180Y1077D01*
X0Y1076D02*
X7Y1076D01*
X140Y1076D02*
X161Y1076D01*
X172Y1076D02*
X175Y1076D01*
X190Y1076D02*
X193Y1076D01*
X207Y1076D02*
X224Y1076D01*
X239Y1076D02*
X257Y1076D01*
X271Y1076D02*
X290Y1076D01*
X302Y1076D02*
X324Y1076D01*
X353Y1076D02*
X356Y1076D01*
X372Y1076D02*
X389Y1076D01*
X403Y1076D02*
X419Y1076D01*
X433Y1076D02*
X436Y1076D01*
X450Y1076D02*
X454Y1076D01*
X465Y1076D02*
X468Y1076D01*
X471Y1076D02*
X484Y1076D01*
X498Y1076D02*
X512Y1076D01*
X530Y1076D02*
X545Y1076D01*
X563Y1076D02*
X580Y1076D01*
X599Y1076D02*
X610Y1076D01*
X613Y1076D02*
X616Y1076D01*
X628Y1076D02*
X645Y1076D01*
X660Y1076D02*
X663Y1076D01*
X678Y1076D02*
X681Y1076D01*
X711Y1076D02*
X714Y1076D01*
X725Y1076D02*
X728Y1076D01*
X734Y1076D02*
X737Y1076D01*
X744Y1076D02*
X747Y1076D01*
X762Y1076D02*
X775Y1076D01*
X790Y1076D02*
X805Y1076D01*
X860Y1076D02*
X870Y1076D01*
X873Y1076D02*
X876Y1076D01*
X888Y1076D02*
X891Y1076D01*
X896Y1076D02*
X906Y1076D01*
X921Y1076D02*
X924Y1076D01*
X938Y1076D02*
X941Y1076D01*
X956Y1076D02*
X967Y1076D01*
X988Y1076D02*
X1004Y1076D01*
X1018Y1076D02*
X1021Y1076D01*
X1173Y1076D02*
X1180Y1076D01*
X0Y1075D02*
X7Y1075D01*
X140Y1075D02*
X160Y1075D01*
X173Y1075D02*
X175Y1075D01*
X191Y1075D02*
X193Y1075D01*
X208Y1075D02*
X223Y1075D01*
X240Y1075D02*
X256Y1075D01*
X272Y1075D02*
X289Y1075D01*
X303Y1075D02*
X324Y1075D01*
X353Y1075D02*
X355Y1075D01*
X373Y1075D02*
X389Y1075D01*
X404Y1075D02*
X417Y1075D01*
X433Y1075D02*
X435Y1075D01*
X451Y1075D02*
X453Y1075D01*
X466Y1075D02*
X468Y1075D01*
X472Y1075D02*
X482Y1075D01*
X498Y1075D02*
X511Y1075D01*
X531Y1075D02*
X544Y1075D01*
X563Y1075D02*
X578Y1075D01*
X601Y1075D02*
X609Y1075D01*
X614Y1075D02*
X616Y1075D01*
X628Y1075D02*
X643Y1075D01*
X661Y1075D02*
X663Y1075D01*
X679Y1075D02*
X681Y1075D01*
X711Y1075D02*
X713Y1075D01*
X726Y1075D02*
X728Y1075D01*
X735Y1075D02*
X737Y1075D01*
X744Y1075D02*
X746Y1075D01*
X763Y1075D02*
X773Y1075D01*
X791Y1075D02*
X804Y1075D01*
X861Y1075D02*
X869Y1075D01*
X874Y1075D02*
X876Y1075D01*
X889Y1075D02*
X891Y1075D01*
X898Y1075D02*
X905Y1075D01*
X921Y1075D02*
X923Y1075D01*
X939Y1075D02*
X941Y1075D01*
X957Y1075D02*
X966Y1075D01*
X988Y1075D02*
X1004Y1075D01*
X1018Y1075D02*
X1021Y1075D01*
X1173Y1075D02*
X1180Y1075D01*
X0Y1074D02*
X7Y1074D01*
X1018Y1074D02*
X1021Y1074D01*
X1173Y1074D02*
X1180Y1074D01*
X0Y1073D02*
X7Y1073D01*
X1018Y1073D02*
X1021Y1073D01*
X1173Y1073D02*
X1180Y1073D01*
X0Y1072D02*
X7Y1072D01*
X1018Y1072D02*
X1021Y1072D01*
X1173Y1072D02*
X1180Y1072D01*
X0Y1071D02*
X7Y1071D01*
X1018Y1071D02*
X1022Y1071D01*
X1173Y1071D02*
X1180Y1071D01*
X0Y1070D02*
X7Y1070D01*
X1018Y1070D02*
X1022Y1070D01*
X1173Y1070D02*
X1180Y1070D01*
X0Y1069D02*
X7Y1069D01*
X1018Y1069D02*
X1023Y1069D01*
X1173Y1069D02*
X1180Y1069D01*
X0Y1068D02*
X7Y1068D01*
X1019Y1068D02*
X1024Y1068D01*
X1173Y1068D02*
X1180Y1068D01*
X0Y1067D02*
X7Y1067D01*
X1019Y1067D02*
X1036Y1067D01*
X1173Y1067D02*
X1180Y1067D01*
X0Y1066D02*
X7Y1066D01*
X1020Y1066D02*
X1037Y1066D01*
X1173Y1066D02*
X1180Y1066D01*
X0Y1065D02*
X7Y1065D01*
X1021Y1065D02*
X1037Y1065D01*
X1173Y1065D02*
X1180Y1065D01*
X0Y1064D02*
X7Y1064D01*
X1021Y1064D02*
X1037Y1064D01*
X1173Y1064D02*
X1180Y1064D01*
X0Y1063D02*
X7Y1063D01*
X1022Y1063D02*
X1037Y1063D01*
X1173Y1063D02*
X1180Y1063D01*
X0Y1062D02*
X7Y1062D01*
X1024Y1062D02*
X1036Y1062D01*
X1173Y1062D02*
X1180Y1062D01*
X0Y1061D02*
X7Y1061D01*
X1173Y1061D02*
X1180Y1061D01*
X0Y1060D02*
X7Y1060D01*
X1173Y1060D02*
X1180Y1060D01*
X0Y1059D02*
X7Y1059D01*
X1173Y1059D02*
X1180Y1059D01*
X0Y1058D02*
X7Y1058D01*
X1173Y1058D02*
X1180Y1058D01*
X0Y1057D02*
X7Y1057D01*
X1173Y1057D02*
X1180Y1057D01*
X0Y1056D02*
X7Y1056D01*
X1173Y1056D02*
X1180Y1056D01*
X0Y1055D02*
X7Y1055D01*
X1173Y1055D02*
X1180Y1055D01*
X0Y1054D02*
X7Y1054D01*
X1173Y1054D02*
X1180Y1054D01*
X0Y1053D02*
X7Y1053D01*
X1173Y1053D02*
X1180Y1053D01*
X0Y1052D02*
X7Y1052D01*
X1173Y1052D02*
X1180Y1052D01*
X0Y1051D02*
X7Y1051D01*
X1173Y1051D02*
X1180Y1051D01*
X0Y1050D02*
X7Y1050D01*
X1173Y1050D02*
X1180Y1050D01*
X0Y1049D02*
X7Y1049D01*
X1173Y1049D02*
X1180Y1049D01*
X0Y1048D02*
X7Y1048D01*
X1173Y1048D02*
X1180Y1048D01*
X0Y1047D02*
X7Y1047D01*
X1173Y1047D02*
X1180Y1047D01*
X0Y1046D02*
X7Y1046D01*
X1173Y1046D02*
X1180Y1046D01*
X0Y1045D02*
X7Y1045D01*
X1173Y1045D02*
X1180Y1045D01*
X0Y1044D02*
X7Y1044D01*
X1173Y1044D02*
X1180Y1044D01*
X0Y1043D02*
X7Y1043D01*
X1173Y1043D02*
X1180Y1043D01*
X0Y1042D02*
X7Y1042D01*
X1173Y1042D02*
X1180Y1042D01*
X0Y1041D02*
X7Y1041D01*
X1173Y1041D02*
X1180Y1041D01*
X0Y1040D02*
X7Y1040D01*
X1173Y1040D02*
X1180Y1040D01*
X0Y1039D02*
X7Y1039D01*
X1173Y1039D02*
X1180Y1039D01*
X0Y1038D02*
X7Y1038D01*
X1173Y1038D02*
X1180Y1038D01*
X0Y1037D02*
X7Y1037D01*
X1173Y1037D02*
X1180Y1037D01*
X0Y1036D02*
X7Y1036D01*
X1173Y1036D02*
X1180Y1036D01*
X0Y1035D02*
X7Y1035D01*
X1173Y1035D02*
X1180Y1035D01*
X0Y1034D02*
X7Y1034D01*
X1173Y1034D02*
X1180Y1034D01*
X0Y1033D02*
X7Y1033D01*
X1173Y1033D02*
X1180Y1033D01*
X0Y1032D02*
X7Y1032D01*
X1173Y1032D02*
X1180Y1032D01*
X0Y1031D02*
X7Y1031D01*
X1173Y1031D02*
X1180Y1031D01*
X0Y1030D02*
X7Y1030D01*
X1173Y1030D02*
X1180Y1030D01*
X0Y1029D02*
X7Y1029D01*
X1173Y1029D02*
X1180Y1029D01*
X0Y1028D02*
X7Y1028D01*
X1173Y1028D02*
X1180Y1028D01*
X0Y1027D02*
X7Y1027D01*
X1173Y1027D02*
X1180Y1027D01*
X0Y1026D02*
X7Y1026D01*
X1173Y1026D02*
X1180Y1026D01*
X0Y1025D02*
X7Y1025D01*
X1173Y1025D02*
X1180Y1025D01*
X0Y1024D02*
X7Y1024D01*
X1173Y1024D02*
X1180Y1024D01*
X0Y1023D02*
X7Y1023D01*
X1173Y1023D02*
X1180Y1023D01*
X0Y1022D02*
X7Y1022D01*
X1173Y1022D02*
X1180Y1022D01*
X0Y1021D02*
X7Y1021D01*
X1173Y1021D02*
X1180Y1021D01*
X0Y1020D02*
X7Y1020D01*
X1173Y1020D02*
X1180Y1020D01*
X0Y1019D02*
X7Y1019D01*
X1173Y1019D02*
X1180Y1019D01*
X0Y1018D02*
X7Y1018D01*
X1173Y1018D02*
X1180Y1018D01*
X0Y1017D02*
X7Y1017D01*
X1173Y1017D02*
X1180Y1017D01*
X0Y1016D02*
X7Y1016D01*
X1173Y1016D02*
X1180Y1016D01*
X0Y1015D02*
X7Y1015D01*
X1173Y1015D02*
X1180Y1015D01*
X0Y1014D02*
X7Y1014D01*
X1173Y1014D02*
X1180Y1014D01*
X0Y1013D02*
X7Y1013D01*
X1173Y1013D02*
X1180Y1013D01*
X0Y1012D02*
X7Y1012D01*
X1173Y1012D02*
X1180Y1012D01*
X0Y1011D02*
X7Y1011D01*
X1173Y1011D02*
X1180Y1011D01*
X0Y1010D02*
X7Y1010D01*
X1173Y1010D02*
X1180Y1010D01*
X0Y1009D02*
X7Y1009D01*
X1173Y1009D02*
X1180Y1009D01*
X0Y1008D02*
X7Y1008D01*
X1173Y1008D02*
X1180Y1008D01*
X0Y1007D02*
X7Y1007D01*
X1173Y1007D02*
X1180Y1007D01*
X0Y1006D02*
X7Y1006D01*
X1173Y1006D02*
X1180Y1006D01*
X0Y1005D02*
X7Y1005D01*
X1173Y1005D02*
X1180Y1005D01*
X0Y1004D02*
X7Y1004D01*
X1173Y1004D02*
X1180Y1004D01*
X0Y1003D02*
X7Y1003D01*
X1173Y1003D02*
X1180Y1003D01*
X0Y1002D02*
X7Y1002D01*
X1173Y1002D02*
X1180Y1002D01*
X0Y1001D02*
X7Y1001D01*
X1173Y1001D02*
X1180Y1001D01*
X0Y1000D02*
X7Y1000D01*
X1173Y1000D02*
X1180Y1000D01*
X0Y999D02*
X7Y999D01*
X1173Y999D02*
X1180Y999D01*
X0Y998D02*
X7Y998D01*
X1173Y998D02*
X1180Y998D01*
X0Y997D02*
X7Y997D01*
X1173Y997D02*
X1180Y997D01*
X0Y996D02*
X7Y996D01*
X1173Y996D02*
X1180Y996D01*
X0Y995D02*
X7Y995D01*
X1173Y995D02*
X1180Y995D01*
X0Y994D02*
X7Y994D01*
X1173Y994D02*
X1180Y994D01*
X0Y993D02*
X7Y993D01*
X1173Y993D02*
X1180Y993D01*
X0Y992D02*
X7Y992D01*
X1173Y992D02*
X1180Y992D01*
X0Y991D02*
X7Y991D01*
X1173Y991D02*
X1180Y991D01*
X0Y990D02*
X7Y990D01*
X1173Y990D02*
X1180Y990D01*
X0Y989D02*
X7Y989D01*
X1173Y989D02*
X1180Y989D01*
X0Y988D02*
X7Y988D01*
X1173Y988D02*
X1180Y988D01*
X0Y987D02*
X7Y987D01*
X1173Y987D02*
X1180Y987D01*
X0Y986D02*
X7Y986D01*
X1173Y986D02*
X1180Y986D01*
X0Y985D02*
X7Y985D01*
X1173Y985D02*
X1180Y985D01*
X0Y984D02*
X7Y984D01*
X1173Y984D02*
X1180Y984D01*
X0Y983D02*
X7Y983D01*
X1173Y983D02*
X1180Y983D01*
X0Y982D02*
X7Y982D01*
X1173Y982D02*
X1180Y982D01*
X0Y981D02*
X7Y981D01*
X1173Y981D02*
X1180Y981D01*
X0Y980D02*
X7Y980D01*
X1173Y980D02*
X1180Y980D01*
X0Y979D02*
X7Y979D01*
X1173Y979D02*
X1180Y979D01*
X0Y978D02*
X7Y978D01*
X1173Y978D02*
X1180Y978D01*
X0Y977D02*
X7Y977D01*
X1173Y977D02*
X1180Y977D01*
X0Y976D02*
X7Y976D01*
X1173Y976D02*
X1180Y976D01*
X0Y975D02*
X7Y975D01*
X1173Y975D02*
X1180Y975D01*
X0Y974D02*
X7Y974D01*
X1173Y974D02*
X1180Y974D01*
X0Y973D02*
X7Y973D01*
X1173Y973D02*
X1180Y973D01*
X0Y972D02*
X7Y972D01*
X1173Y972D02*
X1180Y972D01*
X0Y971D02*
X7Y971D01*
X1173Y971D02*
X1180Y971D01*
X0Y970D02*
X7Y970D01*
X1173Y970D02*
X1180Y970D01*
X0Y969D02*
X7Y969D01*
X1173Y969D02*
X1180Y969D01*
X0Y968D02*
X7Y968D01*
X1173Y968D02*
X1180Y968D01*
X0Y967D02*
X7Y967D01*
X1173Y967D02*
X1180Y967D01*
X0Y966D02*
X7Y966D01*
X1173Y966D02*
X1180Y966D01*
X0Y965D02*
X7Y965D01*
X1173Y965D02*
X1180Y965D01*
X0Y964D02*
X7Y964D01*
X1173Y964D02*
X1180Y964D01*
X0Y963D02*
X7Y963D01*
X1173Y963D02*
X1180Y963D01*
X0Y962D02*
X7Y962D01*
X1173Y962D02*
X1180Y962D01*
X0Y961D02*
X7Y961D01*
X1173Y961D02*
X1180Y961D01*
X0Y960D02*
X7Y960D01*
X1173Y960D02*
X1180Y960D01*
X0Y959D02*
X7Y959D01*
X1173Y959D02*
X1180Y959D01*
X0Y958D02*
X7Y958D01*
X1173Y958D02*
X1180Y958D01*
X0Y957D02*
X7Y957D01*
X1173Y957D02*
X1180Y957D01*
X0Y956D02*
X7Y956D01*
X1173Y956D02*
X1180Y956D01*
X0Y955D02*
X7Y955D01*
X1173Y955D02*
X1180Y955D01*
X0Y954D02*
X7Y954D01*
X1173Y954D02*
X1180Y954D01*
X0Y953D02*
X7Y953D01*
X1173Y953D02*
X1180Y953D01*
X0Y952D02*
X7Y952D01*
X1173Y952D02*
X1180Y952D01*
X0Y951D02*
X7Y951D01*
X1173Y951D02*
X1180Y951D01*
X0Y950D02*
X7Y950D01*
X1173Y950D02*
X1180Y950D01*
X0Y949D02*
X7Y949D01*
X1173Y949D02*
X1180Y949D01*
X0Y948D02*
X7Y948D01*
X1173Y948D02*
X1180Y948D01*
X0Y947D02*
X7Y947D01*
X1173Y947D02*
X1180Y947D01*
X0Y946D02*
X7Y946D01*
X1173Y946D02*
X1180Y946D01*
X0Y945D02*
X7Y945D01*
X1173Y945D02*
X1180Y945D01*
X0Y944D02*
X7Y944D01*
X1173Y944D02*
X1180Y944D01*
X0Y943D02*
X7Y943D01*
X1173Y943D02*
X1180Y943D01*
X0Y942D02*
X7Y942D01*
X1173Y942D02*
X1180Y942D01*
X0Y941D02*
X7Y941D01*
X1173Y941D02*
X1180Y941D01*
X0Y940D02*
X7Y940D01*
X1173Y940D02*
X1180Y940D01*
X0Y939D02*
X7Y939D01*
X1173Y939D02*
X1180Y939D01*
X0Y938D02*
X7Y938D01*
X1173Y938D02*
X1180Y938D01*
X0Y937D02*
X7Y937D01*
X1173Y937D02*
X1180Y937D01*
X0Y936D02*
X7Y936D01*
X1173Y936D02*
X1180Y936D01*
X0Y935D02*
X7Y935D01*
X1173Y935D02*
X1180Y935D01*
X0Y934D02*
X7Y934D01*
X1173Y934D02*
X1180Y934D01*
X0Y933D02*
X7Y933D01*
X1173Y933D02*
X1180Y933D01*
X0Y932D02*
X7Y932D01*
X1173Y932D02*
X1180Y932D01*
X0Y931D02*
X7Y931D01*
X1173Y931D02*
X1180Y931D01*
X0Y930D02*
X7Y930D01*
X1173Y930D02*
X1180Y930D01*
X0Y929D02*
X7Y929D01*
X1173Y929D02*
X1180Y929D01*
X0Y928D02*
X7Y928D01*
X1173Y928D02*
X1180Y928D01*
X0Y927D02*
X7Y927D01*
X1173Y927D02*
X1180Y927D01*
X0Y926D02*
X7Y926D01*
X1173Y926D02*
X1180Y926D01*
X0Y925D02*
X7Y925D01*
X1173Y925D02*
X1180Y925D01*
X0Y924D02*
X7Y924D01*
X1173Y924D02*
X1180Y924D01*
X0Y923D02*
X7Y923D01*
X1173Y923D02*
X1180Y923D01*
X0Y922D02*
X7Y922D01*
X1173Y922D02*
X1180Y922D01*
X0Y921D02*
X7Y921D01*
X1173Y921D02*
X1180Y921D01*
X0Y920D02*
X7Y920D01*
X1173Y920D02*
X1180Y920D01*
X0Y919D02*
X7Y919D01*
X1173Y919D02*
X1180Y919D01*
X0Y918D02*
X7Y918D01*
X1173Y918D02*
X1180Y918D01*
X0Y917D02*
X7Y917D01*
X1173Y917D02*
X1180Y917D01*
X0Y916D02*
X7Y916D01*
X1173Y916D02*
X1180Y916D01*
X0Y915D02*
X7Y915D01*
X1173Y915D02*
X1180Y915D01*
X0Y914D02*
X7Y914D01*
X1173Y914D02*
X1180Y914D01*
X0Y913D02*
X7Y913D01*
X1173Y913D02*
X1180Y913D01*
X0Y912D02*
X7Y912D01*
X1173Y912D02*
X1180Y912D01*
X0Y911D02*
X7Y911D01*
X1173Y911D02*
X1180Y911D01*
X0Y910D02*
X7Y910D01*
X1173Y910D02*
X1180Y910D01*
X0Y909D02*
X7Y909D01*
X1173Y909D02*
X1180Y909D01*
X0Y908D02*
X7Y908D01*
X1173Y908D02*
X1180Y908D01*
X0Y907D02*
X7Y907D01*
X1173Y907D02*
X1180Y907D01*
X0Y906D02*
X7Y906D01*
X1173Y906D02*
X1180Y906D01*
X0Y905D02*
X7Y905D01*
X1173Y905D02*
X1180Y905D01*
X0Y904D02*
X7Y904D01*
X1173Y904D02*
X1180Y904D01*
X0Y903D02*
X7Y903D01*
X1173Y903D02*
X1180Y903D01*
X0Y902D02*
X7Y902D01*
X1173Y902D02*
X1180Y902D01*
X0Y901D02*
X7Y901D01*
X1173Y901D02*
X1180Y901D01*
X0Y900D02*
X7Y900D01*
X1173Y900D02*
X1180Y900D01*
X0Y899D02*
X7Y899D01*
X1173Y899D02*
X1180Y899D01*
X0Y898D02*
X7Y898D01*
X1173Y898D02*
X1180Y898D01*
X0Y897D02*
X7Y897D01*
X1173Y897D02*
X1180Y897D01*
X0Y896D02*
X7Y896D01*
X1173Y896D02*
X1180Y896D01*
X0Y895D02*
X7Y895D01*
X1173Y895D02*
X1180Y895D01*
X0Y894D02*
X7Y894D01*
X1173Y894D02*
X1180Y894D01*
X0Y893D02*
X7Y893D01*
X1173Y893D02*
X1180Y893D01*
X0Y892D02*
X7Y892D01*
X1173Y892D02*
X1180Y892D01*
X0Y891D02*
X7Y891D01*
X1173Y891D02*
X1180Y891D01*
X0Y890D02*
X7Y890D01*
X1173Y890D02*
X1180Y890D01*
X0Y889D02*
X7Y889D01*
X1173Y889D02*
X1180Y889D01*
X0Y888D02*
X7Y888D01*
X1173Y888D02*
X1180Y888D01*
X0Y887D02*
X7Y887D01*
X1173Y887D02*
X1180Y887D01*
X0Y886D02*
X7Y886D01*
X1173Y886D02*
X1180Y886D01*
X0Y885D02*
X7Y885D01*
X1173Y885D02*
X1180Y885D01*
X0Y884D02*
X7Y884D01*
X1173Y884D02*
X1180Y884D01*
X0Y883D02*
X7Y883D01*
X1173Y883D02*
X1180Y883D01*
X0Y882D02*
X7Y882D01*
X1173Y882D02*
X1180Y882D01*
X0Y881D02*
X7Y881D01*
X1173Y881D02*
X1180Y881D01*
X0Y880D02*
X7Y880D01*
X1173Y880D02*
X1180Y880D01*
X0Y879D02*
X7Y879D01*
X1173Y879D02*
X1180Y879D01*
X0Y878D02*
X7Y878D01*
X1173Y878D02*
X1180Y878D01*
X0Y877D02*
X7Y877D01*
X1173Y877D02*
X1180Y877D01*
X0Y876D02*
X7Y876D01*
X1173Y876D02*
X1180Y876D01*
X0Y875D02*
X7Y875D01*
X1173Y875D02*
X1180Y875D01*
X0Y874D02*
X7Y874D01*
X1173Y874D02*
X1180Y874D01*
X0Y873D02*
X7Y873D01*
X1173Y873D02*
X1180Y873D01*
X0Y872D02*
X7Y872D01*
X1173Y872D02*
X1180Y872D01*
X0Y871D02*
X7Y871D01*
X1173Y871D02*
X1180Y871D01*
X0Y870D02*
X7Y870D01*
X1173Y870D02*
X1180Y870D01*
X0Y869D02*
X7Y869D01*
X1173Y869D02*
X1180Y869D01*
X0Y868D02*
X7Y868D01*
X1173Y868D02*
X1180Y868D01*
X0Y867D02*
X7Y867D01*
X1173Y867D02*
X1180Y867D01*
X0Y866D02*
X7Y866D01*
X1173Y866D02*
X1180Y866D01*
X0Y865D02*
X7Y865D01*
X1173Y865D02*
X1180Y865D01*
X0Y864D02*
X7Y864D01*
X1173Y864D02*
X1180Y864D01*
X0Y863D02*
X7Y863D01*
X1173Y863D02*
X1180Y863D01*
X0Y862D02*
X7Y862D01*
X1173Y862D02*
X1180Y862D01*
X0Y861D02*
X7Y861D01*
X1173Y861D02*
X1180Y861D01*
X0Y860D02*
X7Y860D01*
X1173Y860D02*
X1180Y860D01*
X0Y859D02*
X7Y859D01*
X1173Y859D02*
X1180Y859D01*
X0Y858D02*
X7Y858D01*
X1173Y858D02*
X1180Y858D01*
X0Y857D02*
X7Y857D01*
X1173Y857D02*
X1180Y857D01*
X0Y856D02*
X7Y856D01*
X1173Y856D02*
X1180Y856D01*
X0Y855D02*
X7Y855D01*
X1173Y855D02*
X1180Y855D01*
X0Y854D02*
X7Y854D01*
X1173Y854D02*
X1180Y854D01*
X0Y853D02*
X7Y853D01*
X1173Y853D02*
X1180Y853D01*
X0Y852D02*
X7Y852D01*
X1173Y852D02*
X1180Y852D01*
X0Y851D02*
X7Y851D01*
X1173Y851D02*
X1180Y851D01*
X0Y850D02*
X7Y850D01*
X1173Y850D02*
X1180Y850D01*
X0Y849D02*
X7Y849D01*
X1173Y849D02*
X1180Y849D01*
X0Y848D02*
X7Y848D01*
X1173Y848D02*
X1180Y848D01*
X0Y847D02*
X7Y847D01*
X1173Y847D02*
X1180Y847D01*
X0Y846D02*
X7Y846D01*
X1173Y846D02*
X1180Y846D01*
X0Y845D02*
X7Y845D01*
X1173Y845D02*
X1180Y845D01*
X0Y844D02*
X7Y844D01*
X1173Y844D02*
X1180Y844D01*
X0Y843D02*
X7Y843D01*
X1173Y843D02*
X1180Y843D01*
X0Y842D02*
X7Y842D01*
X1173Y842D02*
X1180Y842D01*
X0Y841D02*
X7Y841D01*
X1173Y841D02*
X1180Y841D01*
X0Y840D02*
X7Y840D01*
X1173Y840D02*
X1180Y840D01*
X0Y839D02*
X7Y839D01*
X1173Y839D02*
X1180Y839D01*
X0Y838D02*
X7Y838D01*
X1173Y838D02*
X1180Y838D01*
X0Y837D02*
X7Y837D01*
X1173Y837D02*
X1180Y837D01*
X0Y836D02*
X7Y836D01*
X1173Y836D02*
X1180Y836D01*
X0Y835D02*
X7Y835D01*
X1173Y835D02*
X1180Y835D01*
X0Y834D02*
X7Y834D01*
X1173Y834D02*
X1180Y834D01*
X0Y833D02*
X7Y833D01*
X1173Y833D02*
X1180Y833D01*
X0Y832D02*
X7Y832D01*
X1173Y832D02*
X1180Y832D01*
X0Y831D02*
X7Y831D01*
X1173Y831D02*
X1180Y831D01*
X0Y830D02*
X7Y830D01*
X1173Y830D02*
X1180Y830D01*
X0Y829D02*
X7Y829D01*
X1173Y829D02*
X1180Y829D01*
X0Y828D02*
X7Y828D01*
X1173Y828D02*
X1180Y828D01*
X0Y827D02*
X7Y827D01*
X1173Y827D02*
X1180Y827D01*
X0Y826D02*
X7Y826D01*
X1173Y826D02*
X1180Y826D01*
X0Y825D02*
X7Y825D01*
X1173Y825D02*
X1180Y825D01*
X0Y824D02*
X7Y824D01*
X1173Y824D02*
X1180Y824D01*
X0Y823D02*
X7Y823D01*
X1173Y823D02*
X1180Y823D01*
X0Y822D02*
X7Y822D01*
X1173Y822D02*
X1180Y822D01*
X0Y821D02*
X7Y821D01*
X1173Y821D02*
X1180Y821D01*
X0Y820D02*
X7Y820D01*
X1173Y820D02*
X1180Y820D01*
X0Y819D02*
X7Y819D01*
X1173Y819D02*
X1180Y819D01*
X0Y818D02*
X7Y818D01*
X1173Y818D02*
X1180Y818D01*
X0Y817D02*
X7Y817D01*
X1173Y817D02*
X1180Y817D01*
X0Y816D02*
X7Y816D01*
X1173Y816D02*
X1180Y816D01*
X0Y815D02*
X7Y815D01*
X1173Y815D02*
X1180Y815D01*
X0Y814D02*
X7Y814D01*
X1173Y814D02*
X1180Y814D01*
X0Y813D02*
X7Y813D01*
X1173Y813D02*
X1180Y813D01*
X0Y812D02*
X7Y812D01*
X1173Y812D02*
X1180Y812D01*
X0Y811D02*
X7Y811D01*
X1173Y811D02*
X1180Y811D01*
X0Y810D02*
X7Y810D01*
X1173Y810D02*
X1180Y810D01*
X0Y809D02*
X7Y809D01*
X1173Y809D02*
X1180Y809D01*
X0Y808D02*
X7Y808D01*
X1173Y808D02*
X1180Y808D01*
X0Y807D02*
X7Y807D01*
X1173Y807D02*
X1180Y807D01*
X0Y806D02*
X7Y806D01*
X1173Y806D02*
X1180Y806D01*
X0Y805D02*
X7Y805D01*
X1173Y805D02*
X1180Y805D01*
X0Y804D02*
X7Y804D01*
X1173Y804D02*
X1180Y804D01*
X0Y803D02*
X7Y803D01*
X1173Y803D02*
X1180Y803D01*
X0Y802D02*
X7Y802D01*
X1173Y802D02*
X1180Y802D01*
X0Y801D02*
X7Y801D01*
X1173Y801D02*
X1180Y801D01*
X0Y800D02*
X7Y800D01*
X1173Y800D02*
X1180Y800D01*
X0Y799D02*
X7Y799D01*
X1173Y799D02*
X1180Y799D01*
X0Y798D02*
X7Y798D01*
X1173Y798D02*
X1180Y798D01*
X0Y797D02*
X7Y797D01*
X1173Y797D02*
X1180Y797D01*
X0Y796D02*
X7Y796D01*
X1173Y796D02*
X1180Y796D01*
X0Y795D02*
X7Y795D01*
X1173Y795D02*
X1180Y795D01*
X0Y794D02*
X7Y794D01*
X1173Y794D02*
X1180Y794D01*
X0Y793D02*
X7Y793D01*
X1173Y793D02*
X1180Y793D01*
X0Y792D02*
X7Y792D01*
X1173Y792D02*
X1180Y792D01*
X0Y791D02*
X7Y791D01*
X1173Y791D02*
X1180Y791D01*
X0Y790D02*
X7Y790D01*
X1173Y790D02*
X1180Y790D01*
X0Y789D02*
X7Y789D01*
X1173Y789D02*
X1180Y789D01*
X0Y788D02*
X7Y788D01*
X1173Y788D02*
X1180Y788D01*
X0Y787D02*
X7Y787D01*
X1173Y787D02*
X1180Y787D01*
X0Y786D02*
X7Y786D01*
X1173Y786D02*
X1180Y786D01*
X0Y785D02*
X7Y785D01*
X1173Y785D02*
X1180Y785D01*
X0Y784D02*
X7Y784D01*
X1173Y784D02*
X1180Y784D01*
X0Y783D02*
X7Y783D01*
X1173Y783D02*
X1180Y783D01*
X0Y782D02*
X7Y782D01*
X1173Y782D02*
X1180Y782D01*
X0Y781D02*
X7Y781D01*
X1173Y781D02*
X1180Y781D01*
X0Y780D02*
X7Y780D01*
X1173Y780D02*
X1180Y780D01*
X0Y779D02*
X7Y779D01*
X1173Y779D02*
X1180Y779D01*
X0Y778D02*
X7Y778D01*
X1173Y778D02*
X1180Y778D01*
X0Y777D02*
X7Y777D01*
X1173Y777D02*
X1180Y777D01*
X0Y776D02*
X7Y776D01*
X1173Y776D02*
X1180Y776D01*
X0Y775D02*
X7Y775D01*
X1173Y775D02*
X1180Y775D01*
X0Y774D02*
X7Y774D01*
X1173Y774D02*
X1180Y774D01*
X0Y773D02*
X7Y773D01*
X1173Y773D02*
X1180Y773D01*
X0Y772D02*
X7Y772D01*
X1173Y772D02*
X1180Y772D01*
X0Y771D02*
X7Y771D01*
X1173Y771D02*
X1180Y771D01*
X0Y770D02*
X7Y770D01*
X1173Y770D02*
X1180Y770D01*
X0Y769D02*
X7Y769D01*
X1173Y769D02*
X1180Y769D01*
X0Y768D02*
X7Y768D01*
X1173Y768D02*
X1180Y768D01*
X0Y767D02*
X7Y767D01*
X1173Y767D02*
X1180Y767D01*
X0Y766D02*
X7Y766D01*
X1173Y766D02*
X1180Y766D01*
X0Y765D02*
X7Y765D01*
X1173Y765D02*
X1180Y765D01*
X0Y764D02*
X7Y764D01*
X1173Y764D02*
X1180Y764D01*
X0Y763D02*
X7Y763D01*
X1173Y763D02*
X1180Y763D01*
X0Y762D02*
X7Y762D01*
X1173Y762D02*
X1180Y762D01*
X0Y761D02*
X7Y761D01*
X1173Y761D02*
X1180Y761D01*
X0Y760D02*
X7Y760D01*
X1173Y760D02*
X1180Y760D01*
X0Y759D02*
X7Y759D01*
X1173Y759D02*
X1180Y759D01*
X0Y758D02*
X7Y758D01*
X1173Y758D02*
X1180Y758D01*
X0Y757D02*
X7Y757D01*
X1173Y757D02*
X1180Y757D01*
X0Y756D02*
X7Y756D01*
X1173Y756D02*
X1180Y756D01*
X0Y755D02*
X7Y755D01*
X1173Y755D02*
X1180Y755D01*
X0Y754D02*
X7Y754D01*
X1173Y754D02*
X1180Y754D01*
X0Y753D02*
X7Y753D01*
X1173Y753D02*
X1180Y753D01*
X0Y752D02*
X7Y752D01*
X1173Y752D02*
X1180Y752D01*
X0Y751D02*
X7Y751D01*
X1173Y751D02*
X1180Y751D01*
X0Y750D02*
X7Y750D01*
X1173Y750D02*
X1180Y750D01*
X0Y749D02*
X7Y749D01*
X1173Y749D02*
X1180Y749D01*
X0Y748D02*
X7Y748D01*
X1173Y748D02*
X1180Y748D01*
X0Y747D02*
X7Y747D01*
X1173Y747D02*
X1180Y747D01*
X0Y746D02*
X7Y746D01*
X1173Y746D02*
X1180Y746D01*
X0Y745D02*
X7Y745D01*
X1173Y745D02*
X1180Y745D01*
X0Y744D02*
X7Y744D01*
X1173Y744D02*
X1180Y744D01*
X0Y743D02*
X7Y743D01*
X1173Y743D02*
X1180Y743D01*
X0Y742D02*
X7Y742D01*
X1173Y742D02*
X1180Y742D01*
X0Y741D02*
X7Y741D01*
X1173Y741D02*
X1180Y741D01*
X0Y740D02*
X7Y740D01*
X1173Y740D02*
X1180Y740D01*
X0Y739D02*
X7Y739D01*
X1173Y739D02*
X1180Y739D01*
X0Y738D02*
X7Y738D01*
X1173Y738D02*
X1180Y738D01*
X0Y737D02*
X7Y737D01*
X1173Y737D02*
X1180Y737D01*
X0Y736D02*
X7Y736D01*
X1173Y736D02*
X1180Y736D01*
X0Y735D02*
X7Y735D01*
X1173Y735D02*
X1180Y735D01*
X0Y734D02*
X7Y734D01*
X1173Y734D02*
X1180Y734D01*
X0Y733D02*
X7Y733D01*
X1173Y733D02*
X1180Y733D01*
X0Y732D02*
X7Y732D01*
X1173Y732D02*
X1180Y732D01*
X0Y731D02*
X7Y731D01*
X1173Y731D02*
X1180Y731D01*
X0Y730D02*
X7Y730D01*
X1173Y730D02*
X1180Y730D01*
X0Y729D02*
X7Y729D01*
X1173Y729D02*
X1180Y729D01*
X0Y728D02*
X7Y728D01*
X1173Y728D02*
X1180Y728D01*
X0Y727D02*
X7Y727D01*
X1173Y727D02*
X1180Y727D01*
X0Y726D02*
X7Y726D01*
X1173Y726D02*
X1180Y726D01*
X0Y725D02*
X7Y725D01*
X1173Y725D02*
X1180Y725D01*
X0Y724D02*
X7Y724D01*
X1173Y724D02*
X1180Y724D01*
X0Y723D02*
X7Y723D01*
X1173Y723D02*
X1180Y723D01*
X0Y722D02*
X7Y722D01*
X1173Y722D02*
X1180Y722D01*
X0Y721D02*
X7Y721D01*
X1173Y721D02*
X1180Y721D01*
X0Y720D02*
X7Y720D01*
X1173Y720D02*
X1180Y720D01*
X0Y719D02*
X7Y719D01*
X1173Y719D02*
X1180Y719D01*
X0Y718D02*
X7Y718D01*
X1173Y718D02*
X1180Y718D01*
X0Y717D02*
X7Y717D01*
X1173Y717D02*
X1180Y717D01*
X0Y716D02*
X7Y716D01*
X1173Y716D02*
X1180Y716D01*
X0Y715D02*
X7Y715D01*
X1173Y715D02*
X1180Y715D01*
X0Y714D02*
X7Y714D01*
X1173Y714D02*
X1180Y714D01*
X0Y713D02*
X7Y713D01*
X1173Y713D02*
X1180Y713D01*
X0Y712D02*
X7Y712D01*
X1173Y712D02*
X1180Y712D01*
X0Y711D02*
X7Y711D01*
X1173Y711D02*
X1180Y711D01*
X0Y710D02*
X7Y710D01*
X1173Y710D02*
X1180Y710D01*
X0Y709D02*
X7Y709D01*
X1173Y709D02*
X1180Y709D01*
X0Y708D02*
X7Y708D01*
X1173Y708D02*
X1180Y708D01*
X0Y707D02*
X7Y707D01*
X1173Y707D02*
X1180Y707D01*
X0Y706D02*
X7Y706D01*
X1173Y706D02*
X1180Y706D01*
X0Y705D02*
X7Y705D01*
X1173Y705D02*
X1180Y705D01*
X0Y704D02*
X7Y704D01*
X1173Y704D02*
X1180Y704D01*
X0Y703D02*
X7Y703D01*
X1173Y703D02*
X1180Y703D01*
X0Y702D02*
X7Y702D01*
X1173Y702D02*
X1180Y702D01*
X0Y701D02*
X7Y701D01*
X1173Y701D02*
X1180Y701D01*
X0Y700D02*
X7Y700D01*
X1173Y700D02*
X1180Y700D01*
X0Y699D02*
X7Y699D01*
X1173Y699D02*
X1180Y699D01*
X0Y698D02*
X7Y698D01*
X1173Y698D02*
X1180Y698D01*
X0Y697D02*
X7Y697D01*
X1173Y697D02*
X1180Y697D01*
X0Y696D02*
X7Y696D01*
X1173Y696D02*
X1180Y696D01*
X0Y695D02*
X7Y695D01*
X1173Y695D02*
X1180Y695D01*
X0Y694D02*
X7Y694D01*
X1173Y694D02*
X1180Y694D01*
X0Y693D02*
X7Y693D01*
X1173Y693D02*
X1180Y693D01*
X0Y692D02*
X7Y692D01*
X1173Y692D02*
X1180Y692D01*
X0Y691D02*
X7Y691D01*
X1173Y691D02*
X1180Y691D01*
X0Y690D02*
X7Y690D01*
X1173Y690D02*
X1180Y690D01*
X0Y689D02*
X7Y689D01*
X1173Y689D02*
X1180Y689D01*
X0Y688D02*
X7Y688D01*
X1173Y688D02*
X1180Y688D01*
X0Y687D02*
X7Y687D01*
X1173Y687D02*
X1180Y687D01*
X0Y686D02*
X7Y686D01*
X1173Y686D02*
X1180Y686D01*
X0Y685D02*
X7Y685D01*
X1173Y685D02*
X1180Y685D01*
X0Y684D02*
X7Y684D01*
X1173Y684D02*
X1180Y684D01*
X0Y683D02*
X7Y683D01*
X1173Y683D02*
X1180Y683D01*
X0Y682D02*
X7Y682D01*
X1173Y682D02*
X1180Y682D01*
X0Y681D02*
X7Y681D01*
X1173Y681D02*
X1180Y681D01*
X0Y680D02*
X7Y680D01*
X1173Y680D02*
X1180Y680D01*
X0Y679D02*
X7Y679D01*
X1173Y679D02*
X1180Y679D01*
X0Y678D02*
X7Y678D01*
X883Y678D02*
X887Y678D01*
X1173Y678D02*
X1180Y678D01*
X0Y677D02*
X7Y677D01*
X883Y677D02*
X887Y677D01*
X1173Y677D02*
X1180Y677D01*
X0Y676D02*
X7Y676D01*
X880Y676D02*
X887Y676D01*
X1173Y676D02*
X1180Y676D01*
X0Y675D02*
X7Y675D01*
X874Y675D02*
X887Y675D01*
X1173Y675D02*
X1180Y675D01*
X0Y674D02*
X7Y674D01*
X873Y674D02*
X887Y674D01*
X1173Y674D02*
X1180Y674D01*
X0Y673D02*
X7Y673D01*
X870Y673D02*
X882Y673D01*
X1173Y673D02*
X1180Y673D01*
X0Y672D02*
X7Y672D01*
X870Y672D02*
X882Y672D01*
X1173Y672D02*
X1180Y672D01*
X0Y671D02*
X7Y671D01*
X867Y671D02*
X879Y671D01*
X1173Y671D02*
X1180Y671D01*
X0Y670D02*
X7Y670D01*
X864Y670D02*
X878Y670D01*
X1173Y670D02*
X1180Y670D01*
X0Y669D02*
X7Y669D01*
X863Y669D02*
X877Y669D01*
X1173Y669D02*
X1180Y669D01*
X0Y668D02*
X7Y668D01*
X860Y668D02*
X874Y668D01*
X1173Y668D02*
X1180Y668D01*
X0Y667D02*
X7Y667D01*
X860Y667D02*
X874Y667D01*
X1173Y667D02*
X1180Y667D01*
X0Y666D02*
X7Y666D01*
X860Y666D02*
X869Y666D01*
X1173Y666D02*
X1180Y666D01*
X0Y665D02*
X7Y665D01*
X860Y665D02*
X864Y665D01*
X1173Y665D02*
X1180Y665D01*
X0Y664D02*
X7Y664D01*
X860Y664D02*
X864Y664D01*
X1173Y664D02*
X1180Y664D01*
X0Y663D02*
X7Y663D01*
X1173Y663D02*
X1180Y663D01*
X0Y662D02*
X7Y662D01*
X1173Y662D02*
X1180Y662D01*
X0Y661D02*
X7Y661D01*
X340Y661D02*
X347Y661D01*
X1173Y661D02*
X1180Y661D01*
X0Y660D02*
X7Y660D01*
X334Y660D02*
X354Y660D01*
X1173Y660D02*
X1180Y660D01*
X0Y659D02*
X7Y659D01*
X334Y659D02*
X354Y659D01*
X1173Y659D02*
X1180Y659D01*
X0Y658D02*
X7Y658D01*
X332Y658D02*
X354Y658D01*
X1173Y658D02*
X1180Y658D01*
X0Y657D02*
X7Y657D01*
X324Y657D02*
X355Y657D01*
X1173Y657D02*
X1180Y657D01*
X0Y656D02*
X7Y656D01*
X324Y656D02*
X356Y656D01*
X1173Y656D02*
X1180Y656D01*
X0Y655D02*
X7Y655D01*
X322Y655D02*
X354Y655D01*
X1173Y655D02*
X1180Y655D01*
X0Y654D02*
X7Y654D01*
X322Y654D02*
X354Y654D01*
X1173Y654D02*
X1180Y654D01*
X0Y653D02*
X7Y653D01*
X322Y653D02*
X333Y653D01*
X1173Y653D02*
X1180Y653D01*
X0Y652D02*
X7Y652D01*
X322Y652D02*
X326Y652D01*
X1173Y652D02*
X1180Y652D01*
X0Y651D02*
X7Y651D01*
X322Y651D02*
X323Y651D01*
X1173Y651D02*
X1180Y651D01*
X0Y650D02*
X7Y650D01*
X1173Y650D02*
X1180Y650D01*
X0Y649D02*
X7Y649D01*
X1173Y649D02*
X1180Y649D01*
X0Y648D02*
X7Y648D01*
X1173Y648D02*
X1180Y648D01*
X0Y647D02*
X7Y647D01*
X1173Y647D02*
X1180Y647D01*
X0Y646D02*
X7Y646D01*
X1173Y646D02*
X1180Y646D01*
X0Y645D02*
X7Y645D01*
X1173Y645D02*
X1180Y645D01*
X0Y644D02*
X7Y644D01*
X1173Y644D02*
X1180Y644D01*
X0Y643D02*
X7Y643D01*
X1173Y643D02*
X1180Y643D01*
X0Y642D02*
X7Y642D01*
X1173Y642D02*
X1180Y642D01*
X0Y641D02*
X7Y641D01*
X1173Y641D02*
X1180Y641D01*
X0Y640D02*
X7Y640D01*
X1173Y640D02*
X1180Y640D01*
X0Y639D02*
X7Y639D01*
X1173Y639D02*
X1180Y639D01*
X0Y638D02*
X7Y638D01*
X1173Y638D02*
X1180Y638D01*
X0Y637D02*
X7Y637D01*
X1173Y637D02*
X1180Y637D01*
X0Y636D02*
X7Y636D01*
X1173Y636D02*
X1180Y636D01*
X0Y635D02*
X7Y635D01*
X1173Y635D02*
X1180Y635D01*
X0Y634D02*
X7Y634D01*
X1173Y634D02*
X1180Y634D01*
X0Y633D02*
X7Y633D01*
X1173Y633D02*
X1180Y633D01*
X0Y632D02*
X7Y632D01*
X1173Y632D02*
X1180Y632D01*
X0Y631D02*
X7Y631D01*
X1173Y631D02*
X1180Y631D01*
X0Y630D02*
X7Y630D01*
X1173Y630D02*
X1180Y630D01*
X0Y629D02*
X7Y629D01*
X1173Y629D02*
X1180Y629D01*
X0Y628D02*
X7Y628D01*
X1173Y628D02*
X1180Y628D01*
X0Y627D02*
X7Y627D01*
X1173Y627D02*
X1180Y627D01*
X0Y626D02*
X7Y626D01*
X1173Y626D02*
X1180Y626D01*
X0Y625D02*
X7Y625D01*
X1173Y625D02*
X1180Y625D01*
X0Y624D02*
X7Y624D01*
X1173Y624D02*
X1180Y624D01*
X0Y623D02*
X7Y623D01*
X1173Y623D02*
X1180Y623D01*
X0Y622D02*
X7Y622D01*
X1173Y622D02*
X1180Y622D01*
X0Y621D02*
X7Y621D01*
X1173Y621D02*
X1180Y621D01*
X0Y620D02*
X7Y620D01*
X1173Y620D02*
X1180Y620D01*
X0Y619D02*
X7Y619D01*
X1173Y619D02*
X1180Y619D01*
X0Y618D02*
X7Y618D01*
X1173Y618D02*
X1180Y618D01*
X0Y617D02*
X7Y617D01*
X1173Y617D02*
X1180Y617D01*
X0Y616D02*
X7Y616D01*
X1173Y616D02*
X1180Y616D01*
X0Y615D02*
X7Y615D01*
X1173Y615D02*
X1180Y615D01*
X0Y614D02*
X7Y614D01*
X1173Y614D02*
X1180Y614D01*
X0Y613D02*
X7Y613D01*
X1173Y613D02*
X1180Y613D01*
X0Y612D02*
X7Y612D01*
X1173Y612D02*
X1180Y612D01*
X0Y611D02*
X7Y611D01*
X1173Y611D02*
X1180Y611D01*
X0Y610D02*
X7Y610D01*
X1173Y610D02*
X1180Y610D01*
X0Y609D02*
X7Y609D01*
X1173Y609D02*
X1180Y609D01*
X0Y608D02*
X7Y608D01*
X1173Y608D02*
X1180Y608D01*
X0Y607D02*
X7Y607D01*
X1173Y607D02*
X1180Y607D01*
X0Y606D02*
X7Y606D01*
X1173Y606D02*
X1180Y606D01*
X0Y605D02*
X7Y605D01*
X1173Y605D02*
X1180Y605D01*
X0Y604D02*
X7Y604D01*
X1173Y604D02*
X1180Y604D01*
X0Y603D02*
X7Y603D01*
X1173Y603D02*
X1180Y603D01*
X0Y602D02*
X7Y602D01*
X1173Y602D02*
X1180Y602D01*
X0Y601D02*
X7Y601D01*
X1173Y601D02*
X1180Y601D01*
X0Y600D02*
X7Y600D01*
X1173Y600D02*
X1180Y600D01*
X0Y599D02*
X7Y599D01*
X1173Y599D02*
X1180Y599D01*
X0Y598D02*
X7Y598D01*
X1173Y598D02*
X1180Y598D01*
X0Y597D02*
X7Y597D01*
X1173Y597D02*
X1180Y597D01*
X0Y596D02*
X7Y596D01*
X1173Y596D02*
X1180Y596D01*
X0Y595D02*
X7Y595D01*
X1173Y595D02*
X1180Y595D01*
X0Y594D02*
X7Y594D01*
X1173Y594D02*
X1180Y594D01*
X0Y593D02*
X7Y593D01*
X1173Y593D02*
X1180Y593D01*
X0Y592D02*
X7Y592D01*
X1173Y592D02*
X1180Y592D01*
X0Y591D02*
X7Y591D01*
X1173Y591D02*
X1180Y591D01*
X0Y590D02*
X7Y590D01*
X1173Y590D02*
X1180Y590D01*
X0Y589D02*
X7Y589D01*
X1173Y589D02*
X1180Y589D01*
X0Y588D02*
X7Y588D01*
X1173Y588D02*
X1180Y588D01*
X0Y587D02*
X7Y587D01*
X1173Y587D02*
X1180Y587D01*
X0Y586D02*
X7Y586D01*
X1173Y586D02*
X1180Y586D01*
X0Y585D02*
X7Y585D01*
X1173Y585D02*
X1180Y585D01*
X0Y584D02*
X7Y584D01*
X1173Y584D02*
X1180Y584D01*
X0Y583D02*
X7Y583D01*
X1173Y583D02*
X1180Y583D01*
X0Y582D02*
X7Y582D01*
X1173Y582D02*
X1180Y582D01*
X0Y581D02*
X7Y581D01*
X1173Y581D02*
X1180Y581D01*
X0Y580D02*
X7Y580D01*
X1173Y580D02*
X1180Y580D01*
X0Y579D02*
X7Y579D01*
X1173Y579D02*
X1180Y579D01*
X0Y578D02*
X7Y578D01*
X1173Y578D02*
X1180Y578D01*
X0Y577D02*
X7Y577D01*
X1173Y577D02*
X1180Y577D01*
X0Y576D02*
X7Y576D01*
X1173Y576D02*
X1180Y576D01*
X0Y575D02*
X7Y575D01*
X359Y575D02*
X360Y575D01*
X1173Y575D02*
X1180Y575D01*
X0Y574D02*
X7Y574D01*
X357Y574D02*
X361Y574D01*
X1173Y574D02*
X1180Y574D01*
X0Y573D02*
X7Y573D01*
X355Y573D02*
X361Y573D01*
X1173Y573D02*
X1180Y573D01*
X0Y572D02*
X7Y572D01*
X353Y572D02*
X361Y572D01*
X1173Y572D02*
X1180Y572D01*
X0Y571D02*
X7Y571D01*
X351Y571D02*
X361Y571D01*
X1173Y571D02*
X1180Y571D01*
X0Y570D02*
X7Y570D01*
X349Y570D02*
X358Y570D01*
X1173Y570D02*
X1180Y570D01*
X0Y569D02*
X7Y569D01*
X348Y569D02*
X357Y569D01*
X1173Y569D02*
X1180Y569D01*
X0Y568D02*
X7Y568D01*
X348Y568D02*
X356Y568D01*
X1173Y568D02*
X1180Y568D01*
X0Y567D02*
X7Y567D01*
X348Y567D02*
X355Y567D01*
X1173Y567D02*
X1180Y567D01*
X0Y566D02*
X7Y566D01*
X348Y566D02*
X354Y566D01*
X1173Y566D02*
X1180Y566D01*
X0Y565D02*
X7Y565D01*
X348Y565D02*
X354Y565D01*
X1173Y565D02*
X1180Y565D01*
X0Y564D02*
X7Y564D01*
X348Y564D02*
X354Y564D01*
X1173Y564D02*
X1180Y564D01*
X0Y563D02*
X7Y563D01*
X347Y563D02*
X354Y563D01*
X1173Y563D02*
X1180Y563D01*
X0Y562D02*
X7Y562D01*
X347Y562D02*
X354Y562D01*
X1173Y562D02*
X1180Y562D01*
X0Y561D02*
X7Y561D01*
X347Y561D02*
X352Y561D01*
X1173Y561D02*
X1180Y561D01*
X0Y560D02*
X7Y560D01*
X347Y560D02*
X352Y560D01*
X1173Y560D02*
X1180Y560D01*
X0Y559D02*
X7Y559D01*
X347Y559D02*
X352Y559D01*
X1173Y559D02*
X1180Y559D01*
X0Y558D02*
X7Y558D01*
X347Y558D02*
X352Y558D01*
X1173Y558D02*
X1180Y558D01*
X0Y557D02*
X7Y557D01*
X347Y557D02*
X352Y557D01*
X1173Y557D02*
X1180Y557D01*
X0Y556D02*
X7Y556D01*
X347Y556D02*
X352Y556D01*
X1173Y556D02*
X1180Y556D01*
X0Y555D02*
X7Y555D01*
X348Y555D02*
X352Y555D01*
X1173Y555D02*
X1180Y555D01*
X0Y554D02*
X7Y554D01*
X348Y554D02*
X352Y554D01*
X1173Y554D02*
X1180Y554D01*
X0Y553D02*
X7Y553D01*
X348Y553D02*
X351Y553D01*
X1173Y553D02*
X1180Y553D01*
X0Y552D02*
X7Y552D01*
X1173Y552D02*
X1180Y552D01*
X0Y551D02*
X7Y551D01*
X1173Y551D02*
X1180Y551D01*
X0Y550D02*
X7Y550D01*
X1173Y550D02*
X1180Y550D01*
X0Y549D02*
X7Y549D01*
X1173Y549D02*
X1180Y549D01*
X0Y548D02*
X7Y548D01*
X1173Y548D02*
X1180Y548D01*
X0Y547D02*
X7Y547D01*
X1173Y547D02*
X1180Y547D01*
X0Y546D02*
X7Y546D01*
X1173Y546D02*
X1180Y546D01*
X0Y545D02*
X7Y545D01*
X1173Y545D02*
X1180Y545D01*
X0Y544D02*
X7Y544D01*
X1173Y544D02*
X1180Y544D01*
X0Y543D02*
X7Y543D01*
X1173Y543D02*
X1180Y543D01*
X0Y542D02*
X7Y542D01*
X1173Y542D02*
X1180Y542D01*
X0Y541D02*
X7Y541D01*
X1173Y541D02*
X1180Y541D01*
X0Y540D02*
X7Y540D01*
X1173Y540D02*
X1180Y540D01*
X0Y539D02*
X7Y539D01*
X1173Y539D02*
X1180Y539D01*
X0Y538D02*
X7Y538D01*
X1173Y538D02*
X1180Y538D01*
X0Y537D02*
X7Y537D01*
X1173Y537D02*
X1180Y537D01*
X0Y536D02*
X7Y536D01*
X1173Y536D02*
X1180Y536D01*
X0Y535D02*
X7Y535D01*
X1173Y535D02*
X1180Y535D01*
X0Y534D02*
X7Y534D01*
X1173Y534D02*
X1180Y534D01*
X0Y533D02*
X7Y533D01*
X1173Y533D02*
X1180Y533D01*
X0Y532D02*
X7Y532D01*
X1173Y532D02*
X1180Y532D01*
X0Y531D02*
X7Y531D01*
X1173Y531D02*
X1180Y531D01*
X0Y530D02*
X7Y530D01*
X1173Y530D02*
X1180Y530D01*
X0Y529D02*
X7Y529D01*
X1173Y529D02*
X1180Y529D01*
X0Y528D02*
X7Y528D01*
X1173Y528D02*
X1180Y528D01*
X0Y527D02*
X7Y527D01*
X1173Y527D02*
X1180Y527D01*
X0Y526D02*
X7Y526D01*
X1173Y526D02*
X1180Y526D01*
X0Y525D02*
X7Y525D01*
X1173Y525D02*
X1180Y525D01*
X0Y524D02*
X7Y524D01*
X1173Y524D02*
X1180Y524D01*
X0Y523D02*
X7Y523D01*
X1173Y523D02*
X1180Y523D01*
X0Y522D02*
X7Y522D01*
X1173Y522D02*
X1180Y522D01*
X0Y521D02*
X7Y521D01*
X1173Y521D02*
X1180Y521D01*
X0Y520D02*
X7Y520D01*
X1173Y520D02*
X1180Y520D01*
X0Y519D02*
X7Y519D01*
X1173Y519D02*
X1180Y519D01*
X0Y518D02*
X7Y518D01*
X1173Y518D02*
X1180Y518D01*
X0Y517D02*
X7Y517D01*
X1173Y517D02*
X1180Y517D01*
X0Y516D02*
X7Y516D01*
X1173Y516D02*
X1180Y516D01*
X0Y515D02*
X7Y515D01*
X1173Y515D02*
X1180Y515D01*
X0Y514D02*
X7Y514D01*
X1173Y514D02*
X1180Y514D01*
X0Y513D02*
X7Y513D01*
X1173Y513D02*
X1180Y513D01*
X0Y512D02*
X7Y512D01*
X1173Y512D02*
X1180Y512D01*
X0Y511D02*
X7Y511D01*
X1173Y511D02*
X1180Y511D01*
X0Y510D02*
X7Y510D01*
X1173Y510D02*
X1180Y510D01*
X0Y509D02*
X7Y509D01*
X1173Y509D02*
X1180Y509D01*
X0Y508D02*
X7Y508D01*
X1173Y508D02*
X1180Y508D01*
X0Y507D02*
X7Y507D01*
X1173Y507D02*
X1180Y507D01*
X0Y506D02*
X7Y506D01*
X1173Y506D02*
X1180Y506D01*
X0Y505D02*
X7Y505D01*
X1173Y505D02*
X1180Y505D01*
X0Y504D02*
X7Y504D01*
X1173Y504D02*
X1180Y504D01*
X0Y503D02*
X7Y503D01*
X1173Y503D02*
X1180Y503D01*
X0Y502D02*
X7Y502D01*
X1173Y502D02*
X1180Y502D01*
X0Y501D02*
X7Y501D01*
X1173Y501D02*
X1180Y501D01*
X0Y500D02*
X7Y500D01*
X1173Y500D02*
X1180Y500D01*
X0Y499D02*
X7Y499D01*
X1173Y499D02*
X1180Y499D01*
X0Y498D02*
X7Y498D01*
X1173Y498D02*
X1180Y498D01*
X0Y497D02*
X7Y497D01*
X1173Y497D02*
X1180Y497D01*
X0Y496D02*
X7Y496D01*
X1173Y496D02*
X1180Y496D01*
X0Y495D02*
X7Y495D01*
X1173Y495D02*
X1180Y495D01*
X0Y494D02*
X7Y494D01*
X1173Y494D02*
X1180Y494D01*
X0Y493D02*
X7Y493D01*
X1173Y493D02*
X1180Y493D01*
X0Y492D02*
X7Y492D01*
X1173Y492D02*
X1180Y492D01*
X0Y491D02*
X7Y491D01*
X1173Y491D02*
X1180Y491D01*
X0Y490D02*
X7Y490D01*
X1173Y490D02*
X1180Y490D01*
X0Y489D02*
X7Y489D01*
X1173Y489D02*
X1180Y489D01*
X0Y488D02*
X7Y488D01*
X1173Y488D02*
X1180Y488D01*
X0Y487D02*
X7Y487D01*
X1173Y487D02*
X1180Y487D01*
X0Y486D02*
X7Y486D01*
X1173Y486D02*
X1180Y486D01*
X0Y485D02*
X7Y485D01*
X1173Y485D02*
X1180Y485D01*
X0Y484D02*
X7Y484D01*
X1173Y484D02*
X1180Y484D01*
X0Y483D02*
X7Y483D01*
X1173Y483D02*
X1180Y483D01*
X0Y482D02*
X7Y482D01*
X1173Y482D02*
X1180Y482D01*
X0Y481D02*
X7Y481D01*
X1173Y481D02*
X1180Y481D01*
X0Y480D02*
X7Y480D01*
X1173Y480D02*
X1180Y480D01*
X0Y479D02*
X7Y479D01*
X1173Y479D02*
X1180Y479D01*
X0Y478D02*
X7Y478D01*
X1173Y478D02*
X1180Y478D01*
X0Y477D02*
X7Y477D01*
X1173Y477D02*
X1180Y477D01*
X0Y476D02*
X7Y476D01*
X1173Y476D02*
X1180Y476D01*
X0Y475D02*
X7Y475D01*
X1173Y475D02*
X1180Y475D01*
X0Y474D02*
X7Y474D01*
X1173Y474D02*
X1180Y474D01*
X0Y473D02*
X7Y473D01*
X1173Y473D02*
X1180Y473D01*
X0Y472D02*
X7Y472D01*
X1173Y472D02*
X1180Y472D01*
X0Y471D02*
X7Y471D01*
X1173Y471D02*
X1180Y471D01*
X0Y470D02*
X7Y470D01*
X1173Y470D02*
X1180Y470D01*
X0Y469D02*
X7Y469D01*
X1173Y469D02*
X1180Y469D01*
X0Y468D02*
X7Y468D01*
X1173Y468D02*
X1180Y468D01*
X0Y467D02*
X7Y467D01*
X1173Y467D02*
X1180Y467D01*
X0Y466D02*
X7Y466D01*
X1173Y466D02*
X1180Y466D01*
X0Y465D02*
X7Y465D01*
X1173Y465D02*
X1180Y465D01*
X0Y464D02*
X7Y464D01*
X1173Y464D02*
X1180Y464D01*
X0Y463D02*
X7Y463D01*
X1173Y463D02*
X1180Y463D01*
X0Y462D02*
X7Y462D01*
X1173Y462D02*
X1180Y462D01*
X0Y461D02*
X7Y461D01*
X1173Y461D02*
X1180Y461D01*
X0Y460D02*
X7Y460D01*
X1173Y460D02*
X1180Y460D01*
X0Y459D02*
X7Y459D01*
X1173Y459D02*
X1180Y459D01*
X0Y458D02*
X7Y458D01*
X1173Y458D02*
X1180Y458D01*
X0Y457D02*
X7Y457D01*
X1173Y457D02*
X1180Y457D01*
X0Y456D02*
X7Y456D01*
X1173Y456D02*
X1180Y456D01*
X0Y455D02*
X7Y455D01*
X1173Y455D02*
X1180Y455D01*
X0Y454D02*
X7Y454D01*
X1173Y454D02*
X1180Y454D01*
X0Y453D02*
X7Y453D01*
X1173Y453D02*
X1180Y453D01*
X0Y452D02*
X7Y452D01*
X1173Y452D02*
X1180Y452D01*
X0Y451D02*
X7Y451D01*
X1173Y451D02*
X1180Y451D01*
X0Y450D02*
X7Y450D01*
X1173Y450D02*
X1180Y450D01*
X0Y449D02*
X7Y449D01*
X1173Y449D02*
X1180Y449D01*
X0Y448D02*
X7Y448D01*
X1173Y448D02*
X1180Y448D01*
X0Y447D02*
X7Y447D01*
X1173Y447D02*
X1180Y447D01*
X0Y446D02*
X7Y446D01*
X1173Y446D02*
X1180Y446D01*
X0Y445D02*
X7Y445D01*
X1173Y445D02*
X1180Y445D01*
X0Y444D02*
X7Y444D01*
X1173Y444D02*
X1180Y444D01*
X0Y443D02*
X7Y443D01*
X1173Y443D02*
X1180Y443D01*
X0Y442D02*
X7Y442D01*
X1173Y442D02*
X1180Y442D01*
X0Y441D02*
X7Y441D01*
X1173Y441D02*
X1180Y441D01*
X0Y440D02*
X7Y440D01*
X1173Y440D02*
X1180Y440D01*
X0Y439D02*
X7Y439D01*
X1173Y439D02*
X1180Y439D01*
X0Y438D02*
X7Y438D01*
X1173Y438D02*
X1180Y438D01*
X0Y437D02*
X7Y437D01*
X1173Y437D02*
X1180Y437D01*
X0Y436D02*
X7Y436D01*
X1173Y436D02*
X1180Y436D01*
X0Y435D02*
X7Y435D01*
X1173Y435D02*
X1180Y435D01*
X0Y434D02*
X7Y434D01*
X1173Y434D02*
X1180Y434D01*
X0Y433D02*
X7Y433D01*
X1173Y433D02*
X1180Y433D01*
X0Y432D02*
X7Y432D01*
X1173Y432D02*
X1180Y432D01*
X0Y431D02*
X7Y431D01*
X1173Y431D02*
X1180Y431D01*
X0Y430D02*
X7Y430D01*
X1173Y430D02*
X1180Y430D01*
X0Y429D02*
X7Y429D01*
X1173Y429D02*
X1180Y429D01*
X0Y428D02*
X7Y428D01*
X1173Y428D02*
X1180Y428D01*
X0Y427D02*
X7Y427D01*
X1173Y427D02*
X1180Y427D01*
X0Y426D02*
X7Y426D01*
X1173Y426D02*
X1180Y426D01*
X0Y425D02*
X7Y425D01*
X1173Y425D02*
X1180Y425D01*
X0Y424D02*
X7Y424D01*
X1173Y424D02*
X1180Y424D01*
X0Y423D02*
X7Y423D01*
X1173Y423D02*
X1180Y423D01*
X0Y422D02*
X7Y422D01*
X1173Y422D02*
X1180Y422D01*
X0Y421D02*
X7Y421D01*
X1173Y421D02*
X1180Y421D01*
X0Y420D02*
X7Y420D01*
X1173Y420D02*
X1180Y420D01*
X0Y419D02*
X7Y419D01*
X1173Y419D02*
X1180Y419D01*
X0Y418D02*
X7Y418D01*
X1173Y418D02*
X1180Y418D01*
X0Y417D02*
X7Y417D01*
X1173Y417D02*
X1180Y417D01*
X0Y416D02*
X7Y416D01*
X1173Y416D02*
X1180Y416D01*
X0Y415D02*
X7Y415D01*
X1173Y415D02*
X1180Y415D01*
X0Y414D02*
X7Y414D01*
X1173Y414D02*
X1180Y414D01*
X0Y413D02*
X7Y413D01*
X1173Y413D02*
X1180Y413D01*
X0Y412D02*
X7Y412D01*
X1173Y412D02*
X1180Y412D01*
X0Y411D02*
X7Y411D01*
X1173Y411D02*
X1180Y411D01*
X0Y410D02*
X7Y410D01*
X1173Y410D02*
X1180Y410D01*
X0Y409D02*
X7Y409D01*
X1173Y409D02*
X1180Y409D01*
X0Y408D02*
X7Y408D01*
X1173Y408D02*
X1180Y408D01*
X0Y407D02*
X7Y407D01*
X1173Y407D02*
X1180Y407D01*
X0Y406D02*
X7Y406D01*
X1173Y406D02*
X1180Y406D01*
X0Y405D02*
X7Y405D01*
X1173Y405D02*
X1180Y405D01*
X0Y404D02*
X7Y404D01*
X1173Y404D02*
X1180Y404D01*
X0Y403D02*
X7Y403D01*
X1173Y403D02*
X1180Y403D01*
X0Y402D02*
X7Y402D01*
X1173Y402D02*
X1180Y402D01*
X0Y401D02*
X7Y401D01*
X1173Y401D02*
X1180Y401D01*
X0Y400D02*
X7Y400D01*
X1173Y400D02*
X1180Y400D01*
X0Y399D02*
X7Y399D01*
X1173Y399D02*
X1180Y399D01*
X0Y398D02*
X7Y398D01*
X1173Y398D02*
X1180Y398D01*
X0Y397D02*
X7Y397D01*
X1173Y397D02*
X1180Y397D01*
X0Y396D02*
X7Y396D01*
X1173Y396D02*
X1180Y396D01*
X0Y395D02*
X7Y395D01*
X1173Y395D02*
X1180Y395D01*
X0Y394D02*
X7Y394D01*
X1173Y394D02*
X1180Y394D01*
X0Y393D02*
X7Y393D01*
X1173Y393D02*
X1180Y393D01*
X0Y392D02*
X7Y392D01*
X1173Y392D02*
X1180Y392D01*
X0Y391D02*
X7Y391D01*
X1173Y391D02*
X1180Y391D01*
X0Y390D02*
X7Y390D01*
X1173Y390D02*
X1180Y390D01*
X0Y389D02*
X7Y389D01*
X1173Y389D02*
X1180Y389D01*
X0Y388D02*
X7Y388D01*
X1173Y388D02*
X1180Y388D01*
X0Y387D02*
X7Y387D01*
X1173Y387D02*
X1180Y387D01*
X0Y386D02*
X7Y386D01*
X1173Y386D02*
X1180Y386D01*
X0Y385D02*
X7Y385D01*
X1173Y385D02*
X1180Y385D01*
X0Y384D02*
X7Y384D01*
X1173Y384D02*
X1180Y384D01*
X0Y383D02*
X7Y383D01*
X1173Y383D02*
X1180Y383D01*
X0Y382D02*
X7Y382D01*
X1173Y382D02*
X1180Y382D01*
X0Y381D02*
X7Y381D01*
X1173Y381D02*
X1180Y381D01*
X0Y380D02*
X7Y380D01*
X1173Y380D02*
X1180Y380D01*
X0Y379D02*
X7Y379D01*
X1173Y379D02*
X1180Y379D01*
X0Y378D02*
X7Y378D01*
X1173Y378D02*
X1180Y378D01*
X0Y377D02*
X7Y377D01*
X1173Y377D02*
X1180Y377D01*
X0Y376D02*
X7Y376D01*
X1173Y376D02*
X1180Y376D01*
X0Y375D02*
X7Y375D01*
X1173Y375D02*
X1180Y375D01*
X0Y374D02*
X7Y374D01*
X1173Y374D02*
X1180Y374D01*
X0Y373D02*
X7Y373D01*
X1173Y373D02*
X1180Y373D01*
X0Y372D02*
X7Y372D01*
X1173Y372D02*
X1180Y372D01*
X0Y371D02*
X7Y371D01*
X1173Y371D02*
X1180Y371D01*
X0Y370D02*
X7Y370D01*
X1173Y370D02*
X1180Y370D01*
X0Y369D02*
X7Y369D01*
X1173Y369D02*
X1180Y369D01*
X0Y368D02*
X7Y368D01*
X1173Y368D02*
X1180Y368D01*
X0Y367D02*
X7Y367D01*
X1173Y367D02*
X1180Y367D01*
X0Y366D02*
X7Y366D01*
X1173Y366D02*
X1180Y366D01*
X0Y365D02*
X7Y365D01*
X1173Y365D02*
X1180Y365D01*
X0Y364D02*
X7Y364D01*
X1173Y364D02*
X1180Y364D01*
X0Y363D02*
X7Y363D01*
X1173Y363D02*
X1180Y363D01*
X0Y362D02*
X7Y362D01*
X1173Y362D02*
X1180Y362D01*
X0Y361D02*
X7Y361D01*
X1173Y361D02*
X1180Y361D01*
X0Y360D02*
X7Y360D01*
X1173Y360D02*
X1180Y360D01*
X0Y359D02*
X7Y359D01*
X1173Y359D02*
X1180Y359D01*
X0Y358D02*
X7Y358D01*
X1173Y358D02*
X1180Y358D01*
X0Y357D02*
X7Y357D01*
X1173Y357D02*
X1180Y357D01*
X0Y356D02*
X7Y356D01*
X1173Y356D02*
X1180Y356D01*
X0Y355D02*
X7Y355D01*
X1173Y355D02*
X1180Y355D01*
X0Y354D02*
X7Y354D01*
X1173Y354D02*
X1180Y354D01*
X0Y353D02*
X7Y353D01*
X1173Y353D02*
X1180Y353D01*
X0Y352D02*
X7Y352D01*
X1173Y352D02*
X1180Y352D01*
X0Y351D02*
X7Y351D01*
X1173Y351D02*
X1180Y351D01*
X0Y350D02*
X7Y350D01*
X1173Y350D02*
X1180Y350D01*
X0Y349D02*
X7Y349D01*
X1173Y349D02*
X1180Y349D01*
X0Y348D02*
X7Y348D01*
X1173Y348D02*
X1180Y348D01*
X0Y347D02*
X7Y347D01*
X1173Y347D02*
X1180Y347D01*
X0Y346D02*
X7Y346D01*
X1173Y346D02*
X1180Y346D01*
X0Y345D02*
X7Y345D01*
X1173Y345D02*
X1180Y345D01*
X0Y344D02*
X7Y344D01*
X1173Y344D02*
X1180Y344D01*
X0Y343D02*
X7Y343D01*
X1173Y343D02*
X1180Y343D01*
X0Y342D02*
X7Y342D01*
X1173Y342D02*
X1180Y342D01*
X0Y341D02*
X7Y341D01*
X1173Y341D02*
X1180Y341D01*
X0Y340D02*
X7Y340D01*
X1173Y340D02*
X1180Y340D01*
X0Y339D02*
X7Y339D01*
X1173Y339D02*
X1180Y339D01*
X0Y338D02*
X7Y338D01*
X1173Y338D02*
X1180Y338D01*
X0Y337D02*
X7Y337D01*
X1173Y337D02*
X1180Y337D01*
X0Y336D02*
X7Y336D01*
X1173Y336D02*
X1180Y336D01*
X0Y335D02*
X7Y335D01*
X1173Y335D02*
X1180Y335D01*
X0Y334D02*
X7Y334D01*
X756Y334D02*
X759Y334D01*
X978Y334D02*
X978Y334D01*
X1173Y334D02*
X1180Y334D01*
X0Y333D02*
X7Y333D01*
X754Y333D02*
X761Y333D01*
X978Y333D02*
X980Y333D01*
X1173Y333D02*
X1180Y333D01*
X0Y332D02*
X7Y332D01*
X754Y332D02*
X761Y332D01*
X972Y332D02*
X980Y332D01*
X1173Y332D02*
X1180Y332D01*
X0Y331D02*
X7Y331D01*
X655Y331D02*
X657Y331D01*
X753Y331D02*
X761Y331D01*
X798Y331D02*
X813Y331D01*
X972Y331D02*
X980Y331D01*
X1004Y331D02*
X1011Y331D01*
X1026Y331D02*
X1033Y331D01*
X1173Y331D02*
X1180Y331D01*
X0Y330D02*
X7Y330D01*
X654Y330D02*
X658Y330D01*
X753Y330D02*
X761Y330D01*
X796Y330D02*
X814Y330D01*
X972Y330D02*
X980Y330D01*
X1004Y330D02*
X1012Y330D01*
X1025Y330D02*
X1033Y330D01*
X1173Y330D02*
X1180Y330D01*
X0Y329D02*
X7Y329D01*
X654Y329D02*
X659Y329D01*
X753Y329D02*
X761Y329D01*
X795Y329D02*
X814Y329D01*
X972Y329D02*
X980Y329D01*
X1004Y329D02*
X1012Y329D01*
X1025Y329D02*
X1033Y329D01*
X1173Y329D02*
X1180Y329D01*
X0Y328D02*
X7Y328D01*
X654Y328D02*
X659Y328D01*
X753Y328D02*
X761Y328D01*
X794Y328D02*
X814Y328D01*
X972Y328D02*
X980Y328D01*
X1004Y328D02*
X1013Y328D01*
X1024Y328D02*
X1033Y328D01*
X1173Y328D02*
X1180Y328D01*
X0Y327D02*
X7Y327D01*
X654Y327D02*
X659Y327D01*
X754Y327D02*
X761Y327D01*
X793Y327D02*
X814Y327D01*
X973Y327D02*
X980Y327D01*
X1004Y327D02*
X1014Y327D01*
X1023Y327D02*
X1033Y327D01*
X1173Y327D02*
X1180Y327D01*
X0Y326D02*
X7Y326D01*
X654Y326D02*
X659Y326D01*
X755Y326D02*
X760Y326D01*
X793Y326D02*
X813Y326D01*
X974Y326D02*
X979Y326D01*
X1004Y326D02*
X1015Y326D01*
X1023Y326D02*
X1033Y326D01*
X1173Y326D02*
X1180Y326D01*
X0Y325D02*
X7Y325D01*
X654Y325D02*
X659Y325D01*
X792Y325D02*
X798Y325D01*
X803Y325D02*
X808Y325D01*
X1004Y325D02*
X1015Y325D01*
X1022Y325D02*
X1033Y325D01*
X1173Y325D02*
X1180Y325D01*
X0Y324D02*
X7Y324D01*
X654Y324D02*
X659Y324D01*
X791Y324D02*
X797Y324D01*
X803Y324D02*
X808Y324D01*
X1004Y324D02*
X1016Y324D01*
X1021Y324D02*
X1033Y324D01*
X1173Y324D02*
X1180Y324D01*
X0Y323D02*
X7Y323D01*
X654Y323D02*
X659Y323D01*
X791Y323D02*
X797Y323D01*
X803Y323D02*
X808Y323D01*
X1004Y323D02*
X1017Y323D01*
X1020Y323D02*
X1033Y323D01*
X1173Y323D02*
X1180Y323D01*
X0Y322D02*
X7Y322D01*
X654Y322D02*
X659Y322D01*
X790Y322D02*
X796Y322D01*
X803Y322D02*
X808Y322D01*
X1004Y322D02*
X1009Y322D01*
X1011Y322D02*
X1017Y322D01*
X1020Y322D02*
X1026Y322D01*
X1028Y322D02*
X1033Y322D01*
X1173Y322D02*
X1180Y322D01*
X0Y321D02*
X7Y321D01*
X654Y321D02*
X659Y321D01*
X790Y321D02*
X796Y321D01*
X803Y321D02*
X808Y321D01*
X1004Y321D02*
X1009Y321D01*
X1012Y321D02*
X1026Y321D01*
X1028Y321D02*
X1033Y321D01*
X1173Y321D02*
X1180Y321D01*
X0Y320D02*
X7Y320D01*
X654Y320D02*
X659Y320D01*
X789Y320D02*
X795Y320D01*
X803Y320D02*
X808Y320D01*
X1004Y320D02*
X1009Y320D01*
X1012Y320D02*
X1025Y320D01*
X1028Y320D02*
X1033Y320D01*
X1173Y320D02*
X1180Y320D01*
X0Y319D02*
X7Y319D01*
X654Y319D02*
X659Y319D01*
X789Y319D02*
X795Y319D01*
X803Y319D02*
X808Y319D01*
X1004Y319D02*
X1009Y319D01*
X1013Y319D02*
X1024Y319D01*
X1028Y319D02*
X1033Y319D01*
X1173Y319D02*
X1180Y319D01*
X0Y318D02*
X7Y318D01*
X618Y318D02*
X631Y318D01*
X654Y318D02*
X659Y318D01*
X665Y318D02*
X675Y318D01*
X705Y318D02*
X719Y318D01*
X755Y318D02*
X766Y318D01*
X788Y318D02*
X794Y318D01*
X803Y318D02*
X808Y318D01*
X878Y318D02*
X896Y318D01*
X922Y318D02*
X940Y318D01*
X973Y318D02*
X985Y318D01*
X1004Y318D02*
X1009Y318D01*
X1014Y318D02*
X1024Y318D01*
X1028Y318D02*
X1033Y318D01*
X1173Y318D02*
X1180Y318D01*
X0Y317D02*
X7Y317D01*
X616Y317D02*
X633Y317D01*
X654Y317D02*
X659Y317D01*
X663Y317D02*
X677Y317D01*
X704Y317D02*
X721Y317D01*
X754Y317D02*
X767Y317D01*
X788Y317D02*
X794Y317D01*
X803Y317D02*
X808Y317D01*
X876Y317D02*
X898Y317D01*
X920Y317D02*
X942Y317D01*
X973Y317D02*
X986Y317D01*
X1004Y317D02*
X1009Y317D01*
X1014Y317D02*
X1023Y317D01*
X1028Y317D02*
X1033Y317D01*
X1173Y317D02*
X1180Y317D01*
X0Y316D02*
X7Y316D01*
X615Y316D02*
X634Y316D01*
X654Y316D02*
X659Y316D01*
X661Y316D02*
X678Y316D01*
X702Y316D02*
X722Y316D01*
X753Y316D02*
X767Y316D01*
X787Y316D02*
X793Y316D01*
X803Y316D02*
X808Y316D01*
X875Y316D02*
X899Y316D01*
X919Y316D02*
X943Y316D01*
X972Y316D02*
X986Y316D01*
X1004Y316D02*
X1009Y316D01*
X1015Y316D02*
X1022Y316D01*
X1028Y316D02*
X1033Y316D01*
X1173Y316D02*
X1180Y316D01*
X0Y315D02*
X7Y315D01*
X613Y315D02*
X635Y315D01*
X654Y315D02*
X679Y315D01*
X701Y315D02*
X723Y315D01*
X753Y315D02*
X767Y315D01*
X787Y315D02*
X793Y315D01*
X803Y315D02*
X808Y315D01*
X874Y315D02*
X900Y315D01*
X918Y315D02*
X944Y315D01*
X972Y315D02*
X986Y315D01*
X1004Y315D02*
X1009Y315D01*
X1016Y315D02*
X1021Y315D01*
X1028Y315D02*
X1033Y315D01*
X1173Y315D02*
X1180Y315D01*
X0Y314D02*
X7Y314D01*
X612Y314D02*
X636Y314D01*
X654Y314D02*
X680Y314D01*
X700Y314D02*
X724Y314D01*
X753Y314D02*
X767Y314D01*
X786Y314D02*
X792Y314D01*
X803Y314D02*
X808Y314D01*
X873Y314D02*
X900Y314D01*
X917Y314D02*
X944Y314D01*
X972Y314D02*
X986Y314D01*
X1004Y314D02*
X1009Y314D01*
X1016Y314D02*
X1021Y314D01*
X1028Y314D02*
X1033Y314D01*
X1173Y314D02*
X1180Y314D01*
X0Y313D02*
X7Y313D01*
X612Y313D02*
X637Y313D01*
X654Y313D02*
X681Y313D01*
X699Y313D02*
X725Y313D01*
X753Y313D02*
X766Y313D01*
X786Y313D02*
X792Y313D01*
X803Y313D02*
X808Y313D01*
X873Y313D02*
X901Y313D01*
X917Y313D02*
X945Y313D01*
X972Y313D02*
X985Y313D01*
X1004Y313D02*
X1009Y313D01*
X1016Y313D02*
X1021Y313D01*
X1028Y313D02*
X1033Y313D01*
X1173Y313D02*
X1180Y313D01*
X0Y312D02*
X7Y312D01*
X611Y312D02*
X618Y312D01*
X631Y312D02*
X638Y312D01*
X654Y312D02*
X665Y312D01*
X674Y312D02*
X682Y312D01*
X699Y312D02*
X706Y312D01*
X718Y312D02*
X725Y312D01*
X753Y312D02*
X758Y312D01*
X786Y312D02*
X791Y312D01*
X803Y312D02*
X808Y312D01*
X874Y312D02*
X879Y312D01*
X895Y312D02*
X901Y312D01*
X917Y312D02*
X923Y312D01*
X939Y312D02*
X945Y312D01*
X972Y312D02*
X977Y312D01*
X1004Y312D02*
X1009Y312D01*
X1016Y312D02*
X1021Y312D01*
X1028Y312D02*
X1033Y312D01*
X1173Y312D02*
X1180Y312D01*
X0Y311D02*
X7Y311D01*
X611Y311D02*
X617Y311D01*
X632Y311D02*
X638Y311D01*
X654Y311D02*
X664Y311D01*
X676Y311D02*
X682Y311D01*
X698Y311D02*
X705Y311D01*
X719Y311D02*
X726Y311D01*
X753Y311D02*
X758Y311D01*
X785Y311D02*
X791Y311D01*
X803Y311D02*
X808Y311D01*
X874Y311D02*
X877Y311D01*
X896Y311D02*
X901Y311D01*
X918Y311D02*
X921Y311D01*
X940Y311D02*
X945Y311D01*
X972Y311D02*
X977Y311D01*
X1004Y311D02*
X1009Y311D01*
X1017Y311D02*
X1020Y311D01*
X1028Y311D02*
X1033Y311D01*
X1173Y311D02*
X1180Y311D01*
X0Y310D02*
X7Y310D01*
X610Y310D02*
X616Y310D01*
X633Y310D02*
X639Y310D01*
X654Y310D02*
X663Y310D01*
X677Y310D02*
X683Y310D01*
X698Y310D02*
X704Y310D01*
X720Y310D02*
X726Y310D01*
X753Y310D02*
X758Y310D01*
X785Y310D02*
X790Y310D01*
X803Y310D02*
X808Y310D01*
X896Y310D02*
X901Y310D01*
X939Y310D02*
X945Y310D01*
X972Y310D02*
X977Y310D01*
X1004Y310D02*
X1009Y310D01*
X1028Y310D02*
X1033Y310D01*
X1173Y310D02*
X1180Y310D01*
X0Y309D02*
X7Y309D01*
X610Y309D02*
X615Y309D01*
X634Y309D02*
X639Y309D01*
X654Y309D02*
X662Y309D01*
X677Y309D02*
X683Y309D01*
X698Y309D02*
X703Y309D01*
X721Y309D02*
X726Y309D01*
X753Y309D02*
X758Y309D01*
X785Y309D02*
X790Y309D01*
X803Y309D02*
X808Y309D01*
X894Y309D02*
X901Y309D01*
X938Y309D02*
X945Y309D01*
X972Y309D02*
X977Y309D01*
X1004Y309D02*
X1009Y309D01*
X1028Y309D02*
X1033Y309D01*
X1173Y309D02*
X1180Y309D01*
X0Y308D02*
X7Y308D01*
X610Y308D02*
X615Y308D01*
X634Y308D02*
X639Y308D01*
X654Y308D02*
X661Y308D01*
X678Y308D02*
X683Y308D01*
X697Y308D02*
X703Y308D01*
X721Y308D02*
X727Y308D01*
X753Y308D02*
X758Y308D01*
X785Y308D02*
X790Y308D01*
X803Y308D02*
X808Y308D01*
X892Y308D02*
X900Y308D01*
X936Y308D02*
X944Y308D01*
X972Y308D02*
X977Y308D01*
X1004Y308D02*
X1009Y308D01*
X1028Y308D02*
X1033Y308D01*
X1173Y308D02*
X1180Y308D01*
X0Y307D02*
X7Y307D01*
X610Y307D02*
X615Y307D01*
X634Y307D02*
X639Y307D01*
X654Y307D02*
X660Y307D01*
X678Y307D02*
X683Y307D01*
X697Y307D02*
X703Y307D01*
X722Y307D02*
X727Y307D01*
X753Y307D02*
X758Y307D01*
X785Y307D02*
X790Y307D01*
X803Y307D02*
X808Y307D01*
X890Y307D02*
X900Y307D01*
X933Y307D02*
X944Y307D01*
X972Y307D02*
X977Y307D01*
X1004Y307D02*
X1009Y307D01*
X1028Y307D02*
X1033Y307D01*
X1173Y307D02*
X1180Y307D01*
X0Y306D02*
X7Y306D01*
X610Y306D02*
X615Y306D01*
X634Y306D02*
X639Y306D01*
X654Y306D02*
X659Y306D01*
X678Y306D02*
X683Y306D01*
X697Y306D02*
X703Y306D01*
X722Y306D02*
X727Y306D01*
X753Y306D02*
X758Y306D01*
X785Y306D02*
X790Y306D01*
X803Y306D02*
X808Y306D01*
X887Y306D02*
X899Y306D01*
X931Y306D02*
X943Y306D01*
X972Y306D02*
X977Y306D01*
X1004Y306D02*
X1009Y306D01*
X1028Y306D02*
X1033Y306D01*
X1173Y306D02*
X1180Y306D01*
X0Y305D02*
X7Y305D01*
X610Y305D02*
X615Y305D01*
X634Y305D02*
X639Y305D01*
X654Y305D02*
X659Y305D01*
X678Y305D02*
X683Y305D01*
X697Y305D02*
X703Y305D01*
X722Y305D02*
X727Y305D01*
X753Y305D02*
X758Y305D01*
X785Y305D02*
X791Y305D01*
X803Y305D02*
X808Y305D01*
X885Y305D02*
X898Y305D01*
X929Y305D02*
X942Y305D01*
X972Y305D02*
X977Y305D01*
X1004Y305D02*
X1009Y305D01*
X1028Y305D02*
X1033Y305D01*
X1173Y305D02*
X1180Y305D01*
X0Y304D02*
X7Y304D01*
X610Y304D02*
X615Y304D01*
X634Y304D02*
X639Y304D01*
X654Y304D02*
X659Y304D01*
X678Y304D02*
X683Y304D01*
X697Y304D02*
X703Y304D01*
X722Y304D02*
X727Y304D01*
X753Y304D02*
X758Y304D01*
X786Y304D02*
X791Y304D01*
X803Y304D02*
X808Y304D01*
X883Y304D02*
X897Y304D01*
X926Y304D02*
X941Y304D01*
X972Y304D02*
X977Y304D01*
X1004Y304D02*
X1009Y304D01*
X1028Y304D02*
X1033Y304D01*
X1173Y304D02*
X1180Y304D01*
X0Y303D02*
X7Y303D01*
X610Y303D02*
X639Y303D01*
X654Y303D02*
X659Y303D01*
X678Y303D02*
X683Y303D01*
X697Y303D02*
X703Y303D01*
X722Y303D02*
X727Y303D01*
X753Y303D02*
X758Y303D01*
X786Y303D02*
X792Y303D01*
X803Y303D02*
X808Y303D01*
X880Y303D02*
X895Y303D01*
X924Y303D02*
X938Y303D01*
X972Y303D02*
X977Y303D01*
X1004Y303D02*
X1009Y303D01*
X1028Y303D02*
X1033Y303D01*
X1173Y303D02*
X1180Y303D01*
X0Y302D02*
X7Y302D01*
X610Y302D02*
X639Y302D01*
X654Y302D02*
X659Y302D01*
X678Y302D02*
X683Y302D01*
X697Y302D02*
X703Y302D01*
X722Y302D02*
X727Y302D01*
X753Y302D02*
X758Y302D01*
X786Y302D02*
X792Y302D01*
X803Y302D02*
X808Y302D01*
X878Y302D02*
X892Y302D01*
X922Y302D02*
X936Y302D01*
X972Y302D02*
X977Y302D01*
X1004Y302D02*
X1009Y302D01*
X1028Y302D02*
X1033Y302D01*
X1173Y302D02*
X1180Y302D01*
X0Y301D02*
X7Y301D01*
X610Y301D02*
X639Y301D01*
X654Y301D02*
X659Y301D01*
X678Y301D02*
X683Y301D01*
X697Y301D02*
X703Y301D01*
X722Y301D02*
X727Y301D01*
X753Y301D02*
X758Y301D01*
X787Y301D02*
X793Y301D01*
X803Y301D02*
X808Y301D01*
X877Y301D02*
X890Y301D01*
X920Y301D02*
X934Y301D01*
X972Y301D02*
X977Y301D01*
X1004Y301D02*
X1009Y301D01*
X1028Y301D02*
X1033Y301D01*
X1173Y301D02*
X1180Y301D01*
X0Y300D02*
X7Y300D01*
X610Y300D02*
X639Y300D01*
X654Y300D02*
X659Y300D01*
X678Y300D02*
X683Y300D01*
X697Y300D02*
X703Y300D01*
X722Y300D02*
X727Y300D01*
X753Y300D02*
X758Y300D01*
X787Y300D02*
X793Y300D01*
X803Y300D02*
X808Y300D01*
X875Y300D02*
X888Y300D01*
X919Y300D02*
X931Y300D01*
X972Y300D02*
X977Y300D01*
X1004Y300D02*
X1009Y300D01*
X1028Y300D02*
X1033Y300D01*
X1173Y300D02*
X1180Y300D01*
X0Y299D02*
X7Y299D01*
X610Y299D02*
X639Y299D01*
X654Y299D02*
X659Y299D01*
X678Y299D02*
X683Y299D01*
X697Y299D02*
X703Y299D01*
X722Y299D02*
X727Y299D01*
X753Y299D02*
X758Y299D01*
X788Y299D02*
X794Y299D01*
X803Y299D02*
X808Y299D01*
X875Y299D02*
X885Y299D01*
X918Y299D02*
X929Y299D01*
X972Y299D02*
X977Y299D01*
X1004Y299D02*
X1009Y299D01*
X1028Y299D02*
X1033Y299D01*
X1173Y299D02*
X1180Y299D01*
X0Y298D02*
X7Y298D01*
X611Y298D02*
X639Y298D01*
X654Y298D02*
X659Y298D01*
X678Y298D02*
X683Y298D01*
X697Y298D02*
X703Y298D01*
X722Y298D02*
X727Y298D01*
X753Y298D02*
X758Y298D01*
X788Y298D02*
X794Y298D01*
X803Y298D02*
X808Y298D01*
X874Y298D02*
X883Y298D01*
X918Y298D02*
X927Y298D01*
X972Y298D02*
X977Y298D01*
X1004Y298D02*
X1009Y298D01*
X1028Y298D02*
X1033Y298D01*
X1173Y298D02*
X1180Y298D01*
X0Y297D02*
X7Y297D01*
X634Y297D02*
X639Y297D01*
X654Y297D02*
X659Y297D01*
X678Y297D02*
X683Y297D01*
X697Y297D02*
X703Y297D01*
X722Y297D02*
X727Y297D01*
X753Y297D02*
X758Y297D01*
X789Y297D02*
X795Y297D01*
X803Y297D02*
X808Y297D01*
X873Y297D02*
X881Y297D01*
X917Y297D02*
X925Y297D01*
X972Y297D02*
X977Y297D01*
X1004Y297D02*
X1009Y297D01*
X1028Y297D02*
X1033Y297D01*
X1173Y297D02*
X1180Y297D01*
X0Y296D02*
X7Y296D01*
X634Y296D02*
X639Y296D01*
X654Y296D02*
X660Y296D01*
X678Y296D02*
X683Y296D01*
X697Y296D02*
X703Y296D01*
X722Y296D02*
X727Y296D01*
X753Y296D02*
X758Y296D01*
X789Y296D02*
X795Y296D01*
X803Y296D02*
X808Y296D01*
X873Y296D02*
X879Y296D01*
X917Y296D02*
X923Y296D01*
X972Y296D02*
X977Y296D01*
X1004Y296D02*
X1009Y296D01*
X1028Y296D02*
X1033Y296D01*
X1173Y296D02*
X1180Y296D01*
X0Y295D02*
X7Y295D01*
X634Y295D02*
X639Y295D01*
X654Y295D02*
X661Y295D01*
X678Y295D02*
X683Y295D01*
X697Y295D02*
X703Y295D01*
X721Y295D02*
X727Y295D01*
X753Y295D02*
X758Y295D01*
X790Y295D02*
X796Y295D01*
X803Y295D02*
X808Y295D01*
X873Y295D02*
X878Y295D01*
X917Y295D02*
X922Y295D01*
X972Y295D02*
X977Y295D01*
X1004Y295D02*
X1009Y295D01*
X1028Y295D02*
X1033Y295D01*
X1173Y295D02*
X1180Y295D01*
X0Y294D02*
X7Y294D01*
X634Y294D02*
X639Y294D01*
X654Y294D02*
X662Y294D01*
X677Y294D02*
X683Y294D01*
X698Y294D02*
X703Y294D01*
X721Y294D02*
X727Y294D01*
X753Y294D02*
X758Y294D01*
X790Y294D02*
X796Y294D01*
X803Y294D02*
X808Y294D01*
X873Y294D02*
X878Y294D01*
X917Y294D02*
X922Y294D01*
X972Y294D02*
X977Y294D01*
X1004Y294D02*
X1009Y294D01*
X1028Y294D02*
X1033Y294D01*
X1173Y294D02*
X1180Y294D01*
X0Y293D02*
X7Y293D01*
X633Y293D02*
X639Y293D01*
X654Y293D02*
X663Y293D01*
X677Y293D02*
X683Y293D01*
X698Y293D02*
X704Y293D01*
X720Y293D02*
X726Y293D01*
X753Y293D02*
X758Y293D01*
X791Y293D02*
X797Y293D01*
X803Y293D02*
X808Y293D01*
X873Y293D02*
X878Y293D01*
X917Y293D02*
X922Y293D01*
X972Y293D02*
X977Y293D01*
X1004Y293D02*
X1009Y293D01*
X1028Y293D02*
X1033Y293D01*
X1173Y293D02*
X1180Y293D01*
X0Y292D02*
X7Y292D01*
X632Y292D02*
X638Y292D01*
X654Y292D02*
X664Y292D01*
X676Y292D02*
X682Y292D01*
X698Y292D02*
X705Y292D01*
X719Y292D02*
X726Y292D01*
X753Y292D02*
X758Y292D01*
X791Y292D02*
X797Y292D01*
X803Y292D02*
X808Y292D01*
X873Y292D02*
X878Y292D01*
X897Y292D02*
X901Y292D01*
X917Y292D02*
X922Y292D01*
X941Y292D02*
X945Y292D01*
X972Y292D02*
X977Y292D01*
X1004Y292D02*
X1009Y292D01*
X1028Y292D02*
X1033Y292D01*
X1173Y292D02*
X1180Y292D01*
X0Y291D02*
X7Y291D01*
X630Y291D02*
X638Y291D01*
X654Y291D02*
X665Y291D01*
X674Y291D02*
X682Y291D01*
X699Y291D02*
X706Y291D01*
X718Y291D02*
X726Y291D01*
X753Y291D02*
X758Y291D01*
X792Y291D02*
X798Y291D01*
X803Y291D02*
X808Y291D01*
X873Y291D02*
X879Y291D01*
X896Y291D02*
X902Y291D01*
X917Y291D02*
X923Y291D01*
X940Y291D02*
X945Y291D01*
X972Y291D02*
X977Y291D01*
X1004Y291D02*
X1009Y291D01*
X1028Y291D02*
X1033Y291D01*
X1173Y291D02*
X1180Y291D01*
X0Y290D02*
X7Y290D01*
X612Y290D02*
X637Y290D01*
X654Y290D02*
X681Y290D01*
X699Y290D02*
X725Y290D01*
X746Y290D02*
X766Y290D01*
X792Y290D02*
X813Y290D01*
X873Y290D02*
X902Y290D01*
X917Y290D02*
X946Y290D01*
X965Y290D02*
X985Y290D01*
X1004Y290D02*
X1009Y290D01*
X1028Y290D02*
X1033Y290D01*
X1173Y290D02*
X1180Y290D01*
X0Y289D02*
X7Y289D01*
X610Y289D02*
X637Y289D01*
X654Y289D02*
X680Y289D01*
X700Y289D02*
X724Y289D01*
X745Y289D02*
X767Y289D01*
X793Y289D02*
X814Y289D01*
X874Y289D02*
X902Y289D01*
X918Y289D02*
X945Y289D01*
X964Y289D02*
X986Y289D01*
X1004Y289D02*
X1009Y289D01*
X1028Y289D02*
X1033Y289D01*
X1173Y289D02*
X1180Y289D01*
X0Y288D02*
X7Y288D01*
X610Y288D02*
X636Y288D01*
X654Y288D02*
X679Y288D01*
X701Y288D02*
X723Y288D01*
X744Y288D02*
X767Y288D01*
X794Y288D02*
X814Y288D01*
X875Y288D02*
X901Y288D01*
X918Y288D02*
X945Y288D01*
X963Y288D02*
X986Y288D01*
X1004Y288D02*
X1009Y288D01*
X1028Y288D02*
X1033Y288D01*
X1173Y288D02*
X1180Y288D01*
X0Y287D02*
X7Y287D01*
X610Y287D02*
X634Y287D01*
X654Y287D02*
X659Y287D01*
X661Y287D02*
X678Y287D01*
X702Y287D02*
X722Y287D01*
X744Y287D02*
X767Y287D01*
X794Y287D02*
X814Y287D01*
X875Y287D02*
X900Y287D01*
X919Y287D02*
X944Y287D01*
X963Y287D02*
X986Y287D01*
X1004Y287D02*
X1009Y287D01*
X1028Y287D02*
X1033Y287D01*
X1173Y287D02*
X1180Y287D01*
X0Y286D02*
X7Y286D01*
X610Y286D02*
X633Y286D01*
X654Y286D02*
X658Y286D01*
X663Y286D02*
X677Y286D01*
X704Y286D02*
X721Y286D01*
X745Y286D02*
X767Y286D01*
X796Y286D02*
X814Y286D01*
X877Y286D02*
X898Y286D01*
X920Y286D02*
X942Y286D01*
X964Y286D02*
X986Y286D01*
X1004Y286D02*
X1009Y286D01*
X1028Y286D02*
X1033Y286D01*
X1173Y286D02*
X1180Y286D01*
X0Y285D02*
X7Y285D01*
X611Y285D02*
X631Y285D01*
X655Y285D02*
X658Y285D01*
X665Y285D02*
X675Y285D01*
X705Y285D02*
X719Y285D01*
X746Y285D02*
X766Y285D01*
X798Y285D02*
X813Y285D01*
X878Y285D02*
X896Y285D01*
X922Y285D02*
X940Y285D01*
X964Y285D02*
X985Y285D01*
X1005Y285D02*
X1008Y285D01*
X1029Y285D02*
X1032Y285D01*
X1173Y285D02*
X1180Y285D01*
X0Y284D02*
X7Y284D01*
X1173Y284D02*
X1180Y284D01*
X0Y283D02*
X7Y283D01*
X1173Y283D02*
X1180Y283D01*
X0Y282D02*
X7Y282D01*
X1173Y282D02*
X1180Y282D01*
X0Y281D02*
X7Y281D01*
X1173Y281D02*
X1180Y281D01*
X0Y280D02*
X7Y280D01*
X1173Y280D02*
X1180Y280D01*
X0Y279D02*
X7Y279D01*
X1173Y279D02*
X1180Y279D01*
X0Y278D02*
X7Y278D01*
X1173Y278D02*
X1180Y278D01*
X0Y277D02*
X7Y277D01*
X1173Y277D02*
X1180Y277D01*
X0Y276D02*
X7Y276D01*
X1173Y276D02*
X1180Y276D01*
X0Y275D02*
X7Y275D01*
X1173Y275D02*
X1180Y275D01*
X0Y274D02*
X7Y274D01*
X1173Y274D02*
X1180Y274D01*
X0Y273D02*
X7Y273D01*
X1173Y273D02*
X1180Y273D01*
X0Y272D02*
X7Y272D01*
X1173Y272D02*
X1180Y272D01*
X0Y271D02*
X7Y271D01*
X1173Y271D02*
X1180Y271D01*
X0Y270D02*
X7Y270D01*
X1173Y270D02*
X1180Y270D01*
X0Y269D02*
X7Y269D01*
X1173Y269D02*
X1180Y269D01*
X0Y268D02*
X7Y268D01*
X1173Y268D02*
X1180Y268D01*
X0Y267D02*
X7Y267D01*
X1173Y267D02*
X1180Y267D01*
X0Y266D02*
X7Y266D01*
X1173Y266D02*
X1180Y266D01*
X0Y265D02*
X7Y265D01*
X1173Y265D02*
X1180Y265D01*
X0Y264D02*
X7Y264D01*
X1173Y264D02*
X1180Y264D01*
X0Y263D02*
X7Y263D01*
X1173Y263D02*
X1180Y263D01*
X0Y262D02*
X7Y262D01*
X1173Y262D02*
X1180Y262D01*
X0Y261D02*
X7Y261D01*
X1173Y261D02*
X1180Y261D01*
X0Y260D02*
X7Y260D01*
X1173Y260D02*
X1180Y260D01*
X0Y259D02*
X7Y259D01*
X1173Y259D02*
X1180Y259D01*
X0Y258D02*
X7Y258D01*
X1173Y258D02*
X1180Y258D01*
X0Y257D02*
X7Y257D01*
X1173Y257D02*
X1180Y257D01*
X0Y256D02*
X7Y256D01*
X1173Y256D02*
X1180Y256D01*
X0Y255D02*
X7Y255D01*
X1173Y255D02*
X1180Y255D01*
X0Y254D02*
X7Y254D01*
X1173Y254D02*
X1180Y254D01*
X0Y253D02*
X7Y253D01*
X1173Y253D02*
X1180Y253D01*
X0Y252D02*
X7Y252D01*
X1173Y252D02*
X1180Y252D01*
X0Y251D02*
X7Y251D01*
X1173Y251D02*
X1180Y251D01*
X0Y250D02*
X7Y250D01*
X1173Y250D02*
X1180Y250D01*
X0Y249D02*
X7Y249D01*
X1173Y249D02*
X1180Y249D01*
X0Y248D02*
X7Y248D01*
X1173Y248D02*
X1180Y248D01*
X0Y247D02*
X7Y247D01*
X1173Y247D02*
X1180Y247D01*
X0Y246D02*
X7Y246D01*
X1173Y246D02*
X1180Y246D01*
X0Y245D02*
X7Y245D01*
X1173Y245D02*
X1180Y245D01*
X0Y244D02*
X7Y244D01*
X1173Y244D02*
X1180Y244D01*
X0Y243D02*
X7Y243D01*
X1173Y243D02*
X1180Y243D01*
X0Y242D02*
X7Y242D01*
X1173Y242D02*
X1180Y242D01*
X0Y241D02*
X7Y241D01*
X1173Y241D02*
X1180Y241D01*
X0Y240D02*
X7Y240D01*
X1173Y240D02*
X1180Y240D01*
X0Y239D02*
X7Y239D01*
X1173Y239D02*
X1180Y239D01*
X0Y238D02*
X7Y238D01*
X1173Y238D02*
X1180Y238D01*
X0Y237D02*
X7Y237D01*
X1173Y237D02*
X1180Y237D01*
X0Y236D02*
X7Y236D01*
X1173Y236D02*
X1180Y236D01*
X0Y235D02*
X7Y235D01*
X1173Y235D02*
X1180Y235D01*
X0Y234D02*
X7Y234D01*
X1173Y234D02*
X1180Y234D01*
X0Y233D02*
X7Y233D01*
X1173Y233D02*
X1180Y233D01*
X0Y232D02*
X7Y232D01*
X1173Y232D02*
X1180Y232D01*
X0Y231D02*
X7Y231D01*
X1173Y231D02*
X1180Y231D01*
X0Y230D02*
X7Y230D01*
X1173Y230D02*
X1180Y230D01*
X0Y229D02*
X7Y229D01*
X1173Y229D02*
X1180Y229D01*
X0Y228D02*
X7Y228D01*
X1173Y228D02*
X1180Y228D01*
X0Y227D02*
X7Y227D01*
X1173Y227D02*
X1180Y227D01*
X0Y226D02*
X7Y226D01*
X1173Y226D02*
X1180Y226D01*
X0Y225D02*
X7Y225D01*
X1173Y225D02*
X1180Y225D01*
X0Y224D02*
X7Y224D01*
X1173Y224D02*
X1180Y224D01*
X0Y223D02*
X7Y223D01*
X1173Y223D02*
X1180Y223D01*
X0Y222D02*
X7Y222D01*
X1173Y222D02*
X1180Y222D01*
X0Y221D02*
X7Y221D01*
X1173Y221D02*
X1180Y221D01*
X0Y220D02*
X7Y220D01*
X1173Y220D02*
X1180Y220D01*
X0Y219D02*
X7Y219D01*
X1173Y219D02*
X1180Y219D01*
X0Y218D02*
X7Y218D01*
X1173Y218D02*
X1180Y218D01*
X0Y217D02*
X7Y217D01*
X1173Y217D02*
X1180Y217D01*
X0Y216D02*
X7Y216D01*
X1173Y216D02*
X1180Y216D01*
X0Y215D02*
X7Y215D01*
X1173Y215D02*
X1180Y215D01*
X0Y214D02*
X7Y214D01*
X1173Y214D02*
X1180Y214D01*
X0Y213D02*
X7Y213D01*
X1173Y213D02*
X1180Y213D01*
X0Y212D02*
X7Y212D01*
X1173Y212D02*
X1180Y212D01*
X0Y211D02*
X7Y211D01*
X1173Y211D02*
X1180Y211D01*
X0Y210D02*
X7Y210D01*
X1173Y210D02*
X1180Y210D01*
X0Y209D02*
X7Y209D01*
X1173Y209D02*
X1180Y209D01*
X0Y208D02*
X7Y208D01*
X1173Y208D02*
X1180Y208D01*
X0Y207D02*
X7Y207D01*
X1173Y207D02*
X1180Y207D01*
X0Y206D02*
X7Y206D01*
X1173Y206D02*
X1180Y206D01*
X0Y205D02*
X7Y205D01*
X1173Y205D02*
X1180Y205D01*
X0Y204D02*
X7Y204D01*
X1173Y204D02*
X1180Y204D01*
X0Y203D02*
X7Y203D01*
X1173Y203D02*
X1180Y203D01*
X0Y202D02*
X7Y202D01*
X361Y202D02*
X373Y202D01*
X668Y202D02*
X670Y202D01*
X745Y202D02*
X756Y202D01*
X887Y202D02*
X898Y202D01*
X1010Y202D02*
X1030Y202D01*
X1173Y202D02*
X1180Y202D01*
X0Y201D02*
X7Y201D01*
X360Y201D02*
X373Y201D01*
X667Y201D02*
X671Y201D01*
X744Y201D02*
X758Y201D01*
X886Y201D02*
X899Y201D01*
X1008Y201D02*
X1031Y201D01*
X1173Y201D02*
X1180Y201D01*
X0Y200D02*
X7Y200D01*
X360Y200D02*
X374Y200D01*
X666Y200D02*
X671Y200D01*
X743Y200D02*
X760Y200D01*
X885Y200D02*
X899Y200D01*
X1007Y200D02*
X1032Y200D01*
X1173Y200D02*
X1180Y200D01*
X0Y199D02*
X7Y199D01*
X360Y199D02*
X374Y199D01*
X666Y199D02*
X672Y199D01*
X744Y199D02*
X761Y199D01*
X885Y199D02*
X899Y199D01*
X1006Y199D02*
X1033Y199D01*
X1173Y199D02*
X1180Y199D01*
X0Y198D02*
X7Y198D01*
X360Y198D02*
X373Y198D01*
X666Y198D02*
X672Y198D01*
X744Y198D02*
X762Y198D01*
X885Y198D02*
X899Y198D01*
X1005Y198D02*
X1033Y198D01*
X1173Y198D02*
X1180Y198D01*
X0Y197D02*
X7Y197D01*
X360Y197D02*
X372Y197D01*
X665Y197D02*
X672Y197D01*
X745Y197D02*
X762Y197D01*
X885Y197D02*
X898Y197D01*
X1005Y197D02*
X1034Y197D01*
X1173Y197D02*
X1180Y197D01*
X0Y196D02*
X7Y196D01*
X360Y196D02*
X365Y196D01*
X665Y196D02*
X673Y196D01*
X756Y196D02*
X763Y196D01*
X885Y196D02*
X890Y196D01*
X1005Y196D02*
X1011Y196D01*
X1028Y196D02*
X1034Y196D01*
X1173Y196D02*
X1180Y196D01*
X0Y195D02*
X7Y195D01*
X360Y195D02*
X365Y195D01*
X665Y195D02*
X673Y195D01*
X757Y195D02*
X763Y195D01*
X885Y195D02*
X890Y195D01*
X1005Y195D02*
X1010Y195D01*
X1028Y195D02*
X1034Y195D01*
X1173Y195D02*
X1180Y195D01*
X0Y194D02*
X7Y194D01*
X360Y194D02*
X365Y194D01*
X665Y194D02*
X673Y194D01*
X758Y194D02*
X763Y194D01*
X885Y194D02*
X890Y194D01*
X1005Y194D02*
X1010Y194D01*
X1027Y194D02*
X1033Y194D01*
X1173Y194D02*
X1180Y194D01*
X0Y193D02*
X7Y193D01*
X360Y193D02*
X365Y193D01*
X664Y193D02*
X673Y193D01*
X758Y193D02*
X763Y193D01*
X885Y193D02*
X890Y193D01*
X1005Y193D02*
X1009Y193D01*
X1027Y193D02*
X1033Y193D01*
X1173Y193D02*
X1180Y193D01*
X0Y192D02*
X7Y192D01*
X360Y192D02*
X365Y192D01*
X664Y192D02*
X674Y192D01*
X758Y192D02*
X764Y192D01*
X885Y192D02*
X890Y192D01*
X1006Y192D02*
X1008Y192D01*
X1026Y192D02*
X1033Y192D01*
X1173Y192D02*
X1180Y192D01*
X0Y191D02*
X7Y191D01*
X360Y191D02*
X365Y191D01*
X581Y191D02*
X582Y191D01*
X625Y191D02*
X625Y191D01*
X664Y191D02*
X674Y191D01*
X758Y191D02*
X764Y191D01*
X885Y191D02*
X890Y191D01*
X1025Y191D02*
X1032Y191D01*
X1173Y191D02*
X1180Y191D01*
X0Y190D02*
X7Y190D01*
X360Y190D02*
X365Y190D01*
X577Y190D02*
X585Y190D01*
X592Y190D02*
X595Y190D01*
X621Y190D02*
X629Y190D01*
X635Y190D02*
X639Y190D01*
X663Y190D02*
X674Y190D01*
X758Y190D02*
X764Y190D01*
X885Y190D02*
X890Y190D01*
X1024Y190D02*
X1031Y190D01*
X1173Y190D02*
X1180Y190D01*
X0Y189D02*
X7Y189D01*
X360Y189D02*
X365Y189D01*
X398Y189D02*
X414Y189D01*
X437Y189D02*
X439Y189D01*
X461Y189D02*
X463Y189D01*
X487Y189D02*
X501Y189D01*
X528Y189D02*
X536Y189D01*
X575Y189D02*
X587Y189D01*
X591Y189D02*
X596Y189D01*
X619Y189D02*
X631Y189D01*
X635Y189D02*
X639Y189D01*
X663Y189D02*
X675Y189D01*
X751Y189D02*
X768Y189D01*
X793Y189D02*
X807Y189D01*
X885Y189D02*
X890Y189D01*
X923Y189D02*
X939Y189D01*
X968Y189D02*
X982Y189D01*
X1024Y189D02*
X1030Y189D01*
X1173Y189D02*
X1180Y189D01*
X0Y188D02*
X7Y188D01*
X360Y188D02*
X365Y188D01*
X396Y188D02*
X414Y188D01*
X436Y188D02*
X440Y188D01*
X460Y188D02*
X464Y188D01*
X485Y188D02*
X502Y188D01*
X527Y188D02*
X540Y188D01*
X551Y188D02*
X552Y188D01*
X574Y188D02*
X588Y188D01*
X591Y188D02*
X596Y188D01*
X618Y188D02*
X632Y188D01*
X635Y188D02*
X640Y188D01*
X663Y188D02*
X675Y188D01*
X750Y188D02*
X769Y188D01*
X792Y188D02*
X809Y188D01*
X885Y188D02*
X890Y188D01*
X922Y188D02*
X940Y188D01*
X967Y188D02*
X984Y188D01*
X1023Y188D02*
X1030Y188D01*
X1173Y188D02*
X1180Y188D01*
X0Y187D02*
X7Y187D01*
X360Y187D02*
X365Y187D01*
X395Y187D02*
X415Y187D01*
X435Y187D02*
X440Y187D01*
X459Y187D02*
X464Y187D01*
X484Y187D02*
X504Y187D01*
X526Y187D02*
X541Y187D01*
X547Y187D02*
X552Y187D01*
X573Y187D02*
X589Y187D01*
X591Y187D02*
X596Y187D01*
X617Y187D02*
X640Y187D01*
X663Y187D02*
X668Y187D01*
X670Y187D02*
X675Y187D01*
X749Y187D02*
X769Y187D01*
X790Y187D02*
X810Y187D01*
X885Y187D02*
X890Y187D01*
X920Y187D02*
X940Y187D01*
X965Y187D02*
X985Y187D01*
X1022Y187D02*
X1029Y187D01*
X1173Y187D02*
X1180Y187D01*
X0Y186D02*
X7Y186D01*
X360Y186D02*
X365Y186D01*
X394Y186D02*
X415Y186D01*
X435Y186D02*
X440Y186D01*
X459Y186D02*
X465Y186D01*
X483Y186D02*
X505Y186D01*
X525Y186D02*
X543Y186D01*
X547Y186D02*
X552Y186D01*
X572Y186D02*
X596Y186D01*
X616Y186D02*
X640Y186D01*
X662Y186D02*
X668Y186D01*
X670Y186D02*
X676Y186D01*
X750Y186D02*
X769Y186D01*
X789Y186D02*
X811Y186D01*
X885Y186D02*
X890Y186D01*
X920Y186D02*
X940Y186D01*
X964Y186D02*
X986Y186D01*
X1021Y186D02*
X1028Y186D01*
X1173Y186D02*
X1180Y186D01*
X0Y185D02*
X7Y185D01*
X360Y185D02*
X365Y185D01*
X393Y185D02*
X414Y185D01*
X435Y185D02*
X440Y185D01*
X459Y185D02*
X465Y185D01*
X482Y185D02*
X506Y185D01*
X524Y185D02*
X544Y185D01*
X547Y185D02*
X552Y185D01*
X571Y185D02*
X596Y185D01*
X614Y185D02*
X640Y185D01*
X662Y185D02*
X667Y185D01*
X670Y185D02*
X676Y185D01*
X750Y185D02*
X769Y185D01*
X788Y185D02*
X812Y185D01*
X885Y185D02*
X890Y185D01*
X919Y185D02*
X940Y185D01*
X963Y185D02*
X987Y185D01*
X1020Y185D02*
X1027Y185D01*
X1173Y185D02*
X1180Y185D01*
X0Y184D02*
X7Y184D01*
X360Y184D02*
X365Y184D01*
X393Y184D02*
X413Y184D01*
X435Y184D02*
X440Y184D01*
X459Y184D02*
X465Y184D01*
X481Y184D02*
X506Y184D01*
X524Y184D02*
X545Y184D01*
X547Y184D02*
X552Y184D01*
X570Y184D02*
X578Y184D01*
X584Y184D02*
X596Y184D01*
X613Y184D02*
X622Y184D01*
X628Y184D02*
X640Y184D01*
X662Y184D02*
X667Y184D01*
X671Y184D02*
X676Y184D01*
X751Y184D02*
X768Y184D01*
X787Y184D02*
X813Y184D01*
X885Y184D02*
X890Y184D01*
X918Y184D02*
X938Y184D01*
X962Y184D02*
X988Y184D01*
X1020Y184D02*
X1027Y184D01*
X1173Y184D02*
X1180Y184D01*
X0Y183D02*
X7Y183D01*
X360Y183D02*
X365Y183D01*
X393Y183D02*
X399Y183D01*
X435Y183D02*
X440Y183D01*
X459Y183D02*
X465Y183D01*
X480Y183D02*
X488Y183D01*
X500Y183D02*
X507Y183D01*
X523Y183D02*
X529Y183D01*
X538Y183D02*
X552Y183D01*
X569Y183D02*
X577Y183D01*
X585Y183D02*
X596Y183D01*
X613Y183D02*
X621Y183D01*
X629Y183D02*
X640Y183D01*
X661Y183D02*
X667Y183D01*
X671Y183D02*
X676Y183D01*
X758Y183D02*
X764Y183D01*
X787Y183D02*
X794Y183D01*
X806Y183D02*
X814Y183D01*
X885Y183D02*
X890Y183D01*
X918Y183D02*
X924Y183D01*
X962Y183D02*
X969Y183D01*
X981Y183D02*
X989Y183D01*
X1019Y183D02*
X1026Y183D01*
X1173Y183D02*
X1180Y183D01*
X0Y182D02*
X7Y182D01*
X360Y182D02*
X365Y182D01*
X392Y182D02*
X398Y182D01*
X435Y182D02*
X441Y182D01*
X459Y182D02*
X464Y182D01*
X480Y182D02*
X486Y182D01*
X501Y182D02*
X508Y182D01*
X523Y182D02*
X528Y182D01*
X539Y182D02*
X552Y182D01*
X568Y182D02*
X576Y182D01*
X586Y182D02*
X596Y182D01*
X612Y182D02*
X619Y182D01*
X630Y182D02*
X640Y182D01*
X661Y182D02*
X666Y182D01*
X671Y182D02*
X677Y182D01*
X758Y182D02*
X764Y182D01*
X786Y182D02*
X793Y182D01*
X808Y182D02*
X814Y182D01*
X885Y182D02*
X890Y182D01*
X918Y182D02*
X923Y182D01*
X961Y182D02*
X968Y182D01*
X983Y182D02*
X989Y182D01*
X1018Y182D02*
X1025Y182D01*
X1173Y182D02*
X1180Y182D01*
X0Y181D02*
X7Y181D01*
X360Y181D02*
X365Y181D01*
X392Y181D02*
X398Y181D01*
X435Y181D02*
X441Y181D01*
X459Y181D02*
X464Y181D01*
X479Y181D02*
X485Y181D01*
X502Y181D02*
X508Y181D01*
X523Y181D02*
X528Y181D01*
X540Y181D02*
X552Y181D01*
X567Y181D02*
X574Y181D01*
X587Y181D02*
X596Y181D01*
X611Y181D02*
X618Y181D01*
X631Y181D02*
X640Y181D01*
X661Y181D02*
X666Y181D01*
X672Y181D02*
X677Y181D01*
X758Y181D02*
X764Y181D01*
X786Y181D02*
X792Y181D01*
X809Y181D02*
X814Y181D01*
X885Y181D02*
X890Y181D01*
X918Y181D02*
X923Y181D01*
X961Y181D02*
X967Y181D01*
X984Y181D02*
X990Y181D01*
X1017Y181D02*
X1024Y181D01*
X1173Y181D02*
X1180Y181D01*
X0Y180D02*
X7Y180D01*
X360Y180D02*
X365Y180D01*
X392Y180D02*
X397Y180D01*
X436Y180D02*
X441Y180D01*
X458Y180D02*
X464Y180D01*
X479Y180D02*
X485Y180D01*
X503Y180D02*
X508Y180D01*
X523Y180D02*
X528Y180D01*
X541Y180D02*
X552Y180D01*
X567Y180D02*
X573Y180D01*
X588Y180D02*
X596Y180D01*
X611Y180D02*
X617Y180D01*
X632Y180D02*
X640Y180D01*
X660Y180D02*
X666Y180D01*
X672Y180D02*
X677Y180D01*
X758Y180D02*
X764Y180D01*
X786Y180D02*
X791Y180D01*
X809Y180D02*
X815Y180D01*
X885Y180D02*
X890Y180D01*
X918Y180D02*
X923Y180D01*
X961Y180D02*
X966Y180D01*
X984Y180D02*
X990Y180D01*
X1017Y180D02*
X1023Y180D01*
X1173Y180D02*
X1180Y180D01*
X0Y179D02*
X7Y179D01*
X360Y179D02*
X365Y179D01*
X392Y179D02*
X397Y179D01*
X436Y179D02*
X442Y179D01*
X458Y179D02*
X464Y179D01*
X479Y179D02*
X484Y179D01*
X503Y179D02*
X508Y179D01*
X523Y179D02*
X528Y179D01*
X542Y179D02*
X552Y179D01*
X567Y179D02*
X572Y179D01*
X589Y179D02*
X596Y179D01*
X611Y179D02*
X616Y179D01*
X633Y179D02*
X640Y179D01*
X660Y179D02*
X666Y179D01*
X672Y179D02*
X678Y179D01*
X758Y179D02*
X764Y179D01*
X786Y179D02*
X791Y179D01*
X810Y179D02*
X815Y179D01*
X885Y179D02*
X890Y179D01*
X918Y179D02*
X923Y179D01*
X961Y179D02*
X966Y179D01*
X985Y179D02*
X990Y179D01*
X1016Y179D02*
X1023Y179D01*
X1173Y179D02*
X1180Y179D01*
X0Y178D02*
X7Y178D01*
X360Y178D02*
X365Y178D01*
X392Y178D02*
X397Y178D01*
X437Y178D02*
X442Y178D01*
X458Y178D02*
X463Y178D01*
X479Y178D02*
X484Y178D01*
X503Y178D02*
X508Y178D01*
X523Y178D02*
X528Y178D01*
X543Y178D02*
X552Y178D01*
X567Y178D02*
X572Y178D01*
X590Y178D02*
X596Y178D01*
X611Y178D02*
X616Y178D01*
X634Y178D02*
X640Y178D01*
X660Y178D02*
X665Y178D01*
X672Y178D02*
X678Y178D01*
X758Y178D02*
X764Y178D01*
X786Y178D02*
X791Y178D01*
X810Y178D02*
X815Y178D01*
X885Y178D02*
X890Y178D01*
X918Y178D02*
X923Y178D01*
X961Y178D02*
X966Y178D01*
X985Y178D02*
X990Y178D01*
X1015Y178D02*
X1022Y178D01*
X1173Y178D02*
X1180Y178D01*
X0Y177D02*
X7Y177D01*
X360Y177D02*
X365Y177D01*
X392Y177D02*
X397Y177D01*
X437Y177D02*
X443Y177D01*
X457Y177D02*
X463Y177D01*
X479Y177D02*
X484Y177D01*
X503Y177D02*
X508Y177D01*
X524Y177D02*
X527Y177D01*
X545Y177D02*
X552Y177D01*
X567Y177D02*
X572Y177D01*
X591Y177D02*
X596Y177D01*
X610Y177D02*
X616Y177D01*
X634Y177D02*
X640Y177D01*
X660Y177D02*
X665Y177D01*
X673Y177D02*
X678Y177D01*
X758Y177D02*
X764Y177D01*
X786Y177D02*
X791Y177D01*
X810Y177D02*
X815Y177D01*
X885Y177D02*
X890Y177D01*
X918Y177D02*
X923Y177D01*
X961Y177D02*
X966Y177D01*
X985Y177D02*
X990Y177D01*
X1014Y177D02*
X1021Y177D01*
X1173Y177D02*
X1180Y177D01*
X0Y176D02*
X7Y176D01*
X360Y176D02*
X365Y176D01*
X392Y176D02*
X416Y176D01*
X438Y176D02*
X443Y176D01*
X457Y176D02*
X462Y176D01*
X479Y176D02*
X484Y176D01*
X503Y176D02*
X508Y176D01*
X546Y176D02*
X552Y176D01*
X567Y176D02*
X572Y176D01*
X591Y176D02*
X596Y176D01*
X610Y176D02*
X616Y176D01*
X635Y176D02*
X640Y176D01*
X659Y176D02*
X665Y176D01*
X673Y176D02*
X678Y176D01*
X758Y176D02*
X764Y176D01*
X786Y176D02*
X791Y176D01*
X810Y176D02*
X815Y176D01*
X885Y176D02*
X890Y176D01*
X918Y176D02*
X941Y176D01*
X961Y176D02*
X966Y176D01*
X985Y176D02*
X990Y176D01*
X1013Y176D02*
X1020Y176D01*
X1173Y176D02*
X1180Y176D01*
X0Y175D02*
X7Y175D01*
X360Y175D02*
X365Y175D01*
X392Y175D02*
X417Y175D01*
X438Y175D02*
X444Y175D01*
X456Y175D02*
X462Y175D01*
X479Y175D02*
X484Y175D01*
X503Y175D02*
X508Y175D01*
X547Y175D02*
X552Y175D01*
X567Y175D02*
X572Y175D01*
X591Y175D02*
X596Y175D01*
X610Y175D02*
X616Y175D01*
X635Y175D02*
X640Y175D01*
X659Y175D02*
X664Y175D01*
X673Y175D02*
X679Y175D01*
X758Y175D02*
X764Y175D01*
X786Y175D02*
X791Y175D01*
X810Y175D02*
X815Y175D01*
X885Y175D02*
X890Y175D01*
X918Y175D02*
X943Y175D01*
X961Y175D02*
X966Y175D01*
X985Y175D02*
X990Y175D01*
X1013Y175D02*
X1020Y175D01*
X1173Y175D02*
X1180Y175D01*
X0Y174D02*
X7Y174D01*
X360Y174D02*
X365Y174D01*
X392Y174D02*
X418Y174D01*
X438Y174D02*
X444Y174D01*
X456Y174D02*
X461Y174D01*
X479Y174D02*
X484Y174D01*
X503Y174D02*
X508Y174D01*
X547Y174D02*
X552Y174D01*
X567Y174D02*
X572Y174D01*
X591Y174D02*
X596Y174D01*
X610Y174D02*
X616Y174D01*
X635Y174D02*
X640Y174D01*
X659Y174D02*
X664Y174D01*
X674Y174D02*
X679Y174D01*
X758Y174D02*
X764Y174D01*
X786Y174D02*
X791Y174D01*
X810Y174D02*
X815Y174D01*
X885Y174D02*
X890Y174D01*
X918Y174D02*
X944Y174D01*
X961Y174D02*
X990Y174D01*
X1012Y174D02*
X1019Y174D01*
X1173Y174D02*
X1180Y174D01*
X0Y173D02*
X7Y173D01*
X360Y173D02*
X365Y173D01*
X392Y173D02*
X419Y173D01*
X439Y173D02*
X444Y173D01*
X455Y173D02*
X461Y173D01*
X479Y173D02*
X484Y173D01*
X503Y173D02*
X508Y173D01*
X547Y173D02*
X552Y173D01*
X567Y173D02*
X572Y173D01*
X591Y173D02*
X596Y173D01*
X610Y173D02*
X616Y173D01*
X635Y173D02*
X640Y173D01*
X658Y173D02*
X664Y173D01*
X674Y173D02*
X679Y173D01*
X758Y173D02*
X764Y173D01*
X786Y173D02*
X791Y173D01*
X810Y173D02*
X815Y173D01*
X885Y173D02*
X890Y173D01*
X917Y173D02*
X944Y173D01*
X961Y173D02*
X990Y173D01*
X1011Y173D02*
X1018Y173D01*
X1173Y173D02*
X1180Y173D01*
X0Y172D02*
X7Y172D01*
X360Y172D02*
X365Y172D01*
X392Y172D02*
X420Y172D01*
X439Y172D02*
X445Y172D01*
X455Y172D02*
X461Y172D01*
X479Y172D02*
X484Y172D01*
X503Y172D02*
X508Y172D01*
X547Y172D02*
X552Y172D01*
X567Y172D02*
X572Y172D01*
X591Y172D02*
X596Y172D01*
X610Y172D02*
X616Y172D01*
X635Y172D02*
X640Y172D01*
X658Y172D02*
X664Y172D01*
X674Y172D02*
X680Y172D01*
X758Y172D02*
X764Y172D01*
X786Y172D02*
X791Y172D01*
X810Y172D02*
X815Y172D01*
X885Y172D02*
X890Y172D01*
X917Y172D02*
X945Y172D01*
X961Y172D02*
X990Y172D01*
X1010Y172D02*
X1017Y172D01*
X1173Y172D02*
X1180Y172D01*
X0Y171D02*
X7Y171D01*
X360Y171D02*
X365Y171D01*
X392Y171D02*
X420Y171D01*
X440Y171D02*
X445Y171D01*
X455Y171D02*
X460Y171D01*
X479Y171D02*
X484Y171D01*
X503Y171D02*
X508Y171D01*
X547Y171D02*
X552Y171D01*
X567Y171D02*
X572Y171D01*
X591Y171D02*
X596Y171D01*
X610Y171D02*
X616Y171D01*
X635Y171D02*
X640Y171D01*
X658Y171D02*
X680Y171D01*
X758Y171D02*
X764Y171D01*
X786Y171D02*
X791Y171D01*
X810Y171D02*
X815Y171D01*
X885Y171D02*
X890Y171D01*
X917Y171D02*
X946Y171D01*
X961Y171D02*
X990Y171D01*
X1010Y171D02*
X1016Y171D01*
X1173Y171D02*
X1180Y171D01*
X0Y170D02*
X7Y170D01*
X360Y170D02*
X365Y170D01*
X392Y170D02*
X398Y170D01*
X415Y170D02*
X420Y170D01*
X440Y170D02*
X446Y170D01*
X454Y170D02*
X460Y170D01*
X479Y170D02*
X484Y170D01*
X503Y170D02*
X508Y170D01*
X547Y170D02*
X552Y170D01*
X567Y170D02*
X572Y170D01*
X591Y170D02*
X596Y170D01*
X610Y170D02*
X616Y170D01*
X635Y170D02*
X640Y170D01*
X658Y170D02*
X680Y170D01*
X758Y170D02*
X764Y170D01*
X786Y170D02*
X791Y170D01*
X810Y170D02*
X815Y170D01*
X885Y170D02*
X890Y170D01*
X917Y170D02*
X924Y170D01*
X940Y170D02*
X946Y170D01*
X961Y170D02*
X990Y170D01*
X1009Y170D02*
X1016Y170D01*
X1173Y170D02*
X1180Y170D01*
X0Y169D02*
X7Y169D01*
X360Y169D02*
X365Y169D01*
X392Y169D02*
X397Y169D01*
X415Y169D02*
X421Y169D01*
X441Y169D02*
X446Y169D01*
X454Y169D02*
X459Y169D01*
X479Y169D02*
X484Y169D01*
X503Y169D02*
X508Y169D01*
X547Y169D02*
X552Y169D01*
X567Y169D02*
X572Y169D01*
X591Y169D02*
X596Y169D01*
X610Y169D02*
X616Y169D01*
X635Y169D02*
X640Y169D01*
X657Y169D02*
X681Y169D01*
X758Y169D02*
X764Y169D01*
X786Y169D02*
X791Y169D01*
X810Y169D02*
X815Y169D01*
X885Y169D02*
X890Y169D01*
X917Y169D02*
X923Y169D01*
X941Y169D02*
X946Y169D01*
X962Y169D02*
X990Y169D01*
X1008Y169D02*
X1015Y169D01*
X1173Y169D02*
X1180Y169D01*
X0Y168D02*
X7Y168D01*
X360Y168D02*
X365Y168D01*
X392Y168D02*
X397Y168D01*
X416Y168D02*
X421Y168D01*
X441Y168D02*
X447Y168D01*
X453Y168D02*
X459Y168D01*
X479Y168D02*
X484Y168D01*
X503Y168D02*
X508Y168D01*
X547Y168D02*
X552Y168D01*
X567Y168D02*
X572Y168D01*
X591Y168D02*
X596Y168D01*
X610Y168D02*
X616Y168D01*
X634Y168D02*
X640Y168D01*
X657Y168D02*
X681Y168D01*
X758Y168D02*
X764Y168D01*
X786Y168D02*
X791Y168D01*
X810Y168D02*
X815Y168D01*
X885Y168D02*
X890Y168D01*
X917Y168D02*
X922Y168D01*
X941Y168D02*
X946Y168D01*
X985Y168D02*
X990Y168D01*
X1007Y168D02*
X1014Y168D01*
X1173Y168D02*
X1180Y168D01*
X0Y167D02*
X7Y167D01*
X360Y167D02*
X365Y167D01*
X392Y167D02*
X397Y167D01*
X416Y167D02*
X421Y167D01*
X441Y167D02*
X447Y167D01*
X453Y167D02*
X458Y167D01*
X479Y167D02*
X484Y167D01*
X503Y167D02*
X508Y167D01*
X547Y167D02*
X552Y167D01*
X567Y167D02*
X572Y167D01*
X590Y167D02*
X596Y167D01*
X611Y167D02*
X616Y167D01*
X634Y167D02*
X640Y167D01*
X657Y167D02*
X681Y167D01*
X758Y167D02*
X764Y167D01*
X786Y167D02*
X791Y167D01*
X810Y167D02*
X815Y167D01*
X885Y167D02*
X890Y167D01*
X917Y167D02*
X922Y167D01*
X941Y167D02*
X946Y167D01*
X985Y167D02*
X990Y167D01*
X1007Y167D02*
X1013Y167D01*
X1173Y167D02*
X1180Y167D01*
X0Y166D02*
X7Y166D01*
X360Y166D02*
X365Y166D01*
X392Y166D02*
X397Y166D01*
X416Y166D02*
X421Y166D01*
X442Y166D02*
X448Y166D01*
X452Y166D02*
X458Y166D01*
X479Y166D02*
X484Y166D01*
X503Y166D02*
X508Y166D01*
X547Y166D02*
X552Y166D01*
X567Y166D02*
X572Y166D01*
X590Y166D02*
X596Y166D01*
X611Y166D02*
X616Y166D01*
X633Y166D02*
X640Y166D01*
X656Y166D02*
X681Y166D01*
X758Y166D02*
X764Y166D01*
X786Y166D02*
X791Y166D01*
X810Y166D02*
X815Y166D01*
X885Y166D02*
X890Y166D01*
X917Y166D02*
X922Y166D01*
X941Y166D02*
X946Y166D01*
X985Y166D02*
X990Y166D01*
X1006Y166D02*
X1013Y166D01*
X1030Y166D02*
X1032Y166D01*
X1173Y166D02*
X1180Y166D01*
X0Y165D02*
X7Y165D01*
X360Y165D02*
X365Y165D01*
X392Y165D02*
X397Y165D01*
X416Y165D02*
X421Y165D01*
X442Y165D02*
X448Y165D01*
X452Y165D02*
X458Y165D01*
X479Y165D02*
X485Y165D01*
X503Y165D02*
X508Y165D01*
X547Y165D02*
X552Y165D01*
X567Y165D02*
X573Y165D01*
X588Y165D02*
X596Y165D01*
X611Y165D02*
X617Y165D01*
X632Y165D02*
X640Y165D01*
X656Y165D02*
X661Y165D01*
X676Y165D02*
X682Y165D01*
X758Y165D02*
X764Y165D01*
X786Y165D02*
X791Y165D01*
X809Y165D02*
X815Y165D01*
X885Y165D02*
X890Y165D01*
X917Y165D02*
X923Y165D01*
X941Y165D02*
X946Y165D01*
X984Y165D02*
X990Y165D01*
X1005Y165D02*
X1012Y165D01*
X1029Y165D02*
X1033Y165D01*
X1173Y165D02*
X1180Y165D01*
X0Y164D02*
X7Y164D01*
X360Y164D02*
X365Y164D01*
X392Y164D02*
X399Y164D01*
X416Y164D02*
X421Y164D01*
X443Y164D02*
X448Y164D01*
X451Y164D02*
X457Y164D01*
X479Y164D02*
X485Y164D01*
X502Y164D02*
X508Y164D01*
X547Y164D02*
X552Y164D01*
X567Y164D02*
X574Y164D01*
X587Y164D02*
X596Y164D01*
X611Y164D02*
X618Y164D01*
X631Y164D02*
X640Y164D01*
X656Y164D02*
X661Y164D01*
X677Y164D02*
X682Y164D01*
X758Y164D02*
X764Y164D01*
X786Y164D02*
X792Y164D01*
X809Y164D02*
X815Y164D01*
X885Y164D02*
X890Y164D01*
X917Y164D02*
X925Y164D01*
X941Y164D02*
X946Y164D01*
X984Y164D02*
X990Y164D01*
X1005Y164D02*
X1011Y164D01*
X1029Y164D02*
X1034Y164D01*
X1173Y164D02*
X1180Y164D01*
X0Y163D02*
X7Y163D01*
X360Y163D02*
X365Y163D01*
X392Y163D02*
X401Y163D01*
X415Y163D02*
X421Y163D01*
X443Y163D02*
X449Y163D01*
X451Y163D02*
X457Y163D01*
X480Y163D02*
X486Y163D01*
X501Y163D02*
X508Y163D01*
X547Y163D02*
X552Y163D01*
X568Y163D02*
X576Y163D01*
X586Y163D02*
X596Y163D01*
X612Y163D02*
X619Y163D01*
X630Y163D02*
X640Y163D01*
X656Y163D02*
X661Y163D01*
X677Y163D02*
X682Y163D01*
X758Y163D02*
X764Y163D01*
X786Y163D02*
X793Y163D01*
X807Y163D02*
X814Y163D01*
X885Y163D02*
X890Y163D01*
X917Y163D02*
X926Y163D01*
X941Y163D02*
X946Y163D01*
X983Y163D02*
X989Y163D01*
X1005Y163D02*
X1010Y163D01*
X1028Y163D02*
X1034Y163D01*
X1173Y163D02*
X1180Y163D01*
X0Y162D02*
X7Y162D01*
X360Y162D02*
X365Y162D01*
X392Y162D02*
X403Y162D01*
X414Y162D02*
X420Y162D01*
X444Y162D02*
X456Y162D01*
X480Y162D02*
X488Y162D01*
X500Y162D02*
X507Y162D01*
X547Y162D02*
X552Y162D01*
X569Y162D02*
X577Y162D01*
X585Y162D02*
X596Y162D01*
X613Y162D02*
X621Y162D01*
X629Y162D02*
X640Y162D01*
X655Y162D02*
X661Y162D01*
X677Y162D02*
X683Y162D01*
X758Y162D02*
X764Y162D01*
X787Y162D02*
X794Y162D01*
X806Y162D02*
X814Y162D01*
X885Y162D02*
X890Y162D01*
X917Y162D02*
X928Y162D01*
X940Y162D02*
X946Y162D01*
X981Y162D02*
X989Y162D01*
X1005Y162D02*
X1010Y162D01*
X1028Y162D02*
X1034Y162D01*
X1173Y162D02*
X1180Y162D01*
X0Y161D02*
X7Y161D01*
X352Y161D02*
X372Y161D01*
X392Y161D02*
X420Y161D01*
X444Y161D02*
X456Y161D01*
X481Y161D02*
X507Y161D01*
X547Y161D02*
X552Y161D01*
X570Y161D02*
X578Y161D01*
X584Y161D02*
X596Y161D01*
X613Y161D02*
X622Y161D01*
X628Y161D02*
X640Y161D01*
X655Y161D02*
X660Y161D01*
X677Y161D02*
X683Y161D01*
X758Y161D02*
X764Y161D01*
X787Y161D02*
X813Y161D01*
X878Y161D02*
X898Y161D01*
X917Y161D02*
X945Y161D01*
X962Y161D02*
X988Y161D01*
X1005Y161D02*
X1033Y161D01*
X1173Y161D02*
X1180Y161D01*
X0Y160D02*
X7Y160D01*
X351Y160D02*
X373Y160D01*
X392Y160D02*
X420Y160D01*
X445Y160D02*
X455Y160D01*
X482Y160D02*
X506Y160D01*
X547Y160D02*
X552Y160D01*
X571Y160D02*
X596Y160D01*
X615Y160D02*
X640Y160D01*
X655Y160D02*
X660Y160D01*
X678Y160D02*
X683Y160D01*
X758Y160D02*
X764Y160D01*
X788Y160D02*
X812Y160D01*
X877Y160D02*
X899Y160D01*
X917Y160D02*
X945Y160D01*
X961Y160D02*
X987Y160D01*
X1005Y160D02*
X1033Y160D01*
X1173Y160D02*
X1180Y160D01*
X0Y159D02*
X7Y159D01*
X351Y159D02*
X374Y159D01*
X392Y159D02*
X419Y159D01*
X445Y159D02*
X455Y159D01*
X483Y159D02*
X505Y159D01*
X547Y159D02*
X552Y159D01*
X572Y159D02*
X596Y159D01*
X616Y159D02*
X640Y159D01*
X654Y159D02*
X660Y159D01*
X678Y159D02*
X683Y159D01*
X758Y159D02*
X764Y159D01*
X789Y159D02*
X811Y159D01*
X876Y159D02*
X899Y159D01*
X917Y159D02*
X944Y159D01*
X961Y159D02*
X986Y159D01*
X1005Y159D02*
X1032Y159D01*
X1173Y159D02*
X1180Y159D01*
X0Y158D02*
X7Y158D01*
X351Y158D02*
X374Y158D01*
X392Y158D02*
X418Y158D01*
X445Y158D02*
X454Y158D01*
X484Y158D02*
X503Y158D01*
X547Y158D02*
X552Y158D01*
X573Y158D02*
X589Y158D01*
X591Y158D02*
X596Y158D01*
X617Y158D02*
X640Y158D01*
X654Y158D02*
X659Y158D01*
X678Y158D02*
X684Y158D01*
X759Y158D02*
X763Y158D01*
X790Y158D02*
X810Y158D01*
X876Y158D02*
X899Y158D01*
X917Y158D02*
X922Y158D01*
X924Y158D02*
X943Y158D01*
X961Y158D02*
X985Y158D01*
X1006Y158D02*
X1031Y158D01*
X1173Y158D02*
X1180Y158D01*
X0Y157D02*
X7Y157D01*
X351Y157D02*
X374Y157D01*
X392Y157D02*
X396Y157D01*
X400Y157D02*
X417Y157D01*
X446Y157D02*
X454Y157D01*
X485Y157D02*
X502Y157D01*
X547Y157D02*
X552Y157D01*
X574Y157D02*
X588Y157D01*
X591Y157D02*
X596Y157D01*
X618Y157D02*
X632Y157D01*
X635Y157D02*
X640Y157D01*
X655Y157D02*
X659Y157D01*
X679Y157D02*
X683Y157D01*
X759Y157D02*
X763Y157D01*
X792Y157D02*
X809Y157D01*
X877Y157D02*
X899Y157D01*
X917Y157D02*
X922Y157D01*
X925Y157D02*
X942Y157D01*
X961Y157D02*
X984Y157D01*
X1007Y157D02*
X1030Y157D01*
X1173Y157D02*
X1180Y157D01*
X0Y156D02*
X7Y156D01*
X352Y156D02*
X373Y156D01*
X393Y156D02*
X395Y156D01*
X402Y156D02*
X415Y156D01*
X447Y156D02*
X453Y156D01*
X487Y156D02*
X500Y156D01*
X548Y156D02*
X551Y156D01*
X575Y156D02*
X587Y156D01*
X591Y156D02*
X596Y156D01*
X619Y156D02*
X631Y156D01*
X635Y156D02*
X640Y156D01*
X656Y156D02*
X658Y156D01*
X680Y156D02*
X682Y156D01*
X760Y156D02*
X762Y156D01*
X794Y156D02*
X807Y156D01*
X877Y156D02*
X898Y156D01*
X918Y156D02*
X921Y156D01*
X927Y156D02*
X940Y156D01*
X962Y156D02*
X982Y156D01*
X1009Y156D02*
X1029Y156D01*
X1173Y156D02*
X1180Y156D01*
X0Y155D02*
X7Y155D01*
X577Y155D02*
X585Y155D01*
X591Y155D02*
X596Y155D01*
X621Y155D02*
X629Y155D01*
X635Y155D02*
X640Y155D01*
X1173Y155D02*
X1180Y155D01*
X0Y154D02*
X7Y154D01*
X591Y154D02*
X596Y154D01*
X635Y154D02*
X640Y154D01*
X1173Y154D02*
X1180Y154D01*
X0Y153D02*
X7Y153D01*
X591Y153D02*
X596Y153D01*
X635Y153D02*
X640Y153D01*
X1173Y153D02*
X1180Y153D01*
X0Y152D02*
X7Y152D01*
X591Y152D02*
X596Y152D01*
X635Y152D02*
X640Y152D01*
X1173Y152D02*
X1180Y152D01*
X0Y151D02*
X7Y151D01*
X591Y151D02*
X596Y151D01*
X635Y151D02*
X640Y151D01*
X1173Y151D02*
X1180Y151D01*
X0Y150D02*
X7Y150D01*
X591Y150D02*
X596Y150D01*
X635Y150D02*
X640Y150D01*
X1173Y150D02*
X1180Y150D01*
X0Y149D02*
X7Y149D01*
X591Y149D02*
X596Y149D01*
X635Y149D02*
X640Y149D01*
X1173Y149D02*
X1180Y149D01*
X0Y148D02*
X7Y148D01*
X591Y148D02*
X596Y148D01*
X635Y148D02*
X640Y148D01*
X1173Y148D02*
X1180Y148D01*
X0Y147D02*
X7Y147D01*
X591Y147D02*
X596Y147D01*
X635Y147D02*
X640Y147D01*
X1173Y147D02*
X1180Y147D01*
X0Y146D02*
X7Y146D01*
X591Y146D02*
X596Y146D01*
X635Y146D02*
X640Y146D01*
X1173Y146D02*
X1180Y146D01*
X0Y145D02*
X7Y145D01*
X591Y145D02*
X596Y145D01*
X635Y145D02*
X640Y145D01*
X1173Y145D02*
X1180Y145D01*
X0Y144D02*
X7Y144D01*
X591Y144D02*
X595Y144D01*
X635Y144D02*
X639Y144D01*
X1173Y144D02*
X1180Y144D01*
X0Y143D02*
X7Y143D01*
X592Y143D02*
X594Y143D01*
X636Y143D02*
X638Y143D01*
X1173Y143D02*
X1180Y143D01*
X0Y142D02*
X7Y142D01*
X1173Y142D02*
X1180Y142D01*
X0Y141D02*
X7Y141D01*
X1173Y141D02*
X1180Y141D01*
X0Y140D02*
X7Y140D01*
X1173Y140D02*
X1180Y140D01*
X0Y139D02*
X7Y139D01*
X1173Y139D02*
X1180Y139D01*
X0Y138D02*
X7Y138D01*
X1173Y138D02*
X1180Y138D01*
X0Y137D02*
X7Y137D01*
X1173Y137D02*
X1180Y137D01*
X0Y136D02*
X7Y136D01*
X1173Y136D02*
X1180Y136D01*
X0Y135D02*
X7Y135D01*
X1173Y135D02*
X1180Y135D01*
X0Y134D02*
X7Y134D01*
X1173Y134D02*
X1180Y134D01*
X0Y133D02*
X7Y133D01*
X1173Y133D02*
X1180Y133D01*
X0Y132D02*
X7Y132D01*
X1173Y132D02*
X1180Y132D01*
X0Y131D02*
X7Y131D01*
X1173Y131D02*
X1180Y131D01*
X0Y130D02*
X7Y130D01*
X1173Y130D02*
X1180Y130D01*
X0Y129D02*
X7Y129D01*
X1173Y129D02*
X1180Y129D01*
X0Y128D02*
X7Y128D01*
X1173Y128D02*
X1180Y128D01*
X0Y127D02*
X7Y127D01*
X1173Y127D02*
X1180Y127D01*
X0Y126D02*
X7Y126D01*
X1173Y126D02*
X1180Y126D01*
X0Y125D02*
X7Y125D01*
X1173Y125D02*
X1180Y125D01*
X0Y124D02*
X7Y124D01*
X1173Y124D02*
X1180Y124D01*
X0Y123D02*
X7Y123D01*
X1173Y123D02*
X1180Y123D01*
X0Y122D02*
X7Y122D01*
X1173Y122D02*
X1180Y122D01*
X0Y121D02*
X7Y121D01*
X1173Y121D02*
X1180Y121D01*
X0Y120D02*
X7Y120D01*
X1173Y120D02*
X1180Y120D01*
X0Y119D02*
X7Y119D01*
X1173Y119D02*
X1180Y119D01*
X0Y118D02*
X7Y118D01*
X1173Y118D02*
X1180Y118D01*
X0Y117D02*
X7Y117D01*
X1173Y117D02*
X1180Y117D01*
X0Y116D02*
X7Y116D01*
X1173Y116D02*
X1180Y116D01*
X0Y115D02*
X7Y115D01*
X1173Y115D02*
X1180Y115D01*
X0Y114D02*
X7Y114D01*
X1173Y114D02*
X1180Y114D01*
X0Y113D02*
X7Y113D01*
X1173Y113D02*
X1180Y113D01*
X0Y112D02*
X7Y112D01*
X1173Y112D02*
X1180Y112D01*
X0Y111D02*
X7Y111D01*
X1173Y111D02*
X1180Y111D01*
X0Y110D02*
X7Y110D01*
X1173Y110D02*
X1180Y110D01*
X0Y109D02*
X7Y109D01*
X1173Y109D02*
X1180Y109D01*
X0Y108D02*
X7Y108D01*
X1173Y108D02*
X1180Y108D01*
X0Y107D02*
X7Y107D01*
X1173Y107D02*
X1180Y107D01*
X0Y106D02*
X7Y106D01*
X1173Y106D02*
X1180Y106D01*
X0Y105D02*
X7Y105D01*
X1173Y105D02*
X1180Y105D01*
X0Y104D02*
X7Y104D01*
X1173Y104D02*
X1180Y104D01*
X0Y103D02*
X7Y103D01*
X1173Y103D02*
X1180Y103D01*
X0Y102D02*
X7Y102D01*
X1173Y102D02*
X1180Y102D01*
X0Y101D02*
X7Y101D01*
X1173Y101D02*
X1180Y101D01*
X0Y100D02*
X7Y100D01*
X1173Y100D02*
X1180Y100D01*
X0Y99D02*
X7Y99D01*
X1173Y99D02*
X1180Y99D01*
X0Y98D02*
X7Y98D01*
X1173Y98D02*
X1180Y98D01*
X0Y97D02*
X7Y97D01*
X1173Y97D02*
X1180Y97D01*
X0Y96D02*
X7Y96D01*
X1173Y96D02*
X1180Y96D01*
X0Y95D02*
X7Y95D01*
X1173Y95D02*
X1180Y95D01*
X0Y94D02*
X7Y94D01*
X1173Y94D02*
X1180Y94D01*
X0Y93D02*
X7Y93D01*
X1173Y93D02*
X1180Y93D01*
X0Y92D02*
X7Y92D01*
X1173Y92D02*
X1180Y92D01*
X0Y91D02*
X7Y91D01*
X1173Y91D02*
X1180Y91D01*
X0Y90D02*
X7Y90D01*
X1173Y90D02*
X1180Y90D01*
X0Y89D02*
X7Y89D01*
X1173Y89D02*
X1180Y89D01*
X0Y88D02*
X7Y88D01*
X1173Y88D02*
X1180Y88D01*
X0Y87D02*
X7Y87D01*
X1173Y87D02*
X1180Y87D01*
X0Y86D02*
X7Y86D01*
X1173Y86D02*
X1180Y86D01*
X0Y85D02*
X7Y85D01*
X1173Y85D02*
X1180Y85D01*
X0Y84D02*
X7Y84D01*
X1173Y84D02*
X1180Y84D01*
X0Y83D02*
X7Y83D01*
X1173Y83D02*
X1180Y83D01*
X0Y82D02*
X7Y82D01*
X1173Y82D02*
X1180Y82D01*
X0Y81D02*
X7Y81D01*
X1173Y81D02*
X1180Y81D01*
X0Y80D02*
X7Y80D01*
X1173Y80D02*
X1180Y80D01*
X0Y79D02*
X7Y79D01*
X1173Y79D02*
X1180Y79D01*
X0Y78D02*
X7Y78D01*
X1173Y78D02*
X1180Y78D01*
X0Y77D02*
X7Y77D01*
X1173Y77D02*
X1180Y77D01*
X0Y76D02*
X7Y76D01*
X1173Y76D02*
X1180Y76D01*
X0Y75D02*
X7Y75D01*
X1173Y75D02*
X1180Y75D01*
X0Y74D02*
X7Y74D01*
X1173Y74D02*
X1180Y74D01*
X0Y73D02*
X7Y73D01*
X1173Y73D02*
X1180Y73D01*
X0Y72D02*
X7Y72D01*
X1173Y72D02*
X1180Y72D01*
X0Y71D02*
X7Y71D01*
X1173Y71D02*
X1180Y71D01*
X0Y70D02*
X7Y70D01*
X1173Y70D02*
X1180Y70D01*
X0Y69D02*
X7Y69D01*
X1173Y69D02*
X1180Y69D01*
X0Y68D02*
X7Y68D01*
X1173Y68D02*
X1180Y68D01*
X0Y67D02*
X7Y67D01*
X1173Y67D02*
X1180Y67D01*
X0Y66D02*
X7Y66D01*
X1173Y66D02*
X1180Y66D01*
X0Y65D02*
X7Y65D01*
X1173Y65D02*
X1180Y65D01*
X0Y64D02*
X7Y64D01*
X1173Y64D02*
X1180Y64D01*
X0Y63D02*
X7Y63D01*
X1173Y63D02*
X1180Y63D01*
X0Y62D02*
X7Y62D01*
X1173Y62D02*
X1180Y62D01*
X0Y61D02*
X7Y61D01*
X1173Y61D02*
X1180Y61D01*
X0Y60D02*
X7Y60D01*
X1173Y60D02*
X1180Y60D01*
X0Y59D02*
X7Y59D01*
X1173Y59D02*
X1180Y59D01*
X0Y58D02*
X7Y58D01*
X1173Y58D02*
X1180Y58D01*
X0Y57D02*
X7Y57D01*
X1173Y57D02*
X1180Y57D01*
X0Y56D02*
X7Y56D01*
X1173Y56D02*
X1180Y56D01*
X0Y55D02*
X7Y55D01*
X1173Y55D02*
X1180Y55D01*
X0Y54D02*
X7Y54D01*
X1173Y54D02*
X1180Y54D01*
X0Y53D02*
X7Y53D01*
X1173Y53D02*
X1180Y53D01*
X0Y52D02*
X7Y52D01*
X1173Y52D02*
X1180Y52D01*
X0Y51D02*
X7Y51D01*
X1173Y51D02*
X1180Y51D01*
X0Y50D02*
X7Y50D01*
X1173Y50D02*
X1180Y50D01*
X0Y49D02*
X7Y49D01*
X1173Y49D02*
X1180Y49D01*
X0Y48D02*
X7Y48D01*
X1173Y48D02*
X1180Y48D01*
X0Y47D02*
X7Y47D01*
X1173Y47D02*
X1180Y47D01*
X0Y46D02*
X7Y46D01*
X1173Y46D02*
X1180Y46D01*
X0Y45D02*
X7Y45D01*
X1173Y45D02*
X1180Y45D01*
X0Y44D02*
X7Y44D01*
X1173Y44D02*
X1180Y44D01*
X0Y43D02*
X7Y43D01*
X1173Y43D02*
X1180Y43D01*
X0Y42D02*
X7Y42D01*
X1173Y42D02*
X1180Y42D01*
X0Y41D02*
X7Y41D01*
X1173Y41D02*
X1180Y41D01*
X0Y40D02*
X7Y40D01*
X1173Y40D02*
X1180Y40D01*
X0Y39D02*
X7Y39D01*
X1173Y39D02*
X1180Y39D01*
X0Y38D02*
X7Y38D01*
X1173Y38D02*
X1180Y38D01*
X0Y37D02*
X7Y37D01*
X1173Y37D02*
X1180Y37D01*
X0Y36D02*
X7Y36D01*
X1173Y36D02*
X1180Y36D01*
X0Y35D02*
X7Y35D01*
X1173Y35D02*
X1180Y35D01*
X0Y34D02*
X7Y34D01*
X1173Y34D02*
X1180Y34D01*
X0Y33D02*
X7Y33D01*
X1173Y33D02*
X1180Y33D01*
X0Y32D02*
X7Y32D01*
X1173Y32D02*
X1180Y32D01*
X0Y31D02*
X7Y31D01*
X1173Y31D02*
X1180Y31D01*
X0Y30D02*
X7Y30D01*
X1173Y30D02*
X1180Y30D01*
X0Y29D02*
X7Y29D01*
X1173Y29D02*
X1180Y29D01*
X0Y28D02*
X7Y28D01*
X1173Y28D02*
X1180Y28D01*
X0Y27D02*
X7Y27D01*
X1173Y27D02*
X1180Y27D01*
X0Y26D02*
X7Y26D01*
X1173Y26D02*
X1180Y26D01*
X0Y25D02*
X7Y25D01*
X1173Y25D02*
X1180Y25D01*
X0Y24D02*
X7Y24D01*
X1173Y24D02*
X1180Y24D01*
X0Y23D02*
X7Y23D01*
X1173Y23D02*
X1180Y23D01*
X0Y22D02*
X7Y22D01*
X1173Y22D02*
X1180Y22D01*
X0Y21D02*
X7Y21D01*
X1173Y21D02*
X1180Y21D01*
X0Y20D02*
X7Y20D01*
X1173Y20D02*
X1180Y20D01*
X0Y19D02*
X7Y19D01*
X1173Y19D02*
X1180Y19D01*
X0Y18D02*
X7Y18D01*
X1173Y18D02*
X1180Y18D01*
X0Y17D02*
X7Y17D01*
X1173Y17D02*
X1180Y17D01*
X0Y16D02*
X7Y16D01*
X1173Y16D02*
X1180Y16D01*
X0Y15D02*
X7Y15D01*
X1173Y15D02*
X1180Y15D01*
X0Y14D02*
X7Y14D01*
X1173Y14D02*
X1180Y14D01*
X0Y13D02*
X7Y13D01*
X1173Y13D02*
X1180Y13D01*
X0Y12D02*
X7Y12D01*
X1173Y12D02*
X1180Y12D01*
X0Y11D02*
X7Y11D01*
X1173Y11D02*
X1180Y11D01*
X0Y10D02*
X7Y10D01*
X1173Y10D02*
X1180Y10D01*
X0Y9D02*
X7Y9D01*
X1173Y9D02*
X1180Y9D01*
X0Y8D02*
X1180Y8D01*
X0Y7D02*
X1180Y7D01*
X0Y6D02*
X1180Y6D01*
X0Y5D02*
X1180Y5D01*
X0Y4D02*
X1180Y4D01*
X0Y3D02*
X1180Y3D01*
X0Y2D02*
X1180Y2D01*
X0Y1D02*
X1180Y1D01*
D02*
G04 End of Silk0*
M02*