G04 MADE WITH FRITZING*
G04 WWW.FRITZING.ORG*
G04 DOUBLE SIDED*
G04 HOLES PLATED*
G04 CONTOUR ON CENTER OF CONTOUR VECTOR*
%ASAXBY*%
%FSLAX23Y23*%
%MOIN*%
%OFA0B0*%
%SFA1.0B1.0*%
%ADD10C,0.075118*%
%ADD11C,0.074803*%
%ADD12C,0.075000*%
%ADD13C,0.080000*%
%ADD14C,0.070000*%
%ADD15C,0.078000*%
%ADD16R,0.080000X0.080000*%
%ADD17R,0.078000X0.078000*%
%ADD18C,0.024000*%
%LNCOPPER1*%
G90*
G70*
G54D10*
X759Y795D03*
X337Y795D03*
X337Y421D03*
X759Y421D03*
X759Y795D03*
X337Y795D03*
X337Y421D03*
X759Y421D03*
G54D11*
X336Y610D03*
G54D12*
X206Y895D03*
X206Y495D03*
X110Y208D03*
X110Y608D03*
G54D13*
X933Y377D03*
X933Y239D03*
G54D12*
X306Y256D03*
X306Y156D03*
X306Y56D03*
G54D14*
X110Y795D03*
X110Y895D03*
X207Y401D03*
X207Y301D03*
G54D15*
X934Y101D03*
X834Y101D03*
X734Y101D03*
G54D13*
X933Y677D03*
X933Y539D03*
X933Y977D03*
X933Y839D03*
G54D16*
X933Y377D03*
G54D17*
X934Y101D03*
G54D16*
X933Y677D03*
X933Y977D03*
G54D18*
X306Y868D02*
X234Y887D01*
D02*
X822Y868D02*
X306Y868D01*
D02*
X903Y847D02*
X822Y868D01*
D02*
X283Y73D02*
X133Y191D01*
D02*
X364Y26D02*
X983Y26D01*
D02*
X1025Y66D02*
X1025Y291D01*
D02*
X983Y26D02*
X1025Y66D01*
D02*
X1025Y291D02*
X956Y356D01*
D02*
X331Y43D02*
X364Y26D01*
D02*
X41Y608D02*
X82Y608D01*
D02*
X41Y337D02*
X41Y608D01*
D02*
X282Y172D02*
X41Y337D01*
D02*
X41Y608D02*
X41Y824D01*
D02*
X41Y824D02*
X92Y876D01*
D02*
X82Y608D02*
X41Y608D01*
D02*
X856Y1049D02*
X910Y998D01*
D02*
X261Y1049D02*
X856Y1049D01*
D02*
X129Y914D02*
X261Y1049D01*
D02*
X136Y795D02*
X299Y795D01*
D02*
X206Y795D02*
X206Y605D01*
D02*
X132Y528D02*
X132Y460D01*
D02*
X206Y605D02*
X132Y528D01*
D02*
X132Y460D02*
X186Y417D01*
D02*
X136Y795D02*
X206Y795D01*
D02*
X280Y268D02*
X230Y290D01*
D02*
X907Y695D02*
X791Y773D01*
D02*
X907Y522D02*
X791Y442D01*
D02*
X934Y131D02*
X933Y208D01*
D02*
X813Y123D02*
X363Y583D01*
D02*
X307Y585D02*
X227Y514D01*
D02*
X226Y318D02*
X309Y394D01*
D02*
X330Y383D02*
X311Y284D01*
G04 End of Copper1*
M02*