; NON-PLATED HOLES START AT T1
; THROUGH (PLATED) HOLES START AT T100
M48
INCH
T1C0.086614
T2C0.125984
T100C0.040000
T101C0.038000
T102C0.035000
T103C0.055118
T104C0.030000
%
T1
X000777Y011033
X000777Y000766
X011044Y000766
X011044Y011033
T2
X005487Y002553
X005498Y009601
T100
X009332Y008394
X009332Y003772
X009332Y009772
X009332Y005394
X009332Y006772
X009332Y002394
T101
X008342Y001012
X007342Y001012
X009342Y001012
T102
X003056Y002558
X002058Y004947
X003056Y000558
X003056Y001558
X002058Y008947
X001102Y002083
X001102Y006083
T103
X003374Y004205
X003374Y007945
X007587Y007945
X003363Y006102
X007587Y004205
T104
X001103Y008949
X002066Y004009
X002066Y003007
X001103Y007947
T00
M30
