G04 MADE WITH FRITZING*
G04 WWW.FRITZING.ORG*
G04 DOUBLE SIDED*
G04 HOLES PLATED*
G04 CONTOUR ON CENTER OF CONTOUR VECTOR*
%ASAXBY*%
%FSLAX23Y23*%
%MOIN*%
%OFA0B0*%
%SFA1.0B1.0*%
%ADD10C,0.075000*%
%ADD11C,0.082000*%
%ADD12C,0.075118*%
%ADD13C,0.080000*%
%ADD14C,0.074803*%
%ADD15C,0.074000*%
%ADD16C,0.078000*%
%ADD17C,0.071889*%
%ADD18C,0.071917*%
%ADD19C,0.124033*%
%ADD20C,0.070000*%
%ADD21C,0.125984*%
%ADD22R,0.082000X0.082000*%
%ADD23R,0.080000X0.080000*%
%ADD24R,0.075000X0.075000*%
%ADD25R,0.074000X0.074000*%
%ADD26R,0.078000X0.078000*%
%ADD27C,0.024000*%
%ADD28R,0.001000X0.001000*%
%LNCOPPER1*%
G90*
G70*
G54D10*
X537Y1513D03*
X137Y1513D03*
X137Y1393D03*
X537Y1393D03*
X137Y813D03*
X537Y813D03*
X138Y1873D03*
X538Y1873D03*
X138Y1993D03*
X538Y1993D03*
X138Y2112D03*
X538Y2112D03*
X137Y2353D03*
X537Y2353D03*
G54D11*
X1140Y1992D03*
X842Y1992D03*
X1140Y2111D03*
X842Y2111D03*
G54D12*
X2129Y1555D03*
X1708Y1555D03*
X1708Y1181D03*
X2129Y1181D03*
X2129Y1555D03*
X1708Y1555D03*
X1708Y1181D03*
X2129Y1181D03*
G54D13*
X2508Y862D03*
X2508Y725D03*
G54D14*
X1708Y1368D03*
G54D10*
X1840Y796D03*
X2140Y796D03*
X1840Y696D03*
X2140Y696D03*
X1840Y596D03*
X2140Y596D03*
X1840Y496D03*
X2140Y496D03*
X1840Y396D03*
X2140Y396D03*
X1840Y296D03*
X2140Y296D03*
X1840Y196D03*
X2140Y196D03*
X1300Y896D03*
X1600Y896D03*
X1300Y796D03*
X1600Y796D03*
X1300Y696D03*
X1600Y696D03*
X1300Y596D03*
X1600Y596D03*
X1300Y496D03*
X1600Y496D03*
X1300Y396D03*
X1600Y396D03*
X1300Y296D03*
X1600Y296D03*
X1300Y196D03*
X1600Y196D03*
G54D13*
X2508Y1712D03*
X2508Y1574D03*
G54D10*
X1011Y452D03*
X1011Y196D03*
X834Y452D03*
X834Y196D03*
G54D15*
X2147Y2353D03*
X2147Y2253D03*
X2147Y2153D03*
X2147Y2053D03*
X2147Y1954D03*
X2447Y1954D03*
X2447Y2053D03*
X2447Y2153D03*
X2447Y2253D03*
X2448Y2353D03*
G54D10*
X1437Y2353D03*
X1837Y2353D03*
X1437Y2113D03*
X1837Y2113D03*
X1838Y1993D03*
X1438Y1993D03*
X1838Y1873D03*
X1438Y1873D03*
G54D16*
X2508Y465D03*
X2508Y365D03*
X2508Y265D03*
G54D17*
X260Y209D03*
X360Y209D03*
G54D18*
X460Y209D03*
G54D19*
X166Y504D03*
X555Y504D03*
G54D11*
X1140Y2354D03*
X842Y2354D03*
G54D10*
X281Y1166D03*
X281Y1066D03*
X281Y966D03*
X1141Y1713D03*
X1141Y1613D03*
X1141Y1513D03*
X539Y1066D03*
X539Y1166D03*
X539Y1266D03*
G54D20*
X1438Y1159D03*
X1438Y1259D03*
X1438Y1629D03*
X1438Y1529D03*
G54D10*
X934Y1266D03*
X834Y1266D03*
X934Y1040D03*
X834Y1040D03*
X933Y814D03*
X833Y814D03*
G54D11*
X1140Y1873D03*
X842Y1873D03*
G54D16*
X2508Y1316D03*
X2508Y1216D03*
X2508Y1116D03*
G54D21*
X166Y503D03*
X556Y503D03*
G54D22*
X1141Y1992D03*
X1141Y2111D03*
G54D23*
X2508Y862D03*
G54D24*
X1840Y796D03*
X1300Y896D03*
G54D23*
X2508Y1712D03*
G54D25*
X2148Y2352D03*
G54D26*
X2508Y465D03*
G54D22*
X1141Y2354D03*
G54D24*
X934Y1266D03*
X934Y1040D03*
X933Y814D03*
G54D22*
X1141Y1873D03*
G54D26*
X2508Y1316D03*
G54D27*
X1011Y423D02*
X1011Y225D01*
D02*
X834Y423D02*
X834Y225D01*
D02*
X1866Y2353D02*
X2116Y2353D01*
D02*
X2000Y2053D02*
X2116Y2053D01*
D02*
X1930Y2113D02*
X2000Y2053D01*
D02*
X1866Y2113D02*
X1930Y2113D01*
D02*
X2001Y1954D02*
X2116Y1954D01*
D02*
X1930Y1993D02*
X2001Y1954D01*
D02*
X1867Y1993D02*
X1930Y1993D01*
D02*
X137Y1422D02*
X137Y1485D01*
D02*
X137Y1196D02*
X260Y1085D01*
D02*
X137Y1364D02*
X137Y1196D01*
D02*
X310Y1066D02*
X511Y1066D01*
D02*
X539Y1295D02*
X538Y1364D01*
D02*
X822Y1393D02*
X915Y1287D01*
D02*
X566Y1393D02*
X822Y1393D01*
D02*
X934Y1237D02*
X934Y1068D01*
D02*
X934Y1011D02*
X933Y842D01*
D02*
X260Y687D02*
X157Y793D01*
D02*
X260Y242D02*
X260Y687D01*
D02*
X805Y814D02*
X566Y813D01*
D02*
X833Y842D02*
X834Y1011D01*
D02*
X833Y785D02*
X834Y481D01*
D02*
X138Y1964D02*
X138Y1902D01*
D02*
X138Y2022D02*
X138Y2084D01*
D02*
X138Y2141D02*
X137Y2325D01*
D02*
X1370Y1159D02*
X1412Y1159D01*
D02*
X1211Y1613D02*
X1370Y1159D01*
D02*
X1170Y1613D02*
X1211Y1613D01*
D02*
X810Y1873D02*
X567Y1873D01*
D02*
X810Y1992D02*
X567Y1993D01*
D02*
X810Y2112D02*
X566Y2112D01*
D02*
X810Y2354D02*
X566Y2353D01*
D02*
X1463Y1622D02*
X1671Y1565D01*
D02*
X1168Y1705D02*
X1413Y1636D01*
D02*
X1463Y1252D02*
X1671Y1191D01*
D02*
X1438Y1503D02*
X1438Y1285D01*
D02*
X2508Y496D02*
X2508Y694D01*
D02*
X1409Y2353D02*
X1172Y2354D01*
D02*
X1539Y2443D02*
X2278Y2443D01*
D02*
X2371Y2359D02*
X2371Y206D01*
D02*
X2371Y206D02*
X2292Y130D01*
D02*
X2085Y130D02*
X1864Y280D01*
D02*
X2292Y130D02*
X2085Y130D01*
D02*
X2278Y2443D02*
X2371Y2359D01*
D02*
X1459Y2372D02*
X1539Y2443D01*
D02*
X511Y1166D02*
X310Y1166D01*
D02*
X538Y966D02*
X813Y1245D01*
D02*
X310Y966D02*
X538Y966D01*
D02*
X360Y888D02*
X360Y242D01*
D02*
X302Y946D02*
X360Y888D01*
D02*
X1722Y397D02*
X1622Y314D01*
D02*
X1722Y597D02*
X1722Y397D01*
D02*
X1818Y678D02*
X1722Y597D01*
D02*
X2222Y1249D02*
X2222Y576D01*
D02*
X2222Y576D02*
X2161Y516D01*
D02*
X1460Y1855D02*
X2222Y1249D01*
D02*
X1172Y1873D02*
X1409Y1873D01*
D02*
X1967Y860D02*
X1772Y860D01*
D02*
X1772Y860D02*
X1621Y716D01*
D02*
X2119Y716D02*
X1967Y860D01*
D02*
X1867Y387D02*
X2113Y305D01*
D02*
X1525Y2049D02*
X1525Y1860D01*
D02*
X1525Y1860D02*
X2280Y1260D01*
D02*
X2280Y1260D02*
X2280Y334D01*
D02*
X2280Y334D02*
X2160Y216D01*
D02*
X1460Y2096D02*
X1525Y2049D01*
D02*
X1172Y2112D02*
X1409Y2113D01*
D02*
X1172Y1992D02*
X1410Y1993D01*
D02*
X2614Y365D02*
X2538Y365D01*
D02*
X2614Y2153D02*
X2614Y365D01*
D02*
X2479Y2153D02*
X2614Y2153D01*
D02*
X566Y1513D02*
X1112Y1513D01*
D02*
X1531Y896D02*
X1571Y896D01*
D02*
X1141Y1298D02*
X1531Y896D01*
D02*
X1141Y1484D02*
X1141Y1298D01*
D02*
X2037Y896D02*
X1628Y896D01*
D02*
X2119Y816D02*
X2037Y896D01*
D02*
X1530Y496D02*
X1571Y496D01*
D02*
X1530Y896D02*
X1530Y496D01*
D02*
X1530Y196D02*
X1571Y196D01*
D02*
X1530Y496D02*
X1530Y196D01*
D02*
X1571Y196D02*
X1328Y196D01*
D02*
X1300Y225D02*
X1300Y267D01*
D02*
X1373Y359D02*
X1373Y432D01*
D02*
X1373Y432D02*
X1321Y477D01*
D02*
X1322Y315D02*
X1373Y359D01*
D02*
X1300Y525D02*
X1300Y567D01*
D02*
X1300Y625D02*
X1300Y667D01*
D02*
X1300Y725D02*
X1300Y767D01*
D02*
X2420Y169D02*
X2420Y771D01*
D02*
X1840Y82D02*
X2327Y82D01*
D02*
X2327Y82D02*
X2420Y169D01*
D02*
X2420Y771D02*
X2486Y840D01*
D02*
X1840Y168D02*
X1840Y82D01*
D02*
X1271Y196D02*
X1040Y196D01*
D02*
X2508Y1543D02*
X2508Y1346D01*
D02*
X933Y150D02*
X933Y785D01*
D02*
X1011Y82D02*
X933Y150D01*
D02*
X1840Y82D02*
X1011Y82D01*
D02*
X1840Y168D02*
X1840Y82D01*
D02*
X382Y1613D02*
X1112Y1613D01*
D02*
X158Y1852D02*
X382Y1613D01*
G54D28*
X1529Y909D02*
X1600Y909D01*
X1525Y908D02*
X1604Y908D01*
X1523Y907D02*
X1605Y907D01*
X1522Y906D02*
X1607Y906D01*
X1521Y905D02*
X1608Y905D01*
X1520Y904D02*
X1608Y904D01*
X1520Y903D02*
X1609Y903D01*
X1519Y902D02*
X1610Y902D01*
X1519Y901D02*
X1610Y901D01*
X1519Y900D02*
X1610Y900D01*
X1518Y899D02*
X1610Y899D01*
X1518Y898D02*
X1611Y898D01*
X1518Y897D02*
X1611Y897D01*
X1518Y896D02*
X1611Y896D01*
X1518Y895D02*
X1610Y895D01*
X1519Y894D02*
X1610Y894D01*
X1519Y893D02*
X1610Y893D01*
X1519Y892D02*
X1609Y892D01*
X1520Y891D02*
X1609Y891D01*
X1521Y890D02*
X1608Y890D01*
X1521Y889D02*
X1607Y889D01*
X1522Y888D02*
X1606Y888D01*
X1524Y887D02*
X1605Y887D01*
X1526Y886D02*
X1603Y886D01*
X1836Y709D02*
X1843Y709D01*
X1834Y708D02*
X1846Y708D01*
X1832Y707D02*
X1849Y707D01*
X1831Y706D02*
X1852Y706D01*
X1830Y705D02*
X1855Y705D01*
X1830Y704D02*
X1858Y704D01*
X1829Y703D02*
X1861Y703D01*
X1829Y702D02*
X1864Y702D01*
X1828Y701D02*
X1867Y701D01*
X1828Y700D02*
X1870Y700D01*
X1828Y699D02*
X1873Y699D01*
X1828Y698D02*
X1876Y698D01*
X1828Y697D02*
X1879Y697D01*
X1828Y696D02*
X1882Y696D01*
X1828Y695D02*
X1885Y695D01*
X1828Y694D02*
X1888Y694D01*
X1829Y693D02*
X1891Y693D01*
X1829Y692D02*
X1894Y692D01*
X1830Y691D02*
X1897Y691D01*
X1831Y690D02*
X1900Y690D01*
X1831Y689D02*
X1903Y689D01*
X1833Y688D02*
X1906Y688D01*
X1834Y687D02*
X1909Y687D01*
X1837Y686D02*
X1912Y686D01*
X1840Y685D02*
X1915Y685D01*
X1843Y684D02*
X1918Y684D01*
X1846Y683D02*
X1921Y683D01*
X1849Y682D02*
X1924Y682D01*
X1852Y681D02*
X1927Y681D01*
X1855Y680D02*
X1930Y680D01*
X1858Y679D02*
X1933Y679D01*
X1861Y678D02*
X1936Y678D01*
X1864Y677D02*
X1939Y677D01*
X1867Y676D02*
X1942Y676D01*
X1870Y675D02*
X1945Y675D01*
X1873Y674D02*
X1948Y674D01*
X1876Y673D02*
X1951Y673D01*
X1879Y672D02*
X1954Y672D01*
X1882Y671D02*
X1957Y671D01*
X1885Y670D02*
X1960Y670D01*
X1888Y669D02*
X1963Y669D01*
X1891Y668D02*
X1966Y668D01*
X1894Y667D02*
X1969Y667D01*
X1897Y666D02*
X1972Y666D01*
X1900Y665D02*
X1975Y665D01*
X1903Y664D02*
X1978Y664D01*
X1906Y663D02*
X1981Y663D01*
X1909Y662D02*
X1984Y662D01*
X1912Y661D02*
X1987Y661D01*
X1915Y660D02*
X1990Y660D01*
X1918Y659D02*
X1993Y659D01*
X1921Y658D02*
X1996Y658D01*
X1924Y657D02*
X1999Y657D01*
X1927Y656D02*
X2002Y656D01*
X1930Y655D02*
X2005Y655D01*
X1933Y654D02*
X2008Y654D01*
X1936Y653D02*
X2011Y653D01*
X1939Y652D02*
X2014Y652D01*
X1942Y651D02*
X2017Y651D01*
X1945Y650D02*
X2020Y650D01*
X1948Y649D02*
X2023Y649D01*
X1951Y648D02*
X2026Y648D01*
X1954Y647D02*
X2029Y647D01*
X1957Y646D02*
X2032Y646D01*
X1960Y645D02*
X2035Y645D01*
X1963Y644D02*
X2038Y644D01*
X1966Y643D02*
X2041Y643D01*
X1969Y642D02*
X2044Y642D01*
X1972Y641D02*
X2047Y641D01*
X1975Y640D02*
X2050Y640D01*
X1978Y639D02*
X2053Y639D01*
X1981Y638D02*
X2056Y638D01*
X1984Y637D02*
X2059Y637D01*
X1987Y636D02*
X2062Y636D01*
X1990Y635D02*
X2065Y635D01*
X1993Y634D02*
X2068Y634D01*
X1996Y633D02*
X2071Y633D01*
X1999Y632D02*
X2074Y632D01*
X2002Y631D02*
X2077Y631D01*
X2005Y630D02*
X2080Y630D01*
X2008Y629D02*
X2083Y629D01*
X2011Y628D02*
X2086Y628D01*
X2014Y627D02*
X2089Y627D01*
X2017Y626D02*
X2092Y626D01*
X2020Y625D02*
X2095Y625D01*
X2023Y624D02*
X2098Y624D01*
X2026Y623D02*
X2101Y623D01*
X2029Y622D02*
X2104Y622D01*
X2032Y621D02*
X2107Y621D01*
X2035Y620D02*
X2110Y620D01*
X2038Y619D02*
X2113Y619D01*
X2041Y618D02*
X2116Y618D01*
X2044Y617D02*
X2119Y617D01*
X2047Y616D02*
X2122Y616D01*
X2050Y615D02*
X2125Y615D01*
X2053Y614D02*
X2128Y614D01*
X2056Y613D02*
X2131Y613D01*
X2059Y612D02*
X2134Y612D01*
X2062Y611D02*
X2137Y611D01*
X2065Y610D02*
X2140Y610D01*
X2068Y609D02*
X2143Y609D01*
X2071Y608D02*
X2145Y608D01*
X2074Y607D02*
X2146Y607D01*
X2077Y606D02*
X2147Y606D01*
X2080Y605D02*
X2148Y605D01*
X2083Y604D02*
X2149Y604D01*
X2086Y603D02*
X2149Y603D01*
X2089Y602D02*
X2150Y602D01*
X2092Y601D02*
X2150Y601D01*
X2095Y600D02*
X2150Y600D01*
X2098Y599D02*
X2151Y599D01*
X2101Y598D02*
X2151Y598D01*
X2104Y597D02*
X2151Y597D01*
X2107Y596D02*
X2151Y596D01*
X2110Y595D02*
X2150Y595D01*
X2113Y594D02*
X2150Y594D01*
X2116Y593D02*
X2150Y593D01*
X2119Y592D02*
X2149Y592D01*
X2122Y591D02*
X2149Y591D01*
X2125Y590D02*
X2148Y590D01*
X2128Y589D02*
X2147Y589D01*
X2131Y588D02*
X2146Y588D01*
X2134Y587D02*
X2144Y587D01*
X2137Y586D02*
X2141Y586D01*
X1528Y509D02*
X1601Y509D01*
X1525Y508D02*
X1604Y508D01*
X1523Y507D02*
X1606Y507D01*
X1522Y506D02*
X1607Y506D01*
X1521Y505D02*
X1608Y505D01*
X1520Y504D02*
X1609Y504D01*
X1520Y503D02*
X1609Y503D01*
X1519Y502D02*
X1610Y502D01*
X1519Y501D02*
X1610Y501D01*
X1519Y500D02*
X1610Y500D01*
X1518Y499D02*
X1610Y499D01*
X1518Y498D02*
X1611Y498D01*
X1518Y497D02*
X1611Y497D01*
X1518Y496D02*
X1611Y496D01*
X1518Y495D02*
X1610Y495D01*
X1519Y494D02*
X1610Y494D01*
X1519Y493D02*
X1610Y493D01*
X1519Y492D02*
X1609Y492D01*
X1520Y491D02*
X1609Y491D01*
X1521Y490D02*
X1608Y490D01*
X1522Y489D02*
X1607Y489D01*
X1523Y488D02*
X1606Y488D01*
X1524Y487D02*
X1605Y487D01*
X1526Y486D02*
X1603Y486D01*
D02*
G04 End of Copper1*
M02*