G04 MADE WITH FRITZING*
G04 WWW.FRITZING.ORG*
G04 DOUBLE SIDED*
G04 HOLES PLATED*
G04 CONTOUR ON CENTER OF CONTOUR VECTOR*
%ASAXBY*%
%FSLAX23Y23*%
%MOIN*%
%OFA0B0*%
%SFA1.0B1.0*%
%ADD10R,2.756380X2.755910X2.740380X2.739910*%
%ADD11C,0.008000*%
%ADD12R,0.001000X0.001000*%
%LNSILK0*%
G90*
G70*
G54D11*
X4Y2752D02*
X2752Y2752D01*
X2752Y4D01*
X4Y4D01*
X4Y2752D01*
D02*
G36*
X2081Y2687D02*
X2081Y2680D01*
X2082Y2680D01*
X2082Y2672D01*
X2084Y2672D01*
X2084Y2664D01*
X2086Y2664D01*
X2086Y2656D01*
X2081Y2656D01*
X2081Y2659D01*
X2079Y2659D01*
X2079Y2662D01*
X2077Y2662D01*
X2077Y2675D01*
X2076Y2675D01*
X2076Y2687D01*
X2081Y2687D01*
G37*
D02*
G36*
X2036Y2680D02*
X2036Y2677D01*
X2038Y2677D01*
X2038Y2674D01*
X2040Y2674D01*
X2040Y2670D01*
X2041Y2670D01*
X2041Y2665D01*
X2043Y2665D01*
X2043Y2661D01*
X2045Y2661D01*
X2045Y2657D01*
X2046Y2657D01*
X2046Y2654D01*
X2048Y2654D01*
X2048Y2649D01*
X2050Y2649D01*
X2050Y2646D01*
X2048Y2646D01*
X2048Y2644D01*
X2045Y2644D01*
X2045Y2646D01*
X2043Y2646D01*
X2043Y2651D01*
X2041Y2651D01*
X2041Y2654D01*
X2040Y2654D01*
X2040Y2657D01*
X2038Y2657D01*
X2038Y2661D01*
X2036Y2661D01*
X2036Y2665D01*
X2035Y2665D01*
X2035Y2672D01*
X2033Y2672D01*
X2033Y2675D01*
X2031Y2675D01*
X2031Y2680D01*
X2036Y2680D01*
G37*
D02*
G36*
X1984Y2652D02*
X1984Y2651D01*
X1986Y2651D01*
X1986Y2649D01*
X1987Y2649D01*
X1987Y2646D01*
X1989Y2646D01*
X1989Y2644D01*
X1990Y2644D01*
X1990Y2642D01*
X1995Y2642D01*
X1995Y2641D01*
X1997Y2641D01*
X1997Y2639D01*
X1999Y2639D01*
X1999Y2638D01*
X2002Y2638D01*
X2002Y2636D01*
X2005Y2636D01*
X2005Y2634D01*
X2007Y2634D01*
X2007Y2633D01*
X2010Y2633D01*
X2010Y2631D01*
X2013Y2631D01*
X2013Y2629D01*
X2015Y2629D01*
X2015Y2626D01*
X2010Y2626D01*
X2010Y2628D01*
X2007Y2628D01*
X2007Y2629D01*
X2004Y2629D01*
X2004Y2631D01*
X2002Y2631D01*
X2002Y2633D01*
X1999Y2633D01*
X1999Y2634D01*
X1995Y2634D01*
X1995Y2636D01*
X1992Y2636D01*
X1992Y2639D01*
X1987Y2639D01*
X1987Y2641D01*
X1986Y2641D01*
X1986Y2642D01*
X1984Y2642D01*
X1984Y2644D01*
X1981Y2644D01*
X1981Y2646D01*
X1979Y2646D01*
X1979Y2647D01*
X1977Y2647D01*
X1977Y2652D01*
X1984Y2652D01*
G37*
D02*
G36*
X2246Y2662D02*
X2246Y2661D01*
X2253Y2661D01*
X2253Y2659D01*
X2256Y2659D01*
X2256Y2657D01*
X2258Y2657D01*
X2258Y2654D01*
X2238Y2654D01*
X2238Y2652D01*
X2235Y2652D01*
X2235Y2651D01*
X2233Y2651D01*
X2233Y2649D01*
X2232Y2649D01*
X2232Y2647D01*
X2230Y2647D01*
X2230Y2644D01*
X2228Y2644D01*
X2228Y2641D01*
X2227Y2641D01*
X2227Y2634D01*
X2225Y2634D01*
X2225Y2631D01*
X2227Y2631D01*
X2227Y2623D01*
X2228Y2623D01*
X2228Y2621D01*
X2237Y2621D01*
X2237Y2619D01*
X2218Y2619D01*
X2218Y2638D01*
X2220Y2638D01*
X2220Y2644D01*
X2222Y2644D01*
X2222Y2647D01*
X2223Y2647D01*
X2223Y2651D01*
X2225Y2651D01*
X2225Y2652D01*
X2227Y2652D01*
X2227Y2654D01*
X2228Y2654D01*
X2228Y2656D01*
X2230Y2656D01*
X2230Y2659D01*
X2235Y2659D01*
X2235Y2661D01*
X2240Y2661D01*
X2240Y2662D01*
X2246Y2662D01*
G37*
D02*
G36*
X2260Y2654D02*
X2260Y2652D01*
X2261Y2652D01*
X2261Y2651D01*
X2263Y2651D01*
X2263Y2649D01*
X2264Y2649D01*
X2264Y2646D01*
X2258Y2646D01*
X2258Y2647D01*
X2256Y2647D01*
X2256Y2651D01*
X2255Y2651D01*
X2255Y2652D01*
X2250Y2652D01*
X2250Y2654D01*
X2260Y2654D01*
G37*
D02*
G36*
X2292Y2649D02*
X2292Y2647D01*
X2294Y2647D01*
X2294Y2646D01*
X2271Y2646D01*
X2271Y2647D01*
X2279Y2647D01*
X2279Y2649D01*
X2292Y2649D01*
G37*
D02*
G36*
X2296Y2646D02*
X2296Y2644D01*
X2260Y2644D01*
X2260Y2646D01*
X2296Y2646D01*
G37*
D02*
G36*
X2296Y2646D02*
X2296Y2644D01*
X2260Y2644D01*
X2260Y2646D01*
X2296Y2646D01*
G37*
D02*
G36*
X2297Y2644D02*
X2297Y2642D01*
X2299Y2642D01*
X2299Y2641D01*
X2278Y2641D01*
X2278Y2639D01*
X2269Y2639D01*
X2269Y2638D01*
X2266Y2638D01*
X2266Y2636D01*
X2264Y2636D01*
X2264Y2638D01*
X2263Y2638D01*
X2263Y2639D01*
X2261Y2639D01*
X2261Y2642D01*
X2260Y2642D01*
X2260Y2644D01*
X2297Y2644D01*
G37*
D02*
G36*
X2302Y2641D02*
X2302Y2638D01*
X2305Y2638D01*
X2305Y2634D01*
X2307Y2634D01*
X2307Y2631D01*
X2309Y2631D01*
X2309Y2621D01*
X2307Y2621D01*
X2307Y2618D01*
X2305Y2618D01*
X2305Y2616D01*
X2304Y2616D01*
X2304Y2615D01*
X2302Y2615D01*
X2302Y2611D01*
X2301Y2611D01*
X2301Y2610D01*
X2299Y2610D01*
X2299Y2608D01*
X2297Y2608D01*
X2297Y2606D01*
X2296Y2606D01*
X2296Y2605D01*
X2292Y2605D01*
X2292Y2603D01*
X2291Y2603D01*
X2291Y2601D01*
X2287Y2601D01*
X2287Y2600D01*
X2286Y2600D01*
X2286Y2597D01*
X2282Y2597D01*
X2282Y2595D01*
X2276Y2595D01*
X2276Y2593D01*
X2274Y2593D01*
X2274Y2592D01*
X2258Y2592D01*
X2258Y2593D01*
X2261Y2593D01*
X2261Y2595D01*
X2266Y2595D01*
X2266Y2597D01*
X2269Y2597D01*
X2269Y2598D01*
X2273Y2598D01*
X2273Y2601D01*
X2278Y2601D01*
X2278Y2603D01*
X2281Y2603D01*
X2281Y2605D01*
X2282Y2605D01*
X2282Y2606D01*
X2286Y2606D01*
X2286Y2608D01*
X2287Y2608D01*
X2287Y2610D01*
X2291Y2610D01*
X2291Y2611D01*
X2292Y2611D01*
X2292Y2615D01*
X2294Y2615D01*
X2294Y2616D01*
X2296Y2616D01*
X2296Y2618D01*
X2297Y2618D01*
X2297Y2619D01*
X2299Y2619D01*
X2299Y2621D01*
X2301Y2621D01*
X2301Y2631D01*
X2299Y2631D01*
X2299Y2633D01*
X2297Y2633D01*
X2297Y2634D01*
X2296Y2634D01*
X2296Y2636D01*
X2294Y2636D01*
X2294Y2638D01*
X2291Y2638D01*
X2291Y2639D01*
X2287Y2639D01*
X2287Y2641D01*
X2302Y2641D01*
G37*
D02*
G36*
X2204Y2634D02*
X2204Y2633D01*
X2205Y2633D01*
X2205Y2629D01*
X2207Y2629D01*
X2207Y2628D01*
X2209Y2628D01*
X2209Y2626D01*
X2199Y2626D01*
X2199Y2624D01*
X2191Y2624D01*
X2191Y2623D01*
X2189Y2623D01*
X2189Y2621D01*
X2186Y2621D01*
X2186Y2619D01*
X2187Y2619D01*
X2187Y2616D01*
X2174Y2616D01*
X2174Y2618D01*
X2171Y2618D01*
X2171Y2624D01*
X2173Y2624D01*
X2173Y2628D01*
X2182Y2628D01*
X2182Y2629D01*
X2186Y2629D01*
X2186Y2631D01*
X2191Y2631D01*
X2191Y2633D01*
X2197Y2633D01*
X2197Y2634D01*
X2204Y2634D01*
G37*
D02*
G36*
X2209Y2626D02*
X2209Y2623D01*
X2210Y2623D01*
X2210Y2621D01*
X2215Y2621D01*
X2215Y2619D01*
X2204Y2619D01*
X2204Y2621D01*
X2202Y2621D01*
X2202Y2623D01*
X2200Y2623D01*
X2200Y2626D01*
X2209Y2626D01*
G37*
D02*
G36*
X2260Y2619D02*
X2260Y2618D01*
X2202Y2618D01*
X2202Y2619D01*
X2260Y2619D01*
G37*
D02*
G36*
X2260Y2619D02*
X2260Y2618D01*
X2202Y2618D01*
X2202Y2619D01*
X2260Y2619D01*
G37*
D02*
G36*
X2260Y2618D02*
X2260Y2616D01*
X2197Y2616D01*
X2197Y2618D01*
X2260Y2618D01*
G37*
D02*
G36*
X2258Y2616D02*
X2258Y2615D01*
X2176Y2615D01*
X2176Y2616D01*
X2258Y2616D01*
G37*
D02*
G36*
X2258Y2616D02*
X2258Y2615D01*
X2176Y2615D01*
X2176Y2616D01*
X2258Y2616D01*
G37*
D02*
G36*
X2241Y2615D02*
X2241Y2613D01*
X2237Y2613D01*
X2237Y2611D01*
X2220Y2611D01*
X2220Y2610D01*
X2215Y2610D01*
X2215Y2608D01*
X2199Y2608D01*
X2199Y2606D01*
X2179Y2606D01*
X2179Y2608D01*
X2181Y2608D01*
X2181Y2610D01*
X2177Y2610D01*
X2177Y2611D01*
X2179Y2611D01*
X2179Y2613D01*
X2177Y2613D01*
X2177Y2615D01*
X2241Y2615D01*
G37*
D02*
G36*
X2237Y2611D02*
X2237Y2606D01*
X2238Y2606D01*
X2238Y2605D01*
X2240Y2605D01*
X2240Y2603D01*
X2241Y2603D01*
X2241Y2601D01*
X2243Y2601D01*
X2243Y2598D01*
X2245Y2598D01*
X2245Y2597D01*
X2248Y2597D01*
X2248Y2595D01*
X2250Y2595D01*
X2250Y2593D01*
X2253Y2593D01*
X2253Y2592D01*
X2238Y2592D01*
X2238Y2593D01*
X2237Y2593D01*
X2237Y2595D01*
X2235Y2595D01*
X2235Y2597D01*
X2233Y2597D01*
X2233Y2600D01*
X2232Y2600D01*
X2232Y2601D01*
X2230Y2601D01*
X2230Y2605D01*
X2228Y2605D01*
X2228Y2606D01*
X2227Y2606D01*
X2227Y2608D01*
X2225Y2608D01*
X2225Y2610D01*
X2222Y2610D01*
X2222Y2611D01*
X2237Y2611D01*
G37*
D02*
G36*
X2215Y2608D02*
X2215Y2606D01*
X2200Y2606D01*
X2200Y2608D01*
X2215Y2608D01*
G37*
D02*
G36*
X2214Y2606D02*
X2214Y2605D01*
X2179Y2605D01*
X2179Y2606D01*
X2214Y2606D01*
G37*
D02*
G36*
X2214Y2606D02*
X2214Y2605D01*
X2179Y2605D01*
X2179Y2606D01*
X2214Y2606D01*
G37*
D02*
G36*
X2212Y2605D02*
X2212Y2601D01*
X2210Y2601D01*
X2210Y2600D01*
X2209Y2600D01*
X2209Y2598D01*
X2200Y2598D01*
X2200Y2597D01*
X2196Y2597D01*
X2196Y2595D01*
X2192Y2595D01*
X2192Y2593D01*
X2184Y2593D01*
X2184Y2595D01*
X2181Y2595D01*
X2181Y2597D01*
X2179Y2597D01*
X2179Y2598D01*
X2177Y2598D01*
X2177Y2601D01*
X2179Y2601D01*
X2179Y2605D01*
X2212Y2605D01*
G37*
D02*
G36*
X2271Y2592D02*
X2271Y2590D01*
X2240Y2590D01*
X2240Y2592D01*
X2271Y2592D01*
G37*
D02*
G36*
X2271Y2592D02*
X2271Y2590D01*
X2240Y2590D01*
X2240Y2592D01*
X2271Y2592D01*
G37*
D02*
G36*
X2268Y2590D02*
X2268Y2588D01*
X2263Y2588D01*
X2263Y2587D01*
X2260Y2587D01*
X2260Y2585D01*
X2246Y2585D01*
X2246Y2587D01*
X2243Y2587D01*
X2243Y2588D01*
X2241Y2588D01*
X2241Y2590D01*
X2268Y2590D01*
G37*
D02*
G36*
X2406Y2641D02*
X2406Y2636D01*
X2404Y2636D01*
X2404Y2634D01*
X2402Y2634D01*
X2402Y2633D01*
X2401Y2633D01*
X2401Y2629D01*
X2399Y2629D01*
X2399Y2628D01*
X2397Y2628D01*
X2397Y2621D01*
X2401Y2621D01*
X2401Y2619D01*
X2412Y2619D01*
X2412Y2618D01*
X2415Y2618D01*
X2415Y2616D01*
X2417Y2616D01*
X2417Y2615D01*
X2419Y2615D01*
X2419Y2611D01*
X2402Y2611D01*
X2402Y2608D01*
X2404Y2608D01*
X2404Y2606D01*
X2387Y2606D01*
X2387Y2618D01*
X2389Y2618D01*
X2389Y2628D01*
X2391Y2628D01*
X2391Y2631D01*
X2392Y2631D01*
X2392Y2634D01*
X2394Y2634D01*
X2394Y2636D01*
X2396Y2636D01*
X2396Y2638D01*
X2397Y2638D01*
X2397Y2639D01*
X2401Y2639D01*
X2401Y2641D01*
X2406Y2641D01*
G37*
D02*
G36*
X2420Y2611D02*
X2420Y2610D01*
X2422Y2610D01*
X2422Y2606D01*
X2410Y2606D01*
X2410Y2608D01*
X2412Y2608D01*
X2412Y2611D01*
X2420Y2611D01*
G37*
D02*
G36*
X2420Y2606D02*
X2420Y2605D01*
X2387Y2605D01*
X2387Y2606D01*
X2420Y2606D01*
G37*
D02*
G36*
X2420Y2606D02*
X2420Y2605D01*
X2387Y2605D01*
X2387Y2606D01*
X2420Y2606D01*
G37*
D02*
G36*
X2420Y2605D02*
X2420Y2600D01*
X2419Y2600D01*
X2419Y2598D01*
X2397Y2598D01*
X2397Y2597D01*
X2386Y2597D01*
X2386Y2605D01*
X2420Y2605D01*
G37*
D02*
G36*
X2417Y2598D02*
X2417Y2597D01*
X2404Y2597D01*
X2404Y2598D01*
X2417Y2598D01*
G37*
D02*
G36*
X2402Y2598D02*
X2402Y2597D01*
X2399Y2597D01*
X2399Y2598D01*
X2402Y2598D01*
G37*
D02*
G36*
X2399Y2597D02*
X2399Y2593D01*
X2401Y2593D01*
X2401Y2592D01*
X2402Y2592D01*
X2402Y2588D01*
X2404Y2588D01*
X2404Y2585D01*
X2407Y2585D01*
X2407Y2583D01*
X2409Y2583D01*
X2409Y2574D01*
X2410Y2574D01*
X2410Y2572D01*
X2409Y2572D01*
X2409Y2570D01*
X2407Y2570D01*
X2407Y2567D01*
X2406Y2567D01*
X2406Y2565D01*
X2399Y2565D01*
X2399Y2574D01*
X2401Y2574D01*
X2401Y2578D01*
X2399Y2578D01*
X2399Y2582D01*
X2397Y2582D01*
X2397Y2583D01*
X2396Y2583D01*
X2396Y2585D01*
X2392Y2585D01*
X2392Y2588D01*
X2391Y2588D01*
X2391Y2590D01*
X2389Y2590D01*
X2389Y2593D01*
X2387Y2593D01*
X2387Y2595D01*
X2386Y2595D01*
X2386Y2597D01*
X2399Y2597D01*
G37*
D02*
G36*
X2486Y2636D02*
X2486Y2631D01*
X2484Y2631D01*
X2484Y2626D01*
X2483Y2626D01*
X2483Y2623D01*
X2481Y2623D01*
X2481Y2619D01*
X2479Y2619D01*
X2479Y2618D01*
X2478Y2618D01*
X2478Y2615D01*
X2476Y2615D01*
X2476Y2608D01*
X2474Y2608D01*
X2474Y2606D01*
X2473Y2606D01*
X2473Y2601D01*
X2466Y2601D01*
X2466Y2606D01*
X2468Y2606D01*
X2468Y2610D01*
X2469Y2610D01*
X2469Y2615D01*
X2471Y2615D01*
X2471Y2618D01*
X2473Y2618D01*
X2473Y2619D01*
X2474Y2619D01*
X2474Y2624D01*
X2476Y2624D01*
X2476Y2629D01*
X2478Y2629D01*
X2478Y2633D01*
X2479Y2633D01*
X2479Y2634D01*
X2481Y2634D01*
X2481Y2636D01*
X2486Y2636D01*
G37*
D02*
G36*
X1954Y2605D02*
X1954Y2603D01*
X1961Y2603D01*
X1961Y2601D01*
X1964Y2601D01*
X1964Y2600D01*
X1971Y2600D01*
X1971Y2598D01*
X1977Y2598D01*
X1977Y2597D01*
X1986Y2597D01*
X1986Y2595D01*
X1990Y2595D01*
X1990Y2593D01*
X1994Y2593D01*
X1994Y2590D01*
X1992Y2590D01*
X1992Y2588D01*
X1984Y2588D01*
X1984Y2590D01*
X1976Y2590D01*
X1976Y2592D01*
X1971Y2592D01*
X1971Y2593D01*
X1959Y2593D01*
X1959Y2595D01*
X1956Y2595D01*
X1956Y2597D01*
X1949Y2597D01*
X1949Y2598D01*
X1946Y2598D01*
X1946Y2600D01*
X1945Y2600D01*
X1945Y2603D01*
X1946Y2603D01*
X1946Y2605D01*
X1954Y2605D01*
G37*
D02*
G36*
X2524Y2580D02*
X2524Y2578D01*
X2525Y2578D01*
X2525Y2577D01*
X2524Y2577D01*
X2524Y2575D01*
X2519Y2575D01*
X2519Y2574D01*
X2515Y2574D01*
X2515Y2572D01*
X2514Y2572D01*
X2514Y2570D01*
X2510Y2570D01*
X2510Y2569D01*
X2506Y2569D01*
X2506Y2567D01*
X2501Y2567D01*
X2501Y2565D01*
X2496Y2565D01*
X2496Y2570D01*
X2499Y2570D01*
X2499Y2572D01*
X2502Y2572D01*
X2502Y2574D01*
X2506Y2574D01*
X2506Y2575D01*
X2509Y2575D01*
X2509Y2577D01*
X2515Y2577D01*
X2515Y2578D01*
X2519Y2578D01*
X2519Y2580D01*
X2524Y2580D01*
G37*
D02*
G36*
X1984Y2564D02*
X1984Y2562D01*
X1990Y2562D01*
X1990Y2559D01*
X1992Y2559D01*
X1992Y2557D01*
X1990Y2557D01*
X1990Y2556D01*
X1972Y2556D01*
X1972Y2554D01*
X1968Y2554D01*
X1968Y2552D01*
X1958Y2552D01*
X1958Y2557D01*
X1959Y2557D01*
X1959Y2559D01*
X1968Y2559D01*
X1968Y2560D01*
X1969Y2560D01*
X1969Y2562D01*
X1976Y2562D01*
X1976Y2564D01*
X1984Y2564D01*
G37*
D02*
G36*
X2241Y2695D02*
X2241Y2693D01*
X2263Y2693D01*
X2263Y2692D01*
X2271Y2692D01*
X2271Y2690D01*
X2278Y2690D01*
X2278Y2688D01*
X2225Y2688D01*
X2225Y2687D01*
X2220Y2687D01*
X2220Y2685D01*
X2210Y2685D01*
X2210Y2683D01*
X2204Y2683D01*
X2204Y2682D01*
X2199Y2682D01*
X2199Y2680D01*
X2196Y2680D01*
X2196Y2679D01*
X2192Y2679D01*
X2192Y2677D01*
X2189Y2677D01*
X2189Y2675D01*
X2184Y2675D01*
X2184Y2674D01*
X2181Y2674D01*
X2181Y2672D01*
X2179Y2672D01*
X2179Y2670D01*
X2176Y2670D01*
X2176Y2669D01*
X2174Y2669D01*
X2174Y2667D01*
X2173Y2667D01*
X2173Y2665D01*
X2171Y2665D01*
X2171Y2664D01*
X2169Y2664D01*
X2169Y2661D01*
X2168Y2661D01*
X2168Y2659D01*
X2164Y2659D01*
X2164Y2656D01*
X2163Y2656D01*
X2163Y2654D01*
X2161Y2654D01*
X2161Y2652D01*
X2159Y2652D01*
X2159Y2649D01*
X2158Y2649D01*
X2158Y2647D01*
X2156Y2647D01*
X2156Y2646D01*
X2155Y2646D01*
X2155Y2641D01*
X2153Y2641D01*
X2153Y2633D01*
X2151Y2633D01*
X2151Y2628D01*
X2153Y2628D01*
X2153Y2624D01*
X2151Y2624D01*
X2151Y2621D01*
X2153Y2621D01*
X2153Y2616D01*
X2155Y2616D01*
X2155Y2613D01*
X2156Y2613D01*
X2156Y2610D01*
X2158Y2610D01*
X2158Y2606D01*
X2159Y2606D01*
X2159Y2605D01*
X2161Y2605D01*
X2161Y2601D01*
X2163Y2601D01*
X2163Y2598D01*
X2164Y2598D01*
X2164Y2597D01*
X2166Y2597D01*
X2166Y2595D01*
X2168Y2595D01*
X2168Y2593D01*
X2171Y2593D01*
X2171Y2592D01*
X2173Y2592D01*
X2173Y2583D01*
X2171Y2583D01*
X2171Y2580D01*
X2169Y2580D01*
X2169Y2577D01*
X2168Y2577D01*
X2168Y2575D01*
X2169Y2575D01*
X2169Y2574D01*
X2158Y2574D01*
X2158Y2575D01*
X2159Y2575D01*
X2159Y2577D01*
X2161Y2577D01*
X2161Y2578D01*
X2163Y2578D01*
X2163Y2583D01*
X2164Y2583D01*
X2164Y2587D01*
X2163Y2587D01*
X2163Y2588D01*
X2161Y2588D01*
X2161Y2590D01*
X2159Y2590D01*
X2159Y2593D01*
X2156Y2593D01*
X2156Y2595D01*
X2155Y2595D01*
X2155Y2600D01*
X2153Y2600D01*
X2153Y2601D01*
X2151Y2601D01*
X2151Y2606D01*
X2150Y2606D01*
X2150Y2610D01*
X2148Y2610D01*
X2148Y2613D01*
X2146Y2613D01*
X2146Y2624D01*
X2145Y2624D01*
X2145Y2633D01*
X2146Y2633D01*
X2146Y2642D01*
X2148Y2642D01*
X2148Y2646D01*
X2150Y2646D01*
X2150Y2649D01*
X2151Y2649D01*
X2151Y2652D01*
X2153Y2652D01*
X2153Y2654D01*
X2155Y2654D01*
X2155Y2656D01*
X2156Y2656D01*
X2156Y2657D01*
X2158Y2657D01*
X2158Y2659D01*
X2159Y2659D01*
X2159Y2661D01*
X2161Y2661D01*
X2161Y2662D01*
X2163Y2662D01*
X2163Y2664D01*
X2164Y2664D01*
X2164Y2667D01*
X2166Y2667D01*
X2166Y2669D01*
X2168Y2669D01*
X2168Y2670D01*
X2169Y2670D01*
X2169Y2672D01*
X2171Y2672D01*
X2171Y2674D01*
X2173Y2674D01*
X2173Y2675D01*
X2174Y2675D01*
X2174Y2677D01*
X2177Y2677D01*
X2177Y2679D01*
X2181Y2679D01*
X2181Y2680D01*
X2184Y2680D01*
X2184Y2682D01*
X2187Y2682D01*
X2187Y2683D01*
X2191Y2683D01*
X2191Y2685D01*
X2194Y2685D01*
X2194Y2687D01*
X2200Y2687D01*
X2200Y2688D01*
X2204Y2688D01*
X2204Y2690D01*
X2209Y2690D01*
X2209Y2692D01*
X2215Y2692D01*
X2215Y2693D01*
X2240Y2693D01*
X2240Y2695D01*
X2241Y2695D01*
G37*
D02*
G36*
X2282Y2688D02*
X2282Y2687D01*
X2287Y2687D01*
X2287Y2685D01*
X2299Y2685D01*
X2299Y2683D01*
X2307Y2683D01*
X2307Y2682D01*
X2312Y2682D01*
X2312Y2680D01*
X2291Y2680D01*
X2291Y2679D01*
X2287Y2679D01*
X2287Y2680D01*
X2284Y2680D01*
X2284Y2682D01*
X2281Y2682D01*
X2281Y2683D01*
X2273Y2683D01*
X2273Y2685D01*
X2261Y2685D01*
X2261Y2687D01*
X2250Y2687D01*
X2250Y2688D01*
X2282Y2688D01*
G37*
D02*
G36*
X2317Y2680D02*
X2317Y2679D01*
X2320Y2679D01*
X2320Y2677D01*
X2322Y2677D01*
X2322Y2675D01*
X2325Y2675D01*
X2325Y2674D01*
X2327Y2674D01*
X2327Y2672D01*
X2328Y2672D01*
X2328Y2670D01*
X2330Y2670D01*
X2330Y2669D01*
X2332Y2669D01*
X2332Y2667D01*
X2333Y2667D01*
X2333Y2665D01*
X2335Y2665D01*
X2335Y2662D01*
X2337Y2662D01*
X2337Y2659D01*
X2338Y2659D01*
X2338Y2656D01*
X2340Y2656D01*
X2340Y2652D01*
X2342Y2652D01*
X2342Y2646D01*
X2343Y2646D01*
X2343Y2641D01*
X2345Y2641D01*
X2345Y2633D01*
X2346Y2633D01*
X2346Y2624D01*
X2345Y2624D01*
X2345Y2615D01*
X2343Y2615D01*
X2343Y2613D01*
X2342Y2613D01*
X2342Y2608D01*
X2340Y2608D01*
X2340Y2603D01*
X2338Y2603D01*
X2338Y2601D01*
X2337Y2601D01*
X2337Y2600D01*
X2335Y2600D01*
X2335Y2597D01*
X2333Y2597D01*
X2333Y2593D01*
X2332Y2593D01*
X2332Y2592D01*
X2330Y2592D01*
X2330Y2590D01*
X2328Y2590D01*
X2328Y2588D01*
X2325Y2588D01*
X2325Y2587D01*
X2323Y2587D01*
X2323Y2585D01*
X2322Y2585D01*
X2322Y2577D01*
X2320Y2577D01*
X2320Y2570D01*
X2319Y2570D01*
X2319Y2569D01*
X2317Y2569D01*
X2317Y2567D01*
X2315Y2567D01*
X2315Y2565D01*
X2317Y2565D01*
X2317Y2559D01*
X2319Y2559D01*
X2319Y2557D01*
X2305Y2557D01*
X2305Y2556D01*
X2304Y2556D01*
X2304Y2560D01*
X2302Y2560D01*
X2302Y2562D01*
X2301Y2562D01*
X2301Y2567D01*
X2304Y2567D01*
X2304Y2569D01*
X2307Y2569D01*
X2307Y2570D01*
X2309Y2570D01*
X2309Y2572D01*
X2310Y2572D01*
X2310Y2574D01*
X2312Y2574D01*
X2312Y2577D01*
X2314Y2577D01*
X2314Y2582D01*
X2312Y2582D01*
X2312Y2587D01*
X2314Y2587D01*
X2314Y2588D01*
X2315Y2588D01*
X2315Y2590D01*
X2319Y2590D01*
X2319Y2592D01*
X2320Y2592D01*
X2320Y2593D01*
X2322Y2593D01*
X2322Y2595D01*
X2323Y2595D01*
X2323Y2597D01*
X2327Y2597D01*
X2327Y2600D01*
X2328Y2600D01*
X2328Y2601D01*
X2330Y2601D01*
X2330Y2605D01*
X2332Y2605D01*
X2332Y2608D01*
X2333Y2608D01*
X2333Y2610D01*
X2335Y2610D01*
X2335Y2615D01*
X2337Y2615D01*
X2337Y2618D01*
X2338Y2618D01*
X2338Y2641D01*
X2337Y2641D01*
X2337Y2646D01*
X2335Y2646D01*
X2335Y2651D01*
X2333Y2651D01*
X2333Y2656D01*
X2332Y2656D01*
X2332Y2659D01*
X2330Y2659D01*
X2330Y2661D01*
X2328Y2661D01*
X2328Y2664D01*
X2327Y2664D01*
X2327Y2665D01*
X2325Y2665D01*
X2325Y2669D01*
X2323Y2669D01*
X2323Y2670D01*
X2320Y2670D01*
X2320Y2672D01*
X2317Y2672D01*
X2317Y2674D01*
X2315Y2674D01*
X2315Y2675D01*
X2310Y2675D01*
X2310Y2677D01*
X2309Y2677D01*
X2309Y2679D01*
X2301Y2679D01*
X2301Y2680D01*
X2317Y2680D01*
G37*
D02*
G36*
X2196Y2575D02*
X2196Y2574D01*
X2186Y2574D01*
X2186Y2575D01*
X2196Y2575D01*
G37*
D02*
G36*
X2184Y2575D02*
X2184Y2574D01*
X2177Y2574D01*
X2177Y2575D01*
X2184Y2575D01*
G37*
D02*
G36*
X2197Y2574D02*
X2197Y2572D01*
X2156Y2572D01*
X2156Y2574D01*
X2197Y2574D01*
G37*
D02*
G36*
X2197Y2574D02*
X2197Y2572D01*
X2156Y2572D01*
X2156Y2574D01*
X2197Y2574D01*
G37*
D02*
G36*
X2197Y2574D02*
X2197Y2572D01*
X2156Y2572D01*
X2156Y2574D01*
X2197Y2574D01*
G37*
D02*
G36*
X2197Y2572D02*
X2197Y2570D01*
X2199Y2570D01*
X2199Y2569D01*
X2174Y2569D01*
X2174Y2567D01*
X2168Y2567D01*
X2168Y2565D01*
X2161Y2565D01*
X2161Y2564D01*
X2153Y2564D01*
X2153Y2565D01*
X2150Y2565D01*
X2150Y2567D01*
X2151Y2567D01*
X2151Y2569D01*
X2153Y2569D01*
X2153Y2570D01*
X2155Y2570D01*
X2155Y2572D01*
X2197Y2572D01*
G37*
D02*
G36*
X2233Y2570D02*
X2233Y2569D01*
X2237Y2569D01*
X2237Y2567D01*
X2238Y2567D01*
X2238Y2565D01*
X2241Y2565D01*
X2241Y2564D01*
X2243Y2564D01*
X2243Y2562D01*
X2218Y2562D01*
X2218Y2564D01*
X2225Y2564D01*
X2225Y2565D01*
X2227Y2565D01*
X2227Y2569D01*
X2228Y2569D01*
X2228Y2570D01*
X2233Y2570D01*
G37*
D02*
G36*
X2202Y2569D02*
X2202Y2567D01*
X2205Y2567D01*
X2205Y2565D01*
X2209Y2565D01*
X2209Y2564D01*
X2214Y2564D01*
X2214Y2562D01*
X2197Y2562D01*
X2197Y2564D01*
X2196Y2564D01*
X2196Y2565D01*
X2194Y2565D01*
X2194Y2567D01*
X2182Y2567D01*
X2182Y2569D01*
X2202Y2569D01*
G37*
D02*
G36*
X2246Y2562D02*
X2246Y2560D01*
X2199Y2560D01*
X2199Y2562D01*
X2246Y2562D01*
G37*
D02*
G36*
X2246Y2562D02*
X2246Y2560D01*
X2199Y2560D01*
X2199Y2562D01*
X2246Y2562D01*
G37*
D02*
G36*
X2248Y2560D02*
X2248Y2559D01*
X2250Y2559D01*
X2250Y2557D01*
X2253Y2557D01*
X2253Y2556D01*
X2256Y2556D01*
X2256Y2554D01*
X2269Y2554D01*
X2269Y2552D01*
X2245Y2552D01*
X2245Y2554D01*
X2241Y2554D01*
X2241Y2556D01*
X2240Y2556D01*
X2240Y2557D01*
X2237Y2557D01*
X2237Y2559D01*
X2235Y2559D01*
X2235Y2560D01*
X2248Y2560D01*
G37*
D02*
G36*
X2232Y2560D02*
X2232Y2559D01*
X2230Y2559D01*
X2230Y2557D01*
X2227Y2557D01*
X2227Y2556D01*
X2217Y2556D01*
X2217Y2554D01*
X2212Y2554D01*
X2212Y2556D01*
X2205Y2556D01*
X2205Y2557D01*
X2202Y2557D01*
X2202Y2559D01*
X2200Y2559D01*
X2200Y2560D01*
X2232Y2560D01*
G37*
D02*
G36*
X2320Y2557D02*
X2320Y2556D01*
X2323Y2556D01*
X2323Y2554D01*
X2327Y2554D01*
X2327Y2552D01*
X2328Y2552D01*
X2328Y2551D01*
X2330Y2551D01*
X2330Y2549D01*
X2314Y2549D01*
X2314Y2551D01*
X2312Y2551D01*
X2312Y2552D01*
X2310Y2552D01*
X2310Y2554D01*
X2309Y2554D01*
X2309Y2556D01*
X2307Y2556D01*
X2307Y2557D01*
X2320Y2557D01*
G37*
D02*
G36*
X2299Y2556D02*
X2299Y2554D01*
X2302Y2554D01*
X2302Y2552D01*
X2307Y2552D01*
X2307Y2551D01*
X2292Y2551D01*
X2292Y2554D01*
X2294Y2554D01*
X2294Y2556D01*
X2299Y2556D01*
G37*
D02*
G36*
X2287Y2556D02*
X2287Y2554D01*
X2289Y2554D01*
X2289Y2552D01*
X2271Y2552D01*
X2271Y2554D01*
X2284Y2554D01*
X2284Y2556D01*
X2287Y2556D01*
G37*
D02*
G36*
X2287Y2552D02*
X2287Y2551D01*
X2246Y2551D01*
X2246Y2552D01*
X2287Y2552D01*
G37*
D02*
G36*
X2287Y2552D02*
X2287Y2551D01*
X2246Y2551D01*
X2246Y2552D01*
X2287Y2552D01*
G37*
D02*
G36*
X2312Y2551D02*
X2312Y2549D01*
X2294Y2549D01*
X2294Y2551D01*
X2312Y2551D01*
G37*
D02*
G36*
X2284Y2551D02*
X2284Y2549D01*
X2279Y2549D01*
X2279Y2547D01*
X2255Y2547D01*
X2255Y2549D01*
X2250Y2549D01*
X2250Y2551D01*
X2284Y2551D01*
G37*
D02*
G36*
X2332Y2549D02*
X2332Y2547D01*
X2296Y2547D01*
X2296Y2549D01*
X2332Y2549D01*
G37*
D02*
G36*
X2332Y2549D02*
X2332Y2547D01*
X2296Y2547D01*
X2296Y2549D01*
X2332Y2549D01*
G37*
D02*
G36*
X2335Y2547D02*
X2335Y2544D01*
X2338Y2544D01*
X2338Y2542D01*
X2340Y2542D01*
X2340Y2541D01*
X2342Y2541D01*
X2342Y2537D01*
X2343Y2537D01*
X2343Y2534D01*
X2342Y2534D01*
X2342Y2533D01*
X2333Y2533D01*
X2333Y2534D01*
X2327Y2534D01*
X2327Y2536D01*
X2323Y2536D01*
X2323Y2537D01*
X2320Y2537D01*
X2320Y2539D01*
X2315Y2539D01*
X2315Y2541D01*
X2312Y2541D01*
X2312Y2542D01*
X2307Y2542D01*
X2307Y2544D01*
X2304Y2544D01*
X2304Y2546D01*
X2301Y2546D01*
X2301Y2547D01*
X2335Y2547D01*
G37*
D02*
G36*
X2504Y2521D02*
X2504Y2519D01*
X2512Y2519D01*
X2512Y2518D01*
X2522Y2518D01*
X2522Y2516D01*
X2527Y2516D01*
X2527Y2515D01*
X2532Y2515D01*
X2532Y2513D01*
X2537Y2513D01*
X2537Y2511D01*
X2527Y2511D01*
X2527Y2510D01*
X2524Y2510D01*
X2524Y2511D01*
X2507Y2511D01*
X2507Y2513D01*
X2492Y2513D01*
X2492Y2515D01*
X2491Y2515D01*
X2491Y2519D01*
X2492Y2519D01*
X2492Y2521D01*
X2504Y2521D01*
G37*
D02*
G36*
X2540Y2511D02*
X2540Y2510D01*
X2530Y2510D01*
X2530Y2511D01*
X2540Y2511D01*
G37*
D02*
G36*
X2402Y2519D02*
X2402Y2518D01*
X2404Y2518D01*
X2404Y2515D01*
X2394Y2515D01*
X2394Y2516D01*
X2396Y2516D01*
X2396Y2518D01*
X2399Y2518D01*
X2399Y2519D01*
X2402Y2519D01*
G37*
D02*
G36*
X2389Y2519D02*
X2389Y2518D01*
X2391Y2518D01*
X2391Y2516D01*
X2392Y2516D01*
X2392Y2515D01*
X2383Y2515D01*
X2383Y2519D01*
X2389Y2519D01*
G37*
D02*
G36*
X2404Y2515D02*
X2404Y2513D01*
X2383Y2513D01*
X2383Y2515D01*
X2404Y2515D01*
G37*
D02*
G36*
X2404Y2515D02*
X2404Y2513D01*
X2383Y2513D01*
X2383Y2515D01*
X2404Y2515D01*
G37*
D02*
G36*
X2404Y2513D02*
X2404Y2511D01*
X2402Y2511D01*
X2402Y2510D01*
X2401Y2510D01*
X2401Y2508D01*
X2394Y2508D01*
X2394Y2506D01*
X2391Y2506D01*
X2391Y2508D01*
X2386Y2508D01*
X2386Y2510D01*
X2384Y2510D01*
X2384Y2511D01*
X2383Y2511D01*
X2383Y2513D01*
X2404Y2513D01*
G37*
D02*
G36*
X2260Y2482D02*
X2260Y2480D01*
X2258Y2480D01*
X2258Y2482D01*
X2260Y2482D01*
G37*
D02*
G36*
X1994Y2478D02*
X1994Y2477D01*
X1997Y2477D01*
X1997Y2472D01*
X1994Y2472D01*
X1994Y2470D01*
X1992Y2470D01*
X1992Y2469D01*
X1990Y2469D01*
X1990Y2464D01*
X1989Y2464D01*
X1989Y2455D01*
X1987Y2455D01*
X1987Y2454D01*
X1984Y2454D01*
X1984Y2457D01*
X1982Y2457D01*
X1982Y2465D01*
X1984Y2465D01*
X1984Y2472D01*
X1986Y2472D01*
X1986Y2473D01*
X1987Y2473D01*
X1987Y2475D01*
X1989Y2475D01*
X1989Y2477D01*
X1992Y2477D01*
X1992Y2478D01*
X1994Y2478D01*
G37*
D02*
G36*
X2474Y2467D02*
X2474Y2465D01*
X2479Y2465D01*
X2479Y2464D01*
X2483Y2464D01*
X2483Y2462D01*
X2486Y2462D01*
X2486Y2460D01*
X2489Y2460D01*
X2489Y2459D01*
X2491Y2459D01*
X2491Y2457D01*
X2492Y2457D01*
X2492Y2455D01*
X2494Y2455D01*
X2494Y2454D01*
X2496Y2454D01*
X2496Y2452D01*
X2499Y2452D01*
X2499Y2451D01*
X2502Y2451D01*
X2502Y2449D01*
X2504Y2449D01*
X2504Y2447D01*
X2506Y2447D01*
X2506Y2446D01*
X2507Y2446D01*
X2507Y2444D01*
X2512Y2444D01*
X2512Y2442D01*
X2514Y2442D01*
X2514Y2441D01*
X2515Y2441D01*
X2515Y2439D01*
X2517Y2439D01*
X2517Y2437D01*
X2519Y2437D01*
X2519Y2436D01*
X2522Y2436D01*
X2522Y2434D01*
X2524Y2434D01*
X2524Y2431D01*
X2522Y2431D01*
X2522Y2429D01*
X2519Y2429D01*
X2519Y2431D01*
X2515Y2431D01*
X2515Y2432D01*
X2514Y2432D01*
X2514Y2434D01*
X2510Y2434D01*
X2510Y2436D01*
X2509Y2436D01*
X2509Y2437D01*
X2506Y2437D01*
X2506Y2439D01*
X2504Y2439D01*
X2504Y2441D01*
X2499Y2441D01*
X2499Y2442D01*
X2497Y2442D01*
X2497Y2444D01*
X2494Y2444D01*
X2494Y2446D01*
X2489Y2446D01*
X2489Y2449D01*
X2488Y2449D01*
X2488Y2451D01*
X2484Y2451D01*
X2484Y2452D01*
X2483Y2452D01*
X2483Y2454D01*
X2479Y2454D01*
X2479Y2455D01*
X2478Y2455D01*
X2478Y2457D01*
X2476Y2457D01*
X2476Y2459D01*
X2473Y2459D01*
X2473Y2460D01*
X2471Y2460D01*
X2471Y2462D01*
X2468Y2462D01*
X2468Y2465D01*
X2469Y2465D01*
X2469Y2467D01*
X2474Y2467D01*
G37*
D02*
G36*
X2017Y2465D02*
X2017Y2462D01*
X2015Y2462D01*
X2015Y2460D01*
X2012Y2460D01*
X2012Y2457D01*
X2010Y2457D01*
X2010Y2455D01*
X2009Y2455D01*
X2009Y2444D01*
X2005Y2444D01*
X2005Y2442D01*
X2004Y2442D01*
X2004Y2446D01*
X2002Y2446D01*
X2002Y2457D01*
X2004Y2457D01*
X2004Y2460D01*
X2005Y2460D01*
X2005Y2462D01*
X2007Y2462D01*
X2007Y2464D01*
X2010Y2464D01*
X2010Y2465D01*
X2017Y2465D01*
G37*
D02*
G36*
X2332Y2441D02*
X2332Y2439D01*
X2333Y2439D01*
X2333Y2434D01*
X2332Y2434D01*
X2332Y2432D01*
X2333Y2432D01*
X2333Y2426D01*
X2335Y2426D01*
X2335Y2421D01*
X2337Y2421D01*
X2337Y2416D01*
X2338Y2416D01*
X2338Y2413D01*
X2340Y2413D01*
X2340Y2405D01*
X2338Y2405D01*
X2338Y2406D01*
X2335Y2406D01*
X2335Y2411D01*
X2333Y2411D01*
X2333Y2413D01*
X2332Y2413D01*
X2332Y2418D01*
X2330Y2418D01*
X2330Y2421D01*
X2328Y2421D01*
X2328Y2426D01*
X2327Y2426D01*
X2327Y2428D01*
X2328Y2428D01*
X2328Y2429D01*
X2327Y2429D01*
X2327Y2436D01*
X2328Y2436D01*
X2328Y2439D01*
X2330Y2439D01*
X2330Y2441D01*
X2332Y2441D01*
G37*
D02*
G36*
X2312Y2434D02*
X2312Y2432D01*
X2314Y2432D01*
X2314Y2428D01*
X2315Y2428D01*
X2315Y2426D01*
X2317Y2426D01*
X2317Y2419D01*
X2319Y2419D01*
X2319Y2418D01*
X2320Y2418D01*
X2320Y2416D01*
X2322Y2416D01*
X2322Y2413D01*
X2323Y2413D01*
X2323Y2410D01*
X2325Y2410D01*
X2325Y2405D01*
X2319Y2405D01*
X2319Y2406D01*
X2317Y2406D01*
X2317Y2408D01*
X2315Y2408D01*
X2315Y2410D01*
X2314Y2410D01*
X2314Y2414D01*
X2312Y2414D01*
X2312Y2418D01*
X2310Y2418D01*
X2310Y2421D01*
X2307Y2421D01*
X2307Y2428D01*
X2309Y2428D01*
X2309Y2432D01*
X2310Y2432D01*
X2310Y2434D01*
X2312Y2434D01*
G37*
D02*
G36*
X2291Y2431D02*
X2291Y2428D01*
X2292Y2428D01*
X2292Y2423D01*
X2294Y2423D01*
X2294Y2410D01*
X2296Y2410D01*
X2296Y2408D01*
X2297Y2408D01*
X2297Y2406D01*
X2299Y2406D01*
X2299Y2403D01*
X2301Y2403D01*
X2301Y2398D01*
X2294Y2398D01*
X2294Y2400D01*
X2292Y2400D01*
X2292Y2401D01*
X2291Y2401D01*
X2291Y2405D01*
X2287Y2405D01*
X2287Y2410D01*
X2286Y2410D01*
X2286Y2421D01*
X2284Y2421D01*
X2284Y2423D01*
X2286Y2423D01*
X2286Y2428D01*
X2284Y2428D01*
X2284Y2429D01*
X2287Y2429D01*
X2287Y2431D01*
X2291Y2431D01*
G37*
D02*
G36*
X2076Y2624D02*
X2076Y2623D01*
X2087Y2623D01*
X2087Y2621D01*
X2092Y2621D01*
X2092Y2619D01*
X2097Y2619D01*
X2097Y2618D01*
X2054Y2618D01*
X2054Y2616D01*
X2050Y2616D01*
X2050Y2615D01*
X2045Y2615D01*
X2045Y2613D01*
X2041Y2613D01*
X2041Y2611D01*
X2040Y2611D01*
X2040Y2606D01*
X2041Y2606D01*
X2041Y2601D01*
X2043Y2601D01*
X2043Y2600D01*
X2045Y2600D01*
X2045Y2597D01*
X2046Y2597D01*
X2046Y2595D01*
X2048Y2595D01*
X2048Y2593D01*
X2036Y2593D01*
X2036Y2590D01*
X2035Y2590D01*
X2035Y2578D01*
X2040Y2578D01*
X2040Y2577D01*
X2041Y2577D01*
X2041Y2575D01*
X2043Y2575D01*
X2043Y2570D01*
X2045Y2570D01*
X2045Y2567D01*
X2041Y2567D01*
X2041Y2564D01*
X2043Y2564D01*
X2043Y2562D01*
X2045Y2562D01*
X2045Y2559D01*
X2033Y2559D01*
X2033Y2557D01*
X2025Y2557D01*
X2025Y2565D01*
X2027Y2565D01*
X2027Y2583D01*
X2028Y2583D01*
X2028Y2615D01*
X2030Y2615D01*
X2030Y2616D01*
X2035Y2616D01*
X2035Y2618D01*
X2040Y2618D01*
X2040Y2619D01*
X2045Y2619D01*
X2045Y2621D01*
X2054Y2621D01*
X2054Y2623D01*
X2063Y2623D01*
X2063Y2624D01*
X2076Y2624D01*
G37*
D02*
G36*
X2104Y2618D02*
X2104Y2616D01*
X2107Y2616D01*
X2107Y2615D01*
X2110Y2615D01*
X2110Y2613D01*
X2112Y2613D01*
X2112Y2611D01*
X2114Y2611D01*
X2114Y2610D01*
X2117Y2610D01*
X2117Y2606D01*
X2120Y2606D01*
X2120Y2605D01*
X2122Y2605D01*
X2122Y2603D01*
X2123Y2603D01*
X2123Y2600D01*
X2125Y2600D01*
X2125Y2597D01*
X2127Y2597D01*
X2127Y2593D01*
X2128Y2593D01*
X2128Y2587D01*
X2130Y2587D01*
X2130Y2582D01*
X2128Y2582D01*
X2128Y2580D01*
X2130Y2580D01*
X2130Y2577D01*
X2128Y2577D01*
X2128Y2569D01*
X2127Y2569D01*
X2127Y2559D01*
X2117Y2559D01*
X2117Y2557D01*
X2114Y2557D01*
X2114Y2556D01*
X2094Y2556D01*
X2094Y2557D01*
X2097Y2557D01*
X2097Y2559D01*
X2104Y2559D01*
X2104Y2560D01*
X2107Y2560D01*
X2107Y2562D01*
X2109Y2562D01*
X2109Y2564D01*
X2110Y2564D01*
X2110Y2565D01*
X2114Y2565D01*
X2114Y2567D01*
X2115Y2567D01*
X2115Y2569D01*
X2117Y2569D01*
X2117Y2574D01*
X2118Y2574D01*
X2118Y2578D01*
X2120Y2578D01*
X2120Y2582D01*
X2118Y2582D01*
X2118Y2583D01*
X2120Y2583D01*
X2120Y2587D01*
X2118Y2587D01*
X2118Y2588D01*
X2120Y2588D01*
X2120Y2592D01*
X2118Y2592D01*
X2118Y2597D01*
X2117Y2597D01*
X2117Y2600D01*
X2115Y2600D01*
X2115Y2601D01*
X2114Y2601D01*
X2114Y2605D01*
X2110Y2605D01*
X2110Y2606D01*
X2107Y2606D01*
X2107Y2608D01*
X2105Y2608D01*
X2105Y2610D01*
X2102Y2610D01*
X2102Y2611D01*
X2100Y2611D01*
X2100Y2613D01*
X2097Y2613D01*
X2097Y2615D01*
X2091Y2615D01*
X2091Y2616D01*
X2084Y2616D01*
X2084Y2618D01*
X2104Y2618D01*
G37*
D02*
G36*
X2048Y2593D02*
X2048Y2592D01*
X2050Y2592D01*
X2050Y2590D01*
X2053Y2590D01*
X2053Y2587D01*
X2054Y2587D01*
X2054Y2585D01*
X2056Y2585D01*
X2056Y2582D01*
X2058Y2582D01*
X2058Y2578D01*
X2059Y2578D01*
X2059Y2577D01*
X2061Y2577D01*
X2061Y2575D01*
X2063Y2575D01*
X2063Y2574D01*
X2064Y2574D01*
X2064Y2572D01*
X2066Y2572D01*
X2066Y2570D01*
X2068Y2570D01*
X2068Y2567D01*
X2071Y2567D01*
X2071Y2565D01*
X2072Y2565D01*
X2072Y2564D01*
X2074Y2564D01*
X2074Y2562D01*
X2076Y2562D01*
X2076Y2559D01*
X2079Y2559D01*
X2079Y2557D01*
X2089Y2557D01*
X2089Y2556D01*
X2069Y2556D01*
X2069Y2557D01*
X2068Y2557D01*
X2068Y2559D01*
X2066Y2559D01*
X2066Y2560D01*
X2064Y2560D01*
X2064Y2564D01*
X2063Y2564D01*
X2063Y2565D01*
X2061Y2565D01*
X2061Y2567D01*
X2059Y2567D01*
X2059Y2569D01*
X2058Y2569D01*
X2058Y2570D01*
X2056Y2570D01*
X2056Y2572D01*
X2054Y2572D01*
X2054Y2574D01*
X2053Y2574D01*
X2053Y2575D01*
X2051Y2575D01*
X2051Y2578D01*
X2050Y2578D01*
X2050Y2580D01*
X2048Y2580D01*
X2048Y2583D01*
X2046Y2583D01*
X2046Y2585D01*
X2045Y2585D01*
X2045Y2587D01*
X2043Y2587D01*
X2043Y2588D01*
X2041Y2588D01*
X2041Y2590D01*
X2038Y2590D01*
X2038Y2593D01*
X2048Y2593D01*
G37*
D02*
G36*
X2389Y2582D02*
X2389Y2580D01*
X2392Y2580D01*
X2392Y2577D01*
X2389Y2577D01*
X2389Y2575D01*
X2387Y2575D01*
X2387Y2574D01*
X2386Y2574D01*
X2386Y2570D01*
X2384Y2570D01*
X2384Y2567D01*
X2383Y2567D01*
X2383Y2565D01*
X2386Y2565D01*
X2386Y2562D01*
X2387Y2562D01*
X2387Y2559D01*
X2389Y2559D01*
X2389Y2557D01*
X2392Y2557D01*
X2392Y2556D01*
X2394Y2556D01*
X2394Y2554D01*
X2397Y2554D01*
X2397Y2552D01*
X2366Y2552D01*
X2366Y2556D01*
X2368Y2556D01*
X2368Y2559D01*
X2369Y2559D01*
X2369Y2565D01*
X2371Y2565D01*
X2371Y2570D01*
X2373Y2570D01*
X2373Y2574D01*
X2374Y2574D01*
X2374Y2575D01*
X2378Y2575D01*
X2378Y2577D01*
X2379Y2577D01*
X2379Y2578D01*
X2383Y2578D01*
X2383Y2580D01*
X2386Y2580D01*
X2386Y2582D01*
X2389Y2582D01*
G37*
D02*
G36*
X2420Y2578D02*
X2420Y2577D01*
X2424Y2577D01*
X2424Y2575D01*
X2425Y2575D01*
X2425Y2574D01*
X2427Y2574D01*
X2427Y2572D01*
X2428Y2572D01*
X2428Y2570D01*
X2430Y2570D01*
X2430Y2567D01*
X2432Y2567D01*
X2432Y2564D01*
X2433Y2564D01*
X2433Y2554D01*
X2435Y2554D01*
X2435Y2552D01*
X2414Y2552D01*
X2414Y2554D01*
X2420Y2554D01*
X2420Y2557D01*
X2424Y2557D01*
X2424Y2560D01*
X2422Y2560D01*
X2422Y2562D01*
X2424Y2562D01*
X2424Y2564D01*
X2420Y2564D01*
X2420Y2567D01*
X2419Y2567D01*
X2419Y2569D01*
X2417Y2569D01*
X2417Y2570D01*
X2414Y2570D01*
X2414Y2574D01*
X2412Y2574D01*
X2412Y2577D01*
X2414Y2577D01*
X2414Y2578D01*
X2420Y2578D01*
G37*
D02*
G36*
X2127Y2559D02*
X2127Y2549D01*
X2125Y2549D01*
X2125Y2534D01*
X2123Y2534D01*
X2123Y2533D01*
X2125Y2533D01*
X2125Y2531D01*
X2123Y2531D01*
X2123Y2526D01*
X2122Y2526D01*
X2122Y2523D01*
X2120Y2523D01*
X2120Y2519D01*
X2118Y2519D01*
X2118Y2518D01*
X2120Y2518D01*
X2120Y2515D01*
X2118Y2515D01*
X2118Y2511D01*
X2120Y2511D01*
X2120Y2510D01*
X2123Y2510D01*
X2123Y2508D01*
X2127Y2508D01*
X2127Y2506D01*
X2128Y2506D01*
X2128Y2505D01*
X2130Y2505D01*
X2130Y2503D01*
X2110Y2503D01*
X2110Y2501D01*
X2109Y2501D01*
X2109Y2500D01*
X2107Y2500D01*
X2107Y2496D01*
X2105Y2496D01*
X2105Y2495D01*
X2104Y2495D01*
X2104Y2493D01*
X2091Y2493D01*
X2091Y2495D01*
X2092Y2495D01*
X2092Y2496D01*
X2095Y2496D01*
X2095Y2498D01*
X2097Y2498D01*
X2097Y2500D01*
X2099Y2500D01*
X2099Y2501D01*
X2100Y2501D01*
X2100Y2503D01*
X2102Y2503D01*
X2102Y2505D01*
X2104Y2505D01*
X2104Y2508D01*
X2105Y2508D01*
X2105Y2511D01*
X2104Y2511D01*
X2104Y2516D01*
X2105Y2516D01*
X2105Y2518D01*
X2112Y2518D01*
X2112Y2519D01*
X2114Y2519D01*
X2114Y2524D01*
X2115Y2524D01*
X2115Y2528D01*
X2117Y2528D01*
X2117Y2533D01*
X2118Y2533D01*
X2118Y2559D01*
X2127Y2559D01*
G37*
D02*
G36*
X2058Y2559D02*
X2058Y2557D01*
X2059Y2557D01*
X2059Y2556D01*
X2053Y2556D01*
X2053Y2559D01*
X2058Y2559D01*
G37*
D02*
G36*
X2046Y2559D02*
X2046Y2557D01*
X2035Y2557D01*
X2035Y2559D01*
X2046Y2559D01*
G37*
D02*
G36*
X2050Y2557D02*
X2050Y2556D01*
X2025Y2556D01*
X2025Y2557D01*
X2050Y2557D01*
G37*
D02*
G36*
X2050Y2557D02*
X2050Y2556D01*
X2025Y2556D01*
X2025Y2557D01*
X2050Y2557D01*
G37*
D02*
G36*
X2110Y2556D02*
X2110Y2554D01*
X2072Y2554D01*
X2072Y2556D01*
X2110Y2556D01*
G37*
D02*
G36*
X2110Y2556D02*
X2110Y2554D01*
X2072Y2554D01*
X2072Y2556D01*
X2110Y2556D01*
G37*
D02*
G36*
X2059Y2556D02*
X2059Y2554D01*
X2040Y2554D01*
X2040Y2556D01*
X2059Y2556D01*
G37*
D02*
G36*
X2059Y2556D02*
X2059Y2554D01*
X2040Y2554D01*
X2040Y2556D01*
X2059Y2556D01*
G37*
D02*
G36*
X2033Y2556D02*
X2033Y2552D01*
X2035Y2552D01*
X2035Y2551D01*
X2036Y2551D01*
X2036Y2549D01*
X2038Y2549D01*
X2038Y2547D01*
X2040Y2547D01*
X2040Y2546D01*
X2045Y2546D01*
X2045Y2544D01*
X2046Y2544D01*
X2046Y2541D01*
X2048Y2541D01*
X2048Y2537D01*
X2035Y2537D01*
X2035Y2534D01*
X2036Y2534D01*
X2036Y2533D01*
X2035Y2533D01*
X2035Y2531D01*
X2036Y2531D01*
X2036Y2528D01*
X2038Y2528D01*
X2038Y2524D01*
X2040Y2524D01*
X2040Y2523D01*
X2043Y2523D01*
X2043Y2521D01*
X2046Y2521D01*
X2046Y2519D01*
X2048Y2519D01*
X2048Y2518D01*
X2050Y2518D01*
X2050Y2515D01*
X2051Y2515D01*
X2051Y2513D01*
X2053Y2513D01*
X2053Y2511D01*
X2054Y2511D01*
X2054Y2510D01*
X2058Y2510D01*
X2058Y2508D01*
X2059Y2508D01*
X2059Y2505D01*
X2063Y2505D01*
X2063Y2503D01*
X2064Y2503D01*
X2064Y2501D01*
X2068Y2501D01*
X2068Y2500D01*
X2069Y2500D01*
X2069Y2498D01*
X2071Y2498D01*
X2071Y2496D01*
X2072Y2496D01*
X2072Y2495D01*
X2076Y2495D01*
X2076Y2493D01*
X2061Y2493D01*
X2061Y2495D01*
X2059Y2495D01*
X2059Y2498D01*
X2056Y2498D01*
X2056Y2501D01*
X2053Y2501D01*
X2053Y2503D01*
X2051Y2503D01*
X2051Y2505D01*
X2050Y2505D01*
X2050Y2506D01*
X2048Y2506D01*
X2048Y2508D01*
X2046Y2508D01*
X2046Y2510D01*
X2045Y2510D01*
X2045Y2511D01*
X2041Y2511D01*
X2041Y2513D01*
X2038Y2513D01*
X2038Y2515D01*
X2036Y2515D01*
X2036Y2518D01*
X2035Y2518D01*
X2035Y2519D01*
X2033Y2519D01*
X2033Y2523D01*
X2031Y2523D01*
X2031Y2524D01*
X2030Y2524D01*
X2030Y2526D01*
X2028Y2526D01*
X2028Y2531D01*
X2027Y2531D01*
X2027Y2533D01*
X2028Y2533D01*
X2028Y2539D01*
X2027Y2539D01*
X2027Y2546D01*
X2025Y2546D01*
X2025Y2547D01*
X2027Y2547D01*
X2027Y2551D01*
X2025Y2551D01*
X2025Y2556D01*
X2033Y2556D01*
G37*
D02*
G36*
X2107Y2554D02*
X2107Y2552D01*
X2102Y2552D01*
X2102Y2551D01*
X2099Y2551D01*
X2099Y2549D01*
X2097Y2549D01*
X2097Y2547D01*
X2094Y2547D01*
X2094Y2546D01*
X2092Y2546D01*
X2092Y2544D01*
X2091Y2544D01*
X2091Y2539D01*
X2089Y2539D01*
X2089Y2534D01*
X2091Y2534D01*
X2091Y2533D01*
X2089Y2533D01*
X2089Y2521D01*
X2091Y2521D01*
X2091Y2519D01*
X2089Y2519D01*
X2089Y2510D01*
X2087Y2510D01*
X2087Y2495D01*
X2089Y2495D01*
X2089Y2493D01*
X2077Y2493D01*
X2077Y2496D01*
X2079Y2496D01*
X2079Y2501D01*
X2081Y2501D01*
X2081Y2503D01*
X2079Y2503D01*
X2079Y2506D01*
X2081Y2506D01*
X2081Y2516D01*
X2082Y2516D01*
X2082Y2544D01*
X2081Y2544D01*
X2081Y2549D01*
X2079Y2549D01*
X2079Y2551D01*
X2077Y2551D01*
X2077Y2552D01*
X2076Y2552D01*
X2076Y2554D01*
X2107Y2554D01*
G37*
D02*
G36*
X2061Y2554D02*
X2061Y2552D01*
X2064Y2552D01*
X2064Y2551D01*
X2066Y2551D01*
X2066Y2549D01*
X2068Y2549D01*
X2068Y2547D01*
X2066Y2547D01*
X2066Y2546D01*
X2061Y2546D01*
X2061Y2547D01*
X2058Y2547D01*
X2058Y2549D01*
X2056Y2549D01*
X2056Y2551D01*
X2054Y2551D01*
X2054Y2552D01*
X2053Y2552D01*
X2053Y2554D01*
X2061Y2554D01*
G37*
D02*
G36*
X2051Y2554D02*
X2051Y2552D01*
X2050Y2552D01*
X2050Y2551D01*
X2045Y2551D01*
X2045Y2552D01*
X2041Y2552D01*
X2041Y2554D01*
X2051Y2554D01*
G37*
D02*
G36*
X2435Y2552D02*
X2435Y2551D01*
X2366Y2551D01*
X2366Y2552D01*
X2435Y2552D01*
G37*
D02*
G36*
X2435Y2552D02*
X2435Y2551D01*
X2366Y2551D01*
X2366Y2552D01*
X2435Y2552D01*
G37*
D02*
G36*
X2433Y2551D02*
X2433Y2547D01*
X2432Y2547D01*
X2432Y2546D01*
X2433Y2546D01*
X2433Y2544D01*
X2373Y2544D01*
X2373Y2539D01*
X2371Y2539D01*
X2371Y2537D01*
X2369Y2537D01*
X2369Y2533D01*
X2368Y2533D01*
X2368Y2528D01*
X2366Y2528D01*
X2366Y2523D01*
X2364Y2523D01*
X2364Y2519D01*
X2363Y2519D01*
X2363Y2516D01*
X2361Y2516D01*
X2361Y2513D01*
X2360Y2513D01*
X2360Y2506D01*
X2358Y2506D01*
X2358Y2503D01*
X2356Y2503D01*
X2356Y2496D01*
X2355Y2496D01*
X2355Y2492D01*
X2353Y2492D01*
X2353Y2487D01*
X2338Y2487D01*
X2338Y2485D01*
X2332Y2485D01*
X2332Y2483D01*
X2299Y2483D01*
X2299Y2485D01*
X2309Y2485D01*
X2309Y2487D01*
X2319Y2487D01*
X2319Y2488D01*
X2325Y2488D01*
X2325Y2490D01*
X2330Y2490D01*
X2330Y2492D01*
X2333Y2492D01*
X2333Y2493D01*
X2338Y2493D01*
X2338Y2495D01*
X2342Y2495D01*
X2342Y2496D01*
X2345Y2496D01*
X2345Y2500D01*
X2346Y2500D01*
X2346Y2501D01*
X2348Y2501D01*
X2348Y2506D01*
X2350Y2506D01*
X2350Y2510D01*
X2351Y2510D01*
X2351Y2515D01*
X2353Y2515D01*
X2353Y2519D01*
X2355Y2519D01*
X2355Y2524D01*
X2356Y2524D01*
X2356Y2526D01*
X2358Y2526D01*
X2358Y2533D01*
X2360Y2533D01*
X2360Y2537D01*
X2361Y2537D01*
X2361Y2542D01*
X2363Y2542D01*
X2363Y2544D01*
X2364Y2544D01*
X2364Y2549D01*
X2366Y2549D01*
X2366Y2551D01*
X2433Y2551D01*
G37*
D02*
G36*
X2432Y2544D02*
X2432Y2541D01*
X2383Y2541D01*
X2383Y2539D01*
X2381Y2539D01*
X2381Y2541D01*
X2379Y2541D01*
X2379Y2542D01*
X2376Y2542D01*
X2376Y2544D01*
X2432Y2544D01*
G37*
D02*
G36*
X2432Y2541D02*
X2432Y2537D01*
X2430Y2537D01*
X2430Y2534D01*
X2428Y2534D01*
X2428Y2529D01*
X2427Y2529D01*
X2427Y2528D01*
X2425Y2528D01*
X2425Y2523D01*
X2424Y2523D01*
X2424Y2521D01*
X2422Y2521D01*
X2422Y2516D01*
X2420Y2516D01*
X2420Y2511D01*
X2419Y2511D01*
X2419Y2508D01*
X2417Y2508D01*
X2417Y2505D01*
X2415Y2505D01*
X2415Y2503D01*
X2417Y2503D01*
X2417Y2501D01*
X2420Y2501D01*
X2420Y2500D01*
X2424Y2500D01*
X2424Y2498D01*
X2425Y2498D01*
X2425Y2496D01*
X2427Y2496D01*
X2427Y2495D01*
X2428Y2495D01*
X2428Y2492D01*
X2430Y2492D01*
X2430Y2487D01*
X2412Y2487D01*
X2412Y2488D01*
X2415Y2488D01*
X2415Y2492D01*
X2410Y2492D01*
X2410Y2493D01*
X2406Y2493D01*
X2406Y2495D01*
X2404Y2495D01*
X2404Y2496D01*
X2402Y2496D01*
X2402Y2498D01*
X2401Y2498D01*
X2401Y2503D01*
X2402Y2503D01*
X2402Y2506D01*
X2406Y2506D01*
X2406Y2510D01*
X2407Y2510D01*
X2407Y2511D01*
X2409Y2511D01*
X2409Y2515D01*
X2410Y2515D01*
X2410Y2518D01*
X2412Y2518D01*
X2412Y2523D01*
X2414Y2523D01*
X2414Y2526D01*
X2415Y2526D01*
X2415Y2529D01*
X2414Y2529D01*
X2414Y2531D01*
X2409Y2531D01*
X2409Y2533D01*
X2399Y2533D01*
X2399Y2534D01*
X2394Y2534D01*
X2394Y2536D01*
X2391Y2536D01*
X2391Y2537D01*
X2387Y2537D01*
X2387Y2539D01*
X2384Y2539D01*
X2384Y2541D01*
X2432Y2541D01*
G37*
D02*
G36*
X2046Y2537D02*
X2046Y2536D01*
X2041Y2536D01*
X2041Y2537D01*
X2046Y2537D01*
G37*
D02*
G36*
X2040Y2537D02*
X2040Y2536D01*
X2038Y2536D01*
X2038Y2537D01*
X2040Y2537D01*
G37*
D02*
G36*
X2243Y2511D02*
X2243Y2510D01*
X2232Y2510D01*
X2232Y2511D01*
X2243Y2511D01*
G37*
D02*
G36*
X2228Y2511D02*
X2228Y2510D01*
X2214Y2510D01*
X2214Y2511D01*
X2228Y2511D01*
G37*
D02*
G36*
X2245Y2510D02*
X2245Y2508D01*
X2209Y2508D01*
X2209Y2510D01*
X2245Y2510D01*
G37*
D02*
G36*
X2245Y2510D02*
X2245Y2508D01*
X2209Y2508D01*
X2209Y2510D01*
X2245Y2510D01*
G37*
D02*
G36*
X2248Y2508D02*
X2248Y2506D01*
X2250Y2506D01*
X2250Y2505D01*
X2212Y2505D01*
X2212Y2503D01*
X2209Y2503D01*
X2209Y2501D01*
X2205Y2501D01*
X2205Y2498D01*
X2204Y2498D01*
X2204Y2496D01*
X2202Y2496D01*
X2202Y2495D01*
X2163Y2495D01*
X2163Y2496D01*
X2187Y2496D01*
X2187Y2498D01*
X2189Y2498D01*
X2189Y2500D01*
X2191Y2500D01*
X2191Y2501D01*
X2194Y2501D01*
X2194Y2503D01*
X2197Y2503D01*
X2197Y2505D01*
X2200Y2505D01*
X2200Y2506D01*
X2202Y2506D01*
X2202Y2508D01*
X2248Y2508D01*
G37*
D02*
G36*
X2253Y2505D02*
X2253Y2503D01*
X2238Y2503D01*
X2238Y2496D01*
X2241Y2496D01*
X2241Y2493D01*
X2243Y2493D01*
X2243Y2490D01*
X2245Y2490D01*
X2245Y2487D01*
X2243Y2487D01*
X2243Y2485D01*
X2238Y2485D01*
X2238Y2483D01*
X2232Y2483D01*
X2232Y2482D01*
X2230Y2482D01*
X2230Y2480D01*
X2228Y2480D01*
X2228Y2473D01*
X2218Y2473D01*
X2218Y2487D01*
X2220Y2487D01*
X2220Y2488D01*
X2223Y2488D01*
X2223Y2490D01*
X2227Y2490D01*
X2227Y2492D01*
X2230Y2492D01*
X2230Y2495D01*
X2228Y2495D01*
X2228Y2496D01*
X2227Y2496D01*
X2227Y2500D01*
X2225Y2500D01*
X2225Y2503D01*
X2223Y2503D01*
X2223Y2505D01*
X2253Y2505D01*
G37*
D02*
G36*
X2255Y2503D02*
X2255Y2501D01*
X2256Y2501D01*
X2256Y2500D01*
X2258Y2500D01*
X2258Y2496D01*
X2260Y2496D01*
X2260Y2493D01*
X2261Y2493D01*
X2261Y2492D01*
X2263Y2492D01*
X2263Y2490D01*
X2264Y2490D01*
X2264Y2488D01*
X2266Y2488D01*
X2266Y2487D01*
X2268Y2487D01*
X2268Y2485D01*
X2271Y2485D01*
X2271Y2483D01*
X2260Y2483D01*
X2260Y2485D01*
X2258Y2485D01*
X2258Y2490D01*
X2256Y2490D01*
X2256Y2492D01*
X2253Y2492D01*
X2253Y2493D01*
X2251Y2493D01*
X2251Y2495D01*
X2250Y2495D01*
X2250Y2496D01*
X2248Y2496D01*
X2248Y2500D01*
X2245Y2500D01*
X2245Y2501D01*
X2240Y2501D01*
X2240Y2503D01*
X2255Y2503D01*
G37*
D02*
G36*
X2133Y2503D02*
X2133Y2501D01*
X2136Y2501D01*
X2136Y2500D01*
X2140Y2500D01*
X2140Y2498D01*
X2148Y2498D01*
X2148Y2496D01*
X2155Y2496D01*
X2155Y2495D01*
X2128Y2495D01*
X2128Y2496D01*
X2127Y2496D01*
X2127Y2498D01*
X2123Y2498D01*
X2123Y2500D01*
X2120Y2500D01*
X2120Y2501D01*
X2117Y2501D01*
X2117Y2503D01*
X2133Y2503D01*
G37*
D02*
G36*
X2396Y2500D02*
X2396Y2498D01*
X2399Y2498D01*
X2399Y2493D01*
X2401Y2493D01*
X2401Y2492D01*
X2402Y2492D01*
X2402Y2488D01*
X2410Y2488D01*
X2410Y2487D01*
X2392Y2487D01*
X2392Y2488D01*
X2391Y2488D01*
X2391Y2490D01*
X2389Y2490D01*
X2389Y2498D01*
X2391Y2498D01*
X2391Y2500D01*
X2396Y2500D01*
G37*
D02*
G36*
X2197Y2495D02*
X2197Y2493D01*
X2132Y2493D01*
X2132Y2495D01*
X2197Y2495D01*
G37*
D02*
G36*
X2197Y2495D02*
X2197Y2493D01*
X2132Y2493D01*
X2132Y2495D01*
X2197Y2495D01*
G37*
D02*
G36*
X2197Y2493D02*
X2197Y2492D01*
X2196Y2492D01*
X2196Y2490D01*
X2161Y2490D01*
X2161Y2488D01*
X2148Y2488D01*
X2148Y2490D01*
X2141Y2490D01*
X2141Y2492D01*
X2136Y2492D01*
X2136Y2493D01*
X2197Y2493D01*
G37*
D02*
G36*
X2100Y2493D02*
X2100Y2492D01*
X2059Y2492D01*
X2059Y2493D01*
X2100Y2493D01*
G37*
D02*
G36*
X2100Y2493D02*
X2100Y2492D01*
X2059Y2492D01*
X2059Y2493D01*
X2100Y2493D01*
G37*
D02*
G36*
X2100Y2493D02*
X2100Y2492D01*
X2059Y2492D01*
X2059Y2493D01*
X2100Y2493D01*
G37*
D02*
G36*
X2100Y2492D02*
X2100Y2490D01*
X2099Y2490D01*
X2099Y2488D01*
X2066Y2488D01*
X2066Y2487D01*
X2064Y2487D01*
X2064Y2485D01*
X2063Y2485D01*
X2063Y2482D01*
X2061Y2482D01*
X2061Y2480D01*
X2059Y2480D01*
X2059Y2475D01*
X2058Y2475D01*
X2058Y2472D01*
X2056Y2472D01*
X2056Y2460D01*
X2058Y2460D01*
X2058Y2454D01*
X2059Y2454D01*
X2059Y2449D01*
X2061Y2449D01*
X2061Y2446D01*
X2063Y2446D01*
X2063Y2442D01*
X2064Y2442D01*
X2064Y2441D01*
X2066Y2441D01*
X2066Y2437D01*
X2068Y2437D01*
X2068Y2436D01*
X2069Y2436D01*
X2069Y2432D01*
X2058Y2432D01*
X2058Y2437D01*
X2056Y2437D01*
X2056Y2444D01*
X2054Y2444D01*
X2054Y2446D01*
X2053Y2446D01*
X2053Y2447D01*
X2051Y2447D01*
X2051Y2457D01*
X2050Y2457D01*
X2050Y2460D01*
X2048Y2460D01*
X2048Y2472D01*
X2050Y2472D01*
X2050Y2477D01*
X2051Y2477D01*
X2051Y2482D01*
X2053Y2482D01*
X2053Y2483D01*
X2054Y2483D01*
X2054Y2487D01*
X2056Y2487D01*
X2056Y2488D01*
X2058Y2488D01*
X2058Y2492D01*
X2100Y2492D01*
G37*
D02*
G36*
X2196Y2490D02*
X2196Y2487D01*
X2197Y2487D01*
X2197Y2483D01*
X2200Y2483D01*
X2200Y2480D01*
X2202Y2480D01*
X2202Y2478D01*
X2205Y2478D01*
X2205Y2477D01*
X2207Y2477D01*
X2207Y2475D01*
X2212Y2475D01*
X2212Y2473D01*
X2196Y2473D01*
X2196Y2475D01*
X2194Y2475D01*
X2194Y2477D01*
X2192Y2477D01*
X2192Y2478D01*
X2191Y2478D01*
X2191Y2482D01*
X2189Y2482D01*
X2189Y2485D01*
X2186Y2485D01*
X2186Y2488D01*
X2184Y2488D01*
X2184Y2490D01*
X2196Y2490D01*
G37*
D02*
G36*
X2097Y2488D02*
X2097Y2487D01*
X2094Y2487D01*
X2094Y2483D01*
X2086Y2483D01*
X2086Y2482D01*
X2076Y2482D01*
X2076Y2483D01*
X2072Y2483D01*
X2072Y2487D01*
X2068Y2487D01*
X2068Y2488D01*
X2097Y2488D01*
G37*
D02*
G36*
X2428Y2487D02*
X2428Y2485D01*
X2392Y2485D01*
X2392Y2487D01*
X2428Y2487D01*
G37*
D02*
G36*
X2428Y2487D02*
X2428Y2485D01*
X2392Y2485D01*
X2392Y2487D01*
X2428Y2487D01*
G37*
D02*
G36*
X2351Y2487D02*
X2351Y2483D01*
X2350Y2483D01*
X2350Y2475D01*
X2348Y2475D01*
X2348Y2470D01*
X2350Y2470D01*
X2350Y2467D01*
X2351Y2467D01*
X2351Y2465D01*
X2353Y2465D01*
X2353Y2464D01*
X2355Y2464D01*
X2355Y2462D01*
X2356Y2462D01*
X2356Y2460D01*
X2361Y2460D01*
X2361Y2459D01*
X2366Y2459D01*
X2366Y2457D01*
X2374Y2457D01*
X2374Y2455D01*
X2348Y2455D01*
X2348Y2457D01*
X2346Y2457D01*
X2346Y2459D01*
X2345Y2459D01*
X2345Y2462D01*
X2343Y2462D01*
X2343Y2464D01*
X2342Y2464D01*
X2342Y2465D01*
X2340Y2465D01*
X2340Y2470D01*
X2338Y2470D01*
X2338Y2472D01*
X2340Y2472D01*
X2340Y2475D01*
X2338Y2475D01*
X2338Y2478D01*
X2340Y2478D01*
X2340Y2487D01*
X2351Y2487D01*
G37*
D02*
G36*
X2427Y2485D02*
X2427Y2483D01*
X2424Y2483D01*
X2424Y2482D01*
X2415Y2482D01*
X2415Y2480D01*
X2406Y2480D01*
X2406Y2478D01*
X2402Y2478D01*
X2402Y2477D01*
X2401Y2477D01*
X2401Y2473D01*
X2399Y2473D01*
X2399Y2470D01*
X2397Y2470D01*
X2397Y2465D01*
X2396Y2465D01*
X2396Y2460D01*
X2394Y2460D01*
X2394Y2459D01*
X2392Y2459D01*
X2392Y2455D01*
X2383Y2455D01*
X2383Y2457D01*
X2384Y2457D01*
X2384Y2462D01*
X2386Y2462D01*
X2386Y2465D01*
X2387Y2465D01*
X2387Y2472D01*
X2389Y2472D01*
X2389Y2475D01*
X2391Y2475D01*
X2391Y2478D01*
X2392Y2478D01*
X2392Y2483D01*
X2394Y2483D01*
X2394Y2485D01*
X2427Y2485D01*
G37*
D02*
G36*
X2276Y2485D02*
X2276Y2483D01*
X2273Y2483D01*
X2273Y2485D01*
X2276Y2485D01*
G37*
D02*
G36*
X2327Y2483D02*
X2327Y2482D01*
X2261Y2482D01*
X2261Y2483D01*
X2327Y2483D01*
G37*
D02*
G36*
X2327Y2483D02*
X2327Y2482D01*
X2261Y2482D01*
X2261Y2483D01*
X2327Y2483D01*
G37*
D02*
G36*
X2327Y2483D02*
X2327Y2482D01*
X2261Y2482D01*
X2261Y2483D01*
X2327Y2483D01*
G37*
D02*
G36*
X2095Y2483D02*
X2095Y2480D01*
X2097Y2480D01*
X2097Y2465D01*
X2095Y2465D01*
X2095Y2464D01*
X2094Y2464D01*
X2094Y2462D01*
X2092Y2462D01*
X2092Y2460D01*
X2089Y2460D01*
X2089Y2457D01*
X2087Y2457D01*
X2087Y2455D01*
X2086Y2455D01*
X2086Y2454D01*
X2084Y2454D01*
X2084Y2451D01*
X2082Y2451D01*
X2082Y2439D01*
X2072Y2439D01*
X2072Y2446D01*
X2074Y2446D01*
X2074Y2452D01*
X2076Y2452D01*
X2076Y2455D01*
X2077Y2455D01*
X2077Y2459D01*
X2079Y2459D01*
X2079Y2460D01*
X2081Y2460D01*
X2081Y2462D01*
X2082Y2462D01*
X2082Y2464D01*
X2084Y2464D01*
X2084Y2465D01*
X2086Y2465D01*
X2086Y2467D01*
X2089Y2467D01*
X2089Y2472D01*
X2091Y2472D01*
X2091Y2477D01*
X2089Y2477D01*
X2089Y2483D01*
X2095Y2483D01*
G37*
D02*
G36*
X2419Y2482D02*
X2419Y2480D01*
X2417Y2480D01*
X2417Y2482D01*
X2419Y2482D01*
G37*
D02*
G36*
X2322Y2482D02*
X2322Y2480D01*
X2319Y2480D01*
X2319Y2478D01*
X2305Y2478D01*
X2305Y2477D01*
X2297Y2477D01*
X2297Y2475D01*
X2276Y2475D01*
X2276Y2473D01*
X2274Y2473D01*
X2274Y2470D01*
X2273Y2470D01*
X2273Y2464D01*
X2271Y2464D01*
X2271Y2462D01*
X2251Y2462D01*
X2251Y2464D01*
X2256Y2464D01*
X2256Y2465D01*
X2260Y2465D01*
X2260Y2467D01*
X2263Y2467D01*
X2263Y2469D01*
X2264Y2469D01*
X2264Y2473D01*
X2266Y2473D01*
X2266Y2478D01*
X2264Y2478D01*
X2264Y2480D01*
X2263Y2480D01*
X2263Y2482D01*
X2322Y2482D01*
G37*
D02*
G36*
X2232Y2473D02*
X2232Y2472D01*
X2199Y2472D01*
X2199Y2473D01*
X2232Y2473D01*
G37*
D02*
G36*
X2232Y2473D02*
X2232Y2472D01*
X2199Y2472D01*
X2199Y2473D01*
X2232Y2473D01*
G37*
D02*
G36*
X2233Y2472D02*
X2233Y2470D01*
X2235Y2470D01*
X2235Y2469D01*
X2237Y2469D01*
X2237Y2467D01*
X2238Y2467D01*
X2238Y2465D01*
X2243Y2465D01*
X2243Y2464D01*
X2209Y2464D01*
X2209Y2465D01*
X2207Y2465D01*
X2207Y2467D01*
X2205Y2467D01*
X2205Y2469D01*
X2204Y2469D01*
X2204Y2470D01*
X2202Y2470D01*
X2202Y2472D01*
X2233Y2472D01*
G37*
D02*
G36*
X2246Y2465D02*
X2246Y2464D01*
X2245Y2464D01*
X2245Y2465D01*
X2246Y2465D01*
G37*
D02*
G36*
X2248Y2464D02*
X2248Y2462D01*
X2225Y2462D01*
X2225Y2464D01*
X2248Y2464D01*
G37*
D02*
G36*
X2248Y2464D02*
X2248Y2462D01*
X2225Y2462D01*
X2225Y2464D01*
X2248Y2464D01*
G37*
D02*
G36*
X2268Y2462D02*
X2268Y2460D01*
X2230Y2460D01*
X2230Y2462D01*
X2268Y2462D01*
G37*
D02*
G36*
X2268Y2462D02*
X2268Y2460D01*
X2230Y2460D01*
X2230Y2462D01*
X2268Y2462D01*
G37*
D02*
G36*
X2263Y2460D02*
X2263Y2459D01*
X2260Y2459D01*
X2260Y2457D01*
X2258Y2457D01*
X2258Y2455D01*
X2255Y2455D01*
X2255Y2454D01*
X2243Y2454D01*
X2243Y2457D01*
X2238Y2457D01*
X2238Y2459D01*
X2232Y2459D01*
X2232Y2460D01*
X2263Y2460D01*
G37*
D02*
G36*
X2391Y2455D02*
X2391Y2454D01*
X2350Y2454D01*
X2350Y2455D01*
X2391Y2455D01*
G37*
D02*
G36*
X2391Y2455D02*
X2391Y2454D01*
X2350Y2454D01*
X2350Y2455D01*
X2391Y2455D01*
G37*
D02*
G36*
X2387Y2454D02*
X2387Y2447D01*
X2366Y2447D01*
X2366Y2446D01*
X2364Y2446D01*
X2364Y2442D01*
X2363Y2442D01*
X2363Y2441D01*
X2364Y2441D01*
X2364Y2431D01*
X2363Y2431D01*
X2363Y2419D01*
X2364Y2419D01*
X2364Y2416D01*
X2366Y2416D01*
X2366Y2413D01*
X2356Y2413D01*
X2356Y2414D01*
X2355Y2414D01*
X2355Y2418D01*
X2353Y2418D01*
X2353Y2426D01*
X2351Y2426D01*
X2351Y2428D01*
X2353Y2428D01*
X2353Y2442D01*
X2355Y2442D01*
X2355Y2452D01*
X2351Y2452D01*
X2351Y2454D01*
X2387Y2454D01*
G37*
D02*
G36*
X2386Y2447D02*
X2386Y2446D01*
X2378Y2446D01*
X2378Y2444D01*
X2374Y2444D01*
X2374Y2447D01*
X2386Y2447D01*
G37*
D02*
G36*
X2114Y2442D02*
X2114Y2441D01*
X2117Y2441D01*
X2117Y2439D01*
X2086Y2439D01*
X2086Y2441D01*
X2100Y2441D01*
X2100Y2442D01*
X2114Y2442D01*
G37*
D02*
G36*
X2038Y2441D02*
X2038Y2439D01*
X2041Y2439D01*
X2041Y2437D01*
X2048Y2437D01*
X2048Y2436D01*
X2051Y2436D01*
X2051Y2434D01*
X2054Y2434D01*
X2054Y2432D01*
X2031Y2432D01*
X2031Y2429D01*
X2030Y2429D01*
X2030Y2428D01*
X2031Y2428D01*
X2031Y2424D01*
X2036Y2424D01*
X2036Y2423D01*
X2040Y2423D01*
X2040Y2421D01*
X2023Y2421D01*
X2023Y2428D01*
X2022Y2428D01*
X2022Y2432D01*
X2023Y2432D01*
X2023Y2436D01*
X2025Y2436D01*
X2025Y2437D01*
X2027Y2437D01*
X2027Y2439D01*
X2028Y2439D01*
X2028Y2441D01*
X2038Y2441D01*
G37*
D02*
G36*
X2117Y2439D02*
X2117Y2437D01*
X2072Y2437D01*
X2072Y2439D01*
X2117Y2439D01*
G37*
D02*
G36*
X2117Y2439D02*
X2117Y2437D01*
X2072Y2437D01*
X2072Y2439D01*
X2117Y2439D01*
G37*
D02*
G36*
X2117Y2437D02*
X2117Y2434D01*
X2094Y2434D01*
X2094Y2432D01*
X2097Y2432D01*
X2097Y2431D01*
X2074Y2431D01*
X2074Y2436D01*
X2072Y2436D01*
X2072Y2437D01*
X2117Y2437D01*
G37*
D02*
G36*
X2117Y2434D02*
X2117Y2431D01*
X2102Y2431D01*
X2102Y2432D01*
X2104Y2432D01*
X2104Y2434D01*
X2117Y2434D01*
G37*
D02*
G36*
X2071Y2432D02*
X2071Y2431D01*
X2040Y2431D01*
X2040Y2432D01*
X2071Y2432D01*
G37*
D02*
G36*
X2071Y2432D02*
X2071Y2431D01*
X2040Y2431D01*
X2040Y2432D01*
X2071Y2432D01*
G37*
D02*
G36*
X2115Y2431D02*
X2115Y2429D01*
X2076Y2429D01*
X2076Y2431D01*
X2115Y2431D01*
G37*
D02*
G36*
X2115Y2431D02*
X2115Y2429D01*
X2076Y2429D01*
X2076Y2431D01*
X2115Y2431D01*
G37*
D02*
G36*
X2071Y2431D02*
X2071Y2421D01*
X2053Y2421D01*
X2053Y2424D01*
X2050Y2424D01*
X2050Y2426D01*
X2048Y2426D01*
X2048Y2428D01*
X2045Y2428D01*
X2045Y2429D01*
X2041Y2429D01*
X2041Y2431D01*
X2071Y2431D01*
G37*
D02*
G36*
X2114Y2429D02*
X2114Y2428D01*
X2112Y2428D01*
X2112Y2426D01*
X2110Y2426D01*
X2110Y2424D01*
X2105Y2424D01*
X2105Y2423D01*
X2091Y2423D01*
X2091Y2424D01*
X2086Y2424D01*
X2086Y2426D01*
X2081Y2426D01*
X2081Y2428D01*
X2079Y2428D01*
X2079Y2429D01*
X2114Y2429D01*
G37*
D02*
G36*
X2043Y2423D02*
X2043Y2421D01*
X2041Y2421D01*
X2041Y2423D01*
X2043Y2423D01*
G37*
D02*
G36*
X2406Y2421D02*
X2406Y2419D01*
X2409Y2419D01*
X2409Y2418D01*
X2412Y2418D01*
X2412Y2414D01*
X2414Y2414D01*
X2414Y2405D01*
X2399Y2405D01*
X2399Y2406D01*
X2401Y2406D01*
X2401Y2408D01*
X2402Y2408D01*
X2402Y2410D01*
X2404Y2410D01*
X2404Y2411D01*
X2402Y2411D01*
X2402Y2413D01*
X2374Y2413D01*
X2374Y2414D01*
X2379Y2414D01*
X2379Y2416D01*
X2384Y2416D01*
X2384Y2418D01*
X2387Y2418D01*
X2387Y2419D01*
X2394Y2419D01*
X2394Y2421D01*
X2406Y2421D01*
G37*
D02*
G36*
X2069Y2421D02*
X2069Y2419D01*
X2025Y2419D01*
X2025Y2421D01*
X2069Y2421D01*
G37*
D02*
G36*
X2069Y2421D02*
X2069Y2419D01*
X2025Y2419D01*
X2025Y2421D01*
X2069Y2421D01*
G37*
D02*
G36*
X2069Y2421D02*
X2069Y2419D01*
X2025Y2419D01*
X2025Y2421D01*
X2069Y2421D01*
G37*
D02*
G36*
X2066Y2419D02*
X2066Y2418D01*
X2064Y2418D01*
X2064Y2416D01*
X2059Y2416D01*
X2059Y2414D01*
X2043Y2414D01*
X2043Y2413D01*
X2041Y2413D01*
X2041Y2414D01*
X2035Y2414D01*
X2035Y2416D01*
X2031Y2416D01*
X2031Y2418D01*
X2027Y2418D01*
X2027Y2419D01*
X2066Y2419D01*
G37*
D02*
G36*
X2394Y2413D02*
X2394Y2411D01*
X2356Y2411D01*
X2356Y2413D01*
X2394Y2413D01*
G37*
D02*
G36*
X2394Y2413D02*
X2394Y2411D01*
X2356Y2411D01*
X2356Y2413D01*
X2394Y2413D01*
G37*
D02*
G36*
X2392Y2411D02*
X2392Y2410D01*
X2389Y2410D01*
X2389Y2408D01*
X2387Y2408D01*
X2387Y2406D01*
X2384Y2406D01*
X2384Y2405D01*
X2376Y2405D01*
X2376Y2403D01*
X2374Y2403D01*
X2374Y2401D01*
X2373Y2401D01*
X2373Y2400D01*
X2374Y2400D01*
X2374Y2398D01*
X2376Y2398D01*
X2376Y2396D01*
X2364Y2396D01*
X2364Y2398D01*
X2363Y2398D01*
X2363Y2400D01*
X2361Y2400D01*
X2361Y2401D01*
X2363Y2401D01*
X2363Y2403D01*
X2361Y2403D01*
X2361Y2405D01*
X2360Y2405D01*
X2360Y2408D01*
X2358Y2408D01*
X2358Y2410D01*
X2356Y2410D01*
X2356Y2411D01*
X2392Y2411D01*
G37*
D02*
G36*
X2397Y2406D02*
X2397Y2405D01*
X2396Y2405D01*
X2396Y2406D01*
X2397Y2406D01*
G37*
D02*
G36*
X2412Y2405D02*
X2412Y2403D01*
X2396Y2403D01*
X2396Y2405D01*
X2412Y2405D01*
G37*
D02*
G36*
X2412Y2405D02*
X2412Y2403D01*
X2396Y2403D01*
X2396Y2405D01*
X2412Y2405D01*
G37*
D02*
G36*
X2410Y2403D02*
X2410Y2401D01*
X2407Y2401D01*
X2407Y2400D01*
X2406Y2400D01*
X2406Y2398D01*
X2401Y2398D01*
X2401Y2396D01*
X2383Y2396D01*
X2383Y2398D01*
X2387Y2398D01*
X2387Y2400D01*
X2392Y2400D01*
X2392Y2401D01*
X2394Y2401D01*
X2394Y2403D01*
X2410Y2403D01*
G37*
D02*
G36*
X2397Y2396D02*
X2397Y2395D01*
X2364Y2395D01*
X2364Y2396D01*
X2397Y2396D01*
G37*
D02*
G36*
X2397Y2396D02*
X2397Y2395D01*
X2364Y2395D01*
X2364Y2396D01*
X2397Y2396D01*
G37*
D02*
G36*
X2394Y2395D02*
X2394Y2393D01*
X2391Y2393D01*
X2391Y2391D01*
X2389Y2391D01*
X2389Y2390D01*
X2384Y2390D01*
X2384Y2388D01*
X2371Y2388D01*
X2371Y2390D01*
X2368Y2390D01*
X2368Y2391D01*
X2366Y2391D01*
X2366Y2393D01*
X2364Y2393D01*
X2364Y2395D01*
X2394Y2395D01*
G37*
D02*
G54D12*
X303Y2696D02*
X309Y2696D01*
X1354Y2696D02*
X1359Y2696D01*
X302Y2695D02*
X309Y2695D01*
X1353Y2695D02*
X1360Y2695D01*
X214Y2694D02*
X229Y2694D01*
X302Y2694D02*
X310Y2694D01*
X338Y2694D02*
X358Y2694D01*
X382Y2694D02*
X402Y2694D01*
X426Y2694D02*
X448Y2694D01*
X467Y2694D02*
X468Y2694D01*
X519Y2694D02*
X537Y2694D01*
X554Y2694D02*
X565Y2694D01*
X604Y2694D02*
X625Y2694D01*
X841Y2694D02*
X842Y2694D01*
X910Y2694D02*
X931Y2694D01*
X949Y2694D02*
X949Y2694D01*
X1192Y2694D02*
X1192Y2694D01*
X1279Y2694D02*
X1280Y2694D01*
X1352Y2694D02*
X1361Y2694D01*
X214Y2693D02*
X230Y2693D01*
X302Y2693D02*
X310Y2693D01*
X336Y2693D02*
X360Y2693D01*
X380Y2693D02*
X404Y2693D01*
X424Y2693D02*
X449Y2693D01*
X465Y2693D02*
X469Y2693D01*
X516Y2693D02*
X538Y2693D01*
X553Y2693D02*
X568Y2693D01*
X601Y2693D02*
X625Y2693D01*
X840Y2693D02*
X843Y2693D01*
X907Y2693D02*
X932Y2693D01*
X947Y2693D02*
X951Y2693D01*
X1190Y2693D02*
X1194Y2693D01*
X1278Y2693D02*
X1281Y2693D01*
X1352Y2693D02*
X1361Y2693D01*
X214Y2692D02*
X231Y2692D01*
X302Y2692D02*
X310Y2692D01*
X335Y2692D02*
X361Y2692D01*
X379Y2692D02*
X405Y2692D01*
X423Y2692D02*
X450Y2692D01*
X465Y2692D02*
X470Y2692D01*
X514Y2692D02*
X538Y2692D01*
X552Y2692D02*
X569Y2692D01*
X599Y2692D02*
X625Y2692D01*
X839Y2692D02*
X844Y2692D01*
X906Y2692D02*
X932Y2692D01*
X947Y2692D02*
X951Y2692D01*
X1189Y2692D02*
X1194Y2692D01*
X1277Y2692D02*
X1282Y2692D01*
X1352Y2692D02*
X1361Y2692D01*
X214Y2691D02*
X231Y2691D01*
X302Y2691D02*
X310Y2691D01*
X334Y2691D02*
X362Y2691D01*
X378Y2691D02*
X405Y2691D01*
X422Y2691D02*
X450Y2691D01*
X465Y2691D02*
X470Y2691D01*
X513Y2691D02*
X538Y2691D01*
X552Y2691D02*
X570Y2691D01*
X598Y2691D02*
X625Y2691D01*
X839Y2691D02*
X844Y2691D01*
X905Y2691D02*
X932Y2691D01*
X946Y2691D02*
X952Y2691D01*
X1189Y2691D02*
X1194Y2691D01*
X1277Y2691D02*
X1282Y2691D01*
X1316Y2691D02*
X1318Y2691D01*
X1352Y2691D02*
X1361Y2691D01*
X214Y2690D02*
X231Y2690D01*
X302Y2690D02*
X309Y2690D01*
X334Y2690D02*
X362Y2690D01*
X377Y2690D02*
X406Y2690D01*
X421Y2690D02*
X450Y2690D01*
X465Y2690D02*
X471Y2690D01*
X512Y2690D02*
X538Y2690D01*
X553Y2690D02*
X571Y2690D01*
X598Y2690D02*
X625Y2690D01*
X839Y2690D02*
X844Y2690D01*
X904Y2690D02*
X932Y2690D01*
X947Y2690D02*
X953Y2690D01*
X1189Y2690D02*
X1194Y2690D01*
X1277Y2690D02*
X1282Y2690D01*
X1315Y2690D02*
X1319Y2690D01*
X1353Y2690D02*
X1360Y2690D01*
X214Y2689D02*
X230Y2689D01*
X303Y2689D02*
X309Y2689D01*
X333Y2689D02*
X362Y2689D01*
X377Y2689D02*
X406Y2689D01*
X421Y2689D02*
X449Y2689D01*
X465Y2689D02*
X472Y2689D01*
X511Y2689D02*
X538Y2689D01*
X553Y2689D02*
X572Y2689D01*
X597Y2689D02*
X625Y2689D01*
X839Y2689D02*
X844Y2689D01*
X904Y2689D02*
X932Y2689D01*
X947Y2689D02*
X953Y2689D01*
X1189Y2689D02*
X1194Y2689D01*
X1277Y2689D02*
X1282Y2689D01*
X1315Y2689D02*
X1320Y2689D01*
X1353Y2689D02*
X1360Y2689D01*
X214Y2688D02*
X220Y2688D01*
X333Y2688D02*
X339Y2688D01*
X357Y2688D02*
X363Y2688D01*
X377Y2688D02*
X383Y2688D01*
X401Y2688D02*
X406Y2688D01*
X421Y2688D02*
X426Y2688D01*
X466Y2688D02*
X472Y2688D01*
X510Y2688D02*
X519Y2688D01*
X532Y2688D02*
X538Y2688D01*
X565Y2688D02*
X573Y2688D01*
X597Y2688D02*
X604Y2688D01*
X620Y2688D02*
X625Y2688D01*
X839Y2688D02*
X844Y2688D01*
X903Y2688D02*
X910Y2688D01*
X926Y2688D02*
X932Y2688D01*
X948Y2688D02*
X954Y2688D01*
X1189Y2688D02*
X1194Y2688D01*
X1277Y2688D02*
X1282Y2688D01*
X1315Y2688D02*
X1320Y2688D01*
X214Y2687D02*
X219Y2687D01*
X333Y2687D02*
X338Y2687D01*
X357Y2687D02*
X363Y2687D01*
X377Y2687D02*
X382Y2687D01*
X401Y2687D02*
X406Y2687D01*
X421Y2687D02*
X426Y2687D01*
X467Y2687D02*
X473Y2687D01*
X510Y2687D02*
X517Y2687D01*
X533Y2687D02*
X538Y2687D01*
X567Y2687D02*
X573Y2687D01*
X596Y2687D02*
X602Y2687D01*
X620Y2687D02*
X625Y2687D01*
X839Y2687D02*
X844Y2687D01*
X903Y2687D02*
X909Y2687D01*
X927Y2687D02*
X932Y2687D01*
X948Y2687D02*
X954Y2687D01*
X1189Y2687D02*
X1194Y2687D01*
X1277Y2687D02*
X1282Y2687D01*
X1315Y2687D02*
X1320Y2687D01*
X214Y2686D02*
X219Y2686D01*
X333Y2686D02*
X338Y2686D01*
X357Y2686D02*
X363Y2686D01*
X377Y2686D02*
X382Y2686D01*
X401Y2686D02*
X406Y2686D01*
X421Y2686D02*
X426Y2686D01*
X467Y2686D02*
X473Y2686D01*
X509Y2686D02*
X515Y2686D01*
X533Y2686D02*
X538Y2686D01*
X567Y2686D02*
X574Y2686D01*
X596Y2686D02*
X601Y2686D01*
X620Y2686D02*
X625Y2686D01*
X839Y2686D02*
X844Y2686D01*
X903Y2686D02*
X908Y2686D01*
X927Y2686D02*
X932Y2686D01*
X949Y2686D02*
X955Y2686D01*
X1189Y2686D02*
X1194Y2686D01*
X1277Y2686D02*
X1282Y2686D01*
X1315Y2686D02*
X1320Y2686D01*
X214Y2685D02*
X219Y2685D01*
X333Y2685D02*
X338Y2685D01*
X357Y2685D02*
X363Y2685D01*
X377Y2685D02*
X382Y2685D01*
X401Y2685D02*
X406Y2685D01*
X421Y2685D02*
X426Y2685D01*
X468Y2685D02*
X474Y2685D01*
X509Y2685D02*
X515Y2685D01*
X533Y2685D02*
X538Y2685D01*
X568Y2685D02*
X575Y2685D01*
X596Y2685D02*
X601Y2685D01*
X620Y2685D02*
X625Y2685D01*
X839Y2685D02*
X844Y2685D01*
X903Y2685D02*
X908Y2685D01*
X927Y2685D02*
X932Y2685D01*
X949Y2685D02*
X956Y2685D01*
X1189Y2685D02*
X1194Y2685D01*
X1277Y2685D02*
X1282Y2685D01*
X1315Y2685D02*
X1320Y2685D01*
X214Y2684D02*
X219Y2684D01*
X333Y2684D02*
X338Y2684D01*
X357Y2684D02*
X363Y2684D01*
X377Y2684D02*
X382Y2684D01*
X401Y2684D02*
X406Y2684D01*
X421Y2684D02*
X426Y2684D01*
X468Y2684D02*
X475Y2684D01*
X509Y2684D02*
X514Y2684D01*
X533Y2684D02*
X538Y2684D01*
X569Y2684D02*
X576Y2684D01*
X596Y2684D02*
X601Y2684D01*
X620Y2684D02*
X625Y2684D01*
X839Y2684D02*
X844Y2684D01*
X903Y2684D02*
X908Y2684D01*
X927Y2684D02*
X932Y2684D01*
X950Y2684D02*
X956Y2684D01*
X1189Y2684D02*
X1194Y2684D01*
X1277Y2684D02*
X1282Y2684D01*
X1315Y2684D02*
X1320Y2684D01*
X214Y2683D02*
X219Y2683D01*
X333Y2683D02*
X338Y2683D01*
X357Y2683D02*
X363Y2683D01*
X377Y2683D02*
X382Y2683D01*
X401Y2683D02*
X406Y2683D01*
X421Y2683D02*
X426Y2683D01*
X469Y2683D02*
X475Y2683D01*
X509Y2683D02*
X514Y2683D01*
X533Y2683D02*
X538Y2683D01*
X570Y2683D02*
X577Y2683D01*
X596Y2683D02*
X601Y2683D01*
X620Y2683D02*
X625Y2683D01*
X839Y2683D02*
X844Y2683D01*
X903Y2683D02*
X908Y2683D01*
X927Y2683D02*
X932Y2683D01*
X951Y2683D02*
X957Y2683D01*
X1189Y2683D02*
X1194Y2683D01*
X1277Y2683D02*
X1282Y2683D01*
X1315Y2683D02*
X1320Y2683D01*
X214Y2682D02*
X219Y2682D01*
X333Y2682D02*
X338Y2682D01*
X357Y2682D02*
X363Y2682D01*
X377Y2682D02*
X382Y2682D01*
X401Y2682D02*
X406Y2682D01*
X421Y2682D02*
X426Y2682D01*
X470Y2682D02*
X476Y2682D01*
X509Y2682D02*
X514Y2682D01*
X533Y2682D02*
X538Y2682D01*
X571Y2682D02*
X577Y2682D01*
X596Y2682D02*
X601Y2682D01*
X620Y2682D02*
X625Y2682D01*
X839Y2682D02*
X844Y2682D01*
X903Y2682D02*
X908Y2682D01*
X927Y2682D02*
X932Y2682D01*
X951Y2682D02*
X957Y2682D01*
X1189Y2682D02*
X1194Y2682D01*
X1277Y2682D02*
X1282Y2682D01*
X1315Y2682D02*
X1320Y2682D01*
X214Y2681D02*
X219Y2681D01*
X253Y2681D02*
X260Y2681D01*
X272Y2681D02*
X273Y2681D01*
X303Y2681D02*
X314Y2681D01*
X333Y2681D02*
X338Y2681D01*
X357Y2681D02*
X363Y2681D01*
X377Y2681D02*
X382Y2681D01*
X401Y2681D02*
X406Y2681D01*
X421Y2681D02*
X426Y2681D01*
X470Y2681D02*
X476Y2681D01*
X508Y2681D02*
X514Y2681D01*
X533Y2681D02*
X538Y2681D01*
X571Y2681D02*
X578Y2681D01*
X596Y2681D02*
X601Y2681D01*
X620Y2681D02*
X625Y2681D01*
X647Y2681D02*
X661Y2681D01*
X685Y2681D02*
X701Y2681D01*
X729Y2681D02*
X745Y2681D01*
X780Y2681D02*
X792Y2681D01*
X824Y2681D02*
X832Y2681D01*
X839Y2681D02*
X844Y2681D01*
X868Y2681D02*
X879Y2681D01*
X903Y2681D02*
X908Y2681D01*
X927Y2681D02*
X932Y2681D01*
X952Y2681D02*
X958Y2681D01*
X996Y2681D02*
X998Y2681D01*
X1007Y2681D02*
X1011Y2681D01*
X1016Y2681D02*
X1018Y2681D01*
X1043Y2681D02*
X1054Y2681D01*
X1079Y2681D02*
X1095Y2681D01*
X1174Y2681D02*
X1182Y2681D01*
X1189Y2681D02*
X1194Y2681D01*
X1211Y2681D02*
X1212Y2681D01*
X1235Y2681D02*
X1236Y2681D01*
X1260Y2681D02*
X1267Y2681D01*
X1277Y2681D02*
X1282Y2681D01*
X1301Y2681D02*
X1324Y2681D01*
X1354Y2681D02*
X1365Y2681D01*
X1386Y2681D02*
X1388Y2681D01*
X1396Y2681D02*
X1404Y2681D01*
X214Y2680D02*
X219Y2680D01*
X251Y2680D02*
X263Y2680D01*
X270Y2680D02*
X274Y2680D01*
X302Y2680D02*
X315Y2680D01*
X333Y2680D02*
X338Y2680D01*
X357Y2680D02*
X363Y2680D01*
X377Y2680D02*
X382Y2680D01*
X401Y2680D02*
X406Y2680D01*
X421Y2680D02*
X426Y2680D01*
X471Y2680D02*
X477Y2680D01*
X509Y2680D02*
X514Y2680D01*
X533Y2680D02*
X538Y2680D01*
X572Y2680D02*
X579Y2680D01*
X596Y2680D02*
X602Y2680D01*
X620Y2680D02*
X625Y2680D01*
X645Y2680D02*
X662Y2680D01*
X684Y2680D02*
X703Y2680D01*
X728Y2680D02*
X747Y2680D01*
X778Y2680D02*
X794Y2680D01*
X822Y2680D02*
X835Y2680D01*
X839Y2680D02*
X844Y2680D01*
X865Y2680D02*
X881Y2680D01*
X903Y2680D02*
X908Y2680D01*
X927Y2680D02*
X932Y2680D01*
X952Y2680D02*
X959Y2680D01*
X994Y2680D02*
X1001Y2680D01*
X1005Y2680D02*
X1013Y2680D01*
X1015Y2680D02*
X1019Y2680D01*
X1041Y2680D02*
X1057Y2680D01*
X1078Y2680D02*
X1097Y2680D01*
X1172Y2680D02*
X1185Y2680D01*
X1189Y2680D02*
X1194Y2680D01*
X1210Y2680D02*
X1214Y2680D01*
X1234Y2680D02*
X1238Y2680D01*
X1258Y2680D02*
X1270Y2680D01*
X1277Y2680D02*
X1282Y2680D01*
X1300Y2680D02*
X1325Y2680D01*
X1353Y2680D02*
X1366Y2680D01*
X1385Y2680D02*
X1389Y2680D01*
X1394Y2680D02*
X1407Y2680D01*
X214Y2679D02*
X219Y2679D01*
X250Y2679D02*
X264Y2679D01*
X270Y2679D02*
X275Y2679D01*
X302Y2679D02*
X316Y2679D01*
X333Y2679D02*
X338Y2679D01*
X357Y2679D02*
X363Y2679D01*
X377Y2679D02*
X382Y2679D01*
X401Y2679D02*
X406Y2679D01*
X421Y2679D02*
X426Y2679D01*
X471Y2679D02*
X477Y2679D01*
X509Y2679D02*
X514Y2679D01*
X533Y2679D02*
X538Y2679D01*
X573Y2679D02*
X580Y2679D01*
X597Y2679D02*
X603Y2679D01*
X620Y2679D02*
X625Y2679D01*
X644Y2679D02*
X663Y2679D01*
X684Y2679D02*
X705Y2679D01*
X728Y2679D02*
X749Y2679D01*
X776Y2679D02*
X795Y2679D01*
X820Y2679D02*
X836Y2679D01*
X839Y2679D02*
X844Y2679D01*
X864Y2679D02*
X883Y2679D01*
X903Y2679D02*
X910Y2679D01*
X926Y2679D02*
X932Y2679D01*
X953Y2679D02*
X959Y2679D01*
X993Y2679D02*
X1002Y2679D01*
X1004Y2679D02*
X1020Y2679D01*
X1039Y2679D02*
X1058Y2679D01*
X1078Y2679D02*
X1099Y2679D01*
X1171Y2679D02*
X1186Y2679D01*
X1189Y2679D02*
X1194Y2679D01*
X1209Y2679D02*
X1214Y2679D01*
X1233Y2679D02*
X1238Y2679D01*
X1257Y2679D02*
X1271Y2679D01*
X1277Y2679D02*
X1282Y2679D01*
X1300Y2679D02*
X1326Y2679D01*
X1353Y2679D02*
X1366Y2679D01*
X1384Y2679D02*
X1389Y2679D01*
X1392Y2679D02*
X1408Y2679D01*
X214Y2678D02*
X219Y2678D01*
X249Y2678D02*
X266Y2678D01*
X270Y2678D02*
X275Y2678D01*
X302Y2678D02*
X316Y2678D01*
X333Y2678D02*
X338Y2678D01*
X357Y2678D02*
X363Y2678D01*
X377Y2678D02*
X382Y2678D01*
X401Y2678D02*
X406Y2678D01*
X421Y2678D02*
X426Y2678D01*
X472Y2678D02*
X478Y2678D01*
X509Y2678D02*
X514Y2678D01*
X533Y2678D02*
X538Y2678D01*
X574Y2678D02*
X580Y2678D01*
X597Y2678D02*
X625Y2678D01*
X643Y2678D02*
X663Y2678D01*
X684Y2678D02*
X706Y2678D01*
X727Y2678D02*
X750Y2678D01*
X775Y2678D02*
X796Y2678D01*
X819Y2678D02*
X837Y2678D01*
X839Y2678D02*
X844Y2678D01*
X863Y2678D02*
X884Y2678D01*
X903Y2678D02*
X932Y2678D01*
X954Y2678D02*
X960Y2678D01*
X992Y2678D02*
X1020Y2678D01*
X1038Y2678D02*
X1059Y2678D01*
X1078Y2678D02*
X1100Y2678D01*
X1169Y2678D02*
X1194Y2678D01*
X1209Y2678D02*
X1214Y2678D01*
X1233Y2678D02*
X1238Y2678D01*
X1256Y2678D02*
X1273Y2678D01*
X1277Y2678D02*
X1282Y2678D01*
X1300Y2678D02*
X1326Y2678D01*
X1352Y2678D02*
X1367Y2678D01*
X1384Y2678D02*
X1389Y2678D01*
X1391Y2678D02*
X1409Y2678D01*
X214Y2677D02*
X219Y2677D01*
X248Y2677D02*
X268Y2677D01*
X270Y2677D02*
X275Y2677D01*
X302Y2677D02*
X315Y2677D01*
X333Y2677D02*
X338Y2677D01*
X357Y2677D02*
X363Y2677D01*
X377Y2677D02*
X382Y2677D01*
X401Y2677D02*
X406Y2677D01*
X421Y2677D02*
X426Y2677D01*
X472Y2677D02*
X479Y2677D01*
X509Y2677D02*
X514Y2677D01*
X533Y2677D02*
X538Y2677D01*
X575Y2677D02*
X581Y2677D01*
X598Y2677D02*
X625Y2677D01*
X642Y2677D02*
X663Y2677D01*
X684Y2677D02*
X707Y2677D01*
X728Y2677D02*
X751Y2677D01*
X774Y2677D02*
X797Y2677D01*
X818Y2677D02*
X844Y2677D01*
X862Y2677D02*
X885Y2677D01*
X904Y2677D02*
X932Y2677D01*
X954Y2677D02*
X960Y2677D01*
X991Y2677D02*
X1020Y2677D01*
X1037Y2677D02*
X1060Y2677D01*
X1078Y2677D02*
X1101Y2677D01*
X1168Y2677D02*
X1194Y2677D01*
X1209Y2677D02*
X1214Y2677D01*
X1233Y2677D02*
X1238Y2677D01*
X1255Y2677D02*
X1275Y2677D01*
X1277Y2677D02*
X1282Y2677D01*
X1300Y2677D02*
X1325Y2677D01*
X1352Y2677D02*
X1366Y2677D01*
X1384Y2677D02*
X1410Y2677D01*
X214Y2676D02*
X219Y2676D01*
X247Y2676D02*
X275Y2676D01*
X302Y2676D02*
X315Y2676D01*
X333Y2676D02*
X338Y2676D01*
X357Y2676D02*
X363Y2676D01*
X377Y2676D02*
X382Y2676D01*
X401Y2676D02*
X406Y2676D01*
X421Y2676D02*
X426Y2676D01*
X473Y2676D02*
X479Y2676D01*
X509Y2676D02*
X515Y2676D01*
X533Y2676D02*
X538Y2676D01*
X575Y2676D02*
X581Y2676D01*
X598Y2676D02*
X625Y2676D01*
X641Y2676D02*
X662Y2676D01*
X685Y2676D02*
X708Y2676D01*
X729Y2676D02*
X752Y2676D01*
X773Y2676D02*
X798Y2676D01*
X817Y2676D02*
X844Y2676D01*
X861Y2676D02*
X886Y2676D01*
X905Y2676D02*
X932Y2676D01*
X955Y2676D02*
X961Y2676D01*
X991Y2676D02*
X1020Y2676D01*
X1036Y2676D02*
X1061Y2676D01*
X1079Y2676D02*
X1102Y2676D01*
X1167Y2676D02*
X1194Y2676D01*
X1209Y2676D02*
X1214Y2676D01*
X1233Y2676D02*
X1238Y2676D01*
X1254Y2676D02*
X1282Y2676D01*
X1301Y2676D02*
X1325Y2676D01*
X1352Y2676D02*
X1365Y2676D01*
X1384Y2676D02*
X1411Y2676D01*
X214Y2675D02*
X219Y2675D01*
X247Y2675D02*
X254Y2675D01*
X260Y2675D02*
X275Y2675D01*
X302Y2675D02*
X307Y2675D01*
X333Y2675D02*
X338Y2675D01*
X357Y2675D02*
X363Y2675D01*
X377Y2675D02*
X382Y2675D01*
X401Y2675D02*
X406Y2675D01*
X421Y2675D02*
X426Y2675D01*
X474Y2675D02*
X480Y2675D01*
X509Y2675D02*
X516Y2675D01*
X533Y2675D02*
X538Y2675D01*
X576Y2675D02*
X581Y2675D01*
X599Y2675D02*
X625Y2675D01*
X641Y2675D02*
X647Y2675D01*
X701Y2675D02*
X709Y2675D01*
X744Y2675D02*
X753Y2675D01*
X773Y2675D02*
X781Y2675D01*
X791Y2675D02*
X799Y2675D01*
X816Y2675D02*
X824Y2675D01*
X832Y2675D02*
X844Y2675D01*
X860Y2675D02*
X868Y2675D01*
X879Y2675D02*
X886Y2675D01*
X906Y2675D02*
X932Y2675D01*
X955Y2675D02*
X961Y2675D01*
X991Y2675D02*
X996Y2675D01*
X998Y2675D02*
X1008Y2675D01*
X1010Y2675D02*
X1020Y2675D01*
X1035Y2675D02*
X1043Y2675D01*
X1054Y2675D02*
X1062Y2675D01*
X1095Y2675D02*
X1103Y2675D01*
X1167Y2675D02*
X1175Y2675D01*
X1182Y2675D02*
X1194Y2675D01*
X1209Y2675D02*
X1214Y2675D01*
X1233Y2675D02*
X1238Y2675D01*
X1254Y2675D02*
X1261Y2675D01*
X1267Y2675D02*
X1282Y2675D01*
X1314Y2675D02*
X1320Y2675D01*
X1352Y2675D02*
X1358Y2675D01*
X1384Y2675D02*
X1396Y2675D01*
X1404Y2675D02*
X1412Y2675D01*
X214Y2674D02*
X219Y2674D01*
X247Y2674D02*
X252Y2674D01*
X262Y2674D02*
X275Y2674D01*
X302Y2674D02*
X307Y2674D01*
X333Y2674D02*
X338Y2674D01*
X357Y2674D02*
X363Y2674D01*
X377Y2674D02*
X382Y2674D01*
X401Y2674D02*
X406Y2674D01*
X421Y2674D02*
X426Y2674D01*
X474Y2674D02*
X480Y2674D01*
X510Y2674D02*
X518Y2674D01*
X532Y2674D02*
X538Y2674D01*
X576Y2674D02*
X581Y2674D01*
X601Y2674D02*
X625Y2674D01*
X641Y2674D02*
X646Y2674D01*
X702Y2674D02*
X710Y2674D01*
X746Y2674D02*
X754Y2674D01*
X772Y2674D02*
X779Y2674D01*
X793Y2674D02*
X800Y2674D01*
X816Y2674D02*
X823Y2674D01*
X833Y2674D02*
X844Y2674D01*
X860Y2674D02*
X866Y2674D01*
X880Y2674D02*
X887Y2674D01*
X907Y2674D02*
X932Y2674D01*
X956Y2674D02*
X962Y2674D01*
X991Y2674D02*
X996Y2674D01*
X1000Y2674D02*
X1007Y2674D01*
X1012Y2674D02*
X1020Y2674D01*
X1035Y2674D02*
X1041Y2674D01*
X1055Y2674D02*
X1062Y2674D01*
X1096Y2674D02*
X1104Y2674D01*
X1166Y2674D02*
X1173Y2674D01*
X1184Y2674D02*
X1194Y2674D01*
X1209Y2674D02*
X1214Y2674D01*
X1233Y2674D02*
X1238Y2674D01*
X1254Y2674D02*
X1259Y2674D01*
X1269Y2674D02*
X1282Y2674D01*
X1315Y2674D02*
X1320Y2674D01*
X1352Y2674D02*
X1358Y2674D01*
X1384Y2674D02*
X1395Y2674D01*
X1406Y2674D02*
X1413Y2674D01*
X214Y2673D02*
X219Y2673D01*
X247Y2673D02*
X252Y2673D01*
X263Y2673D02*
X275Y2673D01*
X302Y2673D02*
X307Y2673D01*
X333Y2673D02*
X338Y2673D01*
X357Y2673D02*
X363Y2673D01*
X377Y2673D02*
X382Y2673D01*
X401Y2673D02*
X406Y2673D01*
X421Y2673D02*
X446Y2673D01*
X475Y2673D02*
X481Y2673D01*
X511Y2673D02*
X538Y2673D01*
X576Y2673D02*
X581Y2673D01*
X603Y2673D02*
X625Y2673D01*
X641Y2673D02*
X646Y2673D01*
X703Y2673D02*
X711Y2673D01*
X747Y2673D02*
X755Y2673D01*
X772Y2673D02*
X778Y2673D01*
X794Y2673D02*
X800Y2673D01*
X815Y2673D02*
X822Y2673D01*
X835Y2673D02*
X844Y2673D01*
X859Y2673D02*
X865Y2673D01*
X881Y2673D02*
X887Y2673D01*
X909Y2673D02*
X932Y2673D01*
X956Y2673D02*
X963Y2673D01*
X991Y2673D02*
X996Y2673D01*
X1001Y2673D02*
X1007Y2673D01*
X1013Y2673D02*
X1020Y2673D01*
X1034Y2673D02*
X1040Y2673D01*
X1057Y2673D02*
X1063Y2673D01*
X1097Y2673D02*
X1105Y2673D01*
X1166Y2673D02*
X1172Y2673D01*
X1185Y2673D02*
X1194Y2673D01*
X1209Y2673D02*
X1214Y2673D01*
X1233Y2673D02*
X1238Y2673D01*
X1254Y2673D02*
X1259Y2673D01*
X1270Y2673D02*
X1282Y2673D01*
X1315Y2673D02*
X1320Y2673D01*
X1352Y2673D02*
X1358Y2673D01*
X1384Y2673D02*
X1394Y2673D01*
X1407Y2673D02*
X1413Y2673D01*
X214Y2672D02*
X219Y2672D01*
X247Y2672D02*
X252Y2672D01*
X265Y2672D02*
X275Y2672D01*
X302Y2672D02*
X307Y2672D01*
X333Y2672D02*
X338Y2672D01*
X357Y2672D02*
X363Y2672D01*
X377Y2672D02*
X382Y2672D01*
X401Y2672D02*
X406Y2672D01*
X421Y2672D02*
X448Y2672D01*
X475Y2672D02*
X482Y2672D01*
X511Y2672D02*
X538Y2672D01*
X576Y2672D02*
X581Y2672D01*
X608Y2672D02*
X615Y2672D01*
X620Y2672D02*
X625Y2672D01*
X641Y2672D02*
X646Y2672D01*
X704Y2672D02*
X712Y2672D01*
X748Y2672D02*
X756Y2672D01*
X771Y2672D02*
X777Y2672D01*
X795Y2672D02*
X800Y2672D01*
X815Y2672D02*
X821Y2672D01*
X836Y2672D02*
X844Y2672D01*
X859Y2672D02*
X864Y2672D01*
X882Y2672D02*
X888Y2672D01*
X915Y2672D02*
X921Y2672D01*
X927Y2672D02*
X932Y2672D01*
X957Y2672D02*
X963Y2672D01*
X991Y2672D02*
X996Y2672D01*
X1002Y2672D02*
X1007Y2672D01*
X1014Y2672D02*
X1020Y2672D01*
X1034Y2672D02*
X1040Y2672D01*
X1057Y2672D02*
X1063Y2672D01*
X1098Y2672D02*
X1106Y2672D01*
X1165Y2672D02*
X1171Y2672D01*
X1186Y2672D02*
X1194Y2672D01*
X1209Y2672D02*
X1214Y2672D01*
X1233Y2672D02*
X1238Y2672D01*
X1254Y2672D02*
X1259Y2672D01*
X1272Y2672D02*
X1282Y2672D01*
X1315Y2672D02*
X1320Y2672D01*
X1352Y2672D02*
X1358Y2672D01*
X1384Y2672D02*
X1393Y2672D01*
X1408Y2672D02*
X1413Y2672D01*
X214Y2671D02*
X219Y2671D01*
X247Y2671D02*
X252Y2671D01*
X267Y2671D02*
X275Y2671D01*
X302Y2671D02*
X307Y2671D01*
X333Y2671D02*
X338Y2671D01*
X357Y2671D02*
X363Y2671D01*
X377Y2671D02*
X382Y2671D01*
X401Y2671D02*
X406Y2671D01*
X422Y2671D02*
X449Y2671D01*
X476Y2671D02*
X482Y2671D01*
X512Y2671D02*
X538Y2671D01*
X576Y2671D02*
X581Y2671D01*
X608Y2671D02*
X614Y2671D01*
X620Y2671D02*
X625Y2671D01*
X641Y2671D02*
X646Y2671D01*
X706Y2671D02*
X712Y2671D01*
X749Y2671D02*
X756Y2671D01*
X771Y2671D02*
X777Y2671D01*
X795Y2671D02*
X800Y2671D01*
X815Y2671D02*
X820Y2671D01*
X837Y2671D02*
X844Y2671D01*
X859Y2671D02*
X864Y2671D01*
X883Y2671D02*
X888Y2671D01*
X914Y2671D02*
X920Y2671D01*
X927Y2671D02*
X932Y2671D01*
X958Y2671D02*
X964Y2671D01*
X990Y2671D02*
X996Y2671D01*
X1002Y2671D02*
X1007Y2671D01*
X1015Y2671D02*
X1020Y2671D01*
X1034Y2671D02*
X1039Y2671D01*
X1058Y2671D02*
X1063Y2671D01*
X1100Y2671D02*
X1106Y2671D01*
X1165Y2671D02*
X1171Y2671D01*
X1187Y2671D02*
X1194Y2671D01*
X1209Y2671D02*
X1214Y2671D01*
X1233Y2671D02*
X1238Y2671D01*
X1254Y2671D02*
X1259Y2671D01*
X1274Y2671D02*
X1282Y2671D01*
X1315Y2671D02*
X1320Y2671D01*
X1352Y2671D02*
X1358Y2671D01*
X1384Y2671D02*
X1392Y2671D01*
X1408Y2671D02*
X1413Y2671D01*
X214Y2670D02*
X219Y2670D01*
X247Y2670D02*
X252Y2670D01*
X268Y2670D02*
X275Y2670D01*
X302Y2670D02*
X307Y2670D01*
X333Y2670D02*
X338Y2670D01*
X357Y2670D02*
X363Y2670D01*
X377Y2670D02*
X382Y2670D01*
X401Y2670D02*
X406Y2670D01*
X422Y2670D02*
X450Y2670D01*
X477Y2670D02*
X483Y2670D01*
X512Y2670D02*
X538Y2670D01*
X576Y2670D02*
X581Y2670D01*
X607Y2670D02*
X613Y2670D01*
X620Y2670D02*
X625Y2670D01*
X641Y2670D02*
X646Y2670D01*
X707Y2670D02*
X713Y2670D01*
X750Y2670D02*
X756Y2670D01*
X771Y2670D02*
X776Y2670D01*
X795Y2670D02*
X800Y2670D01*
X815Y2670D02*
X820Y2670D01*
X838Y2670D02*
X844Y2670D01*
X859Y2670D02*
X864Y2670D01*
X883Y2670D02*
X888Y2670D01*
X914Y2670D02*
X920Y2670D01*
X927Y2670D02*
X932Y2670D01*
X958Y2670D02*
X964Y2670D01*
X990Y2670D02*
X996Y2670D01*
X1002Y2670D02*
X1007Y2670D01*
X1015Y2670D02*
X1020Y2670D01*
X1034Y2670D02*
X1039Y2670D01*
X1058Y2670D02*
X1063Y2670D01*
X1101Y2670D02*
X1107Y2670D01*
X1165Y2670D02*
X1170Y2670D01*
X1188Y2670D02*
X1194Y2670D01*
X1209Y2670D02*
X1214Y2670D01*
X1233Y2670D02*
X1238Y2670D01*
X1254Y2670D02*
X1259Y2670D01*
X1275Y2670D02*
X1282Y2670D01*
X1315Y2670D02*
X1320Y2670D01*
X1352Y2670D02*
X1358Y2670D01*
X1384Y2670D02*
X1390Y2670D01*
X1408Y2670D02*
X1413Y2670D01*
X214Y2669D02*
X219Y2669D01*
X246Y2669D02*
X252Y2669D01*
X270Y2669D02*
X275Y2669D01*
X302Y2669D02*
X307Y2669D01*
X333Y2669D02*
X338Y2669D01*
X357Y2669D02*
X363Y2669D01*
X377Y2669D02*
X382Y2669D01*
X401Y2669D02*
X406Y2669D01*
X423Y2669D02*
X450Y2669D01*
X477Y2669D02*
X483Y2669D01*
X511Y2669D02*
X538Y2669D01*
X576Y2669D02*
X581Y2669D01*
X607Y2669D02*
X613Y2669D01*
X620Y2669D02*
X625Y2669D01*
X641Y2669D02*
X646Y2669D01*
X707Y2669D02*
X713Y2669D01*
X751Y2669D02*
X756Y2669D01*
X771Y2669D02*
X776Y2669D01*
X795Y2669D02*
X800Y2669D01*
X815Y2669D02*
X820Y2669D01*
X839Y2669D02*
X844Y2669D01*
X859Y2669D02*
X864Y2669D01*
X883Y2669D02*
X888Y2669D01*
X913Y2669D02*
X919Y2669D01*
X927Y2669D02*
X932Y2669D01*
X959Y2669D02*
X965Y2669D01*
X990Y2669D02*
X995Y2669D01*
X1002Y2669D02*
X1007Y2669D01*
X1015Y2669D02*
X1020Y2669D01*
X1034Y2669D02*
X1039Y2669D01*
X1058Y2669D02*
X1063Y2669D01*
X1101Y2669D02*
X1107Y2669D01*
X1165Y2669D02*
X1170Y2669D01*
X1189Y2669D02*
X1194Y2669D01*
X1209Y2669D02*
X1214Y2669D01*
X1233Y2669D02*
X1238Y2669D01*
X1253Y2669D02*
X1259Y2669D01*
X1277Y2669D02*
X1282Y2669D01*
X1315Y2669D02*
X1320Y2669D01*
X1352Y2669D02*
X1358Y2669D01*
X1384Y2669D02*
X1390Y2669D01*
X1408Y2669D02*
X1413Y2669D01*
X204Y2668D02*
X206Y2668D01*
X214Y2668D02*
X219Y2668D01*
X246Y2668D02*
X252Y2668D01*
X270Y2668D02*
X275Y2668D01*
X302Y2668D02*
X307Y2668D01*
X333Y2668D02*
X338Y2668D01*
X357Y2668D02*
X363Y2668D01*
X377Y2668D02*
X382Y2668D01*
X401Y2668D02*
X406Y2668D01*
X425Y2668D02*
X450Y2668D01*
X478Y2668D02*
X484Y2668D01*
X511Y2668D02*
X538Y2668D01*
X552Y2668D02*
X565Y2668D01*
X576Y2668D02*
X581Y2668D01*
X606Y2668D02*
X612Y2668D01*
X620Y2668D02*
X625Y2668D01*
X640Y2668D02*
X663Y2668D01*
X708Y2668D02*
X713Y2668D01*
X751Y2668D02*
X757Y2668D01*
X771Y2668D02*
X776Y2668D01*
X795Y2668D02*
X800Y2668D01*
X815Y2668D02*
X820Y2668D01*
X839Y2668D02*
X844Y2668D01*
X859Y2668D02*
X864Y2668D01*
X883Y2668D02*
X888Y2668D01*
X913Y2668D02*
X919Y2668D01*
X927Y2668D02*
X932Y2668D01*
X959Y2668D02*
X966Y2668D01*
X990Y2668D02*
X995Y2668D01*
X1002Y2668D02*
X1007Y2668D01*
X1015Y2668D02*
X1020Y2668D01*
X1034Y2668D02*
X1039Y2668D01*
X1058Y2668D02*
X1063Y2668D01*
X1102Y2668D02*
X1107Y2668D01*
X1165Y2668D02*
X1170Y2668D01*
X1189Y2668D02*
X1194Y2668D01*
X1209Y2668D02*
X1214Y2668D01*
X1233Y2668D02*
X1238Y2668D01*
X1253Y2668D02*
X1259Y2668D01*
X1277Y2668D02*
X1282Y2668D01*
X1315Y2668D02*
X1320Y2668D01*
X1352Y2668D02*
X1358Y2668D01*
X1384Y2668D02*
X1389Y2668D01*
X1408Y2668D02*
X1413Y2668D01*
X203Y2667D02*
X207Y2667D01*
X214Y2667D02*
X219Y2667D01*
X246Y2667D02*
X252Y2667D01*
X270Y2667D02*
X275Y2667D01*
X302Y2667D02*
X307Y2667D01*
X333Y2667D02*
X338Y2667D01*
X357Y2667D02*
X363Y2667D01*
X377Y2667D02*
X382Y2667D01*
X401Y2667D02*
X406Y2667D01*
X445Y2667D02*
X450Y2667D01*
X478Y2667D02*
X484Y2667D01*
X510Y2667D02*
X517Y2667D01*
X533Y2667D02*
X538Y2667D01*
X552Y2667D02*
X566Y2667D01*
X576Y2667D02*
X581Y2667D01*
X605Y2667D02*
X612Y2667D01*
X620Y2667D02*
X625Y2667D01*
X640Y2667D02*
X665Y2667D01*
X708Y2667D02*
X713Y2667D01*
X751Y2667D02*
X757Y2667D01*
X771Y2667D02*
X776Y2667D01*
X795Y2667D02*
X800Y2667D01*
X815Y2667D02*
X820Y2667D01*
X839Y2667D02*
X844Y2667D01*
X859Y2667D02*
X864Y2667D01*
X883Y2667D02*
X888Y2667D01*
X912Y2667D02*
X918Y2667D01*
X927Y2667D02*
X932Y2667D01*
X960Y2667D02*
X966Y2667D01*
X990Y2667D02*
X995Y2667D01*
X1002Y2667D02*
X1007Y2667D01*
X1015Y2667D02*
X1020Y2667D01*
X1034Y2667D02*
X1039Y2667D01*
X1058Y2667D02*
X1063Y2667D01*
X1102Y2667D02*
X1107Y2667D01*
X1165Y2667D02*
X1170Y2667D01*
X1189Y2667D02*
X1194Y2667D01*
X1209Y2667D02*
X1214Y2667D01*
X1233Y2667D02*
X1238Y2667D01*
X1253Y2667D02*
X1259Y2667D01*
X1277Y2667D02*
X1282Y2667D01*
X1315Y2667D02*
X1320Y2667D01*
X1352Y2667D02*
X1358Y2667D01*
X1384Y2667D02*
X1389Y2667D01*
X1408Y2667D02*
X1413Y2667D01*
X202Y2666D02*
X207Y2666D01*
X214Y2666D02*
X219Y2666D01*
X246Y2666D02*
X251Y2666D01*
X270Y2666D02*
X275Y2666D01*
X302Y2666D02*
X307Y2666D01*
X333Y2666D02*
X338Y2666D01*
X357Y2666D02*
X363Y2666D01*
X377Y2666D02*
X382Y2666D01*
X401Y2666D02*
X406Y2666D01*
X445Y2666D02*
X450Y2666D01*
X479Y2666D02*
X485Y2666D01*
X509Y2666D02*
X516Y2666D01*
X533Y2666D02*
X538Y2666D01*
X552Y2666D02*
X566Y2666D01*
X576Y2666D02*
X581Y2666D01*
X605Y2666D02*
X611Y2666D01*
X620Y2666D02*
X625Y2666D01*
X640Y2666D02*
X666Y2666D01*
X708Y2666D02*
X713Y2666D01*
X751Y2666D02*
X757Y2666D01*
X771Y2666D02*
X777Y2666D01*
X795Y2666D02*
X800Y2666D01*
X815Y2666D02*
X820Y2666D01*
X839Y2666D02*
X844Y2666D01*
X859Y2666D02*
X864Y2666D01*
X882Y2666D02*
X888Y2666D01*
X911Y2666D02*
X918Y2666D01*
X927Y2666D02*
X932Y2666D01*
X961Y2666D02*
X967Y2666D01*
X990Y2666D02*
X995Y2666D01*
X1002Y2666D02*
X1007Y2666D01*
X1015Y2666D02*
X1020Y2666D01*
X1034Y2666D02*
X1039Y2666D01*
X1058Y2666D02*
X1063Y2666D01*
X1102Y2666D02*
X1107Y2666D01*
X1165Y2666D02*
X1170Y2666D01*
X1189Y2666D02*
X1194Y2666D01*
X1209Y2666D02*
X1214Y2666D01*
X1233Y2666D02*
X1238Y2666D01*
X1253Y2666D02*
X1259Y2666D01*
X1277Y2666D02*
X1282Y2666D01*
X1315Y2666D02*
X1320Y2666D01*
X1352Y2666D02*
X1358Y2666D01*
X1384Y2666D02*
X1389Y2666D01*
X1408Y2666D02*
X1413Y2666D01*
X202Y2665D02*
X207Y2665D01*
X214Y2665D02*
X219Y2665D01*
X246Y2665D02*
X251Y2665D01*
X270Y2665D02*
X275Y2665D01*
X302Y2665D02*
X307Y2665D01*
X333Y2665D02*
X338Y2665D01*
X357Y2665D02*
X363Y2665D01*
X377Y2665D02*
X382Y2665D01*
X401Y2665D02*
X406Y2665D01*
X445Y2665D02*
X450Y2665D01*
X480Y2665D02*
X486Y2665D01*
X509Y2665D02*
X515Y2665D01*
X533Y2665D02*
X538Y2665D01*
X552Y2665D02*
X566Y2665D01*
X576Y2665D02*
X581Y2665D01*
X604Y2665D02*
X610Y2665D01*
X620Y2665D02*
X625Y2665D01*
X640Y2665D02*
X667Y2665D01*
X708Y2665D02*
X713Y2665D01*
X751Y2665D02*
X757Y2665D01*
X771Y2665D02*
X800Y2665D01*
X815Y2665D02*
X820Y2665D01*
X839Y2665D02*
X844Y2665D01*
X859Y2665D02*
X888Y2665D01*
X911Y2665D02*
X917Y2665D01*
X927Y2665D02*
X932Y2665D01*
X961Y2665D02*
X967Y2665D01*
X990Y2665D02*
X995Y2665D01*
X1002Y2665D02*
X1007Y2665D01*
X1015Y2665D02*
X1020Y2665D01*
X1034Y2665D02*
X1039Y2665D01*
X1058Y2665D02*
X1063Y2665D01*
X1102Y2665D02*
X1107Y2665D01*
X1131Y2665D02*
X1141Y2665D01*
X1165Y2665D02*
X1170Y2665D01*
X1189Y2665D02*
X1194Y2665D01*
X1209Y2665D02*
X1214Y2665D01*
X1233Y2665D02*
X1238Y2665D01*
X1253Y2665D02*
X1258Y2665D01*
X1277Y2665D02*
X1282Y2665D01*
X1315Y2665D02*
X1320Y2665D01*
X1352Y2665D02*
X1358Y2665D01*
X1384Y2665D02*
X1389Y2665D01*
X1408Y2665D02*
X1413Y2665D01*
X202Y2664D02*
X207Y2664D01*
X214Y2664D02*
X219Y2664D01*
X246Y2664D02*
X251Y2664D01*
X270Y2664D02*
X275Y2664D01*
X302Y2664D02*
X307Y2664D01*
X333Y2664D02*
X338Y2664D01*
X357Y2664D02*
X363Y2664D01*
X377Y2664D02*
X382Y2664D01*
X401Y2664D02*
X406Y2664D01*
X445Y2664D02*
X450Y2664D01*
X480Y2664D02*
X486Y2664D01*
X509Y2664D02*
X514Y2664D01*
X533Y2664D02*
X538Y2664D01*
X552Y2664D02*
X566Y2664D01*
X576Y2664D02*
X581Y2664D01*
X604Y2664D02*
X610Y2664D01*
X620Y2664D02*
X625Y2664D01*
X640Y2664D02*
X668Y2664D01*
X708Y2664D02*
X713Y2664D01*
X751Y2664D02*
X757Y2664D01*
X771Y2664D02*
X800Y2664D01*
X815Y2664D02*
X820Y2664D01*
X839Y2664D02*
X844Y2664D01*
X859Y2664D02*
X888Y2664D01*
X910Y2664D02*
X916Y2664D01*
X927Y2664D02*
X932Y2664D01*
X962Y2664D02*
X968Y2664D01*
X990Y2664D02*
X995Y2664D01*
X1002Y2664D02*
X1007Y2664D01*
X1015Y2664D02*
X1020Y2664D01*
X1034Y2664D02*
X1039Y2664D01*
X1058Y2664D02*
X1063Y2664D01*
X1102Y2664D02*
X1107Y2664D01*
X1131Y2664D02*
X1141Y2664D01*
X1165Y2664D02*
X1170Y2664D01*
X1189Y2664D02*
X1194Y2664D01*
X1209Y2664D02*
X1214Y2664D01*
X1233Y2664D02*
X1238Y2664D01*
X1253Y2664D02*
X1258Y2664D01*
X1277Y2664D02*
X1282Y2664D01*
X1315Y2664D02*
X1320Y2664D01*
X1352Y2664D02*
X1358Y2664D01*
X1384Y2664D02*
X1389Y2664D01*
X1408Y2664D02*
X1413Y2664D01*
X202Y2663D02*
X207Y2663D01*
X214Y2663D02*
X219Y2663D01*
X246Y2663D02*
X251Y2663D01*
X270Y2663D02*
X275Y2663D01*
X302Y2663D02*
X307Y2663D01*
X333Y2663D02*
X338Y2663D01*
X357Y2663D02*
X363Y2663D01*
X377Y2663D02*
X382Y2663D01*
X401Y2663D02*
X406Y2663D01*
X445Y2663D02*
X450Y2663D01*
X481Y2663D02*
X487Y2663D01*
X509Y2663D02*
X514Y2663D01*
X533Y2663D02*
X538Y2663D01*
X552Y2663D02*
X565Y2663D01*
X576Y2663D02*
X581Y2663D01*
X603Y2663D02*
X609Y2663D01*
X620Y2663D02*
X625Y2663D01*
X640Y2663D02*
X668Y2663D01*
X708Y2663D02*
X713Y2663D01*
X751Y2663D02*
X757Y2663D01*
X771Y2663D02*
X800Y2663D01*
X815Y2663D02*
X820Y2663D01*
X839Y2663D02*
X844Y2663D01*
X859Y2663D02*
X888Y2663D01*
X910Y2663D02*
X916Y2663D01*
X927Y2663D02*
X932Y2663D01*
X962Y2663D02*
X968Y2663D01*
X990Y2663D02*
X995Y2663D01*
X1002Y2663D02*
X1007Y2663D01*
X1015Y2663D02*
X1020Y2663D01*
X1034Y2663D02*
X1039Y2663D01*
X1058Y2663D02*
X1063Y2663D01*
X1102Y2663D02*
X1107Y2663D01*
X1131Y2663D02*
X1142Y2663D01*
X1165Y2663D02*
X1170Y2663D01*
X1189Y2663D02*
X1194Y2663D01*
X1209Y2663D02*
X1214Y2663D01*
X1233Y2663D02*
X1238Y2663D01*
X1253Y2663D02*
X1258Y2663D01*
X1277Y2663D02*
X1282Y2663D01*
X1315Y2663D02*
X1320Y2663D01*
X1352Y2663D02*
X1358Y2663D01*
X1384Y2663D02*
X1389Y2663D01*
X1408Y2663D02*
X1413Y2663D01*
X202Y2662D02*
X207Y2662D01*
X214Y2662D02*
X219Y2662D01*
X246Y2662D02*
X251Y2662D01*
X270Y2662D02*
X275Y2662D01*
X302Y2662D02*
X307Y2662D01*
X333Y2662D02*
X338Y2662D01*
X357Y2662D02*
X363Y2662D01*
X377Y2662D02*
X382Y2662D01*
X401Y2662D02*
X406Y2662D01*
X445Y2662D02*
X450Y2662D01*
X481Y2662D02*
X487Y2662D01*
X509Y2662D02*
X514Y2662D01*
X533Y2662D02*
X538Y2662D01*
X552Y2662D02*
X557Y2662D01*
X576Y2662D02*
X581Y2662D01*
X603Y2662D02*
X609Y2662D01*
X620Y2662D02*
X625Y2662D01*
X640Y2662D02*
X647Y2662D01*
X662Y2662D02*
X669Y2662D01*
X708Y2662D02*
X713Y2662D01*
X751Y2662D02*
X757Y2662D01*
X771Y2662D02*
X800Y2662D01*
X815Y2662D02*
X820Y2662D01*
X839Y2662D02*
X844Y2662D01*
X859Y2662D02*
X888Y2662D01*
X909Y2662D02*
X915Y2662D01*
X927Y2662D02*
X932Y2662D01*
X963Y2662D02*
X969Y2662D01*
X990Y2662D02*
X995Y2662D01*
X1002Y2662D02*
X1007Y2662D01*
X1015Y2662D02*
X1020Y2662D01*
X1034Y2662D02*
X1039Y2662D01*
X1058Y2662D02*
X1063Y2662D01*
X1102Y2662D02*
X1107Y2662D01*
X1130Y2662D02*
X1142Y2662D01*
X1165Y2662D02*
X1170Y2662D01*
X1189Y2662D02*
X1194Y2662D01*
X1209Y2662D02*
X1214Y2662D01*
X1233Y2662D02*
X1238Y2662D01*
X1253Y2662D02*
X1258Y2662D01*
X1277Y2662D02*
X1282Y2662D01*
X1315Y2662D02*
X1320Y2662D01*
X1352Y2662D02*
X1358Y2662D01*
X1384Y2662D02*
X1390Y2662D01*
X1408Y2662D02*
X1413Y2662D01*
X202Y2661D02*
X207Y2661D01*
X214Y2661D02*
X219Y2661D01*
X246Y2661D02*
X251Y2661D01*
X270Y2661D02*
X275Y2661D01*
X302Y2661D02*
X307Y2661D01*
X333Y2661D02*
X338Y2661D01*
X357Y2661D02*
X363Y2661D01*
X377Y2661D02*
X382Y2661D01*
X401Y2661D02*
X406Y2661D01*
X445Y2661D02*
X450Y2661D01*
X482Y2661D02*
X488Y2661D01*
X509Y2661D02*
X514Y2661D01*
X533Y2661D02*
X538Y2661D01*
X552Y2661D02*
X557Y2661D01*
X576Y2661D02*
X581Y2661D01*
X602Y2661D02*
X608Y2661D01*
X620Y2661D02*
X625Y2661D01*
X640Y2661D02*
X646Y2661D01*
X663Y2661D02*
X669Y2661D01*
X708Y2661D02*
X713Y2661D01*
X751Y2661D02*
X757Y2661D01*
X772Y2661D02*
X800Y2661D01*
X815Y2661D02*
X820Y2661D01*
X839Y2661D02*
X844Y2661D01*
X859Y2661D02*
X888Y2661D01*
X908Y2661D02*
X915Y2661D01*
X927Y2661D02*
X932Y2661D01*
X963Y2661D02*
X970Y2661D01*
X990Y2661D02*
X995Y2661D01*
X1002Y2661D02*
X1007Y2661D01*
X1015Y2661D02*
X1020Y2661D01*
X1034Y2661D02*
X1039Y2661D01*
X1058Y2661D02*
X1063Y2661D01*
X1102Y2661D02*
X1107Y2661D01*
X1130Y2661D02*
X1142Y2661D01*
X1165Y2661D02*
X1170Y2661D01*
X1189Y2661D02*
X1194Y2661D01*
X1209Y2661D02*
X1214Y2661D01*
X1233Y2661D02*
X1238Y2661D01*
X1253Y2661D02*
X1258Y2661D01*
X1277Y2661D02*
X1282Y2661D01*
X1315Y2661D02*
X1320Y2661D01*
X1352Y2661D02*
X1358Y2661D01*
X1384Y2661D02*
X1390Y2661D01*
X1408Y2661D02*
X1413Y2661D01*
X202Y2660D02*
X207Y2660D01*
X214Y2660D02*
X219Y2660D01*
X246Y2660D02*
X251Y2660D01*
X270Y2660D02*
X275Y2660D01*
X302Y2660D02*
X307Y2660D01*
X333Y2660D02*
X338Y2660D01*
X357Y2660D02*
X363Y2660D01*
X377Y2660D02*
X382Y2660D01*
X401Y2660D02*
X406Y2660D01*
X445Y2660D02*
X450Y2660D01*
X482Y2660D02*
X489Y2660D01*
X508Y2660D02*
X514Y2660D01*
X533Y2660D02*
X538Y2660D01*
X552Y2660D02*
X557Y2660D01*
X576Y2660D02*
X581Y2660D01*
X601Y2660D02*
X608Y2660D01*
X620Y2660D02*
X625Y2660D01*
X640Y2660D02*
X645Y2660D01*
X664Y2660D02*
X669Y2660D01*
X708Y2660D02*
X713Y2660D01*
X751Y2660D02*
X757Y2660D01*
X773Y2660D02*
X800Y2660D01*
X815Y2660D02*
X820Y2660D01*
X839Y2660D02*
X844Y2660D01*
X861Y2660D02*
X888Y2660D01*
X908Y2660D02*
X914Y2660D01*
X927Y2660D02*
X932Y2660D01*
X964Y2660D02*
X970Y2660D01*
X990Y2660D02*
X995Y2660D01*
X1002Y2660D02*
X1007Y2660D01*
X1015Y2660D02*
X1020Y2660D01*
X1034Y2660D02*
X1039Y2660D01*
X1058Y2660D02*
X1063Y2660D01*
X1102Y2660D02*
X1107Y2660D01*
X1130Y2660D02*
X1142Y2660D01*
X1165Y2660D02*
X1170Y2660D01*
X1189Y2660D02*
X1194Y2660D01*
X1209Y2660D02*
X1214Y2660D01*
X1232Y2660D02*
X1238Y2660D01*
X1253Y2660D02*
X1258Y2660D01*
X1277Y2660D02*
X1282Y2660D01*
X1315Y2660D02*
X1320Y2660D01*
X1352Y2660D02*
X1358Y2660D01*
X1384Y2660D02*
X1391Y2660D01*
X1408Y2660D02*
X1413Y2660D01*
X202Y2659D02*
X207Y2659D01*
X214Y2659D02*
X219Y2659D01*
X246Y2659D02*
X251Y2659D01*
X270Y2659D02*
X275Y2659D01*
X302Y2659D02*
X307Y2659D01*
X333Y2659D02*
X338Y2659D01*
X357Y2659D02*
X363Y2659D01*
X377Y2659D02*
X382Y2659D01*
X401Y2659D02*
X406Y2659D01*
X445Y2659D02*
X450Y2659D01*
X483Y2659D02*
X489Y2659D01*
X509Y2659D02*
X514Y2659D01*
X533Y2659D02*
X538Y2659D01*
X552Y2659D02*
X557Y2659D01*
X576Y2659D02*
X581Y2659D01*
X601Y2659D02*
X607Y2659D01*
X620Y2659D02*
X625Y2659D01*
X640Y2659D02*
X645Y2659D01*
X664Y2659D02*
X669Y2659D01*
X707Y2659D02*
X713Y2659D01*
X751Y2659D02*
X756Y2659D01*
X795Y2659D02*
X800Y2659D01*
X815Y2659D02*
X820Y2659D01*
X839Y2659D02*
X844Y2659D01*
X883Y2659D02*
X888Y2659D01*
X907Y2659D02*
X913Y2659D01*
X927Y2659D02*
X932Y2659D01*
X965Y2659D02*
X971Y2659D01*
X990Y2659D02*
X995Y2659D01*
X1002Y2659D02*
X1007Y2659D01*
X1015Y2659D02*
X1020Y2659D01*
X1034Y2659D02*
X1039Y2659D01*
X1058Y2659D02*
X1063Y2659D01*
X1101Y2659D02*
X1107Y2659D01*
X1130Y2659D02*
X1142Y2659D01*
X1165Y2659D02*
X1170Y2659D01*
X1189Y2659D02*
X1194Y2659D01*
X1209Y2659D02*
X1215Y2659D01*
X1232Y2659D02*
X1238Y2659D01*
X1253Y2659D02*
X1258Y2659D01*
X1277Y2659D02*
X1282Y2659D01*
X1315Y2659D02*
X1320Y2659D01*
X1352Y2659D02*
X1358Y2659D01*
X1384Y2659D02*
X1392Y2659D01*
X1408Y2659D02*
X1413Y2659D01*
X202Y2658D02*
X207Y2658D01*
X214Y2658D02*
X219Y2658D01*
X246Y2658D02*
X251Y2658D01*
X270Y2658D02*
X275Y2658D01*
X302Y2658D02*
X307Y2658D01*
X333Y2658D02*
X338Y2658D01*
X357Y2658D02*
X363Y2658D01*
X377Y2658D02*
X382Y2658D01*
X401Y2658D02*
X406Y2658D01*
X445Y2658D02*
X450Y2658D01*
X484Y2658D02*
X490Y2658D01*
X509Y2658D02*
X514Y2658D01*
X533Y2658D02*
X538Y2658D01*
X552Y2658D02*
X557Y2658D01*
X576Y2658D02*
X581Y2658D01*
X600Y2658D02*
X606Y2658D01*
X620Y2658D02*
X625Y2658D01*
X640Y2658D02*
X645Y2658D01*
X664Y2658D02*
X669Y2658D01*
X706Y2658D02*
X712Y2658D01*
X750Y2658D02*
X756Y2658D01*
X795Y2658D02*
X800Y2658D01*
X815Y2658D02*
X820Y2658D01*
X838Y2658D02*
X844Y2658D01*
X883Y2658D02*
X888Y2658D01*
X907Y2658D02*
X913Y2658D01*
X927Y2658D02*
X932Y2658D01*
X965Y2658D02*
X971Y2658D01*
X990Y2658D02*
X995Y2658D01*
X1002Y2658D02*
X1007Y2658D01*
X1015Y2658D02*
X1020Y2658D01*
X1034Y2658D02*
X1039Y2658D01*
X1058Y2658D02*
X1063Y2658D01*
X1100Y2658D02*
X1106Y2658D01*
X1131Y2658D02*
X1142Y2658D01*
X1165Y2658D02*
X1170Y2658D01*
X1188Y2658D02*
X1194Y2658D01*
X1209Y2658D02*
X1216Y2658D01*
X1232Y2658D02*
X1238Y2658D01*
X1253Y2658D02*
X1258Y2658D01*
X1277Y2658D02*
X1282Y2658D01*
X1299Y2658D02*
X1300Y2658D01*
X1315Y2658D02*
X1320Y2658D01*
X1352Y2658D02*
X1358Y2658D01*
X1384Y2658D02*
X1394Y2658D01*
X1407Y2658D02*
X1413Y2658D01*
X202Y2657D02*
X207Y2657D01*
X214Y2657D02*
X219Y2657D01*
X246Y2657D02*
X251Y2657D01*
X270Y2657D02*
X275Y2657D01*
X302Y2657D02*
X307Y2657D01*
X333Y2657D02*
X338Y2657D01*
X357Y2657D02*
X363Y2657D01*
X377Y2657D02*
X382Y2657D01*
X401Y2657D02*
X406Y2657D01*
X445Y2657D02*
X450Y2657D01*
X484Y2657D02*
X490Y2657D01*
X509Y2657D02*
X514Y2657D01*
X533Y2657D02*
X538Y2657D01*
X552Y2657D02*
X557Y2657D01*
X576Y2657D02*
X581Y2657D01*
X600Y2657D02*
X606Y2657D01*
X620Y2657D02*
X625Y2657D01*
X640Y2657D02*
X645Y2657D01*
X664Y2657D02*
X669Y2657D01*
X705Y2657D02*
X712Y2657D01*
X749Y2657D02*
X756Y2657D01*
X795Y2657D02*
X800Y2657D01*
X815Y2657D02*
X820Y2657D01*
X837Y2657D02*
X844Y2657D01*
X883Y2657D02*
X888Y2657D01*
X906Y2657D02*
X912Y2657D01*
X927Y2657D02*
X932Y2657D01*
X966Y2657D02*
X972Y2657D01*
X990Y2657D02*
X995Y2657D01*
X1002Y2657D02*
X1007Y2657D01*
X1015Y2657D02*
X1020Y2657D01*
X1034Y2657D02*
X1039Y2657D01*
X1058Y2657D02*
X1063Y2657D01*
X1099Y2657D02*
X1106Y2657D01*
X1131Y2657D02*
X1142Y2657D01*
X1165Y2657D02*
X1171Y2657D01*
X1187Y2657D02*
X1194Y2657D01*
X1209Y2657D02*
X1218Y2657D01*
X1232Y2657D02*
X1238Y2657D01*
X1253Y2657D02*
X1258Y2657D01*
X1277Y2657D02*
X1282Y2657D01*
X1297Y2657D02*
X1301Y2657D01*
X1315Y2657D02*
X1320Y2657D01*
X1352Y2657D02*
X1358Y2657D01*
X1384Y2657D02*
X1395Y2657D01*
X1406Y2657D02*
X1413Y2657D01*
X202Y2656D02*
X207Y2656D01*
X214Y2656D02*
X219Y2656D01*
X246Y2656D02*
X251Y2656D01*
X270Y2656D02*
X275Y2656D01*
X302Y2656D02*
X307Y2656D01*
X333Y2656D02*
X338Y2656D01*
X357Y2656D02*
X363Y2656D01*
X377Y2656D02*
X382Y2656D01*
X401Y2656D02*
X406Y2656D01*
X445Y2656D02*
X450Y2656D01*
X485Y2656D02*
X491Y2656D01*
X509Y2656D02*
X515Y2656D01*
X533Y2656D02*
X538Y2656D01*
X552Y2656D02*
X557Y2656D01*
X576Y2656D02*
X581Y2656D01*
X599Y2656D02*
X605Y2656D01*
X620Y2656D02*
X625Y2656D01*
X640Y2656D02*
X647Y2656D01*
X664Y2656D02*
X669Y2656D01*
X704Y2656D02*
X712Y2656D01*
X748Y2656D02*
X755Y2656D01*
X795Y2656D02*
X800Y2656D01*
X815Y2656D02*
X821Y2656D01*
X835Y2656D02*
X844Y2656D01*
X882Y2656D02*
X888Y2656D01*
X906Y2656D02*
X912Y2656D01*
X927Y2656D02*
X932Y2656D01*
X966Y2656D02*
X973Y2656D01*
X990Y2656D02*
X995Y2656D01*
X1002Y2656D02*
X1007Y2656D01*
X1015Y2656D02*
X1020Y2656D01*
X1034Y2656D02*
X1040Y2656D01*
X1057Y2656D02*
X1063Y2656D01*
X1098Y2656D02*
X1106Y2656D01*
X1131Y2656D02*
X1141Y2656D01*
X1165Y2656D02*
X1171Y2656D01*
X1186Y2656D02*
X1194Y2656D01*
X1209Y2656D02*
X1219Y2656D01*
X1232Y2656D02*
X1237Y2656D01*
X1253Y2656D02*
X1258Y2656D01*
X1277Y2656D02*
X1282Y2656D01*
X1297Y2656D02*
X1301Y2656D01*
X1315Y2656D02*
X1320Y2656D01*
X1352Y2656D02*
X1358Y2656D01*
X1384Y2656D02*
X1396Y2656D01*
X1405Y2656D02*
X1412Y2656D01*
X202Y2655D02*
X207Y2655D01*
X214Y2655D02*
X219Y2655D01*
X246Y2655D02*
X251Y2655D01*
X270Y2655D02*
X275Y2655D01*
X302Y2655D02*
X307Y2655D01*
X333Y2655D02*
X338Y2655D01*
X357Y2655D02*
X363Y2655D01*
X377Y2655D02*
X382Y2655D01*
X401Y2655D02*
X406Y2655D01*
X445Y2655D02*
X450Y2655D01*
X485Y2655D02*
X491Y2655D01*
X509Y2655D02*
X515Y2655D01*
X533Y2655D02*
X538Y2655D01*
X552Y2655D02*
X558Y2655D01*
X576Y2655D02*
X581Y2655D01*
X598Y2655D02*
X605Y2655D01*
X620Y2655D02*
X625Y2655D01*
X640Y2655D02*
X649Y2655D01*
X664Y2655D02*
X669Y2655D01*
X703Y2655D02*
X711Y2655D01*
X747Y2655D02*
X755Y2655D01*
X794Y2655D02*
X800Y2655D01*
X815Y2655D02*
X822Y2655D01*
X834Y2655D02*
X844Y2655D01*
X881Y2655D02*
X887Y2655D01*
X905Y2655D02*
X911Y2655D01*
X927Y2655D02*
X932Y2655D01*
X967Y2655D02*
X973Y2655D01*
X990Y2655D02*
X995Y2655D01*
X1002Y2655D02*
X1007Y2655D01*
X1015Y2655D02*
X1020Y2655D01*
X1034Y2655D02*
X1041Y2655D01*
X1056Y2655D02*
X1063Y2655D01*
X1097Y2655D02*
X1105Y2655D01*
X1132Y2655D02*
X1140Y2655D01*
X1166Y2655D02*
X1172Y2655D01*
X1184Y2655D02*
X1194Y2655D01*
X1209Y2655D02*
X1221Y2655D01*
X1232Y2655D02*
X1237Y2655D01*
X1253Y2655D02*
X1258Y2655D01*
X1277Y2655D02*
X1282Y2655D01*
X1297Y2655D02*
X1302Y2655D01*
X1314Y2655D02*
X1320Y2655D01*
X1352Y2655D02*
X1358Y2655D01*
X1384Y2655D02*
X1411Y2655D01*
X202Y2654D02*
X207Y2654D01*
X214Y2654D02*
X219Y2654D01*
X246Y2654D02*
X251Y2654D01*
X270Y2654D02*
X275Y2654D01*
X302Y2654D02*
X307Y2654D01*
X333Y2654D02*
X338Y2654D01*
X357Y2654D02*
X363Y2654D01*
X377Y2654D02*
X382Y2654D01*
X401Y2654D02*
X406Y2654D01*
X445Y2654D02*
X450Y2654D01*
X486Y2654D02*
X492Y2654D01*
X510Y2654D02*
X517Y2654D01*
X533Y2654D02*
X538Y2654D01*
X553Y2654D02*
X558Y2654D01*
X575Y2654D02*
X581Y2654D01*
X598Y2654D02*
X604Y2654D01*
X620Y2654D02*
X625Y2654D01*
X640Y2654D02*
X650Y2654D01*
X663Y2654D02*
X669Y2654D01*
X702Y2654D02*
X710Y2654D01*
X745Y2654D02*
X754Y2654D01*
X792Y2654D02*
X800Y2654D01*
X816Y2654D02*
X823Y2654D01*
X833Y2654D02*
X844Y2654D01*
X880Y2654D02*
X887Y2654D01*
X904Y2654D02*
X911Y2654D01*
X927Y2654D02*
X932Y2654D01*
X968Y2654D02*
X974Y2654D01*
X990Y2654D02*
X995Y2654D01*
X1002Y2654D02*
X1007Y2654D01*
X1015Y2654D02*
X1020Y2654D01*
X1035Y2654D02*
X1042Y2654D01*
X1055Y2654D02*
X1062Y2654D01*
X1096Y2654D02*
X1104Y2654D01*
X1166Y2654D02*
X1173Y2654D01*
X1183Y2654D02*
X1194Y2654D01*
X1209Y2654D02*
X1223Y2654D01*
X1231Y2654D02*
X1237Y2654D01*
X1253Y2654D02*
X1258Y2654D01*
X1277Y2654D02*
X1282Y2654D01*
X1297Y2654D02*
X1303Y2654D01*
X1314Y2654D02*
X1320Y2654D01*
X1352Y2654D02*
X1358Y2654D01*
X1384Y2654D02*
X1411Y2654D01*
X202Y2653D02*
X228Y2653D01*
X246Y2653D02*
X251Y2653D01*
X270Y2653D02*
X275Y2653D01*
X295Y2653D02*
X313Y2653D01*
X333Y2653D02*
X363Y2653D01*
X377Y2653D02*
X406Y2653D01*
X424Y2653D02*
X450Y2653D01*
X487Y2653D02*
X493Y2653D01*
X510Y2653D02*
X538Y2653D01*
X553Y2653D02*
X581Y2653D01*
X597Y2653D02*
X603Y2653D01*
X620Y2653D02*
X625Y2653D01*
X640Y2653D02*
X668Y2653D01*
X686Y2653D02*
X709Y2653D01*
X730Y2653D02*
X753Y2653D01*
X774Y2653D02*
X799Y2653D01*
X817Y2653D02*
X844Y2653D01*
X862Y2653D02*
X887Y2653D01*
X904Y2653D02*
X910Y2653D01*
X927Y2653D02*
X932Y2653D01*
X968Y2653D02*
X974Y2653D01*
X990Y2653D02*
X995Y2653D01*
X1002Y2653D02*
X1007Y2653D01*
X1015Y2653D02*
X1020Y2653D01*
X1035Y2653D02*
X1062Y2653D01*
X1080Y2653D02*
X1103Y2653D01*
X1167Y2653D02*
X1194Y2653D01*
X1209Y2653D02*
X1237Y2653D01*
X1253Y2653D02*
X1258Y2653D01*
X1277Y2653D02*
X1282Y2653D01*
X1297Y2653D02*
X1319Y2653D01*
X1346Y2653D02*
X1364Y2653D01*
X1384Y2653D02*
X1389Y2653D01*
X1391Y2653D02*
X1409Y2653D01*
X202Y2652D02*
X230Y2652D01*
X246Y2652D02*
X251Y2652D01*
X270Y2652D02*
X275Y2652D01*
X293Y2652D02*
X315Y2652D01*
X333Y2652D02*
X362Y2652D01*
X377Y2652D02*
X406Y2652D01*
X422Y2652D02*
X450Y2652D01*
X487Y2652D02*
X493Y2652D01*
X511Y2652D02*
X538Y2652D01*
X553Y2652D02*
X580Y2652D01*
X597Y2652D02*
X603Y2652D01*
X620Y2652D02*
X625Y2652D01*
X640Y2652D02*
X668Y2652D01*
X684Y2652D02*
X708Y2652D01*
X728Y2652D02*
X752Y2652D01*
X772Y2652D02*
X798Y2652D01*
X817Y2652D02*
X844Y2652D01*
X860Y2652D02*
X886Y2652D01*
X903Y2652D02*
X909Y2652D01*
X927Y2652D02*
X932Y2652D01*
X969Y2652D02*
X975Y2652D01*
X990Y2652D02*
X995Y2652D01*
X1002Y2652D02*
X1007Y2652D01*
X1015Y2652D02*
X1020Y2652D01*
X1036Y2652D02*
X1061Y2652D01*
X1079Y2652D02*
X1102Y2652D01*
X1168Y2652D02*
X1194Y2652D01*
X1209Y2652D02*
X1237Y2652D01*
X1253Y2652D02*
X1258Y2652D01*
X1277Y2652D02*
X1282Y2652D01*
X1298Y2652D02*
X1319Y2652D01*
X1344Y2652D02*
X1366Y2652D01*
X1384Y2652D02*
X1389Y2652D01*
X1392Y2652D02*
X1408Y2652D01*
X202Y2651D02*
X231Y2651D01*
X246Y2651D02*
X251Y2651D01*
X270Y2651D02*
X275Y2651D01*
X293Y2651D02*
X316Y2651D01*
X334Y2651D02*
X362Y2651D01*
X378Y2651D02*
X406Y2651D01*
X421Y2651D02*
X450Y2651D01*
X488Y2651D02*
X494Y2651D01*
X512Y2651D02*
X538Y2651D01*
X554Y2651D02*
X580Y2651D01*
X596Y2651D02*
X602Y2651D01*
X620Y2651D02*
X625Y2651D01*
X640Y2651D02*
X667Y2651D01*
X684Y2651D02*
X707Y2651D01*
X728Y2651D02*
X750Y2651D01*
X771Y2651D02*
X797Y2651D01*
X818Y2651D02*
X844Y2651D01*
X859Y2651D02*
X885Y2651D01*
X903Y2651D02*
X909Y2651D01*
X927Y2651D02*
X932Y2651D01*
X969Y2651D02*
X975Y2651D01*
X990Y2651D02*
X995Y2651D01*
X1002Y2651D02*
X1007Y2651D01*
X1015Y2651D02*
X1020Y2651D01*
X1037Y2651D02*
X1060Y2651D01*
X1078Y2651D02*
X1101Y2651D01*
X1169Y2651D02*
X1194Y2651D01*
X1209Y2651D02*
X1214Y2651D01*
X1217Y2651D02*
X1236Y2651D01*
X1253Y2651D02*
X1258Y2651D01*
X1277Y2651D02*
X1282Y2651D01*
X1298Y2651D02*
X1318Y2651D01*
X1344Y2651D02*
X1366Y2651D01*
X1384Y2651D02*
X1389Y2651D01*
X1394Y2651D02*
X1407Y2651D01*
X202Y2650D02*
X231Y2650D01*
X246Y2650D02*
X251Y2650D01*
X270Y2650D02*
X275Y2650D01*
X293Y2650D02*
X316Y2650D01*
X334Y2650D02*
X362Y2650D01*
X378Y2650D02*
X405Y2650D01*
X421Y2650D02*
X450Y2650D01*
X488Y2650D02*
X494Y2650D01*
X513Y2650D02*
X538Y2650D01*
X555Y2650D02*
X579Y2650D01*
X596Y2650D02*
X602Y2650D01*
X620Y2650D02*
X625Y2650D01*
X640Y2650D02*
X667Y2650D01*
X684Y2650D02*
X705Y2650D01*
X727Y2650D02*
X749Y2650D01*
X771Y2650D02*
X796Y2650D01*
X819Y2650D02*
X837Y2650D01*
X839Y2650D02*
X844Y2650D01*
X859Y2650D02*
X884Y2650D01*
X903Y2650D02*
X908Y2650D01*
X927Y2650D02*
X932Y2650D01*
X970Y2650D02*
X975Y2650D01*
X990Y2650D02*
X995Y2650D01*
X1002Y2650D02*
X1007Y2650D01*
X1015Y2650D02*
X1020Y2650D01*
X1038Y2650D02*
X1059Y2650D01*
X1078Y2650D02*
X1100Y2650D01*
X1170Y2650D02*
X1187Y2650D01*
X1189Y2650D02*
X1194Y2650D01*
X1209Y2650D02*
X1214Y2650D01*
X1219Y2650D02*
X1235Y2650D01*
X1253Y2650D02*
X1258Y2650D01*
X1277Y2650D02*
X1282Y2650D01*
X1299Y2650D02*
X1317Y2650D01*
X1343Y2650D02*
X1367Y2650D01*
X1384Y2650D02*
X1389Y2650D01*
X1396Y2650D02*
X1405Y2650D01*
X202Y2649D02*
X231Y2649D01*
X246Y2649D02*
X251Y2649D01*
X270Y2649D02*
X275Y2649D01*
X293Y2649D02*
X316Y2649D01*
X335Y2649D02*
X361Y2649D01*
X379Y2649D02*
X405Y2649D01*
X421Y2649D02*
X450Y2649D01*
X489Y2649D02*
X494Y2649D01*
X514Y2649D02*
X538Y2649D01*
X556Y2649D02*
X578Y2649D01*
X596Y2649D02*
X601Y2649D01*
X620Y2649D02*
X625Y2649D01*
X640Y2649D02*
X645Y2649D01*
X648Y2649D02*
X666Y2649D01*
X684Y2649D02*
X704Y2649D01*
X728Y2649D02*
X748Y2649D01*
X771Y2649D02*
X795Y2649D01*
X821Y2649D02*
X836Y2649D01*
X839Y2649D02*
X844Y2649D01*
X859Y2649D02*
X882Y2649D01*
X903Y2649D02*
X908Y2649D01*
X927Y2649D02*
X931Y2649D01*
X970Y2649D02*
X975Y2649D01*
X990Y2649D02*
X995Y2649D01*
X1002Y2649D02*
X1007Y2649D01*
X1015Y2649D02*
X1020Y2649D01*
X1040Y2649D02*
X1058Y2649D01*
X1078Y2649D02*
X1098Y2649D01*
X1171Y2649D02*
X1186Y2649D01*
X1190Y2649D02*
X1194Y2649D01*
X1209Y2649D02*
X1214Y2649D01*
X1220Y2649D02*
X1234Y2649D01*
X1253Y2649D02*
X1258Y2649D01*
X1277Y2649D02*
X1282Y2649D01*
X1300Y2649D02*
X1316Y2649D01*
X1344Y2649D02*
X1366Y2649D01*
X1384Y2649D02*
X1389Y2649D01*
X203Y2648D02*
X230Y2648D01*
X247Y2648D02*
X250Y2648D01*
X271Y2648D02*
X274Y2648D01*
X293Y2648D02*
X315Y2648D01*
X336Y2648D02*
X360Y2648D01*
X380Y2648D02*
X403Y2648D01*
X422Y2648D02*
X450Y2648D01*
X490Y2648D02*
X493Y2648D01*
X516Y2648D02*
X538Y2648D01*
X557Y2648D02*
X577Y2648D01*
X597Y2648D02*
X600Y2648D01*
X621Y2648D02*
X624Y2648D01*
X641Y2648D02*
X644Y2648D01*
X649Y2648D02*
X664Y2648D01*
X684Y2648D02*
X703Y2648D01*
X728Y2648D02*
X747Y2648D01*
X772Y2648D02*
X793Y2648D01*
X822Y2648D02*
X834Y2648D01*
X840Y2648D02*
X843Y2648D01*
X860Y2648D02*
X881Y2648D01*
X903Y2648D02*
X907Y2648D01*
X927Y2648D02*
X931Y2648D01*
X971Y2648D02*
X975Y2648D01*
X991Y2648D02*
X994Y2648D01*
X1003Y2648D02*
X1006Y2648D01*
X1016Y2648D02*
X1019Y2648D01*
X1041Y2648D02*
X1056Y2648D01*
X1079Y2648D02*
X1097Y2648D01*
X1172Y2648D02*
X1184Y2648D01*
X1190Y2648D02*
X1194Y2648D01*
X1210Y2648D02*
X1213Y2648D01*
X1222Y2648D02*
X1233Y2648D01*
X1254Y2648D02*
X1257Y2648D01*
X1278Y2648D02*
X1281Y2648D01*
X1302Y2648D02*
X1315Y2648D01*
X1344Y2648D02*
X1366Y2648D01*
X1384Y2648D02*
X1389Y2648D01*
X205Y2647D02*
X228Y2647D01*
X295Y2647D02*
X313Y2647D01*
X339Y2647D02*
X357Y2647D01*
X383Y2647D02*
X401Y2647D01*
X424Y2647D02*
X450Y2647D01*
X520Y2647D02*
X537Y2647D01*
X561Y2647D02*
X573Y2647D01*
X652Y2647D02*
X661Y2647D01*
X687Y2647D02*
X699Y2647D01*
X730Y2647D02*
X743Y2647D01*
X774Y2647D02*
X790Y2647D01*
X826Y2647D02*
X830Y2647D01*
X862Y2647D02*
X878Y2647D01*
X1045Y2647D02*
X1052Y2647D01*
X1081Y2647D02*
X1093Y2647D01*
X1176Y2647D02*
X1181Y2647D01*
X1226Y2647D02*
X1229Y2647D01*
X1305Y2647D02*
X1311Y2647D01*
X1346Y2647D02*
X1364Y2647D01*
X1384Y2647D02*
X1389Y2647D01*
X1384Y2646D02*
X1389Y2646D01*
X1384Y2645D02*
X1389Y2645D01*
X1384Y2644D02*
X1390Y2644D01*
X1384Y2643D02*
X1390Y2643D01*
X1385Y2642D02*
X1391Y2642D01*
X1385Y2641D02*
X1393Y2641D01*
X1386Y2640D02*
X1408Y2640D01*
X1387Y2639D02*
X1410Y2639D01*
X1388Y2638D02*
X1410Y2638D01*
X1389Y2637D02*
X1410Y2637D01*
X1390Y2636D02*
X1410Y2636D01*
X1392Y2635D02*
X1409Y2635D01*
X1572Y2466D02*
X1578Y2466D01*
X1791Y2466D02*
X1797Y2466D01*
X1571Y2465D02*
X1579Y2465D01*
X1790Y2465D02*
X1798Y2465D01*
X697Y2464D02*
X708Y2464D01*
X1004Y2464D02*
X1005Y2464D01*
X1081Y2464D02*
X1091Y2464D01*
X1223Y2464D02*
X1233Y2464D01*
X1346Y2464D02*
X1365Y2464D01*
X1473Y2464D02*
X1475Y2464D01*
X1571Y2464D02*
X1579Y2464D01*
X1617Y2464D02*
X1630Y2464D01*
X1790Y2464D02*
X1798Y2464D01*
X1822Y2464D02*
X1829Y2464D01*
X1844Y2464D02*
X1851Y2464D01*
X696Y2463D02*
X709Y2463D01*
X1003Y2463D02*
X1007Y2463D01*
X1080Y2463D02*
X1094Y2463D01*
X1222Y2463D02*
X1234Y2463D01*
X1344Y2463D02*
X1366Y2463D01*
X1472Y2463D02*
X1476Y2463D01*
X1571Y2463D02*
X1579Y2463D01*
X1614Y2463D02*
X1631Y2463D01*
X1790Y2463D02*
X1798Y2463D01*
X1822Y2463D02*
X1829Y2463D01*
X1843Y2463D02*
X1851Y2463D01*
X696Y2462D02*
X710Y2462D01*
X1002Y2462D02*
X1007Y2462D01*
X1079Y2462D02*
X1095Y2462D01*
X1221Y2462D02*
X1235Y2462D01*
X1343Y2462D02*
X1368Y2462D01*
X1472Y2462D02*
X1477Y2462D01*
X1571Y2462D02*
X1579Y2462D01*
X1613Y2462D02*
X1632Y2462D01*
X1790Y2462D02*
X1798Y2462D01*
X1822Y2462D02*
X1830Y2462D01*
X1843Y2462D02*
X1851Y2462D01*
X696Y2461D02*
X710Y2461D01*
X1002Y2461D02*
X1007Y2461D01*
X1079Y2461D02*
X1096Y2461D01*
X1221Y2461D02*
X1235Y2461D01*
X1342Y2461D02*
X1368Y2461D01*
X1472Y2461D02*
X1477Y2461D01*
X1571Y2461D02*
X1579Y2461D01*
X1612Y2461D02*
X1632Y2461D01*
X1790Y2461D02*
X1798Y2461D01*
X1822Y2461D02*
X1831Y2461D01*
X1842Y2461D02*
X1851Y2461D01*
X696Y2460D02*
X709Y2460D01*
X1001Y2460D02*
X1008Y2460D01*
X1079Y2460D02*
X1097Y2460D01*
X1221Y2460D02*
X1235Y2460D01*
X1341Y2460D02*
X1369Y2460D01*
X1472Y2460D02*
X1477Y2460D01*
X1572Y2460D02*
X1579Y2460D01*
X1611Y2460D02*
X1632Y2460D01*
X1790Y2460D02*
X1798Y2460D01*
X1822Y2460D02*
X1832Y2460D01*
X1841Y2460D02*
X1851Y2460D01*
X696Y2459D02*
X709Y2459D01*
X1001Y2459D02*
X1008Y2459D01*
X1080Y2459D02*
X1098Y2459D01*
X1221Y2459D02*
X1234Y2459D01*
X1341Y2459D02*
X1369Y2459D01*
X1472Y2459D02*
X1477Y2459D01*
X1572Y2459D02*
X1578Y2459D01*
X1610Y2459D02*
X1631Y2459D01*
X1791Y2459D02*
X1797Y2459D01*
X1822Y2459D02*
X1832Y2459D01*
X1841Y2459D02*
X1851Y2459D01*
X696Y2458D02*
X701Y2458D01*
X1001Y2458D02*
X1008Y2458D01*
X1091Y2458D02*
X1098Y2458D01*
X1221Y2458D02*
X1226Y2458D01*
X1340Y2458D02*
X1347Y2458D01*
X1364Y2458D02*
X1369Y2458D01*
X1472Y2458D02*
X1477Y2458D01*
X1610Y2458D02*
X1617Y2458D01*
X1621Y2458D02*
X1626Y2458D01*
X1822Y2458D02*
X1833Y2458D01*
X1840Y2458D02*
X1851Y2458D01*
X696Y2457D02*
X701Y2457D01*
X1001Y2457D02*
X1009Y2457D01*
X1093Y2457D02*
X1099Y2457D01*
X1221Y2457D02*
X1226Y2457D01*
X1340Y2457D02*
X1346Y2457D01*
X1364Y2457D02*
X1369Y2457D01*
X1472Y2457D02*
X1477Y2457D01*
X1609Y2457D02*
X1616Y2457D01*
X1621Y2457D02*
X1626Y2457D01*
X1822Y2457D02*
X1834Y2457D01*
X1839Y2457D02*
X1851Y2457D01*
X696Y2456D02*
X701Y2456D01*
X1000Y2456D02*
X1009Y2456D01*
X1093Y2456D02*
X1099Y2456D01*
X1221Y2456D02*
X1226Y2456D01*
X1340Y2456D02*
X1345Y2456D01*
X1363Y2456D02*
X1369Y2456D01*
X1472Y2456D02*
X1477Y2456D01*
X1609Y2456D02*
X1615Y2456D01*
X1621Y2456D02*
X1626Y2456D01*
X1822Y2456D02*
X1834Y2456D01*
X1839Y2456D02*
X1851Y2456D01*
X696Y2455D02*
X701Y2455D01*
X1000Y2455D02*
X1009Y2455D01*
X1094Y2455D02*
X1099Y2455D01*
X1221Y2455D02*
X1226Y2455D01*
X1340Y2455D02*
X1345Y2455D01*
X1363Y2455D02*
X1369Y2455D01*
X1472Y2455D02*
X1477Y2455D01*
X1608Y2455D02*
X1614Y2455D01*
X1621Y2455D02*
X1626Y2455D01*
X1822Y2455D02*
X1827Y2455D01*
X1829Y2455D02*
X1835Y2455D01*
X1838Y2455D02*
X1844Y2455D01*
X1846Y2455D02*
X1851Y2455D01*
X696Y2454D02*
X701Y2454D01*
X1000Y2454D02*
X1009Y2454D01*
X1094Y2454D02*
X1099Y2454D01*
X1221Y2454D02*
X1226Y2454D01*
X1341Y2454D02*
X1344Y2454D01*
X1362Y2454D02*
X1368Y2454D01*
X1472Y2454D02*
X1477Y2454D01*
X1608Y2454D02*
X1614Y2454D01*
X1621Y2454D02*
X1626Y2454D01*
X1822Y2454D02*
X1827Y2454D01*
X1829Y2454D02*
X1844Y2454D01*
X1846Y2454D02*
X1851Y2454D01*
X696Y2453D02*
X701Y2453D01*
X999Y2453D02*
X1010Y2453D01*
X1094Y2453D02*
X1099Y2453D01*
X1221Y2453D02*
X1226Y2453D01*
X1361Y2453D02*
X1368Y2453D01*
X1472Y2453D02*
X1477Y2453D01*
X1607Y2453D02*
X1613Y2453D01*
X1621Y2453D02*
X1626Y2453D01*
X1822Y2453D02*
X1827Y2453D01*
X1830Y2453D02*
X1843Y2453D01*
X1846Y2453D02*
X1851Y2453D01*
X696Y2452D02*
X701Y2452D01*
X913Y2452D02*
X921Y2452D01*
X928Y2452D02*
X930Y2452D01*
X957Y2452D02*
X964Y2452D01*
X971Y2452D02*
X974Y2452D01*
X999Y2452D02*
X1010Y2452D01*
X1094Y2452D02*
X1099Y2452D01*
X1221Y2452D02*
X1226Y2452D01*
X1360Y2452D02*
X1367Y2452D01*
X1472Y2452D02*
X1477Y2452D01*
X1607Y2452D02*
X1613Y2452D01*
X1621Y2452D02*
X1626Y2452D01*
X1822Y2452D02*
X1827Y2452D01*
X1831Y2452D02*
X1842Y2452D01*
X1846Y2452D02*
X1851Y2452D01*
X696Y2451D02*
X701Y2451D01*
X734Y2451D02*
X749Y2451D01*
X773Y2451D02*
X775Y2451D01*
X797Y2451D02*
X799Y2451D01*
X823Y2451D02*
X836Y2451D01*
X865Y2451D02*
X874Y2451D01*
X884Y2451D02*
X886Y2451D01*
X911Y2451D02*
X922Y2451D01*
X927Y2451D02*
X931Y2451D01*
X955Y2451D02*
X966Y2451D01*
X971Y2451D02*
X975Y2451D01*
X999Y2451D02*
X1010Y2451D01*
X1087Y2451D02*
X1104Y2451D01*
X1130Y2451D02*
X1142Y2451D01*
X1221Y2451D02*
X1226Y2451D01*
X1260Y2451D02*
X1274Y2451D01*
X1305Y2451D02*
X1317Y2451D01*
X1359Y2451D02*
X1366Y2451D01*
X1436Y2451D02*
X1449Y2451D01*
X1472Y2451D02*
X1477Y2451D01*
X1483Y2451D02*
X1492Y2451D01*
X1524Y2451D02*
X1536Y2451D01*
X1573Y2451D02*
X1584Y2451D01*
X1606Y2451D02*
X1612Y2451D01*
X1621Y2451D02*
X1626Y2451D01*
X1696Y2451D02*
X1714Y2451D01*
X1740Y2451D02*
X1758Y2451D01*
X1792Y2451D02*
X1803Y2451D01*
X1822Y2451D02*
X1827Y2451D01*
X1831Y2451D02*
X1842Y2451D01*
X1846Y2451D02*
X1851Y2451D01*
X696Y2450D02*
X701Y2450D01*
X732Y2450D02*
X750Y2450D01*
X772Y2450D02*
X776Y2450D01*
X796Y2450D02*
X800Y2450D01*
X821Y2450D02*
X838Y2450D01*
X863Y2450D02*
X876Y2450D01*
X883Y2450D02*
X887Y2450D01*
X910Y2450D02*
X924Y2450D01*
X926Y2450D02*
X931Y2450D01*
X954Y2450D02*
X967Y2450D01*
X970Y2450D02*
X975Y2450D01*
X999Y2450D02*
X1011Y2450D01*
X1086Y2450D02*
X1105Y2450D01*
X1128Y2450D02*
X1144Y2450D01*
X1221Y2450D02*
X1226Y2450D01*
X1258Y2450D02*
X1275Y2450D01*
X1303Y2450D02*
X1319Y2450D01*
X1359Y2450D02*
X1366Y2450D01*
X1434Y2450D02*
X1451Y2450D01*
X1472Y2450D02*
X1477Y2450D01*
X1481Y2450D02*
X1494Y2450D01*
X1522Y2450D02*
X1538Y2450D01*
X1572Y2450D02*
X1585Y2450D01*
X1606Y2450D02*
X1612Y2450D01*
X1621Y2450D02*
X1626Y2450D01*
X1694Y2450D02*
X1716Y2450D01*
X1738Y2450D02*
X1759Y2450D01*
X1791Y2450D02*
X1804Y2450D01*
X1822Y2450D02*
X1827Y2450D01*
X1832Y2450D02*
X1841Y2450D01*
X1846Y2450D02*
X1851Y2450D01*
X696Y2449D02*
X701Y2449D01*
X731Y2449D02*
X750Y2449D01*
X771Y2449D02*
X776Y2449D01*
X795Y2449D02*
X800Y2449D01*
X820Y2449D02*
X839Y2449D01*
X862Y2449D02*
X877Y2449D01*
X883Y2449D02*
X888Y2449D01*
X909Y2449D02*
X932Y2449D01*
X953Y2449D02*
X968Y2449D01*
X970Y2449D02*
X975Y2449D01*
X998Y2449D02*
X1011Y2449D01*
X1085Y2449D02*
X1105Y2449D01*
X1126Y2449D02*
X1145Y2449D01*
X1221Y2449D02*
X1226Y2449D01*
X1256Y2449D02*
X1276Y2449D01*
X1301Y2449D02*
X1321Y2449D01*
X1358Y2449D02*
X1365Y2449D01*
X1433Y2449D02*
X1452Y2449D01*
X1472Y2449D02*
X1477Y2449D01*
X1480Y2449D02*
X1496Y2449D01*
X1520Y2449D02*
X1539Y2449D01*
X1571Y2449D02*
X1585Y2449D01*
X1605Y2449D02*
X1611Y2449D01*
X1621Y2449D02*
X1626Y2449D01*
X1693Y2449D02*
X1717Y2449D01*
X1737Y2449D02*
X1761Y2449D01*
X1790Y2449D02*
X1804Y2449D01*
X1822Y2449D02*
X1827Y2449D01*
X1833Y2449D02*
X1840Y2449D01*
X1846Y2449D02*
X1851Y2449D01*
X696Y2448D02*
X701Y2448D01*
X730Y2448D02*
X750Y2448D01*
X771Y2448D02*
X776Y2448D01*
X795Y2448D02*
X800Y2448D01*
X819Y2448D02*
X840Y2448D01*
X861Y2448D02*
X878Y2448D01*
X883Y2448D02*
X888Y2448D01*
X908Y2448D02*
X932Y2448D01*
X952Y2448D02*
X975Y2448D01*
X998Y2448D02*
X1003Y2448D01*
X1006Y2448D02*
X1011Y2448D01*
X1085Y2448D02*
X1105Y2448D01*
X1125Y2448D02*
X1147Y2448D01*
X1221Y2448D02*
X1226Y2448D01*
X1255Y2448D02*
X1276Y2448D01*
X1300Y2448D02*
X1322Y2448D01*
X1357Y2448D02*
X1364Y2448D01*
X1432Y2448D02*
X1453Y2448D01*
X1472Y2448D02*
X1497Y2448D01*
X1519Y2448D02*
X1541Y2448D01*
X1571Y2448D02*
X1585Y2448D01*
X1605Y2448D02*
X1611Y2448D01*
X1621Y2448D02*
X1626Y2448D01*
X1692Y2448D02*
X1718Y2448D01*
X1736Y2448D02*
X1761Y2448D01*
X1790Y2448D02*
X1804Y2448D01*
X1822Y2448D02*
X1827Y2448D01*
X1833Y2448D02*
X1839Y2448D01*
X1846Y2448D02*
X1851Y2448D01*
X696Y2447D02*
X701Y2447D01*
X729Y2447D02*
X750Y2447D01*
X771Y2447D02*
X776Y2447D01*
X795Y2447D02*
X800Y2447D01*
X818Y2447D02*
X841Y2447D01*
X860Y2447D02*
X879Y2447D01*
X883Y2447D02*
X888Y2447D01*
X907Y2447D02*
X932Y2447D01*
X950Y2447D02*
X975Y2447D01*
X998Y2447D02*
X1003Y2447D01*
X1006Y2447D02*
X1011Y2447D01*
X1085Y2447D02*
X1105Y2447D01*
X1124Y2447D02*
X1148Y2447D01*
X1221Y2447D02*
X1226Y2447D01*
X1255Y2447D02*
X1275Y2447D01*
X1299Y2447D02*
X1323Y2447D01*
X1356Y2447D02*
X1363Y2447D01*
X1431Y2447D02*
X1454Y2447D01*
X1472Y2447D02*
X1498Y2447D01*
X1518Y2447D02*
X1542Y2447D01*
X1571Y2447D02*
X1585Y2447D01*
X1604Y2447D02*
X1610Y2447D01*
X1621Y2447D02*
X1626Y2447D01*
X1691Y2447D02*
X1718Y2447D01*
X1735Y2447D02*
X1762Y2447D01*
X1790Y2447D02*
X1804Y2447D01*
X1822Y2447D02*
X1827Y2447D01*
X1834Y2447D02*
X1839Y2447D01*
X1846Y2447D02*
X1851Y2447D01*
X696Y2446D02*
X701Y2446D01*
X729Y2446D02*
X749Y2446D01*
X771Y2446D02*
X776Y2446D01*
X795Y2446D02*
X800Y2446D01*
X817Y2446D02*
X842Y2446D01*
X859Y2446D02*
X880Y2446D01*
X883Y2446D02*
X888Y2446D01*
X906Y2446D02*
X914Y2446D01*
X920Y2446D02*
X932Y2446D01*
X949Y2446D02*
X958Y2446D01*
X964Y2446D02*
X975Y2446D01*
X997Y2446D02*
X1003Y2446D01*
X1006Y2446D02*
X1012Y2446D01*
X1086Y2446D02*
X1104Y2446D01*
X1123Y2446D02*
X1148Y2446D01*
X1221Y2446D02*
X1226Y2446D01*
X1254Y2446D02*
X1275Y2446D01*
X1298Y2446D02*
X1324Y2446D01*
X1356Y2446D02*
X1362Y2446D01*
X1430Y2446D02*
X1455Y2446D01*
X1472Y2446D02*
X1499Y2446D01*
X1517Y2446D02*
X1542Y2446D01*
X1571Y2446D02*
X1584Y2446D01*
X1604Y2446D02*
X1610Y2446D01*
X1621Y2446D02*
X1626Y2446D01*
X1691Y2446D02*
X1719Y2446D01*
X1735Y2446D02*
X1762Y2446D01*
X1790Y2446D02*
X1803Y2446D01*
X1822Y2446D02*
X1827Y2446D01*
X1834Y2446D02*
X1839Y2446D01*
X1846Y2446D02*
X1851Y2446D01*
X696Y2445D02*
X701Y2445D01*
X728Y2445D02*
X735Y2445D01*
X771Y2445D02*
X776Y2445D01*
X795Y2445D02*
X800Y2445D01*
X816Y2445D02*
X824Y2445D01*
X835Y2445D02*
X843Y2445D01*
X859Y2445D02*
X865Y2445D01*
X873Y2445D02*
X888Y2445D01*
X905Y2445D02*
X913Y2445D01*
X921Y2445D02*
X932Y2445D01*
X948Y2445D02*
X957Y2445D01*
X965Y2445D02*
X975Y2445D01*
X997Y2445D02*
X1003Y2445D01*
X1007Y2445D02*
X1012Y2445D01*
X1094Y2445D02*
X1099Y2445D01*
X1123Y2445D02*
X1130Y2445D01*
X1142Y2445D02*
X1149Y2445D01*
X1221Y2445D02*
X1226Y2445D01*
X1254Y2445D02*
X1260Y2445D01*
X1298Y2445D02*
X1305Y2445D01*
X1317Y2445D02*
X1324Y2445D01*
X1355Y2445D02*
X1362Y2445D01*
X1429Y2445D02*
X1437Y2445D01*
X1448Y2445D02*
X1456Y2445D01*
X1472Y2445D02*
X1484Y2445D01*
X1492Y2445D02*
X1500Y2445D01*
X1517Y2445D02*
X1524Y2445D01*
X1536Y2445D02*
X1543Y2445D01*
X1571Y2445D02*
X1576Y2445D01*
X1604Y2445D02*
X1609Y2445D01*
X1621Y2445D02*
X1626Y2445D01*
X1691Y2445D02*
X1697Y2445D01*
X1713Y2445D02*
X1719Y2445D01*
X1735Y2445D02*
X1741Y2445D01*
X1757Y2445D02*
X1763Y2445D01*
X1790Y2445D02*
X1795Y2445D01*
X1822Y2445D02*
X1827Y2445D01*
X1834Y2445D02*
X1839Y2445D01*
X1846Y2445D02*
X1851Y2445D01*
X696Y2444D02*
X701Y2444D01*
X728Y2444D02*
X734Y2444D01*
X771Y2444D02*
X776Y2444D01*
X795Y2444D02*
X800Y2444D01*
X816Y2444D02*
X822Y2444D01*
X836Y2444D02*
X843Y2444D01*
X859Y2444D02*
X864Y2444D01*
X874Y2444D02*
X888Y2444D01*
X904Y2444D02*
X912Y2444D01*
X922Y2444D02*
X932Y2444D01*
X948Y2444D02*
X955Y2444D01*
X966Y2444D02*
X975Y2444D01*
X997Y2444D02*
X1002Y2444D01*
X1007Y2444D02*
X1012Y2444D01*
X1094Y2444D02*
X1099Y2444D01*
X1122Y2444D02*
X1129Y2444D01*
X1143Y2444D02*
X1150Y2444D01*
X1221Y2444D02*
X1226Y2444D01*
X1254Y2444D02*
X1259Y2444D01*
X1297Y2444D02*
X1304Y2444D01*
X1318Y2444D02*
X1325Y2444D01*
X1354Y2444D02*
X1361Y2444D01*
X1428Y2444D02*
X1435Y2444D01*
X1449Y2444D02*
X1456Y2444D01*
X1472Y2444D02*
X1482Y2444D01*
X1493Y2444D02*
X1500Y2444D01*
X1516Y2444D02*
X1523Y2444D01*
X1537Y2444D02*
X1544Y2444D01*
X1571Y2444D02*
X1576Y2444D01*
X1603Y2444D02*
X1609Y2444D01*
X1621Y2444D02*
X1626Y2444D01*
X1692Y2444D02*
X1696Y2444D01*
X1714Y2444D02*
X1719Y2444D01*
X1736Y2444D02*
X1739Y2444D01*
X1757Y2444D02*
X1763Y2444D01*
X1790Y2444D02*
X1795Y2444D01*
X1822Y2444D02*
X1827Y2444D01*
X1835Y2444D02*
X1838Y2444D01*
X1846Y2444D02*
X1851Y2444D01*
X696Y2443D02*
X701Y2443D01*
X728Y2443D02*
X733Y2443D01*
X771Y2443D02*
X777Y2443D01*
X795Y2443D02*
X800Y2443D01*
X815Y2443D02*
X821Y2443D01*
X838Y2443D02*
X844Y2443D01*
X859Y2443D02*
X864Y2443D01*
X875Y2443D02*
X888Y2443D01*
X903Y2443D02*
X910Y2443D01*
X923Y2443D02*
X932Y2443D01*
X947Y2443D02*
X954Y2443D01*
X967Y2443D02*
X975Y2443D01*
X997Y2443D02*
X1002Y2443D01*
X1007Y2443D02*
X1013Y2443D01*
X1094Y2443D02*
X1099Y2443D01*
X1122Y2443D02*
X1128Y2443D01*
X1144Y2443D02*
X1150Y2443D01*
X1221Y2443D02*
X1226Y2443D01*
X1253Y2443D02*
X1259Y2443D01*
X1297Y2443D02*
X1303Y2443D01*
X1319Y2443D02*
X1325Y2443D01*
X1353Y2443D02*
X1360Y2443D01*
X1428Y2443D02*
X1434Y2443D01*
X1451Y2443D02*
X1457Y2443D01*
X1472Y2443D02*
X1481Y2443D01*
X1494Y2443D02*
X1500Y2443D01*
X1516Y2443D02*
X1522Y2443D01*
X1538Y2443D02*
X1544Y2443D01*
X1571Y2443D02*
X1576Y2443D01*
X1603Y2443D02*
X1608Y2443D01*
X1621Y2443D02*
X1626Y2443D01*
X1693Y2443D02*
X1694Y2443D01*
X1714Y2443D02*
X1719Y2443D01*
X1737Y2443D02*
X1738Y2443D01*
X1757Y2443D02*
X1763Y2443D01*
X1790Y2443D02*
X1795Y2443D01*
X1822Y2443D02*
X1827Y2443D01*
X1836Y2443D02*
X1837Y2443D01*
X1846Y2443D02*
X1851Y2443D01*
X696Y2442D02*
X701Y2442D01*
X728Y2442D02*
X733Y2442D01*
X771Y2442D02*
X777Y2442D01*
X794Y2442D02*
X800Y2442D01*
X815Y2442D02*
X820Y2442D01*
X838Y2442D02*
X844Y2442D01*
X859Y2442D02*
X864Y2442D01*
X877Y2442D02*
X888Y2442D01*
X903Y2442D02*
X909Y2442D01*
X924Y2442D02*
X932Y2442D01*
X947Y2442D02*
X953Y2442D01*
X968Y2442D02*
X975Y2442D01*
X996Y2442D02*
X1002Y2442D01*
X1008Y2442D02*
X1013Y2442D01*
X1094Y2442D02*
X1099Y2442D01*
X1121Y2442D02*
X1127Y2442D01*
X1145Y2442D02*
X1150Y2442D01*
X1221Y2442D02*
X1226Y2442D01*
X1253Y2442D02*
X1259Y2442D01*
X1297Y2442D02*
X1302Y2442D01*
X1320Y2442D02*
X1325Y2442D01*
X1352Y2442D02*
X1359Y2442D01*
X1428Y2442D02*
X1433Y2442D01*
X1451Y2442D02*
X1457Y2442D01*
X1472Y2442D02*
X1480Y2442D01*
X1495Y2442D02*
X1501Y2442D01*
X1515Y2442D02*
X1521Y2442D01*
X1539Y2442D02*
X1544Y2442D01*
X1571Y2442D02*
X1576Y2442D01*
X1603Y2442D02*
X1608Y2442D01*
X1621Y2442D02*
X1626Y2442D01*
X1713Y2442D02*
X1719Y2442D01*
X1756Y2442D02*
X1762Y2442D01*
X1790Y2442D02*
X1795Y2442D01*
X1822Y2442D02*
X1827Y2442D01*
X1846Y2442D02*
X1851Y2442D01*
X696Y2441D02*
X701Y2441D01*
X728Y2441D02*
X733Y2441D01*
X772Y2441D02*
X777Y2441D01*
X794Y2441D02*
X799Y2441D01*
X815Y2441D02*
X820Y2441D01*
X839Y2441D02*
X844Y2441D01*
X859Y2441D02*
X864Y2441D01*
X878Y2441D02*
X888Y2441D01*
X903Y2441D02*
X908Y2441D01*
X925Y2441D02*
X932Y2441D01*
X946Y2441D02*
X952Y2441D01*
X969Y2441D02*
X975Y2441D01*
X996Y2441D02*
X1001Y2441D01*
X1008Y2441D02*
X1013Y2441D01*
X1094Y2441D02*
X1099Y2441D01*
X1121Y2441D02*
X1127Y2441D01*
X1145Y2441D02*
X1150Y2441D01*
X1221Y2441D02*
X1226Y2441D01*
X1253Y2441D02*
X1259Y2441D01*
X1296Y2441D02*
X1302Y2441D01*
X1320Y2441D02*
X1326Y2441D01*
X1352Y2441D02*
X1359Y2441D01*
X1428Y2441D02*
X1433Y2441D01*
X1452Y2441D02*
X1457Y2441D01*
X1472Y2441D02*
X1479Y2441D01*
X1496Y2441D02*
X1501Y2441D01*
X1515Y2441D02*
X1521Y2441D01*
X1539Y2441D02*
X1544Y2441D01*
X1571Y2441D02*
X1576Y2441D01*
X1603Y2441D02*
X1608Y2441D01*
X1621Y2441D02*
X1626Y2441D01*
X1710Y2441D02*
X1718Y2441D01*
X1754Y2441D02*
X1762Y2441D01*
X1790Y2441D02*
X1795Y2441D01*
X1822Y2441D02*
X1827Y2441D01*
X1846Y2441D02*
X1851Y2441D01*
X696Y2440D02*
X701Y2440D01*
X728Y2440D02*
X733Y2440D01*
X772Y2440D02*
X778Y2440D01*
X793Y2440D02*
X799Y2440D01*
X815Y2440D02*
X820Y2440D01*
X839Y2440D02*
X844Y2440D01*
X859Y2440D02*
X864Y2440D01*
X879Y2440D02*
X888Y2440D01*
X902Y2440D02*
X908Y2440D01*
X926Y2440D02*
X932Y2440D01*
X946Y2440D02*
X951Y2440D01*
X970Y2440D02*
X975Y2440D01*
X996Y2440D02*
X1001Y2440D01*
X1008Y2440D02*
X1013Y2440D01*
X1094Y2440D02*
X1099Y2440D01*
X1121Y2440D02*
X1126Y2440D01*
X1145Y2440D02*
X1150Y2440D01*
X1221Y2440D02*
X1226Y2440D01*
X1253Y2440D02*
X1259Y2440D01*
X1296Y2440D02*
X1302Y2440D01*
X1320Y2440D02*
X1326Y2440D01*
X1351Y2440D02*
X1358Y2440D01*
X1428Y2440D02*
X1433Y2440D01*
X1452Y2440D02*
X1457Y2440D01*
X1472Y2440D02*
X1478Y2440D01*
X1496Y2440D02*
X1501Y2440D01*
X1515Y2440D02*
X1520Y2440D01*
X1539Y2440D02*
X1545Y2440D01*
X1571Y2440D02*
X1576Y2440D01*
X1603Y2440D02*
X1608Y2440D01*
X1621Y2440D02*
X1626Y2440D01*
X1708Y2440D02*
X1718Y2440D01*
X1752Y2440D02*
X1762Y2440D01*
X1790Y2440D02*
X1795Y2440D01*
X1822Y2440D02*
X1827Y2440D01*
X1846Y2440D02*
X1851Y2440D01*
X696Y2439D02*
X701Y2439D01*
X728Y2439D02*
X733Y2439D01*
X773Y2439D02*
X778Y2439D01*
X793Y2439D02*
X799Y2439D01*
X815Y2439D02*
X820Y2439D01*
X839Y2439D02*
X844Y2439D01*
X859Y2439D02*
X863Y2439D01*
X880Y2439D02*
X888Y2439D01*
X902Y2439D02*
X908Y2439D01*
X926Y2439D02*
X932Y2439D01*
X946Y2439D02*
X951Y2439D01*
X970Y2439D02*
X975Y2439D01*
X995Y2439D02*
X1001Y2439D01*
X1008Y2439D02*
X1014Y2439D01*
X1094Y2439D02*
X1099Y2439D01*
X1121Y2439D02*
X1126Y2439D01*
X1145Y2439D02*
X1150Y2439D01*
X1221Y2439D02*
X1226Y2439D01*
X1253Y2439D02*
X1259Y2439D01*
X1296Y2439D02*
X1302Y2439D01*
X1320Y2439D02*
X1326Y2439D01*
X1350Y2439D02*
X1357Y2439D01*
X1428Y2439D02*
X1433Y2439D01*
X1452Y2439D02*
X1457Y2439D01*
X1472Y2439D02*
X1477Y2439D01*
X1496Y2439D02*
X1501Y2439D01*
X1515Y2439D02*
X1520Y2439D01*
X1539Y2439D02*
X1545Y2439D01*
X1571Y2439D02*
X1576Y2439D01*
X1603Y2439D02*
X1608Y2439D01*
X1621Y2439D02*
X1626Y2439D01*
X1706Y2439D02*
X1717Y2439D01*
X1749Y2439D02*
X1761Y2439D01*
X1790Y2439D02*
X1795Y2439D01*
X1822Y2439D02*
X1827Y2439D01*
X1846Y2439D02*
X1851Y2439D01*
X696Y2438D02*
X701Y2438D01*
X728Y2438D02*
X751Y2438D01*
X773Y2438D02*
X779Y2438D01*
X792Y2438D02*
X798Y2438D01*
X815Y2438D02*
X820Y2438D01*
X839Y2438D02*
X844Y2438D01*
X860Y2438D02*
X862Y2438D01*
X881Y2438D02*
X888Y2438D01*
X902Y2438D02*
X908Y2438D01*
X926Y2438D02*
X932Y2438D01*
X946Y2438D02*
X951Y2438D01*
X970Y2438D02*
X975Y2438D01*
X995Y2438D02*
X1000Y2438D01*
X1009Y2438D02*
X1014Y2438D01*
X1094Y2438D02*
X1099Y2438D01*
X1121Y2438D02*
X1126Y2438D01*
X1145Y2438D02*
X1150Y2438D01*
X1221Y2438D02*
X1226Y2438D01*
X1253Y2438D02*
X1276Y2438D01*
X1296Y2438D02*
X1302Y2438D01*
X1320Y2438D02*
X1326Y2438D01*
X1349Y2438D02*
X1356Y2438D01*
X1428Y2438D02*
X1433Y2438D01*
X1452Y2438D02*
X1457Y2438D01*
X1472Y2438D02*
X1477Y2438D01*
X1496Y2438D02*
X1501Y2438D01*
X1515Y2438D02*
X1520Y2438D01*
X1539Y2438D02*
X1545Y2438D01*
X1571Y2438D02*
X1576Y2438D01*
X1603Y2438D02*
X1609Y2438D01*
X1621Y2438D02*
X1626Y2438D01*
X1703Y2438D02*
X1716Y2438D01*
X1747Y2438D02*
X1760Y2438D01*
X1790Y2438D02*
X1795Y2438D01*
X1822Y2438D02*
X1827Y2438D01*
X1846Y2438D02*
X1851Y2438D01*
X696Y2437D02*
X701Y2437D01*
X728Y2437D02*
X753Y2437D01*
X774Y2437D02*
X779Y2437D01*
X792Y2437D02*
X798Y2437D01*
X815Y2437D02*
X820Y2437D01*
X839Y2437D02*
X844Y2437D01*
X882Y2437D02*
X888Y2437D01*
X902Y2437D02*
X908Y2437D01*
X926Y2437D02*
X932Y2437D01*
X946Y2437D02*
X951Y2437D01*
X970Y2437D02*
X975Y2437D01*
X995Y2437D02*
X1000Y2437D01*
X1009Y2437D02*
X1014Y2437D01*
X1094Y2437D02*
X1099Y2437D01*
X1121Y2437D02*
X1126Y2437D01*
X1145Y2437D02*
X1150Y2437D01*
X1221Y2437D02*
X1226Y2437D01*
X1253Y2437D02*
X1278Y2437D01*
X1296Y2437D02*
X1302Y2437D01*
X1320Y2437D02*
X1326Y2437D01*
X1349Y2437D02*
X1355Y2437D01*
X1428Y2437D02*
X1433Y2437D01*
X1452Y2437D02*
X1457Y2437D01*
X1472Y2437D02*
X1477Y2437D01*
X1496Y2437D02*
X1501Y2437D01*
X1515Y2437D02*
X1520Y2437D01*
X1539Y2437D02*
X1545Y2437D01*
X1571Y2437D02*
X1576Y2437D01*
X1604Y2437D02*
X1609Y2437D01*
X1621Y2437D02*
X1626Y2437D01*
X1701Y2437D02*
X1715Y2437D01*
X1745Y2437D02*
X1759Y2437D01*
X1790Y2437D02*
X1795Y2437D01*
X1822Y2437D02*
X1827Y2437D01*
X1846Y2437D02*
X1851Y2437D01*
X696Y2436D02*
X701Y2436D01*
X728Y2436D02*
X754Y2436D01*
X774Y2436D02*
X780Y2436D01*
X792Y2436D02*
X797Y2436D01*
X815Y2436D02*
X820Y2436D01*
X839Y2436D02*
X844Y2436D01*
X883Y2436D02*
X888Y2436D01*
X902Y2436D02*
X908Y2436D01*
X926Y2436D02*
X932Y2436D01*
X946Y2436D02*
X951Y2436D01*
X970Y2436D02*
X975Y2436D01*
X994Y2436D02*
X1000Y2436D01*
X1009Y2436D02*
X1015Y2436D01*
X1094Y2436D02*
X1099Y2436D01*
X1121Y2436D02*
X1126Y2436D01*
X1145Y2436D02*
X1150Y2436D01*
X1221Y2436D02*
X1226Y2436D01*
X1253Y2436D02*
X1279Y2436D01*
X1296Y2436D02*
X1326Y2436D01*
X1348Y2436D02*
X1355Y2436D01*
X1428Y2436D02*
X1457Y2436D01*
X1472Y2436D02*
X1477Y2436D01*
X1496Y2436D02*
X1501Y2436D01*
X1515Y2436D02*
X1520Y2436D01*
X1539Y2436D02*
X1545Y2436D01*
X1571Y2436D02*
X1576Y2436D01*
X1604Y2436D02*
X1609Y2436D01*
X1621Y2436D02*
X1626Y2436D01*
X1699Y2436D02*
X1713Y2436D01*
X1742Y2436D02*
X1757Y2436D01*
X1790Y2436D02*
X1795Y2436D01*
X1822Y2436D02*
X1827Y2436D01*
X1846Y2436D02*
X1851Y2436D01*
X696Y2435D02*
X701Y2435D01*
X728Y2435D02*
X755Y2435D01*
X774Y2435D02*
X780Y2435D01*
X791Y2435D02*
X797Y2435D01*
X815Y2435D02*
X820Y2435D01*
X839Y2435D02*
X844Y2435D01*
X883Y2435D02*
X888Y2435D01*
X902Y2435D02*
X908Y2435D01*
X926Y2435D02*
X932Y2435D01*
X946Y2435D02*
X951Y2435D01*
X970Y2435D02*
X975Y2435D01*
X994Y2435D02*
X1000Y2435D01*
X1010Y2435D02*
X1015Y2435D01*
X1094Y2435D02*
X1099Y2435D01*
X1121Y2435D02*
X1126Y2435D01*
X1145Y2435D02*
X1150Y2435D01*
X1221Y2435D02*
X1226Y2435D01*
X1253Y2435D02*
X1280Y2435D01*
X1296Y2435D02*
X1326Y2435D01*
X1347Y2435D02*
X1354Y2435D01*
X1428Y2435D02*
X1457Y2435D01*
X1472Y2435D02*
X1477Y2435D01*
X1496Y2435D02*
X1501Y2435D01*
X1515Y2435D02*
X1520Y2435D01*
X1539Y2435D02*
X1545Y2435D01*
X1571Y2435D02*
X1576Y2435D01*
X1604Y2435D02*
X1610Y2435D01*
X1621Y2435D02*
X1626Y2435D01*
X1696Y2435D02*
X1711Y2435D01*
X1740Y2435D02*
X1754Y2435D01*
X1790Y2435D02*
X1795Y2435D01*
X1822Y2435D02*
X1827Y2435D01*
X1846Y2435D02*
X1851Y2435D01*
X696Y2434D02*
X701Y2434D01*
X728Y2434D02*
X755Y2434D01*
X775Y2434D02*
X781Y2434D01*
X791Y2434D02*
X796Y2434D01*
X815Y2434D02*
X820Y2434D01*
X839Y2434D02*
X844Y2434D01*
X883Y2434D02*
X888Y2434D01*
X902Y2434D02*
X908Y2434D01*
X926Y2434D02*
X932Y2434D01*
X946Y2434D02*
X951Y2434D01*
X970Y2434D02*
X975Y2434D01*
X994Y2434D02*
X999Y2434D01*
X1010Y2434D02*
X1015Y2434D01*
X1094Y2434D02*
X1099Y2434D01*
X1121Y2434D02*
X1126Y2434D01*
X1145Y2434D02*
X1150Y2434D01*
X1221Y2434D02*
X1226Y2434D01*
X1253Y2434D02*
X1281Y2434D01*
X1296Y2434D02*
X1326Y2434D01*
X1346Y2434D02*
X1353Y2434D01*
X1428Y2434D02*
X1457Y2434D01*
X1472Y2434D02*
X1477Y2434D01*
X1496Y2434D02*
X1501Y2434D01*
X1515Y2434D02*
X1520Y2434D01*
X1539Y2434D02*
X1545Y2434D01*
X1571Y2434D02*
X1576Y2434D01*
X1605Y2434D02*
X1611Y2434D01*
X1621Y2434D02*
X1626Y2434D01*
X1695Y2434D02*
X1708Y2434D01*
X1738Y2434D02*
X1752Y2434D01*
X1790Y2434D02*
X1795Y2434D01*
X1822Y2434D02*
X1827Y2434D01*
X1846Y2434D02*
X1851Y2434D01*
X696Y2433D02*
X701Y2433D01*
X728Y2433D02*
X756Y2433D01*
X775Y2433D02*
X781Y2433D01*
X790Y2433D02*
X796Y2433D01*
X815Y2433D02*
X820Y2433D01*
X839Y2433D02*
X844Y2433D01*
X883Y2433D02*
X888Y2433D01*
X902Y2433D02*
X908Y2433D01*
X926Y2433D02*
X932Y2433D01*
X946Y2433D02*
X951Y2433D01*
X970Y2433D02*
X975Y2433D01*
X994Y2433D02*
X1016Y2433D01*
X1094Y2433D02*
X1099Y2433D01*
X1121Y2433D02*
X1126Y2433D01*
X1145Y2433D02*
X1150Y2433D01*
X1221Y2433D02*
X1226Y2433D01*
X1253Y2433D02*
X1281Y2433D01*
X1296Y2433D02*
X1326Y2433D01*
X1345Y2433D02*
X1352Y2433D01*
X1428Y2433D02*
X1457Y2433D01*
X1472Y2433D02*
X1477Y2433D01*
X1496Y2433D02*
X1501Y2433D01*
X1515Y2433D02*
X1520Y2433D01*
X1539Y2433D02*
X1545Y2433D01*
X1571Y2433D02*
X1576Y2433D01*
X1605Y2433D02*
X1611Y2433D01*
X1621Y2433D02*
X1626Y2433D01*
X1693Y2433D02*
X1706Y2433D01*
X1737Y2433D02*
X1750Y2433D01*
X1790Y2433D02*
X1795Y2433D01*
X1822Y2433D02*
X1827Y2433D01*
X1846Y2433D02*
X1851Y2433D01*
X696Y2432D02*
X701Y2432D01*
X728Y2432D02*
X734Y2432D01*
X750Y2432D02*
X756Y2432D01*
X776Y2432D02*
X781Y2432D01*
X790Y2432D02*
X796Y2432D01*
X815Y2432D02*
X820Y2432D01*
X839Y2432D02*
X844Y2432D01*
X883Y2432D02*
X888Y2432D01*
X902Y2432D02*
X908Y2432D01*
X926Y2432D02*
X932Y2432D01*
X946Y2432D02*
X951Y2432D01*
X970Y2432D02*
X975Y2432D01*
X993Y2432D02*
X1016Y2432D01*
X1094Y2432D02*
X1099Y2432D01*
X1121Y2432D02*
X1126Y2432D01*
X1145Y2432D02*
X1150Y2432D01*
X1221Y2432D02*
X1226Y2432D01*
X1253Y2432D02*
X1260Y2432D01*
X1275Y2432D02*
X1281Y2432D01*
X1297Y2432D02*
X1326Y2432D01*
X1345Y2432D02*
X1352Y2432D01*
X1428Y2432D02*
X1457Y2432D01*
X1472Y2432D02*
X1477Y2432D01*
X1496Y2432D02*
X1501Y2432D01*
X1515Y2432D02*
X1520Y2432D01*
X1539Y2432D02*
X1545Y2432D01*
X1571Y2432D02*
X1576Y2432D01*
X1606Y2432D02*
X1612Y2432D01*
X1621Y2432D02*
X1626Y2432D01*
X1693Y2432D02*
X1704Y2432D01*
X1736Y2432D02*
X1747Y2432D01*
X1790Y2432D02*
X1795Y2432D01*
X1822Y2432D02*
X1827Y2432D01*
X1846Y2432D02*
X1851Y2432D01*
X696Y2431D02*
X701Y2431D01*
X728Y2431D02*
X733Y2431D01*
X751Y2431D02*
X756Y2431D01*
X776Y2431D02*
X782Y2431D01*
X789Y2431D02*
X795Y2431D01*
X815Y2431D02*
X820Y2431D01*
X839Y2431D02*
X844Y2431D01*
X883Y2431D02*
X888Y2431D01*
X902Y2431D02*
X908Y2431D01*
X926Y2431D02*
X932Y2431D01*
X946Y2431D02*
X951Y2431D01*
X970Y2431D02*
X975Y2431D01*
X993Y2431D02*
X1016Y2431D01*
X1094Y2431D02*
X1099Y2431D01*
X1121Y2431D02*
X1126Y2431D01*
X1145Y2431D02*
X1150Y2431D01*
X1221Y2431D02*
X1226Y2431D01*
X1253Y2431D02*
X1259Y2431D01*
X1276Y2431D02*
X1282Y2431D01*
X1297Y2431D02*
X1326Y2431D01*
X1344Y2431D02*
X1351Y2431D01*
X1429Y2431D02*
X1457Y2431D01*
X1472Y2431D02*
X1477Y2431D01*
X1496Y2431D02*
X1501Y2431D01*
X1515Y2431D02*
X1520Y2431D01*
X1539Y2431D02*
X1545Y2431D01*
X1571Y2431D02*
X1576Y2431D01*
X1606Y2431D02*
X1612Y2431D01*
X1621Y2431D02*
X1626Y2431D01*
X1692Y2431D02*
X1701Y2431D01*
X1736Y2431D02*
X1745Y2431D01*
X1790Y2431D02*
X1795Y2431D01*
X1822Y2431D02*
X1827Y2431D01*
X1846Y2431D02*
X1851Y2431D01*
X696Y2430D02*
X701Y2430D01*
X728Y2430D02*
X733Y2430D01*
X751Y2430D02*
X756Y2430D01*
X777Y2430D02*
X782Y2430D01*
X789Y2430D02*
X795Y2430D01*
X815Y2430D02*
X820Y2430D01*
X839Y2430D02*
X844Y2430D01*
X883Y2430D02*
X888Y2430D01*
X902Y2430D02*
X908Y2430D01*
X926Y2430D02*
X932Y2430D01*
X946Y2430D02*
X951Y2430D01*
X970Y2430D02*
X975Y2430D01*
X993Y2430D02*
X1016Y2430D01*
X1094Y2430D02*
X1099Y2430D01*
X1121Y2430D02*
X1126Y2430D01*
X1145Y2430D02*
X1150Y2430D01*
X1221Y2430D02*
X1226Y2430D01*
X1253Y2430D02*
X1258Y2430D01*
X1277Y2430D02*
X1282Y2430D01*
X1299Y2430D02*
X1326Y2430D01*
X1343Y2430D02*
X1350Y2430D01*
X1431Y2430D02*
X1457Y2430D01*
X1472Y2430D02*
X1477Y2430D01*
X1496Y2430D02*
X1501Y2430D01*
X1515Y2430D02*
X1520Y2430D01*
X1539Y2430D02*
X1545Y2430D01*
X1571Y2430D02*
X1576Y2430D01*
X1607Y2430D02*
X1613Y2430D01*
X1621Y2430D02*
X1626Y2430D01*
X1691Y2430D02*
X1699Y2430D01*
X1735Y2430D02*
X1743Y2430D01*
X1790Y2430D02*
X1795Y2430D01*
X1822Y2430D02*
X1827Y2430D01*
X1846Y2430D02*
X1851Y2430D01*
X696Y2429D02*
X701Y2429D01*
X728Y2429D02*
X733Y2429D01*
X751Y2429D02*
X756Y2429D01*
X777Y2429D02*
X783Y2429D01*
X789Y2429D02*
X794Y2429D01*
X815Y2429D02*
X820Y2429D01*
X839Y2429D02*
X844Y2429D01*
X883Y2429D02*
X888Y2429D01*
X902Y2429D02*
X908Y2429D01*
X926Y2429D02*
X932Y2429D01*
X946Y2429D02*
X951Y2429D01*
X970Y2429D02*
X975Y2429D01*
X992Y2429D02*
X1017Y2429D01*
X1094Y2429D02*
X1099Y2429D01*
X1121Y2429D02*
X1126Y2429D01*
X1145Y2429D02*
X1150Y2429D01*
X1221Y2429D02*
X1226Y2429D01*
X1253Y2429D02*
X1258Y2429D01*
X1277Y2429D02*
X1282Y2429D01*
X1320Y2429D02*
X1326Y2429D01*
X1342Y2429D02*
X1349Y2429D01*
X1452Y2429D02*
X1457Y2429D01*
X1472Y2429D02*
X1477Y2429D01*
X1496Y2429D02*
X1501Y2429D01*
X1515Y2429D02*
X1520Y2429D01*
X1539Y2429D02*
X1545Y2429D01*
X1571Y2429D02*
X1576Y2429D01*
X1607Y2429D02*
X1613Y2429D01*
X1621Y2429D02*
X1626Y2429D01*
X1691Y2429D02*
X1697Y2429D01*
X1735Y2429D02*
X1741Y2429D01*
X1790Y2429D02*
X1795Y2429D01*
X1822Y2429D02*
X1827Y2429D01*
X1846Y2429D02*
X1851Y2429D01*
X696Y2428D02*
X701Y2428D01*
X728Y2428D02*
X733Y2428D01*
X751Y2428D02*
X756Y2428D01*
X777Y2428D02*
X783Y2428D01*
X788Y2428D02*
X794Y2428D01*
X815Y2428D02*
X820Y2428D01*
X839Y2428D02*
X844Y2428D01*
X883Y2428D02*
X888Y2428D01*
X903Y2428D02*
X908Y2428D01*
X925Y2428D02*
X932Y2428D01*
X946Y2428D02*
X952Y2428D01*
X969Y2428D02*
X975Y2428D01*
X992Y2428D02*
X1017Y2428D01*
X1094Y2428D02*
X1099Y2428D01*
X1121Y2428D02*
X1126Y2428D01*
X1145Y2428D02*
X1150Y2428D01*
X1221Y2428D02*
X1226Y2428D01*
X1253Y2428D02*
X1258Y2428D01*
X1277Y2428D02*
X1282Y2428D01*
X1320Y2428D02*
X1326Y2428D01*
X1342Y2428D02*
X1348Y2428D01*
X1366Y2428D02*
X1368Y2428D01*
X1452Y2428D02*
X1457Y2428D01*
X1472Y2428D02*
X1478Y2428D01*
X1496Y2428D02*
X1501Y2428D01*
X1515Y2428D02*
X1521Y2428D01*
X1539Y2428D02*
X1544Y2428D01*
X1571Y2428D02*
X1576Y2428D01*
X1608Y2428D02*
X1614Y2428D01*
X1621Y2428D02*
X1626Y2428D01*
X1691Y2428D02*
X1696Y2428D01*
X1735Y2428D02*
X1740Y2428D01*
X1790Y2428D02*
X1795Y2428D01*
X1822Y2428D02*
X1827Y2428D01*
X1846Y2428D02*
X1851Y2428D01*
X696Y2427D02*
X701Y2427D01*
X727Y2427D02*
X733Y2427D01*
X751Y2427D02*
X756Y2427D01*
X778Y2427D02*
X784Y2427D01*
X788Y2427D02*
X793Y2427D01*
X815Y2427D02*
X820Y2427D01*
X839Y2427D02*
X844Y2427D01*
X883Y2427D02*
X888Y2427D01*
X903Y2427D02*
X909Y2427D01*
X924Y2427D02*
X932Y2427D01*
X947Y2427D02*
X953Y2427D01*
X968Y2427D02*
X975Y2427D01*
X992Y2427D02*
X997Y2427D01*
X1012Y2427D02*
X1017Y2427D01*
X1094Y2427D02*
X1099Y2427D01*
X1121Y2427D02*
X1127Y2427D01*
X1145Y2427D02*
X1150Y2427D01*
X1221Y2427D02*
X1226Y2427D01*
X1253Y2427D02*
X1258Y2427D01*
X1277Y2427D02*
X1282Y2427D01*
X1320Y2427D02*
X1325Y2427D01*
X1341Y2427D02*
X1348Y2427D01*
X1365Y2427D02*
X1369Y2427D01*
X1452Y2427D02*
X1457Y2427D01*
X1472Y2427D02*
X1479Y2427D01*
X1495Y2427D02*
X1501Y2427D01*
X1515Y2427D02*
X1521Y2427D01*
X1539Y2427D02*
X1544Y2427D01*
X1571Y2427D02*
X1576Y2427D01*
X1608Y2427D02*
X1614Y2427D01*
X1621Y2427D02*
X1626Y2427D01*
X1691Y2427D02*
X1696Y2427D01*
X1734Y2427D02*
X1740Y2427D01*
X1790Y2427D02*
X1795Y2427D01*
X1822Y2427D02*
X1827Y2427D01*
X1846Y2427D02*
X1851Y2427D01*
X696Y2426D02*
X701Y2426D01*
X727Y2426D02*
X734Y2426D01*
X751Y2426D02*
X756Y2426D01*
X778Y2426D02*
X784Y2426D01*
X787Y2426D02*
X793Y2426D01*
X815Y2426D02*
X821Y2426D01*
X838Y2426D02*
X844Y2426D01*
X883Y2426D02*
X888Y2426D01*
X903Y2426D02*
X910Y2426D01*
X923Y2426D02*
X932Y2426D01*
X947Y2426D02*
X954Y2426D01*
X967Y2426D02*
X975Y2426D01*
X992Y2426D02*
X997Y2426D01*
X1012Y2426D02*
X1018Y2426D01*
X1094Y2426D02*
X1099Y2426D01*
X1122Y2426D02*
X1127Y2426D01*
X1144Y2426D02*
X1150Y2426D01*
X1221Y2426D02*
X1226Y2426D01*
X1253Y2426D02*
X1260Y2426D01*
X1277Y2426D02*
X1282Y2426D01*
X1320Y2426D02*
X1325Y2426D01*
X1341Y2426D02*
X1347Y2426D01*
X1364Y2426D02*
X1369Y2426D01*
X1451Y2426D02*
X1457Y2426D01*
X1472Y2426D02*
X1481Y2426D01*
X1495Y2426D02*
X1500Y2426D01*
X1516Y2426D02*
X1521Y2426D01*
X1539Y2426D02*
X1544Y2426D01*
X1571Y2426D02*
X1576Y2426D01*
X1609Y2426D02*
X1615Y2426D01*
X1621Y2426D02*
X1626Y2426D01*
X1691Y2426D02*
X1696Y2426D01*
X1734Y2426D02*
X1740Y2426D01*
X1790Y2426D02*
X1795Y2426D01*
X1822Y2426D02*
X1827Y2426D01*
X1846Y2426D02*
X1851Y2426D01*
X696Y2425D02*
X701Y2425D01*
X727Y2425D02*
X736Y2425D01*
X751Y2425D02*
X756Y2425D01*
X779Y2425D02*
X784Y2425D01*
X787Y2425D02*
X792Y2425D01*
X815Y2425D02*
X822Y2425D01*
X837Y2425D02*
X843Y2425D01*
X883Y2425D02*
X888Y2425D01*
X904Y2425D02*
X911Y2425D01*
X922Y2425D02*
X932Y2425D01*
X947Y2425D02*
X955Y2425D01*
X966Y2425D02*
X975Y2425D01*
X991Y2425D02*
X997Y2425D01*
X1013Y2425D02*
X1018Y2425D01*
X1094Y2425D02*
X1099Y2425D01*
X1122Y2425D02*
X1128Y2425D01*
X1143Y2425D02*
X1150Y2425D01*
X1221Y2425D02*
X1226Y2425D01*
X1253Y2425D02*
X1262Y2425D01*
X1276Y2425D02*
X1282Y2425D01*
X1319Y2425D02*
X1325Y2425D01*
X1340Y2425D02*
X1346Y2425D01*
X1364Y2425D02*
X1369Y2425D01*
X1450Y2425D02*
X1456Y2425D01*
X1472Y2425D02*
X1482Y2425D01*
X1494Y2425D02*
X1500Y2425D01*
X1516Y2425D02*
X1522Y2425D01*
X1538Y2425D02*
X1544Y2425D01*
X1571Y2425D02*
X1576Y2425D01*
X1609Y2425D02*
X1615Y2425D01*
X1621Y2425D02*
X1626Y2425D01*
X1691Y2425D02*
X1696Y2425D01*
X1716Y2425D02*
X1719Y2425D01*
X1735Y2425D02*
X1740Y2425D01*
X1759Y2425D02*
X1762Y2425D01*
X1790Y2425D02*
X1795Y2425D01*
X1822Y2425D02*
X1827Y2425D01*
X1846Y2425D02*
X1851Y2425D01*
X696Y2424D02*
X701Y2424D01*
X727Y2424D02*
X738Y2424D01*
X750Y2424D02*
X756Y2424D01*
X779Y2424D02*
X792Y2424D01*
X816Y2424D02*
X823Y2424D01*
X836Y2424D02*
X843Y2424D01*
X883Y2424D02*
X888Y2424D01*
X904Y2424D02*
X912Y2424D01*
X921Y2424D02*
X932Y2424D01*
X948Y2424D02*
X956Y2424D01*
X965Y2424D02*
X975Y2424D01*
X991Y2424D02*
X996Y2424D01*
X1013Y2424D02*
X1018Y2424D01*
X1094Y2424D02*
X1099Y2424D01*
X1122Y2424D02*
X1130Y2424D01*
X1142Y2424D02*
X1150Y2424D01*
X1221Y2424D02*
X1226Y2424D01*
X1253Y2424D02*
X1263Y2424D01*
X1276Y2424D02*
X1282Y2424D01*
X1317Y2424D02*
X1325Y2424D01*
X1340Y2424D02*
X1345Y2424D01*
X1364Y2424D02*
X1369Y2424D01*
X1449Y2424D02*
X1456Y2424D01*
X1472Y2424D02*
X1483Y2424D01*
X1492Y2424D02*
X1500Y2424D01*
X1516Y2424D02*
X1524Y2424D01*
X1536Y2424D02*
X1544Y2424D01*
X1571Y2424D02*
X1576Y2424D01*
X1610Y2424D02*
X1616Y2424D01*
X1621Y2424D02*
X1626Y2424D01*
X1691Y2424D02*
X1697Y2424D01*
X1714Y2424D02*
X1719Y2424D01*
X1735Y2424D02*
X1741Y2424D01*
X1758Y2424D02*
X1763Y2424D01*
X1790Y2424D02*
X1795Y2424D01*
X1822Y2424D02*
X1827Y2424D01*
X1846Y2424D02*
X1851Y2424D01*
X689Y2423D02*
X708Y2423D01*
X727Y2423D02*
X756Y2423D01*
X780Y2423D02*
X792Y2423D01*
X816Y2423D02*
X842Y2423D01*
X883Y2423D02*
X888Y2423D01*
X905Y2423D02*
X913Y2423D01*
X920Y2423D02*
X932Y2423D01*
X949Y2423D02*
X957Y2423D01*
X964Y2423D02*
X975Y2423D01*
X991Y2423D02*
X996Y2423D01*
X1013Y2423D02*
X1018Y2423D01*
X1094Y2423D02*
X1099Y2423D01*
X1123Y2423D02*
X1149Y2423D01*
X1214Y2423D02*
X1233Y2423D01*
X1253Y2423D02*
X1281Y2423D01*
X1299Y2423D02*
X1324Y2423D01*
X1340Y2423D02*
X1369Y2423D01*
X1430Y2423D02*
X1455Y2423D01*
X1472Y2423D02*
X1499Y2423D01*
X1517Y2423D02*
X1543Y2423D01*
X1564Y2423D02*
X1583Y2423D01*
X1610Y2423D02*
X1630Y2423D01*
X1691Y2423D02*
X1720Y2423D01*
X1735Y2423D02*
X1763Y2423D01*
X1783Y2423D02*
X1802Y2423D01*
X1822Y2423D02*
X1827Y2423D01*
X1846Y2423D02*
X1851Y2423D01*
X687Y2422D02*
X709Y2422D01*
X727Y2422D02*
X755Y2422D01*
X780Y2422D02*
X791Y2422D01*
X817Y2422D02*
X842Y2422D01*
X883Y2422D02*
X888Y2422D01*
X906Y2422D02*
X915Y2422D01*
X918Y2422D02*
X932Y2422D01*
X950Y2422D02*
X959Y2422D01*
X962Y2422D02*
X975Y2422D01*
X990Y2422D02*
X996Y2422D01*
X1013Y2422D02*
X1019Y2422D01*
X1094Y2422D02*
X1099Y2422D01*
X1124Y2422D02*
X1148Y2422D01*
X1213Y2422D02*
X1234Y2422D01*
X1253Y2422D02*
X1281Y2422D01*
X1297Y2422D02*
X1323Y2422D01*
X1341Y2422D02*
X1369Y2422D01*
X1428Y2422D02*
X1455Y2422D01*
X1472Y2422D02*
X1498Y2422D01*
X1518Y2422D02*
X1542Y2422D01*
X1563Y2422D02*
X1585Y2422D01*
X1611Y2422D02*
X1631Y2422D01*
X1692Y2422D02*
X1719Y2422D01*
X1735Y2422D02*
X1763Y2422D01*
X1782Y2422D02*
X1804Y2422D01*
X1822Y2422D02*
X1827Y2422D01*
X1846Y2422D02*
X1851Y2422D01*
X687Y2421D02*
X709Y2421D01*
X727Y2421D02*
X755Y2421D01*
X781Y2421D02*
X791Y2421D01*
X818Y2421D02*
X841Y2421D01*
X883Y2421D02*
X888Y2421D01*
X907Y2421D02*
X932Y2421D01*
X951Y2421D02*
X975Y2421D01*
X990Y2421D02*
X995Y2421D01*
X1014Y2421D02*
X1019Y2421D01*
X1094Y2421D02*
X1099Y2421D01*
X1125Y2421D02*
X1147Y2421D01*
X1212Y2421D02*
X1235Y2421D01*
X1253Y2421D02*
X1280Y2421D01*
X1297Y2421D02*
X1322Y2421D01*
X1341Y2421D02*
X1368Y2421D01*
X1428Y2421D02*
X1454Y2421D01*
X1472Y2421D02*
X1497Y2421D01*
X1519Y2421D02*
X1541Y2421D01*
X1562Y2421D02*
X1585Y2421D01*
X1611Y2421D02*
X1632Y2421D01*
X1692Y2421D02*
X1719Y2421D01*
X1736Y2421D02*
X1763Y2421D01*
X1781Y2421D02*
X1804Y2421D01*
X1822Y2421D02*
X1827Y2421D01*
X1846Y2421D02*
X1851Y2421D01*
X687Y2420D02*
X710Y2420D01*
X727Y2420D02*
X754Y2420D01*
X781Y2420D02*
X790Y2420D01*
X819Y2420D02*
X839Y2420D01*
X883Y2420D02*
X888Y2420D01*
X908Y2420D02*
X932Y2420D01*
X952Y2420D02*
X975Y2420D01*
X990Y2420D02*
X995Y2420D01*
X1014Y2420D02*
X1019Y2420D01*
X1094Y2420D02*
X1099Y2420D01*
X1126Y2420D02*
X1146Y2420D01*
X1212Y2420D02*
X1235Y2420D01*
X1253Y2420D02*
X1279Y2420D01*
X1296Y2420D02*
X1321Y2420D01*
X1342Y2420D02*
X1367Y2420D01*
X1428Y2420D02*
X1452Y2420D01*
X1472Y2420D02*
X1477Y2420D01*
X1479Y2420D02*
X1496Y2420D01*
X1520Y2420D02*
X1540Y2420D01*
X1562Y2420D02*
X1585Y2420D01*
X1612Y2420D02*
X1632Y2420D01*
X1693Y2420D02*
X1718Y2420D01*
X1737Y2420D02*
X1762Y2420D01*
X1781Y2420D02*
X1804Y2420D01*
X1822Y2420D02*
X1827Y2420D01*
X1846Y2420D02*
X1851Y2420D01*
X687Y2419D02*
X709Y2419D01*
X728Y2419D02*
X732Y2419D01*
X735Y2419D02*
X753Y2419D01*
X781Y2419D02*
X790Y2419D01*
X821Y2419D02*
X838Y2419D01*
X883Y2419D02*
X887Y2419D01*
X910Y2419D02*
X924Y2419D01*
X926Y2419D02*
X932Y2419D01*
X953Y2419D02*
X968Y2419D01*
X970Y2419D02*
X975Y2419D01*
X990Y2419D02*
X995Y2419D01*
X1014Y2419D02*
X1019Y2419D01*
X1094Y2419D02*
X1099Y2419D01*
X1127Y2419D02*
X1145Y2419D01*
X1212Y2419D02*
X1235Y2419D01*
X1253Y2419D02*
X1257Y2419D01*
X1261Y2419D02*
X1278Y2419D01*
X1297Y2419D02*
X1320Y2419D01*
X1342Y2419D02*
X1366Y2419D01*
X1428Y2419D02*
X1451Y2419D01*
X1472Y2419D02*
X1476Y2419D01*
X1480Y2419D02*
X1495Y2419D01*
X1521Y2419D02*
X1539Y2419D01*
X1562Y2419D02*
X1585Y2419D01*
X1613Y2419D02*
X1632Y2419D01*
X1694Y2419D02*
X1717Y2419D01*
X1738Y2419D02*
X1760Y2419D01*
X1781Y2419D02*
X1804Y2419D01*
X1822Y2419D02*
X1827Y2419D01*
X1846Y2419D02*
X1851Y2419D01*
X687Y2418D02*
X709Y2418D01*
X728Y2418D02*
X731Y2418D01*
X737Y2418D02*
X751Y2418D01*
X782Y2418D02*
X789Y2418D01*
X822Y2418D02*
X837Y2418D01*
X884Y2418D02*
X887Y2418D01*
X911Y2418D02*
X923Y2418D01*
X926Y2418D02*
X932Y2418D01*
X955Y2418D02*
X967Y2418D01*
X970Y2418D02*
X975Y2418D01*
X991Y2418D02*
X994Y2418D01*
X1015Y2418D02*
X1018Y2418D01*
X1095Y2418D02*
X1098Y2418D01*
X1129Y2418D02*
X1143Y2418D01*
X1213Y2418D02*
X1234Y2418D01*
X1254Y2418D02*
X1257Y2418D01*
X1262Y2418D02*
X1277Y2418D01*
X1297Y2418D02*
X1318Y2418D01*
X1344Y2418D02*
X1365Y2418D01*
X1429Y2418D02*
X1450Y2418D01*
X1473Y2418D02*
X1476Y2418D01*
X1482Y2418D02*
X1493Y2418D01*
X1523Y2418D02*
X1537Y2418D01*
X1563Y2418D02*
X1584Y2418D01*
X1615Y2418D02*
X1631Y2418D01*
X1696Y2418D02*
X1715Y2418D01*
X1740Y2418D02*
X1759Y2418D01*
X1782Y2418D02*
X1803Y2418D01*
X1823Y2418D02*
X1826Y2418D01*
X1847Y2418D02*
X1850Y2418D01*
X912Y2417D02*
X921Y2417D01*
X926Y2417D02*
X932Y2417D01*
X956Y2417D02*
X965Y2417D01*
X970Y2417D02*
X975Y2417D01*
X915Y2416D02*
X919Y2416D01*
X926Y2416D02*
X932Y2416D01*
X959Y2416D02*
X962Y2416D01*
X970Y2416D02*
X975Y2416D01*
X926Y2415D02*
X932Y2415D01*
X970Y2415D02*
X975Y2415D01*
X926Y2414D02*
X932Y2414D01*
X970Y2414D02*
X975Y2414D01*
X926Y2413D02*
X932Y2413D01*
X970Y2413D02*
X975Y2413D01*
X926Y2412D02*
X932Y2412D01*
X970Y2412D02*
X975Y2412D01*
X926Y2411D02*
X932Y2411D01*
X970Y2411D02*
X975Y2411D01*
X926Y2410D02*
X932Y2410D01*
X970Y2410D02*
X975Y2410D01*
X926Y2409D02*
X932Y2409D01*
X970Y2409D02*
X975Y2409D01*
X926Y2408D02*
X932Y2408D01*
X970Y2408D02*
X975Y2408D01*
X926Y2407D02*
X931Y2407D01*
X970Y2407D02*
X975Y2407D01*
X927Y2406D02*
X931Y2406D01*
X971Y2406D02*
X975Y2406D01*
X928Y2405D02*
X930Y2405D01*
X971Y2405D02*
X974Y2405D01*
D02*
G04 End of Silk0*
M02*