G04 MADE WITH FRITZING*
G04 WWW.FRITZING.ORG*
G04 DOUBLE SIDED*
G04 HOLES PLATED*
G04 CONTOUR ON CENTER OF CONTOUR VECTOR*
%ASAXBY*%
%FSLAX23Y23*%
%MOIN*%
%OFA0B0*%
%SFA1.0B1.0*%
%ADD10C,0.075000*%
%ADD11C,0.082000*%
%ADD12C,0.075118*%
%ADD13C,0.080000*%
%ADD14C,0.074803*%
%ADD15C,0.074000*%
%ADD16C,0.078000*%
%ADD17C,0.071889*%
%ADD18C,0.071917*%
%ADD19C,0.124033*%
%ADD20C,0.070000*%
%ADD21C,0.125984*%
%ADD22R,0.082000X0.082000*%
%ADD23R,0.080000X0.080000*%
%ADD24R,0.075000X0.075000*%
%ADD25R,0.074000X0.074000*%
%ADD26R,0.078000X0.078000*%
%ADD27C,0.024000*%
%ADD28R,0.001000X0.001000*%
%LNCOPPER0*%
G90*
G70*
G54D10*
X537Y1513D03*
X137Y1513D03*
X137Y1393D03*
X537Y1393D03*
X137Y813D03*
X537Y813D03*
X138Y1873D03*
X538Y1873D03*
X138Y1993D03*
X538Y1993D03*
X138Y2112D03*
X538Y2112D03*
X137Y2353D03*
X537Y2353D03*
G54D11*
X1140Y1992D03*
X842Y1992D03*
X1140Y2111D03*
X842Y2111D03*
G54D12*
X2129Y1555D03*
X1708Y1555D03*
X1708Y1181D03*
X2129Y1181D03*
G54D13*
X2508Y862D03*
X2508Y725D03*
G54D14*
X1708Y1368D03*
G54D10*
X1840Y796D03*
X2140Y796D03*
X1840Y696D03*
X2140Y696D03*
X1840Y596D03*
X2140Y596D03*
X1840Y496D03*
X2140Y496D03*
X1840Y396D03*
X2140Y396D03*
X1840Y296D03*
X2140Y296D03*
X1840Y196D03*
X2140Y196D03*
X1300Y896D03*
X1600Y896D03*
X1300Y796D03*
X1600Y796D03*
X1300Y696D03*
X1600Y696D03*
X1300Y596D03*
X1600Y596D03*
X1300Y496D03*
X1600Y496D03*
X1300Y396D03*
X1600Y396D03*
X1300Y296D03*
X1600Y296D03*
X1300Y196D03*
X1600Y196D03*
G54D13*
X2508Y1712D03*
X2508Y1574D03*
G54D10*
X1011Y452D03*
X1011Y196D03*
X834Y452D03*
X834Y196D03*
G54D15*
X2147Y2353D03*
X2147Y2253D03*
X2147Y2153D03*
X2147Y2053D03*
X2147Y1954D03*
X2447Y1954D03*
X2447Y2053D03*
X2447Y2153D03*
X2447Y2253D03*
X2448Y2353D03*
X2147Y2353D03*
X2147Y2253D03*
X2147Y2153D03*
X2147Y2053D03*
X2147Y1954D03*
X2447Y1954D03*
X2447Y2053D03*
X2447Y2153D03*
X2447Y2253D03*
X2448Y2353D03*
G54D10*
X1437Y2353D03*
X1837Y2353D03*
X1437Y2113D03*
X1837Y2113D03*
X1838Y1993D03*
X1438Y1993D03*
X1838Y1873D03*
X1438Y1873D03*
G54D16*
X2508Y465D03*
X2508Y365D03*
X2508Y265D03*
G54D17*
X260Y209D03*
X360Y209D03*
G54D18*
X460Y209D03*
G54D19*
X166Y504D03*
X555Y504D03*
G54D11*
X1140Y2354D03*
X842Y2354D03*
G54D10*
X281Y1166D03*
X281Y1066D03*
X281Y966D03*
X1141Y1713D03*
X1141Y1613D03*
X1141Y1513D03*
X539Y1066D03*
X539Y1166D03*
X539Y1266D03*
G54D20*
X1438Y1159D03*
X1438Y1259D03*
X1438Y1629D03*
X1438Y1529D03*
G54D10*
X934Y1266D03*
X834Y1266D03*
X934Y1040D03*
X834Y1040D03*
X933Y814D03*
X833Y814D03*
G54D11*
X1140Y1873D03*
X842Y1873D03*
G54D16*
X2508Y1316D03*
X2508Y1216D03*
X2508Y1116D03*
G54D21*
X166Y503D03*
X556Y503D03*
G54D22*
X1141Y1992D03*
X1141Y2111D03*
G54D23*
X2508Y862D03*
G54D24*
X1840Y796D03*
X1300Y896D03*
G54D23*
X2508Y1712D03*
G54D25*
X2148Y2352D03*
G54D26*
X2508Y465D03*
G54D22*
X1141Y2354D03*
G54D24*
X934Y1266D03*
X934Y1040D03*
X933Y814D03*
G54D22*
X1141Y1873D03*
G54D26*
X2508Y1316D03*
G54D27*
X834Y225D02*
X834Y423D01*
D02*
X1011Y423D02*
X1011Y225D01*
D02*
X2178Y2153D02*
X2416Y2153D01*
D02*
X1402Y597D02*
X1402Y497D01*
D02*
X1402Y497D02*
X1320Y416D01*
D02*
X1580Y776D02*
X1402Y597D01*
D02*
X560Y1046D02*
X716Y896D01*
D02*
X716Y896D02*
X1271Y896D01*
D02*
X1841Y1368D02*
X1747Y1368D01*
D02*
X2226Y863D02*
X1841Y1368D01*
D02*
X2477Y863D02*
X2226Y863D01*
D02*
X2069Y647D02*
X2069Y445D01*
D02*
X2069Y445D02*
X2116Y412D01*
D02*
X1811Y796D02*
X1628Y796D01*
D02*
X1721Y796D02*
X1721Y597D01*
D02*
X1721Y597D02*
X1818Y515D01*
D02*
X1811Y796D02*
X1721Y796D01*
D02*
X1554Y114D02*
X1757Y114D01*
D02*
X1757Y114D02*
X1820Y176D01*
D02*
X1487Y195D02*
X1554Y114D01*
D02*
X1487Y494D02*
X1487Y195D01*
D02*
X1579Y577D02*
X1487Y494D01*
D02*
X2416Y2153D02*
X2178Y2153D01*
D02*
X2384Y1712D02*
X2228Y1555D01*
D02*
X2228Y1555D02*
X2168Y1555D01*
D02*
X2477Y1712D02*
X2384Y1712D01*
D02*
X2384Y1216D02*
X2478Y1216D01*
D02*
X2229Y1181D02*
X2384Y1216D01*
D02*
X2168Y1181D02*
X2229Y1181D01*
D02*
X1811Y396D02*
X1628Y396D01*
D02*
X1922Y861D02*
X1922Y653D01*
D02*
X1750Y1011D02*
X1922Y861D01*
D02*
X1450Y1011D02*
X1750Y1011D01*
D02*
X1227Y1243D02*
X1450Y1011D01*
D02*
X1227Y1932D02*
X1227Y1243D01*
D02*
X1922Y653D02*
X1864Y613D01*
D02*
X1166Y1974D02*
X1227Y1932D01*
D02*
X2232Y1873D02*
X2424Y2033D01*
D02*
X1866Y1873D02*
X2232Y1873D01*
D02*
X1930Y2234D02*
X771Y2234D01*
D02*
X771Y2234D02*
X692Y2153D01*
D02*
X1998Y2153D02*
X1930Y2234D01*
D02*
X2116Y2153D02*
X1998Y2153D01*
D02*
X692Y1666D02*
X558Y1533D01*
D02*
X692Y2153D02*
X692Y1666D01*
G54D28*
X2136Y709D02*
X2143Y709D01*
X2134Y708D02*
X2145Y708D01*
X2132Y707D02*
X2146Y707D01*
X2131Y706D02*
X2147Y706D01*
X2129Y705D02*
X2148Y705D01*
X2128Y704D02*
X2149Y704D01*
X2126Y703D02*
X2149Y703D01*
X2125Y702D02*
X2150Y702D01*
X2124Y701D02*
X2150Y701D01*
X2122Y700D02*
X2150Y700D01*
X2121Y699D02*
X2151Y699D01*
X2119Y698D02*
X2151Y698D01*
X2118Y697D02*
X2151Y697D01*
X2116Y696D02*
X2151Y696D01*
X2115Y695D02*
X2150Y695D01*
X2113Y694D02*
X2150Y694D01*
X2112Y693D02*
X2150Y693D01*
X2111Y692D02*
X2149Y692D01*
X2109Y691D02*
X2149Y691D01*
X2108Y690D02*
X2148Y690D01*
X2106Y689D02*
X2147Y689D01*
X2105Y688D02*
X2146Y688D01*
X2103Y687D02*
X2144Y687D01*
X2102Y686D02*
X2143Y686D01*
X2101Y685D02*
X2142Y685D01*
X2099Y684D02*
X2140Y684D01*
X2098Y683D02*
X2139Y683D01*
X2096Y682D02*
X2137Y682D01*
X2095Y681D02*
X2136Y681D01*
X2093Y680D02*
X2134Y680D01*
X2092Y679D02*
X2133Y679D01*
X2091Y678D02*
X2131Y678D01*
X2089Y677D02*
X2130Y677D01*
X2088Y676D02*
X2129Y676D01*
X2086Y675D02*
X2127Y675D01*
X2085Y674D02*
X2126Y674D01*
X2083Y673D02*
X2124Y673D01*
X2082Y672D02*
X2123Y672D01*
X2081Y671D02*
X2121Y671D01*
X2079Y670D02*
X2120Y670D01*
X2078Y669D02*
X2119Y669D01*
X2076Y668D02*
X2117Y668D01*
X2075Y667D02*
X2116Y667D01*
X2073Y666D02*
X2114Y666D01*
X2072Y665D02*
X2113Y665D01*
X2071Y664D02*
X2111Y664D01*
X2069Y663D02*
X2110Y663D01*
X2068Y662D02*
X2109Y662D01*
X2066Y661D02*
X2107Y661D01*
X2065Y660D02*
X2106Y660D01*
X2063Y659D02*
X2104Y659D01*
X2062Y658D02*
X2103Y658D01*
X2061Y657D02*
X2101Y657D01*
X2060Y656D02*
X2100Y656D01*
X2059Y655D02*
X2099Y655D01*
X2058Y654D02*
X2097Y654D01*
X2058Y653D02*
X2096Y653D01*
X2057Y652D02*
X2094Y652D01*
X2057Y651D02*
X2093Y651D01*
X2057Y650D02*
X2091Y650D01*
X2057Y649D02*
X2090Y649D01*
X2057Y648D02*
X2089Y648D01*
X2057Y647D02*
X2087Y647D01*
X2057Y646D02*
X2086Y646D01*
X2057Y645D02*
X2084Y645D01*
X2057Y644D02*
X2083Y644D01*
X2058Y643D02*
X2081Y643D01*
X2058Y642D02*
X2080Y642D01*
X2059Y641D02*
X2078Y641D01*
X2060Y640D02*
X2077Y640D01*
X2061Y639D02*
X2076Y639D01*
X2062Y638D02*
X2074Y638D01*
X2064Y637D02*
X2072Y637D01*
X2068Y636D02*
X2068Y636D01*
D02*
G04 End of Copper0*
M02*