; NON-PLATED HOLES START AT T1
; THROUGH (PLATED) HOLES START AT T100
M48
INCH
T1C0.086614
T2C0.125984
T100C0.035000
T101C0.044139
T102C0.088356
T103C0.044111
T104C0.086614
T105C0.038000
T106C0.042000
T107C0.040000
T108C0.030000
T109C0.055118
%
T1
X000780Y026781
X000780Y000781
X026780Y000781
X026780Y026781
T2
X019203Y017202
X019202Y010154
T100
X010108Y001961
X012998Y004959
X018372Y023531
X011409Y016128
X018400Y007963
X015998Y004959
X018372Y021133
X012998Y003959
X005392Y012662
X001372Y013929
X015998Y006959
X012998Y008959
X008337Y001961
X015998Y005959
X011409Y017128
X005372Y008133
X005376Y021124
X015998Y007959
X005372Y023533
X012998Y002959
X011409Y015128
X018400Y004963
X005392Y010662
X008335Y010396
X009335Y012655
X008335Y012655
X015998Y003959
X021400Y005963
X014382Y019929
X014377Y018730
X005372Y013929
X018377Y018730
X009332Y008137
X012998Y001959
X005379Y019929
X005392Y011662
X014372Y021133
X010108Y004520
X021400Y002963
X008337Y004520
X021400Y006963
X018400Y003963
X001382Y018733
X021400Y003963
X018400Y002963
X001372Y015133
X001376Y021124
X015998Y001959
X008332Y008137
X021400Y001963
X001372Y023533
X005372Y015133
X001372Y008133
X018400Y005963
X009335Y010396
X002812Y009662
X018400Y001963
X018382Y019929
X012998Y005959
X002812Y011662
X012998Y007959
X015998Y002959
X021400Y004963
X018400Y006963
X002812Y010662
X001379Y019929
X021400Y007963
X012998Y006959
X005382Y018733
X014372Y023531
X015998Y008959
T101
X004604Y002090
T102
X001663Y005042
X005546Y005042
T103
X002604Y002090
X003604Y002090
T104
X005558Y005025
X001659Y005025
T105
X025076Y012158
X025076Y013158
X025076Y004654
X025076Y003654
X025076Y002654
X025076Y011158
T106
X011399Y021114
X008419Y023540
X008419Y018725
X008419Y019920
X011399Y018725
X008419Y021114
X011399Y023540
X011399Y019920
T107
X021469Y021527
X021469Y022528
X025083Y015744
X024474Y020526
X021469Y019539
X025077Y007247
X025083Y017122
X021469Y020528
X024474Y022526
X024474Y019537
X024478Y023529
X025077Y008624
X024474Y021526
X021469Y023527
T108
X014380Y016292
X014379Y012588
X014379Y011586
X014380Y015290
T109
X021293Y011806
X021293Y015546
X017078Y013683
X017080Y015546
X017080Y011806
T00
M30
