; NON-PLATED HOLES START AT T1
; THROUGH (PLATED) HOLES START AT T100
M48
INCH
T1C0.086614
T100C0.040000
T101C0.086614
T102C0.038000
T103C0.044139
T104C0.035000
T105C0.088356
T106C0.044111
%
T1
X000777Y011033
X011044Y011033
X000777Y000788
X011044Y000788
T100
X009325Y009771
X009327Y006770
X009325Y008393
X009329Y002388
X009327Y005392
X009329Y003766
T101
X005698Y003779
X001809Y003779
T102
X007152Y004076
X007152Y002076
X007152Y003076
T103
X004755Y000843
T104
X004121Y005882
X003123Y005884
X006136Y007863
X007605Y005812
X005121Y005885
X001125Y005879
X006136Y009863
X007605Y007812
X004121Y009882
X003123Y009884
X007605Y006812
X005121Y009885
X001125Y009879
X002122Y005879
X002122Y009879
X006136Y008863
T105
X005697Y003796
X001814Y003796
T106
X003755Y000843
X002755Y000843
T00
M30
