G04 MADE WITH FRITZING*
G04 WWW.FRITZING.ORG*
G04 DOUBLE SIDED*
G04 HOLES PLATED*
G04 CONTOUR ON CENTER OF CONTOUR VECTOR*
%ASAXBY*%
%FSLAX23Y23*%
%MOIN*%
%OFA0B0*%
%SFA1.0B1.0*%
%ADD10C,0.075000*%
%ADD11C,0.080000*%
%ADD12C,0.071889*%
%ADD13C,0.071917*%
%ADD14C,0.124033*%
%ADD15C,0.078000*%
%ADD16C,0.125984*%
%ADD17R,0.080000X0.080000*%
%ADD18R,0.078000X0.078000*%
%ADD19C,0.024000*%
%LNCOPPER1*%
G90*
G70*
G54D10*
X212Y988D03*
X212Y588D03*
X312Y988D03*
X312Y588D03*
X113Y588D03*
X113Y988D03*
X412Y988D03*
X412Y588D03*
X512Y989D03*
X512Y589D03*
G54D11*
X933Y377D03*
X933Y239D03*
G54D10*
X761Y781D03*
X761Y681D03*
X761Y581D03*
X614Y786D03*
X614Y886D03*
X614Y986D03*
G54D12*
X276Y84D03*
X376Y84D03*
G54D13*
X476Y84D03*
G54D14*
X181Y380D03*
X570Y380D03*
G54D15*
X715Y408D03*
X715Y308D03*
X715Y208D03*
G54D11*
X933Y677D03*
X933Y539D03*
X933Y977D03*
X933Y839D03*
G54D16*
X181Y378D03*
X570Y378D03*
G54D17*
X933Y377D03*
G54D18*
X715Y408D03*
G54D17*
X933Y677D03*
X933Y977D03*
G54D19*
X593Y966D02*
X233Y608D01*
D02*
X593Y866D02*
X333Y609D01*
D02*
X637Y870D02*
X737Y798D01*
D02*
X322Y497D02*
X204Y497D01*
D02*
X204Y497D02*
X133Y568D01*
D02*
X376Y440D02*
X322Y497D01*
D02*
X376Y118D02*
X376Y440D01*
D02*
X211Y887D02*
X132Y967D01*
D02*
X412Y887D02*
X211Y887D01*
D02*
X492Y968D02*
X412Y887D01*
D02*
X579Y1054D02*
X847Y1054D01*
D02*
X847Y1054D02*
X909Y998D01*
D02*
X532Y1009D02*
X579Y1054D01*
D02*
X1005Y1040D02*
X951Y1093D01*
D02*
X884Y908D02*
X1005Y908D01*
D02*
X511Y1093D02*
X432Y1009D01*
D02*
X951Y1093D02*
X511Y1093D01*
D02*
X1005Y908D02*
X1005Y1040D01*
D02*
X848Y870D02*
X884Y908D01*
D02*
X848Y621D02*
X848Y870D01*
D02*
X910Y561D02*
X848Y621D01*
D02*
X593Y766D02*
X433Y608D01*
D02*
X608Y681D02*
X533Y608D01*
D02*
X732Y681D02*
X608Y681D01*
D02*
X761Y513D02*
X909Y396D01*
D02*
X761Y553D02*
X761Y513D01*
D02*
X1005Y438D02*
X1005Y614D01*
D02*
X1005Y614D02*
X956Y657D01*
D02*
X957Y397D02*
X1005Y438D01*
D02*
X739Y389D02*
X908Y258D01*
D02*
X284Y988D02*
X241Y988D01*
D02*
X1060Y839D02*
X964Y839D01*
D02*
X1060Y1040D02*
X1060Y839D01*
D02*
X967Y1134D02*
X1060Y1040D01*
D02*
X449Y1134D02*
X967Y1134D01*
D02*
X332Y1009D02*
X449Y1134D01*
D02*
X618Y581D02*
X732Y581D01*
D02*
X476Y440D02*
X618Y581D01*
D02*
X476Y118D02*
X476Y440D01*
D02*
X900Y160D02*
X739Y289D01*
D02*
X998Y160D02*
X900Y160D01*
D02*
X1060Y222D02*
X998Y160D01*
D02*
X1060Y839D02*
X1060Y222D01*
D02*
X964Y839D02*
X1060Y839D01*
G04 End of Copper1*
M02*