G04 MADE WITH FRITZING*
G04 WWW.FRITZING.ORG*
G04 DOUBLE SIDED*
G04 HOLES PLATED*
G04 CONTOUR ON CENTER OF CONTOUR VECTOR*
%ASAXBY*%
%FSLAX23Y23*%
%MOIN*%
%OFA0B0*%
%SFA1.0B1.0*%
%ADD10R,0.001000X0.001000*%
%LNSILK0*%
G90*
G70*
G36*
X2080Y1112D02*
X2080Y1105D01*
X2082Y1105D01*
X2082Y1097D01*
X2084Y1097D01*
X2084Y1089D01*
X2085Y1089D01*
X2085Y1081D01*
X2080Y1081D01*
X2080Y1084D01*
X2079Y1084D01*
X2079Y1087D01*
X2077Y1087D01*
X2077Y1100D01*
X2076Y1100D01*
X2076Y1112D01*
X2080Y1112D01*
G37*
D02*
G36*
X2036Y1105D02*
X2036Y1102D01*
X2038Y1102D01*
X2038Y1099D01*
X2039Y1099D01*
X2039Y1096D01*
X2041Y1096D01*
X2041Y1091D01*
X2043Y1091D01*
X2043Y1086D01*
X2044Y1086D01*
X2044Y1082D01*
X2046Y1082D01*
X2046Y1079D01*
X2048Y1079D01*
X2048Y1074D01*
X2049Y1074D01*
X2049Y1071D01*
X2048Y1071D01*
X2048Y1069D01*
X2044Y1069D01*
X2044Y1071D01*
X2043Y1071D01*
X2043Y1076D01*
X2041Y1076D01*
X2041Y1079D01*
X2039Y1079D01*
X2039Y1082D01*
X2038Y1082D01*
X2038Y1086D01*
X2036Y1086D01*
X2036Y1091D01*
X2035Y1091D01*
X2035Y1097D01*
X2033Y1097D01*
X2033Y1100D01*
X2031Y1100D01*
X2031Y1105D01*
X2036Y1105D01*
G37*
D02*
G36*
X1984Y1077D02*
X1984Y1076D01*
X1985Y1076D01*
X1985Y1074D01*
X1987Y1074D01*
X1987Y1071D01*
X1989Y1071D01*
X1989Y1069D01*
X1990Y1069D01*
X1990Y1068D01*
X1995Y1068D01*
X1995Y1066D01*
X1997Y1066D01*
X1997Y1064D01*
X1998Y1064D01*
X1998Y1063D01*
X2002Y1063D01*
X2002Y1061D01*
X2005Y1061D01*
X2005Y1059D01*
X2007Y1059D01*
X2007Y1058D01*
X2010Y1058D01*
X2010Y1056D01*
X2013Y1056D01*
X2013Y1055D01*
X2015Y1055D01*
X2015Y1051D01*
X2010Y1051D01*
X2010Y1053D01*
X2007Y1053D01*
X2007Y1055D01*
X2003Y1055D01*
X2003Y1056D01*
X2002Y1056D01*
X2002Y1058D01*
X1998Y1058D01*
X1998Y1059D01*
X1995Y1059D01*
X1995Y1061D01*
X1992Y1061D01*
X1992Y1064D01*
X1987Y1064D01*
X1987Y1066D01*
X1985Y1066D01*
X1985Y1068D01*
X1984Y1068D01*
X1984Y1069D01*
X1980Y1069D01*
X1980Y1071D01*
X1979Y1071D01*
X1979Y1073D01*
X1977Y1073D01*
X1977Y1077D01*
X1984Y1077D01*
G37*
D02*
G36*
X2246Y1087D02*
X2246Y1086D01*
X2253Y1086D01*
X2253Y1084D01*
X2256Y1084D01*
X2256Y1082D01*
X2258Y1082D01*
X2258Y1079D01*
X2238Y1079D01*
X2238Y1077D01*
X2235Y1077D01*
X2235Y1076D01*
X2233Y1076D01*
X2233Y1074D01*
X2231Y1074D01*
X2231Y1073D01*
X2230Y1073D01*
X2230Y1069D01*
X2228Y1069D01*
X2228Y1066D01*
X2226Y1066D01*
X2226Y1059D01*
X2225Y1059D01*
X2225Y1056D01*
X2226Y1056D01*
X2226Y1048D01*
X2228Y1048D01*
X2228Y1046D01*
X2236Y1046D01*
X2236Y1045D01*
X2218Y1045D01*
X2218Y1063D01*
X2220Y1063D01*
X2220Y1069D01*
X2222Y1069D01*
X2222Y1073D01*
X2223Y1073D01*
X2223Y1076D01*
X2225Y1076D01*
X2225Y1077D01*
X2226Y1077D01*
X2226Y1079D01*
X2228Y1079D01*
X2228Y1081D01*
X2230Y1081D01*
X2230Y1084D01*
X2235Y1084D01*
X2235Y1086D01*
X2240Y1086D01*
X2240Y1087D01*
X2246Y1087D01*
G37*
D02*
G36*
X2259Y1079D02*
X2259Y1077D01*
X2261Y1077D01*
X2261Y1076D01*
X2263Y1076D01*
X2263Y1074D01*
X2264Y1074D01*
X2264Y1071D01*
X2258Y1071D01*
X2258Y1073D01*
X2256Y1073D01*
X2256Y1076D01*
X2254Y1076D01*
X2254Y1077D01*
X2249Y1077D01*
X2249Y1079D01*
X2259Y1079D01*
G37*
D02*
G36*
X2292Y1074D02*
X2292Y1073D01*
X2294Y1073D01*
X2294Y1071D01*
X2271Y1071D01*
X2271Y1073D01*
X2279Y1073D01*
X2279Y1074D01*
X2292Y1074D01*
G37*
D02*
G36*
X2295Y1071D02*
X2295Y1069D01*
X2259Y1069D01*
X2259Y1071D01*
X2295Y1071D01*
G37*
D02*
G36*
X2295Y1071D02*
X2295Y1069D01*
X2259Y1069D01*
X2259Y1071D01*
X2295Y1071D01*
G37*
D02*
G36*
X2297Y1069D02*
X2297Y1068D01*
X2299Y1068D01*
X2299Y1066D01*
X2277Y1066D01*
X2277Y1064D01*
X2269Y1064D01*
X2269Y1063D01*
X2266Y1063D01*
X2266Y1061D01*
X2264Y1061D01*
X2264Y1063D01*
X2263Y1063D01*
X2263Y1064D01*
X2261Y1064D01*
X2261Y1068D01*
X2259Y1068D01*
X2259Y1069D01*
X2297Y1069D01*
G37*
D02*
G36*
X2302Y1066D02*
X2302Y1063D01*
X2305Y1063D01*
X2305Y1059D01*
X2307Y1059D01*
X2307Y1056D01*
X2308Y1056D01*
X2308Y1046D01*
X2307Y1046D01*
X2307Y1043D01*
X2305Y1043D01*
X2305Y1041D01*
X2304Y1041D01*
X2304Y1040D01*
X2302Y1040D01*
X2302Y1036D01*
X2300Y1036D01*
X2300Y1035D01*
X2299Y1035D01*
X2299Y1033D01*
X2297Y1033D01*
X2297Y1032D01*
X2295Y1032D01*
X2295Y1030D01*
X2292Y1030D01*
X2292Y1028D01*
X2290Y1028D01*
X2290Y1027D01*
X2287Y1027D01*
X2287Y1025D01*
X2286Y1025D01*
X2286Y1022D01*
X2282Y1022D01*
X2282Y1020D01*
X2276Y1020D01*
X2276Y1018D01*
X2274Y1018D01*
X2274Y1017D01*
X2258Y1017D01*
X2258Y1018D01*
X2261Y1018D01*
X2261Y1020D01*
X2266Y1020D01*
X2266Y1022D01*
X2269Y1022D01*
X2269Y1023D01*
X2272Y1023D01*
X2272Y1027D01*
X2277Y1027D01*
X2277Y1028D01*
X2281Y1028D01*
X2281Y1030D01*
X2282Y1030D01*
X2282Y1032D01*
X2286Y1032D01*
X2286Y1033D01*
X2287Y1033D01*
X2287Y1035D01*
X2290Y1035D01*
X2290Y1036D01*
X2292Y1036D01*
X2292Y1040D01*
X2294Y1040D01*
X2294Y1041D01*
X2295Y1041D01*
X2295Y1043D01*
X2297Y1043D01*
X2297Y1045D01*
X2299Y1045D01*
X2299Y1046D01*
X2300Y1046D01*
X2300Y1056D01*
X2299Y1056D01*
X2299Y1058D01*
X2297Y1058D01*
X2297Y1059D01*
X2295Y1059D01*
X2295Y1061D01*
X2294Y1061D01*
X2294Y1063D01*
X2290Y1063D01*
X2290Y1064D01*
X2287Y1064D01*
X2287Y1066D01*
X2302Y1066D01*
G37*
D02*
G36*
X2203Y1059D02*
X2203Y1058D01*
X2205Y1058D01*
X2205Y1055D01*
X2207Y1055D01*
X2207Y1053D01*
X2208Y1053D01*
X2208Y1051D01*
X2199Y1051D01*
X2199Y1050D01*
X2190Y1050D01*
X2190Y1048D01*
X2189Y1048D01*
X2189Y1046D01*
X2185Y1046D01*
X2185Y1045D01*
X2187Y1045D01*
X2187Y1041D01*
X2174Y1041D01*
X2174Y1043D01*
X2171Y1043D01*
X2171Y1050D01*
X2172Y1050D01*
X2172Y1053D01*
X2182Y1053D01*
X2182Y1055D01*
X2185Y1055D01*
X2185Y1056D01*
X2190Y1056D01*
X2190Y1058D01*
X2197Y1058D01*
X2197Y1059D01*
X2203Y1059D01*
G37*
D02*
G36*
X2208Y1051D02*
X2208Y1048D01*
X2210Y1048D01*
X2210Y1046D01*
X2215Y1046D01*
X2215Y1045D01*
X2203Y1045D01*
X2203Y1046D01*
X2202Y1046D01*
X2202Y1048D01*
X2200Y1048D01*
X2200Y1051D01*
X2208Y1051D01*
G37*
D02*
G36*
X2259Y1045D02*
X2259Y1043D01*
X2202Y1043D01*
X2202Y1045D01*
X2259Y1045D01*
G37*
D02*
G36*
X2259Y1045D02*
X2259Y1043D01*
X2202Y1043D01*
X2202Y1045D01*
X2259Y1045D01*
G37*
D02*
G36*
X2259Y1043D02*
X2259Y1041D01*
X2197Y1041D01*
X2197Y1043D01*
X2259Y1043D01*
G37*
D02*
G36*
X2258Y1041D02*
X2258Y1040D01*
X2176Y1040D01*
X2176Y1041D01*
X2258Y1041D01*
G37*
D02*
G36*
X2258Y1041D02*
X2258Y1040D01*
X2176Y1040D01*
X2176Y1041D01*
X2258Y1041D01*
G37*
D02*
G36*
X2241Y1040D02*
X2241Y1038D01*
X2236Y1038D01*
X2236Y1036D01*
X2220Y1036D01*
X2220Y1035D01*
X2215Y1035D01*
X2215Y1033D01*
X2199Y1033D01*
X2199Y1032D01*
X2179Y1032D01*
X2179Y1033D01*
X2181Y1033D01*
X2181Y1035D01*
X2177Y1035D01*
X2177Y1036D01*
X2179Y1036D01*
X2179Y1038D01*
X2177Y1038D01*
X2177Y1040D01*
X2241Y1040D01*
G37*
D02*
G36*
X2236Y1036D02*
X2236Y1032D01*
X2238Y1032D01*
X2238Y1030D01*
X2240Y1030D01*
X2240Y1028D01*
X2241Y1028D01*
X2241Y1027D01*
X2243Y1027D01*
X2243Y1023D01*
X2244Y1023D01*
X2244Y1022D01*
X2248Y1022D01*
X2248Y1020D01*
X2249Y1020D01*
X2249Y1018D01*
X2253Y1018D01*
X2253Y1017D01*
X2238Y1017D01*
X2238Y1018D01*
X2236Y1018D01*
X2236Y1020D01*
X2235Y1020D01*
X2235Y1022D01*
X2233Y1022D01*
X2233Y1025D01*
X2231Y1025D01*
X2231Y1027D01*
X2230Y1027D01*
X2230Y1030D01*
X2228Y1030D01*
X2228Y1032D01*
X2226Y1032D01*
X2226Y1033D01*
X2225Y1033D01*
X2225Y1035D01*
X2222Y1035D01*
X2222Y1036D01*
X2236Y1036D01*
G37*
D02*
G36*
X2215Y1033D02*
X2215Y1032D01*
X2200Y1032D01*
X2200Y1033D01*
X2215Y1033D01*
G37*
D02*
G36*
X2213Y1032D02*
X2213Y1030D01*
X2179Y1030D01*
X2179Y1032D01*
X2213Y1032D01*
G37*
D02*
G36*
X2213Y1032D02*
X2213Y1030D01*
X2179Y1030D01*
X2179Y1032D01*
X2213Y1032D01*
G37*
D02*
G36*
X2212Y1030D02*
X2212Y1027D01*
X2210Y1027D01*
X2210Y1025D01*
X2208Y1025D01*
X2208Y1023D01*
X2200Y1023D01*
X2200Y1022D01*
X2195Y1022D01*
X2195Y1020D01*
X2192Y1020D01*
X2192Y1018D01*
X2184Y1018D01*
X2184Y1020D01*
X2181Y1020D01*
X2181Y1022D01*
X2179Y1022D01*
X2179Y1023D01*
X2177Y1023D01*
X2177Y1027D01*
X2179Y1027D01*
X2179Y1030D01*
X2212Y1030D01*
G37*
D02*
G36*
X2271Y1017D02*
X2271Y1015D01*
X2240Y1015D01*
X2240Y1017D01*
X2271Y1017D01*
G37*
D02*
G36*
X2271Y1017D02*
X2271Y1015D01*
X2240Y1015D01*
X2240Y1017D01*
X2271Y1017D01*
G37*
D02*
G36*
X2267Y1015D02*
X2267Y1014D01*
X2263Y1014D01*
X2263Y1012D01*
X2259Y1012D01*
X2259Y1010D01*
X2246Y1010D01*
X2246Y1012D01*
X2243Y1012D01*
X2243Y1014D01*
X2241Y1014D01*
X2241Y1015D01*
X2267Y1015D01*
G37*
D02*
G36*
X2405Y1066D02*
X2405Y1061D01*
X2404Y1061D01*
X2404Y1059D01*
X2402Y1059D01*
X2402Y1058D01*
X2400Y1058D01*
X2400Y1055D01*
X2399Y1055D01*
X2399Y1053D01*
X2397Y1053D01*
X2397Y1046D01*
X2400Y1046D01*
X2400Y1045D01*
X2412Y1045D01*
X2412Y1043D01*
X2415Y1043D01*
X2415Y1041D01*
X2417Y1041D01*
X2417Y1040D01*
X2418Y1040D01*
X2418Y1036D01*
X2402Y1036D01*
X2402Y1033D01*
X2404Y1033D01*
X2404Y1032D01*
X2387Y1032D01*
X2387Y1043D01*
X2389Y1043D01*
X2389Y1053D01*
X2390Y1053D01*
X2390Y1056D01*
X2392Y1056D01*
X2392Y1059D01*
X2394Y1059D01*
X2394Y1061D01*
X2395Y1061D01*
X2395Y1063D01*
X2397Y1063D01*
X2397Y1064D01*
X2400Y1064D01*
X2400Y1066D01*
X2405Y1066D01*
G37*
D02*
G36*
X2420Y1036D02*
X2420Y1035D01*
X2422Y1035D01*
X2422Y1032D01*
X2410Y1032D01*
X2410Y1033D01*
X2412Y1033D01*
X2412Y1036D01*
X2420Y1036D01*
G37*
D02*
G36*
X2420Y1032D02*
X2420Y1030D01*
X2387Y1030D01*
X2387Y1032D01*
X2420Y1032D01*
G37*
D02*
G36*
X2420Y1032D02*
X2420Y1030D01*
X2387Y1030D01*
X2387Y1032D01*
X2420Y1032D01*
G37*
D02*
G36*
X2420Y1030D02*
X2420Y1025D01*
X2418Y1025D01*
X2418Y1023D01*
X2397Y1023D01*
X2397Y1022D01*
X2386Y1022D01*
X2386Y1030D01*
X2420Y1030D01*
G37*
D02*
G36*
X2417Y1023D02*
X2417Y1022D01*
X2404Y1022D01*
X2404Y1023D01*
X2417Y1023D01*
G37*
D02*
G36*
X2402Y1023D02*
X2402Y1022D01*
X2399Y1022D01*
X2399Y1023D01*
X2402Y1023D01*
G37*
D02*
G36*
X2399Y1022D02*
X2399Y1018D01*
X2400Y1018D01*
X2400Y1017D01*
X2402Y1017D01*
X2402Y1014D01*
X2404Y1014D01*
X2404Y1010D01*
X2407Y1010D01*
X2407Y1009D01*
X2409Y1009D01*
X2409Y999D01*
X2410Y999D01*
X2410Y997D01*
X2409Y997D01*
X2409Y995D01*
X2407Y995D01*
X2407Y992D01*
X2405Y992D01*
X2405Y991D01*
X2399Y991D01*
X2399Y999D01*
X2400Y999D01*
X2400Y1004D01*
X2399Y1004D01*
X2399Y1007D01*
X2397Y1007D01*
X2397Y1009D01*
X2395Y1009D01*
X2395Y1010D01*
X2392Y1010D01*
X2392Y1014D01*
X2390Y1014D01*
X2390Y1015D01*
X2389Y1015D01*
X2389Y1018D01*
X2387Y1018D01*
X2387Y1020D01*
X2386Y1020D01*
X2386Y1022D01*
X2399Y1022D01*
G37*
D02*
G36*
X2486Y1061D02*
X2486Y1056D01*
X2484Y1056D01*
X2484Y1051D01*
X2482Y1051D01*
X2482Y1048D01*
X2481Y1048D01*
X2481Y1045D01*
X2479Y1045D01*
X2479Y1043D01*
X2477Y1043D01*
X2477Y1040D01*
X2476Y1040D01*
X2476Y1033D01*
X2474Y1033D01*
X2474Y1032D01*
X2473Y1032D01*
X2473Y1027D01*
X2466Y1027D01*
X2466Y1032D01*
X2468Y1032D01*
X2468Y1035D01*
X2469Y1035D01*
X2469Y1040D01*
X2471Y1040D01*
X2471Y1043D01*
X2473Y1043D01*
X2473Y1045D01*
X2474Y1045D01*
X2474Y1050D01*
X2476Y1050D01*
X2476Y1055D01*
X2477Y1055D01*
X2477Y1058D01*
X2479Y1058D01*
X2479Y1059D01*
X2481Y1059D01*
X2481Y1061D01*
X2486Y1061D01*
G37*
D02*
G36*
X1954Y1030D02*
X1954Y1028D01*
X1961Y1028D01*
X1961Y1027D01*
X1964Y1027D01*
X1964Y1025D01*
X1971Y1025D01*
X1971Y1023D01*
X1977Y1023D01*
X1977Y1022D01*
X1985Y1022D01*
X1985Y1020D01*
X1990Y1020D01*
X1990Y1018D01*
X1994Y1018D01*
X1994Y1015D01*
X1992Y1015D01*
X1992Y1014D01*
X1984Y1014D01*
X1984Y1015D01*
X1975Y1015D01*
X1975Y1017D01*
X1971Y1017D01*
X1971Y1018D01*
X1959Y1018D01*
X1959Y1020D01*
X1956Y1020D01*
X1956Y1022D01*
X1949Y1022D01*
X1949Y1023D01*
X1946Y1023D01*
X1946Y1025D01*
X1944Y1025D01*
X1944Y1028D01*
X1946Y1028D01*
X1946Y1030D01*
X1954Y1030D01*
G37*
D02*
G36*
X2523Y1005D02*
X2523Y1004D01*
X2525Y1004D01*
X2525Y1002D01*
X2523Y1002D01*
X2523Y1000D01*
X2518Y1000D01*
X2518Y999D01*
X2515Y999D01*
X2515Y997D01*
X2514Y997D01*
X2514Y995D01*
X2510Y995D01*
X2510Y994D01*
X2505Y994D01*
X2505Y992D01*
X2500Y992D01*
X2500Y991D01*
X2495Y991D01*
X2495Y995D01*
X2499Y995D01*
X2499Y997D01*
X2502Y997D01*
X2502Y999D01*
X2505Y999D01*
X2505Y1000D01*
X2509Y1000D01*
X2509Y1002D01*
X2515Y1002D01*
X2515Y1004D01*
X2518Y1004D01*
X2518Y1005D01*
X2523Y1005D01*
G37*
D02*
G36*
X1984Y989D02*
X1984Y987D01*
X1990Y987D01*
X1990Y984D01*
X1992Y984D01*
X1992Y982D01*
X1990Y982D01*
X1990Y981D01*
X1972Y981D01*
X1972Y979D01*
X1967Y979D01*
X1967Y977D01*
X1957Y977D01*
X1957Y982D01*
X1959Y982D01*
X1959Y984D01*
X1967Y984D01*
X1967Y986D01*
X1969Y986D01*
X1969Y987D01*
X1975Y987D01*
X1975Y989D01*
X1984Y989D01*
G37*
D02*
G36*
X2241Y1120D02*
X2241Y1119D01*
X2263Y1119D01*
X2263Y1117D01*
X2271Y1117D01*
X2271Y1115D01*
X2277Y1115D01*
X2277Y1114D01*
X2225Y1114D01*
X2225Y1112D01*
X2220Y1112D01*
X2220Y1110D01*
X2210Y1110D01*
X2210Y1109D01*
X2203Y1109D01*
X2203Y1107D01*
X2199Y1107D01*
X2199Y1105D01*
X2195Y1105D01*
X2195Y1104D01*
X2192Y1104D01*
X2192Y1102D01*
X2189Y1102D01*
X2189Y1100D01*
X2184Y1100D01*
X2184Y1099D01*
X2181Y1099D01*
X2181Y1097D01*
X2179Y1097D01*
X2179Y1096D01*
X2176Y1096D01*
X2176Y1094D01*
X2174Y1094D01*
X2174Y1092D01*
X2172Y1092D01*
X2172Y1091D01*
X2171Y1091D01*
X2171Y1089D01*
X2169Y1089D01*
X2169Y1086D01*
X2167Y1086D01*
X2167Y1084D01*
X2164Y1084D01*
X2164Y1081D01*
X2162Y1081D01*
X2162Y1079D01*
X2161Y1079D01*
X2161Y1077D01*
X2159Y1077D01*
X2159Y1074D01*
X2158Y1074D01*
X2158Y1073D01*
X2156Y1073D01*
X2156Y1071D01*
X2154Y1071D01*
X2154Y1066D01*
X2153Y1066D01*
X2153Y1058D01*
X2151Y1058D01*
X2151Y1053D01*
X2153Y1053D01*
X2153Y1050D01*
X2151Y1050D01*
X2151Y1046D01*
X2153Y1046D01*
X2153Y1041D01*
X2154Y1041D01*
X2154Y1038D01*
X2156Y1038D01*
X2156Y1035D01*
X2158Y1035D01*
X2158Y1032D01*
X2159Y1032D01*
X2159Y1030D01*
X2161Y1030D01*
X2161Y1027D01*
X2162Y1027D01*
X2162Y1023D01*
X2164Y1023D01*
X2164Y1022D01*
X2166Y1022D01*
X2166Y1020D01*
X2167Y1020D01*
X2167Y1018D01*
X2171Y1018D01*
X2171Y1017D01*
X2172Y1017D01*
X2172Y1009D01*
X2171Y1009D01*
X2171Y1005D01*
X2169Y1005D01*
X2169Y1002D01*
X2167Y1002D01*
X2167Y1000D01*
X2169Y1000D01*
X2169Y999D01*
X2158Y999D01*
X2158Y1000D01*
X2159Y1000D01*
X2159Y1002D01*
X2161Y1002D01*
X2161Y1004D01*
X2162Y1004D01*
X2162Y1009D01*
X2164Y1009D01*
X2164Y1012D01*
X2162Y1012D01*
X2162Y1014D01*
X2161Y1014D01*
X2161Y1015D01*
X2159Y1015D01*
X2159Y1018D01*
X2156Y1018D01*
X2156Y1020D01*
X2154Y1020D01*
X2154Y1025D01*
X2153Y1025D01*
X2153Y1027D01*
X2151Y1027D01*
X2151Y1032D01*
X2149Y1032D01*
X2149Y1035D01*
X2148Y1035D01*
X2148Y1038D01*
X2146Y1038D01*
X2146Y1050D01*
X2144Y1050D01*
X2144Y1058D01*
X2146Y1058D01*
X2146Y1068D01*
X2148Y1068D01*
X2148Y1071D01*
X2149Y1071D01*
X2149Y1074D01*
X2151Y1074D01*
X2151Y1077D01*
X2153Y1077D01*
X2153Y1079D01*
X2154Y1079D01*
X2154Y1081D01*
X2156Y1081D01*
X2156Y1082D01*
X2158Y1082D01*
X2158Y1084D01*
X2159Y1084D01*
X2159Y1086D01*
X2161Y1086D01*
X2161Y1087D01*
X2162Y1087D01*
X2162Y1089D01*
X2164Y1089D01*
X2164Y1092D01*
X2166Y1092D01*
X2166Y1094D01*
X2167Y1094D01*
X2167Y1096D01*
X2169Y1096D01*
X2169Y1097D01*
X2171Y1097D01*
X2171Y1099D01*
X2172Y1099D01*
X2172Y1100D01*
X2174Y1100D01*
X2174Y1102D01*
X2177Y1102D01*
X2177Y1104D01*
X2181Y1104D01*
X2181Y1105D01*
X2184Y1105D01*
X2184Y1107D01*
X2187Y1107D01*
X2187Y1109D01*
X2190Y1109D01*
X2190Y1110D01*
X2194Y1110D01*
X2194Y1112D01*
X2200Y1112D01*
X2200Y1114D01*
X2203Y1114D01*
X2203Y1115D01*
X2208Y1115D01*
X2208Y1117D01*
X2215Y1117D01*
X2215Y1119D01*
X2240Y1119D01*
X2240Y1120D01*
X2241Y1120D01*
G37*
D02*
G36*
X2282Y1114D02*
X2282Y1112D01*
X2287Y1112D01*
X2287Y1110D01*
X2299Y1110D01*
X2299Y1109D01*
X2307Y1109D01*
X2307Y1107D01*
X2312Y1107D01*
X2312Y1105D01*
X2290Y1105D01*
X2290Y1104D01*
X2287Y1104D01*
X2287Y1105D01*
X2284Y1105D01*
X2284Y1107D01*
X2281Y1107D01*
X2281Y1109D01*
X2272Y1109D01*
X2272Y1110D01*
X2261Y1110D01*
X2261Y1112D01*
X2249Y1112D01*
X2249Y1114D01*
X2282Y1114D01*
G37*
D02*
G36*
X2317Y1105D02*
X2317Y1104D01*
X2320Y1104D01*
X2320Y1102D01*
X2322Y1102D01*
X2322Y1100D01*
X2325Y1100D01*
X2325Y1099D01*
X2327Y1099D01*
X2327Y1097D01*
X2328Y1097D01*
X2328Y1096D01*
X2330Y1096D01*
X2330Y1094D01*
X2331Y1094D01*
X2331Y1092D01*
X2333Y1092D01*
X2333Y1091D01*
X2335Y1091D01*
X2335Y1087D01*
X2336Y1087D01*
X2336Y1084D01*
X2338Y1084D01*
X2338Y1081D01*
X2340Y1081D01*
X2340Y1077D01*
X2341Y1077D01*
X2341Y1071D01*
X2343Y1071D01*
X2343Y1066D01*
X2345Y1066D01*
X2345Y1058D01*
X2346Y1058D01*
X2346Y1050D01*
X2345Y1050D01*
X2345Y1040D01*
X2343Y1040D01*
X2343Y1038D01*
X2341Y1038D01*
X2341Y1033D01*
X2340Y1033D01*
X2340Y1028D01*
X2338Y1028D01*
X2338Y1027D01*
X2336Y1027D01*
X2336Y1025D01*
X2335Y1025D01*
X2335Y1022D01*
X2333Y1022D01*
X2333Y1018D01*
X2331Y1018D01*
X2331Y1017D01*
X2330Y1017D01*
X2330Y1015D01*
X2328Y1015D01*
X2328Y1014D01*
X2325Y1014D01*
X2325Y1012D01*
X2323Y1012D01*
X2323Y1010D01*
X2322Y1010D01*
X2322Y1002D01*
X2320Y1002D01*
X2320Y995D01*
X2318Y995D01*
X2318Y994D01*
X2317Y994D01*
X2317Y992D01*
X2315Y992D01*
X2315Y991D01*
X2317Y991D01*
X2317Y984D01*
X2318Y984D01*
X2318Y982D01*
X2305Y982D01*
X2305Y981D01*
X2304Y981D01*
X2304Y986D01*
X2302Y986D01*
X2302Y987D01*
X2300Y987D01*
X2300Y992D01*
X2304Y992D01*
X2304Y994D01*
X2307Y994D01*
X2307Y995D01*
X2308Y995D01*
X2308Y997D01*
X2310Y997D01*
X2310Y999D01*
X2312Y999D01*
X2312Y1002D01*
X2313Y1002D01*
X2313Y1007D01*
X2312Y1007D01*
X2312Y1012D01*
X2313Y1012D01*
X2313Y1014D01*
X2315Y1014D01*
X2315Y1015D01*
X2318Y1015D01*
X2318Y1017D01*
X2320Y1017D01*
X2320Y1018D01*
X2322Y1018D01*
X2322Y1020D01*
X2323Y1020D01*
X2323Y1022D01*
X2327Y1022D01*
X2327Y1025D01*
X2328Y1025D01*
X2328Y1027D01*
X2330Y1027D01*
X2330Y1030D01*
X2331Y1030D01*
X2331Y1033D01*
X2333Y1033D01*
X2333Y1035D01*
X2335Y1035D01*
X2335Y1040D01*
X2336Y1040D01*
X2336Y1043D01*
X2338Y1043D01*
X2338Y1066D01*
X2336Y1066D01*
X2336Y1071D01*
X2335Y1071D01*
X2335Y1076D01*
X2333Y1076D01*
X2333Y1081D01*
X2331Y1081D01*
X2331Y1084D01*
X2330Y1084D01*
X2330Y1086D01*
X2328Y1086D01*
X2328Y1089D01*
X2327Y1089D01*
X2327Y1091D01*
X2325Y1091D01*
X2325Y1094D01*
X2323Y1094D01*
X2323Y1096D01*
X2320Y1096D01*
X2320Y1097D01*
X2317Y1097D01*
X2317Y1099D01*
X2315Y1099D01*
X2315Y1100D01*
X2310Y1100D01*
X2310Y1102D01*
X2308Y1102D01*
X2308Y1104D01*
X2300Y1104D01*
X2300Y1105D01*
X2317Y1105D01*
G37*
D02*
G36*
X2195Y1000D02*
X2195Y999D01*
X2185Y999D01*
X2185Y1000D01*
X2195Y1000D01*
G37*
D02*
G36*
X2184Y1000D02*
X2184Y999D01*
X2177Y999D01*
X2177Y1000D01*
X2184Y1000D01*
G37*
D02*
G36*
X2197Y999D02*
X2197Y997D01*
X2156Y997D01*
X2156Y999D01*
X2197Y999D01*
G37*
D02*
G36*
X2197Y999D02*
X2197Y997D01*
X2156Y997D01*
X2156Y999D01*
X2197Y999D01*
G37*
D02*
G36*
X2197Y999D02*
X2197Y997D01*
X2156Y997D01*
X2156Y999D01*
X2197Y999D01*
G37*
D02*
G36*
X2197Y997D02*
X2197Y995D01*
X2199Y995D01*
X2199Y994D01*
X2174Y994D01*
X2174Y992D01*
X2167Y992D01*
X2167Y991D01*
X2161Y991D01*
X2161Y989D01*
X2153Y989D01*
X2153Y991D01*
X2149Y991D01*
X2149Y992D01*
X2151Y992D01*
X2151Y994D01*
X2153Y994D01*
X2153Y995D01*
X2154Y995D01*
X2154Y997D01*
X2197Y997D01*
G37*
D02*
G36*
X2233Y995D02*
X2233Y994D01*
X2236Y994D01*
X2236Y992D01*
X2238Y992D01*
X2238Y991D01*
X2241Y991D01*
X2241Y989D01*
X2243Y989D01*
X2243Y987D01*
X2218Y987D01*
X2218Y989D01*
X2225Y989D01*
X2225Y991D01*
X2226Y991D01*
X2226Y994D01*
X2228Y994D01*
X2228Y995D01*
X2233Y995D01*
G37*
D02*
G36*
X2202Y994D02*
X2202Y992D01*
X2205Y992D01*
X2205Y991D01*
X2208Y991D01*
X2208Y989D01*
X2213Y989D01*
X2213Y987D01*
X2197Y987D01*
X2197Y989D01*
X2195Y989D01*
X2195Y991D01*
X2194Y991D01*
X2194Y992D01*
X2182Y992D01*
X2182Y994D01*
X2202Y994D01*
G37*
D02*
G36*
X2246Y987D02*
X2246Y986D01*
X2199Y986D01*
X2199Y987D01*
X2246Y987D01*
G37*
D02*
G36*
X2246Y987D02*
X2246Y986D01*
X2199Y986D01*
X2199Y987D01*
X2246Y987D01*
G37*
D02*
G36*
X2248Y986D02*
X2248Y984D01*
X2249Y984D01*
X2249Y982D01*
X2253Y982D01*
X2253Y981D01*
X2256Y981D01*
X2256Y979D01*
X2269Y979D01*
X2269Y977D01*
X2244Y977D01*
X2244Y979D01*
X2241Y979D01*
X2241Y981D01*
X2240Y981D01*
X2240Y982D01*
X2236Y982D01*
X2236Y984D01*
X2235Y984D01*
X2235Y986D01*
X2248Y986D01*
G37*
D02*
G36*
X2231Y986D02*
X2231Y984D01*
X2230Y984D01*
X2230Y982D01*
X2226Y982D01*
X2226Y981D01*
X2217Y981D01*
X2217Y979D01*
X2212Y979D01*
X2212Y981D01*
X2205Y981D01*
X2205Y982D01*
X2202Y982D01*
X2202Y984D01*
X2200Y984D01*
X2200Y986D01*
X2231Y986D01*
G37*
D02*
G36*
X2320Y982D02*
X2320Y981D01*
X2323Y981D01*
X2323Y979D01*
X2327Y979D01*
X2327Y977D01*
X2328Y977D01*
X2328Y976D01*
X2330Y976D01*
X2330Y974D01*
X2313Y974D01*
X2313Y976D01*
X2312Y976D01*
X2312Y977D01*
X2310Y977D01*
X2310Y979D01*
X2308Y979D01*
X2308Y981D01*
X2307Y981D01*
X2307Y982D01*
X2320Y982D01*
G37*
D02*
G36*
X2299Y981D02*
X2299Y979D01*
X2302Y979D01*
X2302Y977D01*
X2307Y977D01*
X2307Y976D01*
X2292Y976D01*
X2292Y979D01*
X2294Y979D01*
X2294Y981D01*
X2299Y981D01*
G37*
D02*
G36*
X2287Y981D02*
X2287Y979D01*
X2289Y979D01*
X2289Y977D01*
X2271Y977D01*
X2271Y979D01*
X2284Y979D01*
X2284Y981D01*
X2287Y981D01*
G37*
D02*
G36*
X2287Y977D02*
X2287Y976D01*
X2246Y976D01*
X2246Y977D01*
X2287Y977D01*
G37*
D02*
G36*
X2287Y977D02*
X2287Y976D01*
X2246Y976D01*
X2246Y977D01*
X2287Y977D01*
G37*
D02*
G36*
X2312Y976D02*
X2312Y974D01*
X2294Y974D01*
X2294Y976D01*
X2312Y976D01*
G37*
D02*
G36*
X2284Y976D02*
X2284Y974D01*
X2279Y974D01*
X2279Y973D01*
X2254Y973D01*
X2254Y974D01*
X2249Y974D01*
X2249Y976D01*
X2284Y976D01*
G37*
D02*
G36*
X2331Y974D02*
X2331Y973D01*
X2295Y973D01*
X2295Y974D01*
X2331Y974D01*
G37*
D02*
G36*
X2331Y974D02*
X2331Y973D01*
X2295Y973D01*
X2295Y974D01*
X2331Y974D01*
G37*
D02*
G36*
X2335Y973D02*
X2335Y969D01*
X2338Y969D01*
X2338Y968D01*
X2340Y968D01*
X2340Y966D01*
X2341Y966D01*
X2341Y963D01*
X2343Y963D01*
X2343Y959D01*
X2341Y959D01*
X2341Y958D01*
X2333Y958D01*
X2333Y959D01*
X2327Y959D01*
X2327Y961D01*
X2323Y961D01*
X2323Y963D01*
X2320Y963D01*
X2320Y964D01*
X2315Y964D01*
X2315Y966D01*
X2312Y966D01*
X2312Y968D01*
X2307Y968D01*
X2307Y969D01*
X2304Y969D01*
X2304Y971D01*
X2300Y971D01*
X2300Y973D01*
X2335Y973D01*
G37*
D02*
G36*
X2504Y946D02*
X2504Y945D01*
X2512Y945D01*
X2512Y943D01*
X2522Y943D01*
X2522Y941D01*
X2527Y941D01*
X2527Y940D01*
X2532Y940D01*
X2532Y938D01*
X2536Y938D01*
X2536Y936D01*
X2527Y936D01*
X2527Y935D01*
X2523Y935D01*
X2523Y936D01*
X2507Y936D01*
X2507Y938D01*
X2492Y938D01*
X2492Y940D01*
X2491Y940D01*
X2491Y945D01*
X2492Y945D01*
X2492Y946D01*
X2504Y946D01*
G37*
D02*
G36*
X2540Y936D02*
X2540Y935D01*
X2530Y935D01*
X2530Y936D01*
X2540Y936D01*
G37*
D02*
G36*
X2402Y945D02*
X2402Y943D01*
X2404Y943D01*
X2404Y940D01*
X2394Y940D01*
X2394Y941D01*
X2395Y941D01*
X2395Y943D01*
X2399Y943D01*
X2399Y945D01*
X2402Y945D01*
G37*
D02*
G36*
X2389Y945D02*
X2389Y943D01*
X2390Y943D01*
X2390Y941D01*
X2392Y941D01*
X2392Y940D01*
X2382Y940D01*
X2382Y945D01*
X2389Y945D01*
G37*
D02*
G36*
X2404Y940D02*
X2404Y938D01*
X2382Y938D01*
X2382Y940D01*
X2404Y940D01*
G37*
D02*
G36*
X2404Y940D02*
X2404Y938D01*
X2382Y938D01*
X2382Y940D01*
X2404Y940D01*
G37*
D02*
G36*
X2404Y938D02*
X2404Y936D01*
X2402Y936D01*
X2402Y935D01*
X2400Y935D01*
X2400Y933D01*
X2394Y933D01*
X2394Y931D01*
X2390Y931D01*
X2390Y933D01*
X2386Y933D01*
X2386Y935D01*
X2384Y935D01*
X2384Y936D01*
X2382Y936D01*
X2382Y938D01*
X2404Y938D01*
G37*
D02*
G36*
X2259Y907D02*
X2259Y905D01*
X2258Y905D01*
X2258Y907D01*
X2259Y907D01*
G37*
D02*
G36*
X1994Y904D02*
X1994Y902D01*
X1997Y902D01*
X1997Y897D01*
X1994Y897D01*
X1994Y895D01*
X1992Y895D01*
X1992Y894D01*
X1990Y894D01*
X1990Y889D01*
X1989Y889D01*
X1989Y881D01*
X1987Y881D01*
X1987Y879D01*
X1984Y879D01*
X1984Y882D01*
X1982Y882D01*
X1982Y890D01*
X1984Y890D01*
X1984Y897D01*
X1985Y897D01*
X1985Y899D01*
X1987Y899D01*
X1987Y900D01*
X1989Y900D01*
X1989Y902D01*
X1992Y902D01*
X1992Y904D01*
X1994Y904D01*
G37*
D02*
G36*
X2016Y890D02*
X2016Y887D01*
X2015Y887D01*
X2015Y886D01*
X2012Y886D01*
X2012Y882D01*
X2010Y882D01*
X2010Y881D01*
X2008Y881D01*
X2008Y869D01*
X2005Y869D01*
X2005Y868D01*
X2003Y868D01*
X2003Y871D01*
X2002Y871D01*
X2002Y882D01*
X2003Y882D01*
X2003Y886D01*
X2005Y886D01*
X2005Y887D01*
X2007Y887D01*
X2007Y889D01*
X2010Y889D01*
X2010Y890D01*
X2016Y890D01*
G37*
D02*
G36*
X2331Y866D02*
X2331Y864D01*
X2333Y864D01*
X2333Y859D01*
X2331Y859D01*
X2331Y858D01*
X2333Y858D01*
X2333Y851D01*
X2335Y851D01*
X2335Y846D01*
X2336Y846D01*
X2336Y841D01*
X2338Y841D01*
X2338Y838D01*
X2340Y838D01*
X2340Y830D01*
X2338Y830D01*
X2338Y831D01*
X2335Y831D01*
X2335Y836D01*
X2333Y836D01*
X2333Y838D01*
X2331Y838D01*
X2331Y843D01*
X2330Y843D01*
X2330Y846D01*
X2328Y846D01*
X2328Y851D01*
X2327Y851D01*
X2327Y853D01*
X2328Y853D01*
X2328Y854D01*
X2327Y854D01*
X2327Y861D01*
X2328Y861D01*
X2328Y864D01*
X2330Y864D01*
X2330Y866D01*
X2331Y866D01*
G37*
D02*
G36*
X2312Y859D02*
X2312Y858D01*
X2313Y858D01*
X2313Y853D01*
X2315Y853D01*
X2315Y851D01*
X2317Y851D01*
X2317Y845D01*
X2318Y845D01*
X2318Y843D01*
X2320Y843D01*
X2320Y841D01*
X2322Y841D01*
X2322Y838D01*
X2323Y838D01*
X2323Y835D01*
X2325Y835D01*
X2325Y830D01*
X2318Y830D01*
X2318Y831D01*
X2317Y831D01*
X2317Y833D01*
X2315Y833D01*
X2315Y835D01*
X2313Y835D01*
X2313Y840D01*
X2312Y840D01*
X2312Y843D01*
X2310Y843D01*
X2310Y846D01*
X2307Y846D01*
X2307Y853D01*
X2308Y853D01*
X2308Y858D01*
X2310Y858D01*
X2310Y859D01*
X2312Y859D01*
G37*
D02*
G36*
X2290Y856D02*
X2290Y853D01*
X2292Y853D01*
X2292Y848D01*
X2294Y848D01*
X2294Y835D01*
X2295Y835D01*
X2295Y833D01*
X2297Y833D01*
X2297Y831D01*
X2299Y831D01*
X2299Y828D01*
X2300Y828D01*
X2300Y823D01*
X2294Y823D01*
X2294Y825D01*
X2292Y825D01*
X2292Y827D01*
X2290Y827D01*
X2290Y830D01*
X2287Y830D01*
X2287Y835D01*
X2286Y835D01*
X2286Y846D01*
X2284Y846D01*
X2284Y848D01*
X2286Y848D01*
X2286Y853D01*
X2284Y853D01*
X2284Y854D01*
X2287Y854D01*
X2287Y856D01*
X2290Y856D01*
G37*
D02*
G36*
X2076Y1050D02*
X2076Y1048D01*
X2087Y1048D01*
X2087Y1046D01*
X2092Y1046D01*
X2092Y1045D01*
X2097Y1045D01*
X2097Y1043D01*
X2054Y1043D01*
X2054Y1041D01*
X2049Y1041D01*
X2049Y1040D01*
X2044Y1040D01*
X2044Y1038D01*
X2041Y1038D01*
X2041Y1036D01*
X2039Y1036D01*
X2039Y1032D01*
X2041Y1032D01*
X2041Y1027D01*
X2043Y1027D01*
X2043Y1025D01*
X2044Y1025D01*
X2044Y1022D01*
X2046Y1022D01*
X2046Y1020D01*
X2048Y1020D01*
X2048Y1018D01*
X2036Y1018D01*
X2036Y1015D01*
X2035Y1015D01*
X2035Y1004D01*
X2039Y1004D01*
X2039Y1002D01*
X2041Y1002D01*
X2041Y1000D01*
X2043Y1000D01*
X2043Y995D01*
X2044Y995D01*
X2044Y992D01*
X2041Y992D01*
X2041Y989D01*
X2043Y989D01*
X2043Y987D01*
X2044Y987D01*
X2044Y984D01*
X2033Y984D01*
X2033Y982D01*
X2025Y982D01*
X2025Y991D01*
X2026Y991D01*
X2026Y1009D01*
X2028Y1009D01*
X2028Y1040D01*
X2030Y1040D01*
X2030Y1041D01*
X2035Y1041D01*
X2035Y1043D01*
X2039Y1043D01*
X2039Y1045D01*
X2044Y1045D01*
X2044Y1046D01*
X2054Y1046D01*
X2054Y1048D01*
X2062Y1048D01*
X2062Y1050D01*
X2076Y1050D01*
G37*
D02*
G36*
X2103Y1043D02*
X2103Y1041D01*
X2107Y1041D01*
X2107Y1040D01*
X2110Y1040D01*
X2110Y1038D01*
X2112Y1038D01*
X2112Y1036D01*
X2113Y1036D01*
X2113Y1035D01*
X2117Y1035D01*
X2117Y1032D01*
X2120Y1032D01*
X2120Y1030D01*
X2121Y1030D01*
X2121Y1028D01*
X2123Y1028D01*
X2123Y1025D01*
X2125Y1025D01*
X2125Y1022D01*
X2126Y1022D01*
X2126Y1018D01*
X2128Y1018D01*
X2128Y1012D01*
X2130Y1012D01*
X2130Y1007D01*
X2128Y1007D01*
X2128Y1005D01*
X2130Y1005D01*
X2130Y1002D01*
X2128Y1002D01*
X2128Y994D01*
X2126Y994D01*
X2126Y984D01*
X2117Y984D01*
X2117Y982D01*
X2113Y982D01*
X2113Y981D01*
X2094Y981D01*
X2094Y982D01*
X2097Y982D01*
X2097Y984D01*
X2103Y984D01*
X2103Y986D01*
X2107Y986D01*
X2107Y987D01*
X2108Y987D01*
X2108Y989D01*
X2110Y989D01*
X2110Y991D01*
X2113Y991D01*
X2113Y992D01*
X2115Y992D01*
X2115Y994D01*
X2117Y994D01*
X2117Y999D01*
X2118Y999D01*
X2118Y1004D01*
X2120Y1004D01*
X2120Y1007D01*
X2118Y1007D01*
X2118Y1009D01*
X2120Y1009D01*
X2120Y1012D01*
X2118Y1012D01*
X2118Y1014D01*
X2120Y1014D01*
X2120Y1017D01*
X2118Y1017D01*
X2118Y1022D01*
X2117Y1022D01*
X2117Y1025D01*
X2115Y1025D01*
X2115Y1027D01*
X2113Y1027D01*
X2113Y1030D01*
X2110Y1030D01*
X2110Y1032D01*
X2107Y1032D01*
X2107Y1033D01*
X2105Y1033D01*
X2105Y1035D01*
X2102Y1035D01*
X2102Y1036D01*
X2100Y1036D01*
X2100Y1038D01*
X2097Y1038D01*
X2097Y1040D01*
X2090Y1040D01*
X2090Y1041D01*
X2084Y1041D01*
X2084Y1043D01*
X2103Y1043D01*
G37*
D02*
G36*
X2048Y1018D02*
X2048Y1017D01*
X2049Y1017D01*
X2049Y1015D01*
X2053Y1015D01*
X2053Y1012D01*
X2054Y1012D01*
X2054Y1010D01*
X2056Y1010D01*
X2056Y1007D01*
X2057Y1007D01*
X2057Y1004D01*
X2059Y1004D01*
X2059Y1002D01*
X2061Y1002D01*
X2061Y1000D01*
X2062Y1000D01*
X2062Y999D01*
X2064Y999D01*
X2064Y997D01*
X2066Y997D01*
X2066Y995D01*
X2067Y995D01*
X2067Y992D01*
X2071Y992D01*
X2071Y991D01*
X2072Y991D01*
X2072Y989D01*
X2074Y989D01*
X2074Y987D01*
X2076Y987D01*
X2076Y984D01*
X2079Y984D01*
X2079Y982D01*
X2089Y982D01*
X2089Y981D01*
X2069Y981D01*
X2069Y982D01*
X2067Y982D01*
X2067Y984D01*
X2066Y984D01*
X2066Y986D01*
X2064Y986D01*
X2064Y989D01*
X2062Y989D01*
X2062Y991D01*
X2061Y991D01*
X2061Y992D01*
X2059Y992D01*
X2059Y994D01*
X2057Y994D01*
X2057Y995D01*
X2056Y995D01*
X2056Y997D01*
X2054Y997D01*
X2054Y999D01*
X2053Y999D01*
X2053Y1000D01*
X2051Y1000D01*
X2051Y1004D01*
X2049Y1004D01*
X2049Y1005D01*
X2048Y1005D01*
X2048Y1009D01*
X2046Y1009D01*
X2046Y1010D01*
X2044Y1010D01*
X2044Y1012D01*
X2043Y1012D01*
X2043Y1014D01*
X2041Y1014D01*
X2041Y1015D01*
X2038Y1015D01*
X2038Y1018D01*
X2048Y1018D01*
G37*
D02*
G36*
X2389Y1007D02*
X2389Y1005D01*
X2392Y1005D01*
X2392Y1002D01*
X2389Y1002D01*
X2389Y1000D01*
X2387Y1000D01*
X2387Y999D01*
X2386Y999D01*
X2386Y995D01*
X2384Y995D01*
X2384Y992D01*
X2382Y992D01*
X2382Y991D01*
X2386Y991D01*
X2386Y987D01*
X2387Y987D01*
X2387Y984D01*
X2389Y984D01*
X2389Y982D01*
X2392Y982D01*
X2392Y981D01*
X2394Y981D01*
X2394Y979D01*
X2397Y979D01*
X2397Y977D01*
X2366Y977D01*
X2366Y981D01*
X2368Y981D01*
X2368Y984D01*
X2369Y984D01*
X2369Y991D01*
X2371Y991D01*
X2371Y995D01*
X2372Y995D01*
X2372Y999D01*
X2374Y999D01*
X2374Y1000D01*
X2377Y1000D01*
X2377Y1002D01*
X2379Y1002D01*
X2379Y1004D01*
X2382Y1004D01*
X2382Y1005D01*
X2386Y1005D01*
X2386Y1007D01*
X2389Y1007D01*
G37*
D02*
G36*
X2420Y1004D02*
X2420Y1002D01*
X2423Y1002D01*
X2423Y1000D01*
X2425Y1000D01*
X2425Y999D01*
X2427Y999D01*
X2427Y997D01*
X2428Y997D01*
X2428Y995D01*
X2430Y995D01*
X2430Y992D01*
X2432Y992D01*
X2432Y989D01*
X2433Y989D01*
X2433Y979D01*
X2435Y979D01*
X2435Y977D01*
X2413Y977D01*
X2413Y979D01*
X2420Y979D01*
X2420Y982D01*
X2423Y982D01*
X2423Y986D01*
X2422Y986D01*
X2422Y987D01*
X2423Y987D01*
X2423Y989D01*
X2420Y989D01*
X2420Y992D01*
X2418Y992D01*
X2418Y994D01*
X2417Y994D01*
X2417Y995D01*
X2413Y995D01*
X2413Y999D01*
X2412Y999D01*
X2412Y1002D01*
X2413Y1002D01*
X2413Y1004D01*
X2420Y1004D01*
G37*
D02*
G36*
X2126Y984D02*
X2126Y974D01*
X2125Y974D01*
X2125Y959D01*
X2123Y959D01*
X2123Y958D01*
X2125Y958D01*
X2125Y956D01*
X2123Y956D01*
X2123Y951D01*
X2121Y951D01*
X2121Y948D01*
X2120Y948D01*
X2120Y945D01*
X2118Y945D01*
X2118Y943D01*
X2120Y943D01*
X2120Y940D01*
X2118Y940D01*
X2118Y936D01*
X2120Y936D01*
X2120Y935D01*
X2123Y935D01*
X2123Y933D01*
X2126Y933D01*
X2126Y931D01*
X2128Y931D01*
X2128Y930D01*
X2130Y930D01*
X2130Y928D01*
X2110Y928D01*
X2110Y927D01*
X2108Y927D01*
X2108Y925D01*
X2107Y925D01*
X2107Y922D01*
X2105Y922D01*
X2105Y920D01*
X2103Y920D01*
X2103Y918D01*
X2090Y918D01*
X2090Y920D01*
X2092Y920D01*
X2092Y922D01*
X2095Y922D01*
X2095Y923D01*
X2097Y923D01*
X2097Y925D01*
X2098Y925D01*
X2098Y927D01*
X2100Y927D01*
X2100Y928D01*
X2102Y928D01*
X2102Y930D01*
X2103Y930D01*
X2103Y933D01*
X2105Y933D01*
X2105Y936D01*
X2103Y936D01*
X2103Y941D01*
X2105Y941D01*
X2105Y943D01*
X2112Y943D01*
X2112Y945D01*
X2113Y945D01*
X2113Y950D01*
X2115Y950D01*
X2115Y953D01*
X2117Y953D01*
X2117Y958D01*
X2118Y958D01*
X2118Y984D01*
X2126Y984D01*
G37*
D02*
G36*
X2057Y984D02*
X2057Y982D01*
X2059Y982D01*
X2059Y981D01*
X2053Y981D01*
X2053Y984D01*
X2057Y984D01*
G37*
D02*
G36*
X2046Y984D02*
X2046Y982D01*
X2035Y982D01*
X2035Y984D01*
X2046Y984D01*
G37*
D02*
G36*
X2049Y982D02*
X2049Y981D01*
X2025Y981D01*
X2025Y982D01*
X2049Y982D01*
G37*
D02*
G36*
X2049Y982D02*
X2049Y981D01*
X2025Y981D01*
X2025Y982D01*
X2049Y982D01*
G37*
D02*
G36*
X2110Y981D02*
X2110Y979D01*
X2072Y979D01*
X2072Y981D01*
X2110Y981D01*
G37*
D02*
G36*
X2110Y981D02*
X2110Y979D01*
X2072Y979D01*
X2072Y981D01*
X2110Y981D01*
G37*
D02*
G36*
X2059Y981D02*
X2059Y979D01*
X2039Y979D01*
X2039Y981D01*
X2059Y981D01*
G37*
D02*
G36*
X2059Y981D02*
X2059Y979D01*
X2039Y979D01*
X2039Y981D01*
X2059Y981D01*
G37*
D02*
G36*
X2033Y981D02*
X2033Y977D01*
X2035Y977D01*
X2035Y976D01*
X2036Y976D01*
X2036Y974D01*
X2038Y974D01*
X2038Y973D01*
X2039Y973D01*
X2039Y971D01*
X2044Y971D01*
X2044Y969D01*
X2046Y969D01*
X2046Y966D01*
X2048Y966D01*
X2048Y963D01*
X2035Y963D01*
X2035Y959D01*
X2036Y959D01*
X2036Y958D01*
X2035Y958D01*
X2035Y956D01*
X2036Y956D01*
X2036Y953D01*
X2038Y953D01*
X2038Y950D01*
X2039Y950D01*
X2039Y948D01*
X2043Y948D01*
X2043Y946D01*
X2046Y946D01*
X2046Y945D01*
X2048Y945D01*
X2048Y943D01*
X2049Y943D01*
X2049Y940D01*
X2051Y940D01*
X2051Y938D01*
X2053Y938D01*
X2053Y936D01*
X2054Y936D01*
X2054Y935D01*
X2057Y935D01*
X2057Y933D01*
X2059Y933D01*
X2059Y930D01*
X2062Y930D01*
X2062Y928D01*
X2064Y928D01*
X2064Y927D01*
X2067Y927D01*
X2067Y925D01*
X2069Y925D01*
X2069Y923D01*
X2071Y923D01*
X2071Y922D01*
X2072Y922D01*
X2072Y920D01*
X2076Y920D01*
X2076Y918D01*
X2061Y918D01*
X2061Y920D01*
X2059Y920D01*
X2059Y923D01*
X2056Y923D01*
X2056Y927D01*
X2053Y927D01*
X2053Y928D01*
X2051Y928D01*
X2051Y930D01*
X2049Y930D01*
X2049Y931D01*
X2048Y931D01*
X2048Y933D01*
X2046Y933D01*
X2046Y935D01*
X2044Y935D01*
X2044Y936D01*
X2041Y936D01*
X2041Y938D01*
X2038Y938D01*
X2038Y940D01*
X2036Y940D01*
X2036Y943D01*
X2035Y943D01*
X2035Y945D01*
X2033Y945D01*
X2033Y948D01*
X2031Y948D01*
X2031Y950D01*
X2030Y950D01*
X2030Y951D01*
X2028Y951D01*
X2028Y956D01*
X2026Y956D01*
X2026Y958D01*
X2028Y958D01*
X2028Y964D01*
X2026Y964D01*
X2026Y971D01*
X2025Y971D01*
X2025Y973D01*
X2026Y973D01*
X2026Y976D01*
X2025Y976D01*
X2025Y981D01*
X2033Y981D01*
G37*
D02*
G36*
X2107Y979D02*
X2107Y977D01*
X2102Y977D01*
X2102Y976D01*
X2098Y976D01*
X2098Y974D01*
X2097Y974D01*
X2097Y973D01*
X2094Y973D01*
X2094Y971D01*
X2092Y971D01*
X2092Y969D01*
X2090Y969D01*
X2090Y964D01*
X2089Y964D01*
X2089Y959D01*
X2090Y959D01*
X2090Y958D01*
X2089Y958D01*
X2089Y946D01*
X2090Y946D01*
X2090Y945D01*
X2089Y945D01*
X2089Y935D01*
X2087Y935D01*
X2087Y920D01*
X2089Y920D01*
X2089Y918D01*
X2077Y918D01*
X2077Y922D01*
X2079Y922D01*
X2079Y927D01*
X2080Y927D01*
X2080Y928D01*
X2079Y928D01*
X2079Y931D01*
X2080Y931D01*
X2080Y941D01*
X2082Y941D01*
X2082Y969D01*
X2080Y969D01*
X2080Y974D01*
X2079Y974D01*
X2079Y976D01*
X2077Y976D01*
X2077Y977D01*
X2076Y977D01*
X2076Y979D01*
X2107Y979D01*
G37*
D02*
G36*
X2061Y979D02*
X2061Y977D01*
X2064Y977D01*
X2064Y976D01*
X2066Y976D01*
X2066Y974D01*
X2067Y974D01*
X2067Y973D01*
X2066Y973D01*
X2066Y971D01*
X2061Y971D01*
X2061Y973D01*
X2057Y973D01*
X2057Y974D01*
X2056Y974D01*
X2056Y976D01*
X2054Y976D01*
X2054Y977D01*
X2053Y977D01*
X2053Y979D01*
X2061Y979D01*
G37*
D02*
G36*
X2051Y979D02*
X2051Y977D01*
X2049Y977D01*
X2049Y976D01*
X2044Y976D01*
X2044Y977D01*
X2041Y977D01*
X2041Y979D01*
X2051Y979D01*
G37*
D02*
G36*
X2435Y977D02*
X2435Y976D01*
X2366Y976D01*
X2366Y977D01*
X2435Y977D01*
G37*
D02*
G36*
X2435Y977D02*
X2435Y976D01*
X2366Y976D01*
X2366Y977D01*
X2435Y977D01*
G37*
D02*
G36*
X2433Y976D02*
X2433Y973D01*
X2432Y973D01*
X2432Y971D01*
X2433Y971D01*
X2433Y969D01*
X2372Y969D01*
X2372Y964D01*
X2371Y964D01*
X2371Y963D01*
X2369Y963D01*
X2369Y958D01*
X2368Y958D01*
X2368Y953D01*
X2366Y953D01*
X2366Y948D01*
X2364Y948D01*
X2364Y945D01*
X2363Y945D01*
X2363Y941D01*
X2361Y941D01*
X2361Y938D01*
X2359Y938D01*
X2359Y931D01*
X2358Y931D01*
X2358Y928D01*
X2356Y928D01*
X2356Y922D01*
X2354Y922D01*
X2354Y917D01*
X2353Y917D01*
X2353Y912D01*
X2338Y912D01*
X2338Y910D01*
X2331Y910D01*
X2331Y909D01*
X2299Y909D01*
X2299Y910D01*
X2308Y910D01*
X2308Y912D01*
X2318Y912D01*
X2318Y913D01*
X2325Y913D01*
X2325Y915D01*
X2330Y915D01*
X2330Y917D01*
X2333Y917D01*
X2333Y918D01*
X2338Y918D01*
X2338Y920D01*
X2341Y920D01*
X2341Y922D01*
X2345Y922D01*
X2345Y925D01*
X2346Y925D01*
X2346Y927D01*
X2348Y927D01*
X2348Y931D01*
X2349Y931D01*
X2349Y935D01*
X2351Y935D01*
X2351Y940D01*
X2353Y940D01*
X2353Y945D01*
X2354Y945D01*
X2354Y950D01*
X2356Y950D01*
X2356Y951D01*
X2358Y951D01*
X2358Y958D01*
X2359Y958D01*
X2359Y963D01*
X2361Y963D01*
X2361Y968D01*
X2363Y968D01*
X2363Y969D01*
X2364Y969D01*
X2364Y974D01*
X2366Y974D01*
X2366Y976D01*
X2433Y976D01*
G37*
D02*
G36*
X2432Y969D02*
X2432Y966D01*
X2382Y966D01*
X2382Y964D01*
X2381Y964D01*
X2381Y966D01*
X2379Y966D01*
X2379Y968D01*
X2376Y968D01*
X2376Y969D01*
X2432Y969D01*
G37*
D02*
G36*
X2432Y966D02*
X2432Y963D01*
X2430Y963D01*
X2430Y959D01*
X2428Y959D01*
X2428Y954D01*
X2427Y954D01*
X2427Y953D01*
X2425Y953D01*
X2425Y948D01*
X2423Y948D01*
X2423Y946D01*
X2422Y946D01*
X2422Y941D01*
X2420Y941D01*
X2420Y936D01*
X2418Y936D01*
X2418Y933D01*
X2417Y933D01*
X2417Y930D01*
X2415Y930D01*
X2415Y928D01*
X2417Y928D01*
X2417Y927D01*
X2420Y927D01*
X2420Y925D01*
X2423Y925D01*
X2423Y923D01*
X2425Y923D01*
X2425Y922D01*
X2427Y922D01*
X2427Y920D01*
X2428Y920D01*
X2428Y917D01*
X2430Y917D01*
X2430Y912D01*
X2412Y912D01*
X2412Y913D01*
X2415Y913D01*
X2415Y917D01*
X2410Y917D01*
X2410Y918D01*
X2405Y918D01*
X2405Y920D01*
X2404Y920D01*
X2404Y922D01*
X2402Y922D01*
X2402Y923D01*
X2400Y923D01*
X2400Y928D01*
X2402Y928D01*
X2402Y931D01*
X2405Y931D01*
X2405Y935D01*
X2407Y935D01*
X2407Y936D01*
X2409Y936D01*
X2409Y940D01*
X2410Y940D01*
X2410Y943D01*
X2412Y943D01*
X2412Y948D01*
X2413Y948D01*
X2413Y951D01*
X2415Y951D01*
X2415Y954D01*
X2413Y954D01*
X2413Y956D01*
X2409Y956D01*
X2409Y958D01*
X2399Y958D01*
X2399Y959D01*
X2394Y959D01*
X2394Y961D01*
X2390Y961D01*
X2390Y963D01*
X2387Y963D01*
X2387Y964D01*
X2384Y964D01*
X2384Y966D01*
X2432Y966D01*
G37*
D02*
G36*
X2046Y963D02*
X2046Y961D01*
X2041Y961D01*
X2041Y963D01*
X2046Y963D01*
G37*
D02*
G36*
X2039Y963D02*
X2039Y961D01*
X2038Y961D01*
X2038Y963D01*
X2039Y963D01*
G37*
D02*
G36*
X2243Y936D02*
X2243Y935D01*
X2231Y935D01*
X2231Y936D01*
X2243Y936D01*
G37*
D02*
G36*
X2228Y936D02*
X2228Y935D01*
X2213Y935D01*
X2213Y936D01*
X2228Y936D01*
G37*
D02*
G36*
X2244Y935D02*
X2244Y933D01*
X2208Y933D01*
X2208Y935D01*
X2244Y935D01*
G37*
D02*
G36*
X2244Y935D02*
X2244Y933D01*
X2208Y933D01*
X2208Y935D01*
X2244Y935D01*
G37*
D02*
G36*
X2248Y933D02*
X2248Y931D01*
X2249Y931D01*
X2249Y930D01*
X2212Y930D01*
X2212Y928D01*
X2208Y928D01*
X2208Y927D01*
X2205Y927D01*
X2205Y923D01*
X2203Y923D01*
X2203Y922D01*
X2202Y922D01*
X2202Y920D01*
X2162Y920D01*
X2162Y922D01*
X2187Y922D01*
X2187Y923D01*
X2189Y923D01*
X2189Y925D01*
X2190Y925D01*
X2190Y927D01*
X2194Y927D01*
X2194Y928D01*
X2197Y928D01*
X2197Y930D01*
X2200Y930D01*
X2200Y931D01*
X2202Y931D01*
X2202Y933D01*
X2248Y933D01*
G37*
D02*
G36*
X2253Y930D02*
X2253Y928D01*
X2238Y928D01*
X2238Y922D01*
X2241Y922D01*
X2241Y918D01*
X2243Y918D01*
X2243Y915D01*
X2244Y915D01*
X2244Y912D01*
X2243Y912D01*
X2243Y910D01*
X2238Y910D01*
X2238Y909D01*
X2231Y909D01*
X2231Y907D01*
X2230Y907D01*
X2230Y905D01*
X2228Y905D01*
X2228Y899D01*
X2218Y899D01*
X2218Y912D01*
X2220Y912D01*
X2220Y913D01*
X2223Y913D01*
X2223Y915D01*
X2226Y915D01*
X2226Y917D01*
X2230Y917D01*
X2230Y920D01*
X2228Y920D01*
X2228Y922D01*
X2226Y922D01*
X2226Y925D01*
X2225Y925D01*
X2225Y928D01*
X2223Y928D01*
X2223Y930D01*
X2253Y930D01*
G37*
D02*
G36*
X2254Y928D02*
X2254Y927D01*
X2256Y927D01*
X2256Y925D01*
X2258Y925D01*
X2258Y922D01*
X2259Y922D01*
X2259Y918D01*
X2261Y918D01*
X2261Y917D01*
X2263Y917D01*
X2263Y915D01*
X2264Y915D01*
X2264Y913D01*
X2266Y913D01*
X2266Y912D01*
X2267Y912D01*
X2267Y910D01*
X2271Y910D01*
X2271Y909D01*
X2259Y909D01*
X2259Y910D01*
X2258Y910D01*
X2258Y915D01*
X2256Y915D01*
X2256Y917D01*
X2253Y917D01*
X2253Y918D01*
X2251Y918D01*
X2251Y920D01*
X2249Y920D01*
X2249Y922D01*
X2248Y922D01*
X2248Y925D01*
X2244Y925D01*
X2244Y927D01*
X2240Y927D01*
X2240Y928D01*
X2254Y928D01*
G37*
D02*
G36*
X2133Y928D02*
X2133Y927D01*
X2136Y927D01*
X2136Y925D01*
X2140Y925D01*
X2140Y923D01*
X2148Y923D01*
X2148Y922D01*
X2154Y922D01*
X2154Y920D01*
X2128Y920D01*
X2128Y922D01*
X2126Y922D01*
X2126Y923D01*
X2123Y923D01*
X2123Y925D01*
X2120Y925D01*
X2120Y927D01*
X2117Y927D01*
X2117Y928D01*
X2133Y928D01*
G37*
D02*
G36*
X2395Y925D02*
X2395Y923D01*
X2399Y923D01*
X2399Y918D01*
X2400Y918D01*
X2400Y917D01*
X2402Y917D01*
X2402Y913D01*
X2410Y913D01*
X2410Y912D01*
X2392Y912D01*
X2392Y913D01*
X2390Y913D01*
X2390Y915D01*
X2389Y915D01*
X2389Y923D01*
X2390Y923D01*
X2390Y925D01*
X2395Y925D01*
G37*
D02*
G36*
X2197Y920D02*
X2197Y918D01*
X2131Y918D01*
X2131Y920D01*
X2197Y920D01*
G37*
D02*
G36*
X2197Y920D02*
X2197Y918D01*
X2131Y918D01*
X2131Y920D01*
X2197Y920D01*
G37*
D02*
G36*
X2197Y918D02*
X2197Y917D01*
X2195Y917D01*
X2195Y915D01*
X2161Y915D01*
X2161Y913D01*
X2148Y913D01*
X2148Y915D01*
X2141Y915D01*
X2141Y917D01*
X2136Y917D01*
X2136Y918D01*
X2197Y918D01*
G37*
D02*
G36*
X2100Y918D02*
X2100Y917D01*
X2059Y917D01*
X2059Y918D01*
X2100Y918D01*
G37*
D02*
G36*
X2100Y918D02*
X2100Y917D01*
X2059Y917D01*
X2059Y918D01*
X2100Y918D01*
G37*
D02*
G36*
X2100Y918D02*
X2100Y917D01*
X2059Y917D01*
X2059Y918D01*
X2100Y918D01*
G37*
D02*
G36*
X2100Y917D02*
X2100Y915D01*
X2098Y915D01*
X2098Y913D01*
X2066Y913D01*
X2066Y912D01*
X2064Y912D01*
X2064Y910D01*
X2062Y910D01*
X2062Y907D01*
X2061Y907D01*
X2061Y905D01*
X2059Y905D01*
X2059Y900D01*
X2057Y900D01*
X2057Y897D01*
X2056Y897D01*
X2056Y886D01*
X2057Y886D01*
X2057Y879D01*
X2059Y879D01*
X2059Y874D01*
X2061Y874D01*
X2061Y871D01*
X2062Y871D01*
X2062Y868D01*
X2064Y868D01*
X2064Y866D01*
X2066Y866D01*
X2066Y863D01*
X2067Y863D01*
X2067Y861D01*
X2069Y861D01*
X2069Y858D01*
X2057Y858D01*
X2057Y863D01*
X2056Y863D01*
X2056Y869D01*
X2054Y869D01*
X2054Y871D01*
X2053Y871D01*
X2053Y872D01*
X2051Y872D01*
X2051Y882D01*
X2049Y882D01*
X2049Y886D01*
X2048Y886D01*
X2048Y897D01*
X2049Y897D01*
X2049Y902D01*
X2051Y902D01*
X2051Y907D01*
X2053Y907D01*
X2053Y909D01*
X2054Y909D01*
X2054Y912D01*
X2056Y912D01*
X2056Y913D01*
X2057Y913D01*
X2057Y917D01*
X2100Y917D01*
G37*
D02*
G36*
X2195Y915D02*
X2195Y912D01*
X2197Y912D01*
X2197Y909D01*
X2200Y909D01*
X2200Y905D01*
X2202Y905D01*
X2202Y904D01*
X2205Y904D01*
X2205Y902D01*
X2207Y902D01*
X2207Y900D01*
X2212Y900D01*
X2212Y899D01*
X2195Y899D01*
X2195Y900D01*
X2194Y900D01*
X2194Y902D01*
X2192Y902D01*
X2192Y904D01*
X2190Y904D01*
X2190Y907D01*
X2189Y907D01*
X2189Y910D01*
X2185Y910D01*
X2185Y913D01*
X2184Y913D01*
X2184Y915D01*
X2195Y915D01*
G37*
D02*
G36*
X2097Y913D02*
X2097Y912D01*
X2094Y912D01*
X2094Y909D01*
X2085Y909D01*
X2085Y907D01*
X2076Y907D01*
X2076Y909D01*
X2072Y909D01*
X2072Y912D01*
X2067Y912D01*
X2067Y913D01*
X2097Y913D01*
G37*
D02*
G36*
X2428Y912D02*
X2428Y910D01*
X2392Y910D01*
X2392Y912D01*
X2428Y912D01*
G37*
D02*
G36*
X2428Y912D02*
X2428Y910D01*
X2392Y910D01*
X2392Y912D01*
X2428Y912D01*
G37*
D02*
G36*
X2351Y912D02*
X2351Y909D01*
X2349Y909D01*
X2349Y900D01*
X2348Y900D01*
X2348Y895D01*
X2349Y895D01*
X2349Y892D01*
X2351Y892D01*
X2351Y890D01*
X2353Y890D01*
X2353Y889D01*
X2354Y889D01*
X2354Y887D01*
X2356Y887D01*
X2356Y886D01*
X2361Y886D01*
X2361Y884D01*
X2366Y884D01*
X2366Y882D01*
X2374Y882D01*
X2374Y881D01*
X2348Y881D01*
X2348Y882D01*
X2346Y882D01*
X2346Y884D01*
X2345Y884D01*
X2345Y887D01*
X2343Y887D01*
X2343Y889D01*
X2341Y889D01*
X2341Y890D01*
X2340Y890D01*
X2340Y895D01*
X2338Y895D01*
X2338Y897D01*
X2340Y897D01*
X2340Y900D01*
X2338Y900D01*
X2338Y904D01*
X2340Y904D01*
X2340Y912D01*
X2351Y912D01*
G37*
D02*
G36*
X2427Y910D02*
X2427Y909D01*
X2423Y909D01*
X2423Y907D01*
X2415Y907D01*
X2415Y905D01*
X2405Y905D01*
X2405Y904D01*
X2402Y904D01*
X2402Y902D01*
X2400Y902D01*
X2400Y899D01*
X2399Y899D01*
X2399Y895D01*
X2397Y895D01*
X2397Y890D01*
X2395Y890D01*
X2395Y886D01*
X2394Y886D01*
X2394Y884D01*
X2392Y884D01*
X2392Y881D01*
X2382Y881D01*
X2382Y882D01*
X2384Y882D01*
X2384Y887D01*
X2386Y887D01*
X2386Y890D01*
X2387Y890D01*
X2387Y897D01*
X2389Y897D01*
X2389Y900D01*
X2390Y900D01*
X2390Y904D01*
X2392Y904D01*
X2392Y909D01*
X2394Y909D01*
X2394Y910D01*
X2427Y910D01*
G37*
D02*
G36*
X2276Y910D02*
X2276Y909D01*
X2272Y909D01*
X2272Y910D01*
X2276Y910D01*
G37*
D02*
G36*
X2327Y909D02*
X2327Y907D01*
X2261Y907D01*
X2261Y909D01*
X2327Y909D01*
G37*
D02*
G36*
X2327Y909D02*
X2327Y907D01*
X2261Y907D01*
X2261Y909D01*
X2327Y909D01*
G37*
D02*
G36*
X2327Y909D02*
X2327Y907D01*
X2261Y907D01*
X2261Y909D01*
X2327Y909D01*
G37*
D02*
G36*
X2095Y909D02*
X2095Y905D01*
X2097Y905D01*
X2097Y890D01*
X2095Y890D01*
X2095Y889D01*
X2094Y889D01*
X2094Y887D01*
X2092Y887D01*
X2092Y886D01*
X2089Y886D01*
X2089Y882D01*
X2087Y882D01*
X2087Y881D01*
X2085Y881D01*
X2085Y879D01*
X2084Y879D01*
X2084Y876D01*
X2082Y876D01*
X2082Y864D01*
X2072Y864D01*
X2072Y871D01*
X2074Y871D01*
X2074Y877D01*
X2076Y877D01*
X2076Y881D01*
X2077Y881D01*
X2077Y884D01*
X2079Y884D01*
X2079Y886D01*
X2080Y886D01*
X2080Y887D01*
X2082Y887D01*
X2082Y889D01*
X2084Y889D01*
X2084Y890D01*
X2085Y890D01*
X2085Y892D01*
X2089Y892D01*
X2089Y897D01*
X2090Y897D01*
X2090Y902D01*
X2089Y902D01*
X2089Y909D01*
X2095Y909D01*
G37*
D02*
G36*
X2418Y907D02*
X2418Y905D01*
X2417Y905D01*
X2417Y907D01*
X2418Y907D01*
G37*
D02*
G36*
X2322Y907D02*
X2322Y905D01*
X2318Y905D01*
X2318Y904D01*
X2305Y904D01*
X2305Y902D01*
X2297Y902D01*
X2297Y900D01*
X2276Y900D01*
X2276Y899D01*
X2274Y899D01*
X2274Y895D01*
X2272Y895D01*
X2272Y889D01*
X2271Y889D01*
X2271Y887D01*
X2251Y887D01*
X2251Y889D01*
X2256Y889D01*
X2256Y890D01*
X2259Y890D01*
X2259Y892D01*
X2263Y892D01*
X2263Y894D01*
X2264Y894D01*
X2264Y899D01*
X2266Y899D01*
X2266Y904D01*
X2264Y904D01*
X2264Y905D01*
X2263Y905D01*
X2263Y907D01*
X2322Y907D01*
G37*
D02*
G36*
X2231Y899D02*
X2231Y897D01*
X2199Y897D01*
X2199Y899D01*
X2231Y899D01*
G37*
D02*
G36*
X2231Y899D02*
X2231Y897D01*
X2199Y897D01*
X2199Y899D01*
X2231Y899D01*
G37*
D02*
G36*
X2233Y897D02*
X2233Y895D01*
X2235Y895D01*
X2235Y894D01*
X2236Y894D01*
X2236Y892D01*
X2238Y892D01*
X2238Y890D01*
X2243Y890D01*
X2243Y889D01*
X2208Y889D01*
X2208Y890D01*
X2207Y890D01*
X2207Y892D01*
X2205Y892D01*
X2205Y894D01*
X2203Y894D01*
X2203Y895D01*
X2202Y895D01*
X2202Y897D01*
X2233Y897D01*
G37*
D02*
G36*
X2246Y890D02*
X2246Y889D01*
X2244Y889D01*
X2244Y890D01*
X2246Y890D01*
G37*
D02*
G36*
X2248Y889D02*
X2248Y887D01*
X2225Y887D01*
X2225Y889D01*
X2248Y889D01*
G37*
D02*
G36*
X2248Y889D02*
X2248Y887D01*
X2225Y887D01*
X2225Y889D01*
X2248Y889D01*
G37*
D02*
G36*
X2267Y887D02*
X2267Y886D01*
X2230Y886D01*
X2230Y887D01*
X2267Y887D01*
G37*
D02*
G36*
X2267Y887D02*
X2267Y886D01*
X2230Y886D01*
X2230Y887D01*
X2267Y887D01*
G37*
D02*
G36*
X2263Y886D02*
X2263Y884D01*
X2259Y884D01*
X2259Y882D01*
X2258Y882D01*
X2258Y881D01*
X2254Y881D01*
X2254Y879D01*
X2243Y879D01*
X2243Y882D01*
X2238Y882D01*
X2238Y884D01*
X2231Y884D01*
X2231Y886D01*
X2263Y886D01*
G37*
D02*
G36*
X2390Y881D02*
X2390Y879D01*
X2349Y879D01*
X2349Y881D01*
X2390Y881D01*
G37*
D02*
G36*
X2390Y881D02*
X2390Y879D01*
X2349Y879D01*
X2349Y881D01*
X2390Y881D01*
G37*
D02*
G36*
X2387Y879D02*
X2387Y872D01*
X2366Y872D01*
X2366Y871D01*
X2364Y871D01*
X2364Y868D01*
X2363Y868D01*
X2363Y866D01*
X2364Y866D01*
X2364Y856D01*
X2363Y856D01*
X2363Y845D01*
X2364Y845D01*
X2364Y841D01*
X2366Y841D01*
X2366Y838D01*
X2356Y838D01*
X2356Y840D01*
X2354Y840D01*
X2354Y843D01*
X2353Y843D01*
X2353Y851D01*
X2351Y851D01*
X2351Y853D01*
X2353Y853D01*
X2353Y868D01*
X2354Y868D01*
X2354Y877D01*
X2351Y877D01*
X2351Y879D01*
X2387Y879D01*
G37*
D02*
G36*
X2386Y872D02*
X2386Y871D01*
X2377Y871D01*
X2377Y869D01*
X2374Y869D01*
X2374Y872D01*
X2386Y872D01*
G37*
D02*
G36*
X2113Y868D02*
X2113Y866D01*
X2117Y866D01*
X2117Y864D01*
X2085Y864D01*
X2085Y866D01*
X2100Y866D01*
X2100Y868D01*
X2113Y868D01*
G37*
D02*
G36*
X2038Y866D02*
X2038Y864D01*
X2041Y864D01*
X2041Y863D01*
X2048Y863D01*
X2048Y861D01*
X2051Y861D01*
X2051Y859D01*
X2054Y859D01*
X2054Y858D01*
X2031Y858D01*
X2031Y854D01*
X2030Y854D01*
X2030Y853D01*
X2031Y853D01*
X2031Y849D01*
X2036Y849D01*
X2036Y848D01*
X2039Y848D01*
X2039Y846D01*
X2023Y846D01*
X2023Y853D01*
X2021Y853D01*
X2021Y858D01*
X2023Y858D01*
X2023Y861D01*
X2025Y861D01*
X2025Y863D01*
X2026Y863D01*
X2026Y864D01*
X2028Y864D01*
X2028Y866D01*
X2038Y866D01*
G37*
D02*
G36*
X2117Y864D02*
X2117Y863D01*
X2072Y863D01*
X2072Y864D01*
X2117Y864D01*
G37*
D02*
G36*
X2117Y864D02*
X2117Y863D01*
X2072Y863D01*
X2072Y864D01*
X2117Y864D01*
G37*
D02*
G36*
X2117Y863D02*
X2117Y859D01*
X2094Y859D01*
X2094Y858D01*
X2097Y858D01*
X2097Y856D01*
X2074Y856D01*
X2074Y861D01*
X2072Y861D01*
X2072Y863D01*
X2117Y863D01*
G37*
D02*
G36*
X2117Y859D02*
X2117Y856D01*
X2102Y856D01*
X2102Y858D01*
X2103Y858D01*
X2103Y859D01*
X2117Y859D01*
G37*
D02*
G36*
X2071Y858D02*
X2071Y856D01*
X2039Y856D01*
X2039Y858D01*
X2071Y858D01*
G37*
D02*
G36*
X2071Y858D02*
X2071Y856D01*
X2039Y856D01*
X2039Y858D01*
X2071Y858D01*
G37*
D02*
G36*
X2115Y856D02*
X2115Y854D01*
X2076Y854D01*
X2076Y856D01*
X2115Y856D01*
G37*
D02*
G36*
X2115Y856D02*
X2115Y854D01*
X2076Y854D01*
X2076Y856D01*
X2115Y856D01*
G37*
D02*
G36*
X2071Y856D02*
X2071Y846D01*
X2053Y846D01*
X2053Y849D01*
X2049Y849D01*
X2049Y851D01*
X2048Y851D01*
X2048Y853D01*
X2044Y853D01*
X2044Y854D01*
X2041Y854D01*
X2041Y856D01*
X2071Y856D01*
G37*
D02*
G36*
X2113Y854D02*
X2113Y853D01*
X2112Y853D01*
X2112Y851D01*
X2110Y851D01*
X2110Y849D01*
X2105Y849D01*
X2105Y848D01*
X2090Y848D01*
X2090Y849D01*
X2085Y849D01*
X2085Y851D01*
X2080Y851D01*
X2080Y853D01*
X2079Y853D01*
X2079Y854D01*
X2113Y854D01*
G37*
D02*
G36*
X2043Y848D02*
X2043Y846D01*
X2041Y846D01*
X2041Y848D01*
X2043Y848D01*
G37*
D02*
G36*
X2405Y846D02*
X2405Y845D01*
X2409Y845D01*
X2409Y843D01*
X2412Y843D01*
X2412Y840D01*
X2413Y840D01*
X2413Y830D01*
X2399Y830D01*
X2399Y831D01*
X2400Y831D01*
X2400Y833D01*
X2402Y833D01*
X2402Y835D01*
X2404Y835D01*
X2404Y836D01*
X2402Y836D01*
X2402Y838D01*
X2374Y838D01*
X2374Y840D01*
X2379Y840D01*
X2379Y841D01*
X2384Y841D01*
X2384Y843D01*
X2387Y843D01*
X2387Y845D01*
X2394Y845D01*
X2394Y846D01*
X2405Y846D01*
G37*
D02*
G36*
X2069Y846D02*
X2069Y845D01*
X2025Y845D01*
X2025Y846D01*
X2069Y846D01*
G37*
D02*
G36*
X2069Y846D02*
X2069Y845D01*
X2025Y845D01*
X2025Y846D01*
X2069Y846D01*
G37*
D02*
G36*
X2069Y846D02*
X2069Y845D01*
X2025Y845D01*
X2025Y846D01*
X2069Y846D01*
G37*
D02*
G36*
X2066Y845D02*
X2066Y843D01*
X2064Y843D01*
X2064Y841D01*
X2059Y841D01*
X2059Y840D01*
X2043Y840D01*
X2043Y838D01*
X2041Y838D01*
X2041Y840D01*
X2035Y840D01*
X2035Y841D01*
X2031Y841D01*
X2031Y843D01*
X2026Y843D01*
X2026Y845D01*
X2066Y845D01*
G37*
D02*
G36*
X2394Y838D02*
X2394Y836D01*
X2356Y836D01*
X2356Y838D01*
X2394Y838D01*
G37*
D02*
G36*
X2394Y838D02*
X2394Y836D01*
X2356Y836D01*
X2356Y838D01*
X2394Y838D01*
G37*
D02*
G36*
X2392Y836D02*
X2392Y835D01*
X2389Y835D01*
X2389Y833D01*
X2387Y833D01*
X2387Y831D01*
X2384Y831D01*
X2384Y830D01*
X2376Y830D01*
X2376Y828D01*
X2374Y828D01*
X2374Y827D01*
X2372Y827D01*
X2372Y825D01*
X2374Y825D01*
X2374Y823D01*
X2376Y823D01*
X2376Y822D01*
X2364Y822D01*
X2364Y823D01*
X2363Y823D01*
X2363Y825D01*
X2361Y825D01*
X2361Y827D01*
X2363Y827D01*
X2363Y828D01*
X2361Y828D01*
X2361Y830D01*
X2359Y830D01*
X2359Y833D01*
X2358Y833D01*
X2358Y835D01*
X2356Y835D01*
X2356Y836D01*
X2392Y836D01*
G37*
D02*
G36*
X2397Y831D02*
X2397Y830D01*
X2395Y830D01*
X2395Y831D01*
X2397Y831D01*
G37*
D02*
G36*
X2412Y830D02*
X2412Y828D01*
X2395Y828D01*
X2395Y830D01*
X2412Y830D01*
G37*
D02*
G36*
X2412Y830D02*
X2412Y828D01*
X2395Y828D01*
X2395Y830D01*
X2412Y830D01*
G37*
D02*
G36*
X2410Y828D02*
X2410Y827D01*
X2407Y827D01*
X2407Y825D01*
X2405Y825D01*
X2405Y823D01*
X2400Y823D01*
X2400Y822D01*
X2382Y822D01*
X2382Y823D01*
X2387Y823D01*
X2387Y825D01*
X2392Y825D01*
X2392Y827D01*
X2394Y827D01*
X2394Y828D01*
X2410Y828D01*
G37*
D02*
G36*
X2397Y822D02*
X2397Y820D01*
X2364Y820D01*
X2364Y822D01*
X2397Y822D01*
G37*
D02*
G36*
X2397Y822D02*
X2397Y820D01*
X2364Y820D01*
X2364Y822D01*
X2397Y822D01*
G37*
D02*
G36*
X2394Y820D02*
X2394Y818D01*
X2390Y818D01*
X2390Y817D01*
X2389Y817D01*
X2389Y815D01*
X2384Y815D01*
X2384Y813D01*
X2371Y813D01*
X2371Y815D01*
X2368Y815D01*
X2368Y817D01*
X2366Y817D01*
X2366Y818D01*
X2364Y818D01*
X2364Y820D01*
X2394Y820D01*
G37*
D02*
G54D10*
X0Y1181D02*
X2754Y1181D01*
X0Y1180D02*
X2754Y1180D01*
X0Y1179D02*
X2754Y1179D01*
X0Y1178D02*
X2754Y1178D01*
X0Y1177D02*
X2754Y1177D01*
X0Y1176D02*
X2754Y1176D01*
X0Y1175D02*
X2754Y1175D01*
X0Y1174D02*
X2754Y1174D01*
X0Y1173D02*
X7Y1173D01*
X2747Y1173D02*
X2754Y1173D01*
X0Y1172D02*
X7Y1172D01*
X2747Y1172D02*
X2754Y1172D01*
X0Y1171D02*
X7Y1171D01*
X2747Y1171D02*
X2754Y1171D01*
X0Y1170D02*
X7Y1170D01*
X2747Y1170D02*
X2754Y1170D01*
X0Y1169D02*
X7Y1169D01*
X2747Y1169D02*
X2754Y1169D01*
X0Y1168D02*
X7Y1168D01*
X2747Y1168D02*
X2754Y1168D01*
X0Y1167D02*
X7Y1167D01*
X2747Y1167D02*
X2754Y1167D01*
X0Y1166D02*
X7Y1166D01*
X2747Y1166D02*
X2754Y1166D01*
X0Y1165D02*
X7Y1165D01*
X2747Y1165D02*
X2754Y1165D01*
X0Y1164D02*
X7Y1164D01*
X2747Y1164D02*
X2754Y1164D01*
X0Y1163D02*
X7Y1163D01*
X2747Y1163D02*
X2754Y1163D01*
X0Y1162D02*
X7Y1162D01*
X2747Y1162D02*
X2754Y1162D01*
X0Y1161D02*
X7Y1161D01*
X2747Y1161D02*
X2754Y1161D01*
X0Y1160D02*
X7Y1160D01*
X2747Y1160D02*
X2754Y1160D01*
X0Y1159D02*
X7Y1159D01*
X2747Y1159D02*
X2754Y1159D01*
X0Y1158D02*
X7Y1158D01*
X2747Y1158D02*
X2754Y1158D01*
X0Y1157D02*
X7Y1157D01*
X2747Y1157D02*
X2754Y1157D01*
X0Y1156D02*
X7Y1156D01*
X2747Y1156D02*
X2754Y1156D01*
X0Y1155D02*
X7Y1155D01*
X2747Y1155D02*
X2754Y1155D01*
X0Y1154D02*
X7Y1154D01*
X2747Y1154D02*
X2754Y1154D01*
X0Y1153D02*
X7Y1153D01*
X2747Y1153D02*
X2754Y1153D01*
X0Y1152D02*
X7Y1152D01*
X2747Y1152D02*
X2754Y1152D01*
X0Y1151D02*
X7Y1151D01*
X2747Y1151D02*
X2754Y1151D01*
X0Y1150D02*
X7Y1150D01*
X2747Y1150D02*
X2754Y1150D01*
X0Y1149D02*
X7Y1149D01*
X2747Y1149D02*
X2754Y1149D01*
X0Y1148D02*
X7Y1148D01*
X2747Y1148D02*
X2754Y1148D01*
X0Y1147D02*
X7Y1147D01*
X2747Y1147D02*
X2754Y1147D01*
X0Y1146D02*
X7Y1146D01*
X2747Y1146D02*
X2754Y1146D01*
X0Y1145D02*
X7Y1145D01*
X2747Y1145D02*
X2754Y1145D01*
X0Y1144D02*
X7Y1144D01*
X2747Y1144D02*
X2754Y1144D01*
X0Y1143D02*
X7Y1143D01*
X2747Y1143D02*
X2754Y1143D01*
X0Y1142D02*
X7Y1142D01*
X2747Y1142D02*
X2754Y1142D01*
X0Y1141D02*
X7Y1141D01*
X2747Y1141D02*
X2754Y1141D01*
X0Y1140D02*
X7Y1140D01*
X2747Y1140D02*
X2754Y1140D01*
X0Y1139D02*
X7Y1139D01*
X2747Y1139D02*
X2754Y1139D01*
X0Y1138D02*
X7Y1138D01*
X2747Y1138D02*
X2754Y1138D01*
X0Y1137D02*
X7Y1137D01*
X2747Y1137D02*
X2754Y1137D01*
X0Y1136D02*
X7Y1136D01*
X2747Y1136D02*
X2754Y1136D01*
X0Y1135D02*
X7Y1135D01*
X2747Y1135D02*
X2754Y1135D01*
X0Y1134D02*
X7Y1134D01*
X2747Y1134D02*
X2754Y1134D01*
X0Y1133D02*
X7Y1133D01*
X2747Y1133D02*
X2754Y1133D01*
X0Y1132D02*
X7Y1132D01*
X2747Y1132D02*
X2754Y1132D01*
X0Y1131D02*
X7Y1131D01*
X2747Y1131D02*
X2754Y1131D01*
X0Y1130D02*
X7Y1130D01*
X2747Y1130D02*
X2754Y1130D01*
X0Y1129D02*
X7Y1129D01*
X2747Y1129D02*
X2754Y1129D01*
X0Y1128D02*
X7Y1128D01*
X2747Y1128D02*
X2754Y1128D01*
X0Y1127D02*
X7Y1127D01*
X2747Y1127D02*
X2754Y1127D01*
X0Y1126D02*
X7Y1126D01*
X2747Y1126D02*
X2754Y1126D01*
X0Y1125D02*
X7Y1125D01*
X2747Y1125D02*
X2754Y1125D01*
X0Y1124D02*
X7Y1124D01*
X2747Y1124D02*
X2754Y1124D01*
X0Y1123D02*
X7Y1123D01*
X2747Y1123D02*
X2754Y1123D01*
X0Y1122D02*
X7Y1122D01*
X2747Y1122D02*
X2754Y1122D01*
X0Y1121D02*
X7Y1121D01*
X303Y1121D02*
X308Y1121D01*
X1353Y1121D02*
X1359Y1121D01*
X2747Y1121D02*
X2754Y1121D01*
X0Y1120D02*
X7Y1120D01*
X302Y1120D02*
X309Y1120D01*
X1352Y1120D02*
X1360Y1120D01*
X2747Y1120D02*
X2754Y1120D01*
X0Y1119D02*
X7Y1119D01*
X214Y1119D02*
X229Y1119D01*
X301Y1119D02*
X309Y1119D01*
X338Y1119D02*
X357Y1119D01*
X382Y1119D02*
X401Y1119D01*
X425Y1119D02*
X448Y1119D01*
X467Y1119D02*
X467Y1119D01*
X519Y1119D02*
X537Y1119D01*
X554Y1119D02*
X565Y1119D01*
X603Y1119D02*
X625Y1119D01*
X841Y1119D02*
X842Y1119D01*
X910Y1119D02*
X931Y1119D01*
X948Y1119D02*
X949Y1119D01*
X1191Y1119D02*
X1192Y1119D01*
X1279Y1119D02*
X1279Y1119D01*
X1352Y1119D02*
X1360Y1119D01*
X2747Y1119D02*
X2754Y1119D01*
X0Y1118D02*
X7Y1118D01*
X214Y1118D02*
X230Y1118D01*
X301Y1118D02*
X309Y1118D01*
X336Y1118D02*
X359Y1118D01*
X380Y1118D02*
X403Y1118D01*
X423Y1118D02*
X449Y1118D01*
X465Y1118D02*
X469Y1118D01*
X515Y1118D02*
X537Y1118D01*
X553Y1118D02*
X568Y1118D01*
X601Y1118D02*
X625Y1118D01*
X839Y1118D02*
X843Y1118D01*
X907Y1118D02*
X931Y1118D01*
X947Y1118D02*
X950Y1118D01*
X1190Y1118D02*
X1193Y1118D01*
X1277Y1118D02*
X1281Y1118D01*
X1352Y1118D02*
X1360Y1118D01*
X2747Y1118D02*
X2754Y1118D01*
X0Y1117D02*
X7Y1117D01*
X214Y1117D02*
X231Y1117D01*
X301Y1117D02*
X309Y1117D01*
X335Y1117D02*
X361Y1117D01*
X378Y1117D02*
X404Y1117D01*
X422Y1117D02*
X450Y1117D01*
X465Y1117D02*
X470Y1117D01*
X514Y1117D02*
X537Y1117D01*
X552Y1117D02*
X569Y1117D01*
X599Y1117D02*
X625Y1117D01*
X839Y1117D02*
X844Y1117D01*
X906Y1117D02*
X931Y1117D01*
X946Y1117D02*
X951Y1117D01*
X1189Y1117D02*
X1194Y1117D01*
X1277Y1117D02*
X1281Y1117D01*
X1352Y1117D02*
X1360Y1117D01*
X2747Y1117D02*
X2754Y1117D01*
X0Y1116D02*
X7Y1116D01*
X214Y1116D02*
X231Y1116D01*
X301Y1116D02*
X309Y1116D01*
X334Y1116D02*
X361Y1116D01*
X378Y1116D02*
X405Y1116D01*
X422Y1116D02*
X450Y1116D01*
X464Y1116D02*
X470Y1116D01*
X512Y1116D02*
X537Y1116D01*
X552Y1116D02*
X570Y1116D01*
X598Y1116D02*
X625Y1116D01*
X839Y1116D02*
X844Y1116D01*
X904Y1116D02*
X931Y1116D01*
X946Y1116D02*
X952Y1116D01*
X1189Y1116D02*
X1194Y1116D01*
X1276Y1116D02*
X1281Y1116D01*
X1315Y1116D02*
X1318Y1116D01*
X1352Y1116D02*
X1360Y1116D01*
X2747Y1116D02*
X2754Y1116D01*
X0Y1115D02*
X7Y1115D01*
X214Y1115D02*
X231Y1115D01*
X302Y1115D02*
X309Y1115D01*
X333Y1115D02*
X362Y1115D01*
X377Y1115D02*
X406Y1115D01*
X421Y1115D02*
X450Y1115D01*
X465Y1115D02*
X471Y1115D01*
X511Y1115D02*
X537Y1115D01*
X552Y1115D02*
X571Y1115D01*
X597Y1115D02*
X625Y1115D01*
X839Y1115D02*
X844Y1115D01*
X904Y1115D02*
X931Y1115D01*
X946Y1115D02*
X952Y1115D01*
X1189Y1115D02*
X1194Y1115D01*
X1276Y1115D02*
X1282Y1115D01*
X1315Y1115D02*
X1319Y1115D01*
X1352Y1115D02*
X1360Y1115D01*
X2747Y1115D02*
X2754Y1115D01*
X0Y1114D02*
X7Y1114D01*
X214Y1114D02*
X230Y1114D01*
X302Y1114D02*
X309Y1114D01*
X333Y1114D02*
X362Y1114D01*
X377Y1114D02*
X406Y1114D01*
X421Y1114D02*
X449Y1114D01*
X465Y1114D02*
X471Y1114D01*
X511Y1114D02*
X537Y1114D01*
X553Y1114D02*
X572Y1114D01*
X597Y1114D02*
X625Y1114D01*
X839Y1114D02*
X844Y1114D01*
X903Y1114D02*
X931Y1114D01*
X947Y1114D02*
X953Y1114D01*
X1189Y1114D02*
X1194Y1114D01*
X1276Y1114D02*
X1282Y1114D01*
X1314Y1114D02*
X1319Y1114D01*
X1353Y1114D02*
X1359Y1114D01*
X2747Y1114D02*
X2754Y1114D01*
X0Y1113D02*
X7Y1113D01*
X214Y1113D02*
X219Y1113D01*
X333Y1113D02*
X339Y1113D01*
X357Y1113D02*
X362Y1113D01*
X377Y1113D02*
X382Y1113D01*
X400Y1113D02*
X406Y1113D01*
X421Y1113D02*
X426Y1113D01*
X466Y1113D02*
X472Y1113D01*
X510Y1113D02*
X519Y1113D01*
X532Y1113D02*
X537Y1113D01*
X564Y1113D02*
X572Y1113D01*
X596Y1113D02*
X604Y1113D01*
X619Y1113D02*
X625Y1113D01*
X839Y1113D02*
X844Y1113D01*
X903Y1113D02*
X910Y1113D01*
X926Y1113D02*
X931Y1113D01*
X947Y1113D02*
X953Y1113D01*
X1189Y1113D02*
X1194Y1113D01*
X1276Y1113D02*
X1282Y1113D01*
X1314Y1113D02*
X1319Y1113D01*
X2747Y1113D02*
X2754Y1113D01*
X0Y1112D02*
X7Y1112D01*
X214Y1112D02*
X219Y1112D01*
X333Y1112D02*
X338Y1112D01*
X357Y1112D02*
X362Y1112D01*
X377Y1112D02*
X382Y1112D01*
X401Y1112D02*
X406Y1112D01*
X421Y1112D02*
X426Y1112D01*
X466Y1112D02*
X472Y1112D01*
X509Y1112D02*
X516Y1112D01*
X532Y1112D02*
X537Y1112D01*
X566Y1112D02*
X573Y1112D01*
X596Y1112D02*
X602Y1112D01*
X620Y1112D02*
X625Y1112D01*
X839Y1112D02*
X844Y1112D01*
X902Y1112D02*
X908Y1112D01*
X926Y1112D02*
X931Y1112D01*
X948Y1112D02*
X954Y1112D01*
X1189Y1112D02*
X1194Y1112D01*
X1276Y1112D02*
X1282Y1112D01*
X1314Y1112D02*
X1319Y1112D01*
X2747Y1112D02*
X2754Y1112D01*
X0Y1111D02*
X7Y1111D01*
X214Y1111D02*
X219Y1111D01*
X333Y1111D02*
X338Y1111D01*
X357Y1111D02*
X362Y1111D01*
X377Y1111D02*
X382Y1111D01*
X401Y1111D02*
X406Y1111D01*
X421Y1111D02*
X426Y1111D01*
X467Y1111D02*
X473Y1111D01*
X509Y1111D02*
X515Y1111D01*
X532Y1111D02*
X537Y1111D01*
X567Y1111D02*
X574Y1111D01*
X596Y1111D02*
X601Y1111D01*
X620Y1111D02*
X625Y1111D01*
X839Y1111D02*
X844Y1111D01*
X902Y1111D02*
X907Y1111D01*
X926Y1111D02*
X931Y1111D01*
X948Y1111D02*
X955Y1111D01*
X1189Y1111D02*
X1194Y1111D01*
X1276Y1111D02*
X1282Y1111D01*
X1314Y1111D02*
X1319Y1111D01*
X2747Y1111D02*
X2754Y1111D01*
X0Y1110D02*
X7Y1110D01*
X214Y1110D02*
X219Y1110D01*
X333Y1110D02*
X338Y1110D01*
X357Y1110D02*
X362Y1110D01*
X377Y1110D02*
X382Y1110D01*
X401Y1110D02*
X406Y1110D01*
X421Y1110D02*
X426Y1110D01*
X467Y1110D02*
X474Y1110D01*
X509Y1110D02*
X514Y1110D01*
X532Y1110D02*
X537Y1110D01*
X568Y1110D02*
X575Y1110D01*
X596Y1110D02*
X601Y1110D01*
X620Y1110D02*
X625Y1110D01*
X839Y1110D02*
X844Y1110D01*
X902Y1110D02*
X907Y1110D01*
X926Y1110D02*
X931Y1110D01*
X949Y1110D02*
X955Y1110D01*
X1189Y1110D02*
X1194Y1110D01*
X1276Y1110D02*
X1282Y1110D01*
X1314Y1110D02*
X1319Y1110D01*
X2747Y1110D02*
X2754Y1110D01*
X0Y1109D02*
X7Y1109D01*
X214Y1109D02*
X219Y1109D01*
X333Y1109D02*
X338Y1109D01*
X357Y1109D02*
X362Y1109D01*
X377Y1109D02*
X382Y1109D01*
X401Y1109D02*
X406Y1109D01*
X421Y1109D02*
X426Y1109D01*
X468Y1109D02*
X474Y1109D01*
X508Y1109D02*
X514Y1109D01*
X532Y1109D02*
X537Y1109D01*
X569Y1109D02*
X575Y1109D01*
X596Y1109D02*
X601Y1109D01*
X620Y1109D02*
X625Y1109D01*
X839Y1109D02*
X844Y1109D01*
X902Y1109D02*
X907Y1109D01*
X926Y1109D02*
X931Y1109D01*
X950Y1109D02*
X956Y1109D01*
X1189Y1109D02*
X1194Y1109D01*
X1276Y1109D02*
X1282Y1109D01*
X1314Y1109D02*
X1319Y1109D01*
X2747Y1109D02*
X2754Y1109D01*
X0Y1108D02*
X7Y1108D01*
X214Y1108D02*
X219Y1108D01*
X333Y1108D02*
X338Y1108D01*
X357Y1108D02*
X362Y1108D01*
X377Y1108D02*
X382Y1108D01*
X401Y1108D02*
X406Y1108D01*
X421Y1108D02*
X426Y1108D01*
X469Y1108D02*
X475Y1108D01*
X508Y1108D02*
X513Y1108D01*
X532Y1108D02*
X537Y1108D01*
X569Y1108D02*
X576Y1108D01*
X596Y1108D02*
X601Y1108D01*
X620Y1108D02*
X625Y1108D01*
X839Y1108D02*
X844Y1108D01*
X902Y1108D02*
X907Y1108D01*
X926Y1108D02*
X931Y1108D01*
X950Y1108D02*
X956Y1108D01*
X1189Y1108D02*
X1194Y1108D01*
X1276Y1108D02*
X1282Y1108D01*
X1314Y1108D02*
X1319Y1108D01*
X2747Y1108D02*
X2754Y1108D01*
X0Y1107D02*
X7Y1107D01*
X214Y1107D02*
X219Y1107D01*
X333Y1107D02*
X338Y1107D01*
X357Y1107D02*
X362Y1107D01*
X377Y1107D02*
X382Y1107D01*
X401Y1107D02*
X406Y1107D01*
X421Y1107D02*
X426Y1107D01*
X469Y1107D02*
X475Y1107D01*
X508Y1107D02*
X513Y1107D01*
X532Y1107D02*
X537Y1107D01*
X570Y1107D02*
X577Y1107D01*
X596Y1107D02*
X601Y1107D01*
X620Y1107D02*
X625Y1107D01*
X839Y1107D02*
X844Y1107D01*
X902Y1107D02*
X907Y1107D01*
X926Y1107D02*
X931Y1107D01*
X951Y1107D02*
X957Y1107D01*
X1189Y1107D02*
X1194Y1107D01*
X1276Y1107D02*
X1282Y1107D01*
X1314Y1107D02*
X1319Y1107D01*
X2747Y1107D02*
X2754Y1107D01*
X0Y1106D02*
X7Y1106D01*
X214Y1106D02*
X219Y1106D01*
X253Y1106D02*
X260Y1106D01*
X271Y1106D02*
X273Y1106D01*
X303Y1106D02*
X314Y1106D01*
X333Y1106D02*
X338Y1106D01*
X357Y1106D02*
X362Y1106D01*
X377Y1106D02*
X382Y1106D01*
X401Y1106D02*
X406Y1106D01*
X421Y1106D02*
X426Y1106D01*
X470Y1106D02*
X476Y1106D01*
X508Y1106D02*
X513Y1106D01*
X532Y1106D02*
X537Y1106D01*
X571Y1106D02*
X578Y1106D01*
X596Y1106D02*
X601Y1106D01*
X620Y1106D02*
X625Y1106D01*
X647Y1106D02*
X661Y1106D01*
X685Y1106D02*
X700Y1106D01*
X729Y1106D02*
X744Y1106D01*
X780Y1106D02*
X791Y1106D01*
X824Y1106D02*
X832Y1106D01*
X839Y1106D02*
X844Y1106D01*
X867Y1106D02*
X879Y1106D01*
X902Y1106D02*
X907Y1106D01*
X926Y1106D02*
X931Y1106D01*
X951Y1106D02*
X957Y1106D01*
X996Y1106D02*
X997Y1106D01*
X1007Y1106D02*
X1010Y1106D01*
X1016Y1106D02*
X1018Y1106D01*
X1042Y1106D02*
X1054Y1106D01*
X1079Y1106D02*
X1094Y1106D01*
X1174Y1106D02*
X1182Y1106D01*
X1189Y1106D02*
X1194Y1106D01*
X1210Y1106D02*
X1212Y1106D01*
X1234Y1106D02*
X1236Y1106D01*
X1260Y1106D02*
X1267Y1106D01*
X1276Y1106D02*
X1282Y1106D01*
X1301Y1106D02*
X1323Y1106D01*
X1354Y1106D02*
X1364Y1106D01*
X1385Y1106D02*
X1387Y1106D01*
X1396Y1106D02*
X1404Y1106D01*
X2747Y1106D02*
X2754Y1106D01*
X0Y1105D02*
X7Y1105D01*
X214Y1105D02*
X219Y1105D01*
X251Y1105D02*
X262Y1105D01*
X270Y1105D02*
X274Y1105D01*
X302Y1105D02*
X315Y1105D01*
X333Y1105D02*
X338Y1105D01*
X357Y1105D02*
X362Y1105D01*
X377Y1105D02*
X382Y1105D01*
X401Y1105D02*
X406Y1105D01*
X421Y1105D02*
X426Y1105D01*
X470Y1105D02*
X477Y1105D01*
X508Y1105D02*
X513Y1105D01*
X532Y1105D02*
X537Y1105D01*
X572Y1105D02*
X579Y1105D01*
X596Y1105D02*
X602Y1105D01*
X620Y1105D02*
X625Y1105D01*
X645Y1105D02*
X662Y1105D01*
X684Y1105D02*
X703Y1105D01*
X728Y1105D02*
X747Y1105D01*
X777Y1105D02*
X793Y1105D01*
X821Y1105D02*
X834Y1105D01*
X839Y1105D02*
X844Y1105D01*
X865Y1105D02*
X881Y1105D01*
X902Y1105D02*
X908Y1105D01*
X926Y1105D02*
X931Y1105D01*
X952Y1105D02*
X958Y1105D01*
X994Y1105D02*
X1000Y1105D01*
X1005Y1105D02*
X1012Y1105D01*
X1015Y1105D02*
X1019Y1105D01*
X1040Y1105D02*
X1056Y1105D01*
X1078Y1105D02*
X1097Y1105D01*
X1171Y1105D02*
X1184Y1105D01*
X1189Y1105D02*
X1194Y1105D01*
X1209Y1105D02*
X1213Y1105D01*
X1233Y1105D02*
X1237Y1105D01*
X1258Y1105D02*
X1269Y1105D01*
X1276Y1105D02*
X1282Y1105D01*
X1300Y1105D02*
X1325Y1105D01*
X1353Y1105D02*
X1365Y1105D01*
X1384Y1105D02*
X1388Y1105D01*
X1393Y1105D02*
X1406Y1105D01*
X2747Y1105D02*
X2754Y1105D01*
X0Y1104D02*
X7Y1104D01*
X214Y1104D02*
X219Y1104D01*
X249Y1104D02*
X264Y1104D01*
X270Y1104D02*
X275Y1104D01*
X301Y1104D02*
X315Y1104D01*
X333Y1104D02*
X338Y1104D01*
X357Y1104D02*
X362Y1104D01*
X377Y1104D02*
X382Y1104D01*
X401Y1104D02*
X406Y1104D01*
X421Y1104D02*
X426Y1104D01*
X471Y1104D02*
X477Y1104D01*
X508Y1104D02*
X513Y1104D01*
X532Y1104D02*
X537Y1104D01*
X573Y1104D02*
X579Y1104D01*
X596Y1104D02*
X603Y1104D01*
X620Y1104D02*
X625Y1104D01*
X643Y1104D02*
X662Y1104D01*
X683Y1104D02*
X704Y1104D01*
X727Y1104D02*
X748Y1104D01*
X776Y1104D02*
X795Y1104D01*
X820Y1104D02*
X836Y1104D01*
X839Y1104D02*
X844Y1104D01*
X864Y1104D02*
X882Y1104D01*
X903Y1104D02*
X909Y1104D01*
X926Y1104D02*
X931Y1104D01*
X953Y1104D02*
X959Y1104D01*
X992Y1104D02*
X1002Y1104D01*
X1004Y1104D02*
X1019Y1104D01*
X1039Y1104D02*
X1057Y1104D01*
X1077Y1104D02*
X1098Y1104D01*
X1170Y1104D02*
X1186Y1104D01*
X1189Y1104D02*
X1194Y1104D01*
X1209Y1104D02*
X1214Y1104D01*
X1233Y1104D02*
X1238Y1104D01*
X1256Y1104D02*
X1271Y1104D01*
X1276Y1104D02*
X1282Y1104D01*
X1299Y1104D02*
X1325Y1104D01*
X1352Y1104D02*
X1366Y1104D01*
X1384Y1104D02*
X1389Y1104D01*
X1392Y1104D02*
X1408Y1104D01*
X2747Y1104D02*
X2754Y1104D01*
X0Y1103D02*
X7Y1103D01*
X214Y1103D02*
X219Y1103D01*
X248Y1103D02*
X266Y1103D01*
X270Y1103D02*
X275Y1103D01*
X301Y1103D02*
X315Y1103D01*
X333Y1103D02*
X338Y1103D01*
X357Y1103D02*
X362Y1103D01*
X377Y1103D02*
X382Y1103D01*
X401Y1103D02*
X406Y1103D01*
X421Y1103D02*
X426Y1103D01*
X472Y1103D02*
X478Y1103D01*
X508Y1103D02*
X514Y1103D01*
X532Y1103D02*
X537Y1103D01*
X573Y1103D02*
X580Y1103D01*
X597Y1103D02*
X625Y1103D01*
X642Y1103D02*
X663Y1103D01*
X683Y1103D02*
X706Y1103D01*
X727Y1103D02*
X749Y1103D01*
X775Y1103D02*
X796Y1103D01*
X819Y1103D02*
X844Y1103D01*
X862Y1103D02*
X883Y1103D01*
X903Y1103D02*
X931Y1103D01*
X953Y1103D02*
X959Y1103D01*
X991Y1103D02*
X1019Y1103D01*
X1038Y1103D02*
X1059Y1103D01*
X1077Y1103D02*
X1100Y1103D01*
X1169Y1103D02*
X1187Y1103D01*
X1189Y1103D02*
X1194Y1103D01*
X1209Y1103D02*
X1214Y1103D01*
X1233Y1103D02*
X1238Y1103D01*
X1255Y1103D02*
X1273Y1103D01*
X1276Y1103D02*
X1282Y1103D01*
X1299Y1103D02*
X1325Y1103D01*
X1352Y1103D02*
X1366Y1103D01*
X1384Y1103D02*
X1389Y1103D01*
X1391Y1103D02*
X1409Y1103D01*
X2747Y1103D02*
X2754Y1103D01*
X0Y1102D02*
X7Y1102D01*
X214Y1102D02*
X219Y1102D01*
X248Y1102D02*
X267Y1102D01*
X270Y1102D02*
X275Y1102D01*
X301Y1102D02*
X315Y1102D01*
X333Y1102D02*
X338Y1102D01*
X357Y1102D02*
X362Y1102D01*
X377Y1102D02*
X382Y1102D01*
X401Y1102D02*
X406Y1102D01*
X421Y1102D02*
X426Y1102D01*
X472Y1102D02*
X478Y1102D01*
X508Y1102D02*
X514Y1102D01*
X532Y1102D02*
X537Y1102D01*
X574Y1102D02*
X580Y1102D01*
X597Y1102D02*
X625Y1102D01*
X642Y1102D02*
X662Y1102D01*
X684Y1102D02*
X707Y1102D01*
X727Y1102D02*
X750Y1102D01*
X774Y1102D02*
X797Y1102D01*
X818Y1102D02*
X844Y1102D01*
X861Y1102D02*
X885Y1102D01*
X904Y1102D02*
X931Y1102D01*
X954Y1102D02*
X960Y1102D01*
X991Y1102D02*
X1019Y1102D01*
X1036Y1102D02*
X1060Y1102D01*
X1078Y1102D02*
X1101Y1102D01*
X1168Y1102D02*
X1194Y1102D01*
X1209Y1102D02*
X1214Y1102D01*
X1233Y1102D02*
X1238Y1102D01*
X1254Y1102D02*
X1274Y1102D01*
X1276Y1102D02*
X1282Y1102D01*
X1300Y1102D02*
X1325Y1102D01*
X1352Y1102D02*
X1366Y1102D01*
X1384Y1102D02*
X1410Y1102D01*
X2747Y1102D02*
X2754Y1102D01*
X0Y1101D02*
X7Y1101D01*
X214Y1101D02*
X219Y1101D01*
X247Y1101D02*
X275Y1101D01*
X301Y1101D02*
X314Y1101D01*
X333Y1101D02*
X338Y1101D01*
X357Y1101D02*
X362Y1101D01*
X377Y1101D02*
X382Y1101D01*
X401Y1101D02*
X406Y1101D01*
X421Y1101D02*
X426Y1101D01*
X473Y1101D02*
X479Y1101D01*
X509Y1101D02*
X515Y1101D01*
X532Y1101D02*
X537Y1101D01*
X575Y1101D02*
X581Y1101D01*
X598Y1101D02*
X625Y1101D01*
X641Y1101D02*
X662Y1101D01*
X684Y1101D02*
X708Y1101D01*
X728Y1101D02*
X752Y1101D01*
X773Y1101D02*
X798Y1101D01*
X817Y1101D02*
X844Y1101D01*
X860Y1101D02*
X885Y1101D01*
X904Y1101D02*
X931Y1101D01*
X954Y1101D02*
X960Y1101D01*
X990Y1101D02*
X1019Y1101D01*
X1035Y1101D02*
X1060Y1101D01*
X1078Y1101D02*
X1102Y1101D01*
X1167Y1101D02*
X1194Y1101D01*
X1209Y1101D02*
X1214Y1101D01*
X1233Y1101D02*
X1238Y1101D01*
X1254Y1101D02*
X1282Y1101D01*
X1300Y1101D02*
X1324Y1101D01*
X1352Y1101D02*
X1365Y1101D01*
X1384Y1101D02*
X1411Y1101D01*
X2747Y1101D02*
X2754Y1101D01*
X0Y1100D02*
X7Y1100D01*
X214Y1100D02*
X219Y1100D01*
X247Y1100D02*
X253Y1100D01*
X260Y1100D02*
X275Y1100D01*
X301Y1100D02*
X307Y1100D01*
X333Y1100D02*
X338Y1100D01*
X357Y1100D02*
X362Y1100D01*
X377Y1100D02*
X382Y1100D01*
X401Y1100D02*
X406Y1100D01*
X421Y1100D02*
X426Y1100D01*
X473Y1100D02*
X479Y1100D01*
X509Y1100D02*
X516Y1100D01*
X532Y1100D02*
X537Y1100D01*
X575Y1100D02*
X581Y1100D01*
X599Y1100D02*
X625Y1100D01*
X641Y1100D02*
X647Y1100D01*
X700Y1100D02*
X709Y1100D01*
X744Y1100D02*
X753Y1100D01*
X772Y1100D02*
X780Y1100D01*
X791Y1100D02*
X799Y1100D01*
X816Y1100D02*
X824Y1100D01*
X831Y1100D02*
X844Y1100D01*
X860Y1100D02*
X868Y1100D01*
X878Y1100D02*
X886Y1100D01*
X905Y1100D02*
X931Y1100D01*
X955Y1100D02*
X961Y1100D01*
X990Y1100D02*
X996Y1100D01*
X998Y1100D02*
X1008Y1100D01*
X1010Y1100D02*
X1019Y1100D01*
X1035Y1100D02*
X1043Y1100D01*
X1053Y1100D02*
X1061Y1100D01*
X1094Y1100D02*
X1103Y1100D01*
X1166Y1100D02*
X1174Y1100D01*
X1182Y1100D02*
X1194Y1100D01*
X1209Y1100D02*
X1214Y1100D01*
X1233Y1100D02*
X1238Y1100D01*
X1254Y1100D02*
X1260Y1100D01*
X1267Y1100D02*
X1282Y1100D01*
X1314Y1100D02*
X1319Y1100D01*
X1352Y1100D02*
X1357Y1100D01*
X1384Y1100D02*
X1396Y1100D01*
X1404Y1100D02*
X1412Y1100D01*
X2747Y1100D02*
X2754Y1100D01*
X0Y1099D02*
X7Y1099D01*
X214Y1099D02*
X219Y1099D01*
X246Y1099D02*
X252Y1099D01*
X262Y1099D02*
X275Y1099D01*
X301Y1099D02*
X306Y1099D01*
X333Y1099D02*
X338Y1099D01*
X357Y1099D02*
X362Y1099D01*
X377Y1099D02*
X382Y1099D01*
X401Y1099D02*
X406Y1099D01*
X421Y1099D02*
X426Y1099D01*
X474Y1099D02*
X480Y1099D01*
X510Y1099D02*
X517Y1099D01*
X532Y1099D02*
X537Y1099D01*
X576Y1099D02*
X581Y1099D01*
X600Y1099D02*
X625Y1099D01*
X640Y1099D02*
X646Y1099D01*
X702Y1099D02*
X710Y1099D01*
X745Y1099D02*
X754Y1099D01*
X772Y1099D02*
X778Y1099D01*
X792Y1099D02*
X799Y1099D01*
X815Y1099D02*
X822Y1099D01*
X833Y1099D02*
X844Y1099D01*
X859Y1099D02*
X866Y1099D01*
X880Y1099D02*
X887Y1099D01*
X907Y1099D02*
X931Y1099D01*
X955Y1099D02*
X962Y1099D01*
X990Y1099D02*
X995Y1099D01*
X999Y1099D02*
X1007Y1099D01*
X1011Y1099D02*
X1019Y1099D01*
X1034Y1099D02*
X1041Y1099D01*
X1055Y1099D02*
X1062Y1099D01*
X1096Y1099D02*
X1104Y1099D01*
X1166Y1099D02*
X1173Y1099D01*
X1183Y1099D02*
X1194Y1099D01*
X1209Y1099D02*
X1214Y1099D01*
X1233Y1099D02*
X1238Y1099D01*
X1253Y1099D02*
X1259Y1099D01*
X1268Y1099D02*
X1282Y1099D01*
X1314Y1099D02*
X1319Y1099D01*
X1352Y1099D02*
X1357Y1099D01*
X1384Y1099D02*
X1395Y1099D01*
X1405Y1099D02*
X1412Y1099D01*
X2747Y1099D02*
X2754Y1099D01*
X0Y1098D02*
X7Y1098D01*
X214Y1098D02*
X219Y1098D01*
X246Y1098D02*
X252Y1098D01*
X263Y1098D02*
X275Y1098D01*
X301Y1098D02*
X306Y1098D01*
X333Y1098D02*
X338Y1098D01*
X357Y1098D02*
X362Y1098D01*
X377Y1098D02*
X382Y1098D01*
X401Y1098D02*
X406Y1098D01*
X421Y1098D02*
X446Y1098D01*
X474Y1098D02*
X481Y1098D01*
X510Y1098D02*
X537Y1098D01*
X576Y1098D02*
X581Y1098D01*
X602Y1098D02*
X625Y1098D01*
X640Y1098D02*
X646Y1098D01*
X703Y1098D02*
X711Y1098D01*
X747Y1098D02*
X755Y1098D01*
X771Y1098D02*
X777Y1098D01*
X793Y1098D02*
X799Y1098D01*
X815Y1098D02*
X821Y1098D01*
X834Y1098D02*
X844Y1098D01*
X859Y1098D02*
X865Y1098D01*
X881Y1098D02*
X887Y1098D01*
X909Y1098D02*
X931Y1098D01*
X956Y1098D02*
X962Y1098D01*
X990Y1098D02*
X995Y1098D01*
X1000Y1098D02*
X1007Y1098D01*
X1012Y1098D02*
X1019Y1098D01*
X1034Y1098D02*
X1040Y1098D01*
X1056Y1098D02*
X1062Y1098D01*
X1097Y1098D02*
X1105Y1098D01*
X1165Y1098D02*
X1171Y1098D01*
X1184Y1098D02*
X1194Y1098D01*
X1209Y1098D02*
X1214Y1098D01*
X1232Y1098D02*
X1238Y1098D01*
X1253Y1098D02*
X1258Y1098D01*
X1270Y1098D02*
X1282Y1098D01*
X1314Y1098D02*
X1319Y1098D01*
X1352Y1098D02*
X1357Y1098D01*
X1384Y1098D02*
X1393Y1098D01*
X1406Y1098D02*
X1412Y1098D01*
X2747Y1098D02*
X2754Y1098D01*
X0Y1097D02*
X7Y1097D01*
X214Y1097D02*
X219Y1097D01*
X246Y1097D02*
X251Y1097D01*
X265Y1097D02*
X275Y1097D01*
X301Y1097D02*
X306Y1097D01*
X333Y1097D02*
X338Y1097D01*
X357Y1097D02*
X362Y1097D01*
X377Y1097D02*
X382Y1097D01*
X401Y1097D02*
X406Y1097D01*
X421Y1097D02*
X448Y1097D01*
X475Y1097D02*
X481Y1097D01*
X511Y1097D02*
X537Y1097D01*
X576Y1097D02*
X581Y1097D01*
X608Y1097D02*
X614Y1097D01*
X620Y1097D02*
X625Y1097D01*
X640Y1097D02*
X645Y1097D01*
X704Y1097D02*
X711Y1097D01*
X748Y1097D02*
X755Y1097D01*
X771Y1097D02*
X776Y1097D01*
X794Y1097D02*
X800Y1097D01*
X815Y1097D02*
X820Y1097D01*
X835Y1097D02*
X844Y1097D01*
X859Y1097D02*
X864Y1097D01*
X882Y1097D02*
X887Y1097D01*
X914Y1097D02*
X921Y1097D01*
X926Y1097D02*
X931Y1097D01*
X957Y1097D02*
X963Y1097D01*
X990Y1097D02*
X995Y1097D01*
X1001Y1097D02*
X1007Y1097D01*
X1013Y1097D02*
X1019Y1097D01*
X1034Y1097D02*
X1039Y1097D01*
X1057Y1097D02*
X1062Y1097D01*
X1098Y1097D02*
X1105Y1097D01*
X1165Y1097D02*
X1171Y1097D01*
X1185Y1097D02*
X1194Y1097D01*
X1209Y1097D02*
X1214Y1097D01*
X1232Y1097D02*
X1238Y1097D01*
X1253Y1097D02*
X1258Y1097D01*
X1271Y1097D02*
X1282Y1097D01*
X1314Y1097D02*
X1319Y1097D01*
X1352Y1097D02*
X1357Y1097D01*
X1384Y1097D02*
X1392Y1097D01*
X1407Y1097D02*
X1413Y1097D01*
X2747Y1097D02*
X2754Y1097D01*
X0Y1096D02*
X7Y1096D01*
X214Y1096D02*
X219Y1096D01*
X246Y1096D02*
X251Y1096D01*
X266Y1096D02*
X275Y1096D01*
X301Y1096D02*
X306Y1096D01*
X333Y1096D02*
X338Y1096D01*
X357Y1096D02*
X362Y1096D01*
X377Y1096D02*
X382Y1096D01*
X401Y1096D02*
X406Y1096D01*
X421Y1096D02*
X448Y1096D01*
X476Y1096D02*
X482Y1096D01*
X512Y1096D02*
X537Y1096D01*
X576Y1096D02*
X581Y1096D01*
X607Y1096D02*
X614Y1096D01*
X620Y1096D02*
X625Y1096D01*
X640Y1096D02*
X645Y1096D01*
X705Y1096D02*
X712Y1096D01*
X749Y1096D02*
X756Y1096D01*
X771Y1096D02*
X776Y1096D01*
X795Y1096D02*
X800Y1096D01*
X815Y1096D02*
X820Y1096D01*
X836Y1096D02*
X844Y1096D01*
X858Y1096D02*
X864Y1096D01*
X882Y1096D02*
X887Y1096D01*
X914Y1096D02*
X920Y1096D01*
X926Y1096D02*
X931Y1096D01*
X957Y1096D02*
X963Y1096D01*
X990Y1096D02*
X995Y1096D01*
X1002Y1096D02*
X1007Y1096D01*
X1014Y1096D02*
X1019Y1096D01*
X1034Y1096D02*
X1039Y1096D01*
X1057Y1096D02*
X1063Y1096D01*
X1099Y1096D02*
X1106Y1096D01*
X1165Y1096D02*
X1170Y1096D01*
X1187Y1096D02*
X1194Y1096D01*
X1209Y1096D02*
X1214Y1096D01*
X1232Y1096D02*
X1237Y1096D01*
X1253Y1096D02*
X1258Y1096D01*
X1273Y1096D02*
X1282Y1096D01*
X1314Y1096D02*
X1319Y1096D01*
X1352Y1096D02*
X1357Y1096D01*
X1384Y1096D02*
X1391Y1096D01*
X1408Y1096D02*
X1413Y1096D01*
X2747Y1096D02*
X2754Y1096D01*
X0Y1095D02*
X7Y1095D01*
X214Y1095D02*
X219Y1095D01*
X246Y1095D02*
X251Y1095D01*
X268Y1095D02*
X275Y1095D01*
X301Y1095D02*
X306Y1095D01*
X333Y1095D02*
X338Y1095D01*
X357Y1095D02*
X362Y1095D01*
X377Y1095D02*
X382Y1095D01*
X401Y1095D02*
X406Y1095D01*
X422Y1095D02*
X449Y1095D01*
X476Y1095D02*
X482Y1095D01*
X512Y1095D02*
X537Y1095D01*
X576Y1095D02*
X581Y1095D01*
X607Y1095D02*
X613Y1095D01*
X620Y1095D02*
X625Y1095D01*
X640Y1095D02*
X645Y1095D01*
X706Y1095D02*
X712Y1095D01*
X750Y1095D02*
X756Y1095D01*
X771Y1095D02*
X776Y1095D01*
X795Y1095D02*
X800Y1095D01*
X815Y1095D02*
X820Y1095D01*
X838Y1095D02*
X844Y1095D01*
X858Y1095D02*
X863Y1095D01*
X882Y1095D02*
X888Y1095D01*
X913Y1095D02*
X919Y1095D01*
X926Y1095D02*
X931Y1095D01*
X958Y1095D02*
X964Y1095D01*
X990Y1095D02*
X995Y1095D01*
X1002Y1095D02*
X1007Y1095D01*
X1014Y1095D02*
X1019Y1095D01*
X1033Y1095D02*
X1039Y1095D01*
X1057Y1095D02*
X1063Y1095D01*
X1100Y1095D02*
X1106Y1095D01*
X1165Y1095D02*
X1170Y1095D01*
X1188Y1095D02*
X1194Y1095D01*
X1209Y1095D02*
X1214Y1095D01*
X1232Y1095D02*
X1237Y1095D01*
X1253Y1095D02*
X1258Y1095D01*
X1275Y1095D02*
X1282Y1095D01*
X1314Y1095D02*
X1319Y1095D01*
X1352Y1095D02*
X1357Y1095D01*
X1384Y1095D02*
X1390Y1095D01*
X1408Y1095D02*
X1413Y1095D01*
X2747Y1095D02*
X2754Y1095D01*
X0Y1094D02*
X7Y1094D01*
X214Y1094D02*
X219Y1094D01*
X246Y1094D02*
X251Y1094D01*
X269Y1094D02*
X275Y1094D01*
X301Y1094D02*
X306Y1094D01*
X333Y1094D02*
X338Y1094D01*
X357Y1094D02*
X362Y1094D01*
X377Y1094D02*
X382Y1094D01*
X401Y1094D02*
X406Y1094D01*
X423Y1094D02*
X450Y1094D01*
X477Y1094D02*
X483Y1094D01*
X511Y1094D02*
X537Y1094D01*
X576Y1094D02*
X581Y1094D01*
X606Y1094D02*
X612Y1094D01*
X620Y1094D02*
X625Y1094D01*
X640Y1094D02*
X645Y1094D01*
X707Y1094D02*
X712Y1094D01*
X751Y1094D02*
X756Y1094D01*
X771Y1094D02*
X776Y1094D01*
X795Y1094D02*
X800Y1094D01*
X815Y1094D02*
X820Y1094D01*
X838Y1094D02*
X844Y1094D01*
X858Y1094D02*
X863Y1094D01*
X882Y1094D02*
X888Y1094D01*
X913Y1094D02*
X919Y1094D01*
X926Y1094D02*
X931Y1094D01*
X958Y1094D02*
X964Y1094D01*
X990Y1094D02*
X995Y1094D01*
X1002Y1094D02*
X1007Y1094D01*
X1014Y1094D02*
X1019Y1094D01*
X1033Y1094D02*
X1039Y1094D01*
X1057Y1094D02*
X1063Y1094D01*
X1101Y1094D02*
X1106Y1094D01*
X1165Y1094D02*
X1170Y1094D01*
X1189Y1094D02*
X1194Y1094D01*
X1209Y1094D02*
X1214Y1094D01*
X1232Y1094D02*
X1237Y1094D01*
X1253Y1094D02*
X1258Y1094D01*
X1276Y1094D02*
X1282Y1094D01*
X1314Y1094D02*
X1319Y1094D01*
X1352Y1094D02*
X1357Y1094D01*
X1384Y1094D02*
X1389Y1094D01*
X1408Y1094D02*
X1413Y1094D01*
X2747Y1094D02*
X2754Y1094D01*
X0Y1093D02*
X7Y1093D01*
X203Y1093D02*
X205Y1093D01*
X214Y1093D02*
X219Y1093D01*
X246Y1093D02*
X251Y1093D01*
X270Y1093D02*
X275Y1093D01*
X301Y1093D02*
X306Y1093D01*
X333Y1093D02*
X338Y1093D01*
X357Y1093D02*
X362Y1093D01*
X377Y1093D02*
X382Y1093D01*
X401Y1093D02*
X406Y1093D01*
X424Y1093D02*
X450Y1093D01*
X477Y1093D02*
X484Y1093D01*
X510Y1093D02*
X537Y1093D01*
X552Y1093D02*
X565Y1093D01*
X576Y1093D02*
X581Y1093D01*
X606Y1093D02*
X612Y1093D01*
X620Y1093D02*
X625Y1093D01*
X640Y1093D02*
X663Y1093D01*
X707Y1093D02*
X712Y1093D01*
X751Y1093D02*
X756Y1093D01*
X771Y1093D02*
X776Y1093D01*
X795Y1093D02*
X800Y1093D01*
X815Y1093D02*
X820Y1093D01*
X839Y1093D02*
X844Y1093D01*
X858Y1093D02*
X863Y1093D01*
X882Y1093D02*
X888Y1093D01*
X912Y1093D02*
X918Y1093D01*
X926Y1093D02*
X931Y1093D01*
X959Y1093D02*
X965Y1093D01*
X990Y1093D02*
X995Y1093D01*
X1002Y1093D02*
X1007Y1093D01*
X1014Y1093D02*
X1019Y1093D01*
X1033Y1093D02*
X1039Y1093D01*
X1057Y1093D02*
X1063Y1093D01*
X1101Y1093D02*
X1106Y1093D01*
X1165Y1093D02*
X1170Y1093D01*
X1189Y1093D02*
X1194Y1093D01*
X1209Y1093D02*
X1214Y1093D01*
X1232Y1093D02*
X1237Y1093D01*
X1253Y1093D02*
X1258Y1093D01*
X1276Y1093D02*
X1282Y1093D01*
X1314Y1093D02*
X1319Y1093D01*
X1352Y1093D02*
X1357Y1093D01*
X1384Y1093D02*
X1389Y1093D01*
X1408Y1093D02*
X1413Y1093D01*
X2747Y1093D02*
X2754Y1093D01*
X0Y1092D02*
X7Y1092D01*
X202Y1092D02*
X206Y1092D01*
X214Y1092D02*
X219Y1092D01*
X246Y1092D02*
X251Y1092D01*
X270Y1092D02*
X275Y1092D01*
X301Y1092D02*
X306Y1092D01*
X333Y1092D02*
X338Y1092D01*
X357Y1092D02*
X362Y1092D01*
X377Y1092D02*
X382Y1092D01*
X401Y1092D02*
X406Y1092D01*
X445Y1092D02*
X450Y1092D01*
X478Y1092D02*
X484Y1092D01*
X510Y1092D02*
X517Y1092D01*
X532Y1092D02*
X537Y1092D01*
X552Y1092D02*
X566Y1092D01*
X576Y1092D02*
X581Y1092D01*
X605Y1092D02*
X611Y1092D01*
X620Y1092D02*
X625Y1092D01*
X640Y1092D02*
X665Y1092D01*
X707Y1092D02*
X712Y1092D01*
X751Y1092D02*
X756Y1092D01*
X771Y1092D02*
X776Y1092D01*
X795Y1092D02*
X800Y1092D01*
X815Y1092D02*
X820Y1092D01*
X839Y1092D02*
X844Y1092D01*
X858Y1092D02*
X863Y1092D01*
X882Y1092D02*
X888Y1092D01*
X912Y1092D02*
X918Y1092D01*
X926Y1092D02*
X931Y1092D01*
X960Y1092D02*
X966Y1092D01*
X990Y1092D02*
X995Y1092D01*
X1002Y1092D02*
X1007Y1092D01*
X1014Y1092D02*
X1019Y1092D01*
X1033Y1092D02*
X1039Y1092D01*
X1057Y1092D02*
X1063Y1092D01*
X1101Y1092D02*
X1106Y1092D01*
X1165Y1092D02*
X1170Y1092D01*
X1189Y1092D02*
X1194Y1092D01*
X1209Y1092D02*
X1214Y1092D01*
X1232Y1092D02*
X1237Y1092D01*
X1253Y1092D02*
X1258Y1092D01*
X1276Y1092D02*
X1282Y1092D01*
X1314Y1092D02*
X1319Y1092D01*
X1352Y1092D02*
X1357Y1092D01*
X1384Y1092D02*
X1389Y1092D01*
X1408Y1092D02*
X1413Y1092D01*
X2747Y1092D02*
X2754Y1092D01*
X0Y1091D02*
X7Y1091D01*
X202Y1091D02*
X207Y1091D01*
X214Y1091D02*
X219Y1091D01*
X246Y1091D02*
X251Y1091D01*
X270Y1091D02*
X275Y1091D01*
X301Y1091D02*
X306Y1091D01*
X333Y1091D02*
X338Y1091D01*
X357Y1091D02*
X362Y1091D01*
X377Y1091D02*
X382Y1091D01*
X401Y1091D02*
X406Y1091D01*
X445Y1091D02*
X450Y1091D01*
X479Y1091D02*
X485Y1091D01*
X509Y1091D02*
X516Y1091D01*
X532Y1091D02*
X537Y1091D01*
X552Y1091D02*
X566Y1091D01*
X576Y1091D02*
X581Y1091D01*
X605Y1091D02*
X611Y1091D01*
X620Y1091D02*
X625Y1091D01*
X640Y1091D02*
X666Y1091D01*
X707Y1091D02*
X712Y1091D01*
X751Y1091D02*
X756Y1091D01*
X771Y1091D02*
X776Y1091D01*
X795Y1091D02*
X800Y1091D01*
X815Y1091D02*
X820Y1091D01*
X839Y1091D02*
X844Y1091D01*
X858Y1091D02*
X864Y1091D01*
X882Y1091D02*
X888Y1091D01*
X911Y1091D02*
X917Y1091D01*
X926Y1091D02*
X931Y1091D01*
X960Y1091D02*
X966Y1091D01*
X990Y1091D02*
X995Y1091D01*
X1002Y1091D02*
X1007Y1091D01*
X1014Y1091D02*
X1019Y1091D01*
X1033Y1091D02*
X1039Y1091D01*
X1057Y1091D02*
X1063Y1091D01*
X1101Y1091D02*
X1106Y1091D01*
X1165Y1091D02*
X1170Y1091D01*
X1189Y1091D02*
X1194Y1091D01*
X1209Y1091D02*
X1214Y1091D01*
X1232Y1091D02*
X1237Y1091D01*
X1253Y1091D02*
X1258Y1091D01*
X1276Y1091D02*
X1282Y1091D01*
X1314Y1091D02*
X1319Y1091D01*
X1352Y1091D02*
X1357Y1091D01*
X1384Y1091D02*
X1389Y1091D01*
X1408Y1091D02*
X1413Y1091D01*
X2747Y1091D02*
X2754Y1091D01*
X0Y1090D02*
X7Y1090D01*
X202Y1090D02*
X207Y1090D01*
X214Y1090D02*
X219Y1090D01*
X246Y1090D02*
X251Y1090D01*
X270Y1090D02*
X275Y1090D01*
X301Y1090D02*
X306Y1090D01*
X333Y1090D02*
X338Y1090D01*
X357Y1090D02*
X362Y1090D01*
X377Y1090D02*
X382Y1090D01*
X401Y1090D02*
X406Y1090D01*
X445Y1090D02*
X450Y1090D01*
X479Y1090D02*
X485Y1090D01*
X509Y1090D02*
X515Y1090D01*
X532Y1090D02*
X537Y1090D01*
X552Y1090D02*
X566Y1090D01*
X576Y1090D02*
X581Y1090D01*
X604Y1090D02*
X610Y1090D01*
X620Y1090D02*
X625Y1090D01*
X640Y1090D02*
X667Y1090D01*
X707Y1090D02*
X712Y1090D01*
X751Y1090D02*
X756Y1090D01*
X771Y1090D02*
X800Y1090D01*
X815Y1090D02*
X820Y1090D01*
X839Y1090D02*
X844Y1090D01*
X858Y1090D02*
X888Y1090D01*
X910Y1090D02*
X917Y1090D01*
X926Y1090D02*
X931Y1090D01*
X961Y1090D02*
X967Y1090D01*
X990Y1090D02*
X995Y1090D01*
X1002Y1090D02*
X1007Y1090D01*
X1014Y1090D02*
X1019Y1090D01*
X1033Y1090D02*
X1039Y1090D01*
X1057Y1090D02*
X1063Y1090D01*
X1101Y1090D02*
X1106Y1090D01*
X1131Y1090D02*
X1140Y1090D01*
X1165Y1090D02*
X1170Y1090D01*
X1189Y1090D02*
X1194Y1090D01*
X1209Y1090D02*
X1214Y1090D01*
X1232Y1090D02*
X1237Y1090D01*
X1253Y1090D02*
X1258Y1090D01*
X1276Y1090D02*
X1282Y1090D01*
X1314Y1090D02*
X1319Y1090D01*
X1352Y1090D02*
X1357Y1090D01*
X1384Y1090D02*
X1389Y1090D01*
X1408Y1090D02*
X1413Y1090D01*
X2747Y1090D02*
X2754Y1090D01*
X0Y1089D02*
X7Y1089D01*
X202Y1089D02*
X207Y1089D01*
X214Y1089D02*
X219Y1089D01*
X246Y1089D02*
X251Y1089D01*
X270Y1089D02*
X275Y1089D01*
X301Y1089D02*
X306Y1089D01*
X333Y1089D02*
X338Y1089D01*
X357Y1089D02*
X362Y1089D01*
X377Y1089D02*
X382Y1089D01*
X401Y1089D02*
X406Y1089D01*
X445Y1089D02*
X450Y1089D01*
X480Y1089D02*
X486Y1089D01*
X508Y1089D02*
X514Y1089D01*
X532Y1089D02*
X537Y1089D01*
X552Y1089D02*
X566Y1089D01*
X576Y1089D02*
X581Y1089D01*
X603Y1089D02*
X610Y1089D01*
X620Y1089D02*
X625Y1089D01*
X640Y1089D02*
X667Y1089D01*
X707Y1089D02*
X712Y1089D01*
X751Y1089D02*
X756Y1089D01*
X771Y1089D02*
X800Y1089D01*
X815Y1089D02*
X820Y1089D01*
X839Y1089D02*
X844Y1089D01*
X858Y1089D02*
X888Y1089D01*
X910Y1089D02*
X916Y1089D01*
X926Y1089D02*
X931Y1089D01*
X961Y1089D02*
X967Y1089D01*
X990Y1089D02*
X995Y1089D01*
X1002Y1089D02*
X1007Y1089D01*
X1014Y1089D02*
X1019Y1089D01*
X1033Y1089D02*
X1039Y1089D01*
X1057Y1089D02*
X1063Y1089D01*
X1101Y1089D02*
X1106Y1089D01*
X1130Y1089D02*
X1141Y1089D01*
X1165Y1089D02*
X1170Y1089D01*
X1189Y1089D02*
X1194Y1089D01*
X1209Y1089D02*
X1214Y1089D01*
X1232Y1089D02*
X1237Y1089D01*
X1253Y1089D02*
X1258Y1089D01*
X1276Y1089D02*
X1282Y1089D01*
X1314Y1089D02*
X1319Y1089D01*
X1352Y1089D02*
X1357Y1089D01*
X1384Y1089D02*
X1389Y1089D01*
X1408Y1089D02*
X1413Y1089D01*
X2747Y1089D02*
X2754Y1089D01*
X0Y1088D02*
X7Y1088D01*
X202Y1088D02*
X207Y1088D01*
X214Y1088D02*
X219Y1088D01*
X246Y1088D02*
X251Y1088D01*
X270Y1088D02*
X275Y1088D01*
X301Y1088D02*
X306Y1088D01*
X333Y1088D02*
X338Y1088D01*
X357Y1088D02*
X362Y1088D01*
X377Y1088D02*
X382Y1088D01*
X401Y1088D02*
X406Y1088D01*
X445Y1088D02*
X450Y1088D01*
X480Y1088D02*
X486Y1088D01*
X508Y1088D02*
X514Y1088D01*
X532Y1088D02*
X537Y1088D01*
X552Y1088D02*
X565Y1088D01*
X576Y1088D02*
X581Y1088D01*
X603Y1088D02*
X609Y1088D01*
X620Y1088D02*
X625Y1088D01*
X640Y1088D02*
X668Y1088D01*
X707Y1088D02*
X712Y1088D01*
X751Y1088D02*
X756Y1088D01*
X771Y1088D02*
X800Y1088D01*
X815Y1088D02*
X820Y1088D01*
X839Y1088D02*
X844Y1088D01*
X858Y1088D02*
X888Y1088D01*
X909Y1088D02*
X915Y1088D01*
X926Y1088D02*
X931Y1088D01*
X962Y1088D02*
X968Y1088D01*
X990Y1088D02*
X995Y1088D01*
X1002Y1088D02*
X1007Y1088D01*
X1014Y1088D02*
X1019Y1088D01*
X1033Y1088D02*
X1039Y1088D01*
X1057Y1088D02*
X1063Y1088D01*
X1101Y1088D02*
X1106Y1088D01*
X1130Y1088D02*
X1141Y1088D01*
X1165Y1088D02*
X1170Y1088D01*
X1189Y1088D02*
X1194Y1088D01*
X1209Y1088D02*
X1214Y1088D01*
X1232Y1088D02*
X1237Y1088D01*
X1253Y1088D02*
X1258Y1088D01*
X1276Y1088D02*
X1282Y1088D01*
X1314Y1088D02*
X1319Y1088D01*
X1352Y1088D02*
X1357Y1088D01*
X1384Y1088D02*
X1389Y1088D01*
X1408Y1088D02*
X1413Y1088D01*
X2747Y1088D02*
X2754Y1088D01*
X0Y1087D02*
X7Y1087D01*
X202Y1087D02*
X207Y1087D01*
X214Y1087D02*
X219Y1087D01*
X246Y1087D02*
X251Y1087D01*
X270Y1087D02*
X275Y1087D01*
X301Y1087D02*
X306Y1087D01*
X333Y1087D02*
X338Y1087D01*
X357Y1087D02*
X362Y1087D01*
X377Y1087D02*
X382Y1087D01*
X401Y1087D02*
X406Y1087D01*
X445Y1087D02*
X450Y1087D01*
X481Y1087D02*
X487Y1087D01*
X508Y1087D02*
X513Y1087D01*
X532Y1087D02*
X537Y1087D01*
X552Y1087D02*
X557Y1087D01*
X576Y1087D02*
X581Y1087D01*
X602Y1087D02*
X608Y1087D01*
X620Y1087D02*
X625Y1087D01*
X640Y1087D02*
X647Y1087D01*
X662Y1087D02*
X668Y1087D01*
X707Y1087D02*
X712Y1087D01*
X751Y1087D02*
X756Y1087D01*
X771Y1087D02*
X800Y1087D01*
X815Y1087D02*
X820Y1087D01*
X839Y1087D02*
X844Y1087D01*
X859Y1087D02*
X888Y1087D01*
X909Y1087D02*
X915Y1087D01*
X926Y1087D02*
X931Y1087D01*
X962Y1087D02*
X969Y1087D01*
X990Y1087D02*
X995Y1087D01*
X1002Y1087D02*
X1007Y1087D01*
X1014Y1087D02*
X1019Y1087D01*
X1033Y1087D02*
X1039Y1087D01*
X1057Y1087D02*
X1063Y1087D01*
X1101Y1087D02*
X1106Y1087D01*
X1130Y1087D02*
X1141Y1087D01*
X1165Y1087D02*
X1170Y1087D01*
X1189Y1087D02*
X1194Y1087D01*
X1209Y1087D02*
X1214Y1087D01*
X1232Y1087D02*
X1237Y1087D01*
X1253Y1087D02*
X1258Y1087D01*
X1276Y1087D02*
X1282Y1087D01*
X1314Y1087D02*
X1319Y1087D01*
X1352Y1087D02*
X1357Y1087D01*
X1384Y1087D02*
X1389Y1087D01*
X1408Y1087D02*
X1413Y1087D01*
X2747Y1087D02*
X2754Y1087D01*
X0Y1086D02*
X7Y1086D01*
X202Y1086D02*
X207Y1086D01*
X214Y1086D02*
X219Y1086D01*
X246Y1086D02*
X251Y1086D01*
X270Y1086D02*
X275Y1086D01*
X301Y1086D02*
X306Y1086D01*
X333Y1086D02*
X338Y1086D01*
X357Y1086D02*
X362Y1086D01*
X377Y1086D02*
X382Y1086D01*
X401Y1086D02*
X406Y1086D01*
X445Y1086D02*
X450Y1086D01*
X481Y1086D02*
X488Y1086D01*
X508Y1086D02*
X513Y1086D01*
X532Y1086D02*
X537Y1086D01*
X552Y1086D02*
X557Y1086D01*
X576Y1086D02*
X581Y1086D01*
X602Y1086D02*
X608Y1086D01*
X620Y1086D02*
X625Y1086D01*
X640Y1086D02*
X646Y1086D01*
X663Y1086D02*
X668Y1086D01*
X707Y1086D02*
X712Y1086D01*
X751Y1086D02*
X756Y1086D01*
X772Y1086D02*
X800Y1086D01*
X815Y1086D02*
X820Y1086D01*
X839Y1086D02*
X844Y1086D01*
X859Y1086D02*
X888Y1086D01*
X908Y1086D02*
X914Y1086D01*
X926Y1086D02*
X931Y1086D01*
X963Y1086D02*
X969Y1086D01*
X990Y1086D02*
X995Y1086D01*
X1002Y1086D02*
X1007Y1086D01*
X1014Y1086D02*
X1019Y1086D01*
X1033Y1086D02*
X1039Y1086D01*
X1057Y1086D02*
X1063Y1086D01*
X1101Y1086D02*
X1106Y1086D01*
X1130Y1086D02*
X1141Y1086D01*
X1165Y1086D02*
X1170Y1086D01*
X1189Y1086D02*
X1194Y1086D01*
X1209Y1086D02*
X1214Y1086D01*
X1232Y1086D02*
X1237Y1086D01*
X1253Y1086D02*
X1258Y1086D01*
X1276Y1086D02*
X1282Y1086D01*
X1314Y1086D02*
X1319Y1086D01*
X1352Y1086D02*
X1357Y1086D01*
X1384Y1086D02*
X1390Y1086D01*
X1408Y1086D02*
X1413Y1086D01*
X2747Y1086D02*
X2754Y1086D01*
X0Y1085D02*
X7Y1085D01*
X202Y1085D02*
X207Y1085D01*
X214Y1085D02*
X219Y1085D01*
X246Y1085D02*
X251Y1085D01*
X270Y1085D02*
X275Y1085D01*
X301Y1085D02*
X306Y1085D01*
X333Y1085D02*
X338Y1085D01*
X357Y1085D02*
X362Y1085D01*
X377Y1085D02*
X382Y1085D01*
X401Y1085D02*
X406Y1085D01*
X445Y1085D02*
X450Y1085D01*
X482Y1085D02*
X488Y1085D01*
X508Y1085D02*
X513Y1085D01*
X532Y1085D02*
X537Y1085D01*
X552Y1085D02*
X557Y1085D01*
X576Y1085D02*
X581Y1085D01*
X601Y1085D02*
X607Y1085D01*
X620Y1085D02*
X625Y1085D01*
X640Y1085D02*
X645Y1085D01*
X663Y1085D02*
X669Y1085D01*
X707Y1085D02*
X712Y1085D01*
X751Y1085D02*
X756Y1085D01*
X773Y1085D02*
X800Y1085D01*
X815Y1085D02*
X820Y1085D01*
X839Y1085D02*
X844Y1085D01*
X860Y1085D02*
X888Y1085D01*
X908Y1085D02*
X914Y1085D01*
X926Y1085D02*
X931Y1085D01*
X964Y1085D02*
X970Y1085D01*
X990Y1085D02*
X995Y1085D01*
X1002Y1085D02*
X1007Y1085D01*
X1014Y1085D02*
X1019Y1085D01*
X1033Y1085D02*
X1039Y1085D01*
X1057Y1085D02*
X1063Y1085D01*
X1101Y1085D02*
X1106Y1085D01*
X1130Y1085D02*
X1141Y1085D01*
X1165Y1085D02*
X1170Y1085D01*
X1189Y1085D02*
X1194Y1085D01*
X1209Y1085D02*
X1214Y1085D01*
X1232Y1085D02*
X1237Y1085D01*
X1253Y1085D02*
X1258Y1085D01*
X1276Y1085D02*
X1282Y1085D01*
X1314Y1085D02*
X1319Y1085D01*
X1352Y1085D02*
X1357Y1085D01*
X1384Y1085D02*
X1391Y1085D01*
X1408Y1085D02*
X1413Y1085D01*
X2747Y1085D02*
X2754Y1085D01*
X0Y1084D02*
X7Y1084D01*
X202Y1084D02*
X207Y1084D01*
X214Y1084D02*
X219Y1084D01*
X246Y1084D02*
X251Y1084D01*
X270Y1084D02*
X275Y1084D01*
X301Y1084D02*
X306Y1084D01*
X333Y1084D02*
X338Y1084D01*
X357Y1084D02*
X362Y1084D01*
X377Y1084D02*
X382Y1084D01*
X401Y1084D02*
X406Y1084D01*
X445Y1084D02*
X450Y1084D01*
X483Y1084D02*
X489Y1084D01*
X508Y1084D02*
X513Y1084D01*
X532Y1084D02*
X537Y1084D01*
X552Y1084D02*
X557Y1084D01*
X576Y1084D02*
X581Y1084D01*
X600Y1084D02*
X607Y1084D01*
X620Y1084D02*
X625Y1084D01*
X640Y1084D02*
X645Y1084D01*
X664Y1084D02*
X669Y1084D01*
X707Y1084D02*
X712Y1084D01*
X751Y1084D02*
X756Y1084D01*
X795Y1084D02*
X800Y1084D01*
X815Y1084D02*
X820Y1084D01*
X838Y1084D02*
X844Y1084D01*
X882Y1084D02*
X888Y1084D01*
X907Y1084D02*
X913Y1084D01*
X926Y1084D02*
X931Y1084D01*
X964Y1084D02*
X970Y1084D01*
X990Y1084D02*
X995Y1084D01*
X1002Y1084D02*
X1007Y1084D01*
X1014Y1084D02*
X1019Y1084D01*
X1033Y1084D02*
X1039Y1084D01*
X1057Y1084D02*
X1063Y1084D01*
X1101Y1084D02*
X1106Y1084D01*
X1130Y1084D02*
X1141Y1084D01*
X1165Y1084D02*
X1170Y1084D01*
X1188Y1084D02*
X1194Y1084D01*
X1209Y1084D02*
X1214Y1084D01*
X1232Y1084D02*
X1237Y1084D01*
X1253Y1084D02*
X1258Y1084D01*
X1276Y1084D02*
X1282Y1084D01*
X1314Y1084D02*
X1319Y1084D01*
X1352Y1084D02*
X1357Y1084D01*
X1384Y1084D02*
X1392Y1084D01*
X1407Y1084D02*
X1413Y1084D01*
X2747Y1084D02*
X2754Y1084D01*
X0Y1083D02*
X7Y1083D01*
X202Y1083D02*
X207Y1083D01*
X214Y1083D02*
X219Y1083D01*
X246Y1083D02*
X251Y1083D01*
X270Y1083D02*
X275Y1083D01*
X301Y1083D02*
X306Y1083D01*
X333Y1083D02*
X338Y1083D01*
X357Y1083D02*
X362Y1083D01*
X377Y1083D02*
X382Y1083D01*
X401Y1083D02*
X406Y1083D01*
X445Y1083D02*
X450Y1083D01*
X483Y1083D02*
X489Y1083D01*
X508Y1083D02*
X513Y1083D01*
X532Y1083D02*
X537Y1083D01*
X552Y1083D02*
X557Y1083D01*
X576Y1083D02*
X581Y1083D01*
X600Y1083D02*
X606Y1083D01*
X620Y1083D02*
X625Y1083D01*
X640Y1083D02*
X645Y1083D01*
X664Y1083D02*
X669Y1083D01*
X706Y1083D02*
X712Y1083D01*
X750Y1083D02*
X756Y1083D01*
X795Y1083D02*
X800Y1083D01*
X815Y1083D02*
X820Y1083D01*
X837Y1083D02*
X844Y1083D01*
X882Y1083D02*
X888Y1083D01*
X906Y1083D02*
X912Y1083D01*
X926Y1083D02*
X931Y1083D01*
X965Y1083D02*
X971Y1083D01*
X990Y1083D02*
X995Y1083D01*
X1002Y1083D02*
X1007Y1083D01*
X1014Y1083D02*
X1019Y1083D01*
X1033Y1083D02*
X1039Y1083D01*
X1057Y1083D02*
X1063Y1083D01*
X1100Y1083D02*
X1106Y1083D01*
X1130Y1083D02*
X1141Y1083D01*
X1165Y1083D02*
X1170Y1083D01*
X1187Y1083D02*
X1194Y1083D01*
X1209Y1083D02*
X1216Y1083D01*
X1232Y1083D02*
X1237Y1083D01*
X1253Y1083D02*
X1258Y1083D01*
X1276Y1083D02*
X1282Y1083D01*
X1298Y1083D02*
X1299Y1083D01*
X1314Y1083D02*
X1319Y1083D01*
X1352Y1083D02*
X1357Y1083D01*
X1384Y1083D02*
X1393Y1083D01*
X1407Y1083D02*
X1412Y1083D01*
X2747Y1083D02*
X2754Y1083D01*
X0Y1082D02*
X7Y1082D01*
X202Y1082D02*
X207Y1082D01*
X214Y1082D02*
X219Y1082D01*
X246Y1082D02*
X251Y1082D01*
X270Y1082D02*
X275Y1082D01*
X301Y1082D02*
X306Y1082D01*
X333Y1082D02*
X338Y1082D01*
X357Y1082D02*
X362Y1082D01*
X377Y1082D02*
X382Y1082D01*
X401Y1082D02*
X406Y1082D01*
X445Y1082D02*
X450Y1082D01*
X484Y1082D02*
X490Y1082D01*
X508Y1082D02*
X514Y1082D01*
X532Y1082D02*
X537Y1082D01*
X552Y1082D02*
X557Y1082D01*
X576Y1082D02*
X581Y1082D01*
X599Y1082D02*
X605Y1082D01*
X620Y1082D02*
X625Y1082D01*
X640Y1082D02*
X645Y1082D01*
X664Y1082D02*
X669Y1082D01*
X705Y1082D02*
X712Y1082D01*
X749Y1082D02*
X756Y1082D01*
X795Y1082D02*
X800Y1082D01*
X815Y1082D02*
X820Y1082D01*
X836Y1082D02*
X844Y1082D01*
X882Y1082D02*
X887Y1082D01*
X906Y1082D02*
X912Y1082D01*
X926Y1082D02*
X931Y1082D01*
X965Y1082D02*
X971Y1082D01*
X990Y1082D02*
X995Y1082D01*
X1002Y1082D02*
X1007Y1082D01*
X1014Y1082D02*
X1019Y1082D01*
X1034Y1082D02*
X1039Y1082D01*
X1057Y1082D02*
X1063Y1082D01*
X1099Y1082D02*
X1106Y1082D01*
X1130Y1082D02*
X1141Y1082D01*
X1165Y1082D02*
X1170Y1082D01*
X1186Y1082D02*
X1194Y1082D01*
X1209Y1082D02*
X1217Y1082D01*
X1232Y1082D02*
X1237Y1082D01*
X1253Y1082D02*
X1258Y1082D01*
X1276Y1082D02*
X1282Y1082D01*
X1297Y1082D02*
X1300Y1082D01*
X1314Y1082D02*
X1319Y1082D01*
X1352Y1082D02*
X1357Y1082D01*
X1384Y1082D02*
X1394Y1082D01*
X1406Y1082D02*
X1412Y1082D01*
X2747Y1082D02*
X2754Y1082D01*
X0Y1081D02*
X7Y1081D01*
X202Y1081D02*
X207Y1081D01*
X214Y1081D02*
X219Y1081D01*
X246Y1081D02*
X251Y1081D01*
X270Y1081D02*
X275Y1081D01*
X301Y1081D02*
X306Y1081D01*
X333Y1081D02*
X338Y1081D01*
X357Y1081D02*
X362Y1081D01*
X377Y1081D02*
X382Y1081D01*
X401Y1081D02*
X406Y1081D01*
X445Y1081D02*
X450Y1081D01*
X484Y1081D02*
X491Y1081D01*
X509Y1081D02*
X514Y1081D01*
X532Y1081D02*
X537Y1081D01*
X552Y1081D02*
X557Y1081D01*
X576Y1081D02*
X581Y1081D01*
X599Y1081D02*
X605Y1081D01*
X620Y1081D02*
X625Y1081D01*
X640Y1081D02*
X646Y1081D01*
X663Y1081D02*
X669Y1081D01*
X704Y1081D02*
X711Y1081D01*
X747Y1081D02*
X755Y1081D01*
X794Y1081D02*
X800Y1081D01*
X815Y1081D02*
X820Y1081D01*
X835Y1081D02*
X844Y1081D01*
X882Y1081D02*
X887Y1081D01*
X905Y1081D02*
X911Y1081D01*
X926Y1081D02*
X931Y1081D01*
X966Y1081D02*
X972Y1081D01*
X989Y1081D02*
X995Y1081D01*
X1002Y1081D02*
X1007Y1081D01*
X1014Y1081D02*
X1019Y1081D01*
X1034Y1081D02*
X1039Y1081D01*
X1057Y1081D02*
X1062Y1081D01*
X1098Y1081D02*
X1105Y1081D01*
X1131Y1081D02*
X1141Y1081D01*
X1165Y1081D02*
X1171Y1081D01*
X1185Y1081D02*
X1194Y1081D01*
X1209Y1081D02*
X1219Y1081D01*
X1232Y1081D02*
X1237Y1081D01*
X1253Y1081D02*
X1258Y1081D01*
X1276Y1081D02*
X1282Y1081D01*
X1296Y1081D02*
X1301Y1081D01*
X1314Y1081D02*
X1319Y1081D01*
X1352Y1081D02*
X1357Y1081D01*
X1384Y1081D02*
X1396Y1081D01*
X1404Y1081D02*
X1412Y1081D01*
X2747Y1081D02*
X2754Y1081D01*
X0Y1080D02*
X7Y1080D01*
X202Y1080D02*
X207Y1080D01*
X214Y1080D02*
X219Y1080D01*
X246Y1080D02*
X251Y1080D01*
X270Y1080D02*
X275Y1080D01*
X301Y1080D02*
X306Y1080D01*
X333Y1080D02*
X338Y1080D01*
X357Y1080D02*
X362Y1080D01*
X377Y1080D02*
X382Y1080D01*
X401Y1080D02*
X406Y1080D01*
X445Y1080D02*
X450Y1080D01*
X485Y1080D02*
X491Y1080D01*
X509Y1080D02*
X515Y1080D01*
X532Y1080D02*
X537Y1080D01*
X552Y1080D02*
X557Y1080D01*
X576Y1080D02*
X581Y1080D01*
X598Y1080D02*
X604Y1080D01*
X620Y1080D02*
X625Y1080D01*
X640Y1080D02*
X648Y1080D01*
X663Y1080D02*
X669Y1080D01*
X703Y1080D02*
X711Y1080D01*
X746Y1080D02*
X754Y1080D01*
X793Y1080D02*
X799Y1080D01*
X815Y1080D02*
X821Y1080D01*
X834Y1080D02*
X844Y1080D01*
X881Y1080D02*
X887Y1080D01*
X905Y1080D02*
X911Y1080D01*
X926Y1080D02*
X931Y1080D01*
X967Y1080D02*
X973Y1080D01*
X989Y1080D02*
X995Y1080D01*
X1002Y1080D02*
X1007Y1080D01*
X1014Y1080D02*
X1019Y1080D01*
X1034Y1080D02*
X1040Y1080D01*
X1056Y1080D02*
X1062Y1080D01*
X1096Y1080D02*
X1105Y1080D01*
X1132Y1080D02*
X1139Y1080D01*
X1165Y1080D02*
X1172Y1080D01*
X1184Y1080D02*
X1194Y1080D01*
X1209Y1080D02*
X1221Y1080D01*
X1232Y1080D02*
X1237Y1080D01*
X1253Y1080D02*
X1258Y1080D01*
X1276Y1080D02*
X1282Y1080D01*
X1296Y1080D02*
X1302Y1080D01*
X1314Y1080D02*
X1319Y1080D01*
X1352Y1080D02*
X1357Y1080D01*
X1384Y1080D02*
X1411Y1080D01*
X2747Y1080D02*
X2754Y1080D01*
X0Y1079D02*
X7Y1079D01*
X202Y1079D02*
X207Y1079D01*
X214Y1079D02*
X219Y1079D01*
X246Y1079D02*
X251Y1079D01*
X270Y1079D02*
X275Y1079D01*
X301Y1079D02*
X306Y1079D01*
X333Y1079D02*
X338Y1079D01*
X357Y1079D02*
X362Y1079D01*
X377Y1079D02*
X382Y1079D01*
X401Y1079D02*
X406Y1079D01*
X445Y1079D02*
X450Y1079D01*
X486Y1079D02*
X492Y1079D01*
X509Y1079D02*
X516Y1079D01*
X532Y1079D02*
X537Y1079D01*
X552Y1079D02*
X558Y1079D01*
X575Y1079D02*
X581Y1079D01*
X598Y1079D02*
X604Y1079D01*
X620Y1079D02*
X625Y1079D01*
X640Y1079D02*
X650Y1079D01*
X663Y1079D02*
X668Y1079D01*
X701Y1079D02*
X710Y1079D01*
X745Y1079D02*
X753Y1079D01*
X792Y1079D02*
X799Y1079D01*
X816Y1079D02*
X823Y1079D01*
X833Y1079D02*
X844Y1079D01*
X879Y1079D02*
X887Y1079D01*
X904Y1079D02*
X910Y1079D01*
X926Y1079D02*
X931Y1079D01*
X967Y1079D02*
X973Y1079D01*
X989Y1079D02*
X995Y1079D01*
X1002Y1079D02*
X1007Y1079D01*
X1014Y1079D02*
X1019Y1079D01*
X1034Y1079D02*
X1042Y1079D01*
X1055Y1079D02*
X1062Y1079D01*
X1095Y1079D02*
X1104Y1079D01*
X1166Y1079D02*
X1173Y1079D01*
X1183Y1079D02*
X1194Y1079D01*
X1209Y1079D02*
X1222Y1079D01*
X1231Y1079D02*
X1237Y1079D01*
X1253Y1079D02*
X1258Y1079D01*
X1276Y1079D02*
X1282Y1079D01*
X1296Y1079D02*
X1302Y1079D01*
X1313Y1079D02*
X1319Y1079D01*
X1352Y1079D02*
X1357Y1079D01*
X1384Y1079D02*
X1410Y1079D01*
X2747Y1079D02*
X2754Y1079D01*
X0Y1078D02*
X7Y1078D01*
X202Y1078D02*
X228Y1078D01*
X246Y1078D02*
X251Y1078D01*
X270Y1078D02*
X275Y1078D01*
X295Y1078D02*
X312Y1078D01*
X333Y1078D02*
X362Y1078D01*
X377Y1078D02*
X406Y1078D01*
X424Y1078D02*
X450Y1078D01*
X486Y1078D02*
X492Y1078D01*
X510Y1078D02*
X537Y1078D01*
X552Y1078D02*
X581Y1078D01*
X597Y1078D02*
X603Y1078D01*
X620Y1078D02*
X625Y1078D01*
X640Y1078D02*
X668Y1078D01*
X686Y1078D02*
X709Y1078D01*
X730Y1078D02*
X752Y1078D01*
X774Y1078D02*
X799Y1078D01*
X816Y1078D02*
X844Y1078D01*
X861Y1078D02*
X886Y1078D01*
X903Y1078D02*
X910Y1078D01*
X926Y1078D02*
X931Y1078D01*
X968Y1078D02*
X974Y1078D01*
X989Y1078D02*
X994Y1078D01*
X1002Y1078D02*
X1007Y1078D01*
X1014Y1078D02*
X1019Y1078D01*
X1035Y1078D02*
X1061Y1078D01*
X1080Y1078D02*
X1103Y1078D01*
X1166Y1078D02*
X1194Y1078D01*
X1209Y1078D02*
X1236Y1078D01*
X1252Y1078D02*
X1258Y1078D01*
X1276Y1078D02*
X1282Y1078D01*
X1297Y1078D02*
X1319Y1078D01*
X1346Y1078D02*
X1363Y1078D01*
X1384Y1078D02*
X1409Y1078D01*
X2747Y1078D02*
X2754Y1078D01*
X0Y1077D02*
X7Y1077D01*
X202Y1077D02*
X230Y1077D01*
X246Y1077D02*
X251Y1077D01*
X270Y1077D02*
X275Y1077D01*
X293Y1077D02*
X315Y1077D01*
X333Y1077D02*
X362Y1077D01*
X377Y1077D02*
X406Y1077D01*
X421Y1077D02*
X450Y1077D01*
X487Y1077D02*
X493Y1077D01*
X511Y1077D02*
X537Y1077D01*
X553Y1077D02*
X580Y1077D01*
X596Y1077D02*
X603Y1077D01*
X620Y1077D02*
X625Y1077D01*
X640Y1077D02*
X668Y1077D01*
X684Y1077D02*
X707Y1077D01*
X728Y1077D02*
X751Y1077D01*
X772Y1077D02*
X798Y1077D01*
X817Y1077D02*
X844Y1077D01*
X859Y1077D02*
X885Y1077D01*
X903Y1077D02*
X909Y1077D01*
X926Y1077D02*
X931Y1077D01*
X968Y1077D02*
X974Y1077D01*
X989Y1077D02*
X994Y1077D01*
X1002Y1077D02*
X1007Y1077D01*
X1014Y1077D02*
X1019Y1077D01*
X1036Y1077D02*
X1060Y1077D01*
X1078Y1077D02*
X1101Y1077D01*
X1167Y1077D02*
X1194Y1077D01*
X1209Y1077D02*
X1236Y1077D01*
X1252Y1077D02*
X1258Y1077D01*
X1276Y1077D02*
X1282Y1077D01*
X1297Y1077D02*
X1318Y1077D01*
X1344Y1077D02*
X1365Y1077D01*
X1384Y1077D02*
X1389Y1077D01*
X1392Y1077D02*
X1408Y1077D01*
X2747Y1077D02*
X2754Y1077D01*
X0Y1076D02*
X7Y1076D01*
X202Y1076D02*
X231Y1076D01*
X246Y1076D02*
X251Y1076D01*
X270Y1076D02*
X275Y1076D01*
X293Y1076D02*
X315Y1076D01*
X333Y1076D02*
X362Y1076D01*
X377Y1076D02*
X406Y1076D01*
X421Y1076D02*
X450Y1076D01*
X487Y1076D02*
X493Y1076D01*
X511Y1076D02*
X537Y1076D01*
X554Y1076D02*
X580Y1076D01*
X596Y1076D02*
X602Y1076D01*
X620Y1076D02*
X625Y1076D01*
X640Y1076D02*
X667Y1076D01*
X683Y1076D02*
X706Y1076D01*
X727Y1076D02*
X750Y1076D01*
X771Y1076D02*
X797Y1076D01*
X818Y1076D02*
X844Y1076D01*
X859Y1076D02*
X884Y1076D01*
X902Y1076D02*
X908Y1076D01*
X926Y1076D02*
X931Y1076D01*
X969Y1076D02*
X975Y1076D01*
X989Y1076D02*
X994Y1076D01*
X1002Y1076D02*
X1007Y1076D01*
X1014Y1076D02*
X1019Y1076D01*
X1037Y1076D02*
X1059Y1076D01*
X1077Y1076D02*
X1100Y1076D01*
X1168Y1076D02*
X1194Y1076D01*
X1209Y1076D02*
X1214Y1076D01*
X1216Y1076D02*
X1235Y1076D01*
X1252Y1076D02*
X1257Y1076D01*
X1276Y1076D02*
X1282Y1076D01*
X1298Y1076D02*
X1318Y1076D01*
X1343Y1076D02*
X1366Y1076D01*
X1384Y1076D02*
X1389Y1076D01*
X1393Y1076D02*
X1406Y1076D01*
X2747Y1076D02*
X2754Y1076D01*
X0Y1075D02*
X7Y1075D01*
X202Y1075D02*
X231Y1075D01*
X246Y1075D02*
X251Y1075D01*
X270Y1075D02*
X275Y1075D01*
X292Y1075D02*
X315Y1075D01*
X334Y1075D02*
X361Y1075D01*
X378Y1075D02*
X405Y1075D01*
X421Y1075D02*
X450Y1075D01*
X488Y1075D02*
X493Y1075D01*
X512Y1075D02*
X537Y1075D01*
X554Y1075D02*
X579Y1075D01*
X596Y1075D02*
X601Y1075D01*
X620Y1075D02*
X625Y1075D01*
X640Y1075D02*
X666Y1075D01*
X683Y1075D02*
X705Y1075D01*
X727Y1075D02*
X749Y1075D01*
X771Y1075D02*
X796Y1075D01*
X819Y1075D02*
X837Y1075D01*
X839Y1075D02*
X844Y1075D01*
X858Y1075D02*
X883Y1075D01*
X902Y1075D02*
X908Y1075D01*
X926Y1075D02*
X931Y1075D01*
X969Y1075D02*
X975Y1075D01*
X989Y1075D02*
X994Y1075D01*
X1002Y1075D02*
X1007Y1075D01*
X1014Y1075D02*
X1019Y1075D01*
X1038Y1075D02*
X1058Y1075D01*
X1077Y1075D02*
X1099Y1075D01*
X1169Y1075D02*
X1187Y1075D01*
X1189Y1075D02*
X1194Y1075D01*
X1209Y1075D02*
X1214Y1075D01*
X1218Y1075D02*
X1235Y1075D01*
X1252Y1075D02*
X1257Y1075D01*
X1276Y1075D02*
X1281Y1075D01*
X1299Y1075D02*
X1317Y1075D01*
X1343Y1075D02*
X1366Y1075D01*
X1384Y1075D02*
X1389Y1075D01*
X1395Y1075D02*
X1405Y1075D01*
X2747Y1075D02*
X2754Y1075D01*
X0Y1074D02*
X7Y1074D01*
X202Y1074D02*
X231Y1074D01*
X246Y1074D02*
X250Y1074D01*
X270Y1074D02*
X274Y1074D01*
X293Y1074D02*
X315Y1074D01*
X335Y1074D02*
X361Y1074D01*
X379Y1074D02*
X404Y1074D01*
X421Y1074D02*
X450Y1074D01*
X489Y1074D02*
X493Y1074D01*
X514Y1074D02*
X537Y1074D01*
X555Y1074D02*
X578Y1074D01*
X596Y1074D02*
X601Y1074D01*
X620Y1074D02*
X625Y1074D01*
X640Y1074D02*
X644Y1074D01*
X647Y1074D02*
X665Y1074D01*
X683Y1074D02*
X704Y1074D01*
X727Y1074D02*
X748Y1074D01*
X771Y1074D02*
X795Y1074D01*
X820Y1074D02*
X835Y1074D01*
X839Y1074D02*
X844Y1074D01*
X859Y1074D02*
X882Y1074D01*
X902Y1074D02*
X907Y1074D01*
X926Y1074D02*
X931Y1074D01*
X970Y1074D02*
X975Y1074D01*
X989Y1074D02*
X994Y1074D01*
X1002Y1074D02*
X1007Y1074D01*
X1014Y1074D02*
X1019Y1074D01*
X1039Y1074D02*
X1057Y1074D01*
X1077Y1074D02*
X1098Y1074D01*
X1170Y1074D02*
X1186Y1074D01*
X1189Y1074D02*
X1194Y1074D01*
X1209Y1074D02*
X1213Y1074D01*
X1220Y1074D02*
X1234Y1074D01*
X1253Y1074D02*
X1257Y1074D01*
X1277Y1074D02*
X1281Y1074D01*
X1300Y1074D02*
X1316Y1074D01*
X1343Y1074D02*
X1366Y1074D01*
X1384Y1074D02*
X1389Y1074D01*
X2747Y1074D02*
X2754Y1074D01*
X0Y1073D02*
X7Y1073D01*
X203Y1073D02*
X230Y1073D01*
X246Y1073D02*
X250Y1073D01*
X270Y1073D02*
X274Y1073D01*
X293Y1073D02*
X315Y1073D01*
X336Y1073D02*
X359Y1073D01*
X380Y1073D02*
X403Y1073D01*
X421Y1073D02*
X450Y1073D01*
X489Y1073D02*
X493Y1073D01*
X515Y1073D02*
X537Y1073D01*
X557Y1073D02*
X576Y1073D01*
X597Y1073D02*
X600Y1073D01*
X621Y1073D02*
X624Y1073D01*
X640Y1073D02*
X644Y1073D01*
X649Y1073D02*
X664Y1073D01*
X684Y1073D02*
X702Y1073D01*
X728Y1073D02*
X746Y1073D01*
X772Y1073D02*
X793Y1073D01*
X822Y1073D02*
X834Y1073D01*
X839Y1073D02*
X843Y1073D01*
X859Y1073D02*
X881Y1073D01*
X903Y1073D02*
X906Y1073D01*
X927Y1073D02*
X930Y1073D01*
X971Y1073D02*
X974Y1073D01*
X990Y1073D02*
X994Y1073D01*
X1003Y1073D02*
X1006Y1073D01*
X1015Y1073D02*
X1019Y1073D01*
X1041Y1073D02*
X1056Y1073D01*
X1078Y1073D02*
X1096Y1073D01*
X1172Y1073D02*
X1184Y1073D01*
X1190Y1073D02*
X1193Y1073D01*
X1209Y1073D02*
X1213Y1073D01*
X1221Y1073D02*
X1232Y1073D01*
X1253Y1073D02*
X1257Y1073D01*
X1277Y1073D02*
X1281Y1073D01*
X1301Y1073D02*
X1314Y1073D01*
X1344Y1073D02*
X1365Y1073D01*
X1384Y1073D02*
X1389Y1073D01*
X2747Y1073D02*
X2754Y1073D01*
X0Y1072D02*
X7Y1072D01*
X204Y1072D02*
X228Y1072D01*
X248Y1072D02*
X248Y1072D01*
X272Y1072D02*
X272Y1072D01*
X295Y1072D02*
X313Y1072D01*
X338Y1072D02*
X357Y1072D01*
X382Y1072D02*
X401Y1072D01*
X423Y1072D02*
X449Y1072D01*
X491Y1072D02*
X491Y1072D01*
X520Y1072D02*
X537Y1072D01*
X560Y1072D02*
X573Y1072D01*
X598Y1072D02*
X598Y1072D01*
X622Y1072D02*
X622Y1072D01*
X642Y1072D02*
X642Y1072D01*
X651Y1072D02*
X660Y1072D01*
X686Y1072D02*
X699Y1072D01*
X730Y1072D02*
X743Y1072D01*
X774Y1072D02*
X790Y1072D01*
X825Y1072D02*
X830Y1072D01*
X841Y1072D02*
X841Y1072D01*
X861Y1072D02*
X877Y1072D01*
X929Y1072D02*
X929Y1072D01*
X992Y1072D02*
X992Y1072D01*
X1004Y1072D02*
X1004Y1072D01*
X1017Y1072D02*
X1017Y1072D01*
X1044Y1072D02*
X1052Y1072D01*
X1080Y1072D02*
X1093Y1072D01*
X1175Y1072D02*
X1180Y1072D01*
X1211Y1072D02*
X1211Y1072D01*
X1225Y1072D02*
X1229Y1072D01*
X1255Y1072D02*
X1255Y1072D01*
X1279Y1072D02*
X1279Y1072D01*
X1304Y1072D02*
X1311Y1072D01*
X1346Y1072D02*
X1363Y1072D01*
X1384Y1072D02*
X1389Y1072D01*
X2747Y1072D02*
X2754Y1072D01*
X0Y1071D02*
X7Y1071D01*
X1384Y1071D02*
X1389Y1071D01*
X2747Y1071D02*
X2754Y1071D01*
X0Y1070D02*
X7Y1070D01*
X1384Y1070D02*
X1389Y1070D01*
X2747Y1070D02*
X2754Y1070D01*
X0Y1069D02*
X7Y1069D01*
X1384Y1069D02*
X1389Y1069D01*
X2747Y1069D02*
X2754Y1069D01*
X0Y1068D02*
X7Y1068D01*
X1384Y1068D02*
X1390Y1068D01*
X2747Y1068D02*
X2754Y1068D01*
X0Y1067D02*
X7Y1067D01*
X1384Y1067D02*
X1391Y1067D01*
X2747Y1067D02*
X2754Y1067D01*
X0Y1066D02*
X7Y1066D01*
X1385Y1066D02*
X1392Y1066D01*
X2747Y1066D02*
X2754Y1066D01*
X0Y1065D02*
X7Y1065D01*
X1385Y1065D02*
X1408Y1065D01*
X2747Y1065D02*
X2754Y1065D01*
X0Y1064D02*
X7Y1064D01*
X1386Y1064D02*
X1409Y1064D01*
X2747Y1064D02*
X2754Y1064D01*
X0Y1063D02*
X7Y1063D01*
X1387Y1063D02*
X1410Y1063D01*
X2747Y1063D02*
X2754Y1063D01*
X0Y1062D02*
X7Y1062D01*
X1388Y1062D02*
X1410Y1062D01*
X2747Y1062D02*
X2754Y1062D01*
X0Y1061D02*
X7Y1061D01*
X1389Y1061D02*
X1410Y1061D01*
X2747Y1061D02*
X2754Y1061D01*
X0Y1060D02*
X7Y1060D01*
X1391Y1060D02*
X1409Y1060D01*
X2747Y1060D02*
X2754Y1060D01*
X0Y1059D02*
X7Y1059D01*
X2747Y1059D02*
X2754Y1059D01*
X0Y1058D02*
X7Y1058D01*
X2747Y1058D02*
X2754Y1058D01*
X0Y1057D02*
X7Y1057D01*
X2747Y1057D02*
X2754Y1057D01*
X0Y1056D02*
X7Y1056D01*
X2747Y1056D02*
X2754Y1056D01*
X0Y1055D02*
X7Y1055D01*
X2747Y1055D02*
X2754Y1055D01*
X0Y1054D02*
X7Y1054D01*
X2747Y1054D02*
X2754Y1054D01*
X0Y1053D02*
X7Y1053D01*
X2747Y1053D02*
X2754Y1053D01*
X0Y1052D02*
X7Y1052D01*
X2747Y1052D02*
X2754Y1052D01*
X0Y1051D02*
X7Y1051D01*
X2747Y1051D02*
X2754Y1051D01*
X0Y1050D02*
X7Y1050D01*
X2747Y1050D02*
X2754Y1050D01*
X0Y1049D02*
X7Y1049D01*
X2747Y1049D02*
X2754Y1049D01*
X0Y1048D02*
X7Y1048D01*
X2747Y1048D02*
X2754Y1048D01*
X0Y1047D02*
X7Y1047D01*
X2747Y1047D02*
X2754Y1047D01*
X0Y1046D02*
X7Y1046D01*
X2747Y1046D02*
X2754Y1046D01*
X0Y1045D02*
X7Y1045D01*
X2747Y1045D02*
X2754Y1045D01*
X0Y1044D02*
X7Y1044D01*
X2747Y1044D02*
X2754Y1044D01*
X0Y1043D02*
X7Y1043D01*
X2747Y1043D02*
X2754Y1043D01*
X0Y1042D02*
X7Y1042D01*
X2747Y1042D02*
X2754Y1042D01*
X0Y1041D02*
X7Y1041D01*
X2747Y1041D02*
X2754Y1041D01*
X0Y1040D02*
X7Y1040D01*
X2747Y1040D02*
X2754Y1040D01*
X0Y1039D02*
X7Y1039D01*
X2747Y1039D02*
X2754Y1039D01*
X0Y1038D02*
X7Y1038D01*
X2747Y1038D02*
X2754Y1038D01*
X0Y1037D02*
X7Y1037D01*
X2747Y1037D02*
X2754Y1037D01*
X0Y1036D02*
X7Y1036D01*
X2747Y1036D02*
X2754Y1036D01*
X0Y1035D02*
X7Y1035D01*
X2747Y1035D02*
X2754Y1035D01*
X0Y1034D02*
X7Y1034D01*
X2747Y1034D02*
X2754Y1034D01*
X0Y1033D02*
X7Y1033D01*
X2747Y1033D02*
X2754Y1033D01*
X0Y1032D02*
X7Y1032D01*
X2747Y1032D02*
X2754Y1032D01*
X0Y1031D02*
X7Y1031D01*
X2747Y1031D02*
X2754Y1031D01*
X0Y1030D02*
X7Y1030D01*
X2747Y1030D02*
X2754Y1030D01*
X0Y1029D02*
X7Y1029D01*
X2747Y1029D02*
X2754Y1029D01*
X0Y1028D02*
X7Y1028D01*
X2747Y1028D02*
X2754Y1028D01*
X0Y1027D02*
X7Y1027D01*
X2747Y1027D02*
X2754Y1027D01*
X0Y1026D02*
X7Y1026D01*
X2747Y1026D02*
X2754Y1026D01*
X0Y1025D02*
X7Y1025D01*
X2747Y1025D02*
X2754Y1025D01*
X0Y1024D02*
X7Y1024D01*
X2747Y1024D02*
X2754Y1024D01*
X0Y1023D02*
X7Y1023D01*
X2747Y1023D02*
X2754Y1023D01*
X0Y1022D02*
X7Y1022D01*
X2747Y1022D02*
X2754Y1022D01*
X0Y1021D02*
X7Y1021D01*
X2747Y1021D02*
X2754Y1021D01*
X0Y1020D02*
X7Y1020D01*
X2747Y1020D02*
X2754Y1020D01*
X0Y1019D02*
X7Y1019D01*
X2747Y1019D02*
X2754Y1019D01*
X0Y1018D02*
X7Y1018D01*
X2747Y1018D02*
X2754Y1018D01*
X0Y1017D02*
X7Y1017D01*
X2747Y1017D02*
X2754Y1017D01*
X0Y1016D02*
X7Y1016D01*
X2747Y1016D02*
X2754Y1016D01*
X0Y1015D02*
X7Y1015D01*
X2747Y1015D02*
X2754Y1015D01*
X0Y1014D02*
X7Y1014D01*
X2747Y1014D02*
X2754Y1014D01*
X0Y1013D02*
X7Y1013D01*
X2747Y1013D02*
X2754Y1013D01*
X0Y1012D02*
X7Y1012D01*
X2747Y1012D02*
X2754Y1012D01*
X0Y1011D02*
X7Y1011D01*
X2747Y1011D02*
X2754Y1011D01*
X0Y1010D02*
X7Y1010D01*
X2747Y1010D02*
X2754Y1010D01*
X0Y1009D02*
X7Y1009D01*
X2747Y1009D02*
X2754Y1009D01*
X0Y1008D02*
X7Y1008D01*
X2747Y1008D02*
X2754Y1008D01*
X0Y1007D02*
X7Y1007D01*
X2747Y1007D02*
X2754Y1007D01*
X0Y1006D02*
X7Y1006D01*
X2747Y1006D02*
X2754Y1006D01*
X0Y1005D02*
X7Y1005D01*
X2747Y1005D02*
X2754Y1005D01*
X0Y1004D02*
X7Y1004D01*
X2747Y1004D02*
X2754Y1004D01*
X0Y1003D02*
X7Y1003D01*
X2747Y1003D02*
X2754Y1003D01*
X0Y1002D02*
X7Y1002D01*
X2747Y1002D02*
X2754Y1002D01*
X0Y1001D02*
X7Y1001D01*
X2747Y1001D02*
X2754Y1001D01*
X0Y1000D02*
X7Y1000D01*
X2747Y1000D02*
X2754Y1000D01*
X0Y999D02*
X7Y999D01*
X2747Y999D02*
X2754Y999D01*
X0Y998D02*
X7Y998D01*
X2747Y998D02*
X2754Y998D01*
X0Y997D02*
X7Y997D01*
X2747Y997D02*
X2754Y997D01*
X0Y996D02*
X7Y996D01*
X2747Y996D02*
X2754Y996D01*
X0Y995D02*
X7Y995D01*
X2747Y995D02*
X2754Y995D01*
X0Y994D02*
X7Y994D01*
X2747Y994D02*
X2754Y994D01*
X0Y993D02*
X7Y993D01*
X2747Y993D02*
X2754Y993D01*
X0Y992D02*
X7Y992D01*
X2747Y992D02*
X2754Y992D01*
X0Y991D02*
X7Y991D01*
X2747Y991D02*
X2754Y991D01*
X0Y990D02*
X7Y990D01*
X2747Y990D02*
X2754Y990D01*
X0Y989D02*
X7Y989D01*
X2747Y989D02*
X2754Y989D01*
X0Y988D02*
X7Y988D01*
X2747Y988D02*
X2754Y988D01*
X0Y987D02*
X7Y987D01*
X2747Y987D02*
X2754Y987D01*
X0Y986D02*
X7Y986D01*
X2747Y986D02*
X2754Y986D01*
X0Y985D02*
X7Y985D01*
X2747Y985D02*
X2754Y985D01*
X0Y984D02*
X7Y984D01*
X2747Y984D02*
X2754Y984D01*
X0Y983D02*
X7Y983D01*
X2747Y983D02*
X2754Y983D01*
X0Y982D02*
X7Y982D01*
X2747Y982D02*
X2754Y982D01*
X0Y981D02*
X7Y981D01*
X2747Y981D02*
X2754Y981D01*
X0Y980D02*
X7Y980D01*
X2747Y980D02*
X2754Y980D01*
X0Y979D02*
X7Y979D01*
X2747Y979D02*
X2754Y979D01*
X0Y978D02*
X7Y978D01*
X2747Y978D02*
X2754Y978D01*
X0Y977D02*
X7Y977D01*
X2747Y977D02*
X2754Y977D01*
X0Y976D02*
X7Y976D01*
X2747Y976D02*
X2754Y976D01*
X0Y975D02*
X7Y975D01*
X2747Y975D02*
X2754Y975D01*
X0Y974D02*
X7Y974D01*
X2747Y974D02*
X2754Y974D01*
X0Y973D02*
X7Y973D01*
X2747Y973D02*
X2754Y973D01*
X0Y972D02*
X7Y972D01*
X2747Y972D02*
X2754Y972D01*
X0Y971D02*
X7Y971D01*
X2747Y971D02*
X2754Y971D01*
X0Y970D02*
X7Y970D01*
X2747Y970D02*
X2754Y970D01*
X0Y969D02*
X7Y969D01*
X2747Y969D02*
X2754Y969D01*
X0Y968D02*
X7Y968D01*
X2747Y968D02*
X2754Y968D01*
X0Y967D02*
X7Y967D01*
X2747Y967D02*
X2754Y967D01*
X0Y966D02*
X7Y966D01*
X2747Y966D02*
X2754Y966D01*
X0Y965D02*
X7Y965D01*
X2747Y965D02*
X2754Y965D01*
X0Y964D02*
X7Y964D01*
X2747Y964D02*
X2754Y964D01*
X0Y963D02*
X7Y963D01*
X2747Y963D02*
X2754Y963D01*
X0Y962D02*
X7Y962D01*
X2747Y962D02*
X2754Y962D01*
X0Y961D02*
X7Y961D01*
X2747Y961D02*
X2754Y961D01*
X0Y960D02*
X7Y960D01*
X2747Y960D02*
X2754Y960D01*
X0Y959D02*
X7Y959D01*
X2747Y959D02*
X2754Y959D01*
X0Y958D02*
X7Y958D01*
X2747Y958D02*
X2754Y958D01*
X0Y957D02*
X7Y957D01*
X2747Y957D02*
X2754Y957D01*
X0Y956D02*
X7Y956D01*
X2747Y956D02*
X2754Y956D01*
X0Y955D02*
X7Y955D01*
X2747Y955D02*
X2754Y955D01*
X0Y954D02*
X7Y954D01*
X2747Y954D02*
X2754Y954D01*
X0Y953D02*
X7Y953D01*
X2747Y953D02*
X2754Y953D01*
X0Y952D02*
X7Y952D01*
X2747Y952D02*
X2754Y952D01*
X0Y951D02*
X7Y951D01*
X2747Y951D02*
X2754Y951D01*
X0Y950D02*
X7Y950D01*
X2747Y950D02*
X2754Y950D01*
X0Y949D02*
X7Y949D01*
X2747Y949D02*
X2754Y949D01*
X0Y948D02*
X7Y948D01*
X2747Y948D02*
X2754Y948D01*
X0Y947D02*
X7Y947D01*
X2747Y947D02*
X2754Y947D01*
X0Y946D02*
X7Y946D01*
X2747Y946D02*
X2754Y946D01*
X0Y945D02*
X7Y945D01*
X2747Y945D02*
X2754Y945D01*
X0Y944D02*
X7Y944D01*
X2747Y944D02*
X2754Y944D01*
X0Y943D02*
X7Y943D01*
X2747Y943D02*
X2754Y943D01*
X0Y942D02*
X7Y942D01*
X2747Y942D02*
X2754Y942D01*
X0Y941D02*
X7Y941D01*
X2747Y941D02*
X2754Y941D01*
X0Y940D02*
X7Y940D01*
X2747Y940D02*
X2754Y940D01*
X0Y939D02*
X7Y939D01*
X2747Y939D02*
X2754Y939D01*
X0Y938D02*
X7Y938D01*
X2747Y938D02*
X2754Y938D01*
X0Y937D02*
X7Y937D01*
X2747Y937D02*
X2754Y937D01*
X0Y936D02*
X7Y936D01*
X2747Y936D02*
X2754Y936D01*
X0Y935D02*
X7Y935D01*
X2747Y935D02*
X2754Y935D01*
X0Y934D02*
X7Y934D01*
X2747Y934D02*
X2754Y934D01*
X0Y933D02*
X7Y933D01*
X2747Y933D02*
X2754Y933D01*
X0Y932D02*
X7Y932D01*
X2747Y932D02*
X2754Y932D01*
X0Y931D02*
X7Y931D01*
X2747Y931D02*
X2754Y931D01*
X0Y930D02*
X7Y930D01*
X2747Y930D02*
X2754Y930D01*
X0Y929D02*
X7Y929D01*
X2747Y929D02*
X2754Y929D01*
X0Y928D02*
X7Y928D01*
X2747Y928D02*
X2754Y928D01*
X0Y927D02*
X7Y927D01*
X2747Y927D02*
X2754Y927D01*
X0Y926D02*
X7Y926D01*
X2747Y926D02*
X2754Y926D01*
X0Y925D02*
X7Y925D01*
X2747Y925D02*
X2754Y925D01*
X0Y924D02*
X7Y924D01*
X2747Y924D02*
X2754Y924D01*
X0Y923D02*
X7Y923D01*
X2747Y923D02*
X2754Y923D01*
X0Y922D02*
X7Y922D01*
X2747Y922D02*
X2754Y922D01*
X0Y921D02*
X7Y921D01*
X2747Y921D02*
X2754Y921D01*
X0Y920D02*
X7Y920D01*
X2747Y920D02*
X2754Y920D01*
X0Y919D02*
X7Y919D01*
X2747Y919D02*
X2754Y919D01*
X0Y918D02*
X7Y918D01*
X2747Y918D02*
X2754Y918D01*
X0Y917D02*
X7Y917D01*
X2747Y917D02*
X2754Y917D01*
X0Y916D02*
X7Y916D01*
X2747Y916D02*
X2754Y916D01*
X0Y915D02*
X7Y915D01*
X2747Y915D02*
X2754Y915D01*
X0Y914D02*
X7Y914D01*
X2747Y914D02*
X2754Y914D01*
X0Y913D02*
X7Y913D01*
X2747Y913D02*
X2754Y913D01*
X0Y912D02*
X7Y912D01*
X2747Y912D02*
X2754Y912D01*
X0Y911D02*
X7Y911D01*
X2747Y911D02*
X2754Y911D01*
X0Y910D02*
X7Y910D01*
X2747Y910D02*
X2754Y910D01*
X0Y909D02*
X7Y909D01*
X2747Y909D02*
X2754Y909D01*
X0Y908D02*
X7Y908D01*
X2747Y908D02*
X2754Y908D01*
X0Y907D02*
X7Y907D01*
X2747Y907D02*
X2754Y907D01*
X0Y906D02*
X7Y906D01*
X2747Y906D02*
X2754Y906D01*
X0Y905D02*
X7Y905D01*
X2747Y905D02*
X2754Y905D01*
X0Y904D02*
X7Y904D01*
X2747Y904D02*
X2754Y904D01*
X0Y903D02*
X7Y903D01*
X2747Y903D02*
X2754Y903D01*
X0Y902D02*
X7Y902D01*
X2747Y902D02*
X2754Y902D01*
X0Y901D02*
X7Y901D01*
X2747Y901D02*
X2754Y901D01*
X0Y900D02*
X7Y900D01*
X2747Y900D02*
X2754Y900D01*
X0Y899D02*
X7Y899D01*
X2747Y899D02*
X2754Y899D01*
X0Y898D02*
X7Y898D01*
X2747Y898D02*
X2754Y898D01*
X0Y897D02*
X7Y897D01*
X2747Y897D02*
X2754Y897D01*
X0Y896D02*
X7Y896D01*
X2747Y896D02*
X2754Y896D01*
X0Y895D02*
X7Y895D01*
X2747Y895D02*
X2754Y895D01*
X0Y894D02*
X7Y894D01*
X2747Y894D02*
X2754Y894D01*
X0Y893D02*
X7Y893D01*
X2747Y893D02*
X2754Y893D01*
X0Y892D02*
X7Y892D01*
X2747Y892D02*
X2754Y892D01*
X0Y891D02*
X7Y891D01*
X2747Y891D02*
X2754Y891D01*
X0Y890D02*
X7Y890D01*
X2747Y890D02*
X2754Y890D01*
X0Y889D02*
X7Y889D01*
X2747Y889D02*
X2754Y889D01*
X0Y888D02*
X7Y888D01*
X2747Y888D02*
X2754Y888D01*
X0Y887D02*
X7Y887D01*
X2747Y887D02*
X2754Y887D01*
X0Y886D02*
X7Y886D01*
X2747Y886D02*
X2754Y886D01*
X0Y885D02*
X7Y885D01*
X2747Y885D02*
X2754Y885D01*
X0Y884D02*
X7Y884D01*
X2747Y884D02*
X2754Y884D01*
X0Y883D02*
X7Y883D01*
X2747Y883D02*
X2754Y883D01*
X0Y882D02*
X7Y882D01*
X2747Y882D02*
X2754Y882D01*
X0Y881D02*
X7Y881D01*
X2747Y881D02*
X2754Y881D01*
X0Y880D02*
X7Y880D01*
X2747Y880D02*
X2754Y880D01*
X0Y879D02*
X7Y879D01*
X2747Y879D02*
X2754Y879D01*
X0Y878D02*
X7Y878D01*
X2747Y878D02*
X2754Y878D01*
X0Y877D02*
X7Y877D01*
X2747Y877D02*
X2754Y877D01*
X0Y876D02*
X7Y876D01*
X1582Y876D02*
X1588Y876D01*
X1801Y876D02*
X1807Y876D01*
X2747Y876D02*
X2754Y876D01*
X0Y875D02*
X7Y875D01*
X1581Y875D02*
X1589Y875D01*
X1800Y875D02*
X1808Y875D01*
X2747Y875D02*
X2754Y875D01*
X0Y874D02*
X7Y874D01*
X707Y874D02*
X718Y874D01*
X1013Y874D02*
X1015Y874D01*
X1090Y874D02*
X1101Y874D01*
X1232Y874D02*
X1243Y874D01*
X1356Y874D02*
X1370Y874D01*
X1483Y874D02*
X1485Y874D01*
X1581Y874D02*
X1589Y874D01*
X1626Y874D02*
X1640Y874D01*
X1800Y874D02*
X1808Y874D01*
X1831Y874D02*
X1838Y874D01*
X1854Y874D02*
X1861Y874D01*
X2747Y874D02*
X2754Y874D01*
X0Y873D02*
X7Y873D01*
X706Y873D02*
X719Y873D01*
X1012Y873D02*
X1016Y873D01*
X1089Y873D02*
X1104Y873D01*
X1231Y873D02*
X1244Y873D01*
X1354Y873D02*
X1371Y873D01*
X1482Y873D02*
X1486Y873D01*
X1581Y873D02*
X1589Y873D01*
X1624Y873D02*
X1641Y873D01*
X1800Y873D02*
X1808Y873D01*
X1831Y873D02*
X1839Y873D01*
X1853Y873D02*
X1861Y873D01*
X2747Y873D02*
X2754Y873D01*
X0Y872D02*
X7Y872D01*
X705Y872D02*
X719Y872D01*
X1012Y872D02*
X1017Y872D01*
X1089Y872D02*
X1105Y872D01*
X1231Y872D02*
X1245Y872D01*
X1352Y872D02*
X1371Y872D01*
X1481Y872D02*
X1486Y872D01*
X1581Y872D02*
X1589Y872D01*
X1622Y872D02*
X1642Y872D01*
X1800Y872D02*
X1808Y872D01*
X1831Y872D02*
X1840Y872D01*
X1852Y872D02*
X1861Y872D01*
X2747Y872D02*
X2754Y872D01*
X0Y871D02*
X7Y871D01*
X705Y871D02*
X719Y871D01*
X1011Y871D02*
X1017Y871D01*
X1089Y871D02*
X1106Y871D01*
X1231Y871D02*
X1245Y871D01*
X1351Y871D02*
X1371Y871D01*
X1481Y871D02*
X1486Y871D01*
X1581Y871D02*
X1589Y871D01*
X1621Y871D02*
X1642Y871D01*
X1800Y871D02*
X1808Y871D01*
X1831Y871D02*
X1841Y871D01*
X1852Y871D02*
X1861Y871D01*
X2747Y871D02*
X2754Y871D01*
X0Y870D02*
X7Y870D01*
X705Y870D02*
X719Y870D01*
X1011Y870D02*
X1017Y870D01*
X1089Y870D02*
X1107Y870D01*
X1231Y870D02*
X1244Y870D01*
X1351Y870D02*
X1372Y870D01*
X1481Y870D02*
X1486Y870D01*
X1581Y870D02*
X1589Y870D01*
X1621Y870D02*
X1641Y870D01*
X1800Y870D02*
X1807Y870D01*
X1831Y870D02*
X1841Y870D01*
X1851Y870D02*
X1861Y870D01*
X2747Y870D02*
X2754Y870D01*
X0Y869D02*
X7Y869D01*
X705Y869D02*
X718Y869D01*
X1011Y869D02*
X1018Y869D01*
X1090Y869D02*
X1108Y869D01*
X1231Y869D02*
X1243Y869D01*
X1350Y869D02*
X1372Y869D01*
X1481Y869D02*
X1486Y869D01*
X1582Y869D02*
X1588Y869D01*
X1620Y869D02*
X1640Y869D01*
X1801Y869D02*
X1807Y869D01*
X1831Y869D02*
X1842Y869D01*
X1850Y869D02*
X1861Y869D01*
X2747Y869D02*
X2754Y869D01*
X0Y868D02*
X7Y868D01*
X705Y868D02*
X711Y868D01*
X1011Y868D02*
X1018Y868D01*
X1101Y868D02*
X1108Y868D01*
X1231Y868D02*
X1236Y868D01*
X1350Y868D02*
X1356Y868D01*
X1481Y868D02*
X1486Y868D01*
X1620Y868D02*
X1626Y868D01*
X1630Y868D02*
X1636Y868D01*
X1831Y868D02*
X1843Y868D01*
X1849Y868D02*
X1861Y868D01*
X2747Y868D02*
X2754Y868D01*
X0Y867D02*
X7Y867D01*
X705Y867D02*
X710Y867D01*
X1010Y867D02*
X1018Y867D01*
X1102Y867D02*
X1108Y867D01*
X1231Y867D02*
X1236Y867D01*
X1350Y867D02*
X1355Y867D01*
X1481Y867D02*
X1486Y867D01*
X1619Y867D02*
X1625Y867D01*
X1631Y867D02*
X1636Y867D01*
X1831Y867D02*
X1843Y867D01*
X1849Y867D02*
X1861Y867D01*
X2747Y867D02*
X2754Y867D01*
X0Y866D02*
X7Y866D01*
X705Y866D02*
X710Y866D01*
X1010Y866D02*
X1019Y866D01*
X1103Y866D02*
X1109Y866D01*
X1231Y866D02*
X1236Y866D01*
X1350Y866D02*
X1355Y866D01*
X1373Y866D02*
X1374Y866D01*
X1481Y866D02*
X1486Y866D01*
X1619Y866D02*
X1624Y866D01*
X1631Y866D02*
X1636Y866D01*
X1831Y866D02*
X1844Y866D01*
X1848Y866D02*
X1861Y866D01*
X2747Y866D02*
X2754Y866D01*
X0Y865D02*
X7Y865D01*
X705Y865D02*
X710Y865D01*
X1010Y865D02*
X1019Y865D01*
X1104Y865D02*
X1109Y865D01*
X1231Y865D02*
X1236Y865D01*
X1350Y865D02*
X1355Y865D01*
X1372Y865D02*
X1374Y865D01*
X1481Y865D02*
X1486Y865D01*
X1618Y865D02*
X1624Y865D01*
X1631Y865D02*
X1636Y865D01*
X1831Y865D02*
X1845Y865D01*
X1847Y865D02*
X1861Y865D01*
X2747Y865D02*
X2754Y865D01*
X0Y864D02*
X7Y864D01*
X705Y864D02*
X710Y864D01*
X1009Y864D02*
X1019Y864D01*
X1104Y864D02*
X1109Y864D01*
X1231Y864D02*
X1236Y864D01*
X1351Y864D02*
X1354Y864D01*
X1371Y864D02*
X1375Y864D01*
X1481Y864D02*
X1486Y864D01*
X1618Y864D02*
X1623Y864D01*
X1631Y864D02*
X1636Y864D01*
X1831Y864D02*
X1837Y864D01*
X1839Y864D02*
X1853Y864D01*
X1855Y864D02*
X1861Y864D01*
X2747Y864D02*
X2754Y864D01*
X0Y863D02*
X7Y863D01*
X705Y863D02*
X710Y863D01*
X1009Y863D02*
X1019Y863D01*
X1104Y863D02*
X1109Y863D01*
X1231Y863D02*
X1236Y863D01*
X1371Y863D02*
X1375Y863D01*
X1481Y863D02*
X1486Y863D01*
X1617Y863D02*
X1623Y863D01*
X1631Y863D02*
X1636Y863D01*
X1831Y863D02*
X1837Y863D01*
X1840Y863D02*
X1852Y863D01*
X1855Y863D02*
X1861Y863D01*
X2747Y863D02*
X2754Y863D01*
X0Y862D02*
X7Y862D01*
X705Y862D02*
X710Y862D01*
X923Y862D02*
X931Y862D01*
X937Y862D02*
X940Y862D01*
X967Y862D02*
X974Y862D01*
X981Y862D02*
X984Y862D01*
X1009Y862D02*
X1020Y862D01*
X1104Y862D02*
X1109Y862D01*
X1231Y862D02*
X1236Y862D01*
X1370Y862D02*
X1376Y862D01*
X1481Y862D02*
X1486Y862D01*
X1617Y862D02*
X1622Y862D01*
X1631Y862D02*
X1636Y862D01*
X1831Y862D02*
X1837Y862D01*
X1840Y862D02*
X1852Y862D01*
X1855Y862D02*
X1861Y862D01*
X2747Y862D02*
X2754Y862D01*
X0Y861D02*
X7Y861D01*
X705Y861D02*
X710Y861D01*
X744Y861D02*
X759Y861D01*
X782Y861D02*
X785Y861D01*
X806Y861D02*
X809Y861D01*
X833Y861D02*
X846Y861D01*
X874Y861D02*
X884Y861D01*
X894Y861D02*
X896Y861D01*
X921Y861D02*
X932Y861D01*
X936Y861D02*
X941Y861D01*
X965Y861D02*
X976Y861D01*
X980Y861D02*
X985Y861D01*
X1009Y861D02*
X1020Y861D01*
X1096Y861D02*
X1114Y861D01*
X1139Y861D02*
X1152Y861D01*
X1231Y861D02*
X1236Y861D01*
X1269Y861D02*
X1284Y861D01*
X1314Y861D02*
X1327Y861D01*
X1369Y861D02*
X1376Y861D01*
X1452Y861D02*
X1459Y861D01*
X1481Y861D02*
X1486Y861D01*
X1492Y861D02*
X1502Y861D01*
X1533Y861D02*
X1546Y861D01*
X1582Y861D02*
X1594Y861D01*
X1616Y861D02*
X1622Y861D01*
X1631Y861D02*
X1636Y861D01*
X1706Y861D02*
X1724Y861D01*
X1749Y861D02*
X1768Y861D01*
X1801Y861D02*
X1812Y861D01*
X1831Y861D02*
X1837Y861D01*
X1841Y861D02*
X1851Y861D01*
X1855Y861D02*
X1861Y861D01*
X2747Y861D02*
X2754Y861D01*
X0Y860D02*
X7Y860D01*
X705Y860D02*
X710Y860D01*
X742Y860D02*
X760Y860D01*
X781Y860D02*
X786Y860D01*
X805Y860D02*
X810Y860D01*
X831Y860D02*
X848Y860D01*
X872Y860D02*
X886Y860D01*
X893Y860D02*
X897Y860D01*
X920Y860D02*
X933Y860D01*
X936Y860D02*
X941Y860D01*
X963Y860D02*
X977Y860D01*
X980Y860D02*
X985Y860D01*
X1008Y860D02*
X1020Y860D01*
X1095Y860D02*
X1115Y860D01*
X1137Y860D02*
X1154Y860D01*
X1231Y860D02*
X1236Y860D01*
X1267Y860D02*
X1285Y860D01*
X1312Y860D02*
X1329Y860D01*
X1368Y860D02*
X1375Y860D01*
X1452Y860D02*
X1460Y860D01*
X1481Y860D02*
X1486Y860D01*
X1490Y860D02*
X1504Y860D01*
X1531Y860D02*
X1548Y860D01*
X1581Y860D02*
X1595Y860D01*
X1616Y860D02*
X1621Y860D01*
X1631Y860D02*
X1636Y860D01*
X1704Y860D02*
X1725Y860D01*
X1747Y860D02*
X1769Y860D01*
X1800Y860D02*
X1813Y860D01*
X1831Y860D02*
X1837Y860D01*
X1842Y860D02*
X1850Y860D01*
X1855Y860D02*
X1861Y860D01*
X2747Y860D02*
X2754Y860D01*
X0Y859D02*
X7Y859D01*
X705Y859D02*
X710Y859D01*
X741Y859D02*
X760Y859D01*
X781Y859D02*
X786Y859D01*
X805Y859D02*
X810Y859D01*
X830Y859D02*
X849Y859D01*
X871Y859D02*
X887Y859D01*
X892Y859D02*
X897Y859D01*
X919Y859D02*
X934Y859D01*
X936Y859D02*
X941Y859D01*
X962Y859D02*
X978Y859D01*
X980Y859D02*
X985Y859D01*
X1008Y859D02*
X1013Y859D01*
X1015Y859D02*
X1021Y859D01*
X1095Y859D02*
X1115Y859D01*
X1136Y859D02*
X1155Y859D01*
X1231Y859D02*
X1236Y859D01*
X1266Y859D02*
X1285Y859D01*
X1311Y859D02*
X1330Y859D01*
X1367Y859D02*
X1374Y859D01*
X1451Y859D02*
X1462Y859D01*
X1481Y859D02*
X1486Y859D01*
X1489Y859D02*
X1506Y859D01*
X1530Y859D02*
X1549Y859D01*
X1581Y859D02*
X1595Y859D01*
X1615Y859D02*
X1621Y859D01*
X1631Y859D02*
X1636Y859D01*
X1703Y859D02*
X1727Y859D01*
X1746Y859D02*
X1770Y859D01*
X1800Y859D02*
X1814Y859D01*
X1831Y859D02*
X1837Y859D01*
X1842Y859D02*
X1850Y859D01*
X1855Y859D02*
X1861Y859D01*
X2747Y859D02*
X2754Y859D01*
X0Y858D02*
X7Y858D01*
X705Y858D02*
X710Y858D01*
X740Y858D02*
X760Y858D01*
X781Y858D02*
X786Y858D01*
X805Y858D02*
X810Y858D01*
X828Y858D02*
X850Y858D01*
X870Y858D02*
X888Y858D01*
X892Y858D02*
X898Y858D01*
X917Y858D02*
X941Y858D01*
X961Y858D02*
X985Y858D01*
X1008Y858D02*
X1013Y858D01*
X1016Y858D02*
X1021Y858D01*
X1095Y858D02*
X1115Y858D01*
X1135Y858D02*
X1156Y858D01*
X1231Y858D02*
X1236Y858D01*
X1265Y858D02*
X1285Y858D01*
X1310Y858D02*
X1332Y858D01*
X1367Y858D02*
X1374Y858D01*
X1450Y858D02*
X1463Y858D01*
X1481Y858D02*
X1507Y858D01*
X1529Y858D02*
X1550Y858D01*
X1581Y858D02*
X1595Y858D01*
X1615Y858D02*
X1620Y858D01*
X1631Y858D02*
X1636Y858D01*
X1702Y858D02*
X1727Y858D01*
X1745Y858D02*
X1771Y858D01*
X1800Y858D02*
X1814Y858D01*
X1831Y858D02*
X1837Y858D01*
X1843Y858D02*
X1849Y858D01*
X1855Y858D02*
X1861Y858D01*
X2747Y858D02*
X2754Y858D01*
X0Y857D02*
X7Y857D01*
X705Y857D02*
X710Y857D01*
X739Y857D02*
X760Y857D01*
X781Y857D02*
X786Y857D01*
X805Y857D02*
X810Y857D01*
X827Y857D02*
X851Y857D01*
X870Y857D02*
X889Y857D01*
X892Y857D02*
X898Y857D01*
X916Y857D02*
X941Y857D01*
X960Y857D02*
X985Y857D01*
X1007Y857D02*
X1013Y857D01*
X1016Y857D02*
X1021Y857D01*
X1095Y857D02*
X1114Y857D01*
X1134Y857D02*
X1158Y857D01*
X1231Y857D02*
X1236Y857D01*
X1264Y857D02*
X1285Y857D01*
X1309Y857D02*
X1333Y857D01*
X1366Y857D02*
X1373Y857D01*
X1449Y857D02*
X1464Y857D01*
X1481Y857D02*
X1508Y857D01*
X1528Y857D02*
X1551Y857D01*
X1581Y857D02*
X1594Y857D01*
X1614Y857D02*
X1620Y857D01*
X1631Y857D02*
X1636Y857D01*
X1701Y857D02*
X1728Y857D01*
X1745Y857D02*
X1772Y857D01*
X1800Y857D02*
X1813Y857D01*
X1831Y857D02*
X1837Y857D01*
X1843Y857D02*
X1849Y857D01*
X1855Y857D02*
X1861Y857D01*
X2747Y857D02*
X2754Y857D01*
X0Y856D02*
X7Y856D01*
X705Y856D02*
X710Y856D01*
X739Y856D02*
X759Y856D01*
X781Y856D02*
X786Y856D01*
X805Y856D02*
X810Y856D01*
X826Y856D02*
X852Y856D01*
X869Y856D02*
X890Y856D01*
X892Y856D02*
X898Y856D01*
X915Y856D02*
X924Y856D01*
X930Y856D02*
X941Y856D01*
X959Y856D02*
X967Y856D01*
X974Y856D02*
X985Y856D01*
X1007Y856D02*
X1013Y856D01*
X1016Y856D02*
X1021Y856D01*
X1096Y856D02*
X1114Y856D01*
X1133Y856D02*
X1158Y856D01*
X1231Y856D02*
X1236Y856D01*
X1264Y856D02*
X1284Y856D01*
X1308Y856D02*
X1333Y856D01*
X1365Y856D02*
X1372Y856D01*
X1448Y856D02*
X1465Y856D01*
X1481Y856D02*
X1509Y856D01*
X1527Y856D02*
X1552Y856D01*
X1581Y856D02*
X1593Y856D01*
X1614Y856D02*
X1619Y856D01*
X1631Y856D02*
X1636Y856D01*
X1701Y856D02*
X1728Y856D01*
X1745Y856D02*
X1772Y856D01*
X1800Y856D02*
X1812Y856D01*
X1831Y856D02*
X1837Y856D01*
X1843Y856D02*
X1849Y856D01*
X1855Y856D02*
X1861Y856D01*
X2747Y856D02*
X2754Y856D01*
X0Y855D02*
X7Y855D01*
X705Y855D02*
X710Y855D01*
X738Y855D02*
X744Y855D01*
X781Y855D02*
X786Y855D01*
X805Y855D02*
X810Y855D01*
X826Y855D02*
X833Y855D01*
X845Y855D02*
X852Y855D01*
X869Y855D02*
X875Y855D01*
X883Y855D02*
X898Y855D01*
X914Y855D02*
X922Y855D01*
X931Y855D02*
X941Y855D01*
X958Y855D02*
X966Y855D01*
X975Y855D02*
X985Y855D01*
X1007Y855D02*
X1012Y855D01*
X1016Y855D02*
X1022Y855D01*
X1104Y855D02*
X1109Y855D01*
X1132Y855D02*
X1140Y855D01*
X1152Y855D02*
X1159Y855D01*
X1231Y855D02*
X1236Y855D01*
X1263Y855D02*
X1270Y855D01*
X1307Y855D02*
X1315Y855D01*
X1327Y855D02*
X1334Y855D01*
X1364Y855D02*
X1371Y855D01*
X1458Y855D02*
X1465Y855D01*
X1481Y855D02*
X1493Y855D01*
X1502Y855D02*
X1509Y855D01*
X1526Y855D02*
X1534Y855D01*
X1546Y855D02*
X1553Y855D01*
X1581Y855D02*
X1586Y855D01*
X1613Y855D02*
X1619Y855D01*
X1631Y855D02*
X1636Y855D01*
X1701Y855D02*
X1706Y855D01*
X1723Y855D02*
X1728Y855D01*
X1745Y855D02*
X1750Y855D01*
X1767Y855D02*
X1772Y855D01*
X1800Y855D02*
X1805Y855D01*
X1831Y855D02*
X1837Y855D01*
X1844Y855D02*
X1848Y855D01*
X1855Y855D02*
X1861Y855D01*
X2747Y855D02*
X2754Y855D01*
X0Y854D02*
X7Y854D01*
X705Y854D02*
X710Y854D01*
X738Y854D02*
X743Y854D01*
X781Y854D02*
X786Y854D01*
X805Y854D02*
X810Y854D01*
X825Y854D02*
X832Y854D01*
X846Y854D02*
X853Y854D01*
X869Y854D02*
X874Y854D01*
X884Y854D02*
X898Y854D01*
X914Y854D02*
X921Y854D01*
X932Y854D02*
X941Y854D01*
X957Y854D02*
X965Y854D01*
X976Y854D02*
X985Y854D01*
X1007Y854D02*
X1012Y854D01*
X1017Y854D02*
X1022Y854D01*
X1104Y854D02*
X1109Y854D01*
X1132Y854D02*
X1138Y854D01*
X1153Y854D02*
X1159Y854D01*
X1231Y854D02*
X1236Y854D01*
X1263Y854D02*
X1269Y854D01*
X1307Y854D02*
X1313Y854D01*
X1328Y854D02*
X1335Y854D01*
X1364Y854D02*
X1370Y854D01*
X1459Y854D02*
X1466Y854D01*
X1481Y854D02*
X1492Y854D01*
X1503Y854D02*
X1510Y854D01*
X1526Y854D02*
X1532Y854D01*
X1547Y854D02*
X1553Y854D01*
X1581Y854D02*
X1586Y854D01*
X1613Y854D02*
X1618Y854D01*
X1631Y854D02*
X1636Y854D01*
X1702Y854D02*
X1705Y854D01*
X1723Y854D02*
X1728Y854D01*
X1745Y854D02*
X1749Y854D01*
X1767Y854D02*
X1772Y854D01*
X1800Y854D02*
X1805Y854D01*
X1831Y854D02*
X1837Y854D01*
X1844Y854D02*
X1848Y854D01*
X1855Y854D02*
X1861Y854D01*
X2747Y854D02*
X2754Y854D01*
X0Y853D02*
X7Y853D01*
X705Y853D02*
X710Y853D01*
X738Y853D02*
X743Y853D01*
X781Y853D02*
X786Y853D01*
X804Y853D02*
X810Y853D01*
X825Y853D02*
X831Y853D01*
X847Y853D02*
X853Y853D01*
X868Y853D02*
X874Y853D01*
X885Y853D02*
X898Y853D01*
X913Y853D02*
X920Y853D01*
X933Y853D02*
X941Y853D01*
X957Y853D02*
X964Y853D01*
X977Y853D02*
X985Y853D01*
X1006Y853D02*
X1012Y853D01*
X1017Y853D02*
X1022Y853D01*
X1104Y853D02*
X1109Y853D01*
X1131Y853D02*
X1137Y853D01*
X1154Y853D02*
X1160Y853D01*
X1231Y853D02*
X1236Y853D01*
X1263Y853D02*
X1268Y853D01*
X1306Y853D02*
X1312Y853D01*
X1329Y853D02*
X1335Y853D01*
X1363Y853D02*
X1370Y853D01*
X1460Y853D02*
X1466Y853D01*
X1481Y853D02*
X1491Y853D01*
X1504Y853D02*
X1510Y853D01*
X1525Y853D02*
X1531Y853D01*
X1548Y853D02*
X1554Y853D01*
X1581Y853D02*
X1586Y853D01*
X1613Y853D02*
X1618Y853D01*
X1631Y853D02*
X1636Y853D01*
X1703Y853D02*
X1703Y853D01*
X1723Y853D02*
X1728Y853D01*
X1747Y853D02*
X1747Y853D01*
X1767Y853D02*
X1772Y853D01*
X1800Y853D02*
X1805Y853D01*
X1831Y853D02*
X1837Y853D01*
X1846Y853D02*
X1846Y853D01*
X1855Y853D02*
X1861Y853D01*
X2747Y853D02*
X2754Y853D01*
X0Y852D02*
X7Y852D01*
X705Y852D02*
X710Y852D01*
X738Y852D02*
X743Y852D01*
X781Y852D02*
X787Y852D01*
X804Y852D02*
X810Y852D01*
X825Y852D02*
X830Y852D01*
X848Y852D02*
X854Y852D01*
X868Y852D02*
X873Y852D01*
X886Y852D02*
X898Y852D01*
X913Y852D02*
X919Y852D01*
X934Y852D02*
X941Y852D01*
X956Y852D02*
X963Y852D01*
X978Y852D02*
X985Y852D01*
X1006Y852D02*
X1011Y852D01*
X1017Y852D02*
X1023Y852D01*
X1104Y852D02*
X1109Y852D01*
X1131Y852D02*
X1137Y852D01*
X1155Y852D02*
X1160Y852D01*
X1231Y852D02*
X1236Y852D01*
X1263Y852D02*
X1268Y852D01*
X1306Y852D02*
X1312Y852D01*
X1330Y852D02*
X1335Y852D01*
X1362Y852D02*
X1369Y852D01*
X1461Y852D02*
X1466Y852D01*
X1481Y852D02*
X1489Y852D01*
X1505Y852D02*
X1510Y852D01*
X1525Y852D02*
X1531Y852D01*
X1549Y852D02*
X1554Y852D01*
X1581Y852D02*
X1586Y852D01*
X1613Y852D02*
X1618Y852D01*
X1631Y852D02*
X1636Y852D01*
X1722Y852D02*
X1728Y852D01*
X1766Y852D02*
X1772Y852D01*
X1800Y852D02*
X1805Y852D01*
X1831Y852D02*
X1837Y852D01*
X1855Y852D02*
X1861Y852D01*
X2747Y852D02*
X2754Y852D01*
X0Y851D02*
X7Y851D01*
X705Y851D02*
X710Y851D01*
X738Y851D02*
X743Y851D01*
X782Y851D02*
X787Y851D01*
X804Y851D02*
X809Y851D01*
X825Y851D02*
X830Y851D01*
X849Y851D02*
X854Y851D01*
X868Y851D02*
X873Y851D01*
X888Y851D02*
X898Y851D01*
X912Y851D02*
X918Y851D01*
X935Y851D02*
X941Y851D01*
X956Y851D02*
X962Y851D01*
X979Y851D02*
X985Y851D01*
X1006Y851D02*
X1011Y851D01*
X1018Y851D02*
X1023Y851D01*
X1104Y851D02*
X1109Y851D01*
X1131Y851D02*
X1136Y851D01*
X1155Y851D02*
X1160Y851D01*
X1231Y851D02*
X1236Y851D01*
X1263Y851D02*
X1268Y851D01*
X1306Y851D02*
X1311Y851D01*
X1330Y851D02*
X1335Y851D01*
X1361Y851D02*
X1368Y851D01*
X1443Y851D02*
X1443Y851D01*
X1461Y851D02*
X1467Y851D01*
X1481Y851D02*
X1488Y851D01*
X1505Y851D02*
X1510Y851D01*
X1525Y851D02*
X1530Y851D01*
X1549Y851D02*
X1554Y851D01*
X1581Y851D02*
X1586Y851D01*
X1613Y851D02*
X1618Y851D01*
X1631Y851D02*
X1636Y851D01*
X1720Y851D02*
X1728Y851D01*
X1763Y851D02*
X1772Y851D01*
X1800Y851D02*
X1805Y851D01*
X1831Y851D02*
X1837Y851D01*
X1855Y851D02*
X1861Y851D01*
X2747Y851D02*
X2754Y851D01*
X0Y850D02*
X7Y850D01*
X705Y850D02*
X710Y850D01*
X738Y850D02*
X743Y850D01*
X782Y850D02*
X788Y850D01*
X803Y850D02*
X809Y850D01*
X825Y850D02*
X830Y850D01*
X849Y850D02*
X854Y850D01*
X869Y850D02*
X873Y850D01*
X889Y850D02*
X898Y850D01*
X912Y850D02*
X917Y850D01*
X936Y850D02*
X941Y850D01*
X956Y850D02*
X961Y850D01*
X979Y850D02*
X985Y850D01*
X1005Y850D02*
X1011Y850D01*
X1018Y850D02*
X1023Y850D01*
X1104Y850D02*
X1109Y850D01*
X1131Y850D02*
X1136Y850D01*
X1155Y850D02*
X1160Y850D01*
X1231Y850D02*
X1236Y850D01*
X1263Y850D02*
X1268Y850D01*
X1306Y850D02*
X1311Y850D01*
X1330Y850D02*
X1335Y850D01*
X1361Y850D02*
X1367Y850D01*
X1441Y850D02*
X1443Y850D01*
X1461Y850D02*
X1467Y850D01*
X1481Y850D02*
X1487Y850D01*
X1505Y850D02*
X1510Y850D01*
X1525Y850D02*
X1530Y850D01*
X1549Y850D02*
X1554Y850D01*
X1581Y850D02*
X1586Y850D01*
X1613Y850D02*
X1618Y850D01*
X1631Y850D02*
X1636Y850D01*
X1717Y850D02*
X1727Y850D01*
X1761Y850D02*
X1771Y850D01*
X1800Y850D02*
X1805Y850D01*
X1831Y850D02*
X1837Y850D01*
X1855Y850D02*
X1861Y850D01*
X2747Y850D02*
X2754Y850D01*
X0Y849D02*
X7Y849D01*
X705Y849D02*
X710Y849D01*
X738Y849D02*
X743Y849D01*
X782Y849D02*
X788Y849D01*
X803Y849D02*
X808Y849D01*
X825Y849D02*
X830Y849D01*
X849Y849D02*
X854Y849D01*
X869Y849D02*
X873Y849D01*
X890Y849D02*
X898Y849D01*
X912Y849D02*
X917Y849D01*
X936Y849D02*
X941Y849D01*
X956Y849D02*
X961Y849D01*
X980Y849D02*
X985Y849D01*
X1005Y849D02*
X1010Y849D01*
X1018Y849D02*
X1024Y849D01*
X1104Y849D02*
X1109Y849D01*
X1131Y849D02*
X1136Y849D01*
X1155Y849D02*
X1160Y849D01*
X1231Y849D02*
X1236Y849D01*
X1263Y849D02*
X1268Y849D01*
X1306Y849D02*
X1311Y849D01*
X1330Y849D02*
X1335Y849D01*
X1360Y849D02*
X1367Y849D01*
X1440Y849D02*
X1443Y849D01*
X1461Y849D02*
X1467Y849D01*
X1481Y849D02*
X1487Y849D01*
X1505Y849D02*
X1510Y849D01*
X1525Y849D02*
X1530Y849D01*
X1549Y849D02*
X1554Y849D01*
X1581Y849D02*
X1586Y849D01*
X1613Y849D02*
X1618Y849D01*
X1631Y849D02*
X1636Y849D01*
X1715Y849D02*
X1727Y849D01*
X1759Y849D02*
X1770Y849D01*
X1800Y849D02*
X1805Y849D01*
X1831Y849D02*
X1837Y849D01*
X1855Y849D02*
X1861Y849D01*
X2747Y849D02*
X2754Y849D01*
X0Y848D02*
X7Y848D01*
X705Y848D02*
X710Y848D01*
X738Y848D02*
X761Y848D01*
X783Y848D02*
X789Y848D01*
X802Y848D02*
X808Y848D01*
X825Y848D02*
X830Y848D01*
X849Y848D02*
X854Y848D01*
X870Y848D02*
X871Y848D01*
X891Y848D02*
X898Y848D01*
X912Y848D02*
X917Y848D01*
X936Y848D02*
X941Y848D01*
X956Y848D02*
X961Y848D01*
X980Y848D02*
X985Y848D01*
X1005Y848D02*
X1010Y848D01*
X1018Y848D02*
X1024Y848D01*
X1104Y848D02*
X1109Y848D01*
X1131Y848D02*
X1136Y848D01*
X1155Y848D02*
X1160Y848D01*
X1231Y848D02*
X1236Y848D01*
X1263Y848D02*
X1286Y848D01*
X1306Y848D02*
X1311Y848D01*
X1330Y848D02*
X1335Y848D01*
X1359Y848D02*
X1366Y848D01*
X1438Y848D02*
X1443Y848D01*
X1461Y848D02*
X1467Y848D01*
X1481Y848D02*
X1486Y848D01*
X1505Y848D02*
X1510Y848D01*
X1525Y848D02*
X1530Y848D01*
X1549Y848D02*
X1554Y848D01*
X1581Y848D02*
X1586Y848D01*
X1613Y848D02*
X1618Y848D01*
X1631Y848D02*
X1636Y848D01*
X1713Y848D02*
X1726Y848D01*
X1756Y848D02*
X1770Y848D01*
X1800Y848D02*
X1805Y848D01*
X1831Y848D02*
X1837Y848D01*
X1855Y848D02*
X1861Y848D01*
X2747Y848D02*
X2754Y848D01*
X0Y847D02*
X7Y847D01*
X705Y847D02*
X710Y847D01*
X738Y847D02*
X762Y847D01*
X783Y847D02*
X789Y847D01*
X802Y847D02*
X807Y847D01*
X825Y847D02*
X830Y847D01*
X849Y847D02*
X854Y847D01*
X892Y847D02*
X898Y847D01*
X912Y847D02*
X917Y847D01*
X936Y847D02*
X941Y847D01*
X956Y847D02*
X961Y847D01*
X980Y847D02*
X985Y847D01*
X1004Y847D02*
X1010Y847D01*
X1019Y847D02*
X1024Y847D01*
X1104Y847D02*
X1109Y847D01*
X1131Y847D02*
X1136Y847D01*
X1155Y847D02*
X1160Y847D01*
X1231Y847D02*
X1236Y847D01*
X1263Y847D02*
X1288Y847D01*
X1306Y847D02*
X1311Y847D01*
X1330Y847D02*
X1335Y847D01*
X1358Y847D02*
X1365Y847D01*
X1437Y847D02*
X1443Y847D01*
X1461Y847D02*
X1467Y847D01*
X1481Y847D02*
X1486Y847D01*
X1505Y847D02*
X1510Y847D01*
X1525Y847D02*
X1530Y847D01*
X1549Y847D02*
X1554Y847D01*
X1581Y847D02*
X1586Y847D01*
X1613Y847D02*
X1619Y847D01*
X1631Y847D02*
X1636Y847D01*
X1710Y847D02*
X1724Y847D01*
X1754Y847D02*
X1768Y847D01*
X1800Y847D02*
X1805Y847D01*
X1831Y847D02*
X1837Y847D01*
X1855Y847D02*
X1861Y847D01*
X2747Y847D02*
X2754Y847D01*
X0Y846D02*
X7Y846D01*
X705Y846D02*
X710Y846D01*
X738Y846D02*
X764Y846D01*
X784Y846D02*
X789Y846D01*
X801Y846D02*
X807Y846D01*
X825Y846D02*
X830Y846D01*
X849Y846D02*
X854Y846D01*
X892Y846D02*
X898Y846D01*
X912Y846D02*
X917Y846D01*
X936Y846D02*
X941Y846D01*
X956Y846D02*
X961Y846D01*
X980Y846D02*
X985Y846D01*
X1004Y846D02*
X1010Y846D01*
X1019Y846D02*
X1024Y846D01*
X1104Y846D02*
X1109Y846D01*
X1131Y846D02*
X1136Y846D01*
X1155Y846D02*
X1160Y846D01*
X1231Y846D02*
X1236Y846D01*
X1263Y846D02*
X1289Y846D01*
X1306Y846D02*
X1335Y846D01*
X1357Y846D02*
X1364Y846D01*
X1437Y846D02*
X1467Y846D01*
X1481Y846D02*
X1486Y846D01*
X1505Y846D02*
X1510Y846D01*
X1525Y846D02*
X1530Y846D01*
X1549Y846D02*
X1554Y846D01*
X1581Y846D02*
X1586Y846D01*
X1614Y846D02*
X1619Y846D01*
X1631Y846D02*
X1636Y846D01*
X1708Y846D02*
X1722Y846D01*
X1752Y846D02*
X1766Y846D01*
X1800Y846D02*
X1805Y846D01*
X1831Y846D02*
X1837Y846D01*
X1855Y846D02*
X1861Y846D01*
X2747Y846D02*
X2754Y846D01*
X0Y845D02*
X7Y845D01*
X705Y845D02*
X710Y845D01*
X738Y845D02*
X764Y845D01*
X784Y845D02*
X790Y845D01*
X801Y845D02*
X807Y845D01*
X825Y845D02*
X830Y845D01*
X849Y845D02*
X854Y845D01*
X892Y845D02*
X898Y845D01*
X912Y845D02*
X917Y845D01*
X936Y845D02*
X941Y845D01*
X956Y845D02*
X961Y845D01*
X980Y845D02*
X985Y845D01*
X1004Y845D02*
X1009Y845D01*
X1019Y845D02*
X1025Y845D01*
X1104Y845D02*
X1109Y845D01*
X1131Y845D02*
X1136Y845D01*
X1155Y845D02*
X1160Y845D01*
X1231Y845D02*
X1236Y845D01*
X1263Y845D02*
X1290Y845D01*
X1306Y845D02*
X1335Y845D01*
X1357Y845D02*
X1363Y845D01*
X1437Y845D02*
X1467Y845D01*
X1481Y845D02*
X1486Y845D01*
X1505Y845D02*
X1510Y845D01*
X1525Y845D02*
X1530Y845D01*
X1549Y845D02*
X1554Y845D01*
X1581Y845D02*
X1586Y845D01*
X1614Y845D02*
X1620Y845D01*
X1631Y845D02*
X1636Y845D01*
X1706Y845D02*
X1720Y845D01*
X1750Y845D02*
X1764Y845D01*
X1800Y845D02*
X1805Y845D01*
X1831Y845D02*
X1837Y845D01*
X1855Y845D02*
X1861Y845D01*
X2747Y845D02*
X2754Y845D01*
X0Y844D02*
X7Y844D01*
X705Y844D02*
X710Y844D01*
X738Y844D02*
X765Y844D01*
X785Y844D02*
X790Y844D01*
X801Y844D02*
X806Y844D01*
X825Y844D02*
X830Y844D01*
X849Y844D02*
X854Y844D01*
X892Y844D02*
X898Y844D01*
X912Y844D02*
X917Y844D01*
X936Y844D02*
X941Y844D01*
X956Y844D02*
X961Y844D01*
X980Y844D02*
X985Y844D01*
X1004Y844D02*
X1009Y844D01*
X1020Y844D02*
X1025Y844D01*
X1104Y844D02*
X1109Y844D01*
X1131Y844D02*
X1136Y844D01*
X1155Y844D02*
X1160Y844D01*
X1231Y844D02*
X1236Y844D01*
X1263Y844D02*
X1290Y844D01*
X1306Y844D02*
X1335Y844D01*
X1356Y844D02*
X1363Y844D01*
X1437Y844D02*
X1467Y844D01*
X1481Y844D02*
X1486Y844D01*
X1505Y844D02*
X1510Y844D01*
X1525Y844D02*
X1530Y844D01*
X1549Y844D02*
X1554Y844D01*
X1581Y844D02*
X1586Y844D01*
X1614Y844D02*
X1620Y844D01*
X1631Y844D02*
X1636Y844D01*
X1704Y844D02*
X1718Y844D01*
X1748Y844D02*
X1761Y844D01*
X1800Y844D02*
X1805Y844D01*
X1831Y844D02*
X1837Y844D01*
X1855Y844D02*
X1861Y844D01*
X2747Y844D02*
X2754Y844D01*
X0Y843D02*
X7Y843D01*
X705Y843D02*
X710Y843D01*
X737Y843D02*
X766Y843D01*
X785Y843D02*
X791Y843D01*
X800Y843D02*
X806Y843D01*
X825Y843D02*
X830Y843D01*
X849Y843D02*
X854Y843D01*
X892Y843D02*
X898Y843D01*
X912Y843D02*
X917Y843D01*
X936Y843D02*
X941Y843D01*
X956Y843D02*
X961Y843D01*
X980Y843D02*
X985Y843D01*
X1003Y843D02*
X1025Y843D01*
X1104Y843D02*
X1109Y843D01*
X1131Y843D02*
X1136Y843D01*
X1155Y843D02*
X1160Y843D01*
X1231Y843D02*
X1236Y843D01*
X1263Y843D02*
X1291Y843D01*
X1306Y843D02*
X1335Y843D01*
X1355Y843D02*
X1362Y843D01*
X1437Y843D02*
X1467Y843D01*
X1481Y843D02*
X1486Y843D01*
X1505Y843D02*
X1510Y843D01*
X1525Y843D02*
X1530Y843D01*
X1549Y843D02*
X1554Y843D01*
X1581Y843D02*
X1586Y843D01*
X1615Y843D02*
X1621Y843D01*
X1631Y843D02*
X1636Y843D01*
X1703Y843D02*
X1715Y843D01*
X1747Y843D02*
X1759Y843D01*
X1800Y843D02*
X1805Y843D01*
X1831Y843D02*
X1837Y843D01*
X1855Y843D02*
X1861Y843D01*
X2747Y843D02*
X2754Y843D01*
X0Y842D02*
X7Y842D01*
X705Y842D02*
X710Y842D01*
X737Y842D02*
X744Y842D01*
X760Y842D02*
X766Y842D01*
X786Y842D02*
X791Y842D01*
X800Y842D02*
X805Y842D01*
X825Y842D02*
X830Y842D01*
X849Y842D02*
X854Y842D01*
X892Y842D02*
X898Y842D01*
X912Y842D02*
X917Y842D01*
X936Y842D02*
X941Y842D01*
X956Y842D02*
X961Y842D01*
X980Y842D02*
X985Y842D01*
X1003Y842D02*
X1026Y842D01*
X1104Y842D02*
X1109Y842D01*
X1131Y842D02*
X1136Y842D01*
X1155Y842D02*
X1160Y842D01*
X1231Y842D02*
X1236Y842D01*
X1263Y842D02*
X1269Y842D01*
X1285Y842D02*
X1291Y842D01*
X1306Y842D02*
X1335Y842D01*
X1354Y842D02*
X1361Y842D01*
X1438Y842D02*
X1467Y842D01*
X1481Y842D02*
X1486Y842D01*
X1505Y842D02*
X1510Y842D01*
X1525Y842D02*
X1530Y842D01*
X1549Y842D02*
X1554Y842D01*
X1581Y842D02*
X1586Y842D01*
X1615Y842D02*
X1621Y842D01*
X1631Y842D02*
X1636Y842D01*
X1702Y842D02*
X1713Y842D01*
X1746Y842D02*
X1757Y842D01*
X1800Y842D02*
X1805Y842D01*
X1831Y842D02*
X1837Y842D01*
X1855Y842D02*
X1861Y842D01*
X2747Y842D02*
X2754Y842D01*
X0Y841D02*
X7Y841D01*
X705Y841D02*
X710Y841D01*
X737Y841D02*
X743Y841D01*
X761Y841D02*
X766Y841D01*
X786Y841D02*
X792Y841D01*
X799Y841D02*
X805Y841D01*
X825Y841D02*
X830Y841D01*
X849Y841D02*
X854Y841D01*
X892Y841D02*
X898Y841D01*
X912Y841D02*
X917Y841D01*
X936Y841D02*
X941Y841D01*
X956Y841D02*
X961Y841D01*
X980Y841D02*
X985Y841D01*
X1003Y841D02*
X1026Y841D01*
X1104Y841D02*
X1109Y841D01*
X1131Y841D02*
X1136Y841D01*
X1155Y841D02*
X1160Y841D01*
X1231Y841D02*
X1236Y841D01*
X1263Y841D02*
X1268Y841D01*
X1286Y841D02*
X1291Y841D01*
X1307Y841D02*
X1335Y841D01*
X1354Y841D02*
X1360Y841D01*
X1438Y841D02*
X1467Y841D01*
X1481Y841D02*
X1486Y841D01*
X1505Y841D02*
X1510Y841D01*
X1525Y841D02*
X1530Y841D01*
X1549Y841D02*
X1554Y841D01*
X1581Y841D02*
X1586Y841D01*
X1616Y841D02*
X1622Y841D01*
X1631Y841D02*
X1636Y841D01*
X1701Y841D02*
X1711Y841D01*
X1745Y841D02*
X1755Y841D01*
X1800Y841D02*
X1805Y841D01*
X1831Y841D02*
X1837Y841D01*
X1855Y841D02*
X1861Y841D01*
X2747Y841D02*
X2754Y841D01*
X0Y840D02*
X7Y840D01*
X705Y840D02*
X710Y840D01*
X737Y840D02*
X743Y840D01*
X761Y840D02*
X766Y840D01*
X786Y840D02*
X792Y840D01*
X799Y840D02*
X804Y840D01*
X825Y840D02*
X830Y840D01*
X849Y840D02*
X854Y840D01*
X892Y840D02*
X898Y840D01*
X912Y840D02*
X917Y840D01*
X936Y840D02*
X941Y840D01*
X956Y840D02*
X961Y840D01*
X980Y840D02*
X985Y840D01*
X1002Y840D02*
X1026Y840D01*
X1104Y840D02*
X1109Y840D01*
X1131Y840D02*
X1136Y840D01*
X1155Y840D02*
X1160Y840D01*
X1231Y840D02*
X1236Y840D01*
X1263Y840D02*
X1268Y840D01*
X1286Y840D02*
X1291Y840D01*
X1330Y840D02*
X1335Y840D01*
X1353Y840D02*
X1360Y840D01*
X1461Y840D02*
X1467Y840D01*
X1481Y840D02*
X1487Y840D01*
X1505Y840D02*
X1510Y840D01*
X1525Y840D02*
X1530Y840D01*
X1549Y840D02*
X1554Y840D01*
X1581Y840D02*
X1586Y840D01*
X1616Y840D02*
X1622Y840D01*
X1631Y840D02*
X1636Y840D01*
X1701Y840D02*
X1708Y840D01*
X1745Y840D02*
X1752Y840D01*
X1800Y840D02*
X1805Y840D01*
X1831Y840D02*
X1837Y840D01*
X1855Y840D02*
X1861Y840D01*
X2747Y840D02*
X2754Y840D01*
X0Y839D02*
X7Y839D01*
X705Y839D02*
X710Y839D01*
X737Y839D02*
X743Y839D01*
X761Y839D02*
X766Y839D01*
X787Y839D02*
X793Y839D01*
X798Y839D02*
X804Y839D01*
X825Y839D02*
X830Y839D01*
X849Y839D02*
X854Y839D01*
X892Y839D02*
X898Y839D01*
X912Y839D02*
X917Y839D01*
X936Y839D02*
X941Y839D01*
X956Y839D02*
X961Y839D01*
X980Y839D02*
X985Y839D01*
X1002Y839D02*
X1026Y839D01*
X1104Y839D02*
X1109Y839D01*
X1131Y839D02*
X1136Y839D01*
X1155Y839D02*
X1160Y839D01*
X1231Y839D02*
X1236Y839D01*
X1263Y839D02*
X1268Y839D01*
X1286Y839D02*
X1292Y839D01*
X1330Y839D02*
X1335Y839D01*
X1352Y839D02*
X1359Y839D01*
X1461Y839D02*
X1467Y839D01*
X1481Y839D02*
X1487Y839D01*
X1505Y839D02*
X1510Y839D01*
X1525Y839D02*
X1530Y839D01*
X1549Y839D02*
X1554Y839D01*
X1581Y839D02*
X1586Y839D01*
X1617Y839D02*
X1623Y839D01*
X1631Y839D02*
X1636Y839D01*
X1701Y839D02*
X1707Y839D01*
X1744Y839D02*
X1750Y839D01*
X1800Y839D02*
X1805Y839D01*
X1831Y839D02*
X1837Y839D01*
X1855Y839D02*
X1861Y839D01*
X2747Y839D02*
X2754Y839D01*
X0Y838D02*
X7Y838D01*
X705Y838D02*
X710Y838D01*
X737Y838D02*
X743Y838D01*
X761Y838D02*
X766Y838D01*
X787Y838D02*
X793Y838D01*
X798Y838D02*
X804Y838D01*
X825Y838D02*
X830Y838D01*
X849Y838D02*
X854Y838D01*
X892Y838D02*
X898Y838D01*
X912Y838D02*
X918Y838D01*
X935Y838D02*
X941Y838D01*
X956Y838D02*
X961Y838D01*
X979Y838D02*
X985Y838D01*
X1002Y838D02*
X1027Y838D01*
X1104Y838D02*
X1109Y838D01*
X1131Y838D02*
X1136Y838D01*
X1155Y838D02*
X1160Y838D01*
X1231Y838D02*
X1236Y838D01*
X1263Y838D02*
X1268Y838D01*
X1286Y838D02*
X1292Y838D01*
X1330Y838D02*
X1335Y838D01*
X1351Y838D02*
X1358Y838D01*
X1376Y838D02*
X1378Y838D01*
X1461Y838D02*
X1467Y838D01*
X1481Y838D02*
X1488Y838D01*
X1505Y838D02*
X1510Y838D01*
X1525Y838D02*
X1530Y838D01*
X1549Y838D02*
X1554Y838D01*
X1581Y838D02*
X1586Y838D01*
X1617Y838D02*
X1623Y838D01*
X1631Y838D02*
X1636Y838D01*
X1700Y838D02*
X1706Y838D01*
X1744Y838D02*
X1749Y838D01*
X1800Y838D02*
X1805Y838D01*
X1831Y838D02*
X1837Y838D01*
X1855Y838D02*
X1861Y838D01*
X2747Y838D02*
X2754Y838D01*
X0Y837D02*
X7Y837D01*
X705Y837D02*
X710Y837D01*
X737Y837D02*
X743Y837D01*
X761Y837D02*
X766Y837D01*
X788Y837D02*
X793Y837D01*
X797Y837D02*
X803Y837D01*
X825Y837D02*
X830Y837D01*
X848Y837D02*
X854Y837D01*
X892Y837D02*
X898Y837D01*
X913Y837D02*
X919Y837D01*
X934Y837D02*
X941Y837D01*
X956Y837D02*
X962Y837D01*
X978Y837D02*
X985Y837D01*
X1002Y837D02*
X1007Y837D01*
X1022Y837D02*
X1027Y837D01*
X1104Y837D02*
X1109Y837D01*
X1131Y837D02*
X1136Y837D01*
X1155Y837D02*
X1160Y837D01*
X1231Y837D02*
X1236Y837D01*
X1263Y837D02*
X1268Y837D01*
X1286Y837D02*
X1292Y837D01*
X1330Y837D02*
X1335Y837D01*
X1351Y837D02*
X1357Y837D01*
X1374Y837D02*
X1379Y837D01*
X1461Y837D02*
X1466Y837D01*
X1481Y837D02*
X1489Y837D01*
X1505Y837D02*
X1510Y837D01*
X1525Y837D02*
X1530Y837D01*
X1549Y837D02*
X1554Y837D01*
X1581Y837D02*
X1586Y837D01*
X1618Y837D02*
X1624Y837D01*
X1631Y837D02*
X1636Y837D01*
X1700Y837D02*
X1705Y837D01*
X1744Y837D02*
X1749Y837D01*
X1800Y837D02*
X1805Y837D01*
X1831Y837D02*
X1837Y837D01*
X1855Y837D02*
X1861Y837D01*
X2747Y837D02*
X2754Y837D01*
X0Y836D02*
X7Y836D01*
X705Y836D02*
X710Y836D01*
X737Y836D02*
X744Y836D01*
X761Y836D02*
X766Y836D01*
X788Y836D02*
X794Y836D01*
X797Y836D02*
X803Y836D01*
X825Y836D02*
X831Y836D01*
X848Y836D02*
X853Y836D01*
X892Y836D02*
X898Y836D01*
X913Y836D02*
X920Y836D01*
X933Y836D02*
X941Y836D01*
X957Y836D02*
X964Y836D01*
X977Y836D02*
X985Y836D01*
X1001Y836D02*
X1007Y836D01*
X1022Y836D02*
X1027Y836D01*
X1104Y836D02*
X1109Y836D01*
X1131Y836D02*
X1137Y836D01*
X1154Y836D02*
X1160Y836D01*
X1231Y836D02*
X1236Y836D01*
X1263Y836D02*
X1270Y836D01*
X1286Y836D02*
X1291Y836D01*
X1329Y836D02*
X1335Y836D01*
X1350Y836D02*
X1356Y836D01*
X1374Y836D02*
X1379Y836D01*
X1461Y836D02*
X1466Y836D01*
X1481Y836D02*
X1490Y836D01*
X1504Y836D02*
X1510Y836D01*
X1525Y836D02*
X1531Y836D01*
X1548Y836D02*
X1554Y836D01*
X1581Y836D02*
X1586Y836D01*
X1618Y836D02*
X1624Y836D01*
X1631Y836D02*
X1636Y836D01*
X1700Y836D02*
X1705Y836D01*
X1744Y836D02*
X1749Y836D01*
X1800Y836D02*
X1805Y836D01*
X1831Y836D02*
X1837Y836D01*
X1855Y836D02*
X1861Y836D01*
X2747Y836D02*
X2754Y836D01*
X0Y835D02*
X7Y835D01*
X705Y835D02*
X710Y835D01*
X737Y835D02*
X746Y835D01*
X761Y835D02*
X766Y835D01*
X789Y835D02*
X794Y835D01*
X797Y835D02*
X802Y835D01*
X825Y835D02*
X832Y835D01*
X847Y835D02*
X853Y835D01*
X892Y835D02*
X898Y835D01*
X913Y835D02*
X921Y835D01*
X932Y835D02*
X941Y835D01*
X957Y835D02*
X965Y835D01*
X976Y835D02*
X985Y835D01*
X1001Y835D02*
X1006Y835D01*
X1022Y835D02*
X1028Y835D01*
X1104Y835D02*
X1109Y835D01*
X1132Y835D02*
X1138Y835D01*
X1153Y835D02*
X1160Y835D01*
X1231Y835D02*
X1236Y835D01*
X1263Y835D02*
X1271Y835D01*
X1286Y835D02*
X1291Y835D01*
X1328Y835D02*
X1335Y835D01*
X1350Y835D02*
X1356Y835D01*
X1374Y835D02*
X1379Y835D01*
X1459Y835D02*
X1466Y835D01*
X1481Y835D02*
X1492Y835D01*
X1503Y835D02*
X1510Y835D01*
X1526Y835D02*
X1532Y835D01*
X1547Y835D02*
X1554Y835D01*
X1581Y835D02*
X1586Y835D01*
X1619Y835D02*
X1625Y835D01*
X1631Y835D02*
X1636Y835D01*
X1700Y835D02*
X1706Y835D01*
X1725Y835D02*
X1728Y835D01*
X1744Y835D02*
X1750Y835D01*
X1769Y835D02*
X1772Y835D01*
X1800Y835D02*
X1805Y835D01*
X1831Y835D02*
X1837Y835D01*
X1855Y835D02*
X1861Y835D01*
X2747Y835D02*
X2754Y835D01*
X0Y834D02*
X7Y834D01*
X705Y834D02*
X710Y834D01*
X737Y834D02*
X748Y834D01*
X760Y834D02*
X766Y834D01*
X789Y834D02*
X802Y834D01*
X826Y834D02*
X833Y834D01*
X845Y834D02*
X853Y834D01*
X892Y834D02*
X898Y834D01*
X914Y834D02*
X922Y834D01*
X931Y834D02*
X941Y834D01*
X958Y834D02*
X966Y834D01*
X975Y834D02*
X985Y834D01*
X1001Y834D02*
X1006Y834D01*
X1023Y834D02*
X1028Y834D01*
X1104Y834D02*
X1109Y834D01*
X1132Y834D02*
X1139Y834D01*
X1152Y834D02*
X1159Y834D01*
X1231Y834D02*
X1236Y834D01*
X1262Y834D02*
X1273Y834D01*
X1285Y834D02*
X1291Y834D01*
X1327Y834D02*
X1334Y834D01*
X1350Y834D02*
X1355Y834D01*
X1373Y834D02*
X1379Y834D01*
X1458Y834D02*
X1466Y834D01*
X1481Y834D02*
X1493Y834D01*
X1502Y834D02*
X1509Y834D01*
X1526Y834D02*
X1533Y834D01*
X1546Y834D02*
X1553Y834D01*
X1581Y834D02*
X1586Y834D01*
X1619Y834D02*
X1626Y834D01*
X1631Y834D02*
X1636Y834D01*
X1701Y834D02*
X1707Y834D01*
X1723Y834D02*
X1729Y834D01*
X1744Y834D02*
X1750Y834D01*
X1767Y834D02*
X1773Y834D01*
X1800Y834D02*
X1805Y834D01*
X1831Y834D02*
X1837Y834D01*
X1855Y834D02*
X1861Y834D01*
X2747Y834D02*
X2754Y834D01*
X0Y833D02*
X7Y833D01*
X698Y833D02*
X718Y833D01*
X737Y833D02*
X766Y833D01*
X789Y833D02*
X801Y833D01*
X826Y833D02*
X852Y833D01*
X892Y833D02*
X898Y833D01*
X915Y833D02*
X923Y833D01*
X930Y833D02*
X941Y833D01*
X959Y833D02*
X967Y833D01*
X974Y833D02*
X985Y833D01*
X1000Y833D02*
X1006Y833D01*
X1023Y833D02*
X1028Y833D01*
X1104Y833D02*
X1109Y833D01*
X1133Y833D02*
X1159Y833D01*
X1223Y833D02*
X1243Y833D01*
X1262Y833D02*
X1291Y833D01*
X1308Y833D02*
X1334Y833D01*
X1350Y833D02*
X1379Y833D01*
X1439Y833D02*
X1465Y833D01*
X1481Y833D02*
X1509Y833D01*
X1527Y833D02*
X1553Y833D01*
X1574Y833D02*
X1593Y833D01*
X1620Y833D02*
X1640Y833D01*
X1701Y833D02*
X1729Y833D01*
X1745Y833D02*
X1773Y833D01*
X1793Y833D02*
X1812Y833D01*
X1831Y833D02*
X1837Y833D01*
X1855Y833D02*
X1861Y833D01*
X2747Y833D02*
X2754Y833D01*
X0Y832D02*
X7Y832D01*
X697Y832D02*
X719Y832D01*
X737Y832D02*
X765Y832D01*
X790Y832D02*
X801Y832D01*
X827Y832D02*
X851Y832D01*
X892Y832D02*
X898Y832D01*
X916Y832D02*
X941Y832D01*
X960Y832D02*
X985Y832D01*
X1000Y832D02*
X1005Y832D01*
X1023Y832D02*
X1029Y832D01*
X1104Y832D02*
X1109Y832D01*
X1134Y832D02*
X1158Y832D01*
X1222Y832D02*
X1244Y832D01*
X1262Y832D02*
X1290Y832D01*
X1307Y832D02*
X1333Y832D01*
X1350Y832D02*
X1378Y832D01*
X1438Y832D02*
X1464Y832D01*
X1481Y832D02*
X1508Y832D01*
X1528Y832D02*
X1552Y832D01*
X1572Y832D02*
X1594Y832D01*
X1620Y832D02*
X1641Y832D01*
X1701Y832D02*
X1729Y832D01*
X1745Y832D02*
X1773Y832D01*
X1791Y832D02*
X1813Y832D01*
X1831Y832D02*
X1837Y832D01*
X1855Y832D02*
X1861Y832D01*
X2747Y832D02*
X2754Y832D01*
X0Y831D02*
X7Y831D01*
X696Y831D02*
X719Y831D01*
X737Y831D02*
X764Y831D01*
X790Y831D02*
X800Y831D01*
X828Y831D02*
X850Y831D01*
X892Y831D02*
X898Y831D01*
X917Y831D02*
X941Y831D01*
X961Y831D02*
X985Y831D01*
X1000Y831D02*
X1005Y831D01*
X1023Y831D02*
X1029Y831D01*
X1104Y831D02*
X1109Y831D01*
X1135Y831D02*
X1157Y831D01*
X1222Y831D02*
X1245Y831D01*
X1262Y831D02*
X1290Y831D01*
X1306Y831D02*
X1332Y831D01*
X1351Y831D02*
X1378Y831D01*
X1438Y831D02*
X1463Y831D01*
X1481Y831D02*
X1507Y831D01*
X1529Y831D02*
X1551Y831D01*
X1572Y831D02*
X1595Y831D01*
X1621Y831D02*
X1642Y831D01*
X1702Y831D02*
X1729Y831D01*
X1746Y831D02*
X1772Y831D01*
X1791Y831D02*
X1814Y831D01*
X1831Y831D02*
X1837Y831D01*
X1855Y831D02*
X1861Y831D01*
X2747Y831D02*
X2754Y831D01*
X0Y830D02*
X7Y830D01*
X696Y830D02*
X719Y830D01*
X737Y830D02*
X764Y830D01*
X791Y830D02*
X800Y830D01*
X829Y830D02*
X849Y830D01*
X892Y830D02*
X897Y830D01*
X918Y830D02*
X941Y830D01*
X962Y830D02*
X985Y830D01*
X1000Y830D02*
X1005Y830D01*
X1024Y830D02*
X1029Y830D01*
X1104Y830D02*
X1109Y830D01*
X1136Y830D02*
X1156Y830D01*
X1222Y830D02*
X1245Y830D01*
X1262Y830D02*
X1289Y830D01*
X1306Y830D02*
X1331Y830D01*
X1351Y830D02*
X1377Y830D01*
X1438Y830D02*
X1462Y830D01*
X1481Y830D02*
X1486Y830D01*
X1489Y830D02*
X1506Y830D01*
X1530Y830D02*
X1550Y830D01*
X1572Y830D02*
X1595Y830D01*
X1622Y830D02*
X1642Y830D01*
X1703Y830D02*
X1728Y830D01*
X1747Y830D02*
X1771Y830D01*
X1791Y830D02*
X1814Y830D01*
X1831Y830D02*
X1836Y830D01*
X1856Y830D02*
X1861Y830D01*
X2747Y830D02*
X2754Y830D01*
X0Y829D02*
X7Y829D01*
X697Y829D02*
X719Y829D01*
X737Y829D02*
X742Y829D01*
X745Y829D02*
X762Y829D01*
X791Y829D02*
X800Y829D01*
X831Y829D02*
X848Y829D01*
X893Y829D02*
X897Y829D01*
X920Y829D02*
X934Y829D01*
X936Y829D02*
X941Y829D01*
X963Y829D02*
X977Y829D01*
X980Y829D02*
X985Y829D01*
X1000Y829D02*
X1005Y829D01*
X1024Y829D02*
X1029Y829D01*
X1104Y829D02*
X1109Y829D01*
X1137Y829D02*
X1154Y829D01*
X1222Y829D02*
X1244Y829D01*
X1263Y829D02*
X1267Y829D01*
X1271Y829D02*
X1288Y829D01*
X1306Y829D02*
X1329Y829D01*
X1352Y829D02*
X1376Y829D01*
X1438Y829D02*
X1461Y829D01*
X1482Y829D02*
X1486Y829D01*
X1490Y829D02*
X1505Y829D01*
X1531Y829D02*
X1548Y829D01*
X1572Y829D02*
X1595Y829D01*
X1623Y829D02*
X1641Y829D01*
X1704Y829D02*
X1726Y829D01*
X1748Y829D02*
X1770Y829D01*
X1791Y829D02*
X1813Y829D01*
X1832Y829D02*
X1836Y829D01*
X1856Y829D02*
X1860Y829D01*
X2747Y829D02*
X2754Y829D01*
X0Y828D02*
X7Y828D01*
X697Y828D02*
X718Y828D01*
X738Y828D02*
X741Y828D01*
X747Y828D02*
X761Y828D01*
X792Y828D02*
X799Y828D01*
X832Y828D02*
X846Y828D01*
X894Y828D02*
X896Y828D01*
X921Y828D02*
X933Y828D01*
X936Y828D02*
X941Y828D01*
X964Y828D02*
X976Y828D01*
X980Y828D02*
X985Y828D01*
X1001Y828D02*
X1004Y828D01*
X1025Y828D02*
X1028Y828D01*
X1105Y828D02*
X1108Y828D01*
X1139Y828D02*
X1153Y828D01*
X1223Y828D02*
X1244Y828D01*
X1263Y828D02*
X1266Y828D01*
X1272Y828D02*
X1286Y828D01*
X1307Y828D02*
X1328Y828D01*
X1354Y828D02*
X1374Y828D01*
X1439Y828D02*
X1459Y828D01*
X1482Y828D02*
X1485Y828D01*
X1492Y828D02*
X1503Y828D01*
X1533Y828D02*
X1547Y828D01*
X1573Y828D02*
X1594Y828D01*
X1625Y828D02*
X1641Y828D01*
X1706Y828D02*
X1724Y828D01*
X1750Y828D02*
X1768Y828D01*
X1792Y828D02*
X1813Y828D01*
X1833Y828D02*
X1835Y828D01*
X1857Y828D02*
X1859Y828D01*
X2747Y828D02*
X2754Y828D01*
X0Y827D02*
X7Y827D01*
X922Y827D02*
X931Y827D01*
X936Y827D02*
X941Y827D01*
X966Y827D02*
X975Y827D01*
X980Y827D02*
X985Y827D01*
X2747Y827D02*
X2754Y827D01*
X0Y826D02*
X7Y826D01*
X926Y826D02*
X927Y826D01*
X936Y826D02*
X941Y826D01*
X970Y826D02*
X971Y826D01*
X980Y826D02*
X985Y826D01*
X2747Y826D02*
X2754Y826D01*
X0Y825D02*
X7Y825D01*
X936Y825D02*
X941Y825D01*
X980Y825D02*
X985Y825D01*
X2747Y825D02*
X2754Y825D01*
X0Y824D02*
X7Y824D01*
X936Y824D02*
X941Y824D01*
X980Y824D02*
X985Y824D01*
X2747Y824D02*
X2754Y824D01*
X0Y823D02*
X7Y823D01*
X936Y823D02*
X941Y823D01*
X980Y823D02*
X985Y823D01*
X2747Y823D02*
X2754Y823D01*
X0Y822D02*
X7Y822D01*
X936Y822D02*
X941Y822D01*
X980Y822D02*
X985Y822D01*
X2747Y822D02*
X2754Y822D01*
X0Y821D02*
X7Y821D01*
X936Y821D02*
X941Y821D01*
X980Y821D02*
X985Y821D01*
X2747Y821D02*
X2754Y821D01*
X0Y820D02*
X7Y820D01*
X936Y820D02*
X941Y820D01*
X980Y820D02*
X985Y820D01*
X2747Y820D02*
X2754Y820D01*
X0Y819D02*
X7Y819D01*
X936Y819D02*
X941Y819D01*
X980Y819D02*
X985Y819D01*
X2747Y819D02*
X2754Y819D01*
X0Y818D02*
X7Y818D01*
X936Y818D02*
X941Y818D01*
X980Y818D02*
X985Y818D01*
X2747Y818D02*
X2754Y818D01*
X0Y817D02*
X7Y817D01*
X936Y817D02*
X941Y817D01*
X980Y817D02*
X985Y817D01*
X2747Y817D02*
X2754Y817D01*
X0Y816D02*
X7Y816D01*
X937Y816D02*
X941Y816D01*
X980Y816D02*
X985Y816D01*
X2747Y816D02*
X2754Y816D01*
X0Y815D02*
X7Y815D01*
X937Y815D02*
X940Y815D01*
X981Y815D02*
X984Y815D01*
X2747Y815D02*
X2754Y815D01*
X0Y814D02*
X7Y814D01*
X2747Y814D02*
X2754Y814D01*
X0Y813D02*
X7Y813D01*
X2747Y813D02*
X2754Y813D01*
X0Y812D02*
X7Y812D01*
X2747Y812D02*
X2754Y812D01*
X0Y811D02*
X7Y811D01*
X2747Y811D02*
X2754Y811D01*
X0Y810D02*
X7Y810D01*
X2747Y810D02*
X2754Y810D01*
X0Y809D02*
X7Y809D01*
X2747Y809D02*
X2754Y809D01*
X0Y808D02*
X7Y808D01*
X2747Y808D02*
X2754Y808D01*
X0Y807D02*
X7Y807D01*
X2747Y807D02*
X2754Y807D01*
X0Y806D02*
X7Y806D01*
X2747Y806D02*
X2754Y806D01*
X0Y805D02*
X7Y805D01*
X2747Y805D02*
X2754Y805D01*
X0Y804D02*
X7Y804D01*
X2747Y804D02*
X2754Y804D01*
X0Y803D02*
X7Y803D01*
X2747Y803D02*
X2754Y803D01*
X0Y802D02*
X7Y802D01*
X2747Y802D02*
X2754Y802D01*
X0Y801D02*
X7Y801D01*
X2747Y801D02*
X2754Y801D01*
X0Y800D02*
X7Y800D01*
X2747Y800D02*
X2754Y800D01*
X0Y799D02*
X7Y799D01*
X2747Y799D02*
X2754Y799D01*
X0Y798D02*
X7Y798D01*
X2747Y798D02*
X2754Y798D01*
X0Y797D02*
X7Y797D01*
X2747Y797D02*
X2754Y797D01*
X0Y796D02*
X7Y796D01*
X2747Y796D02*
X2754Y796D01*
X0Y795D02*
X7Y795D01*
X2747Y795D02*
X2754Y795D01*
X0Y794D02*
X7Y794D01*
X2747Y794D02*
X2754Y794D01*
X0Y793D02*
X7Y793D01*
X2747Y793D02*
X2754Y793D01*
X0Y792D02*
X7Y792D01*
X2747Y792D02*
X2754Y792D01*
X0Y791D02*
X7Y791D01*
X2747Y791D02*
X2754Y791D01*
X0Y790D02*
X7Y790D01*
X2747Y790D02*
X2754Y790D01*
X0Y789D02*
X7Y789D01*
X2747Y789D02*
X2754Y789D01*
X0Y788D02*
X7Y788D01*
X2747Y788D02*
X2754Y788D01*
X0Y787D02*
X7Y787D01*
X2747Y787D02*
X2754Y787D01*
X0Y786D02*
X7Y786D01*
X2747Y786D02*
X2754Y786D01*
X0Y785D02*
X7Y785D01*
X2747Y785D02*
X2754Y785D01*
X0Y784D02*
X7Y784D01*
X2747Y784D02*
X2754Y784D01*
X0Y783D02*
X7Y783D01*
X2747Y783D02*
X2754Y783D01*
X0Y782D02*
X7Y782D01*
X2747Y782D02*
X2754Y782D01*
X0Y781D02*
X7Y781D01*
X2747Y781D02*
X2754Y781D01*
X0Y780D02*
X7Y780D01*
X2747Y780D02*
X2754Y780D01*
X0Y779D02*
X7Y779D01*
X2747Y779D02*
X2754Y779D01*
X0Y778D02*
X7Y778D01*
X2747Y778D02*
X2754Y778D01*
X0Y777D02*
X7Y777D01*
X2747Y777D02*
X2754Y777D01*
X0Y776D02*
X7Y776D01*
X2747Y776D02*
X2754Y776D01*
X0Y775D02*
X7Y775D01*
X2747Y775D02*
X2754Y775D01*
X0Y774D02*
X7Y774D01*
X2747Y774D02*
X2754Y774D01*
X0Y773D02*
X7Y773D01*
X2747Y773D02*
X2754Y773D01*
X0Y772D02*
X7Y772D01*
X2747Y772D02*
X2754Y772D01*
X0Y771D02*
X7Y771D01*
X2747Y771D02*
X2754Y771D01*
X0Y770D02*
X7Y770D01*
X2747Y770D02*
X2754Y770D01*
X0Y769D02*
X7Y769D01*
X2747Y769D02*
X2754Y769D01*
X0Y768D02*
X7Y768D01*
X2747Y768D02*
X2754Y768D01*
X0Y767D02*
X7Y767D01*
X2747Y767D02*
X2754Y767D01*
X0Y766D02*
X7Y766D01*
X2747Y766D02*
X2754Y766D01*
X0Y765D02*
X7Y765D01*
X2747Y765D02*
X2754Y765D01*
X0Y764D02*
X7Y764D01*
X2747Y764D02*
X2754Y764D01*
X0Y763D02*
X7Y763D01*
X2747Y763D02*
X2754Y763D01*
X0Y762D02*
X7Y762D01*
X2747Y762D02*
X2754Y762D01*
X0Y761D02*
X7Y761D01*
X2747Y761D02*
X2754Y761D01*
X0Y760D02*
X7Y760D01*
X2747Y760D02*
X2754Y760D01*
X0Y759D02*
X7Y759D01*
X2747Y759D02*
X2754Y759D01*
X0Y758D02*
X7Y758D01*
X2747Y758D02*
X2754Y758D01*
X0Y757D02*
X7Y757D01*
X2747Y757D02*
X2754Y757D01*
X0Y756D02*
X7Y756D01*
X2747Y756D02*
X2754Y756D01*
X0Y755D02*
X7Y755D01*
X2747Y755D02*
X2754Y755D01*
X0Y754D02*
X7Y754D01*
X2747Y754D02*
X2754Y754D01*
X0Y753D02*
X7Y753D01*
X2747Y753D02*
X2754Y753D01*
X0Y752D02*
X7Y752D01*
X2747Y752D02*
X2754Y752D01*
X0Y751D02*
X7Y751D01*
X2747Y751D02*
X2754Y751D01*
X0Y750D02*
X7Y750D01*
X2747Y750D02*
X2754Y750D01*
X0Y749D02*
X7Y749D01*
X2747Y749D02*
X2754Y749D01*
X0Y748D02*
X7Y748D01*
X2747Y748D02*
X2754Y748D01*
X0Y747D02*
X7Y747D01*
X2747Y747D02*
X2754Y747D01*
X0Y746D02*
X7Y746D01*
X2747Y746D02*
X2754Y746D01*
X0Y745D02*
X7Y745D01*
X2747Y745D02*
X2754Y745D01*
X0Y744D02*
X7Y744D01*
X2747Y744D02*
X2754Y744D01*
X0Y743D02*
X7Y743D01*
X2747Y743D02*
X2754Y743D01*
X0Y742D02*
X7Y742D01*
X2747Y742D02*
X2754Y742D01*
X0Y741D02*
X7Y741D01*
X2747Y741D02*
X2754Y741D01*
X0Y740D02*
X7Y740D01*
X2747Y740D02*
X2754Y740D01*
X0Y739D02*
X7Y739D01*
X2747Y739D02*
X2754Y739D01*
X0Y738D02*
X7Y738D01*
X2747Y738D02*
X2754Y738D01*
X0Y737D02*
X7Y737D01*
X2747Y737D02*
X2754Y737D01*
X0Y736D02*
X7Y736D01*
X2747Y736D02*
X2754Y736D01*
X0Y735D02*
X7Y735D01*
X2747Y735D02*
X2754Y735D01*
X0Y734D02*
X7Y734D01*
X2747Y734D02*
X2754Y734D01*
X0Y733D02*
X7Y733D01*
X2747Y733D02*
X2754Y733D01*
X0Y732D02*
X7Y732D01*
X2747Y732D02*
X2754Y732D01*
X0Y731D02*
X7Y731D01*
X2747Y731D02*
X2754Y731D01*
X0Y730D02*
X7Y730D01*
X2747Y730D02*
X2754Y730D01*
X0Y729D02*
X7Y729D01*
X2747Y729D02*
X2754Y729D01*
X0Y728D02*
X7Y728D01*
X2747Y728D02*
X2754Y728D01*
X0Y727D02*
X7Y727D01*
X2747Y727D02*
X2754Y727D01*
X0Y726D02*
X7Y726D01*
X2747Y726D02*
X2754Y726D01*
X0Y725D02*
X7Y725D01*
X2747Y725D02*
X2754Y725D01*
X0Y724D02*
X7Y724D01*
X2747Y724D02*
X2754Y724D01*
X0Y723D02*
X7Y723D01*
X2747Y723D02*
X2754Y723D01*
X0Y722D02*
X7Y722D01*
X2747Y722D02*
X2754Y722D01*
X0Y721D02*
X7Y721D01*
X2747Y721D02*
X2754Y721D01*
X0Y720D02*
X7Y720D01*
X2747Y720D02*
X2754Y720D01*
X0Y719D02*
X7Y719D01*
X2747Y719D02*
X2754Y719D01*
X0Y718D02*
X7Y718D01*
X2747Y718D02*
X2754Y718D01*
X0Y717D02*
X7Y717D01*
X2747Y717D02*
X2754Y717D01*
X0Y716D02*
X7Y716D01*
X2747Y716D02*
X2754Y716D01*
X0Y715D02*
X7Y715D01*
X2747Y715D02*
X2754Y715D01*
X0Y714D02*
X7Y714D01*
X2747Y714D02*
X2754Y714D01*
X0Y713D02*
X7Y713D01*
X2747Y713D02*
X2754Y713D01*
X0Y712D02*
X7Y712D01*
X2747Y712D02*
X2754Y712D01*
X0Y711D02*
X7Y711D01*
X2747Y711D02*
X2754Y711D01*
X0Y710D02*
X7Y710D01*
X2747Y710D02*
X2754Y710D01*
X0Y709D02*
X7Y709D01*
X2747Y709D02*
X2754Y709D01*
X0Y708D02*
X7Y708D01*
X2747Y708D02*
X2754Y708D01*
X0Y707D02*
X7Y707D01*
X2747Y707D02*
X2754Y707D01*
X0Y706D02*
X7Y706D01*
X2747Y706D02*
X2754Y706D01*
X0Y705D02*
X7Y705D01*
X2747Y705D02*
X2754Y705D01*
X0Y704D02*
X7Y704D01*
X2747Y704D02*
X2754Y704D01*
X0Y703D02*
X7Y703D01*
X2747Y703D02*
X2754Y703D01*
X0Y702D02*
X7Y702D01*
X2747Y702D02*
X2754Y702D01*
X0Y701D02*
X7Y701D01*
X2747Y701D02*
X2754Y701D01*
X0Y700D02*
X7Y700D01*
X2747Y700D02*
X2754Y700D01*
X0Y699D02*
X7Y699D01*
X2747Y699D02*
X2754Y699D01*
X0Y698D02*
X7Y698D01*
X2747Y698D02*
X2754Y698D01*
X0Y697D02*
X7Y697D01*
X2747Y697D02*
X2754Y697D01*
X0Y696D02*
X7Y696D01*
X2747Y696D02*
X2754Y696D01*
X0Y695D02*
X7Y695D01*
X2747Y695D02*
X2754Y695D01*
X0Y694D02*
X7Y694D01*
X2747Y694D02*
X2754Y694D01*
X0Y693D02*
X7Y693D01*
X2747Y693D02*
X2754Y693D01*
X0Y692D02*
X7Y692D01*
X2747Y692D02*
X2754Y692D01*
X0Y691D02*
X7Y691D01*
X2747Y691D02*
X2754Y691D01*
X0Y690D02*
X7Y690D01*
X2747Y690D02*
X2754Y690D01*
X0Y689D02*
X7Y689D01*
X2747Y689D02*
X2754Y689D01*
X0Y688D02*
X7Y688D01*
X2747Y688D02*
X2754Y688D01*
X0Y687D02*
X7Y687D01*
X2747Y687D02*
X2754Y687D01*
X0Y686D02*
X7Y686D01*
X2747Y686D02*
X2754Y686D01*
X0Y685D02*
X7Y685D01*
X2747Y685D02*
X2754Y685D01*
X0Y684D02*
X7Y684D01*
X2747Y684D02*
X2754Y684D01*
X0Y683D02*
X7Y683D01*
X2747Y683D02*
X2754Y683D01*
X0Y682D02*
X7Y682D01*
X2747Y682D02*
X2754Y682D01*
X0Y681D02*
X7Y681D01*
X2747Y681D02*
X2754Y681D01*
X0Y680D02*
X7Y680D01*
X2747Y680D02*
X2754Y680D01*
X0Y679D02*
X7Y679D01*
X2747Y679D02*
X2754Y679D01*
X0Y678D02*
X7Y678D01*
X2747Y678D02*
X2754Y678D01*
X0Y677D02*
X7Y677D01*
X2747Y677D02*
X2754Y677D01*
X0Y676D02*
X7Y676D01*
X2747Y676D02*
X2754Y676D01*
X0Y675D02*
X7Y675D01*
X2747Y675D02*
X2754Y675D01*
X0Y674D02*
X7Y674D01*
X2747Y674D02*
X2754Y674D01*
X0Y673D02*
X7Y673D01*
X2747Y673D02*
X2754Y673D01*
X0Y672D02*
X7Y672D01*
X2747Y672D02*
X2754Y672D01*
X0Y671D02*
X7Y671D01*
X2747Y671D02*
X2754Y671D01*
X0Y670D02*
X7Y670D01*
X2747Y670D02*
X2754Y670D01*
X0Y669D02*
X7Y669D01*
X2747Y669D02*
X2754Y669D01*
X0Y668D02*
X7Y668D01*
X2747Y668D02*
X2754Y668D01*
X0Y667D02*
X7Y667D01*
X2747Y667D02*
X2754Y667D01*
X0Y666D02*
X7Y666D01*
X2747Y666D02*
X2754Y666D01*
X0Y665D02*
X7Y665D01*
X2747Y665D02*
X2754Y665D01*
X0Y664D02*
X7Y664D01*
X2747Y664D02*
X2754Y664D01*
X0Y663D02*
X7Y663D01*
X2747Y663D02*
X2754Y663D01*
X0Y662D02*
X7Y662D01*
X2747Y662D02*
X2754Y662D01*
X0Y661D02*
X7Y661D01*
X2747Y661D02*
X2754Y661D01*
X0Y660D02*
X7Y660D01*
X2747Y660D02*
X2754Y660D01*
X0Y659D02*
X7Y659D01*
X2747Y659D02*
X2754Y659D01*
X0Y658D02*
X7Y658D01*
X2747Y658D02*
X2754Y658D01*
X0Y657D02*
X7Y657D01*
X2747Y657D02*
X2754Y657D01*
X0Y656D02*
X7Y656D01*
X2747Y656D02*
X2754Y656D01*
X0Y655D02*
X7Y655D01*
X2747Y655D02*
X2754Y655D01*
X0Y654D02*
X7Y654D01*
X2747Y654D02*
X2754Y654D01*
X0Y653D02*
X7Y653D01*
X2747Y653D02*
X2754Y653D01*
X0Y652D02*
X7Y652D01*
X2747Y652D02*
X2754Y652D01*
X0Y651D02*
X7Y651D01*
X2747Y651D02*
X2754Y651D01*
X0Y650D02*
X7Y650D01*
X2747Y650D02*
X2754Y650D01*
X0Y649D02*
X7Y649D01*
X2747Y649D02*
X2754Y649D01*
X0Y648D02*
X7Y648D01*
X2747Y648D02*
X2754Y648D01*
X0Y647D02*
X7Y647D01*
X2747Y647D02*
X2754Y647D01*
X0Y646D02*
X7Y646D01*
X2747Y646D02*
X2754Y646D01*
X0Y645D02*
X7Y645D01*
X2747Y645D02*
X2754Y645D01*
X0Y644D02*
X7Y644D01*
X2747Y644D02*
X2754Y644D01*
X0Y643D02*
X7Y643D01*
X2747Y643D02*
X2754Y643D01*
X0Y642D02*
X7Y642D01*
X2747Y642D02*
X2754Y642D01*
X0Y641D02*
X7Y641D01*
X2747Y641D02*
X2754Y641D01*
X0Y640D02*
X7Y640D01*
X2747Y640D02*
X2754Y640D01*
X0Y639D02*
X7Y639D01*
X2747Y639D02*
X2754Y639D01*
X0Y638D02*
X7Y638D01*
X2747Y638D02*
X2754Y638D01*
X0Y637D02*
X7Y637D01*
X2747Y637D02*
X2754Y637D01*
X0Y636D02*
X7Y636D01*
X2747Y636D02*
X2754Y636D01*
X0Y635D02*
X7Y635D01*
X2747Y635D02*
X2754Y635D01*
X0Y634D02*
X7Y634D01*
X2747Y634D02*
X2754Y634D01*
X0Y633D02*
X7Y633D01*
X2747Y633D02*
X2754Y633D01*
X0Y632D02*
X7Y632D01*
X2747Y632D02*
X2754Y632D01*
X0Y631D02*
X7Y631D01*
X2747Y631D02*
X2754Y631D01*
X0Y630D02*
X7Y630D01*
X2747Y630D02*
X2754Y630D01*
X0Y629D02*
X7Y629D01*
X2747Y629D02*
X2754Y629D01*
X0Y628D02*
X7Y628D01*
X2747Y628D02*
X2754Y628D01*
X0Y627D02*
X7Y627D01*
X2747Y627D02*
X2754Y627D01*
X0Y626D02*
X7Y626D01*
X2747Y626D02*
X2754Y626D01*
X0Y625D02*
X7Y625D01*
X2747Y625D02*
X2754Y625D01*
X0Y624D02*
X7Y624D01*
X2747Y624D02*
X2754Y624D01*
X0Y623D02*
X7Y623D01*
X2747Y623D02*
X2754Y623D01*
X0Y622D02*
X7Y622D01*
X2747Y622D02*
X2754Y622D01*
X0Y621D02*
X7Y621D01*
X2747Y621D02*
X2754Y621D01*
X0Y620D02*
X7Y620D01*
X2747Y620D02*
X2754Y620D01*
X0Y619D02*
X7Y619D01*
X2747Y619D02*
X2754Y619D01*
X0Y618D02*
X7Y618D01*
X2747Y618D02*
X2754Y618D01*
X0Y617D02*
X7Y617D01*
X2747Y617D02*
X2754Y617D01*
X0Y616D02*
X7Y616D01*
X2747Y616D02*
X2754Y616D01*
X0Y615D02*
X7Y615D01*
X2747Y615D02*
X2754Y615D01*
X0Y614D02*
X7Y614D01*
X2747Y614D02*
X2754Y614D01*
X0Y613D02*
X7Y613D01*
X2747Y613D02*
X2754Y613D01*
X0Y612D02*
X7Y612D01*
X2747Y612D02*
X2754Y612D01*
X0Y611D02*
X7Y611D01*
X2747Y611D02*
X2754Y611D01*
X0Y610D02*
X7Y610D01*
X2747Y610D02*
X2754Y610D01*
X0Y609D02*
X7Y609D01*
X2747Y609D02*
X2754Y609D01*
X0Y608D02*
X7Y608D01*
X2747Y608D02*
X2754Y608D01*
X0Y607D02*
X7Y607D01*
X2747Y607D02*
X2754Y607D01*
X0Y606D02*
X7Y606D01*
X2747Y606D02*
X2754Y606D01*
X0Y605D02*
X7Y605D01*
X2747Y605D02*
X2754Y605D01*
X0Y604D02*
X7Y604D01*
X2747Y604D02*
X2754Y604D01*
X0Y603D02*
X7Y603D01*
X2747Y603D02*
X2754Y603D01*
X0Y602D02*
X7Y602D01*
X2747Y602D02*
X2754Y602D01*
X0Y601D02*
X7Y601D01*
X2747Y601D02*
X2754Y601D01*
X0Y600D02*
X7Y600D01*
X2747Y600D02*
X2754Y600D01*
X0Y599D02*
X7Y599D01*
X2747Y599D02*
X2754Y599D01*
X0Y598D02*
X7Y598D01*
X2747Y598D02*
X2754Y598D01*
X0Y597D02*
X7Y597D01*
X2747Y597D02*
X2754Y597D01*
X0Y596D02*
X7Y596D01*
X2747Y596D02*
X2754Y596D01*
X0Y595D02*
X7Y595D01*
X2747Y595D02*
X2754Y595D01*
X0Y594D02*
X7Y594D01*
X2747Y594D02*
X2754Y594D01*
X0Y593D02*
X7Y593D01*
X2747Y593D02*
X2754Y593D01*
X0Y592D02*
X7Y592D01*
X2747Y592D02*
X2754Y592D01*
X0Y591D02*
X7Y591D01*
X2747Y591D02*
X2754Y591D01*
X0Y590D02*
X7Y590D01*
X2747Y590D02*
X2754Y590D01*
X0Y589D02*
X7Y589D01*
X2747Y589D02*
X2754Y589D01*
X0Y588D02*
X7Y588D01*
X2747Y588D02*
X2754Y588D01*
X0Y587D02*
X7Y587D01*
X2747Y587D02*
X2754Y587D01*
X0Y586D02*
X7Y586D01*
X2747Y586D02*
X2754Y586D01*
X0Y585D02*
X7Y585D01*
X2747Y585D02*
X2754Y585D01*
X0Y584D02*
X7Y584D01*
X2747Y584D02*
X2754Y584D01*
X0Y583D02*
X7Y583D01*
X2747Y583D02*
X2754Y583D01*
X0Y582D02*
X7Y582D01*
X2747Y582D02*
X2754Y582D01*
X0Y581D02*
X7Y581D01*
X2747Y581D02*
X2754Y581D01*
X0Y580D02*
X7Y580D01*
X2747Y580D02*
X2754Y580D01*
X0Y579D02*
X7Y579D01*
X2747Y579D02*
X2754Y579D01*
X0Y578D02*
X7Y578D01*
X2747Y578D02*
X2754Y578D01*
X0Y577D02*
X7Y577D01*
X2747Y577D02*
X2754Y577D01*
X0Y576D02*
X7Y576D01*
X2747Y576D02*
X2754Y576D01*
X0Y575D02*
X7Y575D01*
X2747Y575D02*
X2754Y575D01*
X0Y574D02*
X7Y574D01*
X2747Y574D02*
X2754Y574D01*
X0Y573D02*
X7Y573D01*
X2747Y573D02*
X2754Y573D01*
X0Y572D02*
X7Y572D01*
X2747Y572D02*
X2754Y572D01*
X0Y571D02*
X7Y571D01*
X2747Y571D02*
X2754Y571D01*
X0Y570D02*
X7Y570D01*
X2747Y570D02*
X2754Y570D01*
X0Y569D02*
X7Y569D01*
X2747Y569D02*
X2754Y569D01*
X0Y568D02*
X7Y568D01*
X2747Y568D02*
X2754Y568D01*
X0Y567D02*
X7Y567D01*
X2747Y567D02*
X2754Y567D01*
X0Y566D02*
X7Y566D01*
X2747Y566D02*
X2754Y566D01*
X0Y565D02*
X7Y565D01*
X2747Y565D02*
X2754Y565D01*
X0Y564D02*
X7Y564D01*
X2747Y564D02*
X2754Y564D01*
X0Y563D02*
X7Y563D01*
X2747Y563D02*
X2754Y563D01*
X0Y562D02*
X7Y562D01*
X2747Y562D02*
X2754Y562D01*
X0Y561D02*
X7Y561D01*
X2747Y561D02*
X2754Y561D01*
X0Y560D02*
X7Y560D01*
X2747Y560D02*
X2754Y560D01*
X0Y559D02*
X7Y559D01*
X2747Y559D02*
X2754Y559D01*
X0Y558D02*
X7Y558D01*
X2747Y558D02*
X2754Y558D01*
X0Y557D02*
X7Y557D01*
X2747Y557D02*
X2754Y557D01*
X0Y556D02*
X7Y556D01*
X2747Y556D02*
X2754Y556D01*
X0Y555D02*
X7Y555D01*
X2747Y555D02*
X2754Y555D01*
X0Y554D02*
X7Y554D01*
X2747Y554D02*
X2754Y554D01*
X0Y553D02*
X7Y553D01*
X2747Y553D02*
X2754Y553D01*
X0Y552D02*
X7Y552D01*
X2747Y552D02*
X2754Y552D01*
X0Y551D02*
X7Y551D01*
X2747Y551D02*
X2754Y551D01*
X0Y550D02*
X7Y550D01*
X2747Y550D02*
X2754Y550D01*
X0Y549D02*
X7Y549D01*
X2747Y549D02*
X2754Y549D01*
X0Y548D02*
X7Y548D01*
X2747Y548D02*
X2754Y548D01*
X0Y547D02*
X7Y547D01*
X2747Y547D02*
X2754Y547D01*
X0Y546D02*
X7Y546D01*
X2747Y546D02*
X2754Y546D01*
X0Y545D02*
X7Y545D01*
X2747Y545D02*
X2754Y545D01*
X0Y544D02*
X7Y544D01*
X2747Y544D02*
X2754Y544D01*
X0Y543D02*
X7Y543D01*
X2747Y543D02*
X2754Y543D01*
X0Y542D02*
X7Y542D01*
X2747Y542D02*
X2754Y542D01*
X0Y541D02*
X7Y541D01*
X2747Y541D02*
X2754Y541D01*
X0Y540D02*
X7Y540D01*
X2747Y540D02*
X2754Y540D01*
X0Y539D02*
X7Y539D01*
X2747Y539D02*
X2754Y539D01*
X0Y538D02*
X7Y538D01*
X2747Y538D02*
X2754Y538D01*
X0Y537D02*
X7Y537D01*
X2747Y537D02*
X2754Y537D01*
X0Y536D02*
X7Y536D01*
X2747Y536D02*
X2754Y536D01*
X0Y535D02*
X7Y535D01*
X2747Y535D02*
X2754Y535D01*
X0Y534D02*
X7Y534D01*
X2747Y534D02*
X2754Y534D01*
X0Y533D02*
X7Y533D01*
X2747Y533D02*
X2754Y533D01*
X0Y532D02*
X7Y532D01*
X2747Y532D02*
X2754Y532D01*
X0Y531D02*
X7Y531D01*
X2747Y531D02*
X2754Y531D01*
X0Y530D02*
X7Y530D01*
X2747Y530D02*
X2754Y530D01*
X0Y529D02*
X7Y529D01*
X2747Y529D02*
X2754Y529D01*
X0Y528D02*
X7Y528D01*
X2747Y528D02*
X2754Y528D01*
X0Y527D02*
X7Y527D01*
X2747Y527D02*
X2754Y527D01*
X0Y526D02*
X7Y526D01*
X2747Y526D02*
X2754Y526D01*
X0Y525D02*
X7Y525D01*
X2747Y525D02*
X2754Y525D01*
X0Y524D02*
X7Y524D01*
X2747Y524D02*
X2754Y524D01*
X0Y523D02*
X7Y523D01*
X2747Y523D02*
X2754Y523D01*
X0Y522D02*
X7Y522D01*
X2747Y522D02*
X2754Y522D01*
X0Y521D02*
X7Y521D01*
X2747Y521D02*
X2754Y521D01*
X0Y520D02*
X7Y520D01*
X2747Y520D02*
X2754Y520D01*
X0Y519D02*
X7Y519D01*
X2747Y519D02*
X2754Y519D01*
X0Y518D02*
X7Y518D01*
X2747Y518D02*
X2754Y518D01*
X0Y517D02*
X7Y517D01*
X2747Y517D02*
X2754Y517D01*
X0Y516D02*
X7Y516D01*
X2747Y516D02*
X2754Y516D01*
X0Y515D02*
X7Y515D01*
X2747Y515D02*
X2754Y515D01*
X0Y514D02*
X7Y514D01*
X2747Y514D02*
X2754Y514D01*
X0Y513D02*
X7Y513D01*
X2747Y513D02*
X2754Y513D01*
X0Y512D02*
X7Y512D01*
X2747Y512D02*
X2754Y512D01*
X0Y511D02*
X7Y511D01*
X2747Y511D02*
X2754Y511D01*
X0Y510D02*
X7Y510D01*
X2747Y510D02*
X2754Y510D01*
X0Y509D02*
X7Y509D01*
X2747Y509D02*
X2754Y509D01*
X0Y508D02*
X7Y508D01*
X2747Y508D02*
X2754Y508D01*
X0Y507D02*
X7Y507D01*
X2747Y507D02*
X2754Y507D01*
X0Y506D02*
X7Y506D01*
X2747Y506D02*
X2754Y506D01*
X0Y505D02*
X7Y505D01*
X2747Y505D02*
X2754Y505D01*
X0Y504D02*
X7Y504D01*
X2747Y504D02*
X2754Y504D01*
X0Y503D02*
X7Y503D01*
X2747Y503D02*
X2754Y503D01*
X0Y502D02*
X7Y502D01*
X2747Y502D02*
X2754Y502D01*
X0Y501D02*
X7Y501D01*
X2747Y501D02*
X2754Y501D01*
X0Y500D02*
X7Y500D01*
X2747Y500D02*
X2754Y500D01*
X0Y499D02*
X7Y499D01*
X2747Y499D02*
X2754Y499D01*
X0Y498D02*
X7Y498D01*
X2747Y498D02*
X2754Y498D01*
X0Y497D02*
X7Y497D01*
X2747Y497D02*
X2754Y497D01*
X0Y496D02*
X7Y496D01*
X2747Y496D02*
X2754Y496D01*
X0Y495D02*
X7Y495D01*
X2747Y495D02*
X2754Y495D01*
X0Y494D02*
X7Y494D01*
X2747Y494D02*
X2754Y494D01*
X0Y493D02*
X7Y493D01*
X2747Y493D02*
X2754Y493D01*
X0Y492D02*
X7Y492D01*
X2747Y492D02*
X2754Y492D01*
X0Y491D02*
X7Y491D01*
X2747Y491D02*
X2754Y491D01*
X0Y490D02*
X7Y490D01*
X2747Y490D02*
X2754Y490D01*
X0Y489D02*
X7Y489D01*
X2747Y489D02*
X2754Y489D01*
X0Y488D02*
X7Y488D01*
X2747Y488D02*
X2754Y488D01*
X0Y487D02*
X7Y487D01*
X2747Y487D02*
X2754Y487D01*
X0Y486D02*
X7Y486D01*
X2747Y486D02*
X2754Y486D01*
X0Y485D02*
X7Y485D01*
X2747Y485D02*
X2754Y485D01*
X0Y484D02*
X7Y484D01*
X2747Y484D02*
X2754Y484D01*
X0Y483D02*
X7Y483D01*
X2747Y483D02*
X2754Y483D01*
X0Y482D02*
X7Y482D01*
X2747Y482D02*
X2754Y482D01*
X0Y481D02*
X7Y481D01*
X2747Y481D02*
X2754Y481D01*
X0Y480D02*
X7Y480D01*
X2747Y480D02*
X2754Y480D01*
X0Y479D02*
X7Y479D01*
X2747Y479D02*
X2754Y479D01*
X0Y478D02*
X7Y478D01*
X2747Y478D02*
X2754Y478D01*
X0Y477D02*
X7Y477D01*
X2747Y477D02*
X2754Y477D01*
X0Y476D02*
X7Y476D01*
X2747Y476D02*
X2754Y476D01*
X0Y475D02*
X7Y475D01*
X2747Y475D02*
X2754Y475D01*
X0Y474D02*
X7Y474D01*
X2747Y474D02*
X2754Y474D01*
X0Y473D02*
X7Y473D01*
X2747Y473D02*
X2754Y473D01*
X0Y472D02*
X7Y472D01*
X2747Y472D02*
X2754Y472D01*
X0Y471D02*
X7Y471D01*
X2747Y471D02*
X2754Y471D01*
X0Y470D02*
X7Y470D01*
X2747Y470D02*
X2754Y470D01*
X0Y469D02*
X7Y469D01*
X2747Y469D02*
X2754Y469D01*
X0Y468D02*
X7Y468D01*
X2747Y468D02*
X2754Y468D01*
X0Y467D02*
X7Y467D01*
X2747Y467D02*
X2754Y467D01*
X0Y466D02*
X7Y466D01*
X2747Y466D02*
X2754Y466D01*
X0Y465D02*
X7Y465D01*
X2747Y465D02*
X2754Y465D01*
X0Y464D02*
X7Y464D01*
X2747Y464D02*
X2754Y464D01*
X0Y463D02*
X7Y463D01*
X2747Y463D02*
X2754Y463D01*
X0Y462D02*
X7Y462D01*
X2747Y462D02*
X2754Y462D01*
X0Y461D02*
X7Y461D01*
X2747Y461D02*
X2754Y461D01*
X0Y460D02*
X7Y460D01*
X2747Y460D02*
X2754Y460D01*
X0Y459D02*
X7Y459D01*
X2747Y459D02*
X2754Y459D01*
X0Y458D02*
X7Y458D01*
X2747Y458D02*
X2754Y458D01*
X0Y457D02*
X7Y457D01*
X2747Y457D02*
X2754Y457D01*
X0Y456D02*
X7Y456D01*
X2747Y456D02*
X2754Y456D01*
X0Y455D02*
X7Y455D01*
X2747Y455D02*
X2754Y455D01*
X0Y454D02*
X7Y454D01*
X2747Y454D02*
X2754Y454D01*
X0Y453D02*
X7Y453D01*
X2747Y453D02*
X2754Y453D01*
X0Y452D02*
X7Y452D01*
X2747Y452D02*
X2754Y452D01*
X0Y451D02*
X7Y451D01*
X2747Y451D02*
X2754Y451D01*
X0Y450D02*
X7Y450D01*
X2747Y450D02*
X2754Y450D01*
X0Y449D02*
X7Y449D01*
X2747Y449D02*
X2754Y449D01*
X0Y448D02*
X7Y448D01*
X2747Y448D02*
X2754Y448D01*
X0Y447D02*
X7Y447D01*
X2747Y447D02*
X2754Y447D01*
X0Y446D02*
X7Y446D01*
X2747Y446D02*
X2754Y446D01*
X0Y445D02*
X7Y445D01*
X2747Y445D02*
X2754Y445D01*
X0Y444D02*
X7Y444D01*
X2747Y444D02*
X2754Y444D01*
X0Y443D02*
X7Y443D01*
X2747Y443D02*
X2754Y443D01*
X0Y442D02*
X7Y442D01*
X2747Y442D02*
X2754Y442D01*
X0Y441D02*
X7Y441D01*
X2747Y441D02*
X2754Y441D01*
X0Y440D02*
X7Y440D01*
X2747Y440D02*
X2754Y440D01*
X0Y439D02*
X7Y439D01*
X2747Y439D02*
X2754Y439D01*
X0Y438D02*
X7Y438D01*
X2747Y438D02*
X2754Y438D01*
X0Y437D02*
X7Y437D01*
X2747Y437D02*
X2754Y437D01*
X0Y436D02*
X7Y436D01*
X2747Y436D02*
X2754Y436D01*
X0Y435D02*
X7Y435D01*
X2747Y435D02*
X2754Y435D01*
X0Y434D02*
X7Y434D01*
X2747Y434D02*
X2754Y434D01*
X0Y433D02*
X7Y433D01*
X2747Y433D02*
X2754Y433D01*
X0Y432D02*
X7Y432D01*
X2747Y432D02*
X2754Y432D01*
X0Y431D02*
X7Y431D01*
X2747Y431D02*
X2754Y431D01*
X0Y430D02*
X7Y430D01*
X2747Y430D02*
X2754Y430D01*
X0Y429D02*
X7Y429D01*
X2747Y429D02*
X2754Y429D01*
X0Y428D02*
X7Y428D01*
X2747Y428D02*
X2754Y428D01*
X0Y427D02*
X7Y427D01*
X2747Y427D02*
X2754Y427D01*
X0Y426D02*
X7Y426D01*
X2747Y426D02*
X2754Y426D01*
X0Y425D02*
X7Y425D01*
X2747Y425D02*
X2754Y425D01*
X0Y424D02*
X7Y424D01*
X2747Y424D02*
X2754Y424D01*
X0Y423D02*
X7Y423D01*
X2747Y423D02*
X2754Y423D01*
X0Y422D02*
X7Y422D01*
X2747Y422D02*
X2754Y422D01*
X0Y421D02*
X7Y421D01*
X2747Y421D02*
X2754Y421D01*
X0Y420D02*
X7Y420D01*
X2747Y420D02*
X2754Y420D01*
X0Y419D02*
X7Y419D01*
X2747Y419D02*
X2754Y419D01*
X0Y418D02*
X7Y418D01*
X2747Y418D02*
X2754Y418D01*
X0Y417D02*
X7Y417D01*
X2747Y417D02*
X2754Y417D01*
X0Y416D02*
X7Y416D01*
X2747Y416D02*
X2754Y416D01*
X0Y415D02*
X7Y415D01*
X2747Y415D02*
X2754Y415D01*
X0Y414D02*
X7Y414D01*
X2747Y414D02*
X2754Y414D01*
X0Y413D02*
X7Y413D01*
X2747Y413D02*
X2754Y413D01*
X0Y412D02*
X7Y412D01*
X2747Y412D02*
X2754Y412D01*
X0Y411D02*
X7Y411D01*
X2747Y411D02*
X2754Y411D01*
X0Y410D02*
X7Y410D01*
X2747Y410D02*
X2754Y410D01*
X0Y409D02*
X7Y409D01*
X2747Y409D02*
X2754Y409D01*
X0Y408D02*
X7Y408D01*
X2747Y408D02*
X2754Y408D01*
X0Y407D02*
X7Y407D01*
X2747Y407D02*
X2754Y407D01*
X0Y406D02*
X7Y406D01*
X2747Y406D02*
X2754Y406D01*
X0Y405D02*
X7Y405D01*
X2747Y405D02*
X2754Y405D01*
X0Y404D02*
X7Y404D01*
X2747Y404D02*
X2754Y404D01*
X0Y403D02*
X7Y403D01*
X2747Y403D02*
X2754Y403D01*
X0Y402D02*
X7Y402D01*
X2747Y402D02*
X2754Y402D01*
X0Y401D02*
X7Y401D01*
X2747Y401D02*
X2754Y401D01*
X0Y400D02*
X7Y400D01*
X2747Y400D02*
X2754Y400D01*
X0Y399D02*
X7Y399D01*
X2747Y399D02*
X2754Y399D01*
X0Y398D02*
X7Y398D01*
X2747Y398D02*
X2754Y398D01*
X0Y397D02*
X7Y397D01*
X2747Y397D02*
X2754Y397D01*
X0Y396D02*
X7Y396D01*
X2747Y396D02*
X2754Y396D01*
X0Y395D02*
X7Y395D01*
X2747Y395D02*
X2754Y395D01*
X0Y394D02*
X7Y394D01*
X2747Y394D02*
X2754Y394D01*
X0Y393D02*
X7Y393D01*
X2747Y393D02*
X2754Y393D01*
X0Y392D02*
X7Y392D01*
X2747Y392D02*
X2754Y392D01*
X0Y391D02*
X7Y391D01*
X2747Y391D02*
X2754Y391D01*
X0Y390D02*
X7Y390D01*
X2747Y390D02*
X2754Y390D01*
X0Y389D02*
X7Y389D01*
X2747Y389D02*
X2754Y389D01*
X0Y388D02*
X7Y388D01*
X2747Y388D02*
X2754Y388D01*
X0Y387D02*
X7Y387D01*
X2747Y387D02*
X2754Y387D01*
X0Y386D02*
X7Y386D01*
X2747Y386D02*
X2754Y386D01*
X0Y385D02*
X7Y385D01*
X2747Y385D02*
X2754Y385D01*
X0Y384D02*
X7Y384D01*
X2747Y384D02*
X2754Y384D01*
X0Y383D02*
X7Y383D01*
X2747Y383D02*
X2754Y383D01*
X0Y382D02*
X7Y382D01*
X2747Y382D02*
X2754Y382D01*
X0Y381D02*
X7Y381D01*
X2747Y381D02*
X2754Y381D01*
X0Y380D02*
X7Y380D01*
X2747Y380D02*
X2754Y380D01*
X0Y379D02*
X7Y379D01*
X2747Y379D02*
X2754Y379D01*
X0Y378D02*
X7Y378D01*
X2747Y378D02*
X2754Y378D01*
X0Y377D02*
X7Y377D01*
X2747Y377D02*
X2754Y377D01*
X0Y376D02*
X7Y376D01*
X2747Y376D02*
X2754Y376D01*
X0Y375D02*
X7Y375D01*
X2747Y375D02*
X2754Y375D01*
X0Y374D02*
X7Y374D01*
X2747Y374D02*
X2754Y374D01*
X0Y373D02*
X7Y373D01*
X2747Y373D02*
X2754Y373D01*
X0Y372D02*
X7Y372D01*
X2747Y372D02*
X2754Y372D01*
X0Y371D02*
X7Y371D01*
X2747Y371D02*
X2754Y371D01*
X0Y370D02*
X7Y370D01*
X2747Y370D02*
X2754Y370D01*
X0Y369D02*
X7Y369D01*
X2747Y369D02*
X2754Y369D01*
X0Y368D02*
X7Y368D01*
X2747Y368D02*
X2754Y368D01*
X0Y367D02*
X7Y367D01*
X2747Y367D02*
X2754Y367D01*
X0Y366D02*
X7Y366D01*
X2747Y366D02*
X2754Y366D01*
X0Y365D02*
X7Y365D01*
X2747Y365D02*
X2754Y365D01*
X0Y364D02*
X7Y364D01*
X2747Y364D02*
X2754Y364D01*
X0Y363D02*
X7Y363D01*
X2747Y363D02*
X2754Y363D01*
X0Y362D02*
X7Y362D01*
X2747Y362D02*
X2754Y362D01*
X0Y361D02*
X7Y361D01*
X2747Y361D02*
X2754Y361D01*
X0Y360D02*
X7Y360D01*
X2747Y360D02*
X2754Y360D01*
X0Y359D02*
X7Y359D01*
X2747Y359D02*
X2754Y359D01*
X0Y358D02*
X7Y358D01*
X2747Y358D02*
X2754Y358D01*
X0Y357D02*
X7Y357D01*
X2747Y357D02*
X2754Y357D01*
X0Y356D02*
X7Y356D01*
X2747Y356D02*
X2754Y356D01*
X0Y355D02*
X7Y355D01*
X2747Y355D02*
X2754Y355D01*
X0Y354D02*
X7Y354D01*
X2747Y354D02*
X2754Y354D01*
X0Y353D02*
X7Y353D01*
X2747Y353D02*
X2754Y353D01*
X0Y352D02*
X7Y352D01*
X2747Y352D02*
X2754Y352D01*
X0Y351D02*
X7Y351D01*
X2747Y351D02*
X2754Y351D01*
X0Y350D02*
X7Y350D01*
X2747Y350D02*
X2754Y350D01*
X0Y349D02*
X7Y349D01*
X2747Y349D02*
X2754Y349D01*
X0Y348D02*
X7Y348D01*
X2747Y348D02*
X2754Y348D01*
X0Y347D02*
X7Y347D01*
X2747Y347D02*
X2754Y347D01*
X0Y346D02*
X7Y346D01*
X2747Y346D02*
X2754Y346D01*
X0Y345D02*
X7Y345D01*
X2747Y345D02*
X2754Y345D01*
X0Y344D02*
X7Y344D01*
X2747Y344D02*
X2754Y344D01*
X0Y343D02*
X7Y343D01*
X2747Y343D02*
X2754Y343D01*
X0Y342D02*
X7Y342D01*
X2747Y342D02*
X2754Y342D01*
X0Y341D02*
X7Y341D01*
X2747Y341D02*
X2754Y341D01*
X0Y340D02*
X7Y340D01*
X2747Y340D02*
X2754Y340D01*
X0Y339D02*
X7Y339D01*
X2747Y339D02*
X2754Y339D01*
X0Y338D02*
X7Y338D01*
X2747Y338D02*
X2754Y338D01*
X0Y337D02*
X7Y337D01*
X2747Y337D02*
X2754Y337D01*
X0Y336D02*
X7Y336D01*
X2747Y336D02*
X2754Y336D01*
X0Y335D02*
X7Y335D01*
X2747Y335D02*
X2754Y335D01*
X0Y334D02*
X7Y334D01*
X2747Y334D02*
X2754Y334D01*
X0Y333D02*
X7Y333D01*
X2747Y333D02*
X2754Y333D01*
X0Y332D02*
X7Y332D01*
X2747Y332D02*
X2754Y332D01*
X0Y331D02*
X7Y331D01*
X2747Y331D02*
X2754Y331D01*
X0Y330D02*
X7Y330D01*
X2747Y330D02*
X2754Y330D01*
X0Y329D02*
X7Y329D01*
X2747Y329D02*
X2754Y329D01*
X0Y328D02*
X7Y328D01*
X2747Y328D02*
X2754Y328D01*
X0Y327D02*
X7Y327D01*
X2747Y327D02*
X2754Y327D01*
X0Y326D02*
X7Y326D01*
X2747Y326D02*
X2754Y326D01*
X0Y325D02*
X7Y325D01*
X2747Y325D02*
X2754Y325D01*
X0Y324D02*
X7Y324D01*
X2747Y324D02*
X2754Y324D01*
X0Y323D02*
X7Y323D01*
X2747Y323D02*
X2754Y323D01*
X0Y322D02*
X7Y322D01*
X2747Y322D02*
X2754Y322D01*
X0Y321D02*
X7Y321D01*
X2747Y321D02*
X2754Y321D01*
X0Y320D02*
X7Y320D01*
X2747Y320D02*
X2754Y320D01*
X0Y319D02*
X7Y319D01*
X2747Y319D02*
X2754Y319D01*
X0Y318D02*
X7Y318D01*
X2747Y318D02*
X2754Y318D01*
X0Y317D02*
X7Y317D01*
X2747Y317D02*
X2754Y317D01*
X0Y316D02*
X7Y316D01*
X2747Y316D02*
X2754Y316D01*
X0Y315D02*
X7Y315D01*
X2747Y315D02*
X2754Y315D01*
X0Y314D02*
X7Y314D01*
X2747Y314D02*
X2754Y314D01*
X0Y313D02*
X7Y313D01*
X2747Y313D02*
X2754Y313D01*
X0Y312D02*
X7Y312D01*
X2747Y312D02*
X2754Y312D01*
X0Y311D02*
X7Y311D01*
X2747Y311D02*
X2754Y311D01*
X0Y310D02*
X7Y310D01*
X2747Y310D02*
X2754Y310D01*
X0Y309D02*
X7Y309D01*
X2747Y309D02*
X2754Y309D01*
X0Y308D02*
X7Y308D01*
X2747Y308D02*
X2754Y308D01*
X0Y307D02*
X7Y307D01*
X2747Y307D02*
X2754Y307D01*
X0Y306D02*
X7Y306D01*
X2747Y306D02*
X2754Y306D01*
X0Y305D02*
X7Y305D01*
X2747Y305D02*
X2754Y305D01*
X0Y304D02*
X7Y304D01*
X2747Y304D02*
X2754Y304D01*
X0Y303D02*
X7Y303D01*
X2747Y303D02*
X2754Y303D01*
X0Y302D02*
X7Y302D01*
X2747Y302D02*
X2754Y302D01*
X0Y301D02*
X7Y301D01*
X2747Y301D02*
X2754Y301D01*
X0Y300D02*
X7Y300D01*
X2747Y300D02*
X2754Y300D01*
X0Y299D02*
X7Y299D01*
X2747Y299D02*
X2754Y299D01*
X0Y298D02*
X7Y298D01*
X2747Y298D02*
X2754Y298D01*
X0Y297D02*
X7Y297D01*
X2747Y297D02*
X2754Y297D01*
X0Y296D02*
X7Y296D01*
X2747Y296D02*
X2754Y296D01*
X0Y295D02*
X7Y295D01*
X2747Y295D02*
X2754Y295D01*
X0Y294D02*
X7Y294D01*
X2747Y294D02*
X2754Y294D01*
X0Y293D02*
X7Y293D01*
X2747Y293D02*
X2754Y293D01*
X0Y292D02*
X7Y292D01*
X2747Y292D02*
X2754Y292D01*
X0Y291D02*
X7Y291D01*
X2747Y291D02*
X2754Y291D01*
X0Y290D02*
X7Y290D01*
X2747Y290D02*
X2754Y290D01*
X0Y289D02*
X7Y289D01*
X2747Y289D02*
X2754Y289D01*
X0Y288D02*
X7Y288D01*
X2747Y288D02*
X2754Y288D01*
X0Y287D02*
X7Y287D01*
X2747Y287D02*
X2754Y287D01*
X0Y286D02*
X7Y286D01*
X2747Y286D02*
X2754Y286D01*
X0Y285D02*
X7Y285D01*
X2747Y285D02*
X2754Y285D01*
X0Y284D02*
X7Y284D01*
X2747Y284D02*
X2754Y284D01*
X0Y283D02*
X7Y283D01*
X2747Y283D02*
X2754Y283D01*
X0Y282D02*
X7Y282D01*
X2747Y282D02*
X2754Y282D01*
X0Y281D02*
X7Y281D01*
X2747Y281D02*
X2754Y281D01*
X0Y280D02*
X7Y280D01*
X2747Y280D02*
X2754Y280D01*
X0Y279D02*
X7Y279D01*
X2747Y279D02*
X2754Y279D01*
X0Y278D02*
X7Y278D01*
X2747Y278D02*
X2754Y278D01*
X0Y277D02*
X7Y277D01*
X2747Y277D02*
X2754Y277D01*
X0Y276D02*
X7Y276D01*
X2747Y276D02*
X2754Y276D01*
X0Y275D02*
X7Y275D01*
X2747Y275D02*
X2754Y275D01*
X0Y274D02*
X7Y274D01*
X2747Y274D02*
X2754Y274D01*
X0Y273D02*
X7Y273D01*
X2747Y273D02*
X2754Y273D01*
X0Y272D02*
X7Y272D01*
X2747Y272D02*
X2754Y272D01*
X0Y271D02*
X7Y271D01*
X2747Y271D02*
X2754Y271D01*
X0Y270D02*
X7Y270D01*
X2747Y270D02*
X2754Y270D01*
X0Y269D02*
X7Y269D01*
X2747Y269D02*
X2754Y269D01*
X0Y268D02*
X7Y268D01*
X2747Y268D02*
X2754Y268D01*
X0Y267D02*
X7Y267D01*
X2747Y267D02*
X2754Y267D01*
X0Y266D02*
X7Y266D01*
X2747Y266D02*
X2754Y266D01*
X0Y265D02*
X7Y265D01*
X2747Y265D02*
X2754Y265D01*
X0Y264D02*
X7Y264D01*
X2747Y264D02*
X2754Y264D01*
X0Y263D02*
X7Y263D01*
X2747Y263D02*
X2754Y263D01*
X0Y262D02*
X7Y262D01*
X2747Y262D02*
X2754Y262D01*
X0Y261D02*
X7Y261D01*
X2747Y261D02*
X2754Y261D01*
X0Y260D02*
X7Y260D01*
X2747Y260D02*
X2754Y260D01*
X0Y259D02*
X7Y259D01*
X2747Y259D02*
X2754Y259D01*
X0Y258D02*
X7Y258D01*
X2747Y258D02*
X2754Y258D01*
X0Y257D02*
X7Y257D01*
X2747Y257D02*
X2754Y257D01*
X0Y256D02*
X7Y256D01*
X2747Y256D02*
X2754Y256D01*
X0Y255D02*
X7Y255D01*
X2747Y255D02*
X2754Y255D01*
X0Y254D02*
X7Y254D01*
X2747Y254D02*
X2754Y254D01*
X0Y253D02*
X7Y253D01*
X2747Y253D02*
X2754Y253D01*
X0Y252D02*
X7Y252D01*
X2747Y252D02*
X2754Y252D01*
X0Y251D02*
X7Y251D01*
X2747Y251D02*
X2754Y251D01*
X0Y250D02*
X7Y250D01*
X2747Y250D02*
X2754Y250D01*
X0Y249D02*
X7Y249D01*
X2747Y249D02*
X2754Y249D01*
X0Y248D02*
X7Y248D01*
X2747Y248D02*
X2754Y248D01*
X0Y247D02*
X7Y247D01*
X2747Y247D02*
X2754Y247D01*
X0Y246D02*
X7Y246D01*
X2747Y246D02*
X2754Y246D01*
X0Y245D02*
X7Y245D01*
X2747Y245D02*
X2754Y245D01*
X0Y244D02*
X7Y244D01*
X2747Y244D02*
X2754Y244D01*
X0Y243D02*
X7Y243D01*
X2747Y243D02*
X2754Y243D01*
X0Y242D02*
X7Y242D01*
X2747Y242D02*
X2754Y242D01*
X0Y241D02*
X7Y241D01*
X2747Y241D02*
X2754Y241D01*
X0Y240D02*
X7Y240D01*
X2747Y240D02*
X2754Y240D01*
X0Y239D02*
X7Y239D01*
X2747Y239D02*
X2754Y239D01*
X0Y238D02*
X7Y238D01*
X2747Y238D02*
X2754Y238D01*
X0Y237D02*
X7Y237D01*
X2747Y237D02*
X2754Y237D01*
X0Y236D02*
X7Y236D01*
X2747Y236D02*
X2754Y236D01*
X0Y235D02*
X7Y235D01*
X2747Y235D02*
X2754Y235D01*
X0Y234D02*
X7Y234D01*
X2747Y234D02*
X2754Y234D01*
X0Y233D02*
X7Y233D01*
X2747Y233D02*
X2754Y233D01*
X0Y232D02*
X7Y232D01*
X2747Y232D02*
X2754Y232D01*
X0Y231D02*
X7Y231D01*
X2747Y231D02*
X2754Y231D01*
X0Y230D02*
X7Y230D01*
X2747Y230D02*
X2754Y230D01*
X0Y229D02*
X7Y229D01*
X2747Y229D02*
X2754Y229D01*
X0Y228D02*
X7Y228D01*
X2747Y228D02*
X2754Y228D01*
X0Y227D02*
X7Y227D01*
X2747Y227D02*
X2754Y227D01*
X0Y226D02*
X7Y226D01*
X2747Y226D02*
X2754Y226D01*
X0Y225D02*
X7Y225D01*
X2747Y225D02*
X2754Y225D01*
X0Y224D02*
X7Y224D01*
X2747Y224D02*
X2754Y224D01*
X0Y223D02*
X7Y223D01*
X2747Y223D02*
X2754Y223D01*
X0Y222D02*
X7Y222D01*
X2747Y222D02*
X2754Y222D01*
X0Y221D02*
X7Y221D01*
X2747Y221D02*
X2754Y221D01*
X0Y220D02*
X7Y220D01*
X2747Y220D02*
X2754Y220D01*
X0Y219D02*
X7Y219D01*
X2747Y219D02*
X2754Y219D01*
X0Y218D02*
X7Y218D01*
X2747Y218D02*
X2754Y218D01*
X0Y217D02*
X7Y217D01*
X2747Y217D02*
X2754Y217D01*
X0Y216D02*
X7Y216D01*
X2747Y216D02*
X2754Y216D01*
X0Y215D02*
X7Y215D01*
X2747Y215D02*
X2754Y215D01*
X0Y214D02*
X7Y214D01*
X2747Y214D02*
X2754Y214D01*
X0Y213D02*
X7Y213D01*
X2747Y213D02*
X2754Y213D01*
X0Y212D02*
X7Y212D01*
X2747Y212D02*
X2754Y212D01*
X0Y211D02*
X7Y211D01*
X2747Y211D02*
X2754Y211D01*
X0Y210D02*
X7Y210D01*
X2747Y210D02*
X2754Y210D01*
X0Y209D02*
X7Y209D01*
X2747Y209D02*
X2754Y209D01*
X0Y208D02*
X7Y208D01*
X2747Y208D02*
X2754Y208D01*
X0Y207D02*
X7Y207D01*
X2747Y207D02*
X2754Y207D01*
X0Y206D02*
X7Y206D01*
X2747Y206D02*
X2754Y206D01*
X0Y205D02*
X7Y205D01*
X2747Y205D02*
X2754Y205D01*
X0Y204D02*
X7Y204D01*
X2747Y204D02*
X2754Y204D01*
X0Y203D02*
X7Y203D01*
X2747Y203D02*
X2754Y203D01*
X0Y202D02*
X7Y202D01*
X2747Y202D02*
X2754Y202D01*
X0Y201D02*
X7Y201D01*
X2747Y201D02*
X2754Y201D01*
X0Y200D02*
X7Y200D01*
X2747Y200D02*
X2754Y200D01*
X0Y199D02*
X7Y199D01*
X2747Y199D02*
X2754Y199D01*
X0Y198D02*
X7Y198D01*
X2747Y198D02*
X2754Y198D01*
X0Y197D02*
X7Y197D01*
X2747Y197D02*
X2754Y197D01*
X0Y196D02*
X7Y196D01*
X2747Y196D02*
X2754Y196D01*
X0Y195D02*
X7Y195D01*
X2747Y195D02*
X2754Y195D01*
X0Y194D02*
X7Y194D01*
X2747Y194D02*
X2754Y194D01*
X0Y193D02*
X7Y193D01*
X2747Y193D02*
X2754Y193D01*
X0Y192D02*
X7Y192D01*
X2747Y192D02*
X2754Y192D01*
X0Y191D02*
X7Y191D01*
X2747Y191D02*
X2754Y191D01*
X0Y190D02*
X7Y190D01*
X2747Y190D02*
X2754Y190D01*
X0Y189D02*
X7Y189D01*
X2747Y189D02*
X2754Y189D01*
X0Y188D02*
X7Y188D01*
X2747Y188D02*
X2754Y188D01*
X0Y187D02*
X7Y187D01*
X2747Y187D02*
X2754Y187D01*
X0Y186D02*
X7Y186D01*
X2747Y186D02*
X2754Y186D01*
X0Y185D02*
X7Y185D01*
X2747Y185D02*
X2754Y185D01*
X0Y184D02*
X7Y184D01*
X2747Y184D02*
X2754Y184D01*
X0Y183D02*
X7Y183D01*
X2747Y183D02*
X2754Y183D01*
X0Y182D02*
X7Y182D01*
X2747Y182D02*
X2754Y182D01*
X0Y181D02*
X7Y181D01*
X2747Y181D02*
X2754Y181D01*
X0Y180D02*
X7Y180D01*
X2747Y180D02*
X2754Y180D01*
X0Y179D02*
X7Y179D01*
X2747Y179D02*
X2754Y179D01*
X0Y178D02*
X7Y178D01*
X2747Y178D02*
X2754Y178D01*
X0Y177D02*
X7Y177D01*
X2747Y177D02*
X2754Y177D01*
X0Y176D02*
X7Y176D01*
X2747Y176D02*
X2754Y176D01*
X0Y175D02*
X7Y175D01*
X2747Y175D02*
X2754Y175D01*
X0Y174D02*
X7Y174D01*
X2747Y174D02*
X2754Y174D01*
X0Y173D02*
X7Y173D01*
X2747Y173D02*
X2754Y173D01*
X0Y172D02*
X7Y172D01*
X2747Y172D02*
X2754Y172D01*
X0Y171D02*
X7Y171D01*
X2747Y171D02*
X2754Y171D01*
X0Y170D02*
X7Y170D01*
X2747Y170D02*
X2754Y170D01*
X0Y169D02*
X7Y169D01*
X2747Y169D02*
X2754Y169D01*
X0Y168D02*
X7Y168D01*
X2747Y168D02*
X2754Y168D01*
X0Y167D02*
X7Y167D01*
X2747Y167D02*
X2754Y167D01*
X0Y166D02*
X7Y166D01*
X2747Y166D02*
X2754Y166D01*
X0Y165D02*
X7Y165D01*
X2747Y165D02*
X2754Y165D01*
X0Y164D02*
X7Y164D01*
X2747Y164D02*
X2754Y164D01*
X0Y163D02*
X7Y163D01*
X2747Y163D02*
X2754Y163D01*
X0Y162D02*
X7Y162D01*
X2747Y162D02*
X2754Y162D01*
X0Y161D02*
X7Y161D01*
X2747Y161D02*
X2754Y161D01*
X0Y160D02*
X7Y160D01*
X2747Y160D02*
X2754Y160D01*
X0Y159D02*
X7Y159D01*
X2747Y159D02*
X2754Y159D01*
X0Y158D02*
X7Y158D01*
X2747Y158D02*
X2754Y158D01*
X0Y157D02*
X7Y157D01*
X2747Y157D02*
X2754Y157D01*
X0Y156D02*
X7Y156D01*
X2747Y156D02*
X2754Y156D01*
X0Y155D02*
X7Y155D01*
X2747Y155D02*
X2754Y155D01*
X0Y154D02*
X7Y154D01*
X2747Y154D02*
X2754Y154D01*
X0Y153D02*
X7Y153D01*
X2747Y153D02*
X2754Y153D01*
X0Y152D02*
X7Y152D01*
X2747Y152D02*
X2754Y152D01*
X0Y151D02*
X7Y151D01*
X2747Y151D02*
X2754Y151D01*
X0Y150D02*
X7Y150D01*
X2747Y150D02*
X2754Y150D01*
X0Y149D02*
X7Y149D01*
X2747Y149D02*
X2754Y149D01*
X0Y148D02*
X7Y148D01*
X2747Y148D02*
X2754Y148D01*
X0Y147D02*
X7Y147D01*
X2747Y147D02*
X2754Y147D01*
X0Y146D02*
X7Y146D01*
X2747Y146D02*
X2754Y146D01*
X0Y145D02*
X7Y145D01*
X2747Y145D02*
X2754Y145D01*
X0Y144D02*
X7Y144D01*
X2747Y144D02*
X2754Y144D01*
X0Y143D02*
X7Y143D01*
X2747Y143D02*
X2754Y143D01*
X0Y142D02*
X7Y142D01*
X2747Y142D02*
X2754Y142D01*
X0Y141D02*
X7Y141D01*
X2747Y141D02*
X2754Y141D01*
X0Y140D02*
X7Y140D01*
X2747Y140D02*
X2754Y140D01*
X0Y139D02*
X7Y139D01*
X2747Y139D02*
X2754Y139D01*
X0Y138D02*
X7Y138D01*
X2747Y138D02*
X2754Y138D01*
X0Y137D02*
X7Y137D01*
X2747Y137D02*
X2754Y137D01*
X0Y136D02*
X7Y136D01*
X2747Y136D02*
X2754Y136D01*
X0Y135D02*
X7Y135D01*
X2747Y135D02*
X2754Y135D01*
X0Y134D02*
X7Y134D01*
X2747Y134D02*
X2754Y134D01*
X0Y133D02*
X7Y133D01*
X2747Y133D02*
X2754Y133D01*
X0Y132D02*
X7Y132D01*
X2747Y132D02*
X2754Y132D01*
X0Y131D02*
X7Y131D01*
X2747Y131D02*
X2754Y131D01*
X0Y130D02*
X7Y130D01*
X2747Y130D02*
X2754Y130D01*
X0Y129D02*
X7Y129D01*
X2747Y129D02*
X2754Y129D01*
X0Y128D02*
X7Y128D01*
X2747Y128D02*
X2754Y128D01*
X0Y127D02*
X7Y127D01*
X2747Y127D02*
X2754Y127D01*
X0Y126D02*
X7Y126D01*
X2747Y126D02*
X2754Y126D01*
X0Y125D02*
X7Y125D01*
X2747Y125D02*
X2754Y125D01*
X0Y124D02*
X7Y124D01*
X2747Y124D02*
X2754Y124D01*
X0Y123D02*
X7Y123D01*
X2747Y123D02*
X2754Y123D01*
X0Y122D02*
X7Y122D01*
X2747Y122D02*
X2754Y122D01*
X0Y121D02*
X7Y121D01*
X2747Y121D02*
X2754Y121D01*
X0Y120D02*
X7Y120D01*
X2747Y120D02*
X2754Y120D01*
X0Y119D02*
X7Y119D01*
X2747Y119D02*
X2754Y119D01*
X0Y118D02*
X7Y118D01*
X2747Y118D02*
X2754Y118D01*
X0Y117D02*
X7Y117D01*
X2747Y117D02*
X2754Y117D01*
X0Y116D02*
X7Y116D01*
X2747Y116D02*
X2754Y116D01*
X0Y115D02*
X7Y115D01*
X2747Y115D02*
X2754Y115D01*
X0Y114D02*
X7Y114D01*
X2747Y114D02*
X2754Y114D01*
X0Y113D02*
X7Y113D01*
X2747Y113D02*
X2754Y113D01*
X0Y112D02*
X7Y112D01*
X2747Y112D02*
X2754Y112D01*
X0Y111D02*
X7Y111D01*
X2747Y111D02*
X2754Y111D01*
X0Y110D02*
X7Y110D01*
X2747Y110D02*
X2754Y110D01*
X0Y109D02*
X7Y109D01*
X2747Y109D02*
X2754Y109D01*
X0Y108D02*
X7Y108D01*
X2747Y108D02*
X2754Y108D01*
X0Y107D02*
X7Y107D01*
X2747Y107D02*
X2754Y107D01*
X0Y106D02*
X7Y106D01*
X2747Y106D02*
X2754Y106D01*
X0Y105D02*
X7Y105D01*
X2747Y105D02*
X2754Y105D01*
X0Y104D02*
X7Y104D01*
X2747Y104D02*
X2754Y104D01*
X0Y103D02*
X7Y103D01*
X2747Y103D02*
X2754Y103D01*
X0Y102D02*
X7Y102D01*
X2747Y102D02*
X2754Y102D01*
X0Y101D02*
X7Y101D01*
X2747Y101D02*
X2754Y101D01*
X0Y100D02*
X7Y100D01*
X2747Y100D02*
X2754Y100D01*
X0Y99D02*
X7Y99D01*
X2747Y99D02*
X2754Y99D01*
X0Y98D02*
X7Y98D01*
X2747Y98D02*
X2754Y98D01*
X0Y97D02*
X7Y97D01*
X2747Y97D02*
X2754Y97D01*
X0Y96D02*
X7Y96D01*
X2747Y96D02*
X2754Y96D01*
X0Y95D02*
X7Y95D01*
X2747Y95D02*
X2754Y95D01*
X0Y94D02*
X7Y94D01*
X2747Y94D02*
X2754Y94D01*
X0Y93D02*
X7Y93D01*
X2747Y93D02*
X2754Y93D01*
X0Y92D02*
X7Y92D01*
X2747Y92D02*
X2754Y92D01*
X0Y91D02*
X7Y91D01*
X2747Y91D02*
X2754Y91D01*
X0Y90D02*
X7Y90D01*
X2747Y90D02*
X2754Y90D01*
X0Y89D02*
X7Y89D01*
X2747Y89D02*
X2754Y89D01*
X0Y88D02*
X7Y88D01*
X2747Y88D02*
X2754Y88D01*
X0Y87D02*
X7Y87D01*
X2747Y87D02*
X2754Y87D01*
X0Y86D02*
X7Y86D01*
X2747Y86D02*
X2754Y86D01*
X0Y85D02*
X7Y85D01*
X2747Y85D02*
X2754Y85D01*
X0Y84D02*
X7Y84D01*
X2747Y84D02*
X2754Y84D01*
X0Y83D02*
X7Y83D01*
X2747Y83D02*
X2754Y83D01*
X0Y82D02*
X7Y82D01*
X2747Y82D02*
X2754Y82D01*
X0Y81D02*
X7Y81D01*
X2747Y81D02*
X2754Y81D01*
X0Y80D02*
X7Y80D01*
X2747Y80D02*
X2754Y80D01*
X0Y79D02*
X7Y79D01*
X2747Y79D02*
X2754Y79D01*
X0Y78D02*
X7Y78D01*
X2747Y78D02*
X2754Y78D01*
X0Y77D02*
X7Y77D01*
X2747Y77D02*
X2754Y77D01*
X0Y76D02*
X7Y76D01*
X2747Y76D02*
X2754Y76D01*
X0Y75D02*
X7Y75D01*
X2747Y75D02*
X2754Y75D01*
X0Y74D02*
X7Y74D01*
X2747Y74D02*
X2754Y74D01*
X0Y73D02*
X7Y73D01*
X2747Y73D02*
X2754Y73D01*
X0Y72D02*
X7Y72D01*
X2747Y72D02*
X2754Y72D01*
X0Y71D02*
X7Y71D01*
X2747Y71D02*
X2754Y71D01*
X0Y70D02*
X7Y70D01*
X2747Y70D02*
X2754Y70D01*
X0Y69D02*
X7Y69D01*
X2747Y69D02*
X2754Y69D01*
X0Y68D02*
X7Y68D01*
X2747Y68D02*
X2754Y68D01*
X0Y67D02*
X7Y67D01*
X2747Y67D02*
X2754Y67D01*
X0Y66D02*
X7Y66D01*
X2747Y66D02*
X2754Y66D01*
X0Y65D02*
X7Y65D01*
X2747Y65D02*
X2754Y65D01*
X0Y64D02*
X7Y64D01*
X2747Y64D02*
X2754Y64D01*
X0Y63D02*
X7Y63D01*
X2747Y63D02*
X2754Y63D01*
X0Y62D02*
X7Y62D01*
X2747Y62D02*
X2754Y62D01*
X0Y61D02*
X7Y61D01*
X2747Y61D02*
X2754Y61D01*
X0Y60D02*
X7Y60D01*
X2747Y60D02*
X2754Y60D01*
X0Y59D02*
X7Y59D01*
X2747Y59D02*
X2754Y59D01*
X0Y58D02*
X7Y58D01*
X2747Y58D02*
X2754Y58D01*
X0Y57D02*
X7Y57D01*
X2747Y57D02*
X2754Y57D01*
X0Y56D02*
X7Y56D01*
X2747Y56D02*
X2754Y56D01*
X0Y55D02*
X7Y55D01*
X2747Y55D02*
X2754Y55D01*
X0Y54D02*
X7Y54D01*
X2747Y54D02*
X2754Y54D01*
X0Y53D02*
X7Y53D01*
X2747Y53D02*
X2754Y53D01*
X0Y52D02*
X7Y52D01*
X2747Y52D02*
X2754Y52D01*
X0Y51D02*
X7Y51D01*
X2747Y51D02*
X2754Y51D01*
X0Y50D02*
X7Y50D01*
X2747Y50D02*
X2754Y50D01*
X0Y49D02*
X7Y49D01*
X2747Y49D02*
X2754Y49D01*
X0Y48D02*
X7Y48D01*
X2747Y48D02*
X2754Y48D01*
X0Y47D02*
X7Y47D01*
X2747Y47D02*
X2754Y47D01*
X0Y46D02*
X7Y46D01*
X2747Y46D02*
X2754Y46D01*
X0Y45D02*
X7Y45D01*
X2747Y45D02*
X2754Y45D01*
X0Y44D02*
X7Y44D01*
X2747Y44D02*
X2754Y44D01*
X0Y43D02*
X7Y43D01*
X2747Y43D02*
X2754Y43D01*
X0Y42D02*
X7Y42D01*
X2747Y42D02*
X2754Y42D01*
X0Y41D02*
X7Y41D01*
X2747Y41D02*
X2754Y41D01*
X0Y40D02*
X7Y40D01*
X2747Y40D02*
X2754Y40D01*
X0Y39D02*
X7Y39D01*
X2747Y39D02*
X2754Y39D01*
X0Y38D02*
X7Y38D01*
X2747Y38D02*
X2754Y38D01*
X0Y37D02*
X7Y37D01*
X2747Y37D02*
X2754Y37D01*
X0Y36D02*
X7Y36D01*
X2747Y36D02*
X2754Y36D01*
X0Y35D02*
X7Y35D01*
X2747Y35D02*
X2754Y35D01*
X0Y34D02*
X7Y34D01*
X2747Y34D02*
X2754Y34D01*
X0Y33D02*
X7Y33D01*
X2747Y33D02*
X2754Y33D01*
X0Y32D02*
X7Y32D01*
X2747Y32D02*
X2754Y32D01*
X0Y31D02*
X7Y31D01*
X2747Y31D02*
X2754Y31D01*
X0Y30D02*
X7Y30D01*
X2747Y30D02*
X2754Y30D01*
X0Y29D02*
X7Y29D01*
X2747Y29D02*
X2754Y29D01*
X0Y28D02*
X7Y28D01*
X2747Y28D02*
X2754Y28D01*
X0Y27D02*
X7Y27D01*
X2747Y27D02*
X2754Y27D01*
X0Y26D02*
X7Y26D01*
X2747Y26D02*
X2754Y26D01*
X0Y25D02*
X7Y25D01*
X2747Y25D02*
X2754Y25D01*
X0Y24D02*
X7Y24D01*
X2747Y24D02*
X2754Y24D01*
X0Y23D02*
X7Y23D01*
X2747Y23D02*
X2754Y23D01*
X0Y22D02*
X7Y22D01*
X2747Y22D02*
X2754Y22D01*
X0Y21D02*
X7Y21D01*
X2747Y21D02*
X2754Y21D01*
X0Y20D02*
X7Y20D01*
X2747Y20D02*
X2754Y20D01*
X0Y19D02*
X7Y19D01*
X2747Y19D02*
X2754Y19D01*
X0Y18D02*
X7Y18D01*
X2747Y18D02*
X2754Y18D01*
X0Y17D02*
X7Y17D01*
X2747Y17D02*
X2754Y17D01*
X0Y16D02*
X7Y16D01*
X2747Y16D02*
X2754Y16D01*
X0Y15D02*
X7Y15D01*
X2747Y15D02*
X2754Y15D01*
X0Y14D02*
X7Y14D01*
X2747Y14D02*
X2754Y14D01*
X0Y13D02*
X7Y13D01*
X2747Y13D02*
X2754Y13D01*
X0Y12D02*
X7Y12D01*
X2747Y12D02*
X2754Y12D01*
X0Y11D02*
X7Y11D01*
X2747Y11D02*
X2754Y11D01*
X0Y10D02*
X7Y10D01*
X2747Y10D02*
X2754Y10D01*
X0Y9D02*
X7Y9D01*
X2747Y9D02*
X2754Y9D01*
X0Y8D02*
X2754Y8D01*
X0Y7D02*
X2754Y7D01*
X0Y6D02*
X2754Y6D01*
X0Y5D02*
X2754Y5D01*
X0Y4D02*
X2754Y4D01*
X0Y3D02*
X2754Y3D01*
X0Y2D02*
X2754Y2D01*
X0Y1D02*
X2754Y1D01*
D02*
G04 End of Silk0*
M02*