G04 MADE WITH FRITZING*
G04 WWW.FRITZING.ORG*
G04 DOUBLE SIDED*
G04 HOLES PLATED*
G04 CONTOUR ON CENTER OF CONTOUR VECTOR*
%ASAXBY*%
%FSLAX23Y23*%
%MOIN*%
%OFA0B0*%
%SFA1.0B1.0*%
%ADD10C,0.085000*%
%ADD11C,0.081889*%
%ADD12C,0.081917*%
%ADD13C,0.134033*%
%ADD14C,0.088000*%
%ADD15C,0.092000*%
%ADD16C,0.072992*%
%ADD17C,0.084000*%
%ADD18C,0.090000*%
%ADD19C,0.096614*%
%ADD20C,0.135984*%
%ADD21R,0.088000X0.088000*%
%ADD22R,0.092000X0.092000*%
%ADD23R,0.085000X0.085000*%
%ADD24R,0.072992X0.072992*%
%ADD25R,0.090000X0.090000*%
%LNMASK1*%
G90*
G70*
G54D10*
X708Y762D03*
X708Y362D03*
G54D11*
X1860Y362D03*
X1960Y362D03*
G54D12*
X2060Y362D03*
G54D13*
X1766Y658D03*
X2154Y658D03*
G54D14*
X2507Y462D03*
X2507Y362D03*
X2507Y262D03*
G54D10*
X1414Y461D03*
X1414Y361D03*
X1414Y261D03*
G54D15*
X1416Y589D03*
X1416Y887D03*
G54D10*
X1180Y261D03*
X1180Y361D03*
X1180Y761D03*
X880Y761D03*
X880Y361D03*
X880Y261D03*
G54D16*
X322Y364D03*
X322Y462D03*
G54D17*
X237Y738D03*
X394Y738D03*
X237Y738D03*
X394Y738D03*
G54D18*
X2508Y887D03*
X2508Y749D03*
G54D19*
X78Y1103D03*
X78Y78D03*
X2678Y78D03*
X2678Y1103D03*
G54D20*
X1764Y659D03*
X2154Y659D03*
G54D21*
X2507Y462D03*
G54D22*
X1416Y588D03*
G54D23*
X1180Y261D03*
G54D24*
X322Y364D03*
G54D25*
X2508Y887D03*
G04 End of Mask1*
M02*