; NON-PLATED HOLES START AT T1
; THROUGH (PLATED) HOLES START AT T100
M48
INCH
T1C0.086614
T100C0.040000
T101C0.031497
T102C0.035433
T103C0.044111
T104C0.042000
T105C0.035000
T106C0.086614
T107C0.088356
T108C0.038000
T109C0.044139
%
T1
X000777Y011033
X026777Y011033
X026777Y000783
X000777Y000783
T100
X025078Y008867
X025078Y007489
T101
X003223Y004619
X003223Y003635
T102
X003940Y007380
X002365Y007380
T103
X019597Y003623
X018597Y003623
T104
X014155Y008873
X014155Y005893
T105
X008802Y007610
X008802Y002610
X014144Y004608
X008802Y003610
X014144Y002608
X011802Y002610
X007077Y007616
X007077Y003616
X014144Y003608
X011802Y003610
X011802Y007610
T106
X021541Y006588
X017643Y006588
T107
X017656Y006576
X021539Y006576
T108
X025073Y004615
X025073Y002615
X025073Y003615
T109
X020597Y003623
T00
M30
