; NON-PLATED HOLES START AT T1
; THROUGH (PLATED) HOLES START AT T100
M48
INCH
T1C0.125984
T2C0.086614
T100C0.040000
T101C0.030000
T102C0.055118
T103C0.038000
T104C0.035000
%
T1
X005420Y002443
X005431Y009491
T2
X000777Y011033
X011027Y000783
X011027Y011033
X000777Y000783
T100
X009328Y003772
X009329Y005393
X009333Y008396
X009333Y009774
X009329Y006771
X009328Y002394
T101
X001959Y008842
X001964Y005093
X001964Y004091
X001959Y007841
T102
X003307Y004095
X007520Y004095
X003307Y007835
X003296Y005992
X007520Y007835
T103
X007329Y001010
X008329Y001010
X009329Y001010
T104
X001506Y002369
X002178Y000994
X000506Y002369
X002506Y002369
X006178Y000994
T00
M30
