G04 MADE WITH FRITZING*
G04 WWW.FRITZING.ORG*
G04 DOUBLE SIDED*
G04 HOLES PLATED*
G04 CONTOUR ON CENTER OF CONTOUR VECTOR*
%ASAXBY*%
%FSLAX23Y23*%
%MOIN*%
%OFA0B0*%
%SFA1.0B1.0*%
%ADD10C,0.060921X0.0509212*%
%ADD11C,0.005000*%
%ADD12C,0.010000*%
%ADD13R,0.001000X0.001000*%
%LNSILK1*%
G90*
G70*
G54D10*
X423Y715D03*
G54D11*
X266Y892D02*
X266Y301D01*
D02*
X817Y301D02*
X817Y892D01*
D02*
X411Y894D02*
X411Y1007D01*
D02*
X671Y1007D02*
X671Y893D01*
D02*
X411Y301D02*
X411Y187D01*
D02*
X671Y187D02*
X671Y301D01*
G54D12*
D02*
X327Y132D02*
X527Y132D01*
D02*
X527Y132D02*
X527Y66D01*
D02*
X527Y66D02*
X327Y66D01*
D02*
X327Y66D02*
X327Y132D01*
D02*
X845Y451D02*
X845Y166D01*
D02*
X845Y166D02*
X1061Y166D01*
D02*
X1061Y166D02*
X1061Y451D01*
D02*
X1061Y451D02*
X845Y451D01*
G54D11*
D02*
X1021Y166D02*
X1021Y451D01*
G54D12*
D02*
X221Y173D02*
X81Y173D01*
D02*
X983Y151D02*
X683Y151D01*
D02*
X683Y151D02*
X683Y51D01*
D02*
X683Y51D02*
X983Y51D01*
D02*
X983Y51D02*
X983Y151D01*
D02*
X845Y1051D02*
X845Y766D01*
D02*
X845Y766D02*
X1061Y766D01*
D02*
X1061Y766D02*
X1061Y1051D01*
D02*
X1061Y1051D02*
X845Y1051D01*
G54D11*
D02*
X1021Y766D02*
X1021Y1051D01*
G54D12*
D02*
X845Y751D02*
X845Y465D01*
D02*
X845Y465D02*
X1061Y465D01*
D02*
X1061Y465D02*
X1061Y751D01*
D02*
X1061Y751D02*
X845Y751D01*
G54D11*
D02*
X1021Y465D02*
X1021Y751D01*
G54D13*
X0Y1181D02*
X1180Y1181D01*
X0Y1180D02*
X1180Y1180D01*
X0Y1179D02*
X1180Y1179D01*
X0Y1178D02*
X1180Y1178D01*
X0Y1177D02*
X1180Y1177D01*
X0Y1176D02*
X1180Y1176D01*
X0Y1175D02*
X1180Y1175D01*
X0Y1174D02*
X1180Y1174D01*
X0Y1173D02*
X7Y1173D01*
X1173Y1173D02*
X1180Y1173D01*
X0Y1172D02*
X7Y1172D01*
X1173Y1172D02*
X1180Y1172D01*
X0Y1171D02*
X7Y1171D01*
X1173Y1171D02*
X1180Y1171D01*
X0Y1170D02*
X7Y1170D01*
X1173Y1170D02*
X1180Y1170D01*
X0Y1169D02*
X7Y1169D01*
X1173Y1169D02*
X1180Y1169D01*
X0Y1168D02*
X7Y1168D01*
X1173Y1168D02*
X1180Y1168D01*
X0Y1167D02*
X7Y1167D01*
X1173Y1167D02*
X1180Y1167D01*
X0Y1166D02*
X7Y1166D01*
X1173Y1166D02*
X1180Y1166D01*
X0Y1165D02*
X7Y1165D01*
X1173Y1165D02*
X1180Y1165D01*
X0Y1164D02*
X7Y1164D01*
X1173Y1164D02*
X1180Y1164D01*
X0Y1163D02*
X7Y1163D01*
X1173Y1163D02*
X1180Y1163D01*
X0Y1162D02*
X7Y1162D01*
X1173Y1162D02*
X1180Y1162D01*
X0Y1161D02*
X7Y1161D01*
X1173Y1161D02*
X1180Y1161D01*
X0Y1160D02*
X7Y1160D01*
X1173Y1160D02*
X1180Y1160D01*
X0Y1159D02*
X7Y1159D01*
X1173Y1159D02*
X1180Y1159D01*
X0Y1158D02*
X7Y1158D01*
X1173Y1158D02*
X1180Y1158D01*
X0Y1157D02*
X7Y1157D01*
X1173Y1157D02*
X1180Y1157D01*
X0Y1156D02*
X7Y1156D01*
X1173Y1156D02*
X1180Y1156D01*
X0Y1155D02*
X7Y1155D01*
X1173Y1155D02*
X1180Y1155D01*
X0Y1154D02*
X7Y1154D01*
X1173Y1154D02*
X1180Y1154D01*
X0Y1153D02*
X7Y1153D01*
X1173Y1153D02*
X1180Y1153D01*
X0Y1152D02*
X7Y1152D01*
X1173Y1152D02*
X1180Y1152D01*
X0Y1151D02*
X7Y1151D01*
X1173Y1151D02*
X1180Y1151D01*
X0Y1150D02*
X7Y1150D01*
X1173Y1150D02*
X1180Y1150D01*
X0Y1149D02*
X7Y1149D01*
X1173Y1149D02*
X1180Y1149D01*
X0Y1148D02*
X7Y1148D01*
X1173Y1148D02*
X1180Y1148D01*
X0Y1147D02*
X7Y1147D01*
X1173Y1147D02*
X1180Y1147D01*
X0Y1146D02*
X7Y1146D01*
X1173Y1146D02*
X1180Y1146D01*
X0Y1145D02*
X7Y1145D01*
X1173Y1145D02*
X1180Y1145D01*
X0Y1144D02*
X7Y1144D01*
X1173Y1144D02*
X1180Y1144D01*
X0Y1143D02*
X7Y1143D01*
X1173Y1143D02*
X1180Y1143D01*
X0Y1142D02*
X7Y1142D01*
X1173Y1142D02*
X1180Y1142D01*
X0Y1141D02*
X7Y1141D01*
X1173Y1141D02*
X1180Y1141D01*
X0Y1140D02*
X7Y1140D01*
X1173Y1140D02*
X1180Y1140D01*
X0Y1139D02*
X7Y1139D01*
X1173Y1139D02*
X1180Y1139D01*
X0Y1138D02*
X7Y1138D01*
X1173Y1138D02*
X1180Y1138D01*
X0Y1137D02*
X7Y1137D01*
X1173Y1137D02*
X1180Y1137D01*
X0Y1136D02*
X7Y1136D01*
X145Y1136D02*
X160Y1136D01*
X190Y1136D02*
X195Y1136D01*
X261Y1136D02*
X262Y1136D01*
X281Y1136D02*
X305Y1136D01*
X330Y1136D02*
X350Y1136D01*
X375Y1136D02*
X396Y1136D01*
X462Y1136D02*
X481Y1136D01*
X509Y1136D02*
X510Y1136D01*
X534Y1136D02*
X535Y1136D01*
X553Y1136D02*
X575Y1136D01*
X615Y1136D02*
X626Y1136D01*
X646Y1136D02*
X647Y1136D01*
X704Y1136D02*
X705Y1136D01*
X735Y1136D02*
X758Y1136D01*
X840Y1136D02*
X842Y1136D01*
X873Y1136D02*
X875Y1136D01*
X931Y1136D02*
X933Y1136D01*
X962Y1136D02*
X985Y1136D01*
X1008Y1136D02*
X1015Y1136D01*
X1031Y1136D02*
X1038Y1136D01*
X1173Y1136D02*
X1180Y1136D01*
X0Y1135D02*
X7Y1135D01*
X144Y1135D02*
X161Y1135D01*
X189Y1135D02*
X196Y1135D01*
X260Y1135D02*
X263Y1135D01*
X280Y1135D02*
X306Y1135D01*
X328Y1135D02*
X352Y1135D01*
X374Y1135D02*
X397Y1135D01*
X461Y1135D02*
X484Y1135D01*
X508Y1135D02*
X511Y1135D01*
X533Y1135D02*
X536Y1135D01*
X553Y1135D02*
X577Y1135D01*
X613Y1135D02*
X627Y1135D01*
X645Y1135D02*
X648Y1135D01*
X703Y1135D02*
X706Y1135D01*
X735Y1135D02*
X759Y1135D01*
X839Y1135D02*
X843Y1135D01*
X872Y1135D02*
X876Y1135D01*
X930Y1135D02*
X934Y1135D01*
X962Y1135D02*
X987Y1135D01*
X1008Y1135D02*
X1015Y1135D01*
X1031Y1135D02*
X1038Y1135D01*
X1173Y1135D02*
X1180Y1135D01*
X0Y1134D02*
X7Y1134D01*
X143Y1134D02*
X161Y1134D01*
X189Y1134D02*
X196Y1134D01*
X259Y1134D02*
X264Y1134D01*
X280Y1134D02*
X307Y1134D01*
X327Y1134D02*
X353Y1134D01*
X373Y1134D02*
X398Y1134D01*
X461Y1134D02*
X485Y1134D01*
X508Y1134D02*
X512Y1134D01*
X533Y1134D02*
X537Y1134D01*
X553Y1134D02*
X578Y1134D01*
X612Y1134D02*
X628Y1134D01*
X644Y1134D02*
X648Y1134D01*
X702Y1134D02*
X707Y1134D01*
X735Y1134D02*
X761Y1134D01*
X839Y1134D02*
X843Y1134D01*
X872Y1134D02*
X876Y1134D01*
X930Y1134D02*
X934Y1134D01*
X962Y1134D02*
X988Y1134D01*
X1008Y1134D02*
X1016Y1134D01*
X1030Y1134D02*
X1038Y1134D01*
X1173Y1134D02*
X1180Y1134D01*
X0Y1133D02*
X7Y1133D01*
X143Y1133D02*
X161Y1133D01*
X188Y1133D02*
X197Y1133D01*
X259Y1133D02*
X264Y1133D01*
X280Y1133D02*
X308Y1133D01*
X327Y1133D02*
X354Y1133D01*
X372Y1133D02*
X399Y1133D01*
X461Y1133D02*
X486Y1133D01*
X507Y1133D02*
X512Y1133D01*
X532Y1133D02*
X537Y1133D01*
X553Y1133D02*
X579Y1133D01*
X611Y1133D02*
X628Y1133D01*
X644Y1133D02*
X649Y1133D01*
X702Y1133D02*
X707Y1133D01*
X735Y1133D02*
X761Y1133D01*
X838Y1133D02*
X843Y1133D01*
X872Y1133D02*
X876Y1133D01*
X930Y1133D02*
X934Y1133D01*
X962Y1133D02*
X989Y1133D01*
X1008Y1133D02*
X1016Y1133D01*
X1030Y1133D02*
X1038Y1133D01*
X1173Y1133D02*
X1180Y1133D01*
X0Y1132D02*
X7Y1132D01*
X143Y1132D02*
X161Y1132D01*
X188Y1132D02*
X197Y1132D01*
X258Y1132D02*
X264Y1132D01*
X279Y1132D02*
X309Y1132D01*
X326Y1132D02*
X354Y1132D01*
X372Y1132D02*
X400Y1132D01*
X461Y1132D02*
X487Y1132D01*
X507Y1132D02*
X512Y1132D01*
X532Y1132D02*
X537Y1132D01*
X553Y1132D02*
X580Y1132D01*
X610Y1132D02*
X628Y1132D01*
X644Y1132D02*
X649Y1132D01*
X702Y1132D02*
X707Y1132D01*
X735Y1132D02*
X762Y1132D01*
X838Y1132D02*
X844Y1132D01*
X871Y1132D02*
X877Y1132D01*
X929Y1132D02*
X935Y1132D01*
X962Y1132D02*
X990Y1132D01*
X1008Y1132D02*
X1017Y1132D01*
X1029Y1132D02*
X1038Y1132D01*
X1173Y1132D02*
X1180Y1132D01*
X0Y1131D02*
X7Y1131D01*
X143Y1131D02*
X161Y1131D01*
X188Y1131D02*
X197Y1131D01*
X258Y1131D02*
X264Y1131D01*
X279Y1131D02*
X309Y1131D01*
X326Y1131D02*
X354Y1131D01*
X371Y1131D02*
X400Y1131D01*
X461Y1131D02*
X488Y1131D01*
X507Y1131D02*
X512Y1131D01*
X532Y1131D02*
X537Y1131D01*
X553Y1131D02*
X581Y1131D01*
X610Y1131D02*
X628Y1131D01*
X644Y1131D02*
X649Y1131D01*
X701Y1131D02*
X707Y1131D01*
X735Y1131D02*
X763Y1131D01*
X838Y1131D02*
X844Y1131D01*
X871Y1131D02*
X877Y1131D01*
X929Y1131D02*
X935Y1131D01*
X962Y1131D02*
X990Y1131D01*
X1008Y1131D02*
X1017Y1131D01*
X1029Y1131D02*
X1038Y1131D01*
X1173Y1131D02*
X1180Y1131D01*
X0Y1130D02*
X7Y1130D01*
X143Y1130D02*
X161Y1130D01*
X188Y1130D02*
X197Y1130D01*
X258Y1130D02*
X264Y1130D01*
X279Y1130D02*
X309Y1130D01*
X325Y1130D02*
X355Y1130D01*
X371Y1130D02*
X400Y1130D01*
X461Y1130D02*
X488Y1130D01*
X507Y1130D02*
X512Y1130D01*
X532Y1130D02*
X537Y1130D01*
X553Y1130D02*
X581Y1130D01*
X609Y1130D02*
X628Y1130D01*
X644Y1130D02*
X649Y1130D01*
X701Y1130D02*
X707Y1130D01*
X735Y1130D02*
X763Y1130D01*
X838Y1130D02*
X844Y1130D01*
X871Y1130D02*
X877Y1130D01*
X929Y1130D02*
X935Y1130D01*
X962Y1130D02*
X991Y1130D01*
X1008Y1130D02*
X1018Y1130D01*
X1029Y1130D02*
X1038Y1130D01*
X1173Y1130D02*
X1180Y1130D01*
X0Y1129D02*
X7Y1129D01*
X143Y1129D02*
X161Y1129D01*
X188Y1129D02*
X196Y1129D01*
X257Y1129D02*
X264Y1129D01*
X280Y1129D02*
X309Y1129D01*
X325Y1129D02*
X355Y1129D01*
X371Y1129D02*
X401Y1129D01*
X461Y1129D02*
X489Y1129D01*
X507Y1129D02*
X512Y1129D01*
X532Y1129D02*
X537Y1129D01*
X553Y1129D02*
X582Y1129D01*
X609Y1129D02*
X628Y1129D01*
X644Y1129D02*
X649Y1129D01*
X701Y1129D02*
X708Y1129D01*
X735Y1129D02*
X764Y1129D01*
X838Y1129D02*
X844Y1129D01*
X871Y1129D02*
X877Y1129D01*
X929Y1129D02*
X935Y1129D01*
X962Y1129D02*
X991Y1129D01*
X1008Y1129D02*
X1018Y1129D01*
X1028Y1129D02*
X1038Y1129D01*
X1173Y1129D02*
X1180Y1129D01*
X0Y1128D02*
X7Y1128D01*
X144Y1128D02*
X161Y1128D01*
X188Y1128D02*
X196Y1128D01*
X257Y1128D02*
X263Y1128D01*
X280Y1128D02*
X310Y1128D01*
X325Y1128D02*
X355Y1128D01*
X371Y1128D02*
X401Y1128D01*
X461Y1128D02*
X489Y1128D01*
X507Y1128D02*
X512Y1128D01*
X532Y1128D02*
X537Y1128D01*
X553Y1128D02*
X582Y1128D01*
X608Y1128D02*
X628Y1128D01*
X644Y1128D02*
X649Y1128D01*
X701Y1128D02*
X708Y1128D01*
X735Y1128D02*
X764Y1128D01*
X837Y1128D02*
X844Y1128D01*
X871Y1128D02*
X877Y1128D01*
X929Y1128D02*
X935Y1128D01*
X962Y1128D02*
X992Y1128D01*
X1008Y1128D02*
X1019Y1128D01*
X1028Y1128D02*
X1038Y1128D01*
X1173Y1128D02*
X1180Y1128D01*
X0Y1127D02*
X7Y1127D01*
X144Y1127D02*
X161Y1127D01*
X188Y1127D02*
X195Y1127D01*
X257Y1127D02*
X263Y1127D01*
X281Y1127D02*
X310Y1127D01*
X325Y1127D02*
X355Y1127D01*
X370Y1127D02*
X401Y1127D01*
X461Y1127D02*
X490Y1127D01*
X507Y1127D02*
X512Y1127D01*
X532Y1127D02*
X537Y1127D01*
X553Y1127D02*
X582Y1127D01*
X608Y1127D02*
X627Y1127D01*
X644Y1127D02*
X649Y1127D01*
X701Y1127D02*
X708Y1127D01*
X735Y1127D02*
X764Y1127D01*
X837Y1127D02*
X845Y1127D01*
X871Y1127D02*
X877Y1127D01*
X928Y1127D02*
X936Y1127D01*
X962Y1127D02*
X992Y1127D01*
X1008Y1127D02*
X1019Y1127D01*
X1027Y1127D02*
X1038Y1127D01*
X1173Y1127D02*
X1180Y1127D01*
X0Y1126D02*
X7Y1126D01*
X155Y1126D02*
X161Y1126D01*
X188Y1126D02*
X194Y1126D01*
X256Y1126D02*
X263Y1126D01*
X304Y1126D02*
X310Y1126D01*
X325Y1126D02*
X330Y1126D01*
X350Y1126D02*
X355Y1126D01*
X370Y1126D02*
X376Y1126D01*
X395Y1126D02*
X401Y1126D01*
X461Y1126D02*
X467Y1126D01*
X481Y1126D02*
X490Y1126D01*
X507Y1126D02*
X512Y1126D01*
X532Y1126D02*
X537Y1126D01*
X553Y1126D02*
X558Y1126D01*
X575Y1126D02*
X582Y1126D01*
X607Y1126D02*
X615Y1126D01*
X644Y1126D02*
X649Y1126D01*
X701Y1126D02*
X708Y1126D01*
X735Y1126D02*
X740Y1126D01*
X757Y1126D02*
X765Y1126D01*
X837Y1126D02*
X845Y1126D01*
X871Y1126D02*
X877Y1126D01*
X928Y1126D02*
X936Y1126D01*
X962Y1126D02*
X968Y1126D01*
X985Y1126D02*
X992Y1126D01*
X1008Y1126D02*
X1019Y1126D01*
X1027Y1126D02*
X1038Y1126D01*
X1173Y1126D02*
X1180Y1126D01*
X0Y1125D02*
X7Y1125D01*
X155Y1125D02*
X161Y1125D01*
X188Y1125D02*
X194Y1125D01*
X256Y1125D02*
X262Y1125D01*
X304Y1125D02*
X310Y1125D01*
X325Y1125D02*
X330Y1125D01*
X350Y1125D02*
X355Y1125D01*
X370Y1125D02*
X376Y1125D01*
X395Y1125D02*
X401Y1125D01*
X461Y1125D02*
X467Y1125D01*
X483Y1125D02*
X491Y1125D01*
X507Y1125D02*
X512Y1125D01*
X532Y1125D02*
X537Y1125D01*
X553Y1125D02*
X558Y1125D01*
X576Y1125D02*
X583Y1125D01*
X607Y1125D02*
X614Y1125D01*
X644Y1125D02*
X649Y1125D01*
X700Y1125D02*
X708Y1125D01*
X735Y1125D02*
X740Y1125D01*
X758Y1125D02*
X765Y1125D01*
X837Y1125D02*
X845Y1125D01*
X871Y1125D02*
X877Y1125D01*
X928Y1125D02*
X936Y1125D01*
X962Y1125D02*
X968Y1125D01*
X986Y1125D02*
X992Y1125D01*
X1008Y1125D02*
X1020Y1125D01*
X1026Y1125D02*
X1038Y1125D01*
X1173Y1125D02*
X1180Y1125D01*
X0Y1124D02*
X7Y1124D01*
X155Y1124D02*
X161Y1124D01*
X188Y1124D02*
X194Y1124D01*
X256Y1124D02*
X262Y1124D01*
X304Y1124D02*
X310Y1124D01*
X325Y1124D02*
X330Y1124D01*
X350Y1124D02*
X355Y1124D01*
X370Y1124D02*
X376Y1124D01*
X395Y1124D02*
X401Y1124D01*
X461Y1124D02*
X467Y1124D01*
X484Y1124D02*
X491Y1124D01*
X507Y1124D02*
X512Y1124D01*
X532Y1124D02*
X537Y1124D01*
X553Y1124D02*
X558Y1124D01*
X577Y1124D02*
X583Y1124D01*
X606Y1124D02*
X613Y1124D01*
X644Y1124D02*
X649Y1124D01*
X700Y1124D02*
X708Y1124D01*
X735Y1124D02*
X740Y1124D01*
X759Y1124D02*
X765Y1124D01*
X837Y1124D02*
X845Y1124D01*
X871Y1124D02*
X877Y1124D01*
X928Y1124D02*
X936Y1124D01*
X962Y1124D02*
X968Y1124D01*
X987Y1124D02*
X993Y1124D01*
X1008Y1124D02*
X1020Y1124D01*
X1026Y1124D02*
X1038Y1124D01*
X1173Y1124D02*
X1180Y1124D01*
X0Y1123D02*
X7Y1123D01*
X155Y1123D02*
X161Y1123D01*
X188Y1123D02*
X194Y1123D01*
X255Y1123D02*
X262Y1123D01*
X304Y1123D02*
X310Y1123D01*
X325Y1123D02*
X330Y1123D01*
X350Y1123D02*
X355Y1123D01*
X370Y1123D02*
X376Y1123D01*
X395Y1123D02*
X401Y1123D01*
X461Y1123D02*
X467Y1123D01*
X485Y1123D02*
X491Y1123D01*
X507Y1123D02*
X512Y1123D01*
X532Y1123D02*
X537Y1123D01*
X553Y1123D02*
X558Y1123D01*
X577Y1123D02*
X583Y1123D01*
X606Y1123D02*
X613Y1123D01*
X644Y1123D02*
X649Y1123D01*
X700Y1123D02*
X709Y1123D01*
X735Y1123D02*
X740Y1123D01*
X759Y1123D02*
X765Y1123D01*
X837Y1123D02*
X845Y1123D01*
X871Y1123D02*
X877Y1123D01*
X928Y1123D02*
X936Y1123D01*
X962Y1123D02*
X968Y1123D01*
X987Y1123D02*
X993Y1123D01*
X1008Y1123D02*
X1021Y1123D01*
X1025Y1123D02*
X1038Y1123D01*
X1173Y1123D02*
X1180Y1123D01*
X0Y1122D02*
X7Y1122D01*
X155Y1122D02*
X161Y1122D01*
X188Y1122D02*
X194Y1122D01*
X255Y1122D02*
X261Y1122D01*
X304Y1122D02*
X310Y1122D01*
X325Y1122D02*
X330Y1122D01*
X350Y1122D02*
X355Y1122D01*
X370Y1122D02*
X376Y1122D01*
X395Y1122D02*
X401Y1122D01*
X461Y1122D02*
X467Y1122D01*
X485Y1122D02*
X491Y1122D01*
X507Y1122D02*
X512Y1122D01*
X532Y1122D02*
X537Y1122D01*
X553Y1122D02*
X558Y1122D01*
X577Y1122D02*
X583Y1122D01*
X605Y1122D02*
X612Y1122D01*
X644Y1122D02*
X649Y1122D01*
X700Y1122D02*
X709Y1122D01*
X735Y1122D02*
X740Y1122D01*
X760Y1122D02*
X765Y1122D01*
X836Y1122D02*
X845Y1122D01*
X871Y1122D02*
X877Y1122D01*
X927Y1122D02*
X937Y1122D01*
X962Y1122D02*
X968Y1122D01*
X987Y1122D02*
X993Y1122D01*
X1008Y1122D02*
X1021Y1122D01*
X1025Y1122D02*
X1038Y1122D01*
X1173Y1122D02*
X1180Y1122D01*
X0Y1121D02*
X7Y1121D01*
X155Y1121D02*
X161Y1121D01*
X188Y1121D02*
X194Y1121D01*
X254Y1121D02*
X261Y1121D01*
X304Y1121D02*
X310Y1121D01*
X325Y1121D02*
X330Y1121D01*
X350Y1121D02*
X355Y1121D01*
X370Y1121D02*
X376Y1121D01*
X395Y1121D02*
X401Y1121D01*
X461Y1121D02*
X467Y1121D01*
X486Y1121D02*
X491Y1121D01*
X507Y1121D02*
X512Y1121D01*
X532Y1121D02*
X537Y1121D01*
X553Y1121D02*
X558Y1121D01*
X578Y1121D02*
X583Y1121D01*
X605Y1121D02*
X612Y1121D01*
X644Y1121D02*
X649Y1121D01*
X700Y1121D02*
X709Y1121D01*
X735Y1121D02*
X740Y1121D01*
X760Y1121D02*
X765Y1121D01*
X836Y1121D02*
X846Y1121D01*
X871Y1121D02*
X877Y1121D01*
X927Y1121D02*
X937Y1121D01*
X962Y1121D02*
X968Y1121D01*
X987Y1121D02*
X993Y1121D01*
X1008Y1121D02*
X1013Y1121D01*
X1015Y1121D02*
X1022Y1121D01*
X1025Y1121D02*
X1031Y1121D01*
X1033Y1121D02*
X1038Y1121D01*
X1173Y1121D02*
X1180Y1121D01*
X0Y1120D02*
X7Y1120D01*
X155Y1120D02*
X161Y1120D01*
X188Y1120D02*
X194Y1120D01*
X254Y1120D02*
X261Y1120D01*
X304Y1120D02*
X310Y1120D01*
X325Y1120D02*
X330Y1120D01*
X350Y1120D02*
X355Y1120D01*
X370Y1120D02*
X376Y1120D01*
X395Y1120D02*
X401Y1120D01*
X461Y1120D02*
X467Y1120D01*
X486Y1120D02*
X492Y1120D01*
X507Y1120D02*
X512Y1120D01*
X532Y1120D02*
X537Y1120D01*
X553Y1120D02*
X558Y1120D01*
X578Y1120D02*
X583Y1120D01*
X604Y1120D02*
X611Y1120D01*
X644Y1120D02*
X649Y1120D01*
X699Y1120D02*
X709Y1120D01*
X735Y1120D02*
X740Y1120D01*
X760Y1120D02*
X765Y1120D01*
X836Y1120D02*
X846Y1120D01*
X871Y1120D02*
X877Y1120D01*
X927Y1120D02*
X937Y1120D01*
X962Y1120D02*
X968Y1120D01*
X987Y1120D02*
X993Y1120D01*
X1008Y1120D02*
X1013Y1120D01*
X1015Y1120D02*
X1022Y1120D01*
X1024Y1120D02*
X1031Y1120D01*
X1033Y1120D02*
X1038Y1120D01*
X1173Y1120D02*
X1180Y1120D01*
X0Y1119D02*
X7Y1119D01*
X155Y1119D02*
X161Y1119D01*
X188Y1119D02*
X194Y1119D01*
X254Y1119D02*
X260Y1119D01*
X304Y1119D02*
X310Y1119D01*
X325Y1119D02*
X330Y1119D01*
X350Y1119D02*
X355Y1119D01*
X370Y1119D02*
X376Y1119D01*
X395Y1119D02*
X401Y1119D01*
X461Y1119D02*
X467Y1119D01*
X486Y1119D02*
X492Y1119D01*
X507Y1119D02*
X512Y1119D01*
X532Y1119D02*
X537Y1119D01*
X553Y1119D02*
X558Y1119D01*
X578Y1119D02*
X583Y1119D01*
X604Y1119D02*
X611Y1119D01*
X644Y1119D02*
X649Y1119D01*
X699Y1119D02*
X709Y1119D01*
X735Y1119D02*
X740Y1119D01*
X760Y1119D02*
X765Y1119D01*
X836Y1119D02*
X846Y1119D01*
X871Y1119D02*
X877Y1119D01*
X927Y1119D02*
X937Y1119D01*
X962Y1119D02*
X968Y1119D01*
X987Y1119D02*
X993Y1119D01*
X1008Y1119D02*
X1013Y1119D01*
X1016Y1119D02*
X1030Y1119D01*
X1033Y1119D02*
X1038Y1119D01*
X1173Y1119D02*
X1180Y1119D01*
X0Y1118D02*
X7Y1118D01*
X155Y1118D02*
X161Y1118D01*
X188Y1118D02*
X194Y1118D01*
X253Y1118D02*
X260Y1118D01*
X304Y1118D02*
X310Y1118D01*
X325Y1118D02*
X330Y1118D01*
X350Y1118D02*
X355Y1118D01*
X370Y1118D02*
X376Y1118D01*
X395Y1118D02*
X401Y1118D01*
X461Y1118D02*
X467Y1118D01*
X486Y1118D02*
X492Y1118D01*
X507Y1118D02*
X512Y1118D01*
X532Y1118D02*
X537Y1118D01*
X553Y1118D02*
X558Y1118D01*
X578Y1118D02*
X583Y1118D01*
X603Y1118D02*
X610Y1118D01*
X644Y1118D02*
X649Y1118D01*
X699Y1118D02*
X710Y1118D01*
X735Y1118D02*
X740Y1118D01*
X760Y1118D02*
X765Y1118D01*
X836Y1118D02*
X846Y1118D01*
X871Y1118D02*
X877Y1118D01*
X927Y1118D02*
X937Y1118D01*
X962Y1118D02*
X968Y1118D01*
X987Y1118D02*
X993Y1118D01*
X1008Y1118D02*
X1013Y1118D01*
X1016Y1118D02*
X1030Y1118D01*
X1033Y1118D02*
X1038Y1118D01*
X1173Y1118D02*
X1180Y1118D01*
X0Y1117D02*
X7Y1117D01*
X155Y1117D02*
X161Y1117D01*
X188Y1117D02*
X194Y1117D01*
X253Y1117D02*
X259Y1117D01*
X304Y1117D02*
X310Y1117D01*
X325Y1117D02*
X330Y1117D01*
X350Y1117D02*
X355Y1117D01*
X370Y1117D02*
X376Y1117D01*
X395Y1117D02*
X401Y1117D01*
X461Y1117D02*
X467Y1117D01*
X486Y1117D02*
X492Y1117D01*
X507Y1117D02*
X512Y1117D01*
X532Y1117D02*
X537Y1117D01*
X553Y1117D02*
X558Y1117D01*
X578Y1117D02*
X583Y1117D01*
X603Y1117D02*
X610Y1117D01*
X644Y1117D02*
X649Y1117D01*
X699Y1117D02*
X710Y1117D01*
X735Y1117D02*
X740Y1117D01*
X760Y1117D02*
X765Y1117D01*
X835Y1117D02*
X846Y1117D01*
X871Y1117D02*
X877Y1117D01*
X927Y1117D02*
X937Y1117D01*
X962Y1117D02*
X968Y1117D01*
X987Y1117D02*
X993Y1117D01*
X1008Y1117D02*
X1013Y1117D01*
X1017Y1117D02*
X1030Y1117D01*
X1033Y1117D02*
X1038Y1117D01*
X1173Y1117D02*
X1180Y1117D01*
X0Y1116D02*
X7Y1116D01*
X155Y1116D02*
X161Y1116D01*
X188Y1116D02*
X194Y1116D01*
X253Y1116D02*
X259Y1116D01*
X304Y1116D02*
X310Y1116D01*
X325Y1116D02*
X330Y1116D01*
X350Y1116D02*
X355Y1116D01*
X370Y1116D02*
X376Y1116D01*
X395Y1116D02*
X401Y1116D01*
X461Y1116D02*
X467Y1116D01*
X486Y1116D02*
X492Y1116D01*
X507Y1116D02*
X512Y1116D01*
X532Y1116D02*
X537Y1116D01*
X553Y1116D02*
X558Y1116D01*
X578Y1116D02*
X583Y1116D01*
X602Y1116D02*
X609Y1116D01*
X644Y1116D02*
X649Y1116D01*
X699Y1116D02*
X710Y1116D01*
X735Y1116D02*
X740Y1116D01*
X760Y1116D02*
X765Y1116D01*
X835Y1116D02*
X847Y1116D01*
X871Y1116D02*
X877Y1116D01*
X926Y1116D02*
X938Y1116D01*
X962Y1116D02*
X968Y1116D01*
X987Y1116D02*
X993Y1116D01*
X1008Y1116D02*
X1013Y1116D01*
X1017Y1116D02*
X1029Y1116D01*
X1033Y1116D02*
X1038Y1116D01*
X1173Y1116D02*
X1180Y1116D01*
X0Y1115D02*
X7Y1115D01*
X155Y1115D02*
X161Y1115D01*
X188Y1115D02*
X194Y1115D01*
X252Y1115D02*
X259Y1115D01*
X304Y1115D02*
X310Y1115D01*
X325Y1115D02*
X330Y1115D01*
X350Y1115D02*
X355Y1115D01*
X370Y1115D02*
X376Y1115D01*
X395Y1115D02*
X401Y1115D01*
X461Y1115D02*
X467Y1115D01*
X486Y1115D02*
X492Y1115D01*
X507Y1115D02*
X512Y1115D01*
X532Y1115D02*
X537Y1115D01*
X553Y1115D02*
X558Y1115D01*
X577Y1115D02*
X583Y1115D01*
X602Y1115D02*
X609Y1115D01*
X644Y1115D02*
X649Y1115D01*
X698Y1115D02*
X710Y1115D01*
X735Y1115D02*
X740Y1115D01*
X760Y1115D02*
X765Y1115D01*
X835Y1115D02*
X847Y1115D01*
X871Y1115D02*
X877Y1115D01*
X926Y1115D02*
X938Y1115D01*
X962Y1115D02*
X968Y1115D01*
X987Y1115D02*
X993Y1115D01*
X1008Y1115D02*
X1013Y1115D01*
X1018Y1115D02*
X1029Y1115D01*
X1033Y1115D02*
X1038Y1115D01*
X1173Y1115D02*
X1180Y1115D01*
X0Y1114D02*
X7Y1114D01*
X155Y1114D02*
X161Y1114D01*
X188Y1114D02*
X194Y1114D01*
X252Y1114D02*
X258Y1114D01*
X304Y1114D02*
X310Y1114D01*
X325Y1114D02*
X330Y1114D01*
X350Y1114D02*
X355Y1114D01*
X370Y1114D02*
X376Y1114D01*
X395Y1114D02*
X401Y1114D01*
X461Y1114D02*
X467Y1114D01*
X486Y1114D02*
X492Y1114D01*
X507Y1114D02*
X512Y1114D01*
X532Y1114D02*
X537Y1114D01*
X553Y1114D02*
X558Y1114D01*
X577Y1114D02*
X583Y1114D01*
X601Y1114D02*
X608Y1114D01*
X644Y1114D02*
X649Y1114D01*
X698Y1114D02*
X710Y1114D01*
X735Y1114D02*
X740Y1114D01*
X759Y1114D02*
X765Y1114D01*
X835Y1114D02*
X847Y1114D01*
X871Y1114D02*
X877Y1114D01*
X926Y1114D02*
X938Y1114D01*
X962Y1114D02*
X968Y1114D01*
X987Y1114D02*
X993Y1114D01*
X1008Y1114D02*
X1013Y1114D01*
X1018Y1114D02*
X1028Y1114D01*
X1033Y1114D02*
X1038Y1114D01*
X1173Y1114D02*
X1180Y1114D01*
X0Y1113D02*
X7Y1113D01*
X155Y1113D02*
X161Y1113D01*
X188Y1113D02*
X194Y1113D01*
X252Y1113D02*
X258Y1113D01*
X304Y1113D02*
X310Y1113D01*
X325Y1113D02*
X330Y1113D01*
X350Y1113D02*
X355Y1113D01*
X370Y1113D02*
X376Y1113D01*
X395Y1113D02*
X401Y1113D01*
X461Y1113D02*
X467Y1113D01*
X486Y1113D02*
X492Y1113D01*
X507Y1113D02*
X512Y1113D01*
X532Y1113D02*
X537Y1113D01*
X553Y1113D02*
X558Y1113D01*
X577Y1113D02*
X583Y1113D01*
X601Y1113D02*
X608Y1113D01*
X644Y1113D02*
X649Y1113D01*
X698Y1113D02*
X711Y1113D01*
X735Y1113D02*
X740Y1113D01*
X759Y1113D02*
X765Y1113D01*
X835Y1113D02*
X847Y1113D01*
X871Y1113D02*
X877Y1113D01*
X926Y1113D02*
X938Y1113D01*
X962Y1113D02*
X968Y1113D01*
X987Y1113D02*
X993Y1113D01*
X1008Y1113D02*
X1013Y1113D01*
X1018Y1113D02*
X1028Y1113D01*
X1033Y1113D02*
X1038Y1113D01*
X1173Y1113D02*
X1180Y1113D01*
X0Y1112D02*
X7Y1112D01*
X155Y1112D02*
X161Y1112D01*
X188Y1112D02*
X194Y1112D01*
X251Y1112D02*
X258Y1112D01*
X304Y1112D02*
X310Y1112D01*
X325Y1112D02*
X330Y1112D01*
X350Y1112D02*
X355Y1112D01*
X370Y1112D02*
X376Y1112D01*
X395Y1112D02*
X401Y1112D01*
X461Y1112D02*
X467Y1112D01*
X486Y1112D02*
X492Y1112D01*
X507Y1112D02*
X512Y1112D01*
X532Y1112D02*
X537Y1112D01*
X553Y1112D02*
X558Y1112D01*
X576Y1112D02*
X583Y1112D01*
X600Y1112D02*
X607Y1112D01*
X644Y1112D02*
X649Y1112D01*
X698Y1112D02*
X711Y1112D01*
X735Y1112D02*
X740Y1112D01*
X758Y1112D02*
X765Y1112D01*
X835Y1112D02*
X847Y1112D01*
X871Y1112D02*
X877Y1112D01*
X926Y1112D02*
X938Y1112D01*
X962Y1112D02*
X968Y1112D01*
X986Y1112D02*
X992Y1112D01*
X1008Y1112D02*
X1013Y1112D01*
X1019Y1112D02*
X1027Y1112D01*
X1033Y1112D02*
X1038Y1112D01*
X1173Y1112D02*
X1180Y1112D01*
X0Y1111D02*
X7Y1111D01*
X155Y1111D02*
X161Y1111D01*
X188Y1111D02*
X194Y1111D01*
X251Y1111D02*
X257Y1111D01*
X304Y1111D02*
X310Y1111D01*
X325Y1111D02*
X330Y1111D01*
X350Y1111D02*
X355Y1111D01*
X370Y1111D02*
X376Y1111D01*
X395Y1111D02*
X401Y1111D01*
X461Y1111D02*
X467Y1111D01*
X486Y1111D02*
X492Y1111D01*
X507Y1111D02*
X512Y1111D01*
X532Y1111D02*
X537Y1111D01*
X553Y1111D02*
X558Y1111D01*
X575Y1111D02*
X582Y1111D01*
X600Y1111D02*
X607Y1111D01*
X644Y1111D02*
X649Y1111D01*
X698Y1111D02*
X703Y1111D01*
X705Y1111D02*
X711Y1111D01*
X735Y1111D02*
X740Y1111D01*
X757Y1111D02*
X765Y1111D01*
X834Y1111D02*
X840Y1111D01*
X842Y1111D02*
X847Y1111D01*
X871Y1111D02*
X877Y1111D01*
X925Y1111D02*
X931Y1111D01*
X933Y1111D02*
X939Y1111D01*
X962Y1111D02*
X968Y1111D01*
X985Y1111D02*
X992Y1111D01*
X1008Y1111D02*
X1013Y1111D01*
X1019Y1111D02*
X1027Y1111D01*
X1033Y1111D02*
X1038Y1111D01*
X1173Y1111D02*
X1180Y1111D01*
X0Y1110D02*
X7Y1110D01*
X155Y1110D02*
X161Y1110D01*
X188Y1110D02*
X194Y1110D01*
X250Y1110D02*
X257Y1110D01*
X304Y1110D02*
X310Y1110D01*
X325Y1110D02*
X330Y1110D01*
X350Y1110D02*
X355Y1110D01*
X370Y1110D02*
X376Y1110D01*
X395Y1110D02*
X401Y1110D01*
X461Y1110D02*
X467Y1110D01*
X486Y1110D02*
X492Y1110D01*
X507Y1110D02*
X512Y1110D01*
X532Y1110D02*
X537Y1110D01*
X553Y1110D02*
X582Y1110D01*
X600Y1110D02*
X606Y1110D01*
X644Y1110D02*
X649Y1110D01*
X698Y1110D02*
X703Y1110D01*
X705Y1110D02*
X711Y1110D01*
X735Y1110D02*
X764Y1110D01*
X834Y1110D02*
X840Y1110D01*
X842Y1110D02*
X848Y1110D01*
X871Y1110D02*
X877Y1110D01*
X925Y1110D02*
X931Y1110D01*
X933Y1110D02*
X939Y1110D01*
X962Y1110D02*
X992Y1110D01*
X1008Y1110D02*
X1013Y1110D01*
X1020Y1110D02*
X1026Y1110D01*
X1033Y1110D02*
X1038Y1110D01*
X1173Y1110D02*
X1180Y1110D01*
X0Y1109D02*
X7Y1109D01*
X155Y1109D02*
X161Y1109D01*
X188Y1109D02*
X194Y1109D01*
X250Y1109D02*
X256Y1109D01*
X304Y1109D02*
X310Y1109D01*
X325Y1109D02*
X330Y1109D01*
X350Y1109D02*
X355Y1109D01*
X370Y1109D02*
X376Y1109D01*
X395Y1109D02*
X401Y1109D01*
X461Y1109D02*
X467Y1109D01*
X486Y1109D02*
X492Y1109D01*
X507Y1109D02*
X512Y1109D01*
X532Y1109D02*
X537Y1109D01*
X553Y1109D02*
X582Y1109D01*
X599Y1109D02*
X606Y1109D01*
X644Y1109D02*
X649Y1109D01*
X697Y1109D02*
X703Y1109D01*
X706Y1109D02*
X711Y1109D01*
X735Y1109D02*
X764Y1109D01*
X834Y1109D02*
X840Y1109D01*
X842Y1109D02*
X848Y1109D01*
X871Y1109D02*
X877Y1109D01*
X925Y1109D02*
X931Y1109D01*
X933Y1109D02*
X939Y1109D01*
X962Y1109D02*
X992Y1109D01*
X1008Y1109D02*
X1013Y1109D01*
X1020Y1109D02*
X1026Y1109D01*
X1033Y1109D02*
X1038Y1109D01*
X1173Y1109D02*
X1180Y1109D01*
X0Y1108D02*
X7Y1108D01*
X155Y1108D02*
X161Y1108D01*
X188Y1108D02*
X194Y1108D01*
X250Y1108D02*
X256Y1108D01*
X304Y1108D02*
X310Y1108D01*
X325Y1108D02*
X330Y1108D01*
X350Y1108D02*
X355Y1108D01*
X370Y1108D02*
X376Y1108D01*
X395Y1108D02*
X401Y1108D01*
X461Y1108D02*
X467Y1108D01*
X486Y1108D02*
X492Y1108D01*
X507Y1108D02*
X512Y1108D01*
X532Y1108D02*
X537Y1108D01*
X553Y1108D02*
X581Y1108D01*
X599Y1108D02*
X605Y1108D01*
X644Y1108D02*
X649Y1108D01*
X697Y1108D02*
X703Y1108D01*
X706Y1108D02*
X711Y1108D01*
X735Y1108D02*
X764Y1108D01*
X834Y1108D02*
X839Y1108D01*
X842Y1108D02*
X848Y1108D01*
X871Y1108D02*
X877Y1108D01*
X925Y1108D02*
X931Y1108D01*
X933Y1108D02*
X939Y1108D01*
X962Y1108D02*
X991Y1108D01*
X1008Y1108D02*
X1013Y1108D01*
X1020Y1108D02*
X1026Y1108D01*
X1033Y1108D02*
X1038Y1108D01*
X1173Y1108D02*
X1180Y1108D01*
X0Y1107D02*
X7Y1107D01*
X155Y1107D02*
X161Y1107D01*
X188Y1107D02*
X194Y1107D01*
X249Y1107D02*
X256Y1107D01*
X304Y1107D02*
X310Y1107D01*
X325Y1107D02*
X330Y1107D01*
X350Y1107D02*
X355Y1107D01*
X370Y1107D02*
X376Y1107D01*
X395Y1107D02*
X401Y1107D01*
X461Y1107D02*
X467Y1107D01*
X485Y1107D02*
X491Y1107D01*
X507Y1107D02*
X512Y1107D01*
X532Y1107D02*
X537Y1107D01*
X553Y1107D02*
X581Y1107D01*
X599Y1107D02*
X605Y1107D01*
X644Y1107D02*
X649Y1107D01*
X697Y1107D02*
X703Y1107D01*
X706Y1107D02*
X712Y1107D01*
X735Y1107D02*
X763Y1107D01*
X834Y1107D02*
X839Y1107D01*
X843Y1107D02*
X848Y1107D01*
X871Y1107D02*
X877Y1107D01*
X925Y1107D02*
X930Y1107D01*
X934Y1107D02*
X939Y1107D01*
X962Y1107D02*
X991Y1107D01*
X1008Y1107D02*
X1013Y1107D01*
X1020Y1107D02*
X1026Y1107D01*
X1033Y1107D02*
X1038Y1107D01*
X1173Y1107D02*
X1180Y1107D01*
X0Y1106D02*
X7Y1106D01*
X155Y1106D02*
X161Y1106D01*
X188Y1106D02*
X194Y1106D01*
X249Y1106D02*
X255Y1106D01*
X304Y1106D02*
X310Y1106D01*
X325Y1106D02*
X330Y1106D01*
X350Y1106D02*
X355Y1106D01*
X370Y1106D02*
X376Y1106D01*
X395Y1106D02*
X401Y1106D01*
X461Y1106D02*
X467Y1106D01*
X485Y1106D02*
X491Y1106D01*
X507Y1106D02*
X512Y1106D01*
X532Y1106D02*
X537Y1106D01*
X553Y1106D02*
X580Y1106D01*
X599Y1106D02*
X604Y1106D01*
X644Y1106D02*
X649Y1106D01*
X697Y1106D02*
X702Y1106D01*
X706Y1106D02*
X712Y1106D01*
X735Y1106D02*
X763Y1106D01*
X833Y1106D02*
X839Y1106D01*
X843Y1106D02*
X848Y1106D01*
X871Y1106D02*
X877Y1106D01*
X925Y1106D02*
X930Y1106D01*
X934Y1106D02*
X939Y1106D01*
X962Y1106D02*
X990Y1106D01*
X1008Y1106D02*
X1013Y1106D01*
X1020Y1106D02*
X1026Y1106D01*
X1033Y1106D02*
X1038Y1106D01*
X1173Y1106D02*
X1180Y1106D01*
X0Y1105D02*
X7Y1105D01*
X155Y1105D02*
X161Y1105D01*
X188Y1105D02*
X194Y1105D01*
X249Y1105D02*
X255Y1105D01*
X304Y1105D02*
X310Y1105D01*
X325Y1105D02*
X330Y1105D01*
X350Y1105D02*
X355Y1105D01*
X370Y1105D02*
X376Y1105D01*
X395Y1105D02*
X401Y1105D01*
X461Y1105D02*
X467Y1105D01*
X484Y1105D02*
X491Y1105D01*
X507Y1105D02*
X512Y1105D01*
X532Y1105D02*
X537Y1105D01*
X553Y1105D02*
X580Y1105D01*
X598Y1105D02*
X604Y1105D01*
X644Y1105D02*
X649Y1105D01*
X697Y1105D02*
X702Y1105D01*
X706Y1105D02*
X712Y1105D01*
X735Y1105D02*
X762Y1105D01*
X833Y1105D02*
X839Y1105D01*
X843Y1105D02*
X849Y1105D01*
X871Y1105D02*
X877Y1105D01*
X924Y1105D02*
X930Y1105D01*
X934Y1105D02*
X940Y1105D01*
X962Y1105D02*
X990Y1105D01*
X1008Y1105D02*
X1013Y1105D01*
X1021Y1105D02*
X1026Y1105D01*
X1033Y1105D02*
X1038Y1105D01*
X1173Y1105D02*
X1180Y1105D01*
X0Y1104D02*
X7Y1104D01*
X155Y1104D02*
X161Y1104D01*
X188Y1104D02*
X194Y1104D01*
X248Y1104D02*
X255Y1104D01*
X304Y1104D02*
X310Y1104D01*
X325Y1104D02*
X330Y1104D01*
X350Y1104D02*
X355Y1104D01*
X370Y1104D02*
X376Y1104D01*
X395Y1104D02*
X401Y1104D01*
X461Y1104D02*
X467Y1104D01*
X483Y1104D02*
X491Y1104D01*
X507Y1104D02*
X512Y1104D01*
X532Y1104D02*
X537Y1104D01*
X553Y1104D02*
X579Y1104D01*
X598Y1104D02*
X604Y1104D01*
X644Y1104D02*
X649Y1104D01*
X696Y1104D02*
X702Y1104D01*
X707Y1104D02*
X712Y1104D01*
X735Y1104D02*
X761Y1104D01*
X833Y1104D02*
X839Y1104D01*
X843Y1104D02*
X849Y1104D01*
X871Y1104D02*
X877Y1104D01*
X924Y1104D02*
X930Y1104D01*
X934Y1104D02*
X940Y1104D01*
X962Y1104D02*
X989Y1104D01*
X1008Y1104D02*
X1013Y1104D01*
X1021Y1104D02*
X1026Y1104D01*
X1033Y1104D02*
X1038Y1104D01*
X1173Y1104D02*
X1180Y1104D01*
X0Y1103D02*
X7Y1103D01*
X155Y1103D02*
X161Y1103D01*
X188Y1103D02*
X194Y1103D01*
X248Y1103D02*
X254Y1103D01*
X304Y1103D02*
X310Y1103D01*
X325Y1103D02*
X330Y1103D01*
X350Y1103D02*
X355Y1103D01*
X370Y1103D02*
X376Y1103D01*
X395Y1103D02*
X401Y1103D01*
X461Y1103D02*
X467Y1103D01*
X482Y1103D02*
X490Y1103D01*
X507Y1103D02*
X512Y1103D01*
X532Y1103D02*
X537Y1103D01*
X553Y1103D02*
X578Y1103D01*
X598Y1103D02*
X604Y1103D01*
X644Y1103D02*
X649Y1103D01*
X696Y1103D02*
X702Y1103D01*
X707Y1103D02*
X712Y1103D01*
X735Y1103D02*
X760Y1103D01*
X833Y1103D02*
X839Y1103D01*
X843Y1103D02*
X849Y1103D01*
X871Y1103D02*
X877Y1103D01*
X924Y1103D02*
X930Y1103D01*
X934Y1103D02*
X940Y1103D01*
X962Y1103D02*
X988Y1103D01*
X1008Y1103D02*
X1013Y1103D01*
X1021Y1103D02*
X1025Y1103D01*
X1033Y1103D02*
X1038Y1103D01*
X1173Y1103D02*
X1180Y1103D01*
X0Y1102D02*
X7Y1102D01*
X155Y1102D02*
X161Y1102D01*
X188Y1102D02*
X194Y1102D01*
X247Y1102D02*
X254Y1102D01*
X284Y1102D02*
X310Y1102D01*
X325Y1102D02*
X330Y1102D01*
X350Y1102D02*
X355Y1102D01*
X370Y1102D02*
X376Y1102D01*
X395Y1102D02*
X401Y1102D01*
X461Y1102D02*
X490Y1102D01*
X507Y1102D02*
X512Y1102D01*
X532Y1102D02*
X537Y1102D01*
X553Y1102D02*
X577Y1102D01*
X598Y1102D02*
X604Y1102D01*
X644Y1102D02*
X649Y1102D01*
X696Y1102D02*
X702Y1102D01*
X707Y1102D02*
X713Y1102D01*
X735Y1102D02*
X759Y1102D01*
X833Y1102D02*
X838Y1102D01*
X843Y1102D02*
X849Y1102D01*
X871Y1102D02*
X877Y1102D01*
X924Y1102D02*
X929Y1102D01*
X935Y1102D02*
X940Y1102D01*
X962Y1102D02*
X987Y1102D01*
X1008Y1102D02*
X1013Y1102D01*
X1022Y1102D02*
X1025Y1102D01*
X1033Y1102D02*
X1038Y1102D01*
X1173Y1102D02*
X1180Y1102D01*
X0Y1101D02*
X7Y1101D01*
X155Y1101D02*
X161Y1101D01*
X188Y1101D02*
X194Y1101D01*
X247Y1101D02*
X254Y1101D01*
X283Y1101D02*
X310Y1101D01*
X325Y1101D02*
X330Y1101D01*
X350Y1101D02*
X355Y1101D01*
X370Y1101D02*
X376Y1101D01*
X395Y1101D02*
X401Y1101D01*
X461Y1101D02*
X490Y1101D01*
X507Y1101D02*
X512Y1101D01*
X532Y1101D02*
X537Y1101D01*
X553Y1101D02*
X575Y1101D01*
X598Y1101D02*
X603Y1101D01*
X644Y1101D02*
X649Y1101D01*
X696Y1101D02*
X702Y1101D01*
X707Y1101D02*
X713Y1101D01*
X735Y1101D02*
X757Y1101D01*
X833Y1101D02*
X838Y1101D01*
X844Y1101D02*
X849Y1101D01*
X871Y1101D02*
X877Y1101D01*
X924Y1101D02*
X929Y1101D01*
X935Y1101D02*
X940Y1101D01*
X962Y1101D02*
X985Y1101D01*
X1008Y1101D02*
X1013Y1101D01*
X1023Y1101D02*
X1023Y1101D01*
X1033Y1101D02*
X1038Y1101D01*
X1173Y1101D02*
X1180Y1101D01*
X0Y1100D02*
X7Y1100D01*
X155Y1100D02*
X161Y1100D01*
X188Y1100D02*
X194Y1100D01*
X247Y1100D02*
X253Y1100D01*
X282Y1100D02*
X310Y1100D01*
X325Y1100D02*
X330Y1100D01*
X350Y1100D02*
X355Y1100D01*
X370Y1100D02*
X376Y1100D01*
X395Y1100D02*
X401Y1100D01*
X461Y1100D02*
X489Y1100D01*
X507Y1100D02*
X512Y1100D01*
X532Y1100D02*
X537Y1100D01*
X553Y1100D02*
X558Y1100D01*
X564Y1100D02*
X570Y1100D01*
X598Y1100D02*
X603Y1100D01*
X644Y1100D02*
X649Y1100D01*
X696Y1100D02*
X701Y1100D01*
X707Y1100D02*
X713Y1100D01*
X735Y1100D02*
X740Y1100D01*
X746Y1100D02*
X752Y1100D01*
X832Y1100D02*
X838Y1100D01*
X844Y1100D02*
X850Y1100D01*
X871Y1100D02*
X877Y1100D01*
X923Y1100D02*
X929Y1100D01*
X935Y1100D02*
X941Y1100D01*
X962Y1100D02*
X968Y1100D01*
X973Y1100D02*
X980Y1100D01*
X1008Y1100D02*
X1013Y1100D01*
X1033Y1100D02*
X1038Y1100D01*
X1173Y1100D02*
X1180Y1100D01*
X0Y1099D02*
X7Y1099D01*
X155Y1099D02*
X161Y1099D01*
X188Y1099D02*
X194Y1099D01*
X246Y1099D02*
X253Y1099D01*
X281Y1099D02*
X309Y1099D01*
X325Y1099D02*
X330Y1099D01*
X350Y1099D02*
X355Y1099D01*
X370Y1099D02*
X376Y1099D01*
X395Y1099D02*
X401Y1099D01*
X461Y1099D02*
X488Y1099D01*
X507Y1099D02*
X512Y1099D01*
X532Y1099D02*
X537Y1099D01*
X553Y1099D02*
X558Y1099D01*
X564Y1099D02*
X570Y1099D01*
X598Y1099D02*
X603Y1099D01*
X644Y1099D02*
X649Y1099D01*
X696Y1099D02*
X701Y1099D01*
X707Y1099D02*
X713Y1099D01*
X735Y1099D02*
X740Y1099D01*
X746Y1099D02*
X753Y1099D01*
X832Y1099D02*
X838Y1099D01*
X844Y1099D02*
X850Y1099D01*
X871Y1099D02*
X877Y1099D01*
X923Y1099D02*
X929Y1099D01*
X935Y1099D02*
X941Y1099D01*
X962Y1099D02*
X968Y1099D01*
X974Y1099D02*
X980Y1099D01*
X1008Y1099D02*
X1013Y1099D01*
X1033Y1099D02*
X1038Y1099D01*
X1173Y1099D02*
X1180Y1099D01*
X0Y1098D02*
X7Y1098D01*
X155Y1098D02*
X161Y1098D01*
X188Y1098D02*
X194Y1098D01*
X246Y1098D02*
X252Y1098D01*
X280Y1098D02*
X309Y1098D01*
X325Y1098D02*
X330Y1098D01*
X350Y1098D02*
X355Y1098D01*
X370Y1098D02*
X376Y1098D01*
X395Y1098D02*
X401Y1098D01*
X461Y1098D02*
X488Y1098D01*
X507Y1098D02*
X512Y1098D01*
X532Y1098D02*
X537Y1098D01*
X553Y1098D02*
X558Y1098D01*
X564Y1098D02*
X571Y1098D01*
X598Y1098D02*
X603Y1098D01*
X644Y1098D02*
X649Y1098D01*
X695Y1098D02*
X701Y1098D01*
X708Y1098D02*
X713Y1098D01*
X735Y1098D02*
X740Y1098D01*
X746Y1098D02*
X753Y1098D01*
X832Y1098D02*
X838Y1098D01*
X844Y1098D02*
X850Y1098D01*
X871Y1098D02*
X877Y1098D01*
X923Y1098D02*
X929Y1098D01*
X935Y1098D02*
X941Y1098D01*
X962Y1098D02*
X968Y1098D01*
X974Y1098D02*
X981Y1098D01*
X1008Y1098D02*
X1013Y1098D01*
X1033Y1098D02*
X1038Y1098D01*
X1173Y1098D02*
X1180Y1098D01*
X0Y1097D02*
X7Y1097D01*
X155Y1097D02*
X161Y1097D01*
X188Y1097D02*
X194Y1097D01*
X246Y1097D02*
X252Y1097D01*
X280Y1097D02*
X309Y1097D01*
X325Y1097D02*
X330Y1097D01*
X350Y1097D02*
X355Y1097D01*
X370Y1097D02*
X376Y1097D01*
X395Y1097D02*
X401Y1097D01*
X461Y1097D02*
X488Y1097D01*
X507Y1097D02*
X512Y1097D01*
X532Y1097D02*
X537Y1097D01*
X553Y1097D02*
X558Y1097D01*
X565Y1097D02*
X571Y1097D01*
X598Y1097D02*
X603Y1097D01*
X644Y1097D02*
X649Y1097D01*
X695Y1097D02*
X701Y1097D01*
X708Y1097D02*
X713Y1097D01*
X735Y1097D02*
X740Y1097D01*
X747Y1097D02*
X753Y1097D01*
X832Y1097D02*
X837Y1097D01*
X844Y1097D02*
X850Y1097D01*
X871Y1097D02*
X877Y1097D01*
X923Y1097D02*
X928Y1097D01*
X935Y1097D02*
X941Y1097D01*
X962Y1097D02*
X968Y1097D01*
X974Y1097D02*
X981Y1097D01*
X1008Y1097D02*
X1013Y1097D01*
X1033Y1097D02*
X1038Y1097D01*
X1173Y1097D02*
X1180Y1097D01*
X0Y1096D02*
X7Y1096D01*
X155Y1096D02*
X161Y1096D01*
X188Y1096D02*
X194Y1096D01*
X245Y1096D02*
X252Y1096D01*
X280Y1096D02*
X308Y1096D01*
X325Y1096D02*
X330Y1096D01*
X350Y1096D02*
X355Y1096D01*
X370Y1096D02*
X376Y1096D01*
X395Y1096D02*
X401Y1096D01*
X461Y1096D02*
X488Y1096D01*
X507Y1096D02*
X512Y1096D01*
X532Y1096D02*
X537Y1096D01*
X553Y1096D02*
X558Y1096D01*
X565Y1096D02*
X571Y1096D01*
X598Y1096D02*
X603Y1096D01*
X644Y1096D02*
X649Y1096D01*
X695Y1096D02*
X701Y1096D01*
X708Y1096D02*
X714Y1096D01*
X735Y1096D02*
X740Y1096D01*
X747Y1096D02*
X754Y1096D01*
X832Y1096D02*
X837Y1096D01*
X845Y1096D02*
X850Y1096D01*
X871Y1096D02*
X877Y1096D01*
X923Y1096D02*
X928Y1096D01*
X936Y1096D02*
X941Y1096D01*
X962Y1096D02*
X968Y1096D01*
X975Y1096D02*
X981Y1096D01*
X1008Y1096D02*
X1013Y1096D01*
X1033Y1096D02*
X1038Y1096D01*
X1173Y1096D02*
X1180Y1096D01*
X0Y1095D02*
X7Y1095D01*
X155Y1095D02*
X161Y1095D01*
X188Y1095D02*
X194Y1095D01*
X245Y1095D02*
X251Y1095D01*
X280Y1095D02*
X308Y1095D01*
X325Y1095D02*
X330Y1095D01*
X350Y1095D02*
X355Y1095D01*
X370Y1095D02*
X376Y1095D01*
X395Y1095D02*
X401Y1095D01*
X461Y1095D02*
X489Y1095D01*
X507Y1095D02*
X512Y1095D01*
X532Y1095D02*
X537Y1095D01*
X553Y1095D02*
X558Y1095D01*
X565Y1095D02*
X572Y1095D01*
X598Y1095D02*
X603Y1095D01*
X644Y1095D02*
X649Y1095D01*
X695Y1095D02*
X700Y1095D01*
X708Y1095D02*
X714Y1095D01*
X735Y1095D02*
X740Y1095D01*
X748Y1095D02*
X754Y1095D01*
X831Y1095D02*
X837Y1095D01*
X845Y1095D02*
X850Y1095D01*
X871Y1095D02*
X877Y1095D01*
X922Y1095D02*
X928Y1095D01*
X936Y1095D02*
X942Y1095D01*
X962Y1095D02*
X968Y1095D01*
X975Y1095D02*
X982Y1095D01*
X1008Y1095D02*
X1013Y1095D01*
X1033Y1095D02*
X1038Y1095D01*
X1173Y1095D02*
X1180Y1095D01*
X0Y1094D02*
X7Y1094D01*
X155Y1094D02*
X161Y1094D01*
X188Y1094D02*
X194Y1094D01*
X245Y1094D02*
X251Y1094D01*
X279Y1094D02*
X307Y1094D01*
X325Y1094D02*
X330Y1094D01*
X350Y1094D02*
X355Y1094D01*
X370Y1094D02*
X376Y1094D01*
X395Y1094D02*
X401Y1094D01*
X461Y1094D02*
X489Y1094D01*
X507Y1094D02*
X512Y1094D01*
X532Y1094D02*
X537Y1094D01*
X553Y1094D02*
X558Y1094D01*
X566Y1094D02*
X572Y1094D01*
X598Y1094D02*
X603Y1094D01*
X644Y1094D02*
X649Y1094D01*
X695Y1094D02*
X700Y1094D01*
X708Y1094D02*
X714Y1094D01*
X735Y1094D02*
X740Y1094D01*
X748Y1094D02*
X754Y1094D01*
X831Y1094D02*
X837Y1094D01*
X845Y1094D02*
X851Y1094D01*
X871Y1094D02*
X877Y1094D01*
X922Y1094D02*
X928Y1094D01*
X936Y1094D02*
X942Y1094D01*
X962Y1094D02*
X968Y1094D01*
X976Y1094D02*
X982Y1094D01*
X1008Y1094D02*
X1013Y1094D01*
X1033Y1094D02*
X1038Y1094D01*
X1173Y1094D02*
X1180Y1094D01*
X0Y1093D02*
X7Y1093D01*
X155Y1093D02*
X161Y1093D01*
X169Y1093D02*
X172Y1093D01*
X188Y1093D02*
X217Y1093D01*
X244Y1093D02*
X251Y1093D01*
X279Y1093D02*
X306Y1093D01*
X325Y1093D02*
X330Y1093D01*
X350Y1093D02*
X355Y1093D01*
X370Y1093D02*
X376Y1093D01*
X395Y1093D02*
X401Y1093D01*
X461Y1093D02*
X490Y1093D01*
X507Y1093D02*
X512Y1093D01*
X532Y1093D02*
X537Y1093D01*
X553Y1093D02*
X558Y1093D01*
X566Y1093D02*
X573Y1093D01*
X598Y1093D02*
X603Y1093D01*
X615Y1093D02*
X628Y1093D01*
X644Y1093D02*
X649Y1093D01*
X694Y1093D02*
X700Y1093D01*
X709Y1093D02*
X714Y1093D01*
X735Y1093D02*
X740Y1093D01*
X748Y1093D02*
X755Y1093D01*
X831Y1093D02*
X837Y1093D01*
X845Y1093D02*
X851Y1093D01*
X871Y1093D02*
X877Y1093D01*
X922Y1093D02*
X928Y1093D01*
X936Y1093D02*
X942Y1093D01*
X962Y1093D02*
X968Y1093D01*
X976Y1093D02*
X982Y1093D01*
X1008Y1093D02*
X1013Y1093D01*
X1033Y1093D02*
X1038Y1093D01*
X1173Y1093D02*
X1180Y1093D01*
X0Y1092D02*
X7Y1092D01*
X155Y1092D02*
X161Y1092D01*
X168Y1092D02*
X172Y1092D01*
X188Y1092D02*
X218Y1092D01*
X244Y1092D02*
X250Y1092D01*
X279Y1092D02*
X285Y1092D01*
X325Y1092D02*
X330Y1092D01*
X350Y1092D02*
X355Y1092D01*
X370Y1092D02*
X376Y1092D01*
X395Y1092D02*
X401Y1092D01*
X461Y1092D02*
X467Y1092D01*
X482Y1092D02*
X490Y1092D01*
X507Y1092D02*
X512Y1092D01*
X532Y1092D02*
X537Y1092D01*
X553Y1092D02*
X558Y1092D01*
X566Y1092D02*
X573Y1092D01*
X598Y1092D02*
X603Y1092D01*
X614Y1092D02*
X628Y1092D01*
X644Y1092D02*
X649Y1092D01*
X694Y1092D02*
X700Y1092D01*
X709Y1092D02*
X714Y1092D01*
X735Y1092D02*
X740Y1092D01*
X749Y1092D02*
X755Y1092D01*
X831Y1092D02*
X836Y1092D01*
X845Y1092D02*
X851Y1092D01*
X871Y1092D02*
X877Y1092D01*
X922Y1092D02*
X928Y1092D01*
X936Y1092D02*
X942Y1092D01*
X962Y1092D02*
X968Y1092D01*
X976Y1092D02*
X983Y1092D01*
X1008Y1092D02*
X1013Y1092D01*
X1033Y1092D02*
X1038Y1092D01*
X1173Y1092D02*
X1180Y1092D01*
X0Y1091D02*
X7Y1091D01*
X155Y1091D02*
X161Y1091D01*
X168Y1091D02*
X173Y1091D01*
X188Y1091D02*
X218Y1091D01*
X243Y1091D02*
X250Y1091D01*
X279Y1091D02*
X285Y1091D01*
X325Y1091D02*
X330Y1091D01*
X350Y1091D02*
X355Y1091D01*
X370Y1091D02*
X376Y1091D01*
X395Y1091D02*
X401Y1091D01*
X461Y1091D02*
X467Y1091D01*
X483Y1091D02*
X491Y1091D01*
X507Y1091D02*
X512Y1091D01*
X532Y1091D02*
X537Y1091D01*
X553Y1091D02*
X558Y1091D01*
X567Y1091D02*
X573Y1091D01*
X598Y1091D02*
X603Y1091D01*
X614Y1091D02*
X628Y1091D01*
X644Y1091D02*
X649Y1091D01*
X694Y1091D02*
X700Y1091D01*
X709Y1091D02*
X715Y1091D01*
X735Y1091D02*
X740Y1091D01*
X749Y1091D02*
X755Y1091D01*
X831Y1091D02*
X836Y1091D01*
X846Y1091D02*
X851Y1091D01*
X871Y1091D02*
X877Y1091D01*
X922Y1091D02*
X927Y1091D01*
X937Y1091D02*
X942Y1091D01*
X962Y1091D02*
X968Y1091D01*
X977Y1091D02*
X983Y1091D01*
X1008Y1091D02*
X1013Y1091D01*
X1033Y1091D02*
X1038Y1091D01*
X1173Y1091D02*
X1180Y1091D01*
X0Y1090D02*
X7Y1090D01*
X155Y1090D02*
X161Y1090D01*
X168Y1090D02*
X173Y1090D01*
X188Y1090D02*
X219Y1090D01*
X243Y1090D02*
X249Y1090D01*
X279Y1090D02*
X285Y1090D01*
X325Y1090D02*
X330Y1090D01*
X350Y1090D02*
X355Y1090D01*
X370Y1090D02*
X376Y1090D01*
X395Y1090D02*
X401Y1090D01*
X461Y1090D02*
X467Y1090D01*
X484Y1090D02*
X491Y1090D01*
X507Y1090D02*
X512Y1090D01*
X532Y1090D02*
X537Y1090D01*
X553Y1090D02*
X558Y1090D01*
X567Y1090D02*
X574Y1090D01*
X598Y1090D02*
X603Y1090D01*
X614Y1090D02*
X628Y1090D01*
X644Y1090D02*
X649Y1090D01*
X694Y1090D02*
X700Y1090D01*
X709Y1090D02*
X715Y1090D01*
X735Y1090D02*
X740Y1090D01*
X749Y1090D02*
X756Y1090D01*
X830Y1090D02*
X836Y1090D01*
X846Y1090D02*
X851Y1090D01*
X871Y1090D02*
X877Y1090D01*
X922Y1090D02*
X927Y1090D01*
X937Y1090D02*
X942Y1090D01*
X962Y1090D02*
X968Y1090D01*
X977Y1090D02*
X983Y1090D01*
X1008Y1090D02*
X1013Y1090D01*
X1033Y1090D02*
X1038Y1090D01*
X1173Y1090D02*
X1180Y1090D01*
X0Y1089D02*
X7Y1089D01*
X155Y1089D02*
X161Y1089D01*
X168Y1089D02*
X173Y1089D01*
X188Y1089D02*
X219Y1089D01*
X243Y1089D02*
X249Y1089D01*
X279Y1089D02*
X285Y1089D01*
X325Y1089D02*
X330Y1089D01*
X350Y1089D02*
X355Y1089D01*
X370Y1089D02*
X376Y1089D01*
X395Y1089D02*
X401Y1089D01*
X461Y1089D02*
X467Y1089D01*
X485Y1089D02*
X491Y1089D01*
X507Y1089D02*
X512Y1089D01*
X532Y1089D02*
X537Y1089D01*
X553Y1089D02*
X558Y1089D01*
X568Y1089D02*
X574Y1089D01*
X598Y1089D02*
X603Y1089D01*
X614Y1089D02*
X628Y1089D01*
X644Y1089D02*
X649Y1089D01*
X694Y1089D02*
X699Y1089D01*
X709Y1089D02*
X715Y1089D01*
X735Y1089D02*
X740Y1089D01*
X750Y1089D02*
X756Y1089D01*
X830Y1089D02*
X836Y1089D01*
X846Y1089D02*
X852Y1089D01*
X871Y1089D02*
X877Y1089D01*
X921Y1089D02*
X927Y1089D01*
X937Y1089D02*
X943Y1089D01*
X962Y1089D02*
X968Y1089D01*
X977Y1089D02*
X984Y1089D01*
X1008Y1089D02*
X1013Y1089D01*
X1033Y1089D02*
X1038Y1089D01*
X1173Y1089D02*
X1180Y1089D01*
X0Y1088D02*
X7Y1088D01*
X155Y1088D02*
X161Y1088D01*
X168Y1088D02*
X173Y1088D01*
X188Y1088D02*
X219Y1088D01*
X242Y1088D02*
X249Y1088D01*
X279Y1088D02*
X285Y1088D01*
X325Y1088D02*
X330Y1088D01*
X350Y1088D02*
X355Y1088D01*
X370Y1088D02*
X376Y1088D01*
X395Y1088D02*
X401Y1088D01*
X461Y1088D02*
X467Y1088D01*
X485Y1088D02*
X491Y1088D01*
X507Y1088D02*
X512Y1088D01*
X532Y1088D02*
X537Y1088D01*
X553Y1088D02*
X558Y1088D01*
X568Y1088D02*
X574Y1088D01*
X598Y1088D02*
X603Y1088D01*
X614Y1088D02*
X628Y1088D01*
X644Y1088D02*
X649Y1088D01*
X694Y1088D02*
X699Y1088D01*
X709Y1088D02*
X715Y1088D01*
X735Y1088D02*
X740Y1088D01*
X750Y1088D02*
X757Y1088D01*
X830Y1088D02*
X836Y1088D01*
X846Y1088D02*
X852Y1088D01*
X871Y1088D02*
X877Y1088D01*
X921Y1088D02*
X927Y1088D01*
X937Y1088D02*
X943Y1088D01*
X962Y1088D02*
X968Y1088D01*
X978Y1088D02*
X984Y1088D01*
X1008Y1088D02*
X1013Y1088D01*
X1033Y1088D02*
X1038Y1088D01*
X1173Y1088D02*
X1180Y1088D01*
X0Y1087D02*
X7Y1087D01*
X155Y1087D02*
X161Y1087D01*
X168Y1087D02*
X173Y1087D01*
X188Y1087D02*
X219Y1087D01*
X242Y1087D02*
X248Y1087D01*
X279Y1087D02*
X285Y1087D01*
X325Y1087D02*
X330Y1087D01*
X350Y1087D02*
X355Y1087D01*
X370Y1087D02*
X376Y1087D01*
X395Y1087D02*
X401Y1087D01*
X461Y1087D02*
X467Y1087D01*
X486Y1087D02*
X491Y1087D01*
X507Y1087D02*
X512Y1087D01*
X532Y1087D02*
X537Y1087D01*
X553Y1087D02*
X558Y1087D01*
X568Y1087D02*
X575Y1087D01*
X598Y1087D02*
X603Y1087D01*
X614Y1087D02*
X628Y1087D01*
X644Y1087D02*
X649Y1087D01*
X693Y1087D02*
X699Y1087D01*
X710Y1087D02*
X715Y1087D01*
X735Y1087D02*
X740Y1087D01*
X750Y1087D02*
X757Y1087D01*
X830Y1087D02*
X836Y1087D01*
X846Y1087D02*
X852Y1087D01*
X871Y1087D02*
X877Y1087D01*
X921Y1087D02*
X927Y1087D01*
X937Y1087D02*
X943Y1087D01*
X962Y1087D02*
X968Y1087D01*
X978Y1087D02*
X985Y1087D01*
X1008Y1087D02*
X1013Y1087D01*
X1033Y1087D02*
X1038Y1087D01*
X1173Y1087D02*
X1180Y1087D01*
X0Y1086D02*
X7Y1086D01*
X155Y1086D02*
X161Y1086D01*
X168Y1086D02*
X173Y1086D01*
X188Y1086D02*
X219Y1086D01*
X242Y1086D02*
X248Y1086D01*
X279Y1086D02*
X285Y1086D01*
X325Y1086D02*
X330Y1086D01*
X350Y1086D02*
X355Y1086D01*
X370Y1086D02*
X376Y1086D01*
X395Y1086D02*
X401Y1086D01*
X461Y1086D02*
X467Y1086D01*
X486Y1086D02*
X492Y1086D01*
X507Y1086D02*
X512Y1086D01*
X532Y1086D02*
X537Y1086D01*
X553Y1086D02*
X558Y1086D01*
X569Y1086D02*
X575Y1086D01*
X598Y1086D02*
X603Y1086D01*
X614Y1086D02*
X628Y1086D01*
X644Y1086D02*
X649Y1086D01*
X693Y1086D02*
X699Y1086D01*
X710Y1086D02*
X715Y1086D01*
X735Y1086D02*
X740Y1086D01*
X751Y1086D02*
X757Y1086D01*
X830Y1086D02*
X835Y1086D01*
X846Y1086D02*
X852Y1086D01*
X871Y1086D02*
X877Y1086D01*
X921Y1086D02*
X926Y1086D01*
X938Y1086D02*
X943Y1086D01*
X962Y1086D02*
X968Y1086D01*
X979Y1086D02*
X985Y1086D01*
X1008Y1086D02*
X1013Y1086D01*
X1033Y1086D02*
X1038Y1086D01*
X1173Y1086D02*
X1180Y1086D01*
X0Y1085D02*
X7Y1085D01*
X155Y1085D02*
X161Y1085D01*
X168Y1085D02*
X173Y1085D01*
X188Y1085D02*
X219Y1085D01*
X241Y1085D02*
X248Y1085D01*
X279Y1085D02*
X285Y1085D01*
X325Y1085D02*
X330Y1085D01*
X350Y1085D02*
X355Y1085D01*
X370Y1085D02*
X376Y1085D01*
X395Y1085D02*
X401Y1085D01*
X461Y1085D02*
X467Y1085D01*
X486Y1085D02*
X492Y1085D01*
X507Y1085D02*
X512Y1085D01*
X532Y1085D02*
X537Y1085D01*
X553Y1085D02*
X558Y1085D01*
X569Y1085D02*
X575Y1085D01*
X598Y1085D02*
X603Y1085D01*
X615Y1085D02*
X628Y1085D01*
X644Y1085D02*
X649Y1085D01*
X693Y1085D02*
X716Y1085D01*
X735Y1085D02*
X740Y1085D01*
X751Y1085D02*
X758Y1085D01*
X830Y1085D02*
X852Y1085D01*
X871Y1085D02*
X877Y1085D01*
X921Y1085D02*
X943Y1085D01*
X962Y1085D02*
X968Y1085D01*
X979Y1085D02*
X985Y1085D01*
X1008Y1085D02*
X1013Y1085D01*
X1033Y1085D02*
X1038Y1085D01*
X1173Y1085D02*
X1180Y1085D01*
X0Y1084D02*
X7Y1084D01*
X155Y1084D02*
X161Y1084D01*
X168Y1084D02*
X173Y1084D01*
X188Y1084D02*
X219Y1084D01*
X241Y1084D02*
X247Y1084D01*
X279Y1084D02*
X285Y1084D01*
X325Y1084D02*
X330Y1084D01*
X350Y1084D02*
X355Y1084D01*
X370Y1084D02*
X376Y1084D01*
X395Y1084D02*
X401Y1084D01*
X461Y1084D02*
X467Y1084D01*
X486Y1084D02*
X492Y1084D01*
X507Y1084D02*
X512Y1084D01*
X532Y1084D02*
X537Y1084D01*
X553Y1084D02*
X558Y1084D01*
X569Y1084D02*
X576Y1084D01*
X598Y1084D02*
X603Y1084D01*
X616Y1084D02*
X628Y1084D01*
X644Y1084D02*
X649Y1084D01*
X693Y1084D02*
X716Y1084D01*
X735Y1084D02*
X740Y1084D01*
X752Y1084D02*
X758Y1084D01*
X829Y1084D02*
X852Y1084D01*
X871Y1084D02*
X877Y1084D01*
X920Y1084D02*
X944Y1084D01*
X962Y1084D02*
X968Y1084D01*
X979Y1084D02*
X986Y1084D01*
X1008Y1084D02*
X1013Y1084D01*
X1033Y1084D02*
X1038Y1084D01*
X1173Y1084D02*
X1180Y1084D01*
X0Y1083D02*
X7Y1083D01*
X155Y1083D02*
X161Y1083D01*
X168Y1083D02*
X173Y1083D01*
X188Y1083D02*
X194Y1083D01*
X213Y1083D02*
X219Y1083D01*
X240Y1083D02*
X247Y1083D01*
X279Y1083D02*
X285Y1083D01*
X325Y1083D02*
X330Y1083D01*
X350Y1083D02*
X355Y1083D01*
X370Y1083D02*
X376Y1083D01*
X395Y1083D02*
X401Y1083D01*
X461Y1083D02*
X467Y1083D01*
X486Y1083D02*
X492Y1083D01*
X507Y1083D02*
X512Y1083D01*
X532Y1083D02*
X537Y1083D01*
X553Y1083D02*
X558Y1083D01*
X570Y1083D02*
X576Y1083D01*
X598Y1083D02*
X603Y1083D01*
X623Y1083D02*
X628Y1083D01*
X644Y1083D02*
X649Y1083D01*
X693Y1083D02*
X716Y1083D01*
X735Y1083D02*
X740Y1083D01*
X752Y1083D02*
X758Y1083D01*
X829Y1083D02*
X853Y1083D01*
X871Y1083D02*
X877Y1083D01*
X920Y1083D02*
X944Y1083D01*
X962Y1083D02*
X968Y1083D01*
X980Y1083D02*
X986Y1083D01*
X1008Y1083D02*
X1013Y1083D01*
X1033Y1083D02*
X1038Y1083D01*
X1173Y1083D02*
X1180Y1083D01*
X0Y1082D02*
X7Y1082D01*
X155Y1082D02*
X161Y1082D01*
X168Y1082D02*
X173Y1082D01*
X188Y1082D02*
X194Y1082D01*
X213Y1082D02*
X219Y1082D01*
X240Y1082D02*
X247Y1082D01*
X279Y1082D02*
X285Y1082D01*
X325Y1082D02*
X330Y1082D01*
X350Y1082D02*
X355Y1082D01*
X370Y1082D02*
X376Y1082D01*
X395Y1082D02*
X401Y1082D01*
X461Y1082D02*
X467Y1082D01*
X486Y1082D02*
X492Y1082D01*
X507Y1082D02*
X512Y1082D01*
X532Y1082D02*
X537Y1082D01*
X553Y1082D02*
X558Y1082D01*
X570Y1082D02*
X577Y1082D01*
X598Y1082D02*
X603Y1082D01*
X623Y1082D02*
X628Y1082D01*
X644Y1082D02*
X649Y1082D01*
X692Y1082D02*
X716Y1082D01*
X735Y1082D02*
X740Y1082D01*
X752Y1082D02*
X759Y1082D01*
X829Y1082D02*
X853Y1082D01*
X871Y1082D02*
X877Y1082D01*
X920Y1082D02*
X944Y1082D01*
X962Y1082D02*
X968Y1082D01*
X980Y1082D02*
X986Y1082D01*
X1008Y1082D02*
X1013Y1082D01*
X1033Y1082D02*
X1038Y1082D01*
X1173Y1082D02*
X1180Y1082D01*
X0Y1081D02*
X7Y1081D01*
X155Y1081D02*
X161Y1081D01*
X168Y1081D02*
X173Y1081D01*
X188Y1081D02*
X194Y1081D01*
X213Y1081D02*
X219Y1081D01*
X240Y1081D02*
X246Y1081D01*
X279Y1081D02*
X285Y1081D01*
X325Y1081D02*
X330Y1081D01*
X350Y1081D02*
X355Y1081D01*
X370Y1081D02*
X376Y1081D01*
X395Y1081D02*
X401Y1081D01*
X461Y1081D02*
X467Y1081D01*
X486Y1081D02*
X492Y1081D01*
X507Y1081D02*
X512Y1081D01*
X532Y1081D02*
X537Y1081D01*
X553Y1081D02*
X558Y1081D01*
X571Y1081D02*
X577Y1081D01*
X598Y1081D02*
X603Y1081D01*
X623Y1081D02*
X628Y1081D01*
X644Y1081D02*
X649Y1081D01*
X692Y1081D02*
X716Y1081D01*
X735Y1081D02*
X740Y1081D01*
X753Y1081D02*
X759Y1081D01*
X829Y1081D02*
X853Y1081D01*
X871Y1081D02*
X877Y1081D01*
X920Y1081D02*
X944Y1081D01*
X962Y1081D02*
X968Y1081D01*
X980Y1081D02*
X987Y1081D01*
X1008Y1081D02*
X1013Y1081D01*
X1033Y1081D02*
X1038Y1081D01*
X1173Y1081D02*
X1180Y1081D01*
X0Y1080D02*
X7Y1080D01*
X155Y1080D02*
X161Y1080D01*
X168Y1080D02*
X173Y1080D01*
X188Y1080D02*
X194Y1080D01*
X213Y1080D02*
X219Y1080D01*
X239Y1080D02*
X246Y1080D01*
X279Y1080D02*
X285Y1080D01*
X325Y1080D02*
X330Y1080D01*
X350Y1080D02*
X355Y1080D01*
X370Y1080D02*
X376Y1080D01*
X395Y1080D02*
X401Y1080D01*
X461Y1080D02*
X467Y1080D01*
X486Y1080D02*
X492Y1080D01*
X507Y1080D02*
X512Y1080D01*
X532Y1080D02*
X537Y1080D01*
X553Y1080D02*
X558Y1080D01*
X571Y1080D02*
X577Y1080D01*
X598Y1080D02*
X603Y1080D01*
X623Y1080D02*
X628Y1080D01*
X644Y1080D02*
X649Y1080D01*
X692Y1080D02*
X717Y1080D01*
X735Y1080D02*
X740Y1080D01*
X753Y1080D02*
X759Y1080D01*
X829Y1080D02*
X853Y1080D01*
X871Y1080D02*
X877Y1080D01*
X920Y1080D02*
X944Y1080D01*
X962Y1080D02*
X968Y1080D01*
X981Y1080D02*
X987Y1080D01*
X1008Y1080D02*
X1013Y1080D01*
X1033Y1080D02*
X1038Y1080D01*
X1173Y1080D02*
X1180Y1080D01*
X0Y1079D02*
X7Y1079D01*
X155Y1079D02*
X161Y1079D01*
X168Y1079D02*
X173Y1079D01*
X188Y1079D02*
X194Y1079D01*
X213Y1079D02*
X219Y1079D01*
X239Y1079D02*
X245Y1079D01*
X279Y1079D02*
X285Y1079D01*
X325Y1079D02*
X330Y1079D01*
X350Y1079D02*
X355Y1079D01*
X370Y1079D02*
X376Y1079D01*
X395Y1079D02*
X401Y1079D01*
X461Y1079D02*
X467Y1079D01*
X486Y1079D02*
X492Y1079D01*
X507Y1079D02*
X512Y1079D01*
X532Y1079D02*
X537Y1079D01*
X553Y1079D02*
X558Y1079D01*
X571Y1079D02*
X578Y1079D01*
X598Y1079D02*
X603Y1079D01*
X623Y1079D02*
X628Y1079D01*
X644Y1079D02*
X649Y1079D01*
X692Y1079D02*
X717Y1079D01*
X735Y1079D02*
X740Y1079D01*
X753Y1079D02*
X760Y1079D01*
X828Y1079D02*
X853Y1079D01*
X871Y1079D02*
X877Y1079D01*
X920Y1079D02*
X944Y1079D01*
X962Y1079D02*
X968Y1079D01*
X981Y1079D02*
X988Y1079D01*
X1008Y1079D02*
X1013Y1079D01*
X1033Y1079D02*
X1038Y1079D01*
X1173Y1079D02*
X1180Y1079D01*
X0Y1078D02*
X7Y1078D01*
X155Y1078D02*
X161Y1078D01*
X168Y1078D02*
X173Y1078D01*
X188Y1078D02*
X194Y1078D01*
X213Y1078D02*
X219Y1078D01*
X239Y1078D02*
X245Y1078D01*
X279Y1078D02*
X285Y1078D01*
X325Y1078D02*
X330Y1078D01*
X350Y1078D02*
X355Y1078D01*
X370Y1078D02*
X376Y1078D01*
X395Y1078D02*
X401Y1078D01*
X461Y1078D02*
X467Y1078D01*
X486Y1078D02*
X492Y1078D01*
X507Y1078D02*
X512Y1078D01*
X532Y1078D02*
X537Y1078D01*
X553Y1078D02*
X558Y1078D01*
X572Y1078D02*
X578Y1078D01*
X598Y1078D02*
X603Y1078D01*
X623Y1078D02*
X628Y1078D01*
X644Y1078D02*
X649Y1078D01*
X692Y1078D02*
X717Y1078D01*
X735Y1078D02*
X740Y1078D01*
X754Y1078D02*
X760Y1078D01*
X828Y1078D02*
X854Y1078D01*
X871Y1078D02*
X877Y1078D01*
X919Y1078D02*
X945Y1078D01*
X962Y1078D02*
X968Y1078D01*
X981Y1078D02*
X988Y1078D01*
X1008Y1078D02*
X1013Y1078D01*
X1033Y1078D02*
X1038Y1078D01*
X1173Y1078D02*
X1180Y1078D01*
X0Y1077D02*
X7Y1077D01*
X155Y1077D02*
X161Y1077D01*
X168Y1077D02*
X173Y1077D01*
X188Y1077D02*
X194Y1077D01*
X213Y1077D02*
X219Y1077D01*
X238Y1077D02*
X245Y1077D01*
X279Y1077D02*
X285Y1077D01*
X325Y1077D02*
X330Y1077D01*
X350Y1077D02*
X355Y1077D01*
X370Y1077D02*
X376Y1077D01*
X395Y1077D02*
X401Y1077D01*
X461Y1077D02*
X467Y1077D01*
X486Y1077D02*
X492Y1077D01*
X507Y1077D02*
X512Y1077D01*
X532Y1077D02*
X537Y1077D01*
X553Y1077D02*
X558Y1077D01*
X572Y1077D02*
X578Y1077D01*
X598Y1077D02*
X603Y1077D01*
X623Y1077D02*
X628Y1077D01*
X644Y1077D02*
X649Y1077D01*
X691Y1077D02*
X717Y1077D01*
X735Y1077D02*
X740Y1077D01*
X754Y1077D02*
X761Y1077D01*
X828Y1077D02*
X854Y1077D01*
X871Y1077D02*
X877Y1077D01*
X919Y1077D02*
X945Y1077D01*
X962Y1077D02*
X968Y1077D01*
X982Y1077D02*
X988Y1077D01*
X1008Y1077D02*
X1013Y1077D01*
X1033Y1077D02*
X1038Y1077D01*
X1173Y1077D02*
X1180Y1077D01*
X0Y1076D02*
X7Y1076D01*
X155Y1076D02*
X161Y1076D01*
X168Y1076D02*
X173Y1076D01*
X188Y1076D02*
X194Y1076D01*
X213Y1076D02*
X219Y1076D01*
X238Y1076D02*
X244Y1076D01*
X279Y1076D02*
X285Y1076D01*
X325Y1076D02*
X330Y1076D01*
X350Y1076D02*
X355Y1076D01*
X370Y1076D02*
X376Y1076D01*
X395Y1076D02*
X401Y1076D01*
X461Y1076D02*
X467Y1076D01*
X486Y1076D02*
X492Y1076D01*
X507Y1076D02*
X512Y1076D01*
X532Y1076D02*
X537Y1076D01*
X553Y1076D02*
X558Y1076D01*
X572Y1076D02*
X579Y1076D01*
X598Y1076D02*
X603Y1076D01*
X623Y1076D02*
X628Y1076D01*
X644Y1076D02*
X649Y1076D01*
X691Y1076D02*
X717Y1076D01*
X735Y1076D02*
X740Y1076D01*
X755Y1076D02*
X761Y1076D01*
X828Y1076D02*
X854Y1076D01*
X871Y1076D02*
X877Y1076D01*
X919Y1076D02*
X945Y1076D01*
X962Y1076D02*
X968Y1076D01*
X982Y1076D02*
X989Y1076D01*
X1008Y1076D02*
X1013Y1076D01*
X1033Y1076D02*
X1038Y1076D01*
X1173Y1076D02*
X1180Y1076D01*
X0Y1075D02*
X7Y1075D01*
X155Y1075D02*
X161Y1075D01*
X168Y1075D02*
X173Y1075D01*
X188Y1075D02*
X194Y1075D01*
X213Y1075D02*
X219Y1075D01*
X238Y1075D02*
X244Y1075D01*
X279Y1075D02*
X285Y1075D01*
X325Y1075D02*
X330Y1075D01*
X350Y1075D02*
X355Y1075D01*
X370Y1075D02*
X376Y1075D01*
X395Y1075D02*
X401Y1075D01*
X461Y1075D02*
X467Y1075D01*
X486Y1075D02*
X492Y1075D01*
X507Y1075D02*
X512Y1075D01*
X532Y1075D02*
X537Y1075D01*
X553Y1075D02*
X558Y1075D01*
X573Y1075D02*
X579Y1075D01*
X598Y1075D02*
X603Y1075D01*
X623Y1075D02*
X628Y1075D01*
X644Y1075D02*
X649Y1075D01*
X691Y1075D02*
X697Y1075D01*
X712Y1075D02*
X717Y1075D01*
X735Y1075D02*
X740Y1075D01*
X755Y1075D02*
X761Y1075D01*
X828Y1075D02*
X833Y1075D01*
X848Y1075D02*
X854Y1075D01*
X871Y1075D02*
X877Y1075D01*
X919Y1075D02*
X924Y1075D01*
X940Y1075D02*
X945Y1075D01*
X962Y1075D02*
X968Y1075D01*
X983Y1075D02*
X989Y1075D01*
X1008Y1075D02*
X1013Y1075D01*
X1033Y1075D02*
X1038Y1075D01*
X1173Y1075D02*
X1180Y1075D01*
X0Y1074D02*
X7Y1074D01*
X155Y1074D02*
X161Y1074D01*
X168Y1074D02*
X173Y1074D01*
X188Y1074D02*
X194Y1074D01*
X213Y1074D02*
X219Y1074D01*
X237Y1074D02*
X244Y1074D01*
X279Y1074D02*
X285Y1074D01*
X325Y1074D02*
X330Y1074D01*
X350Y1074D02*
X355Y1074D01*
X370Y1074D02*
X376Y1074D01*
X395Y1074D02*
X401Y1074D01*
X461Y1074D02*
X467Y1074D01*
X486Y1074D02*
X492Y1074D01*
X507Y1074D02*
X512Y1074D01*
X532Y1074D02*
X537Y1074D01*
X553Y1074D02*
X558Y1074D01*
X573Y1074D02*
X580Y1074D01*
X598Y1074D02*
X603Y1074D01*
X623Y1074D02*
X628Y1074D01*
X644Y1074D02*
X649Y1074D01*
X691Y1074D02*
X697Y1074D01*
X712Y1074D02*
X718Y1074D01*
X735Y1074D02*
X740Y1074D01*
X755Y1074D02*
X762Y1074D01*
X828Y1074D02*
X833Y1074D01*
X849Y1074D02*
X854Y1074D01*
X871Y1074D02*
X877Y1074D01*
X919Y1074D02*
X924Y1074D01*
X940Y1074D02*
X945Y1074D01*
X962Y1074D02*
X968Y1074D01*
X983Y1074D02*
X989Y1074D01*
X1008Y1074D02*
X1013Y1074D01*
X1033Y1074D02*
X1038Y1074D01*
X1173Y1074D02*
X1180Y1074D01*
X0Y1073D02*
X7Y1073D01*
X155Y1073D02*
X161Y1073D01*
X168Y1073D02*
X173Y1073D01*
X188Y1073D02*
X194Y1073D01*
X213Y1073D02*
X219Y1073D01*
X237Y1073D02*
X243Y1073D01*
X279Y1073D02*
X285Y1073D01*
X325Y1073D02*
X330Y1073D01*
X350Y1073D02*
X355Y1073D01*
X370Y1073D02*
X376Y1073D01*
X395Y1073D02*
X401Y1073D01*
X461Y1073D02*
X467Y1073D01*
X485Y1073D02*
X491Y1073D01*
X507Y1073D02*
X512Y1073D01*
X532Y1073D02*
X537Y1073D01*
X553Y1073D02*
X558Y1073D01*
X573Y1073D02*
X580Y1073D01*
X598Y1073D02*
X604Y1073D01*
X623Y1073D02*
X628Y1073D01*
X644Y1073D02*
X649Y1073D01*
X691Y1073D02*
X696Y1073D01*
X712Y1073D02*
X718Y1073D01*
X735Y1073D02*
X740Y1073D01*
X756Y1073D02*
X762Y1073D01*
X827Y1073D02*
X833Y1073D01*
X849Y1073D02*
X854Y1073D01*
X871Y1073D02*
X877Y1073D01*
X918Y1073D02*
X924Y1073D01*
X940Y1073D02*
X946Y1073D01*
X962Y1073D02*
X968Y1073D01*
X983Y1073D02*
X990Y1073D01*
X1008Y1073D02*
X1013Y1073D01*
X1033Y1073D02*
X1038Y1073D01*
X1173Y1073D02*
X1180Y1073D01*
X0Y1072D02*
X7Y1072D01*
X155Y1072D02*
X161Y1072D01*
X168Y1072D02*
X173Y1072D01*
X188Y1072D02*
X194Y1072D01*
X213Y1072D02*
X219Y1072D01*
X236Y1072D02*
X243Y1072D01*
X279Y1072D02*
X285Y1072D01*
X325Y1072D02*
X330Y1072D01*
X350Y1072D02*
X355Y1072D01*
X370Y1072D02*
X376Y1072D01*
X395Y1072D02*
X401Y1072D01*
X461Y1072D02*
X467Y1072D01*
X485Y1072D02*
X491Y1072D01*
X507Y1072D02*
X513Y1072D01*
X532Y1072D02*
X537Y1072D01*
X553Y1072D02*
X558Y1072D01*
X574Y1072D02*
X580Y1072D01*
X598Y1072D02*
X604Y1072D01*
X623Y1072D02*
X628Y1072D01*
X644Y1072D02*
X649Y1072D01*
X691Y1072D02*
X696Y1072D01*
X712Y1072D02*
X718Y1072D01*
X735Y1072D02*
X740Y1072D01*
X756Y1072D02*
X762Y1072D01*
X827Y1072D02*
X833Y1072D01*
X849Y1072D02*
X855Y1072D01*
X871Y1072D02*
X877Y1072D01*
X918Y1072D02*
X924Y1072D01*
X940Y1072D02*
X946Y1072D01*
X962Y1072D02*
X968Y1072D01*
X984Y1072D02*
X990Y1072D01*
X1008Y1072D02*
X1013Y1072D01*
X1033Y1072D02*
X1038Y1072D01*
X1173Y1072D02*
X1180Y1072D01*
X0Y1071D02*
X7Y1071D01*
X155Y1071D02*
X161Y1071D01*
X168Y1071D02*
X173Y1071D01*
X188Y1071D02*
X194Y1071D01*
X213Y1071D02*
X219Y1071D01*
X236Y1071D02*
X242Y1071D01*
X279Y1071D02*
X285Y1071D01*
X325Y1071D02*
X330Y1071D01*
X350Y1071D02*
X355Y1071D01*
X370Y1071D02*
X376Y1071D01*
X395Y1071D02*
X401Y1071D01*
X461Y1071D02*
X467Y1071D01*
X484Y1071D02*
X491Y1071D01*
X507Y1071D02*
X513Y1071D01*
X532Y1071D02*
X537Y1071D01*
X553Y1071D02*
X558Y1071D01*
X574Y1071D02*
X581Y1071D01*
X598Y1071D02*
X604Y1071D01*
X623Y1071D02*
X628Y1071D01*
X644Y1071D02*
X649Y1071D01*
X690Y1071D02*
X696Y1071D01*
X713Y1071D02*
X718Y1071D01*
X735Y1071D02*
X740Y1071D01*
X756Y1071D02*
X763Y1071D01*
X827Y1071D02*
X833Y1071D01*
X849Y1071D02*
X855Y1071D01*
X871Y1071D02*
X877Y1071D01*
X918Y1071D02*
X924Y1071D01*
X940Y1071D02*
X946Y1071D01*
X962Y1071D02*
X968Y1071D01*
X984Y1071D02*
X990Y1071D01*
X1008Y1071D02*
X1013Y1071D01*
X1033Y1071D02*
X1038Y1071D01*
X1173Y1071D02*
X1180Y1071D01*
X0Y1070D02*
X7Y1070D01*
X155Y1070D02*
X161Y1070D01*
X168Y1070D02*
X173Y1070D01*
X188Y1070D02*
X194Y1070D01*
X213Y1070D02*
X219Y1070D01*
X236Y1070D02*
X242Y1070D01*
X279Y1070D02*
X285Y1070D01*
X325Y1070D02*
X330Y1070D01*
X350Y1070D02*
X355Y1070D01*
X370Y1070D02*
X376Y1070D01*
X395Y1070D02*
X401Y1070D01*
X461Y1070D02*
X467Y1070D01*
X483Y1070D02*
X491Y1070D01*
X507Y1070D02*
X513Y1070D01*
X531Y1070D02*
X537Y1070D01*
X553Y1070D02*
X558Y1070D01*
X575Y1070D02*
X581Y1070D01*
X598Y1070D02*
X604Y1070D01*
X622Y1070D02*
X628Y1070D01*
X644Y1070D02*
X649Y1070D01*
X690Y1070D02*
X696Y1070D01*
X713Y1070D02*
X718Y1070D01*
X735Y1070D02*
X740Y1070D01*
X757Y1070D02*
X763Y1070D01*
X827Y1070D02*
X832Y1070D01*
X849Y1070D02*
X855Y1070D01*
X871Y1070D02*
X877Y1070D01*
X918Y1070D02*
X924Y1070D01*
X941Y1070D02*
X946Y1070D01*
X962Y1070D02*
X968Y1070D01*
X984Y1070D02*
X991Y1070D01*
X1008Y1070D02*
X1013Y1070D01*
X1033Y1070D02*
X1038Y1070D01*
X1173Y1070D02*
X1180Y1070D01*
X0Y1069D02*
X7Y1069D01*
X155Y1069D02*
X161Y1069D01*
X168Y1069D02*
X173Y1069D01*
X188Y1069D02*
X194Y1069D01*
X213Y1069D02*
X219Y1069D01*
X235Y1069D02*
X242Y1069D01*
X279Y1069D02*
X285Y1069D01*
X325Y1069D02*
X330Y1069D01*
X350Y1069D02*
X355Y1069D01*
X370Y1069D02*
X376Y1069D01*
X395Y1069D02*
X401Y1069D01*
X461Y1069D02*
X467Y1069D01*
X482Y1069D02*
X490Y1069D01*
X507Y1069D02*
X514Y1069D01*
X530Y1069D02*
X537Y1069D01*
X553Y1069D02*
X558Y1069D01*
X575Y1069D02*
X581Y1069D01*
X599Y1069D02*
X605Y1069D01*
X621Y1069D02*
X628Y1069D01*
X644Y1069D02*
X649Y1069D01*
X690Y1069D02*
X696Y1069D01*
X713Y1069D02*
X719Y1069D01*
X735Y1069D02*
X740Y1069D01*
X757Y1069D02*
X764Y1069D01*
X827Y1069D02*
X832Y1069D01*
X850Y1069D02*
X855Y1069D01*
X871Y1069D02*
X877Y1069D01*
X918Y1069D02*
X923Y1069D01*
X941Y1069D02*
X946Y1069D01*
X962Y1069D02*
X968Y1069D01*
X985Y1069D02*
X991Y1069D01*
X1008Y1069D02*
X1013Y1069D01*
X1033Y1069D02*
X1038Y1069D01*
X1173Y1069D02*
X1180Y1069D01*
X0Y1068D02*
X7Y1068D01*
X145Y1068D02*
X173Y1068D01*
X188Y1068D02*
X219Y1068D01*
X235Y1068D02*
X241Y1068D01*
X279Y1068D02*
X308Y1068D01*
X325Y1068D02*
X355Y1068D01*
X370Y1068D02*
X401Y1068D01*
X461Y1068D02*
X490Y1068D01*
X508Y1068D02*
X537Y1068D01*
X553Y1068D02*
X558Y1068D01*
X575Y1068D02*
X582Y1068D01*
X599Y1068D02*
X628Y1068D01*
X644Y1068D02*
X672Y1068D01*
X690Y1068D02*
X695Y1068D01*
X713Y1068D02*
X719Y1068D01*
X735Y1068D02*
X740Y1068D01*
X757Y1068D02*
X764Y1068D01*
X826Y1068D02*
X832Y1068D01*
X850Y1068D02*
X855Y1068D01*
X871Y1068D02*
X900Y1068D01*
X918Y1068D02*
X923Y1068D01*
X941Y1068D02*
X946Y1068D01*
X962Y1068D02*
X968Y1068D01*
X985Y1068D02*
X992Y1068D01*
X1008Y1068D02*
X1013Y1068D01*
X1033Y1068D02*
X1038Y1068D01*
X1173Y1068D02*
X1180Y1068D01*
X0Y1067D02*
X7Y1067D01*
X144Y1067D02*
X173Y1067D01*
X188Y1067D02*
X219Y1067D01*
X235Y1067D02*
X241Y1067D01*
X279Y1067D02*
X309Y1067D01*
X325Y1067D02*
X355Y1067D01*
X370Y1067D02*
X401Y1067D01*
X461Y1067D02*
X489Y1067D01*
X508Y1067D02*
X536Y1067D01*
X553Y1067D02*
X558Y1067D01*
X576Y1067D02*
X582Y1067D01*
X599Y1067D02*
X627Y1067D01*
X644Y1067D02*
X673Y1067D01*
X690Y1067D02*
X695Y1067D01*
X713Y1067D02*
X719Y1067D01*
X735Y1067D02*
X740Y1067D01*
X758Y1067D02*
X764Y1067D01*
X826Y1067D02*
X832Y1067D01*
X850Y1067D02*
X856Y1067D01*
X871Y1067D02*
X901Y1067D01*
X917Y1067D02*
X923Y1067D01*
X941Y1067D02*
X947Y1067D01*
X962Y1067D02*
X968Y1067D01*
X986Y1067D02*
X992Y1067D01*
X1008Y1067D02*
X1013Y1067D01*
X1033Y1067D02*
X1038Y1067D01*
X1173Y1067D02*
X1180Y1067D01*
X0Y1066D02*
X7Y1066D01*
X143Y1066D02*
X173Y1066D01*
X188Y1066D02*
X219Y1066D01*
X234Y1066D02*
X241Y1066D01*
X279Y1066D02*
X309Y1066D01*
X325Y1066D02*
X355Y1066D01*
X371Y1066D02*
X401Y1066D01*
X461Y1066D02*
X489Y1066D01*
X508Y1066D02*
X536Y1066D01*
X553Y1066D02*
X558Y1066D01*
X576Y1066D02*
X582Y1066D01*
X599Y1066D02*
X627Y1066D01*
X644Y1066D02*
X673Y1066D01*
X689Y1066D02*
X695Y1066D01*
X714Y1066D02*
X719Y1066D01*
X735Y1066D02*
X740Y1066D01*
X758Y1066D02*
X765Y1066D01*
X826Y1066D02*
X832Y1066D01*
X850Y1066D02*
X856Y1066D01*
X871Y1066D02*
X901Y1066D01*
X917Y1066D02*
X923Y1066D01*
X941Y1066D02*
X947Y1066D01*
X962Y1066D02*
X968Y1066D01*
X986Y1066D02*
X992Y1066D01*
X1008Y1066D02*
X1013Y1066D01*
X1033Y1066D02*
X1038Y1066D01*
X1173Y1066D02*
X1180Y1066D01*
X0Y1065D02*
X7Y1065D01*
X143Y1065D02*
X173Y1065D01*
X188Y1065D02*
X219Y1065D01*
X234Y1065D02*
X240Y1065D01*
X279Y1065D02*
X310Y1065D01*
X325Y1065D02*
X355Y1065D01*
X371Y1065D02*
X400Y1065D01*
X461Y1065D02*
X488Y1065D01*
X509Y1065D02*
X536Y1065D01*
X553Y1065D02*
X558Y1065D01*
X576Y1065D02*
X583Y1065D01*
X600Y1065D02*
X627Y1065D01*
X644Y1065D02*
X674Y1065D01*
X689Y1065D02*
X695Y1065D01*
X714Y1065D02*
X719Y1065D01*
X735Y1065D02*
X740Y1065D01*
X759Y1065D02*
X765Y1065D01*
X826Y1065D02*
X832Y1065D01*
X850Y1065D02*
X856Y1065D01*
X871Y1065D02*
X901Y1065D01*
X917Y1065D02*
X923Y1065D01*
X941Y1065D02*
X947Y1065D01*
X962Y1065D02*
X968Y1065D01*
X986Y1065D02*
X993Y1065D01*
X1008Y1065D02*
X1013Y1065D01*
X1033Y1065D02*
X1038Y1065D01*
X1173Y1065D02*
X1180Y1065D01*
X0Y1064D02*
X7Y1064D01*
X143Y1064D02*
X173Y1064D01*
X188Y1064D02*
X219Y1064D01*
X234Y1064D02*
X240Y1064D01*
X279Y1064D02*
X310Y1064D01*
X326Y1064D02*
X355Y1064D01*
X371Y1064D02*
X400Y1064D01*
X461Y1064D02*
X488Y1064D01*
X509Y1064D02*
X535Y1064D01*
X553Y1064D02*
X558Y1064D01*
X577Y1064D02*
X583Y1064D01*
X600Y1064D02*
X626Y1064D01*
X644Y1064D02*
X674Y1064D01*
X689Y1064D02*
X695Y1064D01*
X714Y1064D02*
X720Y1064D01*
X735Y1064D02*
X740Y1064D01*
X759Y1064D02*
X765Y1064D01*
X826Y1064D02*
X831Y1064D01*
X851Y1064D02*
X856Y1064D01*
X871Y1064D02*
X902Y1064D01*
X917Y1064D02*
X922Y1064D01*
X942Y1064D02*
X947Y1064D01*
X962Y1064D02*
X968Y1064D01*
X987Y1064D02*
X993Y1064D01*
X1008Y1064D02*
X1013Y1064D01*
X1033Y1064D02*
X1038Y1064D01*
X1173Y1064D02*
X1180Y1064D01*
X0Y1063D02*
X7Y1063D01*
X143Y1063D02*
X173Y1063D01*
X188Y1063D02*
X219Y1063D01*
X234Y1063D02*
X240Y1063D01*
X279Y1063D02*
X310Y1063D01*
X326Y1063D02*
X354Y1063D01*
X371Y1063D02*
X400Y1063D01*
X461Y1063D02*
X487Y1063D01*
X510Y1063D02*
X535Y1063D01*
X553Y1063D02*
X558Y1063D01*
X577Y1063D02*
X583Y1063D01*
X601Y1063D02*
X626Y1063D01*
X644Y1063D02*
X674Y1063D01*
X689Y1063D02*
X695Y1063D01*
X714Y1063D02*
X720Y1063D01*
X735Y1063D02*
X740Y1063D01*
X759Y1063D02*
X765Y1063D01*
X826Y1063D02*
X831Y1063D01*
X851Y1063D02*
X856Y1063D01*
X871Y1063D02*
X902Y1063D01*
X917Y1063D02*
X922Y1063D01*
X942Y1063D02*
X947Y1063D01*
X962Y1063D02*
X968Y1063D01*
X987Y1063D02*
X993Y1063D01*
X1008Y1063D02*
X1013Y1063D01*
X1033Y1063D02*
X1038Y1063D01*
X1173Y1063D02*
X1180Y1063D01*
X0Y1062D02*
X7Y1062D01*
X143Y1062D02*
X173Y1062D01*
X188Y1062D02*
X218Y1062D01*
X234Y1062D02*
X239Y1062D01*
X279Y1062D02*
X310Y1062D01*
X326Y1062D02*
X354Y1062D01*
X372Y1062D02*
X399Y1062D01*
X461Y1062D02*
X486Y1062D01*
X510Y1062D02*
X534Y1062D01*
X553Y1062D02*
X558Y1062D01*
X578Y1062D02*
X583Y1062D01*
X601Y1062D02*
X625Y1062D01*
X644Y1062D02*
X674Y1062D01*
X689Y1062D02*
X694Y1062D01*
X714Y1062D02*
X719Y1062D01*
X735Y1062D02*
X740Y1062D01*
X760Y1062D02*
X765Y1062D01*
X826Y1062D02*
X831Y1062D01*
X851Y1062D02*
X856Y1062D01*
X871Y1062D02*
X902Y1062D01*
X917Y1062D02*
X922Y1062D01*
X942Y1062D02*
X947Y1062D01*
X963Y1062D02*
X968Y1062D01*
X987Y1062D02*
X993Y1062D01*
X1008Y1062D02*
X1013Y1062D01*
X1033Y1062D02*
X1038Y1062D01*
X1173Y1062D02*
X1180Y1062D01*
X0Y1061D02*
X7Y1061D01*
X143Y1061D02*
X173Y1061D01*
X189Y1061D02*
X218Y1061D01*
X234Y1061D02*
X239Y1061D01*
X279Y1061D02*
X309Y1061D01*
X327Y1061D02*
X353Y1061D01*
X373Y1061D02*
X399Y1061D01*
X461Y1061D02*
X485Y1061D01*
X511Y1061D02*
X533Y1061D01*
X553Y1061D02*
X557Y1061D01*
X578Y1061D02*
X582Y1061D01*
X602Y1061D02*
X624Y1061D01*
X644Y1061D02*
X674Y1061D01*
X689Y1061D02*
X694Y1061D01*
X715Y1061D02*
X719Y1061D01*
X735Y1061D02*
X740Y1061D01*
X760Y1061D02*
X765Y1061D01*
X826Y1061D02*
X831Y1061D01*
X851Y1061D02*
X856Y1061D01*
X871Y1061D02*
X901Y1061D01*
X917Y1061D02*
X922Y1061D01*
X942Y1061D02*
X947Y1061D01*
X963Y1061D02*
X967Y1061D01*
X988Y1061D02*
X992Y1061D01*
X1008Y1061D02*
X1013Y1061D01*
X1033Y1061D02*
X1038Y1061D01*
X1173Y1061D02*
X1180Y1061D01*
X0Y1060D02*
X7Y1060D01*
X144Y1060D02*
X172Y1060D01*
X189Y1060D02*
X218Y1060D01*
X235Y1060D02*
X238Y1060D01*
X279Y1060D02*
X309Y1060D01*
X328Y1060D02*
X352Y1060D01*
X373Y1060D02*
X398Y1060D01*
X461Y1060D02*
X484Y1060D01*
X512Y1060D02*
X532Y1060D01*
X553Y1060D02*
X557Y1060D01*
X578Y1060D02*
X582Y1060D01*
X603Y1060D02*
X623Y1060D01*
X644Y1060D02*
X673Y1060D01*
X690Y1060D02*
X694Y1060D01*
X715Y1060D02*
X719Y1060D01*
X736Y1060D02*
X739Y1060D01*
X761Y1060D02*
X764Y1060D01*
X827Y1060D02*
X830Y1060D01*
X852Y1060D02*
X855Y1060D01*
X871Y1060D02*
X901Y1060D01*
X918Y1060D02*
X921Y1060D01*
X943Y1060D02*
X946Y1060D01*
X963Y1060D02*
X967Y1060D01*
X988Y1060D02*
X992Y1060D01*
X1009Y1060D02*
X1012Y1060D01*
X1034Y1060D02*
X1037Y1060D01*
X1173Y1060D02*
X1180Y1060D01*
X0Y1059D02*
X7Y1059D01*
X144Y1059D02*
X171Y1059D01*
X190Y1059D02*
X217Y1059D01*
X236Y1059D02*
X237Y1059D01*
X279Y1059D02*
X308Y1059D01*
X329Y1059D02*
X351Y1059D01*
X375Y1059D02*
X397Y1059D01*
X461Y1059D02*
X482Y1059D01*
X514Y1059D02*
X530Y1059D01*
X554Y1059D02*
X556Y1059D01*
X579Y1059D02*
X581Y1059D01*
X605Y1059D02*
X622Y1059D01*
X644Y1059D02*
X672Y1059D01*
X691Y1059D02*
X693Y1059D01*
X716Y1059D02*
X718Y1059D01*
X736Y1059D02*
X738Y1059D01*
X761Y1059D02*
X763Y1059D01*
X827Y1059D02*
X829Y1059D01*
X852Y1059D02*
X854Y1059D01*
X871Y1059D02*
X900Y1059D01*
X918Y1059D02*
X920Y1059D01*
X944Y1059D02*
X945Y1059D01*
X964Y1059D02*
X966Y1059D01*
X989Y1059D02*
X991Y1059D01*
X1010Y1059D02*
X1012Y1059D01*
X1035Y1059D02*
X1037Y1059D01*
X1173Y1059D02*
X1180Y1059D01*
X0Y1058D02*
X7Y1058D01*
X1173Y1058D02*
X1180Y1058D01*
X0Y1057D02*
X7Y1057D01*
X1173Y1057D02*
X1180Y1057D01*
X0Y1056D02*
X7Y1056D01*
X1173Y1056D02*
X1180Y1056D01*
X0Y1055D02*
X7Y1055D01*
X1173Y1055D02*
X1180Y1055D01*
X0Y1054D02*
X7Y1054D01*
X1173Y1054D02*
X1180Y1054D01*
X0Y1053D02*
X7Y1053D01*
X1173Y1053D02*
X1180Y1053D01*
X0Y1052D02*
X7Y1052D01*
X1173Y1052D02*
X1180Y1052D01*
X0Y1051D02*
X7Y1051D01*
X1173Y1051D02*
X1180Y1051D01*
X0Y1050D02*
X7Y1050D01*
X1173Y1050D02*
X1180Y1050D01*
X0Y1049D02*
X7Y1049D01*
X1173Y1049D02*
X1180Y1049D01*
X0Y1048D02*
X7Y1048D01*
X1173Y1048D02*
X1180Y1048D01*
X0Y1047D02*
X7Y1047D01*
X1173Y1047D02*
X1180Y1047D01*
X0Y1046D02*
X7Y1046D01*
X1173Y1046D02*
X1180Y1046D01*
X0Y1045D02*
X7Y1045D01*
X1173Y1045D02*
X1180Y1045D01*
X0Y1044D02*
X7Y1044D01*
X1173Y1044D02*
X1180Y1044D01*
X0Y1043D02*
X7Y1043D01*
X1173Y1043D02*
X1180Y1043D01*
X0Y1042D02*
X7Y1042D01*
X1173Y1042D02*
X1180Y1042D01*
X0Y1041D02*
X7Y1041D01*
X1173Y1041D02*
X1180Y1041D01*
X0Y1040D02*
X7Y1040D01*
X1173Y1040D02*
X1180Y1040D01*
X0Y1039D02*
X7Y1039D01*
X1173Y1039D02*
X1180Y1039D01*
X0Y1038D02*
X7Y1038D01*
X1173Y1038D02*
X1180Y1038D01*
X0Y1037D02*
X7Y1037D01*
X1173Y1037D02*
X1180Y1037D01*
X0Y1036D02*
X7Y1036D01*
X1173Y1036D02*
X1180Y1036D01*
X0Y1035D02*
X7Y1035D01*
X1173Y1035D02*
X1180Y1035D01*
X0Y1034D02*
X7Y1034D01*
X1173Y1034D02*
X1180Y1034D01*
X0Y1033D02*
X7Y1033D01*
X1173Y1033D02*
X1180Y1033D01*
X0Y1032D02*
X7Y1032D01*
X1173Y1032D02*
X1180Y1032D01*
X0Y1031D02*
X7Y1031D01*
X1173Y1031D02*
X1180Y1031D01*
X0Y1030D02*
X7Y1030D01*
X1173Y1030D02*
X1180Y1030D01*
X0Y1029D02*
X7Y1029D01*
X1173Y1029D02*
X1180Y1029D01*
X0Y1028D02*
X7Y1028D01*
X1173Y1028D02*
X1180Y1028D01*
X0Y1027D02*
X7Y1027D01*
X1173Y1027D02*
X1180Y1027D01*
X0Y1026D02*
X7Y1026D01*
X1173Y1026D02*
X1180Y1026D01*
X0Y1025D02*
X7Y1025D01*
X1173Y1025D02*
X1180Y1025D01*
X0Y1024D02*
X7Y1024D01*
X1173Y1024D02*
X1180Y1024D01*
X0Y1023D02*
X7Y1023D01*
X1173Y1023D02*
X1180Y1023D01*
X0Y1022D02*
X7Y1022D01*
X1173Y1022D02*
X1180Y1022D01*
X0Y1021D02*
X7Y1021D01*
X1173Y1021D02*
X1180Y1021D01*
X0Y1020D02*
X7Y1020D01*
X1173Y1020D02*
X1180Y1020D01*
X0Y1019D02*
X7Y1019D01*
X1173Y1019D02*
X1180Y1019D01*
X0Y1018D02*
X7Y1018D01*
X1173Y1018D02*
X1180Y1018D01*
X0Y1017D02*
X7Y1017D01*
X1173Y1017D02*
X1180Y1017D01*
X0Y1016D02*
X7Y1016D01*
X1173Y1016D02*
X1180Y1016D01*
X0Y1015D02*
X7Y1015D01*
X1173Y1015D02*
X1180Y1015D01*
X0Y1014D02*
X7Y1014D01*
X1173Y1014D02*
X1180Y1014D01*
X0Y1013D02*
X7Y1013D01*
X1173Y1013D02*
X1180Y1013D01*
X0Y1012D02*
X7Y1012D01*
X1173Y1012D02*
X1180Y1012D01*
X0Y1011D02*
X7Y1011D01*
X1173Y1011D02*
X1180Y1011D01*
X0Y1010D02*
X7Y1010D01*
X1173Y1010D02*
X1180Y1010D01*
X0Y1009D02*
X7Y1009D01*
X410Y1009D02*
X509Y1009D01*
X576Y1009D02*
X672Y1009D01*
X1173Y1009D02*
X1180Y1009D01*
X0Y1008D02*
X7Y1008D01*
X409Y1008D02*
X508Y1008D01*
X578Y1008D02*
X673Y1008D01*
X1173Y1008D02*
X1180Y1008D01*
X0Y1007D02*
X7Y1007D01*
X409Y1007D02*
X506Y1007D01*
X579Y1007D02*
X673Y1007D01*
X1173Y1007D02*
X1180Y1007D01*
X0Y1006D02*
X7Y1006D01*
X409Y1006D02*
X504Y1006D01*
X581Y1006D02*
X673Y1006D01*
X1173Y1006D02*
X1180Y1006D01*
X0Y1005D02*
X7Y1005D01*
X410Y1005D02*
X503Y1005D01*
X582Y1005D02*
X672Y1005D01*
X1173Y1005D02*
X1180Y1005D01*
X0Y1004D02*
X7Y1004D01*
X96Y1004D02*
X96Y1004D01*
X1173Y1004D02*
X1180Y1004D01*
X0Y1003D02*
X7Y1003D01*
X94Y1003D02*
X98Y1003D01*
X1100Y1003D02*
X1116Y1003D01*
X1173Y1003D02*
X1180Y1003D01*
X0Y1002D02*
X7Y1002D01*
X93Y1002D02*
X98Y1002D01*
X1097Y1002D02*
X1118Y1002D01*
X1173Y1002D02*
X1180Y1002D01*
X0Y1001D02*
X7Y1001D01*
X93Y1001D02*
X99Y1001D01*
X1095Y1001D02*
X1120Y1001D01*
X1173Y1001D02*
X1180Y1001D01*
X0Y1000D02*
X7Y1000D01*
X93Y1000D02*
X99Y1000D01*
X1094Y1000D02*
X1121Y1000D01*
X1173Y1000D02*
X1180Y1000D01*
X0Y999D02*
X7Y999D01*
X93Y999D02*
X99Y999D01*
X1094Y999D02*
X1122Y999D01*
X1173Y999D02*
X1180Y999D01*
X0Y998D02*
X7Y998D01*
X93Y998D02*
X99Y998D01*
X1093Y998D02*
X1122Y998D01*
X1173Y998D02*
X1180Y998D01*
X0Y997D02*
X7Y997D01*
X93Y997D02*
X99Y997D01*
X113Y997D02*
X114Y997D01*
X1092Y997D02*
X1123Y997D01*
X1173Y997D02*
X1180Y997D01*
X0Y996D02*
X7Y996D01*
X93Y996D02*
X99Y996D01*
X111Y996D02*
X116Y996D01*
X1092Y996D02*
X1100Y996D01*
X1115Y996D02*
X1123Y996D01*
X1173Y996D02*
X1180Y996D01*
X0Y995D02*
X7Y995D01*
X93Y995D02*
X99Y995D01*
X111Y995D02*
X116Y995D01*
X1092Y995D02*
X1098Y995D01*
X1117Y995D02*
X1124Y995D01*
X1173Y995D02*
X1180Y995D01*
X0Y994D02*
X7Y994D01*
X93Y994D02*
X99Y994D01*
X111Y994D02*
X116Y994D01*
X1091Y994D02*
X1098Y994D01*
X1118Y994D02*
X1124Y994D01*
X1173Y994D02*
X1180Y994D01*
X0Y993D02*
X7Y993D01*
X93Y993D02*
X99Y993D01*
X110Y993D02*
X116Y993D01*
X1091Y993D02*
X1097Y993D01*
X1118Y993D02*
X1124Y993D01*
X1173Y993D02*
X1180Y993D01*
X0Y992D02*
X7Y992D01*
X93Y992D02*
X99Y992D01*
X110Y992D02*
X116Y992D01*
X1091Y992D02*
X1097Y992D01*
X1118Y992D02*
X1124Y992D01*
X1173Y992D02*
X1180Y992D01*
X0Y991D02*
X7Y991D01*
X93Y991D02*
X99Y991D01*
X110Y991D02*
X116Y991D01*
X1091Y991D02*
X1097Y991D01*
X1118Y991D02*
X1124Y991D01*
X1173Y991D02*
X1180Y991D01*
X0Y990D02*
X7Y990D01*
X93Y990D02*
X99Y990D01*
X110Y990D02*
X116Y990D01*
X1091Y990D02*
X1097Y990D01*
X1118Y990D02*
X1124Y990D01*
X1173Y990D02*
X1180Y990D01*
X0Y989D02*
X7Y989D01*
X93Y989D02*
X99Y989D01*
X110Y989D02*
X116Y989D01*
X1091Y989D02*
X1097Y989D01*
X1118Y989D02*
X1124Y989D01*
X1173Y989D02*
X1180Y989D01*
X0Y988D02*
X7Y988D01*
X93Y988D02*
X99Y988D01*
X110Y988D02*
X116Y988D01*
X1091Y988D02*
X1097Y988D01*
X1118Y988D02*
X1124Y988D01*
X1173Y988D02*
X1180Y988D01*
X0Y987D02*
X7Y987D01*
X93Y987D02*
X99Y987D01*
X110Y987D02*
X116Y987D01*
X1091Y987D02*
X1097Y987D01*
X1118Y987D02*
X1124Y987D01*
X1173Y987D02*
X1180Y987D01*
X0Y986D02*
X7Y986D01*
X93Y986D02*
X99Y986D01*
X110Y986D02*
X116Y986D01*
X1091Y986D02*
X1097Y986D01*
X1118Y986D02*
X1124Y986D01*
X1173Y986D02*
X1180Y986D01*
X0Y985D02*
X7Y985D01*
X93Y985D02*
X99Y985D01*
X110Y985D02*
X116Y985D01*
X1091Y985D02*
X1097Y985D01*
X1118Y985D02*
X1124Y985D01*
X1173Y985D02*
X1180Y985D01*
X0Y984D02*
X7Y984D01*
X93Y984D02*
X99Y984D01*
X110Y984D02*
X116Y984D01*
X1091Y984D02*
X1097Y984D01*
X1118Y984D02*
X1124Y984D01*
X1173Y984D02*
X1180Y984D01*
X0Y983D02*
X7Y983D01*
X93Y983D02*
X99Y983D01*
X110Y983D02*
X116Y983D01*
X1091Y983D02*
X1097Y983D01*
X1118Y983D02*
X1124Y983D01*
X1173Y983D02*
X1180Y983D01*
X0Y982D02*
X7Y982D01*
X93Y982D02*
X99Y982D01*
X110Y982D02*
X116Y982D01*
X1091Y982D02*
X1097Y982D01*
X1118Y982D02*
X1124Y982D01*
X1173Y982D02*
X1180Y982D01*
X0Y981D02*
X7Y981D01*
X93Y981D02*
X99Y981D01*
X110Y981D02*
X116Y981D01*
X1091Y981D02*
X1097Y981D01*
X1118Y981D02*
X1124Y981D01*
X1173Y981D02*
X1180Y981D01*
X0Y980D02*
X7Y980D01*
X93Y980D02*
X99Y980D01*
X110Y980D02*
X116Y980D01*
X1091Y980D02*
X1097Y980D01*
X1118Y980D02*
X1124Y980D01*
X1173Y980D02*
X1180Y980D01*
X0Y979D02*
X7Y979D01*
X93Y979D02*
X99Y979D01*
X110Y979D02*
X116Y979D01*
X1091Y979D02*
X1097Y979D01*
X1118Y979D02*
X1124Y979D01*
X1173Y979D02*
X1180Y979D01*
X0Y978D02*
X7Y978D01*
X93Y978D02*
X99Y978D01*
X110Y978D02*
X116Y978D01*
X1091Y978D02*
X1097Y978D01*
X1118Y978D02*
X1124Y978D01*
X1173Y978D02*
X1180Y978D01*
X0Y977D02*
X7Y977D01*
X93Y977D02*
X99Y977D01*
X110Y977D02*
X117Y977D01*
X1091Y977D02*
X1097Y977D01*
X1118Y977D02*
X1124Y977D01*
X1173Y977D02*
X1180Y977D01*
X0Y976D02*
X7Y976D01*
X93Y976D02*
X144Y976D01*
X1091Y976D02*
X1097Y976D01*
X1118Y976D02*
X1124Y976D01*
X1173Y976D02*
X1180Y976D01*
X0Y975D02*
X7Y975D01*
X93Y975D02*
X145Y975D01*
X1091Y975D02*
X1143Y975D01*
X1173Y975D02*
X1180Y975D01*
X0Y974D02*
X7Y974D01*
X93Y974D02*
X146Y974D01*
X1091Y974D02*
X1144Y974D01*
X1173Y974D02*
X1180Y974D01*
X0Y973D02*
X7Y973D01*
X93Y973D02*
X146Y973D01*
X1091Y973D02*
X1144Y973D01*
X1173Y973D02*
X1180Y973D01*
X0Y972D02*
X7Y972D01*
X93Y972D02*
X146Y972D01*
X1091Y972D02*
X1144Y972D01*
X1173Y972D02*
X1180Y972D01*
X0Y971D02*
X7Y971D01*
X93Y971D02*
X145Y971D01*
X1091Y971D02*
X1144Y971D01*
X1173Y971D02*
X1180Y971D01*
X0Y970D02*
X7Y970D01*
X93Y970D02*
X144Y970D01*
X1091Y970D02*
X1144Y970D01*
X1173Y970D02*
X1180Y970D01*
X0Y969D02*
X7Y969D01*
X1091Y969D02*
X1142Y969D01*
X1173Y969D02*
X1180Y969D01*
X0Y968D02*
X7Y968D01*
X1173Y968D02*
X1180Y968D01*
X0Y967D02*
X7Y967D01*
X1173Y967D02*
X1180Y967D01*
X0Y966D02*
X7Y966D01*
X1173Y966D02*
X1180Y966D01*
X0Y965D02*
X7Y965D01*
X1173Y965D02*
X1180Y965D01*
X0Y964D02*
X7Y964D01*
X1173Y964D02*
X1180Y964D01*
X0Y963D02*
X7Y963D01*
X1173Y963D02*
X1180Y963D01*
X0Y962D02*
X7Y962D01*
X1173Y962D02*
X1180Y962D01*
X0Y961D02*
X7Y961D01*
X1173Y961D02*
X1180Y961D01*
X0Y960D02*
X7Y960D01*
X1173Y960D02*
X1180Y960D01*
X0Y959D02*
X7Y959D01*
X1173Y959D02*
X1180Y959D01*
X0Y958D02*
X7Y958D01*
X1173Y958D02*
X1180Y958D01*
X0Y957D02*
X7Y957D01*
X1173Y957D02*
X1180Y957D01*
X0Y956D02*
X7Y956D01*
X1173Y956D02*
X1180Y956D01*
X0Y955D02*
X7Y955D01*
X1173Y955D02*
X1180Y955D01*
X0Y954D02*
X7Y954D01*
X1173Y954D02*
X1180Y954D01*
X0Y953D02*
X7Y953D01*
X109Y953D02*
X145Y953D01*
X1118Y953D02*
X1118Y953D01*
X1173Y953D02*
X1180Y953D01*
X0Y952D02*
X7Y952D01*
X108Y952D02*
X145Y952D01*
X1113Y952D02*
X1123Y952D01*
X1173Y952D02*
X1180Y952D01*
X0Y951D02*
X7Y951D01*
X108Y951D02*
X146Y951D01*
X1111Y951D02*
X1125Y951D01*
X1173Y951D02*
X1180Y951D01*
X0Y950D02*
X7Y950D01*
X108Y950D02*
X146Y950D01*
X1109Y950D02*
X1127Y950D01*
X1173Y950D02*
X1180Y950D01*
X0Y949D02*
X7Y949D01*
X108Y949D02*
X146Y949D01*
X1107Y949D02*
X1129Y949D01*
X1173Y949D02*
X1180Y949D01*
X0Y948D02*
X7Y948D01*
X109Y948D02*
X145Y948D01*
X1105Y948D02*
X1131Y948D01*
X1173Y948D02*
X1180Y948D01*
X0Y947D02*
X7Y947D01*
X110Y947D02*
X143Y947D01*
X1103Y947D02*
X1133Y947D01*
X1173Y947D02*
X1180Y947D01*
X0Y946D02*
X7Y946D01*
X133Y946D02*
X141Y946D01*
X1101Y946D02*
X1135Y946D01*
X1173Y946D02*
X1180Y946D01*
X0Y945D02*
X7Y945D01*
X134Y945D02*
X141Y945D01*
X1099Y945D02*
X1113Y945D01*
X1123Y945D02*
X1137Y945D01*
X1173Y945D02*
X1180Y945D01*
X0Y944D02*
X7Y944D01*
X135Y944D02*
X142Y944D01*
X1097Y944D02*
X1111Y944D01*
X1125Y944D02*
X1139Y944D01*
X1173Y944D02*
X1180Y944D01*
X0Y943D02*
X7Y943D01*
X135Y943D02*
X142Y943D01*
X1095Y943D02*
X1109Y943D01*
X1127Y943D02*
X1141Y943D01*
X1173Y943D02*
X1180Y943D01*
X0Y942D02*
X7Y942D01*
X136Y942D02*
X143Y942D01*
X1094Y942D02*
X1107Y942D01*
X1129Y942D02*
X1142Y942D01*
X1173Y942D02*
X1180Y942D01*
X0Y941D02*
X7Y941D01*
X136Y941D02*
X144Y941D01*
X1093Y941D02*
X1105Y941D01*
X1131Y941D02*
X1143Y941D01*
X1173Y941D02*
X1180Y941D01*
X0Y940D02*
X7Y940D01*
X137Y940D02*
X144Y940D01*
X1093Y940D02*
X1103Y940D01*
X1133Y940D02*
X1143Y940D01*
X1173Y940D02*
X1180Y940D01*
X0Y939D02*
X7Y939D01*
X138Y939D02*
X145Y939D01*
X1092Y939D02*
X1101Y939D01*
X1135Y939D02*
X1144Y939D01*
X1173Y939D02*
X1180Y939D01*
X0Y938D02*
X7Y938D01*
X138Y938D02*
X145Y938D01*
X1092Y938D02*
X1100Y938D01*
X1137Y938D02*
X1144Y938D01*
X1173Y938D02*
X1180Y938D01*
X0Y937D02*
X7Y937D01*
X139Y937D02*
X146Y937D01*
X1092Y937D02*
X1098Y937D01*
X1138Y937D02*
X1144Y937D01*
X1173Y937D02*
X1180Y937D01*
X0Y936D02*
X7Y936D01*
X140Y936D02*
X146Y936D01*
X1091Y936D02*
X1097Y936D01*
X1138Y936D02*
X1144Y936D01*
X1173Y936D02*
X1180Y936D01*
X0Y935D02*
X7Y935D01*
X140Y935D02*
X146Y935D01*
X1091Y935D02*
X1098Y935D01*
X1138Y935D02*
X1144Y935D01*
X1173Y935D02*
X1180Y935D01*
X0Y934D02*
X7Y934D01*
X140Y934D02*
X146Y934D01*
X1092Y934D02*
X1098Y934D01*
X1137Y934D02*
X1144Y934D01*
X1173Y934D02*
X1180Y934D01*
X0Y933D02*
X7Y933D01*
X140Y933D02*
X146Y933D01*
X1092Y933D02*
X1100Y933D01*
X1136Y933D02*
X1144Y933D01*
X1173Y933D02*
X1180Y933D01*
X0Y932D02*
X7Y932D01*
X140Y932D02*
X146Y932D01*
X1092Y932D02*
X1102Y932D01*
X1134Y932D02*
X1144Y932D01*
X1173Y932D02*
X1180Y932D01*
X0Y931D02*
X7Y931D01*
X140Y931D02*
X146Y931D01*
X1093Y931D02*
X1104Y931D01*
X1132Y931D02*
X1143Y931D01*
X1173Y931D02*
X1180Y931D01*
X0Y930D02*
X7Y930D01*
X140Y930D02*
X146Y930D01*
X1093Y930D02*
X1106Y930D01*
X1130Y930D02*
X1142Y930D01*
X1173Y930D02*
X1180Y930D01*
X0Y929D02*
X7Y929D01*
X139Y929D02*
X146Y929D01*
X1094Y929D02*
X1108Y929D01*
X1128Y929D02*
X1142Y929D01*
X1173Y929D02*
X1180Y929D01*
X0Y928D02*
X7Y928D01*
X139Y928D02*
X146Y928D01*
X1096Y928D02*
X1110Y928D01*
X1126Y928D02*
X1140Y928D01*
X1173Y928D02*
X1180Y928D01*
X0Y927D02*
X7Y927D01*
X132Y927D02*
X145Y927D01*
X1097Y927D02*
X1112Y927D01*
X1124Y927D02*
X1138Y927D01*
X1173Y927D02*
X1180Y927D01*
X0Y926D02*
X7Y926D01*
X110Y926D02*
X145Y926D01*
X1099Y926D02*
X1115Y926D01*
X1121Y926D02*
X1136Y926D01*
X1173Y926D02*
X1180Y926D01*
X0Y925D02*
X7Y925D01*
X108Y925D02*
X144Y925D01*
X1101Y925D02*
X1134Y925D01*
X1173Y925D02*
X1180Y925D01*
X0Y924D02*
X7Y924D01*
X108Y924D02*
X144Y924D01*
X1103Y924D02*
X1132Y924D01*
X1173Y924D02*
X1180Y924D01*
X0Y923D02*
X7Y923D01*
X108Y923D02*
X143Y923D01*
X1105Y923D02*
X1130Y923D01*
X1173Y923D02*
X1180Y923D01*
X0Y922D02*
X7Y922D01*
X108Y922D02*
X141Y922D01*
X1108Y922D02*
X1128Y922D01*
X1173Y922D02*
X1180Y922D01*
X0Y921D02*
X7Y921D01*
X108Y921D02*
X140Y921D01*
X1110Y921D02*
X1126Y921D01*
X1173Y921D02*
X1180Y921D01*
X0Y920D02*
X7Y920D01*
X109Y920D02*
X131Y920D01*
X1112Y920D02*
X1124Y920D01*
X1173Y920D02*
X1180Y920D01*
X0Y919D02*
X7Y919D01*
X1114Y919D02*
X1122Y919D01*
X1173Y919D02*
X1180Y919D01*
X0Y918D02*
X7Y918D01*
X1173Y918D02*
X1180Y918D01*
X0Y917D02*
X7Y917D01*
X1173Y917D02*
X1180Y917D01*
X0Y916D02*
X7Y916D01*
X1173Y916D02*
X1180Y916D01*
X0Y915D02*
X7Y915D01*
X1173Y915D02*
X1180Y915D01*
X0Y914D02*
X7Y914D01*
X1173Y914D02*
X1180Y914D01*
X0Y913D02*
X7Y913D01*
X1173Y913D02*
X1180Y913D01*
X0Y912D02*
X7Y912D01*
X1173Y912D02*
X1180Y912D01*
X0Y911D02*
X7Y911D01*
X1173Y911D02*
X1180Y911D01*
X0Y910D02*
X7Y910D01*
X1173Y910D02*
X1180Y910D01*
X0Y909D02*
X7Y909D01*
X1173Y909D02*
X1180Y909D01*
X0Y908D02*
X7Y908D01*
X1173Y908D02*
X1180Y908D01*
X0Y907D02*
X7Y907D01*
X1173Y907D02*
X1180Y907D01*
X0Y906D02*
X7Y906D01*
X1173Y906D02*
X1180Y906D01*
X0Y905D02*
X7Y905D01*
X1173Y905D02*
X1180Y905D01*
X0Y904D02*
X7Y904D01*
X1173Y904D02*
X1180Y904D01*
X0Y903D02*
X7Y903D01*
X94Y903D02*
X97Y903D01*
X120Y903D02*
X142Y903D01*
X1173Y903D02*
X1180Y903D01*
X0Y902D02*
X7Y902D01*
X93Y902D02*
X98Y902D01*
X119Y902D02*
X143Y902D01*
X1114Y902D02*
X1122Y902D01*
X1173Y902D02*
X1180Y902D01*
X0Y901D02*
X7Y901D01*
X93Y901D02*
X99Y901D01*
X118Y901D02*
X144Y901D01*
X1111Y901D02*
X1125Y901D01*
X1173Y901D02*
X1180Y901D01*
X0Y900D02*
X7Y900D01*
X93Y900D02*
X99Y900D01*
X117Y900D02*
X145Y900D01*
X1109Y900D02*
X1127Y900D01*
X1173Y900D02*
X1180Y900D01*
X0Y899D02*
X7Y899D01*
X93Y899D02*
X99Y899D01*
X117Y899D02*
X145Y899D01*
X1107Y899D02*
X1129Y899D01*
X1173Y899D02*
X1180Y899D01*
X0Y898D02*
X7Y898D01*
X93Y898D02*
X99Y898D01*
X116Y898D02*
X146Y898D01*
X1105Y898D02*
X1131Y898D01*
X1173Y898D02*
X1180Y898D01*
X0Y897D02*
X7Y897D01*
X93Y897D02*
X99Y897D01*
X116Y897D02*
X146Y897D01*
X1103Y897D02*
X1133Y897D01*
X1173Y897D02*
X1180Y897D01*
X0Y896D02*
X7Y896D01*
X93Y896D02*
X99Y896D01*
X116Y896D02*
X122Y896D01*
X140Y896D02*
X146Y896D01*
X1101Y896D02*
X1135Y896D01*
X1173Y896D02*
X1180Y896D01*
X0Y895D02*
X7Y895D01*
X93Y895D02*
X99Y895D01*
X116Y895D02*
X122Y895D01*
X140Y895D02*
X146Y895D01*
X1099Y895D02*
X1114Y895D01*
X1122Y895D02*
X1137Y895D01*
X1173Y895D02*
X1180Y895D01*
X0Y894D02*
X7Y894D01*
X93Y894D02*
X99Y894D01*
X116Y894D02*
X122Y894D01*
X140Y894D02*
X146Y894D01*
X264Y894D02*
X503Y894D01*
X582Y894D02*
X818Y894D01*
X1097Y894D02*
X1112Y894D01*
X1124Y894D02*
X1139Y894D01*
X1173Y894D02*
X1180Y894D01*
X0Y893D02*
X7Y893D01*
X93Y893D02*
X99Y893D01*
X116Y893D02*
X122Y893D01*
X140Y893D02*
X146Y893D01*
X263Y893D02*
X505Y893D01*
X581Y893D02*
X818Y893D01*
X1095Y893D02*
X1110Y893D01*
X1126Y893D02*
X1140Y893D01*
X1173Y893D02*
X1180Y893D01*
X0Y892D02*
X7Y892D01*
X93Y892D02*
X99Y892D01*
X116Y892D02*
X122Y892D01*
X140Y892D02*
X146Y892D01*
X263Y892D02*
X506Y892D01*
X579Y892D02*
X818Y892D01*
X1094Y892D02*
X1108Y892D01*
X1128Y892D02*
X1142Y892D01*
X1173Y892D02*
X1180Y892D01*
X0Y891D02*
X7Y891D01*
X93Y891D02*
X99Y891D01*
X116Y891D02*
X122Y891D01*
X140Y891D02*
X146Y891D01*
X264Y891D02*
X508Y891D01*
X577Y891D02*
X818Y891D01*
X1093Y891D02*
X1106Y891D01*
X1130Y891D02*
X1143Y891D01*
X1173Y891D02*
X1180Y891D01*
X0Y890D02*
X7Y890D01*
X93Y890D02*
X99Y890D01*
X116Y890D02*
X122Y890D01*
X140Y890D02*
X146Y890D01*
X265Y890D02*
X509Y890D01*
X576Y890D02*
X817Y890D01*
X1093Y890D02*
X1104Y890D01*
X1132Y890D02*
X1143Y890D01*
X1173Y890D02*
X1180Y890D01*
X0Y889D02*
X7Y889D01*
X93Y889D02*
X99Y889D01*
X116Y889D02*
X122Y889D01*
X140Y889D02*
X146Y889D01*
X1092Y889D02*
X1102Y889D01*
X1134Y889D02*
X1144Y889D01*
X1173Y889D02*
X1180Y889D01*
X0Y888D02*
X7Y888D01*
X93Y888D02*
X99Y888D01*
X116Y888D02*
X122Y888D01*
X140Y888D02*
X146Y888D01*
X1092Y888D02*
X1100Y888D01*
X1136Y888D02*
X1144Y888D01*
X1173Y888D02*
X1180Y888D01*
X0Y887D02*
X7Y887D01*
X93Y887D02*
X99Y887D01*
X116Y887D02*
X122Y887D01*
X140Y887D02*
X146Y887D01*
X1092Y887D02*
X1098Y887D01*
X1138Y887D02*
X1144Y887D01*
X1173Y887D02*
X1180Y887D01*
X0Y886D02*
X7Y886D01*
X93Y886D02*
X99Y886D01*
X116Y886D02*
X122Y886D01*
X140Y886D02*
X146Y886D01*
X1091Y886D02*
X1098Y886D01*
X1138Y886D02*
X1144Y886D01*
X1173Y886D02*
X1180Y886D01*
X0Y885D02*
X7Y885D01*
X93Y885D02*
X99Y885D01*
X116Y885D02*
X122Y885D01*
X140Y885D02*
X146Y885D01*
X1091Y885D02*
X1098Y885D01*
X1138Y885D02*
X1144Y885D01*
X1173Y885D02*
X1180Y885D01*
X0Y884D02*
X7Y884D01*
X93Y884D02*
X99Y884D01*
X116Y884D02*
X122Y884D01*
X140Y884D02*
X146Y884D01*
X1092Y884D02*
X1098Y884D01*
X1138Y884D02*
X1144Y884D01*
X1173Y884D02*
X1180Y884D01*
X0Y883D02*
X7Y883D01*
X93Y883D02*
X122Y883D01*
X140Y883D02*
X146Y883D01*
X1092Y883D02*
X1100Y883D01*
X1136Y883D02*
X1144Y883D01*
X1173Y883D02*
X1180Y883D01*
X0Y882D02*
X7Y882D01*
X93Y882D02*
X122Y882D01*
X140Y882D02*
X146Y882D01*
X1092Y882D02*
X1102Y882D01*
X1134Y882D02*
X1144Y882D01*
X1173Y882D02*
X1180Y882D01*
X0Y881D02*
X7Y881D01*
X93Y881D02*
X122Y881D01*
X140Y881D02*
X146Y881D01*
X1093Y881D02*
X1104Y881D01*
X1132Y881D02*
X1143Y881D01*
X1173Y881D02*
X1180Y881D01*
X0Y880D02*
X7Y880D01*
X93Y880D02*
X122Y880D01*
X140Y880D02*
X146Y880D01*
X1093Y880D02*
X1106Y880D01*
X1130Y880D02*
X1143Y880D01*
X1173Y880D02*
X1180Y880D01*
X0Y879D02*
X7Y879D01*
X93Y879D02*
X122Y879D01*
X139Y879D02*
X146Y879D01*
X1094Y879D02*
X1108Y879D01*
X1128Y879D02*
X1142Y879D01*
X1173Y879D02*
X1180Y879D01*
X0Y878D02*
X7Y878D01*
X93Y878D02*
X122Y878D01*
X139Y878D02*
X146Y878D01*
X1095Y878D02*
X1110Y878D01*
X1126Y878D02*
X1140Y878D01*
X1173Y878D02*
X1180Y878D01*
X0Y877D02*
X7Y877D01*
X93Y877D02*
X122Y877D01*
X139Y877D02*
X145Y877D01*
X1097Y877D02*
X1112Y877D01*
X1124Y877D02*
X1139Y877D01*
X1173Y877D02*
X1180Y877D01*
X0Y876D02*
X7Y876D01*
X93Y876D02*
X122Y876D01*
X138Y876D02*
X145Y876D01*
X1099Y876D02*
X1114Y876D01*
X1122Y876D02*
X1137Y876D01*
X1173Y876D02*
X1180Y876D01*
X0Y875D02*
X7Y875D01*
X138Y875D02*
X145Y875D01*
X1101Y875D02*
X1135Y875D01*
X1173Y875D02*
X1180Y875D01*
X0Y874D02*
X7Y874D01*
X137Y874D02*
X144Y874D01*
X1103Y874D02*
X1133Y874D01*
X1173Y874D02*
X1180Y874D01*
X0Y873D02*
X7Y873D01*
X137Y873D02*
X144Y873D01*
X1105Y873D02*
X1131Y873D01*
X1173Y873D02*
X1180Y873D01*
X0Y872D02*
X7Y872D01*
X137Y872D02*
X143Y872D01*
X1107Y872D02*
X1129Y872D01*
X1173Y872D02*
X1180Y872D01*
X0Y871D02*
X7Y871D01*
X137Y871D02*
X143Y871D01*
X1109Y871D02*
X1127Y871D01*
X1173Y871D02*
X1180Y871D01*
X0Y870D02*
X7Y870D01*
X138Y870D02*
X142Y870D01*
X1111Y870D02*
X1125Y870D01*
X1173Y870D02*
X1180Y870D01*
X0Y869D02*
X7Y869D01*
X1114Y869D02*
X1122Y869D01*
X1173Y869D02*
X1180Y869D01*
X0Y868D02*
X7Y868D01*
X1173Y868D02*
X1180Y868D01*
X0Y867D02*
X7Y867D01*
X1173Y867D02*
X1180Y867D01*
X0Y866D02*
X7Y866D01*
X1173Y866D02*
X1180Y866D01*
X0Y865D02*
X7Y865D01*
X1173Y865D02*
X1180Y865D01*
X0Y864D02*
X7Y864D01*
X1173Y864D02*
X1180Y864D01*
X0Y863D02*
X7Y863D01*
X1173Y863D02*
X1180Y863D01*
X0Y862D02*
X7Y862D01*
X1173Y862D02*
X1180Y862D01*
X0Y861D02*
X7Y861D01*
X1173Y861D02*
X1180Y861D01*
X0Y860D02*
X7Y860D01*
X1173Y860D02*
X1180Y860D01*
X0Y859D02*
X7Y859D01*
X1173Y859D02*
X1180Y859D01*
X0Y858D02*
X7Y858D01*
X1173Y858D02*
X1180Y858D01*
X0Y857D02*
X7Y857D01*
X1173Y857D02*
X1180Y857D01*
X0Y856D02*
X7Y856D01*
X1173Y856D02*
X1180Y856D01*
X0Y855D02*
X7Y855D01*
X1173Y855D02*
X1180Y855D01*
X0Y854D02*
X7Y854D01*
X168Y854D02*
X169Y854D01*
X221Y854D02*
X223Y854D01*
X1173Y854D02*
X1180Y854D01*
X0Y853D02*
X7Y853D01*
X97Y853D02*
X141Y853D01*
X168Y853D02*
X171Y853D01*
X220Y853D02*
X223Y853D01*
X1173Y853D02*
X1180Y853D01*
X0Y852D02*
X7Y852D01*
X96Y852D02*
X143Y852D01*
X167Y852D02*
X172Y852D01*
X219Y852D02*
X224Y852D01*
X1140Y852D02*
X1143Y852D01*
X1173Y852D02*
X1180Y852D01*
X0Y851D02*
X7Y851D01*
X95Y851D02*
X144Y851D01*
X166Y851D02*
X174Y851D01*
X217Y851D02*
X224Y851D01*
X1139Y851D02*
X1144Y851D01*
X1173Y851D02*
X1180Y851D01*
X0Y850D02*
X7Y850D01*
X94Y850D02*
X145Y850D01*
X166Y850D02*
X174Y850D01*
X217Y850D02*
X225Y850D01*
X1139Y850D02*
X1144Y850D01*
X1173Y850D02*
X1180Y850D01*
X0Y849D02*
X7Y849D01*
X93Y849D02*
X145Y849D01*
X165Y849D02*
X174Y849D01*
X217Y849D02*
X226Y849D01*
X1139Y849D02*
X1145Y849D01*
X1173Y849D02*
X1180Y849D01*
X0Y848D02*
X7Y848D01*
X93Y848D02*
X146Y848D01*
X165Y848D02*
X173Y848D01*
X218Y848D02*
X226Y848D01*
X1138Y848D02*
X1145Y848D01*
X1173Y848D02*
X1180Y848D01*
X0Y847D02*
X7Y847D01*
X93Y847D02*
X146Y847D01*
X165Y847D02*
X172Y847D01*
X219Y847D02*
X226Y847D01*
X1138Y847D02*
X1145Y847D01*
X1173Y847D02*
X1180Y847D01*
X0Y846D02*
X7Y846D01*
X93Y846D02*
X99Y846D01*
X140Y846D02*
X146Y846D01*
X164Y846D02*
X172Y846D01*
X219Y846D02*
X227Y846D01*
X1138Y846D02*
X1145Y846D01*
X1173Y846D02*
X1180Y846D01*
X0Y845D02*
X7Y845D01*
X93Y845D02*
X99Y845D01*
X140Y845D02*
X146Y845D01*
X164Y845D02*
X171Y845D01*
X220Y845D02*
X227Y845D01*
X1138Y845D02*
X1145Y845D01*
X1173Y845D02*
X1180Y845D01*
X0Y844D02*
X7Y844D01*
X93Y844D02*
X99Y844D01*
X140Y844D02*
X146Y844D01*
X164Y844D02*
X171Y844D01*
X220Y844D02*
X227Y844D01*
X1138Y844D02*
X1145Y844D01*
X1173Y844D02*
X1180Y844D01*
X0Y843D02*
X7Y843D01*
X93Y843D02*
X99Y843D01*
X140Y843D02*
X146Y843D01*
X163Y843D02*
X170Y843D01*
X221Y843D02*
X228Y843D01*
X1138Y843D02*
X1145Y843D01*
X1173Y843D02*
X1180Y843D01*
X0Y842D02*
X7Y842D01*
X93Y842D02*
X99Y842D01*
X140Y842D02*
X146Y842D01*
X163Y842D02*
X170Y842D01*
X221Y842D02*
X228Y842D01*
X1138Y842D02*
X1145Y842D01*
X1173Y842D02*
X1180Y842D01*
X0Y841D02*
X7Y841D01*
X93Y841D02*
X99Y841D01*
X140Y841D02*
X146Y841D01*
X163Y841D02*
X170Y841D01*
X221Y841D02*
X228Y841D01*
X1138Y841D02*
X1145Y841D01*
X1173Y841D02*
X1180Y841D01*
X0Y840D02*
X7Y840D01*
X93Y840D02*
X99Y840D01*
X140Y840D02*
X146Y840D01*
X163Y840D02*
X169Y840D01*
X221Y840D02*
X228Y840D01*
X1138Y840D02*
X1145Y840D01*
X1173Y840D02*
X1180Y840D01*
X0Y839D02*
X7Y839D01*
X93Y839D02*
X99Y839D01*
X140Y839D02*
X146Y839D01*
X162Y839D02*
X169Y839D01*
X222Y839D02*
X228Y839D01*
X1138Y839D02*
X1145Y839D01*
X1173Y839D02*
X1180Y839D01*
X0Y838D02*
X7Y838D01*
X93Y838D02*
X99Y838D01*
X140Y838D02*
X146Y838D01*
X162Y838D02*
X169Y838D01*
X222Y838D02*
X229Y838D01*
X1138Y838D02*
X1145Y838D01*
X1173Y838D02*
X1180Y838D01*
X0Y837D02*
X7Y837D01*
X93Y837D02*
X99Y837D01*
X140Y837D02*
X146Y837D01*
X162Y837D02*
X169Y837D01*
X222Y837D02*
X229Y837D01*
X1138Y837D02*
X1145Y837D01*
X1173Y837D02*
X1180Y837D01*
X0Y836D02*
X7Y836D01*
X93Y836D02*
X99Y836D01*
X140Y836D02*
X146Y836D01*
X162Y836D02*
X169Y836D01*
X222Y836D02*
X229Y836D01*
X1138Y836D02*
X1145Y836D01*
X1173Y836D02*
X1180Y836D01*
X0Y835D02*
X7Y835D01*
X93Y835D02*
X99Y835D01*
X140Y835D02*
X146Y835D01*
X162Y835D02*
X169Y835D01*
X222Y835D02*
X229Y835D01*
X1138Y835D02*
X1145Y835D01*
X1173Y835D02*
X1180Y835D01*
X0Y834D02*
X7Y834D01*
X93Y834D02*
X99Y834D01*
X140Y834D02*
X146Y834D01*
X162Y834D02*
X169Y834D01*
X222Y834D02*
X229Y834D01*
X1138Y834D02*
X1145Y834D01*
X1173Y834D02*
X1180Y834D01*
X0Y833D02*
X7Y833D01*
X93Y833D02*
X99Y833D01*
X140Y833D02*
X146Y833D01*
X162Y833D02*
X169Y833D01*
X222Y833D02*
X229Y833D01*
X1138Y833D02*
X1145Y833D01*
X1173Y833D02*
X1180Y833D01*
X0Y832D02*
X7Y832D01*
X93Y832D02*
X99Y832D01*
X140Y832D02*
X146Y832D01*
X162Y832D02*
X169Y832D01*
X222Y832D02*
X229Y832D01*
X1138Y832D02*
X1145Y832D01*
X1173Y832D02*
X1180Y832D01*
X0Y831D02*
X7Y831D01*
X93Y831D02*
X99Y831D01*
X140Y831D02*
X146Y831D01*
X162Y831D02*
X169Y831D01*
X222Y831D02*
X229Y831D01*
X1138Y831D02*
X1145Y831D01*
X1173Y831D02*
X1180Y831D01*
X0Y830D02*
X7Y830D01*
X93Y830D02*
X99Y830D01*
X140Y830D02*
X146Y830D01*
X162Y830D02*
X169Y830D01*
X222Y830D02*
X228Y830D01*
X1138Y830D02*
X1145Y830D01*
X1173Y830D02*
X1180Y830D01*
X0Y829D02*
X7Y829D01*
X93Y829D02*
X99Y829D01*
X140Y829D02*
X146Y829D01*
X163Y829D02*
X169Y829D01*
X221Y829D02*
X228Y829D01*
X1138Y829D02*
X1145Y829D01*
X1173Y829D02*
X1180Y829D01*
X0Y828D02*
X7Y828D01*
X93Y828D02*
X99Y828D01*
X140Y828D02*
X146Y828D01*
X163Y828D02*
X170Y828D01*
X221Y828D02*
X228Y828D01*
X1138Y828D02*
X1145Y828D01*
X1173Y828D02*
X1180Y828D01*
X0Y827D02*
X7Y827D01*
X93Y827D02*
X99Y827D01*
X140Y827D02*
X146Y827D01*
X163Y827D02*
X170Y827D01*
X221Y827D02*
X228Y827D01*
X1138Y827D02*
X1145Y827D01*
X1173Y827D02*
X1180Y827D01*
X0Y826D02*
X7Y826D01*
X93Y826D02*
X99Y826D01*
X140Y826D02*
X146Y826D01*
X163Y826D02*
X170Y826D01*
X221Y826D02*
X228Y826D01*
X1138Y826D02*
X1145Y826D01*
X1173Y826D02*
X1180Y826D01*
X0Y825D02*
X7Y825D01*
X93Y825D02*
X146Y825D01*
X164Y825D02*
X171Y825D01*
X220Y825D02*
X227Y825D01*
X1094Y825D02*
X1145Y825D01*
X1173Y825D02*
X1180Y825D01*
X0Y824D02*
X7Y824D01*
X93Y824D02*
X146Y824D01*
X164Y824D02*
X171Y824D01*
X220Y824D02*
X227Y824D01*
X1092Y824D02*
X1145Y824D01*
X1173Y824D02*
X1180Y824D01*
X0Y823D02*
X7Y823D01*
X93Y823D02*
X145Y823D01*
X164Y823D02*
X172Y823D01*
X219Y823D02*
X227Y823D01*
X1092Y823D02*
X1145Y823D01*
X1173Y823D02*
X1180Y823D01*
X0Y822D02*
X7Y822D01*
X94Y822D02*
X145Y822D01*
X165Y822D02*
X172Y822D01*
X219Y822D02*
X226Y822D01*
X1091Y822D02*
X1145Y822D01*
X1173Y822D02*
X1180Y822D01*
X0Y821D02*
X7Y821D01*
X95Y821D02*
X144Y821D01*
X165Y821D02*
X173Y821D01*
X218Y821D02*
X226Y821D01*
X1091Y821D02*
X1145Y821D01*
X1173Y821D02*
X1180Y821D01*
X0Y820D02*
X7Y820D01*
X96Y820D02*
X143Y820D01*
X165Y820D02*
X174Y820D01*
X217Y820D02*
X225Y820D01*
X1092Y820D02*
X1145Y820D01*
X1173Y820D02*
X1180Y820D01*
X0Y819D02*
X7Y819D01*
X99Y819D02*
X140Y819D01*
X166Y819D02*
X174Y819D01*
X217Y819D02*
X225Y819D01*
X1093Y819D02*
X1145Y819D01*
X1173Y819D02*
X1180Y819D01*
X0Y818D02*
X7Y818D01*
X166Y818D02*
X173Y818D01*
X218Y818D02*
X224Y818D01*
X1173Y818D02*
X1180Y818D01*
X0Y817D02*
X7Y817D01*
X167Y817D02*
X172Y817D01*
X219Y817D02*
X224Y817D01*
X1173Y817D02*
X1180Y817D01*
X0Y816D02*
X7Y816D01*
X168Y816D02*
X170Y816D01*
X221Y816D02*
X223Y816D01*
X1173Y816D02*
X1180Y816D01*
X0Y815D02*
X7Y815D01*
X168Y815D02*
X169Y815D01*
X222Y815D02*
X222Y815D01*
X1173Y815D02*
X1180Y815D01*
X0Y814D02*
X7Y814D01*
X1173Y814D02*
X1180Y814D01*
X0Y813D02*
X7Y813D01*
X1173Y813D02*
X1180Y813D01*
X0Y812D02*
X7Y812D01*
X1173Y812D02*
X1180Y812D01*
X0Y811D02*
X7Y811D01*
X1173Y811D02*
X1180Y811D01*
X0Y810D02*
X7Y810D01*
X1173Y810D02*
X1180Y810D01*
X0Y809D02*
X7Y809D01*
X1173Y809D02*
X1180Y809D01*
X0Y808D02*
X7Y808D01*
X1173Y808D02*
X1180Y808D01*
X0Y807D02*
X7Y807D01*
X1173Y807D02*
X1180Y807D01*
X0Y806D02*
X7Y806D01*
X1173Y806D02*
X1180Y806D01*
X0Y805D02*
X7Y805D01*
X1173Y805D02*
X1180Y805D01*
X0Y804D02*
X7Y804D01*
X1173Y804D02*
X1180Y804D01*
X0Y803D02*
X7Y803D01*
X1173Y803D02*
X1180Y803D01*
X0Y802D02*
X7Y802D01*
X1173Y802D02*
X1180Y802D01*
X0Y801D02*
X7Y801D01*
X1173Y801D02*
X1180Y801D01*
X0Y800D02*
X7Y800D01*
X1173Y800D02*
X1180Y800D01*
X0Y799D02*
X7Y799D01*
X1173Y799D02*
X1180Y799D01*
X0Y798D02*
X7Y798D01*
X1173Y798D02*
X1180Y798D01*
X0Y797D02*
X7Y797D01*
X1173Y797D02*
X1180Y797D01*
X0Y796D02*
X7Y796D01*
X1173Y796D02*
X1180Y796D01*
X0Y795D02*
X7Y795D01*
X1173Y795D02*
X1180Y795D01*
X0Y794D02*
X7Y794D01*
X1173Y794D02*
X1180Y794D01*
X0Y793D02*
X7Y793D01*
X1173Y793D02*
X1180Y793D01*
X0Y792D02*
X7Y792D01*
X126Y792D02*
X136Y792D01*
X1173Y792D02*
X1180Y792D01*
X0Y791D02*
X7Y791D01*
X126Y791D02*
X137Y791D01*
X1173Y791D02*
X1180Y791D01*
X0Y790D02*
X7Y790D01*
X125Y790D02*
X137Y790D01*
X1173Y790D02*
X1180Y790D01*
X0Y789D02*
X7Y789D01*
X125Y789D02*
X137Y789D01*
X1173Y789D02*
X1180Y789D01*
X0Y788D02*
X7Y788D01*
X125Y788D02*
X137Y788D01*
X1173Y788D02*
X1180Y788D01*
X0Y787D02*
X7Y787D01*
X125Y787D02*
X137Y787D01*
X1173Y787D02*
X1180Y787D01*
X0Y786D02*
X7Y786D01*
X125Y786D02*
X137Y786D01*
X1173Y786D02*
X1180Y786D01*
X0Y785D02*
X7Y785D01*
X125Y785D02*
X137Y785D01*
X1173Y785D02*
X1180Y785D01*
X0Y784D02*
X7Y784D01*
X125Y784D02*
X137Y784D01*
X1173Y784D02*
X1180Y784D01*
X0Y783D02*
X7Y783D01*
X125Y783D02*
X137Y783D01*
X1173Y783D02*
X1180Y783D01*
X0Y782D02*
X7Y782D01*
X125Y782D02*
X137Y782D01*
X1173Y782D02*
X1180Y782D01*
X0Y781D02*
X7Y781D01*
X126Y781D02*
X137Y781D01*
X1173Y781D02*
X1180Y781D01*
X0Y780D02*
X7Y780D01*
X126Y780D02*
X136Y780D01*
X1173Y780D02*
X1180Y780D01*
X0Y779D02*
X7Y779D01*
X129Y779D02*
X133Y779D01*
X1173Y779D02*
X1180Y779D01*
X0Y778D02*
X7Y778D01*
X1173Y778D02*
X1180Y778D01*
X0Y777D02*
X7Y777D01*
X1173Y777D02*
X1180Y777D01*
X0Y776D02*
X7Y776D01*
X1173Y776D02*
X1180Y776D01*
X0Y775D02*
X7Y775D01*
X1173Y775D02*
X1180Y775D01*
X0Y774D02*
X7Y774D01*
X1173Y774D02*
X1180Y774D01*
X0Y773D02*
X7Y773D01*
X1173Y773D02*
X1180Y773D01*
X0Y772D02*
X7Y772D01*
X1173Y772D02*
X1180Y772D01*
X0Y771D02*
X7Y771D01*
X1173Y771D02*
X1180Y771D01*
X0Y770D02*
X7Y770D01*
X1173Y770D02*
X1180Y770D01*
X0Y769D02*
X7Y769D01*
X1173Y769D02*
X1180Y769D01*
X0Y768D02*
X7Y768D01*
X1173Y768D02*
X1180Y768D01*
X0Y767D02*
X7Y767D01*
X1173Y767D02*
X1180Y767D01*
X0Y766D02*
X7Y766D01*
X1173Y766D02*
X1180Y766D01*
X0Y765D02*
X7Y765D01*
X1173Y765D02*
X1180Y765D01*
X0Y764D02*
X7Y764D01*
X1173Y764D02*
X1180Y764D01*
X0Y763D02*
X7Y763D01*
X1173Y763D02*
X1180Y763D01*
X0Y762D02*
X7Y762D01*
X1173Y762D02*
X1180Y762D01*
X0Y761D02*
X7Y761D01*
X1173Y761D02*
X1180Y761D01*
X0Y760D02*
X7Y760D01*
X1173Y760D02*
X1180Y760D01*
X0Y759D02*
X7Y759D01*
X1173Y759D02*
X1180Y759D01*
X0Y758D02*
X7Y758D01*
X1173Y758D02*
X1180Y758D01*
X0Y757D02*
X7Y757D01*
X1173Y757D02*
X1180Y757D01*
X0Y756D02*
X7Y756D01*
X1173Y756D02*
X1180Y756D01*
X0Y755D02*
X7Y755D01*
X1173Y755D02*
X1180Y755D01*
X0Y754D02*
X7Y754D01*
X1173Y754D02*
X1180Y754D01*
X0Y753D02*
X7Y753D01*
X99Y753D02*
X140Y753D01*
X1173Y753D02*
X1180Y753D01*
X0Y752D02*
X7Y752D01*
X96Y752D02*
X143Y752D01*
X1173Y752D02*
X1180Y752D01*
X0Y751D02*
X7Y751D01*
X95Y751D02*
X144Y751D01*
X1173Y751D02*
X1180Y751D01*
X0Y750D02*
X7Y750D01*
X94Y750D02*
X145Y750D01*
X1173Y750D02*
X1180Y750D01*
X0Y749D02*
X7Y749D01*
X93Y749D02*
X145Y749D01*
X1173Y749D02*
X1180Y749D01*
X0Y748D02*
X7Y748D01*
X93Y748D02*
X146Y748D01*
X1173Y748D02*
X1180Y748D01*
X0Y747D02*
X7Y747D01*
X93Y747D02*
X146Y747D01*
X1173Y747D02*
X1180Y747D01*
X0Y746D02*
X7Y746D01*
X93Y746D02*
X99Y746D01*
X140Y746D02*
X146Y746D01*
X1173Y746D02*
X1180Y746D01*
X0Y745D02*
X7Y745D01*
X93Y745D02*
X99Y745D01*
X140Y745D02*
X146Y745D01*
X1173Y745D02*
X1180Y745D01*
X0Y744D02*
X7Y744D01*
X93Y744D02*
X99Y744D01*
X140Y744D02*
X146Y744D01*
X1173Y744D02*
X1180Y744D01*
X0Y743D02*
X7Y743D01*
X93Y743D02*
X99Y743D01*
X140Y743D02*
X146Y743D01*
X1173Y743D02*
X1180Y743D01*
X0Y742D02*
X7Y742D01*
X93Y742D02*
X99Y742D01*
X140Y742D02*
X146Y742D01*
X1173Y742D02*
X1180Y742D01*
X0Y741D02*
X7Y741D01*
X93Y741D02*
X99Y741D01*
X140Y741D02*
X146Y741D01*
X1173Y741D02*
X1180Y741D01*
X0Y740D02*
X7Y740D01*
X93Y740D02*
X99Y740D01*
X140Y740D02*
X146Y740D01*
X1173Y740D02*
X1180Y740D01*
X0Y739D02*
X7Y739D01*
X93Y739D02*
X99Y739D01*
X140Y739D02*
X146Y739D01*
X1173Y739D02*
X1180Y739D01*
X0Y738D02*
X7Y738D01*
X93Y738D02*
X99Y738D01*
X140Y738D02*
X146Y738D01*
X1173Y738D02*
X1180Y738D01*
X0Y737D02*
X7Y737D01*
X93Y737D02*
X99Y737D01*
X140Y737D02*
X146Y737D01*
X1173Y737D02*
X1180Y737D01*
X0Y736D02*
X7Y736D01*
X93Y736D02*
X99Y736D01*
X140Y736D02*
X146Y736D01*
X1173Y736D02*
X1180Y736D01*
X0Y735D02*
X7Y735D01*
X93Y735D02*
X99Y735D01*
X140Y735D02*
X146Y735D01*
X1173Y735D02*
X1180Y735D01*
X0Y734D02*
X7Y734D01*
X93Y734D02*
X99Y734D01*
X140Y734D02*
X146Y734D01*
X1173Y734D02*
X1180Y734D01*
X0Y733D02*
X7Y733D01*
X93Y733D02*
X99Y733D01*
X140Y733D02*
X146Y733D01*
X1173Y733D02*
X1180Y733D01*
X0Y732D02*
X7Y732D01*
X93Y732D02*
X99Y732D01*
X140Y732D02*
X146Y732D01*
X1173Y732D02*
X1180Y732D01*
X0Y731D02*
X7Y731D01*
X93Y731D02*
X99Y731D01*
X140Y731D02*
X146Y731D01*
X1173Y731D02*
X1180Y731D01*
X0Y730D02*
X7Y730D01*
X93Y730D02*
X99Y730D01*
X140Y730D02*
X146Y730D01*
X1173Y730D02*
X1180Y730D01*
X0Y729D02*
X7Y729D01*
X93Y729D02*
X99Y729D01*
X140Y729D02*
X146Y729D01*
X1173Y729D02*
X1180Y729D01*
X0Y728D02*
X7Y728D01*
X93Y728D02*
X99Y728D01*
X140Y728D02*
X146Y728D01*
X1173Y728D02*
X1180Y728D01*
X0Y727D02*
X7Y727D01*
X93Y727D02*
X99Y727D01*
X140Y727D02*
X146Y727D01*
X1173Y727D02*
X1180Y727D01*
X0Y726D02*
X7Y726D01*
X93Y726D02*
X99Y726D01*
X140Y726D02*
X146Y726D01*
X1173Y726D02*
X1180Y726D01*
X0Y725D02*
X7Y725D01*
X93Y725D02*
X146Y725D01*
X1173Y725D02*
X1180Y725D01*
X0Y724D02*
X7Y724D01*
X93Y724D02*
X146Y724D01*
X1173Y724D02*
X1180Y724D01*
X0Y723D02*
X7Y723D01*
X93Y723D02*
X145Y723D01*
X1173Y723D02*
X1180Y723D01*
X0Y722D02*
X7Y722D01*
X94Y722D02*
X145Y722D01*
X1173Y722D02*
X1180Y722D01*
X0Y721D02*
X7Y721D01*
X95Y721D02*
X144Y721D01*
X1173Y721D02*
X1180Y721D01*
X0Y720D02*
X7Y720D01*
X96Y720D02*
X143Y720D01*
X1173Y720D02*
X1180Y720D01*
X0Y719D02*
X7Y719D01*
X97Y719D02*
X141Y719D01*
X1173Y719D02*
X1180Y719D01*
X0Y718D02*
X7Y718D01*
X379Y718D02*
X389Y718D01*
X1173Y718D02*
X1180Y718D01*
X0Y717D02*
X7Y717D01*
X379Y717D02*
X390Y717D01*
X1173Y717D02*
X1180Y717D01*
X0Y716D02*
X7Y716D01*
X379Y716D02*
X390Y716D01*
X1173Y716D02*
X1180Y716D01*
X0Y715D02*
X7Y715D01*
X379Y715D02*
X390Y715D01*
X726Y715D02*
X778Y715D01*
X1173Y715D02*
X1180Y715D01*
X0Y714D02*
X7Y714D01*
X379Y714D02*
X390Y714D01*
X726Y714D02*
X779Y714D01*
X1173Y714D02*
X1180Y714D01*
X0Y713D02*
X7Y713D01*
X379Y713D02*
X390Y713D01*
X726Y713D02*
X779Y713D01*
X1173Y713D02*
X1180Y713D01*
X0Y712D02*
X7Y712D01*
X379Y712D02*
X389Y712D01*
X726Y712D02*
X779Y712D01*
X1173Y712D02*
X1180Y712D01*
X0Y711D02*
X7Y711D01*
X379Y711D02*
X385Y711D01*
X726Y711D02*
X779Y711D01*
X1173Y711D02*
X1180Y711D01*
X0Y710D02*
X7Y710D01*
X379Y710D02*
X385Y710D01*
X726Y710D02*
X778Y710D01*
X1173Y710D02*
X1180Y710D01*
X0Y709D02*
X7Y709D01*
X379Y709D02*
X385Y709D01*
X726Y709D02*
X777Y709D01*
X1173Y709D02*
X1180Y709D01*
X0Y708D02*
X7Y708D01*
X379Y708D02*
X385Y708D01*
X726Y708D02*
X736Y708D01*
X1173Y708D02*
X1180Y708D01*
X0Y707D02*
X7Y707D01*
X379Y707D02*
X385Y707D01*
X726Y707D02*
X737Y707D01*
X1173Y707D02*
X1180Y707D01*
X0Y706D02*
X7Y706D01*
X379Y706D02*
X385Y706D01*
X727Y706D02*
X739Y706D01*
X1173Y706D02*
X1180Y706D01*
X0Y705D02*
X7Y705D01*
X379Y705D02*
X385Y705D01*
X729Y705D02*
X740Y705D01*
X1173Y705D02*
X1180Y705D01*
X0Y704D02*
X7Y704D01*
X379Y704D02*
X430Y704D01*
X730Y704D02*
X741Y704D01*
X1098Y704D02*
X1107Y704D01*
X1140Y704D02*
X1142Y704D01*
X1173Y704D02*
X1180Y704D01*
X0Y703D02*
X7Y703D01*
X379Y703D02*
X431Y703D01*
X732Y703D02*
X743Y703D01*
X1096Y703D02*
X1109Y703D01*
X1138Y703D02*
X1143Y703D01*
X1173Y703D02*
X1180Y703D01*
X0Y702D02*
X7Y702D01*
X379Y702D02*
X432Y702D01*
X733Y702D02*
X745Y702D01*
X1095Y702D02*
X1111Y702D01*
X1136Y702D02*
X1144Y702D01*
X1173Y702D02*
X1180Y702D01*
X0Y701D02*
X7Y701D01*
X379Y701D02*
X432Y701D01*
X735Y701D02*
X748Y701D01*
X1094Y701D02*
X1112Y701D01*
X1135Y701D02*
X1144Y701D01*
X1173Y701D02*
X1180Y701D01*
X0Y700D02*
X7Y700D01*
X379Y700D02*
X431Y700D01*
X736Y700D02*
X749Y700D01*
X1093Y700D02*
X1113Y700D01*
X1133Y700D02*
X1144Y700D01*
X1173Y700D02*
X1180Y700D01*
X0Y699D02*
X7Y699D01*
X379Y699D02*
X431Y699D01*
X737Y699D02*
X750Y699D01*
X1092Y699D02*
X1113Y699D01*
X1131Y699D02*
X1144Y699D01*
X1173Y699D02*
X1180Y699D01*
X0Y698D02*
X7Y698D01*
X379Y698D02*
X430Y698D01*
X737Y698D02*
X750Y698D01*
X1092Y698D02*
X1114Y698D01*
X1130Y698D02*
X1142Y698D01*
X1173Y698D02*
X1180Y698D01*
X0Y697D02*
X7Y697D01*
X379Y697D02*
X385Y697D01*
X736Y697D02*
X749Y697D01*
X1091Y697D02*
X1099Y697D01*
X1107Y697D02*
X1114Y697D01*
X1128Y697D02*
X1141Y697D01*
X1173Y697D02*
X1180Y697D01*
X0Y696D02*
X7Y696D01*
X379Y696D02*
X385Y696D01*
X735Y696D02*
X749Y696D01*
X1091Y696D02*
X1098Y696D01*
X1108Y696D02*
X1115Y696D01*
X1126Y696D02*
X1139Y696D01*
X1173Y696D02*
X1180Y696D01*
X0Y695D02*
X7Y695D01*
X379Y695D02*
X385Y695D01*
X733Y695D02*
X746Y695D01*
X1091Y695D02*
X1097Y695D01*
X1108Y695D02*
X1115Y695D01*
X1124Y695D02*
X1137Y695D01*
X1173Y695D02*
X1180Y695D01*
X0Y694D02*
X7Y694D01*
X379Y694D02*
X385Y694D01*
X732Y694D02*
X743Y694D01*
X1091Y694D02*
X1097Y694D01*
X1109Y694D02*
X1115Y694D01*
X1123Y694D02*
X1136Y694D01*
X1173Y694D02*
X1180Y694D01*
X0Y693D02*
X7Y693D01*
X379Y693D02*
X385Y693D01*
X730Y693D02*
X742Y693D01*
X1091Y693D02*
X1097Y693D01*
X1109Y693D02*
X1115Y693D01*
X1121Y693D02*
X1134Y693D01*
X1173Y693D02*
X1180Y693D01*
X0Y692D02*
X7Y692D01*
X379Y692D02*
X385Y692D01*
X729Y692D02*
X740Y692D01*
X1091Y692D02*
X1097Y692D01*
X1109Y692D02*
X1115Y692D01*
X1119Y692D02*
X1132Y692D01*
X1173Y692D02*
X1180Y692D01*
X0Y691D02*
X7Y691D01*
X379Y691D02*
X385Y691D01*
X727Y691D02*
X739Y691D01*
X1091Y691D02*
X1097Y691D01*
X1109Y691D02*
X1115Y691D01*
X1118Y691D02*
X1131Y691D01*
X1173Y691D02*
X1180Y691D01*
X0Y690D02*
X7Y690D01*
X379Y690D02*
X389Y690D01*
X726Y690D02*
X737Y690D01*
X1091Y690D02*
X1097Y690D01*
X1109Y690D02*
X1129Y690D01*
X1173Y690D02*
X1180Y690D01*
X0Y689D02*
X7Y689D01*
X379Y689D02*
X390Y689D01*
X726Y689D02*
X736Y689D01*
X1091Y689D02*
X1097Y689D01*
X1109Y689D02*
X1127Y689D01*
X1173Y689D02*
X1180Y689D01*
X0Y688D02*
X7Y688D01*
X379Y688D02*
X390Y688D01*
X726Y688D02*
X777Y688D01*
X1091Y688D02*
X1097Y688D01*
X1109Y688D02*
X1125Y688D01*
X1173Y688D02*
X1180Y688D01*
X0Y687D02*
X7Y687D01*
X379Y687D02*
X390Y687D01*
X726Y687D02*
X778Y687D01*
X1091Y687D02*
X1097Y687D01*
X1109Y687D02*
X1124Y687D01*
X1173Y687D02*
X1180Y687D01*
X0Y686D02*
X7Y686D01*
X379Y686D02*
X390Y686D01*
X726Y686D02*
X779Y686D01*
X1091Y686D02*
X1097Y686D01*
X1109Y686D02*
X1122Y686D01*
X1173Y686D02*
X1180Y686D01*
X0Y685D02*
X7Y685D01*
X379Y685D02*
X389Y685D01*
X726Y685D02*
X779Y685D01*
X1091Y685D02*
X1097Y685D01*
X1109Y685D02*
X1120Y685D01*
X1173Y685D02*
X1180Y685D01*
X0Y684D02*
X7Y684D01*
X379Y684D02*
X387Y684D01*
X726Y684D02*
X779Y684D01*
X1091Y684D02*
X1097Y684D01*
X1109Y684D02*
X1119Y684D01*
X1173Y684D02*
X1180Y684D01*
X0Y683D02*
X7Y683D01*
X726Y683D02*
X779Y683D01*
X1091Y683D02*
X1097Y683D01*
X1109Y683D02*
X1117Y683D01*
X1173Y683D02*
X1180Y683D01*
X0Y682D02*
X7Y682D01*
X726Y682D02*
X778Y682D01*
X1091Y682D02*
X1097Y682D01*
X1109Y682D02*
X1115Y682D01*
X1173Y682D02*
X1180Y682D01*
X0Y681D02*
X7Y681D01*
X1091Y681D02*
X1097Y681D01*
X1109Y681D02*
X1115Y681D01*
X1173Y681D02*
X1180Y681D01*
X0Y680D02*
X7Y680D01*
X1091Y680D02*
X1097Y680D01*
X1109Y680D02*
X1115Y680D01*
X1173Y680D02*
X1180Y680D01*
X0Y679D02*
X7Y679D01*
X1091Y679D02*
X1097Y679D01*
X1109Y679D02*
X1115Y679D01*
X1173Y679D02*
X1180Y679D01*
X0Y678D02*
X7Y678D01*
X1091Y678D02*
X1097Y678D01*
X1109Y678D02*
X1115Y678D01*
X1173Y678D02*
X1180Y678D01*
X0Y677D02*
X7Y677D01*
X1091Y677D02*
X1097Y677D01*
X1108Y677D02*
X1115Y677D01*
X1173Y677D02*
X1180Y677D01*
X0Y676D02*
X7Y676D01*
X1091Y676D02*
X1143Y676D01*
X1173Y676D02*
X1180Y676D01*
X0Y675D02*
X7Y675D01*
X1091Y675D02*
X1144Y675D01*
X1173Y675D02*
X1180Y675D01*
X0Y674D02*
X7Y674D01*
X1091Y674D02*
X1144Y674D01*
X1173Y674D02*
X1180Y674D01*
X0Y673D02*
X7Y673D01*
X1091Y673D02*
X1144Y673D01*
X1173Y673D02*
X1180Y673D01*
X0Y672D02*
X7Y672D01*
X1091Y672D02*
X1144Y672D01*
X1173Y672D02*
X1180Y672D01*
X0Y671D02*
X7Y671D01*
X1091Y671D02*
X1143Y671D01*
X1173Y671D02*
X1180Y671D01*
X0Y670D02*
X7Y670D01*
X1091Y670D02*
X1141Y670D01*
X1173Y670D02*
X1180Y670D01*
X0Y669D02*
X7Y669D01*
X1173Y669D02*
X1180Y669D01*
X0Y668D02*
X7Y668D01*
X381Y668D02*
X382Y668D01*
X428Y668D02*
X430Y668D01*
X1173Y668D02*
X1180Y668D01*
X0Y667D02*
X7Y667D01*
X379Y667D02*
X384Y667D01*
X427Y667D02*
X431Y667D01*
X1173Y667D02*
X1180Y667D01*
X0Y666D02*
X7Y666D01*
X379Y666D02*
X384Y666D01*
X426Y666D02*
X431Y666D01*
X1173Y666D02*
X1180Y666D01*
X0Y665D02*
X7Y665D01*
X379Y665D02*
X385Y665D01*
X426Y665D02*
X432Y665D01*
X728Y665D02*
X777Y665D01*
X1173Y665D02*
X1180Y665D01*
X0Y664D02*
X7Y664D01*
X379Y664D02*
X385Y664D01*
X426Y664D02*
X432Y664D01*
X727Y664D02*
X778Y664D01*
X1173Y664D02*
X1180Y664D01*
X0Y663D02*
X7Y663D01*
X379Y663D02*
X385Y663D01*
X426Y663D02*
X432Y663D01*
X726Y663D02*
X779Y663D01*
X1173Y663D02*
X1180Y663D01*
X0Y662D02*
X7Y662D01*
X379Y662D02*
X385Y662D01*
X426Y662D02*
X432Y662D01*
X726Y662D02*
X779Y662D01*
X1173Y662D02*
X1180Y662D01*
X0Y661D02*
X7Y661D01*
X379Y661D02*
X385Y661D01*
X426Y661D02*
X432Y661D01*
X726Y661D02*
X779Y661D01*
X1173Y661D02*
X1180Y661D01*
X0Y660D02*
X7Y660D01*
X379Y660D02*
X385Y660D01*
X426Y660D02*
X432Y660D01*
X727Y660D02*
X778Y660D01*
X1173Y660D02*
X1180Y660D01*
X0Y659D02*
X7Y659D01*
X379Y659D02*
X385Y659D01*
X426Y659D02*
X432Y659D01*
X728Y659D02*
X777Y659D01*
X1173Y659D02*
X1180Y659D01*
X0Y658D02*
X7Y658D01*
X379Y658D02*
X385Y658D01*
X426Y658D02*
X432Y658D01*
X749Y658D02*
X756Y658D01*
X1173Y658D02*
X1180Y658D01*
X0Y657D02*
X7Y657D01*
X379Y657D02*
X385Y657D01*
X426Y657D02*
X432Y657D01*
X749Y657D02*
X756Y657D01*
X1173Y657D02*
X1180Y657D01*
X0Y656D02*
X7Y656D01*
X379Y656D02*
X385Y656D01*
X426Y656D02*
X432Y656D01*
X749Y656D02*
X756Y656D01*
X1173Y656D02*
X1180Y656D01*
X0Y655D02*
X7Y655D01*
X379Y655D02*
X385Y655D01*
X426Y655D02*
X432Y655D01*
X749Y655D02*
X756Y655D01*
X1173Y655D02*
X1180Y655D01*
X0Y654D02*
X7Y654D01*
X379Y654D02*
X385Y654D01*
X426Y654D02*
X432Y654D01*
X749Y654D02*
X756Y654D01*
X1093Y654D02*
X1095Y654D01*
X1140Y654D02*
X1142Y654D01*
X1173Y654D02*
X1180Y654D01*
X0Y653D02*
X7Y653D01*
X379Y653D02*
X385Y653D01*
X426Y653D02*
X432Y653D01*
X749Y653D02*
X756Y653D01*
X1092Y653D02*
X1096Y653D01*
X1139Y653D02*
X1143Y653D01*
X1173Y653D02*
X1180Y653D01*
X0Y652D02*
X7Y652D01*
X379Y652D02*
X385Y652D01*
X426Y652D02*
X432Y652D01*
X749Y652D02*
X756Y652D01*
X1091Y652D02*
X1097Y652D01*
X1138Y652D02*
X1144Y652D01*
X1173Y652D02*
X1180Y652D01*
X0Y651D02*
X7Y651D01*
X379Y651D02*
X385Y651D01*
X426Y651D02*
X432Y651D01*
X749Y651D02*
X756Y651D01*
X1091Y651D02*
X1098Y651D01*
X1137Y651D02*
X1144Y651D01*
X1173Y651D02*
X1180Y651D01*
X0Y650D02*
X7Y650D01*
X379Y650D02*
X385Y650D01*
X425Y650D02*
X432Y650D01*
X749Y650D02*
X756Y650D01*
X1091Y650D02*
X1099Y650D01*
X1136Y650D02*
X1144Y650D01*
X1173Y650D02*
X1180Y650D01*
X0Y649D02*
X7Y649D01*
X379Y649D02*
X386Y649D01*
X424Y649D02*
X431Y649D01*
X749Y649D02*
X756Y649D01*
X1092Y649D02*
X1100Y649D01*
X1136Y649D02*
X1144Y649D01*
X1173Y649D02*
X1180Y649D01*
X0Y648D02*
X7Y648D01*
X379Y648D02*
X388Y648D01*
X422Y648D02*
X431Y648D01*
X749Y648D02*
X756Y648D01*
X1092Y648D02*
X1100Y648D01*
X1135Y648D02*
X1143Y648D01*
X1173Y648D02*
X1180Y648D01*
X0Y647D02*
X7Y647D01*
X380Y647D02*
X390Y647D01*
X420Y647D02*
X430Y647D01*
X749Y647D02*
X756Y647D01*
X1093Y647D02*
X1101Y647D01*
X1134Y647D02*
X1142Y647D01*
X1173Y647D02*
X1180Y647D01*
X0Y646D02*
X7Y646D01*
X380Y646D02*
X392Y646D01*
X418Y646D02*
X430Y646D01*
X749Y646D02*
X756Y646D01*
X1094Y646D02*
X1102Y646D01*
X1133Y646D02*
X1141Y646D01*
X1173Y646D02*
X1180Y646D01*
X0Y645D02*
X7Y645D01*
X381Y645D02*
X394Y645D01*
X416Y645D02*
X429Y645D01*
X749Y645D02*
X756Y645D01*
X1095Y645D02*
X1103Y645D01*
X1132Y645D02*
X1140Y645D01*
X1173Y645D02*
X1180Y645D01*
X0Y644D02*
X7Y644D01*
X382Y644D02*
X396Y644D01*
X414Y644D02*
X428Y644D01*
X749Y644D02*
X756Y644D01*
X1096Y644D02*
X1104Y644D01*
X1131Y644D02*
X1140Y644D01*
X1173Y644D02*
X1180Y644D01*
X0Y643D02*
X7Y643D01*
X383Y643D02*
X398Y643D01*
X412Y643D02*
X427Y643D01*
X749Y643D02*
X756Y643D01*
X1097Y643D02*
X1105Y643D01*
X1130Y643D02*
X1139Y643D01*
X1173Y643D02*
X1180Y643D01*
X0Y642D02*
X7Y642D01*
X385Y642D02*
X400Y642D01*
X410Y642D02*
X425Y642D01*
X749Y642D02*
X756Y642D01*
X1097Y642D02*
X1106Y642D01*
X1130Y642D02*
X1138Y642D01*
X1173Y642D02*
X1180Y642D01*
X0Y641D02*
X7Y641D01*
X387Y641D02*
X403Y641D01*
X408Y641D02*
X423Y641D01*
X749Y641D02*
X756Y641D01*
X1098Y641D02*
X1106Y641D01*
X1129Y641D02*
X1137Y641D01*
X1173Y641D02*
X1180Y641D01*
X0Y640D02*
X7Y640D01*
X389Y640D02*
X421Y640D01*
X749Y640D02*
X756Y640D01*
X1099Y640D02*
X1107Y640D01*
X1128Y640D02*
X1136Y640D01*
X1173Y640D02*
X1180Y640D01*
X0Y639D02*
X7Y639D01*
X391Y639D02*
X419Y639D01*
X749Y639D02*
X756Y639D01*
X1100Y639D02*
X1108Y639D01*
X1127Y639D02*
X1135Y639D01*
X1173Y639D02*
X1180Y639D01*
X0Y638D02*
X7Y638D01*
X393Y638D02*
X417Y638D01*
X729Y638D02*
X776Y638D01*
X1101Y638D02*
X1109Y638D01*
X1126Y638D02*
X1134Y638D01*
X1173Y638D02*
X1180Y638D01*
X0Y637D02*
X7Y637D01*
X395Y637D02*
X415Y637D01*
X727Y637D02*
X778Y637D01*
X1102Y637D02*
X1110Y637D01*
X1125Y637D02*
X1134Y637D01*
X1173Y637D02*
X1180Y637D01*
X0Y636D02*
X7Y636D01*
X397Y636D02*
X413Y636D01*
X726Y636D02*
X779Y636D01*
X1103Y636D02*
X1111Y636D01*
X1124Y636D02*
X1133Y636D01*
X1173Y636D02*
X1180Y636D01*
X0Y635D02*
X7Y635D01*
X400Y635D02*
X411Y635D01*
X726Y635D02*
X779Y635D01*
X1103Y635D02*
X1112Y635D01*
X1124Y635D02*
X1132Y635D01*
X1173Y635D02*
X1180Y635D01*
X0Y634D02*
X7Y634D01*
X403Y634D02*
X407Y634D01*
X726Y634D02*
X779Y634D01*
X1104Y634D02*
X1112Y634D01*
X1123Y634D02*
X1131Y634D01*
X1173Y634D02*
X1180Y634D01*
X0Y633D02*
X7Y633D01*
X726Y633D02*
X779Y633D01*
X1105Y633D02*
X1113Y633D01*
X1122Y633D02*
X1130Y633D01*
X1173Y633D02*
X1180Y633D01*
X0Y632D02*
X7Y632D01*
X727Y632D02*
X778Y632D01*
X1106Y632D02*
X1114Y632D01*
X1121Y632D02*
X1129Y632D01*
X1173Y632D02*
X1180Y632D01*
X0Y631D02*
X7Y631D01*
X730Y631D02*
X775Y631D01*
X1107Y631D02*
X1115Y631D01*
X1120Y631D02*
X1128Y631D01*
X1173Y631D02*
X1180Y631D01*
X0Y630D02*
X7Y630D01*
X1108Y630D02*
X1116Y630D01*
X1119Y630D02*
X1128Y630D01*
X1173Y630D02*
X1180Y630D01*
X0Y629D02*
X7Y629D01*
X94Y629D02*
X97Y629D01*
X1109Y629D02*
X1127Y629D01*
X1173Y629D02*
X1180Y629D01*
X0Y628D02*
X7Y628D01*
X93Y628D02*
X98Y628D01*
X1109Y628D02*
X1126Y628D01*
X1173Y628D02*
X1180Y628D01*
X0Y627D02*
X7Y627D01*
X93Y627D02*
X99Y627D01*
X1110Y627D02*
X1125Y627D01*
X1173Y627D02*
X1180Y627D01*
X0Y626D02*
X7Y626D01*
X93Y626D02*
X99Y626D01*
X1092Y626D02*
X1143Y626D01*
X1173Y626D02*
X1180Y626D01*
X0Y625D02*
X7Y625D01*
X93Y625D02*
X99Y625D01*
X1092Y625D02*
X1144Y625D01*
X1173Y625D02*
X1180Y625D01*
X0Y624D02*
X7Y624D01*
X93Y624D02*
X99Y624D01*
X1091Y624D02*
X1144Y624D01*
X1173Y624D02*
X1180Y624D01*
X0Y623D02*
X7Y623D01*
X93Y623D02*
X99Y623D01*
X1091Y623D02*
X1144Y623D01*
X1173Y623D02*
X1180Y623D01*
X0Y622D02*
X7Y622D01*
X93Y622D02*
X99Y622D01*
X112Y622D02*
X115Y622D01*
X1091Y622D02*
X1144Y622D01*
X1173Y622D02*
X1180Y622D01*
X0Y621D02*
X7Y621D01*
X93Y621D02*
X99Y621D01*
X111Y621D02*
X116Y621D01*
X1092Y621D02*
X1143Y621D01*
X1173Y621D02*
X1180Y621D01*
X0Y620D02*
X7Y620D01*
X93Y620D02*
X99Y620D01*
X110Y620D02*
X116Y620D01*
X1093Y620D02*
X1142Y620D01*
X1173Y620D02*
X1180Y620D01*
X0Y619D02*
X7Y619D01*
X93Y619D02*
X99Y619D01*
X110Y619D02*
X116Y619D01*
X1173Y619D02*
X1180Y619D01*
X0Y618D02*
X7Y618D01*
X93Y618D02*
X99Y618D01*
X110Y618D02*
X116Y618D01*
X384Y618D02*
X426Y618D01*
X1173Y618D02*
X1180Y618D01*
X0Y617D02*
X7Y617D01*
X93Y617D02*
X99Y617D01*
X110Y617D02*
X116Y617D01*
X382Y617D02*
X428Y617D01*
X1173Y617D02*
X1180Y617D01*
X0Y616D02*
X7Y616D01*
X93Y616D02*
X99Y616D01*
X110Y616D02*
X116Y616D01*
X381Y616D02*
X430Y616D01*
X1173Y616D02*
X1180Y616D01*
X0Y615D02*
X7Y615D01*
X93Y615D02*
X99Y615D01*
X110Y615D02*
X116Y615D01*
X380Y615D02*
X430Y615D01*
X750Y615D02*
X755Y615D01*
X1173Y615D02*
X1180Y615D01*
X0Y614D02*
X7Y614D01*
X93Y614D02*
X99Y614D01*
X110Y614D02*
X116Y614D01*
X379Y614D02*
X431Y614D01*
X747Y614D02*
X758Y614D01*
X1173Y614D02*
X1180Y614D01*
X0Y613D02*
X7Y613D01*
X93Y613D02*
X99Y613D01*
X110Y613D02*
X116Y613D01*
X379Y613D02*
X431Y613D01*
X745Y613D02*
X761Y613D01*
X1173Y613D02*
X1180Y613D01*
X0Y612D02*
X7Y612D01*
X93Y612D02*
X99Y612D01*
X110Y612D02*
X116Y612D01*
X379Y612D02*
X432Y612D01*
X743Y612D02*
X763Y612D01*
X1173Y612D02*
X1180Y612D01*
X0Y611D02*
X7Y611D01*
X93Y611D02*
X99Y611D01*
X110Y611D02*
X116Y611D01*
X379Y611D02*
X385Y611D01*
X425Y611D02*
X432Y611D01*
X741Y611D02*
X765Y611D01*
X1173Y611D02*
X1180Y611D01*
X0Y610D02*
X7Y610D01*
X93Y610D02*
X99Y610D01*
X110Y610D02*
X116Y610D01*
X379Y610D02*
X385Y610D01*
X426Y610D02*
X432Y610D01*
X739Y610D02*
X767Y610D01*
X1173Y610D02*
X1180Y610D01*
X0Y609D02*
X7Y609D01*
X93Y609D02*
X99Y609D01*
X110Y609D02*
X116Y609D01*
X379Y609D02*
X385Y609D01*
X426Y609D02*
X432Y609D01*
X737Y609D02*
X769Y609D01*
X1173Y609D02*
X1180Y609D01*
X0Y608D02*
X7Y608D01*
X93Y608D02*
X99Y608D01*
X110Y608D02*
X116Y608D01*
X379Y608D02*
X385Y608D01*
X426Y608D02*
X432Y608D01*
X735Y608D02*
X750Y608D01*
X755Y608D02*
X771Y608D01*
X1173Y608D02*
X1180Y608D01*
X0Y607D02*
X7Y607D01*
X93Y607D02*
X99Y607D01*
X110Y607D02*
X116Y607D01*
X379Y607D02*
X385Y607D01*
X426Y607D02*
X432Y607D01*
X733Y607D02*
X747Y607D01*
X758Y607D02*
X773Y607D01*
X1173Y607D02*
X1180Y607D01*
X0Y606D02*
X7Y606D01*
X93Y606D02*
X99Y606D01*
X110Y606D02*
X116Y606D01*
X379Y606D02*
X385Y606D01*
X426Y606D02*
X432Y606D01*
X731Y606D02*
X745Y606D01*
X760Y606D02*
X774Y606D01*
X1173Y606D02*
X1180Y606D01*
X0Y605D02*
X7Y605D01*
X93Y605D02*
X99Y605D01*
X110Y605D02*
X116Y605D01*
X379Y605D02*
X385Y605D01*
X426Y605D02*
X432Y605D01*
X729Y605D02*
X743Y605D01*
X762Y605D02*
X776Y605D01*
X1173Y605D02*
X1180Y605D01*
X0Y604D02*
X7Y604D01*
X93Y604D02*
X99Y604D01*
X110Y604D02*
X116Y604D01*
X379Y604D02*
X385Y604D01*
X426Y604D02*
X432Y604D01*
X728Y604D02*
X741Y604D01*
X764Y604D02*
X777Y604D01*
X1100Y604D02*
X1114Y604D01*
X1173Y604D02*
X1180Y604D01*
X0Y603D02*
X7Y603D01*
X93Y603D02*
X99Y603D01*
X110Y603D02*
X116Y603D01*
X379Y603D02*
X385Y603D01*
X426Y603D02*
X432Y603D01*
X727Y603D02*
X739Y603D01*
X766Y603D02*
X778Y603D01*
X1097Y603D02*
X1118Y603D01*
X1173Y603D02*
X1180Y603D01*
X0Y602D02*
X7Y602D01*
X93Y602D02*
X143Y602D01*
X379Y602D02*
X385Y602D01*
X426Y602D02*
X432Y602D01*
X727Y602D02*
X737Y602D01*
X768Y602D02*
X778Y602D01*
X1095Y602D02*
X1119Y602D01*
X1173Y602D02*
X1180Y602D01*
X0Y601D02*
X7Y601D01*
X93Y601D02*
X145Y601D01*
X379Y601D02*
X385Y601D01*
X426Y601D02*
X432Y601D01*
X726Y601D02*
X735Y601D01*
X770Y601D02*
X779Y601D01*
X1094Y601D02*
X1120Y601D01*
X1173Y601D02*
X1180Y601D01*
X0Y600D02*
X7Y600D01*
X93Y600D02*
X145Y600D01*
X379Y600D02*
X385Y600D01*
X426Y600D02*
X432Y600D01*
X726Y600D02*
X733Y600D01*
X772Y600D02*
X779Y600D01*
X1093Y600D02*
X1121Y600D01*
X1173Y600D02*
X1180Y600D01*
X0Y599D02*
X7Y599D01*
X93Y599D02*
X146Y599D01*
X379Y599D02*
X385Y599D01*
X426Y599D02*
X432Y599D01*
X726Y599D02*
X732Y599D01*
X773Y599D02*
X779Y599D01*
X1093Y599D02*
X1122Y599D01*
X1173Y599D02*
X1180Y599D01*
X0Y598D02*
X7Y598D01*
X93Y598D02*
X146Y598D01*
X379Y598D02*
X385Y598D01*
X426Y598D02*
X432Y598D01*
X726Y598D02*
X732Y598D01*
X773Y598D02*
X779Y598D01*
X1092Y598D02*
X1123Y598D01*
X1173Y598D02*
X1180Y598D01*
X0Y597D02*
X7Y597D01*
X93Y597D02*
X145Y597D01*
X379Y597D02*
X385Y597D01*
X426Y597D02*
X432Y597D01*
X726Y597D02*
X732Y597D01*
X773Y597D02*
X779Y597D01*
X1092Y597D02*
X1100Y597D01*
X1114Y597D02*
X1123Y597D01*
X1173Y597D02*
X1180Y597D01*
X0Y596D02*
X7Y596D01*
X93Y596D02*
X145Y596D01*
X379Y596D02*
X385Y596D01*
X426Y596D02*
X432Y596D01*
X726Y596D02*
X734Y596D01*
X771Y596D02*
X779Y596D01*
X1091Y596D02*
X1098Y596D01*
X1116Y596D02*
X1123Y596D01*
X1173Y596D02*
X1180Y596D01*
X0Y595D02*
X7Y595D01*
X379Y595D02*
X385Y595D01*
X426Y595D02*
X432Y595D01*
X727Y595D02*
X736Y595D01*
X770Y595D02*
X779Y595D01*
X1091Y595D02*
X1097Y595D01*
X1117Y595D02*
X1123Y595D01*
X1173Y595D02*
X1180Y595D01*
X0Y594D02*
X7Y594D01*
X379Y594D02*
X385Y594D01*
X426Y594D02*
X432Y594D01*
X727Y594D02*
X738Y594D01*
X768Y594D02*
X778Y594D01*
X1091Y594D02*
X1097Y594D01*
X1117Y594D02*
X1124Y594D01*
X1173Y594D02*
X1180Y594D01*
X0Y593D02*
X7Y593D01*
X379Y593D02*
X385Y593D01*
X426Y593D02*
X432Y593D01*
X728Y593D02*
X740Y593D01*
X766Y593D02*
X778Y593D01*
X1091Y593D02*
X1097Y593D01*
X1118Y593D02*
X1124Y593D01*
X1173Y593D02*
X1180Y593D01*
X0Y592D02*
X7Y592D01*
X379Y592D02*
X385Y592D01*
X426Y592D02*
X432Y592D01*
X728Y592D02*
X742Y592D01*
X764Y592D02*
X777Y592D01*
X1091Y592D02*
X1097Y592D01*
X1118Y592D02*
X1124Y592D01*
X1173Y592D02*
X1180Y592D01*
X0Y591D02*
X7Y591D01*
X379Y591D02*
X385Y591D01*
X426Y591D02*
X432Y591D01*
X729Y591D02*
X744Y591D01*
X762Y591D02*
X776Y591D01*
X1091Y591D02*
X1097Y591D01*
X1118Y591D02*
X1124Y591D01*
X1173Y591D02*
X1180Y591D01*
X0Y590D02*
X7Y590D01*
X379Y590D02*
X432Y590D01*
X731Y590D02*
X745Y590D01*
X760Y590D02*
X774Y590D01*
X1091Y590D02*
X1097Y590D01*
X1118Y590D02*
X1124Y590D01*
X1173Y590D02*
X1180Y590D01*
X0Y589D02*
X7Y589D01*
X379Y589D02*
X432Y589D01*
X733Y589D02*
X747Y589D01*
X758Y589D02*
X772Y589D01*
X1091Y589D02*
X1097Y589D01*
X1118Y589D02*
X1124Y589D01*
X1173Y589D02*
X1180Y589D01*
X0Y588D02*
X7Y588D01*
X379Y588D02*
X431Y588D01*
X735Y588D02*
X750Y588D01*
X755Y588D02*
X770Y588D01*
X1091Y588D02*
X1097Y588D01*
X1118Y588D02*
X1124Y588D01*
X1173Y588D02*
X1180Y588D01*
X0Y587D02*
X7Y587D01*
X380Y587D02*
X431Y587D01*
X737Y587D02*
X768Y587D01*
X1091Y587D02*
X1097Y587D01*
X1118Y587D02*
X1124Y587D01*
X1173Y587D02*
X1180Y587D01*
X0Y586D02*
X7Y586D01*
X380Y586D02*
X430Y586D01*
X739Y586D02*
X766Y586D01*
X1091Y586D02*
X1097Y586D01*
X1118Y586D02*
X1124Y586D01*
X1173Y586D02*
X1180Y586D01*
X0Y585D02*
X7Y585D01*
X381Y585D02*
X429Y585D01*
X741Y585D02*
X764Y585D01*
X1091Y585D02*
X1097Y585D01*
X1118Y585D02*
X1124Y585D01*
X1173Y585D02*
X1180Y585D01*
X0Y584D02*
X7Y584D01*
X383Y584D02*
X427Y584D01*
X743Y584D02*
X762Y584D01*
X1091Y584D02*
X1097Y584D01*
X1118Y584D02*
X1124Y584D01*
X1173Y584D02*
X1180Y584D01*
X0Y583D02*
X7Y583D01*
X745Y583D02*
X760Y583D01*
X1091Y583D02*
X1097Y583D01*
X1118Y583D02*
X1124Y583D01*
X1173Y583D02*
X1180Y583D01*
X0Y582D02*
X7Y582D01*
X747Y582D02*
X758Y582D01*
X1091Y582D02*
X1097Y582D01*
X1118Y582D02*
X1124Y582D01*
X1173Y582D02*
X1180Y582D01*
X0Y581D02*
X7Y581D01*
X751Y581D02*
X755Y581D01*
X1091Y581D02*
X1097Y581D01*
X1118Y581D02*
X1124Y581D01*
X1173Y581D02*
X1180Y581D01*
X0Y580D02*
X7Y580D01*
X1091Y580D02*
X1097Y580D01*
X1118Y580D02*
X1124Y580D01*
X1173Y580D02*
X1180Y580D01*
X0Y579D02*
X7Y579D01*
X109Y579D02*
X144Y579D01*
X1091Y579D02*
X1097Y579D01*
X1118Y579D02*
X1124Y579D01*
X1173Y579D02*
X1180Y579D01*
X0Y578D02*
X7Y578D01*
X108Y578D02*
X145Y578D01*
X1091Y578D02*
X1097Y578D01*
X1118Y578D02*
X1124Y578D01*
X1173Y578D02*
X1180Y578D01*
X0Y577D02*
X7Y577D01*
X108Y577D02*
X146Y577D01*
X1091Y577D02*
X1097Y577D01*
X1118Y577D02*
X1124Y577D01*
X1173Y577D02*
X1180Y577D01*
X0Y576D02*
X7Y576D01*
X107Y576D02*
X146Y576D01*
X1091Y576D02*
X1142Y576D01*
X1173Y576D02*
X1180Y576D01*
X0Y575D02*
X7Y575D01*
X108Y575D02*
X146Y575D01*
X1091Y575D02*
X1143Y575D01*
X1173Y575D02*
X1180Y575D01*
X0Y574D02*
X7Y574D01*
X108Y574D02*
X145Y574D01*
X1091Y574D02*
X1144Y574D01*
X1173Y574D02*
X1180Y574D01*
X0Y573D02*
X7Y573D01*
X109Y573D02*
X144Y573D01*
X1091Y573D02*
X1144Y573D01*
X1173Y573D02*
X1180Y573D01*
X0Y572D02*
X7Y572D01*
X133Y572D02*
X140Y572D01*
X1091Y572D02*
X1144Y572D01*
X1173Y572D02*
X1180Y572D01*
X0Y571D02*
X7Y571D01*
X134Y571D02*
X141Y571D01*
X1091Y571D02*
X1143Y571D01*
X1173Y571D02*
X1180Y571D01*
X0Y570D02*
X7Y570D01*
X134Y570D02*
X141Y570D01*
X1091Y570D02*
X1142Y570D01*
X1173Y570D02*
X1180Y570D01*
X0Y569D02*
X7Y569D01*
X135Y569D02*
X142Y569D01*
X1173Y569D02*
X1180Y569D01*
X0Y568D02*
X7Y568D01*
X135Y568D02*
X143Y568D01*
X1173Y568D02*
X1180Y568D01*
X0Y567D02*
X7Y567D01*
X136Y567D02*
X143Y567D01*
X382Y567D02*
X428Y567D01*
X1173Y567D02*
X1180Y567D01*
X0Y566D02*
X7Y566D01*
X137Y566D02*
X144Y566D01*
X381Y566D02*
X429Y566D01*
X1173Y566D02*
X1180Y566D01*
X0Y565D02*
X7Y565D01*
X137Y565D02*
X145Y565D01*
X380Y565D02*
X430Y565D01*
X1173Y565D02*
X1180Y565D01*
X0Y564D02*
X7Y564D01*
X138Y564D02*
X145Y564D01*
X379Y564D02*
X431Y564D01*
X1173Y564D02*
X1180Y564D01*
X0Y563D02*
X7Y563D01*
X139Y563D02*
X145Y563D01*
X379Y563D02*
X431Y563D01*
X1173Y563D02*
X1180Y563D01*
X0Y562D02*
X7Y562D01*
X139Y562D02*
X146Y562D01*
X379Y562D02*
X432Y562D01*
X1173Y562D02*
X1180Y562D01*
X0Y561D02*
X7Y561D01*
X140Y561D02*
X146Y561D01*
X379Y561D02*
X432Y561D01*
X1173Y561D02*
X1180Y561D01*
X0Y560D02*
X7Y560D01*
X140Y560D02*
X146Y560D01*
X379Y560D02*
X385Y560D01*
X426Y560D02*
X432Y560D01*
X1173Y560D02*
X1180Y560D01*
X0Y559D02*
X7Y559D01*
X140Y559D02*
X146Y559D01*
X379Y559D02*
X385Y559D01*
X426Y559D02*
X432Y559D01*
X1173Y559D02*
X1180Y559D01*
X0Y558D02*
X7Y558D01*
X140Y558D02*
X146Y558D01*
X379Y558D02*
X385Y558D01*
X426Y558D02*
X432Y558D01*
X1173Y558D02*
X1180Y558D01*
X0Y557D02*
X7Y557D01*
X140Y557D02*
X146Y557D01*
X379Y557D02*
X385Y557D01*
X426Y557D02*
X432Y557D01*
X1173Y557D02*
X1180Y557D01*
X0Y556D02*
X7Y556D01*
X140Y556D02*
X146Y556D01*
X379Y556D02*
X385Y556D01*
X426Y556D02*
X432Y556D01*
X1173Y556D02*
X1180Y556D01*
X0Y555D02*
X7Y555D01*
X140Y555D02*
X146Y555D01*
X379Y555D02*
X385Y555D01*
X426Y555D02*
X432Y555D01*
X1173Y555D02*
X1180Y555D01*
X0Y554D02*
X7Y554D01*
X139Y554D02*
X146Y554D01*
X379Y554D02*
X385Y554D01*
X426Y554D02*
X432Y554D01*
X1173Y554D02*
X1180Y554D01*
X0Y553D02*
X7Y553D01*
X137Y553D02*
X145Y553D01*
X379Y553D02*
X385Y553D01*
X426Y553D02*
X432Y553D01*
X1096Y553D02*
X1102Y553D01*
X1134Y553D02*
X1140Y553D01*
X1173Y553D02*
X1180Y553D01*
X0Y552D02*
X7Y552D01*
X114Y552D02*
X145Y552D01*
X379Y552D02*
X385Y552D01*
X426Y552D02*
X432Y552D01*
X1095Y552D02*
X1102Y552D01*
X1132Y552D02*
X1141Y552D01*
X1173Y552D02*
X1180Y552D01*
X0Y551D02*
X7Y551D01*
X109Y551D02*
X144Y551D01*
X379Y551D02*
X385Y551D01*
X426Y551D02*
X432Y551D01*
X1094Y551D02*
X1103Y551D01*
X1131Y551D02*
X1142Y551D01*
X1173Y551D02*
X1180Y551D01*
X0Y550D02*
X7Y550D01*
X108Y550D02*
X144Y550D01*
X379Y550D02*
X385Y550D01*
X426Y550D02*
X432Y550D01*
X1093Y550D02*
X1103Y550D01*
X1130Y550D02*
X1143Y550D01*
X1173Y550D02*
X1180Y550D01*
X0Y549D02*
X7Y549D01*
X107Y549D02*
X143Y549D01*
X379Y549D02*
X385Y549D01*
X426Y549D02*
X432Y549D01*
X1092Y549D02*
X1103Y549D01*
X1128Y549D02*
X1144Y549D01*
X1173Y549D02*
X1180Y549D01*
X0Y548D02*
X7Y548D01*
X107Y548D02*
X142Y548D01*
X379Y548D02*
X385Y548D01*
X426Y548D02*
X432Y548D01*
X1092Y548D02*
X1102Y548D01*
X1127Y548D02*
X1144Y548D01*
X1173Y548D02*
X1180Y548D01*
X0Y547D02*
X7Y547D01*
X108Y547D02*
X140Y547D01*
X379Y547D02*
X385Y547D01*
X426Y547D02*
X432Y547D01*
X1091Y547D02*
X1100Y547D01*
X1126Y547D02*
X1144Y547D01*
X1173Y547D02*
X1180Y547D01*
X0Y546D02*
X7Y546D01*
X108Y546D02*
X138Y546D01*
X379Y546D02*
X385Y546D01*
X426Y546D02*
X432Y546D01*
X1091Y546D02*
X1098Y546D01*
X1125Y546D02*
X1135Y546D01*
X1138Y546D02*
X1144Y546D01*
X1173Y546D02*
X1180Y546D01*
X0Y545D02*
X7Y545D01*
X111Y545D02*
X112Y545D01*
X379Y545D02*
X385Y545D01*
X426Y545D02*
X432Y545D01*
X1091Y545D02*
X1097Y545D01*
X1123Y545D02*
X1134Y545D01*
X1138Y545D02*
X1144Y545D01*
X1173Y545D02*
X1180Y545D01*
X0Y544D02*
X7Y544D01*
X379Y544D02*
X385Y544D01*
X426Y544D02*
X432Y544D01*
X1091Y544D02*
X1097Y544D01*
X1122Y544D02*
X1133Y544D01*
X1138Y544D02*
X1144Y544D01*
X1173Y544D02*
X1180Y544D01*
X0Y543D02*
X7Y543D01*
X379Y543D02*
X385Y543D01*
X426Y543D02*
X432Y543D01*
X1091Y543D02*
X1097Y543D01*
X1121Y543D02*
X1131Y543D01*
X1138Y543D02*
X1144Y543D01*
X1173Y543D02*
X1180Y543D01*
X0Y542D02*
X7Y542D01*
X379Y542D02*
X385Y542D01*
X426Y542D02*
X432Y542D01*
X1091Y542D02*
X1097Y542D01*
X1119Y542D02*
X1130Y542D01*
X1138Y542D02*
X1144Y542D01*
X1173Y542D02*
X1180Y542D01*
X0Y541D02*
X7Y541D01*
X379Y541D02*
X385Y541D01*
X426Y541D02*
X432Y541D01*
X1091Y541D02*
X1097Y541D01*
X1118Y541D02*
X1129Y541D01*
X1138Y541D02*
X1144Y541D01*
X1173Y541D02*
X1180Y541D01*
X0Y540D02*
X7Y540D01*
X379Y540D02*
X432Y540D01*
X1091Y540D02*
X1097Y540D01*
X1117Y540D02*
X1127Y540D01*
X1138Y540D02*
X1144Y540D01*
X1173Y540D02*
X1180Y540D01*
X0Y539D02*
X7Y539D01*
X379Y539D02*
X432Y539D01*
X1091Y539D02*
X1097Y539D01*
X1116Y539D02*
X1126Y539D01*
X1138Y539D02*
X1144Y539D01*
X1173Y539D02*
X1180Y539D01*
X0Y538D02*
X7Y538D01*
X379Y538D02*
X431Y538D01*
X1091Y538D02*
X1097Y538D01*
X1114Y538D02*
X1125Y538D01*
X1138Y538D02*
X1144Y538D01*
X1173Y538D02*
X1180Y538D01*
X0Y537D02*
X7Y537D01*
X379Y537D02*
X431Y537D01*
X1091Y537D02*
X1097Y537D01*
X1113Y537D02*
X1124Y537D01*
X1138Y537D02*
X1144Y537D01*
X1173Y537D02*
X1180Y537D01*
X0Y536D02*
X7Y536D01*
X380Y536D02*
X430Y536D01*
X1091Y536D02*
X1097Y536D01*
X1112Y536D02*
X1122Y536D01*
X1138Y536D02*
X1144Y536D01*
X1173Y536D02*
X1180Y536D01*
X0Y535D02*
X7Y535D01*
X381Y535D02*
X429Y535D01*
X1091Y535D02*
X1097Y535D01*
X1110Y535D02*
X1121Y535D01*
X1138Y535D02*
X1144Y535D01*
X1173Y535D02*
X1180Y535D01*
X0Y534D02*
X7Y534D01*
X383Y534D02*
X428Y534D01*
X1091Y534D02*
X1097Y534D01*
X1109Y534D02*
X1120Y534D01*
X1138Y534D02*
X1144Y534D01*
X1173Y534D02*
X1180Y534D01*
X0Y533D02*
X7Y533D01*
X1091Y533D02*
X1097Y533D01*
X1108Y533D02*
X1118Y533D01*
X1138Y533D02*
X1144Y533D01*
X1173Y533D02*
X1180Y533D01*
X0Y532D02*
X7Y532D01*
X1091Y532D02*
X1097Y532D01*
X1107Y532D02*
X1117Y532D01*
X1138Y532D02*
X1144Y532D01*
X1173Y532D02*
X1180Y532D01*
X0Y531D02*
X7Y531D01*
X1091Y531D02*
X1097Y531D01*
X1105Y531D02*
X1116Y531D01*
X1138Y531D02*
X1144Y531D01*
X1173Y531D02*
X1180Y531D01*
X0Y530D02*
X7Y530D01*
X1091Y530D02*
X1097Y530D01*
X1104Y530D02*
X1115Y530D01*
X1138Y530D02*
X1144Y530D01*
X1173Y530D02*
X1180Y530D01*
X0Y529D02*
X7Y529D01*
X124Y529D02*
X144Y529D01*
X1091Y529D02*
X1097Y529D01*
X1103Y529D02*
X1113Y529D01*
X1138Y529D02*
X1144Y529D01*
X1173Y529D02*
X1180Y529D01*
X0Y528D02*
X7Y528D01*
X123Y528D02*
X145Y528D01*
X1091Y528D02*
X1097Y528D01*
X1101Y528D02*
X1112Y528D01*
X1138Y528D02*
X1144Y528D01*
X1173Y528D02*
X1180Y528D01*
X0Y527D02*
X7Y527D01*
X122Y527D02*
X146Y527D01*
X1091Y527D02*
X1097Y527D01*
X1100Y527D02*
X1111Y527D01*
X1137Y527D02*
X1144Y527D01*
X1173Y527D02*
X1180Y527D01*
X0Y526D02*
X7Y526D01*
X122Y526D02*
X146Y526D01*
X1091Y526D02*
X1109Y526D01*
X1134Y526D02*
X1144Y526D01*
X1173Y526D02*
X1180Y526D01*
X0Y525D02*
X7Y525D01*
X122Y525D02*
X146Y525D01*
X1091Y525D02*
X1108Y525D01*
X1133Y525D02*
X1143Y525D01*
X1173Y525D02*
X1180Y525D01*
X0Y524D02*
X7Y524D01*
X123Y524D02*
X146Y524D01*
X1092Y524D02*
X1107Y524D01*
X1133Y524D02*
X1143Y524D01*
X1173Y524D02*
X1180Y524D01*
X0Y523D02*
X7Y523D01*
X124Y523D02*
X146Y523D01*
X1092Y523D02*
X1105Y523D01*
X1132Y523D02*
X1142Y523D01*
X1173Y523D02*
X1180Y523D01*
X0Y522D02*
X7Y522D01*
X140Y522D02*
X146Y522D01*
X1093Y522D02*
X1104Y522D01*
X1132Y522D02*
X1141Y522D01*
X1173Y522D02*
X1180Y522D01*
X0Y521D02*
X7Y521D01*
X140Y521D02*
X146Y521D01*
X1094Y521D02*
X1103Y521D01*
X1133Y521D02*
X1140Y521D01*
X1173Y521D02*
X1180Y521D01*
X0Y520D02*
X7Y520D01*
X140Y520D02*
X146Y520D01*
X1096Y520D02*
X1101Y520D01*
X1134Y520D02*
X1138Y520D01*
X1173Y520D02*
X1180Y520D01*
X0Y519D02*
X7Y519D01*
X140Y519D02*
X146Y519D01*
X1173Y519D02*
X1180Y519D01*
X0Y518D02*
X7Y518D01*
X140Y518D02*
X146Y518D01*
X1173Y518D02*
X1180Y518D01*
X0Y517D02*
X7Y517D01*
X140Y517D02*
X146Y517D01*
X380Y517D02*
X430Y517D01*
X1173Y517D02*
X1180Y517D01*
X0Y516D02*
X7Y516D01*
X140Y516D02*
X146Y516D01*
X379Y516D02*
X431Y516D01*
X1173Y516D02*
X1180Y516D01*
X0Y515D02*
X7Y515D01*
X93Y515D02*
X146Y515D01*
X379Y515D02*
X432Y515D01*
X1173Y515D02*
X1180Y515D01*
X0Y514D02*
X7Y514D01*
X93Y514D02*
X146Y514D01*
X379Y514D02*
X432Y514D01*
X753Y514D02*
X776Y514D01*
X1173Y514D02*
X1180Y514D01*
X0Y513D02*
X7Y513D01*
X93Y513D02*
X146Y513D01*
X379Y513D02*
X432Y513D01*
X752Y513D02*
X777Y513D01*
X1173Y513D02*
X1180Y513D01*
X0Y512D02*
X7Y512D01*
X93Y512D02*
X146Y512D01*
X379Y512D02*
X432Y512D01*
X751Y512D02*
X778Y512D01*
X1173Y512D02*
X1180Y512D01*
X0Y511D02*
X7Y511D01*
X93Y511D02*
X146Y511D01*
X379Y511D02*
X432Y511D01*
X750Y511D02*
X778Y511D01*
X1173Y511D02*
X1180Y511D01*
X0Y510D02*
X7Y510D01*
X93Y510D02*
X146Y510D01*
X379Y510D02*
X385Y510D01*
X396Y510D02*
X402Y510D01*
X426Y510D02*
X432Y510D01*
X750Y510D02*
X779Y510D01*
X1173Y510D02*
X1180Y510D01*
X0Y509D02*
X7Y509D01*
X93Y509D02*
X146Y509D01*
X379Y509D02*
X385Y509D01*
X396Y509D02*
X402Y509D01*
X426Y509D02*
X431Y509D01*
X750Y509D02*
X779Y509D01*
X1173Y509D02*
X1180Y509D01*
X0Y508D02*
X7Y508D01*
X93Y508D02*
X99Y508D01*
X140Y508D02*
X146Y508D01*
X379Y508D02*
X385Y508D01*
X396Y508D02*
X402Y508D01*
X427Y508D02*
X430Y508D01*
X749Y508D02*
X779Y508D01*
X1173Y508D02*
X1180Y508D01*
X0Y507D02*
X7Y507D01*
X93Y507D02*
X99Y507D01*
X140Y507D02*
X146Y507D01*
X379Y507D02*
X385Y507D01*
X396Y507D02*
X402Y507D01*
X727Y507D02*
X756Y507D01*
X773Y507D02*
X779Y507D01*
X1173Y507D02*
X1180Y507D01*
X0Y506D02*
X7Y506D01*
X93Y506D02*
X99Y506D01*
X140Y506D02*
X146Y506D01*
X379Y506D02*
X385Y506D01*
X396Y506D02*
X402Y506D01*
X726Y506D02*
X756Y506D01*
X773Y506D02*
X779Y506D01*
X1173Y506D02*
X1180Y506D01*
X0Y505D02*
X7Y505D01*
X93Y505D02*
X99Y505D01*
X140Y505D02*
X146Y505D01*
X379Y505D02*
X385Y505D01*
X396Y505D02*
X402Y505D01*
X726Y505D02*
X756Y505D01*
X773Y505D02*
X779Y505D01*
X1173Y505D02*
X1180Y505D01*
X0Y504D02*
X7Y504D01*
X93Y504D02*
X99Y504D01*
X140Y504D02*
X146Y504D01*
X379Y504D02*
X385Y504D01*
X396Y504D02*
X402Y504D01*
X726Y504D02*
X756Y504D01*
X773Y504D02*
X779Y504D01*
X1173Y504D02*
X1180Y504D01*
X0Y503D02*
X7Y503D01*
X93Y503D02*
X99Y503D01*
X140Y503D02*
X146Y503D01*
X379Y503D02*
X385Y503D01*
X396Y503D02*
X402Y503D01*
X726Y503D02*
X756Y503D01*
X773Y503D02*
X779Y503D01*
X1173Y503D02*
X1180Y503D01*
X0Y502D02*
X7Y502D01*
X93Y502D02*
X99Y502D01*
X140Y502D02*
X146Y502D01*
X379Y502D02*
X385Y502D01*
X396Y502D02*
X402Y502D01*
X726Y502D02*
X756Y502D01*
X773Y502D02*
X779Y502D01*
X1173Y502D02*
X1180Y502D01*
X0Y501D02*
X7Y501D01*
X93Y501D02*
X99Y501D01*
X140Y501D02*
X146Y501D01*
X379Y501D02*
X385Y501D01*
X396Y501D02*
X402Y501D01*
X726Y501D02*
X732Y501D01*
X749Y501D02*
X756Y501D01*
X773Y501D02*
X779Y501D01*
X1173Y501D02*
X1180Y501D01*
X0Y500D02*
X7Y500D01*
X93Y500D02*
X99Y500D01*
X140Y500D02*
X146Y500D01*
X379Y500D02*
X385Y500D01*
X396Y500D02*
X402Y500D01*
X726Y500D02*
X732Y500D01*
X749Y500D02*
X756Y500D01*
X773Y500D02*
X779Y500D01*
X1173Y500D02*
X1180Y500D01*
X0Y499D02*
X7Y499D01*
X93Y499D02*
X99Y499D01*
X140Y499D02*
X146Y499D01*
X379Y499D02*
X385Y499D01*
X396Y499D02*
X402Y499D01*
X726Y499D02*
X732Y499D01*
X749Y499D02*
X756Y499D01*
X773Y499D02*
X779Y499D01*
X1173Y499D02*
X1180Y499D01*
X0Y498D02*
X7Y498D01*
X93Y498D02*
X99Y498D01*
X140Y498D02*
X146Y498D01*
X379Y498D02*
X385Y498D01*
X396Y498D02*
X402Y498D01*
X726Y498D02*
X732Y498D01*
X749Y498D02*
X756Y498D01*
X773Y498D02*
X779Y498D01*
X1173Y498D02*
X1180Y498D01*
X0Y497D02*
X7Y497D01*
X93Y497D02*
X98Y497D01*
X140Y497D02*
X146Y497D01*
X379Y497D02*
X385Y497D01*
X396Y497D02*
X402Y497D01*
X726Y497D02*
X732Y497D01*
X749Y497D02*
X756Y497D01*
X773Y497D02*
X779Y497D01*
X1173Y497D02*
X1180Y497D01*
X0Y496D02*
X7Y496D01*
X94Y496D02*
X98Y496D01*
X141Y496D02*
X145Y496D01*
X379Y496D02*
X385Y496D01*
X396Y496D02*
X402Y496D01*
X726Y496D02*
X732Y496D01*
X749Y496D02*
X756Y496D01*
X773Y496D02*
X779Y496D01*
X1173Y496D02*
X1180Y496D01*
X0Y495D02*
X7Y495D01*
X95Y495D02*
X96Y495D01*
X142Y495D02*
X144Y495D01*
X379Y495D02*
X385Y495D01*
X396Y495D02*
X402Y495D01*
X726Y495D02*
X732Y495D01*
X749Y495D02*
X756Y495D01*
X773Y495D02*
X779Y495D01*
X1173Y495D02*
X1180Y495D01*
X0Y494D02*
X7Y494D01*
X379Y494D02*
X385Y494D01*
X396Y494D02*
X402Y494D01*
X726Y494D02*
X756Y494D01*
X773Y494D02*
X779Y494D01*
X1173Y494D02*
X1180Y494D01*
X0Y493D02*
X7Y493D01*
X379Y493D02*
X385Y493D01*
X396Y493D02*
X402Y493D01*
X726Y493D02*
X756Y493D01*
X773Y493D02*
X779Y493D01*
X1173Y493D02*
X1180Y493D01*
X0Y492D02*
X7Y492D01*
X379Y492D02*
X385Y492D01*
X396Y492D02*
X402Y492D01*
X726Y492D02*
X756Y492D01*
X773Y492D02*
X779Y492D01*
X1173Y492D02*
X1180Y492D01*
X0Y491D02*
X7Y491D01*
X379Y491D02*
X385Y491D01*
X396Y491D02*
X402Y491D01*
X726Y491D02*
X756Y491D01*
X773Y491D02*
X779Y491D01*
X1173Y491D02*
X1180Y491D01*
X0Y490D02*
X7Y490D01*
X379Y490D02*
X402Y490D01*
X726Y490D02*
X756Y490D01*
X773Y490D02*
X779Y490D01*
X1173Y490D02*
X1180Y490D01*
X0Y489D02*
X7Y489D01*
X379Y489D02*
X402Y489D01*
X726Y489D02*
X756Y489D01*
X773Y489D02*
X779Y489D01*
X1173Y489D02*
X1180Y489D01*
X0Y488D02*
X7Y488D01*
X379Y488D02*
X402Y488D01*
X727Y488D02*
X756Y488D01*
X773Y488D02*
X779Y488D01*
X1173Y488D02*
X1180Y488D01*
X0Y487D02*
X7Y487D01*
X379Y487D02*
X402Y487D01*
X749Y487D02*
X779Y487D01*
X1173Y487D02*
X1180Y487D01*
X0Y486D02*
X7Y486D01*
X379Y486D02*
X402Y486D01*
X750Y486D02*
X779Y486D01*
X1173Y486D02*
X1180Y486D01*
X0Y485D02*
X7Y485D01*
X379Y485D02*
X402Y485D01*
X750Y485D02*
X779Y485D01*
X1173Y485D02*
X1180Y485D01*
X0Y484D02*
X7Y484D01*
X380Y484D02*
X401Y484D01*
X750Y484D02*
X778Y484D01*
X1173Y484D02*
X1180Y484D01*
X0Y483D02*
X7Y483D01*
X751Y483D02*
X778Y483D01*
X1173Y483D02*
X1180Y483D01*
X0Y482D02*
X7Y482D01*
X752Y482D02*
X777Y482D01*
X1173Y482D02*
X1180Y482D01*
X0Y481D02*
X7Y481D01*
X754Y481D02*
X775Y481D01*
X1173Y481D02*
X1180Y481D01*
X0Y480D02*
X7Y480D01*
X169Y480D02*
X169Y480D01*
X1173Y480D02*
X1180Y480D01*
X0Y479D02*
X7Y479D01*
X169Y479D02*
X170Y479D01*
X222Y479D02*
X223Y479D01*
X1173Y479D02*
X1180Y479D01*
X0Y478D02*
X7Y478D01*
X168Y478D02*
X171Y478D01*
X220Y478D02*
X224Y478D01*
X1173Y478D02*
X1180Y478D01*
X0Y477D02*
X7Y477D01*
X167Y477D02*
X173Y477D01*
X219Y477D02*
X224Y477D01*
X1173Y477D02*
X1180Y477D01*
X0Y476D02*
X7Y476D01*
X167Y476D02*
X174Y476D01*
X218Y476D02*
X225Y476D01*
X1173Y476D02*
X1180Y476D01*
X0Y475D02*
X7Y475D01*
X166Y475D02*
X175Y475D01*
X217Y475D02*
X226Y475D01*
X1173Y475D02*
X1180Y475D01*
X0Y474D02*
X7Y474D01*
X166Y474D02*
X174Y474D01*
X218Y474D02*
X226Y474D01*
X1173Y474D02*
X1180Y474D01*
X0Y473D02*
X7Y473D01*
X165Y473D02*
X173Y473D01*
X219Y473D02*
X227Y473D01*
X1173Y473D02*
X1180Y473D01*
X0Y472D02*
X7Y472D01*
X165Y472D02*
X173Y472D01*
X219Y472D02*
X227Y472D01*
X1173Y472D02*
X1180Y472D01*
X0Y471D02*
X7Y471D01*
X164Y471D02*
X172Y471D01*
X220Y471D02*
X227Y471D01*
X1173Y471D02*
X1180Y471D01*
X0Y470D02*
X7Y470D01*
X164Y470D02*
X172Y470D01*
X220Y470D02*
X228Y470D01*
X1173Y470D02*
X1180Y470D01*
X0Y469D02*
X7Y469D01*
X164Y469D02*
X171Y469D01*
X221Y469D02*
X228Y469D01*
X1173Y469D02*
X1180Y469D01*
X0Y468D02*
X7Y468D01*
X126Y468D02*
X136Y468D01*
X164Y468D02*
X171Y468D01*
X221Y468D02*
X228Y468D01*
X1173Y468D02*
X1180Y468D01*
X0Y467D02*
X7Y467D01*
X126Y467D02*
X136Y467D01*
X163Y467D02*
X170Y467D01*
X221Y467D02*
X228Y467D01*
X1173Y467D02*
X1180Y467D01*
X0Y466D02*
X7Y466D01*
X125Y466D02*
X137Y466D01*
X163Y466D02*
X170Y466D01*
X222Y466D02*
X229Y466D01*
X1173Y466D02*
X1180Y466D01*
X0Y465D02*
X7Y465D01*
X125Y465D02*
X137Y465D01*
X163Y465D02*
X170Y465D01*
X222Y465D02*
X229Y465D01*
X1173Y465D02*
X1180Y465D01*
X0Y464D02*
X7Y464D01*
X125Y464D02*
X137Y464D01*
X163Y464D02*
X170Y464D01*
X222Y464D02*
X229Y464D01*
X1173Y464D02*
X1180Y464D01*
X0Y463D02*
X7Y463D01*
X125Y463D02*
X137Y463D01*
X163Y463D02*
X169Y463D01*
X222Y463D02*
X229Y463D01*
X1173Y463D02*
X1180Y463D01*
X0Y462D02*
X7Y462D01*
X125Y462D02*
X137Y462D01*
X163Y462D02*
X169Y462D01*
X222Y462D02*
X229Y462D01*
X1173Y462D02*
X1180Y462D01*
X0Y461D02*
X7Y461D01*
X125Y461D02*
X137Y461D01*
X163Y461D02*
X169Y461D01*
X223Y461D02*
X229Y461D01*
X1173Y461D02*
X1180Y461D01*
X0Y460D02*
X7Y460D01*
X125Y460D02*
X137Y460D01*
X163Y460D02*
X169Y460D01*
X223Y460D02*
X229Y460D01*
X1173Y460D02*
X1180Y460D01*
X0Y459D02*
X7Y459D01*
X125Y459D02*
X137Y459D01*
X163Y459D02*
X169Y459D01*
X223Y459D02*
X229Y459D01*
X1173Y459D02*
X1180Y459D01*
X0Y458D02*
X7Y458D01*
X125Y458D02*
X137Y458D01*
X163Y458D02*
X169Y458D01*
X222Y458D02*
X229Y458D01*
X1173Y458D02*
X1180Y458D01*
X0Y457D02*
X7Y457D01*
X125Y457D02*
X137Y457D01*
X163Y457D02*
X169Y457D01*
X222Y457D02*
X229Y457D01*
X1173Y457D02*
X1180Y457D01*
X0Y456D02*
X7Y456D01*
X126Y456D02*
X136Y456D01*
X163Y456D02*
X170Y456D01*
X222Y456D02*
X229Y456D01*
X1173Y456D02*
X1180Y456D01*
X0Y455D02*
X7Y455D01*
X128Y455D02*
X134Y455D01*
X163Y455D02*
X170Y455D01*
X222Y455D02*
X229Y455D01*
X1173Y455D02*
X1180Y455D01*
X0Y454D02*
X7Y454D01*
X163Y454D02*
X170Y454D01*
X222Y454D02*
X229Y454D01*
X1173Y454D02*
X1180Y454D01*
X0Y453D02*
X7Y453D01*
X163Y453D02*
X170Y453D01*
X222Y453D02*
X228Y453D01*
X1173Y453D02*
X1180Y453D01*
X0Y452D02*
X7Y452D01*
X164Y452D02*
X171Y452D01*
X221Y452D02*
X228Y452D01*
X1117Y452D02*
X1123Y452D01*
X1173Y452D02*
X1180Y452D01*
X0Y451D02*
X7Y451D01*
X164Y451D02*
X171Y451D01*
X221Y451D02*
X228Y451D01*
X1116Y451D02*
X1124Y451D01*
X1173Y451D02*
X1180Y451D01*
X0Y450D02*
X7Y450D01*
X164Y450D02*
X171Y450D01*
X220Y450D02*
X228Y450D01*
X1116Y450D02*
X1125Y450D01*
X1173Y450D02*
X1180Y450D01*
X0Y449D02*
X7Y449D01*
X164Y449D02*
X172Y449D01*
X220Y449D02*
X227Y449D01*
X1116Y449D02*
X1125Y449D01*
X1173Y449D02*
X1180Y449D01*
X0Y448D02*
X7Y448D01*
X165Y448D02*
X172Y448D01*
X219Y448D02*
X227Y448D01*
X1116Y448D02*
X1125Y448D01*
X1173Y448D02*
X1180Y448D01*
X0Y447D02*
X7Y447D01*
X165Y447D02*
X173Y447D01*
X219Y447D02*
X227Y447D01*
X1116Y447D02*
X1125Y447D01*
X1173Y447D02*
X1180Y447D01*
X0Y446D02*
X7Y446D01*
X166Y446D02*
X174Y446D01*
X218Y446D02*
X226Y446D01*
X1116Y446D02*
X1125Y446D01*
X1173Y446D02*
X1180Y446D01*
X0Y445D02*
X7Y445D01*
X166Y445D02*
X174Y445D01*
X218Y445D02*
X226Y445D01*
X1116Y445D02*
X1125Y445D01*
X1173Y445D02*
X1180Y445D01*
X0Y444D02*
X7Y444D01*
X166Y444D02*
X175Y444D01*
X217Y444D02*
X225Y444D01*
X1116Y444D02*
X1125Y444D01*
X1173Y444D02*
X1180Y444D01*
X0Y443D02*
X7Y443D01*
X167Y443D02*
X174Y443D01*
X218Y443D02*
X225Y443D01*
X1116Y443D02*
X1125Y443D01*
X1173Y443D02*
X1180Y443D01*
X0Y442D02*
X7Y442D01*
X168Y442D02*
X172Y442D01*
X220Y442D02*
X224Y442D01*
X1116Y442D02*
X1125Y442D01*
X1173Y442D02*
X1180Y442D01*
X0Y441D02*
X7Y441D01*
X168Y441D02*
X171Y441D01*
X221Y441D02*
X223Y441D01*
X1116Y441D02*
X1125Y441D01*
X1173Y441D02*
X1180Y441D01*
X0Y440D02*
X7Y440D01*
X169Y440D02*
X169Y440D01*
X222Y440D02*
X223Y440D01*
X1116Y440D02*
X1125Y440D01*
X1173Y440D02*
X1180Y440D01*
X0Y439D02*
X7Y439D01*
X1116Y439D02*
X1125Y439D01*
X1173Y439D02*
X1180Y439D01*
X0Y438D02*
X7Y438D01*
X1116Y438D02*
X1125Y438D01*
X1173Y438D02*
X1180Y438D01*
X0Y437D02*
X7Y437D01*
X1116Y437D02*
X1125Y437D01*
X1173Y437D02*
X1180Y437D01*
X0Y436D02*
X7Y436D01*
X1116Y436D02*
X1125Y436D01*
X1173Y436D02*
X1180Y436D01*
X0Y435D02*
X7Y435D01*
X1116Y435D02*
X1125Y435D01*
X1173Y435D02*
X1180Y435D01*
X0Y434D02*
X7Y434D01*
X1116Y434D02*
X1125Y434D01*
X1173Y434D02*
X1180Y434D01*
X0Y433D02*
X7Y433D01*
X1116Y433D02*
X1125Y433D01*
X1173Y433D02*
X1180Y433D01*
X0Y432D02*
X7Y432D01*
X1116Y432D02*
X1125Y432D01*
X1173Y432D02*
X1180Y432D01*
X0Y431D02*
X7Y431D01*
X1116Y431D02*
X1125Y431D01*
X1173Y431D02*
X1180Y431D01*
X0Y430D02*
X7Y430D01*
X1116Y430D02*
X1125Y430D01*
X1173Y430D02*
X1180Y430D01*
X0Y429D02*
X7Y429D01*
X1116Y429D02*
X1125Y429D01*
X1173Y429D02*
X1180Y429D01*
X0Y428D02*
X7Y428D01*
X96Y428D02*
X142Y428D01*
X1116Y428D02*
X1125Y428D01*
X1173Y428D02*
X1180Y428D01*
X0Y427D02*
X7Y427D01*
X95Y427D02*
X144Y427D01*
X1116Y427D02*
X1125Y427D01*
X1173Y427D02*
X1180Y427D01*
X0Y426D02*
X7Y426D01*
X94Y426D02*
X144Y426D01*
X1116Y426D02*
X1125Y426D01*
X1173Y426D02*
X1180Y426D01*
X0Y425D02*
X7Y425D01*
X93Y425D02*
X145Y425D01*
X1116Y425D02*
X1125Y425D01*
X1173Y425D02*
X1180Y425D01*
X0Y424D02*
X7Y424D01*
X93Y424D02*
X145Y424D01*
X1116Y424D02*
X1125Y424D01*
X1173Y424D02*
X1180Y424D01*
X0Y423D02*
X7Y423D01*
X93Y423D02*
X146Y423D01*
X1116Y423D02*
X1125Y423D01*
X1173Y423D02*
X1180Y423D01*
X0Y422D02*
X7Y422D01*
X93Y422D02*
X146Y422D01*
X1116Y422D02*
X1125Y422D01*
X1173Y422D02*
X1180Y422D01*
X0Y421D02*
X7Y421D01*
X93Y421D02*
X99Y421D01*
X140Y421D02*
X146Y421D01*
X1116Y421D02*
X1125Y421D01*
X1173Y421D02*
X1180Y421D01*
X0Y420D02*
X7Y420D01*
X93Y420D02*
X99Y420D01*
X140Y420D02*
X146Y420D01*
X1116Y420D02*
X1124Y420D01*
X1173Y420D02*
X1180Y420D01*
X0Y419D02*
X7Y419D01*
X93Y419D02*
X99Y419D01*
X140Y419D02*
X146Y419D01*
X1117Y419D02*
X1123Y419D01*
X1173Y419D02*
X1180Y419D01*
X0Y418D02*
X7Y418D01*
X93Y418D02*
X99Y418D01*
X140Y418D02*
X146Y418D01*
X1173Y418D02*
X1180Y418D01*
X0Y417D02*
X7Y417D01*
X93Y417D02*
X99Y417D01*
X140Y417D02*
X146Y417D01*
X1173Y417D02*
X1180Y417D01*
X0Y416D02*
X7Y416D01*
X93Y416D02*
X99Y416D01*
X140Y416D02*
X146Y416D01*
X1173Y416D02*
X1180Y416D01*
X0Y415D02*
X7Y415D01*
X93Y415D02*
X99Y415D01*
X140Y415D02*
X146Y415D01*
X1173Y415D02*
X1180Y415D01*
X0Y414D02*
X7Y414D01*
X93Y414D02*
X99Y414D01*
X140Y414D02*
X146Y414D01*
X1173Y414D02*
X1180Y414D01*
X0Y413D02*
X7Y413D01*
X93Y413D02*
X99Y413D01*
X140Y413D02*
X146Y413D01*
X1173Y413D02*
X1180Y413D01*
X0Y412D02*
X7Y412D01*
X93Y412D02*
X99Y412D01*
X140Y412D02*
X146Y412D01*
X1173Y412D02*
X1180Y412D01*
X0Y411D02*
X7Y411D01*
X93Y411D02*
X99Y411D01*
X140Y411D02*
X146Y411D01*
X1173Y411D02*
X1180Y411D01*
X0Y410D02*
X7Y410D01*
X93Y410D02*
X99Y410D01*
X140Y410D02*
X146Y410D01*
X1173Y410D02*
X1180Y410D01*
X0Y409D02*
X7Y409D01*
X93Y409D02*
X99Y409D01*
X140Y409D02*
X146Y409D01*
X1173Y409D02*
X1180Y409D01*
X0Y408D02*
X7Y408D01*
X93Y408D02*
X99Y408D01*
X140Y408D02*
X146Y408D01*
X1173Y408D02*
X1180Y408D01*
X0Y407D02*
X7Y407D01*
X93Y407D02*
X99Y407D01*
X140Y407D02*
X146Y407D01*
X1173Y407D02*
X1180Y407D01*
X0Y406D02*
X7Y406D01*
X93Y406D02*
X99Y406D01*
X140Y406D02*
X146Y406D01*
X1173Y406D02*
X1180Y406D01*
X0Y405D02*
X7Y405D01*
X93Y405D02*
X99Y405D01*
X140Y405D02*
X146Y405D01*
X1173Y405D02*
X1180Y405D01*
X0Y404D02*
X7Y404D01*
X93Y404D02*
X99Y404D01*
X140Y404D02*
X146Y404D01*
X1173Y404D02*
X1180Y404D01*
X0Y403D02*
X7Y403D01*
X93Y403D02*
X99Y403D01*
X140Y403D02*
X146Y403D01*
X1173Y403D02*
X1180Y403D01*
X0Y402D02*
X7Y402D01*
X93Y402D02*
X99Y402D01*
X140Y402D02*
X146Y402D01*
X1094Y402D02*
X1109Y402D01*
X1173Y402D02*
X1180Y402D01*
X0Y401D02*
X7Y401D01*
X93Y401D02*
X146Y401D01*
X1093Y401D02*
X1111Y401D01*
X1173Y401D02*
X1180Y401D01*
X0Y400D02*
X7Y400D01*
X93Y400D02*
X146Y400D01*
X1092Y400D02*
X1114Y400D01*
X1173Y400D02*
X1180Y400D01*
X0Y399D02*
X7Y399D01*
X93Y399D02*
X145Y399D01*
X1092Y399D02*
X1116Y399D01*
X1173Y399D02*
X1180Y399D01*
X0Y398D02*
X7Y398D01*
X94Y398D02*
X145Y398D01*
X1092Y398D02*
X1119Y398D01*
X1173Y398D02*
X1180Y398D01*
X0Y397D02*
X7Y397D01*
X94Y397D02*
X144Y397D01*
X1093Y397D02*
X1121Y397D01*
X1173Y397D02*
X1180Y397D01*
X0Y396D02*
X7Y396D01*
X95Y396D02*
X143Y396D01*
X1094Y396D02*
X1124Y396D01*
X1173Y396D02*
X1180Y396D01*
X0Y395D02*
X7Y395D01*
X97Y395D02*
X142Y395D01*
X1108Y395D02*
X1127Y395D01*
X1173Y395D02*
X1180Y395D01*
X0Y394D02*
X7Y394D01*
X1111Y394D02*
X1129Y394D01*
X1173Y394D02*
X1180Y394D01*
X0Y393D02*
X7Y393D01*
X1113Y393D02*
X1132Y393D01*
X1173Y393D02*
X1180Y393D01*
X0Y392D02*
X7Y392D01*
X1116Y392D02*
X1134Y392D01*
X1173Y392D02*
X1180Y392D01*
X0Y391D02*
X7Y391D01*
X1118Y391D02*
X1137Y391D01*
X1173Y391D02*
X1180Y391D01*
X0Y390D02*
X7Y390D01*
X1121Y390D02*
X1139Y390D01*
X1173Y390D02*
X1180Y390D01*
X0Y389D02*
X7Y389D01*
X1124Y389D02*
X1142Y389D01*
X1173Y389D02*
X1180Y389D01*
X0Y388D02*
X7Y388D01*
X1126Y388D02*
X1144Y388D01*
X1173Y388D02*
X1180Y388D01*
X0Y387D02*
X7Y387D01*
X1129Y387D02*
X1145Y387D01*
X1173Y387D02*
X1180Y387D01*
X0Y386D02*
X7Y386D01*
X1131Y386D02*
X1145Y386D01*
X1173Y386D02*
X1180Y386D01*
X0Y385D02*
X7Y385D01*
X1132Y385D02*
X1145Y385D01*
X1173Y385D02*
X1180Y385D01*
X0Y384D02*
X7Y384D01*
X1130Y384D02*
X1145Y384D01*
X1173Y384D02*
X1180Y384D01*
X0Y383D02*
X7Y383D01*
X1127Y383D02*
X1145Y383D01*
X1173Y383D02*
X1180Y383D01*
X0Y382D02*
X7Y382D01*
X1125Y382D02*
X1143Y382D01*
X1173Y382D02*
X1180Y382D01*
X0Y381D02*
X7Y381D01*
X1122Y381D02*
X1141Y381D01*
X1173Y381D02*
X1180Y381D01*
X0Y380D02*
X7Y380D01*
X1120Y380D02*
X1138Y380D01*
X1173Y380D02*
X1180Y380D01*
X0Y379D02*
X7Y379D01*
X1117Y379D02*
X1136Y379D01*
X1173Y379D02*
X1180Y379D01*
X0Y378D02*
X7Y378D01*
X1115Y378D02*
X1133Y378D01*
X1173Y378D02*
X1180Y378D01*
X0Y377D02*
X7Y377D01*
X1112Y377D02*
X1131Y377D01*
X1173Y377D02*
X1180Y377D01*
X0Y376D02*
X7Y376D01*
X1109Y376D02*
X1128Y376D01*
X1173Y376D02*
X1180Y376D01*
X0Y375D02*
X7Y375D01*
X1107Y375D02*
X1125Y375D01*
X1173Y375D02*
X1180Y375D01*
X0Y374D02*
X7Y374D01*
X1093Y374D02*
X1123Y374D01*
X1173Y374D02*
X1180Y374D01*
X0Y373D02*
X7Y373D01*
X1093Y373D02*
X1120Y373D01*
X1173Y373D02*
X1180Y373D01*
X0Y372D02*
X7Y372D01*
X1092Y372D02*
X1118Y372D01*
X1173Y372D02*
X1180Y372D01*
X0Y371D02*
X7Y371D01*
X1092Y371D02*
X1115Y371D01*
X1173Y371D02*
X1180Y371D01*
X0Y370D02*
X7Y370D01*
X1093Y370D02*
X1113Y370D01*
X1173Y370D02*
X1180Y370D01*
X0Y369D02*
X7Y369D01*
X1093Y369D02*
X1110Y369D01*
X1173Y369D02*
X1180Y369D01*
X0Y368D02*
X7Y368D01*
X1095Y368D02*
X1107Y368D01*
X1173Y368D02*
X1180Y368D01*
X0Y367D02*
X7Y367D01*
X1173Y367D02*
X1180Y367D01*
X0Y366D02*
X7Y366D01*
X1173Y366D02*
X1180Y366D01*
X0Y365D02*
X7Y365D01*
X1173Y365D02*
X1180Y365D01*
X0Y364D02*
X7Y364D01*
X1173Y364D02*
X1180Y364D01*
X0Y363D02*
X7Y363D01*
X1173Y363D02*
X1180Y363D01*
X0Y362D02*
X7Y362D01*
X1173Y362D02*
X1180Y362D01*
X0Y361D02*
X7Y361D01*
X1173Y361D02*
X1180Y361D01*
X0Y360D02*
X7Y360D01*
X1173Y360D02*
X1180Y360D01*
X0Y359D02*
X7Y359D01*
X1173Y359D02*
X1180Y359D01*
X0Y358D02*
X7Y358D01*
X1173Y358D02*
X1180Y358D01*
X0Y357D02*
X7Y357D01*
X1173Y357D02*
X1180Y357D01*
X0Y356D02*
X7Y356D01*
X1173Y356D02*
X1180Y356D01*
X0Y355D02*
X7Y355D01*
X1173Y355D02*
X1180Y355D01*
X0Y354D02*
X7Y354D01*
X1173Y354D02*
X1180Y354D01*
X0Y353D02*
X7Y353D01*
X1173Y353D02*
X1180Y353D01*
X0Y352D02*
X7Y352D01*
X1094Y352D02*
X1096Y352D01*
X1121Y352D02*
X1140Y352D01*
X1173Y352D02*
X1180Y352D01*
X0Y351D02*
X7Y351D01*
X1093Y351D02*
X1097Y351D01*
X1119Y351D02*
X1142Y351D01*
X1173Y351D02*
X1180Y351D01*
X0Y350D02*
X7Y350D01*
X1092Y350D02*
X1098Y350D01*
X1118Y350D02*
X1143Y350D01*
X1173Y350D02*
X1180Y350D01*
X0Y349D02*
X7Y349D01*
X1092Y349D02*
X1098Y349D01*
X1117Y349D02*
X1144Y349D01*
X1173Y349D02*
X1180Y349D01*
X0Y348D02*
X7Y348D01*
X1092Y348D02*
X1098Y348D01*
X1116Y348D02*
X1145Y348D01*
X1173Y348D02*
X1180Y348D01*
X0Y347D02*
X7Y347D01*
X1092Y347D02*
X1098Y347D01*
X1116Y347D02*
X1145Y347D01*
X1173Y347D02*
X1180Y347D01*
X0Y346D02*
X7Y346D01*
X1092Y346D02*
X1098Y346D01*
X1116Y346D02*
X1145Y346D01*
X1173Y346D02*
X1180Y346D01*
X0Y345D02*
X7Y345D01*
X1092Y345D02*
X1098Y345D01*
X1116Y345D02*
X1122Y345D01*
X1139Y345D02*
X1145Y345D01*
X1173Y345D02*
X1180Y345D01*
X0Y344D02*
X7Y344D01*
X1092Y344D02*
X1098Y344D01*
X1116Y344D02*
X1122Y344D01*
X1139Y344D02*
X1145Y344D01*
X1173Y344D02*
X1180Y344D01*
X0Y343D02*
X7Y343D01*
X1092Y343D02*
X1098Y343D01*
X1116Y343D02*
X1122Y343D01*
X1139Y343D02*
X1145Y343D01*
X1173Y343D02*
X1180Y343D01*
X0Y342D02*
X7Y342D01*
X1092Y342D02*
X1098Y342D01*
X1116Y342D02*
X1122Y342D01*
X1139Y342D02*
X1145Y342D01*
X1173Y342D02*
X1180Y342D01*
X0Y341D02*
X7Y341D01*
X1092Y341D02*
X1098Y341D01*
X1116Y341D02*
X1122Y341D01*
X1139Y341D02*
X1145Y341D01*
X1173Y341D02*
X1180Y341D01*
X0Y340D02*
X7Y340D01*
X1092Y340D02*
X1098Y340D01*
X1116Y340D02*
X1122Y340D01*
X1139Y340D02*
X1145Y340D01*
X1173Y340D02*
X1180Y340D01*
X0Y339D02*
X7Y339D01*
X1092Y339D02*
X1098Y339D01*
X1116Y339D02*
X1122Y339D01*
X1139Y339D02*
X1145Y339D01*
X1173Y339D02*
X1180Y339D01*
X0Y338D02*
X7Y338D01*
X1092Y338D02*
X1098Y338D01*
X1116Y338D02*
X1122Y338D01*
X1139Y338D02*
X1145Y338D01*
X1173Y338D02*
X1180Y338D01*
X0Y337D02*
X7Y337D01*
X146Y337D02*
X159Y337D01*
X1092Y337D02*
X1098Y337D01*
X1116Y337D02*
X1122Y337D01*
X1139Y337D02*
X1145Y337D01*
X1173Y337D02*
X1180Y337D01*
X0Y336D02*
X7Y336D01*
X135Y336D02*
X170Y336D01*
X1092Y336D02*
X1098Y336D01*
X1116Y336D02*
X1122Y336D01*
X1139Y336D02*
X1145Y336D01*
X1173Y336D02*
X1180Y336D01*
X0Y335D02*
X7Y335D01*
X128Y335D02*
X176Y335D01*
X1092Y335D02*
X1098Y335D01*
X1116Y335D02*
X1122Y335D01*
X1139Y335D02*
X1145Y335D01*
X1173Y335D02*
X1180Y335D01*
X0Y334D02*
X7Y334D01*
X124Y334D02*
X181Y334D01*
X1092Y334D02*
X1098Y334D01*
X1116Y334D02*
X1122Y334D01*
X1139Y334D02*
X1145Y334D01*
X1173Y334D02*
X1180Y334D01*
X0Y333D02*
X7Y333D01*
X119Y333D02*
X186Y333D01*
X1092Y333D02*
X1098Y333D01*
X1116Y333D02*
X1122Y333D01*
X1139Y333D02*
X1145Y333D01*
X1173Y333D02*
X1180Y333D01*
X0Y332D02*
X7Y332D01*
X116Y332D02*
X189Y332D01*
X1092Y332D02*
X1098Y332D01*
X1116Y332D02*
X1122Y332D01*
X1139Y332D02*
X1145Y332D01*
X1173Y332D02*
X1180Y332D01*
X0Y331D02*
X7Y331D01*
X112Y331D02*
X193Y331D01*
X1092Y331D02*
X1122Y331D01*
X1139Y331D02*
X1145Y331D01*
X1173Y331D02*
X1180Y331D01*
X0Y330D02*
X7Y330D01*
X109Y330D02*
X195Y330D01*
X1092Y330D02*
X1122Y330D01*
X1139Y330D02*
X1145Y330D01*
X1173Y330D02*
X1180Y330D01*
X0Y329D02*
X7Y329D01*
X107Y329D02*
X198Y329D01*
X1092Y329D02*
X1122Y329D01*
X1139Y329D02*
X1145Y329D01*
X1173Y329D02*
X1180Y329D01*
X0Y328D02*
X7Y328D01*
X104Y328D02*
X201Y328D01*
X1092Y328D02*
X1122Y328D01*
X1139Y328D02*
X1145Y328D01*
X1173Y328D02*
X1180Y328D01*
X0Y327D02*
X7Y327D01*
X102Y327D02*
X145Y327D01*
X161Y327D02*
X203Y327D01*
X1092Y327D02*
X1122Y327D01*
X1139Y327D02*
X1145Y327D01*
X1173Y327D02*
X1180Y327D01*
X0Y326D02*
X7Y326D01*
X100Y326D02*
X134Y326D01*
X171Y326D02*
X205Y326D01*
X1092Y326D02*
X1122Y326D01*
X1138Y326D02*
X1145Y326D01*
X1173Y326D02*
X1180Y326D01*
X0Y325D02*
X7Y325D01*
X97Y325D02*
X128Y325D01*
X177Y325D02*
X207Y325D01*
X1092Y325D02*
X1122Y325D01*
X1138Y325D02*
X1145Y325D01*
X1173Y325D02*
X1180Y325D01*
X0Y324D02*
X7Y324D01*
X95Y324D02*
X123Y324D01*
X182Y324D02*
X209Y324D01*
X1137Y324D02*
X1144Y324D01*
X1173Y324D02*
X1180Y324D01*
X0Y323D02*
X7Y323D01*
X94Y323D02*
X119Y323D01*
X186Y323D02*
X211Y323D01*
X1137Y323D02*
X1144Y323D01*
X1173Y323D02*
X1180Y323D01*
X0Y322D02*
X7Y322D01*
X92Y322D02*
X116Y322D01*
X189Y322D02*
X213Y322D01*
X1137Y322D02*
X1143Y322D01*
X1173Y322D02*
X1180Y322D01*
X0Y321D02*
X7Y321D01*
X90Y321D02*
X113Y321D01*
X192Y321D02*
X215Y321D01*
X1137Y321D02*
X1143Y321D01*
X1173Y321D02*
X1180Y321D01*
X0Y320D02*
X7Y320D01*
X89Y320D02*
X110Y320D01*
X195Y320D02*
X216Y320D01*
X1137Y320D02*
X1142Y320D01*
X1173Y320D02*
X1180Y320D01*
X0Y319D02*
X7Y319D01*
X87Y319D02*
X107Y319D01*
X198Y319D02*
X218Y319D01*
X1137Y319D02*
X1142Y319D01*
X1173Y319D02*
X1180Y319D01*
X0Y318D02*
X7Y318D01*
X86Y318D02*
X105Y318D01*
X200Y318D02*
X219Y318D01*
X1139Y318D02*
X1140Y318D01*
X1173Y318D02*
X1180Y318D01*
X0Y317D02*
X7Y317D01*
X84Y317D02*
X103Y317D01*
X202Y317D02*
X220Y317D01*
X1173Y317D02*
X1180Y317D01*
X0Y316D02*
X7Y316D01*
X83Y316D02*
X101Y316D01*
X204Y316D02*
X222Y316D01*
X1173Y316D02*
X1180Y316D01*
X0Y315D02*
X7Y315D01*
X82Y315D02*
X99Y315D01*
X206Y315D02*
X223Y315D01*
X1173Y315D02*
X1180Y315D01*
X0Y314D02*
X7Y314D01*
X81Y314D02*
X97Y314D01*
X208Y314D02*
X224Y314D01*
X1173Y314D02*
X1180Y314D01*
X0Y313D02*
X7Y313D01*
X80Y313D02*
X95Y313D01*
X210Y313D02*
X225Y313D01*
X1173Y313D02*
X1180Y313D01*
X0Y312D02*
X7Y312D01*
X79Y312D02*
X94Y312D01*
X211Y312D02*
X226Y312D01*
X1173Y312D02*
X1180Y312D01*
X0Y311D02*
X7Y311D01*
X78Y311D02*
X92Y311D01*
X213Y311D02*
X227Y311D01*
X1173Y311D02*
X1180Y311D01*
X0Y310D02*
X7Y310D01*
X77Y310D02*
X91Y310D01*
X214Y310D02*
X228Y310D01*
X1173Y310D02*
X1180Y310D01*
X0Y309D02*
X7Y309D01*
X76Y309D02*
X89Y309D01*
X215Y309D02*
X229Y309D01*
X1173Y309D02*
X1180Y309D01*
X0Y308D02*
X7Y308D01*
X75Y308D02*
X88Y308D01*
X217Y308D02*
X230Y308D01*
X1173Y308D02*
X1180Y308D01*
X0Y307D02*
X7Y307D01*
X74Y307D02*
X87Y307D01*
X218Y307D02*
X231Y307D01*
X1173Y307D02*
X1180Y307D01*
X0Y306D02*
X7Y306D01*
X73Y306D02*
X86Y306D01*
X219Y306D02*
X232Y306D01*
X1173Y306D02*
X1180Y306D01*
X0Y305D02*
X7Y305D01*
X72Y305D02*
X84Y305D01*
X220Y305D02*
X232Y305D01*
X1173Y305D02*
X1180Y305D01*
X0Y304D02*
X7Y304D01*
X72Y304D02*
X83Y304D01*
X221Y304D02*
X233Y304D01*
X265Y304D02*
X508Y304D01*
X575Y304D02*
X817Y304D01*
X1173Y304D02*
X1180Y304D01*
X0Y303D02*
X7Y303D01*
X71Y303D02*
X82Y303D01*
X222Y303D02*
X234Y303D01*
X264Y303D02*
X506Y303D01*
X577Y303D02*
X818Y303D01*
X1173Y303D02*
X1180Y303D01*
X0Y302D02*
X7Y302D01*
X70Y302D02*
X81Y302D01*
X223Y302D02*
X235Y302D01*
X263Y302D02*
X504Y302D01*
X579Y302D02*
X818Y302D01*
X1173Y302D02*
X1180Y302D01*
X0Y301D02*
X7Y301D01*
X70Y301D02*
X81Y301D01*
X224Y301D02*
X235Y301D01*
X263Y301D02*
X503Y301D01*
X580Y301D02*
X818Y301D01*
X1173Y301D02*
X1180Y301D01*
X0Y300D02*
X7Y300D01*
X69Y300D02*
X80Y300D01*
X225Y300D02*
X236Y300D01*
X264Y300D02*
X501Y300D01*
X582Y300D02*
X818Y300D01*
X1173Y300D02*
X1180Y300D01*
X0Y299D02*
X7Y299D01*
X68Y299D02*
X79Y299D01*
X226Y299D02*
X236Y299D01*
X1173Y299D02*
X1180Y299D01*
X0Y298D02*
X7Y298D01*
X68Y298D02*
X78Y298D01*
X227Y298D02*
X237Y298D01*
X1173Y298D02*
X1180Y298D01*
X0Y297D02*
X7Y297D01*
X67Y297D02*
X78Y297D01*
X227Y297D02*
X237Y297D01*
X1173Y297D02*
X1180Y297D01*
X0Y296D02*
X7Y296D01*
X67Y296D02*
X77Y296D01*
X228Y296D02*
X238Y296D01*
X1173Y296D02*
X1180Y296D01*
X0Y295D02*
X7Y295D01*
X66Y295D02*
X76Y295D01*
X228Y295D02*
X238Y295D01*
X1173Y295D02*
X1180Y295D01*
X0Y294D02*
X7Y294D01*
X66Y294D02*
X76Y294D01*
X229Y294D02*
X239Y294D01*
X1173Y294D02*
X1180Y294D01*
X0Y293D02*
X7Y293D01*
X66Y293D02*
X75Y293D01*
X230Y293D02*
X239Y293D01*
X1173Y293D02*
X1180Y293D01*
X0Y292D02*
X7Y292D01*
X65Y292D02*
X75Y292D01*
X230Y292D02*
X240Y292D01*
X301Y292D02*
X352Y292D01*
X1173Y292D02*
X1180Y292D01*
X0Y291D02*
X7Y291D01*
X65Y291D02*
X74Y291D01*
X230Y291D02*
X240Y291D01*
X300Y291D02*
X352Y291D01*
X1126Y291D02*
X1135Y291D01*
X1173Y291D02*
X1180Y291D01*
X0Y290D02*
X7Y290D01*
X65Y290D02*
X74Y290D01*
X231Y290D02*
X240Y290D01*
X299Y290D02*
X352Y290D01*
X1125Y290D02*
X1136Y290D01*
X1173Y290D02*
X1180Y290D01*
X0Y289D02*
X7Y289D01*
X64Y289D02*
X74Y289D01*
X231Y289D02*
X241Y289D01*
X299Y289D02*
X352Y289D01*
X1125Y289D02*
X1136Y289D01*
X1173Y289D02*
X1180Y289D01*
X0Y288D02*
X7Y288D01*
X64Y288D02*
X73Y288D01*
X231Y288D02*
X241Y288D01*
X300Y288D02*
X352Y288D01*
X1125Y288D02*
X1137Y288D01*
X1173Y288D02*
X1180Y288D01*
X0Y287D02*
X7Y287D01*
X64Y287D02*
X73Y287D01*
X232Y287D02*
X241Y287D01*
X300Y287D02*
X352Y287D01*
X1125Y287D02*
X1137Y287D01*
X1173Y287D02*
X1180Y287D01*
X0Y286D02*
X7Y286D01*
X64Y286D02*
X73Y286D01*
X232Y286D02*
X241Y286D01*
X302Y286D02*
X352Y286D01*
X1125Y286D02*
X1137Y286D01*
X1173Y286D02*
X1180Y286D01*
X0Y285D02*
X7Y285D01*
X63Y285D02*
X73Y285D01*
X232Y285D02*
X241Y285D01*
X339Y285D02*
X352Y285D01*
X1125Y285D02*
X1137Y285D01*
X1173Y285D02*
X1180Y285D01*
X0Y284D02*
X7Y284D01*
X63Y284D02*
X72Y284D01*
X232Y284D02*
X241Y284D01*
X337Y284D02*
X352Y284D01*
X1125Y284D02*
X1137Y284D01*
X1173Y284D02*
X1180Y284D01*
X0Y283D02*
X7Y283D01*
X63Y283D02*
X72Y283D01*
X232Y283D02*
X242Y283D01*
X335Y283D02*
X351Y283D01*
X1125Y283D02*
X1137Y283D01*
X1173Y283D02*
X1180Y283D01*
X0Y282D02*
X7Y282D01*
X63Y282D02*
X72Y282D01*
X233Y282D02*
X242Y282D01*
X332Y282D02*
X349Y282D01*
X1125Y282D02*
X1137Y282D01*
X1173Y282D02*
X1180Y282D01*
X0Y281D02*
X7Y281D01*
X63Y281D02*
X72Y281D01*
X233Y281D02*
X242Y281D01*
X330Y281D02*
X347Y281D01*
X1125Y281D02*
X1137Y281D01*
X1173Y281D02*
X1180Y281D01*
X0Y280D02*
X7Y280D01*
X63Y280D02*
X72Y280D01*
X233Y280D02*
X242Y280D01*
X328Y280D02*
X344Y280D01*
X1125Y280D02*
X1136Y280D01*
X1173Y280D02*
X1180Y280D01*
X0Y279D02*
X7Y279D01*
X63Y279D02*
X72Y279D01*
X233Y279D02*
X241Y279D01*
X325Y279D02*
X342Y279D01*
X1126Y279D02*
X1136Y279D01*
X1173Y279D02*
X1180Y279D01*
X0Y278D02*
X7Y278D01*
X63Y278D02*
X72Y278D01*
X233Y278D02*
X237Y278D01*
X323Y278D02*
X340Y278D01*
X1127Y278D02*
X1134Y278D01*
X1173Y278D02*
X1180Y278D01*
X0Y277D02*
X7Y277D01*
X66Y277D02*
X71Y277D01*
X234Y277D02*
X234Y277D01*
X321Y277D02*
X337Y277D01*
X1173Y277D02*
X1180Y277D01*
X0Y276D02*
X7Y276D01*
X68Y276D02*
X70Y276D01*
X319Y276D02*
X335Y276D01*
X1173Y276D02*
X1180Y276D01*
X0Y275D02*
X7Y275D01*
X316Y275D02*
X333Y275D01*
X1173Y275D02*
X1180Y275D01*
X0Y274D02*
X7Y274D01*
X314Y274D02*
X331Y274D01*
X1173Y274D02*
X1180Y274D01*
X0Y273D02*
X7Y273D01*
X312Y273D02*
X328Y273D01*
X1173Y273D02*
X1180Y273D01*
X0Y272D02*
X7Y272D01*
X309Y272D02*
X326Y272D01*
X1173Y272D02*
X1180Y272D01*
X0Y271D02*
X7Y271D01*
X307Y271D02*
X324Y271D01*
X1173Y271D02*
X1180Y271D01*
X0Y270D02*
X7Y270D01*
X305Y270D02*
X321Y270D01*
X1173Y270D02*
X1180Y270D01*
X0Y269D02*
X7Y269D01*
X303Y269D02*
X319Y269D01*
X1173Y269D02*
X1180Y269D01*
X0Y268D02*
X7Y268D01*
X300Y268D02*
X317Y268D01*
X1173Y268D02*
X1180Y268D01*
X0Y267D02*
X7Y267D01*
X299Y267D02*
X315Y267D01*
X1173Y267D02*
X1180Y267D01*
X0Y266D02*
X7Y266D01*
X299Y266D02*
X312Y266D01*
X1173Y266D02*
X1180Y266D01*
X0Y265D02*
X7Y265D01*
X299Y265D02*
X350Y265D01*
X1173Y265D02*
X1180Y265D01*
X0Y264D02*
X7Y264D01*
X299Y264D02*
X352Y264D01*
X1173Y264D02*
X1180Y264D01*
X0Y263D02*
X7Y263D01*
X299Y263D02*
X352Y263D01*
X1173Y263D02*
X1180Y263D01*
X0Y262D02*
X7Y262D01*
X299Y262D02*
X352Y262D01*
X1173Y262D02*
X1180Y262D01*
X0Y261D02*
X7Y261D01*
X299Y261D02*
X352Y261D01*
X1173Y261D02*
X1180Y261D01*
X0Y260D02*
X7Y260D01*
X299Y260D02*
X352Y260D01*
X1173Y260D02*
X1180Y260D01*
X0Y259D02*
X7Y259D01*
X299Y259D02*
X351Y259D01*
X1173Y259D02*
X1180Y259D01*
X0Y258D02*
X7Y258D01*
X1173Y258D02*
X1180Y258D01*
X0Y257D02*
X7Y257D01*
X1173Y257D02*
X1180Y257D01*
X0Y256D02*
X7Y256D01*
X1173Y256D02*
X1180Y256D01*
X0Y255D02*
X7Y255D01*
X1173Y255D02*
X1180Y255D01*
X0Y254D02*
X7Y254D01*
X1173Y254D02*
X1180Y254D01*
X0Y253D02*
X7Y253D01*
X1173Y253D02*
X1180Y253D01*
X0Y252D02*
X7Y252D01*
X1173Y252D02*
X1180Y252D01*
X0Y251D02*
X7Y251D01*
X1173Y251D02*
X1180Y251D01*
X0Y250D02*
X7Y250D01*
X1124Y250D02*
X1125Y250D01*
X1173Y250D02*
X1180Y250D01*
X0Y249D02*
X7Y249D01*
X1123Y249D02*
X1127Y249D01*
X1173Y249D02*
X1180Y249D01*
X0Y248D02*
X7Y248D01*
X1122Y248D02*
X1127Y248D01*
X1173Y248D02*
X1180Y248D01*
X0Y247D02*
X7Y247D01*
X1122Y247D02*
X1128Y247D01*
X1173Y247D02*
X1180Y247D01*
X0Y246D02*
X7Y246D01*
X1100Y246D02*
X1144Y246D01*
X1173Y246D02*
X1180Y246D01*
X0Y245D02*
X7Y245D01*
X1099Y245D02*
X1145Y245D01*
X1173Y245D02*
X1180Y245D01*
X0Y244D02*
X7Y244D01*
X1098Y244D02*
X1145Y244D01*
X1173Y244D02*
X1180Y244D01*
X0Y243D02*
X7Y243D01*
X1098Y243D02*
X1145Y243D01*
X1173Y243D02*
X1180Y243D01*
X0Y242D02*
X7Y242D01*
X306Y242D02*
X325Y242D01*
X1098Y242D02*
X1145Y242D01*
X1173Y242D02*
X1180Y242D01*
X0Y241D02*
X7Y241D01*
X304Y241D02*
X327Y241D01*
X1099Y241D02*
X1145Y241D01*
X1173Y241D02*
X1180Y241D01*
X0Y240D02*
X7Y240D01*
X303Y240D02*
X328Y240D01*
X1100Y240D02*
X1143Y240D01*
X1173Y240D02*
X1180Y240D01*
X0Y239D02*
X7Y239D01*
X302Y239D02*
X329Y239D01*
X1122Y239D02*
X1128Y239D01*
X1173Y239D02*
X1180Y239D01*
X0Y238D02*
X7Y238D01*
X301Y238D02*
X330Y238D01*
X1122Y238D02*
X1128Y238D01*
X1173Y238D02*
X1180Y238D01*
X0Y237D02*
X7Y237D01*
X301Y237D02*
X331Y237D01*
X1122Y237D02*
X1128Y237D01*
X1173Y237D02*
X1180Y237D01*
X0Y236D02*
X7Y236D01*
X300Y236D02*
X331Y236D01*
X1122Y236D02*
X1128Y236D01*
X1173Y236D02*
X1180Y236D01*
X0Y235D02*
X7Y235D01*
X300Y235D02*
X307Y235D01*
X324Y235D02*
X331Y235D01*
X1122Y235D02*
X1128Y235D01*
X1173Y235D02*
X1180Y235D01*
X0Y234D02*
X7Y234D01*
X299Y234D02*
X306Y234D01*
X325Y234D02*
X332Y234D01*
X1122Y234D02*
X1128Y234D01*
X1173Y234D02*
X1180Y234D01*
X0Y233D02*
X7Y233D01*
X299Y233D02*
X305Y233D01*
X326Y233D02*
X332Y233D01*
X1122Y233D02*
X1128Y233D01*
X1173Y233D02*
X1180Y233D01*
X0Y232D02*
X7Y232D01*
X299Y232D02*
X305Y232D01*
X326Y232D02*
X332Y232D01*
X1122Y232D02*
X1128Y232D01*
X1173Y232D02*
X1180Y232D01*
X0Y231D02*
X7Y231D01*
X299Y231D02*
X305Y231D01*
X326Y231D02*
X332Y231D01*
X1122Y231D02*
X1128Y231D01*
X1173Y231D02*
X1180Y231D01*
X0Y230D02*
X7Y230D01*
X299Y230D02*
X305Y230D01*
X326Y230D02*
X332Y230D01*
X1122Y230D02*
X1128Y230D01*
X1173Y230D02*
X1180Y230D01*
X0Y229D02*
X7Y229D01*
X299Y229D02*
X305Y229D01*
X326Y229D02*
X332Y229D01*
X1122Y229D02*
X1128Y229D01*
X1173Y229D02*
X1180Y229D01*
X0Y228D02*
X7Y228D01*
X299Y228D02*
X305Y228D01*
X326Y228D02*
X332Y228D01*
X1122Y228D02*
X1128Y228D01*
X1173Y228D02*
X1180Y228D01*
X0Y227D02*
X7Y227D01*
X299Y227D02*
X305Y227D01*
X326Y227D02*
X332Y227D01*
X1122Y227D02*
X1128Y227D01*
X1173Y227D02*
X1180Y227D01*
X0Y226D02*
X7Y226D01*
X299Y226D02*
X305Y226D01*
X326Y226D02*
X332Y226D01*
X1096Y226D02*
X1128Y226D01*
X1173Y226D02*
X1180Y226D01*
X0Y225D02*
X7Y225D01*
X299Y225D02*
X305Y225D01*
X326Y225D02*
X332Y225D01*
X1093Y225D02*
X1128Y225D01*
X1173Y225D02*
X1180Y225D01*
X0Y224D02*
X7Y224D01*
X299Y224D02*
X305Y224D01*
X326Y224D02*
X332Y224D01*
X1093Y224D02*
X1128Y224D01*
X1173Y224D02*
X1180Y224D01*
X0Y223D02*
X7Y223D01*
X299Y223D02*
X305Y223D01*
X326Y223D02*
X332Y223D01*
X1092Y223D02*
X1128Y223D01*
X1173Y223D02*
X1180Y223D01*
X0Y222D02*
X7Y222D01*
X299Y222D02*
X305Y222D01*
X326Y222D02*
X332Y222D01*
X1092Y222D02*
X1128Y222D01*
X1173Y222D02*
X1180Y222D01*
X0Y221D02*
X7Y221D01*
X299Y221D02*
X305Y221D01*
X326Y221D02*
X332Y221D01*
X1093Y221D02*
X1128Y221D01*
X1173Y221D02*
X1180Y221D01*
X0Y220D02*
X7Y220D01*
X299Y220D02*
X305Y220D01*
X326Y220D02*
X332Y220D01*
X1093Y220D02*
X1128Y220D01*
X1173Y220D02*
X1180Y220D01*
X0Y219D02*
X7Y219D01*
X299Y219D02*
X305Y219D01*
X326Y219D02*
X332Y219D01*
X1173Y219D02*
X1180Y219D01*
X0Y218D02*
X7Y218D01*
X299Y218D02*
X305Y218D01*
X326Y218D02*
X332Y218D01*
X1173Y218D02*
X1180Y218D01*
X0Y217D02*
X7Y217D01*
X299Y217D02*
X305Y217D01*
X326Y217D02*
X332Y217D01*
X1173Y217D02*
X1180Y217D01*
X0Y216D02*
X7Y216D01*
X299Y216D02*
X305Y216D01*
X326Y216D02*
X332Y216D01*
X1173Y216D02*
X1180Y216D01*
X0Y215D02*
X7Y215D01*
X299Y215D02*
X349Y215D01*
X1173Y215D02*
X1180Y215D01*
X0Y214D02*
X7Y214D01*
X299Y214D02*
X351Y214D01*
X1173Y214D02*
X1180Y214D01*
X0Y213D02*
X7Y213D01*
X299Y213D02*
X352Y213D01*
X1173Y213D02*
X1180Y213D01*
X0Y212D02*
X7Y212D01*
X299Y212D02*
X352Y212D01*
X1173Y212D02*
X1180Y212D01*
X0Y211D02*
X7Y211D01*
X299Y211D02*
X352Y211D01*
X1173Y211D02*
X1180Y211D01*
X0Y210D02*
X7Y210D01*
X299Y210D02*
X352Y210D01*
X1173Y210D02*
X1180Y210D01*
X0Y209D02*
X7Y209D01*
X299Y209D02*
X351Y209D01*
X1173Y209D02*
X1180Y209D01*
X0Y208D02*
X7Y208D01*
X1173Y208D02*
X1180Y208D01*
X0Y207D02*
X7Y207D01*
X1173Y207D02*
X1180Y207D01*
X0Y206D02*
X7Y206D01*
X1173Y206D02*
X1180Y206D01*
X0Y205D02*
X7Y205D01*
X1173Y205D02*
X1180Y205D01*
X0Y204D02*
X7Y204D01*
X1173Y204D02*
X1180Y204D01*
X0Y203D02*
X7Y203D01*
X1173Y203D02*
X1180Y203D01*
X0Y202D02*
X7Y202D01*
X687Y202D02*
X703Y202D01*
X726Y202D02*
X729Y202D01*
X748Y202D02*
X750Y202D01*
X765Y202D02*
X766Y202D01*
X777Y202D02*
X796Y202D01*
X808Y202D02*
X823Y202D01*
X1173Y202D02*
X1180Y202D01*
X0Y201D02*
X7Y201D01*
X687Y201D02*
X704Y201D01*
X724Y201D02*
X730Y201D01*
X747Y201D02*
X750Y201D01*
X764Y201D02*
X767Y201D01*
X777Y201D02*
X797Y201D01*
X808Y201D02*
X825Y201D01*
X1117Y201D02*
X1120Y201D01*
X1173Y201D02*
X1180Y201D01*
X0Y200D02*
X7Y200D01*
X687Y200D02*
X705Y200D01*
X723Y200D02*
X731Y200D01*
X747Y200D02*
X751Y200D01*
X764Y200D02*
X767Y200D01*
X777Y200D02*
X797Y200D01*
X808Y200D02*
X826Y200D01*
X1116Y200D02*
X1121Y200D01*
X1173Y200D02*
X1180Y200D01*
X0Y199D02*
X7Y199D01*
X687Y199D02*
X706Y199D01*
X722Y199D02*
X732Y199D01*
X747Y199D02*
X751Y199D01*
X764Y199D02*
X767Y199D01*
X777Y199D02*
X797Y199D01*
X808Y199D02*
X827Y199D01*
X1116Y199D02*
X1122Y199D01*
X1173Y199D02*
X1180Y199D01*
X0Y198D02*
X7Y198D01*
X687Y198D02*
X690Y198D01*
X702Y198D02*
X707Y198D01*
X722Y198D02*
X726Y198D01*
X728Y198D02*
X732Y198D01*
X747Y198D02*
X751Y198D01*
X764Y198D02*
X767Y198D01*
X777Y198D02*
X781Y198D01*
X808Y198D02*
X811Y198D01*
X823Y198D02*
X827Y198D01*
X1116Y198D02*
X1122Y198D01*
X1173Y198D02*
X1180Y198D01*
X0Y197D02*
X7Y197D01*
X687Y197D02*
X690Y197D01*
X703Y197D02*
X707Y197D01*
X721Y197D02*
X725Y197D01*
X729Y197D02*
X733Y197D01*
X747Y197D02*
X751Y197D01*
X764Y197D02*
X767Y197D01*
X777Y197D02*
X781Y197D01*
X808Y197D02*
X811Y197D01*
X824Y197D02*
X827Y197D01*
X1116Y197D02*
X1122Y197D01*
X1173Y197D02*
X1180Y197D01*
X0Y196D02*
X7Y196D01*
X687Y196D02*
X690Y196D01*
X704Y196D02*
X707Y196D01*
X721Y196D02*
X725Y196D01*
X729Y196D02*
X733Y196D01*
X747Y196D02*
X751Y196D01*
X764Y196D02*
X767Y196D01*
X777Y196D02*
X781Y196D01*
X808Y196D02*
X811Y196D01*
X824Y196D02*
X827Y196D01*
X1116Y196D02*
X1122Y196D01*
X1173Y196D02*
X1180Y196D01*
X0Y195D02*
X7Y195D01*
X687Y195D02*
X690Y195D01*
X704Y195D02*
X707Y195D01*
X720Y195D02*
X724Y195D01*
X730Y195D02*
X734Y195D01*
X747Y195D02*
X751Y195D01*
X764Y195D02*
X767Y195D01*
X777Y195D02*
X781Y195D01*
X808Y195D02*
X811Y195D01*
X824Y195D02*
X827Y195D01*
X1116Y195D02*
X1122Y195D01*
X1173Y195D02*
X1180Y195D01*
X0Y194D02*
X7Y194D01*
X687Y194D02*
X690Y194D01*
X704Y194D02*
X707Y194D01*
X720Y194D02*
X724Y194D01*
X730Y194D02*
X734Y194D01*
X747Y194D02*
X751Y194D01*
X764Y194D02*
X767Y194D01*
X777Y194D02*
X781Y194D01*
X808Y194D02*
X811Y194D01*
X824Y194D02*
X827Y194D01*
X1116Y194D02*
X1122Y194D01*
X1173Y194D02*
X1180Y194D01*
X0Y193D02*
X7Y193D01*
X687Y193D02*
X690Y193D01*
X704Y193D02*
X707Y193D01*
X719Y193D02*
X723Y193D01*
X731Y193D02*
X735Y193D01*
X747Y193D02*
X751Y193D01*
X764Y193D02*
X767Y193D01*
X777Y193D02*
X781Y193D01*
X808Y193D02*
X811Y193D01*
X824Y193D02*
X827Y193D01*
X1116Y193D02*
X1122Y193D01*
X1173Y193D02*
X1180Y193D01*
X0Y192D02*
X7Y192D01*
X301Y192D02*
X352Y192D01*
X687Y192D02*
X690Y192D01*
X704Y192D02*
X707Y192D01*
X719Y192D02*
X723Y192D01*
X731Y192D02*
X735Y192D01*
X747Y192D02*
X751Y192D01*
X764Y192D02*
X767Y192D01*
X777Y192D02*
X781Y192D01*
X808Y192D02*
X811Y192D01*
X823Y192D02*
X827Y192D01*
X1116Y192D02*
X1122Y192D01*
X1173Y192D02*
X1180Y192D01*
X0Y191D02*
X7Y191D01*
X300Y191D02*
X352Y191D01*
X687Y191D02*
X690Y191D01*
X704Y191D02*
X707Y191D01*
X718Y191D02*
X722Y191D01*
X732Y191D02*
X736Y191D01*
X747Y191D02*
X751Y191D01*
X756Y191D02*
X758Y191D01*
X764Y191D02*
X767Y191D01*
X777Y191D02*
X781Y191D01*
X808Y191D02*
X826Y191D01*
X1116Y191D02*
X1122Y191D01*
X1173Y191D02*
X1180Y191D01*
X0Y190D02*
X7Y190D01*
X299Y190D02*
X352Y190D01*
X687Y190D02*
X690Y190D01*
X704Y190D02*
X707Y190D01*
X718Y190D02*
X722Y190D01*
X732Y190D02*
X736Y190D01*
X747Y190D02*
X751Y190D01*
X756Y190D02*
X759Y190D01*
X764Y190D02*
X767Y190D01*
X777Y190D02*
X781Y190D01*
X808Y190D02*
X826Y190D01*
X1116Y190D02*
X1122Y190D01*
X1173Y190D02*
X1180Y190D01*
X0Y189D02*
X7Y189D01*
X299Y189D02*
X352Y189D01*
X410Y189D02*
X502Y189D01*
X581Y189D02*
X672Y189D01*
X687Y189D02*
X690Y189D01*
X704Y189D02*
X707Y189D01*
X718Y189D02*
X721Y189D01*
X733Y189D02*
X736Y189D01*
X747Y189D02*
X751Y189D01*
X756Y189D02*
X759Y189D01*
X764Y189D02*
X767Y189D01*
X777Y189D02*
X781Y189D01*
X808Y189D02*
X825Y189D01*
X1116Y189D02*
X1122Y189D01*
X1173Y189D02*
X1180Y189D01*
X0Y188D02*
X7Y188D01*
X299Y188D02*
X352Y188D01*
X409Y188D02*
X504Y188D01*
X579Y188D02*
X673Y188D01*
X687Y188D02*
X690Y188D01*
X703Y188D02*
X707Y188D01*
X717Y188D02*
X721Y188D01*
X733Y188D02*
X737Y188D01*
X747Y188D02*
X751Y188D01*
X756Y188D02*
X759Y188D01*
X764Y188D02*
X767Y188D01*
X777Y188D02*
X788Y188D01*
X808Y188D02*
X823Y188D01*
X1115Y188D02*
X1122Y188D01*
X1173Y188D02*
X1180Y188D01*
X0Y187D02*
X7Y187D01*
X300Y187D02*
X352Y187D01*
X409Y187D02*
X506Y187D01*
X577Y187D02*
X673Y187D01*
X687Y187D02*
X690Y187D01*
X703Y187D02*
X707Y187D01*
X717Y187D02*
X721Y187D01*
X734Y187D02*
X737Y187D01*
X747Y187D02*
X751Y187D01*
X756Y187D02*
X759Y187D01*
X764Y187D02*
X767Y187D01*
X777Y187D02*
X789Y187D01*
X808Y187D02*
X811Y187D01*
X815Y187D02*
X819Y187D01*
X1103Y187D02*
X1134Y187D01*
X1173Y187D02*
X1180Y187D01*
X0Y186D02*
X7Y186D01*
X301Y186D02*
X352Y186D01*
X409Y186D02*
X507Y186D01*
X576Y186D02*
X673Y186D01*
X687Y186D02*
X706Y186D01*
X717Y186D02*
X720Y186D01*
X734Y186D02*
X737Y186D01*
X747Y186D02*
X751Y186D01*
X756Y186D02*
X759Y186D01*
X764Y186D02*
X767Y186D01*
X777Y186D02*
X789Y186D01*
X808Y186D02*
X811Y186D01*
X816Y186D02*
X820Y186D01*
X1102Y186D02*
X1135Y186D01*
X1173Y186D02*
X1180Y186D01*
X0Y185D02*
X7Y185D01*
X340Y185D02*
X352Y185D01*
X410Y185D02*
X509Y185D01*
X574Y185D02*
X672Y185D01*
X687Y185D02*
X706Y185D01*
X717Y185D02*
X721Y185D01*
X734Y185D02*
X737Y185D01*
X747Y185D02*
X751Y185D01*
X756Y185D02*
X759Y185D01*
X764Y185D02*
X767Y185D01*
X777Y185D02*
X788Y185D01*
X808Y185D02*
X811Y185D01*
X816Y185D02*
X820Y185D01*
X1102Y185D02*
X1135Y185D01*
X1173Y185D02*
X1180Y185D01*
X0Y184D02*
X7Y184D01*
X338Y184D02*
X352Y184D01*
X687Y184D02*
X705Y184D01*
X717Y184D02*
X721Y184D01*
X733Y184D02*
X737Y184D01*
X747Y184D02*
X751Y184D01*
X756Y184D02*
X759Y184D01*
X764Y184D02*
X767Y184D01*
X777Y184D02*
X781Y184D01*
X808Y184D02*
X811Y184D01*
X817Y184D02*
X821Y184D01*
X1102Y184D02*
X1136Y184D01*
X1173Y184D02*
X1180Y184D01*
X0Y183D02*
X7Y183D01*
X335Y183D02*
X352Y183D01*
X687Y183D02*
X703Y183D01*
X718Y183D02*
X721Y183D01*
X733Y183D02*
X736Y183D01*
X747Y183D02*
X751Y183D01*
X756Y183D02*
X759Y183D01*
X764Y183D02*
X767Y183D01*
X777Y183D02*
X781Y183D01*
X808Y183D02*
X811Y183D01*
X817Y183D02*
X821Y183D01*
X1102Y183D02*
X1135Y183D01*
X1173Y183D02*
X1180Y183D01*
X0Y182D02*
X7Y182D01*
X333Y182D02*
X350Y182D01*
X687Y182D02*
X690Y182D01*
X718Y182D02*
X722Y182D01*
X732Y182D02*
X736Y182D01*
X747Y182D02*
X751Y182D01*
X756Y182D02*
X759Y182D01*
X764Y182D02*
X767Y182D01*
X777Y182D02*
X781Y182D01*
X808Y182D02*
X811Y182D01*
X818Y182D02*
X822Y182D01*
X1103Y182D02*
X1135Y182D01*
X1173Y182D02*
X1180Y182D01*
X0Y181D02*
X7Y181D01*
X331Y181D02*
X347Y181D01*
X687Y181D02*
X690Y181D01*
X719Y181D02*
X722Y181D01*
X732Y181D02*
X735Y181D01*
X747Y181D02*
X751Y181D01*
X756Y181D02*
X759Y181D01*
X764Y181D02*
X767Y181D01*
X777Y181D02*
X781Y181D01*
X808Y181D02*
X811Y181D01*
X818Y181D02*
X822Y181D01*
X1105Y181D02*
X1133Y181D01*
X1173Y181D02*
X1180Y181D01*
X0Y180D02*
X7Y180D01*
X329Y180D02*
X345Y180D01*
X687Y180D02*
X690Y180D01*
X719Y180D02*
X723Y180D01*
X731Y180D02*
X735Y180D01*
X747Y180D02*
X751Y180D01*
X756Y180D02*
X759Y180D01*
X764Y180D02*
X767Y180D01*
X777Y180D02*
X781Y180D01*
X808Y180D02*
X811Y180D01*
X819Y180D02*
X823Y180D01*
X1116Y180D02*
X1122Y180D01*
X1173Y180D02*
X1180Y180D01*
X0Y179D02*
X7Y179D01*
X326Y179D02*
X343Y179D01*
X687Y179D02*
X690Y179D01*
X720Y179D02*
X723Y179D01*
X731Y179D02*
X734Y179D01*
X747Y179D02*
X751Y179D01*
X756Y179D02*
X759Y179D01*
X764Y179D02*
X767Y179D01*
X777Y179D02*
X781Y179D01*
X808Y179D02*
X811Y179D01*
X820Y179D02*
X824Y179D01*
X1116Y179D02*
X1122Y179D01*
X1173Y179D02*
X1180Y179D01*
X0Y178D02*
X7Y178D01*
X324Y178D02*
X341Y178D01*
X687Y178D02*
X690Y178D01*
X720Y178D02*
X724Y178D01*
X730Y178D02*
X734Y178D01*
X747Y178D02*
X751Y178D01*
X756Y178D02*
X759Y178D01*
X764Y178D02*
X767Y178D01*
X777Y178D02*
X781Y178D01*
X808Y178D02*
X811Y178D01*
X820Y178D02*
X824Y178D01*
X1116Y178D02*
X1122Y178D01*
X1173Y178D02*
X1180Y178D01*
X0Y177D02*
X7Y177D01*
X322Y177D02*
X338Y177D01*
X687Y177D02*
X690Y177D01*
X721Y177D02*
X724Y177D01*
X730Y177D02*
X733Y177D01*
X747Y177D02*
X751Y177D01*
X756Y177D02*
X759Y177D01*
X764Y177D02*
X767Y177D01*
X777Y177D02*
X781Y177D01*
X808Y177D02*
X811Y177D01*
X821Y177D02*
X825Y177D01*
X1116Y177D02*
X1122Y177D01*
X1173Y177D02*
X1180Y177D01*
X0Y176D02*
X7Y176D01*
X320Y176D02*
X336Y176D01*
X687Y176D02*
X690Y176D01*
X721Y176D02*
X725Y176D01*
X729Y176D02*
X733Y176D01*
X747Y176D02*
X751Y176D01*
X755Y176D02*
X759Y176D01*
X764Y176D02*
X767Y176D01*
X777Y176D02*
X781Y176D01*
X808Y176D02*
X811Y176D01*
X821Y176D02*
X825Y176D01*
X1116Y176D02*
X1122Y176D01*
X1173Y176D02*
X1180Y176D01*
X0Y175D02*
X7Y175D01*
X317Y175D02*
X334Y175D01*
X687Y175D02*
X690Y175D01*
X722Y175D02*
X725Y175D01*
X729Y175D02*
X732Y175D01*
X747Y175D02*
X751Y175D01*
X755Y175D02*
X759Y175D01*
X763Y175D02*
X767Y175D01*
X777Y175D02*
X781Y175D01*
X808Y175D02*
X811Y175D01*
X822Y175D02*
X826Y175D01*
X1116Y175D02*
X1122Y175D01*
X1173Y175D02*
X1180Y175D01*
X0Y174D02*
X7Y174D01*
X315Y174D02*
X332Y174D01*
X687Y174D02*
X690Y174D01*
X722Y174D02*
X732Y174D01*
X748Y174D02*
X766Y174D01*
X777Y174D02*
X796Y174D01*
X808Y174D02*
X811Y174D01*
X823Y174D02*
X827Y174D01*
X1116Y174D02*
X1122Y174D01*
X1173Y174D02*
X1180Y174D01*
X0Y173D02*
X7Y173D01*
X313Y173D02*
X329Y173D01*
X687Y173D02*
X690Y173D01*
X723Y173D02*
X731Y173D01*
X748Y173D02*
X766Y173D01*
X777Y173D02*
X797Y173D01*
X808Y173D02*
X811Y173D01*
X823Y173D02*
X827Y173D01*
X1116Y173D02*
X1122Y173D01*
X1173Y173D02*
X1180Y173D01*
X0Y172D02*
X7Y172D01*
X310Y172D02*
X327Y172D01*
X687Y172D02*
X690Y172D01*
X723Y172D02*
X731Y172D01*
X749Y172D02*
X765Y172D01*
X777Y172D02*
X797Y172D01*
X808Y172D02*
X811Y172D01*
X824Y172D02*
X827Y172D01*
X1116Y172D02*
X1122Y172D01*
X1173Y172D02*
X1180Y172D01*
X0Y171D02*
X7Y171D01*
X308Y171D02*
X325Y171D01*
X687Y171D02*
X690Y171D01*
X724Y171D02*
X730Y171D01*
X750Y171D02*
X756Y171D01*
X758Y171D02*
X765Y171D01*
X777Y171D02*
X797Y171D01*
X808Y171D02*
X810Y171D01*
X824Y171D02*
X827Y171D01*
X1116Y171D02*
X1122Y171D01*
X1173Y171D02*
X1180Y171D01*
X0Y170D02*
X7Y170D01*
X306Y170D02*
X322Y170D01*
X727Y170D02*
X727Y170D01*
X751Y170D02*
X755Y170D01*
X760Y170D02*
X763Y170D01*
X778Y170D02*
X795Y170D01*
X809Y170D02*
X809Y170D01*
X1116Y170D02*
X1122Y170D01*
X1173Y170D02*
X1180Y170D01*
X0Y169D02*
X7Y169D01*
X304Y169D02*
X320Y169D01*
X1116Y169D02*
X1121Y169D01*
X1173Y169D02*
X1180Y169D01*
X0Y168D02*
X7Y168D01*
X301Y168D02*
X318Y168D01*
X1117Y168D02*
X1121Y168D01*
X1173Y168D02*
X1180Y168D01*
X0Y167D02*
X7Y167D01*
X299Y167D02*
X316Y167D01*
X1173Y167D02*
X1180Y167D01*
X0Y166D02*
X7Y166D01*
X299Y166D02*
X313Y166D01*
X1173Y166D02*
X1180Y166D01*
X0Y165D02*
X7Y165D01*
X299Y165D02*
X312Y165D01*
X1173Y165D02*
X1180Y165D01*
X0Y164D02*
X7Y164D01*
X299Y164D02*
X351Y164D01*
X1173Y164D02*
X1180Y164D01*
X0Y163D02*
X7Y163D01*
X299Y163D02*
X352Y163D01*
X1173Y163D02*
X1180Y163D01*
X0Y162D02*
X7Y162D01*
X299Y162D02*
X352Y162D01*
X1173Y162D02*
X1180Y162D01*
X0Y161D02*
X7Y161D01*
X299Y161D02*
X352Y161D01*
X1173Y161D02*
X1180Y161D01*
X0Y160D02*
X7Y160D01*
X299Y160D02*
X352Y160D01*
X1173Y160D02*
X1180Y160D01*
X0Y159D02*
X7Y159D01*
X299Y159D02*
X351Y159D01*
X1173Y159D02*
X1180Y159D01*
X0Y158D02*
X7Y158D01*
X300Y158D02*
X350Y158D01*
X1173Y158D02*
X1180Y158D01*
X0Y157D02*
X7Y157D01*
X1173Y157D02*
X1180Y157D01*
X0Y156D02*
X7Y156D01*
X1173Y156D02*
X1180Y156D01*
X0Y155D02*
X7Y155D01*
X1173Y155D02*
X1180Y155D01*
X0Y154D02*
X7Y154D01*
X1173Y154D02*
X1180Y154D01*
X0Y153D02*
X7Y153D01*
X949Y153D02*
X949Y153D01*
X1173Y153D02*
X1180Y153D01*
X0Y152D02*
X7Y152D01*
X948Y152D02*
X950Y152D01*
X1173Y152D02*
X1180Y152D01*
X0Y151D02*
X7Y151D01*
X947Y151D02*
X951Y151D01*
X1173Y151D02*
X1180Y151D01*
X0Y150D02*
X7Y150D01*
X946Y150D02*
X952Y150D01*
X1173Y150D02*
X1180Y150D01*
X0Y149D02*
X7Y149D01*
X947Y149D02*
X953Y149D01*
X1173Y149D02*
X1180Y149D01*
X0Y148D02*
X7Y148D01*
X948Y148D02*
X954Y148D01*
X1173Y148D02*
X1180Y148D01*
X0Y147D02*
X7Y147D01*
X949Y147D02*
X955Y147D01*
X1173Y147D02*
X1180Y147D01*
X0Y146D02*
X7Y146D01*
X950Y146D02*
X956Y146D01*
X1173Y146D02*
X1180Y146D01*
X0Y145D02*
X7Y145D01*
X1173Y145D02*
X1180Y145D01*
X0Y144D02*
X7Y144D01*
X1173Y144D02*
X1180Y144D01*
X0Y143D02*
X7Y143D01*
X1173Y143D02*
X1180Y143D01*
X0Y142D02*
X7Y142D01*
X1173Y142D02*
X1180Y142D01*
X0Y141D02*
X7Y141D01*
X1173Y141D02*
X1180Y141D01*
X0Y140D02*
X7Y140D01*
X1173Y140D02*
X1180Y140D01*
X0Y139D02*
X7Y139D01*
X1173Y139D02*
X1180Y139D01*
X0Y138D02*
X7Y138D01*
X1173Y138D02*
X1180Y138D01*
X0Y137D02*
X7Y137D01*
X1173Y137D02*
X1180Y137D01*
X0Y136D02*
X7Y136D01*
X1173Y136D02*
X1180Y136D01*
X0Y135D02*
X7Y135D01*
X1173Y135D02*
X1180Y135D01*
X0Y134D02*
X7Y134D01*
X1173Y134D02*
X1180Y134D01*
X0Y133D02*
X7Y133D01*
X1173Y133D02*
X1180Y133D01*
X0Y132D02*
X7Y132D01*
X1173Y132D02*
X1180Y132D01*
X0Y131D02*
X7Y131D01*
X1173Y131D02*
X1180Y131D01*
X0Y130D02*
X7Y130D01*
X1173Y130D02*
X1180Y130D01*
X0Y129D02*
X7Y129D01*
X1173Y129D02*
X1180Y129D01*
X0Y128D02*
X7Y128D01*
X1173Y128D02*
X1180Y128D01*
X0Y127D02*
X7Y127D01*
X1173Y127D02*
X1180Y127D01*
X0Y126D02*
X7Y126D01*
X1173Y126D02*
X1180Y126D01*
X0Y125D02*
X7Y125D01*
X977Y125D02*
X977Y125D01*
X1173Y125D02*
X1180Y125D01*
X0Y124D02*
X7Y124D01*
X366Y124D02*
X368Y124D01*
X414Y124D02*
X446Y124D01*
X464Y124D02*
X467Y124D01*
X492Y124D02*
X495Y124D01*
X977Y124D02*
X978Y124D01*
X1173Y124D02*
X1180Y124D01*
X0Y123D02*
X7Y123D01*
X365Y123D02*
X369Y123D01*
X413Y123D02*
X446Y123D01*
X463Y123D02*
X468Y123D01*
X490Y123D02*
X496Y123D01*
X977Y123D02*
X979Y123D01*
X1173Y123D02*
X1180Y123D01*
X0Y122D02*
X7Y122D01*
X364Y122D02*
X370Y122D01*
X413Y122D02*
X446Y122D01*
X463Y122D02*
X468Y122D01*
X489Y122D02*
X496Y122D01*
X977Y122D02*
X980Y122D01*
X1173Y122D02*
X1180Y122D01*
X0Y121D02*
X7Y121D01*
X364Y121D02*
X370Y121D01*
X412Y121D02*
X446Y121D01*
X463Y121D02*
X469Y121D01*
X488Y121D02*
X496Y121D01*
X977Y121D02*
X981Y121D01*
X1173Y121D02*
X1180Y121D01*
X0Y120D02*
X7Y120D01*
X364Y120D02*
X370Y120D01*
X412Y120D02*
X446Y120D01*
X463Y120D02*
X469Y120D01*
X487Y120D02*
X496Y120D01*
X977Y120D02*
X982Y120D01*
X1173Y120D02*
X1180Y120D01*
X0Y119D02*
X7Y119D01*
X364Y119D02*
X370Y119D01*
X412Y119D02*
X446Y119D01*
X463Y119D02*
X469Y119D01*
X486Y119D02*
X495Y119D01*
X977Y119D02*
X983Y119D01*
X1173Y119D02*
X1180Y119D01*
X0Y118D02*
X7Y118D01*
X364Y118D02*
X370Y118D01*
X386Y118D02*
X389Y118D01*
X412Y118D02*
X446Y118D01*
X463Y118D02*
X469Y118D01*
X485Y118D02*
X494Y118D01*
X978Y118D02*
X983Y118D01*
X1173Y118D02*
X1180Y118D01*
X0Y117D02*
X7Y117D01*
X364Y117D02*
X370Y117D01*
X385Y117D02*
X390Y117D01*
X413Y117D02*
X418Y117D01*
X440Y117D02*
X446Y117D01*
X463Y117D02*
X469Y117D01*
X483Y117D02*
X493Y117D01*
X979Y117D02*
X982Y117D01*
X1173Y117D02*
X1180Y117D01*
X0Y116D02*
X7Y116D01*
X364Y116D02*
X370Y116D01*
X385Y116D02*
X390Y116D01*
X413Y116D02*
X418Y116D01*
X440Y116D02*
X446Y116D01*
X463Y116D02*
X469Y116D01*
X482Y116D02*
X492Y116D01*
X980Y116D02*
X981Y116D01*
X1173Y116D02*
X1180Y116D01*
X0Y115D02*
X7Y115D01*
X364Y115D02*
X370Y115D01*
X385Y115D02*
X391Y115D01*
X415Y115D02*
X416Y115D01*
X440Y115D02*
X446Y115D01*
X463Y115D02*
X469Y115D01*
X481Y115D02*
X491Y115D01*
X1173Y115D02*
X1180Y115D01*
X0Y114D02*
X7Y114D01*
X364Y114D02*
X370Y114D01*
X385Y114D02*
X391Y114D01*
X440Y114D02*
X446Y114D01*
X463Y114D02*
X469Y114D01*
X480Y114D02*
X490Y114D01*
X1173Y114D02*
X1180Y114D01*
X0Y113D02*
X7Y113D01*
X364Y113D02*
X370Y113D01*
X385Y113D02*
X391Y113D01*
X440Y113D02*
X446Y113D01*
X463Y113D02*
X469Y113D01*
X479Y113D02*
X489Y113D01*
X1173Y113D02*
X1180Y113D01*
X0Y112D02*
X7Y112D01*
X364Y112D02*
X370Y112D01*
X385Y112D02*
X391Y112D01*
X440Y112D02*
X446Y112D01*
X463Y112D02*
X469Y112D01*
X478Y112D02*
X487Y112D01*
X1173Y112D02*
X1180Y112D01*
X0Y111D02*
X7Y111D01*
X364Y111D02*
X370Y111D01*
X385Y111D02*
X391Y111D01*
X440Y111D02*
X446Y111D01*
X463Y111D02*
X469Y111D01*
X476Y111D02*
X486Y111D01*
X1173Y111D02*
X1180Y111D01*
X0Y110D02*
X7Y110D01*
X364Y110D02*
X370Y110D01*
X385Y110D02*
X391Y110D01*
X440Y110D02*
X446Y110D01*
X463Y110D02*
X469Y110D01*
X475Y110D02*
X485Y110D01*
X1173Y110D02*
X1180Y110D01*
X0Y109D02*
X7Y109D01*
X364Y109D02*
X370Y109D01*
X385Y109D02*
X391Y109D01*
X440Y109D02*
X446Y109D01*
X463Y109D02*
X469Y109D01*
X474Y109D02*
X484Y109D01*
X1173Y109D02*
X1180Y109D01*
X0Y108D02*
X7Y108D01*
X364Y108D02*
X370Y108D01*
X385Y108D02*
X391Y108D01*
X440Y108D02*
X446Y108D01*
X463Y108D02*
X469Y108D01*
X473Y108D02*
X483Y108D01*
X1173Y108D02*
X1180Y108D01*
X0Y107D02*
X7Y107D01*
X364Y107D02*
X370Y107D01*
X385Y107D02*
X391Y107D01*
X440Y107D02*
X446Y107D01*
X463Y107D02*
X469Y107D01*
X472Y107D02*
X482Y107D01*
X1173Y107D02*
X1180Y107D01*
X0Y106D02*
X7Y106D01*
X364Y106D02*
X370Y106D01*
X385Y106D02*
X391Y106D01*
X440Y106D02*
X446Y106D01*
X463Y106D02*
X469Y106D01*
X471Y106D02*
X480Y106D01*
X1173Y106D02*
X1180Y106D01*
X0Y105D02*
X7Y105D01*
X364Y105D02*
X370Y105D01*
X385Y105D02*
X391Y105D01*
X440Y105D02*
X446Y105D01*
X463Y105D02*
X479Y105D01*
X1173Y105D02*
X1180Y105D01*
X0Y104D02*
X7Y104D01*
X260Y104D02*
X326Y104D01*
X364Y104D02*
X370Y104D01*
X385Y104D02*
X391Y104D01*
X439Y104D02*
X446Y104D01*
X463Y104D02*
X478Y104D01*
X527Y104D02*
X575Y104D01*
X1173Y104D02*
X1180Y104D01*
X0Y103D02*
X7Y103D01*
X260Y103D02*
X326Y103D01*
X364Y103D02*
X370Y103D01*
X385Y103D02*
X391Y103D01*
X438Y103D02*
X446Y103D01*
X463Y103D02*
X477Y103D01*
X527Y103D02*
X574Y103D01*
X1173Y103D02*
X1180Y103D01*
X0Y102D02*
X7Y102D01*
X260Y102D02*
X326Y102D01*
X364Y102D02*
X370Y102D01*
X385Y102D02*
X391Y102D01*
X436Y102D02*
X446Y102D01*
X463Y102D02*
X476Y102D01*
X527Y102D02*
X574Y102D01*
X1173Y102D02*
X1180Y102D01*
X0Y101D02*
X7Y101D01*
X260Y101D02*
X326Y101D01*
X364Y101D02*
X370Y101D01*
X385Y101D02*
X391Y101D01*
X435Y101D02*
X445Y101D01*
X463Y101D02*
X475Y101D01*
X527Y101D02*
X574Y101D01*
X1173Y101D02*
X1180Y101D01*
X0Y100D02*
X7Y100D01*
X260Y100D02*
X326Y100D01*
X364Y100D02*
X370Y100D01*
X385Y100D02*
X391Y100D01*
X434Y100D02*
X444Y100D01*
X463Y100D02*
X473Y100D01*
X527Y100D02*
X574Y100D01*
X1173Y100D02*
X1180Y100D01*
X0Y99D02*
X7Y99D01*
X260Y99D02*
X326Y99D01*
X364Y99D02*
X370Y99D01*
X385Y99D02*
X391Y99D01*
X433Y99D02*
X443Y99D01*
X463Y99D02*
X472Y99D01*
X527Y99D02*
X574Y99D01*
X1173Y99D02*
X1180Y99D01*
X0Y98D02*
X7Y98D01*
X260Y98D02*
X326Y98D01*
X364Y98D02*
X370Y98D01*
X385Y98D02*
X391Y98D01*
X432Y98D02*
X442Y98D01*
X463Y98D02*
X471Y98D01*
X527Y98D02*
X574Y98D01*
X1173Y98D02*
X1180Y98D01*
X0Y97D02*
X7Y97D01*
X260Y97D02*
X326Y97D01*
X364Y97D02*
X370Y97D01*
X385Y97D02*
X391Y97D01*
X431Y97D02*
X440Y97D01*
X463Y97D02*
X471Y97D01*
X527Y97D02*
X574Y97D01*
X1173Y97D02*
X1180Y97D01*
X0Y96D02*
X7Y96D01*
X260Y96D02*
X326Y96D01*
X364Y96D02*
X370Y96D01*
X385Y96D02*
X391Y96D01*
X429Y96D02*
X439Y96D01*
X463Y96D02*
X472Y96D01*
X527Y96D02*
X575Y96D01*
X1173Y96D02*
X1180Y96D01*
X0Y95D02*
X7Y95D01*
X260Y95D02*
X326Y95D01*
X364Y95D02*
X392Y95D01*
X428Y95D02*
X438Y95D01*
X463Y95D02*
X473Y95D01*
X528Y95D02*
X575Y95D01*
X1173Y95D02*
X1180Y95D01*
X0Y94D02*
X7Y94D01*
X364Y94D02*
X393Y94D01*
X427Y94D02*
X437Y94D01*
X463Y94D02*
X475Y94D01*
X1173Y94D02*
X1180Y94D01*
X0Y93D02*
X7Y93D01*
X364Y93D02*
X394Y93D01*
X426Y93D02*
X436Y93D01*
X463Y93D02*
X476Y93D01*
X1173Y93D02*
X1180Y93D01*
X0Y92D02*
X7Y92D01*
X364Y92D02*
X394Y92D01*
X426Y92D02*
X434Y92D01*
X463Y92D02*
X477Y92D01*
X1173Y92D02*
X1180Y92D01*
X0Y91D02*
X7Y91D01*
X364Y91D02*
X394Y91D01*
X426Y91D02*
X433Y91D01*
X463Y91D02*
X478Y91D01*
X1173Y91D02*
X1180Y91D01*
X0Y90D02*
X7Y90D01*
X364Y90D02*
X394Y90D01*
X426Y90D02*
X432Y90D01*
X463Y90D02*
X479Y90D01*
X1173Y90D02*
X1180Y90D01*
X0Y89D02*
X7Y89D01*
X364Y89D02*
X393Y89D01*
X426Y89D02*
X432Y89D01*
X463Y89D02*
X469Y89D01*
X471Y89D02*
X480Y89D01*
X1173Y89D02*
X1180Y89D01*
X0Y88D02*
X7Y88D01*
X384Y88D02*
X391Y88D01*
X426Y88D02*
X432Y88D01*
X463Y88D02*
X469Y88D01*
X472Y88D02*
X482Y88D01*
X1173Y88D02*
X1180Y88D01*
X0Y87D02*
X7Y87D01*
X385Y87D02*
X391Y87D01*
X426Y87D02*
X432Y87D01*
X463Y87D02*
X469Y87D01*
X473Y87D02*
X483Y87D01*
X1173Y87D02*
X1180Y87D01*
X0Y86D02*
X7Y86D01*
X385Y86D02*
X391Y86D01*
X426Y86D02*
X432Y86D01*
X463Y86D02*
X469Y86D01*
X474Y86D02*
X484Y86D01*
X1173Y86D02*
X1180Y86D01*
X0Y85D02*
X7Y85D01*
X385Y85D02*
X391Y85D01*
X426Y85D02*
X432Y85D01*
X463Y85D02*
X469Y85D01*
X475Y85D02*
X485Y85D01*
X1173Y85D02*
X1180Y85D01*
X0Y84D02*
X7Y84D01*
X385Y84D02*
X391Y84D01*
X426Y84D02*
X432Y84D01*
X463Y84D02*
X469Y84D01*
X477Y84D02*
X486Y84D01*
X1173Y84D02*
X1180Y84D01*
X0Y83D02*
X7Y83D01*
X385Y83D02*
X391Y83D01*
X426Y83D02*
X432Y83D01*
X463Y83D02*
X469Y83D01*
X478Y83D02*
X488Y83D01*
X1173Y83D02*
X1180Y83D01*
X0Y82D02*
X7Y82D01*
X385Y82D02*
X391Y82D01*
X426Y82D02*
X432Y82D01*
X463Y82D02*
X469Y82D01*
X479Y82D02*
X489Y82D01*
X1173Y82D02*
X1180Y82D01*
X0Y81D02*
X7Y81D01*
X385Y81D02*
X391Y81D01*
X426Y81D02*
X432Y81D01*
X463Y81D02*
X469Y81D01*
X480Y81D02*
X490Y81D01*
X1173Y81D02*
X1180Y81D01*
X0Y80D02*
X7Y80D01*
X385Y80D02*
X391Y80D01*
X426Y80D02*
X432Y80D01*
X463Y80D02*
X469Y80D01*
X481Y80D02*
X491Y80D01*
X1173Y80D02*
X1180Y80D01*
X0Y79D02*
X7Y79D01*
X385Y79D02*
X391Y79D01*
X426Y79D02*
X432Y79D01*
X463Y79D02*
X469Y79D01*
X482Y79D02*
X492Y79D01*
X1173Y79D02*
X1180Y79D01*
X0Y78D02*
X7Y78D01*
X385Y78D02*
X391Y78D01*
X426Y78D02*
X432Y78D01*
X463Y78D02*
X469Y78D01*
X484Y78D02*
X493Y78D01*
X1173Y78D02*
X1180Y78D01*
X0Y77D02*
X7Y77D01*
X385Y77D02*
X391Y77D01*
X426Y77D02*
X432Y77D01*
X463Y77D02*
X469Y77D01*
X485Y77D02*
X495Y77D01*
X1173Y77D02*
X1180Y77D01*
X0Y76D02*
X7Y76D01*
X385Y76D02*
X391Y76D01*
X426Y76D02*
X432Y76D01*
X463Y76D02*
X469Y76D01*
X486Y76D02*
X495Y76D01*
X1173Y76D02*
X1180Y76D01*
X0Y75D02*
X7Y75D01*
X385Y75D02*
X391Y75D01*
X426Y75D02*
X432Y75D01*
X463Y75D02*
X469Y75D01*
X487Y75D02*
X496Y75D01*
X1173Y75D02*
X1180Y75D01*
X0Y74D02*
X7Y74D01*
X385Y74D02*
X391Y74D01*
X426Y74D02*
X432Y74D01*
X463Y74D02*
X469Y74D01*
X488Y74D02*
X496Y74D01*
X1173Y74D02*
X1180Y74D01*
X0Y73D02*
X7Y73D01*
X385Y73D02*
X390Y73D01*
X426Y73D02*
X432Y73D01*
X463Y73D02*
X468Y73D01*
X489Y73D02*
X496Y73D01*
X1173Y73D02*
X1180Y73D01*
X0Y72D02*
X7Y72D01*
X385Y72D02*
X390Y72D01*
X427Y72D02*
X431Y72D01*
X463Y72D02*
X468Y72D01*
X491Y72D02*
X496Y72D01*
X1173Y72D02*
X1180Y72D01*
X0Y71D02*
X7Y71D01*
X386Y71D02*
X389Y71D01*
X428Y71D02*
X430Y71D01*
X464Y71D02*
X467Y71D01*
X492Y71D02*
X494Y71D01*
X1173Y71D02*
X1180Y71D01*
X0Y70D02*
X7Y70D01*
X1173Y70D02*
X1180Y70D01*
X0Y69D02*
X7Y69D01*
X1173Y69D02*
X1180Y69D01*
X0Y68D02*
X7Y68D01*
X1173Y68D02*
X1180Y68D01*
X0Y67D02*
X7Y67D01*
X1173Y67D02*
X1180Y67D01*
X0Y66D02*
X7Y66D01*
X1173Y66D02*
X1180Y66D01*
X0Y65D02*
X7Y65D01*
X1173Y65D02*
X1180Y65D01*
X0Y64D02*
X7Y64D01*
X1173Y64D02*
X1180Y64D01*
X0Y63D02*
X7Y63D01*
X1173Y63D02*
X1180Y63D01*
X0Y62D02*
X7Y62D01*
X1173Y62D02*
X1180Y62D01*
X0Y61D02*
X7Y61D01*
X1173Y61D02*
X1180Y61D01*
X0Y60D02*
X7Y60D01*
X1173Y60D02*
X1180Y60D01*
X0Y59D02*
X7Y59D01*
X1173Y59D02*
X1180Y59D01*
X0Y58D02*
X7Y58D01*
X1173Y58D02*
X1180Y58D01*
X0Y57D02*
X7Y57D01*
X1173Y57D02*
X1180Y57D01*
X0Y56D02*
X7Y56D01*
X1173Y56D02*
X1180Y56D01*
X0Y55D02*
X7Y55D01*
X1173Y55D02*
X1180Y55D01*
X0Y54D02*
X7Y54D01*
X1173Y54D02*
X1180Y54D01*
X0Y53D02*
X7Y53D01*
X1173Y53D02*
X1180Y53D01*
X0Y52D02*
X7Y52D01*
X1173Y52D02*
X1180Y52D01*
X0Y51D02*
X7Y51D01*
X1173Y51D02*
X1180Y51D01*
X0Y50D02*
X7Y50D01*
X1173Y50D02*
X1180Y50D01*
X0Y49D02*
X7Y49D01*
X1173Y49D02*
X1180Y49D01*
X0Y48D02*
X7Y48D01*
X1173Y48D02*
X1180Y48D01*
X0Y47D02*
X7Y47D01*
X1173Y47D02*
X1180Y47D01*
X0Y46D02*
X7Y46D01*
X1173Y46D02*
X1180Y46D01*
X0Y45D02*
X7Y45D01*
X1173Y45D02*
X1180Y45D01*
X0Y44D02*
X7Y44D01*
X1173Y44D02*
X1180Y44D01*
X0Y43D02*
X7Y43D01*
X1173Y43D02*
X1180Y43D01*
X0Y42D02*
X7Y42D01*
X1173Y42D02*
X1180Y42D01*
X0Y41D02*
X7Y41D01*
X1173Y41D02*
X1180Y41D01*
X0Y40D02*
X7Y40D01*
X1173Y40D02*
X1180Y40D01*
X0Y39D02*
X7Y39D01*
X1173Y39D02*
X1180Y39D01*
X0Y38D02*
X7Y38D01*
X1173Y38D02*
X1180Y38D01*
X0Y37D02*
X7Y37D01*
X1173Y37D02*
X1180Y37D01*
X0Y36D02*
X7Y36D01*
X1173Y36D02*
X1180Y36D01*
X0Y35D02*
X7Y35D01*
X1173Y35D02*
X1180Y35D01*
X0Y34D02*
X7Y34D01*
X1173Y34D02*
X1180Y34D01*
X0Y33D02*
X7Y33D01*
X1173Y33D02*
X1180Y33D01*
X0Y32D02*
X7Y32D01*
X1173Y32D02*
X1180Y32D01*
X0Y31D02*
X7Y31D01*
X1173Y31D02*
X1180Y31D01*
X0Y30D02*
X7Y30D01*
X1173Y30D02*
X1180Y30D01*
X0Y29D02*
X7Y29D01*
X1173Y29D02*
X1180Y29D01*
X0Y28D02*
X7Y28D01*
X1173Y28D02*
X1180Y28D01*
X0Y27D02*
X7Y27D01*
X1173Y27D02*
X1180Y27D01*
X0Y26D02*
X7Y26D01*
X1173Y26D02*
X1180Y26D01*
X0Y25D02*
X7Y25D01*
X1173Y25D02*
X1180Y25D01*
X0Y24D02*
X7Y24D01*
X1173Y24D02*
X1180Y24D01*
X0Y23D02*
X7Y23D01*
X1173Y23D02*
X1180Y23D01*
X0Y22D02*
X7Y22D01*
X1173Y22D02*
X1180Y22D01*
X0Y21D02*
X7Y21D01*
X1173Y21D02*
X1180Y21D01*
X0Y20D02*
X7Y20D01*
X1173Y20D02*
X1180Y20D01*
X0Y19D02*
X7Y19D01*
X1173Y19D02*
X1180Y19D01*
X0Y18D02*
X7Y18D01*
X1173Y18D02*
X1180Y18D01*
X0Y17D02*
X7Y17D01*
X1173Y17D02*
X1180Y17D01*
X0Y16D02*
X7Y16D01*
X1173Y16D02*
X1180Y16D01*
X0Y15D02*
X7Y15D01*
X1173Y15D02*
X1180Y15D01*
X0Y14D02*
X7Y14D01*
X1173Y14D02*
X1180Y14D01*
X0Y13D02*
X7Y13D01*
X1173Y13D02*
X1180Y13D01*
X0Y12D02*
X7Y12D01*
X1173Y12D02*
X1180Y12D01*
X0Y11D02*
X7Y11D01*
X1173Y11D02*
X1180Y11D01*
X0Y10D02*
X7Y10D01*
X1173Y10D02*
X1180Y10D01*
X0Y9D02*
X7Y9D01*
X1173Y9D02*
X1180Y9D01*
X0Y8D02*
X1180Y8D01*
X0Y7D02*
X1180Y7D01*
X0Y6D02*
X1180Y6D01*
X0Y5D02*
X1180Y5D01*
X0Y4D02*
X1180Y4D01*
X0Y3D02*
X1180Y3D01*
X0Y2D02*
X1180Y2D01*
X0Y1D02*
X1180Y1D01*
D02*
G04 End of Silk1*
M02*