; NON-PLATED HOLES START AT T1
; THROUGH (PLATED) HOLES START AT T100
M48
INCH
T1C0.086614
T2C0.125984
T100C0.040000
T101C0.086614
T102C0.038000
T103C0.044139
T104C0.035000
T105C0.088356
T106C0.055118
T107C0.044111
T108C0.030000
%
T1
X026777Y000779
X000772Y011038
X000777Y000779
X026777Y011033
T2
X020114Y002461
X020125Y009508
T100
X025077Y009675
X025083Y003670
X025075Y005292
X025083Y002292
X025077Y008298
X025075Y006670
T101
X006454Y006790
X002555Y006790
T102
X008898Y005708
X008898Y004708
X008898Y003708
T103
X005506Y003840
T104
X014894Y004862
X011576Y004849
X014894Y003862
X014894Y005862
X011576Y008849
T105
X006448Y006792
X002565Y006792
T106
X022214Y007852
X018001Y004112
X022214Y004112
X017996Y006028
X018001Y007852
T107
X003506Y003840
X004506Y003839
T108
X013099Y004859
X014900Y006853
X013099Y005860
X014900Y007855
T00
M30
