; NON-PLATED HOLES START AT T1
; THROUGH (PLATED) HOLES START AT T100
M48
INCH
T1C0.086614
T100C0.035000
T101C0.086614
T102C0.040000
T103C0.038000
T104C0.044139
T105C0.044111
T106C0.088356
%
T1
X000777Y011033
X000777Y000774
X026774Y011033
X026776Y000782
T100
X021770Y006182
X014771Y010182
X017761Y007056
X021775Y005176
X014771Y006182
X017492Y004308
X015776Y001182
X020056Y007062
X017492Y002308
X020056Y008062
X015773Y010177
X015776Y005182
X019785Y003314
X017492Y003308
X022771Y006184
X022771Y010184
X022775Y005181
X019785Y002314
X022775Y001181
X015773Y006177
X021770Y010182
X017761Y008056
X021775Y001176
X017761Y009056
X020056Y009062
X019785Y004314
T101
X009168Y008278
X005270Y008278
T102
X025079Y007493
X006545Y002228
X011922Y002237
X025079Y008871
X010544Y002237
X002537Y002228
X007923Y002228
X003915Y002228
T103
X025080Y003609
X025080Y002609
X025080Y004609
T104
X008234Y005342
T105
X007234Y005342
X006234Y005342
T106
X005293Y008295
X009176Y008295
T00
M30
