G04 MADE WITH FRITZING*
G04 WWW.FRITZING.ORG*
G04 DOUBLE SIDED*
G04 HOLES PLATED*
G04 CONTOUR ON CENTER OF CONTOUR VECTOR*
%ASAXBY*%
%FSLAX23Y23*%
%MOIN*%
%OFA0B0*%
%SFA1.0B1.0*%
%ADD10C,0.075000*%
%ADD11C,0.080000*%
%ADD12C,0.071889*%
%ADD13C,0.071917*%
%ADD14C,0.124033*%
%ADD15C,0.078000*%
%ADD16C,0.125984*%
%ADD17R,0.080000X0.080000*%
%ADD18R,0.078000X0.078000*%
%ADD19C,0.024000*%
%LNCOPPER1*%
G90*
G70*
G54D10*
X1578Y518D03*
X1578Y118D03*
X1577Y618D03*
X1577Y1018D03*
X2278Y118D03*
X2278Y518D03*
X2277Y1018D03*
X2277Y618D03*
X1477Y618D03*
X1477Y1018D03*
X2177Y1018D03*
X2177Y618D03*
X2178Y118D03*
X2178Y518D03*
G54D11*
X2508Y887D03*
X2508Y749D03*
G54D10*
X1749Y231D03*
X1749Y331D03*
X1749Y431D03*
X1979Y231D03*
X1979Y331D03*
X1979Y431D03*
X1776Y906D03*
X1776Y806D03*
X1776Y706D03*
X2006Y906D03*
X2006Y806D03*
X2006Y706D03*
G54D12*
X623Y534D03*
X723Y534D03*
G54D13*
X823Y534D03*
G54D14*
X529Y830D03*
X918Y830D03*
G54D15*
X2508Y461D03*
X2508Y361D03*
X2508Y261D03*
G54D11*
X792Y223D03*
X655Y223D03*
X392Y223D03*
X254Y223D03*
X1192Y224D03*
X1054Y224D03*
G54D16*
X527Y828D03*
X917Y828D03*
G54D17*
X2508Y887D03*
G54D18*
X2508Y461D03*
G54D17*
X792Y223D03*
X392Y223D03*
X1192Y224D03*
G54D19*
X2302Y1004D02*
X2481Y903D01*
D02*
X924Y224D02*
X1023Y224D01*
D02*
X723Y435D02*
X924Y224D01*
D02*
X1477Y50D02*
X523Y50D01*
D02*
X523Y50D02*
X410Y198D01*
D02*
X1477Y590D02*
X1477Y50D01*
D02*
X2297Y139D02*
X2487Y339D01*
D02*
X723Y501D02*
X723Y435D01*
D02*
X1577Y589D02*
X1578Y547D01*
D02*
X1578Y349D02*
X1578Y147D01*
D02*
X1723Y419D02*
X1578Y349D01*
D02*
X1706Y706D02*
X1588Y991D01*
D02*
X1748Y706D02*
X1706Y706D01*
D02*
X2277Y590D02*
X2277Y547D01*
D02*
X2048Y331D02*
X2163Y142D01*
D02*
X2007Y331D02*
X2048Y331D01*
D02*
X2153Y1003D02*
X2030Y922D01*
D02*
X1805Y906D02*
X1977Y906D01*
D02*
X2206Y1018D02*
X2248Y1018D01*
D02*
X2508Y491D02*
X2508Y718D01*
D02*
X2177Y732D02*
X2032Y795D01*
D02*
X2177Y647D02*
X2177Y732D01*
D02*
X2177Y546D02*
X2177Y590D01*
D02*
X1802Y794D02*
X1979Y718D01*
D02*
X1775Y342D02*
X1952Y420D01*
D02*
X2217Y50D02*
X1749Y50D01*
D02*
X1749Y50D02*
X1749Y202D01*
D02*
X2259Y97D02*
X2217Y50D01*
D02*
X1477Y50D02*
X1979Y50D01*
D02*
X1979Y50D02*
X1979Y203D01*
D02*
X1477Y590D02*
X1477Y50D01*
D02*
X1950Y231D02*
X1778Y231D01*
G04 End of Copper1*
M02*