; NON-PLATED HOLES START AT T1
; THROUGH (PLATED) HOLES START AT T100
M48
INCH
T1C0.086614
T2C0.125984
T100C0.040000
T101C0.038000
T102C0.035000
T103C0.055118
T104C0.030000
%
T1
X011027Y000783
X000777Y011033
X000777Y000783
X011027Y011033
T2
X005437Y009492
X005436Y002444
T100
X009333Y003771
X009330Y005392
X009327Y008395
X009333Y002393
X009327Y009773
X009330Y006770
T101
X008325Y001015
X007325Y001015
X009325Y001015
T102
X001709Y002102
X000873Y005971
X001709Y003102
X001709Y004102
X000873Y009971
X006078Y001010
X002078Y001010
T103
X007527Y007836
X007527Y004096
X003315Y007836
X003312Y005973
X003315Y004096
T104
X001720Y006460
X001720Y005458
X001724Y008839
X001724Y007837
T00
M30
