G04 MADE WITH FRITZING*
G04 WWW.FRITZING.ORG*
G04 DOUBLE SIDED*
G04 HOLES PLATED*
G04 CONTOUR ON CENTER OF CONTOUR VECTOR*
%ASAXBY*%
%FSLAX23Y23*%
%MOIN*%
%OFA0B0*%
%SFA1.0B1.0*%
%ADD10C,0.078000*%
%ADD11C,0.075000*%
%ADD12C,0.070000*%
%ADD13C,0.080000*%
%ADD14C,0.075118*%
%ADD15C,0.074803*%
%ADD16R,0.078000X0.078000*%
%ADD17R,0.080000X0.080000*%
%ADD18C,0.024000*%
%LNCOPPER1*%
G90*
G70*
G54D10*
X933Y102D03*
X833Y102D03*
X733Y102D03*
G54D11*
X208Y101D03*
X608Y101D03*
X87Y597D03*
X87Y997D03*
X171Y410D03*
X171Y310D03*
X171Y210D03*
G54D12*
X172Y884D03*
X172Y784D03*
X172Y546D03*
X172Y646D03*
G54D13*
X933Y677D03*
X933Y539D03*
X933Y977D03*
X933Y840D03*
X933Y377D03*
X933Y239D03*
G54D14*
X753Y784D03*
X332Y784D03*
X332Y410D03*
X753Y410D03*
X753Y784D03*
X332Y784D03*
X332Y410D03*
X753Y410D03*
G54D15*
X331Y597D03*
G54D16*
X933Y102D03*
G54D17*
X933Y677D03*
X933Y977D03*
X933Y377D03*
G54D18*
X87Y310D02*
X142Y310D01*
D02*
X87Y569D02*
X87Y310D01*
D02*
X88Y163D02*
X88Y310D01*
D02*
X88Y310D02*
X142Y310D01*
D02*
X182Y114D02*
X88Y163D01*
D02*
X87Y826D02*
X151Y869D01*
D02*
X87Y626D02*
X87Y826D01*
D02*
X668Y178D02*
X625Y124D01*
D02*
X770Y178D02*
X668Y178D01*
D02*
X813Y125D02*
X770Y178D01*
D02*
X368Y101D02*
X579Y101D01*
D02*
X196Y196D02*
X368Y101D01*
D02*
X158Y1039D02*
X112Y1012D01*
D02*
X828Y1039D02*
X158Y1039D01*
D02*
X906Y993D02*
X828Y1039D01*
D02*
X199Y784D02*
X293Y784D01*
D02*
X172Y672D02*
X172Y758D01*
D02*
X835Y309D02*
X678Y309D01*
D02*
X678Y309D02*
X361Y573D01*
D02*
X908Y359D02*
X835Y309D01*
D02*
X1040Y457D02*
X1040Y757D01*
D02*
X1040Y757D02*
X957Y821D01*
D02*
X958Y396D02*
X1040Y457D01*
D02*
X200Y410D02*
X293Y410D01*
D02*
X171Y439D02*
X172Y520D01*
D02*
X906Y693D02*
X786Y764D01*
D02*
X908Y521D02*
X784Y432D01*
D02*
X933Y132D02*
X933Y208D01*
G04 End of Copper1*
M02*