G04 MADE WITH FRITZING*
G04 WWW.FRITZING.ORG*
G04 DOUBLE SIDED*
G04 HOLES PLATED*
G04 CONTOUR ON CENTER OF CONTOUR VECTOR*
%ASAXBY*%
%FSLAX23Y23*%
%MOIN*%
%OFA0B0*%
%SFA1.0B1.0*%
%ADD10R,0.001000X0.001000*%
%LNSILK0*%
G90*
G70*
G36*
X447Y770D02*
X447Y763D01*
X449Y763D01*
X449Y755D01*
X450Y755D01*
X450Y747D01*
X452Y747D01*
X452Y739D01*
X447Y739D01*
X447Y742D01*
X445Y742D01*
X445Y745D01*
X444Y745D01*
X444Y758D01*
X442Y758D01*
X442Y770D01*
X447Y770D01*
G37*
D02*
G36*
X403Y763D02*
X403Y760D01*
X404Y760D01*
X404Y757D01*
X406Y757D01*
X406Y753D01*
X408Y753D01*
X408Y748D01*
X409Y748D01*
X409Y743D01*
X411Y743D01*
X411Y740D01*
X413Y740D01*
X413Y737D01*
X414Y737D01*
X414Y732D01*
X416Y732D01*
X416Y729D01*
X414Y729D01*
X414Y727D01*
X411Y727D01*
X411Y729D01*
X409Y729D01*
X409Y734D01*
X408Y734D01*
X408Y737D01*
X406Y737D01*
X406Y740D01*
X404Y740D01*
X404Y743D01*
X403Y743D01*
X403Y748D01*
X401Y748D01*
X401Y755D01*
X400Y755D01*
X400Y758D01*
X398Y758D01*
X398Y763D01*
X403Y763D01*
G37*
D02*
G36*
X350Y735D02*
X350Y734D01*
X352Y734D01*
X352Y732D01*
X354Y732D01*
X354Y729D01*
X355Y729D01*
X355Y727D01*
X357Y727D01*
X357Y725D01*
X362Y725D01*
X362Y724D01*
X363Y724D01*
X363Y722D01*
X365Y722D01*
X365Y721D01*
X368Y721D01*
X368Y719D01*
X372Y719D01*
X372Y717D01*
X373Y717D01*
X373Y716D01*
X377Y716D01*
X377Y714D01*
X380Y714D01*
X380Y712D01*
X381Y712D01*
X381Y709D01*
X377Y709D01*
X377Y711D01*
X373Y711D01*
X373Y712D01*
X370Y712D01*
X370Y714D01*
X368Y714D01*
X368Y716D01*
X365Y716D01*
X365Y717D01*
X362Y717D01*
X362Y719D01*
X359Y719D01*
X359Y722D01*
X354Y722D01*
X354Y724D01*
X352Y724D01*
X352Y725D01*
X350Y725D01*
X350Y727D01*
X347Y727D01*
X347Y729D01*
X345Y729D01*
X345Y730D01*
X344Y730D01*
X344Y735D01*
X350Y735D01*
G37*
D02*
G36*
X613Y745D02*
X613Y743D01*
X619Y743D01*
X619Y742D01*
X623Y742D01*
X623Y740D01*
X624Y740D01*
X624Y737D01*
X605Y737D01*
X605Y735D01*
X601Y735D01*
X601Y734D01*
X600Y734D01*
X600Y732D01*
X598Y732D01*
X598Y730D01*
X596Y730D01*
X596Y727D01*
X595Y727D01*
X595Y724D01*
X593Y724D01*
X593Y717D01*
X591Y717D01*
X591Y714D01*
X593Y714D01*
X593Y706D01*
X595Y706D01*
X595Y704D01*
X603Y704D01*
X603Y702D01*
X585Y702D01*
X585Y721D01*
X587Y721D01*
X587Y727D01*
X588Y727D01*
X588Y730D01*
X590Y730D01*
X590Y734D01*
X591Y734D01*
X591Y735D01*
X593Y735D01*
X593Y737D01*
X595Y737D01*
X595Y739D01*
X596Y739D01*
X596Y742D01*
X601Y742D01*
X601Y743D01*
X606Y743D01*
X606Y745D01*
X613Y745D01*
G37*
D02*
G36*
X626Y737D02*
X626Y735D01*
X628Y735D01*
X628Y734D01*
X629Y734D01*
X629Y732D01*
X631Y732D01*
X631Y729D01*
X624Y729D01*
X624Y730D01*
X623Y730D01*
X623Y734D01*
X621Y734D01*
X621Y735D01*
X616Y735D01*
X616Y737D01*
X626Y737D01*
G37*
D02*
G36*
X659Y732D02*
X659Y730D01*
X660Y730D01*
X660Y729D01*
X637Y729D01*
X637Y730D01*
X646Y730D01*
X646Y732D01*
X659Y732D01*
G37*
D02*
G36*
X662Y729D02*
X662Y727D01*
X626Y727D01*
X626Y729D01*
X662Y729D01*
G37*
D02*
G36*
X662Y729D02*
X662Y727D01*
X626Y727D01*
X626Y729D01*
X662Y729D01*
G37*
D02*
G36*
X664Y727D02*
X664Y725D01*
X665Y725D01*
X665Y724D01*
X644Y724D01*
X644Y722D01*
X636Y722D01*
X636Y721D01*
X632Y721D01*
X632Y719D01*
X631Y719D01*
X631Y721D01*
X629Y721D01*
X629Y722D01*
X628Y722D01*
X628Y725D01*
X626Y725D01*
X626Y727D01*
X664Y727D01*
G37*
D02*
G36*
X669Y724D02*
X669Y721D01*
X672Y721D01*
X672Y717D01*
X673Y717D01*
X673Y714D01*
X675Y714D01*
X675Y704D01*
X673Y704D01*
X673Y701D01*
X672Y701D01*
X672Y699D01*
X670Y699D01*
X670Y698D01*
X669Y698D01*
X669Y694D01*
X667Y694D01*
X667Y693D01*
X665Y693D01*
X665Y691D01*
X664Y691D01*
X664Y689D01*
X662Y689D01*
X662Y688D01*
X659Y688D01*
X659Y686D01*
X657Y686D01*
X657Y684D01*
X654Y684D01*
X654Y683D01*
X652Y683D01*
X652Y679D01*
X649Y679D01*
X649Y678D01*
X642Y678D01*
X642Y676D01*
X641Y676D01*
X641Y675D01*
X624Y675D01*
X624Y676D01*
X628Y676D01*
X628Y678D01*
X632Y678D01*
X632Y679D01*
X636Y679D01*
X636Y681D01*
X639Y681D01*
X639Y684D01*
X644Y684D01*
X644Y686D01*
X647Y686D01*
X647Y688D01*
X649Y688D01*
X649Y689D01*
X652Y689D01*
X652Y691D01*
X654Y691D01*
X654Y693D01*
X657Y693D01*
X657Y694D01*
X659Y694D01*
X659Y698D01*
X660Y698D01*
X660Y699D01*
X662Y699D01*
X662Y701D01*
X664Y701D01*
X664Y702D01*
X665Y702D01*
X665Y704D01*
X667Y704D01*
X667Y714D01*
X665Y714D01*
X665Y716D01*
X664Y716D01*
X664Y717D01*
X662Y717D01*
X662Y719D01*
X660Y719D01*
X660Y721D01*
X657Y721D01*
X657Y722D01*
X654Y722D01*
X654Y724D01*
X669Y724D01*
G37*
D02*
G36*
X570Y717D02*
X570Y716D01*
X572Y716D01*
X572Y712D01*
X573Y712D01*
X573Y711D01*
X575Y711D01*
X575Y709D01*
X565Y709D01*
X565Y707D01*
X557Y707D01*
X557Y706D01*
X555Y706D01*
X555Y704D01*
X552Y704D01*
X552Y702D01*
X554Y702D01*
X554Y699D01*
X541Y699D01*
X541Y701D01*
X537Y701D01*
X537Y707D01*
X539Y707D01*
X539Y711D01*
X549Y711D01*
X549Y712D01*
X552Y712D01*
X552Y714D01*
X557Y714D01*
X557Y716D01*
X564Y716D01*
X564Y717D01*
X570Y717D01*
G37*
D02*
G36*
X575Y709D02*
X575Y706D01*
X577Y706D01*
X577Y704D01*
X582Y704D01*
X582Y702D01*
X570Y702D01*
X570Y704D01*
X569Y704D01*
X569Y706D01*
X567Y706D01*
X567Y709D01*
X575Y709D01*
G37*
D02*
G36*
X626Y702D02*
X626Y701D01*
X569Y701D01*
X569Y702D01*
X626Y702D01*
G37*
D02*
G36*
X626Y702D02*
X626Y701D01*
X569Y701D01*
X569Y702D01*
X626Y702D01*
G37*
D02*
G36*
X626Y701D02*
X626Y699D01*
X564Y699D01*
X564Y701D01*
X626Y701D01*
G37*
D02*
G36*
X624Y699D02*
X624Y698D01*
X542Y698D01*
X542Y699D01*
X624Y699D01*
G37*
D02*
G36*
X624Y699D02*
X624Y698D01*
X542Y698D01*
X542Y699D01*
X624Y699D01*
G37*
D02*
G36*
X608Y698D02*
X608Y696D01*
X603Y696D01*
X603Y694D01*
X587Y694D01*
X587Y693D01*
X582Y693D01*
X582Y691D01*
X565Y691D01*
X565Y689D01*
X546Y689D01*
X546Y691D01*
X547Y691D01*
X547Y693D01*
X544Y693D01*
X544Y694D01*
X546Y694D01*
X546Y696D01*
X544Y696D01*
X544Y698D01*
X608Y698D01*
G37*
D02*
G36*
X603Y694D02*
X603Y689D01*
X605Y689D01*
X605Y688D01*
X606Y688D01*
X606Y686D01*
X608Y686D01*
X608Y684D01*
X610Y684D01*
X610Y681D01*
X611Y681D01*
X611Y679D01*
X614Y679D01*
X614Y678D01*
X616Y678D01*
X616Y676D01*
X619Y676D01*
X619Y675D01*
X605Y675D01*
X605Y676D01*
X603Y676D01*
X603Y678D01*
X601Y678D01*
X601Y679D01*
X600Y679D01*
X600Y683D01*
X598Y683D01*
X598Y684D01*
X596Y684D01*
X596Y688D01*
X595Y688D01*
X595Y689D01*
X593Y689D01*
X593Y691D01*
X591Y691D01*
X591Y693D01*
X588Y693D01*
X588Y694D01*
X603Y694D01*
G37*
D02*
G36*
X582Y691D02*
X582Y689D01*
X567Y689D01*
X567Y691D01*
X582Y691D01*
G37*
D02*
G36*
X580Y689D02*
X580Y688D01*
X546Y688D01*
X546Y689D01*
X580Y689D01*
G37*
D02*
G36*
X580Y689D02*
X580Y688D01*
X546Y688D01*
X546Y689D01*
X580Y689D01*
G37*
D02*
G36*
X578Y688D02*
X578Y684D01*
X577Y684D01*
X577Y683D01*
X575Y683D01*
X575Y681D01*
X567Y681D01*
X567Y679D01*
X562Y679D01*
X562Y678D01*
X559Y678D01*
X559Y676D01*
X550Y676D01*
X550Y678D01*
X547Y678D01*
X547Y679D01*
X546Y679D01*
X546Y681D01*
X544Y681D01*
X544Y684D01*
X546Y684D01*
X546Y688D01*
X578Y688D01*
G37*
D02*
G36*
X637Y675D02*
X637Y673D01*
X606Y673D01*
X606Y675D01*
X637Y675D01*
G37*
D02*
G36*
X637Y675D02*
X637Y673D01*
X606Y673D01*
X606Y675D01*
X637Y675D01*
G37*
D02*
G36*
X634Y673D02*
X634Y671D01*
X629Y671D01*
X629Y670D01*
X626Y670D01*
X626Y668D01*
X613Y668D01*
X613Y670D01*
X610Y670D01*
X610Y671D01*
X608Y671D01*
X608Y673D01*
X634Y673D01*
G37*
D02*
G36*
X772Y724D02*
X772Y719D01*
X770Y719D01*
X770Y717D01*
X769Y717D01*
X769Y716D01*
X767Y716D01*
X767Y712D01*
X765Y712D01*
X765Y711D01*
X764Y711D01*
X764Y704D01*
X767Y704D01*
X767Y702D01*
X778Y702D01*
X778Y701D01*
X782Y701D01*
X782Y699D01*
X783Y699D01*
X783Y698D01*
X785Y698D01*
X785Y694D01*
X769Y694D01*
X769Y691D01*
X770Y691D01*
X770Y689D01*
X754Y689D01*
X754Y701D01*
X756Y701D01*
X756Y711D01*
X757Y711D01*
X757Y714D01*
X759Y714D01*
X759Y717D01*
X760Y717D01*
X760Y719D01*
X762Y719D01*
X762Y721D01*
X764Y721D01*
X764Y722D01*
X767Y722D01*
X767Y724D01*
X772Y724D01*
G37*
D02*
G36*
X787Y694D02*
X787Y693D01*
X788Y693D01*
X788Y689D01*
X777Y689D01*
X777Y691D01*
X778Y691D01*
X778Y694D01*
X787Y694D01*
G37*
D02*
G36*
X787Y689D02*
X787Y688D01*
X754Y688D01*
X754Y689D01*
X787Y689D01*
G37*
D02*
G36*
X787Y689D02*
X787Y688D01*
X754Y688D01*
X754Y689D01*
X787Y689D01*
G37*
D02*
G36*
X787Y688D02*
X787Y683D01*
X785Y683D01*
X785Y681D01*
X764Y681D01*
X764Y679D01*
X752Y679D01*
X752Y688D01*
X787Y688D01*
G37*
D02*
G36*
X783Y681D02*
X783Y679D01*
X770Y679D01*
X770Y681D01*
X783Y681D01*
G37*
D02*
G36*
X769Y681D02*
X769Y679D01*
X765Y679D01*
X765Y681D01*
X769Y681D01*
G37*
D02*
G36*
X765Y679D02*
X765Y676D01*
X767Y676D01*
X767Y675D01*
X769Y675D01*
X769Y671D01*
X770Y671D01*
X770Y668D01*
X774Y668D01*
X774Y666D01*
X775Y666D01*
X775Y657D01*
X777Y657D01*
X777Y655D01*
X775Y655D01*
X775Y653D01*
X774Y653D01*
X774Y650D01*
X772Y650D01*
X772Y648D01*
X765Y648D01*
X765Y657D01*
X767Y657D01*
X767Y661D01*
X765Y661D01*
X765Y665D01*
X764Y665D01*
X764Y666D01*
X762Y666D01*
X762Y668D01*
X759Y668D01*
X759Y671D01*
X757Y671D01*
X757Y673D01*
X756Y673D01*
X756Y676D01*
X754Y676D01*
X754Y678D01*
X752Y678D01*
X752Y679D01*
X765Y679D01*
G37*
D02*
G36*
X852Y719D02*
X852Y714D01*
X851Y714D01*
X851Y709D01*
X849Y709D01*
X849Y706D01*
X847Y706D01*
X847Y702D01*
X846Y702D01*
X846Y701D01*
X844Y701D01*
X844Y698D01*
X842Y698D01*
X842Y691D01*
X841Y691D01*
X841Y689D01*
X839Y689D01*
X839Y684D01*
X833Y684D01*
X833Y689D01*
X834Y689D01*
X834Y693D01*
X836Y693D01*
X836Y698D01*
X838Y698D01*
X838Y701D01*
X839Y701D01*
X839Y702D01*
X841Y702D01*
X841Y707D01*
X842Y707D01*
X842Y712D01*
X844Y712D01*
X844Y716D01*
X846Y716D01*
X846Y717D01*
X847Y717D01*
X847Y719D01*
X852Y719D01*
G37*
D02*
G36*
X321Y688D02*
X321Y686D01*
X327Y686D01*
X327Y684D01*
X331Y684D01*
X331Y683D01*
X337Y683D01*
X337Y681D01*
X344Y681D01*
X344Y679D01*
X352Y679D01*
X352Y678D01*
X357Y678D01*
X357Y676D01*
X360Y676D01*
X360Y673D01*
X359Y673D01*
X359Y671D01*
X350Y671D01*
X350Y673D01*
X342Y673D01*
X342Y675D01*
X337Y675D01*
X337Y676D01*
X326Y676D01*
X326Y678D01*
X322Y678D01*
X322Y679D01*
X316Y679D01*
X316Y681D01*
X313Y681D01*
X313Y683D01*
X311Y683D01*
X311Y686D01*
X313Y686D01*
X313Y688D01*
X321Y688D01*
G37*
D02*
G36*
X608Y778D02*
X608Y776D01*
X629Y776D01*
X629Y775D01*
X637Y775D01*
X637Y773D01*
X644Y773D01*
X644Y771D01*
X591Y771D01*
X591Y770D01*
X587Y770D01*
X587Y768D01*
X577Y768D01*
X577Y766D01*
X570Y766D01*
X570Y765D01*
X565Y765D01*
X565Y763D01*
X562Y763D01*
X562Y762D01*
X559Y762D01*
X559Y760D01*
X555Y760D01*
X555Y758D01*
X550Y758D01*
X550Y757D01*
X547Y757D01*
X547Y755D01*
X546Y755D01*
X546Y753D01*
X542Y753D01*
X542Y752D01*
X541Y752D01*
X541Y750D01*
X539Y750D01*
X539Y748D01*
X537Y748D01*
X537Y747D01*
X536Y747D01*
X536Y743D01*
X534Y743D01*
X534Y742D01*
X531Y742D01*
X531Y739D01*
X529Y739D01*
X529Y737D01*
X527Y737D01*
X527Y735D01*
X526Y735D01*
X526Y732D01*
X524Y732D01*
X524Y730D01*
X523Y730D01*
X523Y729D01*
X521Y729D01*
X521Y724D01*
X519Y724D01*
X519Y716D01*
X518Y716D01*
X518Y711D01*
X519Y711D01*
X519Y707D01*
X518Y707D01*
X518Y704D01*
X519Y704D01*
X519Y699D01*
X521Y699D01*
X521Y696D01*
X523Y696D01*
X523Y693D01*
X524Y693D01*
X524Y689D01*
X526Y689D01*
X526Y688D01*
X527Y688D01*
X527Y684D01*
X529Y684D01*
X529Y681D01*
X531Y681D01*
X531Y679D01*
X532Y679D01*
X532Y678D01*
X534Y678D01*
X534Y676D01*
X537Y676D01*
X537Y675D01*
X539Y675D01*
X539Y666D01*
X537Y666D01*
X537Y663D01*
X536Y663D01*
X536Y660D01*
X534Y660D01*
X534Y658D01*
X536Y658D01*
X536Y657D01*
X524Y657D01*
X524Y658D01*
X526Y658D01*
X526Y660D01*
X527Y660D01*
X527Y661D01*
X529Y661D01*
X529Y666D01*
X531Y666D01*
X531Y670D01*
X529Y670D01*
X529Y671D01*
X527Y671D01*
X527Y673D01*
X526Y673D01*
X526Y676D01*
X523Y676D01*
X523Y678D01*
X521Y678D01*
X521Y683D01*
X519Y683D01*
X519Y684D01*
X518Y684D01*
X518Y689D01*
X516Y689D01*
X516Y693D01*
X514Y693D01*
X514Y696D01*
X513Y696D01*
X513Y707D01*
X511Y707D01*
X511Y716D01*
X513Y716D01*
X513Y725D01*
X514Y725D01*
X514Y729D01*
X516Y729D01*
X516Y732D01*
X518Y732D01*
X518Y735D01*
X519Y735D01*
X519Y737D01*
X521Y737D01*
X521Y739D01*
X523Y739D01*
X523Y740D01*
X524Y740D01*
X524Y742D01*
X526Y742D01*
X526Y743D01*
X527Y743D01*
X527Y745D01*
X529Y745D01*
X529Y747D01*
X531Y747D01*
X531Y750D01*
X532Y750D01*
X532Y752D01*
X534Y752D01*
X534Y753D01*
X536Y753D01*
X536Y755D01*
X537Y755D01*
X537Y757D01*
X539Y757D01*
X539Y758D01*
X541Y758D01*
X541Y760D01*
X544Y760D01*
X544Y762D01*
X547Y762D01*
X547Y763D01*
X550Y763D01*
X550Y765D01*
X554Y765D01*
X554Y766D01*
X557Y766D01*
X557Y768D01*
X560Y768D01*
X560Y770D01*
X567Y770D01*
X567Y771D01*
X570Y771D01*
X570Y773D01*
X575Y773D01*
X575Y775D01*
X582Y775D01*
X582Y776D01*
X606Y776D01*
X606Y778D01*
X608Y778D01*
G37*
D02*
G36*
X649Y771D02*
X649Y770D01*
X654Y770D01*
X654Y768D01*
X665Y768D01*
X665Y766D01*
X673Y766D01*
X673Y765D01*
X678Y765D01*
X678Y763D01*
X657Y763D01*
X657Y762D01*
X654Y762D01*
X654Y763D01*
X651Y763D01*
X651Y765D01*
X647Y765D01*
X647Y766D01*
X639Y766D01*
X639Y768D01*
X628Y768D01*
X628Y770D01*
X616Y770D01*
X616Y771D01*
X649Y771D01*
G37*
D02*
G36*
X683Y763D02*
X683Y762D01*
X687Y762D01*
X687Y760D01*
X688Y760D01*
X688Y758D01*
X692Y758D01*
X692Y757D01*
X693Y757D01*
X693Y755D01*
X695Y755D01*
X695Y753D01*
X696Y753D01*
X696Y752D01*
X698Y752D01*
X698Y750D01*
X700Y750D01*
X700Y748D01*
X701Y748D01*
X701Y745D01*
X703Y745D01*
X703Y742D01*
X705Y742D01*
X705Y739D01*
X706Y739D01*
X706Y735D01*
X708Y735D01*
X708Y729D01*
X710Y729D01*
X710Y724D01*
X711Y724D01*
X711Y716D01*
X713Y716D01*
X713Y707D01*
X711Y707D01*
X711Y698D01*
X710Y698D01*
X710Y696D01*
X708Y696D01*
X708Y691D01*
X706Y691D01*
X706Y686D01*
X705Y686D01*
X705Y684D01*
X703Y684D01*
X703Y683D01*
X701Y683D01*
X701Y679D01*
X700Y679D01*
X700Y676D01*
X698Y676D01*
X698Y675D01*
X696Y675D01*
X696Y673D01*
X695Y673D01*
X695Y671D01*
X692Y671D01*
X692Y670D01*
X690Y670D01*
X690Y668D01*
X688Y668D01*
X688Y660D01*
X687Y660D01*
X687Y653D01*
X685Y653D01*
X685Y652D01*
X683Y652D01*
X683Y650D01*
X682Y650D01*
X682Y648D01*
X683Y648D01*
X683Y642D01*
X685Y642D01*
X685Y640D01*
X672Y640D01*
X672Y638D01*
X670Y638D01*
X670Y643D01*
X669Y643D01*
X669Y645D01*
X667Y645D01*
X667Y650D01*
X670Y650D01*
X670Y652D01*
X673Y652D01*
X673Y653D01*
X675Y653D01*
X675Y655D01*
X677Y655D01*
X677Y657D01*
X678Y657D01*
X678Y660D01*
X680Y660D01*
X680Y665D01*
X678Y665D01*
X678Y670D01*
X680Y670D01*
X680Y671D01*
X682Y671D01*
X682Y673D01*
X685Y673D01*
X685Y675D01*
X687Y675D01*
X687Y676D01*
X688Y676D01*
X688Y678D01*
X690Y678D01*
X690Y679D01*
X693Y679D01*
X693Y683D01*
X695Y683D01*
X695Y684D01*
X696Y684D01*
X696Y688D01*
X698Y688D01*
X698Y691D01*
X700Y691D01*
X700Y693D01*
X701Y693D01*
X701Y698D01*
X703Y698D01*
X703Y701D01*
X705Y701D01*
X705Y724D01*
X703Y724D01*
X703Y729D01*
X701Y729D01*
X701Y734D01*
X700Y734D01*
X700Y739D01*
X698Y739D01*
X698Y742D01*
X696Y742D01*
X696Y743D01*
X695Y743D01*
X695Y747D01*
X693Y747D01*
X693Y748D01*
X692Y748D01*
X692Y752D01*
X690Y752D01*
X690Y753D01*
X687Y753D01*
X687Y755D01*
X683Y755D01*
X683Y757D01*
X682Y757D01*
X682Y758D01*
X677Y758D01*
X677Y760D01*
X675Y760D01*
X675Y762D01*
X667Y762D01*
X667Y763D01*
X683Y763D01*
G37*
D02*
G36*
X562Y658D02*
X562Y657D01*
X552Y657D01*
X552Y658D01*
X562Y658D01*
G37*
D02*
G36*
X550Y658D02*
X550Y657D01*
X544Y657D01*
X544Y658D01*
X550Y658D01*
G37*
D02*
G36*
X564Y657D02*
X564Y655D01*
X523Y655D01*
X523Y657D01*
X564Y657D01*
G37*
D02*
G36*
X564Y657D02*
X564Y655D01*
X523Y655D01*
X523Y657D01*
X564Y657D01*
G37*
D02*
G36*
X564Y657D02*
X564Y655D01*
X523Y655D01*
X523Y657D01*
X564Y657D01*
G37*
D02*
G36*
X564Y655D02*
X564Y653D01*
X565Y653D01*
X565Y652D01*
X541Y652D01*
X541Y650D01*
X534Y650D01*
X534Y648D01*
X527Y648D01*
X527Y647D01*
X519Y647D01*
X519Y648D01*
X516Y648D01*
X516Y650D01*
X518Y650D01*
X518Y652D01*
X519Y652D01*
X519Y653D01*
X521Y653D01*
X521Y655D01*
X564Y655D01*
G37*
D02*
G36*
X600Y653D02*
X600Y652D01*
X603Y652D01*
X603Y650D01*
X605Y650D01*
X605Y648D01*
X608Y648D01*
X608Y647D01*
X610Y647D01*
X610Y645D01*
X585Y645D01*
X585Y647D01*
X591Y647D01*
X591Y648D01*
X593Y648D01*
X593Y652D01*
X595Y652D01*
X595Y653D01*
X600Y653D01*
G37*
D02*
G36*
X569Y652D02*
X569Y650D01*
X572Y650D01*
X572Y648D01*
X575Y648D01*
X575Y647D01*
X580Y647D01*
X580Y645D01*
X564Y645D01*
X564Y647D01*
X562Y647D01*
X562Y648D01*
X560Y648D01*
X560Y650D01*
X549Y650D01*
X549Y652D01*
X569Y652D01*
G37*
D02*
G36*
X613Y645D02*
X613Y643D01*
X565Y643D01*
X565Y645D01*
X613Y645D01*
G37*
D02*
G36*
X613Y645D02*
X613Y643D01*
X565Y643D01*
X565Y645D01*
X613Y645D01*
G37*
D02*
G36*
X614Y643D02*
X614Y642D01*
X616Y642D01*
X616Y640D01*
X619Y640D01*
X619Y638D01*
X623Y638D01*
X623Y637D01*
X636Y637D01*
X636Y635D01*
X611Y635D01*
X611Y637D01*
X608Y637D01*
X608Y638D01*
X606Y638D01*
X606Y640D01*
X603Y640D01*
X603Y642D01*
X601Y642D01*
X601Y643D01*
X614Y643D01*
G37*
D02*
G36*
X598Y643D02*
X598Y642D01*
X596Y642D01*
X596Y640D01*
X593Y640D01*
X593Y638D01*
X583Y638D01*
X583Y637D01*
X578Y637D01*
X578Y638D01*
X572Y638D01*
X572Y640D01*
X569Y640D01*
X569Y642D01*
X567Y642D01*
X567Y643D01*
X598Y643D01*
G37*
D02*
G36*
X687Y640D02*
X687Y638D01*
X690Y638D01*
X690Y637D01*
X693Y637D01*
X693Y635D01*
X695Y635D01*
X695Y634D01*
X696Y634D01*
X696Y632D01*
X680Y632D01*
X680Y634D01*
X678Y634D01*
X678Y635D01*
X677Y635D01*
X677Y637D01*
X675Y637D01*
X675Y638D01*
X673Y638D01*
X673Y640D01*
X687Y640D01*
G37*
D02*
G36*
X665Y638D02*
X665Y637D01*
X669Y637D01*
X669Y635D01*
X673Y635D01*
X673Y634D01*
X659Y634D01*
X659Y637D01*
X660Y637D01*
X660Y638D01*
X665Y638D01*
G37*
D02*
G36*
X654Y638D02*
X654Y637D01*
X655Y637D01*
X655Y635D01*
X637Y635D01*
X637Y637D01*
X651Y637D01*
X651Y638D01*
X654Y638D01*
G37*
D02*
G36*
X654Y635D02*
X654Y634D01*
X613Y634D01*
X613Y635D01*
X654Y635D01*
G37*
D02*
G36*
X654Y635D02*
X654Y634D01*
X613Y634D01*
X613Y635D01*
X654Y635D01*
G37*
D02*
G36*
X678Y634D02*
X678Y632D01*
X660Y632D01*
X660Y634D01*
X678Y634D01*
G37*
D02*
G36*
X651Y634D02*
X651Y632D01*
X646Y632D01*
X646Y630D01*
X621Y630D01*
X621Y632D01*
X616Y632D01*
X616Y634D01*
X651Y634D01*
G37*
D02*
G36*
X698Y632D02*
X698Y630D01*
X662Y630D01*
X662Y632D01*
X698Y632D01*
G37*
D02*
G36*
X698Y632D02*
X698Y630D01*
X662Y630D01*
X662Y632D01*
X698Y632D01*
G37*
D02*
G36*
X701Y630D02*
X701Y627D01*
X705Y627D01*
X705Y625D01*
X706Y625D01*
X706Y624D01*
X708Y624D01*
X708Y620D01*
X710Y620D01*
X710Y617D01*
X708Y617D01*
X708Y616D01*
X700Y616D01*
X700Y617D01*
X693Y617D01*
X693Y619D01*
X690Y619D01*
X690Y620D01*
X687Y620D01*
X687Y622D01*
X682Y622D01*
X682Y624D01*
X678Y624D01*
X678Y625D01*
X673Y625D01*
X673Y627D01*
X670Y627D01*
X670Y629D01*
X667Y629D01*
X667Y630D01*
X701Y630D01*
G37*
D02*
G36*
X870Y604D02*
X870Y602D01*
X879Y602D01*
X879Y601D01*
X888Y601D01*
X888Y599D01*
X893Y599D01*
X893Y597D01*
X898Y597D01*
X898Y596D01*
X903Y596D01*
X903Y594D01*
X893Y594D01*
X893Y593D01*
X890Y593D01*
X890Y594D01*
X874Y594D01*
X874Y596D01*
X859Y596D01*
X859Y597D01*
X857Y597D01*
X857Y602D01*
X859Y602D01*
X859Y604D01*
X870Y604D01*
G37*
D02*
G36*
X906Y594D02*
X906Y593D01*
X897Y593D01*
X897Y594D01*
X906Y594D01*
G37*
D02*
G36*
X769Y602D02*
X769Y601D01*
X770Y601D01*
X770Y597D01*
X760Y597D01*
X760Y599D01*
X762Y599D01*
X762Y601D01*
X765Y601D01*
X765Y602D01*
X769Y602D01*
G37*
D02*
G36*
X756Y602D02*
X756Y601D01*
X757Y601D01*
X757Y599D01*
X759Y599D01*
X759Y597D01*
X749Y597D01*
X749Y602D01*
X756Y602D01*
G37*
D02*
G36*
X770Y597D02*
X770Y596D01*
X749Y596D01*
X749Y597D01*
X770Y597D01*
G37*
D02*
G36*
X770Y597D02*
X770Y596D01*
X749Y596D01*
X749Y597D01*
X770Y597D01*
G37*
D02*
G36*
X770Y596D02*
X770Y594D01*
X769Y594D01*
X769Y593D01*
X767Y593D01*
X767Y591D01*
X760Y591D01*
X760Y589D01*
X757Y589D01*
X757Y591D01*
X752Y591D01*
X752Y593D01*
X751Y593D01*
X751Y594D01*
X749Y594D01*
X749Y596D01*
X770Y596D01*
G37*
D02*
G36*
X626Y565D02*
X626Y563D01*
X624Y563D01*
X624Y565D01*
X626Y565D01*
G37*
D02*
G36*
X360Y561D02*
X360Y560D01*
X363Y560D01*
X363Y555D01*
X360Y555D01*
X360Y553D01*
X359Y553D01*
X359Y552D01*
X357Y552D01*
X357Y547D01*
X355Y547D01*
X355Y538D01*
X354Y538D01*
X354Y537D01*
X350Y537D01*
X350Y540D01*
X349Y540D01*
X349Y548D01*
X350Y548D01*
X350Y555D01*
X352Y555D01*
X352Y556D01*
X354Y556D01*
X354Y558D01*
X355Y558D01*
X355Y560D01*
X359Y560D01*
X359Y561D01*
X360Y561D01*
G37*
D02*
G36*
X841Y550D02*
X841Y548D01*
X846Y548D01*
X846Y547D01*
X849Y547D01*
X849Y545D01*
X852Y545D01*
X852Y543D01*
X856Y543D01*
X856Y542D01*
X857Y542D01*
X857Y540D01*
X859Y540D01*
X859Y538D01*
X860Y538D01*
X860Y537D01*
X862Y537D01*
X862Y535D01*
X865Y535D01*
X865Y533D01*
X869Y533D01*
X869Y532D01*
X870Y532D01*
X870Y530D01*
X872Y530D01*
X872Y529D01*
X874Y529D01*
X874Y527D01*
X879Y527D01*
X879Y525D01*
X880Y525D01*
X880Y524D01*
X882Y524D01*
X882Y522D01*
X883Y522D01*
X883Y520D01*
X885Y520D01*
X885Y519D01*
X888Y519D01*
X888Y517D01*
X890Y517D01*
X890Y514D01*
X888Y514D01*
X888Y512D01*
X885Y512D01*
X885Y514D01*
X882Y514D01*
X882Y515D01*
X880Y515D01*
X880Y517D01*
X877Y517D01*
X877Y519D01*
X875Y519D01*
X875Y520D01*
X872Y520D01*
X872Y522D01*
X870Y522D01*
X870Y524D01*
X865Y524D01*
X865Y525D01*
X864Y525D01*
X864Y527D01*
X860Y527D01*
X860Y529D01*
X856Y529D01*
X856Y532D01*
X854Y532D01*
X854Y533D01*
X851Y533D01*
X851Y535D01*
X849Y535D01*
X849Y537D01*
X846Y537D01*
X846Y538D01*
X844Y538D01*
X844Y540D01*
X842Y540D01*
X842Y542D01*
X839Y542D01*
X839Y543D01*
X838Y543D01*
X838Y545D01*
X834Y545D01*
X834Y548D01*
X836Y548D01*
X836Y550D01*
X841Y550D01*
G37*
D02*
G36*
X383Y548D02*
X383Y545D01*
X381Y545D01*
X381Y543D01*
X378Y543D01*
X378Y540D01*
X377Y540D01*
X377Y538D01*
X375Y538D01*
X375Y527D01*
X372Y527D01*
X372Y525D01*
X370Y525D01*
X370Y529D01*
X368Y529D01*
X368Y540D01*
X370Y540D01*
X370Y543D01*
X372Y543D01*
X372Y545D01*
X373Y545D01*
X373Y547D01*
X377Y547D01*
X377Y548D01*
X383Y548D01*
G37*
D02*
G36*
X698Y524D02*
X698Y522D01*
X700Y522D01*
X700Y517D01*
X698Y517D01*
X698Y515D01*
X700Y515D01*
X700Y509D01*
X701Y509D01*
X701Y504D01*
X703Y504D01*
X703Y499D01*
X705Y499D01*
X705Y496D01*
X706Y496D01*
X706Y488D01*
X705Y488D01*
X705Y489D01*
X701Y489D01*
X701Y494D01*
X700Y494D01*
X700Y496D01*
X698Y496D01*
X698Y501D01*
X696Y501D01*
X696Y504D01*
X695Y504D01*
X695Y509D01*
X693Y509D01*
X693Y511D01*
X695Y511D01*
X695Y512D01*
X693Y512D01*
X693Y519D01*
X695Y519D01*
X695Y522D01*
X696Y522D01*
X696Y524D01*
X698Y524D01*
G37*
D02*
G36*
X678Y517D02*
X678Y515D01*
X680Y515D01*
X680Y511D01*
X682Y511D01*
X682Y509D01*
X683Y509D01*
X683Y502D01*
X685Y502D01*
X685Y501D01*
X687Y501D01*
X687Y499D01*
X688Y499D01*
X688Y496D01*
X690Y496D01*
X690Y492D01*
X692Y492D01*
X692Y488D01*
X685Y488D01*
X685Y489D01*
X683Y489D01*
X683Y491D01*
X682Y491D01*
X682Y492D01*
X680Y492D01*
X680Y497D01*
X678Y497D01*
X678Y501D01*
X677Y501D01*
X677Y504D01*
X673Y504D01*
X673Y511D01*
X675Y511D01*
X675Y515D01*
X677Y515D01*
X677Y517D01*
X678Y517D01*
G37*
D02*
G36*
X657Y514D02*
X657Y511D01*
X659Y511D01*
X659Y506D01*
X660Y506D01*
X660Y492D01*
X662Y492D01*
X662Y491D01*
X664Y491D01*
X664Y489D01*
X665Y489D01*
X665Y486D01*
X667Y486D01*
X667Y481D01*
X660Y481D01*
X660Y483D01*
X659Y483D01*
X659Y484D01*
X657Y484D01*
X657Y488D01*
X654Y488D01*
X654Y492D01*
X652Y492D01*
X652Y504D01*
X651Y504D01*
X651Y506D01*
X652Y506D01*
X652Y511D01*
X651Y511D01*
X651Y512D01*
X654Y512D01*
X654Y514D01*
X657Y514D01*
G37*
D02*
G36*
X442Y707D02*
X442Y706D01*
X454Y706D01*
X454Y704D01*
X459Y704D01*
X459Y702D01*
X464Y702D01*
X464Y701D01*
X421Y701D01*
X421Y699D01*
X416Y699D01*
X416Y698D01*
X411Y698D01*
X411Y696D01*
X408Y696D01*
X408Y694D01*
X406Y694D01*
X406Y689D01*
X408Y689D01*
X408Y684D01*
X409Y684D01*
X409Y683D01*
X411Y683D01*
X411Y679D01*
X413Y679D01*
X413Y678D01*
X414Y678D01*
X414Y676D01*
X403Y676D01*
X403Y673D01*
X401Y673D01*
X401Y661D01*
X406Y661D01*
X406Y660D01*
X408Y660D01*
X408Y658D01*
X409Y658D01*
X409Y653D01*
X411Y653D01*
X411Y650D01*
X408Y650D01*
X408Y647D01*
X409Y647D01*
X409Y645D01*
X411Y645D01*
X411Y642D01*
X400Y642D01*
X400Y640D01*
X391Y640D01*
X391Y648D01*
X393Y648D01*
X393Y666D01*
X395Y666D01*
X395Y698D01*
X396Y698D01*
X396Y699D01*
X401Y699D01*
X401Y701D01*
X406Y701D01*
X406Y702D01*
X411Y702D01*
X411Y704D01*
X421Y704D01*
X421Y706D01*
X429Y706D01*
X429Y707D01*
X442Y707D01*
G37*
D02*
G36*
X470Y701D02*
X470Y699D01*
X473Y699D01*
X473Y698D01*
X477Y698D01*
X477Y696D01*
X478Y696D01*
X478Y694D01*
X480Y694D01*
X480Y693D01*
X483Y693D01*
X483Y689D01*
X486Y689D01*
X486Y688D01*
X488Y688D01*
X488Y686D01*
X490Y686D01*
X490Y683D01*
X491Y683D01*
X491Y679D01*
X493Y679D01*
X493Y676D01*
X495Y676D01*
X495Y670D01*
X496Y670D01*
X496Y665D01*
X495Y665D01*
X495Y663D01*
X496Y663D01*
X496Y660D01*
X495Y660D01*
X495Y652D01*
X493Y652D01*
X493Y642D01*
X483Y642D01*
X483Y640D01*
X480Y640D01*
X480Y638D01*
X460Y638D01*
X460Y640D01*
X464Y640D01*
X464Y642D01*
X470Y642D01*
X470Y643D01*
X473Y643D01*
X473Y645D01*
X475Y645D01*
X475Y647D01*
X477Y647D01*
X477Y648D01*
X480Y648D01*
X480Y650D01*
X482Y650D01*
X482Y652D01*
X483Y652D01*
X483Y657D01*
X485Y657D01*
X485Y661D01*
X486Y661D01*
X486Y665D01*
X485Y665D01*
X485Y666D01*
X486Y666D01*
X486Y670D01*
X485Y670D01*
X485Y671D01*
X486Y671D01*
X486Y675D01*
X485Y675D01*
X485Y679D01*
X483Y679D01*
X483Y683D01*
X482Y683D01*
X482Y684D01*
X480Y684D01*
X480Y688D01*
X477Y688D01*
X477Y689D01*
X473Y689D01*
X473Y691D01*
X472Y691D01*
X472Y693D01*
X468Y693D01*
X468Y694D01*
X467Y694D01*
X467Y696D01*
X464Y696D01*
X464Y698D01*
X457Y698D01*
X457Y699D01*
X450Y699D01*
X450Y701D01*
X470Y701D01*
G37*
D02*
G36*
X414Y676D02*
X414Y675D01*
X416Y675D01*
X416Y673D01*
X419Y673D01*
X419Y670D01*
X421Y670D01*
X421Y668D01*
X423Y668D01*
X423Y665D01*
X424Y665D01*
X424Y661D01*
X426Y661D01*
X426Y660D01*
X427Y660D01*
X427Y658D01*
X429Y658D01*
X429Y657D01*
X431Y657D01*
X431Y655D01*
X432Y655D01*
X432Y653D01*
X434Y653D01*
X434Y650D01*
X437Y650D01*
X437Y648D01*
X439Y648D01*
X439Y647D01*
X441Y647D01*
X441Y645D01*
X442Y645D01*
X442Y642D01*
X445Y642D01*
X445Y640D01*
X455Y640D01*
X455Y638D01*
X436Y638D01*
X436Y640D01*
X434Y640D01*
X434Y642D01*
X432Y642D01*
X432Y643D01*
X431Y643D01*
X431Y647D01*
X429Y647D01*
X429Y648D01*
X427Y648D01*
X427Y650D01*
X426Y650D01*
X426Y652D01*
X424Y652D01*
X424Y653D01*
X423Y653D01*
X423Y655D01*
X421Y655D01*
X421Y657D01*
X419Y657D01*
X419Y658D01*
X418Y658D01*
X418Y661D01*
X416Y661D01*
X416Y663D01*
X414Y663D01*
X414Y666D01*
X413Y666D01*
X413Y668D01*
X411Y668D01*
X411Y670D01*
X409Y670D01*
X409Y671D01*
X408Y671D01*
X408Y673D01*
X404Y673D01*
X404Y676D01*
X414Y676D01*
G37*
D02*
G36*
X756Y665D02*
X756Y663D01*
X759Y663D01*
X759Y660D01*
X756Y660D01*
X756Y658D01*
X754Y658D01*
X754Y657D01*
X752Y657D01*
X752Y653D01*
X751Y653D01*
X751Y650D01*
X749Y650D01*
X749Y648D01*
X752Y648D01*
X752Y645D01*
X754Y645D01*
X754Y642D01*
X756Y642D01*
X756Y640D01*
X759Y640D01*
X759Y638D01*
X760Y638D01*
X760Y637D01*
X764Y637D01*
X764Y635D01*
X733Y635D01*
X733Y638D01*
X734Y638D01*
X734Y642D01*
X736Y642D01*
X736Y648D01*
X737Y648D01*
X737Y653D01*
X739Y653D01*
X739Y657D01*
X741Y657D01*
X741Y658D01*
X744Y658D01*
X744Y660D01*
X746Y660D01*
X746Y661D01*
X749Y661D01*
X749Y663D01*
X752Y663D01*
X752Y665D01*
X756Y665D01*
G37*
D02*
G36*
X787Y661D02*
X787Y660D01*
X790Y660D01*
X790Y658D01*
X792Y658D01*
X792Y657D01*
X793Y657D01*
X793Y655D01*
X795Y655D01*
X795Y653D01*
X797Y653D01*
X797Y650D01*
X798Y650D01*
X798Y647D01*
X800Y647D01*
X800Y637D01*
X801Y637D01*
X801Y635D01*
X780Y635D01*
X780Y637D01*
X787Y637D01*
X787Y640D01*
X790Y640D01*
X790Y643D01*
X788Y643D01*
X788Y645D01*
X790Y645D01*
X790Y647D01*
X787Y647D01*
X787Y650D01*
X785Y650D01*
X785Y652D01*
X783Y652D01*
X783Y653D01*
X780Y653D01*
X780Y657D01*
X778Y657D01*
X778Y660D01*
X780Y660D01*
X780Y661D01*
X787Y661D01*
G37*
D02*
G36*
X493Y642D02*
X493Y632D01*
X491Y632D01*
X491Y617D01*
X490Y617D01*
X490Y616D01*
X491Y616D01*
X491Y614D01*
X490Y614D01*
X490Y609D01*
X488Y609D01*
X488Y606D01*
X486Y606D01*
X486Y602D01*
X485Y602D01*
X485Y601D01*
X486Y601D01*
X486Y597D01*
X485Y597D01*
X485Y594D01*
X486Y594D01*
X486Y593D01*
X490Y593D01*
X490Y591D01*
X493Y591D01*
X493Y589D01*
X495Y589D01*
X495Y588D01*
X496Y588D01*
X496Y586D01*
X477Y586D01*
X477Y584D01*
X475Y584D01*
X475Y583D01*
X473Y583D01*
X473Y579D01*
X472Y579D01*
X472Y578D01*
X470Y578D01*
X470Y576D01*
X457Y576D01*
X457Y578D01*
X459Y578D01*
X459Y579D01*
X462Y579D01*
X462Y581D01*
X464Y581D01*
X464Y583D01*
X465Y583D01*
X465Y584D01*
X467Y584D01*
X467Y586D01*
X468Y586D01*
X468Y588D01*
X470Y588D01*
X470Y591D01*
X472Y591D01*
X472Y594D01*
X470Y594D01*
X470Y599D01*
X472Y599D01*
X472Y601D01*
X478Y601D01*
X478Y602D01*
X480Y602D01*
X480Y607D01*
X482Y607D01*
X482Y611D01*
X483Y611D01*
X483Y616D01*
X485Y616D01*
X485Y642D01*
X493Y642D01*
G37*
D02*
G36*
X424Y642D02*
X424Y640D01*
X426Y640D01*
X426Y638D01*
X419Y638D01*
X419Y642D01*
X424Y642D01*
G37*
D02*
G36*
X413Y642D02*
X413Y640D01*
X401Y640D01*
X401Y642D01*
X413Y642D01*
G37*
D02*
G36*
X416Y640D02*
X416Y638D01*
X391Y638D01*
X391Y640D01*
X416Y640D01*
G37*
D02*
G36*
X416Y640D02*
X416Y638D01*
X391Y638D01*
X391Y640D01*
X416Y640D01*
G37*
D02*
G36*
X477Y638D02*
X477Y637D01*
X439Y637D01*
X439Y638D01*
X477Y638D01*
G37*
D02*
G36*
X477Y638D02*
X477Y637D01*
X439Y637D01*
X439Y638D01*
X477Y638D01*
G37*
D02*
G36*
X426Y638D02*
X426Y637D01*
X406Y637D01*
X406Y638D01*
X426Y638D01*
G37*
D02*
G36*
X426Y638D02*
X426Y637D01*
X406Y637D01*
X406Y638D01*
X426Y638D01*
G37*
D02*
G36*
X400Y638D02*
X400Y635D01*
X401Y635D01*
X401Y634D01*
X403Y634D01*
X403Y632D01*
X404Y632D01*
X404Y630D01*
X406Y630D01*
X406Y629D01*
X411Y629D01*
X411Y627D01*
X413Y627D01*
X413Y624D01*
X414Y624D01*
X414Y620D01*
X401Y620D01*
X401Y617D01*
X403Y617D01*
X403Y616D01*
X401Y616D01*
X401Y614D01*
X403Y614D01*
X403Y611D01*
X404Y611D01*
X404Y607D01*
X406Y607D01*
X406Y606D01*
X409Y606D01*
X409Y604D01*
X413Y604D01*
X413Y602D01*
X414Y602D01*
X414Y601D01*
X416Y601D01*
X416Y597D01*
X418Y597D01*
X418Y596D01*
X419Y596D01*
X419Y594D01*
X421Y594D01*
X421Y593D01*
X424Y593D01*
X424Y591D01*
X426Y591D01*
X426Y588D01*
X429Y588D01*
X429Y586D01*
X431Y586D01*
X431Y584D01*
X434Y584D01*
X434Y583D01*
X436Y583D01*
X436Y581D01*
X437Y581D01*
X437Y579D01*
X439Y579D01*
X439Y578D01*
X442Y578D01*
X442Y576D01*
X427Y576D01*
X427Y578D01*
X426Y578D01*
X426Y581D01*
X423Y581D01*
X423Y584D01*
X419Y584D01*
X419Y586D01*
X418Y586D01*
X418Y588D01*
X416Y588D01*
X416Y589D01*
X414Y589D01*
X414Y591D01*
X413Y591D01*
X413Y593D01*
X411Y593D01*
X411Y594D01*
X408Y594D01*
X408Y596D01*
X404Y596D01*
X404Y597D01*
X403Y597D01*
X403Y601D01*
X401Y601D01*
X401Y602D01*
X400Y602D01*
X400Y606D01*
X398Y606D01*
X398Y607D01*
X396Y607D01*
X396Y609D01*
X395Y609D01*
X395Y614D01*
X393Y614D01*
X393Y616D01*
X395Y616D01*
X395Y622D01*
X393Y622D01*
X393Y629D01*
X391Y629D01*
X391Y630D01*
X393Y630D01*
X393Y634D01*
X391Y634D01*
X391Y638D01*
X400Y638D01*
G37*
D02*
G36*
X473Y637D02*
X473Y635D01*
X468Y635D01*
X468Y634D01*
X465Y634D01*
X465Y632D01*
X464Y632D01*
X464Y630D01*
X460Y630D01*
X460Y629D01*
X459Y629D01*
X459Y627D01*
X457Y627D01*
X457Y622D01*
X455Y622D01*
X455Y617D01*
X457Y617D01*
X457Y616D01*
X455Y616D01*
X455Y604D01*
X457Y604D01*
X457Y602D01*
X455Y602D01*
X455Y593D01*
X454Y593D01*
X454Y578D01*
X455Y578D01*
X455Y576D01*
X444Y576D01*
X444Y579D01*
X445Y579D01*
X445Y584D01*
X447Y584D01*
X447Y586D01*
X445Y586D01*
X445Y589D01*
X447Y589D01*
X447Y599D01*
X449Y599D01*
X449Y627D01*
X447Y627D01*
X447Y632D01*
X445Y632D01*
X445Y634D01*
X444Y634D01*
X444Y635D01*
X442Y635D01*
X442Y637D01*
X473Y637D01*
G37*
D02*
G36*
X427Y637D02*
X427Y635D01*
X431Y635D01*
X431Y634D01*
X432Y634D01*
X432Y632D01*
X434Y632D01*
X434Y630D01*
X432Y630D01*
X432Y629D01*
X427Y629D01*
X427Y630D01*
X424Y630D01*
X424Y632D01*
X423Y632D01*
X423Y634D01*
X421Y634D01*
X421Y635D01*
X419Y635D01*
X419Y637D01*
X427Y637D01*
G37*
D02*
G36*
X418Y637D02*
X418Y635D01*
X416Y635D01*
X416Y634D01*
X411Y634D01*
X411Y635D01*
X408Y635D01*
X408Y637D01*
X418Y637D01*
G37*
D02*
G36*
X801Y635D02*
X801Y634D01*
X733Y634D01*
X733Y635D01*
X801Y635D01*
G37*
D02*
G36*
X801Y635D02*
X801Y634D01*
X733Y634D01*
X733Y635D01*
X801Y635D01*
G37*
D02*
G36*
X800Y634D02*
X800Y630D01*
X798Y630D01*
X798Y629D01*
X800Y629D01*
X800Y627D01*
X739Y627D01*
X739Y622D01*
X737Y622D01*
X737Y620D01*
X736Y620D01*
X736Y616D01*
X734Y616D01*
X734Y611D01*
X733Y611D01*
X733Y606D01*
X731Y606D01*
X731Y602D01*
X729Y602D01*
X729Y599D01*
X728Y599D01*
X728Y596D01*
X726Y596D01*
X726Y589D01*
X724Y589D01*
X724Y586D01*
X723Y586D01*
X723Y579D01*
X721Y579D01*
X721Y575D01*
X719Y575D01*
X719Y570D01*
X705Y570D01*
X705Y568D01*
X698Y568D01*
X698Y566D01*
X665Y566D01*
X665Y568D01*
X675Y568D01*
X675Y570D01*
X685Y570D01*
X685Y571D01*
X692Y571D01*
X692Y573D01*
X696Y573D01*
X696Y575D01*
X700Y575D01*
X700Y576D01*
X705Y576D01*
X705Y578D01*
X708Y578D01*
X708Y579D01*
X711Y579D01*
X711Y583D01*
X713Y583D01*
X713Y584D01*
X715Y584D01*
X715Y589D01*
X716Y589D01*
X716Y593D01*
X718Y593D01*
X718Y597D01*
X719Y597D01*
X719Y602D01*
X721Y602D01*
X721Y607D01*
X723Y607D01*
X723Y609D01*
X724Y609D01*
X724Y616D01*
X726Y616D01*
X726Y620D01*
X728Y620D01*
X728Y625D01*
X729Y625D01*
X729Y627D01*
X731Y627D01*
X731Y632D01*
X733Y632D01*
X733Y634D01*
X800Y634D01*
G37*
D02*
G36*
X798Y627D02*
X798Y624D01*
X749Y624D01*
X749Y622D01*
X747Y622D01*
X747Y624D01*
X746Y624D01*
X746Y625D01*
X742Y625D01*
X742Y627D01*
X798Y627D01*
G37*
D02*
G36*
X798Y624D02*
X798Y620D01*
X797Y620D01*
X797Y617D01*
X795Y617D01*
X795Y612D01*
X793Y612D01*
X793Y611D01*
X792Y611D01*
X792Y606D01*
X790Y606D01*
X790Y604D01*
X788Y604D01*
X788Y599D01*
X787Y599D01*
X787Y594D01*
X785Y594D01*
X785Y591D01*
X783Y591D01*
X783Y588D01*
X782Y588D01*
X782Y586D01*
X783Y586D01*
X783Y584D01*
X787Y584D01*
X787Y583D01*
X790Y583D01*
X790Y581D01*
X792Y581D01*
X792Y579D01*
X793Y579D01*
X793Y578D01*
X795Y578D01*
X795Y575D01*
X797Y575D01*
X797Y570D01*
X778Y570D01*
X778Y571D01*
X782Y571D01*
X782Y575D01*
X777Y575D01*
X777Y576D01*
X772Y576D01*
X772Y578D01*
X770Y578D01*
X770Y579D01*
X769Y579D01*
X769Y581D01*
X767Y581D01*
X767Y586D01*
X769Y586D01*
X769Y589D01*
X772Y589D01*
X772Y593D01*
X774Y593D01*
X774Y594D01*
X775Y594D01*
X775Y597D01*
X777Y597D01*
X777Y601D01*
X778Y601D01*
X778Y606D01*
X780Y606D01*
X780Y609D01*
X782Y609D01*
X782Y612D01*
X780Y612D01*
X780Y614D01*
X775Y614D01*
X775Y616D01*
X765Y616D01*
X765Y617D01*
X760Y617D01*
X760Y619D01*
X757Y619D01*
X757Y620D01*
X754Y620D01*
X754Y622D01*
X751Y622D01*
X751Y624D01*
X798Y624D01*
G37*
D02*
G36*
X413Y620D02*
X413Y619D01*
X408Y619D01*
X408Y620D01*
X413Y620D01*
G37*
D02*
G36*
X406Y620D02*
X406Y619D01*
X404Y619D01*
X404Y620D01*
X406Y620D01*
G37*
D02*
G36*
X610Y594D02*
X610Y593D01*
X598Y593D01*
X598Y594D01*
X610Y594D01*
G37*
D02*
G36*
X595Y594D02*
X595Y593D01*
X580Y593D01*
X580Y594D01*
X595Y594D01*
G37*
D02*
G36*
X611Y593D02*
X611Y591D01*
X575Y591D01*
X575Y593D01*
X611Y593D01*
G37*
D02*
G36*
X611Y593D02*
X611Y591D01*
X575Y591D01*
X575Y593D01*
X611Y593D01*
G37*
D02*
G36*
X614Y591D02*
X614Y589D01*
X616Y589D01*
X616Y588D01*
X578Y588D01*
X578Y586D01*
X575Y586D01*
X575Y584D01*
X572Y584D01*
X572Y581D01*
X570Y581D01*
X570Y579D01*
X569Y579D01*
X569Y578D01*
X529Y578D01*
X529Y579D01*
X554Y579D01*
X554Y581D01*
X555Y581D01*
X555Y583D01*
X557Y583D01*
X557Y584D01*
X560Y584D01*
X560Y586D01*
X564Y586D01*
X564Y588D01*
X567Y588D01*
X567Y589D01*
X569Y589D01*
X569Y591D01*
X614Y591D01*
G37*
D02*
G36*
X619Y588D02*
X619Y586D01*
X605Y586D01*
X605Y579D01*
X608Y579D01*
X608Y576D01*
X610Y576D01*
X610Y573D01*
X611Y573D01*
X611Y570D01*
X610Y570D01*
X610Y568D01*
X605Y568D01*
X605Y566D01*
X598Y566D01*
X598Y565D01*
X596Y565D01*
X596Y563D01*
X595Y563D01*
X595Y556D01*
X585Y556D01*
X585Y570D01*
X587Y570D01*
X587Y571D01*
X590Y571D01*
X590Y573D01*
X593Y573D01*
X593Y575D01*
X596Y575D01*
X596Y578D01*
X595Y578D01*
X595Y579D01*
X593Y579D01*
X593Y583D01*
X591Y583D01*
X591Y586D01*
X590Y586D01*
X590Y588D01*
X619Y588D01*
G37*
D02*
G36*
X621Y586D02*
X621Y584D01*
X623Y584D01*
X623Y583D01*
X624Y583D01*
X624Y579D01*
X626Y579D01*
X626Y576D01*
X628Y576D01*
X628Y575D01*
X629Y575D01*
X629Y573D01*
X631Y573D01*
X631Y571D01*
X632Y571D01*
X632Y570D01*
X634Y570D01*
X634Y568D01*
X637Y568D01*
X637Y566D01*
X626Y566D01*
X626Y568D01*
X624Y568D01*
X624Y573D01*
X623Y573D01*
X623Y575D01*
X619Y575D01*
X619Y576D01*
X618Y576D01*
X618Y578D01*
X616Y578D01*
X616Y579D01*
X614Y579D01*
X614Y583D01*
X611Y583D01*
X611Y584D01*
X606Y584D01*
X606Y586D01*
X621Y586D01*
G37*
D02*
G36*
X500Y586D02*
X500Y584D01*
X503Y584D01*
X503Y583D01*
X506Y583D01*
X506Y581D01*
X514Y581D01*
X514Y579D01*
X521Y579D01*
X521Y578D01*
X495Y578D01*
X495Y579D01*
X493Y579D01*
X493Y581D01*
X490Y581D01*
X490Y583D01*
X486Y583D01*
X486Y584D01*
X483Y584D01*
X483Y586D01*
X500Y586D01*
G37*
D02*
G36*
X762Y583D02*
X762Y581D01*
X765Y581D01*
X765Y576D01*
X767Y576D01*
X767Y575D01*
X769Y575D01*
X769Y571D01*
X777Y571D01*
X777Y570D01*
X759Y570D01*
X759Y571D01*
X757Y571D01*
X757Y573D01*
X756Y573D01*
X756Y581D01*
X757Y581D01*
X757Y583D01*
X762Y583D01*
G37*
D02*
G36*
X564Y578D02*
X564Y576D01*
X498Y576D01*
X498Y578D01*
X564Y578D01*
G37*
D02*
G36*
X564Y578D02*
X564Y576D01*
X498Y576D01*
X498Y578D01*
X564Y578D01*
G37*
D02*
G36*
X564Y576D02*
X564Y575D01*
X562Y575D01*
X562Y573D01*
X527Y573D01*
X527Y571D01*
X514Y571D01*
X514Y573D01*
X508Y573D01*
X508Y575D01*
X503Y575D01*
X503Y576D01*
X564Y576D01*
G37*
D02*
G36*
X467Y576D02*
X467Y575D01*
X426Y575D01*
X426Y576D01*
X467Y576D01*
G37*
D02*
G36*
X467Y576D02*
X467Y575D01*
X426Y575D01*
X426Y576D01*
X467Y576D01*
G37*
D02*
G36*
X467Y576D02*
X467Y575D01*
X426Y575D01*
X426Y576D01*
X467Y576D01*
G37*
D02*
G36*
X467Y575D02*
X467Y573D01*
X465Y573D01*
X465Y571D01*
X432Y571D01*
X432Y570D01*
X431Y570D01*
X431Y568D01*
X429Y568D01*
X429Y565D01*
X427Y565D01*
X427Y563D01*
X426Y563D01*
X426Y558D01*
X424Y558D01*
X424Y555D01*
X423Y555D01*
X423Y543D01*
X424Y543D01*
X424Y537D01*
X426Y537D01*
X426Y532D01*
X427Y532D01*
X427Y529D01*
X429Y529D01*
X429Y525D01*
X431Y525D01*
X431Y524D01*
X432Y524D01*
X432Y520D01*
X434Y520D01*
X434Y519D01*
X436Y519D01*
X436Y515D01*
X424Y515D01*
X424Y520D01*
X423Y520D01*
X423Y527D01*
X421Y527D01*
X421Y529D01*
X419Y529D01*
X419Y530D01*
X418Y530D01*
X418Y540D01*
X416Y540D01*
X416Y543D01*
X414Y543D01*
X414Y555D01*
X416Y555D01*
X416Y560D01*
X418Y560D01*
X418Y565D01*
X419Y565D01*
X419Y566D01*
X421Y566D01*
X421Y570D01*
X423Y570D01*
X423Y571D01*
X424Y571D01*
X424Y575D01*
X467Y575D01*
G37*
D02*
G36*
X562Y573D02*
X562Y570D01*
X564Y570D01*
X564Y566D01*
X567Y566D01*
X567Y563D01*
X569Y563D01*
X569Y561D01*
X572Y561D01*
X572Y560D01*
X573Y560D01*
X573Y558D01*
X578Y558D01*
X578Y556D01*
X562Y556D01*
X562Y558D01*
X560Y558D01*
X560Y560D01*
X559Y560D01*
X559Y561D01*
X557Y561D01*
X557Y565D01*
X555Y565D01*
X555Y568D01*
X552Y568D01*
X552Y571D01*
X550Y571D01*
X550Y573D01*
X562Y573D01*
G37*
D02*
G36*
X464Y571D02*
X464Y570D01*
X460Y570D01*
X460Y566D01*
X452Y566D01*
X452Y565D01*
X442Y565D01*
X442Y566D01*
X439Y566D01*
X439Y570D01*
X434Y570D01*
X434Y571D01*
X464Y571D01*
G37*
D02*
G36*
X795Y570D02*
X795Y568D01*
X759Y568D01*
X759Y570D01*
X795Y570D01*
G37*
D02*
G36*
X795Y570D02*
X795Y568D01*
X759Y568D01*
X759Y570D01*
X795Y570D01*
G37*
D02*
G36*
X718Y570D02*
X718Y566D01*
X716Y566D01*
X716Y558D01*
X715Y558D01*
X715Y553D01*
X716Y553D01*
X716Y550D01*
X718Y550D01*
X718Y548D01*
X719Y548D01*
X719Y547D01*
X721Y547D01*
X721Y545D01*
X723Y545D01*
X723Y543D01*
X728Y543D01*
X728Y542D01*
X733Y542D01*
X733Y540D01*
X741Y540D01*
X741Y538D01*
X715Y538D01*
X715Y540D01*
X713Y540D01*
X713Y542D01*
X711Y542D01*
X711Y545D01*
X710Y545D01*
X710Y547D01*
X708Y547D01*
X708Y548D01*
X706Y548D01*
X706Y553D01*
X705Y553D01*
X705Y555D01*
X706Y555D01*
X706Y558D01*
X705Y558D01*
X705Y561D01*
X706Y561D01*
X706Y570D01*
X718Y570D01*
G37*
D02*
G36*
X793Y568D02*
X793Y566D01*
X790Y566D01*
X790Y565D01*
X782Y565D01*
X782Y563D01*
X772Y563D01*
X772Y561D01*
X769Y561D01*
X769Y560D01*
X767Y560D01*
X767Y556D01*
X765Y556D01*
X765Y553D01*
X764Y553D01*
X764Y548D01*
X762Y548D01*
X762Y543D01*
X760Y543D01*
X760Y542D01*
X759Y542D01*
X759Y538D01*
X749Y538D01*
X749Y540D01*
X751Y540D01*
X751Y545D01*
X752Y545D01*
X752Y548D01*
X754Y548D01*
X754Y555D01*
X756Y555D01*
X756Y558D01*
X757Y558D01*
X757Y561D01*
X759Y561D01*
X759Y566D01*
X760Y566D01*
X760Y568D01*
X793Y568D01*
G37*
D02*
G36*
X642Y568D02*
X642Y566D01*
X639Y566D01*
X639Y568D01*
X642Y568D01*
G37*
D02*
G36*
X693Y566D02*
X693Y565D01*
X628Y565D01*
X628Y566D01*
X693Y566D01*
G37*
D02*
G36*
X693Y566D02*
X693Y565D01*
X628Y565D01*
X628Y566D01*
X693Y566D01*
G37*
D02*
G36*
X693Y566D02*
X693Y565D01*
X628Y565D01*
X628Y566D01*
X693Y566D01*
G37*
D02*
G36*
X462Y566D02*
X462Y563D01*
X464Y563D01*
X464Y548D01*
X462Y548D01*
X462Y547D01*
X460Y547D01*
X460Y545D01*
X459Y545D01*
X459Y543D01*
X455Y543D01*
X455Y540D01*
X454Y540D01*
X454Y538D01*
X452Y538D01*
X452Y537D01*
X450Y537D01*
X450Y533D01*
X449Y533D01*
X449Y522D01*
X439Y522D01*
X439Y529D01*
X441Y529D01*
X441Y535D01*
X442Y535D01*
X442Y538D01*
X444Y538D01*
X444Y542D01*
X445Y542D01*
X445Y543D01*
X447Y543D01*
X447Y545D01*
X449Y545D01*
X449Y547D01*
X450Y547D01*
X450Y548D01*
X452Y548D01*
X452Y550D01*
X455Y550D01*
X455Y555D01*
X457Y555D01*
X457Y560D01*
X455Y560D01*
X455Y566D01*
X462Y566D01*
G37*
D02*
G36*
X785Y565D02*
X785Y563D01*
X783Y563D01*
X783Y565D01*
X785Y565D01*
G37*
D02*
G36*
X688Y565D02*
X688Y563D01*
X685Y563D01*
X685Y561D01*
X672Y561D01*
X672Y560D01*
X664Y560D01*
X664Y558D01*
X642Y558D01*
X642Y556D01*
X641Y556D01*
X641Y553D01*
X639Y553D01*
X639Y547D01*
X637Y547D01*
X637Y545D01*
X618Y545D01*
X618Y547D01*
X623Y547D01*
X623Y548D01*
X626Y548D01*
X626Y550D01*
X629Y550D01*
X629Y552D01*
X631Y552D01*
X631Y556D01*
X632Y556D01*
X632Y561D01*
X631Y561D01*
X631Y563D01*
X629Y563D01*
X629Y565D01*
X688Y565D01*
G37*
D02*
G36*
X598Y556D02*
X598Y555D01*
X565Y555D01*
X565Y556D01*
X598Y556D01*
G37*
D02*
G36*
X598Y556D02*
X598Y555D01*
X565Y555D01*
X565Y556D01*
X598Y556D01*
G37*
D02*
G36*
X600Y555D02*
X600Y553D01*
X601Y553D01*
X601Y552D01*
X603Y552D01*
X603Y550D01*
X605Y550D01*
X605Y548D01*
X610Y548D01*
X610Y547D01*
X575Y547D01*
X575Y548D01*
X573Y548D01*
X573Y550D01*
X572Y550D01*
X572Y552D01*
X570Y552D01*
X570Y553D01*
X569Y553D01*
X569Y555D01*
X600Y555D01*
G37*
D02*
G36*
X613Y548D02*
X613Y547D01*
X611Y547D01*
X611Y548D01*
X613Y548D01*
G37*
D02*
G36*
X614Y547D02*
X614Y545D01*
X591Y545D01*
X591Y547D01*
X614Y547D01*
G37*
D02*
G36*
X614Y547D02*
X614Y545D01*
X591Y545D01*
X591Y547D01*
X614Y547D01*
G37*
D02*
G36*
X634Y545D02*
X634Y543D01*
X596Y543D01*
X596Y545D01*
X634Y545D01*
G37*
D02*
G36*
X634Y545D02*
X634Y543D01*
X596Y543D01*
X596Y545D01*
X634Y545D01*
G37*
D02*
G36*
X629Y543D02*
X629Y542D01*
X626Y542D01*
X626Y540D01*
X624Y540D01*
X624Y538D01*
X621Y538D01*
X621Y537D01*
X610Y537D01*
X610Y540D01*
X605Y540D01*
X605Y542D01*
X598Y542D01*
X598Y543D01*
X629Y543D01*
G37*
D02*
G36*
X757Y538D02*
X757Y537D01*
X716Y537D01*
X716Y538D01*
X757Y538D01*
G37*
D02*
G36*
X757Y538D02*
X757Y537D01*
X716Y537D01*
X716Y538D01*
X757Y538D01*
G37*
D02*
G36*
X754Y537D02*
X754Y530D01*
X733Y530D01*
X733Y529D01*
X731Y529D01*
X731Y525D01*
X729Y525D01*
X729Y524D01*
X731Y524D01*
X731Y514D01*
X729Y514D01*
X729Y502D01*
X731Y502D01*
X731Y499D01*
X733Y499D01*
X733Y496D01*
X723Y496D01*
X723Y497D01*
X721Y497D01*
X721Y501D01*
X719Y501D01*
X719Y509D01*
X718Y509D01*
X718Y511D01*
X719Y511D01*
X719Y525D01*
X721Y525D01*
X721Y535D01*
X718Y535D01*
X718Y537D01*
X754Y537D01*
G37*
D02*
G36*
X752Y530D02*
X752Y529D01*
X744Y529D01*
X744Y527D01*
X741Y527D01*
X741Y530D01*
X752Y530D01*
G37*
D02*
G36*
X480Y525D02*
X480Y524D01*
X483Y524D01*
X483Y522D01*
X452Y522D01*
X452Y524D01*
X467Y524D01*
X467Y525D01*
X480Y525D01*
G37*
D02*
G36*
X404Y524D02*
X404Y522D01*
X408Y522D01*
X408Y520D01*
X414Y520D01*
X414Y519D01*
X418Y519D01*
X418Y517D01*
X421Y517D01*
X421Y515D01*
X398Y515D01*
X398Y512D01*
X396Y512D01*
X396Y511D01*
X398Y511D01*
X398Y507D01*
X403Y507D01*
X403Y506D01*
X406Y506D01*
X406Y504D01*
X390Y504D01*
X390Y511D01*
X388Y511D01*
X388Y515D01*
X390Y515D01*
X390Y519D01*
X391Y519D01*
X391Y520D01*
X393Y520D01*
X393Y522D01*
X395Y522D01*
X395Y524D01*
X404Y524D01*
G37*
D02*
G36*
X483Y522D02*
X483Y520D01*
X439Y520D01*
X439Y522D01*
X483Y522D01*
G37*
D02*
G36*
X483Y522D02*
X483Y520D01*
X439Y520D01*
X439Y522D01*
X483Y522D01*
G37*
D02*
G36*
X483Y520D02*
X483Y517D01*
X460Y517D01*
X460Y515D01*
X464Y515D01*
X464Y514D01*
X441Y514D01*
X441Y519D01*
X439Y519D01*
X439Y520D01*
X483Y520D01*
G37*
D02*
G36*
X483Y517D02*
X483Y514D01*
X468Y514D01*
X468Y515D01*
X470Y515D01*
X470Y517D01*
X483Y517D01*
G37*
D02*
G36*
X437Y515D02*
X437Y514D01*
X406Y514D01*
X406Y515D01*
X437Y515D01*
G37*
D02*
G36*
X437Y515D02*
X437Y514D01*
X406Y514D01*
X406Y515D01*
X437Y515D01*
G37*
D02*
G36*
X482Y514D02*
X482Y512D01*
X442Y512D01*
X442Y514D01*
X482Y514D01*
G37*
D02*
G36*
X482Y514D02*
X482Y512D01*
X442Y512D01*
X442Y514D01*
X482Y514D01*
G37*
D02*
G36*
X437Y514D02*
X437Y504D01*
X419Y504D01*
X419Y507D01*
X416Y507D01*
X416Y509D01*
X414Y509D01*
X414Y511D01*
X411Y511D01*
X411Y512D01*
X408Y512D01*
X408Y514D01*
X437Y514D01*
G37*
D02*
G36*
X480Y512D02*
X480Y511D01*
X478Y511D01*
X478Y509D01*
X477Y509D01*
X477Y507D01*
X472Y507D01*
X472Y506D01*
X457Y506D01*
X457Y507D01*
X452Y507D01*
X452Y509D01*
X447Y509D01*
X447Y511D01*
X445Y511D01*
X445Y512D01*
X480Y512D01*
G37*
D02*
G36*
X409Y506D02*
X409Y504D01*
X408Y504D01*
X408Y506D01*
X409Y506D01*
G37*
D02*
G36*
X772Y504D02*
X772Y502D01*
X775Y502D01*
X775Y501D01*
X778Y501D01*
X778Y497D01*
X780Y497D01*
X780Y488D01*
X765Y488D01*
X765Y489D01*
X767Y489D01*
X767Y491D01*
X769Y491D01*
X769Y492D01*
X770Y492D01*
X770Y494D01*
X769Y494D01*
X769Y496D01*
X741Y496D01*
X741Y497D01*
X746Y497D01*
X746Y499D01*
X751Y499D01*
X751Y501D01*
X754Y501D01*
X754Y502D01*
X760Y502D01*
X760Y504D01*
X772Y504D01*
G37*
D02*
G36*
X436Y504D02*
X436Y502D01*
X391Y502D01*
X391Y504D01*
X436Y504D01*
G37*
D02*
G36*
X436Y504D02*
X436Y502D01*
X391Y502D01*
X391Y504D01*
X436Y504D01*
G37*
D02*
G36*
X436Y504D02*
X436Y502D01*
X391Y502D01*
X391Y504D01*
X436Y504D01*
G37*
D02*
G36*
X432Y502D02*
X432Y501D01*
X431Y501D01*
X431Y499D01*
X426Y499D01*
X426Y497D01*
X409Y497D01*
X409Y496D01*
X408Y496D01*
X408Y497D01*
X401Y497D01*
X401Y499D01*
X398Y499D01*
X398Y501D01*
X393Y501D01*
X393Y502D01*
X432Y502D01*
G37*
D02*
G36*
X760Y496D02*
X760Y494D01*
X723Y494D01*
X723Y496D01*
X760Y496D01*
G37*
D02*
G36*
X760Y496D02*
X760Y494D01*
X723Y494D01*
X723Y496D01*
X760Y496D01*
G37*
D02*
G36*
X759Y494D02*
X759Y492D01*
X756Y492D01*
X756Y491D01*
X754Y491D01*
X754Y489D01*
X751Y489D01*
X751Y488D01*
X742Y488D01*
X742Y486D01*
X741Y486D01*
X741Y484D01*
X739Y484D01*
X739Y483D01*
X741Y483D01*
X741Y481D01*
X742Y481D01*
X742Y479D01*
X731Y479D01*
X731Y481D01*
X729Y481D01*
X729Y483D01*
X728Y483D01*
X728Y484D01*
X729Y484D01*
X729Y486D01*
X728Y486D01*
X728Y488D01*
X726Y488D01*
X726Y491D01*
X724Y491D01*
X724Y492D01*
X723Y492D01*
X723Y494D01*
X759Y494D01*
G37*
D02*
G36*
X764Y489D02*
X764Y488D01*
X762Y488D01*
X762Y489D01*
X764Y489D01*
G37*
D02*
G36*
X778Y488D02*
X778Y486D01*
X762Y486D01*
X762Y488D01*
X778Y488D01*
G37*
D02*
G36*
X778Y488D02*
X778Y486D01*
X762Y486D01*
X762Y488D01*
X778Y488D01*
G37*
D02*
G36*
X777Y486D02*
X777Y484D01*
X774Y484D01*
X774Y483D01*
X772Y483D01*
X772Y481D01*
X767Y481D01*
X767Y479D01*
X749Y479D01*
X749Y481D01*
X754Y481D01*
X754Y483D01*
X759Y483D01*
X759Y484D01*
X760Y484D01*
X760Y486D01*
X777Y486D01*
G37*
D02*
G36*
X764Y479D02*
X764Y478D01*
X731Y478D01*
X731Y479D01*
X764Y479D01*
G37*
D02*
G36*
X764Y479D02*
X764Y478D01*
X731Y478D01*
X731Y479D01*
X764Y479D01*
G37*
D02*
G36*
X760Y478D02*
X760Y476D01*
X757Y476D01*
X757Y474D01*
X756Y474D01*
X756Y473D01*
X751Y473D01*
X751Y471D01*
X737Y471D01*
X737Y473D01*
X734Y473D01*
X734Y474D01*
X733Y474D01*
X733Y476D01*
X731Y476D01*
X731Y478D01*
X760Y478D01*
G37*
D02*
G54D10*
X0Y1181D02*
X1180Y1181D01*
X0Y1180D02*
X1180Y1180D01*
X0Y1179D02*
X1180Y1179D01*
X0Y1178D02*
X1180Y1178D01*
X0Y1177D02*
X1180Y1177D01*
X0Y1176D02*
X1180Y1176D01*
X0Y1175D02*
X1180Y1175D01*
X0Y1174D02*
X1180Y1174D01*
X0Y1173D02*
X7Y1173D01*
X1173Y1173D02*
X1180Y1173D01*
X0Y1172D02*
X7Y1172D01*
X1173Y1172D02*
X1180Y1172D01*
X0Y1171D02*
X7Y1171D01*
X1173Y1171D02*
X1180Y1171D01*
X0Y1170D02*
X7Y1170D01*
X1173Y1170D02*
X1180Y1170D01*
X0Y1169D02*
X7Y1169D01*
X1173Y1169D02*
X1180Y1169D01*
X0Y1168D02*
X7Y1168D01*
X1173Y1168D02*
X1180Y1168D01*
X0Y1167D02*
X7Y1167D01*
X1173Y1167D02*
X1180Y1167D01*
X0Y1166D02*
X7Y1166D01*
X1173Y1166D02*
X1180Y1166D01*
X0Y1165D02*
X7Y1165D01*
X1173Y1165D02*
X1180Y1165D01*
X0Y1164D02*
X7Y1164D01*
X1173Y1164D02*
X1180Y1164D01*
X0Y1163D02*
X7Y1163D01*
X1173Y1163D02*
X1180Y1163D01*
X0Y1162D02*
X7Y1162D01*
X1173Y1162D02*
X1180Y1162D01*
X0Y1161D02*
X7Y1161D01*
X1173Y1161D02*
X1180Y1161D01*
X0Y1160D02*
X7Y1160D01*
X1173Y1160D02*
X1180Y1160D01*
X0Y1159D02*
X7Y1159D01*
X1173Y1159D02*
X1180Y1159D01*
X0Y1158D02*
X7Y1158D01*
X1173Y1158D02*
X1180Y1158D01*
X0Y1157D02*
X7Y1157D01*
X1173Y1157D02*
X1180Y1157D01*
X0Y1156D02*
X7Y1156D01*
X1173Y1156D02*
X1180Y1156D01*
X0Y1155D02*
X7Y1155D01*
X1173Y1155D02*
X1180Y1155D01*
X0Y1154D02*
X7Y1154D01*
X1173Y1154D02*
X1180Y1154D01*
X0Y1153D02*
X7Y1153D01*
X1173Y1153D02*
X1180Y1153D01*
X0Y1152D02*
X7Y1152D01*
X1173Y1152D02*
X1180Y1152D01*
X0Y1151D02*
X7Y1151D01*
X1173Y1151D02*
X1180Y1151D01*
X0Y1150D02*
X7Y1150D01*
X1173Y1150D02*
X1180Y1150D01*
X0Y1149D02*
X7Y1149D01*
X1173Y1149D02*
X1180Y1149D01*
X0Y1148D02*
X7Y1148D01*
X1173Y1148D02*
X1180Y1148D01*
X0Y1147D02*
X7Y1147D01*
X1173Y1147D02*
X1180Y1147D01*
X0Y1146D02*
X7Y1146D01*
X1173Y1146D02*
X1180Y1146D01*
X0Y1145D02*
X7Y1145D01*
X1173Y1145D02*
X1180Y1145D01*
X0Y1144D02*
X7Y1144D01*
X1173Y1144D02*
X1180Y1144D01*
X0Y1143D02*
X7Y1143D01*
X1173Y1143D02*
X1180Y1143D01*
X0Y1142D02*
X7Y1142D01*
X1173Y1142D02*
X1180Y1142D01*
X0Y1141D02*
X7Y1141D01*
X1173Y1141D02*
X1180Y1141D01*
X0Y1140D02*
X7Y1140D01*
X1173Y1140D02*
X1180Y1140D01*
X0Y1139D02*
X7Y1139D01*
X1173Y1139D02*
X1180Y1139D01*
X0Y1138D02*
X7Y1138D01*
X1173Y1138D02*
X1180Y1138D01*
X0Y1137D02*
X7Y1137D01*
X1173Y1137D02*
X1180Y1137D01*
X0Y1136D02*
X7Y1136D01*
X1173Y1136D02*
X1180Y1136D01*
X0Y1135D02*
X7Y1135D01*
X1173Y1135D02*
X1180Y1135D01*
X0Y1134D02*
X7Y1134D01*
X1173Y1134D02*
X1180Y1134D01*
X0Y1133D02*
X7Y1133D01*
X1173Y1133D02*
X1180Y1133D01*
X0Y1132D02*
X7Y1132D01*
X1173Y1132D02*
X1180Y1132D01*
X0Y1131D02*
X7Y1131D01*
X1173Y1131D02*
X1180Y1131D01*
X0Y1130D02*
X7Y1130D01*
X1173Y1130D02*
X1180Y1130D01*
X0Y1129D02*
X7Y1129D01*
X1173Y1129D02*
X1180Y1129D01*
X0Y1128D02*
X7Y1128D01*
X1173Y1128D02*
X1180Y1128D01*
X0Y1127D02*
X7Y1127D01*
X1173Y1127D02*
X1180Y1127D01*
X0Y1126D02*
X7Y1126D01*
X1173Y1126D02*
X1180Y1126D01*
X0Y1125D02*
X7Y1125D01*
X1173Y1125D02*
X1180Y1125D01*
X0Y1124D02*
X7Y1124D01*
X1173Y1124D02*
X1180Y1124D01*
X0Y1123D02*
X7Y1123D01*
X214Y1123D02*
X219Y1123D01*
X995Y1123D02*
X999Y1123D01*
X1173Y1123D02*
X1180Y1123D01*
X0Y1122D02*
X7Y1122D01*
X214Y1122D02*
X219Y1122D01*
X994Y1122D02*
X1000Y1122D01*
X1173Y1122D02*
X1180Y1122D01*
X0Y1121D02*
X7Y1121D01*
X149Y1121D02*
X160Y1121D01*
X214Y1121D02*
X219Y1121D01*
X240Y1121D02*
X256Y1121D01*
X273Y1121D02*
X288Y1121D01*
X305Y1121D02*
X322Y1121D01*
X336Y1121D02*
X337Y1121D01*
X374Y1121D02*
X389Y1121D01*
X401Y1121D02*
X410Y1121D01*
X437Y1121D02*
X454Y1121D01*
X614Y1121D02*
X615Y1121D01*
X665Y1121D02*
X681Y1121D01*
X694Y1121D02*
X695Y1121D01*
X874Y1121D02*
X875Y1121D01*
X939Y1121D02*
X940Y1121D01*
X994Y1121D02*
X1000Y1121D01*
X1173Y1121D02*
X1180Y1121D01*
X0Y1120D02*
X7Y1120D01*
X149Y1120D02*
X161Y1120D01*
X214Y1120D02*
X219Y1120D01*
X239Y1120D02*
X257Y1120D01*
X272Y1120D02*
X289Y1120D01*
X304Y1120D02*
X323Y1120D01*
X335Y1120D02*
X338Y1120D01*
X372Y1120D02*
X389Y1120D01*
X400Y1120D02*
X411Y1120D01*
X436Y1120D02*
X454Y1120D01*
X613Y1120D02*
X616Y1120D01*
X663Y1120D02*
X681Y1120D01*
X693Y1120D02*
X696Y1120D01*
X874Y1120D02*
X876Y1120D01*
X939Y1120D02*
X941Y1120D01*
X994Y1120D02*
X1000Y1120D01*
X1173Y1120D02*
X1180Y1120D01*
X0Y1119D02*
X7Y1119D01*
X149Y1119D02*
X161Y1119D01*
X214Y1119D02*
X219Y1119D01*
X238Y1119D02*
X258Y1119D01*
X271Y1119D02*
X290Y1119D01*
X303Y1119D02*
X324Y1119D01*
X335Y1119D02*
X338Y1119D01*
X371Y1119D02*
X389Y1119D01*
X400Y1119D02*
X412Y1119D01*
X435Y1119D02*
X454Y1119D01*
X613Y1119D02*
X616Y1119D01*
X662Y1119D02*
X681Y1119D01*
X693Y1119D02*
X696Y1119D01*
X873Y1119D02*
X877Y1119D01*
X938Y1119D02*
X942Y1119D01*
X994Y1119D02*
X1000Y1119D01*
X1173Y1119D02*
X1180Y1119D01*
X0Y1118D02*
X7Y1118D01*
X149Y1118D02*
X161Y1118D01*
X214Y1118D02*
X219Y1118D01*
X238Y1118D02*
X258Y1118D01*
X270Y1118D02*
X291Y1118D01*
X303Y1118D02*
X324Y1118D01*
X335Y1118D02*
X339Y1118D01*
X370Y1118D02*
X389Y1118D01*
X400Y1118D02*
X413Y1118D01*
X434Y1118D02*
X454Y1118D01*
X613Y1118D02*
X616Y1118D01*
X662Y1118D02*
X681Y1118D01*
X693Y1118D02*
X697Y1118D01*
X873Y1118D02*
X877Y1118D01*
X938Y1118D02*
X942Y1118D01*
X967Y1118D02*
X969Y1118D01*
X994Y1118D02*
X1000Y1118D01*
X1173Y1118D02*
X1180Y1118D01*
X0Y1117D02*
X7Y1117D01*
X149Y1117D02*
X161Y1117D01*
X214Y1117D02*
X219Y1117D01*
X237Y1117D02*
X258Y1117D01*
X270Y1117D02*
X291Y1117D01*
X302Y1117D02*
X323Y1117D01*
X335Y1117D02*
X339Y1117D01*
X370Y1117D02*
X389Y1117D01*
X400Y1117D02*
X414Y1117D01*
X433Y1117D02*
X454Y1117D01*
X613Y1117D02*
X616Y1117D01*
X661Y1117D02*
X681Y1117D01*
X693Y1117D02*
X697Y1117D01*
X873Y1117D02*
X877Y1117D01*
X938Y1117D02*
X942Y1117D01*
X966Y1117D02*
X970Y1117D01*
X995Y1117D02*
X1000Y1117D01*
X1173Y1117D02*
X1180Y1117D01*
X0Y1116D02*
X7Y1116D01*
X149Y1116D02*
X160Y1116D01*
X215Y1116D02*
X219Y1116D01*
X237Y1116D02*
X259Y1116D01*
X270Y1116D02*
X291Y1116D01*
X302Y1116D02*
X323Y1116D01*
X335Y1116D02*
X340Y1116D01*
X369Y1116D02*
X389Y1116D01*
X401Y1116D02*
X414Y1116D01*
X433Y1116D02*
X454Y1116D01*
X613Y1116D02*
X616Y1116D01*
X661Y1116D02*
X681Y1116D01*
X693Y1116D02*
X698Y1116D01*
X873Y1116D02*
X877Y1116D01*
X938Y1116D02*
X942Y1116D01*
X966Y1116D02*
X970Y1116D01*
X995Y1116D02*
X999Y1116D01*
X1173Y1116D02*
X1180Y1116D01*
X0Y1115D02*
X7Y1115D01*
X149Y1115D02*
X152Y1115D01*
X237Y1115D02*
X241Y1115D01*
X255Y1115D02*
X259Y1115D01*
X270Y1115D02*
X273Y1115D01*
X287Y1115D02*
X291Y1115D01*
X302Y1115D02*
X306Y1115D01*
X336Y1115D02*
X340Y1115D01*
X368Y1115D02*
X374Y1115D01*
X385Y1115D02*
X389Y1115D01*
X410Y1115D02*
X415Y1115D01*
X433Y1115D02*
X437Y1115D01*
X450Y1115D02*
X454Y1115D01*
X613Y1115D02*
X616Y1115D01*
X660Y1115D02*
X665Y1115D01*
X678Y1115D02*
X681Y1115D01*
X694Y1115D02*
X698Y1115D01*
X873Y1115D02*
X877Y1115D01*
X938Y1115D02*
X942Y1115D01*
X966Y1115D02*
X970Y1115D01*
X1173Y1115D02*
X1180Y1115D01*
X0Y1114D02*
X7Y1114D01*
X149Y1114D02*
X152Y1114D01*
X237Y1114D02*
X241Y1114D01*
X255Y1114D02*
X259Y1114D01*
X270Y1114D02*
X273Y1114D01*
X288Y1114D02*
X291Y1114D01*
X302Y1114D02*
X306Y1114D01*
X336Y1114D02*
X341Y1114D01*
X368Y1114D02*
X373Y1114D01*
X385Y1114D02*
X389Y1114D01*
X411Y1114D02*
X415Y1114D01*
X433Y1114D02*
X436Y1114D01*
X450Y1114D02*
X454Y1114D01*
X613Y1114D02*
X616Y1114D01*
X660Y1114D02*
X664Y1114D01*
X678Y1114D02*
X681Y1114D01*
X694Y1114D02*
X698Y1114D01*
X873Y1114D02*
X877Y1114D01*
X938Y1114D02*
X942Y1114D01*
X966Y1114D02*
X970Y1114D01*
X1173Y1114D02*
X1180Y1114D01*
X0Y1113D02*
X7Y1113D01*
X149Y1113D02*
X152Y1113D01*
X237Y1113D02*
X241Y1113D01*
X255Y1113D02*
X259Y1113D01*
X270Y1113D02*
X273Y1113D01*
X288Y1113D02*
X291Y1113D01*
X302Y1113D02*
X306Y1113D01*
X337Y1113D02*
X341Y1113D01*
X368Y1113D02*
X372Y1113D01*
X385Y1113D02*
X389Y1113D01*
X411Y1113D02*
X416Y1113D01*
X432Y1113D02*
X436Y1113D01*
X450Y1113D02*
X454Y1113D01*
X613Y1113D02*
X616Y1113D01*
X660Y1113D02*
X664Y1113D01*
X678Y1113D02*
X681Y1113D01*
X695Y1113D02*
X699Y1113D01*
X873Y1113D02*
X877Y1113D01*
X938Y1113D02*
X942Y1113D01*
X966Y1113D02*
X970Y1113D01*
X1173Y1113D02*
X1180Y1113D01*
X0Y1112D02*
X7Y1112D01*
X149Y1112D02*
X152Y1112D01*
X237Y1112D02*
X241Y1112D01*
X255Y1112D02*
X259Y1112D01*
X270Y1112D02*
X273Y1112D01*
X288Y1112D02*
X291Y1112D01*
X302Y1112D02*
X306Y1112D01*
X337Y1112D02*
X341Y1112D01*
X368Y1112D02*
X371Y1112D01*
X385Y1112D02*
X389Y1112D01*
X412Y1112D02*
X417Y1112D01*
X432Y1112D02*
X436Y1112D01*
X450Y1112D02*
X454Y1112D01*
X613Y1112D02*
X616Y1112D01*
X660Y1112D02*
X664Y1112D01*
X678Y1112D02*
X681Y1112D01*
X695Y1112D02*
X699Y1112D01*
X873Y1112D02*
X877Y1112D01*
X938Y1112D02*
X942Y1112D01*
X966Y1112D02*
X970Y1112D01*
X1173Y1112D02*
X1180Y1112D01*
X0Y1111D02*
X7Y1111D01*
X149Y1111D02*
X152Y1111D01*
X237Y1111D02*
X241Y1111D01*
X255Y1111D02*
X259Y1111D01*
X270Y1111D02*
X273Y1111D01*
X288Y1111D02*
X291Y1111D01*
X302Y1111D02*
X306Y1111D01*
X338Y1111D02*
X342Y1111D01*
X367Y1111D02*
X371Y1111D01*
X385Y1111D02*
X389Y1111D01*
X412Y1111D02*
X417Y1111D01*
X432Y1111D02*
X436Y1111D01*
X450Y1111D02*
X454Y1111D01*
X613Y1111D02*
X616Y1111D01*
X660Y1111D02*
X664Y1111D01*
X678Y1111D02*
X681Y1111D01*
X695Y1111D02*
X700Y1111D01*
X873Y1111D02*
X877Y1111D01*
X938Y1111D02*
X942Y1111D01*
X966Y1111D02*
X970Y1111D01*
X1173Y1111D02*
X1180Y1111D01*
X0Y1110D02*
X7Y1110D01*
X149Y1110D02*
X152Y1110D01*
X237Y1110D02*
X241Y1110D01*
X255Y1110D02*
X259Y1110D01*
X270Y1110D02*
X273Y1110D01*
X288Y1110D02*
X291Y1110D01*
X302Y1110D02*
X306Y1110D01*
X338Y1110D02*
X342Y1110D01*
X367Y1110D02*
X371Y1110D01*
X385Y1110D02*
X389Y1110D01*
X413Y1110D02*
X418Y1110D01*
X432Y1110D02*
X436Y1110D01*
X450Y1110D02*
X454Y1110D01*
X613Y1110D02*
X616Y1110D01*
X660Y1110D02*
X664Y1110D01*
X678Y1110D02*
X681Y1110D01*
X696Y1110D02*
X700Y1110D01*
X873Y1110D02*
X877Y1110D01*
X938Y1110D02*
X942Y1110D01*
X966Y1110D02*
X970Y1110D01*
X1173Y1110D02*
X1180Y1110D01*
X0Y1109D02*
X7Y1109D01*
X149Y1109D02*
X152Y1109D01*
X237Y1109D02*
X241Y1109D01*
X255Y1109D02*
X259Y1109D01*
X270Y1109D02*
X273Y1109D01*
X288Y1109D02*
X291Y1109D01*
X302Y1109D02*
X306Y1109D01*
X338Y1109D02*
X343Y1109D01*
X367Y1109D02*
X371Y1109D01*
X385Y1109D02*
X389Y1109D01*
X414Y1109D02*
X418Y1109D01*
X432Y1109D02*
X436Y1109D01*
X450Y1109D02*
X454Y1109D01*
X613Y1109D02*
X616Y1109D01*
X660Y1109D02*
X664Y1109D01*
X678Y1109D02*
X681Y1109D01*
X696Y1109D02*
X701Y1109D01*
X873Y1109D02*
X877Y1109D01*
X938Y1109D02*
X942Y1109D01*
X966Y1109D02*
X970Y1109D01*
X1173Y1109D02*
X1180Y1109D01*
X0Y1108D02*
X7Y1108D01*
X149Y1108D02*
X152Y1108D01*
X177Y1108D02*
X183Y1108D01*
X191Y1108D02*
X193Y1108D01*
X215Y1108D02*
X223Y1108D01*
X237Y1108D02*
X241Y1108D01*
X255Y1108D02*
X259Y1108D01*
X270Y1108D02*
X273Y1108D01*
X288Y1108D02*
X291Y1108D01*
X302Y1108D02*
X306Y1108D01*
X339Y1108D02*
X343Y1108D01*
X367Y1108D02*
X371Y1108D01*
X385Y1108D02*
X389Y1108D01*
X414Y1108D02*
X419Y1108D01*
X432Y1108D02*
X436Y1108D01*
X450Y1108D02*
X454Y1108D01*
X470Y1108D02*
X481Y1108D01*
X499Y1108D02*
X510Y1108D01*
X531Y1108D02*
X543Y1108D01*
X569Y1108D02*
X578Y1108D01*
X601Y1108D02*
X608Y1108D01*
X613Y1108D02*
X616Y1108D01*
X634Y1108D02*
X643Y1108D01*
X660Y1108D02*
X664Y1108D01*
X678Y1108D02*
X681Y1108D01*
X697Y1108D02*
X701Y1108D01*
X729Y1108D02*
X731Y1108D01*
X738Y1108D02*
X741Y1108D01*
X744Y1108D02*
X746Y1108D01*
X764Y1108D02*
X773Y1108D01*
X791Y1108D02*
X803Y1108D01*
X861Y1108D02*
X868Y1108D01*
X873Y1108D02*
X877Y1108D01*
X889Y1108D02*
X890Y1108D01*
X907Y1108D02*
X908Y1108D01*
X925Y1108D02*
X931Y1108D01*
X938Y1108D02*
X942Y1108D01*
X956Y1108D02*
X973Y1108D01*
X995Y1108D02*
X1003Y1108D01*
X1019Y1108D02*
X1020Y1108D01*
X1026Y1108D02*
X1033Y1108D01*
X1173Y1108D02*
X1180Y1108D01*
X0Y1107D02*
X7Y1107D01*
X149Y1107D02*
X152Y1107D01*
X176Y1107D02*
X185Y1107D01*
X190Y1107D02*
X193Y1107D01*
X214Y1107D02*
X224Y1107D01*
X237Y1107D02*
X241Y1107D01*
X255Y1107D02*
X259Y1107D01*
X270Y1107D02*
X273Y1107D01*
X288Y1107D02*
X291Y1107D01*
X302Y1107D02*
X306Y1107D01*
X339Y1107D02*
X344Y1107D01*
X367Y1107D02*
X371Y1107D01*
X385Y1107D02*
X389Y1107D01*
X415Y1107D02*
X419Y1107D01*
X433Y1107D02*
X437Y1107D01*
X450Y1107D02*
X454Y1107D01*
X469Y1107D02*
X482Y1107D01*
X498Y1107D02*
X512Y1107D01*
X530Y1107D02*
X544Y1107D01*
X567Y1107D02*
X579Y1107D01*
X600Y1107D02*
X610Y1107D01*
X613Y1107D02*
X616Y1107D01*
X632Y1107D02*
X644Y1107D01*
X660Y1107D02*
X664Y1107D01*
X678Y1107D02*
X681Y1107D01*
X697Y1107D02*
X701Y1107D01*
X728Y1107D02*
X733Y1107D01*
X736Y1107D02*
X742Y1107D01*
X744Y1107D02*
X747Y1107D01*
X762Y1107D02*
X774Y1107D01*
X791Y1107D02*
X805Y1107D01*
X860Y1107D02*
X870Y1107D01*
X873Y1107D02*
X877Y1107D01*
X888Y1107D02*
X891Y1107D01*
X906Y1107D02*
X909Y1107D01*
X924Y1107D02*
X933Y1107D01*
X938Y1107D02*
X942Y1107D01*
X955Y1107D02*
X974Y1107D01*
X995Y1107D02*
X1004Y1107D01*
X1018Y1107D02*
X1021Y1107D01*
X1025Y1107D02*
X1035Y1107D01*
X1173Y1107D02*
X1180Y1107D01*
X0Y1106D02*
X7Y1106D01*
X149Y1106D02*
X152Y1106D01*
X175Y1106D02*
X186Y1106D01*
X190Y1106D02*
X193Y1106D01*
X214Y1106D02*
X224Y1106D01*
X237Y1106D02*
X241Y1106D01*
X255Y1106D02*
X259Y1106D01*
X270Y1106D02*
X273Y1106D01*
X288Y1106D02*
X291Y1106D01*
X302Y1106D02*
X306Y1106D01*
X340Y1106D02*
X344Y1106D01*
X367Y1106D02*
X371Y1106D01*
X385Y1106D02*
X389Y1106D01*
X415Y1106D02*
X420Y1106D01*
X433Y1106D02*
X438Y1106D01*
X450Y1106D02*
X454Y1106D01*
X468Y1106D02*
X482Y1106D01*
X497Y1106D02*
X513Y1106D01*
X530Y1106D02*
X546Y1106D01*
X566Y1106D02*
X580Y1106D01*
X599Y1106D02*
X611Y1106D01*
X613Y1106D02*
X616Y1106D01*
X631Y1106D02*
X645Y1106D01*
X660Y1106D02*
X666Y1106D01*
X678Y1106D02*
X681Y1106D01*
X698Y1106D02*
X702Y1106D01*
X727Y1106D02*
X747Y1106D01*
X761Y1106D02*
X775Y1106D01*
X790Y1106D02*
X806Y1106D01*
X859Y1106D02*
X871Y1106D01*
X873Y1106D02*
X877Y1106D01*
X888Y1106D02*
X891Y1106D01*
X906Y1106D02*
X909Y1106D01*
X923Y1106D02*
X934Y1106D01*
X938Y1106D02*
X942Y1106D01*
X955Y1106D02*
X974Y1106D01*
X994Y1106D02*
X1004Y1106D01*
X1018Y1106D02*
X1021Y1106D01*
X1024Y1106D02*
X1036Y1106D01*
X1173Y1106D02*
X1180Y1106D01*
X0Y1105D02*
X7Y1105D01*
X149Y1105D02*
X152Y1105D01*
X174Y1105D02*
X187Y1105D01*
X190Y1105D02*
X194Y1105D01*
X214Y1105D02*
X224Y1105D01*
X237Y1105D02*
X241Y1105D01*
X255Y1105D02*
X259Y1105D01*
X270Y1105D02*
X273Y1105D01*
X288Y1105D02*
X291Y1105D01*
X302Y1105D02*
X306Y1105D01*
X340Y1105D02*
X345Y1105D01*
X367Y1105D02*
X371Y1105D01*
X385Y1105D02*
X389Y1105D01*
X416Y1105D02*
X420Y1105D01*
X433Y1105D02*
X454Y1105D01*
X467Y1105D02*
X482Y1105D01*
X497Y1105D02*
X514Y1105D01*
X530Y1105D02*
X546Y1105D01*
X565Y1105D02*
X581Y1105D01*
X598Y1105D02*
X616Y1105D01*
X630Y1105D02*
X646Y1105D01*
X661Y1105D02*
X681Y1105D01*
X698Y1105D02*
X702Y1105D01*
X726Y1105D02*
X747Y1105D01*
X760Y1105D02*
X776Y1105D01*
X790Y1105D02*
X807Y1105D01*
X858Y1105D02*
X877Y1105D01*
X888Y1105D02*
X891Y1105D01*
X906Y1105D02*
X909Y1105D01*
X922Y1105D02*
X935Y1105D01*
X938Y1105D02*
X942Y1105D01*
X955Y1105D02*
X974Y1105D01*
X994Y1105D02*
X1004Y1105D01*
X1018Y1105D02*
X1036Y1105D01*
X1173Y1105D02*
X1180Y1105D01*
X0Y1104D02*
X7Y1104D01*
X149Y1104D02*
X152Y1104D01*
X174Y1104D02*
X188Y1104D01*
X190Y1104D02*
X194Y1104D01*
X214Y1104D02*
X224Y1104D01*
X237Y1104D02*
X241Y1104D01*
X255Y1104D02*
X259Y1104D01*
X270Y1104D02*
X273Y1104D01*
X288Y1104D02*
X291Y1104D01*
X302Y1104D02*
X306Y1104D01*
X341Y1104D02*
X345Y1104D01*
X368Y1104D02*
X372Y1104D01*
X385Y1104D02*
X389Y1104D01*
X416Y1104D02*
X421Y1104D01*
X434Y1104D02*
X454Y1104D01*
X466Y1104D02*
X482Y1104D01*
X498Y1104D02*
X515Y1104D01*
X530Y1104D02*
X547Y1104D01*
X565Y1104D02*
X582Y1104D01*
X597Y1104D02*
X616Y1104D01*
X630Y1104D02*
X647Y1104D01*
X661Y1104D02*
X681Y1104D01*
X698Y1104D02*
X703Y1104D01*
X726Y1104D02*
X747Y1104D01*
X760Y1104D02*
X777Y1104D01*
X790Y1104D02*
X808Y1104D01*
X857Y1104D02*
X877Y1104D01*
X888Y1104D02*
X891Y1104D01*
X906Y1104D02*
X909Y1104D01*
X922Y1104D02*
X936Y1104D01*
X938Y1104D02*
X942Y1104D01*
X955Y1104D02*
X974Y1104D01*
X994Y1104D02*
X1004Y1104D01*
X1018Y1104D02*
X1037Y1104D01*
X1173Y1104D02*
X1180Y1104D01*
X0Y1103D02*
X7Y1103D01*
X149Y1103D02*
X152Y1103D01*
X173Y1103D02*
X194Y1103D01*
X214Y1103D02*
X223Y1103D01*
X237Y1103D02*
X241Y1103D01*
X255Y1103D02*
X259Y1103D01*
X270Y1103D02*
X273Y1103D01*
X288Y1103D02*
X291Y1103D01*
X302Y1103D02*
X306Y1103D01*
X341Y1103D02*
X345Y1103D01*
X368Y1103D02*
X372Y1103D01*
X385Y1103D02*
X389Y1103D01*
X417Y1103D02*
X421Y1103D01*
X434Y1103D02*
X454Y1103D01*
X466Y1103D02*
X481Y1103D01*
X498Y1103D02*
X516Y1103D01*
X531Y1103D02*
X548Y1103D01*
X564Y1103D02*
X582Y1103D01*
X596Y1103D02*
X616Y1103D01*
X629Y1103D02*
X647Y1103D01*
X662Y1103D02*
X681Y1103D01*
X699Y1103D02*
X703Y1103D01*
X726Y1103D02*
X747Y1103D01*
X759Y1103D02*
X778Y1103D01*
X791Y1103D02*
X808Y1103D01*
X857Y1103D02*
X877Y1103D01*
X888Y1103D02*
X891Y1103D01*
X906Y1103D02*
X909Y1103D01*
X921Y1103D02*
X942Y1103D01*
X956Y1103D02*
X973Y1103D01*
X994Y1103D02*
X1003Y1103D01*
X1018Y1103D02*
X1038Y1103D01*
X1173Y1103D02*
X1180Y1103D01*
X0Y1102D02*
X7Y1102D01*
X149Y1102D02*
X152Y1102D01*
X173Y1102D02*
X177Y1102D01*
X183Y1102D02*
X194Y1102D01*
X214Y1102D02*
X217Y1102D01*
X237Y1102D02*
X241Y1102D01*
X255Y1102D02*
X259Y1102D01*
X270Y1102D02*
X273Y1102D01*
X288Y1102D02*
X291Y1102D01*
X302Y1102D02*
X306Y1102D01*
X342Y1102D02*
X346Y1102D01*
X368Y1102D02*
X373Y1102D01*
X385Y1102D02*
X389Y1102D01*
X417Y1102D02*
X421Y1102D01*
X435Y1102D02*
X454Y1102D01*
X466Y1102D02*
X470Y1102D01*
X510Y1102D02*
X516Y1102D01*
X543Y1102D02*
X549Y1102D01*
X563Y1102D02*
X569Y1102D01*
X578Y1102D02*
X583Y1102D01*
X596Y1102D02*
X601Y1102D01*
X608Y1102D02*
X616Y1102D01*
X628Y1102D02*
X634Y1102D01*
X643Y1102D02*
X648Y1102D01*
X663Y1102D02*
X681Y1102D01*
X699Y1102D02*
X704Y1102D01*
X726Y1102D02*
X729Y1102D01*
X731Y1102D02*
X738Y1102D01*
X740Y1102D02*
X747Y1102D01*
X759Y1102D02*
X764Y1102D01*
X773Y1102D02*
X778Y1102D01*
X803Y1102D02*
X809Y1102D01*
X856Y1102D02*
X862Y1102D01*
X868Y1102D02*
X877Y1102D01*
X888Y1102D02*
X891Y1102D01*
X906Y1102D02*
X909Y1102D01*
X921Y1102D02*
X926Y1102D01*
X931Y1102D02*
X942Y1102D01*
X966Y1102D02*
X970Y1102D01*
X994Y1102D02*
X998Y1102D01*
X1018Y1102D02*
X1026Y1102D01*
X1033Y1102D02*
X1038Y1102D01*
X1173Y1102D02*
X1180Y1102D01*
X0Y1101D02*
X7Y1101D01*
X149Y1101D02*
X152Y1101D01*
X173Y1101D02*
X177Y1101D01*
X184Y1101D02*
X194Y1101D01*
X214Y1101D02*
X217Y1101D01*
X237Y1101D02*
X241Y1101D01*
X255Y1101D02*
X259Y1101D01*
X270Y1101D02*
X273Y1101D01*
X288Y1101D02*
X291Y1101D01*
X302Y1101D02*
X306Y1101D01*
X342Y1101D02*
X346Y1101D01*
X369Y1101D02*
X375Y1101D01*
X385Y1101D02*
X389Y1101D01*
X418Y1101D02*
X421Y1101D01*
X436Y1101D02*
X454Y1101D01*
X466Y1101D02*
X469Y1101D01*
X511Y1101D02*
X517Y1101D01*
X544Y1101D02*
X550Y1101D01*
X563Y1101D02*
X568Y1101D01*
X579Y1101D02*
X583Y1101D01*
X596Y1101D02*
X600Y1101D01*
X609Y1101D02*
X616Y1101D01*
X628Y1101D02*
X633Y1101D01*
X644Y1101D02*
X648Y1101D01*
X664Y1101D02*
X681Y1101D01*
X700Y1101D02*
X704Y1101D01*
X725Y1101D02*
X729Y1101D01*
X732Y1101D02*
X738Y1101D01*
X741Y1101D02*
X747Y1101D01*
X758Y1101D02*
X763Y1101D01*
X774Y1101D02*
X778Y1101D01*
X804Y1101D02*
X810Y1101D01*
X856Y1101D02*
X861Y1101D01*
X869Y1101D02*
X877Y1101D01*
X888Y1101D02*
X891Y1101D01*
X906Y1101D02*
X909Y1101D01*
X921Y1101D02*
X925Y1101D01*
X932Y1101D02*
X942Y1101D01*
X966Y1101D02*
X970Y1101D01*
X994Y1101D02*
X998Y1101D01*
X1018Y1101D02*
X1025Y1101D01*
X1034Y1101D02*
X1039Y1101D01*
X1173Y1101D02*
X1180Y1101D01*
X0Y1100D02*
X7Y1100D01*
X149Y1100D02*
X152Y1100D01*
X173Y1100D02*
X176Y1100D01*
X185Y1100D02*
X194Y1100D01*
X214Y1100D02*
X217Y1100D01*
X237Y1100D02*
X241Y1100D01*
X255Y1100D02*
X259Y1100D01*
X270Y1100D02*
X273Y1100D01*
X288Y1100D02*
X291Y1100D01*
X302Y1100D02*
X321Y1100D01*
X342Y1100D02*
X347Y1100D01*
X369Y1100D02*
X389Y1100D01*
X418Y1100D02*
X421Y1100D01*
X438Y1100D02*
X454Y1100D01*
X466Y1100D02*
X469Y1100D01*
X512Y1100D02*
X518Y1100D01*
X545Y1100D02*
X550Y1100D01*
X563Y1100D02*
X567Y1100D01*
X579Y1100D02*
X584Y1100D01*
X595Y1100D02*
X600Y1100D01*
X610Y1100D02*
X616Y1100D01*
X628Y1100D02*
X632Y1100D01*
X644Y1100D02*
X649Y1100D01*
X666Y1100D02*
X681Y1100D01*
X700Y1100D02*
X704Y1100D01*
X725Y1100D02*
X729Y1100D01*
X733Y1100D02*
X738Y1100D01*
X742Y1100D02*
X747Y1100D01*
X758Y1100D02*
X762Y1100D01*
X775Y1100D02*
X779Y1100D01*
X805Y1100D02*
X810Y1100D01*
X855Y1100D02*
X860Y1100D01*
X870Y1100D02*
X877Y1100D01*
X888Y1100D02*
X891Y1100D01*
X906Y1100D02*
X909Y1100D01*
X921Y1100D02*
X924Y1100D01*
X934Y1100D02*
X942Y1100D01*
X966Y1100D02*
X970Y1100D01*
X994Y1100D02*
X998Y1100D01*
X1018Y1100D02*
X1025Y1100D01*
X1035Y1100D02*
X1039Y1100D01*
X1173Y1100D02*
X1180Y1100D01*
X0Y1099D02*
X7Y1099D01*
X149Y1099D02*
X152Y1099D01*
X173Y1099D02*
X176Y1099D01*
X187Y1099D02*
X194Y1099D01*
X214Y1099D02*
X217Y1099D01*
X237Y1099D02*
X241Y1099D01*
X255Y1099D02*
X259Y1099D01*
X270Y1099D02*
X273Y1099D01*
X288Y1099D02*
X291Y1099D01*
X302Y1099D02*
X322Y1099D01*
X343Y1099D02*
X347Y1099D01*
X370Y1099D02*
X389Y1099D01*
X418Y1099D02*
X421Y1099D01*
X441Y1099D02*
X446Y1099D01*
X450Y1099D02*
X454Y1099D01*
X465Y1099D02*
X469Y1099D01*
X513Y1099D02*
X518Y1099D01*
X546Y1099D02*
X551Y1099D01*
X563Y1099D02*
X566Y1099D01*
X580Y1099D02*
X584Y1099D01*
X595Y1099D02*
X599Y1099D01*
X611Y1099D02*
X616Y1099D01*
X628Y1099D02*
X631Y1099D01*
X645Y1099D02*
X649Y1099D01*
X669Y1099D02*
X673Y1099D01*
X678Y1099D02*
X681Y1099D01*
X701Y1099D02*
X705Y1099D01*
X725Y1099D02*
X729Y1099D01*
X734Y1099D02*
X738Y1099D01*
X743Y1099D02*
X747Y1099D01*
X758Y1099D02*
X762Y1099D01*
X775Y1099D02*
X779Y1099D01*
X806Y1099D02*
X811Y1099D01*
X855Y1099D02*
X859Y1099D01*
X871Y1099D02*
X877Y1099D01*
X888Y1099D02*
X891Y1099D01*
X905Y1099D02*
X909Y1099D01*
X921Y1099D02*
X924Y1099D01*
X935Y1099D02*
X942Y1099D01*
X966Y1099D02*
X970Y1099D01*
X994Y1099D02*
X998Y1099D01*
X1018Y1099D02*
X1024Y1099D01*
X1035Y1099D02*
X1039Y1099D01*
X1173Y1099D02*
X1180Y1099D01*
X0Y1098D02*
X7Y1098D01*
X149Y1098D02*
X152Y1098D01*
X173Y1098D02*
X176Y1098D01*
X188Y1098D02*
X194Y1098D01*
X214Y1098D02*
X217Y1098D01*
X237Y1098D02*
X241Y1098D01*
X255Y1098D02*
X259Y1098D01*
X270Y1098D02*
X273Y1098D01*
X288Y1098D02*
X291Y1098D01*
X303Y1098D02*
X323Y1098D01*
X343Y1098D02*
X348Y1098D01*
X370Y1098D02*
X389Y1098D01*
X418Y1098D02*
X421Y1098D01*
X441Y1098D02*
X445Y1098D01*
X450Y1098D02*
X454Y1098D01*
X465Y1098D02*
X469Y1098D01*
X514Y1098D02*
X518Y1098D01*
X546Y1098D02*
X551Y1098D01*
X563Y1098D02*
X566Y1098D01*
X580Y1098D02*
X584Y1098D01*
X595Y1098D02*
X599Y1098D01*
X611Y1098D02*
X616Y1098D01*
X628Y1098D02*
X631Y1098D01*
X645Y1098D02*
X649Y1098D01*
X669Y1098D02*
X673Y1098D01*
X678Y1098D02*
X681Y1098D01*
X701Y1098D02*
X705Y1098D01*
X725Y1098D02*
X729Y1098D01*
X734Y1098D02*
X738Y1098D01*
X743Y1098D02*
X747Y1098D01*
X758Y1098D02*
X761Y1098D01*
X775Y1098D02*
X779Y1098D01*
X807Y1098D02*
X811Y1098D01*
X855Y1098D02*
X859Y1098D01*
X872Y1098D02*
X877Y1098D01*
X888Y1098D02*
X891Y1098D01*
X905Y1098D02*
X909Y1098D01*
X921Y1098D02*
X924Y1098D01*
X936Y1098D02*
X942Y1098D01*
X966Y1098D02*
X970Y1098D01*
X994Y1098D02*
X998Y1098D01*
X1018Y1098D02*
X1023Y1098D01*
X1036Y1098D02*
X1039Y1098D01*
X1173Y1098D02*
X1180Y1098D01*
X0Y1097D02*
X7Y1097D01*
X149Y1097D02*
X152Y1097D01*
X173Y1097D02*
X176Y1097D01*
X189Y1097D02*
X194Y1097D01*
X214Y1097D02*
X217Y1097D01*
X237Y1097D02*
X241Y1097D01*
X255Y1097D02*
X259Y1097D01*
X270Y1097D02*
X273Y1097D01*
X288Y1097D02*
X291Y1097D01*
X303Y1097D02*
X323Y1097D01*
X344Y1097D02*
X348Y1097D01*
X370Y1097D02*
X389Y1097D01*
X418Y1097D02*
X421Y1097D01*
X441Y1097D02*
X445Y1097D01*
X450Y1097D02*
X454Y1097D01*
X465Y1097D02*
X469Y1097D01*
X515Y1097D02*
X519Y1097D01*
X547Y1097D02*
X551Y1097D01*
X562Y1097D02*
X566Y1097D01*
X580Y1097D02*
X584Y1097D01*
X595Y1097D02*
X599Y1097D01*
X612Y1097D02*
X616Y1097D01*
X628Y1097D02*
X631Y1097D01*
X645Y1097D02*
X649Y1097D01*
X668Y1097D02*
X673Y1097D01*
X678Y1097D02*
X681Y1097D01*
X701Y1097D02*
X706Y1097D01*
X725Y1097D02*
X729Y1097D01*
X734Y1097D02*
X738Y1097D01*
X743Y1097D02*
X747Y1097D01*
X758Y1097D02*
X761Y1097D01*
X775Y1097D02*
X779Y1097D01*
X807Y1097D02*
X811Y1097D01*
X855Y1097D02*
X859Y1097D01*
X872Y1097D02*
X877Y1097D01*
X888Y1097D02*
X891Y1097D01*
X905Y1097D02*
X909Y1097D01*
X921Y1097D02*
X924Y1097D01*
X937Y1097D02*
X942Y1097D01*
X966Y1097D02*
X970Y1097D01*
X994Y1097D02*
X998Y1097D01*
X1018Y1097D02*
X1022Y1097D01*
X1036Y1097D02*
X1039Y1097D01*
X1173Y1097D02*
X1180Y1097D01*
X0Y1096D02*
X7Y1096D01*
X149Y1096D02*
X152Y1096D01*
X173Y1096D02*
X176Y1096D01*
X190Y1096D02*
X194Y1096D01*
X214Y1096D02*
X217Y1096D01*
X237Y1096D02*
X241Y1096D01*
X255Y1096D02*
X259Y1096D01*
X270Y1096D02*
X273Y1096D01*
X288Y1096D02*
X291Y1096D01*
X304Y1096D02*
X324Y1096D01*
X344Y1096D02*
X348Y1096D01*
X369Y1096D02*
X389Y1096D01*
X418Y1096D02*
X421Y1096D01*
X440Y1096D02*
X444Y1096D01*
X450Y1096D02*
X454Y1096D01*
X465Y1096D02*
X469Y1096D01*
X515Y1096D02*
X519Y1096D01*
X548Y1096D02*
X551Y1096D01*
X562Y1096D02*
X566Y1096D01*
X580Y1096D02*
X584Y1096D01*
X595Y1096D02*
X599Y1096D01*
X613Y1096D02*
X616Y1096D01*
X628Y1096D02*
X631Y1096D01*
X645Y1096D02*
X649Y1096D01*
X668Y1096D02*
X672Y1096D01*
X678Y1096D02*
X681Y1096D01*
X702Y1096D02*
X706Y1096D01*
X725Y1096D02*
X729Y1096D01*
X734Y1096D02*
X738Y1096D01*
X743Y1096D02*
X747Y1096D01*
X758Y1096D02*
X761Y1096D01*
X775Y1096D02*
X779Y1096D01*
X808Y1096D02*
X811Y1096D01*
X855Y1096D02*
X859Y1096D01*
X873Y1096D02*
X877Y1096D01*
X888Y1096D02*
X891Y1096D01*
X905Y1096D02*
X909Y1096D01*
X921Y1096D02*
X924Y1096D01*
X938Y1096D02*
X942Y1096D01*
X966Y1096D02*
X970Y1096D01*
X994Y1096D02*
X998Y1096D01*
X1018Y1096D02*
X1022Y1096D01*
X1036Y1096D02*
X1039Y1096D01*
X1173Y1096D02*
X1180Y1096D01*
X0Y1095D02*
X7Y1095D01*
X141Y1095D02*
X142Y1095D01*
X149Y1095D02*
X152Y1095D01*
X173Y1095D02*
X176Y1095D01*
X190Y1095D02*
X194Y1095D01*
X214Y1095D02*
X217Y1095D01*
X237Y1095D02*
X241Y1095D01*
X255Y1095D02*
X259Y1095D01*
X270Y1095D02*
X273Y1095D01*
X288Y1095D02*
X291Y1095D01*
X306Y1095D02*
X324Y1095D01*
X345Y1095D02*
X349Y1095D01*
X369Y1095D02*
X389Y1095D01*
X400Y1095D02*
X409Y1095D01*
X418Y1095D02*
X421Y1095D01*
X440Y1095D02*
X444Y1095D01*
X450Y1095D02*
X454Y1095D01*
X465Y1095D02*
X482Y1095D01*
X515Y1095D02*
X519Y1095D01*
X548Y1095D02*
X551Y1095D01*
X562Y1095D02*
X566Y1095D01*
X580Y1095D02*
X584Y1095D01*
X595Y1095D02*
X599Y1095D01*
X613Y1095D02*
X616Y1095D01*
X628Y1095D02*
X631Y1095D01*
X645Y1095D02*
X649Y1095D01*
X667Y1095D02*
X672Y1095D01*
X678Y1095D02*
X681Y1095D01*
X702Y1095D02*
X707Y1095D01*
X725Y1095D02*
X729Y1095D01*
X734Y1095D02*
X738Y1095D01*
X743Y1095D02*
X747Y1095D01*
X758Y1095D02*
X761Y1095D01*
X775Y1095D02*
X779Y1095D01*
X808Y1095D02*
X812Y1095D01*
X855Y1095D02*
X859Y1095D01*
X873Y1095D02*
X877Y1095D01*
X888Y1095D02*
X891Y1095D01*
X905Y1095D02*
X909Y1095D01*
X921Y1095D02*
X924Y1095D01*
X938Y1095D02*
X942Y1095D01*
X966Y1095D02*
X970Y1095D01*
X994Y1095D02*
X998Y1095D01*
X1018Y1095D02*
X1021Y1095D01*
X1036Y1095D02*
X1039Y1095D01*
X1173Y1095D02*
X1180Y1095D01*
X0Y1094D02*
X7Y1094D01*
X140Y1094D02*
X143Y1094D01*
X149Y1094D02*
X152Y1094D01*
X173Y1094D02*
X176Y1094D01*
X190Y1094D02*
X194Y1094D01*
X214Y1094D02*
X217Y1094D01*
X237Y1094D02*
X241Y1094D01*
X255Y1094D02*
X259Y1094D01*
X270Y1094D02*
X273Y1094D01*
X288Y1094D02*
X291Y1094D01*
X320Y1094D02*
X324Y1094D01*
X345Y1094D02*
X349Y1094D01*
X368Y1094D02*
X373Y1094D01*
X385Y1094D02*
X389Y1094D01*
X400Y1094D02*
X410Y1094D01*
X418Y1094D02*
X421Y1094D01*
X439Y1094D02*
X444Y1094D01*
X450Y1094D02*
X454Y1094D01*
X465Y1094D02*
X483Y1094D01*
X515Y1094D02*
X519Y1094D01*
X548Y1094D02*
X551Y1094D01*
X562Y1094D02*
X566Y1094D01*
X580Y1094D02*
X584Y1094D01*
X595Y1094D02*
X599Y1094D01*
X613Y1094D02*
X616Y1094D01*
X628Y1094D02*
X631Y1094D01*
X645Y1094D02*
X649Y1094D01*
X667Y1094D02*
X671Y1094D01*
X678Y1094D02*
X681Y1094D01*
X703Y1094D02*
X707Y1094D01*
X725Y1094D02*
X729Y1094D01*
X734Y1094D02*
X738Y1094D01*
X743Y1094D02*
X747Y1094D01*
X758Y1094D02*
X761Y1094D01*
X775Y1094D02*
X779Y1094D01*
X808Y1094D02*
X812Y1094D01*
X855Y1094D02*
X859Y1094D01*
X873Y1094D02*
X877Y1094D01*
X888Y1094D02*
X891Y1094D01*
X905Y1094D02*
X909Y1094D01*
X921Y1094D02*
X924Y1094D01*
X938Y1094D02*
X942Y1094D01*
X966Y1094D02*
X970Y1094D01*
X994Y1094D02*
X998Y1094D01*
X1018Y1094D02*
X1021Y1094D01*
X1036Y1094D02*
X1039Y1094D01*
X1173Y1094D02*
X1180Y1094D01*
X0Y1093D02*
X7Y1093D01*
X140Y1093D02*
X143Y1093D01*
X149Y1093D02*
X152Y1093D01*
X173Y1093D02*
X176Y1093D01*
X190Y1093D02*
X194Y1093D01*
X214Y1093D02*
X217Y1093D01*
X237Y1093D02*
X241Y1093D01*
X255Y1093D02*
X259Y1093D01*
X270Y1093D02*
X273Y1093D01*
X288Y1093D02*
X291Y1093D01*
X320Y1093D02*
X324Y1093D01*
X345Y1093D02*
X350Y1093D01*
X368Y1093D02*
X372Y1093D01*
X385Y1093D02*
X389Y1093D01*
X400Y1093D02*
X410Y1093D01*
X418Y1093D02*
X421Y1093D01*
X439Y1093D02*
X443Y1093D01*
X450Y1093D02*
X454Y1093D01*
X465Y1093D02*
X484Y1093D01*
X515Y1093D02*
X519Y1093D01*
X548Y1093D02*
X551Y1093D01*
X562Y1093D02*
X584Y1093D01*
X595Y1093D02*
X599Y1093D01*
X613Y1093D02*
X616Y1093D01*
X628Y1093D02*
X649Y1093D01*
X667Y1093D02*
X671Y1093D01*
X678Y1093D02*
X681Y1093D01*
X703Y1093D02*
X708Y1093D01*
X725Y1093D02*
X729Y1093D01*
X734Y1093D02*
X738Y1093D01*
X743Y1093D02*
X747Y1093D01*
X758Y1093D02*
X761Y1093D01*
X775Y1093D02*
X779Y1093D01*
X808Y1093D02*
X812Y1093D01*
X831Y1093D02*
X836Y1093D01*
X855Y1093D02*
X859Y1093D01*
X873Y1093D02*
X877Y1093D01*
X888Y1093D02*
X891Y1093D01*
X905Y1093D02*
X909Y1093D01*
X921Y1093D02*
X924Y1093D01*
X938Y1093D02*
X942Y1093D01*
X966Y1093D02*
X970Y1093D01*
X994Y1093D02*
X998Y1093D01*
X1018Y1093D02*
X1021Y1093D01*
X1036Y1093D02*
X1039Y1093D01*
X1173Y1093D02*
X1180Y1093D01*
X0Y1092D02*
X7Y1092D01*
X140Y1092D02*
X143Y1092D01*
X149Y1092D02*
X152Y1092D01*
X173Y1092D02*
X176Y1092D01*
X190Y1092D02*
X194Y1092D01*
X214Y1092D02*
X217Y1092D01*
X237Y1092D02*
X241Y1092D01*
X255Y1092D02*
X259Y1092D01*
X270Y1092D02*
X273Y1092D01*
X288Y1092D02*
X291Y1092D01*
X320Y1092D02*
X324Y1092D01*
X346Y1092D02*
X350Y1092D01*
X368Y1092D02*
X372Y1092D01*
X385Y1092D02*
X389Y1092D01*
X400Y1092D02*
X410Y1092D01*
X418Y1092D02*
X421Y1092D01*
X438Y1092D02*
X443Y1092D01*
X450Y1092D02*
X454Y1092D01*
X465Y1092D02*
X485Y1092D01*
X515Y1092D02*
X519Y1092D01*
X548Y1092D02*
X551Y1092D01*
X562Y1092D02*
X584Y1092D01*
X595Y1092D02*
X599Y1092D01*
X613Y1092D02*
X616Y1092D01*
X628Y1092D02*
X649Y1092D01*
X666Y1092D02*
X670Y1092D01*
X678Y1092D02*
X681Y1092D01*
X704Y1092D02*
X708Y1092D01*
X725Y1092D02*
X729Y1092D01*
X734Y1092D02*
X738Y1092D01*
X743Y1092D02*
X747Y1092D01*
X758Y1092D02*
X761Y1092D01*
X775Y1092D02*
X779Y1092D01*
X808Y1092D02*
X812Y1092D01*
X830Y1092D02*
X837Y1092D01*
X855Y1092D02*
X859Y1092D01*
X873Y1092D02*
X877Y1092D01*
X888Y1092D02*
X891Y1092D01*
X905Y1092D02*
X909Y1092D01*
X921Y1092D02*
X924Y1092D01*
X938Y1092D02*
X942Y1092D01*
X966Y1092D02*
X970Y1092D01*
X994Y1092D02*
X998Y1092D01*
X1018Y1092D02*
X1021Y1092D01*
X1036Y1092D02*
X1039Y1092D01*
X1173Y1092D02*
X1180Y1092D01*
X0Y1091D02*
X7Y1091D01*
X140Y1091D02*
X143Y1091D01*
X149Y1091D02*
X152Y1091D01*
X173Y1091D02*
X176Y1091D01*
X190Y1091D02*
X194Y1091D01*
X214Y1091D02*
X217Y1091D01*
X237Y1091D02*
X241Y1091D01*
X255Y1091D02*
X259Y1091D01*
X270Y1091D02*
X273Y1091D01*
X288Y1091D02*
X291Y1091D01*
X320Y1091D02*
X324Y1091D01*
X346Y1091D02*
X351Y1091D01*
X368Y1091D02*
X371Y1091D01*
X385Y1091D02*
X389Y1091D01*
X400Y1091D02*
X410Y1091D01*
X418Y1091D02*
X421Y1091D01*
X438Y1091D02*
X442Y1091D01*
X450Y1091D02*
X454Y1091D01*
X465Y1091D02*
X485Y1091D01*
X515Y1091D02*
X519Y1091D01*
X548Y1091D02*
X551Y1091D01*
X562Y1091D02*
X584Y1091D01*
X595Y1091D02*
X599Y1091D01*
X613Y1091D02*
X616Y1091D01*
X628Y1091D02*
X649Y1091D01*
X666Y1091D02*
X670Y1091D01*
X678Y1091D02*
X681Y1091D01*
X704Y1091D02*
X708Y1091D01*
X725Y1091D02*
X729Y1091D01*
X734Y1091D02*
X738Y1091D01*
X743Y1091D02*
X747Y1091D01*
X758Y1091D02*
X761Y1091D01*
X775Y1091D02*
X779Y1091D01*
X808Y1091D02*
X812Y1091D01*
X830Y1091D02*
X837Y1091D01*
X855Y1091D02*
X859Y1091D01*
X873Y1091D02*
X877Y1091D01*
X888Y1091D02*
X891Y1091D01*
X905Y1091D02*
X909Y1091D01*
X921Y1091D02*
X924Y1091D01*
X938Y1091D02*
X942Y1091D01*
X966Y1091D02*
X970Y1091D01*
X994Y1091D02*
X998Y1091D01*
X1018Y1091D02*
X1021Y1091D01*
X1036Y1091D02*
X1039Y1091D01*
X1173Y1091D02*
X1180Y1091D01*
X0Y1090D02*
X7Y1090D01*
X140Y1090D02*
X143Y1090D01*
X149Y1090D02*
X152Y1090D01*
X173Y1090D02*
X176Y1090D01*
X190Y1090D02*
X194Y1090D01*
X214Y1090D02*
X217Y1090D01*
X237Y1090D02*
X241Y1090D01*
X255Y1090D02*
X259Y1090D01*
X270Y1090D02*
X273Y1090D01*
X288Y1090D02*
X291Y1090D01*
X320Y1090D02*
X324Y1090D01*
X347Y1090D02*
X351Y1090D01*
X367Y1090D02*
X371Y1090D01*
X385Y1090D02*
X389Y1090D01*
X400Y1090D02*
X409Y1090D01*
X418Y1090D02*
X421Y1090D01*
X438Y1090D02*
X442Y1090D01*
X450Y1090D02*
X454Y1090D01*
X465Y1090D02*
X486Y1090D01*
X515Y1090D02*
X519Y1090D01*
X548Y1090D02*
X551Y1090D01*
X563Y1090D02*
X584Y1090D01*
X595Y1090D02*
X599Y1090D01*
X613Y1090D02*
X616Y1090D01*
X628Y1090D02*
X649Y1090D01*
X665Y1090D02*
X670Y1090D01*
X678Y1090D02*
X681Y1090D01*
X705Y1090D02*
X709Y1090D01*
X725Y1090D02*
X729Y1090D01*
X734Y1090D02*
X738Y1090D01*
X743Y1090D02*
X747Y1090D01*
X758Y1090D02*
X761Y1090D01*
X775Y1090D02*
X779Y1090D01*
X808Y1090D02*
X812Y1090D01*
X829Y1090D02*
X837Y1090D01*
X855Y1090D02*
X859Y1090D01*
X873Y1090D02*
X877Y1090D01*
X888Y1090D02*
X891Y1090D01*
X905Y1090D02*
X909Y1090D01*
X921Y1090D02*
X924Y1090D01*
X938Y1090D02*
X942Y1090D01*
X966Y1090D02*
X970Y1090D01*
X994Y1090D02*
X998Y1090D01*
X1018Y1090D02*
X1021Y1090D01*
X1036Y1090D02*
X1039Y1090D01*
X1173Y1090D02*
X1180Y1090D01*
X0Y1089D02*
X7Y1089D01*
X140Y1089D02*
X143Y1089D01*
X149Y1089D02*
X152Y1089D01*
X172Y1089D02*
X176Y1089D01*
X190Y1089D02*
X194Y1089D01*
X214Y1089D02*
X217Y1089D01*
X237Y1089D02*
X241Y1089D01*
X255Y1089D02*
X259Y1089D01*
X270Y1089D02*
X273Y1089D01*
X288Y1089D02*
X291Y1089D01*
X320Y1089D02*
X324Y1089D01*
X347Y1089D02*
X351Y1089D01*
X367Y1089D02*
X371Y1089D01*
X385Y1089D02*
X389Y1089D01*
X400Y1089D02*
X403Y1089D01*
X418Y1089D02*
X421Y1089D01*
X437Y1089D02*
X441Y1089D01*
X450Y1089D02*
X454Y1089D01*
X465Y1089D02*
X470Y1089D01*
X482Y1089D02*
X486Y1089D01*
X515Y1089D02*
X519Y1089D01*
X548Y1089D02*
X551Y1089D01*
X563Y1089D02*
X584Y1089D01*
X595Y1089D02*
X599Y1089D01*
X613Y1089D02*
X616Y1089D01*
X628Y1089D02*
X649Y1089D01*
X665Y1089D02*
X669Y1089D01*
X678Y1089D02*
X681Y1089D01*
X705Y1089D02*
X709Y1089D01*
X725Y1089D02*
X729Y1089D01*
X734Y1089D02*
X738Y1089D01*
X743Y1089D02*
X747Y1089D01*
X758Y1089D02*
X761Y1089D01*
X775Y1089D02*
X779Y1089D01*
X808Y1089D02*
X812Y1089D01*
X829Y1089D02*
X837Y1089D01*
X855Y1089D02*
X859Y1089D01*
X873Y1089D02*
X877Y1089D01*
X888Y1089D02*
X891Y1089D01*
X905Y1089D02*
X909Y1089D01*
X921Y1089D02*
X924Y1089D01*
X938Y1089D02*
X942Y1089D01*
X966Y1089D02*
X970Y1089D01*
X994Y1089D02*
X998Y1089D01*
X1018Y1089D02*
X1022Y1089D01*
X1036Y1089D02*
X1039Y1089D01*
X1173Y1089D02*
X1180Y1089D01*
X0Y1088D02*
X7Y1088D01*
X140Y1088D02*
X143Y1088D01*
X149Y1088D02*
X152Y1088D01*
X172Y1088D02*
X176Y1088D01*
X190Y1088D02*
X194Y1088D01*
X214Y1088D02*
X217Y1088D01*
X237Y1088D02*
X241Y1088D01*
X255Y1088D02*
X259Y1088D01*
X270Y1088D02*
X273Y1088D01*
X288Y1088D02*
X291Y1088D01*
X320Y1088D02*
X324Y1088D01*
X348Y1088D02*
X352Y1088D01*
X367Y1088D02*
X371Y1088D01*
X385Y1088D02*
X389Y1088D01*
X400Y1088D02*
X403Y1088D01*
X418Y1088D02*
X421Y1088D01*
X437Y1088D02*
X441Y1088D01*
X450Y1088D02*
X454Y1088D01*
X465Y1088D02*
X469Y1088D01*
X482Y1088D02*
X486Y1088D01*
X515Y1088D02*
X519Y1088D01*
X548Y1088D02*
X551Y1088D01*
X563Y1088D02*
X584Y1088D01*
X595Y1088D02*
X599Y1088D01*
X613Y1088D02*
X616Y1088D01*
X628Y1088D02*
X649Y1088D01*
X664Y1088D02*
X669Y1088D01*
X678Y1088D02*
X681Y1088D01*
X705Y1088D02*
X710Y1088D01*
X725Y1088D02*
X729Y1088D01*
X734Y1088D02*
X738Y1088D01*
X743Y1088D02*
X747Y1088D01*
X758Y1088D02*
X761Y1088D01*
X775Y1088D02*
X779Y1088D01*
X808Y1088D02*
X812Y1088D01*
X829Y1088D02*
X837Y1088D01*
X855Y1088D02*
X859Y1088D01*
X873Y1088D02*
X877Y1088D01*
X888Y1088D02*
X891Y1088D01*
X905Y1088D02*
X909Y1088D01*
X921Y1088D02*
X924Y1088D01*
X938Y1088D02*
X942Y1088D01*
X966Y1088D02*
X970Y1088D01*
X994Y1088D02*
X998Y1088D01*
X1018Y1088D02*
X1022Y1088D01*
X1036Y1088D02*
X1039Y1088D01*
X1173Y1088D02*
X1180Y1088D01*
X0Y1087D02*
X7Y1087D01*
X140Y1087D02*
X143Y1087D01*
X149Y1087D02*
X152Y1087D01*
X172Y1087D02*
X176Y1087D01*
X190Y1087D02*
X194Y1087D01*
X214Y1087D02*
X217Y1087D01*
X237Y1087D02*
X241Y1087D01*
X255Y1087D02*
X259Y1087D01*
X270Y1087D02*
X273Y1087D01*
X288Y1087D02*
X291Y1087D01*
X320Y1087D02*
X324Y1087D01*
X348Y1087D02*
X352Y1087D01*
X367Y1087D02*
X371Y1087D01*
X385Y1087D02*
X389Y1087D01*
X400Y1087D02*
X403Y1087D01*
X418Y1087D02*
X421Y1087D01*
X436Y1087D02*
X441Y1087D01*
X450Y1087D02*
X454Y1087D01*
X465Y1087D02*
X469Y1087D01*
X483Y1087D02*
X486Y1087D01*
X515Y1087D02*
X519Y1087D01*
X548Y1087D02*
X551Y1087D01*
X565Y1087D02*
X584Y1087D01*
X595Y1087D02*
X599Y1087D01*
X613Y1087D02*
X616Y1087D01*
X630Y1087D02*
X649Y1087D01*
X664Y1087D02*
X668Y1087D01*
X678Y1087D02*
X681Y1087D01*
X706Y1087D02*
X710Y1087D01*
X725Y1087D02*
X729Y1087D01*
X734Y1087D02*
X738Y1087D01*
X743Y1087D02*
X747Y1087D01*
X758Y1087D02*
X761Y1087D01*
X775Y1087D02*
X779Y1087D01*
X808Y1087D02*
X812Y1087D01*
X829Y1087D02*
X837Y1087D01*
X855Y1087D02*
X859Y1087D01*
X873Y1087D02*
X877Y1087D01*
X888Y1087D02*
X891Y1087D01*
X905Y1087D02*
X909Y1087D01*
X921Y1087D02*
X924Y1087D01*
X938Y1087D02*
X942Y1087D01*
X966Y1087D02*
X970Y1087D01*
X994Y1087D02*
X998Y1087D01*
X1018Y1087D02*
X1023Y1087D01*
X1036Y1087D02*
X1039Y1087D01*
X1173Y1087D02*
X1180Y1087D01*
X0Y1086D02*
X7Y1086D01*
X140Y1086D02*
X143Y1086D01*
X149Y1086D02*
X152Y1086D01*
X172Y1086D02*
X176Y1086D01*
X190Y1086D02*
X194Y1086D01*
X214Y1086D02*
X217Y1086D01*
X237Y1086D02*
X241Y1086D01*
X255Y1086D02*
X259Y1086D01*
X270Y1086D02*
X273Y1086D01*
X288Y1086D02*
X291Y1086D01*
X320Y1086D02*
X324Y1086D01*
X348Y1086D02*
X353Y1086D01*
X367Y1086D02*
X371Y1086D01*
X385Y1086D02*
X389Y1086D01*
X400Y1086D02*
X403Y1086D01*
X418Y1086D02*
X421Y1086D01*
X436Y1086D02*
X440Y1086D01*
X450Y1086D02*
X454Y1086D01*
X465Y1086D02*
X469Y1086D01*
X483Y1086D02*
X486Y1086D01*
X515Y1086D02*
X519Y1086D01*
X547Y1086D02*
X551Y1086D01*
X580Y1086D02*
X584Y1086D01*
X595Y1086D02*
X599Y1086D01*
X612Y1086D02*
X616Y1086D01*
X645Y1086D02*
X649Y1086D01*
X664Y1086D02*
X668Y1086D01*
X678Y1086D02*
X681Y1086D01*
X706Y1086D02*
X711Y1086D01*
X725Y1086D02*
X729Y1086D01*
X734Y1086D02*
X738Y1086D01*
X743Y1086D02*
X747Y1086D01*
X758Y1086D02*
X761Y1086D01*
X775Y1086D02*
X779Y1086D01*
X808Y1086D02*
X811Y1086D01*
X829Y1086D02*
X837Y1086D01*
X855Y1086D02*
X859Y1086D01*
X873Y1086D02*
X877Y1086D01*
X888Y1086D02*
X892Y1086D01*
X905Y1086D02*
X909Y1086D01*
X921Y1086D02*
X924Y1086D01*
X938Y1086D02*
X942Y1086D01*
X966Y1086D02*
X970Y1086D01*
X994Y1086D02*
X998Y1086D01*
X1018Y1086D02*
X1024Y1086D01*
X1035Y1086D02*
X1039Y1086D01*
X1173Y1086D02*
X1180Y1086D01*
X0Y1085D02*
X7Y1085D01*
X140Y1085D02*
X143Y1085D01*
X149Y1085D02*
X152Y1085D01*
X172Y1085D02*
X176Y1085D01*
X190Y1085D02*
X194Y1085D01*
X214Y1085D02*
X217Y1085D01*
X237Y1085D02*
X241Y1085D01*
X255Y1085D02*
X259Y1085D01*
X270Y1085D02*
X273Y1085D01*
X288Y1085D02*
X291Y1085D01*
X320Y1085D02*
X324Y1085D01*
X349Y1085D02*
X353Y1085D01*
X367Y1085D02*
X371Y1085D01*
X385Y1085D02*
X389Y1085D01*
X400Y1085D02*
X403Y1085D01*
X418Y1085D02*
X421Y1085D01*
X435Y1085D02*
X440Y1085D01*
X450Y1085D02*
X454Y1085D01*
X465Y1085D02*
X469Y1085D01*
X483Y1085D02*
X486Y1085D01*
X514Y1085D02*
X519Y1085D01*
X547Y1085D02*
X551Y1085D01*
X580Y1085D02*
X584Y1085D01*
X595Y1085D02*
X599Y1085D01*
X612Y1085D02*
X616Y1085D01*
X645Y1085D02*
X649Y1085D01*
X663Y1085D02*
X667Y1085D01*
X678Y1085D02*
X681Y1085D01*
X707Y1085D02*
X711Y1085D01*
X725Y1085D02*
X729Y1085D01*
X734Y1085D02*
X738Y1085D01*
X743Y1085D02*
X747Y1085D01*
X758Y1085D02*
X761Y1085D01*
X775Y1085D02*
X779Y1085D01*
X807Y1085D02*
X811Y1085D01*
X829Y1085D02*
X837Y1085D01*
X855Y1085D02*
X859Y1085D01*
X872Y1085D02*
X877Y1085D01*
X888Y1085D02*
X893Y1085D01*
X905Y1085D02*
X909Y1085D01*
X921Y1085D02*
X924Y1085D01*
X938Y1085D02*
X942Y1085D01*
X954Y1085D02*
X955Y1085D01*
X966Y1085D02*
X970Y1085D01*
X994Y1085D02*
X998Y1085D01*
X1018Y1085D02*
X1025Y1085D01*
X1035Y1085D02*
X1039Y1085D01*
X1173Y1085D02*
X1180Y1085D01*
X0Y1084D02*
X7Y1084D01*
X140Y1084D02*
X143Y1084D01*
X149Y1084D02*
X152Y1084D01*
X172Y1084D02*
X176Y1084D01*
X190Y1084D02*
X194Y1084D01*
X214Y1084D02*
X217Y1084D01*
X237Y1084D02*
X241Y1084D01*
X255Y1084D02*
X259Y1084D01*
X270Y1084D02*
X273Y1084D01*
X288Y1084D02*
X291Y1084D01*
X320Y1084D02*
X324Y1084D01*
X349Y1084D02*
X354Y1084D01*
X368Y1084D02*
X371Y1084D01*
X385Y1084D02*
X389Y1084D01*
X400Y1084D02*
X403Y1084D01*
X418Y1084D02*
X421Y1084D01*
X435Y1084D02*
X439Y1084D01*
X450Y1084D02*
X454Y1084D01*
X465Y1084D02*
X469Y1084D01*
X483Y1084D02*
X486Y1084D01*
X513Y1084D02*
X518Y1084D01*
X546Y1084D02*
X551Y1084D01*
X580Y1084D02*
X584Y1084D01*
X595Y1084D02*
X599Y1084D01*
X611Y1084D02*
X616Y1084D01*
X645Y1084D02*
X649Y1084D01*
X663Y1084D02*
X667Y1084D01*
X678Y1084D02*
X681Y1084D01*
X707Y1084D02*
X711Y1084D01*
X725Y1084D02*
X729Y1084D01*
X734Y1084D02*
X738Y1084D01*
X743Y1084D02*
X747Y1084D01*
X758Y1084D02*
X761Y1084D01*
X775Y1084D02*
X779Y1084D01*
X806Y1084D02*
X811Y1084D01*
X830Y1084D02*
X837Y1084D01*
X855Y1084D02*
X859Y1084D01*
X871Y1084D02*
X877Y1084D01*
X888Y1084D02*
X894Y1084D01*
X905Y1084D02*
X909Y1084D01*
X920Y1084D02*
X924Y1084D01*
X938Y1084D02*
X942Y1084D01*
X953Y1084D02*
X956Y1084D01*
X966Y1084D02*
X970Y1084D01*
X994Y1084D02*
X998Y1084D01*
X1018Y1084D02*
X1026Y1084D01*
X1034Y1084D02*
X1039Y1084D01*
X1173Y1084D02*
X1180Y1084D01*
X0Y1083D02*
X7Y1083D01*
X140Y1083D02*
X143Y1083D01*
X149Y1083D02*
X152Y1083D01*
X172Y1083D02*
X176Y1083D01*
X190Y1083D02*
X194Y1083D01*
X214Y1083D02*
X217Y1083D01*
X237Y1083D02*
X241Y1083D01*
X255Y1083D02*
X259Y1083D01*
X270Y1083D02*
X273Y1083D01*
X288Y1083D02*
X291Y1083D01*
X320Y1083D02*
X324Y1083D01*
X350Y1083D02*
X354Y1083D01*
X368Y1083D02*
X372Y1083D01*
X385Y1083D02*
X389Y1083D01*
X400Y1083D02*
X403Y1083D01*
X418Y1083D02*
X421Y1083D01*
X435Y1083D02*
X439Y1083D01*
X450Y1083D02*
X454Y1083D01*
X465Y1083D02*
X470Y1083D01*
X483Y1083D02*
X486Y1083D01*
X512Y1083D02*
X518Y1083D01*
X545Y1083D02*
X550Y1083D01*
X580Y1083D02*
X584Y1083D01*
X595Y1083D02*
X599Y1083D01*
X610Y1083D02*
X616Y1083D01*
X645Y1083D02*
X649Y1083D01*
X662Y1083D02*
X667Y1083D01*
X678Y1083D02*
X681Y1083D01*
X708Y1083D02*
X712Y1083D01*
X725Y1083D02*
X728Y1083D01*
X734Y1083D02*
X738Y1083D01*
X743Y1083D02*
X747Y1083D01*
X758Y1083D02*
X762Y1083D01*
X775Y1083D02*
X779Y1083D01*
X805Y1083D02*
X811Y1083D01*
X830Y1083D02*
X837Y1083D01*
X855Y1083D02*
X860Y1083D01*
X870Y1083D02*
X877Y1083D01*
X888Y1083D02*
X895Y1083D01*
X905Y1083D02*
X909Y1083D01*
X920Y1083D02*
X924Y1083D01*
X938Y1083D02*
X942Y1083D01*
X953Y1083D02*
X956Y1083D01*
X966Y1083D02*
X970Y1083D01*
X994Y1083D02*
X998Y1083D01*
X1018Y1083D02*
X1027Y1083D01*
X1032Y1083D02*
X1038Y1083D01*
X1173Y1083D02*
X1180Y1083D01*
X0Y1082D02*
X7Y1082D01*
X140Y1082D02*
X143Y1082D01*
X149Y1082D02*
X152Y1082D01*
X172Y1082D02*
X176Y1082D01*
X190Y1082D02*
X194Y1082D01*
X214Y1082D02*
X217Y1082D01*
X237Y1082D02*
X241Y1082D01*
X255Y1082D02*
X259Y1082D01*
X270Y1082D02*
X273Y1082D01*
X288Y1082D02*
X291Y1082D01*
X320Y1082D02*
X324Y1082D01*
X350Y1082D02*
X355Y1082D01*
X368Y1082D02*
X372Y1082D01*
X385Y1082D02*
X389Y1082D01*
X400Y1082D02*
X404Y1082D01*
X417Y1082D02*
X421Y1082D01*
X434Y1082D02*
X438Y1082D01*
X450Y1082D02*
X454Y1082D01*
X465Y1082D02*
X471Y1082D01*
X483Y1082D02*
X486Y1082D01*
X512Y1082D02*
X517Y1082D01*
X544Y1082D02*
X550Y1082D01*
X579Y1082D02*
X583Y1082D01*
X595Y1082D02*
X600Y1082D01*
X609Y1082D02*
X616Y1082D01*
X644Y1082D02*
X649Y1082D01*
X662Y1082D02*
X666Y1082D01*
X678Y1082D02*
X681Y1082D01*
X708Y1082D02*
X712Y1082D01*
X725Y1082D02*
X728Y1082D01*
X734Y1082D02*
X738Y1082D01*
X743Y1082D02*
X747Y1082D01*
X758Y1082D02*
X763Y1082D01*
X774Y1082D02*
X779Y1082D01*
X804Y1082D02*
X810Y1082D01*
X831Y1082D02*
X836Y1082D01*
X856Y1082D02*
X860Y1082D01*
X869Y1082D02*
X877Y1082D01*
X888Y1082D02*
X897Y1082D01*
X905Y1082D02*
X909Y1082D01*
X920Y1082D02*
X924Y1082D01*
X938Y1082D02*
X942Y1082D01*
X953Y1082D02*
X957Y1082D01*
X966Y1082D02*
X970Y1082D01*
X994Y1082D02*
X998Y1082D01*
X1018Y1082D02*
X1038Y1082D01*
X1173Y1082D02*
X1180Y1082D01*
X0Y1081D02*
X7Y1081D01*
X140Y1081D02*
X143Y1081D01*
X149Y1081D02*
X152Y1081D01*
X172Y1081D02*
X176Y1081D01*
X190Y1081D02*
X194Y1081D01*
X214Y1081D02*
X217Y1081D01*
X237Y1081D02*
X241Y1081D01*
X255Y1081D02*
X259Y1081D01*
X270Y1081D02*
X273Y1081D01*
X288Y1081D02*
X291Y1081D01*
X320Y1081D02*
X324Y1081D01*
X351Y1081D02*
X355Y1081D01*
X368Y1081D02*
X373Y1081D01*
X385Y1081D02*
X389Y1081D01*
X400Y1081D02*
X404Y1081D01*
X417Y1081D02*
X421Y1081D01*
X434Y1081D02*
X438Y1081D01*
X450Y1081D02*
X454Y1081D01*
X465Y1081D02*
X473Y1081D01*
X482Y1081D02*
X486Y1081D01*
X511Y1081D02*
X517Y1081D01*
X543Y1081D02*
X549Y1081D01*
X578Y1081D02*
X583Y1081D01*
X596Y1081D02*
X601Y1081D01*
X608Y1081D02*
X616Y1081D01*
X643Y1081D02*
X648Y1081D01*
X661Y1081D02*
X666Y1081D01*
X678Y1081D02*
X681Y1081D01*
X708Y1081D02*
X713Y1081D01*
X725Y1081D02*
X728Y1081D01*
X734Y1081D02*
X738Y1081D01*
X743Y1081D02*
X747Y1081D01*
X758Y1081D02*
X764Y1081D01*
X773Y1081D02*
X778Y1081D01*
X803Y1081D02*
X809Y1081D01*
X856Y1081D02*
X861Y1081D01*
X868Y1081D02*
X877Y1081D01*
X888Y1081D02*
X898Y1081D01*
X904Y1081D02*
X908Y1081D01*
X920Y1081D02*
X924Y1081D01*
X938Y1081D02*
X942Y1081D01*
X953Y1081D02*
X957Y1081D01*
X965Y1081D02*
X970Y1081D01*
X994Y1081D02*
X998Y1081D01*
X1018Y1081D02*
X1037Y1081D01*
X1173Y1081D02*
X1180Y1081D01*
X0Y1080D02*
X7Y1080D01*
X140Y1080D02*
X160Y1080D01*
X172Y1080D02*
X176Y1080D01*
X190Y1080D02*
X194Y1080D01*
X208Y1080D02*
X222Y1080D01*
X237Y1080D02*
X259Y1080D01*
X270Y1080D02*
X291Y1080D01*
X304Y1080D02*
X324Y1080D01*
X351Y1080D02*
X355Y1080D01*
X369Y1080D02*
X389Y1080D01*
X400Y1080D02*
X421Y1080D01*
X433Y1080D02*
X438Y1080D01*
X450Y1080D02*
X454Y1080D01*
X465Y1080D02*
X486Y1080D01*
X499Y1080D02*
X516Y1080D01*
X531Y1080D02*
X548Y1080D01*
X564Y1080D02*
X583Y1080D01*
X596Y1080D02*
X616Y1080D01*
X629Y1080D02*
X648Y1080D01*
X661Y1080D02*
X665Y1080D01*
X678Y1080D02*
X681Y1080D01*
X709Y1080D02*
X713Y1080D01*
X725Y1080D02*
X728Y1080D01*
X734Y1080D02*
X738Y1080D01*
X743Y1080D02*
X747Y1080D01*
X759Y1080D02*
X778Y1080D01*
X792Y1080D02*
X809Y1080D01*
X856Y1080D02*
X877Y1080D01*
X888Y1080D02*
X908Y1080D01*
X920Y1080D02*
X924Y1080D01*
X938Y1080D02*
X942Y1080D01*
X953Y1080D02*
X969Y1080D01*
X989Y1080D02*
X1003Y1080D01*
X1018Y1080D02*
X1021Y1080D01*
X1023Y1080D02*
X1036Y1080D01*
X1173Y1080D02*
X1180Y1080D01*
X0Y1079D02*
X7Y1079D01*
X140Y1079D02*
X161Y1079D01*
X172Y1079D02*
X176Y1079D01*
X190Y1079D02*
X194Y1079D01*
X207Y1079D02*
X223Y1079D01*
X237Y1079D02*
X259Y1079D01*
X270Y1079D02*
X291Y1079D01*
X303Y1079D02*
X324Y1079D01*
X352Y1079D02*
X356Y1079D01*
X369Y1079D02*
X389Y1079D01*
X401Y1079D02*
X420Y1079D01*
X433Y1079D02*
X437Y1079D01*
X450Y1079D02*
X454Y1079D01*
X465Y1079D02*
X486Y1079D01*
X498Y1079D02*
X515Y1079D01*
X530Y1079D02*
X547Y1079D01*
X563Y1079D02*
X582Y1079D01*
X597Y1079D02*
X616Y1079D01*
X628Y1079D02*
X647Y1079D01*
X660Y1079D02*
X665Y1079D01*
X678Y1079D02*
X681Y1079D01*
X709Y1079D02*
X714Y1079D01*
X725Y1079D02*
X728Y1079D01*
X734Y1079D02*
X738Y1079D01*
X743Y1079D02*
X747Y1079D01*
X760Y1079D02*
X777Y1079D01*
X791Y1079D02*
X808Y1079D01*
X857Y1079D02*
X877Y1079D01*
X888Y1079D02*
X908Y1079D01*
X920Y1079D02*
X924Y1079D01*
X938Y1079D02*
X942Y1079D01*
X954Y1079D02*
X969Y1079D01*
X988Y1079D02*
X1004Y1079D01*
X1018Y1079D02*
X1021Y1079D01*
X1024Y1079D02*
X1035Y1079D01*
X1173Y1079D02*
X1180Y1079D01*
X0Y1078D02*
X7Y1078D01*
X140Y1078D02*
X161Y1078D01*
X172Y1078D02*
X176Y1078D01*
X190Y1078D02*
X194Y1078D01*
X207Y1078D02*
X224Y1078D01*
X238Y1078D02*
X258Y1078D01*
X270Y1078D02*
X291Y1078D01*
X302Y1078D02*
X324Y1078D01*
X352Y1078D02*
X356Y1078D01*
X370Y1078D02*
X389Y1078D01*
X401Y1078D02*
X420Y1078D01*
X433Y1078D02*
X437Y1078D01*
X450Y1078D02*
X454Y1078D01*
X465Y1078D02*
X485Y1078D01*
X498Y1078D02*
X514Y1078D01*
X530Y1078D02*
X547Y1078D01*
X563Y1078D02*
X581Y1078D01*
X598Y1078D02*
X616Y1078D01*
X628Y1078D02*
X646Y1078D01*
X660Y1078D02*
X664Y1078D01*
X678Y1078D02*
X681Y1078D01*
X710Y1078D02*
X714Y1078D01*
X725Y1078D02*
X728Y1078D01*
X734Y1078D02*
X738Y1078D01*
X743Y1078D02*
X747Y1078D01*
X760Y1078D02*
X777Y1078D01*
X790Y1078D02*
X807Y1078D01*
X858Y1078D02*
X877Y1078D01*
X888Y1078D02*
X891Y1078D01*
X894Y1078D02*
X907Y1078D01*
X920Y1078D02*
X924Y1078D01*
X938Y1078D02*
X942Y1078D01*
X954Y1078D02*
X968Y1078D01*
X988Y1078D02*
X1004Y1078D01*
X1018Y1078D02*
X1021Y1078D01*
X1025Y1078D02*
X1034Y1078D01*
X1173Y1078D02*
X1180Y1078D01*
X0Y1077D02*
X7Y1077D01*
X140Y1077D02*
X161Y1077D01*
X172Y1077D02*
X176Y1077D01*
X190Y1077D02*
X194Y1077D01*
X207Y1077D02*
X224Y1077D01*
X238Y1077D02*
X258Y1077D01*
X271Y1077D02*
X290Y1077D01*
X302Y1077D02*
X324Y1077D01*
X352Y1077D02*
X356Y1077D01*
X371Y1077D02*
X389Y1077D01*
X402Y1077D02*
X419Y1077D01*
X432Y1077D02*
X436Y1077D01*
X450Y1077D02*
X454Y1077D01*
X465Y1077D02*
X484Y1077D01*
X497Y1077D02*
X513Y1077D01*
X530Y1077D02*
X546Y1077D01*
X563Y1077D02*
X581Y1077D01*
X598Y1077D02*
X611Y1077D01*
X613Y1077D02*
X616Y1077D01*
X628Y1077D02*
X646Y1077D01*
X660Y1077D02*
X664Y1077D01*
X678Y1077D02*
X681Y1077D01*
X710Y1077D02*
X714Y1077D01*
X725Y1077D02*
X728Y1077D01*
X734Y1077D02*
X738Y1077D01*
X743Y1077D02*
X747Y1077D01*
X761Y1077D02*
X776Y1077D01*
X790Y1077D02*
X806Y1077D01*
X859Y1077D02*
X871Y1077D01*
X873Y1077D02*
X877Y1077D01*
X888Y1077D02*
X891Y1077D01*
X895Y1077D02*
X907Y1077D01*
X920Y1077D02*
X924Y1077D01*
X938Y1077D02*
X942Y1077D01*
X955Y1077D02*
X968Y1077D01*
X988Y1077D02*
X1004Y1077D01*
X1018Y1077D02*
X1021Y1077D01*
X1027Y1077D02*
X1033Y1077D01*
X1173Y1077D02*
X1180Y1077D01*
X0Y1076D02*
X7Y1076D01*
X140Y1076D02*
X161Y1076D01*
X172Y1076D02*
X175Y1076D01*
X190Y1076D02*
X193Y1076D01*
X207Y1076D02*
X224Y1076D01*
X239Y1076D02*
X257Y1076D01*
X271Y1076D02*
X290Y1076D01*
X302Y1076D02*
X324Y1076D01*
X353Y1076D02*
X356Y1076D01*
X372Y1076D02*
X389Y1076D01*
X403Y1076D02*
X419Y1076D01*
X433Y1076D02*
X436Y1076D01*
X450Y1076D02*
X454Y1076D01*
X465Y1076D02*
X468Y1076D01*
X471Y1076D02*
X484Y1076D01*
X498Y1076D02*
X512Y1076D01*
X530Y1076D02*
X545Y1076D01*
X563Y1076D02*
X580Y1076D01*
X599Y1076D02*
X610Y1076D01*
X613Y1076D02*
X616Y1076D01*
X628Y1076D02*
X645Y1076D01*
X660Y1076D02*
X663Y1076D01*
X678Y1076D02*
X681Y1076D01*
X711Y1076D02*
X714Y1076D01*
X725Y1076D02*
X728Y1076D01*
X734Y1076D02*
X737Y1076D01*
X744Y1076D02*
X747Y1076D01*
X762Y1076D02*
X775Y1076D01*
X790Y1076D02*
X805Y1076D01*
X860Y1076D02*
X870Y1076D01*
X873Y1076D02*
X876Y1076D01*
X888Y1076D02*
X891Y1076D01*
X896Y1076D02*
X906Y1076D01*
X921Y1076D02*
X924Y1076D01*
X938Y1076D02*
X941Y1076D01*
X956Y1076D02*
X967Y1076D01*
X988Y1076D02*
X1004Y1076D01*
X1018Y1076D02*
X1021Y1076D01*
X1173Y1076D02*
X1180Y1076D01*
X0Y1075D02*
X7Y1075D01*
X140Y1075D02*
X160Y1075D01*
X173Y1075D02*
X175Y1075D01*
X191Y1075D02*
X193Y1075D01*
X208Y1075D02*
X223Y1075D01*
X240Y1075D02*
X256Y1075D01*
X272Y1075D02*
X289Y1075D01*
X303Y1075D02*
X324Y1075D01*
X353Y1075D02*
X355Y1075D01*
X373Y1075D02*
X389Y1075D01*
X404Y1075D02*
X417Y1075D01*
X433Y1075D02*
X435Y1075D01*
X451Y1075D02*
X453Y1075D01*
X466Y1075D02*
X468Y1075D01*
X472Y1075D02*
X482Y1075D01*
X498Y1075D02*
X511Y1075D01*
X531Y1075D02*
X544Y1075D01*
X563Y1075D02*
X578Y1075D01*
X601Y1075D02*
X609Y1075D01*
X614Y1075D02*
X616Y1075D01*
X628Y1075D02*
X643Y1075D01*
X661Y1075D02*
X663Y1075D01*
X679Y1075D02*
X681Y1075D01*
X711Y1075D02*
X713Y1075D01*
X726Y1075D02*
X728Y1075D01*
X735Y1075D02*
X737Y1075D01*
X744Y1075D02*
X746Y1075D01*
X763Y1075D02*
X773Y1075D01*
X791Y1075D02*
X804Y1075D01*
X861Y1075D02*
X869Y1075D01*
X874Y1075D02*
X876Y1075D01*
X889Y1075D02*
X891Y1075D01*
X898Y1075D02*
X905Y1075D01*
X921Y1075D02*
X923Y1075D01*
X939Y1075D02*
X941Y1075D01*
X957Y1075D02*
X966Y1075D01*
X988Y1075D02*
X1004Y1075D01*
X1018Y1075D02*
X1021Y1075D01*
X1173Y1075D02*
X1180Y1075D01*
X0Y1074D02*
X7Y1074D01*
X1018Y1074D02*
X1021Y1074D01*
X1173Y1074D02*
X1180Y1074D01*
X0Y1073D02*
X7Y1073D01*
X1018Y1073D02*
X1021Y1073D01*
X1173Y1073D02*
X1180Y1073D01*
X0Y1072D02*
X7Y1072D01*
X1018Y1072D02*
X1021Y1072D01*
X1173Y1072D02*
X1180Y1072D01*
X0Y1071D02*
X7Y1071D01*
X1018Y1071D02*
X1022Y1071D01*
X1173Y1071D02*
X1180Y1071D01*
X0Y1070D02*
X7Y1070D01*
X1018Y1070D02*
X1022Y1070D01*
X1173Y1070D02*
X1180Y1070D01*
X0Y1069D02*
X7Y1069D01*
X1018Y1069D02*
X1023Y1069D01*
X1173Y1069D02*
X1180Y1069D01*
X0Y1068D02*
X7Y1068D01*
X1019Y1068D02*
X1024Y1068D01*
X1173Y1068D02*
X1180Y1068D01*
X0Y1067D02*
X7Y1067D01*
X1019Y1067D02*
X1036Y1067D01*
X1173Y1067D02*
X1180Y1067D01*
X0Y1066D02*
X7Y1066D01*
X1020Y1066D02*
X1037Y1066D01*
X1173Y1066D02*
X1180Y1066D01*
X0Y1065D02*
X7Y1065D01*
X1021Y1065D02*
X1037Y1065D01*
X1173Y1065D02*
X1180Y1065D01*
X0Y1064D02*
X7Y1064D01*
X1021Y1064D02*
X1037Y1064D01*
X1173Y1064D02*
X1180Y1064D01*
X0Y1063D02*
X7Y1063D01*
X1022Y1063D02*
X1037Y1063D01*
X1173Y1063D02*
X1180Y1063D01*
X0Y1062D02*
X7Y1062D01*
X1024Y1062D02*
X1036Y1062D01*
X1173Y1062D02*
X1180Y1062D01*
X0Y1061D02*
X7Y1061D01*
X1173Y1061D02*
X1180Y1061D01*
X0Y1060D02*
X7Y1060D01*
X1173Y1060D02*
X1180Y1060D01*
X0Y1059D02*
X7Y1059D01*
X1173Y1059D02*
X1180Y1059D01*
X0Y1058D02*
X7Y1058D01*
X1173Y1058D02*
X1180Y1058D01*
X0Y1057D02*
X7Y1057D01*
X1173Y1057D02*
X1180Y1057D01*
X0Y1056D02*
X7Y1056D01*
X1173Y1056D02*
X1180Y1056D01*
X0Y1055D02*
X7Y1055D01*
X1173Y1055D02*
X1180Y1055D01*
X0Y1054D02*
X7Y1054D01*
X1173Y1054D02*
X1180Y1054D01*
X0Y1053D02*
X7Y1053D01*
X1173Y1053D02*
X1180Y1053D01*
X0Y1052D02*
X7Y1052D01*
X1173Y1052D02*
X1180Y1052D01*
X0Y1051D02*
X7Y1051D01*
X1173Y1051D02*
X1180Y1051D01*
X0Y1050D02*
X7Y1050D01*
X1173Y1050D02*
X1180Y1050D01*
X0Y1049D02*
X7Y1049D01*
X1173Y1049D02*
X1180Y1049D01*
X0Y1048D02*
X7Y1048D01*
X1173Y1048D02*
X1180Y1048D01*
X0Y1047D02*
X7Y1047D01*
X1173Y1047D02*
X1180Y1047D01*
X0Y1046D02*
X7Y1046D01*
X1173Y1046D02*
X1180Y1046D01*
X0Y1045D02*
X7Y1045D01*
X1173Y1045D02*
X1180Y1045D01*
X0Y1044D02*
X7Y1044D01*
X1173Y1044D02*
X1180Y1044D01*
X0Y1043D02*
X7Y1043D01*
X1173Y1043D02*
X1180Y1043D01*
X0Y1042D02*
X7Y1042D01*
X1173Y1042D02*
X1180Y1042D01*
X0Y1041D02*
X7Y1041D01*
X1173Y1041D02*
X1180Y1041D01*
X0Y1040D02*
X7Y1040D01*
X1173Y1040D02*
X1180Y1040D01*
X0Y1039D02*
X7Y1039D01*
X1173Y1039D02*
X1180Y1039D01*
X0Y1038D02*
X7Y1038D01*
X1173Y1038D02*
X1180Y1038D01*
X0Y1037D02*
X7Y1037D01*
X1173Y1037D02*
X1180Y1037D01*
X0Y1036D02*
X7Y1036D01*
X1173Y1036D02*
X1180Y1036D01*
X0Y1035D02*
X7Y1035D01*
X1173Y1035D02*
X1180Y1035D01*
X0Y1034D02*
X7Y1034D01*
X1173Y1034D02*
X1180Y1034D01*
X0Y1033D02*
X7Y1033D01*
X1173Y1033D02*
X1180Y1033D01*
X0Y1032D02*
X7Y1032D01*
X1173Y1032D02*
X1180Y1032D01*
X0Y1031D02*
X7Y1031D01*
X1173Y1031D02*
X1180Y1031D01*
X0Y1030D02*
X7Y1030D01*
X1173Y1030D02*
X1180Y1030D01*
X0Y1029D02*
X7Y1029D01*
X1173Y1029D02*
X1180Y1029D01*
X0Y1028D02*
X7Y1028D01*
X1173Y1028D02*
X1180Y1028D01*
X0Y1027D02*
X7Y1027D01*
X1173Y1027D02*
X1180Y1027D01*
X0Y1026D02*
X7Y1026D01*
X1173Y1026D02*
X1180Y1026D01*
X0Y1025D02*
X7Y1025D01*
X1173Y1025D02*
X1180Y1025D01*
X0Y1024D02*
X7Y1024D01*
X1173Y1024D02*
X1180Y1024D01*
X0Y1023D02*
X7Y1023D01*
X1173Y1023D02*
X1180Y1023D01*
X0Y1022D02*
X7Y1022D01*
X1173Y1022D02*
X1180Y1022D01*
X0Y1021D02*
X7Y1021D01*
X1173Y1021D02*
X1180Y1021D01*
X0Y1020D02*
X7Y1020D01*
X1173Y1020D02*
X1180Y1020D01*
X0Y1019D02*
X7Y1019D01*
X1173Y1019D02*
X1180Y1019D01*
X0Y1018D02*
X7Y1018D01*
X1173Y1018D02*
X1180Y1018D01*
X0Y1017D02*
X7Y1017D01*
X1173Y1017D02*
X1180Y1017D01*
X0Y1016D02*
X7Y1016D01*
X1173Y1016D02*
X1180Y1016D01*
X0Y1015D02*
X7Y1015D01*
X1173Y1015D02*
X1180Y1015D01*
X0Y1014D02*
X7Y1014D01*
X1173Y1014D02*
X1180Y1014D01*
X0Y1013D02*
X7Y1013D01*
X1173Y1013D02*
X1180Y1013D01*
X0Y1012D02*
X7Y1012D01*
X1173Y1012D02*
X1180Y1012D01*
X0Y1011D02*
X7Y1011D01*
X1173Y1011D02*
X1180Y1011D01*
X0Y1010D02*
X7Y1010D01*
X1173Y1010D02*
X1180Y1010D01*
X0Y1009D02*
X7Y1009D01*
X1173Y1009D02*
X1180Y1009D01*
X0Y1008D02*
X7Y1008D01*
X1173Y1008D02*
X1180Y1008D01*
X0Y1007D02*
X7Y1007D01*
X1173Y1007D02*
X1180Y1007D01*
X0Y1006D02*
X7Y1006D01*
X1173Y1006D02*
X1180Y1006D01*
X0Y1005D02*
X7Y1005D01*
X1173Y1005D02*
X1180Y1005D01*
X0Y1004D02*
X7Y1004D01*
X1173Y1004D02*
X1180Y1004D01*
X0Y1003D02*
X7Y1003D01*
X1173Y1003D02*
X1180Y1003D01*
X0Y1002D02*
X7Y1002D01*
X1173Y1002D02*
X1180Y1002D01*
X0Y1001D02*
X7Y1001D01*
X1173Y1001D02*
X1180Y1001D01*
X0Y1000D02*
X7Y1000D01*
X1173Y1000D02*
X1180Y1000D01*
X0Y999D02*
X7Y999D01*
X1173Y999D02*
X1180Y999D01*
X0Y998D02*
X7Y998D01*
X1173Y998D02*
X1180Y998D01*
X0Y997D02*
X7Y997D01*
X1173Y997D02*
X1180Y997D01*
X0Y996D02*
X7Y996D01*
X1173Y996D02*
X1180Y996D01*
X0Y995D02*
X7Y995D01*
X1173Y995D02*
X1180Y995D01*
X0Y994D02*
X7Y994D01*
X1173Y994D02*
X1180Y994D01*
X0Y993D02*
X7Y993D01*
X1173Y993D02*
X1180Y993D01*
X0Y992D02*
X7Y992D01*
X1173Y992D02*
X1180Y992D01*
X0Y991D02*
X7Y991D01*
X1173Y991D02*
X1180Y991D01*
X0Y990D02*
X7Y990D01*
X1173Y990D02*
X1180Y990D01*
X0Y989D02*
X7Y989D01*
X1173Y989D02*
X1180Y989D01*
X0Y988D02*
X7Y988D01*
X1173Y988D02*
X1180Y988D01*
X0Y987D02*
X7Y987D01*
X1173Y987D02*
X1180Y987D01*
X0Y986D02*
X7Y986D01*
X1173Y986D02*
X1180Y986D01*
X0Y985D02*
X7Y985D01*
X1173Y985D02*
X1180Y985D01*
X0Y984D02*
X7Y984D01*
X1173Y984D02*
X1180Y984D01*
X0Y983D02*
X7Y983D01*
X1173Y983D02*
X1180Y983D01*
X0Y982D02*
X7Y982D01*
X1173Y982D02*
X1180Y982D01*
X0Y981D02*
X7Y981D01*
X1173Y981D02*
X1180Y981D01*
X0Y980D02*
X7Y980D01*
X1173Y980D02*
X1180Y980D01*
X0Y979D02*
X7Y979D01*
X1173Y979D02*
X1180Y979D01*
X0Y978D02*
X7Y978D01*
X1173Y978D02*
X1180Y978D01*
X0Y977D02*
X7Y977D01*
X1173Y977D02*
X1180Y977D01*
X0Y976D02*
X7Y976D01*
X1173Y976D02*
X1180Y976D01*
X0Y975D02*
X7Y975D01*
X1173Y975D02*
X1180Y975D01*
X0Y974D02*
X7Y974D01*
X1173Y974D02*
X1180Y974D01*
X0Y973D02*
X7Y973D01*
X1173Y973D02*
X1180Y973D01*
X0Y972D02*
X7Y972D01*
X1173Y972D02*
X1180Y972D01*
X0Y971D02*
X7Y971D01*
X1173Y971D02*
X1180Y971D01*
X0Y970D02*
X7Y970D01*
X1173Y970D02*
X1180Y970D01*
X0Y969D02*
X7Y969D01*
X1173Y969D02*
X1180Y969D01*
X0Y968D02*
X7Y968D01*
X1173Y968D02*
X1180Y968D01*
X0Y967D02*
X7Y967D01*
X1173Y967D02*
X1180Y967D01*
X0Y966D02*
X7Y966D01*
X1173Y966D02*
X1180Y966D01*
X0Y965D02*
X7Y965D01*
X1173Y965D02*
X1180Y965D01*
X0Y964D02*
X7Y964D01*
X1173Y964D02*
X1180Y964D01*
X0Y963D02*
X7Y963D01*
X1173Y963D02*
X1180Y963D01*
X0Y962D02*
X7Y962D01*
X1173Y962D02*
X1180Y962D01*
X0Y961D02*
X7Y961D01*
X1173Y961D02*
X1180Y961D01*
X0Y960D02*
X7Y960D01*
X1173Y960D02*
X1180Y960D01*
X0Y959D02*
X7Y959D01*
X1173Y959D02*
X1180Y959D01*
X0Y958D02*
X7Y958D01*
X1173Y958D02*
X1180Y958D01*
X0Y957D02*
X7Y957D01*
X1173Y957D02*
X1180Y957D01*
X0Y956D02*
X7Y956D01*
X1173Y956D02*
X1180Y956D01*
X0Y955D02*
X7Y955D01*
X1173Y955D02*
X1180Y955D01*
X0Y954D02*
X7Y954D01*
X1173Y954D02*
X1180Y954D01*
X0Y953D02*
X7Y953D01*
X1173Y953D02*
X1180Y953D01*
X0Y952D02*
X7Y952D01*
X1173Y952D02*
X1180Y952D01*
X0Y951D02*
X7Y951D01*
X1173Y951D02*
X1180Y951D01*
X0Y950D02*
X7Y950D01*
X1173Y950D02*
X1180Y950D01*
X0Y949D02*
X7Y949D01*
X1173Y949D02*
X1180Y949D01*
X0Y948D02*
X7Y948D01*
X1173Y948D02*
X1180Y948D01*
X0Y947D02*
X7Y947D01*
X1173Y947D02*
X1180Y947D01*
X0Y946D02*
X7Y946D01*
X1173Y946D02*
X1180Y946D01*
X0Y945D02*
X7Y945D01*
X1173Y945D02*
X1180Y945D01*
X0Y944D02*
X7Y944D01*
X1173Y944D02*
X1180Y944D01*
X0Y943D02*
X7Y943D01*
X1173Y943D02*
X1180Y943D01*
X0Y942D02*
X7Y942D01*
X1173Y942D02*
X1180Y942D01*
X0Y941D02*
X7Y941D01*
X1173Y941D02*
X1180Y941D01*
X0Y940D02*
X7Y940D01*
X1173Y940D02*
X1180Y940D01*
X0Y939D02*
X7Y939D01*
X1173Y939D02*
X1180Y939D01*
X0Y938D02*
X7Y938D01*
X1173Y938D02*
X1180Y938D01*
X0Y937D02*
X7Y937D01*
X1173Y937D02*
X1180Y937D01*
X0Y936D02*
X7Y936D01*
X1173Y936D02*
X1180Y936D01*
X0Y935D02*
X7Y935D01*
X1173Y935D02*
X1180Y935D01*
X0Y934D02*
X7Y934D01*
X1173Y934D02*
X1180Y934D01*
X0Y933D02*
X7Y933D01*
X1173Y933D02*
X1180Y933D01*
X0Y932D02*
X7Y932D01*
X1173Y932D02*
X1180Y932D01*
X0Y931D02*
X7Y931D01*
X1173Y931D02*
X1180Y931D01*
X0Y930D02*
X7Y930D01*
X1173Y930D02*
X1180Y930D01*
X0Y929D02*
X7Y929D01*
X1173Y929D02*
X1180Y929D01*
X0Y928D02*
X7Y928D01*
X1173Y928D02*
X1180Y928D01*
X0Y927D02*
X7Y927D01*
X1173Y927D02*
X1180Y927D01*
X0Y926D02*
X7Y926D01*
X1173Y926D02*
X1180Y926D01*
X0Y925D02*
X7Y925D01*
X1173Y925D02*
X1180Y925D01*
X0Y924D02*
X7Y924D01*
X1173Y924D02*
X1180Y924D01*
X0Y923D02*
X7Y923D01*
X1173Y923D02*
X1180Y923D01*
X0Y922D02*
X7Y922D01*
X1173Y922D02*
X1180Y922D01*
X0Y921D02*
X7Y921D01*
X1173Y921D02*
X1180Y921D01*
X0Y920D02*
X7Y920D01*
X1173Y920D02*
X1180Y920D01*
X0Y919D02*
X7Y919D01*
X1173Y919D02*
X1180Y919D01*
X0Y918D02*
X7Y918D01*
X1173Y918D02*
X1180Y918D01*
X0Y917D02*
X7Y917D01*
X1173Y917D02*
X1180Y917D01*
X0Y916D02*
X7Y916D01*
X1173Y916D02*
X1180Y916D01*
X0Y915D02*
X7Y915D01*
X1173Y915D02*
X1180Y915D01*
X0Y914D02*
X7Y914D01*
X1173Y914D02*
X1180Y914D01*
X0Y913D02*
X7Y913D01*
X1173Y913D02*
X1180Y913D01*
X0Y912D02*
X7Y912D01*
X1173Y912D02*
X1180Y912D01*
X0Y911D02*
X7Y911D01*
X1173Y911D02*
X1180Y911D01*
X0Y910D02*
X7Y910D01*
X1173Y910D02*
X1180Y910D01*
X0Y909D02*
X7Y909D01*
X1173Y909D02*
X1180Y909D01*
X0Y908D02*
X7Y908D01*
X1173Y908D02*
X1180Y908D01*
X0Y907D02*
X7Y907D01*
X1173Y907D02*
X1180Y907D01*
X0Y906D02*
X7Y906D01*
X1173Y906D02*
X1180Y906D01*
X0Y905D02*
X7Y905D01*
X1173Y905D02*
X1180Y905D01*
X0Y904D02*
X7Y904D01*
X1173Y904D02*
X1180Y904D01*
X0Y903D02*
X7Y903D01*
X1173Y903D02*
X1180Y903D01*
X0Y902D02*
X7Y902D01*
X1173Y902D02*
X1180Y902D01*
X0Y901D02*
X7Y901D01*
X1173Y901D02*
X1180Y901D01*
X0Y900D02*
X7Y900D01*
X1173Y900D02*
X1180Y900D01*
X0Y899D02*
X7Y899D01*
X1173Y899D02*
X1180Y899D01*
X0Y898D02*
X7Y898D01*
X1173Y898D02*
X1180Y898D01*
X0Y897D02*
X7Y897D01*
X1173Y897D02*
X1180Y897D01*
X0Y896D02*
X7Y896D01*
X1173Y896D02*
X1180Y896D01*
X0Y895D02*
X7Y895D01*
X1173Y895D02*
X1180Y895D01*
X0Y894D02*
X7Y894D01*
X1173Y894D02*
X1180Y894D01*
X0Y893D02*
X7Y893D01*
X1173Y893D02*
X1180Y893D01*
X0Y892D02*
X7Y892D01*
X1173Y892D02*
X1180Y892D01*
X0Y891D02*
X7Y891D01*
X1173Y891D02*
X1180Y891D01*
X0Y890D02*
X7Y890D01*
X1173Y890D02*
X1180Y890D01*
X0Y889D02*
X7Y889D01*
X1173Y889D02*
X1180Y889D01*
X0Y888D02*
X7Y888D01*
X1173Y888D02*
X1180Y888D01*
X0Y887D02*
X7Y887D01*
X1173Y887D02*
X1180Y887D01*
X0Y886D02*
X7Y886D01*
X1173Y886D02*
X1180Y886D01*
X0Y885D02*
X7Y885D01*
X1173Y885D02*
X1180Y885D01*
X0Y884D02*
X7Y884D01*
X1173Y884D02*
X1180Y884D01*
X0Y883D02*
X7Y883D01*
X1173Y883D02*
X1180Y883D01*
X0Y882D02*
X7Y882D01*
X1173Y882D02*
X1180Y882D01*
X0Y881D02*
X7Y881D01*
X1173Y881D02*
X1180Y881D01*
X0Y880D02*
X7Y880D01*
X1173Y880D02*
X1180Y880D01*
X0Y879D02*
X7Y879D01*
X1173Y879D02*
X1180Y879D01*
X0Y878D02*
X7Y878D01*
X1173Y878D02*
X1180Y878D01*
X0Y877D02*
X7Y877D01*
X1173Y877D02*
X1180Y877D01*
X0Y876D02*
X7Y876D01*
X1173Y876D02*
X1180Y876D01*
X0Y875D02*
X7Y875D01*
X1173Y875D02*
X1180Y875D01*
X0Y874D02*
X7Y874D01*
X1173Y874D02*
X1180Y874D01*
X0Y873D02*
X7Y873D01*
X1173Y873D02*
X1180Y873D01*
X0Y872D02*
X7Y872D01*
X1173Y872D02*
X1180Y872D01*
X0Y871D02*
X7Y871D01*
X1173Y871D02*
X1180Y871D01*
X0Y870D02*
X7Y870D01*
X1173Y870D02*
X1180Y870D01*
X0Y869D02*
X7Y869D01*
X1173Y869D02*
X1180Y869D01*
X0Y868D02*
X7Y868D01*
X1173Y868D02*
X1180Y868D01*
X0Y867D02*
X7Y867D01*
X1173Y867D02*
X1180Y867D01*
X0Y866D02*
X7Y866D01*
X1173Y866D02*
X1180Y866D01*
X0Y865D02*
X7Y865D01*
X1173Y865D02*
X1180Y865D01*
X0Y864D02*
X7Y864D01*
X1173Y864D02*
X1180Y864D01*
X0Y863D02*
X7Y863D01*
X1173Y863D02*
X1180Y863D01*
X0Y862D02*
X7Y862D01*
X1173Y862D02*
X1180Y862D01*
X0Y861D02*
X7Y861D01*
X1173Y861D02*
X1180Y861D01*
X0Y860D02*
X7Y860D01*
X1173Y860D02*
X1180Y860D01*
X0Y859D02*
X7Y859D01*
X1173Y859D02*
X1180Y859D01*
X0Y858D02*
X7Y858D01*
X1173Y858D02*
X1180Y858D01*
X0Y857D02*
X7Y857D01*
X1173Y857D02*
X1180Y857D01*
X0Y856D02*
X7Y856D01*
X1173Y856D02*
X1180Y856D01*
X0Y855D02*
X7Y855D01*
X1173Y855D02*
X1180Y855D01*
X0Y854D02*
X7Y854D01*
X1173Y854D02*
X1180Y854D01*
X0Y853D02*
X7Y853D01*
X1173Y853D02*
X1180Y853D01*
X0Y852D02*
X7Y852D01*
X1173Y852D02*
X1180Y852D01*
X0Y851D02*
X7Y851D01*
X1173Y851D02*
X1180Y851D01*
X0Y850D02*
X7Y850D01*
X1173Y850D02*
X1180Y850D01*
X0Y849D02*
X7Y849D01*
X1173Y849D02*
X1180Y849D01*
X0Y848D02*
X7Y848D01*
X1173Y848D02*
X1180Y848D01*
X0Y847D02*
X7Y847D01*
X1173Y847D02*
X1180Y847D01*
X0Y846D02*
X7Y846D01*
X1173Y846D02*
X1180Y846D01*
X0Y845D02*
X7Y845D01*
X1173Y845D02*
X1180Y845D01*
X0Y844D02*
X7Y844D01*
X1173Y844D02*
X1180Y844D01*
X0Y843D02*
X7Y843D01*
X1173Y843D02*
X1180Y843D01*
X0Y842D02*
X7Y842D01*
X1173Y842D02*
X1180Y842D01*
X0Y841D02*
X7Y841D01*
X1173Y841D02*
X1180Y841D01*
X0Y840D02*
X7Y840D01*
X1173Y840D02*
X1180Y840D01*
X0Y839D02*
X7Y839D01*
X1173Y839D02*
X1180Y839D01*
X0Y838D02*
X7Y838D01*
X1173Y838D02*
X1180Y838D01*
X0Y837D02*
X7Y837D01*
X1173Y837D02*
X1180Y837D01*
X0Y836D02*
X7Y836D01*
X1173Y836D02*
X1180Y836D01*
X0Y835D02*
X7Y835D01*
X1173Y835D02*
X1180Y835D01*
X0Y834D02*
X7Y834D01*
X1173Y834D02*
X1180Y834D01*
X0Y833D02*
X7Y833D01*
X1173Y833D02*
X1180Y833D01*
X0Y832D02*
X7Y832D01*
X1173Y832D02*
X1180Y832D01*
X0Y831D02*
X7Y831D01*
X1173Y831D02*
X1180Y831D01*
X0Y830D02*
X7Y830D01*
X1173Y830D02*
X1180Y830D01*
X0Y829D02*
X7Y829D01*
X1173Y829D02*
X1180Y829D01*
X0Y828D02*
X7Y828D01*
X1173Y828D02*
X1180Y828D01*
X0Y827D02*
X7Y827D01*
X1173Y827D02*
X1180Y827D01*
X0Y826D02*
X7Y826D01*
X1173Y826D02*
X1180Y826D01*
X0Y825D02*
X7Y825D01*
X1173Y825D02*
X1180Y825D01*
X0Y824D02*
X7Y824D01*
X1173Y824D02*
X1180Y824D01*
X0Y823D02*
X7Y823D01*
X1173Y823D02*
X1180Y823D01*
X0Y822D02*
X7Y822D01*
X1173Y822D02*
X1180Y822D01*
X0Y821D02*
X7Y821D01*
X1173Y821D02*
X1180Y821D01*
X0Y820D02*
X7Y820D01*
X1173Y820D02*
X1180Y820D01*
X0Y819D02*
X7Y819D01*
X1173Y819D02*
X1180Y819D01*
X0Y818D02*
X7Y818D01*
X1173Y818D02*
X1180Y818D01*
X0Y817D02*
X7Y817D01*
X1173Y817D02*
X1180Y817D01*
X0Y816D02*
X7Y816D01*
X1173Y816D02*
X1180Y816D01*
X0Y815D02*
X7Y815D01*
X1173Y815D02*
X1180Y815D01*
X0Y814D02*
X7Y814D01*
X1173Y814D02*
X1180Y814D01*
X0Y813D02*
X7Y813D01*
X1173Y813D02*
X1180Y813D01*
X0Y812D02*
X7Y812D01*
X1173Y812D02*
X1180Y812D01*
X0Y811D02*
X7Y811D01*
X1173Y811D02*
X1180Y811D01*
X0Y810D02*
X7Y810D01*
X1173Y810D02*
X1180Y810D01*
X0Y809D02*
X7Y809D01*
X1173Y809D02*
X1180Y809D01*
X0Y808D02*
X7Y808D01*
X1173Y808D02*
X1180Y808D01*
X0Y807D02*
X7Y807D01*
X1173Y807D02*
X1180Y807D01*
X0Y806D02*
X7Y806D01*
X1173Y806D02*
X1180Y806D01*
X0Y805D02*
X7Y805D01*
X1173Y805D02*
X1180Y805D01*
X0Y804D02*
X7Y804D01*
X1173Y804D02*
X1180Y804D01*
X0Y803D02*
X7Y803D01*
X1173Y803D02*
X1180Y803D01*
X0Y802D02*
X7Y802D01*
X1173Y802D02*
X1180Y802D01*
X0Y801D02*
X7Y801D01*
X1173Y801D02*
X1180Y801D01*
X0Y800D02*
X7Y800D01*
X1173Y800D02*
X1180Y800D01*
X0Y799D02*
X7Y799D01*
X1173Y799D02*
X1180Y799D01*
X0Y798D02*
X7Y798D01*
X1173Y798D02*
X1180Y798D01*
X0Y797D02*
X7Y797D01*
X1173Y797D02*
X1180Y797D01*
X0Y796D02*
X7Y796D01*
X1173Y796D02*
X1180Y796D01*
X0Y795D02*
X7Y795D01*
X1173Y795D02*
X1180Y795D01*
X0Y794D02*
X7Y794D01*
X1173Y794D02*
X1180Y794D01*
X0Y793D02*
X7Y793D01*
X1173Y793D02*
X1180Y793D01*
X0Y792D02*
X7Y792D01*
X1173Y792D02*
X1180Y792D01*
X0Y791D02*
X7Y791D01*
X1173Y791D02*
X1180Y791D01*
X0Y790D02*
X7Y790D01*
X1173Y790D02*
X1180Y790D01*
X0Y789D02*
X7Y789D01*
X1173Y789D02*
X1180Y789D01*
X0Y788D02*
X7Y788D01*
X1173Y788D02*
X1180Y788D01*
X0Y787D02*
X7Y787D01*
X1173Y787D02*
X1180Y787D01*
X0Y786D02*
X7Y786D01*
X1173Y786D02*
X1180Y786D01*
X0Y785D02*
X7Y785D01*
X1173Y785D02*
X1180Y785D01*
X0Y784D02*
X7Y784D01*
X1173Y784D02*
X1180Y784D01*
X0Y783D02*
X7Y783D01*
X1173Y783D02*
X1180Y783D01*
X0Y782D02*
X7Y782D01*
X1173Y782D02*
X1180Y782D01*
X0Y781D02*
X7Y781D01*
X1173Y781D02*
X1180Y781D01*
X0Y780D02*
X7Y780D01*
X1173Y780D02*
X1180Y780D01*
X0Y779D02*
X7Y779D01*
X1173Y779D02*
X1180Y779D01*
X0Y778D02*
X7Y778D01*
X1173Y778D02*
X1180Y778D01*
X0Y777D02*
X7Y777D01*
X1173Y777D02*
X1180Y777D01*
X0Y776D02*
X7Y776D01*
X1173Y776D02*
X1180Y776D01*
X0Y775D02*
X7Y775D01*
X1173Y775D02*
X1180Y775D01*
X0Y774D02*
X7Y774D01*
X1173Y774D02*
X1180Y774D01*
X0Y773D02*
X7Y773D01*
X1173Y773D02*
X1180Y773D01*
X0Y772D02*
X7Y772D01*
X1173Y772D02*
X1180Y772D01*
X0Y771D02*
X7Y771D01*
X1173Y771D02*
X1180Y771D01*
X0Y770D02*
X7Y770D01*
X1173Y770D02*
X1180Y770D01*
X0Y769D02*
X7Y769D01*
X1173Y769D02*
X1180Y769D01*
X0Y768D02*
X7Y768D01*
X1173Y768D02*
X1180Y768D01*
X0Y767D02*
X7Y767D01*
X1173Y767D02*
X1180Y767D01*
X0Y766D02*
X7Y766D01*
X1173Y766D02*
X1180Y766D01*
X0Y765D02*
X7Y765D01*
X1173Y765D02*
X1180Y765D01*
X0Y764D02*
X7Y764D01*
X1173Y764D02*
X1180Y764D01*
X0Y763D02*
X7Y763D01*
X1173Y763D02*
X1180Y763D01*
X0Y762D02*
X7Y762D01*
X1173Y762D02*
X1180Y762D01*
X0Y761D02*
X7Y761D01*
X1173Y761D02*
X1180Y761D01*
X0Y760D02*
X7Y760D01*
X1173Y760D02*
X1180Y760D01*
X0Y759D02*
X7Y759D01*
X1173Y759D02*
X1180Y759D01*
X0Y758D02*
X7Y758D01*
X1173Y758D02*
X1180Y758D01*
X0Y757D02*
X7Y757D01*
X1173Y757D02*
X1180Y757D01*
X0Y756D02*
X7Y756D01*
X1173Y756D02*
X1180Y756D01*
X0Y755D02*
X7Y755D01*
X1173Y755D02*
X1180Y755D01*
X0Y754D02*
X7Y754D01*
X1173Y754D02*
X1180Y754D01*
X0Y753D02*
X7Y753D01*
X1173Y753D02*
X1180Y753D01*
X0Y752D02*
X7Y752D01*
X1173Y752D02*
X1180Y752D01*
X0Y751D02*
X7Y751D01*
X1173Y751D02*
X1180Y751D01*
X0Y750D02*
X7Y750D01*
X1173Y750D02*
X1180Y750D01*
X0Y749D02*
X7Y749D01*
X1173Y749D02*
X1180Y749D01*
X0Y748D02*
X7Y748D01*
X1173Y748D02*
X1180Y748D01*
X0Y747D02*
X7Y747D01*
X1173Y747D02*
X1180Y747D01*
X0Y746D02*
X7Y746D01*
X1173Y746D02*
X1180Y746D01*
X0Y745D02*
X7Y745D01*
X1173Y745D02*
X1180Y745D01*
X0Y744D02*
X7Y744D01*
X1173Y744D02*
X1180Y744D01*
X0Y743D02*
X7Y743D01*
X1173Y743D02*
X1180Y743D01*
X0Y742D02*
X7Y742D01*
X1173Y742D02*
X1180Y742D01*
X0Y741D02*
X7Y741D01*
X1173Y741D02*
X1180Y741D01*
X0Y740D02*
X7Y740D01*
X1173Y740D02*
X1180Y740D01*
X0Y739D02*
X7Y739D01*
X1173Y739D02*
X1180Y739D01*
X0Y738D02*
X7Y738D01*
X1173Y738D02*
X1180Y738D01*
X0Y737D02*
X7Y737D01*
X1173Y737D02*
X1180Y737D01*
X0Y736D02*
X7Y736D01*
X1173Y736D02*
X1180Y736D01*
X0Y735D02*
X7Y735D01*
X1173Y735D02*
X1180Y735D01*
X0Y734D02*
X7Y734D01*
X1173Y734D02*
X1180Y734D01*
X0Y733D02*
X7Y733D01*
X1173Y733D02*
X1180Y733D01*
X0Y732D02*
X7Y732D01*
X1173Y732D02*
X1180Y732D01*
X0Y731D02*
X7Y731D01*
X1173Y731D02*
X1180Y731D01*
X0Y730D02*
X7Y730D01*
X1173Y730D02*
X1180Y730D01*
X0Y729D02*
X7Y729D01*
X1173Y729D02*
X1180Y729D01*
X0Y728D02*
X7Y728D01*
X1173Y728D02*
X1180Y728D01*
X0Y727D02*
X7Y727D01*
X1173Y727D02*
X1180Y727D01*
X0Y726D02*
X7Y726D01*
X1173Y726D02*
X1180Y726D01*
X0Y725D02*
X7Y725D01*
X1173Y725D02*
X1180Y725D01*
X0Y724D02*
X7Y724D01*
X1173Y724D02*
X1180Y724D01*
X0Y723D02*
X7Y723D01*
X1173Y723D02*
X1180Y723D01*
X0Y722D02*
X7Y722D01*
X1173Y722D02*
X1180Y722D01*
X0Y721D02*
X7Y721D01*
X1173Y721D02*
X1180Y721D01*
X0Y720D02*
X7Y720D01*
X1173Y720D02*
X1180Y720D01*
X0Y719D02*
X7Y719D01*
X1173Y719D02*
X1180Y719D01*
X0Y718D02*
X7Y718D01*
X1173Y718D02*
X1180Y718D01*
X0Y717D02*
X7Y717D01*
X1173Y717D02*
X1180Y717D01*
X0Y716D02*
X7Y716D01*
X1173Y716D02*
X1180Y716D01*
X0Y715D02*
X7Y715D01*
X1173Y715D02*
X1180Y715D01*
X0Y714D02*
X7Y714D01*
X1173Y714D02*
X1180Y714D01*
X0Y713D02*
X7Y713D01*
X1173Y713D02*
X1180Y713D01*
X0Y712D02*
X7Y712D01*
X1173Y712D02*
X1180Y712D01*
X0Y711D02*
X7Y711D01*
X1173Y711D02*
X1180Y711D01*
X0Y710D02*
X7Y710D01*
X1173Y710D02*
X1180Y710D01*
X0Y709D02*
X7Y709D01*
X1173Y709D02*
X1180Y709D01*
X0Y708D02*
X7Y708D01*
X1173Y708D02*
X1180Y708D01*
X0Y707D02*
X7Y707D01*
X1173Y707D02*
X1180Y707D01*
X0Y706D02*
X7Y706D01*
X1173Y706D02*
X1180Y706D01*
X0Y705D02*
X7Y705D01*
X1173Y705D02*
X1180Y705D01*
X0Y704D02*
X7Y704D01*
X1173Y704D02*
X1180Y704D01*
X0Y703D02*
X7Y703D01*
X1173Y703D02*
X1180Y703D01*
X0Y702D02*
X7Y702D01*
X1173Y702D02*
X1180Y702D01*
X0Y701D02*
X7Y701D01*
X1173Y701D02*
X1180Y701D01*
X0Y700D02*
X7Y700D01*
X1173Y700D02*
X1180Y700D01*
X0Y699D02*
X7Y699D01*
X1173Y699D02*
X1180Y699D01*
X0Y698D02*
X7Y698D01*
X1173Y698D02*
X1180Y698D01*
X0Y697D02*
X7Y697D01*
X1173Y697D02*
X1180Y697D01*
X0Y696D02*
X7Y696D01*
X1173Y696D02*
X1180Y696D01*
X0Y695D02*
X7Y695D01*
X1173Y695D02*
X1180Y695D01*
X0Y694D02*
X7Y694D01*
X1173Y694D02*
X1180Y694D01*
X0Y693D02*
X7Y693D01*
X1173Y693D02*
X1180Y693D01*
X0Y692D02*
X7Y692D01*
X1173Y692D02*
X1180Y692D01*
X0Y691D02*
X7Y691D01*
X1173Y691D02*
X1180Y691D01*
X0Y690D02*
X7Y690D01*
X1173Y690D02*
X1180Y690D01*
X0Y689D02*
X7Y689D01*
X1173Y689D02*
X1180Y689D01*
X0Y688D02*
X7Y688D01*
X1173Y688D02*
X1180Y688D01*
X0Y687D02*
X7Y687D01*
X1173Y687D02*
X1180Y687D01*
X0Y686D02*
X7Y686D01*
X1173Y686D02*
X1180Y686D01*
X0Y685D02*
X7Y685D01*
X1173Y685D02*
X1180Y685D01*
X0Y684D02*
X7Y684D01*
X1173Y684D02*
X1180Y684D01*
X0Y683D02*
X7Y683D01*
X1173Y683D02*
X1180Y683D01*
X0Y682D02*
X7Y682D01*
X1173Y682D02*
X1180Y682D01*
X0Y681D02*
X7Y681D01*
X1173Y681D02*
X1180Y681D01*
X0Y680D02*
X7Y680D01*
X1173Y680D02*
X1180Y680D01*
X0Y679D02*
X7Y679D01*
X1173Y679D02*
X1180Y679D01*
X0Y678D02*
X7Y678D01*
X1173Y678D02*
X1180Y678D01*
X0Y677D02*
X7Y677D01*
X1173Y677D02*
X1180Y677D01*
X0Y676D02*
X7Y676D01*
X1173Y676D02*
X1180Y676D01*
X0Y675D02*
X7Y675D01*
X1173Y675D02*
X1180Y675D01*
X0Y674D02*
X7Y674D01*
X1173Y674D02*
X1180Y674D01*
X0Y673D02*
X7Y673D01*
X1173Y673D02*
X1180Y673D01*
X0Y672D02*
X7Y672D01*
X1173Y672D02*
X1180Y672D01*
X0Y671D02*
X7Y671D01*
X1173Y671D02*
X1180Y671D01*
X0Y670D02*
X7Y670D01*
X1173Y670D02*
X1180Y670D01*
X0Y669D02*
X7Y669D01*
X1173Y669D02*
X1180Y669D01*
X0Y668D02*
X7Y668D01*
X1173Y668D02*
X1180Y668D01*
X0Y667D02*
X7Y667D01*
X1173Y667D02*
X1180Y667D01*
X0Y666D02*
X7Y666D01*
X1173Y666D02*
X1180Y666D01*
X0Y665D02*
X7Y665D01*
X1173Y665D02*
X1180Y665D01*
X0Y664D02*
X7Y664D01*
X1173Y664D02*
X1180Y664D01*
X0Y663D02*
X7Y663D01*
X885Y663D02*
X887Y663D01*
X1173Y663D02*
X1180Y663D01*
X0Y662D02*
X7Y662D01*
X885Y662D02*
X887Y662D01*
X1173Y662D02*
X1180Y662D01*
X0Y661D02*
X7Y661D01*
X882Y661D02*
X887Y661D01*
X1173Y661D02*
X1180Y661D01*
X0Y660D02*
X7Y660D01*
X875Y660D02*
X887Y660D01*
X1173Y660D02*
X1180Y660D01*
X0Y659D02*
X7Y659D01*
X875Y659D02*
X887Y659D01*
X1173Y659D02*
X1180Y659D01*
X0Y658D02*
X7Y658D01*
X872Y658D02*
X884Y658D01*
X1173Y658D02*
X1180Y658D01*
X0Y657D02*
X7Y657D01*
X871Y657D02*
X884Y657D01*
X1173Y657D02*
X1180Y657D01*
X0Y656D02*
X7Y656D01*
X869Y656D02*
X881Y656D01*
X1173Y656D02*
X1180Y656D01*
X0Y655D02*
X7Y655D01*
X865Y655D02*
X879Y655D01*
X1173Y655D02*
X1180Y655D01*
X0Y654D02*
X7Y654D01*
X865Y654D02*
X879Y654D01*
X1173Y654D02*
X1180Y654D01*
X0Y653D02*
X7Y653D01*
X862Y653D02*
X876Y653D01*
X1173Y653D02*
X1180Y653D01*
X0Y652D02*
X7Y652D01*
X862Y652D02*
X871Y652D01*
X1173Y652D02*
X1180Y652D01*
X0Y651D02*
X7Y651D01*
X862Y651D02*
X871Y651D01*
X1173Y651D02*
X1180Y651D01*
X0Y650D02*
X7Y650D01*
X862Y650D02*
X866Y650D01*
X1173Y650D02*
X1180Y650D01*
X0Y649D02*
X7Y649D01*
X862Y649D02*
X866Y649D01*
X1173Y649D02*
X1180Y649D01*
X0Y648D02*
X7Y648D01*
X1173Y648D02*
X1180Y648D01*
X0Y647D02*
X7Y647D01*
X342Y647D02*
X349Y647D01*
X1173Y647D02*
X1180Y647D01*
X0Y646D02*
X7Y646D01*
X342Y646D02*
X349Y646D01*
X1173Y646D02*
X1180Y646D01*
X0Y645D02*
X7Y645D01*
X336Y645D02*
X356Y645D01*
X1173Y645D02*
X1180Y645D01*
X0Y644D02*
X7Y644D01*
X335Y644D02*
X356Y644D01*
X1173Y644D02*
X1180Y644D01*
X0Y643D02*
X7Y643D01*
X334Y643D02*
X356Y643D01*
X1173Y643D02*
X1180Y643D01*
X0Y642D02*
X7Y642D01*
X326Y642D02*
X357Y642D01*
X1173Y642D02*
X1180Y642D01*
X0Y641D02*
X7Y641D01*
X326Y641D02*
X357Y641D01*
X1173Y641D02*
X1180Y641D01*
X0Y640D02*
X7Y640D01*
X324Y640D02*
X327Y640D01*
X335Y640D02*
X356Y640D01*
X1173Y640D02*
X1180Y640D01*
X0Y639D02*
X7Y639D01*
X341Y639D02*
X355Y639D01*
X1173Y639D02*
X1180Y639D01*
X0Y638D02*
X7Y638D01*
X1173Y638D02*
X1180Y638D01*
X0Y637D02*
X7Y637D01*
X1173Y637D02*
X1180Y637D01*
X0Y636D02*
X7Y636D01*
X1173Y636D02*
X1180Y636D01*
X0Y635D02*
X7Y635D01*
X1173Y635D02*
X1180Y635D01*
X0Y634D02*
X7Y634D01*
X1173Y634D02*
X1180Y634D01*
X0Y633D02*
X7Y633D01*
X1173Y633D02*
X1180Y633D01*
X0Y632D02*
X7Y632D01*
X1173Y632D02*
X1180Y632D01*
X0Y631D02*
X7Y631D01*
X1173Y631D02*
X1180Y631D01*
X0Y630D02*
X7Y630D01*
X1173Y630D02*
X1180Y630D01*
X0Y629D02*
X7Y629D01*
X1173Y629D02*
X1180Y629D01*
X0Y628D02*
X7Y628D01*
X1173Y628D02*
X1180Y628D01*
X0Y627D02*
X7Y627D01*
X1173Y627D02*
X1180Y627D01*
X0Y626D02*
X7Y626D01*
X1173Y626D02*
X1180Y626D01*
X0Y625D02*
X7Y625D01*
X1173Y625D02*
X1180Y625D01*
X0Y624D02*
X7Y624D01*
X1173Y624D02*
X1180Y624D01*
X0Y623D02*
X7Y623D01*
X1173Y623D02*
X1180Y623D01*
X0Y622D02*
X7Y622D01*
X1173Y622D02*
X1180Y622D01*
X0Y621D02*
X7Y621D01*
X1173Y621D02*
X1180Y621D01*
X0Y620D02*
X7Y620D01*
X1173Y620D02*
X1180Y620D01*
X0Y619D02*
X7Y619D01*
X1173Y619D02*
X1180Y619D01*
X0Y618D02*
X7Y618D01*
X1173Y618D02*
X1180Y618D01*
X0Y617D02*
X7Y617D01*
X1173Y617D02*
X1180Y617D01*
X0Y616D02*
X7Y616D01*
X1173Y616D02*
X1180Y616D01*
X0Y615D02*
X7Y615D01*
X1173Y615D02*
X1180Y615D01*
X0Y614D02*
X7Y614D01*
X1173Y614D02*
X1180Y614D01*
X0Y613D02*
X7Y613D01*
X1173Y613D02*
X1180Y613D01*
X0Y612D02*
X7Y612D01*
X1173Y612D02*
X1180Y612D01*
X0Y611D02*
X7Y611D01*
X1173Y611D02*
X1180Y611D01*
X0Y610D02*
X7Y610D01*
X1173Y610D02*
X1180Y610D01*
X0Y609D02*
X7Y609D01*
X1173Y609D02*
X1180Y609D01*
X0Y608D02*
X7Y608D01*
X1173Y608D02*
X1180Y608D01*
X0Y607D02*
X7Y607D01*
X1173Y607D02*
X1180Y607D01*
X0Y606D02*
X7Y606D01*
X1173Y606D02*
X1180Y606D01*
X0Y605D02*
X7Y605D01*
X1173Y605D02*
X1180Y605D01*
X0Y604D02*
X7Y604D01*
X1173Y604D02*
X1180Y604D01*
X0Y603D02*
X7Y603D01*
X1173Y603D02*
X1180Y603D01*
X0Y602D02*
X7Y602D01*
X1173Y602D02*
X1180Y602D01*
X0Y601D02*
X7Y601D01*
X1173Y601D02*
X1180Y601D01*
X0Y600D02*
X7Y600D01*
X1173Y600D02*
X1180Y600D01*
X0Y599D02*
X7Y599D01*
X1173Y599D02*
X1180Y599D01*
X0Y598D02*
X7Y598D01*
X1173Y598D02*
X1180Y598D01*
X0Y597D02*
X7Y597D01*
X1173Y597D02*
X1180Y597D01*
X0Y596D02*
X7Y596D01*
X1173Y596D02*
X1180Y596D01*
X0Y595D02*
X7Y595D01*
X1173Y595D02*
X1180Y595D01*
X0Y594D02*
X7Y594D01*
X1173Y594D02*
X1180Y594D01*
X0Y593D02*
X7Y593D01*
X1173Y593D02*
X1180Y593D01*
X0Y592D02*
X7Y592D01*
X1173Y592D02*
X1180Y592D01*
X0Y591D02*
X7Y591D01*
X1173Y591D02*
X1180Y591D01*
X0Y590D02*
X7Y590D01*
X1173Y590D02*
X1180Y590D01*
X0Y589D02*
X7Y589D01*
X1173Y589D02*
X1180Y589D01*
X0Y588D02*
X7Y588D01*
X1173Y588D02*
X1180Y588D01*
X0Y587D02*
X7Y587D01*
X1173Y587D02*
X1180Y587D01*
X0Y586D02*
X7Y586D01*
X1173Y586D02*
X1180Y586D01*
X0Y585D02*
X7Y585D01*
X1173Y585D02*
X1180Y585D01*
X0Y584D02*
X7Y584D01*
X1173Y584D02*
X1180Y584D01*
X0Y583D02*
X7Y583D01*
X1173Y583D02*
X1180Y583D01*
X0Y582D02*
X7Y582D01*
X1173Y582D02*
X1180Y582D01*
X0Y581D02*
X7Y581D01*
X1173Y581D02*
X1180Y581D01*
X0Y580D02*
X7Y580D01*
X1173Y580D02*
X1180Y580D01*
X0Y579D02*
X7Y579D01*
X1173Y579D02*
X1180Y579D01*
X0Y578D02*
X7Y578D01*
X1173Y578D02*
X1180Y578D01*
X0Y577D02*
X7Y577D01*
X1173Y577D02*
X1180Y577D01*
X0Y576D02*
X7Y576D01*
X1173Y576D02*
X1180Y576D01*
X0Y575D02*
X7Y575D01*
X1173Y575D02*
X1180Y575D01*
X0Y574D02*
X7Y574D01*
X1173Y574D02*
X1180Y574D01*
X0Y573D02*
X7Y573D01*
X1173Y573D02*
X1180Y573D01*
X0Y572D02*
X7Y572D01*
X1173Y572D02*
X1180Y572D01*
X0Y571D02*
X7Y571D01*
X1173Y571D02*
X1180Y571D01*
X0Y570D02*
X7Y570D01*
X1173Y570D02*
X1180Y570D01*
X0Y569D02*
X7Y569D01*
X1173Y569D02*
X1180Y569D01*
X0Y568D02*
X7Y568D01*
X1173Y568D02*
X1180Y568D01*
X0Y567D02*
X7Y567D01*
X1173Y567D02*
X1180Y567D01*
X0Y566D02*
X7Y566D01*
X1173Y566D02*
X1180Y566D01*
X0Y565D02*
X7Y565D01*
X1173Y565D02*
X1180Y565D01*
X0Y564D02*
X7Y564D01*
X1173Y564D02*
X1180Y564D01*
X0Y563D02*
X7Y563D01*
X1173Y563D02*
X1180Y563D01*
X0Y562D02*
X7Y562D01*
X1173Y562D02*
X1180Y562D01*
X0Y561D02*
X7Y561D01*
X1173Y561D02*
X1180Y561D01*
X0Y560D02*
X7Y560D01*
X1173Y560D02*
X1180Y560D01*
X0Y559D02*
X7Y559D01*
X1173Y559D02*
X1180Y559D01*
X0Y558D02*
X7Y558D01*
X1173Y558D02*
X1180Y558D01*
X0Y557D02*
X7Y557D01*
X1173Y557D02*
X1180Y557D01*
X0Y556D02*
X7Y556D01*
X1173Y556D02*
X1180Y556D01*
X0Y555D02*
X7Y555D01*
X1173Y555D02*
X1180Y555D01*
X0Y554D02*
X7Y554D01*
X1173Y554D02*
X1180Y554D01*
X0Y553D02*
X7Y553D01*
X1173Y553D02*
X1180Y553D01*
X0Y552D02*
X7Y552D01*
X1173Y552D02*
X1180Y552D01*
X0Y551D02*
X7Y551D01*
X1173Y551D02*
X1180Y551D01*
X0Y550D02*
X7Y550D01*
X1173Y550D02*
X1180Y550D01*
X0Y549D02*
X7Y549D01*
X1173Y549D02*
X1180Y549D01*
X0Y548D02*
X7Y548D01*
X1173Y548D02*
X1180Y548D01*
X0Y547D02*
X7Y547D01*
X1173Y547D02*
X1180Y547D01*
X0Y546D02*
X7Y546D01*
X1173Y546D02*
X1180Y546D01*
X0Y545D02*
X7Y545D01*
X1173Y545D02*
X1180Y545D01*
X0Y544D02*
X7Y544D01*
X1173Y544D02*
X1180Y544D01*
X0Y543D02*
X7Y543D01*
X1173Y543D02*
X1180Y543D01*
X0Y542D02*
X7Y542D01*
X1173Y542D02*
X1180Y542D01*
X0Y541D02*
X7Y541D01*
X1173Y541D02*
X1180Y541D01*
X0Y540D02*
X7Y540D01*
X1173Y540D02*
X1180Y540D01*
X0Y539D02*
X7Y539D01*
X1173Y539D02*
X1180Y539D01*
X0Y538D02*
X7Y538D01*
X1173Y538D02*
X1180Y538D01*
X0Y537D02*
X7Y537D01*
X1173Y537D02*
X1180Y537D01*
X0Y536D02*
X7Y536D01*
X1173Y536D02*
X1180Y536D01*
X0Y535D02*
X7Y535D01*
X1173Y535D02*
X1180Y535D01*
X0Y534D02*
X7Y534D01*
X1173Y534D02*
X1180Y534D01*
X0Y533D02*
X7Y533D01*
X1173Y533D02*
X1180Y533D01*
X0Y532D02*
X7Y532D01*
X1173Y532D02*
X1180Y532D01*
X0Y531D02*
X7Y531D01*
X1173Y531D02*
X1180Y531D01*
X0Y530D02*
X7Y530D01*
X1173Y530D02*
X1180Y530D01*
X0Y529D02*
X7Y529D01*
X1173Y529D02*
X1180Y529D01*
X0Y528D02*
X7Y528D01*
X1173Y528D02*
X1180Y528D01*
X0Y527D02*
X7Y527D01*
X1173Y527D02*
X1180Y527D01*
X0Y526D02*
X7Y526D01*
X1173Y526D02*
X1180Y526D01*
X0Y525D02*
X7Y525D01*
X1173Y525D02*
X1180Y525D01*
X0Y524D02*
X7Y524D01*
X1173Y524D02*
X1180Y524D01*
X0Y523D02*
X7Y523D01*
X1173Y523D02*
X1180Y523D01*
X0Y522D02*
X7Y522D01*
X1173Y522D02*
X1180Y522D01*
X0Y521D02*
X7Y521D01*
X1173Y521D02*
X1180Y521D01*
X0Y520D02*
X7Y520D01*
X1173Y520D02*
X1180Y520D01*
X0Y519D02*
X7Y519D01*
X1173Y519D02*
X1180Y519D01*
X0Y518D02*
X7Y518D01*
X1173Y518D02*
X1180Y518D01*
X0Y517D02*
X7Y517D01*
X1173Y517D02*
X1180Y517D01*
X0Y516D02*
X7Y516D01*
X1173Y516D02*
X1180Y516D01*
X0Y515D02*
X7Y515D01*
X1173Y515D02*
X1180Y515D01*
X0Y514D02*
X7Y514D01*
X1173Y514D02*
X1180Y514D01*
X0Y513D02*
X7Y513D01*
X1173Y513D02*
X1180Y513D01*
X0Y512D02*
X7Y512D01*
X1173Y512D02*
X1180Y512D01*
X0Y511D02*
X7Y511D01*
X1173Y511D02*
X1180Y511D01*
X0Y510D02*
X7Y510D01*
X1173Y510D02*
X1180Y510D01*
X0Y509D02*
X7Y509D01*
X1173Y509D02*
X1180Y509D01*
X0Y508D02*
X7Y508D01*
X1173Y508D02*
X1180Y508D01*
X0Y507D02*
X7Y507D01*
X1173Y507D02*
X1180Y507D01*
X0Y506D02*
X7Y506D01*
X1173Y506D02*
X1180Y506D01*
X0Y505D02*
X7Y505D01*
X1173Y505D02*
X1180Y505D01*
X0Y504D02*
X7Y504D01*
X1173Y504D02*
X1180Y504D01*
X0Y503D02*
X7Y503D01*
X1173Y503D02*
X1180Y503D01*
X0Y502D02*
X7Y502D01*
X1173Y502D02*
X1180Y502D01*
X0Y501D02*
X7Y501D01*
X1173Y501D02*
X1180Y501D01*
X0Y500D02*
X7Y500D01*
X1173Y500D02*
X1180Y500D01*
X0Y499D02*
X7Y499D01*
X1173Y499D02*
X1180Y499D01*
X0Y498D02*
X7Y498D01*
X1173Y498D02*
X1180Y498D01*
X0Y497D02*
X7Y497D01*
X1173Y497D02*
X1180Y497D01*
X0Y496D02*
X7Y496D01*
X1173Y496D02*
X1180Y496D01*
X0Y495D02*
X7Y495D01*
X1173Y495D02*
X1180Y495D01*
X0Y494D02*
X7Y494D01*
X1173Y494D02*
X1180Y494D01*
X0Y493D02*
X7Y493D01*
X1173Y493D02*
X1180Y493D01*
X0Y492D02*
X7Y492D01*
X1173Y492D02*
X1180Y492D01*
X0Y491D02*
X7Y491D01*
X1173Y491D02*
X1180Y491D01*
X0Y490D02*
X7Y490D01*
X1173Y490D02*
X1180Y490D01*
X0Y489D02*
X7Y489D01*
X1173Y489D02*
X1180Y489D01*
X0Y488D02*
X7Y488D01*
X1173Y488D02*
X1180Y488D01*
X0Y487D02*
X7Y487D01*
X1173Y487D02*
X1180Y487D01*
X0Y486D02*
X7Y486D01*
X1173Y486D02*
X1180Y486D01*
X0Y485D02*
X7Y485D01*
X1173Y485D02*
X1180Y485D01*
X0Y484D02*
X7Y484D01*
X1173Y484D02*
X1180Y484D01*
X0Y483D02*
X7Y483D01*
X1173Y483D02*
X1180Y483D01*
X0Y482D02*
X7Y482D01*
X1173Y482D02*
X1180Y482D01*
X0Y481D02*
X7Y481D01*
X1173Y481D02*
X1180Y481D01*
X0Y480D02*
X7Y480D01*
X1173Y480D02*
X1180Y480D01*
X0Y479D02*
X7Y479D01*
X1173Y479D02*
X1180Y479D01*
X0Y478D02*
X7Y478D01*
X1173Y478D02*
X1180Y478D01*
X0Y477D02*
X7Y477D01*
X1173Y477D02*
X1180Y477D01*
X0Y476D02*
X7Y476D01*
X1173Y476D02*
X1180Y476D01*
X0Y475D02*
X7Y475D01*
X1173Y475D02*
X1180Y475D01*
X0Y474D02*
X7Y474D01*
X1173Y474D02*
X1180Y474D01*
X0Y473D02*
X7Y473D01*
X1173Y473D02*
X1180Y473D01*
X0Y472D02*
X7Y472D01*
X1173Y472D02*
X1180Y472D01*
X0Y471D02*
X7Y471D01*
X1173Y471D02*
X1180Y471D01*
X0Y470D02*
X7Y470D01*
X1173Y470D02*
X1180Y470D01*
X0Y469D02*
X7Y469D01*
X1173Y469D02*
X1180Y469D01*
X0Y468D02*
X7Y468D01*
X1173Y468D02*
X1180Y468D01*
X0Y467D02*
X7Y467D01*
X1173Y467D02*
X1180Y467D01*
X0Y466D02*
X7Y466D01*
X1173Y466D02*
X1180Y466D01*
X0Y465D02*
X7Y465D01*
X1173Y465D02*
X1180Y465D01*
X0Y464D02*
X7Y464D01*
X1173Y464D02*
X1180Y464D01*
X0Y463D02*
X7Y463D01*
X1173Y463D02*
X1180Y463D01*
X0Y462D02*
X7Y462D01*
X1173Y462D02*
X1180Y462D01*
X0Y461D02*
X7Y461D01*
X1173Y461D02*
X1180Y461D01*
X0Y460D02*
X7Y460D01*
X1173Y460D02*
X1180Y460D01*
X0Y459D02*
X7Y459D01*
X1173Y459D02*
X1180Y459D01*
X0Y458D02*
X7Y458D01*
X1173Y458D02*
X1180Y458D01*
X0Y457D02*
X7Y457D01*
X1173Y457D02*
X1180Y457D01*
X0Y456D02*
X7Y456D01*
X1173Y456D02*
X1180Y456D01*
X0Y455D02*
X7Y455D01*
X1173Y455D02*
X1180Y455D01*
X0Y454D02*
X7Y454D01*
X1173Y454D02*
X1180Y454D01*
X0Y453D02*
X7Y453D01*
X1173Y453D02*
X1180Y453D01*
X0Y452D02*
X7Y452D01*
X1173Y452D02*
X1180Y452D01*
X0Y451D02*
X7Y451D01*
X1173Y451D02*
X1180Y451D01*
X0Y450D02*
X7Y450D01*
X1173Y450D02*
X1180Y450D01*
X0Y449D02*
X7Y449D01*
X1173Y449D02*
X1180Y449D01*
X0Y448D02*
X7Y448D01*
X1173Y448D02*
X1180Y448D01*
X0Y447D02*
X7Y447D01*
X1173Y447D02*
X1180Y447D01*
X0Y446D02*
X7Y446D01*
X1173Y446D02*
X1180Y446D01*
X0Y445D02*
X7Y445D01*
X1173Y445D02*
X1180Y445D01*
X0Y444D02*
X7Y444D01*
X1173Y444D02*
X1180Y444D01*
X0Y443D02*
X7Y443D01*
X1173Y443D02*
X1180Y443D01*
X0Y442D02*
X7Y442D01*
X1173Y442D02*
X1180Y442D01*
X0Y441D02*
X7Y441D01*
X1173Y441D02*
X1180Y441D01*
X0Y440D02*
X7Y440D01*
X1173Y440D02*
X1180Y440D01*
X0Y439D02*
X7Y439D01*
X1173Y439D02*
X1180Y439D01*
X0Y438D02*
X7Y438D01*
X1173Y438D02*
X1180Y438D01*
X0Y437D02*
X7Y437D01*
X1173Y437D02*
X1180Y437D01*
X0Y436D02*
X7Y436D01*
X1173Y436D02*
X1180Y436D01*
X0Y435D02*
X7Y435D01*
X1173Y435D02*
X1180Y435D01*
X0Y434D02*
X7Y434D01*
X1173Y434D02*
X1180Y434D01*
X0Y433D02*
X7Y433D01*
X1173Y433D02*
X1180Y433D01*
X0Y432D02*
X7Y432D01*
X1173Y432D02*
X1180Y432D01*
X0Y431D02*
X7Y431D01*
X1173Y431D02*
X1180Y431D01*
X0Y430D02*
X7Y430D01*
X1173Y430D02*
X1180Y430D01*
X0Y429D02*
X7Y429D01*
X1173Y429D02*
X1180Y429D01*
X0Y428D02*
X7Y428D01*
X1173Y428D02*
X1180Y428D01*
X0Y427D02*
X7Y427D01*
X1173Y427D02*
X1180Y427D01*
X0Y426D02*
X7Y426D01*
X1173Y426D02*
X1180Y426D01*
X0Y425D02*
X7Y425D01*
X1173Y425D02*
X1180Y425D01*
X0Y424D02*
X7Y424D01*
X1173Y424D02*
X1180Y424D01*
X0Y423D02*
X7Y423D01*
X1173Y423D02*
X1180Y423D01*
X0Y422D02*
X7Y422D01*
X1173Y422D02*
X1180Y422D01*
X0Y421D02*
X7Y421D01*
X1173Y421D02*
X1180Y421D01*
X0Y420D02*
X7Y420D01*
X1173Y420D02*
X1180Y420D01*
X0Y419D02*
X7Y419D01*
X1173Y419D02*
X1180Y419D01*
X0Y418D02*
X7Y418D01*
X1173Y418D02*
X1180Y418D01*
X0Y417D02*
X7Y417D01*
X1173Y417D02*
X1180Y417D01*
X0Y416D02*
X7Y416D01*
X1173Y416D02*
X1180Y416D01*
X0Y415D02*
X7Y415D01*
X1173Y415D02*
X1180Y415D01*
X0Y414D02*
X7Y414D01*
X1173Y414D02*
X1180Y414D01*
X0Y413D02*
X7Y413D01*
X1173Y413D02*
X1180Y413D01*
X0Y412D02*
X7Y412D01*
X1173Y412D02*
X1180Y412D01*
X0Y411D02*
X7Y411D01*
X1173Y411D02*
X1180Y411D01*
X0Y410D02*
X7Y410D01*
X1173Y410D02*
X1180Y410D01*
X0Y409D02*
X7Y409D01*
X1173Y409D02*
X1180Y409D01*
X0Y408D02*
X7Y408D01*
X1173Y408D02*
X1180Y408D01*
X0Y407D02*
X7Y407D01*
X1173Y407D02*
X1180Y407D01*
X0Y406D02*
X7Y406D01*
X1173Y406D02*
X1180Y406D01*
X0Y405D02*
X7Y405D01*
X1173Y405D02*
X1180Y405D01*
X0Y404D02*
X7Y404D01*
X1173Y404D02*
X1180Y404D01*
X0Y403D02*
X7Y403D01*
X1173Y403D02*
X1180Y403D01*
X0Y402D02*
X7Y402D01*
X1173Y402D02*
X1180Y402D01*
X0Y401D02*
X7Y401D01*
X1173Y401D02*
X1180Y401D01*
X0Y400D02*
X7Y400D01*
X1173Y400D02*
X1180Y400D01*
X0Y399D02*
X7Y399D01*
X1173Y399D02*
X1180Y399D01*
X0Y398D02*
X7Y398D01*
X1173Y398D02*
X1180Y398D01*
X0Y397D02*
X7Y397D01*
X1173Y397D02*
X1180Y397D01*
X0Y396D02*
X7Y396D01*
X1173Y396D02*
X1180Y396D01*
X0Y395D02*
X7Y395D01*
X1173Y395D02*
X1180Y395D01*
X0Y394D02*
X7Y394D01*
X1173Y394D02*
X1180Y394D01*
X0Y393D02*
X7Y393D01*
X1173Y393D02*
X1180Y393D01*
X0Y392D02*
X7Y392D01*
X1173Y392D02*
X1180Y392D01*
X0Y391D02*
X7Y391D01*
X1173Y391D02*
X1180Y391D01*
X0Y390D02*
X7Y390D01*
X1173Y390D02*
X1180Y390D01*
X0Y389D02*
X7Y389D01*
X1173Y389D02*
X1180Y389D01*
X0Y388D02*
X7Y388D01*
X1173Y388D02*
X1180Y388D01*
X0Y387D02*
X7Y387D01*
X1173Y387D02*
X1180Y387D01*
X0Y386D02*
X7Y386D01*
X1173Y386D02*
X1180Y386D01*
X0Y385D02*
X7Y385D01*
X1173Y385D02*
X1180Y385D01*
X0Y384D02*
X7Y384D01*
X1173Y384D02*
X1180Y384D01*
X0Y383D02*
X7Y383D01*
X1173Y383D02*
X1180Y383D01*
X0Y382D02*
X7Y382D01*
X1173Y382D02*
X1180Y382D01*
X0Y381D02*
X7Y381D01*
X1173Y381D02*
X1180Y381D01*
X0Y380D02*
X7Y380D01*
X1173Y380D02*
X1180Y380D01*
X0Y379D02*
X7Y379D01*
X1173Y379D02*
X1180Y379D01*
X0Y378D02*
X7Y378D01*
X1173Y378D02*
X1180Y378D01*
X0Y377D02*
X7Y377D01*
X1173Y377D02*
X1180Y377D01*
X0Y376D02*
X7Y376D01*
X1173Y376D02*
X1180Y376D01*
X0Y375D02*
X7Y375D01*
X1173Y375D02*
X1180Y375D01*
X0Y374D02*
X7Y374D01*
X1173Y374D02*
X1180Y374D01*
X0Y373D02*
X7Y373D01*
X1173Y373D02*
X1180Y373D01*
X0Y372D02*
X7Y372D01*
X1173Y372D02*
X1180Y372D01*
X0Y371D02*
X7Y371D01*
X1173Y371D02*
X1180Y371D01*
X0Y370D02*
X7Y370D01*
X1173Y370D02*
X1180Y370D01*
X0Y369D02*
X7Y369D01*
X1173Y369D02*
X1180Y369D01*
X0Y368D02*
X7Y368D01*
X1173Y368D02*
X1180Y368D01*
X0Y367D02*
X7Y367D01*
X1173Y367D02*
X1180Y367D01*
X0Y366D02*
X7Y366D01*
X1173Y366D02*
X1180Y366D01*
X0Y365D02*
X7Y365D01*
X1173Y365D02*
X1180Y365D01*
X0Y364D02*
X7Y364D01*
X1173Y364D02*
X1180Y364D01*
X0Y363D02*
X7Y363D01*
X1173Y363D02*
X1180Y363D01*
X0Y362D02*
X7Y362D01*
X1173Y362D02*
X1180Y362D01*
X0Y361D02*
X7Y361D01*
X1173Y361D02*
X1180Y361D01*
X0Y360D02*
X7Y360D01*
X1173Y360D02*
X1180Y360D01*
X0Y359D02*
X7Y359D01*
X1173Y359D02*
X1180Y359D01*
X0Y358D02*
X7Y358D01*
X1173Y358D02*
X1180Y358D01*
X0Y357D02*
X7Y357D01*
X1173Y357D02*
X1180Y357D01*
X0Y356D02*
X7Y356D01*
X1173Y356D02*
X1180Y356D01*
X0Y355D02*
X7Y355D01*
X1173Y355D02*
X1180Y355D01*
X0Y354D02*
X7Y354D01*
X1173Y354D02*
X1180Y354D01*
X0Y353D02*
X7Y353D01*
X1173Y353D02*
X1180Y353D01*
X0Y352D02*
X7Y352D01*
X1173Y352D02*
X1180Y352D01*
X0Y351D02*
X7Y351D01*
X1173Y351D02*
X1180Y351D01*
X0Y350D02*
X7Y350D01*
X1173Y350D02*
X1180Y350D01*
X0Y349D02*
X7Y349D01*
X1173Y349D02*
X1180Y349D01*
X0Y348D02*
X7Y348D01*
X1173Y348D02*
X1180Y348D01*
X0Y347D02*
X7Y347D01*
X1173Y347D02*
X1180Y347D01*
X0Y346D02*
X7Y346D01*
X1173Y346D02*
X1180Y346D01*
X0Y345D02*
X7Y345D01*
X1173Y345D02*
X1180Y345D01*
X0Y344D02*
X7Y344D01*
X1173Y344D02*
X1180Y344D01*
X0Y343D02*
X7Y343D01*
X1173Y343D02*
X1180Y343D01*
X0Y342D02*
X7Y342D01*
X1173Y342D02*
X1180Y342D01*
X0Y341D02*
X7Y341D01*
X1173Y341D02*
X1180Y341D01*
X0Y340D02*
X7Y340D01*
X1173Y340D02*
X1180Y340D01*
X0Y339D02*
X7Y339D01*
X1173Y339D02*
X1180Y339D01*
X0Y338D02*
X7Y338D01*
X1173Y338D02*
X1180Y338D01*
X0Y337D02*
X7Y337D01*
X1173Y337D02*
X1180Y337D01*
X0Y336D02*
X7Y336D01*
X1173Y336D02*
X1180Y336D01*
X0Y335D02*
X7Y335D01*
X1173Y335D02*
X1180Y335D01*
X0Y334D02*
X7Y334D01*
X747Y334D02*
X750Y334D01*
X1173Y334D02*
X1180Y334D01*
X0Y333D02*
X7Y333D01*
X745Y333D02*
X751Y333D01*
X1173Y333D02*
X1180Y333D01*
X0Y332D02*
X7Y332D01*
X744Y332D02*
X752Y332D01*
X963Y332D02*
X971Y332D01*
X1173Y332D02*
X1180Y332D01*
X0Y331D02*
X7Y331D01*
X646Y331D02*
X648Y331D01*
X744Y331D02*
X752Y331D01*
X789Y331D02*
X804Y331D01*
X963Y331D02*
X971Y331D01*
X995Y331D02*
X1002Y331D01*
X1017Y331D02*
X1024Y331D01*
X1173Y331D02*
X1180Y331D01*
X0Y330D02*
X7Y330D01*
X645Y330D02*
X649Y330D01*
X744Y330D02*
X752Y330D01*
X787Y330D02*
X804Y330D01*
X963Y330D02*
X971Y330D01*
X995Y330D02*
X1002Y330D01*
X1016Y330D02*
X1024Y330D01*
X1173Y330D02*
X1180Y330D01*
X0Y329D02*
X7Y329D01*
X645Y329D02*
X649Y329D01*
X744Y329D02*
X752Y329D01*
X785Y329D02*
X805Y329D01*
X963Y329D02*
X971Y329D01*
X995Y329D02*
X1003Y329D01*
X1015Y329D02*
X1024Y329D01*
X1173Y329D02*
X1180Y329D01*
X0Y328D02*
X7Y328D01*
X644Y328D02*
X650Y328D01*
X744Y328D02*
X752Y328D01*
X785Y328D02*
X805Y328D01*
X963Y328D02*
X971Y328D01*
X995Y328D02*
X1004Y328D01*
X1015Y328D02*
X1024Y328D01*
X1173Y328D02*
X1180Y328D01*
X0Y327D02*
X7Y327D01*
X644Y327D02*
X650Y327D01*
X745Y327D02*
X752Y327D01*
X784Y327D02*
X804Y327D01*
X963Y327D02*
X971Y327D01*
X995Y327D02*
X1005Y327D01*
X1014Y327D02*
X1024Y327D01*
X1173Y327D02*
X1180Y327D01*
X0Y326D02*
X7Y326D01*
X644Y326D02*
X650Y326D01*
X745Y326D02*
X751Y326D01*
X783Y326D02*
X804Y326D01*
X964Y326D02*
X970Y326D01*
X995Y326D02*
X1005Y326D01*
X1013Y326D02*
X1024Y326D01*
X1173Y326D02*
X1180Y326D01*
X0Y325D02*
X7Y325D01*
X644Y325D02*
X650Y325D01*
X783Y325D02*
X789Y325D01*
X794Y325D02*
X799Y325D01*
X995Y325D02*
X1006Y325D01*
X1013Y325D02*
X1024Y325D01*
X1173Y325D02*
X1180Y325D01*
X0Y324D02*
X7Y324D01*
X644Y324D02*
X650Y324D01*
X782Y324D02*
X788Y324D01*
X794Y324D02*
X799Y324D01*
X995Y324D02*
X1007Y324D01*
X1012Y324D02*
X1024Y324D01*
X1173Y324D02*
X1180Y324D01*
X0Y323D02*
X7Y323D01*
X644Y323D02*
X650Y323D01*
X782Y323D02*
X788Y323D01*
X794Y323D02*
X799Y323D01*
X995Y323D02*
X1007Y323D01*
X1011Y323D02*
X1024Y323D01*
X1173Y323D02*
X1180Y323D01*
X0Y322D02*
X7Y322D01*
X644Y322D02*
X650Y322D01*
X781Y322D02*
X787Y322D01*
X794Y322D02*
X799Y322D01*
X995Y322D02*
X1000Y322D01*
X1002Y322D02*
X1008Y322D01*
X1011Y322D02*
X1017Y322D01*
X1019Y322D02*
X1024Y322D01*
X1173Y322D02*
X1180Y322D01*
X0Y321D02*
X7Y321D01*
X644Y321D02*
X650Y321D01*
X781Y321D02*
X787Y321D01*
X794Y321D02*
X799Y321D01*
X995Y321D02*
X1000Y321D01*
X1002Y321D02*
X1016Y321D01*
X1019Y321D02*
X1024Y321D01*
X1173Y321D02*
X1180Y321D01*
X0Y320D02*
X7Y320D01*
X644Y320D02*
X650Y320D01*
X780Y320D02*
X786Y320D01*
X794Y320D02*
X799Y320D01*
X995Y320D02*
X1000Y320D01*
X1003Y320D02*
X1016Y320D01*
X1019Y320D02*
X1024Y320D01*
X1173Y320D02*
X1180Y320D01*
X0Y319D02*
X7Y319D01*
X644Y319D02*
X650Y319D01*
X780Y319D02*
X786Y319D01*
X794Y319D02*
X799Y319D01*
X995Y319D02*
X1000Y319D01*
X1004Y319D02*
X1015Y319D01*
X1019Y319D02*
X1024Y319D01*
X1173Y319D02*
X1180Y319D01*
X0Y318D02*
X7Y318D01*
X608Y318D02*
X622Y318D01*
X644Y318D02*
X650Y318D01*
X655Y318D02*
X666Y318D01*
X696Y318D02*
X710Y318D01*
X745Y318D02*
X757Y318D01*
X779Y318D02*
X785Y318D01*
X794Y318D02*
X799Y318D01*
X869Y318D02*
X887Y318D01*
X912Y318D02*
X931Y318D01*
X964Y318D02*
X976Y318D01*
X995Y318D02*
X1000Y318D01*
X1004Y318D02*
X1014Y318D01*
X1019Y318D02*
X1024Y318D01*
X1173Y318D02*
X1180Y318D01*
X0Y317D02*
X7Y317D01*
X607Y317D02*
X624Y317D01*
X644Y317D02*
X650Y317D01*
X654Y317D02*
X668Y317D01*
X694Y317D02*
X711Y317D01*
X744Y317D02*
X758Y317D01*
X779Y317D02*
X785Y317D01*
X794Y317D02*
X799Y317D01*
X867Y317D02*
X889Y317D01*
X911Y317D02*
X933Y317D01*
X963Y317D02*
X977Y317D01*
X995Y317D02*
X1000Y317D01*
X1005Y317D02*
X1014Y317D01*
X1019Y317D02*
X1024Y317D01*
X1173Y317D02*
X1180Y317D01*
X0Y316D02*
X7Y316D01*
X605Y316D02*
X625Y316D01*
X644Y316D02*
X650Y316D01*
X652Y316D02*
X669Y316D01*
X693Y316D02*
X713Y316D01*
X744Y316D02*
X758Y316D01*
X778Y316D02*
X784Y316D01*
X794Y316D02*
X799Y316D01*
X866Y316D02*
X890Y316D01*
X909Y316D02*
X934Y316D01*
X963Y316D02*
X977Y316D01*
X995Y316D02*
X1000Y316D01*
X1006Y316D02*
X1013Y316D01*
X1019Y316D02*
X1024Y316D01*
X1173Y316D02*
X1180Y316D01*
X0Y315D02*
X7Y315D01*
X604Y315D02*
X626Y315D01*
X644Y315D02*
X670Y315D01*
X692Y315D02*
X714Y315D01*
X744Y315D02*
X758Y315D01*
X778Y315D02*
X784Y315D01*
X794Y315D02*
X799Y315D01*
X865Y315D02*
X891Y315D01*
X909Y315D02*
X934Y315D01*
X963Y315D02*
X977Y315D01*
X995Y315D02*
X1000Y315D01*
X1007Y315D02*
X1012Y315D01*
X1019Y315D02*
X1024Y315D01*
X1173Y315D02*
X1180Y315D01*
X0Y314D02*
X7Y314D01*
X603Y314D02*
X627Y314D01*
X644Y314D02*
X671Y314D01*
X691Y314D02*
X715Y314D01*
X744Y314D02*
X758Y314D01*
X777Y314D02*
X783Y314D01*
X794Y314D02*
X799Y314D01*
X864Y314D02*
X891Y314D01*
X908Y314D02*
X935Y314D01*
X963Y314D02*
X977Y314D01*
X995Y314D02*
X1000Y314D01*
X1007Y314D02*
X1012Y314D01*
X1019Y314D02*
X1024Y314D01*
X1173Y314D02*
X1180Y314D01*
X0Y313D02*
X7Y313D01*
X602Y313D02*
X628Y313D01*
X644Y313D02*
X672Y313D01*
X690Y313D02*
X715Y313D01*
X744Y313D02*
X757Y313D01*
X777Y313D02*
X783Y313D01*
X794Y313D02*
X799Y313D01*
X864Y313D02*
X892Y313D01*
X908Y313D02*
X935Y313D01*
X963Y313D02*
X976Y313D01*
X995Y313D02*
X1000Y313D01*
X1007Y313D02*
X1012Y313D01*
X1019Y313D02*
X1024Y313D01*
X1173Y313D02*
X1180Y313D01*
X0Y312D02*
X7Y312D01*
X602Y312D02*
X609Y312D01*
X621Y312D02*
X629Y312D01*
X644Y312D02*
X656Y312D01*
X665Y312D02*
X673Y312D01*
X689Y312D02*
X697Y312D01*
X709Y312D02*
X716Y312D01*
X744Y312D02*
X749Y312D01*
X777Y312D02*
X782Y312D01*
X794Y312D02*
X799Y312D01*
X864Y312D02*
X870Y312D01*
X886Y312D02*
X892Y312D01*
X908Y312D02*
X913Y312D01*
X930Y312D02*
X935Y312D01*
X963Y312D02*
X968Y312D01*
X995Y312D02*
X1000Y312D01*
X1007Y312D02*
X1012Y312D01*
X1019Y312D02*
X1024Y312D01*
X1173Y312D02*
X1180Y312D01*
X0Y311D02*
X7Y311D01*
X601Y311D02*
X608Y311D01*
X623Y311D02*
X629Y311D01*
X644Y311D02*
X655Y311D01*
X666Y311D02*
X673Y311D01*
X689Y311D02*
X695Y311D01*
X710Y311D02*
X717Y311D01*
X744Y311D02*
X749Y311D01*
X776Y311D02*
X782Y311D01*
X794Y311D02*
X799Y311D01*
X865Y311D02*
X868Y311D01*
X887Y311D02*
X892Y311D01*
X909Y311D02*
X912Y311D01*
X930Y311D02*
X936Y311D01*
X963Y311D02*
X968Y311D01*
X995Y311D02*
X1000Y311D01*
X1008Y311D02*
X1011Y311D01*
X1019Y311D02*
X1024Y311D01*
X1173Y311D02*
X1180Y311D01*
X0Y310D02*
X7Y310D01*
X601Y310D02*
X607Y310D01*
X624Y310D02*
X629Y310D01*
X644Y310D02*
X654Y310D01*
X667Y310D02*
X673Y310D01*
X689Y310D02*
X694Y310D01*
X711Y310D02*
X717Y310D01*
X744Y310D02*
X749Y310D01*
X776Y310D02*
X781Y310D01*
X794Y310D02*
X799Y310D01*
X886Y310D02*
X892Y310D01*
X930Y310D02*
X935Y310D01*
X963Y310D02*
X968Y310D01*
X995Y310D02*
X1000Y310D01*
X1019Y310D02*
X1024Y310D01*
X1173Y310D02*
X1180Y310D01*
X0Y309D02*
X7Y309D01*
X601Y309D02*
X606Y309D01*
X624Y309D02*
X630Y309D01*
X644Y309D02*
X653Y309D01*
X668Y309D02*
X673Y309D01*
X688Y309D02*
X694Y309D01*
X712Y309D02*
X717Y309D01*
X744Y309D02*
X749Y309D01*
X776Y309D02*
X781Y309D01*
X794Y309D02*
X799Y309D01*
X885Y309D02*
X891Y309D01*
X929Y309D02*
X935Y309D01*
X963Y309D02*
X968Y309D01*
X995Y309D02*
X1000Y309D01*
X1019Y309D02*
X1024Y309D01*
X1173Y309D02*
X1180Y309D01*
X0Y308D02*
X7Y308D01*
X601Y308D02*
X606Y308D01*
X625Y308D02*
X630Y308D01*
X644Y308D02*
X651Y308D01*
X668Y308D02*
X674Y308D01*
X688Y308D02*
X693Y308D01*
X712Y308D02*
X717Y308D01*
X744Y308D02*
X749Y308D01*
X776Y308D02*
X781Y308D01*
X794Y308D02*
X799Y308D01*
X883Y308D02*
X891Y308D01*
X926Y308D02*
X935Y308D01*
X963Y308D02*
X968Y308D01*
X995Y308D02*
X1000Y308D01*
X1019Y308D02*
X1024Y308D01*
X1173Y308D02*
X1180Y308D01*
X0Y307D02*
X7Y307D01*
X601Y307D02*
X606Y307D01*
X625Y307D02*
X630Y307D01*
X644Y307D02*
X650Y307D01*
X668Y307D02*
X674Y307D01*
X688Y307D02*
X693Y307D01*
X712Y307D02*
X717Y307D01*
X744Y307D02*
X749Y307D01*
X776Y307D02*
X781Y307D01*
X794Y307D02*
X799Y307D01*
X880Y307D02*
X891Y307D01*
X924Y307D02*
X934Y307D01*
X963Y307D02*
X968Y307D01*
X995Y307D02*
X1000Y307D01*
X1019Y307D02*
X1024Y307D01*
X1173Y307D02*
X1180Y307D01*
X0Y306D02*
X7Y306D01*
X601Y306D02*
X606Y306D01*
X625Y306D02*
X630Y306D01*
X644Y306D02*
X650Y306D01*
X668Y306D02*
X674Y306D01*
X688Y306D02*
X693Y306D01*
X712Y306D02*
X717Y306D01*
X744Y306D02*
X749Y306D01*
X776Y306D02*
X781Y306D01*
X794Y306D02*
X799Y306D01*
X878Y306D02*
X890Y306D01*
X922Y306D02*
X934Y306D01*
X963Y306D02*
X968Y306D01*
X995Y306D02*
X1000Y306D01*
X1019Y306D02*
X1024Y306D01*
X1173Y306D02*
X1180Y306D01*
X0Y305D02*
X7Y305D01*
X601Y305D02*
X606Y305D01*
X625Y305D02*
X630Y305D01*
X644Y305D02*
X650Y305D01*
X668Y305D02*
X674Y305D01*
X688Y305D02*
X693Y305D01*
X712Y305D02*
X717Y305D01*
X744Y305D02*
X749Y305D01*
X776Y305D02*
X782Y305D01*
X794Y305D02*
X799Y305D01*
X876Y305D02*
X889Y305D01*
X919Y305D02*
X933Y305D01*
X963Y305D02*
X968Y305D01*
X995Y305D02*
X1000Y305D01*
X1019Y305D02*
X1024Y305D01*
X1173Y305D02*
X1180Y305D01*
X0Y304D02*
X7Y304D01*
X601Y304D02*
X606Y304D01*
X625Y304D02*
X630Y304D01*
X644Y304D02*
X650Y304D01*
X668Y304D02*
X674Y304D01*
X688Y304D02*
X693Y304D01*
X712Y304D02*
X717Y304D01*
X744Y304D02*
X749Y304D01*
X776Y304D02*
X782Y304D01*
X794Y304D02*
X799Y304D01*
X873Y304D02*
X887Y304D01*
X917Y304D02*
X931Y304D01*
X963Y304D02*
X968Y304D01*
X995Y304D02*
X1000Y304D01*
X1019Y304D02*
X1024Y304D01*
X1173Y304D02*
X1180Y304D01*
X0Y303D02*
X7Y303D01*
X601Y303D02*
X630Y303D01*
X644Y303D02*
X650Y303D01*
X668Y303D02*
X674Y303D01*
X688Y303D02*
X693Y303D01*
X712Y303D02*
X717Y303D01*
X744Y303D02*
X749Y303D01*
X777Y303D02*
X782Y303D01*
X794Y303D02*
X799Y303D01*
X871Y303D02*
X885Y303D01*
X915Y303D02*
X929Y303D01*
X963Y303D02*
X968Y303D01*
X995Y303D02*
X1000Y303D01*
X1019Y303D02*
X1024Y303D01*
X1173Y303D02*
X1180Y303D01*
X0Y302D02*
X7Y302D01*
X601Y302D02*
X630Y302D01*
X644Y302D02*
X650Y302D01*
X668Y302D02*
X674Y302D01*
X688Y302D02*
X693Y302D01*
X712Y302D02*
X717Y302D01*
X744Y302D02*
X749Y302D01*
X777Y302D02*
X783Y302D01*
X794Y302D02*
X799Y302D01*
X869Y302D02*
X883Y302D01*
X913Y302D02*
X927Y302D01*
X963Y302D02*
X968Y302D01*
X995Y302D02*
X1000Y302D01*
X1019Y302D02*
X1024Y302D01*
X1173Y302D02*
X1180Y302D01*
X0Y301D02*
X7Y301D01*
X601Y301D02*
X630Y301D01*
X644Y301D02*
X650Y301D01*
X668Y301D02*
X674Y301D01*
X688Y301D02*
X693Y301D01*
X712Y301D02*
X717Y301D01*
X744Y301D02*
X749Y301D01*
X778Y301D02*
X783Y301D01*
X794Y301D02*
X799Y301D01*
X867Y301D02*
X881Y301D01*
X911Y301D02*
X925Y301D01*
X963Y301D02*
X968Y301D01*
X995Y301D02*
X1000Y301D01*
X1019Y301D02*
X1024Y301D01*
X1173Y301D02*
X1180Y301D01*
X0Y300D02*
X7Y300D01*
X601Y300D02*
X630Y300D01*
X644Y300D02*
X650Y300D01*
X668Y300D02*
X674Y300D01*
X688Y300D02*
X693Y300D01*
X712Y300D02*
X717Y300D01*
X744Y300D02*
X749Y300D01*
X778Y300D02*
X784Y300D01*
X794Y300D02*
X799Y300D01*
X866Y300D02*
X878Y300D01*
X910Y300D02*
X922Y300D01*
X963Y300D02*
X968Y300D01*
X995Y300D02*
X1000Y300D01*
X1019Y300D02*
X1024Y300D01*
X1173Y300D02*
X1180Y300D01*
X0Y299D02*
X7Y299D01*
X601Y299D02*
X630Y299D01*
X644Y299D02*
X650Y299D01*
X668Y299D02*
X674Y299D01*
X688Y299D02*
X693Y299D01*
X712Y299D02*
X717Y299D01*
X744Y299D02*
X749Y299D01*
X779Y299D02*
X784Y299D01*
X794Y299D02*
X799Y299D01*
X865Y299D02*
X876Y299D01*
X909Y299D02*
X920Y299D01*
X963Y299D02*
X968Y299D01*
X995Y299D02*
X1000Y299D01*
X1019Y299D02*
X1024Y299D01*
X1173Y299D02*
X1180Y299D01*
X0Y298D02*
X7Y298D01*
X602Y298D02*
X630Y298D01*
X644Y298D02*
X650Y298D01*
X668Y298D02*
X674Y298D01*
X688Y298D02*
X693Y298D01*
X712Y298D02*
X717Y298D01*
X744Y298D02*
X749Y298D01*
X779Y298D02*
X785Y298D01*
X794Y298D02*
X799Y298D01*
X865Y298D02*
X874Y298D01*
X908Y298D02*
X918Y298D01*
X963Y298D02*
X968Y298D01*
X995Y298D02*
X1000Y298D01*
X1019Y298D02*
X1024Y298D01*
X1173Y298D02*
X1180Y298D01*
X0Y297D02*
X7Y297D01*
X624Y297D02*
X630Y297D01*
X644Y297D02*
X650Y297D01*
X668Y297D02*
X674Y297D01*
X688Y297D02*
X693Y297D01*
X712Y297D02*
X717Y297D01*
X744Y297D02*
X749Y297D01*
X780Y297D02*
X785Y297D01*
X794Y297D02*
X799Y297D01*
X864Y297D02*
X871Y297D01*
X908Y297D02*
X915Y297D01*
X963Y297D02*
X968Y297D01*
X995Y297D02*
X1000Y297D01*
X1019Y297D02*
X1024Y297D01*
X1173Y297D02*
X1180Y297D01*
X0Y296D02*
X7Y296D01*
X625Y296D02*
X630Y296D01*
X644Y296D02*
X650Y296D01*
X668Y296D02*
X674Y296D01*
X688Y296D02*
X693Y296D01*
X712Y296D02*
X717Y296D01*
X744Y296D02*
X749Y296D01*
X780Y296D02*
X786Y296D01*
X794Y296D02*
X799Y296D01*
X864Y296D02*
X870Y296D01*
X908Y296D02*
X914Y296D01*
X963Y296D02*
X968Y296D01*
X995Y296D02*
X1000Y296D01*
X1019Y296D02*
X1024Y296D01*
X1173Y296D02*
X1180Y296D01*
X0Y295D02*
X7Y295D01*
X625Y295D02*
X630Y295D01*
X644Y295D02*
X651Y295D01*
X668Y295D02*
X674Y295D01*
X688Y295D02*
X693Y295D01*
X712Y295D02*
X717Y295D01*
X744Y295D02*
X749Y295D01*
X781Y295D02*
X787Y295D01*
X794Y295D02*
X799Y295D01*
X864Y295D02*
X869Y295D01*
X907Y295D02*
X913Y295D01*
X963Y295D02*
X968Y295D01*
X995Y295D02*
X1000Y295D01*
X1019Y295D02*
X1024Y295D01*
X1173Y295D02*
X1180Y295D01*
X0Y294D02*
X7Y294D01*
X624Y294D02*
X630Y294D01*
X644Y294D02*
X653Y294D01*
X668Y294D02*
X673Y294D01*
X688Y294D02*
X694Y294D01*
X712Y294D02*
X717Y294D01*
X744Y294D02*
X749Y294D01*
X781Y294D02*
X787Y294D01*
X794Y294D02*
X799Y294D01*
X864Y294D02*
X869Y294D01*
X907Y294D02*
X912Y294D01*
X963Y294D02*
X968Y294D01*
X995Y294D02*
X1000Y294D01*
X1019Y294D02*
X1024Y294D01*
X1173Y294D02*
X1180Y294D01*
X0Y293D02*
X7Y293D01*
X624Y293D02*
X630Y293D01*
X644Y293D02*
X654Y293D01*
X667Y293D02*
X673Y293D01*
X688Y293D02*
X694Y293D01*
X711Y293D02*
X717Y293D01*
X744Y293D02*
X749Y293D01*
X782Y293D02*
X788Y293D01*
X794Y293D02*
X799Y293D01*
X864Y293D02*
X869Y293D01*
X907Y293D02*
X913Y293D01*
X963Y293D02*
X968Y293D01*
X995Y293D02*
X1000Y293D01*
X1019Y293D02*
X1024Y293D01*
X1173Y293D02*
X1180Y293D01*
X0Y292D02*
X7Y292D01*
X623Y292D02*
X629Y292D01*
X644Y292D02*
X655Y292D01*
X666Y292D02*
X673Y292D01*
X689Y292D02*
X696Y292D01*
X710Y292D02*
X717Y292D01*
X744Y292D02*
X749Y292D01*
X782Y292D02*
X788Y292D01*
X794Y292D02*
X799Y292D01*
X864Y292D02*
X869Y292D01*
X888Y292D02*
X892Y292D01*
X907Y292D02*
X913Y292D01*
X932Y292D02*
X935Y292D01*
X963Y292D02*
X968Y292D01*
X995Y292D02*
X1000Y292D01*
X1019Y292D02*
X1024Y292D01*
X1173Y292D02*
X1180Y292D01*
X0Y291D02*
X7Y291D01*
X621Y291D02*
X629Y291D01*
X644Y291D02*
X656Y291D01*
X665Y291D02*
X673Y291D01*
X689Y291D02*
X697Y291D01*
X709Y291D02*
X716Y291D01*
X744Y291D02*
X749Y291D01*
X783Y291D02*
X789Y291D01*
X794Y291D02*
X799Y291D01*
X864Y291D02*
X870Y291D01*
X887Y291D02*
X892Y291D01*
X908Y291D02*
X914Y291D01*
X930Y291D02*
X936Y291D01*
X963Y291D02*
X968Y291D01*
X995Y291D02*
X1000Y291D01*
X1019Y291D02*
X1024Y291D01*
X1173Y291D02*
X1180Y291D01*
X0Y290D02*
X7Y290D01*
X602Y290D02*
X628Y290D01*
X644Y290D02*
X672Y290D01*
X690Y290D02*
X716Y290D01*
X737Y290D02*
X757Y290D01*
X783Y290D02*
X803Y290D01*
X864Y290D02*
X892Y290D01*
X908Y290D02*
X936Y290D01*
X956Y290D02*
X975Y290D01*
X995Y290D02*
X1000Y290D01*
X1019Y290D02*
X1024Y290D01*
X1173Y290D02*
X1180Y290D01*
X0Y289D02*
X7Y289D01*
X601Y289D02*
X627Y289D01*
X644Y289D02*
X671Y289D01*
X691Y289D02*
X715Y289D01*
X736Y289D02*
X758Y289D01*
X784Y289D02*
X804Y289D01*
X865Y289D02*
X892Y289D01*
X908Y289D02*
X936Y289D01*
X955Y289D02*
X977Y289D01*
X995Y289D02*
X1000Y289D01*
X1019Y289D02*
X1024Y289D01*
X1173Y289D02*
X1180Y289D01*
X0Y288D02*
X7Y288D01*
X601Y288D02*
X626Y288D01*
X644Y288D02*
X670Y288D01*
X692Y288D02*
X714Y288D01*
X735Y288D02*
X758Y288D01*
X784Y288D02*
X805Y288D01*
X865Y288D02*
X892Y288D01*
X909Y288D02*
X936Y288D01*
X954Y288D02*
X977Y288D01*
X995Y288D02*
X1000Y288D01*
X1019Y288D02*
X1024Y288D01*
X1173Y288D02*
X1180Y288D01*
X0Y287D02*
X7Y287D01*
X601Y287D02*
X625Y287D01*
X644Y287D02*
X649Y287D01*
X652Y287D02*
X669Y287D01*
X693Y287D02*
X713Y287D01*
X735Y287D02*
X758Y287D01*
X785Y287D02*
X805Y287D01*
X866Y287D02*
X891Y287D01*
X910Y287D02*
X934Y287D01*
X954Y287D02*
X977Y287D01*
X995Y287D02*
X1000Y287D01*
X1019Y287D02*
X1024Y287D01*
X1173Y287D02*
X1180Y287D01*
X0Y286D02*
X7Y286D01*
X601Y286D02*
X624Y286D01*
X645Y286D02*
X649Y286D01*
X653Y286D02*
X668Y286D01*
X694Y286D02*
X711Y286D01*
X735Y286D02*
X758Y286D01*
X786Y286D02*
X805Y286D01*
X867Y286D02*
X889Y286D01*
X911Y286D02*
X933Y286D01*
X954Y286D02*
X977Y286D01*
X995Y286D02*
X999Y286D01*
X1019Y286D02*
X1024Y286D01*
X1173Y286D02*
X1180Y286D01*
X0Y285D02*
X7Y285D01*
X602Y285D02*
X622Y285D01*
X646Y285D02*
X648Y285D01*
X655Y285D02*
X666Y285D01*
X696Y285D02*
X710Y285D01*
X736Y285D02*
X757Y285D01*
X788Y285D02*
X804Y285D01*
X869Y285D02*
X887Y285D01*
X913Y285D02*
X931Y285D01*
X955Y285D02*
X976Y285D01*
X996Y285D02*
X999Y285D01*
X1020Y285D02*
X1023Y285D01*
X1173Y285D02*
X1180Y285D01*
X0Y284D02*
X7Y284D01*
X1173Y284D02*
X1180Y284D01*
X0Y283D02*
X7Y283D01*
X1173Y283D02*
X1180Y283D01*
X0Y282D02*
X7Y282D01*
X1173Y282D02*
X1180Y282D01*
X0Y281D02*
X7Y281D01*
X1173Y281D02*
X1180Y281D01*
X0Y280D02*
X7Y280D01*
X1173Y280D02*
X1180Y280D01*
X0Y279D02*
X7Y279D01*
X1173Y279D02*
X1180Y279D01*
X0Y278D02*
X7Y278D01*
X1173Y278D02*
X1180Y278D01*
X0Y277D02*
X7Y277D01*
X1173Y277D02*
X1180Y277D01*
X0Y276D02*
X7Y276D01*
X1173Y276D02*
X1180Y276D01*
X0Y275D02*
X7Y275D01*
X1173Y275D02*
X1180Y275D01*
X0Y274D02*
X7Y274D01*
X1173Y274D02*
X1180Y274D01*
X0Y273D02*
X7Y273D01*
X1173Y273D02*
X1180Y273D01*
X0Y272D02*
X7Y272D01*
X1173Y272D02*
X1180Y272D01*
X0Y271D02*
X7Y271D01*
X1173Y271D02*
X1180Y271D01*
X0Y270D02*
X7Y270D01*
X1173Y270D02*
X1180Y270D01*
X0Y269D02*
X7Y269D01*
X1173Y269D02*
X1180Y269D01*
X0Y268D02*
X7Y268D01*
X1173Y268D02*
X1180Y268D01*
X0Y267D02*
X7Y267D01*
X1173Y267D02*
X1180Y267D01*
X0Y266D02*
X7Y266D01*
X1173Y266D02*
X1180Y266D01*
X0Y265D02*
X7Y265D01*
X1173Y265D02*
X1180Y265D01*
X0Y264D02*
X7Y264D01*
X1173Y264D02*
X1180Y264D01*
X0Y263D02*
X7Y263D01*
X1173Y263D02*
X1180Y263D01*
X0Y262D02*
X7Y262D01*
X1173Y262D02*
X1180Y262D01*
X0Y261D02*
X7Y261D01*
X1173Y261D02*
X1180Y261D01*
X0Y260D02*
X7Y260D01*
X1173Y260D02*
X1180Y260D01*
X0Y259D02*
X7Y259D01*
X1173Y259D02*
X1180Y259D01*
X0Y258D02*
X7Y258D01*
X1173Y258D02*
X1180Y258D01*
X0Y257D02*
X7Y257D01*
X1173Y257D02*
X1180Y257D01*
X0Y256D02*
X7Y256D01*
X1173Y256D02*
X1180Y256D01*
X0Y255D02*
X7Y255D01*
X1173Y255D02*
X1180Y255D01*
X0Y254D02*
X7Y254D01*
X1173Y254D02*
X1180Y254D01*
X0Y253D02*
X7Y253D01*
X1173Y253D02*
X1180Y253D01*
X0Y252D02*
X7Y252D01*
X1173Y252D02*
X1180Y252D01*
X0Y251D02*
X7Y251D01*
X1173Y251D02*
X1180Y251D01*
X0Y250D02*
X7Y250D01*
X1173Y250D02*
X1180Y250D01*
X0Y249D02*
X7Y249D01*
X1173Y249D02*
X1180Y249D01*
X0Y248D02*
X7Y248D01*
X1173Y248D02*
X1180Y248D01*
X0Y247D02*
X7Y247D01*
X1173Y247D02*
X1180Y247D01*
X0Y246D02*
X7Y246D01*
X1173Y246D02*
X1180Y246D01*
X0Y245D02*
X7Y245D01*
X1173Y245D02*
X1180Y245D01*
X0Y244D02*
X7Y244D01*
X1173Y244D02*
X1180Y244D01*
X0Y243D02*
X7Y243D01*
X1173Y243D02*
X1180Y243D01*
X0Y242D02*
X7Y242D01*
X1173Y242D02*
X1180Y242D01*
X0Y241D02*
X7Y241D01*
X1173Y241D02*
X1180Y241D01*
X0Y240D02*
X7Y240D01*
X1173Y240D02*
X1180Y240D01*
X0Y239D02*
X7Y239D01*
X1173Y239D02*
X1180Y239D01*
X0Y238D02*
X7Y238D01*
X1173Y238D02*
X1180Y238D01*
X0Y237D02*
X7Y237D01*
X1173Y237D02*
X1180Y237D01*
X0Y236D02*
X7Y236D01*
X1173Y236D02*
X1180Y236D01*
X0Y235D02*
X7Y235D01*
X1173Y235D02*
X1180Y235D01*
X0Y234D02*
X7Y234D01*
X1173Y234D02*
X1180Y234D01*
X0Y233D02*
X7Y233D01*
X1173Y233D02*
X1180Y233D01*
X0Y232D02*
X7Y232D01*
X1173Y232D02*
X1180Y232D01*
X0Y231D02*
X7Y231D01*
X1173Y231D02*
X1180Y231D01*
X0Y230D02*
X7Y230D01*
X1173Y230D02*
X1180Y230D01*
X0Y229D02*
X7Y229D01*
X1173Y229D02*
X1180Y229D01*
X0Y228D02*
X7Y228D01*
X1173Y228D02*
X1180Y228D01*
X0Y227D02*
X7Y227D01*
X1173Y227D02*
X1180Y227D01*
X0Y226D02*
X7Y226D01*
X1173Y226D02*
X1180Y226D01*
X0Y225D02*
X7Y225D01*
X1173Y225D02*
X1180Y225D01*
X0Y224D02*
X7Y224D01*
X1173Y224D02*
X1180Y224D01*
X0Y223D02*
X7Y223D01*
X1173Y223D02*
X1180Y223D01*
X0Y222D02*
X7Y222D01*
X1173Y222D02*
X1180Y222D01*
X0Y221D02*
X7Y221D01*
X1173Y221D02*
X1180Y221D01*
X0Y220D02*
X7Y220D01*
X1173Y220D02*
X1180Y220D01*
X0Y219D02*
X7Y219D01*
X1173Y219D02*
X1180Y219D01*
X0Y218D02*
X7Y218D01*
X1173Y218D02*
X1180Y218D01*
X0Y217D02*
X7Y217D01*
X1173Y217D02*
X1180Y217D01*
X0Y216D02*
X7Y216D01*
X1173Y216D02*
X1180Y216D01*
X0Y215D02*
X7Y215D01*
X1173Y215D02*
X1180Y215D01*
X0Y214D02*
X7Y214D01*
X1173Y214D02*
X1180Y214D01*
X0Y213D02*
X7Y213D01*
X1173Y213D02*
X1180Y213D01*
X0Y212D02*
X7Y212D01*
X1173Y212D02*
X1180Y212D01*
X0Y211D02*
X7Y211D01*
X1173Y211D02*
X1180Y211D01*
X0Y210D02*
X7Y210D01*
X1173Y210D02*
X1180Y210D01*
X0Y209D02*
X7Y209D01*
X1173Y209D02*
X1180Y209D01*
X0Y208D02*
X7Y208D01*
X1173Y208D02*
X1180Y208D01*
X0Y207D02*
X7Y207D01*
X1173Y207D02*
X1180Y207D01*
X0Y206D02*
X7Y206D01*
X1173Y206D02*
X1180Y206D01*
X0Y205D02*
X7Y205D01*
X1173Y205D02*
X1180Y205D01*
X0Y204D02*
X7Y204D01*
X1173Y204D02*
X1180Y204D01*
X0Y203D02*
X7Y203D01*
X1173Y203D02*
X1180Y203D01*
X0Y202D02*
X7Y202D01*
X1173Y202D02*
X1180Y202D01*
X0Y201D02*
X7Y201D01*
X1173Y201D02*
X1180Y201D01*
X0Y200D02*
X7Y200D01*
X1173Y200D02*
X1180Y200D01*
X0Y199D02*
X7Y199D01*
X1173Y199D02*
X1180Y199D01*
X0Y198D02*
X7Y198D01*
X1173Y198D02*
X1180Y198D01*
X0Y197D02*
X7Y197D01*
X1173Y197D02*
X1180Y197D01*
X0Y196D02*
X7Y196D01*
X1173Y196D02*
X1180Y196D01*
X0Y195D02*
X7Y195D01*
X1173Y195D02*
X1180Y195D01*
X0Y194D02*
X7Y194D01*
X1173Y194D02*
X1180Y194D01*
X0Y193D02*
X7Y193D01*
X1173Y193D02*
X1180Y193D01*
X0Y192D02*
X7Y192D01*
X1173Y192D02*
X1180Y192D01*
X0Y191D02*
X7Y191D01*
X350Y191D02*
X361Y191D01*
X657Y191D02*
X659Y191D01*
X734Y191D02*
X745Y191D01*
X876Y191D02*
X887Y191D01*
X999Y191D02*
X1018Y191D01*
X1173Y191D02*
X1180Y191D01*
X0Y190D02*
X7Y190D01*
X349Y190D02*
X362Y190D01*
X656Y190D02*
X660Y190D01*
X733Y190D02*
X747Y190D01*
X875Y190D02*
X888Y190D01*
X997Y190D02*
X1020Y190D01*
X1173Y190D02*
X1180Y190D01*
X0Y189D02*
X7Y189D01*
X349Y189D02*
X363Y189D01*
X655Y189D02*
X660Y189D01*
X732Y189D02*
X748Y189D01*
X874Y189D02*
X888Y189D01*
X996Y189D02*
X1021Y189D01*
X1173Y189D02*
X1180Y189D01*
X0Y188D02*
X7Y188D01*
X349Y188D02*
X363Y188D01*
X655Y188D02*
X661Y188D01*
X732Y188D02*
X750Y188D01*
X874Y188D02*
X888Y188D01*
X995Y188D02*
X1022Y188D01*
X1173Y188D02*
X1180Y188D01*
X0Y187D02*
X7Y187D01*
X349Y187D02*
X362Y187D01*
X655Y187D02*
X661Y187D01*
X733Y187D02*
X750Y187D01*
X874Y187D02*
X888Y187D01*
X994Y187D02*
X1022Y187D01*
X1173Y187D02*
X1180Y187D01*
X0Y186D02*
X7Y186D01*
X349Y186D02*
X362Y186D01*
X654Y186D02*
X661Y186D01*
X734Y186D02*
X751Y186D01*
X874Y186D02*
X887Y186D01*
X994Y186D02*
X1022Y186D01*
X1173Y186D02*
X1180Y186D01*
X0Y185D02*
X7Y185D01*
X349Y185D02*
X354Y185D01*
X654Y185D02*
X661Y185D01*
X744Y185D02*
X752Y185D01*
X874Y185D02*
X879Y185D01*
X994Y185D02*
X1000Y185D01*
X1017Y185D02*
X1023Y185D01*
X1173Y185D02*
X1180Y185D01*
X0Y184D02*
X7Y184D01*
X349Y184D02*
X354Y184D01*
X654Y184D02*
X662Y184D01*
X746Y184D02*
X752Y184D01*
X874Y184D02*
X879Y184D01*
X994Y184D02*
X999Y184D01*
X1017Y184D02*
X1023Y184D01*
X1173Y184D02*
X1180Y184D01*
X0Y183D02*
X7Y183D01*
X349Y183D02*
X354Y183D01*
X653Y183D02*
X662Y183D01*
X747Y183D02*
X752Y183D01*
X874Y183D02*
X879Y183D01*
X993Y183D02*
X999Y183D01*
X1016Y183D02*
X1022Y183D01*
X1173Y183D02*
X1180Y183D01*
X0Y182D02*
X7Y182D01*
X349Y182D02*
X354Y182D01*
X653Y182D02*
X662Y182D01*
X747Y182D02*
X752Y182D01*
X874Y182D02*
X879Y182D01*
X994Y182D02*
X998Y182D01*
X1016Y182D02*
X1022Y182D01*
X1173Y182D02*
X1180Y182D01*
X0Y181D02*
X7Y181D01*
X349Y181D02*
X354Y181D01*
X653Y181D02*
X663Y181D01*
X747Y181D02*
X752Y181D01*
X874Y181D02*
X879Y181D01*
X995Y181D02*
X997Y181D01*
X1015Y181D02*
X1022Y181D01*
X1173Y181D02*
X1180Y181D01*
X0Y180D02*
X7Y180D01*
X349Y180D02*
X354Y180D01*
X653Y180D02*
X663Y180D01*
X747Y180D02*
X752Y180D01*
X874Y180D02*
X879Y180D01*
X1014Y180D02*
X1021Y180D01*
X1173Y180D02*
X1180Y180D01*
X0Y179D02*
X7Y179D01*
X349Y179D02*
X354Y179D01*
X566Y179D02*
X574Y179D01*
X581Y179D02*
X584Y179D01*
X610Y179D02*
X618Y179D01*
X624Y179D02*
X628Y179D01*
X652Y179D02*
X663Y179D01*
X747Y179D02*
X753Y179D01*
X874Y179D02*
X879Y179D01*
X1013Y179D02*
X1020Y179D01*
X1173Y179D02*
X1180Y179D01*
X0Y178D02*
X7Y178D01*
X349Y178D02*
X354Y178D01*
X387Y178D02*
X402Y178D01*
X426Y178D02*
X428Y178D01*
X450Y178D02*
X452Y178D01*
X476Y178D02*
X489Y178D01*
X518Y178D02*
X528Y178D01*
X564Y178D02*
X576Y178D01*
X580Y178D02*
X584Y178D01*
X608Y178D02*
X619Y178D01*
X624Y178D02*
X628Y178D01*
X652Y178D02*
X664Y178D01*
X740Y178D02*
X757Y178D01*
X783Y178D02*
X796Y178D01*
X874Y178D02*
X879Y178D01*
X912Y178D02*
X928Y178D01*
X958Y178D02*
X971Y178D01*
X1013Y178D02*
X1019Y178D01*
X1173Y178D02*
X1180Y178D01*
X0Y177D02*
X7Y177D01*
X349Y177D02*
X354Y177D01*
X385Y177D02*
X403Y177D01*
X425Y177D02*
X429Y177D01*
X449Y177D02*
X453Y177D01*
X474Y177D02*
X491Y177D01*
X516Y177D02*
X529Y177D01*
X536Y177D02*
X541Y177D01*
X563Y177D02*
X577Y177D01*
X580Y177D02*
X585Y177D01*
X607Y177D02*
X621Y177D01*
X623Y177D02*
X628Y177D01*
X652Y177D02*
X664Y177D01*
X739Y177D02*
X758Y177D01*
X781Y177D02*
X798Y177D01*
X874Y177D02*
X879Y177D01*
X911Y177D02*
X929Y177D01*
X956Y177D02*
X973Y177D01*
X1012Y177D02*
X1019Y177D01*
X1173Y177D02*
X1180Y177D01*
X0Y176D02*
X7Y176D01*
X349Y176D02*
X354Y176D01*
X384Y176D02*
X404Y176D01*
X424Y176D02*
X429Y176D01*
X448Y176D02*
X453Y176D01*
X473Y176D02*
X492Y176D01*
X515Y176D02*
X530Y176D01*
X536Y176D02*
X541Y176D01*
X562Y176D02*
X578Y176D01*
X580Y176D02*
X585Y176D01*
X606Y176D02*
X629Y176D01*
X651Y176D02*
X657Y176D01*
X659Y176D02*
X664Y176D01*
X738Y176D02*
X758Y176D01*
X779Y176D02*
X799Y176D01*
X874Y176D02*
X879Y176D01*
X909Y176D02*
X929Y176D01*
X955Y176D02*
X974Y176D01*
X1011Y176D02*
X1018Y176D01*
X1173Y176D02*
X1180Y176D01*
X0Y175D02*
X7Y175D01*
X349Y175D02*
X354Y175D01*
X383Y175D02*
X403Y175D01*
X424Y175D02*
X429Y175D01*
X448Y175D02*
X453Y175D01*
X472Y175D02*
X493Y175D01*
X514Y175D02*
X531Y175D01*
X536Y175D02*
X541Y175D01*
X561Y175D02*
X585Y175D01*
X605Y175D02*
X629Y175D01*
X651Y175D02*
X657Y175D01*
X659Y175D02*
X664Y175D01*
X738Y175D02*
X758Y175D01*
X778Y175D02*
X800Y175D01*
X874Y175D02*
X879Y175D01*
X909Y175D02*
X929Y175D01*
X953Y175D02*
X975Y175D01*
X1010Y175D02*
X1017Y175D01*
X1173Y175D02*
X1180Y175D01*
X0Y174D02*
X7Y174D01*
X349Y174D02*
X354Y174D01*
X382Y174D02*
X403Y174D01*
X424Y174D02*
X429Y174D01*
X448Y174D02*
X453Y174D01*
X471Y174D02*
X495Y174D01*
X513Y174D02*
X532Y174D01*
X536Y174D02*
X541Y174D01*
X560Y174D02*
X585Y174D01*
X603Y174D02*
X629Y174D01*
X651Y174D02*
X656Y174D01*
X659Y174D02*
X665Y174D01*
X739Y174D02*
X758Y174D01*
X777Y174D02*
X801Y174D01*
X874Y174D02*
X879Y174D01*
X908Y174D02*
X929Y174D01*
X952Y174D02*
X976Y174D01*
X1009Y174D02*
X1016Y174D01*
X1173Y174D02*
X1180Y174D01*
X0Y173D02*
X7Y173D01*
X349Y173D02*
X354Y173D01*
X382Y173D02*
X402Y173D01*
X424Y173D02*
X429Y173D01*
X448Y173D02*
X453Y173D01*
X470Y173D02*
X495Y173D01*
X512Y173D02*
X534Y173D01*
X536Y173D02*
X541Y173D01*
X559Y173D02*
X567Y173D01*
X573Y173D02*
X585Y173D01*
X602Y173D02*
X611Y173D01*
X617Y173D02*
X629Y173D01*
X651Y173D02*
X656Y173D01*
X660Y173D02*
X665Y173D01*
X740Y173D02*
X757Y173D01*
X776Y173D02*
X802Y173D01*
X874Y173D02*
X879Y173D01*
X907Y173D02*
X928Y173D01*
X951Y173D02*
X977Y173D01*
X1009Y173D02*
X1016Y173D01*
X1173Y173D02*
X1180Y173D01*
X0Y172D02*
X7Y172D01*
X349Y172D02*
X354Y172D01*
X382Y172D02*
X388Y172D01*
X424Y172D02*
X429Y172D01*
X448Y172D02*
X453Y172D01*
X469Y172D02*
X477Y172D01*
X489Y172D02*
X496Y172D01*
X512Y172D02*
X518Y172D01*
X526Y172D02*
X541Y172D01*
X558Y172D02*
X566Y172D01*
X574Y172D02*
X585Y172D01*
X602Y172D02*
X610Y172D01*
X618Y172D02*
X629Y172D01*
X650Y172D02*
X656Y172D01*
X660Y172D02*
X665Y172D01*
X747Y172D02*
X752Y172D01*
X776Y172D02*
X783Y172D01*
X795Y172D02*
X802Y172D01*
X874Y172D02*
X879Y172D01*
X907Y172D02*
X913Y172D01*
X951Y172D02*
X958Y172D01*
X970Y172D02*
X978Y172D01*
X1008Y172D02*
X1015Y172D01*
X1173Y172D02*
X1180Y172D01*
X0Y171D02*
X7Y171D01*
X349Y171D02*
X354Y171D01*
X381Y171D02*
X387Y171D01*
X424Y171D02*
X429Y171D01*
X448Y171D02*
X453Y171D01*
X469Y171D02*
X475Y171D01*
X490Y171D02*
X496Y171D01*
X512Y171D02*
X517Y171D01*
X528Y171D02*
X541Y171D01*
X557Y171D02*
X565Y171D01*
X575Y171D02*
X585Y171D01*
X601Y171D02*
X608Y171D01*
X619Y171D02*
X629Y171D01*
X650Y171D02*
X655Y171D01*
X660Y171D02*
X666Y171D01*
X747Y171D02*
X752Y171D01*
X775Y171D02*
X782Y171D01*
X796Y171D02*
X803Y171D01*
X874Y171D02*
X879Y171D01*
X907Y171D02*
X912Y171D01*
X950Y171D02*
X957Y171D01*
X971Y171D02*
X978Y171D01*
X1007Y171D02*
X1014Y171D01*
X1173Y171D02*
X1180Y171D01*
X0Y170D02*
X7Y170D01*
X349Y170D02*
X354Y170D01*
X381Y170D02*
X386Y170D01*
X424Y170D02*
X430Y170D01*
X448Y170D02*
X453Y170D01*
X468Y170D02*
X474Y170D01*
X491Y170D02*
X497Y170D01*
X512Y170D02*
X517Y170D01*
X529Y170D02*
X541Y170D01*
X556Y170D02*
X563Y170D01*
X576Y170D02*
X585Y170D01*
X600Y170D02*
X607Y170D01*
X620Y170D02*
X629Y170D01*
X650Y170D02*
X655Y170D01*
X660Y170D02*
X666Y170D01*
X747Y170D02*
X752Y170D01*
X775Y170D02*
X781Y170D01*
X797Y170D02*
X803Y170D01*
X874Y170D02*
X879Y170D01*
X907Y170D02*
X912Y170D01*
X950Y170D02*
X956Y170D01*
X973Y170D02*
X978Y170D01*
X1006Y170D02*
X1013Y170D01*
X1173Y170D02*
X1180Y170D01*
X0Y169D02*
X7Y169D01*
X349Y169D02*
X354Y169D01*
X381Y169D02*
X386Y169D01*
X425Y169D02*
X430Y169D01*
X447Y169D02*
X453Y169D01*
X468Y169D02*
X474Y169D01*
X492Y169D02*
X497Y169D01*
X512Y169D02*
X517Y169D01*
X530Y169D02*
X541Y169D01*
X556Y169D02*
X562Y169D01*
X577Y169D02*
X585Y169D01*
X600Y169D02*
X606Y169D01*
X621Y169D02*
X629Y169D01*
X649Y169D02*
X655Y169D01*
X661Y169D02*
X666Y169D01*
X747Y169D02*
X752Y169D01*
X775Y169D02*
X780Y169D01*
X798Y169D02*
X804Y169D01*
X874Y169D02*
X879Y169D01*
X907Y169D02*
X912Y169D01*
X950Y169D02*
X955Y169D01*
X973Y169D02*
X979Y169D01*
X1006Y169D02*
X1012Y169D01*
X1173Y169D02*
X1180Y169D01*
X0Y168D02*
X7Y168D01*
X349Y168D02*
X354Y168D01*
X381Y168D02*
X386Y168D01*
X425Y168D02*
X431Y168D01*
X447Y168D02*
X453Y168D01*
X468Y168D02*
X473Y168D01*
X492Y168D02*
X497Y168D01*
X512Y168D02*
X517Y168D01*
X531Y168D02*
X541Y168D01*
X556Y168D02*
X561Y168D01*
X578Y168D02*
X585Y168D01*
X600Y168D02*
X605Y168D01*
X622Y168D02*
X629Y168D01*
X649Y168D02*
X654Y168D01*
X661Y168D02*
X666Y168D01*
X747Y168D02*
X752Y168D01*
X775Y168D02*
X780Y168D01*
X798Y168D02*
X804Y168D01*
X874Y168D02*
X879Y168D01*
X907Y168D02*
X912Y168D01*
X950Y168D02*
X955Y168D01*
X974Y168D02*
X979Y168D01*
X1005Y168D02*
X1012Y168D01*
X1173Y168D02*
X1180Y168D01*
X0Y167D02*
X7Y167D01*
X349Y167D02*
X354Y167D01*
X381Y167D02*
X386Y167D01*
X425Y167D02*
X431Y167D01*
X447Y167D02*
X452Y167D01*
X468Y167D02*
X473Y167D01*
X492Y167D02*
X497Y167D01*
X512Y167D02*
X517Y167D01*
X532Y167D02*
X541Y167D01*
X556Y167D02*
X561Y167D01*
X579Y167D02*
X585Y167D01*
X599Y167D02*
X605Y167D01*
X623Y167D02*
X629Y167D01*
X649Y167D02*
X654Y167D01*
X661Y167D02*
X667Y167D01*
X747Y167D02*
X752Y167D01*
X774Y167D02*
X780Y167D01*
X799Y167D02*
X804Y167D01*
X874Y167D02*
X879Y167D01*
X907Y167D02*
X912Y167D01*
X950Y167D02*
X955Y167D01*
X974Y167D02*
X979Y167D01*
X1004Y167D02*
X1011Y167D01*
X1173Y167D02*
X1180Y167D01*
X0Y166D02*
X7Y166D01*
X349Y166D02*
X354Y166D01*
X381Y166D02*
X386Y166D01*
X426Y166D02*
X432Y166D01*
X446Y166D02*
X452Y166D01*
X468Y166D02*
X473Y166D01*
X492Y166D02*
X497Y166D01*
X513Y166D02*
X516Y166D01*
X533Y166D02*
X541Y166D01*
X556Y166D02*
X561Y166D01*
X580Y166D02*
X585Y166D01*
X599Y166D02*
X604Y166D01*
X623Y166D02*
X629Y166D01*
X649Y166D02*
X654Y166D01*
X662Y166D02*
X667Y166D01*
X747Y166D02*
X752Y166D01*
X774Y166D02*
X780Y166D01*
X799Y166D02*
X804Y166D01*
X874Y166D02*
X879Y166D01*
X907Y166D02*
X912Y166D01*
X950Y166D02*
X955Y166D01*
X974Y166D02*
X979Y166D01*
X1003Y166D02*
X1010Y166D01*
X1173Y166D02*
X1180Y166D01*
X0Y165D02*
X7Y165D01*
X349Y165D02*
X354Y165D01*
X381Y165D02*
X404Y165D01*
X426Y165D02*
X432Y165D01*
X446Y165D02*
X451Y165D01*
X468Y165D02*
X473Y165D01*
X492Y165D02*
X497Y165D01*
X514Y165D02*
X515Y165D01*
X535Y165D02*
X541Y165D01*
X556Y165D02*
X561Y165D01*
X580Y165D02*
X585Y165D01*
X599Y165D02*
X604Y165D01*
X623Y165D02*
X629Y165D01*
X648Y165D02*
X654Y165D01*
X662Y165D02*
X667Y165D01*
X747Y165D02*
X752Y165D01*
X774Y165D02*
X780Y165D01*
X799Y165D02*
X804Y165D01*
X874Y165D02*
X879Y165D01*
X906Y165D02*
X930Y165D01*
X950Y165D02*
X955Y165D01*
X974Y165D02*
X979Y165D01*
X1002Y165D02*
X1009Y165D01*
X1173Y165D02*
X1180Y165D01*
X0Y164D02*
X7Y164D01*
X349Y164D02*
X354Y164D01*
X381Y164D02*
X406Y164D01*
X427Y164D02*
X432Y164D01*
X445Y164D02*
X451Y164D01*
X468Y164D02*
X473Y164D01*
X492Y164D02*
X497Y164D01*
X536Y164D02*
X541Y164D01*
X556Y164D02*
X561Y164D01*
X580Y164D02*
X585Y164D01*
X599Y164D02*
X604Y164D01*
X623Y164D02*
X629Y164D01*
X648Y164D02*
X653Y164D01*
X662Y164D02*
X668Y164D01*
X747Y164D02*
X752Y164D01*
X774Y164D02*
X780Y164D01*
X799Y164D02*
X804Y164D01*
X874Y164D02*
X879Y164D01*
X906Y164D02*
X931Y164D01*
X950Y164D02*
X955Y164D01*
X974Y164D02*
X979Y164D01*
X1002Y164D02*
X1009Y164D01*
X1173Y164D02*
X1180Y164D01*
X0Y163D02*
X7Y163D01*
X349Y163D02*
X354Y163D01*
X381Y163D02*
X407Y163D01*
X427Y163D02*
X433Y163D01*
X445Y163D02*
X450Y163D01*
X468Y163D02*
X473Y163D01*
X492Y163D02*
X497Y163D01*
X536Y163D02*
X541Y163D01*
X556Y163D02*
X561Y163D01*
X580Y163D02*
X585Y163D01*
X599Y163D02*
X604Y163D01*
X623Y163D02*
X629Y163D01*
X648Y163D02*
X653Y163D01*
X663Y163D02*
X668Y163D01*
X747Y163D02*
X752Y163D01*
X774Y163D02*
X780Y163D01*
X799Y163D02*
X804Y163D01*
X874Y163D02*
X879Y163D01*
X906Y163D02*
X932Y163D01*
X950Y163D02*
X979Y163D01*
X1001Y163D02*
X1008Y163D01*
X1173Y163D02*
X1180Y163D01*
X0Y162D02*
X7Y162D01*
X349Y162D02*
X354Y162D01*
X381Y162D02*
X408Y162D01*
X428Y162D02*
X433Y162D01*
X444Y162D02*
X450Y162D01*
X468Y162D02*
X473Y162D01*
X492Y162D02*
X497Y162D01*
X536Y162D02*
X541Y162D01*
X556Y162D02*
X561Y162D01*
X580Y162D02*
X585Y162D01*
X599Y162D02*
X604Y162D01*
X623Y162D02*
X629Y162D01*
X647Y162D02*
X653Y162D01*
X663Y162D02*
X668Y162D01*
X747Y162D02*
X752Y162D01*
X774Y162D02*
X780Y162D01*
X799Y162D02*
X804Y162D01*
X874Y162D02*
X879Y162D01*
X906Y162D02*
X933Y162D01*
X950Y162D02*
X979Y162D01*
X1000Y162D02*
X1007Y162D01*
X1173Y162D02*
X1180Y162D01*
X0Y161D02*
X7Y161D01*
X349Y161D02*
X354Y161D01*
X381Y161D02*
X409Y161D01*
X428Y161D02*
X434Y161D01*
X444Y161D02*
X450Y161D01*
X468Y161D02*
X473Y161D01*
X492Y161D02*
X497Y161D01*
X536Y161D02*
X541Y161D01*
X556Y161D02*
X561Y161D01*
X580Y161D02*
X585Y161D01*
X599Y161D02*
X604Y161D01*
X623Y161D02*
X629Y161D01*
X647Y161D02*
X653Y161D01*
X663Y161D02*
X668Y161D01*
X747Y161D02*
X752Y161D01*
X774Y161D02*
X780Y161D01*
X799Y161D02*
X804Y161D01*
X874Y161D02*
X879Y161D01*
X906Y161D02*
X934Y161D01*
X950Y161D02*
X979Y161D01*
X999Y161D02*
X1006Y161D01*
X1173Y161D02*
X1180Y161D01*
X0Y160D02*
X7Y160D01*
X349Y160D02*
X354Y160D01*
X381Y160D02*
X409Y160D01*
X429Y160D02*
X434Y160D01*
X443Y160D02*
X449Y160D01*
X468Y160D02*
X473Y160D01*
X492Y160D02*
X497Y160D01*
X536Y160D02*
X541Y160D01*
X556Y160D02*
X561Y160D01*
X580Y160D02*
X585Y160D01*
X599Y160D02*
X604Y160D01*
X623Y160D02*
X629Y160D01*
X647Y160D02*
X669Y160D01*
X747Y160D02*
X752Y160D01*
X774Y160D02*
X780Y160D01*
X799Y160D02*
X804Y160D01*
X874Y160D02*
X879Y160D01*
X906Y160D02*
X934Y160D01*
X950Y160D02*
X979Y160D01*
X999Y160D02*
X1005Y160D01*
X1173Y160D02*
X1180Y160D01*
X0Y159D02*
X7Y159D01*
X349Y159D02*
X354Y159D01*
X381Y159D02*
X387Y159D01*
X403Y159D02*
X409Y159D01*
X429Y159D02*
X435Y159D01*
X443Y159D02*
X449Y159D01*
X468Y159D02*
X473Y159D01*
X492Y159D02*
X497Y159D01*
X536Y159D02*
X541Y159D01*
X556Y159D02*
X561Y159D01*
X580Y159D02*
X585Y159D01*
X599Y159D02*
X604Y159D01*
X623Y159D02*
X629Y159D01*
X646Y159D02*
X669Y159D01*
X747Y159D02*
X752Y159D01*
X774Y159D02*
X780Y159D01*
X799Y159D02*
X804Y159D01*
X874Y159D02*
X879Y159D01*
X906Y159D02*
X913Y159D01*
X929Y159D02*
X935Y159D01*
X950Y159D02*
X979Y159D01*
X998Y159D02*
X1005Y159D01*
X1173Y159D02*
X1180Y159D01*
X0Y158D02*
X7Y158D01*
X349Y158D02*
X354Y158D01*
X381Y158D02*
X386Y158D01*
X404Y158D02*
X409Y158D01*
X429Y158D02*
X435Y158D01*
X443Y158D02*
X448Y158D01*
X468Y158D02*
X473Y158D01*
X492Y158D02*
X497Y158D01*
X536Y158D02*
X541Y158D01*
X556Y158D02*
X561Y158D01*
X580Y158D02*
X585Y158D01*
X599Y158D02*
X604Y158D01*
X623Y158D02*
X629Y158D01*
X646Y158D02*
X669Y158D01*
X747Y158D02*
X752Y158D01*
X774Y158D02*
X780Y158D01*
X799Y158D02*
X804Y158D01*
X874Y158D02*
X879Y158D01*
X906Y158D02*
X912Y158D01*
X930Y158D02*
X935Y158D01*
X951Y158D02*
X979Y158D01*
X997Y158D02*
X1004Y158D01*
X1173Y158D02*
X1180Y158D01*
X0Y157D02*
X7Y157D01*
X349Y157D02*
X354Y157D01*
X381Y157D02*
X386Y157D01*
X404Y157D02*
X410Y157D01*
X430Y157D02*
X436Y157D01*
X442Y157D02*
X448Y157D01*
X468Y157D02*
X473Y157D01*
X492Y157D02*
X497Y157D01*
X536Y157D02*
X541Y157D01*
X556Y157D02*
X561Y157D01*
X580Y157D02*
X585Y157D01*
X599Y157D02*
X604Y157D01*
X623Y157D02*
X629Y157D01*
X646Y157D02*
X670Y157D01*
X747Y157D02*
X752Y157D01*
X774Y157D02*
X780Y157D01*
X799Y157D02*
X804Y157D01*
X874Y157D02*
X879Y157D01*
X906Y157D02*
X911Y157D01*
X930Y157D02*
X935Y157D01*
X973Y157D02*
X979Y157D01*
X996Y157D02*
X1003Y157D01*
X1173Y157D02*
X1180Y157D01*
X0Y156D02*
X7Y156D01*
X349Y156D02*
X354Y156D01*
X381Y156D02*
X386Y156D01*
X404Y156D02*
X410Y156D01*
X430Y156D02*
X436Y156D01*
X442Y156D02*
X447Y156D01*
X468Y156D02*
X473Y156D01*
X492Y156D02*
X497Y156D01*
X536Y156D02*
X541Y156D01*
X556Y156D02*
X561Y156D01*
X579Y156D02*
X585Y156D01*
X599Y156D02*
X605Y156D01*
X623Y156D02*
X629Y156D01*
X646Y156D02*
X670Y156D01*
X747Y156D02*
X752Y156D01*
X774Y156D02*
X780Y156D01*
X799Y156D02*
X804Y156D01*
X874Y156D02*
X879Y156D01*
X906Y156D02*
X911Y156D01*
X930Y156D02*
X935Y156D01*
X974Y156D02*
X979Y156D01*
X995Y156D02*
X1002Y156D01*
X1173Y156D02*
X1180Y156D01*
X0Y155D02*
X7Y155D01*
X349Y155D02*
X354Y155D01*
X381Y155D02*
X386Y155D01*
X404Y155D02*
X410Y155D01*
X431Y155D02*
X436Y155D01*
X441Y155D02*
X447Y155D01*
X468Y155D02*
X473Y155D01*
X492Y155D02*
X497Y155D01*
X536Y155D02*
X541Y155D01*
X556Y155D02*
X561Y155D01*
X579Y155D02*
X585Y155D01*
X600Y155D02*
X605Y155D01*
X622Y155D02*
X629Y155D01*
X645Y155D02*
X670Y155D01*
X747Y155D02*
X752Y155D01*
X775Y155D02*
X780Y155D01*
X798Y155D02*
X804Y155D01*
X874Y155D02*
X879Y155D01*
X906Y155D02*
X911Y155D01*
X930Y155D02*
X935Y155D01*
X974Y155D02*
X979Y155D01*
X995Y155D02*
X1002Y155D01*
X1019Y155D02*
X1021Y155D01*
X1173Y155D02*
X1180Y155D01*
X0Y154D02*
X7Y154D01*
X349Y154D02*
X354Y154D01*
X381Y154D02*
X386Y154D01*
X404Y154D02*
X410Y154D01*
X431Y154D02*
X437Y154D01*
X441Y154D02*
X446Y154D01*
X468Y154D02*
X473Y154D01*
X492Y154D02*
X497Y154D01*
X536Y154D02*
X541Y154D01*
X556Y154D02*
X562Y154D01*
X577Y154D02*
X585Y154D01*
X600Y154D02*
X606Y154D01*
X621Y154D02*
X629Y154D01*
X645Y154D02*
X650Y154D01*
X665Y154D02*
X671Y154D01*
X747Y154D02*
X752Y154D01*
X775Y154D02*
X780Y154D01*
X798Y154D02*
X804Y154D01*
X874Y154D02*
X879Y154D01*
X906Y154D02*
X912Y154D01*
X930Y154D02*
X935Y154D01*
X973Y154D02*
X979Y154D01*
X994Y154D02*
X1001Y154D01*
X1018Y154D02*
X1022Y154D01*
X1173Y154D02*
X1180Y154D01*
X0Y153D02*
X7Y153D01*
X349Y153D02*
X354Y153D01*
X381Y153D02*
X388Y153D01*
X404Y153D02*
X410Y153D01*
X432Y153D02*
X437Y153D01*
X440Y153D02*
X446Y153D01*
X468Y153D02*
X474Y153D01*
X491Y153D02*
X497Y153D01*
X536Y153D02*
X541Y153D01*
X556Y153D02*
X563Y153D01*
X576Y153D02*
X585Y153D01*
X600Y153D02*
X607Y153D01*
X620Y153D02*
X629Y153D01*
X645Y153D02*
X650Y153D01*
X665Y153D02*
X671Y153D01*
X747Y153D02*
X752Y153D01*
X775Y153D02*
X781Y153D01*
X798Y153D02*
X803Y153D01*
X874Y153D02*
X879Y153D01*
X906Y153D02*
X913Y153D01*
X930Y153D02*
X935Y153D01*
X973Y153D02*
X979Y153D01*
X994Y153D02*
X1000Y153D01*
X1018Y153D02*
X1022Y153D01*
X1173Y153D02*
X1180Y153D01*
X0Y152D02*
X7Y152D01*
X349Y152D02*
X354Y152D01*
X381Y152D02*
X390Y152D01*
X404Y152D02*
X409Y152D01*
X432Y152D02*
X438Y152D01*
X440Y152D02*
X446Y152D01*
X469Y152D02*
X475Y152D01*
X490Y152D02*
X497Y152D01*
X536Y152D02*
X541Y152D01*
X557Y152D02*
X564Y152D01*
X575Y152D02*
X585Y152D01*
X601Y152D02*
X608Y152D01*
X619Y152D02*
X629Y152D01*
X644Y152D02*
X650Y152D01*
X666Y152D02*
X671Y152D01*
X747Y152D02*
X752Y152D01*
X775Y152D02*
X782Y152D01*
X797Y152D02*
X803Y152D01*
X874Y152D02*
X879Y152D01*
X906Y152D02*
X915Y152D01*
X930Y152D02*
X935Y152D01*
X972Y152D02*
X978Y152D01*
X994Y152D02*
X999Y152D01*
X1017Y152D02*
X1023Y152D01*
X1173Y152D02*
X1180Y152D01*
X0Y151D02*
X7Y151D01*
X349Y151D02*
X354Y151D01*
X381Y151D02*
X391Y151D01*
X403Y151D02*
X409Y151D01*
X432Y151D02*
X445Y151D01*
X469Y151D02*
X476Y151D01*
X489Y151D02*
X496Y151D01*
X536Y151D02*
X541Y151D01*
X558Y151D02*
X566Y151D01*
X574Y151D02*
X585Y151D01*
X601Y151D02*
X609Y151D01*
X618Y151D02*
X629Y151D01*
X644Y151D02*
X649Y151D01*
X666Y151D02*
X671Y151D01*
X747Y151D02*
X752Y151D01*
X776Y151D02*
X783Y151D01*
X795Y151D02*
X803Y151D01*
X874Y151D02*
X879Y151D01*
X906Y151D02*
X917Y151D01*
X929Y151D02*
X935Y151D01*
X970Y151D02*
X978Y151D01*
X994Y151D02*
X999Y151D01*
X1017Y151D02*
X1022Y151D01*
X1173Y151D02*
X1180Y151D01*
X0Y150D02*
X7Y150D01*
X341Y150D02*
X361Y150D01*
X381Y150D02*
X409Y150D01*
X433Y150D02*
X445Y150D01*
X470Y150D02*
X496Y150D01*
X536Y150D02*
X541Y150D01*
X558Y150D02*
X567Y150D01*
X573Y150D02*
X585Y150D01*
X602Y150D02*
X611Y150D01*
X617Y150D02*
X629Y150D01*
X644Y150D02*
X649Y150D01*
X666Y150D02*
X672Y150D01*
X747Y150D02*
X752Y150D01*
X776Y150D02*
X802Y150D01*
X867Y150D02*
X886Y150D01*
X906Y150D02*
X934Y150D01*
X951Y150D02*
X977Y150D01*
X994Y150D02*
X1022Y150D01*
X1173Y150D02*
X1180Y150D01*
X0Y149D02*
X7Y149D01*
X340Y149D02*
X362Y149D01*
X380Y149D02*
X408Y149D01*
X433Y149D02*
X444Y149D01*
X471Y149D02*
X495Y149D01*
X536Y149D02*
X541Y149D01*
X560Y149D02*
X585Y149D01*
X603Y149D02*
X629Y149D01*
X644Y149D02*
X649Y149D01*
X667Y149D02*
X672Y149D01*
X747Y149D02*
X752Y149D01*
X777Y149D02*
X801Y149D01*
X866Y149D02*
X888Y149D01*
X906Y149D02*
X934Y149D01*
X950Y149D02*
X976Y149D01*
X994Y149D02*
X1022Y149D01*
X1173Y149D02*
X1180Y149D01*
X0Y148D02*
X7Y148D01*
X340Y148D02*
X363Y148D01*
X380Y148D02*
X408Y148D01*
X434Y148D02*
X444Y148D01*
X472Y148D02*
X494Y148D01*
X536Y148D02*
X541Y148D01*
X561Y148D02*
X585Y148D01*
X604Y148D02*
X629Y148D01*
X643Y148D02*
X649Y148D01*
X667Y148D02*
X672Y148D01*
X747Y148D02*
X752Y148D01*
X778Y148D02*
X800Y148D01*
X865Y148D02*
X888Y148D01*
X906Y148D02*
X933Y148D01*
X950Y148D02*
X975Y148D01*
X994Y148D02*
X1021Y148D01*
X1173Y148D02*
X1180Y148D01*
X0Y147D02*
X7Y147D01*
X340Y147D02*
X363Y147D01*
X380Y147D02*
X407Y147D01*
X434Y147D02*
X443Y147D01*
X473Y147D02*
X492Y147D01*
X536Y147D02*
X541Y147D01*
X562Y147D02*
X585Y147D01*
X606Y147D02*
X629Y147D01*
X643Y147D02*
X648Y147D01*
X667Y147D02*
X672Y147D01*
X747Y147D02*
X752Y147D01*
X779Y147D02*
X799Y147D01*
X865Y147D02*
X888Y147D01*
X906Y147D02*
X932Y147D01*
X950Y147D02*
X974Y147D01*
X995Y147D02*
X1020Y147D01*
X1173Y147D02*
X1180Y147D01*
X0Y146D02*
X7Y146D01*
X340Y146D02*
X362Y146D01*
X381Y146D02*
X385Y146D01*
X389Y146D02*
X406Y146D01*
X435Y146D02*
X443Y146D01*
X474Y146D02*
X491Y146D01*
X536Y146D02*
X541Y146D01*
X563Y146D02*
X577Y146D01*
X580Y146D02*
X585Y146D01*
X607Y146D02*
X621Y146D01*
X623Y146D02*
X629Y146D01*
X643Y146D02*
X648Y146D01*
X668Y146D02*
X672Y146D01*
X748Y146D02*
X752Y146D01*
X781Y146D02*
X798Y146D01*
X865Y146D02*
X888Y146D01*
X996Y146D02*
X1019Y146D01*
X1173Y146D02*
X1180Y146D01*
X0Y145D02*
X7Y145D01*
X341Y145D02*
X362Y145D01*
X382Y145D02*
X384Y145D01*
X390Y145D02*
X404Y145D01*
X435Y145D02*
X442Y145D01*
X476Y145D02*
X489Y145D01*
X537Y145D02*
X540Y145D01*
X564Y145D02*
X576Y145D01*
X580Y145D02*
X585Y145D01*
X608Y145D02*
X620Y145D01*
X623Y145D02*
X629Y145D01*
X644Y145D02*
X647Y145D01*
X668Y145D02*
X671Y145D01*
X748Y145D02*
X751Y145D01*
X782Y145D02*
X796Y145D01*
X866Y145D02*
X887Y145D01*
X997Y145D02*
X1018Y145D01*
X1173Y145D02*
X1180Y145D01*
X0Y144D02*
X7Y144D01*
X566Y144D02*
X574Y144D01*
X580Y144D02*
X585Y144D01*
X609Y144D02*
X618Y144D01*
X623Y144D02*
X629Y144D01*
X1173Y144D02*
X1180Y144D01*
X0Y143D02*
X7Y143D01*
X570Y143D02*
X571Y143D01*
X580Y143D02*
X585Y143D01*
X623Y143D02*
X629Y143D01*
X1173Y143D02*
X1180Y143D01*
X0Y142D02*
X7Y142D01*
X580Y142D02*
X585Y142D01*
X623Y142D02*
X629Y142D01*
X1173Y142D02*
X1180Y142D01*
X0Y141D02*
X7Y141D01*
X580Y141D02*
X585Y141D01*
X623Y141D02*
X629Y141D01*
X1173Y141D02*
X1180Y141D01*
X0Y140D02*
X7Y140D01*
X580Y140D02*
X585Y140D01*
X626Y140D02*
X629Y140D01*
X1173Y140D02*
X1180Y140D01*
X0Y139D02*
X7Y139D01*
X580Y139D02*
X585Y139D01*
X628Y139D02*
X629Y139D01*
X1173Y139D02*
X1180Y139D01*
X0Y138D02*
X7Y138D01*
X580Y138D02*
X585Y138D01*
X629Y138D02*
X629Y138D01*
X1173Y138D02*
X1180Y138D01*
X0Y137D02*
X7Y137D01*
X580Y137D02*
X584Y137D01*
X1173Y137D02*
X1180Y137D01*
X0Y136D02*
X7Y136D01*
X580Y136D02*
X582Y136D01*
X1173Y136D02*
X1180Y136D01*
X0Y135D02*
X7Y135D01*
X580Y135D02*
X581Y135D01*
X1173Y135D02*
X1180Y135D01*
X0Y134D02*
X7Y134D01*
X580Y134D02*
X580Y134D01*
X1173Y134D02*
X1180Y134D01*
X0Y133D02*
X7Y133D01*
X1173Y133D02*
X1180Y133D01*
X0Y132D02*
X7Y132D01*
X1173Y132D02*
X1180Y132D01*
X0Y131D02*
X7Y131D01*
X1173Y131D02*
X1180Y131D01*
X0Y130D02*
X7Y130D01*
X1173Y130D02*
X1180Y130D01*
X0Y129D02*
X7Y129D01*
X1173Y129D02*
X1180Y129D01*
X0Y128D02*
X7Y128D01*
X1173Y128D02*
X1180Y128D01*
X0Y127D02*
X7Y127D01*
X1173Y127D02*
X1180Y127D01*
X0Y126D02*
X7Y126D01*
X1173Y126D02*
X1180Y126D01*
X0Y125D02*
X7Y125D01*
X1173Y125D02*
X1180Y125D01*
X0Y124D02*
X7Y124D01*
X1173Y124D02*
X1180Y124D01*
X0Y123D02*
X7Y123D01*
X1173Y123D02*
X1180Y123D01*
X0Y122D02*
X7Y122D01*
X1173Y122D02*
X1180Y122D01*
X0Y121D02*
X7Y121D01*
X1173Y121D02*
X1180Y121D01*
X0Y120D02*
X7Y120D01*
X1173Y120D02*
X1180Y120D01*
X0Y119D02*
X7Y119D01*
X1173Y119D02*
X1180Y119D01*
X0Y118D02*
X7Y118D01*
X1173Y118D02*
X1180Y118D01*
X0Y117D02*
X7Y117D01*
X1173Y117D02*
X1180Y117D01*
X0Y116D02*
X7Y116D01*
X1173Y116D02*
X1180Y116D01*
X0Y115D02*
X7Y115D01*
X1173Y115D02*
X1180Y115D01*
X0Y114D02*
X7Y114D01*
X1173Y114D02*
X1180Y114D01*
X0Y113D02*
X7Y113D01*
X1173Y113D02*
X1180Y113D01*
X0Y112D02*
X7Y112D01*
X1173Y112D02*
X1180Y112D01*
X0Y111D02*
X7Y111D01*
X1173Y111D02*
X1180Y111D01*
X0Y110D02*
X7Y110D01*
X1173Y110D02*
X1180Y110D01*
X0Y109D02*
X7Y109D01*
X1173Y109D02*
X1180Y109D01*
X0Y108D02*
X7Y108D01*
X1173Y108D02*
X1180Y108D01*
X0Y107D02*
X7Y107D01*
X1173Y107D02*
X1180Y107D01*
X0Y106D02*
X7Y106D01*
X1173Y106D02*
X1180Y106D01*
X0Y105D02*
X7Y105D01*
X1173Y105D02*
X1180Y105D01*
X0Y104D02*
X7Y104D01*
X1173Y104D02*
X1180Y104D01*
X0Y103D02*
X7Y103D01*
X1173Y103D02*
X1180Y103D01*
X0Y102D02*
X7Y102D01*
X1173Y102D02*
X1180Y102D01*
X0Y101D02*
X7Y101D01*
X1173Y101D02*
X1180Y101D01*
X0Y100D02*
X7Y100D01*
X1173Y100D02*
X1180Y100D01*
X0Y99D02*
X7Y99D01*
X1173Y99D02*
X1180Y99D01*
X0Y98D02*
X7Y98D01*
X1173Y98D02*
X1180Y98D01*
X0Y97D02*
X7Y97D01*
X1173Y97D02*
X1180Y97D01*
X0Y96D02*
X7Y96D01*
X1173Y96D02*
X1180Y96D01*
X0Y95D02*
X7Y95D01*
X1173Y95D02*
X1180Y95D01*
X0Y94D02*
X7Y94D01*
X1173Y94D02*
X1180Y94D01*
X0Y93D02*
X7Y93D01*
X1173Y93D02*
X1180Y93D01*
X0Y92D02*
X7Y92D01*
X1173Y92D02*
X1180Y92D01*
X0Y91D02*
X7Y91D01*
X1173Y91D02*
X1180Y91D01*
X0Y90D02*
X7Y90D01*
X1173Y90D02*
X1180Y90D01*
X0Y89D02*
X7Y89D01*
X1173Y89D02*
X1180Y89D01*
X0Y88D02*
X7Y88D01*
X1173Y88D02*
X1180Y88D01*
X0Y87D02*
X7Y87D01*
X1173Y87D02*
X1180Y87D01*
X0Y86D02*
X7Y86D01*
X1173Y86D02*
X1180Y86D01*
X0Y85D02*
X7Y85D01*
X1173Y85D02*
X1180Y85D01*
X0Y84D02*
X7Y84D01*
X1173Y84D02*
X1180Y84D01*
X0Y83D02*
X7Y83D01*
X1173Y83D02*
X1180Y83D01*
X0Y82D02*
X7Y82D01*
X1173Y82D02*
X1180Y82D01*
X0Y81D02*
X7Y81D01*
X1173Y81D02*
X1180Y81D01*
X0Y80D02*
X7Y80D01*
X1173Y80D02*
X1180Y80D01*
X0Y79D02*
X7Y79D01*
X1173Y79D02*
X1180Y79D01*
X0Y78D02*
X7Y78D01*
X1173Y78D02*
X1180Y78D01*
X0Y77D02*
X7Y77D01*
X1173Y77D02*
X1180Y77D01*
X0Y76D02*
X7Y76D01*
X1173Y76D02*
X1180Y76D01*
X0Y75D02*
X7Y75D01*
X1173Y75D02*
X1180Y75D01*
X0Y74D02*
X7Y74D01*
X1173Y74D02*
X1180Y74D01*
X0Y73D02*
X7Y73D01*
X1173Y73D02*
X1180Y73D01*
X0Y72D02*
X7Y72D01*
X1173Y72D02*
X1180Y72D01*
X0Y71D02*
X7Y71D01*
X1173Y71D02*
X1180Y71D01*
X0Y70D02*
X7Y70D01*
X1173Y70D02*
X1180Y70D01*
X0Y69D02*
X7Y69D01*
X1173Y69D02*
X1180Y69D01*
X0Y68D02*
X7Y68D01*
X1173Y68D02*
X1180Y68D01*
X0Y67D02*
X7Y67D01*
X1173Y67D02*
X1180Y67D01*
X0Y66D02*
X7Y66D01*
X1173Y66D02*
X1180Y66D01*
X0Y65D02*
X7Y65D01*
X1173Y65D02*
X1180Y65D01*
X0Y64D02*
X7Y64D01*
X1173Y64D02*
X1180Y64D01*
X0Y63D02*
X7Y63D01*
X1173Y63D02*
X1180Y63D01*
X0Y62D02*
X7Y62D01*
X1173Y62D02*
X1180Y62D01*
X0Y61D02*
X7Y61D01*
X1173Y61D02*
X1180Y61D01*
X0Y60D02*
X7Y60D01*
X1173Y60D02*
X1180Y60D01*
X0Y59D02*
X7Y59D01*
X1173Y59D02*
X1180Y59D01*
X0Y58D02*
X7Y58D01*
X1173Y58D02*
X1180Y58D01*
X0Y57D02*
X7Y57D01*
X1173Y57D02*
X1180Y57D01*
X0Y56D02*
X7Y56D01*
X1173Y56D02*
X1180Y56D01*
X0Y55D02*
X7Y55D01*
X1173Y55D02*
X1180Y55D01*
X0Y54D02*
X7Y54D01*
X1173Y54D02*
X1180Y54D01*
X0Y53D02*
X7Y53D01*
X1173Y53D02*
X1180Y53D01*
X0Y52D02*
X7Y52D01*
X1173Y52D02*
X1180Y52D01*
X0Y51D02*
X7Y51D01*
X1173Y51D02*
X1180Y51D01*
X0Y50D02*
X7Y50D01*
X1173Y50D02*
X1180Y50D01*
X0Y49D02*
X7Y49D01*
X1173Y49D02*
X1180Y49D01*
X0Y48D02*
X7Y48D01*
X1173Y48D02*
X1180Y48D01*
X0Y47D02*
X7Y47D01*
X1173Y47D02*
X1180Y47D01*
X0Y46D02*
X7Y46D01*
X1173Y46D02*
X1180Y46D01*
X0Y45D02*
X7Y45D01*
X1173Y45D02*
X1180Y45D01*
X0Y44D02*
X7Y44D01*
X1173Y44D02*
X1180Y44D01*
X0Y43D02*
X7Y43D01*
X1173Y43D02*
X1180Y43D01*
X0Y42D02*
X7Y42D01*
X1173Y42D02*
X1180Y42D01*
X0Y41D02*
X7Y41D01*
X1173Y41D02*
X1180Y41D01*
X0Y40D02*
X7Y40D01*
X1173Y40D02*
X1180Y40D01*
X0Y39D02*
X7Y39D01*
X1173Y39D02*
X1180Y39D01*
X0Y38D02*
X7Y38D01*
X1173Y38D02*
X1180Y38D01*
X0Y37D02*
X7Y37D01*
X1173Y37D02*
X1180Y37D01*
X0Y36D02*
X7Y36D01*
X1173Y36D02*
X1180Y36D01*
X0Y35D02*
X7Y35D01*
X1173Y35D02*
X1180Y35D01*
X0Y34D02*
X7Y34D01*
X1173Y34D02*
X1180Y34D01*
X0Y33D02*
X7Y33D01*
X1173Y33D02*
X1180Y33D01*
X0Y32D02*
X7Y32D01*
X1173Y32D02*
X1180Y32D01*
X0Y31D02*
X7Y31D01*
X1173Y31D02*
X1180Y31D01*
X0Y30D02*
X7Y30D01*
X1173Y30D02*
X1180Y30D01*
X0Y29D02*
X7Y29D01*
X1173Y29D02*
X1180Y29D01*
X0Y28D02*
X7Y28D01*
X1173Y28D02*
X1180Y28D01*
X0Y27D02*
X7Y27D01*
X1173Y27D02*
X1180Y27D01*
X0Y26D02*
X7Y26D01*
X1173Y26D02*
X1180Y26D01*
X0Y25D02*
X7Y25D01*
X1173Y25D02*
X1180Y25D01*
X0Y24D02*
X7Y24D01*
X1173Y24D02*
X1180Y24D01*
X0Y23D02*
X7Y23D01*
X1173Y23D02*
X1180Y23D01*
X0Y22D02*
X7Y22D01*
X1173Y22D02*
X1180Y22D01*
X0Y21D02*
X7Y21D01*
X1173Y21D02*
X1180Y21D01*
X0Y20D02*
X7Y20D01*
X1173Y20D02*
X1180Y20D01*
X0Y19D02*
X7Y19D01*
X1173Y19D02*
X1180Y19D01*
X0Y18D02*
X7Y18D01*
X1173Y18D02*
X1180Y18D01*
X0Y17D02*
X7Y17D01*
X1173Y17D02*
X1180Y17D01*
X0Y16D02*
X7Y16D01*
X1173Y16D02*
X1180Y16D01*
X0Y15D02*
X7Y15D01*
X1173Y15D02*
X1180Y15D01*
X0Y14D02*
X7Y14D01*
X1173Y14D02*
X1180Y14D01*
X0Y13D02*
X7Y13D01*
X1173Y13D02*
X1180Y13D01*
X0Y12D02*
X7Y12D01*
X1173Y12D02*
X1180Y12D01*
X0Y11D02*
X7Y11D01*
X1173Y11D02*
X1180Y11D01*
X0Y10D02*
X7Y10D01*
X1173Y10D02*
X1180Y10D01*
X0Y9D02*
X7Y9D01*
X1173Y9D02*
X1180Y9D01*
X0Y8D02*
X1180Y8D01*
X0Y7D02*
X1180Y7D01*
X0Y6D02*
X1180Y6D01*
X0Y5D02*
X1180Y5D01*
X0Y4D02*
X1180Y4D01*
X0Y3D02*
X1180Y3D01*
X0Y2D02*
X1180Y2D01*
X0Y1D02*
X1180Y1D01*
D02*
G04 End of Silk0*
M02*