; NON-PLATED HOLES START AT T1
; THROUGH (PLATED) HOLES START AT T100
M48
INCH
T1C0.086614
T2C0.125984
T100C0.055118
T101C0.035000
T102C0.040000
T103C0.042000
T104C0.031497
%
T1
X000777Y011033
X026777Y000783
X000777Y000783
X026777Y011033
T2
X020123Y001983
X020123Y009031
T100
X022213Y007375
X018001Y007375
X022213Y003635
X018001Y003635
T101
X014847Y008101
X005128Y004829
X006123Y003626
X003499Y002247
X014353Y003667
X014846Y006387
X006127Y009383
X014846Y005387
X009128Y004829
X013353Y003667
X012349Y005389
X003499Y004806
X001727Y002247
X010127Y008184
X012349Y006389
X012353Y003667
X010127Y009383
X010123Y003626
X001727Y004806
X006127Y008184
X012847Y008101
X013847Y008101
T102
X025083Y003089
X025083Y004467
X025084Y008672
X025084Y007294
T103
X007168Y006908
X007166Y002237
X010146Y002237
X010148Y006908
T104
X002616Y008716
X002616Y007731
T00
M30
