G04 MADE WITH FRITZING*
G04 WWW.FRITZING.ORG*
G04 DOUBLE SIDED*
G04 HOLES PLATED*
G04 CONTOUR ON CENTER OF CONTOUR VECTOR*
%ASAXBY*%
%FSLAX23Y23*%
%MOIN*%
%OFA0B0*%
%SFA1.0B1.0*%
%ADD10C,0.075000*%
%ADD11C,0.062992*%
%ADD12C,0.080000*%
%ADD13C,0.082000*%
%ADD14C,0.075118*%
%ADD15R,0.062992X0.062992*%
%ADD16R,0.075000X0.075000*%
%ADD17R,0.080000X0.080000*%
%ADD18R,0.082000X0.082000*%
%ADD19C,0.024000*%
%LNCOPPER0*%
G90*
G70*
G54D10*
X513Y483D03*
X913Y483D03*
X1013Y938D03*
X613Y938D03*
X612Y363D03*
X1012Y363D03*
X613Y818D03*
X1013Y818D03*
X1235Y367D03*
X1335Y367D03*
X1435Y367D03*
X1485Y810D03*
X1385Y810D03*
X1285Y810D03*
G54D11*
X262Y773D03*
X262Y872D03*
G54D10*
X1235Y539D03*
X1235Y639D03*
X1485Y639D03*
X1485Y539D03*
X173Y225D03*
X173Y481D03*
X350Y225D03*
X350Y481D03*
G54D12*
X2508Y867D03*
X2508Y729D03*
G54D13*
X1015Y224D03*
X717Y224D03*
X1015Y691D03*
X717Y691D03*
G54D12*
X2508Y447D03*
X2508Y309D03*
G54D14*
X2221Y738D03*
X1800Y738D03*
X1800Y364D03*
X2221Y364D03*
G54D15*
X262Y773D03*
G54D16*
X1235Y539D03*
X1485Y639D03*
G54D17*
X2508Y867D03*
G54D18*
X1016Y224D03*
X1016Y691D03*
G54D17*
X2508Y447D03*
G54D19*
X173Y253D02*
X173Y452D01*
D02*
X350Y253D02*
X350Y452D01*
G04 End of Copper0*
M02*