G04 MADE WITH FRITZING*
G04 WWW.FRITZING.ORG*
G04 DOUBLE SIDED*
G04 HOLES PLATED*
G04 CONTOUR ON CENTER OF CONTOUR VECTOR*
%ASAXBY*%
%FSLAX23Y23*%
%MOIN*%
%OFA0B0*%
%SFA1.0B1.0*%
%ADD10C,0.085000*%
%ADD11C,0.072992*%
%ADD12C,0.090000*%
%ADD13C,0.092000*%
%ADD14C,0.085118*%
%ADD15C,0.135984*%
%ADD16C,0.096614*%
%ADD17R,0.072992X0.072992*%
%ADD18R,0.085000X0.085000*%
%ADD19R,0.090000X0.090000*%
%ADD20R,0.092000X0.092000*%
%LNMASK0*%
G90*
G70*
G54D10*
X513Y483D03*
X913Y483D03*
X1013Y938D03*
X613Y938D03*
X612Y363D03*
X1012Y363D03*
X613Y818D03*
X1013Y818D03*
X1235Y367D03*
X1335Y367D03*
X1435Y367D03*
X1485Y810D03*
X1385Y810D03*
X1285Y810D03*
G54D11*
X262Y773D03*
X262Y872D03*
G54D10*
X1235Y539D03*
X1235Y639D03*
X1485Y639D03*
X1485Y539D03*
X173Y225D03*
X173Y481D03*
X350Y225D03*
X350Y481D03*
G54D12*
X2508Y867D03*
X2508Y729D03*
G54D13*
X1015Y224D03*
X717Y224D03*
X1015Y691D03*
X717Y691D03*
G54D12*
X2508Y447D03*
X2508Y309D03*
G54D14*
X2221Y738D03*
X1800Y738D03*
X1800Y364D03*
X2221Y364D03*
G54D15*
X2012Y903D03*
X2012Y198D03*
G54D16*
X78Y1103D03*
X78Y78D03*
X2678Y78D03*
X2678Y1103D03*
G54D17*
X262Y773D03*
G54D18*
X1235Y539D03*
X1485Y639D03*
G54D19*
X2508Y867D03*
G54D20*
X1016Y224D03*
X1016Y691D03*
G54D19*
X2508Y447D03*
G04 End of Mask0*
M02*