; NON-PLATED HOLES START AT T1
; THROUGH (PLATED) HOLES START AT T100
M48
INCH
T1C0.086614
T100C0.035000
T101C0.038000
T102C0.042000
T103C0.040000
T104C0.031497
%
T1
X026777Y000781
X026777Y026781
X000777Y026781
X000777Y000781
T100
X017999Y003961
X018879Y015125
X021872Y015129
X020378Y020126
X023003Y003960
X003916Y012988
X026003Y004960
X014563Y012989
X018879Y019125
X007492Y008959
X013622Y016992
X017999Y006961
X020999Y006961
X023003Y006960
X020369Y016126
X017999Y004961
X017999Y007961
X002968Y008963
X003916Y016988
X023871Y019125
X020999Y003961
X010051Y007188
X017999Y005961
X026003Y006960
X014560Y004963
X020378Y019126
X012671Y016988
X020378Y018126
X026003Y002960
X020369Y015126
X023003Y002960
X007492Y007188
X002961Y016993
X020999Y007961
X021872Y019130
X002961Y012993
X017999Y009961
X020999Y008961
X004879Y012988
X023003Y008960
X020999Y009961
X023871Y015125
X013622Y012992
X017878Y019132
X020999Y002961
X014563Y016989
X023003Y007960
X026003Y008960
X022878Y015129
X004879Y016988
X002968Y004963
X010051Y008959
X017999Y002961
X020999Y005961
X023402Y013010
X020369Y017126
X020999Y004961
X023003Y005960
X026003Y007960
X012671Y012988
X023003Y004960
X022878Y019129
X014560Y008963
X026003Y005960
X017999Y008961
X023402Y014010
X017878Y015132
X026003Y003960
T101
X025076Y016108
X025076Y017108
X025076Y018108
T102
X018898Y014059
X021878Y014059
T103
X012401Y002584
X010259Y016991
X010254Y015988
X005114Y002577
X007250Y013001
X013779Y002584
X010255Y012999
X007249Y015989
X003736Y002577
X007249Y016989
X025076Y022719
X025076Y021341
X010254Y013988
X007249Y013989
X010254Y014988
X007249Y014989
T104
X005868Y023068
X008766Y023068
X011673Y022084
X002974Y022084
X014572Y023068
X005868Y022084
X014572Y022084
X011673Y023068
X008766Y022084
X002974Y023068
T00
M30
