G04 MADE WITH FRITZING*
G04 WWW.FRITZING.ORG*
G04 DOUBLE SIDED*
G04 HOLES PLATED*
G04 CONTOUR ON CENTER OF CONTOUR VECTOR*
%ASAXBY*%
%FSLAX23Y23*%
%MOIN*%
%OFA0B0*%
%SFA1.0B1.0*%
%ADD10C,0.075000*%
%ADD11C,0.082000*%
%ADD12C,0.078000*%
%ADD13C,0.074000*%
%ADD14C,0.062992*%
%ADD15C,0.080000*%
%ADD16R,0.082000X0.082000*%
%ADD17R,0.075000X0.075000*%
%ADD18R,0.078000X0.078000*%
%ADD19R,0.074000X0.074000*%
%ADD20R,0.062992X0.062992*%
%ADD21R,0.080000X0.080000*%
%ADD22C,0.024000*%
%LNCOPPER1*%
G90*
G70*
G54D10*
X1456Y496D03*
X1456Y896D03*
X297Y496D03*
X297Y896D03*
X1456Y1299D03*
X1456Y1699D03*
X296Y1299D03*
X296Y1699D03*
X1788Y1913D03*
X1788Y1513D03*
X2187Y1913D03*
X2187Y1513D03*
X2387Y1913D03*
X2387Y1513D03*
X1888Y1513D03*
X1888Y1913D03*
X2288Y1913D03*
X2288Y1513D03*
G54D11*
X1890Y1406D03*
X2188Y1406D03*
G54D10*
X2300Y896D03*
X2600Y896D03*
X2300Y796D03*
X2600Y796D03*
X2300Y696D03*
X2600Y696D03*
X2300Y596D03*
X2600Y596D03*
X2300Y496D03*
X2600Y496D03*
X2300Y396D03*
X2600Y396D03*
X2300Y296D03*
X2600Y296D03*
X1800Y996D03*
X2100Y996D03*
X1800Y896D03*
X2100Y896D03*
X1800Y796D03*
X2100Y796D03*
X1800Y696D03*
X2100Y696D03*
X1800Y596D03*
X2100Y596D03*
X1800Y496D03*
X2100Y496D03*
X1800Y396D03*
X2100Y396D03*
X1800Y296D03*
X2100Y296D03*
X2037Y1513D03*
X2037Y1613D03*
X2037Y1713D03*
X2038Y2013D03*
X2038Y1913D03*
X2038Y1813D03*
X2340Y1401D03*
X2340Y1301D03*
G54D12*
X2508Y1811D03*
X2508Y1711D03*
X2508Y1611D03*
G54D13*
X725Y1699D03*
X725Y1599D03*
X725Y1499D03*
X725Y1399D03*
X725Y1300D03*
X1026Y1300D03*
X1025Y1399D03*
X1025Y1499D03*
X1025Y1599D03*
X1026Y1699D03*
G54D10*
X1362Y1299D03*
X1362Y1699D03*
X488Y1299D03*
X488Y1699D03*
X392Y1299D03*
X392Y1699D03*
X1267Y1299D03*
X1267Y1699D03*
G54D14*
X1457Y2208D03*
X1457Y2307D03*
X1167Y2208D03*
X1167Y2307D03*
X877Y2208D03*
X877Y2307D03*
X587Y2208D03*
X587Y2307D03*
X297Y2208D03*
X297Y2307D03*
G54D10*
X1005Y719D03*
X749Y719D03*
X1005Y896D03*
X749Y896D03*
G54D15*
X1378Y258D03*
X1240Y258D03*
X511Y258D03*
X374Y258D03*
X2508Y2272D03*
X2508Y2134D03*
G54D16*
X1889Y1406D03*
G54D17*
X2300Y896D03*
X1800Y996D03*
X2340Y1401D03*
G54D18*
X2508Y1811D03*
G54D19*
X726Y1698D03*
G54D20*
X1457Y2208D03*
X1167Y2208D03*
X877Y2208D03*
X587Y2208D03*
X297Y2208D03*
G54D21*
X1378Y258D03*
X511Y258D03*
X2508Y2272D03*
G54D22*
X794Y1789D02*
X1290Y1789D01*
D02*
X1290Y1789D02*
X1344Y1722D01*
D02*
X744Y1724D02*
X794Y1789D01*
D02*
X694Y1599D02*
X553Y1599D01*
D02*
X553Y1599D02*
X504Y1675D01*
D02*
X583Y1399D02*
X407Y1675D01*
D02*
X694Y1399D02*
X583Y1399D01*
D02*
X1239Y1699D02*
X1057Y1699D01*
D02*
X994Y1499D02*
X756Y1499D01*
D02*
X1427Y896D02*
X1034Y896D01*
D02*
X2504Y996D02*
X2600Y1100D01*
D02*
X2129Y996D02*
X2504Y996D01*
D02*
X2600Y1100D02*
X2600Y2171D01*
D02*
X2600Y2171D02*
X2529Y2249D01*
D02*
X2272Y296D02*
X2129Y296D01*
D02*
X2037Y1741D02*
X2038Y1784D01*
D02*
X977Y896D02*
X778Y896D01*
D02*
X977Y719D02*
X778Y719D01*
D02*
X1457Y2182D02*
X1456Y1728D01*
D02*
X1194Y2208D02*
X1430Y2208D01*
D02*
X218Y2129D02*
X218Y1374D01*
D02*
X218Y1374D02*
X275Y1319D01*
D02*
X278Y2190D02*
X218Y2129D01*
D02*
X324Y2208D02*
X560Y2208D01*
D02*
X1788Y2109D02*
X1788Y1942D01*
D02*
X1553Y2373D02*
X1788Y2109D01*
D02*
X936Y2373D02*
X1553Y2373D01*
D02*
X895Y2327D02*
X936Y2373D01*
D02*
X1859Y1513D02*
X1816Y1513D01*
D02*
X1917Y1513D02*
X2008Y1513D01*
D02*
X1922Y1406D02*
X2037Y1406D01*
D02*
X2037Y1406D02*
X2164Y1496D01*
D02*
X1706Y719D02*
X1034Y719D01*
D02*
X1778Y778D02*
X1706Y719D01*
D02*
X2394Y1301D02*
X2447Y1351D01*
D02*
X2447Y1449D02*
X2407Y1492D01*
D02*
X2447Y1351D02*
X2447Y1449D01*
D02*
X2369Y1301D02*
X2394Y1301D01*
D02*
X2112Y1941D02*
X2058Y1993D01*
D02*
X2367Y1533D02*
X2112Y1789D01*
D02*
X2112Y1789D02*
X2112Y1941D01*
D02*
X2210Y1383D02*
X2287Y1301D01*
D02*
X2287Y1301D02*
X2312Y1301D01*
D02*
X2009Y1913D02*
X1917Y1913D01*
D02*
X2066Y1613D02*
X2187Y1613D01*
D02*
X2187Y1613D02*
X2268Y1533D01*
D02*
X2288Y1448D02*
X2319Y1420D01*
D02*
X2288Y1484D02*
X2288Y1448D01*
D02*
X2508Y1841D02*
X2508Y2103D01*
D02*
X2329Y696D02*
X2572Y696D01*
D02*
X2600Y525D02*
X2600Y567D01*
D02*
X1334Y1299D02*
X1296Y1299D01*
D02*
X506Y1277D02*
X563Y1207D01*
D02*
X1187Y1207D02*
X1248Y1277D01*
D02*
X563Y1207D02*
X1187Y1207D01*
D02*
X459Y1299D02*
X420Y1299D01*
D02*
X2324Y480D02*
X2576Y312D01*
D02*
X2250Y847D02*
X2280Y876D01*
D02*
X2150Y646D02*
X2250Y847D01*
D02*
X2120Y616D02*
X2150Y646D01*
D02*
X2150Y547D02*
X2250Y747D01*
D02*
X2250Y747D02*
X2280Y776D01*
D02*
X2120Y516D02*
X2150Y547D01*
D02*
X2076Y512D02*
X1824Y680D01*
D02*
X1378Y290D02*
X1378Y419D01*
D02*
X1378Y419D02*
X1436Y476D01*
D02*
X1771Y496D02*
X1485Y496D01*
D02*
X1583Y808D02*
X1778Y977D01*
D02*
X569Y808D02*
X1583Y808D01*
D02*
X316Y518D02*
X569Y808D01*
D02*
X317Y476D02*
X374Y415D01*
D02*
X374Y415D02*
X374Y289D01*
D02*
X2259Y1913D02*
X2216Y1913D01*
D02*
X2316Y1913D02*
X2359Y1913D01*
D02*
X2387Y1764D02*
X2438Y1711D01*
D02*
X2438Y1711D02*
X2478Y1711D01*
D02*
X2387Y1884D02*
X2387Y1764D01*
D02*
X1330Y1499D02*
X1057Y1499D01*
D02*
X1441Y1323D02*
X1330Y1499D01*
D02*
X1800Y153D02*
X2603Y153D01*
D02*
X2603Y153D02*
X2676Y229D01*
D02*
X1800Y268D02*
X1800Y153D01*
D02*
X2676Y229D02*
X2676Y826D01*
D02*
X2676Y826D02*
X2621Y877D01*
D02*
X1800Y153D02*
X1330Y153D01*
D02*
X1330Y153D02*
X1260Y235D01*
D02*
X1800Y268D02*
X1800Y153D01*
D02*
X543Y258D02*
X1209Y258D01*
D02*
X721Y896D02*
X325Y896D01*
D02*
X1663Y1084D02*
X2003Y1084D01*
D02*
X1477Y916D02*
X1663Y1084D01*
D02*
X2003Y1084D02*
X2079Y1015D01*
D02*
X439Y1883D02*
X638Y1883D01*
D02*
X638Y1883D02*
X861Y2187D01*
D02*
X314Y1722D02*
X439Y1883D01*
G04 End of Copper1*
M02*