G04 MADE WITH FRITZING*
G04 WWW.FRITZING.ORG*
G04 DOUBLE SIDED*
G04 HOLES PLATED*
G04 CONTOUR ON CENTER OF CONTOUR VECTOR*
%ASAXBY*%
%FSLAX23Y23*%
%MOIN*%
%OFA0B0*%
%SFA1.0B1.0*%
%ADD10C,0.075000*%
%ADD11C,0.082000*%
%ADD12C,0.078000*%
%ADD13C,0.074000*%
%ADD14C,0.062992*%
%ADD15C,0.080000*%
%ADD16R,0.082000X0.082000*%
%ADD17R,0.075000X0.075000*%
%ADD18R,0.078000X0.078000*%
%ADD19R,0.074000X0.074000*%
%ADD20R,0.062992X0.062992*%
%ADD21R,0.080000X0.080000*%
%ADD22C,0.024000*%
%LNCOPPER0*%
G90*
G70*
G54D10*
X1456Y496D03*
X1456Y896D03*
X297Y496D03*
X297Y896D03*
X1456Y1299D03*
X1456Y1699D03*
X296Y1299D03*
X296Y1699D03*
X1788Y1913D03*
X1788Y1513D03*
X2187Y1913D03*
X2187Y1513D03*
X2387Y1913D03*
X2387Y1513D03*
X1888Y1513D03*
X1888Y1913D03*
X2288Y1913D03*
X2288Y1513D03*
G54D11*
X1890Y1406D03*
X2188Y1406D03*
G54D10*
X2300Y896D03*
X2600Y896D03*
X2300Y796D03*
X2600Y796D03*
X2300Y696D03*
X2600Y696D03*
X2300Y596D03*
X2600Y596D03*
X2300Y496D03*
X2600Y496D03*
X2300Y396D03*
X2600Y396D03*
X2300Y296D03*
X2600Y296D03*
X1800Y996D03*
X2100Y996D03*
X1800Y896D03*
X2100Y896D03*
X1800Y796D03*
X2100Y796D03*
X1800Y696D03*
X2100Y696D03*
X1800Y596D03*
X2100Y596D03*
X1800Y496D03*
X2100Y496D03*
X1800Y396D03*
X2100Y396D03*
X1800Y296D03*
X2100Y296D03*
X2037Y1513D03*
X2037Y1613D03*
X2037Y1713D03*
X2038Y2013D03*
X2038Y1913D03*
X2038Y1813D03*
X2340Y1401D03*
X2340Y1301D03*
G54D12*
X2508Y1811D03*
X2508Y1711D03*
X2508Y1611D03*
G54D13*
X725Y1699D03*
X725Y1599D03*
X725Y1499D03*
X725Y1399D03*
X725Y1300D03*
X1026Y1300D03*
X1025Y1399D03*
X1025Y1499D03*
X1025Y1599D03*
X1026Y1699D03*
X725Y1699D03*
X725Y1599D03*
X725Y1499D03*
X725Y1399D03*
X725Y1300D03*
X1026Y1300D03*
X1025Y1399D03*
X1025Y1499D03*
X1025Y1599D03*
X1026Y1699D03*
G54D10*
X1362Y1299D03*
X1362Y1699D03*
X488Y1299D03*
X488Y1699D03*
X392Y1299D03*
X392Y1699D03*
X1267Y1299D03*
X1267Y1699D03*
G54D14*
X1457Y2208D03*
X1457Y2307D03*
X1167Y2208D03*
X1167Y2307D03*
X877Y2208D03*
X877Y2307D03*
X587Y2208D03*
X587Y2307D03*
X297Y2208D03*
X297Y2307D03*
G54D10*
X1005Y719D03*
X749Y719D03*
X1005Y896D03*
X749Y896D03*
G54D15*
X1378Y258D03*
X1240Y258D03*
X511Y258D03*
X374Y258D03*
X2508Y2272D03*
X2508Y2134D03*
G54D16*
X1889Y1406D03*
G54D17*
X2300Y896D03*
X1800Y996D03*
X2340Y1401D03*
G54D18*
X2508Y1811D03*
G54D19*
X726Y1698D03*
G54D20*
X1457Y2208D03*
X1167Y2208D03*
X877Y2208D03*
X587Y2208D03*
X297Y2208D03*
G54D21*
X1378Y258D03*
X511Y258D03*
X2508Y2272D03*
G54D22*
X994Y1499D02*
X756Y1499D01*
D02*
X977Y896D02*
X778Y896D01*
D02*
X977Y719D02*
X778Y719D01*
D02*
X2176Y696D02*
X2176Y928D01*
D02*
X2176Y928D02*
X2121Y977D01*
D02*
X2129Y696D02*
X2176Y696D01*
D02*
X2176Y365D02*
X2176Y696D01*
D02*
X2176Y696D02*
X2129Y696D01*
D02*
X2121Y315D02*
X2176Y365D01*
D02*
X1989Y221D02*
X1821Y377D01*
D02*
X2143Y221D02*
X1989Y221D01*
D02*
X2225Y295D02*
X2143Y221D01*
D02*
X2225Y527D02*
X2225Y295D01*
D02*
X2279Y577D02*
X2225Y527D01*
D02*
X2443Y1096D02*
X2443Y721D01*
D02*
X2443Y721D02*
X2322Y615D01*
D02*
X2114Y1185D02*
X2351Y1185D01*
D02*
X2351Y1185D02*
X2443Y1096D01*
D02*
X1913Y1383D02*
X2114Y1185D01*
D02*
X2486Y1138D02*
X2486Y914D01*
D02*
X2393Y1230D02*
X2486Y1138D01*
D02*
X2486Y914D02*
X2580Y817D01*
D02*
X2037Y1406D02*
X2218Y1230D01*
D02*
X2218Y1230D02*
X2393Y1230D01*
D02*
X2037Y1484D02*
X2037Y1406D01*
D02*
X1872Y459D02*
X1872Y718D01*
D02*
X1872Y718D02*
X1819Y775D01*
D02*
X1822Y415D02*
X1872Y459D01*
D02*
X1713Y596D02*
X1713Y378D01*
D02*
X1713Y378D02*
X1779Y316D01*
D02*
X1771Y596D02*
X1713Y596D01*
D02*
X1713Y896D02*
X1713Y596D01*
D02*
X1713Y596D02*
X1771Y596D01*
D02*
X1771Y896D02*
X1713Y896D01*
D02*
X1715Y896D02*
X1771Y896D01*
D02*
X1472Y1275D02*
X1715Y896D01*
D02*
X2022Y671D02*
X2022Y796D01*
D02*
X2022Y796D02*
X2071Y796D01*
D02*
X2079Y616D02*
X2022Y671D01*
D02*
X1876Y1084D02*
X1876Y799D01*
D02*
X1931Y560D02*
X2079Y416D01*
D02*
X1931Y742D02*
X1931Y560D01*
D02*
X1876Y799D02*
X1931Y742D01*
D02*
X1583Y1359D02*
X1876Y1084D01*
D02*
X1583Y1687D02*
X1583Y1359D01*
D02*
X1254Y2057D02*
X1583Y1687D01*
D02*
X1254Y2256D02*
X1254Y2057D01*
D02*
X1209Y2307D02*
X1254Y2256D01*
D02*
X1194Y2307D02*
X1209Y2307D01*
D02*
X2446Y261D02*
X2446Y396D01*
D02*
X2446Y396D02*
X2572Y396D01*
D02*
X2330Y154D02*
X2446Y261D01*
D02*
X1800Y154D02*
X2330Y154D01*
D02*
X1656Y284D02*
X1800Y154D01*
D02*
X1378Y1275D02*
X1656Y839D01*
D02*
X1656Y839D02*
X1656Y284D01*
D02*
X2329Y396D02*
X2572Y396D01*
D02*
X1718Y1424D02*
X1718Y2100D01*
D02*
X1718Y2100D02*
X1533Y2307D01*
D02*
X1533Y2307D02*
X1484Y2307D01*
D02*
X2008Y1141D02*
X1718Y1424D01*
D02*
X2400Y1056D02*
X2311Y1141D01*
D02*
X2311Y1141D02*
X2008Y1141D01*
D02*
X2400Y838D02*
X2400Y1056D01*
D02*
X2354Y796D02*
X2400Y838D01*
D02*
X2329Y796D02*
X2354Y796D01*
D02*
X1933Y1089D02*
X1628Y1384D01*
D02*
X1628Y1384D02*
X1628Y1748D01*
D02*
X1933Y889D02*
X1933Y1089D01*
D02*
X1312Y2279D02*
X1228Y2373D01*
D02*
X1025Y2298D02*
X1025Y2187D01*
D02*
X966Y2125D02*
X524Y2125D01*
D02*
X1025Y2187D02*
X966Y2125D01*
D02*
X1628Y1748D02*
X1312Y2101D01*
D02*
X1312Y2101D02*
X1312Y2279D01*
D02*
X1228Y2373D02*
X1091Y2373D01*
D02*
X1091Y2373D02*
X1025Y2298D01*
D02*
X2022Y796D02*
X1933Y889D01*
D02*
X2071Y796D02*
X2022Y796D01*
D02*
X524Y2125D02*
X361Y2307D01*
D02*
X361Y2307D02*
X324Y2307D01*
D02*
X1672Y1406D02*
X1990Y1096D01*
D02*
X1672Y1807D02*
X1672Y1406D01*
D02*
X1990Y1096D02*
X1990Y1006D01*
D02*
X1990Y1006D02*
X2080Y916D01*
D02*
X708Y2431D02*
X1251Y2431D01*
D02*
X1251Y2431D02*
X1369Y2301D01*
D02*
X1369Y2301D02*
X1369Y2146D01*
D02*
X1369Y2146D02*
X1672Y1807D01*
D02*
X606Y2326D02*
X708Y2431D01*
D02*
X2600Y1618D02*
X2529Y1690D01*
D02*
X2600Y925D02*
X2600Y1618D01*
D02*
X694Y1499D02*
X425Y1499D01*
D02*
X425Y1499D02*
X312Y1675D01*
D02*
X2112Y2116D02*
X2112Y1881D01*
D02*
X2477Y2272D02*
X2296Y2272D01*
D02*
X2112Y1881D02*
X2059Y1832D01*
D02*
X2296Y2272D02*
X2112Y2116D01*
G04 End of Copper0*
M02*