G04 MADE WITH FRITZING*
G04 WWW.FRITZING.ORG*
G04 DOUBLE SIDED*
G04 HOLES PLATED*
G04 CONTOUR ON CENTER OF CONTOUR VECTOR*
%ASAXBY*%
%FSLAX23Y23*%
%MOIN*%
%OFA0B0*%
%SFA1.0B1.0*%
%ADD10C,0.085000*%
%ADD11C,0.092000*%
%ADD12C,0.088000*%
%ADD13C,0.084000*%
%ADD14C,0.072992*%
%ADD15C,0.090000*%
%ADD16C,0.096614*%
%ADD17R,0.092000X0.092000*%
%ADD18R,0.085000X0.085000*%
%ADD19R,0.088000X0.088000*%
%ADD20R,0.084000X0.084000*%
%ADD21R,0.072992X0.072992*%
%ADD22R,0.090000X0.090000*%
%LNMASK1*%
G90*
G70*
G54D10*
X1456Y496D03*
X1456Y896D03*
X297Y496D03*
X297Y896D03*
X1456Y1299D03*
X1456Y1699D03*
X296Y1299D03*
X296Y1699D03*
X1788Y1913D03*
X1788Y1513D03*
X2187Y1913D03*
X2187Y1513D03*
X2387Y1913D03*
X2387Y1513D03*
X1888Y1513D03*
X1888Y1913D03*
X2288Y1913D03*
X2288Y1513D03*
G54D11*
X1890Y1406D03*
X2188Y1406D03*
G54D10*
X2300Y896D03*
X2600Y896D03*
X2300Y796D03*
X2600Y796D03*
X2300Y696D03*
X2600Y696D03*
X2300Y596D03*
X2600Y596D03*
X2300Y496D03*
X2600Y496D03*
X2300Y396D03*
X2600Y396D03*
X2300Y296D03*
X2600Y296D03*
X1800Y996D03*
X2100Y996D03*
X1800Y896D03*
X2100Y896D03*
X1800Y796D03*
X2100Y796D03*
X1800Y696D03*
X2100Y696D03*
X1800Y596D03*
X2100Y596D03*
X1800Y496D03*
X2100Y496D03*
X1800Y396D03*
X2100Y396D03*
X1800Y296D03*
X2100Y296D03*
X2037Y1513D03*
X2037Y1613D03*
X2037Y1713D03*
X2038Y2013D03*
X2038Y1913D03*
X2038Y1813D03*
X2340Y1401D03*
X2340Y1301D03*
G54D12*
X2508Y1811D03*
X2508Y1711D03*
X2508Y1611D03*
G54D13*
X725Y1699D03*
X725Y1599D03*
X725Y1499D03*
X725Y1399D03*
X725Y1300D03*
X1026Y1300D03*
X1025Y1399D03*
X1025Y1499D03*
X1025Y1599D03*
X1026Y1699D03*
G54D10*
X1362Y1299D03*
X1362Y1699D03*
X488Y1299D03*
X488Y1699D03*
X392Y1299D03*
X392Y1699D03*
X1267Y1299D03*
X1267Y1699D03*
G54D14*
X1457Y2208D03*
X1457Y2307D03*
X1167Y2208D03*
X1167Y2307D03*
X877Y2208D03*
X877Y2307D03*
X587Y2208D03*
X587Y2307D03*
X297Y2208D03*
X297Y2307D03*
G54D10*
X1005Y719D03*
X749Y719D03*
X1005Y896D03*
X749Y896D03*
G54D15*
X1378Y258D03*
X1240Y258D03*
X511Y258D03*
X374Y258D03*
X2508Y2272D03*
X2508Y2134D03*
G54D16*
X78Y2678D03*
X2678Y2678D03*
X2678Y78D03*
X78Y78D03*
G54D17*
X1889Y1406D03*
G54D18*
X2300Y896D03*
X1800Y996D03*
X2340Y1401D03*
G54D19*
X2508Y1811D03*
G54D20*
X726Y1698D03*
G54D21*
X1457Y2208D03*
X1167Y2208D03*
X877Y2208D03*
X587Y2208D03*
X297Y2208D03*
G54D22*
X1378Y258D03*
X511Y258D03*
X2508Y2272D03*
G04 End of Mask1*
M02*