G04 MADE WITH FRITZING*
G04 WWW.FRITZING.ORG*
G04 DOUBLE SIDED*
G04 HOLES PLATED*
G04 CONTOUR ON CENTER OF CONTOUR VECTOR*
%ASAXBY*%
%FSLAX23Y23*%
%MOIN*%
%OFA0B0*%
%SFA1.0B1.0*%
%ADD10R,2.755910X2.755910X2.739910X2.739910*%
%ADD11C,0.008000*%
%ADD12R,0.001000X0.001000*%
%LNSILK0*%
G90*
G70*
G54D11*
X4Y2752D02*
X2752Y2752D01*
X2752Y4D01*
X4Y4D01*
X4Y2752D01*
D02*
G36*
X2080Y2687D02*
X2080Y2680D01*
X2082Y2680D01*
X2082Y2672D01*
X2084Y2672D01*
X2084Y2664D01*
X2085Y2664D01*
X2085Y2656D01*
X2080Y2656D01*
X2080Y2659D01*
X2079Y2659D01*
X2079Y2662D01*
X2077Y2662D01*
X2077Y2675D01*
X2076Y2675D01*
X2076Y2687D01*
X2080Y2687D01*
G37*
D02*
G36*
X2036Y2680D02*
X2036Y2677D01*
X2038Y2677D01*
X2038Y2674D01*
X2039Y2674D01*
X2039Y2670D01*
X2041Y2670D01*
X2041Y2665D01*
X2043Y2665D01*
X2043Y2661D01*
X2044Y2661D01*
X2044Y2657D01*
X2046Y2657D01*
X2046Y2654D01*
X2048Y2654D01*
X2048Y2649D01*
X2049Y2649D01*
X2049Y2646D01*
X2048Y2646D01*
X2048Y2644D01*
X2044Y2644D01*
X2044Y2646D01*
X2043Y2646D01*
X2043Y2651D01*
X2041Y2651D01*
X2041Y2654D01*
X2039Y2654D01*
X2039Y2657D01*
X2038Y2657D01*
X2038Y2661D01*
X2036Y2661D01*
X2036Y2665D01*
X2035Y2665D01*
X2035Y2672D01*
X2033Y2672D01*
X2033Y2675D01*
X2031Y2675D01*
X2031Y2680D01*
X2036Y2680D01*
G37*
D02*
G36*
X1984Y2652D02*
X1984Y2651D01*
X1985Y2651D01*
X1985Y2649D01*
X1987Y2649D01*
X1987Y2646D01*
X1989Y2646D01*
X1989Y2644D01*
X1990Y2644D01*
X1990Y2642D01*
X1995Y2642D01*
X1995Y2641D01*
X1997Y2641D01*
X1997Y2639D01*
X1998Y2639D01*
X1998Y2638D01*
X2002Y2638D01*
X2002Y2636D01*
X2005Y2636D01*
X2005Y2634D01*
X2007Y2634D01*
X2007Y2633D01*
X2010Y2633D01*
X2010Y2631D01*
X2013Y2631D01*
X2013Y2629D01*
X2015Y2629D01*
X2015Y2626D01*
X2010Y2626D01*
X2010Y2628D01*
X2007Y2628D01*
X2007Y2629D01*
X2003Y2629D01*
X2003Y2631D01*
X2002Y2631D01*
X2002Y2633D01*
X1998Y2633D01*
X1998Y2634D01*
X1995Y2634D01*
X1995Y2636D01*
X1992Y2636D01*
X1992Y2639D01*
X1987Y2639D01*
X1987Y2641D01*
X1985Y2641D01*
X1985Y2642D01*
X1984Y2642D01*
X1984Y2644D01*
X1980Y2644D01*
X1980Y2646D01*
X1979Y2646D01*
X1979Y2647D01*
X1977Y2647D01*
X1977Y2652D01*
X1984Y2652D01*
G37*
D02*
G36*
X2246Y2662D02*
X2246Y2661D01*
X2253Y2661D01*
X2253Y2659D01*
X2256Y2659D01*
X2256Y2657D01*
X2258Y2657D01*
X2258Y2654D01*
X2238Y2654D01*
X2238Y2652D01*
X2235Y2652D01*
X2235Y2651D01*
X2233Y2651D01*
X2233Y2649D01*
X2231Y2649D01*
X2231Y2647D01*
X2230Y2647D01*
X2230Y2644D01*
X2228Y2644D01*
X2228Y2641D01*
X2226Y2641D01*
X2226Y2634D01*
X2225Y2634D01*
X2225Y2631D01*
X2226Y2631D01*
X2226Y2623D01*
X2228Y2623D01*
X2228Y2621D01*
X2236Y2621D01*
X2236Y2619D01*
X2218Y2619D01*
X2218Y2638D01*
X2220Y2638D01*
X2220Y2644D01*
X2222Y2644D01*
X2222Y2647D01*
X2223Y2647D01*
X2223Y2651D01*
X2225Y2651D01*
X2225Y2652D01*
X2226Y2652D01*
X2226Y2654D01*
X2228Y2654D01*
X2228Y2656D01*
X2230Y2656D01*
X2230Y2659D01*
X2235Y2659D01*
X2235Y2661D01*
X2240Y2661D01*
X2240Y2662D01*
X2246Y2662D01*
G37*
D02*
G36*
X2259Y2654D02*
X2259Y2652D01*
X2261Y2652D01*
X2261Y2651D01*
X2263Y2651D01*
X2263Y2649D01*
X2264Y2649D01*
X2264Y2646D01*
X2258Y2646D01*
X2258Y2647D01*
X2256Y2647D01*
X2256Y2651D01*
X2254Y2651D01*
X2254Y2652D01*
X2249Y2652D01*
X2249Y2654D01*
X2259Y2654D01*
G37*
D02*
G36*
X2292Y2649D02*
X2292Y2647D01*
X2294Y2647D01*
X2294Y2646D01*
X2271Y2646D01*
X2271Y2647D01*
X2279Y2647D01*
X2279Y2649D01*
X2292Y2649D01*
G37*
D02*
G36*
X2295Y2646D02*
X2295Y2644D01*
X2259Y2644D01*
X2259Y2646D01*
X2295Y2646D01*
G37*
D02*
G36*
X2295Y2646D02*
X2295Y2644D01*
X2259Y2644D01*
X2259Y2646D01*
X2295Y2646D01*
G37*
D02*
G36*
X2297Y2644D02*
X2297Y2642D01*
X2299Y2642D01*
X2299Y2641D01*
X2277Y2641D01*
X2277Y2639D01*
X2269Y2639D01*
X2269Y2638D01*
X2266Y2638D01*
X2266Y2636D01*
X2264Y2636D01*
X2264Y2638D01*
X2263Y2638D01*
X2263Y2639D01*
X2261Y2639D01*
X2261Y2642D01*
X2259Y2642D01*
X2259Y2644D01*
X2297Y2644D01*
G37*
D02*
G36*
X2302Y2641D02*
X2302Y2638D01*
X2305Y2638D01*
X2305Y2634D01*
X2307Y2634D01*
X2307Y2631D01*
X2308Y2631D01*
X2308Y2621D01*
X2307Y2621D01*
X2307Y2618D01*
X2305Y2618D01*
X2305Y2616D01*
X2304Y2616D01*
X2304Y2615D01*
X2302Y2615D01*
X2302Y2611D01*
X2300Y2611D01*
X2300Y2610D01*
X2299Y2610D01*
X2299Y2608D01*
X2297Y2608D01*
X2297Y2606D01*
X2295Y2606D01*
X2295Y2605D01*
X2292Y2605D01*
X2292Y2603D01*
X2290Y2603D01*
X2290Y2601D01*
X2287Y2601D01*
X2287Y2600D01*
X2286Y2600D01*
X2286Y2597D01*
X2282Y2597D01*
X2282Y2595D01*
X2276Y2595D01*
X2276Y2593D01*
X2274Y2593D01*
X2274Y2592D01*
X2258Y2592D01*
X2258Y2593D01*
X2261Y2593D01*
X2261Y2595D01*
X2266Y2595D01*
X2266Y2597D01*
X2269Y2597D01*
X2269Y2598D01*
X2272Y2598D01*
X2272Y2601D01*
X2277Y2601D01*
X2277Y2603D01*
X2281Y2603D01*
X2281Y2605D01*
X2282Y2605D01*
X2282Y2606D01*
X2286Y2606D01*
X2286Y2608D01*
X2287Y2608D01*
X2287Y2610D01*
X2290Y2610D01*
X2290Y2611D01*
X2292Y2611D01*
X2292Y2615D01*
X2294Y2615D01*
X2294Y2616D01*
X2295Y2616D01*
X2295Y2618D01*
X2297Y2618D01*
X2297Y2619D01*
X2299Y2619D01*
X2299Y2621D01*
X2300Y2621D01*
X2300Y2631D01*
X2299Y2631D01*
X2299Y2633D01*
X2297Y2633D01*
X2297Y2634D01*
X2295Y2634D01*
X2295Y2636D01*
X2294Y2636D01*
X2294Y2638D01*
X2290Y2638D01*
X2290Y2639D01*
X2287Y2639D01*
X2287Y2641D01*
X2302Y2641D01*
G37*
D02*
G36*
X2203Y2634D02*
X2203Y2633D01*
X2205Y2633D01*
X2205Y2629D01*
X2207Y2629D01*
X2207Y2628D01*
X2208Y2628D01*
X2208Y2626D01*
X2199Y2626D01*
X2199Y2624D01*
X2190Y2624D01*
X2190Y2623D01*
X2189Y2623D01*
X2189Y2621D01*
X2185Y2621D01*
X2185Y2619D01*
X2187Y2619D01*
X2187Y2616D01*
X2174Y2616D01*
X2174Y2618D01*
X2171Y2618D01*
X2171Y2624D01*
X2172Y2624D01*
X2172Y2628D01*
X2182Y2628D01*
X2182Y2629D01*
X2185Y2629D01*
X2185Y2631D01*
X2190Y2631D01*
X2190Y2633D01*
X2197Y2633D01*
X2197Y2634D01*
X2203Y2634D01*
G37*
D02*
G36*
X2208Y2626D02*
X2208Y2623D01*
X2210Y2623D01*
X2210Y2621D01*
X2215Y2621D01*
X2215Y2619D01*
X2203Y2619D01*
X2203Y2621D01*
X2202Y2621D01*
X2202Y2623D01*
X2200Y2623D01*
X2200Y2626D01*
X2208Y2626D01*
G37*
D02*
G36*
X2259Y2619D02*
X2259Y2618D01*
X2202Y2618D01*
X2202Y2619D01*
X2259Y2619D01*
G37*
D02*
G36*
X2259Y2619D02*
X2259Y2618D01*
X2202Y2618D01*
X2202Y2619D01*
X2259Y2619D01*
G37*
D02*
G36*
X2259Y2618D02*
X2259Y2616D01*
X2197Y2616D01*
X2197Y2618D01*
X2259Y2618D01*
G37*
D02*
G36*
X2258Y2616D02*
X2258Y2615D01*
X2176Y2615D01*
X2176Y2616D01*
X2258Y2616D01*
G37*
D02*
G36*
X2258Y2616D02*
X2258Y2615D01*
X2176Y2615D01*
X2176Y2616D01*
X2258Y2616D01*
G37*
D02*
G36*
X2241Y2615D02*
X2241Y2613D01*
X2236Y2613D01*
X2236Y2611D01*
X2220Y2611D01*
X2220Y2610D01*
X2215Y2610D01*
X2215Y2608D01*
X2199Y2608D01*
X2199Y2606D01*
X2179Y2606D01*
X2179Y2608D01*
X2181Y2608D01*
X2181Y2610D01*
X2177Y2610D01*
X2177Y2611D01*
X2179Y2611D01*
X2179Y2613D01*
X2177Y2613D01*
X2177Y2615D01*
X2241Y2615D01*
G37*
D02*
G36*
X2236Y2611D02*
X2236Y2606D01*
X2238Y2606D01*
X2238Y2605D01*
X2240Y2605D01*
X2240Y2603D01*
X2241Y2603D01*
X2241Y2601D01*
X2243Y2601D01*
X2243Y2598D01*
X2244Y2598D01*
X2244Y2597D01*
X2248Y2597D01*
X2248Y2595D01*
X2249Y2595D01*
X2249Y2593D01*
X2253Y2593D01*
X2253Y2592D01*
X2238Y2592D01*
X2238Y2593D01*
X2236Y2593D01*
X2236Y2595D01*
X2235Y2595D01*
X2235Y2597D01*
X2233Y2597D01*
X2233Y2600D01*
X2231Y2600D01*
X2231Y2601D01*
X2230Y2601D01*
X2230Y2605D01*
X2228Y2605D01*
X2228Y2606D01*
X2226Y2606D01*
X2226Y2608D01*
X2225Y2608D01*
X2225Y2610D01*
X2222Y2610D01*
X2222Y2611D01*
X2236Y2611D01*
G37*
D02*
G36*
X2215Y2608D02*
X2215Y2606D01*
X2200Y2606D01*
X2200Y2608D01*
X2215Y2608D01*
G37*
D02*
G36*
X2213Y2606D02*
X2213Y2605D01*
X2179Y2605D01*
X2179Y2606D01*
X2213Y2606D01*
G37*
D02*
G36*
X2213Y2606D02*
X2213Y2605D01*
X2179Y2605D01*
X2179Y2606D01*
X2213Y2606D01*
G37*
D02*
G36*
X2212Y2605D02*
X2212Y2601D01*
X2210Y2601D01*
X2210Y2600D01*
X2208Y2600D01*
X2208Y2598D01*
X2200Y2598D01*
X2200Y2597D01*
X2195Y2597D01*
X2195Y2595D01*
X2192Y2595D01*
X2192Y2593D01*
X2184Y2593D01*
X2184Y2595D01*
X2181Y2595D01*
X2181Y2597D01*
X2179Y2597D01*
X2179Y2598D01*
X2177Y2598D01*
X2177Y2601D01*
X2179Y2601D01*
X2179Y2605D01*
X2212Y2605D01*
G37*
D02*
G36*
X2271Y2592D02*
X2271Y2590D01*
X2240Y2590D01*
X2240Y2592D01*
X2271Y2592D01*
G37*
D02*
G36*
X2271Y2592D02*
X2271Y2590D01*
X2240Y2590D01*
X2240Y2592D01*
X2271Y2592D01*
G37*
D02*
G36*
X2267Y2590D02*
X2267Y2588D01*
X2263Y2588D01*
X2263Y2587D01*
X2259Y2587D01*
X2259Y2585D01*
X2246Y2585D01*
X2246Y2587D01*
X2243Y2587D01*
X2243Y2588D01*
X2241Y2588D01*
X2241Y2590D01*
X2267Y2590D01*
G37*
D02*
G36*
X2405Y2641D02*
X2405Y2636D01*
X2404Y2636D01*
X2404Y2634D01*
X2402Y2634D01*
X2402Y2633D01*
X2400Y2633D01*
X2400Y2629D01*
X2399Y2629D01*
X2399Y2628D01*
X2397Y2628D01*
X2397Y2621D01*
X2400Y2621D01*
X2400Y2619D01*
X2412Y2619D01*
X2412Y2618D01*
X2415Y2618D01*
X2415Y2616D01*
X2417Y2616D01*
X2417Y2615D01*
X2418Y2615D01*
X2418Y2611D01*
X2402Y2611D01*
X2402Y2608D01*
X2404Y2608D01*
X2404Y2606D01*
X2387Y2606D01*
X2387Y2618D01*
X2389Y2618D01*
X2389Y2628D01*
X2390Y2628D01*
X2390Y2631D01*
X2392Y2631D01*
X2392Y2634D01*
X2394Y2634D01*
X2394Y2636D01*
X2395Y2636D01*
X2395Y2638D01*
X2397Y2638D01*
X2397Y2639D01*
X2400Y2639D01*
X2400Y2641D01*
X2405Y2641D01*
G37*
D02*
G36*
X2420Y2611D02*
X2420Y2610D01*
X2422Y2610D01*
X2422Y2606D01*
X2410Y2606D01*
X2410Y2608D01*
X2412Y2608D01*
X2412Y2611D01*
X2420Y2611D01*
G37*
D02*
G36*
X2420Y2606D02*
X2420Y2605D01*
X2387Y2605D01*
X2387Y2606D01*
X2420Y2606D01*
G37*
D02*
G36*
X2420Y2606D02*
X2420Y2605D01*
X2387Y2605D01*
X2387Y2606D01*
X2420Y2606D01*
G37*
D02*
G36*
X2420Y2605D02*
X2420Y2600D01*
X2418Y2600D01*
X2418Y2598D01*
X2397Y2598D01*
X2397Y2597D01*
X2386Y2597D01*
X2386Y2605D01*
X2420Y2605D01*
G37*
D02*
G36*
X2417Y2598D02*
X2417Y2597D01*
X2404Y2597D01*
X2404Y2598D01*
X2417Y2598D01*
G37*
D02*
G36*
X2402Y2598D02*
X2402Y2597D01*
X2399Y2597D01*
X2399Y2598D01*
X2402Y2598D01*
G37*
D02*
G36*
X2399Y2597D02*
X2399Y2593D01*
X2400Y2593D01*
X2400Y2592D01*
X2402Y2592D01*
X2402Y2588D01*
X2404Y2588D01*
X2404Y2585D01*
X2407Y2585D01*
X2407Y2583D01*
X2409Y2583D01*
X2409Y2574D01*
X2410Y2574D01*
X2410Y2572D01*
X2409Y2572D01*
X2409Y2570D01*
X2407Y2570D01*
X2407Y2567D01*
X2405Y2567D01*
X2405Y2565D01*
X2399Y2565D01*
X2399Y2574D01*
X2400Y2574D01*
X2400Y2578D01*
X2399Y2578D01*
X2399Y2582D01*
X2397Y2582D01*
X2397Y2583D01*
X2395Y2583D01*
X2395Y2585D01*
X2392Y2585D01*
X2392Y2588D01*
X2390Y2588D01*
X2390Y2590D01*
X2389Y2590D01*
X2389Y2593D01*
X2387Y2593D01*
X2387Y2595D01*
X2386Y2595D01*
X2386Y2597D01*
X2399Y2597D01*
G37*
D02*
G36*
X2486Y2636D02*
X2486Y2631D01*
X2484Y2631D01*
X2484Y2626D01*
X2482Y2626D01*
X2482Y2623D01*
X2481Y2623D01*
X2481Y2619D01*
X2479Y2619D01*
X2479Y2618D01*
X2477Y2618D01*
X2477Y2615D01*
X2476Y2615D01*
X2476Y2608D01*
X2474Y2608D01*
X2474Y2606D01*
X2473Y2606D01*
X2473Y2601D01*
X2466Y2601D01*
X2466Y2606D01*
X2468Y2606D01*
X2468Y2610D01*
X2469Y2610D01*
X2469Y2615D01*
X2471Y2615D01*
X2471Y2618D01*
X2473Y2618D01*
X2473Y2619D01*
X2474Y2619D01*
X2474Y2624D01*
X2476Y2624D01*
X2476Y2629D01*
X2477Y2629D01*
X2477Y2633D01*
X2479Y2633D01*
X2479Y2634D01*
X2481Y2634D01*
X2481Y2636D01*
X2486Y2636D01*
G37*
D02*
G36*
X1954Y2605D02*
X1954Y2603D01*
X1961Y2603D01*
X1961Y2601D01*
X1964Y2601D01*
X1964Y2600D01*
X1971Y2600D01*
X1971Y2598D01*
X1977Y2598D01*
X1977Y2597D01*
X1985Y2597D01*
X1985Y2595D01*
X1990Y2595D01*
X1990Y2593D01*
X1994Y2593D01*
X1994Y2590D01*
X1992Y2590D01*
X1992Y2588D01*
X1984Y2588D01*
X1984Y2590D01*
X1975Y2590D01*
X1975Y2592D01*
X1971Y2592D01*
X1971Y2593D01*
X1959Y2593D01*
X1959Y2595D01*
X1956Y2595D01*
X1956Y2597D01*
X1949Y2597D01*
X1949Y2598D01*
X1946Y2598D01*
X1946Y2600D01*
X1944Y2600D01*
X1944Y2603D01*
X1946Y2603D01*
X1946Y2605D01*
X1954Y2605D01*
G37*
D02*
G36*
X2523Y2580D02*
X2523Y2578D01*
X2525Y2578D01*
X2525Y2577D01*
X2523Y2577D01*
X2523Y2575D01*
X2518Y2575D01*
X2518Y2574D01*
X2515Y2574D01*
X2515Y2572D01*
X2514Y2572D01*
X2514Y2570D01*
X2510Y2570D01*
X2510Y2569D01*
X2505Y2569D01*
X2505Y2567D01*
X2500Y2567D01*
X2500Y2565D01*
X2495Y2565D01*
X2495Y2570D01*
X2499Y2570D01*
X2499Y2572D01*
X2502Y2572D01*
X2502Y2574D01*
X2505Y2574D01*
X2505Y2575D01*
X2509Y2575D01*
X2509Y2577D01*
X2515Y2577D01*
X2515Y2578D01*
X2518Y2578D01*
X2518Y2580D01*
X2523Y2580D01*
G37*
D02*
G36*
X1984Y2564D02*
X1984Y2562D01*
X1990Y2562D01*
X1990Y2559D01*
X1992Y2559D01*
X1992Y2557D01*
X1990Y2557D01*
X1990Y2556D01*
X1972Y2556D01*
X1972Y2554D01*
X1967Y2554D01*
X1967Y2552D01*
X1957Y2552D01*
X1957Y2557D01*
X1959Y2557D01*
X1959Y2559D01*
X1967Y2559D01*
X1967Y2560D01*
X1969Y2560D01*
X1969Y2562D01*
X1975Y2562D01*
X1975Y2564D01*
X1984Y2564D01*
G37*
D02*
G36*
X2241Y2695D02*
X2241Y2693D01*
X2263Y2693D01*
X2263Y2692D01*
X2271Y2692D01*
X2271Y2690D01*
X2277Y2690D01*
X2277Y2688D01*
X2225Y2688D01*
X2225Y2687D01*
X2220Y2687D01*
X2220Y2685D01*
X2210Y2685D01*
X2210Y2683D01*
X2203Y2683D01*
X2203Y2682D01*
X2199Y2682D01*
X2199Y2680D01*
X2195Y2680D01*
X2195Y2679D01*
X2192Y2679D01*
X2192Y2677D01*
X2189Y2677D01*
X2189Y2675D01*
X2184Y2675D01*
X2184Y2674D01*
X2181Y2674D01*
X2181Y2672D01*
X2179Y2672D01*
X2179Y2670D01*
X2176Y2670D01*
X2176Y2669D01*
X2174Y2669D01*
X2174Y2667D01*
X2172Y2667D01*
X2172Y2665D01*
X2171Y2665D01*
X2171Y2664D01*
X2169Y2664D01*
X2169Y2661D01*
X2167Y2661D01*
X2167Y2659D01*
X2164Y2659D01*
X2164Y2656D01*
X2162Y2656D01*
X2162Y2654D01*
X2161Y2654D01*
X2161Y2652D01*
X2159Y2652D01*
X2159Y2649D01*
X2158Y2649D01*
X2158Y2647D01*
X2156Y2647D01*
X2156Y2646D01*
X2154Y2646D01*
X2154Y2641D01*
X2153Y2641D01*
X2153Y2633D01*
X2151Y2633D01*
X2151Y2628D01*
X2153Y2628D01*
X2153Y2624D01*
X2151Y2624D01*
X2151Y2621D01*
X2153Y2621D01*
X2153Y2616D01*
X2154Y2616D01*
X2154Y2613D01*
X2156Y2613D01*
X2156Y2610D01*
X2158Y2610D01*
X2158Y2606D01*
X2159Y2606D01*
X2159Y2605D01*
X2161Y2605D01*
X2161Y2601D01*
X2162Y2601D01*
X2162Y2598D01*
X2164Y2598D01*
X2164Y2597D01*
X2166Y2597D01*
X2166Y2595D01*
X2167Y2595D01*
X2167Y2593D01*
X2171Y2593D01*
X2171Y2592D01*
X2172Y2592D01*
X2172Y2583D01*
X2171Y2583D01*
X2171Y2580D01*
X2169Y2580D01*
X2169Y2577D01*
X2167Y2577D01*
X2167Y2575D01*
X2169Y2575D01*
X2169Y2574D01*
X2158Y2574D01*
X2158Y2575D01*
X2159Y2575D01*
X2159Y2577D01*
X2161Y2577D01*
X2161Y2578D01*
X2162Y2578D01*
X2162Y2583D01*
X2164Y2583D01*
X2164Y2587D01*
X2162Y2587D01*
X2162Y2588D01*
X2161Y2588D01*
X2161Y2590D01*
X2159Y2590D01*
X2159Y2593D01*
X2156Y2593D01*
X2156Y2595D01*
X2154Y2595D01*
X2154Y2600D01*
X2153Y2600D01*
X2153Y2601D01*
X2151Y2601D01*
X2151Y2606D01*
X2149Y2606D01*
X2149Y2610D01*
X2148Y2610D01*
X2148Y2613D01*
X2146Y2613D01*
X2146Y2624D01*
X2144Y2624D01*
X2144Y2633D01*
X2146Y2633D01*
X2146Y2642D01*
X2148Y2642D01*
X2148Y2646D01*
X2149Y2646D01*
X2149Y2649D01*
X2151Y2649D01*
X2151Y2652D01*
X2153Y2652D01*
X2153Y2654D01*
X2154Y2654D01*
X2154Y2656D01*
X2156Y2656D01*
X2156Y2657D01*
X2158Y2657D01*
X2158Y2659D01*
X2159Y2659D01*
X2159Y2661D01*
X2161Y2661D01*
X2161Y2662D01*
X2162Y2662D01*
X2162Y2664D01*
X2164Y2664D01*
X2164Y2667D01*
X2166Y2667D01*
X2166Y2669D01*
X2167Y2669D01*
X2167Y2670D01*
X2169Y2670D01*
X2169Y2672D01*
X2171Y2672D01*
X2171Y2674D01*
X2172Y2674D01*
X2172Y2675D01*
X2174Y2675D01*
X2174Y2677D01*
X2177Y2677D01*
X2177Y2679D01*
X2181Y2679D01*
X2181Y2680D01*
X2184Y2680D01*
X2184Y2682D01*
X2187Y2682D01*
X2187Y2683D01*
X2190Y2683D01*
X2190Y2685D01*
X2194Y2685D01*
X2194Y2687D01*
X2200Y2687D01*
X2200Y2688D01*
X2203Y2688D01*
X2203Y2690D01*
X2208Y2690D01*
X2208Y2692D01*
X2215Y2692D01*
X2215Y2693D01*
X2240Y2693D01*
X2240Y2695D01*
X2241Y2695D01*
G37*
D02*
G36*
X2282Y2688D02*
X2282Y2687D01*
X2287Y2687D01*
X2287Y2685D01*
X2299Y2685D01*
X2299Y2683D01*
X2307Y2683D01*
X2307Y2682D01*
X2312Y2682D01*
X2312Y2680D01*
X2290Y2680D01*
X2290Y2679D01*
X2287Y2679D01*
X2287Y2680D01*
X2284Y2680D01*
X2284Y2682D01*
X2281Y2682D01*
X2281Y2683D01*
X2272Y2683D01*
X2272Y2685D01*
X2261Y2685D01*
X2261Y2687D01*
X2249Y2687D01*
X2249Y2688D01*
X2282Y2688D01*
G37*
D02*
G36*
X2317Y2680D02*
X2317Y2679D01*
X2320Y2679D01*
X2320Y2677D01*
X2322Y2677D01*
X2322Y2675D01*
X2325Y2675D01*
X2325Y2674D01*
X2327Y2674D01*
X2327Y2672D01*
X2328Y2672D01*
X2328Y2670D01*
X2330Y2670D01*
X2330Y2669D01*
X2331Y2669D01*
X2331Y2667D01*
X2333Y2667D01*
X2333Y2665D01*
X2335Y2665D01*
X2335Y2662D01*
X2336Y2662D01*
X2336Y2659D01*
X2338Y2659D01*
X2338Y2656D01*
X2340Y2656D01*
X2340Y2652D01*
X2341Y2652D01*
X2341Y2646D01*
X2343Y2646D01*
X2343Y2641D01*
X2345Y2641D01*
X2345Y2633D01*
X2346Y2633D01*
X2346Y2624D01*
X2345Y2624D01*
X2345Y2615D01*
X2343Y2615D01*
X2343Y2613D01*
X2341Y2613D01*
X2341Y2608D01*
X2340Y2608D01*
X2340Y2603D01*
X2338Y2603D01*
X2338Y2601D01*
X2336Y2601D01*
X2336Y2600D01*
X2335Y2600D01*
X2335Y2597D01*
X2333Y2597D01*
X2333Y2593D01*
X2331Y2593D01*
X2331Y2592D01*
X2330Y2592D01*
X2330Y2590D01*
X2328Y2590D01*
X2328Y2588D01*
X2325Y2588D01*
X2325Y2587D01*
X2323Y2587D01*
X2323Y2585D01*
X2322Y2585D01*
X2322Y2577D01*
X2320Y2577D01*
X2320Y2570D01*
X2318Y2570D01*
X2318Y2569D01*
X2317Y2569D01*
X2317Y2567D01*
X2315Y2567D01*
X2315Y2565D01*
X2317Y2565D01*
X2317Y2559D01*
X2318Y2559D01*
X2318Y2557D01*
X2305Y2557D01*
X2305Y2556D01*
X2304Y2556D01*
X2304Y2560D01*
X2302Y2560D01*
X2302Y2562D01*
X2300Y2562D01*
X2300Y2567D01*
X2304Y2567D01*
X2304Y2569D01*
X2307Y2569D01*
X2307Y2570D01*
X2308Y2570D01*
X2308Y2572D01*
X2310Y2572D01*
X2310Y2574D01*
X2312Y2574D01*
X2312Y2577D01*
X2313Y2577D01*
X2313Y2582D01*
X2312Y2582D01*
X2312Y2587D01*
X2313Y2587D01*
X2313Y2588D01*
X2315Y2588D01*
X2315Y2590D01*
X2318Y2590D01*
X2318Y2592D01*
X2320Y2592D01*
X2320Y2593D01*
X2322Y2593D01*
X2322Y2595D01*
X2323Y2595D01*
X2323Y2597D01*
X2327Y2597D01*
X2327Y2600D01*
X2328Y2600D01*
X2328Y2601D01*
X2330Y2601D01*
X2330Y2605D01*
X2331Y2605D01*
X2331Y2608D01*
X2333Y2608D01*
X2333Y2610D01*
X2335Y2610D01*
X2335Y2615D01*
X2336Y2615D01*
X2336Y2618D01*
X2338Y2618D01*
X2338Y2641D01*
X2336Y2641D01*
X2336Y2646D01*
X2335Y2646D01*
X2335Y2651D01*
X2333Y2651D01*
X2333Y2656D01*
X2331Y2656D01*
X2331Y2659D01*
X2330Y2659D01*
X2330Y2661D01*
X2328Y2661D01*
X2328Y2664D01*
X2327Y2664D01*
X2327Y2665D01*
X2325Y2665D01*
X2325Y2669D01*
X2323Y2669D01*
X2323Y2670D01*
X2320Y2670D01*
X2320Y2672D01*
X2317Y2672D01*
X2317Y2674D01*
X2315Y2674D01*
X2315Y2675D01*
X2310Y2675D01*
X2310Y2677D01*
X2308Y2677D01*
X2308Y2679D01*
X2300Y2679D01*
X2300Y2680D01*
X2317Y2680D01*
G37*
D02*
G36*
X2195Y2575D02*
X2195Y2574D01*
X2185Y2574D01*
X2185Y2575D01*
X2195Y2575D01*
G37*
D02*
G36*
X2184Y2575D02*
X2184Y2574D01*
X2177Y2574D01*
X2177Y2575D01*
X2184Y2575D01*
G37*
D02*
G36*
X2197Y2574D02*
X2197Y2572D01*
X2156Y2572D01*
X2156Y2574D01*
X2197Y2574D01*
G37*
D02*
G36*
X2197Y2574D02*
X2197Y2572D01*
X2156Y2572D01*
X2156Y2574D01*
X2197Y2574D01*
G37*
D02*
G36*
X2197Y2574D02*
X2197Y2572D01*
X2156Y2572D01*
X2156Y2574D01*
X2197Y2574D01*
G37*
D02*
G36*
X2197Y2572D02*
X2197Y2570D01*
X2199Y2570D01*
X2199Y2569D01*
X2174Y2569D01*
X2174Y2567D01*
X2167Y2567D01*
X2167Y2565D01*
X2161Y2565D01*
X2161Y2564D01*
X2153Y2564D01*
X2153Y2565D01*
X2149Y2565D01*
X2149Y2567D01*
X2151Y2567D01*
X2151Y2569D01*
X2153Y2569D01*
X2153Y2570D01*
X2154Y2570D01*
X2154Y2572D01*
X2197Y2572D01*
G37*
D02*
G36*
X2233Y2570D02*
X2233Y2569D01*
X2236Y2569D01*
X2236Y2567D01*
X2238Y2567D01*
X2238Y2565D01*
X2241Y2565D01*
X2241Y2564D01*
X2243Y2564D01*
X2243Y2562D01*
X2218Y2562D01*
X2218Y2564D01*
X2225Y2564D01*
X2225Y2565D01*
X2226Y2565D01*
X2226Y2569D01*
X2228Y2569D01*
X2228Y2570D01*
X2233Y2570D01*
G37*
D02*
G36*
X2202Y2569D02*
X2202Y2567D01*
X2205Y2567D01*
X2205Y2565D01*
X2208Y2565D01*
X2208Y2564D01*
X2213Y2564D01*
X2213Y2562D01*
X2197Y2562D01*
X2197Y2564D01*
X2195Y2564D01*
X2195Y2565D01*
X2194Y2565D01*
X2194Y2567D01*
X2182Y2567D01*
X2182Y2569D01*
X2202Y2569D01*
G37*
D02*
G36*
X2246Y2562D02*
X2246Y2560D01*
X2199Y2560D01*
X2199Y2562D01*
X2246Y2562D01*
G37*
D02*
G36*
X2246Y2562D02*
X2246Y2560D01*
X2199Y2560D01*
X2199Y2562D01*
X2246Y2562D01*
G37*
D02*
G36*
X2248Y2560D02*
X2248Y2559D01*
X2249Y2559D01*
X2249Y2557D01*
X2253Y2557D01*
X2253Y2556D01*
X2256Y2556D01*
X2256Y2554D01*
X2269Y2554D01*
X2269Y2552D01*
X2244Y2552D01*
X2244Y2554D01*
X2241Y2554D01*
X2241Y2556D01*
X2240Y2556D01*
X2240Y2557D01*
X2236Y2557D01*
X2236Y2559D01*
X2235Y2559D01*
X2235Y2560D01*
X2248Y2560D01*
G37*
D02*
G36*
X2231Y2560D02*
X2231Y2559D01*
X2230Y2559D01*
X2230Y2557D01*
X2226Y2557D01*
X2226Y2556D01*
X2217Y2556D01*
X2217Y2554D01*
X2212Y2554D01*
X2212Y2556D01*
X2205Y2556D01*
X2205Y2557D01*
X2202Y2557D01*
X2202Y2559D01*
X2200Y2559D01*
X2200Y2560D01*
X2231Y2560D01*
G37*
D02*
G36*
X2320Y2557D02*
X2320Y2556D01*
X2323Y2556D01*
X2323Y2554D01*
X2327Y2554D01*
X2327Y2552D01*
X2328Y2552D01*
X2328Y2551D01*
X2330Y2551D01*
X2330Y2549D01*
X2313Y2549D01*
X2313Y2551D01*
X2312Y2551D01*
X2312Y2552D01*
X2310Y2552D01*
X2310Y2554D01*
X2308Y2554D01*
X2308Y2556D01*
X2307Y2556D01*
X2307Y2557D01*
X2320Y2557D01*
G37*
D02*
G36*
X2299Y2556D02*
X2299Y2554D01*
X2302Y2554D01*
X2302Y2552D01*
X2307Y2552D01*
X2307Y2551D01*
X2292Y2551D01*
X2292Y2554D01*
X2294Y2554D01*
X2294Y2556D01*
X2299Y2556D01*
G37*
D02*
G36*
X2287Y2556D02*
X2287Y2554D01*
X2289Y2554D01*
X2289Y2552D01*
X2271Y2552D01*
X2271Y2554D01*
X2284Y2554D01*
X2284Y2556D01*
X2287Y2556D01*
G37*
D02*
G36*
X2287Y2552D02*
X2287Y2551D01*
X2246Y2551D01*
X2246Y2552D01*
X2287Y2552D01*
G37*
D02*
G36*
X2287Y2552D02*
X2287Y2551D01*
X2246Y2551D01*
X2246Y2552D01*
X2287Y2552D01*
G37*
D02*
G36*
X2312Y2551D02*
X2312Y2549D01*
X2294Y2549D01*
X2294Y2551D01*
X2312Y2551D01*
G37*
D02*
G36*
X2284Y2551D02*
X2284Y2549D01*
X2279Y2549D01*
X2279Y2547D01*
X2254Y2547D01*
X2254Y2549D01*
X2249Y2549D01*
X2249Y2551D01*
X2284Y2551D01*
G37*
D02*
G36*
X2331Y2549D02*
X2331Y2547D01*
X2295Y2547D01*
X2295Y2549D01*
X2331Y2549D01*
G37*
D02*
G36*
X2331Y2549D02*
X2331Y2547D01*
X2295Y2547D01*
X2295Y2549D01*
X2331Y2549D01*
G37*
D02*
G36*
X2335Y2547D02*
X2335Y2544D01*
X2338Y2544D01*
X2338Y2542D01*
X2340Y2542D01*
X2340Y2541D01*
X2341Y2541D01*
X2341Y2537D01*
X2343Y2537D01*
X2343Y2534D01*
X2341Y2534D01*
X2341Y2533D01*
X2333Y2533D01*
X2333Y2534D01*
X2327Y2534D01*
X2327Y2536D01*
X2323Y2536D01*
X2323Y2537D01*
X2320Y2537D01*
X2320Y2539D01*
X2315Y2539D01*
X2315Y2541D01*
X2312Y2541D01*
X2312Y2542D01*
X2307Y2542D01*
X2307Y2544D01*
X2304Y2544D01*
X2304Y2546D01*
X2300Y2546D01*
X2300Y2547D01*
X2335Y2547D01*
G37*
D02*
G36*
X2504Y2521D02*
X2504Y2519D01*
X2512Y2519D01*
X2512Y2518D01*
X2522Y2518D01*
X2522Y2516D01*
X2527Y2516D01*
X2527Y2515D01*
X2532Y2515D01*
X2532Y2513D01*
X2536Y2513D01*
X2536Y2511D01*
X2527Y2511D01*
X2527Y2510D01*
X2523Y2510D01*
X2523Y2511D01*
X2507Y2511D01*
X2507Y2513D01*
X2492Y2513D01*
X2492Y2515D01*
X2491Y2515D01*
X2491Y2519D01*
X2492Y2519D01*
X2492Y2521D01*
X2504Y2521D01*
G37*
D02*
G36*
X2540Y2511D02*
X2540Y2510D01*
X2530Y2510D01*
X2530Y2511D01*
X2540Y2511D01*
G37*
D02*
G36*
X2402Y2519D02*
X2402Y2518D01*
X2404Y2518D01*
X2404Y2515D01*
X2394Y2515D01*
X2394Y2516D01*
X2395Y2516D01*
X2395Y2518D01*
X2399Y2518D01*
X2399Y2519D01*
X2402Y2519D01*
G37*
D02*
G36*
X2389Y2519D02*
X2389Y2518D01*
X2390Y2518D01*
X2390Y2516D01*
X2392Y2516D01*
X2392Y2515D01*
X2382Y2515D01*
X2382Y2519D01*
X2389Y2519D01*
G37*
D02*
G36*
X2404Y2515D02*
X2404Y2513D01*
X2382Y2513D01*
X2382Y2515D01*
X2404Y2515D01*
G37*
D02*
G36*
X2404Y2515D02*
X2404Y2513D01*
X2382Y2513D01*
X2382Y2515D01*
X2404Y2515D01*
G37*
D02*
G36*
X2404Y2513D02*
X2404Y2511D01*
X2402Y2511D01*
X2402Y2510D01*
X2400Y2510D01*
X2400Y2508D01*
X2394Y2508D01*
X2394Y2506D01*
X2390Y2506D01*
X2390Y2508D01*
X2386Y2508D01*
X2386Y2510D01*
X2384Y2510D01*
X2384Y2511D01*
X2382Y2511D01*
X2382Y2513D01*
X2404Y2513D01*
G37*
D02*
G36*
X2259Y2482D02*
X2259Y2480D01*
X2258Y2480D01*
X2258Y2482D01*
X2259Y2482D01*
G37*
D02*
G36*
X1994Y2478D02*
X1994Y2477D01*
X1997Y2477D01*
X1997Y2472D01*
X1994Y2472D01*
X1994Y2470D01*
X1992Y2470D01*
X1992Y2469D01*
X1990Y2469D01*
X1990Y2464D01*
X1989Y2464D01*
X1989Y2455D01*
X1987Y2455D01*
X1987Y2454D01*
X1984Y2454D01*
X1984Y2457D01*
X1982Y2457D01*
X1982Y2465D01*
X1984Y2465D01*
X1984Y2472D01*
X1985Y2472D01*
X1985Y2473D01*
X1987Y2473D01*
X1987Y2475D01*
X1989Y2475D01*
X1989Y2477D01*
X1992Y2477D01*
X1992Y2478D01*
X1994Y2478D01*
G37*
D02*
G36*
X2474Y2467D02*
X2474Y2465D01*
X2479Y2465D01*
X2479Y2464D01*
X2482Y2464D01*
X2482Y2462D01*
X2486Y2462D01*
X2486Y2460D01*
X2489Y2460D01*
X2489Y2459D01*
X2491Y2459D01*
X2491Y2457D01*
X2492Y2457D01*
X2492Y2455D01*
X2494Y2455D01*
X2494Y2454D01*
X2495Y2454D01*
X2495Y2452D01*
X2499Y2452D01*
X2499Y2451D01*
X2502Y2451D01*
X2502Y2449D01*
X2504Y2449D01*
X2504Y2447D01*
X2505Y2447D01*
X2505Y2446D01*
X2507Y2446D01*
X2507Y2444D01*
X2512Y2444D01*
X2512Y2442D01*
X2514Y2442D01*
X2514Y2441D01*
X2515Y2441D01*
X2515Y2439D01*
X2517Y2439D01*
X2517Y2437D01*
X2518Y2437D01*
X2518Y2436D01*
X2522Y2436D01*
X2522Y2434D01*
X2523Y2434D01*
X2523Y2431D01*
X2522Y2431D01*
X2522Y2429D01*
X2518Y2429D01*
X2518Y2431D01*
X2515Y2431D01*
X2515Y2432D01*
X2514Y2432D01*
X2514Y2434D01*
X2510Y2434D01*
X2510Y2436D01*
X2509Y2436D01*
X2509Y2437D01*
X2505Y2437D01*
X2505Y2439D01*
X2504Y2439D01*
X2504Y2441D01*
X2499Y2441D01*
X2499Y2442D01*
X2497Y2442D01*
X2497Y2444D01*
X2494Y2444D01*
X2494Y2446D01*
X2489Y2446D01*
X2489Y2449D01*
X2487Y2449D01*
X2487Y2451D01*
X2484Y2451D01*
X2484Y2452D01*
X2482Y2452D01*
X2482Y2454D01*
X2479Y2454D01*
X2479Y2455D01*
X2477Y2455D01*
X2477Y2457D01*
X2476Y2457D01*
X2476Y2459D01*
X2473Y2459D01*
X2473Y2460D01*
X2471Y2460D01*
X2471Y2462D01*
X2468Y2462D01*
X2468Y2465D01*
X2469Y2465D01*
X2469Y2467D01*
X2474Y2467D01*
G37*
D02*
G36*
X2016Y2465D02*
X2016Y2462D01*
X2015Y2462D01*
X2015Y2460D01*
X2012Y2460D01*
X2012Y2457D01*
X2010Y2457D01*
X2010Y2455D01*
X2008Y2455D01*
X2008Y2444D01*
X2005Y2444D01*
X2005Y2442D01*
X2003Y2442D01*
X2003Y2446D01*
X2002Y2446D01*
X2002Y2457D01*
X2003Y2457D01*
X2003Y2460D01*
X2005Y2460D01*
X2005Y2462D01*
X2007Y2462D01*
X2007Y2464D01*
X2010Y2464D01*
X2010Y2465D01*
X2016Y2465D01*
G37*
D02*
G36*
X2331Y2441D02*
X2331Y2439D01*
X2333Y2439D01*
X2333Y2434D01*
X2331Y2434D01*
X2331Y2432D01*
X2333Y2432D01*
X2333Y2426D01*
X2335Y2426D01*
X2335Y2421D01*
X2336Y2421D01*
X2336Y2416D01*
X2338Y2416D01*
X2338Y2413D01*
X2340Y2413D01*
X2340Y2405D01*
X2338Y2405D01*
X2338Y2406D01*
X2335Y2406D01*
X2335Y2411D01*
X2333Y2411D01*
X2333Y2413D01*
X2331Y2413D01*
X2331Y2418D01*
X2330Y2418D01*
X2330Y2421D01*
X2328Y2421D01*
X2328Y2426D01*
X2327Y2426D01*
X2327Y2428D01*
X2328Y2428D01*
X2328Y2429D01*
X2327Y2429D01*
X2327Y2436D01*
X2328Y2436D01*
X2328Y2439D01*
X2330Y2439D01*
X2330Y2441D01*
X2331Y2441D01*
G37*
D02*
G36*
X2312Y2434D02*
X2312Y2432D01*
X2313Y2432D01*
X2313Y2428D01*
X2315Y2428D01*
X2315Y2426D01*
X2317Y2426D01*
X2317Y2419D01*
X2318Y2419D01*
X2318Y2418D01*
X2320Y2418D01*
X2320Y2416D01*
X2322Y2416D01*
X2322Y2413D01*
X2323Y2413D01*
X2323Y2410D01*
X2325Y2410D01*
X2325Y2405D01*
X2318Y2405D01*
X2318Y2406D01*
X2317Y2406D01*
X2317Y2408D01*
X2315Y2408D01*
X2315Y2410D01*
X2313Y2410D01*
X2313Y2414D01*
X2312Y2414D01*
X2312Y2418D01*
X2310Y2418D01*
X2310Y2421D01*
X2307Y2421D01*
X2307Y2428D01*
X2308Y2428D01*
X2308Y2432D01*
X2310Y2432D01*
X2310Y2434D01*
X2312Y2434D01*
G37*
D02*
G36*
X2290Y2431D02*
X2290Y2428D01*
X2292Y2428D01*
X2292Y2423D01*
X2294Y2423D01*
X2294Y2410D01*
X2295Y2410D01*
X2295Y2408D01*
X2297Y2408D01*
X2297Y2406D01*
X2299Y2406D01*
X2299Y2403D01*
X2300Y2403D01*
X2300Y2398D01*
X2294Y2398D01*
X2294Y2400D01*
X2292Y2400D01*
X2292Y2401D01*
X2290Y2401D01*
X2290Y2405D01*
X2287Y2405D01*
X2287Y2410D01*
X2286Y2410D01*
X2286Y2421D01*
X2284Y2421D01*
X2284Y2423D01*
X2286Y2423D01*
X2286Y2428D01*
X2284Y2428D01*
X2284Y2429D01*
X2287Y2429D01*
X2287Y2431D01*
X2290Y2431D01*
G37*
D02*
G36*
X2076Y2624D02*
X2076Y2623D01*
X2087Y2623D01*
X2087Y2621D01*
X2092Y2621D01*
X2092Y2619D01*
X2097Y2619D01*
X2097Y2618D01*
X2054Y2618D01*
X2054Y2616D01*
X2049Y2616D01*
X2049Y2615D01*
X2044Y2615D01*
X2044Y2613D01*
X2041Y2613D01*
X2041Y2611D01*
X2039Y2611D01*
X2039Y2606D01*
X2041Y2606D01*
X2041Y2601D01*
X2043Y2601D01*
X2043Y2600D01*
X2044Y2600D01*
X2044Y2597D01*
X2046Y2597D01*
X2046Y2595D01*
X2048Y2595D01*
X2048Y2593D01*
X2036Y2593D01*
X2036Y2590D01*
X2035Y2590D01*
X2035Y2578D01*
X2039Y2578D01*
X2039Y2577D01*
X2041Y2577D01*
X2041Y2575D01*
X2043Y2575D01*
X2043Y2570D01*
X2044Y2570D01*
X2044Y2567D01*
X2041Y2567D01*
X2041Y2564D01*
X2043Y2564D01*
X2043Y2562D01*
X2044Y2562D01*
X2044Y2559D01*
X2033Y2559D01*
X2033Y2557D01*
X2025Y2557D01*
X2025Y2565D01*
X2026Y2565D01*
X2026Y2583D01*
X2028Y2583D01*
X2028Y2615D01*
X2030Y2615D01*
X2030Y2616D01*
X2035Y2616D01*
X2035Y2618D01*
X2039Y2618D01*
X2039Y2619D01*
X2044Y2619D01*
X2044Y2621D01*
X2054Y2621D01*
X2054Y2623D01*
X2062Y2623D01*
X2062Y2624D01*
X2076Y2624D01*
G37*
D02*
G36*
X2103Y2618D02*
X2103Y2616D01*
X2107Y2616D01*
X2107Y2615D01*
X2110Y2615D01*
X2110Y2613D01*
X2112Y2613D01*
X2112Y2611D01*
X2113Y2611D01*
X2113Y2610D01*
X2117Y2610D01*
X2117Y2606D01*
X2120Y2606D01*
X2120Y2605D01*
X2121Y2605D01*
X2121Y2603D01*
X2123Y2603D01*
X2123Y2600D01*
X2125Y2600D01*
X2125Y2597D01*
X2126Y2597D01*
X2126Y2593D01*
X2128Y2593D01*
X2128Y2587D01*
X2130Y2587D01*
X2130Y2582D01*
X2128Y2582D01*
X2128Y2580D01*
X2130Y2580D01*
X2130Y2577D01*
X2128Y2577D01*
X2128Y2569D01*
X2126Y2569D01*
X2126Y2559D01*
X2117Y2559D01*
X2117Y2557D01*
X2113Y2557D01*
X2113Y2556D01*
X2094Y2556D01*
X2094Y2557D01*
X2097Y2557D01*
X2097Y2559D01*
X2103Y2559D01*
X2103Y2560D01*
X2107Y2560D01*
X2107Y2562D01*
X2108Y2562D01*
X2108Y2564D01*
X2110Y2564D01*
X2110Y2565D01*
X2113Y2565D01*
X2113Y2567D01*
X2115Y2567D01*
X2115Y2569D01*
X2117Y2569D01*
X2117Y2574D01*
X2118Y2574D01*
X2118Y2578D01*
X2120Y2578D01*
X2120Y2582D01*
X2118Y2582D01*
X2118Y2583D01*
X2120Y2583D01*
X2120Y2587D01*
X2118Y2587D01*
X2118Y2588D01*
X2120Y2588D01*
X2120Y2592D01*
X2118Y2592D01*
X2118Y2597D01*
X2117Y2597D01*
X2117Y2600D01*
X2115Y2600D01*
X2115Y2601D01*
X2113Y2601D01*
X2113Y2605D01*
X2110Y2605D01*
X2110Y2606D01*
X2107Y2606D01*
X2107Y2608D01*
X2105Y2608D01*
X2105Y2610D01*
X2102Y2610D01*
X2102Y2611D01*
X2100Y2611D01*
X2100Y2613D01*
X2097Y2613D01*
X2097Y2615D01*
X2090Y2615D01*
X2090Y2616D01*
X2084Y2616D01*
X2084Y2618D01*
X2103Y2618D01*
G37*
D02*
G36*
X2048Y2593D02*
X2048Y2592D01*
X2049Y2592D01*
X2049Y2590D01*
X2053Y2590D01*
X2053Y2587D01*
X2054Y2587D01*
X2054Y2585D01*
X2056Y2585D01*
X2056Y2582D01*
X2057Y2582D01*
X2057Y2578D01*
X2059Y2578D01*
X2059Y2577D01*
X2061Y2577D01*
X2061Y2575D01*
X2062Y2575D01*
X2062Y2574D01*
X2064Y2574D01*
X2064Y2572D01*
X2066Y2572D01*
X2066Y2570D01*
X2067Y2570D01*
X2067Y2567D01*
X2071Y2567D01*
X2071Y2565D01*
X2072Y2565D01*
X2072Y2564D01*
X2074Y2564D01*
X2074Y2562D01*
X2076Y2562D01*
X2076Y2559D01*
X2079Y2559D01*
X2079Y2557D01*
X2089Y2557D01*
X2089Y2556D01*
X2069Y2556D01*
X2069Y2557D01*
X2067Y2557D01*
X2067Y2559D01*
X2066Y2559D01*
X2066Y2560D01*
X2064Y2560D01*
X2064Y2564D01*
X2062Y2564D01*
X2062Y2565D01*
X2061Y2565D01*
X2061Y2567D01*
X2059Y2567D01*
X2059Y2569D01*
X2057Y2569D01*
X2057Y2570D01*
X2056Y2570D01*
X2056Y2572D01*
X2054Y2572D01*
X2054Y2574D01*
X2053Y2574D01*
X2053Y2575D01*
X2051Y2575D01*
X2051Y2578D01*
X2049Y2578D01*
X2049Y2580D01*
X2048Y2580D01*
X2048Y2583D01*
X2046Y2583D01*
X2046Y2585D01*
X2044Y2585D01*
X2044Y2587D01*
X2043Y2587D01*
X2043Y2588D01*
X2041Y2588D01*
X2041Y2590D01*
X2038Y2590D01*
X2038Y2593D01*
X2048Y2593D01*
G37*
D02*
G36*
X2389Y2582D02*
X2389Y2580D01*
X2392Y2580D01*
X2392Y2577D01*
X2389Y2577D01*
X2389Y2575D01*
X2387Y2575D01*
X2387Y2574D01*
X2386Y2574D01*
X2386Y2570D01*
X2384Y2570D01*
X2384Y2567D01*
X2382Y2567D01*
X2382Y2565D01*
X2386Y2565D01*
X2386Y2562D01*
X2387Y2562D01*
X2387Y2559D01*
X2389Y2559D01*
X2389Y2557D01*
X2392Y2557D01*
X2392Y2556D01*
X2394Y2556D01*
X2394Y2554D01*
X2397Y2554D01*
X2397Y2552D01*
X2366Y2552D01*
X2366Y2556D01*
X2368Y2556D01*
X2368Y2559D01*
X2369Y2559D01*
X2369Y2565D01*
X2371Y2565D01*
X2371Y2570D01*
X2372Y2570D01*
X2372Y2574D01*
X2374Y2574D01*
X2374Y2575D01*
X2377Y2575D01*
X2377Y2577D01*
X2379Y2577D01*
X2379Y2578D01*
X2382Y2578D01*
X2382Y2580D01*
X2386Y2580D01*
X2386Y2582D01*
X2389Y2582D01*
G37*
D02*
G36*
X2420Y2578D02*
X2420Y2577D01*
X2423Y2577D01*
X2423Y2575D01*
X2425Y2575D01*
X2425Y2574D01*
X2427Y2574D01*
X2427Y2572D01*
X2428Y2572D01*
X2428Y2570D01*
X2430Y2570D01*
X2430Y2567D01*
X2432Y2567D01*
X2432Y2564D01*
X2433Y2564D01*
X2433Y2554D01*
X2435Y2554D01*
X2435Y2552D01*
X2413Y2552D01*
X2413Y2554D01*
X2420Y2554D01*
X2420Y2557D01*
X2423Y2557D01*
X2423Y2560D01*
X2422Y2560D01*
X2422Y2562D01*
X2423Y2562D01*
X2423Y2564D01*
X2420Y2564D01*
X2420Y2567D01*
X2418Y2567D01*
X2418Y2569D01*
X2417Y2569D01*
X2417Y2570D01*
X2413Y2570D01*
X2413Y2574D01*
X2412Y2574D01*
X2412Y2577D01*
X2413Y2577D01*
X2413Y2578D01*
X2420Y2578D01*
G37*
D02*
G36*
X2126Y2559D02*
X2126Y2549D01*
X2125Y2549D01*
X2125Y2534D01*
X2123Y2534D01*
X2123Y2533D01*
X2125Y2533D01*
X2125Y2531D01*
X2123Y2531D01*
X2123Y2526D01*
X2121Y2526D01*
X2121Y2523D01*
X2120Y2523D01*
X2120Y2519D01*
X2118Y2519D01*
X2118Y2518D01*
X2120Y2518D01*
X2120Y2515D01*
X2118Y2515D01*
X2118Y2511D01*
X2120Y2511D01*
X2120Y2510D01*
X2123Y2510D01*
X2123Y2508D01*
X2126Y2508D01*
X2126Y2506D01*
X2128Y2506D01*
X2128Y2505D01*
X2130Y2505D01*
X2130Y2503D01*
X2110Y2503D01*
X2110Y2501D01*
X2108Y2501D01*
X2108Y2500D01*
X2107Y2500D01*
X2107Y2496D01*
X2105Y2496D01*
X2105Y2495D01*
X2103Y2495D01*
X2103Y2493D01*
X2090Y2493D01*
X2090Y2495D01*
X2092Y2495D01*
X2092Y2496D01*
X2095Y2496D01*
X2095Y2498D01*
X2097Y2498D01*
X2097Y2500D01*
X2098Y2500D01*
X2098Y2501D01*
X2100Y2501D01*
X2100Y2503D01*
X2102Y2503D01*
X2102Y2505D01*
X2103Y2505D01*
X2103Y2508D01*
X2105Y2508D01*
X2105Y2511D01*
X2103Y2511D01*
X2103Y2516D01*
X2105Y2516D01*
X2105Y2518D01*
X2112Y2518D01*
X2112Y2519D01*
X2113Y2519D01*
X2113Y2524D01*
X2115Y2524D01*
X2115Y2528D01*
X2117Y2528D01*
X2117Y2533D01*
X2118Y2533D01*
X2118Y2559D01*
X2126Y2559D01*
G37*
D02*
G36*
X2057Y2559D02*
X2057Y2557D01*
X2059Y2557D01*
X2059Y2556D01*
X2053Y2556D01*
X2053Y2559D01*
X2057Y2559D01*
G37*
D02*
G36*
X2046Y2559D02*
X2046Y2557D01*
X2035Y2557D01*
X2035Y2559D01*
X2046Y2559D01*
G37*
D02*
G36*
X2049Y2557D02*
X2049Y2556D01*
X2025Y2556D01*
X2025Y2557D01*
X2049Y2557D01*
G37*
D02*
G36*
X2049Y2557D02*
X2049Y2556D01*
X2025Y2556D01*
X2025Y2557D01*
X2049Y2557D01*
G37*
D02*
G36*
X2110Y2556D02*
X2110Y2554D01*
X2072Y2554D01*
X2072Y2556D01*
X2110Y2556D01*
G37*
D02*
G36*
X2110Y2556D02*
X2110Y2554D01*
X2072Y2554D01*
X2072Y2556D01*
X2110Y2556D01*
G37*
D02*
G36*
X2059Y2556D02*
X2059Y2554D01*
X2039Y2554D01*
X2039Y2556D01*
X2059Y2556D01*
G37*
D02*
G36*
X2059Y2556D02*
X2059Y2554D01*
X2039Y2554D01*
X2039Y2556D01*
X2059Y2556D01*
G37*
D02*
G36*
X2033Y2556D02*
X2033Y2552D01*
X2035Y2552D01*
X2035Y2551D01*
X2036Y2551D01*
X2036Y2549D01*
X2038Y2549D01*
X2038Y2547D01*
X2039Y2547D01*
X2039Y2546D01*
X2044Y2546D01*
X2044Y2544D01*
X2046Y2544D01*
X2046Y2541D01*
X2048Y2541D01*
X2048Y2537D01*
X2035Y2537D01*
X2035Y2534D01*
X2036Y2534D01*
X2036Y2533D01*
X2035Y2533D01*
X2035Y2531D01*
X2036Y2531D01*
X2036Y2528D01*
X2038Y2528D01*
X2038Y2524D01*
X2039Y2524D01*
X2039Y2523D01*
X2043Y2523D01*
X2043Y2521D01*
X2046Y2521D01*
X2046Y2519D01*
X2048Y2519D01*
X2048Y2518D01*
X2049Y2518D01*
X2049Y2515D01*
X2051Y2515D01*
X2051Y2513D01*
X2053Y2513D01*
X2053Y2511D01*
X2054Y2511D01*
X2054Y2510D01*
X2057Y2510D01*
X2057Y2508D01*
X2059Y2508D01*
X2059Y2505D01*
X2062Y2505D01*
X2062Y2503D01*
X2064Y2503D01*
X2064Y2501D01*
X2067Y2501D01*
X2067Y2500D01*
X2069Y2500D01*
X2069Y2498D01*
X2071Y2498D01*
X2071Y2496D01*
X2072Y2496D01*
X2072Y2495D01*
X2076Y2495D01*
X2076Y2493D01*
X2061Y2493D01*
X2061Y2495D01*
X2059Y2495D01*
X2059Y2498D01*
X2056Y2498D01*
X2056Y2501D01*
X2053Y2501D01*
X2053Y2503D01*
X2051Y2503D01*
X2051Y2505D01*
X2049Y2505D01*
X2049Y2506D01*
X2048Y2506D01*
X2048Y2508D01*
X2046Y2508D01*
X2046Y2510D01*
X2044Y2510D01*
X2044Y2511D01*
X2041Y2511D01*
X2041Y2513D01*
X2038Y2513D01*
X2038Y2515D01*
X2036Y2515D01*
X2036Y2518D01*
X2035Y2518D01*
X2035Y2519D01*
X2033Y2519D01*
X2033Y2523D01*
X2031Y2523D01*
X2031Y2524D01*
X2030Y2524D01*
X2030Y2526D01*
X2028Y2526D01*
X2028Y2531D01*
X2026Y2531D01*
X2026Y2533D01*
X2028Y2533D01*
X2028Y2539D01*
X2026Y2539D01*
X2026Y2546D01*
X2025Y2546D01*
X2025Y2547D01*
X2026Y2547D01*
X2026Y2551D01*
X2025Y2551D01*
X2025Y2556D01*
X2033Y2556D01*
G37*
D02*
G36*
X2107Y2554D02*
X2107Y2552D01*
X2102Y2552D01*
X2102Y2551D01*
X2098Y2551D01*
X2098Y2549D01*
X2097Y2549D01*
X2097Y2547D01*
X2094Y2547D01*
X2094Y2546D01*
X2092Y2546D01*
X2092Y2544D01*
X2090Y2544D01*
X2090Y2539D01*
X2089Y2539D01*
X2089Y2534D01*
X2090Y2534D01*
X2090Y2533D01*
X2089Y2533D01*
X2089Y2521D01*
X2090Y2521D01*
X2090Y2519D01*
X2089Y2519D01*
X2089Y2510D01*
X2087Y2510D01*
X2087Y2495D01*
X2089Y2495D01*
X2089Y2493D01*
X2077Y2493D01*
X2077Y2496D01*
X2079Y2496D01*
X2079Y2501D01*
X2080Y2501D01*
X2080Y2503D01*
X2079Y2503D01*
X2079Y2506D01*
X2080Y2506D01*
X2080Y2516D01*
X2082Y2516D01*
X2082Y2544D01*
X2080Y2544D01*
X2080Y2549D01*
X2079Y2549D01*
X2079Y2551D01*
X2077Y2551D01*
X2077Y2552D01*
X2076Y2552D01*
X2076Y2554D01*
X2107Y2554D01*
G37*
D02*
G36*
X2061Y2554D02*
X2061Y2552D01*
X2064Y2552D01*
X2064Y2551D01*
X2066Y2551D01*
X2066Y2549D01*
X2067Y2549D01*
X2067Y2547D01*
X2066Y2547D01*
X2066Y2546D01*
X2061Y2546D01*
X2061Y2547D01*
X2057Y2547D01*
X2057Y2549D01*
X2056Y2549D01*
X2056Y2551D01*
X2054Y2551D01*
X2054Y2552D01*
X2053Y2552D01*
X2053Y2554D01*
X2061Y2554D01*
G37*
D02*
G36*
X2051Y2554D02*
X2051Y2552D01*
X2049Y2552D01*
X2049Y2551D01*
X2044Y2551D01*
X2044Y2552D01*
X2041Y2552D01*
X2041Y2554D01*
X2051Y2554D01*
G37*
D02*
G36*
X2435Y2552D02*
X2435Y2551D01*
X2366Y2551D01*
X2366Y2552D01*
X2435Y2552D01*
G37*
D02*
G36*
X2435Y2552D02*
X2435Y2551D01*
X2366Y2551D01*
X2366Y2552D01*
X2435Y2552D01*
G37*
D02*
G36*
X2433Y2551D02*
X2433Y2547D01*
X2432Y2547D01*
X2432Y2546D01*
X2433Y2546D01*
X2433Y2544D01*
X2372Y2544D01*
X2372Y2539D01*
X2371Y2539D01*
X2371Y2537D01*
X2369Y2537D01*
X2369Y2533D01*
X2368Y2533D01*
X2368Y2528D01*
X2366Y2528D01*
X2366Y2523D01*
X2364Y2523D01*
X2364Y2519D01*
X2363Y2519D01*
X2363Y2516D01*
X2361Y2516D01*
X2361Y2513D01*
X2359Y2513D01*
X2359Y2506D01*
X2358Y2506D01*
X2358Y2503D01*
X2356Y2503D01*
X2356Y2496D01*
X2354Y2496D01*
X2354Y2492D01*
X2353Y2492D01*
X2353Y2487D01*
X2338Y2487D01*
X2338Y2485D01*
X2331Y2485D01*
X2331Y2483D01*
X2299Y2483D01*
X2299Y2485D01*
X2308Y2485D01*
X2308Y2487D01*
X2318Y2487D01*
X2318Y2488D01*
X2325Y2488D01*
X2325Y2490D01*
X2330Y2490D01*
X2330Y2492D01*
X2333Y2492D01*
X2333Y2493D01*
X2338Y2493D01*
X2338Y2495D01*
X2341Y2495D01*
X2341Y2496D01*
X2345Y2496D01*
X2345Y2500D01*
X2346Y2500D01*
X2346Y2501D01*
X2348Y2501D01*
X2348Y2506D01*
X2349Y2506D01*
X2349Y2510D01*
X2351Y2510D01*
X2351Y2515D01*
X2353Y2515D01*
X2353Y2519D01*
X2354Y2519D01*
X2354Y2524D01*
X2356Y2524D01*
X2356Y2526D01*
X2358Y2526D01*
X2358Y2533D01*
X2359Y2533D01*
X2359Y2537D01*
X2361Y2537D01*
X2361Y2542D01*
X2363Y2542D01*
X2363Y2544D01*
X2364Y2544D01*
X2364Y2549D01*
X2366Y2549D01*
X2366Y2551D01*
X2433Y2551D01*
G37*
D02*
G36*
X2432Y2544D02*
X2432Y2541D01*
X2382Y2541D01*
X2382Y2539D01*
X2381Y2539D01*
X2381Y2541D01*
X2379Y2541D01*
X2379Y2542D01*
X2376Y2542D01*
X2376Y2544D01*
X2432Y2544D01*
G37*
D02*
G36*
X2432Y2541D02*
X2432Y2537D01*
X2430Y2537D01*
X2430Y2534D01*
X2428Y2534D01*
X2428Y2529D01*
X2427Y2529D01*
X2427Y2528D01*
X2425Y2528D01*
X2425Y2523D01*
X2423Y2523D01*
X2423Y2521D01*
X2422Y2521D01*
X2422Y2516D01*
X2420Y2516D01*
X2420Y2511D01*
X2418Y2511D01*
X2418Y2508D01*
X2417Y2508D01*
X2417Y2505D01*
X2415Y2505D01*
X2415Y2503D01*
X2417Y2503D01*
X2417Y2501D01*
X2420Y2501D01*
X2420Y2500D01*
X2423Y2500D01*
X2423Y2498D01*
X2425Y2498D01*
X2425Y2496D01*
X2427Y2496D01*
X2427Y2495D01*
X2428Y2495D01*
X2428Y2492D01*
X2430Y2492D01*
X2430Y2487D01*
X2412Y2487D01*
X2412Y2488D01*
X2415Y2488D01*
X2415Y2492D01*
X2410Y2492D01*
X2410Y2493D01*
X2405Y2493D01*
X2405Y2495D01*
X2404Y2495D01*
X2404Y2496D01*
X2402Y2496D01*
X2402Y2498D01*
X2400Y2498D01*
X2400Y2503D01*
X2402Y2503D01*
X2402Y2506D01*
X2405Y2506D01*
X2405Y2510D01*
X2407Y2510D01*
X2407Y2511D01*
X2409Y2511D01*
X2409Y2515D01*
X2410Y2515D01*
X2410Y2518D01*
X2412Y2518D01*
X2412Y2523D01*
X2413Y2523D01*
X2413Y2526D01*
X2415Y2526D01*
X2415Y2529D01*
X2413Y2529D01*
X2413Y2531D01*
X2409Y2531D01*
X2409Y2533D01*
X2399Y2533D01*
X2399Y2534D01*
X2394Y2534D01*
X2394Y2536D01*
X2390Y2536D01*
X2390Y2537D01*
X2387Y2537D01*
X2387Y2539D01*
X2384Y2539D01*
X2384Y2541D01*
X2432Y2541D01*
G37*
D02*
G36*
X2046Y2537D02*
X2046Y2536D01*
X2041Y2536D01*
X2041Y2537D01*
X2046Y2537D01*
G37*
D02*
G36*
X2039Y2537D02*
X2039Y2536D01*
X2038Y2536D01*
X2038Y2537D01*
X2039Y2537D01*
G37*
D02*
G36*
X2243Y2511D02*
X2243Y2510D01*
X2231Y2510D01*
X2231Y2511D01*
X2243Y2511D01*
G37*
D02*
G36*
X2228Y2511D02*
X2228Y2510D01*
X2213Y2510D01*
X2213Y2511D01*
X2228Y2511D01*
G37*
D02*
G36*
X2244Y2510D02*
X2244Y2508D01*
X2208Y2508D01*
X2208Y2510D01*
X2244Y2510D01*
G37*
D02*
G36*
X2244Y2510D02*
X2244Y2508D01*
X2208Y2508D01*
X2208Y2510D01*
X2244Y2510D01*
G37*
D02*
G36*
X2248Y2508D02*
X2248Y2506D01*
X2249Y2506D01*
X2249Y2505D01*
X2212Y2505D01*
X2212Y2503D01*
X2208Y2503D01*
X2208Y2501D01*
X2205Y2501D01*
X2205Y2498D01*
X2203Y2498D01*
X2203Y2496D01*
X2202Y2496D01*
X2202Y2495D01*
X2162Y2495D01*
X2162Y2496D01*
X2187Y2496D01*
X2187Y2498D01*
X2189Y2498D01*
X2189Y2500D01*
X2190Y2500D01*
X2190Y2501D01*
X2194Y2501D01*
X2194Y2503D01*
X2197Y2503D01*
X2197Y2505D01*
X2200Y2505D01*
X2200Y2506D01*
X2202Y2506D01*
X2202Y2508D01*
X2248Y2508D01*
G37*
D02*
G36*
X2253Y2505D02*
X2253Y2503D01*
X2238Y2503D01*
X2238Y2496D01*
X2241Y2496D01*
X2241Y2493D01*
X2243Y2493D01*
X2243Y2490D01*
X2244Y2490D01*
X2244Y2487D01*
X2243Y2487D01*
X2243Y2485D01*
X2238Y2485D01*
X2238Y2483D01*
X2231Y2483D01*
X2231Y2482D01*
X2230Y2482D01*
X2230Y2480D01*
X2228Y2480D01*
X2228Y2473D01*
X2218Y2473D01*
X2218Y2487D01*
X2220Y2487D01*
X2220Y2488D01*
X2223Y2488D01*
X2223Y2490D01*
X2226Y2490D01*
X2226Y2492D01*
X2230Y2492D01*
X2230Y2495D01*
X2228Y2495D01*
X2228Y2496D01*
X2226Y2496D01*
X2226Y2500D01*
X2225Y2500D01*
X2225Y2503D01*
X2223Y2503D01*
X2223Y2505D01*
X2253Y2505D01*
G37*
D02*
G36*
X2254Y2503D02*
X2254Y2501D01*
X2256Y2501D01*
X2256Y2500D01*
X2258Y2500D01*
X2258Y2496D01*
X2259Y2496D01*
X2259Y2493D01*
X2261Y2493D01*
X2261Y2492D01*
X2263Y2492D01*
X2263Y2490D01*
X2264Y2490D01*
X2264Y2488D01*
X2266Y2488D01*
X2266Y2487D01*
X2267Y2487D01*
X2267Y2485D01*
X2271Y2485D01*
X2271Y2483D01*
X2259Y2483D01*
X2259Y2485D01*
X2258Y2485D01*
X2258Y2490D01*
X2256Y2490D01*
X2256Y2492D01*
X2253Y2492D01*
X2253Y2493D01*
X2251Y2493D01*
X2251Y2495D01*
X2249Y2495D01*
X2249Y2496D01*
X2248Y2496D01*
X2248Y2500D01*
X2244Y2500D01*
X2244Y2501D01*
X2240Y2501D01*
X2240Y2503D01*
X2254Y2503D01*
G37*
D02*
G36*
X2133Y2503D02*
X2133Y2501D01*
X2136Y2501D01*
X2136Y2500D01*
X2140Y2500D01*
X2140Y2498D01*
X2148Y2498D01*
X2148Y2496D01*
X2154Y2496D01*
X2154Y2495D01*
X2128Y2495D01*
X2128Y2496D01*
X2126Y2496D01*
X2126Y2498D01*
X2123Y2498D01*
X2123Y2500D01*
X2120Y2500D01*
X2120Y2501D01*
X2117Y2501D01*
X2117Y2503D01*
X2133Y2503D01*
G37*
D02*
G36*
X2395Y2500D02*
X2395Y2498D01*
X2399Y2498D01*
X2399Y2493D01*
X2400Y2493D01*
X2400Y2492D01*
X2402Y2492D01*
X2402Y2488D01*
X2410Y2488D01*
X2410Y2487D01*
X2392Y2487D01*
X2392Y2488D01*
X2390Y2488D01*
X2390Y2490D01*
X2389Y2490D01*
X2389Y2498D01*
X2390Y2498D01*
X2390Y2500D01*
X2395Y2500D01*
G37*
D02*
G36*
X2197Y2495D02*
X2197Y2493D01*
X2131Y2493D01*
X2131Y2495D01*
X2197Y2495D01*
G37*
D02*
G36*
X2197Y2495D02*
X2197Y2493D01*
X2131Y2493D01*
X2131Y2495D01*
X2197Y2495D01*
G37*
D02*
G36*
X2197Y2493D02*
X2197Y2492D01*
X2195Y2492D01*
X2195Y2490D01*
X2161Y2490D01*
X2161Y2488D01*
X2148Y2488D01*
X2148Y2490D01*
X2141Y2490D01*
X2141Y2492D01*
X2136Y2492D01*
X2136Y2493D01*
X2197Y2493D01*
G37*
D02*
G36*
X2100Y2493D02*
X2100Y2492D01*
X2059Y2492D01*
X2059Y2493D01*
X2100Y2493D01*
G37*
D02*
G36*
X2100Y2493D02*
X2100Y2492D01*
X2059Y2492D01*
X2059Y2493D01*
X2100Y2493D01*
G37*
D02*
G36*
X2100Y2493D02*
X2100Y2492D01*
X2059Y2492D01*
X2059Y2493D01*
X2100Y2493D01*
G37*
D02*
G36*
X2100Y2492D02*
X2100Y2490D01*
X2098Y2490D01*
X2098Y2488D01*
X2066Y2488D01*
X2066Y2487D01*
X2064Y2487D01*
X2064Y2485D01*
X2062Y2485D01*
X2062Y2482D01*
X2061Y2482D01*
X2061Y2480D01*
X2059Y2480D01*
X2059Y2475D01*
X2057Y2475D01*
X2057Y2472D01*
X2056Y2472D01*
X2056Y2460D01*
X2057Y2460D01*
X2057Y2454D01*
X2059Y2454D01*
X2059Y2449D01*
X2061Y2449D01*
X2061Y2446D01*
X2062Y2446D01*
X2062Y2442D01*
X2064Y2442D01*
X2064Y2441D01*
X2066Y2441D01*
X2066Y2437D01*
X2067Y2437D01*
X2067Y2436D01*
X2069Y2436D01*
X2069Y2432D01*
X2057Y2432D01*
X2057Y2437D01*
X2056Y2437D01*
X2056Y2444D01*
X2054Y2444D01*
X2054Y2446D01*
X2053Y2446D01*
X2053Y2447D01*
X2051Y2447D01*
X2051Y2457D01*
X2049Y2457D01*
X2049Y2460D01*
X2048Y2460D01*
X2048Y2472D01*
X2049Y2472D01*
X2049Y2477D01*
X2051Y2477D01*
X2051Y2482D01*
X2053Y2482D01*
X2053Y2483D01*
X2054Y2483D01*
X2054Y2487D01*
X2056Y2487D01*
X2056Y2488D01*
X2057Y2488D01*
X2057Y2492D01*
X2100Y2492D01*
G37*
D02*
G36*
X2195Y2490D02*
X2195Y2487D01*
X2197Y2487D01*
X2197Y2483D01*
X2200Y2483D01*
X2200Y2480D01*
X2202Y2480D01*
X2202Y2478D01*
X2205Y2478D01*
X2205Y2477D01*
X2207Y2477D01*
X2207Y2475D01*
X2212Y2475D01*
X2212Y2473D01*
X2195Y2473D01*
X2195Y2475D01*
X2194Y2475D01*
X2194Y2477D01*
X2192Y2477D01*
X2192Y2478D01*
X2190Y2478D01*
X2190Y2482D01*
X2189Y2482D01*
X2189Y2485D01*
X2185Y2485D01*
X2185Y2488D01*
X2184Y2488D01*
X2184Y2490D01*
X2195Y2490D01*
G37*
D02*
G36*
X2097Y2488D02*
X2097Y2487D01*
X2094Y2487D01*
X2094Y2483D01*
X2085Y2483D01*
X2085Y2482D01*
X2076Y2482D01*
X2076Y2483D01*
X2072Y2483D01*
X2072Y2487D01*
X2067Y2487D01*
X2067Y2488D01*
X2097Y2488D01*
G37*
D02*
G36*
X2428Y2487D02*
X2428Y2485D01*
X2392Y2485D01*
X2392Y2487D01*
X2428Y2487D01*
G37*
D02*
G36*
X2428Y2487D02*
X2428Y2485D01*
X2392Y2485D01*
X2392Y2487D01*
X2428Y2487D01*
G37*
D02*
G36*
X2351Y2487D02*
X2351Y2483D01*
X2349Y2483D01*
X2349Y2475D01*
X2348Y2475D01*
X2348Y2470D01*
X2349Y2470D01*
X2349Y2467D01*
X2351Y2467D01*
X2351Y2465D01*
X2353Y2465D01*
X2353Y2464D01*
X2354Y2464D01*
X2354Y2462D01*
X2356Y2462D01*
X2356Y2460D01*
X2361Y2460D01*
X2361Y2459D01*
X2366Y2459D01*
X2366Y2457D01*
X2374Y2457D01*
X2374Y2455D01*
X2348Y2455D01*
X2348Y2457D01*
X2346Y2457D01*
X2346Y2459D01*
X2345Y2459D01*
X2345Y2462D01*
X2343Y2462D01*
X2343Y2464D01*
X2341Y2464D01*
X2341Y2465D01*
X2340Y2465D01*
X2340Y2470D01*
X2338Y2470D01*
X2338Y2472D01*
X2340Y2472D01*
X2340Y2475D01*
X2338Y2475D01*
X2338Y2478D01*
X2340Y2478D01*
X2340Y2487D01*
X2351Y2487D01*
G37*
D02*
G36*
X2427Y2485D02*
X2427Y2483D01*
X2423Y2483D01*
X2423Y2482D01*
X2415Y2482D01*
X2415Y2480D01*
X2405Y2480D01*
X2405Y2478D01*
X2402Y2478D01*
X2402Y2477D01*
X2400Y2477D01*
X2400Y2473D01*
X2399Y2473D01*
X2399Y2470D01*
X2397Y2470D01*
X2397Y2465D01*
X2395Y2465D01*
X2395Y2460D01*
X2394Y2460D01*
X2394Y2459D01*
X2392Y2459D01*
X2392Y2455D01*
X2382Y2455D01*
X2382Y2457D01*
X2384Y2457D01*
X2384Y2462D01*
X2386Y2462D01*
X2386Y2465D01*
X2387Y2465D01*
X2387Y2472D01*
X2389Y2472D01*
X2389Y2475D01*
X2390Y2475D01*
X2390Y2478D01*
X2392Y2478D01*
X2392Y2483D01*
X2394Y2483D01*
X2394Y2485D01*
X2427Y2485D01*
G37*
D02*
G36*
X2276Y2485D02*
X2276Y2483D01*
X2272Y2483D01*
X2272Y2485D01*
X2276Y2485D01*
G37*
D02*
G36*
X2327Y2483D02*
X2327Y2482D01*
X2261Y2482D01*
X2261Y2483D01*
X2327Y2483D01*
G37*
D02*
G36*
X2327Y2483D02*
X2327Y2482D01*
X2261Y2482D01*
X2261Y2483D01*
X2327Y2483D01*
G37*
D02*
G36*
X2327Y2483D02*
X2327Y2482D01*
X2261Y2482D01*
X2261Y2483D01*
X2327Y2483D01*
G37*
D02*
G36*
X2095Y2483D02*
X2095Y2480D01*
X2097Y2480D01*
X2097Y2465D01*
X2095Y2465D01*
X2095Y2464D01*
X2094Y2464D01*
X2094Y2462D01*
X2092Y2462D01*
X2092Y2460D01*
X2089Y2460D01*
X2089Y2457D01*
X2087Y2457D01*
X2087Y2455D01*
X2085Y2455D01*
X2085Y2454D01*
X2084Y2454D01*
X2084Y2451D01*
X2082Y2451D01*
X2082Y2439D01*
X2072Y2439D01*
X2072Y2446D01*
X2074Y2446D01*
X2074Y2452D01*
X2076Y2452D01*
X2076Y2455D01*
X2077Y2455D01*
X2077Y2459D01*
X2079Y2459D01*
X2079Y2460D01*
X2080Y2460D01*
X2080Y2462D01*
X2082Y2462D01*
X2082Y2464D01*
X2084Y2464D01*
X2084Y2465D01*
X2085Y2465D01*
X2085Y2467D01*
X2089Y2467D01*
X2089Y2472D01*
X2090Y2472D01*
X2090Y2477D01*
X2089Y2477D01*
X2089Y2483D01*
X2095Y2483D01*
G37*
D02*
G36*
X2418Y2482D02*
X2418Y2480D01*
X2417Y2480D01*
X2417Y2482D01*
X2418Y2482D01*
G37*
D02*
G36*
X2322Y2482D02*
X2322Y2480D01*
X2318Y2480D01*
X2318Y2478D01*
X2305Y2478D01*
X2305Y2477D01*
X2297Y2477D01*
X2297Y2475D01*
X2276Y2475D01*
X2276Y2473D01*
X2274Y2473D01*
X2274Y2470D01*
X2272Y2470D01*
X2272Y2464D01*
X2271Y2464D01*
X2271Y2462D01*
X2251Y2462D01*
X2251Y2464D01*
X2256Y2464D01*
X2256Y2465D01*
X2259Y2465D01*
X2259Y2467D01*
X2263Y2467D01*
X2263Y2469D01*
X2264Y2469D01*
X2264Y2473D01*
X2266Y2473D01*
X2266Y2478D01*
X2264Y2478D01*
X2264Y2480D01*
X2263Y2480D01*
X2263Y2482D01*
X2322Y2482D01*
G37*
D02*
G36*
X2231Y2473D02*
X2231Y2472D01*
X2199Y2472D01*
X2199Y2473D01*
X2231Y2473D01*
G37*
D02*
G36*
X2231Y2473D02*
X2231Y2472D01*
X2199Y2472D01*
X2199Y2473D01*
X2231Y2473D01*
G37*
D02*
G36*
X2233Y2472D02*
X2233Y2470D01*
X2235Y2470D01*
X2235Y2469D01*
X2236Y2469D01*
X2236Y2467D01*
X2238Y2467D01*
X2238Y2465D01*
X2243Y2465D01*
X2243Y2464D01*
X2208Y2464D01*
X2208Y2465D01*
X2207Y2465D01*
X2207Y2467D01*
X2205Y2467D01*
X2205Y2469D01*
X2203Y2469D01*
X2203Y2470D01*
X2202Y2470D01*
X2202Y2472D01*
X2233Y2472D01*
G37*
D02*
G36*
X2246Y2465D02*
X2246Y2464D01*
X2244Y2464D01*
X2244Y2465D01*
X2246Y2465D01*
G37*
D02*
G36*
X2248Y2464D02*
X2248Y2462D01*
X2225Y2462D01*
X2225Y2464D01*
X2248Y2464D01*
G37*
D02*
G36*
X2248Y2464D02*
X2248Y2462D01*
X2225Y2462D01*
X2225Y2464D01*
X2248Y2464D01*
G37*
D02*
G36*
X2267Y2462D02*
X2267Y2460D01*
X2230Y2460D01*
X2230Y2462D01*
X2267Y2462D01*
G37*
D02*
G36*
X2267Y2462D02*
X2267Y2460D01*
X2230Y2460D01*
X2230Y2462D01*
X2267Y2462D01*
G37*
D02*
G36*
X2263Y2460D02*
X2263Y2459D01*
X2259Y2459D01*
X2259Y2457D01*
X2258Y2457D01*
X2258Y2455D01*
X2254Y2455D01*
X2254Y2454D01*
X2243Y2454D01*
X2243Y2457D01*
X2238Y2457D01*
X2238Y2459D01*
X2231Y2459D01*
X2231Y2460D01*
X2263Y2460D01*
G37*
D02*
G36*
X2390Y2455D02*
X2390Y2454D01*
X2349Y2454D01*
X2349Y2455D01*
X2390Y2455D01*
G37*
D02*
G36*
X2390Y2455D02*
X2390Y2454D01*
X2349Y2454D01*
X2349Y2455D01*
X2390Y2455D01*
G37*
D02*
G36*
X2387Y2454D02*
X2387Y2447D01*
X2366Y2447D01*
X2366Y2446D01*
X2364Y2446D01*
X2364Y2442D01*
X2363Y2442D01*
X2363Y2441D01*
X2364Y2441D01*
X2364Y2431D01*
X2363Y2431D01*
X2363Y2419D01*
X2364Y2419D01*
X2364Y2416D01*
X2366Y2416D01*
X2366Y2413D01*
X2356Y2413D01*
X2356Y2414D01*
X2354Y2414D01*
X2354Y2418D01*
X2353Y2418D01*
X2353Y2426D01*
X2351Y2426D01*
X2351Y2428D01*
X2353Y2428D01*
X2353Y2442D01*
X2354Y2442D01*
X2354Y2452D01*
X2351Y2452D01*
X2351Y2454D01*
X2387Y2454D01*
G37*
D02*
G36*
X2386Y2447D02*
X2386Y2446D01*
X2377Y2446D01*
X2377Y2444D01*
X2374Y2444D01*
X2374Y2447D01*
X2386Y2447D01*
G37*
D02*
G36*
X2113Y2442D02*
X2113Y2441D01*
X2117Y2441D01*
X2117Y2439D01*
X2085Y2439D01*
X2085Y2441D01*
X2100Y2441D01*
X2100Y2442D01*
X2113Y2442D01*
G37*
D02*
G36*
X2038Y2441D02*
X2038Y2439D01*
X2041Y2439D01*
X2041Y2437D01*
X2048Y2437D01*
X2048Y2436D01*
X2051Y2436D01*
X2051Y2434D01*
X2054Y2434D01*
X2054Y2432D01*
X2031Y2432D01*
X2031Y2429D01*
X2030Y2429D01*
X2030Y2428D01*
X2031Y2428D01*
X2031Y2424D01*
X2036Y2424D01*
X2036Y2423D01*
X2039Y2423D01*
X2039Y2421D01*
X2023Y2421D01*
X2023Y2428D01*
X2021Y2428D01*
X2021Y2432D01*
X2023Y2432D01*
X2023Y2436D01*
X2025Y2436D01*
X2025Y2437D01*
X2026Y2437D01*
X2026Y2439D01*
X2028Y2439D01*
X2028Y2441D01*
X2038Y2441D01*
G37*
D02*
G36*
X2117Y2439D02*
X2117Y2437D01*
X2072Y2437D01*
X2072Y2439D01*
X2117Y2439D01*
G37*
D02*
G36*
X2117Y2439D02*
X2117Y2437D01*
X2072Y2437D01*
X2072Y2439D01*
X2117Y2439D01*
G37*
D02*
G36*
X2117Y2437D02*
X2117Y2434D01*
X2094Y2434D01*
X2094Y2432D01*
X2097Y2432D01*
X2097Y2431D01*
X2074Y2431D01*
X2074Y2436D01*
X2072Y2436D01*
X2072Y2437D01*
X2117Y2437D01*
G37*
D02*
G36*
X2117Y2434D02*
X2117Y2431D01*
X2102Y2431D01*
X2102Y2432D01*
X2103Y2432D01*
X2103Y2434D01*
X2117Y2434D01*
G37*
D02*
G36*
X2071Y2432D02*
X2071Y2431D01*
X2039Y2431D01*
X2039Y2432D01*
X2071Y2432D01*
G37*
D02*
G36*
X2071Y2432D02*
X2071Y2431D01*
X2039Y2431D01*
X2039Y2432D01*
X2071Y2432D01*
G37*
D02*
G36*
X2115Y2431D02*
X2115Y2429D01*
X2076Y2429D01*
X2076Y2431D01*
X2115Y2431D01*
G37*
D02*
G36*
X2115Y2431D02*
X2115Y2429D01*
X2076Y2429D01*
X2076Y2431D01*
X2115Y2431D01*
G37*
D02*
G36*
X2071Y2431D02*
X2071Y2421D01*
X2053Y2421D01*
X2053Y2424D01*
X2049Y2424D01*
X2049Y2426D01*
X2048Y2426D01*
X2048Y2428D01*
X2044Y2428D01*
X2044Y2429D01*
X2041Y2429D01*
X2041Y2431D01*
X2071Y2431D01*
G37*
D02*
G36*
X2113Y2429D02*
X2113Y2428D01*
X2112Y2428D01*
X2112Y2426D01*
X2110Y2426D01*
X2110Y2424D01*
X2105Y2424D01*
X2105Y2423D01*
X2090Y2423D01*
X2090Y2424D01*
X2085Y2424D01*
X2085Y2426D01*
X2080Y2426D01*
X2080Y2428D01*
X2079Y2428D01*
X2079Y2429D01*
X2113Y2429D01*
G37*
D02*
G36*
X2043Y2423D02*
X2043Y2421D01*
X2041Y2421D01*
X2041Y2423D01*
X2043Y2423D01*
G37*
D02*
G36*
X2405Y2421D02*
X2405Y2419D01*
X2409Y2419D01*
X2409Y2418D01*
X2412Y2418D01*
X2412Y2414D01*
X2413Y2414D01*
X2413Y2405D01*
X2399Y2405D01*
X2399Y2406D01*
X2400Y2406D01*
X2400Y2408D01*
X2402Y2408D01*
X2402Y2410D01*
X2404Y2410D01*
X2404Y2411D01*
X2402Y2411D01*
X2402Y2413D01*
X2374Y2413D01*
X2374Y2414D01*
X2379Y2414D01*
X2379Y2416D01*
X2384Y2416D01*
X2384Y2418D01*
X2387Y2418D01*
X2387Y2419D01*
X2394Y2419D01*
X2394Y2421D01*
X2405Y2421D01*
G37*
D02*
G36*
X2069Y2421D02*
X2069Y2419D01*
X2025Y2419D01*
X2025Y2421D01*
X2069Y2421D01*
G37*
D02*
G36*
X2069Y2421D02*
X2069Y2419D01*
X2025Y2419D01*
X2025Y2421D01*
X2069Y2421D01*
G37*
D02*
G36*
X2069Y2421D02*
X2069Y2419D01*
X2025Y2419D01*
X2025Y2421D01*
X2069Y2421D01*
G37*
D02*
G36*
X2066Y2419D02*
X2066Y2418D01*
X2064Y2418D01*
X2064Y2416D01*
X2059Y2416D01*
X2059Y2414D01*
X2043Y2414D01*
X2043Y2413D01*
X2041Y2413D01*
X2041Y2414D01*
X2035Y2414D01*
X2035Y2416D01*
X2031Y2416D01*
X2031Y2418D01*
X2026Y2418D01*
X2026Y2419D01*
X2066Y2419D01*
G37*
D02*
G36*
X2394Y2413D02*
X2394Y2411D01*
X2356Y2411D01*
X2356Y2413D01*
X2394Y2413D01*
G37*
D02*
G36*
X2394Y2413D02*
X2394Y2411D01*
X2356Y2411D01*
X2356Y2413D01*
X2394Y2413D01*
G37*
D02*
G36*
X2392Y2411D02*
X2392Y2410D01*
X2389Y2410D01*
X2389Y2408D01*
X2387Y2408D01*
X2387Y2406D01*
X2384Y2406D01*
X2384Y2405D01*
X2376Y2405D01*
X2376Y2403D01*
X2374Y2403D01*
X2374Y2401D01*
X2372Y2401D01*
X2372Y2400D01*
X2374Y2400D01*
X2374Y2398D01*
X2376Y2398D01*
X2376Y2396D01*
X2364Y2396D01*
X2364Y2398D01*
X2363Y2398D01*
X2363Y2400D01*
X2361Y2400D01*
X2361Y2401D01*
X2363Y2401D01*
X2363Y2403D01*
X2361Y2403D01*
X2361Y2405D01*
X2359Y2405D01*
X2359Y2408D01*
X2358Y2408D01*
X2358Y2410D01*
X2356Y2410D01*
X2356Y2411D01*
X2392Y2411D01*
G37*
D02*
G36*
X2397Y2406D02*
X2397Y2405D01*
X2395Y2405D01*
X2395Y2406D01*
X2397Y2406D01*
G37*
D02*
G36*
X2412Y2405D02*
X2412Y2403D01*
X2395Y2403D01*
X2395Y2405D01*
X2412Y2405D01*
G37*
D02*
G36*
X2412Y2405D02*
X2412Y2403D01*
X2395Y2403D01*
X2395Y2405D01*
X2412Y2405D01*
G37*
D02*
G36*
X2410Y2403D02*
X2410Y2401D01*
X2407Y2401D01*
X2407Y2400D01*
X2405Y2400D01*
X2405Y2398D01*
X2400Y2398D01*
X2400Y2396D01*
X2382Y2396D01*
X2382Y2398D01*
X2387Y2398D01*
X2387Y2400D01*
X2392Y2400D01*
X2392Y2401D01*
X2394Y2401D01*
X2394Y2403D01*
X2410Y2403D01*
G37*
D02*
G36*
X2397Y2396D02*
X2397Y2395D01*
X2364Y2395D01*
X2364Y2396D01*
X2397Y2396D01*
G37*
D02*
G36*
X2397Y2396D02*
X2397Y2395D01*
X2364Y2395D01*
X2364Y2396D01*
X2397Y2396D01*
G37*
D02*
G36*
X2394Y2395D02*
X2394Y2393D01*
X2390Y2393D01*
X2390Y2391D01*
X2389Y2391D01*
X2389Y2390D01*
X2384Y2390D01*
X2384Y2388D01*
X2371Y2388D01*
X2371Y2390D01*
X2368Y2390D01*
X2368Y2391D01*
X2366Y2391D01*
X2366Y2393D01*
X2364Y2393D01*
X2364Y2395D01*
X2394Y2395D01*
G37*
D02*
G54D12*
X302Y2696D02*
X308Y2696D01*
X1353Y2696D02*
X1359Y2696D01*
X302Y2695D02*
X309Y2695D01*
X1352Y2695D02*
X1360Y2695D01*
X214Y2694D02*
X229Y2694D01*
X301Y2694D02*
X309Y2694D01*
X338Y2694D02*
X357Y2694D01*
X382Y2694D02*
X401Y2694D01*
X425Y2694D02*
X448Y2694D01*
X467Y2694D02*
X467Y2694D01*
X518Y2694D02*
X537Y2694D01*
X554Y2694D02*
X565Y2694D01*
X603Y2694D02*
X625Y2694D01*
X841Y2694D02*
X842Y2694D01*
X910Y2694D02*
X931Y2694D01*
X948Y2694D02*
X949Y2694D01*
X1191Y2694D02*
X1192Y2694D01*
X1279Y2694D02*
X1279Y2694D01*
X1352Y2694D02*
X1360Y2694D01*
X214Y2693D02*
X230Y2693D01*
X301Y2693D02*
X309Y2693D01*
X336Y2693D02*
X359Y2693D01*
X380Y2693D02*
X403Y2693D01*
X423Y2693D02*
X449Y2693D01*
X465Y2693D02*
X469Y2693D01*
X515Y2693D02*
X537Y2693D01*
X553Y2693D02*
X568Y2693D01*
X601Y2693D02*
X625Y2693D01*
X839Y2693D02*
X843Y2693D01*
X907Y2693D02*
X931Y2693D01*
X947Y2693D02*
X950Y2693D01*
X1190Y2693D02*
X1193Y2693D01*
X1277Y2693D02*
X1281Y2693D01*
X1352Y2693D02*
X1360Y2693D01*
X214Y2692D02*
X231Y2692D01*
X301Y2692D02*
X309Y2692D01*
X335Y2692D02*
X361Y2692D01*
X378Y2692D02*
X404Y2692D01*
X422Y2692D02*
X450Y2692D01*
X465Y2692D02*
X470Y2692D01*
X514Y2692D02*
X537Y2692D01*
X552Y2692D02*
X569Y2692D01*
X599Y2692D02*
X625Y2692D01*
X839Y2692D02*
X844Y2692D01*
X906Y2692D02*
X931Y2692D01*
X946Y2692D02*
X951Y2692D01*
X1189Y2692D02*
X1194Y2692D01*
X1277Y2692D02*
X1281Y2692D01*
X1352Y2692D02*
X1360Y2692D01*
X214Y2691D02*
X231Y2691D01*
X301Y2691D02*
X309Y2691D01*
X334Y2691D02*
X361Y2691D01*
X378Y2691D02*
X405Y2691D01*
X421Y2691D02*
X450Y2691D01*
X464Y2691D02*
X470Y2691D01*
X512Y2691D02*
X537Y2691D01*
X552Y2691D02*
X570Y2691D01*
X598Y2691D02*
X625Y2691D01*
X839Y2691D02*
X844Y2691D01*
X904Y2691D02*
X931Y2691D01*
X946Y2691D02*
X952Y2691D01*
X1189Y2691D02*
X1194Y2691D01*
X1276Y2691D02*
X1281Y2691D01*
X1315Y2691D02*
X1318Y2691D01*
X1352Y2691D02*
X1360Y2691D01*
X214Y2690D02*
X231Y2690D01*
X302Y2690D02*
X309Y2690D01*
X333Y2690D02*
X362Y2690D01*
X377Y2690D02*
X406Y2690D01*
X421Y2690D02*
X450Y2690D01*
X465Y2690D02*
X471Y2690D01*
X511Y2690D02*
X537Y2690D01*
X552Y2690D02*
X571Y2690D01*
X597Y2690D02*
X625Y2690D01*
X839Y2690D02*
X844Y2690D01*
X904Y2690D02*
X931Y2690D01*
X946Y2690D02*
X952Y2690D01*
X1189Y2690D02*
X1194Y2690D01*
X1276Y2690D02*
X1282Y2690D01*
X1315Y2690D02*
X1319Y2690D01*
X1352Y2690D02*
X1360Y2690D01*
X214Y2689D02*
X230Y2689D01*
X302Y2689D02*
X309Y2689D01*
X333Y2689D02*
X362Y2689D01*
X377Y2689D02*
X406Y2689D01*
X421Y2689D02*
X449Y2689D01*
X465Y2689D02*
X471Y2689D01*
X511Y2689D02*
X537Y2689D01*
X553Y2689D02*
X572Y2689D01*
X597Y2689D02*
X625Y2689D01*
X839Y2689D02*
X844Y2689D01*
X903Y2689D02*
X931Y2689D01*
X947Y2689D02*
X953Y2689D01*
X1189Y2689D02*
X1194Y2689D01*
X1276Y2689D02*
X1282Y2689D01*
X1314Y2689D02*
X1319Y2689D01*
X1353Y2689D02*
X1359Y2689D01*
X214Y2688D02*
X219Y2688D01*
X333Y2688D02*
X339Y2688D01*
X357Y2688D02*
X362Y2688D01*
X377Y2688D02*
X382Y2688D01*
X400Y2688D02*
X406Y2688D01*
X421Y2688D02*
X426Y2688D01*
X466Y2688D02*
X472Y2688D01*
X510Y2688D02*
X519Y2688D01*
X532Y2688D02*
X537Y2688D01*
X564Y2688D02*
X572Y2688D01*
X596Y2688D02*
X604Y2688D01*
X619Y2688D02*
X625Y2688D01*
X839Y2688D02*
X844Y2688D01*
X903Y2688D02*
X910Y2688D01*
X926Y2688D02*
X931Y2688D01*
X947Y2688D02*
X953Y2688D01*
X1189Y2688D02*
X1194Y2688D01*
X1276Y2688D02*
X1282Y2688D01*
X1314Y2688D02*
X1319Y2688D01*
X214Y2687D02*
X219Y2687D01*
X333Y2687D02*
X338Y2687D01*
X357Y2687D02*
X362Y2687D01*
X377Y2687D02*
X382Y2687D01*
X401Y2687D02*
X406Y2687D01*
X421Y2687D02*
X426Y2687D01*
X466Y2687D02*
X472Y2687D01*
X509Y2687D02*
X516Y2687D01*
X532Y2687D02*
X537Y2687D01*
X566Y2687D02*
X573Y2687D01*
X596Y2687D02*
X602Y2687D01*
X620Y2687D02*
X625Y2687D01*
X839Y2687D02*
X844Y2687D01*
X902Y2687D02*
X908Y2687D01*
X926Y2687D02*
X931Y2687D01*
X948Y2687D02*
X954Y2687D01*
X1189Y2687D02*
X1194Y2687D01*
X1276Y2687D02*
X1282Y2687D01*
X1314Y2687D02*
X1319Y2687D01*
X214Y2686D02*
X219Y2686D01*
X333Y2686D02*
X338Y2686D01*
X357Y2686D02*
X362Y2686D01*
X377Y2686D02*
X382Y2686D01*
X401Y2686D02*
X406Y2686D01*
X421Y2686D02*
X426Y2686D01*
X467Y2686D02*
X473Y2686D01*
X509Y2686D02*
X515Y2686D01*
X532Y2686D02*
X537Y2686D01*
X567Y2686D02*
X574Y2686D01*
X596Y2686D02*
X601Y2686D01*
X620Y2686D02*
X625Y2686D01*
X839Y2686D02*
X844Y2686D01*
X902Y2686D02*
X907Y2686D01*
X926Y2686D02*
X931Y2686D01*
X948Y2686D02*
X955Y2686D01*
X1189Y2686D02*
X1194Y2686D01*
X1276Y2686D02*
X1282Y2686D01*
X1314Y2686D02*
X1319Y2686D01*
X214Y2685D02*
X219Y2685D01*
X333Y2685D02*
X338Y2685D01*
X357Y2685D02*
X362Y2685D01*
X377Y2685D02*
X382Y2685D01*
X401Y2685D02*
X406Y2685D01*
X421Y2685D02*
X426Y2685D01*
X467Y2685D02*
X474Y2685D01*
X509Y2685D02*
X514Y2685D01*
X532Y2685D02*
X537Y2685D01*
X568Y2685D02*
X575Y2685D01*
X596Y2685D02*
X601Y2685D01*
X620Y2685D02*
X625Y2685D01*
X839Y2685D02*
X844Y2685D01*
X902Y2685D02*
X907Y2685D01*
X926Y2685D02*
X931Y2685D01*
X949Y2685D02*
X955Y2685D01*
X1189Y2685D02*
X1194Y2685D01*
X1276Y2685D02*
X1282Y2685D01*
X1314Y2685D02*
X1319Y2685D01*
X214Y2684D02*
X219Y2684D01*
X333Y2684D02*
X338Y2684D01*
X357Y2684D02*
X362Y2684D01*
X377Y2684D02*
X382Y2684D01*
X401Y2684D02*
X406Y2684D01*
X421Y2684D02*
X426Y2684D01*
X468Y2684D02*
X474Y2684D01*
X508Y2684D02*
X514Y2684D01*
X532Y2684D02*
X537Y2684D01*
X569Y2684D02*
X575Y2684D01*
X596Y2684D02*
X601Y2684D01*
X620Y2684D02*
X625Y2684D01*
X839Y2684D02*
X844Y2684D01*
X902Y2684D02*
X907Y2684D01*
X926Y2684D02*
X931Y2684D01*
X950Y2684D02*
X956Y2684D01*
X1189Y2684D02*
X1194Y2684D01*
X1276Y2684D02*
X1282Y2684D01*
X1314Y2684D02*
X1319Y2684D01*
X214Y2683D02*
X219Y2683D01*
X333Y2683D02*
X338Y2683D01*
X357Y2683D02*
X362Y2683D01*
X377Y2683D02*
X382Y2683D01*
X401Y2683D02*
X406Y2683D01*
X421Y2683D02*
X426Y2683D01*
X469Y2683D02*
X475Y2683D01*
X508Y2683D02*
X513Y2683D01*
X532Y2683D02*
X537Y2683D01*
X569Y2683D02*
X576Y2683D01*
X596Y2683D02*
X601Y2683D01*
X620Y2683D02*
X625Y2683D01*
X839Y2683D02*
X844Y2683D01*
X902Y2683D02*
X907Y2683D01*
X926Y2683D02*
X931Y2683D01*
X950Y2683D02*
X956Y2683D01*
X1189Y2683D02*
X1194Y2683D01*
X1276Y2683D02*
X1282Y2683D01*
X1314Y2683D02*
X1319Y2683D01*
X214Y2682D02*
X219Y2682D01*
X333Y2682D02*
X338Y2682D01*
X357Y2682D02*
X362Y2682D01*
X377Y2682D02*
X382Y2682D01*
X401Y2682D02*
X406Y2682D01*
X421Y2682D02*
X426Y2682D01*
X469Y2682D02*
X475Y2682D01*
X508Y2682D02*
X513Y2682D01*
X532Y2682D02*
X537Y2682D01*
X570Y2682D02*
X577Y2682D01*
X596Y2682D02*
X601Y2682D01*
X620Y2682D02*
X625Y2682D01*
X839Y2682D02*
X844Y2682D01*
X902Y2682D02*
X907Y2682D01*
X926Y2682D02*
X931Y2682D01*
X951Y2682D02*
X957Y2682D01*
X1189Y2682D02*
X1194Y2682D01*
X1276Y2682D02*
X1282Y2682D01*
X1314Y2682D02*
X1319Y2682D01*
X214Y2681D02*
X219Y2681D01*
X253Y2681D02*
X260Y2681D01*
X271Y2681D02*
X273Y2681D01*
X303Y2681D02*
X314Y2681D01*
X333Y2681D02*
X338Y2681D01*
X357Y2681D02*
X362Y2681D01*
X377Y2681D02*
X382Y2681D01*
X401Y2681D02*
X406Y2681D01*
X421Y2681D02*
X426Y2681D01*
X470Y2681D02*
X476Y2681D01*
X508Y2681D02*
X513Y2681D01*
X532Y2681D02*
X537Y2681D01*
X571Y2681D02*
X578Y2681D01*
X596Y2681D02*
X601Y2681D01*
X620Y2681D02*
X625Y2681D01*
X647Y2681D02*
X661Y2681D01*
X685Y2681D02*
X700Y2681D01*
X729Y2681D02*
X744Y2681D01*
X780Y2681D02*
X791Y2681D01*
X824Y2681D02*
X832Y2681D01*
X839Y2681D02*
X844Y2681D01*
X867Y2681D02*
X879Y2681D01*
X902Y2681D02*
X907Y2681D01*
X926Y2681D02*
X931Y2681D01*
X951Y2681D02*
X957Y2681D01*
X996Y2681D02*
X997Y2681D01*
X1007Y2681D02*
X1010Y2681D01*
X1016Y2681D02*
X1018Y2681D01*
X1042Y2681D02*
X1054Y2681D01*
X1079Y2681D02*
X1094Y2681D01*
X1174Y2681D02*
X1182Y2681D01*
X1189Y2681D02*
X1194Y2681D01*
X1210Y2681D02*
X1212Y2681D01*
X1234Y2681D02*
X1236Y2681D01*
X1260Y2681D02*
X1267Y2681D01*
X1276Y2681D02*
X1282Y2681D01*
X1301Y2681D02*
X1324Y2681D01*
X1354Y2681D02*
X1364Y2681D01*
X1385Y2681D02*
X1387Y2681D01*
X1396Y2681D02*
X1404Y2681D01*
X214Y2680D02*
X219Y2680D01*
X251Y2680D02*
X262Y2680D01*
X270Y2680D02*
X274Y2680D01*
X302Y2680D02*
X315Y2680D01*
X333Y2680D02*
X338Y2680D01*
X357Y2680D02*
X362Y2680D01*
X377Y2680D02*
X382Y2680D01*
X401Y2680D02*
X406Y2680D01*
X421Y2680D02*
X426Y2680D01*
X470Y2680D02*
X477Y2680D01*
X508Y2680D02*
X513Y2680D01*
X532Y2680D02*
X537Y2680D01*
X572Y2680D02*
X579Y2680D01*
X596Y2680D02*
X602Y2680D01*
X620Y2680D02*
X625Y2680D01*
X645Y2680D02*
X662Y2680D01*
X684Y2680D02*
X703Y2680D01*
X728Y2680D02*
X747Y2680D01*
X777Y2680D02*
X793Y2680D01*
X821Y2680D02*
X834Y2680D01*
X839Y2680D02*
X844Y2680D01*
X865Y2680D02*
X881Y2680D01*
X902Y2680D02*
X908Y2680D01*
X926Y2680D02*
X931Y2680D01*
X952Y2680D02*
X958Y2680D01*
X994Y2680D02*
X1000Y2680D01*
X1005Y2680D02*
X1012Y2680D01*
X1015Y2680D02*
X1019Y2680D01*
X1040Y2680D02*
X1056Y2680D01*
X1078Y2680D02*
X1097Y2680D01*
X1171Y2680D02*
X1184Y2680D01*
X1189Y2680D02*
X1194Y2680D01*
X1209Y2680D02*
X1213Y2680D01*
X1233Y2680D02*
X1237Y2680D01*
X1257Y2680D02*
X1269Y2680D01*
X1276Y2680D02*
X1282Y2680D01*
X1300Y2680D02*
X1325Y2680D01*
X1353Y2680D02*
X1365Y2680D01*
X1384Y2680D02*
X1388Y2680D01*
X1393Y2680D02*
X1406Y2680D01*
X214Y2679D02*
X219Y2679D01*
X249Y2679D02*
X264Y2679D01*
X270Y2679D02*
X275Y2679D01*
X301Y2679D02*
X315Y2679D01*
X333Y2679D02*
X338Y2679D01*
X357Y2679D02*
X362Y2679D01*
X377Y2679D02*
X382Y2679D01*
X401Y2679D02*
X406Y2679D01*
X421Y2679D02*
X426Y2679D01*
X471Y2679D02*
X477Y2679D01*
X508Y2679D02*
X513Y2679D01*
X532Y2679D02*
X537Y2679D01*
X573Y2679D02*
X579Y2679D01*
X596Y2679D02*
X603Y2679D01*
X620Y2679D02*
X625Y2679D01*
X643Y2679D02*
X663Y2679D01*
X683Y2679D02*
X704Y2679D01*
X727Y2679D02*
X748Y2679D01*
X776Y2679D02*
X795Y2679D01*
X820Y2679D02*
X836Y2679D01*
X839Y2679D02*
X844Y2679D01*
X864Y2679D02*
X882Y2679D01*
X903Y2679D02*
X909Y2679D01*
X926Y2679D02*
X931Y2679D01*
X953Y2679D02*
X959Y2679D01*
X992Y2679D02*
X1002Y2679D01*
X1004Y2679D02*
X1019Y2679D01*
X1039Y2679D02*
X1057Y2679D01*
X1077Y2679D02*
X1098Y2679D01*
X1170Y2679D02*
X1186Y2679D01*
X1189Y2679D02*
X1194Y2679D01*
X1209Y2679D02*
X1214Y2679D01*
X1233Y2679D02*
X1238Y2679D01*
X1256Y2679D02*
X1271Y2679D01*
X1276Y2679D02*
X1282Y2679D01*
X1299Y2679D02*
X1325Y2679D01*
X1352Y2679D02*
X1366Y2679D01*
X1384Y2679D02*
X1389Y2679D01*
X1392Y2679D02*
X1408Y2679D01*
X214Y2678D02*
X219Y2678D01*
X248Y2678D02*
X266Y2678D01*
X270Y2678D02*
X275Y2678D01*
X301Y2678D02*
X315Y2678D01*
X333Y2678D02*
X338Y2678D01*
X357Y2678D02*
X362Y2678D01*
X377Y2678D02*
X382Y2678D01*
X401Y2678D02*
X406Y2678D01*
X421Y2678D02*
X426Y2678D01*
X472Y2678D02*
X478Y2678D01*
X508Y2678D02*
X514Y2678D01*
X532Y2678D02*
X537Y2678D01*
X573Y2678D02*
X580Y2678D01*
X597Y2678D02*
X625Y2678D01*
X642Y2678D02*
X663Y2678D01*
X683Y2678D02*
X706Y2678D01*
X727Y2678D02*
X749Y2678D01*
X775Y2678D02*
X796Y2678D01*
X819Y2678D02*
X844Y2678D01*
X862Y2678D02*
X883Y2678D01*
X903Y2678D02*
X931Y2678D01*
X953Y2678D02*
X959Y2678D01*
X991Y2678D02*
X1019Y2678D01*
X1037Y2678D02*
X1059Y2678D01*
X1077Y2678D02*
X1100Y2678D01*
X1169Y2678D02*
X1187Y2678D01*
X1189Y2678D02*
X1194Y2678D01*
X1209Y2678D02*
X1214Y2678D01*
X1233Y2678D02*
X1238Y2678D01*
X1255Y2678D02*
X1273Y2678D01*
X1276Y2678D02*
X1282Y2678D01*
X1299Y2678D02*
X1325Y2678D01*
X1352Y2678D02*
X1366Y2678D01*
X1384Y2678D02*
X1389Y2678D01*
X1391Y2678D02*
X1409Y2678D01*
X214Y2677D02*
X219Y2677D01*
X248Y2677D02*
X267Y2677D01*
X270Y2677D02*
X275Y2677D01*
X301Y2677D02*
X315Y2677D01*
X333Y2677D02*
X338Y2677D01*
X357Y2677D02*
X362Y2677D01*
X377Y2677D02*
X382Y2677D01*
X401Y2677D02*
X406Y2677D01*
X421Y2677D02*
X426Y2677D01*
X472Y2677D02*
X478Y2677D01*
X508Y2677D02*
X514Y2677D01*
X532Y2677D02*
X537Y2677D01*
X574Y2677D02*
X580Y2677D01*
X597Y2677D02*
X625Y2677D01*
X642Y2677D02*
X662Y2677D01*
X684Y2677D02*
X707Y2677D01*
X727Y2677D02*
X751Y2677D01*
X774Y2677D02*
X797Y2677D01*
X818Y2677D02*
X844Y2677D01*
X861Y2677D02*
X885Y2677D01*
X904Y2677D02*
X931Y2677D01*
X954Y2677D02*
X960Y2677D01*
X991Y2677D02*
X1019Y2677D01*
X1036Y2677D02*
X1060Y2677D01*
X1078Y2677D02*
X1101Y2677D01*
X1168Y2677D02*
X1194Y2677D01*
X1209Y2677D02*
X1214Y2677D01*
X1233Y2677D02*
X1238Y2677D01*
X1254Y2677D02*
X1274Y2677D01*
X1276Y2677D02*
X1282Y2677D01*
X1300Y2677D02*
X1325Y2677D01*
X1352Y2677D02*
X1366Y2677D01*
X1384Y2677D02*
X1410Y2677D01*
X214Y2676D02*
X219Y2676D01*
X247Y2676D02*
X275Y2676D01*
X301Y2676D02*
X314Y2676D01*
X333Y2676D02*
X338Y2676D01*
X357Y2676D02*
X362Y2676D01*
X377Y2676D02*
X382Y2676D01*
X401Y2676D02*
X406Y2676D01*
X421Y2676D02*
X426Y2676D01*
X473Y2676D02*
X479Y2676D01*
X509Y2676D02*
X515Y2676D01*
X532Y2676D02*
X537Y2676D01*
X575Y2676D02*
X581Y2676D01*
X598Y2676D02*
X625Y2676D01*
X641Y2676D02*
X662Y2676D01*
X684Y2676D02*
X708Y2676D01*
X728Y2676D02*
X752Y2676D01*
X773Y2676D02*
X798Y2676D01*
X817Y2676D02*
X844Y2676D01*
X860Y2676D02*
X885Y2676D01*
X904Y2676D02*
X931Y2676D01*
X954Y2676D02*
X960Y2676D01*
X990Y2676D02*
X1019Y2676D01*
X1035Y2676D02*
X1060Y2676D01*
X1078Y2676D02*
X1102Y2676D01*
X1167Y2676D02*
X1194Y2676D01*
X1209Y2676D02*
X1214Y2676D01*
X1233Y2676D02*
X1238Y2676D01*
X1254Y2676D02*
X1282Y2676D01*
X1300Y2676D02*
X1324Y2676D01*
X1352Y2676D02*
X1365Y2676D01*
X1384Y2676D02*
X1411Y2676D01*
X214Y2675D02*
X219Y2675D01*
X247Y2675D02*
X253Y2675D01*
X260Y2675D02*
X275Y2675D01*
X301Y2675D02*
X307Y2675D01*
X333Y2675D02*
X338Y2675D01*
X357Y2675D02*
X362Y2675D01*
X377Y2675D02*
X382Y2675D01*
X401Y2675D02*
X406Y2675D01*
X421Y2675D02*
X426Y2675D01*
X473Y2675D02*
X479Y2675D01*
X509Y2675D02*
X516Y2675D01*
X532Y2675D02*
X537Y2675D01*
X575Y2675D02*
X581Y2675D01*
X599Y2675D02*
X625Y2675D01*
X641Y2675D02*
X647Y2675D01*
X700Y2675D02*
X709Y2675D01*
X744Y2675D02*
X753Y2675D01*
X772Y2675D02*
X780Y2675D01*
X791Y2675D02*
X799Y2675D01*
X816Y2675D02*
X824Y2675D01*
X832Y2675D02*
X844Y2675D01*
X860Y2675D02*
X868Y2675D01*
X878Y2675D02*
X886Y2675D01*
X905Y2675D02*
X931Y2675D01*
X955Y2675D02*
X961Y2675D01*
X990Y2675D02*
X996Y2675D01*
X998Y2675D02*
X1008Y2675D01*
X1010Y2675D02*
X1019Y2675D01*
X1035Y2675D02*
X1043Y2675D01*
X1053Y2675D02*
X1061Y2675D01*
X1094Y2675D02*
X1103Y2675D01*
X1166Y2675D02*
X1174Y2675D01*
X1182Y2675D02*
X1194Y2675D01*
X1209Y2675D02*
X1214Y2675D01*
X1233Y2675D02*
X1238Y2675D01*
X1254Y2675D02*
X1260Y2675D01*
X1267Y2675D02*
X1282Y2675D01*
X1314Y2675D02*
X1319Y2675D01*
X1352Y2675D02*
X1357Y2675D01*
X1384Y2675D02*
X1396Y2675D01*
X1404Y2675D02*
X1412Y2675D01*
X214Y2674D02*
X219Y2674D01*
X246Y2674D02*
X252Y2674D01*
X262Y2674D02*
X275Y2674D01*
X301Y2674D02*
X306Y2674D01*
X333Y2674D02*
X338Y2674D01*
X357Y2674D02*
X362Y2674D01*
X377Y2674D02*
X382Y2674D01*
X401Y2674D02*
X406Y2674D01*
X421Y2674D02*
X426Y2674D01*
X474Y2674D02*
X480Y2674D01*
X510Y2674D02*
X517Y2674D01*
X532Y2674D02*
X537Y2674D01*
X576Y2674D02*
X581Y2674D01*
X600Y2674D02*
X625Y2674D01*
X640Y2674D02*
X646Y2674D01*
X702Y2674D02*
X710Y2674D01*
X745Y2674D02*
X754Y2674D01*
X772Y2674D02*
X778Y2674D01*
X792Y2674D02*
X799Y2674D01*
X815Y2674D02*
X822Y2674D01*
X833Y2674D02*
X844Y2674D01*
X859Y2674D02*
X866Y2674D01*
X880Y2674D02*
X887Y2674D01*
X907Y2674D02*
X931Y2674D01*
X955Y2674D02*
X962Y2674D01*
X990Y2674D02*
X995Y2674D01*
X999Y2674D02*
X1007Y2674D01*
X1011Y2674D02*
X1019Y2674D01*
X1034Y2674D02*
X1041Y2674D01*
X1055Y2674D02*
X1062Y2674D01*
X1096Y2674D02*
X1104Y2674D01*
X1166Y2674D02*
X1173Y2674D01*
X1183Y2674D02*
X1194Y2674D01*
X1209Y2674D02*
X1214Y2674D01*
X1233Y2674D02*
X1238Y2674D01*
X1253Y2674D02*
X1259Y2674D01*
X1268Y2674D02*
X1282Y2674D01*
X1314Y2674D02*
X1319Y2674D01*
X1352Y2674D02*
X1357Y2674D01*
X1384Y2674D02*
X1394Y2674D01*
X1405Y2674D02*
X1412Y2674D01*
X214Y2673D02*
X219Y2673D01*
X246Y2673D02*
X252Y2673D01*
X263Y2673D02*
X275Y2673D01*
X301Y2673D02*
X306Y2673D01*
X333Y2673D02*
X338Y2673D01*
X357Y2673D02*
X362Y2673D01*
X377Y2673D02*
X382Y2673D01*
X401Y2673D02*
X406Y2673D01*
X421Y2673D02*
X446Y2673D01*
X474Y2673D02*
X481Y2673D01*
X510Y2673D02*
X537Y2673D01*
X576Y2673D02*
X581Y2673D01*
X602Y2673D02*
X625Y2673D01*
X640Y2673D02*
X646Y2673D01*
X703Y2673D02*
X711Y2673D01*
X747Y2673D02*
X755Y2673D01*
X771Y2673D02*
X777Y2673D01*
X793Y2673D02*
X799Y2673D01*
X815Y2673D02*
X821Y2673D01*
X834Y2673D02*
X844Y2673D01*
X859Y2673D02*
X865Y2673D01*
X881Y2673D02*
X887Y2673D01*
X909Y2673D02*
X931Y2673D01*
X956Y2673D02*
X962Y2673D01*
X990Y2673D02*
X995Y2673D01*
X1000Y2673D02*
X1007Y2673D01*
X1012Y2673D02*
X1019Y2673D01*
X1034Y2673D02*
X1040Y2673D01*
X1056Y2673D02*
X1062Y2673D01*
X1097Y2673D02*
X1105Y2673D01*
X1165Y2673D02*
X1171Y2673D01*
X1184Y2673D02*
X1194Y2673D01*
X1209Y2673D02*
X1214Y2673D01*
X1232Y2673D02*
X1238Y2673D01*
X1253Y2673D02*
X1258Y2673D01*
X1270Y2673D02*
X1282Y2673D01*
X1314Y2673D02*
X1319Y2673D01*
X1352Y2673D02*
X1357Y2673D01*
X1384Y2673D02*
X1393Y2673D01*
X1406Y2673D02*
X1412Y2673D01*
X214Y2672D02*
X219Y2672D01*
X246Y2672D02*
X251Y2672D01*
X265Y2672D02*
X275Y2672D01*
X301Y2672D02*
X306Y2672D01*
X333Y2672D02*
X338Y2672D01*
X357Y2672D02*
X362Y2672D01*
X377Y2672D02*
X382Y2672D01*
X401Y2672D02*
X406Y2672D01*
X421Y2672D02*
X448Y2672D01*
X475Y2672D02*
X481Y2672D01*
X511Y2672D02*
X537Y2672D01*
X576Y2672D02*
X581Y2672D01*
X608Y2672D02*
X614Y2672D01*
X620Y2672D02*
X625Y2672D01*
X640Y2672D02*
X645Y2672D01*
X704Y2672D02*
X711Y2672D01*
X748Y2672D02*
X755Y2672D01*
X771Y2672D02*
X776Y2672D01*
X794Y2672D02*
X800Y2672D01*
X815Y2672D02*
X820Y2672D01*
X835Y2672D02*
X844Y2672D01*
X859Y2672D02*
X864Y2672D01*
X882Y2672D02*
X887Y2672D01*
X914Y2672D02*
X921Y2672D01*
X926Y2672D02*
X931Y2672D01*
X957Y2672D02*
X963Y2672D01*
X990Y2672D02*
X995Y2672D01*
X1001Y2672D02*
X1007Y2672D01*
X1013Y2672D02*
X1019Y2672D01*
X1034Y2672D02*
X1039Y2672D01*
X1057Y2672D02*
X1062Y2672D01*
X1098Y2672D02*
X1105Y2672D01*
X1165Y2672D02*
X1170Y2672D01*
X1186Y2672D02*
X1194Y2672D01*
X1209Y2672D02*
X1214Y2672D01*
X1232Y2672D02*
X1238Y2672D01*
X1253Y2672D02*
X1258Y2672D01*
X1272Y2672D02*
X1282Y2672D01*
X1314Y2672D02*
X1319Y2672D01*
X1352Y2672D02*
X1357Y2672D01*
X1384Y2672D02*
X1392Y2672D01*
X1407Y2672D02*
X1413Y2672D01*
X214Y2671D02*
X219Y2671D01*
X246Y2671D02*
X251Y2671D01*
X266Y2671D02*
X275Y2671D01*
X301Y2671D02*
X306Y2671D01*
X333Y2671D02*
X338Y2671D01*
X357Y2671D02*
X362Y2671D01*
X377Y2671D02*
X382Y2671D01*
X401Y2671D02*
X406Y2671D01*
X421Y2671D02*
X449Y2671D01*
X476Y2671D02*
X482Y2671D01*
X512Y2671D02*
X537Y2671D01*
X576Y2671D02*
X581Y2671D01*
X607Y2671D02*
X614Y2671D01*
X620Y2671D02*
X625Y2671D01*
X640Y2671D02*
X645Y2671D01*
X705Y2671D02*
X712Y2671D01*
X749Y2671D02*
X756Y2671D01*
X771Y2671D02*
X776Y2671D01*
X795Y2671D02*
X800Y2671D01*
X815Y2671D02*
X820Y2671D01*
X836Y2671D02*
X844Y2671D01*
X858Y2671D02*
X864Y2671D01*
X882Y2671D02*
X887Y2671D01*
X914Y2671D02*
X920Y2671D01*
X926Y2671D02*
X931Y2671D01*
X957Y2671D02*
X963Y2671D01*
X990Y2671D02*
X995Y2671D01*
X1002Y2671D02*
X1007Y2671D01*
X1014Y2671D02*
X1019Y2671D01*
X1034Y2671D02*
X1039Y2671D01*
X1057Y2671D02*
X1063Y2671D01*
X1099Y2671D02*
X1106Y2671D01*
X1165Y2671D02*
X1170Y2671D01*
X1187Y2671D02*
X1194Y2671D01*
X1209Y2671D02*
X1214Y2671D01*
X1232Y2671D02*
X1237Y2671D01*
X1253Y2671D02*
X1258Y2671D01*
X1273Y2671D02*
X1282Y2671D01*
X1314Y2671D02*
X1319Y2671D01*
X1352Y2671D02*
X1357Y2671D01*
X1384Y2671D02*
X1391Y2671D01*
X1408Y2671D02*
X1413Y2671D01*
X214Y2670D02*
X219Y2670D01*
X246Y2670D02*
X251Y2670D01*
X268Y2670D02*
X275Y2670D01*
X301Y2670D02*
X306Y2670D01*
X333Y2670D02*
X338Y2670D01*
X357Y2670D02*
X362Y2670D01*
X377Y2670D02*
X382Y2670D01*
X401Y2670D02*
X406Y2670D01*
X422Y2670D02*
X449Y2670D01*
X476Y2670D02*
X482Y2670D01*
X512Y2670D02*
X537Y2670D01*
X576Y2670D02*
X581Y2670D01*
X607Y2670D02*
X613Y2670D01*
X620Y2670D02*
X625Y2670D01*
X640Y2670D02*
X645Y2670D01*
X706Y2670D02*
X712Y2670D01*
X750Y2670D02*
X756Y2670D01*
X771Y2670D02*
X776Y2670D01*
X795Y2670D02*
X800Y2670D01*
X815Y2670D02*
X820Y2670D01*
X838Y2670D02*
X844Y2670D01*
X858Y2670D02*
X863Y2670D01*
X882Y2670D02*
X888Y2670D01*
X913Y2670D02*
X919Y2670D01*
X926Y2670D02*
X931Y2670D01*
X958Y2670D02*
X964Y2670D01*
X990Y2670D02*
X995Y2670D01*
X1002Y2670D02*
X1007Y2670D01*
X1014Y2670D02*
X1019Y2670D01*
X1033Y2670D02*
X1039Y2670D01*
X1057Y2670D02*
X1063Y2670D01*
X1100Y2670D02*
X1106Y2670D01*
X1165Y2670D02*
X1170Y2670D01*
X1188Y2670D02*
X1194Y2670D01*
X1209Y2670D02*
X1214Y2670D01*
X1232Y2670D02*
X1237Y2670D01*
X1253Y2670D02*
X1258Y2670D01*
X1275Y2670D02*
X1282Y2670D01*
X1314Y2670D02*
X1319Y2670D01*
X1352Y2670D02*
X1357Y2670D01*
X1384Y2670D02*
X1390Y2670D01*
X1408Y2670D02*
X1413Y2670D01*
X214Y2669D02*
X219Y2669D01*
X246Y2669D02*
X251Y2669D01*
X269Y2669D02*
X275Y2669D01*
X301Y2669D02*
X306Y2669D01*
X333Y2669D02*
X338Y2669D01*
X357Y2669D02*
X362Y2669D01*
X377Y2669D02*
X382Y2669D01*
X401Y2669D02*
X406Y2669D01*
X423Y2669D02*
X450Y2669D01*
X477Y2669D02*
X483Y2669D01*
X511Y2669D02*
X537Y2669D01*
X576Y2669D02*
X581Y2669D01*
X606Y2669D02*
X612Y2669D01*
X620Y2669D02*
X625Y2669D01*
X640Y2669D02*
X645Y2669D01*
X707Y2669D02*
X712Y2669D01*
X751Y2669D02*
X756Y2669D01*
X771Y2669D02*
X776Y2669D01*
X795Y2669D02*
X800Y2669D01*
X815Y2669D02*
X820Y2669D01*
X838Y2669D02*
X844Y2669D01*
X858Y2669D02*
X863Y2669D01*
X882Y2669D02*
X888Y2669D01*
X913Y2669D02*
X919Y2669D01*
X926Y2669D02*
X931Y2669D01*
X958Y2669D02*
X964Y2669D01*
X990Y2669D02*
X995Y2669D01*
X1002Y2669D02*
X1007Y2669D01*
X1014Y2669D02*
X1019Y2669D01*
X1033Y2669D02*
X1039Y2669D01*
X1057Y2669D02*
X1063Y2669D01*
X1101Y2669D02*
X1106Y2669D01*
X1165Y2669D02*
X1170Y2669D01*
X1189Y2669D02*
X1194Y2669D01*
X1209Y2669D02*
X1214Y2669D01*
X1232Y2669D02*
X1237Y2669D01*
X1253Y2669D02*
X1258Y2669D01*
X1276Y2669D02*
X1282Y2669D01*
X1314Y2669D02*
X1319Y2669D01*
X1352Y2669D02*
X1357Y2669D01*
X1384Y2669D02*
X1389Y2669D01*
X1408Y2669D02*
X1413Y2669D01*
X203Y2668D02*
X205Y2668D01*
X214Y2668D02*
X219Y2668D01*
X246Y2668D02*
X251Y2668D01*
X270Y2668D02*
X275Y2668D01*
X301Y2668D02*
X306Y2668D01*
X333Y2668D02*
X338Y2668D01*
X357Y2668D02*
X362Y2668D01*
X377Y2668D02*
X382Y2668D01*
X401Y2668D02*
X406Y2668D01*
X424Y2668D02*
X450Y2668D01*
X477Y2668D02*
X484Y2668D01*
X510Y2668D02*
X537Y2668D01*
X552Y2668D02*
X565Y2668D01*
X576Y2668D02*
X581Y2668D01*
X606Y2668D02*
X612Y2668D01*
X620Y2668D02*
X625Y2668D01*
X640Y2668D02*
X663Y2668D01*
X707Y2668D02*
X712Y2668D01*
X751Y2668D02*
X756Y2668D01*
X771Y2668D02*
X776Y2668D01*
X795Y2668D02*
X800Y2668D01*
X815Y2668D02*
X820Y2668D01*
X839Y2668D02*
X844Y2668D01*
X858Y2668D02*
X863Y2668D01*
X882Y2668D02*
X888Y2668D01*
X912Y2668D02*
X918Y2668D01*
X926Y2668D02*
X931Y2668D01*
X959Y2668D02*
X965Y2668D01*
X990Y2668D02*
X995Y2668D01*
X1002Y2668D02*
X1007Y2668D01*
X1014Y2668D02*
X1019Y2668D01*
X1033Y2668D02*
X1039Y2668D01*
X1057Y2668D02*
X1063Y2668D01*
X1101Y2668D02*
X1106Y2668D01*
X1165Y2668D02*
X1170Y2668D01*
X1189Y2668D02*
X1194Y2668D01*
X1209Y2668D02*
X1214Y2668D01*
X1232Y2668D02*
X1237Y2668D01*
X1253Y2668D02*
X1258Y2668D01*
X1276Y2668D02*
X1282Y2668D01*
X1314Y2668D02*
X1319Y2668D01*
X1352Y2668D02*
X1357Y2668D01*
X1384Y2668D02*
X1389Y2668D01*
X1408Y2668D02*
X1413Y2668D01*
X202Y2667D02*
X206Y2667D01*
X214Y2667D02*
X219Y2667D01*
X246Y2667D02*
X251Y2667D01*
X270Y2667D02*
X275Y2667D01*
X301Y2667D02*
X306Y2667D01*
X333Y2667D02*
X338Y2667D01*
X357Y2667D02*
X362Y2667D01*
X377Y2667D02*
X382Y2667D01*
X401Y2667D02*
X406Y2667D01*
X445Y2667D02*
X450Y2667D01*
X478Y2667D02*
X484Y2667D01*
X510Y2667D02*
X517Y2667D01*
X532Y2667D02*
X537Y2667D01*
X552Y2667D02*
X566Y2667D01*
X576Y2667D02*
X581Y2667D01*
X605Y2667D02*
X611Y2667D01*
X620Y2667D02*
X625Y2667D01*
X640Y2667D02*
X665Y2667D01*
X707Y2667D02*
X712Y2667D01*
X751Y2667D02*
X756Y2667D01*
X771Y2667D02*
X776Y2667D01*
X795Y2667D02*
X800Y2667D01*
X815Y2667D02*
X820Y2667D01*
X839Y2667D02*
X844Y2667D01*
X858Y2667D02*
X863Y2667D01*
X882Y2667D02*
X888Y2667D01*
X912Y2667D02*
X918Y2667D01*
X926Y2667D02*
X931Y2667D01*
X960Y2667D02*
X966Y2667D01*
X990Y2667D02*
X995Y2667D01*
X1002Y2667D02*
X1007Y2667D01*
X1014Y2667D02*
X1019Y2667D01*
X1033Y2667D02*
X1039Y2667D01*
X1057Y2667D02*
X1063Y2667D01*
X1101Y2667D02*
X1106Y2667D01*
X1165Y2667D02*
X1170Y2667D01*
X1189Y2667D02*
X1194Y2667D01*
X1209Y2667D02*
X1214Y2667D01*
X1232Y2667D02*
X1237Y2667D01*
X1253Y2667D02*
X1258Y2667D01*
X1276Y2667D02*
X1282Y2667D01*
X1314Y2667D02*
X1319Y2667D01*
X1352Y2667D02*
X1357Y2667D01*
X1384Y2667D02*
X1389Y2667D01*
X1408Y2667D02*
X1413Y2667D01*
X202Y2666D02*
X207Y2666D01*
X214Y2666D02*
X219Y2666D01*
X246Y2666D02*
X251Y2666D01*
X270Y2666D02*
X275Y2666D01*
X301Y2666D02*
X306Y2666D01*
X333Y2666D02*
X338Y2666D01*
X357Y2666D02*
X362Y2666D01*
X377Y2666D02*
X382Y2666D01*
X401Y2666D02*
X406Y2666D01*
X445Y2666D02*
X450Y2666D01*
X479Y2666D02*
X485Y2666D01*
X509Y2666D02*
X516Y2666D01*
X532Y2666D02*
X537Y2666D01*
X552Y2666D02*
X566Y2666D01*
X576Y2666D02*
X581Y2666D01*
X605Y2666D02*
X611Y2666D01*
X620Y2666D02*
X625Y2666D01*
X640Y2666D02*
X666Y2666D01*
X707Y2666D02*
X712Y2666D01*
X751Y2666D02*
X756Y2666D01*
X771Y2666D02*
X776Y2666D01*
X795Y2666D02*
X800Y2666D01*
X815Y2666D02*
X820Y2666D01*
X839Y2666D02*
X844Y2666D01*
X858Y2666D02*
X864Y2666D01*
X882Y2666D02*
X888Y2666D01*
X911Y2666D02*
X917Y2666D01*
X926Y2666D02*
X931Y2666D01*
X960Y2666D02*
X966Y2666D01*
X990Y2666D02*
X995Y2666D01*
X1002Y2666D02*
X1007Y2666D01*
X1014Y2666D02*
X1019Y2666D01*
X1033Y2666D02*
X1039Y2666D01*
X1057Y2666D02*
X1063Y2666D01*
X1101Y2666D02*
X1106Y2666D01*
X1165Y2666D02*
X1170Y2666D01*
X1189Y2666D02*
X1194Y2666D01*
X1209Y2666D02*
X1214Y2666D01*
X1232Y2666D02*
X1237Y2666D01*
X1253Y2666D02*
X1258Y2666D01*
X1276Y2666D02*
X1282Y2666D01*
X1314Y2666D02*
X1319Y2666D01*
X1352Y2666D02*
X1357Y2666D01*
X1384Y2666D02*
X1389Y2666D01*
X1408Y2666D02*
X1413Y2666D01*
X202Y2665D02*
X207Y2665D01*
X214Y2665D02*
X219Y2665D01*
X246Y2665D02*
X251Y2665D01*
X270Y2665D02*
X275Y2665D01*
X301Y2665D02*
X306Y2665D01*
X333Y2665D02*
X338Y2665D01*
X357Y2665D02*
X362Y2665D01*
X377Y2665D02*
X382Y2665D01*
X401Y2665D02*
X406Y2665D01*
X445Y2665D02*
X450Y2665D01*
X479Y2665D02*
X485Y2665D01*
X509Y2665D02*
X515Y2665D01*
X532Y2665D02*
X537Y2665D01*
X552Y2665D02*
X566Y2665D01*
X576Y2665D02*
X581Y2665D01*
X604Y2665D02*
X610Y2665D01*
X620Y2665D02*
X625Y2665D01*
X640Y2665D02*
X667Y2665D01*
X707Y2665D02*
X712Y2665D01*
X751Y2665D02*
X756Y2665D01*
X771Y2665D02*
X800Y2665D01*
X815Y2665D02*
X820Y2665D01*
X839Y2665D02*
X844Y2665D01*
X858Y2665D02*
X888Y2665D01*
X910Y2665D02*
X917Y2665D01*
X926Y2665D02*
X931Y2665D01*
X961Y2665D02*
X967Y2665D01*
X990Y2665D02*
X995Y2665D01*
X1002Y2665D02*
X1007Y2665D01*
X1014Y2665D02*
X1019Y2665D01*
X1033Y2665D02*
X1039Y2665D01*
X1057Y2665D02*
X1063Y2665D01*
X1101Y2665D02*
X1106Y2665D01*
X1131Y2665D02*
X1140Y2665D01*
X1165Y2665D02*
X1170Y2665D01*
X1189Y2665D02*
X1194Y2665D01*
X1209Y2665D02*
X1214Y2665D01*
X1232Y2665D02*
X1237Y2665D01*
X1253Y2665D02*
X1258Y2665D01*
X1276Y2665D02*
X1282Y2665D01*
X1314Y2665D02*
X1319Y2665D01*
X1352Y2665D02*
X1357Y2665D01*
X1384Y2665D02*
X1389Y2665D01*
X1408Y2665D02*
X1413Y2665D01*
X202Y2664D02*
X207Y2664D01*
X214Y2664D02*
X219Y2664D01*
X246Y2664D02*
X251Y2664D01*
X270Y2664D02*
X275Y2664D01*
X301Y2664D02*
X306Y2664D01*
X333Y2664D02*
X338Y2664D01*
X357Y2664D02*
X362Y2664D01*
X377Y2664D02*
X382Y2664D01*
X401Y2664D02*
X406Y2664D01*
X445Y2664D02*
X450Y2664D01*
X480Y2664D02*
X486Y2664D01*
X508Y2664D02*
X514Y2664D01*
X532Y2664D02*
X537Y2664D01*
X552Y2664D02*
X566Y2664D01*
X576Y2664D02*
X581Y2664D01*
X603Y2664D02*
X610Y2664D01*
X620Y2664D02*
X625Y2664D01*
X640Y2664D02*
X667Y2664D01*
X707Y2664D02*
X712Y2664D01*
X751Y2664D02*
X756Y2664D01*
X771Y2664D02*
X800Y2664D01*
X815Y2664D02*
X820Y2664D01*
X839Y2664D02*
X844Y2664D01*
X858Y2664D02*
X888Y2664D01*
X910Y2664D02*
X916Y2664D01*
X926Y2664D02*
X931Y2664D01*
X961Y2664D02*
X967Y2664D01*
X990Y2664D02*
X995Y2664D01*
X1002Y2664D02*
X1007Y2664D01*
X1014Y2664D02*
X1019Y2664D01*
X1033Y2664D02*
X1039Y2664D01*
X1057Y2664D02*
X1063Y2664D01*
X1101Y2664D02*
X1106Y2664D01*
X1130Y2664D02*
X1141Y2664D01*
X1165Y2664D02*
X1170Y2664D01*
X1189Y2664D02*
X1194Y2664D01*
X1209Y2664D02*
X1214Y2664D01*
X1232Y2664D02*
X1237Y2664D01*
X1253Y2664D02*
X1258Y2664D01*
X1276Y2664D02*
X1282Y2664D01*
X1314Y2664D02*
X1319Y2664D01*
X1352Y2664D02*
X1357Y2664D01*
X1384Y2664D02*
X1389Y2664D01*
X1408Y2664D02*
X1413Y2664D01*
X202Y2663D02*
X207Y2663D01*
X214Y2663D02*
X219Y2663D01*
X246Y2663D02*
X251Y2663D01*
X270Y2663D02*
X275Y2663D01*
X301Y2663D02*
X306Y2663D01*
X333Y2663D02*
X338Y2663D01*
X357Y2663D02*
X362Y2663D01*
X377Y2663D02*
X382Y2663D01*
X401Y2663D02*
X406Y2663D01*
X445Y2663D02*
X450Y2663D01*
X480Y2663D02*
X486Y2663D01*
X508Y2663D02*
X514Y2663D01*
X532Y2663D02*
X537Y2663D01*
X552Y2663D02*
X565Y2663D01*
X576Y2663D02*
X581Y2663D01*
X603Y2663D02*
X609Y2663D01*
X620Y2663D02*
X625Y2663D01*
X640Y2663D02*
X668Y2663D01*
X707Y2663D02*
X712Y2663D01*
X751Y2663D02*
X756Y2663D01*
X771Y2663D02*
X800Y2663D01*
X815Y2663D02*
X820Y2663D01*
X839Y2663D02*
X844Y2663D01*
X858Y2663D02*
X888Y2663D01*
X909Y2663D02*
X915Y2663D01*
X926Y2663D02*
X931Y2663D01*
X962Y2663D02*
X968Y2663D01*
X990Y2663D02*
X995Y2663D01*
X1002Y2663D02*
X1007Y2663D01*
X1014Y2663D02*
X1019Y2663D01*
X1033Y2663D02*
X1039Y2663D01*
X1057Y2663D02*
X1063Y2663D01*
X1101Y2663D02*
X1106Y2663D01*
X1130Y2663D02*
X1141Y2663D01*
X1165Y2663D02*
X1170Y2663D01*
X1189Y2663D02*
X1194Y2663D01*
X1209Y2663D02*
X1214Y2663D01*
X1232Y2663D02*
X1237Y2663D01*
X1253Y2663D02*
X1258Y2663D01*
X1276Y2663D02*
X1282Y2663D01*
X1314Y2663D02*
X1319Y2663D01*
X1352Y2663D02*
X1357Y2663D01*
X1384Y2663D02*
X1389Y2663D01*
X1408Y2663D02*
X1413Y2663D01*
X202Y2662D02*
X207Y2662D01*
X214Y2662D02*
X219Y2662D01*
X246Y2662D02*
X251Y2662D01*
X270Y2662D02*
X275Y2662D01*
X301Y2662D02*
X306Y2662D01*
X333Y2662D02*
X338Y2662D01*
X357Y2662D02*
X362Y2662D01*
X377Y2662D02*
X382Y2662D01*
X401Y2662D02*
X406Y2662D01*
X445Y2662D02*
X450Y2662D01*
X481Y2662D02*
X487Y2662D01*
X508Y2662D02*
X513Y2662D01*
X532Y2662D02*
X537Y2662D01*
X552Y2662D02*
X557Y2662D01*
X576Y2662D02*
X581Y2662D01*
X602Y2662D02*
X608Y2662D01*
X620Y2662D02*
X625Y2662D01*
X640Y2662D02*
X647Y2662D01*
X662Y2662D02*
X668Y2662D01*
X707Y2662D02*
X712Y2662D01*
X751Y2662D02*
X756Y2662D01*
X771Y2662D02*
X800Y2662D01*
X815Y2662D02*
X820Y2662D01*
X839Y2662D02*
X844Y2662D01*
X859Y2662D02*
X888Y2662D01*
X909Y2662D02*
X915Y2662D01*
X926Y2662D02*
X931Y2662D01*
X962Y2662D02*
X969Y2662D01*
X990Y2662D02*
X995Y2662D01*
X1002Y2662D02*
X1007Y2662D01*
X1014Y2662D02*
X1019Y2662D01*
X1033Y2662D02*
X1039Y2662D01*
X1057Y2662D02*
X1063Y2662D01*
X1101Y2662D02*
X1106Y2662D01*
X1130Y2662D02*
X1141Y2662D01*
X1165Y2662D02*
X1170Y2662D01*
X1189Y2662D02*
X1194Y2662D01*
X1209Y2662D02*
X1214Y2662D01*
X1232Y2662D02*
X1237Y2662D01*
X1253Y2662D02*
X1258Y2662D01*
X1276Y2662D02*
X1282Y2662D01*
X1314Y2662D02*
X1319Y2662D01*
X1352Y2662D02*
X1357Y2662D01*
X1384Y2662D02*
X1389Y2662D01*
X1408Y2662D02*
X1413Y2662D01*
X202Y2661D02*
X207Y2661D01*
X214Y2661D02*
X219Y2661D01*
X246Y2661D02*
X251Y2661D01*
X270Y2661D02*
X275Y2661D01*
X301Y2661D02*
X306Y2661D01*
X333Y2661D02*
X338Y2661D01*
X357Y2661D02*
X362Y2661D01*
X377Y2661D02*
X382Y2661D01*
X401Y2661D02*
X406Y2661D01*
X445Y2661D02*
X450Y2661D01*
X482Y2661D02*
X488Y2661D01*
X508Y2661D02*
X513Y2661D01*
X532Y2661D02*
X537Y2661D01*
X552Y2661D02*
X557Y2661D01*
X576Y2661D02*
X581Y2661D01*
X602Y2661D02*
X608Y2661D01*
X620Y2661D02*
X625Y2661D01*
X640Y2661D02*
X646Y2661D01*
X663Y2661D02*
X668Y2661D01*
X707Y2661D02*
X712Y2661D01*
X751Y2661D02*
X756Y2661D01*
X772Y2661D02*
X800Y2661D01*
X815Y2661D02*
X820Y2661D01*
X839Y2661D02*
X844Y2661D01*
X859Y2661D02*
X888Y2661D01*
X908Y2661D02*
X914Y2661D01*
X926Y2661D02*
X931Y2661D01*
X963Y2661D02*
X969Y2661D01*
X990Y2661D02*
X995Y2661D01*
X1002Y2661D02*
X1007Y2661D01*
X1014Y2661D02*
X1019Y2661D01*
X1033Y2661D02*
X1039Y2661D01*
X1057Y2661D02*
X1063Y2661D01*
X1101Y2661D02*
X1106Y2661D01*
X1130Y2661D02*
X1141Y2661D01*
X1165Y2661D02*
X1170Y2661D01*
X1189Y2661D02*
X1194Y2661D01*
X1209Y2661D02*
X1214Y2661D01*
X1232Y2661D02*
X1237Y2661D01*
X1253Y2661D02*
X1258Y2661D01*
X1276Y2661D02*
X1282Y2661D01*
X1314Y2661D02*
X1319Y2661D01*
X1352Y2661D02*
X1357Y2661D01*
X1384Y2661D02*
X1390Y2661D01*
X1408Y2661D02*
X1413Y2661D01*
X202Y2660D02*
X207Y2660D01*
X214Y2660D02*
X219Y2660D01*
X246Y2660D02*
X251Y2660D01*
X270Y2660D02*
X275Y2660D01*
X301Y2660D02*
X306Y2660D01*
X333Y2660D02*
X338Y2660D01*
X357Y2660D02*
X362Y2660D01*
X377Y2660D02*
X382Y2660D01*
X401Y2660D02*
X406Y2660D01*
X445Y2660D02*
X450Y2660D01*
X482Y2660D02*
X488Y2660D01*
X508Y2660D02*
X513Y2660D01*
X532Y2660D02*
X537Y2660D01*
X552Y2660D02*
X557Y2660D01*
X576Y2660D02*
X581Y2660D01*
X601Y2660D02*
X607Y2660D01*
X620Y2660D02*
X625Y2660D01*
X640Y2660D02*
X645Y2660D01*
X663Y2660D02*
X669Y2660D01*
X707Y2660D02*
X712Y2660D01*
X751Y2660D02*
X756Y2660D01*
X773Y2660D02*
X800Y2660D01*
X815Y2660D02*
X820Y2660D01*
X839Y2660D02*
X844Y2660D01*
X860Y2660D02*
X888Y2660D01*
X907Y2660D02*
X914Y2660D01*
X926Y2660D02*
X931Y2660D01*
X964Y2660D02*
X970Y2660D01*
X990Y2660D02*
X995Y2660D01*
X1002Y2660D02*
X1007Y2660D01*
X1014Y2660D02*
X1019Y2660D01*
X1033Y2660D02*
X1039Y2660D01*
X1057Y2660D02*
X1063Y2660D01*
X1101Y2660D02*
X1106Y2660D01*
X1130Y2660D02*
X1141Y2660D01*
X1165Y2660D02*
X1170Y2660D01*
X1189Y2660D02*
X1194Y2660D01*
X1209Y2660D02*
X1214Y2660D01*
X1232Y2660D02*
X1237Y2660D01*
X1253Y2660D02*
X1258Y2660D01*
X1276Y2660D02*
X1282Y2660D01*
X1314Y2660D02*
X1319Y2660D01*
X1352Y2660D02*
X1357Y2660D01*
X1384Y2660D02*
X1391Y2660D01*
X1408Y2660D02*
X1413Y2660D01*
X202Y2659D02*
X207Y2659D01*
X214Y2659D02*
X219Y2659D01*
X246Y2659D02*
X251Y2659D01*
X270Y2659D02*
X275Y2659D01*
X301Y2659D02*
X306Y2659D01*
X333Y2659D02*
X338Y2659D01*
X357Y2659D02*
X362Y2659D01*
X377Y2659D02*
X382Y2659D01*
X401Y2659D02*
X406Y2659D01*
X445Y2659D02*
X450Y2659D01*
X483Y2659D02*
X489Y2659D01*
X508Y2659D02*
X513Y2659D01*
X532Y2659D02*
X537Y2659D01*
X552Y2659D02*
X557Y2659D01*
X576Y2659D02*
X581Y2659D01*
X600Y2659D02*
X607Y2659D01*
X620Y2659D02*
X625Y2659D01*
X640Y2659D02*
X645Y2659D01*
X664Y2659D02*
X669Y2659D01*
X707Y2659D02*
X712Y2659D01*
X751Y2659D02*
X756Y2659D01*
X795Y2659D02*
X800Y2659D01*
X815Y2659D02*
X820Y2659D01*
X838Y2659D02*
X844Y2659D01*
X882Y2659D02*
X888Y2659D01*
X907Y2659D02*
X913Y2659D01*
X926Y2659D02*
X931Y2659D01*
X964Y2659D02*
X970Y2659D01*
X990Y2659D02*
X995Y2659D01*
X1002Y2659D02*
X1007Y2659D01*
X1014Y2659D02*
X1019Y2659D01*
X1033Y2659D02*
X1039Y2659D01*
X1057Y2659D02*
X1063Y2659D01*
X1101Y2659D02*
X1106Y2659D01*
X1130Y2659D02*
X1141Y2659D01*
X1165Y2659D02*
X1170Y2659D01*
X1188Y2659D02*
X1194Y2659D01*
X1209Y2659D02*
X1214Y2659D01*
X1232Y2659D02*
X1237Y2659D01*
X1253Y2659D02*
X1258Y2659D01*
X1276Y2659D02*
X1282Y2659D01*
X1314Y2659D02*
X1319Y2659D01*
X1352Y2659D02*
X1357Y2659D01*
X1384Y2659D02*
X1392Y2659D01*
X1407Y2659D02*
X1413Y2659D01*
X202Y2658D02*
X207Y2658D01*
X214Y2658D02*
X219Y2658D01*
X246Y2658D02*
X251Y2658D01*
X270Y2658D02*
X275Y2658D01*
X301Y2658D02*
X306Y2658D01*
X333Y2658D02*
X338Y2658D01*
X357Y2658D02*
X362Y2658D01*
X377Y2658D02*
X382Y2658D01*
X401Y2658D02*
X406Y2658D01*
X445Y2658D02*
X450Y2658D01*
X483Y2658D02*
X489Y2658D01*
X508Y2658D02*
X513Y2658D01*
X532Y2658D02*
X537Y2658D01*
X552Y2658D02*
X557Y2658D01*
X576Y2658D02*
X581Y2658D01*
X600Y2658D02*
X606Y2658D01*
X620Y2658D02*
X625Y2658D01*
X640Y2658D02*
X645Y2658D01*
X664Y2658D02*
X669Y2658D01*
X706Y2658D02*
X712Y2658D01*
X750Y2658D02*
X756Y2658D01*
X795Y2658D02*
X800Y2658D01*
X815Y2658D02*
X820Y2658D01*
X837Y2658D02*
X844Y2658D01*
X882Y2658D02*
X888Y2658D01*
X906Y2658D02*
X912Y2658D01*
X926Y2658D02*
X931Y2658D01*
X965Y2658D02*
X971Y2658D01*
X990Y2658D02*
X995Y2658D01*
X1002Y2658D02*
X1007Y2658D01*
X1014Y2658D02*
X1019Y2658D01*
X1033Y2658D02*
X1039Y2658D01*
X1057Y2658D02*
X1063Y2658D01*
X1100Y2658D02*
X1106Y2658D01*
X1130Y2658D02*
X1141Y2658D01*
X1165Y2658D02*
X1170Y2658D01*
X1187Y2658D02*
X1194Y2658D01*
X1209Y2658D02*
X1216Y2658D01*
X1232Y2658D02*
X1237Y2658D01*
X1253Y2658D02*
X1258Y2658D01*
X1276Y2658D02*
X1282Y2658D01*
X1298Y2658D02*
X1299Y2658D01*
X1314Y2658D02*
X1319Y2658D01*
X1352Y2658D02*
X1357Y2658D01*
X1384Y2658D02*
X1393Y2658D01*
X1407Y2658D02*
X1412Y2658D01*
X202Y2657D02*
X207Y2657D01*
X214Y2657D02*
X219Y2657D01*
X246Y2657D02*
X251Y2657D01*
X270Y2657D02*
X275Y2657D01*
X301Y2657D02*
X306Y2657D01*
X333Y2657D02*
X338Y2657D01*
X357Y2657D02*
X362Y2657D01*
X377Y2657D02*
X382Y2657D01*
X401Y2657D02*
X406Y2657D01*
X445Y2657D02*
X450Y2657D01*
X484Y2657D02*
X490Y2657D01*
X508Y2657D02*
X514Y2657D01*
X532Y2657D02*
X537Y2657D01*
X552Y2657D02*
X557Y2657D01*
X576Y2657D02*
X581Y2657D01*
X599Y2657D02*
X605Y2657D01*
X620Y2657D02*
X625Y2657D01*
X640Y2657D02*
X645Y2657D01*
X664Y2657D02*
X669Y2657D01*
X705Y2657D02*
X712Y2657D01*
X749Y2657D02*
X755Y2657D01*
X795Y2657D02*
X800Y2657D01*
X815Y2657D02*
X820Y2657D01*
X836Y2657D02*
X844Y2657D01*
X882Y2657D02*
X887Y2657D01*
X906Y2657D02*
X912Y2657D01*
X926Y2657D02*
X931Y2657D01*
X965Y2657D02*
X972Y2657D01*
X990Y2657D02*
X995Y2657D01*
X1002Y2657D02*
X1007Y2657D01*
X1014Y2657D02*
X1019Y2657D01*
X1034Y2657D02*
X1039Y2657D01*
X1057Y2657D02*
X1063Y2657D01*
X1099Y2657D02*
X1106Y2657D01*
X1130Y2657D02*
X1141Y2657D01*
X1165Y2657D02*
X1170Y2657D01*
X1186Y2657D02*
X1194Y2657D01*
X1209Y2657D02*
X1217Y2657D01*
X1232Y2657D02*
X1237Y2657D01*
X1253Y2657D02*
X1258Y2657D01*
X1276Y2657D02*
X1282Y2657D01*
X1297Y2657D02*
X1300Y2657D01*
X1314Y2657D02*
X1319Y2657D01*
X1352Y2657D02*
X1357Y2657D01*
X1384Y2657D02*
X1394Y2657D01*
X1406Y2657D02*
X1412Y2657D01*
X202Y2656D02*
X207Y2656D01*
X214Y2656D02*
X219Y2656D01*
X246Y2656D02*
X251Y2656D01*
X270Y2656D02*
X275Y2656D01*
X301Y2656D02*
X306Y2656D01*
X333Y2656D02*
X338Y2656D01*
X357Y2656D02*
X362Y2656D01*
X377Y2656D02*
X382Y2656D01*
X401Y2656D02*
X406Y2656D01*
X445Y2656D02*
X450Y2656D01*
X484Y2656D02*
X491Y2656D01*
X509Y2656D02*
X514Y2656D01*
X532Y2656D02*
X537Y2656D01*
X552Y2656D02*
X557Y2656D01*
X576Y2656D02*
X581Y2656D01*
X599Y2656D02*
X605Y2656D01*
X620Y2656D02*
X625Y2656D01*
X640Y2656D02*
X646Y2656D01*
X663Y2656D02*
X669Y2656D01*
X704Y2656D02*
X711Y2656D01*
X747Y2656D02*
X755Y2656D01*
X794Y2656D02*
X800Y2656D01*
X815Y2656D02*
X821Y2656D01*
X835Y2656D02*
X844Y2656D01*
X882Y2656D02*
X887Y2656D01*
X905Y2656D02*
X911Y2656D01*
X926Y2656D02*
X931Y2656D01*
X966Y2656D02*
X972Y2656D01*
X989Y2656D02*
X995Y2656D01*
X1002Y2656D02*
X1007Y2656D01*
X1014Y2656D02*
X1019Y2656D01*
X1034Y2656D02*
X1039Y2656D01*
X1057Y2656D02*
X1062Y2656D01*
X1098Y2656D02*
X1105Y2656D01*
X1131Y2656D02*
X1141Y2656D01*
X1165Y2656D02*
X1171Y2656D01*
X1185Y2656D02*
X1194Y2656D01*
X1209Y2656D02*
X1219Y2656D01*
X1232Y2656D02*
X1237Y2656D01*
X1253Y2656D02*
X1258Y2656D01*
X1276Y2656D02*
X1282Y2656D01*
X1296Y2656D02*
X1301Y2656D01*
X1314Y2656D02*
X1319Y2656D01*
X1352Y2656D02*
X1357Y2656D01*
X1384Y2656D02*
X1396Y2656D01*
X1404Y2656D02*
X1412Y2656D01*
X202Y2655D02*
X207Y2655D01*
X214Y2655D02*
X219Y2655D01*
X246Y2655D02*
X251Y2655D01*
X270Y2655D02*
X275Y2655D01*
X301Y2655D02*
X306Y2655D01*
X333Y2655D02*
X338Y2655D01*
X357Y2655D02*
X362Y2655D01*
X377Y2655D02*
X382Y2655D01*
X401Y2655D02*
X406Y2655D01*
X445Y2655D02*
X450Y2655D01*
X485Y2655D02*
X491Y2655D01*
X509Y2655D02*
X515Y2655D01*
X532Y2655D02*
X537Y2655D01*
X552Y2655D02*
X557Y2655D01*
X576Y2655D02*
X581Y2655D01*
X598Y2655D02*
X604Y2655D01*
X620Y2655D02*
X625Y2655D01*
X640Y2655D02*
X648Y2655D01*
X663Y2655D02*
X669Y2655D01*
X702Y2655D02*
X711Y2655D01*
X746Y2655D02*
X754Y2655D01*
X793Y2655D02*
X799Y2655D01*
X815Y2655D02*
X822Y2655D01*
X834Y2655D02*
X844Y2655D01*
X881Y2655D02*
X887Y2655D01*
X905Y2655D02*
X911Y2655D01*
X926Y2655D02*
X931Y2655D01*
X967Y2655D02*
X973Y2655D01*
X989Y2655D02*
X995Y2655D01*
X1002Y2655D02*
X1007Y2655D01*
X1014Y2655D02*
X1019Y2655D01*
X1034Y2655D02*
X1040Y2655D01*
X1056Y2655D02*
X1062Y2655D01*
X1096Y2655D02*
X1105Y2655D01*
X1132Y2655D02*
X1139Y2655D01*
X1165Y2655D02*
X1172Y2655D01*
X1184Y2655D02*
X1194Y2655D01*
X1209Y2655D02*
X1221Y2655D01*
X1232Y2655D02*
X1237Y2655D01*
X1253Y2655D02*
X1258Y2655D01*
X1276Y2655D02*
X1282Y2655D01*
X1296Y2655D02*
X1302Y2655D01*
X1314Y2655D02*
X1319Y2655D01*
X1352Y2655D02*
X1357Y2655D01*
X1384Y2655D02*
X1411Y2655D01*
X202Y2654D02*
X207Y2654D01*
X214Y2654D02*
X219Y2654D01*
X246Y2654D02*
X251Y2654D01*
X270Y2654D02*
X275Y2654D01*
X301Y2654D02*
X306Y2654D01*
X333Y2654D02*
X338Y2654D01*
X357Y2654D02*
X362Y2654D01*
X377Y2654D02*
X382Y2654D01*
X401Y2654D02*
X406Y2654D01*
X445Y2654D02*
X450Y2654D01*
X486Y2654D02*
X492Y2654D01*
X509Y2654D02*
X516Y2654D01*
X532Y2654D02*
X537Y2654D01*
X552Y2654D02*
X558Y2654D01*
X575Y2654D02*
X581Y2654D01*
X598Y2654D02*
X604Y2654D01*
X620Y2654D02*
X625Y2654D01*
X640Y2654D02*
X650Y2654D01*
X663Y2654D02*
X668Y2654D01*
X701Y2654D02*
X710Y2654D01*
X745Y2654D02*
X753Y2654D01*
X792Y2654D02*
X799Y2654D01*
X816Y2654D02*
X823Y2654D01*
X833Y2654D02*
X844Y2654D01*
X879Y2654D02*
X887Y2654D01*
X904Y2654D02*
X910Y2654D01*
X926Y2654D02*
X931Y2654D01*
X967Y2654D02*
X973Y2654D01*
X989Y2654D02*
X995Y2654D01*
X1002Y2654D02*
X1007Y2654D01*
X1014Y2654D02*
X1019Y2654D01*
X1034Y2654D02*
X1042Y2654D01*
X1055Y2654D02*
X1062Y2654D01*
X1095Y2654D02*
X1104Y2654D01*
X1166Y2654D02*
X1173Y2654D01*
X1183Y2654D02*
X1194Y2654D01*
X1209Y2654D02*
X1222Y2654D01*
X1231Y2654D02*
X1237Y2654D01*
X1253Y2654D02*
X1258Y2654D01*
X1276Y2654D02*
X1282Y2654D01*
X1296Y2654D02*
X1302Y2654D01*
X1313Y2654D02*
X1319Y2654D01*
X1352Y2654D02*
X1357Y2654D01*
X1384Y2654D02*
X1410Y2654D01*
X202Y2653D02*
X228Y2653D01*
X246Y2653D02*
X251Y2653D01*
X270Y2653D02*
X275Y2653D01*
X295Y2653D02*
X313Y2653D01*
X333Y2653D02*
X362Y2653D01*
X377Y2653D02*
X406Y2653D01*
X423Y2653D02*
X450Y2653D01*
X486Y2653D02*
X492Y2653D01*
X510Y2653D02*
X537Y2653D01*
X553Y2653D02*
X581Y2653D01*
X597Y2653D02*
X603Y2653D01*
X620Y2653D02*
X625Y2653D01*
X640Y2653D02*
X668Y2653D01*
X686Y2653D02*
X709Y2653D01*
X730Y2653D02*
X752Y2653D01*
X774Y2653D02*
X799Y2653D01*
X816Y2653D02*
X844Y2653D01*
X861Y2653D02*
X886Y2653D01*
X903Y2653D02*
X910Y2653D01*
X926Y2653D02*
X931Y2653D01*
X968Y2653D02*
X974Y2653D01*
X989Y2653D02*
X994Y2653D01*
X1002Y2653D02*
X1007Y2653D01*
X1014Y2653D02*
X1019Y2653D01*
X1035Y2653D02*
X1061Y2653D01*
X1080Y2653D02*
X1103Y2653D01*
X1166Y2653D02*
X1194Y2653D01*
X1209Y2653D02*
X1236Y2653D01*
X1252Y2653D02*
X1258Y2653D01*
X1276Y2653D02*
X1282Y2653D01*
X1297Y2653D02*
X1319Y2653D01*
X1346Y2653D02*
X1363Y2653D01*
X1384Y2653D02*
X1409Y2653D01*
X202Y2652D02*
X230Y2652D01*
X246Y2652D02*
X251Y2652D01*
X270Y2652D02*
X275Y2652D01*
X293Y2652D02*
X315Y2652D01*
X333Y2652D02*
X362Y2652D01*
X377Y2652D02*
X406Y2652D01*
X421Y2652D02*
X450Y2652D01*
X487Y2652D02*
X493Y2652D01*
X511Y2652D02*
X537Y2652D01*
X553Y2652D02*
X580Y2652D01*
X596Y2652D02*
X603Y2652D01*
X620Y2652D02*
X625Y2652D01*
X640Y2652D02*
X668Y2652D01*
X684Y2652D02*
X707Y2652D01*
X728Y2652D02*
X751Y2652D01*
X772Y2652D02*
X798Y2652D01*
X817Y2652D02*
X844Y2652D01*
X859Y2652D02*
X885Y2652D01*
X903Y2652D02*
X909Y2652D01*
X926Y2652D02*
X931Y2652D01*
X968Y2652D02*
X974Y2652D01*
X989Y2652D02*
X994Y2652D01*
X1002Y2652D02*
X1007Y2652D01*
X1014Y2652D02*
X1019Y2652D01*
X1036Y2652D02*
X1060Y2652D01*
X1078Y2652D02*
X1101Y2652D01*
X1167Y2652D02*
X1194Y2652D01*
X1209Y2652D02*
X1236Y2652D01*
X1252Y2652D02*
X1258Y2652D01*
X1276Y2652D02*
X1282Y2652D01*
X1297Y2652D02*
X1318Y2652D01*
X1344Y2652D02*
X1365Y2652D01*
X1384Y2652D02*
X1389Y2652D01*
X1392Y2652D02*
X1408Y2652D01*
X202Y2651D02*
X231Y2651D01*
X246Y2651D02*
X251Y2651D01*
X270Y2651D02*
X275Y2651D01*
X293Y2651D02*
X315Y2651D01*
X333Y2651D02*
X362Y2651D01*
X377Y2651D02*
X406Y2651D01*
X421Y2651D02*
X450Y2651D01*
X487Y2651D02*
X493Y2651D01*
X511Y2651D02*
X537Y2651D01*
X554Y2651D02*
X580Y2651D01*
X596Y2651D02*
X602Y2651D01*
X620Y2651D02*
X625Y2651D01*
X640Y2651D02*
X667Y2651D01*
X683Y2651D02*
X706Y2651D01*
X727Y2651D02*
X750Y2651D01*
X771Y2651D02*
X797Y2651D01*
X818Y2651D02*
X844Y2651D01*
X859Y2651D02*
X884Y2651D01*
X902Y2651D02*
X908Y2651D01*
X926Y2651D02*
X931Y2651D01*
X969Y2651D02*
X975Y2651D01*
X989Y2651D02*
X994Y2651D01*
X1002Y2651D02*
X1007Y2651D01*
X1014Y2651D02*
X1019Y2651D01*
X1037Y2651D02*
X1059Y2651D01*
X1077Y2651D02*
X1100Y2651D01*
X1168Y2651D02*
X1194Y2651D01*
X1209Y2651D02*
X1214Y2651D01*
X1216Y2651D02*
X1235Y2651D01*
X1252Y2651D02*
X1257Y2651D01*
X1276Y2651D02*
X1282Y2651D01*
X1298Y2651D02*
X1318Y2651D01*
X1343Y2651D02*
X1366Y2651D01*
X1384Y2651D02*
X1389Y2651D01*
X1393Y2651D02*
X1406Y2651D01*
X202Y2650D02*
X231Y2650D01*
X246Y2650D02*
X251Y2650D01*
X270Y2650D02*
X275Y2650D01*
X292Y2650D02*
X315Y2650D01*
X334Y2650D02*
X361Y2650D01*
X378Y2650D02*
X405Y2650D01*
X421Y2650D02*
X450Y2650D01*
X488Y2650D02*
X493Y2650D01*
X512Y2650D02*
X537Y2650D01*
X554Y2650D02*
X579Y2650D01*
X596Y2650D02*
X601Y2650D01*
X620Y2650D02*
X625Y2650D01*
X640Y2650D02*
X666Y2650D01*
X683Y2650D02*
X705Y2650D01*
X727Y2650D02*
X749Y2650D01*
X771Y2650D02*
X796Y2650D01*
X819Y2650D02*
X837Y2650D01*
X839Y2650D02*
X844Y2650D01*
X858Y2650D02*
X883Y2650D01*
X902Y2650D02*
X908Y2650D01*
X926Y2650D02*
X931Y2650D01*
X969Y2650D02*
X975Y2650D01*
X989Y2650D02*
X994Y2650D01*
X1002Y2650D02*
X1007Y2650D01*
X1014Y2650D02*
X1019Y2650D01*
X1038Y2650D02*
X1058Y2650D01*
X1077Y2650D02*
X1099Y2650D01*
X1169Y2650D02*
X1187Y2650D01*
X1189Y2650D02*
X1194Y2650D01*
X1209Y2650D02*
X1214Y2650D01*
X1218Y2650D02*
X1235Y2650D01*
X1252Y2650D02*
X1257Y2650D01*
X1276Y2650D02*
X1281Y2650D01*
X1299Y2650D02*
X1317Y2650D01*
X1343Y2650D02*
X1366Y2650D01*
X1384Y2650D02*
X1389Y2650D01*
X1395Y2650D02*
X1405Y2650D01*
X202Y2649D02*
X231Y2649D01*
X246Y2649D02*
X250Y2649D01*
X270Y2649D02*
X274Y2649D01*
X293Y2649D02*
X315Y2649D01*
X335Y2649D02*
X361Y2649D01*
X379Y2649D02*
X404Y2649D01*
X421Y2649D02*
X450Y2649D01*
X489Y2649D02*
X493Y2649D01*
X514Y2649D02*
X537Y2649D01*
X555Y2649D02*
X578Y2649D01*
X596Y2649D02*
X601Y2649D01*
X620Y2649D02*
X625Y2649D01*
X640Y2649D02*
X644Y2649D01*
X647Y2649D02*
X665Y2649D01*
X683Y2649D02*
X704Y2649D01*
X727Y2649D02*
X748Y2649D01*
X771Y2649D02*
X794Y2649D01*
X820Y2649D02*
X835Y2649D01*
X839Y2649D02*
X844Y2649D01*
X859Y2649D02*
X882Y2649D01*
X902Y2649D02*
X907Y2649D01*
X926Y2649D02*
X931Y2649D01*
X970Y2649D02*
X975Y2649D01*
X989Y2649D02*
X994Y2649D01*
X1002Y2649D02*
X1007Y2649D01*
X1014Y2649D02*
X1019Y2649D01*
X1039Y2649D02*
X1057Y2649D01*
X1077Y2649D02*
X1098Y2649D01*
X1170Y2649D02*
X1186Y2649D01*
X1189Y2649D02*
X1194Y2649D01*
X1209Y2649D02*
X1213Y2649D01*
X1220Y2649D02*
X1234Y2649D01*
X1253Y2649D02*
X1257Y2649D01*
X1277Y2649D02*
X1281Y2649D01*
X1300Y2649D02*
X1316Y2649D01*
X1343Y2649D02*
X1366Y2649D01*
X1384Y2649D02*
X1389Y2649D01*
X203Y2648D02*
X230Y2648D01*
X246Y2648D02*
X250Y2648D01*
X270Y2648D02*
X274Y2648D01*
X293Y2648D02*
X315Y2648D01*
X336Y2648D02*
X359Y2648D01*
X380Y2648D02*
X403Y2648D01*
X421Y2648D02*
X450Y2648D01*
X489Y2648D02*
X493Y2648D01*
X516Y2648D02*
X537Y2648D01*
X557Y2648D02*
X576Y2648D01*
X597Y2648D02*
X600Y2648D01*
X621Y2648D02*
X624Y2648D01*
X640Y2648D02*
X644Y2648D01*
X649Y2648D02*
X664Y2648D01*
X684Y2648D02*
X702Y2648D01*
X728Y2648D02*
X746Y2648D01*
X772Y2648D02*
X793Y2648D01*
X822Y2648D02*
X834Y2648D01*
X839Y2648D02*
X843Y2648D01*
X859Y2648D02*
X880Y2648D01*
X903Y2648D02*
X906Y2648D01*
X927Y2648D02*
X930Y2648D01*
X971Y2648D02*
X974Y2648D01*
X990Y2648D02*
X993Y2648D01*
X1003Y2648D02*
X1006Y2648D01*
X1015Y2648D02*
X1018Y2648D01*
X1041Y2648D02*
X1055Y2648D01*
X1078Y2648D02*
X1096Y2648D01*
X1172Y2648D02*
X1184Y2648D01*
X1190Y2648D02*
X1193Y2648D01*
X1209Y2648D02*
X1213Y2648D01*
X1221Y2648D02*
X1232Y2648D01*
X1253Y2648D02*
X1257Y2648D01*
X1277Y2648D02*
X1281Y2648D01*
X1301Y2648D02*
X1314Y2648D01*
X1344Y2648D02*
X1365Y2648D01*
X1384Y2648D02*
X1389Y2648D01*
X205Y2647D02*
X228Y2647D01*
X295Y2647D02*
X313Y2647D01*
X339Y2647D02*
X357Y2647D01*
X382Y2647D02*
X400Y2647D01*
X423Y2647D02*
X449Y2647D01*
X520Y2647D02*
X537Y2647D01*
X561Y2647D02*
X572Y2647D01*
X651Y2647D02*
X660Y2647D01*
X686Y2647D02*
X699Y2647D01*
X730Y2647D02*
X742Y2647D01*
X774Y2647D02*
X790Y2647D01*
X825Y2647D02*
X830Y2647D01*
X861Y2647D02*
X877Y2647D01*
X1044Y2647D02*
X1052Y2647D01*
X1080Y2647D02*
X1093Y2647D01*
X1176Y2647D02*
X1180Y2647D01*
X1225Y2647D02*
X1228Y2647D01*
X1305Y2647D02*
X1311Y2647D01*
X1346Y2647D02*
X1363Y2647D01*
X1384Y2647D02*
X1389Y2647D01*
X1384Y2646D02*
X1389Y2646D01*
X1384Y2645D02*
X1389Y2645D01*
X1384Y2644D02*
X1389Y2644D01*
X1384Y2643D02*
X1390Y2643D01*
X1384Y2642D02*
X1391Y2642D01*
X1385Y2641D02*
X1392Y2641D01*
X1385Y2640D02*
X1408Y2640D01*
X1386Y2639D02*
X1409Y2639D01*
X1387Y2638D02*
X1410Y2638D01*
X1388Y2637D02*
X1410Y2637D01*
X1390Y2636D02*
X1410Y2636D01*
X1391Y2635D02*
X1409Y2635D01*
X1572Y2466D02*
X1578Y2466D01*
X1791Y2466D02*
X1797Y2466D01*
X1571Y2465D02*
X1578Y2465D01*
X1790Y2465D02*
X1797Y2465D01*
X697Y2464D02*
X707Y2464D01*
X1003Y2464D02*
X1005Y2464D01*
X1080Y2464D02*
X1091Y2464D01*
X1222Y2464D02*
X1233Y2464D01*
X1346Y2464D02*
X1364Y2464D01*
X1473Y2464D02*
X1474Y2464D01*
X1571Y2464D02*
X1579Y2464D01*
X1616Y2464D02*
X1630Y2464D01*
X1790Y2464D02*
X1798Y2464D01*
X1821Y2464D02*
X1828Y2464D01*
X1844Y2464D02*
X1850Y2464D01*
X696Y2463D02*
X709Y2463D01*
X1002Y2463D02*
X1006Y2463D01*
X1079Y2463D02*
X1093Y2463D01*
X1221Y2463D02*
X1234Y2463D01*
X1344Y2463D02*
X1366Y2463D01*
X1472Y2463D02*
X1476Y2463D01*
X1571Y2463D02*
X1579Y2463D01*
X1614Y2463D02*
X1631Y2463D01*
X1790Y2463D02*
X1798Y2463D01*
X1821Y2463D02*
X1829Y2463D01*
X1843Y2463D02*
X1850Y2463D01*
X695Y2462D02*
X709Y2462D01*
X1002Y2462D02*
X1007Y2462D01*
X1079Y2462D02*
X1095Y2462D01*
X1221Y2462D02*
X1234Y2462D01*
X1342Y2462D02*
X1367Y2462D01*
X1471Y2462D02*
X1476Y2462D01*
X1571Y2462D02*
X1579Y2462D01*
X1612Y2462D02*
X1631Y2462D01*
X1790Y2462D02*
X1798Y2462D01*
X1821Y2462D02*
X1830Y2462D01*
X1842Y2462D02*
X1850Y2462D01*
X695Y2461D02*
X709Y2461D01*
X1001Y2461D02*
X1007Y2461D01*
X1079Y2461D02*
X1096Y2461D01*
X1220Y2461D02*
X1235Y2461D01*
X1341Y2461D02*
X1368Y2461D01*
X1471Y2461D02*
X1476Y2461D01*
X1571Y2461D02*
X1579Y2461D01*
X1611Y2461D02*
X1631Y2461D01*
X1790Y2461D02*
X1798Y2461D01*
X1821Y2461D02*
X1830Y2461D01*
X1841Y2461D02*
X1850Y2461D01*
X695Y2460D02*
X709Y2460D01*
X1001Y2460D02*
X1007Y2460D01*
X1079Y2460D02*
X1097Y2460D01*
X1220Y2460D02*
X1234Y2460D01*
X1341Y2460D02*
X1368Y2460D01*
X1471Y2460D02*
X1476Y2460D01*
X1571Y2460D02*
X1578Y2460D01*
X1611Y2460D02*
X1631Y2460D01*
X1790Y2460D02*
X1797Y2460D01*
X1821Y2460D02*
X1831Y2460D01*
X1841Y2460D02*
X1850Y2460D01*
X695Y2459D02*
X708Y2459D01*
X1001Y2459D02*
X1007Y2459D01*
X1080Y2459D02*
X1097Y2459D01*
X1220Y2459D02*
X1233Y2459D01*
X1340Y2459D02*
X1369Y2459D01*
X1471Y2459D02*
X1476Y2459D01*
X1572Y2459D02*
X1578Y2459D01*
X1610Y2459D02*
X1630Y2459D01*
X1791Y2459D02*
X1797Y2459D01*
X1821Y2459D02*
X1832Y2459D01*
X1840Y2459D02*
X1850Y2459D01*
X695Y2458D02*
X700Y2458D01*
X1000Y2458D02*
X1008Y2458D01*
X1090Y2458D02*
X1098Y2458D01*
X1220Y2458D02*
X1226Y2458D01*
X1340Y2458D02*
X1346Y2458D01*
X1363Y2458D02*
X1369Y2458D01*
X1471Y2458D02*
X1476Y2458D01*
X1609Y2458D02*
X1616Y2458D01*
X1620Y2458D02*
X1626Y2458D01*
X1821Y2458D02*
X1832Y2458D01*
X1839Y2458D02*
X1850Y2458D01*
X695Y2457D02*
X700Y2457D01*
X1000Y2457D02*
X1008Y2457D01*
X1092Y2457D02*
X1098Y2457D01*
X1220Y2457D02*
X1226Y2457D01*
X1340Y2457D02*
X1345Y2457D01*
X1364Y2457D02*
X1369Y2457D01*
X1471Y2457D02*
X1476Y2457D01*
X1609Y2457D02*
X1615Y2457D01*
X1620Y2457D02*
X1626Y2457D01*
X1821Y2457D02*
X1833Y2457D01*
X1839Y2457D02*
X1850Y2457D01*
X695Y2456D02*
X700Y2456D01*
X1000Y2456D02*
X1008Y2456D01*
X1093Y2456D02*
X1098Y2456D01*
X1220Y2456D02*
X1226Y2456D01*
X1340Y2456D02*
X1345Y2456D01*
X1363Y2456D02*
X1369Y2456D01*
X1471Y2456D02*
X1476Y2456D01*
X1608Y2456D02*
X1614Y2456D01*
X1620Y2456D02*
X1626Y2456D01*
X1821Y2456D02*
X1834Y2456D01*
X1838Y2456D02*
X1850Y2456D01*
X695Y2455D02*
X700Y2455D01*
X1000Y2455D02*
X1009Y2455D01*
X1093Y2455D02*
X1099Y2455D01*
X1220Y2455D02*
X1226Y2455D01*
X1340Y2455D02*
X1345Y2455D01*
X1362Y2455D02*
X1368Y2455D01*
X1471Y2455D02*
X1476Y2455D01*
X1608Y2455D02*
X1614Y2455D01*
X1620Y2455D02*
X1626Y2455D01*
X1821Y2455D02*
X1826Y2455D01*
X1828Y2455D02*
X1834Y2455D01*
X1837Y2455D02*
X1850Y2455D01*
X695Y2454D02*
X700Y2454D01*
X999Y2454D02*
X1009Y2454D01*
X1094Y2454D02*
X1099Y2454D01*
X1220Y2454D02*
X1226Y2454D01*
X1341Y2454D02*
X1344Y2454D01*
X1361Y2454D02*
X1368Y2454D01*
X1471Y2454D02*
X1476Y2454D01*
X1607Y2454D02*
X1613Y2454D01*
X1620Y2454D02*
X1626Y2454D01*
X1821Y2454D02*
X1826Y2454D01*
X1829Y2454D02*
X1843Y2454D01*
X1845Y2454D02*
X1850Y2454D01*
X695Y2453D02*
X700Y2453D01*
X999Y2453D02*
X1009Y2453D01*
X1094Y2453D02*
X1099Y2453D01*
X1220Y2453D02*
X1226Y2453D01*
X1360Y2453D02*
X1367Y2453D01*
X1471Y2453D02*
X1476Y2453D01*
X1607Y2453D02*
X1613Y2453D01*
X1620Y2453D02*
X1626Y2453D01*
X1821Y2453D02*
X1826Y2453D01*
X1829Y2453D02*
X1842Y2453D01*
X1845Y2453D02*
X1850Y2453D01*
X695Y2452D02*
X700Y2452D01*
X913Y2452D02*
X920Y2452D01*
X927Y2452D02*
X930Y2452D01*
X957Y2452D02*
X964Y2452D01*
X971Y2452D02*
X974Y2452D01*
X999Y2452D02*
X1010Y2452D01*
X1094Y2452D02*
X1099Y2452D01*
X1220Y2452D02*
X1226Y2452D01*
X1360Y2452D02*
X1367Y2452D01*
X1471Y2452D02*
X1476Y2452D01*
X1606Y2452D02*
X1612Y2452D01*
X1620Y2452D02*
X1626Y2452D01*
X1821Y2452D02*
X1826Y2452D01*
X1830Y2452D02*
X1842Y2452D01*
X1845Y2452D02*
X1850Y2452D01*
X695Y2451D02*
X700Y2451D01*
X734Y2451D02*
X749Y2451D01*
X772Y2451D02*
X774Y2451D01*
X796Y2451D02*
X798Y2451D01*
X823Y2451D02*
X835Y2451D01*
X864Y2451D02*
X874Y2451D01*
X884Y2451D02*
X886Y2451D01*
X911Y2451D02*
X922Y2451D01*
X926Y2451D02*
X931Y2451D01*
X955Y2451D02*
X966Y2451D01*
X970Y2451D02*
X975Y2451D01*
X998Y2451D02*
X1010Y2451D01*
X1086Y2451D02*
X1103Y2451D01*
X1129Y2451D02*
X1142Y2451D01*
X1220Y2451D02*
X1226Y2451D01*
X1259Y2451D02*
X1274Y2451D01*
X1304Y2451D02*
X1317Y2451D01*
X1359Y2451D02*
X1366Y2451D01*
X1436Y2451D02*
X1448Y2451D01*
X1471Y2451D02*
X1476Y2451D01*
X1482Y2451D02*
X1492Y2451D01*
X1523Y2451D02*
X1536Y2451D01*
X1572Y2451D02*
X1583Y2451D01*
X1606Y2451D02*
X1612Y2451D01*
X1620Y2451D02*
X1626Y2451D01*
X1696Y2451D02*
X1713Y2451D01*
X1740Y2451D02*
X1757Y2451D01*
X1791Y2451D02*
X1802Y2451D01*
X1821Y2451D02*
X1826Y2451D01*
X1831Y2451D02*
X1841Y2451D01*
X1845Y2451D02*
X1850Y2451D01*
X695Y2450D02*
X700Y2450D01*
X732Y2450D02*
X750Y2450D01*
X771Y2450D02*
X775Y2450D01*
X795Y2450D02*
X799Y2450D01*
X821Y2450D02*
X837Y2450D01*
X862Y2450D02*
X875Y2450D01*
X883Y2450D02*
X887Y2450D01*
X910Y2450D02*
X923Y2450D01*
X926Y2450D02*
X931Y2450D01*
X953Y2450D02*
X967Y2450D01*
X970Y2450D02*
X975Y2450D01*
X998Y2450D02*
X1010Y2450D01*
X1085Y2450D02*
X1104Y2450D01*
X1127Y2450D02*
X1144Y2450D01*
X1220Y2450D02*
X1226Y2450D01*
X1257Y2450D02*
X1275Y2450D01*
X1302Y2450D02*
X1319Y2450D01*
X1358Y2450D02*
X1365Y2450D01*
X1434Y2450D02*
X1450Y2450D01*
X1471Y2450D02*
X1476Y2450D01*
X1480Y2450D02*
X1494Y2450D01*
X1521Y2450D02*
X1538Y2450D01*
X1571Y2450D02*
X1584Y2450D01*
X1605Y2450D02*
X1611Y2450D01*
X1620Y2450D02*
X1626Y2450D01*
X1694Y2450D02*
X1715Y2450D01*
X1737Y2450D02*
X1759Y2450D01*
X1790Y2450D02*
X1803Y2450D01*
X1821Y2450D02*
X1826Y2450D01*
X1831Y2450D02*
X1840Y2450D01*
X1845Y2450D02*
X1850Y2450D01*
X695Y2449D02*
X700Y2449D01*
X731Y2449D02*
X750Y2449D01*
X771Y2449D02*
X776Y2449D01*
X795Y2449D02*
X800Y2449D01*
X819Y2449D02*
X839Y2449D01*
X861Y2449D02*
X876Y2449D01*
X882Y2449D02*
X887Y2449D01*
X908Y2449D02*
X924Y2449D01*
X926Y2449D02*
X931Y2449D01*
X952Y2449D02*
X968Y2449D01*
X970Y2449D02*
X975Y2449D01*
X998Y2449D02*
X1003Y2449D01*
X1005Y2449D02*
X1010Y2449D01*
X1085Y2449D02*
X1105Y2449D01*
X1126Y2449D02*
X1145Y2449D01*
X1220Y2449D02*
X1226Y2449D01*
X1256Y2449D02*
X1275Y2449D01*
X1301Y2449D02*
X1320Y2449D01*
X1357Y2449D02*
X1364Y2449D01*
X1432Y2449D02*
X1451Y2449D01*
X1471Y2449D02*
X1476Y2449D01*
X1479Y2449D02*
X1495Y2449D01*
X1520Y2449D02*
X1539Y2449D01*
X1571Y2449D02*
X1585Y2449D01*
X1605Y2449D02*
X1611Y2449D01*
X1620Y2449D02*
X1626Y2449D01*
X1692Y2449D02*
X1716Y2449D01*
X1736Y2449D02*
X1760Y2449D01*
X1790Y2449D02*
X1804Y2449D01*
X1821Y2449D02*
X1826Y2449D01*
X1832Y2449D02*
X1840Y2449D01*
X1845Y2449D02*
X1850Y2449D01*
X695Y2448D02*
X700Y2448D01*
X730Y2448D02*
X750Y2448D01*
X771Y2448D02*
X776Y2448D01*
X795Y2448D02*
X800Y2448D01*
X818Y2448D02*
X840Y2448D01*
X860Y2448D02*
X878Y2448D01*
X882Y2448D02*
X887Y2448D01*
X907Y2448D02*
X931Y2448D01*
X951Y2448D02*
X975Y2448D01*
X998Y2448D02*
X1003Y2448D01*
X1005Y2448D02*
X1011Y2448D01*
X1085Y2448D02*
X1105Y2448D01*
X1125Y2448D02*
X1146Y2448D01*
X1220Y2448D02*
X1226Y2448D01*
X1255Y2448D02*
X1275Y2448D01*
X1300Y2448D02*
X1321Y2448D01*
X1357Y2448D02*
X1363Y2448D01*
X1431Y2448D02*
X1453Y2448D01*
X1471Y2448D02*
X1476Y2448D01*
X1478Y2448D02*
X1496Y2448D01*
X1519Y2448D02*
X1540Y2448D01*
X1571Y2448D02*
X1585Y2448D01*
X1604Y2448D02*
X1610Y2448D01*
X1620Y2448D02*
X1626Y2448D01*
X1691Y2448D02*
X1717Y2448D01*
X1735Y2448D02*
X1761Y2448D01*
X1790Y2448D02*
X1804Y2448D01*
X1821Y2448D02*
X1826Y2448D01*
X1833Y2448D02*
X1839Y2448D01*
X1845Y2448D02*
X1850Y2448D01*
X695Y2447D02*
X700Y2447D01*
X729Y2447D02*
X750Y2447D01*
X771Y2447D02*
X776Y2447D01*
X795Y2447D02*
X800Y2447D01*
X817Y2447D02*
X841Y2447D01*
X859Y2447D02*
X879Y2447D01*
X882Y2447D02*
X887Y2447D01*
X906Y2447D02*
X931Y2447D01*
X950Y2447D02*
X975Y2447D01*
X997Y2447D02*
X1003Y2447D01*
X1006Y2447D02*
X1011Y2447D01*
X1085Y2447D02*
X1104Y2447D01*
X1124Y2447D02*
X1147Y2447D01*
X1220Y2447D02*
X1226Y2447D01*
X1254Y2447D02*
X1275Y2447D01*
X1299Y2447D02*
X1322Y2447D01*
X1356Y2447D02*
X1363Y2447D01*
X1430Y2447D02*
X1454Y2447D01*
X1471Y2447D02*
X1497Y2447D01*
X1518Y2447D02*
X1541Y2447D01*
X1571Y2447D02*
X1584Y2447D01*
X1604Y2447D02*
X1610Y2447D01*
X1620Y2447D02*
X1626Y2447D01*
X1691Y2447D02*
X1718Y2447D01*
X1735Y2447D02*
X1761Y2447D01*
X1790Y2447D02*
X1803Y2447D01*
X1821Y2447D02*
X1826Y2447D01*
X1833Y2447D02*
X1838Y2447D01*
X1845Y2447D02*
X1850Y2447D01*
X695Y2446D02*
X700Y2446D01*
X728Y2446D02*
X749Y2446D01*
X771Y2446D02*
X776Y2446D01*
X795Y2446D02*
X800Y2446D01*
X816Y2446D02*
X842Y2446D01*
X859Y2446D02*
X880Y2446D01*
X882Y2446D02*
X887Y2446D01*
X905Y2446D02*
X914Y2446D01*
X919Y2446D02*
X931Y2446D01*
X949Y2446D02*
X957Y2446D01*
X963Y2446D02*
X975Y2446D01*
X997Y2446D02*
X1002Y2446D01*
X1006Y2446D02*
X1011Y2446D01*
X1086Y2446D02*
X1103Y2446D01*
X1123Y2446D02*
X1148Y2446D01*
X1220Y2446D02*
X1226Y2446D01*
X1254Y2446D02*
X1274Y2446D01*
X1298Y2446D02*
X1323Y2446D01*
X1355Y2446D02*
X1362Y2446D01*
X1429Y2446D02*
X1454Y2446D01*
X1471Y2446D02*
X1498Y2446D01*
X1517Y2446D02*
X1542Y2446D01*
X1571Y2446D02*
X1583Y2446D01*
X1604Y2446D02*
X1609Y2446D01*
X1620Y2446D02*
X1626Y2446D01*
X1691Y2446D02*
X1718Y2446D01*
X1734Y2446D02*
X1762Y2446D01*
X1790Y2446D02*
X1802Y2446D01*
X1821Y2446D02*
X1826Y2446D01*
X1833Y2446D02*
X1838Y2446D01*
X1845Y2446D02*
X1850Y2446D01*
X695Y2445D02*
X700Y2445D01*
X728Y2445D02*
X734Y2445D01*
X771Y2445D02*
X776Y2445D01*
X795Y2445D02*
X800Y2445D01*
X816Y2445D02*
X823Y2445D01*
X835Y2445D02*
X842Y2445D01*
X859Y2445D02*
X865Y2445D01*
X873Y2445D02*
X887Y2445D01*
X904Y2445D02*
X912Y2445D01*
X920Y2445D02*
X931Y2445D01*
X948Y2445D02*
X956Y2445D01*
X964Y2445D02*
X975Y2445D01*
X997Y2445D02*
X1002Y2445D01*
X1006Y2445D02*
X1012Y2445D01*
X1094Y2445D02*
X1099Y2445D01*
X1122Y2445D02*
X1130Y2445D01*
X1141Y2445D02*
X1149Y2445D01*
X1220Y2445D02*
X1226Y2445D01*
X1253Y2445D02*
X1260Y2445D01*
X1297Y2445D02*
X1305Y2445D01*
X1316Y2445D02*
X1324Y2445D01*
X1354Y2445D02*
X1361Y2445D01*
X1428Y2445D02*
X1436Y2445D01*
X1448Y2445D02*
X1455Y2445D01*
X1471Y2445D02*
X1483Y2445D01*
X1491Y2445D02*
X1499Y2445D01*
X1516Y2445D02*
X1524Y2445D01*
X1535Y2445D02*
X1543Y2445D01*
X1571Y2445D02*
X1576Y2445D01*
X1603Y2445D02*
X1609Y2445D01*
X1620Y2445D02*
X1626Y2445D01*
X1691Y2445D02*
X1696Y2445D01*
X1713Y2445D02*
X1718Y2445D01*
X1735Y2445D02*
X1740Y2445D01*
X1756Y2445D02*
X1762Y2445D01*
X1790Y2445D02*
X1795Y2445D01*
X1821Y2445D02*
X1826Y2445D01*
X1833Y2445D02*
X1838Y2445D01*
X1845Y2445D02*
X1850Y2445D01*
X695Y2444D02*
X700Y2444D01*
X728Y2444D02*
X733Y2444D01*
X771Y2444D02*
X776Y2444D01*
X795Y2444D02*
X800Y2444D01*
X815Y2444D02*
X822Y2444D01*
X836Y2444D02*
X843Y2444D01*
X858Y2444D02*
X864Y2444D01*
X874Y2444D02*
X887Y2444D01*
X903Y2444D02*
X911Y2444D01*
X921Y2444D02*
X931Y2444D01*
X947Y2444D02*
X955Y2444D01*
X965Y2444D02*
X975Y2444D01*
X996Y2444D02*
X1002Y2444D01*
X1006Y2444D02*
X1012Y2444D01*
X1094Y2444D02*
X1099Y2444D01*
X1122Y2444D02*
X1128Y2444D01*
X1142Y2444D02*
X1149Y2444D01*
X1220Y2444D02*
X1226Y2444D01*
X1253Y2444D02*
X1259Y2444D01*
X1297Y2444D02*
X1303Y2444D01*
X1318Y2444D02*
X1324Y2444D01*
X1354Y2444D02*
X1360Y2444D01*
X1428Y2444D02*
X1435Y2444D01*
X1449Y2444D02*
X1456Y2444D01*
X1471Y2444D02*
X1482Y2444D01*
X1493Y2444D02*
X1499Y2444D01*
X1516Y2444D02*
X1522Y2444D01*
X1536Y2444D02*
X1543Y2444D01*
X1571Y2444D02*
X1576Y2444D01*
X1603Y2444D02*
X1608Y2444D01*
X1620Y2444D02*
X1626Y2444D01*
X1691Y2444D02*
X1695Y2444D01*
X1713Y2444D02*
X1718Y2444D01*
X1735Y2444D02*
X1739Y2444D01*
X1757Y2444D02*
X1762Y2444D01*
X1790Y2444D02*
X1795Y2444D01*
X1821Y2444D02*
X1826Y2444D01*
X1834Y2444D02*
X1838Y2444D01*
X1845Y2444D02*
X1850Y2444D01*
X695Y2443D02*
X700Y2443D01*
X728Y2443D02*
X733Y2443D01*
X771Y2443D02*
X776Y2443D01*
X794Y2443D02*
X800Y2443D01*
X815Y2443D02*
X821Y2443D01*
X837Y2443D02*
X843Y2443D01*
X858Y2443D02*
X863Y2443D01*
X875Y2443D02*
X887Y2443D01*
X903Y2443D02*
X910Y2443D01*
X922Y2443D02*
X931Y2443D01*
X947Y2443D02*
X954Y2443D01*
X966Y2443D02*
X975Y2443D01*
X996Y2443D02*
X1001Y2443D01*
X1007Y2443D02*
X1012Y2443D01*
X1094Y2443D02*
X1099Y2443D01*
X1121Y2443D02*
X1127Y2443D01*
X1144Y2443D02*
X1150Y2443D01*
X1220Y2443D02*
X1226Y2443D01*
X1253Y2443D02*
X1258Y2443D01*
X1296Y2443D02*
X1302Y2443D01*
X1319Y2443D02*
X1325Y2443D01*
X1353Y2443D02*
X1360Y2443D01*
X1428Y2443D02*
X1434Y2443D01*
X1450Y2443D02*
X1456Y2443D01*
X1471Y2443D02*
X1481Y2443D01*
X1494Y2443D02*
X1500Y2443D01*
X1515Y2443D02*
X1521Y2443D01*
X1538Y2443D02*
X1544Y2443D01*
X1571Y2443D02*
X1576Y2443D01*
X1603Y2443D02*
X1608Y2443D01*
X1620Y2443D02*
X1626Y2443D01*
X1693Y2443D02*
X1693Y2443D01*
X1713Y2443D02*
X1718Y2443D01*
X1736Y2443D02*
X1737Y2443D01*
X1757Y2443D02*
X1762Y2443D01*
X1790Y2443D02*
X1795Y2443D01*
X1821Y2443D02*
X1826Y2443D01*
X1835Y2443D02*
X1836Y2443D01*
X1845Y2443D02*
X1850Y2443D01*
X695Y2442D02*
X700Y2442D01*
X728Y2442D02*
X733Y2442D01*
X771Y2442D02*
X777Y2442D01*
X794Y2442D02*
X800Y2442D01*
X815Y2442D02*
X820Y2442D01*
X838Y2442D02*
X843Y2442D01*
X858Y2442D02*
X863Y2442D01*
X876Y2442D02*
X887Y2442D01*
X902Y2442D02*
X909Y2442D01*
X923Y2442D02*
X931Y2442D01*
X946Y2442D02*
X953Y2442D01*
X967Y2442D02*
X975Y2442D01*
X996Y2442D02*
X1001Y2442D01*
X1007Y2442D02*
X1012Y2442D01*
X1094Y2442D02*
X1099Y2442D01*
X1121Y2442D02*
X1126Y2442D01*
X1144Y2442D02*
X1150Y2442D01*
X1220Y2442D02*
X1226Y2442D01*
X1253Y2442D02*
X1258Y2442D01*
X1296Y2442D02*
X1302Y2442D01*
X1320Y2442D02*
X1325Y2442D01*
X1352Y2442D02*
X1359Y2442D01*
X1427Y2442D02*
X1433Y2442D01*
X1451Y2442D02*
X1456Y2442D01*
X1471Y2442D02*
X1479Y2442D01*
X1495Y2442D02*
X1500Y2442D01*
X1515Y2442D02*
X1520Y2442D01*
X1538Y2442D02*
X1544Y2442D01*
X1571Y2442D02*
X1576Y2442D01*
X1603Y2442D02*
X1608Y2442D01*
X1620Y2442D02*
X1626Y2442D01*
X1712Y2442D02*
X1718Y2442D01*
X1756Y2442D02*
X1762Y2442D01*
X1790Y2442D02*
X1795Y2442D01*
X1821Y2442D02*
X1826Y2442D01*
X1845Y2442D02*
X1850Y2442D01*
X695Y2441D02*
X700Y2441D01*
X728Y2441D02*
X733Y2441D01*
X771Y2441D02*
X777Y2441D01*
X793Y2441D02*
X799Y2441D01*
X814Y2441D02*
X820Y2441D01*
X838Y2441D02*
X844Y2441D01*
X858Y2441D02*
X863Y2441D01*
X877Y2441D02*
X887Y2441D01*
X902Y2441D02*
X908Y2441D01*
X924Y2441D02*
X931Y2441D01*
X946Y2441D02*
X952Y2441D01*
X968Y2441D02*
X975Y2441D01*
X996Y2441D02*
X1001Y2441D01*
X1007Y2441D02*
X1013Y2441D01*
X1094Y2441D02*
X1099Y2441D01*
X1121Y2441D02*
X1126Y2441D01*
X1145Y2441D02*
X1150Y2441D01*
X1220Y2441D02*
X1226Y2441D01*
X1253Y2441D02*
X1258Y2441D01*
X1296Y2441D02*
X1301Y2441D01*
X1320Y2441D02*
X1325Y2441D01*
X1351Y2441D02*
X1358Y2441D01*
X1427Y2441D02*
X1433Y2441D01*
X1451Y2441D02*
X1456Y2441D01*
X1471Y2441D02*
X1478Y2441D01*
X1495Y2441D02*
X1500Y2441D01*
X1515Y2441D02*
X1520Y2441D01*
X1539Y2441D02*
X1544Y2441D01*
X1571Y2441D02*
X1576Y2441D01*
X1602Y2441D02*
X1608Y2441D01*
X1620Y2441D02*
X1626Y2441D01*
X1710Y2441D02*
X1718Y2441D01*
X1753Y2441D02*
X1762Y2441D01*
X1790Y2441D02*
X1795Y2441D01*
X1821Y2441D02*
X1826Y2441D01*
X1845Y2441D02*
X1850Y2441D01*
X695Y2440D02*
X700Y2440D01*
X728Y2440D02*
X733Y2440D01*
X772Y2440D02*
X777Y2440D01*
X793Y2440D02*
X799Y2440D01*
X814Y2440D02*
X820Y2440D01*
X838Y2440D02*
X844Y2440D01*
X858Y2440D02*
X863Y2440D01*
X878Y2440D02*
X887Y2440D01*
X902Y2440D02*
X907Y2440D01*
X925Y2440D02*
X931Y2440D01*
X946Y2440D02*
X951Y2440D01*
X969Y2440D02*
X975Y2440D01*
X995Y2440D02*
X1001Y2440D01*
X1008Y2440D02*
X1013Y2440D01*
X1094Y2440D02*
X1099Y2440D01*
X1121Y2440D02*
X1126Y2440D01*
X1145Y2440D02*
X1150Y2440D01*
X1220Y2440D02*
X1226Y2440D01*
X1253Y2440D02*
X1258Y2440D01*
X1296Y2440D02*
X1301Y2440D01*
X1320Y2440D02*
X1325Y2440D01*
X1350Y2440D02*
X1357Y2440D01*
X1427Y2440D02*
X1432Y2440D01*
X1451Y2440D02*
X1456Y2440D01*
X1471Y2440D02*
X1477Y2440D01*
X1495Y2440D02*
X1500Y2440D01*
X1515Y2440D02*
X1520Y2440D01*
X1539Y2440D02*
X1544Y2440D01*
X1571Y2440D02*
X1576Y2440D01*
X1602Y2440D02*
X1608Y2440D01*
X1620Y2440D02*
X1626Y2440D01*
X1707Y2440D02*
X1717Y2440D01*
X1751Y2440D02*
X1761Y2440D01*
X1790Y2440D02*
X1795Y2440D01*
X1821Y2440D02*
X1826Y2440D01*
X1845Y2440D02*
X1850Y2440D01*
X695Y2439D02*
X700Y2439D01*
X728Y2439D02*
X733Y2439D01*
X772Y2439D02*
X778Y2439D01*
X793Y2439D02*
X798Y2439D01*
X814Y2439D02*
X820Y2439D01*
X838Y2439D02*
X844Y2439D01*
X859Y2439D02*
X863Y2439D01*
X880Y2439D02*
X887Y2439D01*
X902Y2439D02*
X907Y2439D01*
X926Y2439D02*
X931Y2439D01*
X946Y2439D02*
X951Y2439D01*
X970Y2439D02*
X975Y2439D01*
X995Y2439D02*
X1000Y2439D01*
X1008Y2439D02*
X1013Y2439D01*
X1094Y2439D02*
X1099Y2439D01*
X1121Y2439D02*
X1126Y2439D01*
X1145Y2439D02*
X1150Y2439D01*
X1220Y2439D02*
X1226Y2439D01*
X1253Y2439D02*
X1258Y2439D01*
X1296Y2439D02*
X1301Y2439D01*
X1320Y2439D02*
X1325Y2439D01*
X1350Y2439D02*
X1356Y2439D01*
X1427Y2439D02*
X1432Y2439D01*
X1451Y2439D02*
X1456Y2439D01*
X1471Y2439D02*
X1476Y2439D01*
X1495Y2439D02*
X1500Y2439D01*
X1515Y2439D02*
X1520Y2439D01*
X1539Y2439D02*
X1544Y2439D01*
X1571Y2439D02*
X1576Y2439D01*
X1603Y2439D02*
X1608Y2439D01*
X1620Y2439D02*
X1626Y2439D01*
X1705Y2439D02*
X1717Y2439D01*
X1749Y2439D02*
X1760Y2439D01*
X1790Y2439D02*
X1795Y2439D01*
X1821Y2439D02*
X1826Y2439D01*
X1845Y2439D02*
X1850Y2439D01*
X695Y2438D02*
X700Y2438D01*
X727Y2438D02*
X750Y2438D01*
X773Y2438D02*
X778Y2438D01*
X792Y2438D02*
X798Y2438D01*
X814Y2438D02*
X820Y2438D01*
X838Y2438D02*
X844Y2438D01*
X860Y2438D02*
X862Y2438D01*
X881Y2438D02*
X887Y2438D01*
X902Y2438D02*
X907Y2438D01*
X926Y2438D02*
X931Y2438D01*
X946Y2438D02*
X951Y2438D01*
X970Y2438D02*
X975Y2438D01*
X995Y2438D02*
X1000Y2438D01*
X1008Y2438D02*
X1014Y2438D01*
X1094Y2438D02*
X1099Y2438D01*
X1121Y2438D02*
X1126Y2438D01*
X1145Y2438D02*
X1150Y2438D01*
X1220Y2438D02*
X1226Y2438D01*
X1253Y2438D02*
X1276Y2438D01*
X1296Y2438D02*
X1301Y2438D01*
X1320Y2438D02*
X1325Y2438D01*
X1349Y2438D02*
X1356Y2438D01*
X1427Y2438D02*
X1432Y2438D01*
X1451Y2438D02*
X1456Y2438D01*
X1471Y2438D02*
X1476Y2438D01*
X1495Y2438D02*
X1500Y2438D01*
X1515Y2438D02*
X1520Y2438D01*
X1539Y2438D02*
X1544Y2438D01*
X1571Y2438D02*
X1576Y2438D01*
X1603Y2438D02*
X1608Y2438D01*
X1620Y2438D02*
X1626Y2438D01*
X1703Y2438D02*
X1716Y2438D01*
X1746Y2438D02*
X1760Y2438D01*
X1790Y2438D02*
X1795Y2438D01*
X1821Y2438D02*
X1826Y2438D01*
X1845Y2438D02*
X1850Y2438D01*
X695Y2437D02*
X700Y2437D01*
X727Y2437D02*
X752Y2437D01*
X773Y2437D02*
X779Y2437D01*
X792Y2437D02*
X797Y2437D01*
X814Y2437D02*
X820Y2437D01*
X838Y2437D02*
X844Y2437D01*
X882Y2437D02*
X887Y2437D01*
X902Y2437D02*
X907Y2437D01*
X926Y2437D02*
X931Y2437D01*
X946Y2437D02*
X951Y2437D01*
X970Y2437D02*
X975Y2437D01*
X994Y2437D02*
X1000Y2437D01*
X1009Y2437D02*
X1014Y2437D01*
X1094Y2437D02*
X1099Y2437D01*
X1121Y2437D02*
X1126Y2437D01*
X1145Y2437D02*
X1150Y2437D01*
X1220Y2437D02*
X1226Y2437D01*
X1253Y2437D02*
X1277Y2437D01*
X1296Y2437D02*
X1301Y2437D01*
X1320Y2437D02*
X1325Y2437D01*
X1348Y2437D02*
X1355Y2437D01*
X1427Y2437D02*
X1432Y2437D01*
X1451Y2437D02*
X1456Y2437D01*
X1471Y2437D02*
X1476Y2437D01*
X1495Y2437D02*
X1500Y2437D01*
X1515Y2437D02*
X1520Y2437D01*
X1539Y2437D02*
X1544Y2437D01*
X1571Y2437D02*
X1576Y2437D01*
X1603Y2437D02*
X1608Y2437D01*
X1620Y2437D02*
X1626Y2437D01*
X1700Y2437D02*
X1714Y2437D01*
X1744Y2437D02*
X1758Y2437D01*
X1790Y2437D02*
X1795Y2437D01*
X1821Y2437D02*
X1826Y2437D01*
X1845Y2437D02*
X1850Y2437D01*
X695Y2436D02*
X700Y2436D01*
X727Y2436D02*
X753Y2436D01*
X774Y2436D02*
X779Y2436D01*
X791Y2436D02*
X797Y2436D01*
X814Y2436D02*
X820Y2436D01*
X838Y2436D02*
X844Y2436D01*
X882Y2436D02*
X887Y2436D01*
X902Y2436D02*
X907Y2436D01*
X926Y2436D02*
X931Y2436D01*
X946Y2436D02*
X951Y2436D01*
X970Y2436D02*
X975Y2436D01*
X994Y2436D02*
X999Y2436D01*
X1009Y2436D02*
X1014Y2436D01*
X1094Y2436D02*
X1099Y2436D01*
X1121Y2436D02*
X1126Y2436D01*
X1145Y2436D02*
X1150Y2436D01*
X1220Y2436D02*
X1226Y2436D01*
X1253Y2436D02*
X1279Y2436D01*
X1296Y2436D02*
X1325Y2436D01*
X1347Y2436D02*
X1354Y2436D01*
X1427Y2436D02*
X1456Y2436D01*
X1471Y2436D02*
X1476Y2436D01*
X1495Y2436D02*
X1500Y2436D01*
X1515Y2436D02*
X1520Y2436D01*
X1539Y2436D02*
X1544Y2436D01*
X1571Y2436D02*
X1576Y2436D01*
X1603Y2436D02*
X1609Y2436D01*
X1620Y2436D02*
X1626Y2436D01*
X1698Y2436D02*
X1712Y2436D01*
X1742Y2436D02*
X1756Y2436D01*
X1790Y2436D02*
X1795Y2436D01*
X1821Y2436D02*
X1826Y2436D01*
X1845Y2436D02*
X1850Y2436D01*
X695Y2435D02*
X700Y2435D01*
X727Y2435D02*
X754Y2435D01*
X774Y2435D02*
X780Y2435D01*
X791Y2435D02*
X796Y2435D01*
X814Y2435D02*
X820Y2435D01*
X838Y2435D02*
X844Y2435D01*
X882Y2435D02*
X887Y2435D01*
X902Y2435D02*
X907Y2435D01*
X926Y2435D02*
X931Y2435D01*
X946Y2435D02*
X951Y2435D01*
X970Y2435D02*
X975Y2435D01*
X994Y2435D02*
X999Y2435D01*
X1009Y2435D02*
X1015Y2435D01*
X1094Y2435D02*
X1099Y2435D01*
X1121Y2435D02*
X1126Y2435D01*
X1145Y2435D02*
X1150Y2435D01*
X1220Y2435D02*
X1226Y2435D01*
X1253Y2435D02*
X1279Y2435D01*
X1296Y2435D02*
X1325Y2435D01*
X1347Y2435D02*
X1353Y2435D01*
X1427Y2435D02*
X1456Y2435D01*
X1471Y2435D02*
X1476Y2435D01*
X1495Y2435D02*
X1500Y2435D01*
X1515Y2435D02*
X1520Y2435D01*
X1539Y2435D02*
X1544Y2435D01*
X1571Y2435D02*
X1576Y2435D01*
X1604Y2435D02*
X1609Y2435D01*
X1620Y2435D02*
X1626Y2435D01*
X1696Y2435D02*
X1710Y2435D01*
X1740Y2435D02*
X1754Y2435D01*
X1790Y2435D02*
X1795Y2435D01*
X1821Y2435D02*
X1826Y2435D01*
X1845Y2435D02*
X1850Y2435D01*
X695Y2434D02*
X700Y2434D01*
X727Y2434D02*
X755Y2434D01*
X774Y2434D02*
X780Y2434D01*
X790Y2434D02*
X796Y2434D01*
X814Y2434D02*
X820Y2434D01*
X838Y2434D02*
X844Y2434D01*
X882Y2434D02*
X887Y2434D01*
X902Y2434D02*
X907Y2434D01*
X926Y2434D02*
X931Y2434D01*
X946Y2434D02*
X951Y2434D01*
X970Y2434D02*
X975Y2434D01*
X993Y2434D02*
X999Y2434D01*
X1009Y2434D02*
X1015Y2434D01*
X1094Y2434D02*
X1099Y2434D01*
X1121Y2434D02*
X1126Y2434D01*
X1145Y2434D02*
X1150Y2434D01*
X1220Y2434D02*
X1226Y2434D01*
X1253Y2434D02*
X1280Y2434D01*
X1296Y2434D02*
X1325Y2434D01*
X1346Y2434D02*
X1353Y2434D01*
X1427Y2434D02*
X1456Y2434D01*
X1471Y2434D02*
X1476Y2434D01*
X1495Y2434D02*
X1500Y2434D01*
X1515Y2434D02*
X1520Y2434D01*
X1539Y2434D02*
X1544Y2434D01*
X1571Y2434D02*
X1576Y2434D01*
X1604Y2434D02*
X1610Y2434D01*
X1620Y2434D02*
X1626Y2434D01*
X1694Y2434D02*
X1708Y2434D01*
X1738Y2434D02*
X1752Y2434D01*
X1790Y2434D02*
X1795Y2434D01*
X1821Y2434D02*
X1826Y2434D01*
X1845Y2434D02*
X1850Y2434D01*
X695Y2433D02*
X700Y2433D01*
X727Y2433D02*
X755Y2433D01*
X775Y2433D02*
X781Y2433D01*
X790Y2433D02*
X796Y2433D01*
X814Y2433D02*
X820Y2433D01*
X838Y2433D02*
X844Y2433D01*
X882Y2433D02*
X887Y2433D01*
X902Y2433D02*
X907Y2433D01*
X926Y2433D02*
X931Y2433D01*
X946Y2433D02*
X951Y2433D01*
X970Y2433D02*
X975Y2433D01*
X993Y2433D02*
X1015Y2433D01*
X1094Y2433D02*
X1099Y2433D01*
X1121Y2433D02*
X1126Y2433D01*
X1145Y2433D02*
X1150Y2433D01*
X1220Y2433D02*
X1226Y2433D01*
X1253Y2433D02*
X1281Y2433D01*
X1296Y2433D02*
X1325Y2433D01*
X1345Y2433D02*
X1352Y2433D01*
X1427Y2433D02*
X1456Y2433D01*
X1471Y2433D02*
X1476Y2433D01*
X1495Y2433D02*
X1500Y2433D01*
X1515Y2433D02*
X1520Y2433D01*
X1539Y2433D02*
X1544Y2433D01*
X1571Y2433D02*
X1576Y2433D01*
X1605Y2433D02*
X1610Y2433D01*
X1620Y2433D02*
X1626Y2433D01*
X1693Y2433D02*
X1705Y2433D01*
X1737Y2433D02*
X1749Y2433D01*
X1790Y2433D02*
X1795Y2433D01*
X1821Y2433D02*
X1826Y2433D01*
X1845Y2433D02*
X1850Y2433D01*
X695Y2432D02*
X700Y2432D01*
X727Y2432D02*
X734Y2432D01*
X750Y2432D02*
X756Y2432D01*
X775Y2432D02*
X781Y2432D01*
X789Y2432D02*
X795Y2432D01*
X814Y2432D02*
X820Y2432D01*
X838Y2432D02*
X844Y2432D01*
X882Y2432D02*
X887Y2432D01*
X902Y2432D02*
X907Y2432D01*
X926Y2432D02*
X931Y2432D01*
X946Y2432D02*
X951Y2432D01*
X970Y2432D02*
X975Y2432D01*
X993Y2432D02*
X1015Y2432D01*
X1094Y2432D02*
X1099Y2432D01*
X1121Y2432D02*
X1126Y2432D01*
X1145Y2432D02*
X1150Y2432D01*
X1220Y2432D02*
X1226Y2432D01*
X1253Y2432D02*
X1259Y2432D01*
X1275Y2432D02*
X1281Y2432D01*
X1296Y2432D02*
X1325Y2432D01*
X1344Y2432D02*
X1351Y2432D01*
X1427Y2432D02*
X1456Y2432D01*
X1471Y2432D02*
X1476Y2432D01*
X1495Y2432D02*
X1500Y2432D01*
X1515Y2432D02*
X1520Y2432D01*
X1539Y2432D02*
X1544Y2432D01*
X1571Y2432D02*
X1576Y2432D01*
X1605Y2432D02*
X1611Y2432D01*
X1620Y2432D02*
X1626Y2432D01*
X1692Y2432D02*
X1703Y2432D01*
X1736Y2432D02*
X1747Y2432D01*
X1790Y2432D02*
X1795Y2432D01*
X1821Y2432D02*
X1826Y2432D01*
X1845Y2432D02*
X1850Y2432D01*
X695Y2431D02*
X700Y2431D01*
X727Y2431D02*
X733Y2431D01*
X750Y2431D02*
X756Y2431D01*
X776Y2431D02*
X781Y2431D01*
X789Y2431D02*
X795Y2431D01*
X814Y2431D02*
X820Y2431D01*
X838Y2431D02*
X844Y2431D01*
X882Y2431D02*
X887Y2431D01*
X902Y2431D02*
X907Y2431D01*
X926Y2431D02*
X931Y2431D01*
X946Y2431D02*
X951Y2431D01*
X970Y2431D02*
X975Y2431D01*
X993Y2431D02*
X1016Y2431D01*
X1094Y2431D02*
X1099Y2431D01*
X1121Y2431D02*
X1126Y2431D01*
X1145Y2431D02*
X1150Y2431D01*
X1220Y2431D02*
X1226Y2431D01*
X1253Y2431D02*
X1258Y2431D01*
X1276Y2431D02*
X1281Y2431D01*
X1297Y2431D02*
X1325Y2431D01*
X1343Y2431D02*
X1350Y2431D01*
X1428Y2431D02*
X1456Y2431D01*
X1471Y2431D02*
X1476Y2431D01*
X1495Y2431D02*
X1500Y2431D01*
X1515Y2431D02*
X1520Y2431D01*
X1539Y2431D02*
X1544Y2431D01*
X1571Y2431D02*
X1576Y2431D01*
X1606Y2431D02*
X1611Y2431D01*
X1620Y2431D02*
X1626Y2431D01*
X1691Y2431D02*
X1701Y2431D01*
X1735Y2431D02*
X1745Y2431D01*
X1790Y2431D02*
X1795Y2431D01*
X1821Y2431D02*
X1826Y2431D01*
X1845Y2431D02*
X1850Y2431D01*
X695Y2430D02*
X700Y2430D01*
X727Y2430D02*
X732Y2430D01*
X751Y2430D02*
X756Y2430D01*
X776Y2430D02*
X782Y2430D01*
X789Y2430D02*
X794Y2430D01*
X814Y2430D02*
X820Y2430D01*
X838Y2430D02*
X844Y2430D01*
X882Y2430D02*
X887Y2430D01*
X902Y2430D02*
X907Y2430D01*
X926Y2430D02*
X931Y2430D01*
X946Y2430D02*
X951Y2430D01*
X970Y2430D02*
X975Y2430D01*
X992Y2430D02*
X1016Y2430D01*
X1094Y2430D02*
X1099Y2430D01*
X1121Y2430D02*
X1126Y2430D01*
X1145Y2430D02*
X1150Y2430D01*
X1220Y2430D02*
X1226Y2430D01*
X1253Y2430D02*
X1258Y2430D01*
X1276Y2430D02*
X1281Y2430D01*
X1299Y2430D02*
X1325Y2430D01*
X1343Y2430D02*
X1349Y2430D01*
X1430Y2430D02*
X1456Y2430D01*
X1471Y2430D02*
X1476Y2430D01*
X1495Y2430D02*
X1500Y2430D01*
X1515Y2430D02*
X1520Y2430D01*
X1539Y2430D02*
X1544Y2430D01*
X1571Y2430D02*
X1576Y2430D01*
X1606Y2430D02*
X1612Y2430D01*
X1620Y2430D02*
X1626Y2430D01*
X1691Y2430D02*
X1699Y2430D01*
X1735Y2430D02*
X1742Y2430D01*
X1790Y2430D02*
X1795Y2430D01*
X1821Y2430D02*
X1826Y2430D01*
X1845Y2430D02*
X1850Y2430D01*
X695Y2429D02*
X700Y2429D01*
X727Y2429D02*
X732Y2429D01*
X751Y2429D02*
X756Y2429D01*
X777Y2429D02*
X782Y2429D01*
X788Y2429D02*
X794Y2429D01*
X814Y2429D02*
X820Y2429D01*
X838Y2429D02*
X844Y2429D01*
X882Y2429D02*
X887Y2429D01*
X902Y2429D02*
X907Y2429D01*
X926Y2429D02*
X931Y2429D01*
X946Y2429D02*
X951Y2429D01*
X969Y2429D02*
X975Y2429D01*
X992Y2429D02*
X1016Y2429D01*
X1094Y2429D02*
X1099Y2429D01*
X1121Y2429D02*
X1126Y2429D01*
X1145Y2429D02*
X1150Y2429D01*
X1220Y2429D02*
X1226Y2429D01*
X1252Y2429D02*
X1258Y2429D01*
X1276Y2429D02*
X1281Y2429D01*
X1320Y2429D02*
X1325Y2429D01*
X1342Y2429D02*
X1349Y2429D01*
X1451Y2429D02*
X1456Y2429D01*
X1471Y2429D02*
X1477Y2429D01*
X1495Y2429D02*
X1500Y2429D01*
X1515Y2429D02*
X1520Y2429D01*
X1539Y2429D02*
X1544Y2429D01*
X1571Y2429D02*
X1576Y2429D01*
X1607Y2429D02*
X1612Y2429D01*
X1620Y2429D02*
X1626Y2429D01*
X1690Y2429D02*
X1697Y2429D01*
X1734Y2429D02*
X1740Y2429D01*
X1790Y2429D02*
X1795Y2429D01*
X1821Y2429D02*
X1826Y2429D01*
X1845Y2429D02*
X1850Y2429D01*
X695Y2428D02*
X700Y2428D01*
X727Y2428D02*
X732Y2428D01*
X751Y2428D02*
X756Y2428D01*
X777Y2428D02*
X783Y2428D01*
X788Y2428D02*
X793Y2428D01*
X814Y2428D02*
X820Y2428D01*
X838Y2428D02*
X844Y2428D01*
X882Y2428D02*
X887Y2428D01*
X902Y2428D02*
X907Y2428D01*
X925Y2428D02*
X931Y2428D01*
X946Y2428D02*
X951Y2428D01*
X969Y2428D02*
X975Y2428D01*
X992Y2428D02*
X1017Y2428D01*
X1094Y2428D02*
X1099Y2428D01*
X1121Y2428D02*
X1126Y2428D01*
X1145Y2428D02*
X1150Y2428D01*
X1220Y2428D02*
X1226Y2428D01*
X1252Y2428D02*
X1258Y2428D01*
X1276Y2428D02*
X1281Y2428D01*
X1320Y2428D02*
X1325Y2428D01*
X1341Y2428D02*
X1348Y2428D01*
X1366Y2428D02*
X1367Y2428D01*
X1451Y2428D02*
X1456Y2428D01*
X1471Y2428D02*
X1478Y2428D01*
X1495Y2428D02*
X1500Y2428D01*
X1515Y2428D02*
X1520Y2428D01*
X1539Y2428D02*
X1544Y2428D01*
X1571Y2428D02*
X1576Y2428D01*
X1607Y2428D02*
X1613Y2428D01*
X1620Y2428D02*
X1626Y2428D01*
X1690Y2428D02*
X1696Y2428D01*
X1734Y2428D02*
X1739Y2428D01*
X1790Y2428D02*
X1795Y2428D01*
X1821Y2428D02*
X1826Y2428D01*
X1845Y2428D02*
X1850Y2428D01*
X695Y2427D02*
X700Y2427D01*
X727Y2427D02*
X733Y2427D01*
X751Y2427D02*
X756Y2427D01*
X778Y2427D02*
X783Y2427D01*
X787Y2427D02*
X793Y2427D01*
X814Y2427D02*
X820Y2427D01*
X838Y2427D02*
X843Y2427D01*
X882Y2427D02*
X887Y2427D01*
X902Y2427D02*
X908Y2427D01*
X924Y2427D02*
X931Y2427D01*
X946Y2427D02*
X952Y2427D01*
X968Y2427D02*
X975Y2427D01*
X991Y2427D02*
X997Y2427D01*
X1011Y2427D02*
X1017Y2427D01*
X1094Y2427D02*
X1099Y2427D01*
X1121Y2427D02*
X1126Y2427D01*
X1145Y2427D02*
X1150Y2427D01*
X1220Y2427D02*
X1226Y2427D01*
X1252Y2427D02*
X1258Y2427D01*
X1276Y2427D02*
X1281Y2427D01*
X1320Y2427D02*
X1325Y2427D01*
X1341Y2427D02*
X1347Y2427D01*
X1364Y2427D02*
X1368Y2427D01*
X1451Y2427D02*
X1456Y2427D01*
X1471Y2427D02*
X1479Y2427D01*
X1495Y2427D02*
X1500Y2427D01*
X1515Y2427D02*
X1520Y2427D01*
X1539Y2427D02*
X1544Y2427D01*
X1571Y2427D02*
X1576Y2427D01*
X1608Y2427D02*
X1614Y2427D01*
X1620Y2427D02*
X1626Y2427D01*
X1690Y2427D02*
X1695Y2427D01*
X1734Y2427D02*
X1739Y2427D01*
X1790Y2427D02*
X1795Y2427D01*
X1821Y2427D02*
X1826Y2427D01*
X1845Y2427D02*
X1850Y2427D01*
X695Y2426D02*
X700Y2426D01*
X727Y2426D02*
X734Y2426D01*
X751Y2426D02*
X756Y2426D01*
X778Y2426D02*
X784Y2426D01*
X787Y2426D02*
X793Y2426D01*
X815Y2426D02*
X820Y2426D01*
X838Y2426D02*
X843Y2426D01*
X882Y2426D02*
X887Y2426D01*
X903Y2426D02*
X909Y2426D01*
X923Y2426D02*
X931Y2426D01*
X946Y2426D02*
X953Y2426D01*
X967Y2426D02*
X975Y2426D01*
X991Y2426D02*
X996Y2426D01*
X1012Y2426D02*
X1017Y2426D01*
X1094Y2426D02*
X1099Y2426D01*
X1121Y2426D02*
X1127Y2426D01*
X1144Y2426D02*
X1150Y2426D01*
X1220Y2426D02*
X1226Y2426D01*
X1252Y2426D02*
X1259Y2426D01*
X1276Y2426D02*
X1281Y2426D01*
X1319Y2426D02*
X1325Y2426D01*
X1340Y2426D02*
X1346Y2426D01*
X1364Y2426D02*
X1369Y2426D01*
X1450Y2426D02*
X1456Y2426D01*
X1471Y2426D02*
X1480Y2426D01*
X1494Y2426D02*
X1500Y2426D01*
X1515Y2426D02*
X1521Y2426D01*
X1538Y2426D02*
X1544Y2426D01*
X1571Y2426D02*
X1576Y2426D01*
X1608Y2426D02*
X1614Y2426D01*
X1620Y2426D02*
X1626Y2426D01*
X1690Y2426D02*
X1695Y2426D01*
X1734Y2426D02*
X1739Y2426D01*
X1790Y2426D02*
X1795Y2426D01*
X1821Y2426D02*
X1826Y2426D01*
X1845Y2426D02*
X1850Y2426D01*
X695Y2425D02*
X700Y2425D01*
X727Y2425D02*
X736Y2425D01*
X751Y2425D02*
X756Y2425D01*
X778Y2425D02*
X784Y2425D01*
X786Y2425D02*
X792Y2425D01*
X815Y2425D02*
X821Y2425D01*
X837Y2425D02*
X843Y2425D01*
X882Y2425D02*
X887Y2425D01*
X903Y2425D02*
X911Y2425D01*
X922Y2425D02*
X931Y2425D01*
X947Y2425D02*
X954Y2425D01*
X966Y2425D02*
X975Y2425D01*
X991Y2425D02*
X996Y2425D01*
X1012Y2425D02*
X1017Y2425D01*
X1094Y2425D02*
X1099Y2425D01*
X1121Y2425D02*
X1128Y2425D01*
X1143Y2425D02*
X1149Y2425D01*
X1220Y2425D02*
X1226Y2425D01*
X1252Y2425D02*
X1261Y2425D01*
X1276Y2425D02*
X1281Y2425D01*
X1318Y2425D02*
X1325Y2425D01*
X1340Y2425D02*
X1346Y2425D01*
X1364Y2425D02*
X1369Y2425D01*
X1449Y2425D02*
X1456Y2425D01*
X1471Y2425D02*
X1481Y2425D01*
X1493Y2425D02*
X1500Y2425D01*
X1515Y2425D02*
X1522Y2425D01*
X1537Y2425D02*
X1543Y2425D01*
X1571Y2425D02*
X1576Y2425D01*
X1609Y2425D02*
X1615Y2425D01*
X1620Y2425D02*
X1626Y2425D01*
X1690Y2425D02*
X1696Y2425D01*
X1715Y2425D02*
X1718Y2425D01*
X1734Y2425D02*
X1739Y2425D01*
X1759Y2425D02*
X1762Y2425D01*
X1790Y2425D02*
X1795Y2425D01*
X1821Y2425D02*
X1826Y2425D01*
X1845Y2425D02*
X1850Y2425D01*
X695Y2424D02*
X700Y2424D01*
X727Y2424D02*
X737Y2424D01*
X750Y2424D02*
X756Y2424D01*
X779Y2424D02*
X792Y2424D01*
X815Y2424D02*
X823Y2424D01*
X835Y2424D02*
X843Y2424D01*
X882Y2424D02*
X887Y2424D01*
X904Y2424D02*
X912Y2424D01*
X921Y2424D02*
X931Y2424D01*
X948Y2424D02*
X956Y2424D01*
X965Y2424D02*
X975Y2424D01*
X991Y2424D02*
X996Y2424D01*
X1012Y2424D02*
X1018Y2424D01*
X1094Y2424D02*
X1099Y2424D01*
X1122Y2424D02*
X1129Y2424D01*
X1142Y2424D02*
X1149Y2424D01*
X1220Y2424D02*
X1226Y2424D01*
X1252Y2424D02*
X1263Y2424D01*
X1275Y2424D02*
X1281Y2424D01*
X1317Y2424D02*
X1324Y2424D01*
X1340Y2424D02*
X1345Y2424D01*
X1363Y2424D02*
X1369Y2424D01*
X1448Y2424D02*
X1455Y2424D01*
X1471Y2424D02*
X1482Y2424D01*
X1492Y2424D02*
X1499Y2424D01*
X1516Y2424D02*
X1523Y2424D01*
X1536Y2424D02*
X1543Y2424D01*
X1571Y2424D02*
X1576Y2424D01*
X1609Y2424D02*
X1615Y2424D01*
X1620Y2424D02*
X1626Y2424D01*
X1690Y2424D02*
X1696Y2424D01*
X1713Y2424D02*
X1719Y2424D01*
X1734Y2424D02*
X1740Y2424D01*
X1757Y2424D02*
X1763Y2424D01*
X1790Y2424D02*
X1795Y2424D01*
X1821Y2424D02*
X1826Y2424D01*
X1845Y2424D02*
X1850Y2424D01*
X688Y2423D02*
X707Y2423D01*
X727Y2423D02*
X755Y2423D01*
X779Y2423D02*
X791Y2423D01*
X816Y2423D02*
X842Y2423D01*
X882Y2423D02*
X887Y2423D01*
X905Y2423D02*
X913Y2423D01*
X920Y2423D02*
X931Y2423D01*
X948Y2423D02*
X957Y2423D01*
X964Y2423D02*
X975Y2423D01*
X990Y2423D02*
X996Y2423D01*
X1013Y2423D02*
X1018Y2423D01*
X1094Y2423D02*
X1099Y2423D01*
X1122Y2423D02*
X1148Y2423D01*
X1214Y2423D02*
X1232Y2423D01*
X1252Y2423D02*
X1281Y2423D01*
X1298Y2423D02*
X1324Y2423D01*
X1340Y2423D02*
X1369Y2423D01*
X1429Y2423D02*
X1455Y2423D01*
X1471Y2423D02*
X1499Y2423D01*
X1516Y2423D02*
X1542Y2423D01*
X1564Y2423D02*
X1583Y2423D01*
X1610Y2423D02*
X1629Y2423D01*
X1691Y2423D02*
X1719Y2423D01*
X1734Y2423D02*
X1763Y2423D01*
X1783Y2423D02*
X1802Y2423D01*
X1821Y2423D02*
X1826Y2423D01*
X1845Y2423D02*
X1850Y2423D01*
X687Y2422D02*
X709Y2422D01*
X727Y2422D02*
X755Y2422D01*
X780Y2422D02*
X791Y2422D01*
X817Y2422D02*
X841Y2422D01*
X882Y2422D02*
X887Y2422D01*
X906Y2422D02*
X915Y2422D01*
X918Y2422D02*
X931Y2422D01*
X950Y2422D02*
X959Y2422D01*
X962Y2422D02*
X975Y2422D01*
X990Y2422D02*
X995Y2422D01*
X1013Y2422D02*
X1018Y2422D01*
X1094Y2422D02*
X1099Y2422D01*
X1123Y2422D02*
X1148Y2422D01*
X1212Y2422D02*
X1234Y2422D01*
X1252Y2422D02*
X1280Y2422D01*
X1297Y2422D02*
X1323Y2422D01*
X1340Y2422D02*
X1368Y2422D01*
X1428Y2422D02*
X1454Y2422D01*
X1471Y2422D02*
X1498Y2422D01*
X1517Y2422D02*
X1542Y2422D01*
X1562Y2422D02*
X1584Y2422D01*
X1610Y2422D02*
X1631Y2422D01*
X1691Y2422D02*
X1719Y2422D01*
X1735Y2422D02*
X1763Y2422D01*
X1781Y2422D02*
X1803Y2422D01*
X1821Y2422D02*
X1826Y2422D01*
X1845Y2422D02*
X1850Y2422D01*
X686Y2421D02*
X709Y2421D01*
X727Y2421D02*
X754Y2421D01*
X780Y2421D02*
X790Y2421D01*
X818Y2421D02*
X840Y2421D01*
X882Y2421D02*
X887Y2421D01*
X907Y2421D02*
X931Y2421D01*
X951Y2421D02*
X975Y2421D01*
X990Y2421D02*
X995Y2421D01*
X1013Y2421D02*
X1019Y2421D01*
X1094Y2421D02*
X1099Y2421D01*
X1124Y2421D02*
X1147Y2421D01*
X1212Y2421D02*
X1234Y2421D01*
X1252Y2421D02*
X1280Y2421D01*
X1296Y2421D02*
X1322Y2421D01*
X1340Y2421D02*
X1368Y2421D01*
X1427Y2421D02*
X1453Y2421D01*
X1471Y2421D02*
X1497Y2421D01*
X1518Y2421D02*
X1541Y2421D01*
X1562Y2421D02*
X1585Y2421D01*
X1611Y2421D02*
X1631Y2421D01*
X1692Y2421D02*
X1718Y2421D01*
X1736Y2421D02*
X1762Y2421D01*
X1781Y2421D02*
X1803Y2421D01*
X1821Y2421D02*
X1826Y2421D01*
X1845Y2421D02*
X1850Y2421D01*
X686Y2420D02*
X709Y2420D01*
X727Y2420D02*
X754Y2420D01*
X781Y2420D02*
X790Y2420D01*
X819Y2420D02*
X839Y2420D01*
X882Y2420D02*
X887Y2420D01*
X908Y2420D02*
X931Y2420D01*
X952Y2420D02*
X975Y2420D01*
X990Y2420D02*
X995Y2420D01*
X1014Y2420D02*
X1019Y2420D01*
X1094Y2420D02*
X1099Y2420D01*
X1125Y2420D02*
X1145Y2420D01*
X1211Y2420D02*
X1235Y2420D01*
X1252Y2420D02*
X1279Y2420D01*
X1296Y2420D02*
X1321Y2420D01*
X1341Y2420D02*
X1367Y2420D01*
X1427Y2420D02*
X1452Y2420D01*
X1471Y2420D02*
X1476Y2420D01*
X1478Y2420D02*
X1496Y2420D01*
X1519Y2420D02*
X1539Y2420D01*
X1562Y2420D02*
X1585Y2420D01*
X1611Y2420D02*
X1631Y2420D01*
X1693Y2420D02*
X1717Y2420D01*
X1736Y2420D02*
X1761Y2420D01*
X1781Y2420D02*
X1804Y2420D01*
X1821Y2420D02*
X1826Y2420D01*
X1845Y2420D02*
X1850Y2420D01*
X686Y2419D02*
X709Y2419D01*
X727Y2419D02*
X732Y2419D01*
X735Y2419D02*
X752Y2419D01*
X781Y2419D02*
X789Y2419D01*
X820Y2419D02*
X838Y2419D01*
X883Y2419D02*
X887Y2419D01*
X909Y2419D02*
X924Y2419D01*
X926Y2419D02*
X931Y2419D01*
X953Y2419D02*
X967Y2419D01*
X970Y2419D02*
X975Y2419D01*
X990Y2419D02*
X994Y2419D01*
X1014Y2419D02*
X1019Y2419D01*
X1094Y2419D02*
X1098Y2419D01*
X1127Y2419D02*
X1144Y2419D01*
X1212Y2419D02*
X1234Y2419D01*
X1252Y2419D02*
X1257Y2419D01*
X1260Y2419D02*
X1278Y2419D01*
X1296Y2419D02*
X1319Y2419D01*
X1342Y2419D02*
X1366Y2419D01*
X1428Y2419D02*
X1451Y2419D01*
X1471Y2419D02*
X1476Y2419D01*
X1480Y2419D02*
X1495Y2419D01*
X1521Y2419D02*
X1538Y2419D01*
X1562Y2419D02*
X1584Y2419D01*
X1613Y2419D02*
X1631Y2419D01*
X1694Y2419D02*
X1716Y2419D01*
X1737Y2419D02*
X1760Y2419D01*
X1781Y2419D02*
X1803Y2419D01*
X1822Y2419D02*
X1826Y2419D01*
X1846Y2419D02*
X1850Y2419D01*
X687Y2418D02*
X708Y2418D01*
X728Y2418D02*
X731Y2418D01*
X737Y2418D02*
X751Y2418D01*
X782Y2418D02*
X789Y2418D01*
X822Y2418D02*
X836Y2418D01*
X883Y2418D02*
X886Y2418D01*
X910Y2418D02*
X923Y2418D01*
X926Y2418D02*
X931Y2418D01*
X954Y2418D02*
X966Y2418D01*
X970Y2418D02*
X975Y2418D01*
X990Y2418D02*
X994Y2418D01*
X1015Y2418D02*
X1018Y2418D01*
X1095Y2418D02*
X1098Y2418D01*
X1128Y2418D02*
X1143Y2418D01*
X1212Y2418D02*
X1234Y2418D01*
X1253Y2418D02*
X1256Y2418D01*
X1262Y2418D02*
X1276Y2418D01*
X1297Y2418D02*
X1318Y2418D01*
X1343Y2418D02*
X1364Y2418D01*
X1428Y2418D02*
X1449Y2418D01*
X1472Y2418D02*
X1475Y2418D01*
X1482Y2418D02*
X1493Y2418D01*
X1522Y2418D02*
X1537Y2418D01*
X1563Y2418D02*
X1584Y2418D01*
X1614Y2418D02*
X1631Y2418D01*
X1695Y2418D02*
X1714Y2418D01*
X1739Y2418D02*
X1758Y2418D01*
X1781Y2418D02*
X1803Y2418D01*
X1822Y2418D02*
X1825Y2418D01*
X1846Y2418D02*
X1849Y2418D01*
X912Y2417D02*
X921Y2417D01*
X926Y2417D02*
X931Y2417D01*
X956Y2417D02*
X965Y2417D01*
X970Y2417D02*
X975Y2417D01*
X915Y2416D02*
X918Y2416D01*
X926Y2416D02*
X931Y2416D01*
X958Y2416D02*
X962Y2416D01*
X970Y2416D02*
X975Y2416D01*
X926Y2415D02*
X931Y2415D01*
X970Y2415D02*
X975Y2415D01*
X926Y2414D02*
X931Y2414D01*
X970Y2414D02*
X975Y2414D01*
X926Y2413D02*
X931Y2413D01*
X970Y2413D02*
X975Y2413D01*
X926Y2412D02*
X931Y2412D01*
X970Y2412D02*
X975Y2412D01*
X926Y2411D02*
X931Y2411D01*
X970Y2411D02*
X975Y2411D01*
X926Y2410D02*
X931Y2410D01*
X970Y2410D02*
X975Y2410D01*
X926Y2409D02*
X931Y2409D01*
X970Y2409D02*
X975Y2409D01*
X926Y2408D02*
X931Y2408D01*
X970Y2408D02*
X975Y2408D01*
X926Y2407D02*
X931Y2407D01*
X970Y2407D02*
X975Y2407D01*
X926Y2406D02*
X931Y2406D01*
X970Y2406D02*
X975Y2406D01*
X927Y2405D02*
X930Y2405D01*
X971Y2405D02*
X974Y2405D01*
D02*
G04 End of Silk0*
M02*