G04 MADE WITH FRITZING*
G04 WWW.FRITZING.ORG*
G04 DOUBLE SIDED*
G04 HOLES PLATED*
G04 CONTOUR ON CENTER OF CONTOUR VECTOR*
%ASAXBY*%
%FSLAX23Y23*%
%MOIN*%
%OFA0B0*%
%SFA1.0B1.0*%
%ADD10R,0.001000X0.001000*%
%LNSILK0*%
G90*
G70*
G36*
X447Y820D02*
X447Y813D01*
X449Y813D01*
X449Y805D01*
X450Y805D01*
X450Y797D01*
X452Y797D01*
X452Y789D01*
X447Y789D01*
X447Y792D01*
X445Y792D01*
X445Y795D01*
X444Y795D01*
X444Y808D01*
X442Y808D01*
X442Y820D01*
X447Y820D01*
G37*
D02*
G36*
X403Y813D02*
X403Y810D01*
X404Y810D01*
X404Y807D01*
X406Y807D01*
X406Y803D01*
X408Y803D01*
X408Y798D01*
X409Y798D01*
X409Y793D01*
X411Y793D01*
X411Y790D01*
X413Y790D01*
X413Y787D01*
X414Y787D01*
X414Y782D01*
X416Y782D01*
X416Y779D01*
X414Y779D01*
X414Y777D01*
X411Y777D01*
X411Y779D01*
X409Y779D01*
X409Y784D01*
X408Y784D01*
X408Y787D01*
X406Y787D01*
X406Y790D01*
X404Y790D01*
X404Y793D01*
X403Y793D01*
X403Y798D01*
X401Y798D01*
X401Y805D01*
X400Y805D01*
X400Y808D01*
X398Y808D01*
X398Y813D01*
X403Y813D01*
G37*
D02*
G36*
X350Y785D02*
X350Y784D01*
X352Y784D01*
X352Y782D01*
X354Y782D01*
X354Y779D01*
X355Y779D01*
X355Y777D01*
X357Y777D01*
X357Y775D01*
X362Y775D01*
X362Y774D01*
X363Y774D01*
X363Y772D01*
X365Y772D01*
X365Y771D01*
X368Y771D01*
X368Y769D01*
X372Y769D01*
X372Y767D01*
X373Y767D01*
X373Y766D01*
X377Y766D01*
X377Y764D01*
X380Y764D01*
X380Y762D01*
X381Y762D01*
X381Y759D01*
X377Y759D01*
X377Y761D01*
X373Y761D01*
X373Y762D01*
X370Y762D01*
X370Y764D01*
X368Y764D01*
X368Y766D01*
X365Y766D01*
X365Y767D01*
X362Y767D01*
X362Y769D01*
X359Y769D01*
X359Y772D01*
X354Y772D01*
X354Y774D01*
X352Y774D01*
X352Y775D01*
X350Y775D01*
X350Y777D01*
X347Y777D01*
X347Y779D01*
X345Y779D01*
X345Y780D01*
X344Y780D01*
X344Y785D01*
X350Y785D01*
G37*
D02*
G36*
X613Y795D02*
X613Y793D01*
X619Y793D01*
X619Y792D01*
X623Y792D01*
X623Y790D01*
X624Y790D01*
X624Y787D01*
X605Y787D01*
X605Y785D01*
X601Y785D01*
X601Y784D01*
X600Y784D01*
X600Y782D01*
X598Y782D01*
X598Y780D01*
X596Y780D01*
X596Y777D01*
X595Y777D01*
X595Y774D01*
X593Y774D01*
X593Y767D01*
X591Y767D01*
X591Y764D01*
X593Y764D01*
X593Y756D01*
X595Y756D01*
X595Y754D01*
X603Y754D01*
X603Y752D01*
X585Y752D01*
X585Y771D01*
X587Y771D01*
X587Y777D01*
X588Y777D01*
X588Y780D01*
X590Y780D01*
X590Y784D01*
X591Y784D01*
X591Y785D01*
X593Y785D01*
X593Y787D01*
X595Y787D01*
X595Y789D01*
X596Y789D01*
X596Y792D01*
X601Y792D01*
X601Y793D01*
X606Y793D01*
X606Y795D01*
X613Y795D01*
G37*
D02*
G36*
X626Y787D02*
X626Y785D01*
X628Y785D01*
X628Y784D01*
X629Y784D01*
X629Y782D01*
X631Y782D01*
X631Y779D01*
X624Y779D01*
X624Y780D01*
X623Y780D01*
X623Y784D01*
X621Y784D01*
X621Y785D01*
X616Y785D01*
X616Y787D01*
X626Y787D01*
G37*
D02*
G36*
X659Y782D02*
X659Y780D01*
X660Y780D01*
X660Y779D01*
X637Y779D01*
X637Y780D01*
X646Y780D01*
X646Y782D01*
X659Y782D01*
G37*
D02*
G36*
X662Y779D02*
X662Y777D01*
X626Y777D01*
X626Y779D01*
X662Y779D01*
G37*
D02*
G36*
X662Y779D02*
X662Y777D01*
X626Y777D01*
X626Y779D01*
X662Y779D01*
G37*
D02*
G36*
X664Y777D02*
X664Y775D01*
X665Y775D01*
X665Y774D01*
X644Y774D01*
X644Y772D01*
X636Y772D01*
X636Y771D01*
X632Y771D01*
X632Y769D01*
X631Y769D01*
X631Y771D01*
X629Y771D01*
X629Y772D01*
X628Y772D01*
X628Y775D01*
X626Y775D01*
X626Y777D01*
X664Y777D01*
G37*
D02*
G36*
X669Y774D02*
X669Y771D01*
X672Y771D01*
X672Y767D01*
X673Y767D01*
X673Y764D01*
X675Y764D01*
X675Y754D01*
X673Y754D01*
X673Y751D01*
X672Y751D01*
X672Y749D01*
X670Y749D01*
X670Y748D01*
X669Y748D01*
X669Y744D01*
X667Y744D01*
X667Y743D01*
X665Y743D01*
X665Y741D01*
X664Y741D01*
X664Y739D01*
X662Y739D01*
X662Y738D01*
X659Y738D01*
X659Y736D01*
X657Y736D01*
X657Y734D01*
X654Y734D01*
X654Y733D01*
X652Y733D01*
X652Y729D01*
X649Y729D01*
X649Y728D01*
X642Y728D01*
X642Y726D01*
X641Y726D01*
X641Y725D01*
X624Y725D01*
X624Y726D01*
X628Y726D01*
X628Y728D01*
X632Y728D01*
X632Y729D01*
X636Y729D01*
X636Y731D01*
X639Y731D01*
X639Y734D01*
X644Y734D01*
X644Y736D01*
X647Y736D01*
X647Y738D01*
X649Y738D01*
X649Y739D01*
X652Y739D01*
X652Y741D01*
X654Y741D01*
X654Y743D01*
X657Y743D01*
X657Y744D01*
X659Y744D01*
X659Y748D01*
X660Y748D01*
X660Y749D01*
X662Y749D01*
X662Y751D01*
X664Y751D01*
X664Y752D01*
X665Y752D01*
X665Y754D01*
X667Y754D01*
X667Y764D01*
X665Y764D01*
X665Y766D01*
X664Y766D01*
X664Y767D01*
X662Y767D01*
X662Y769D01*
X660Y769D01*
X660Y771D01*
X657Y771D01*
X657Y772D01*
X654Y772D01*
X654Y774D01*
X669Y774D01*
G37*
D02*
G36*
X570Y767D02*
X570Y766D01*
X572Y766D01*
X572Y762D01*
X573Y762D01*
X573Y761D01*
X575Y761D01*
X575Y759D01*
X565Y759D01*
X565Y757D01*
X557Y757D01*
X557Y756D01*
X555Y756D01*
X555Y754D01*
X552Y754D01*
X552Y752D01*
X554Y752D01*
X554Y749D01*
X541Y749D01*
X541Y751D01*
X537Y751D01*
X537Y757D01*
X539Y757D01*
X539Y761D01*
X549Y761D01*
X549Y762D01*
X552Y762D01*
X552Y764D01*
X557Y764D01*
X557Y766D01*
X564Y766D01*
X564Y767D01*
X570Y767D01*
G37*
D02*
G36*
X575Y759D02*
X575Y756D01*
X577Y756D01*
X577Y754D01*
X582Y754D01*
X582Y752D01*
X570Y752D01*
X570Y754D01*
X569Y754D01*
X569Y756D01*
X567Y756D01*
X567Y759D01*
X575Y759D01*
G37*
D02*
G36*
X626Y752D02*
X626Y751D01*
X569Y751D01*
X569Y752D01*
X626Y752D01*
G37*
D02*
G36*
X626Y752D02*
X626Y751D01*
X569Y751D01*
X569Y752D01*
X626Y752D01*
G37*
D02*
G36*
X626Y751D02*
X626Y749D01*
X564Y749D01*
X564Y751D01*
X626Y751D01*
G37*
D02*
G36*
X624Y749D02*
X624Y748D01*
X542Y748D01*
X542Y749D01*
X624Y749D01*
G37*
D02*
G36*
X624Y749D02*
X624Y748D01*
X542Y748D01*
X542Y749D01*
X624Y749D01*
G37*
D02*
G36*
X608Y748D02*
X608Y746D01*
X603Y746D01*
X603Y744D01*
X587Y744D01*
X587Y743D01*
X582Y743D01*
X582Y741D01*
X565Y741D01*
X565Y739D01*
X546Y739D01*
X546Y741D01*
X547Y741D01*
X547Y743D01*
X544Y743D01*
X544Y744D01*
X546Y744D01*
X546Y746D01*
X544Y746D01*
X544Y748D01*
X608Y748D01*
G37*
D02*
G36*
X603Y744D02*
X603Y739D01*
X605Y739D01*
X605Y738D01*
X606Y738D01*
X606Y736D01*
X608Y736D01*
X608Y734D01*
X610Y734D01*
X610Y731D01*
X611Y731D01*
X611Y729D01*
X614Y729D01*
X614Y728D01*
X616Y728D01*
X616Y726D01*
X619Y726D01*
X619Y725D01*
X605Y725D01*
X605Y726D01*
X603Y726D01*
X603Y728D01*
X601Y728D01*
X601Y729D01*
X600Y729D01*
X600Y733D01*
X598Y733D01*
X598Y734D01*
X596Y734D01*
X596Y738D01*
X595Y738D01*
X595Y739D01*
X593Y739D01*
X593Y741D01*
X591Y741D01*
X591Y743D01*
X588Y743D01*
X588Y744D01*
X603Y744D01*
G37*
D02*
G36*
X582Y741D02*
X582Y739D01*
X567Y739D01*
X567Y741D01*
X582Y741D01*
G37*
D02*
G36*
X580Y739D02*
X580Y738D01*
X546Y738D01*
X546Y739D01*
X580Y739D01*
G37*
D02*
G36*
X580Y739D02*
X580Y738D01*
X546Y738D01*
X546Y739D01*
X580Y739D01*
G37*
D02*
G36*
X578Y738D02*
X578Y734D01*
X577Y734D01*
X577Y733D01*
X575Y733D01*
X575Y731D01*
X567Y731D01*
X567Y729D01*
X562Y729D01*
X562Y728D01*
X559Y728D01*
X559Y726D01*
X550Y726D01*
X550Y728D01*
X547Y728D01*
X547Y729D01*
X546Y729D01*
X546Y731D01*
X544Y731D01*
X544Y734D01*
X546Y734D01*
X546Y738D01*
X578Y738D01*
G37*
D02*
G36*
X637Y725D02*
X637Y723D01*
X606Y723D01*
X606Y725D01*
X637Y725D01*
G37*
D02*
G36*
X637Y725D02*
X637Y723D01*
X606Y723D01*
X606Y725D01*
X637Y725D01*
G37*
D02*
G36*
X634Y723D02*
X634Y721D01*
X629Y721D01*
X629Y720D01*
X626Y720D01*
X626Y718D01*
X613Y718D01*
X613Y720D01*
X610Y720D01*
X610Y721D01*
X608Y721D01*
X608Y723D01*
X634Y723D01*
G37*
D02*
G36*
X772Y774D02*
X772Y769D01*
X770Y769D01*
X770Y767D01*
X769Y767D01*
X769Y766D01*
X767Y766D01*
X767Y762D01*
X765Y762D01*
X765Y761D01*
X764Y761D01*
X764Y754D01*
X767Y754D01*
X767Y752D01*
X778Y752D01*
X778Y751D01*
X782Y751D01*
X782Y749D01*
X783Y749D01*
X783Y748D01*
X785Y748D01*
X785Y744D01*
X769Y744D01*
X769Y741D01*
X770Y741D01*
X770Y739D01*
X754Y739D01*
X754Y751D01*
X756Y751D01*
X756Y761D01*
X757Y761D01*
X757Y764D01*
X759Y764D01*
X759Y767D01*
X760Y767D01*
X760Y769D01*
X762Y769D01*
X762Y771D01*
X764Y771D01*
X764Y772D01*
X767Y772D01*
X767Y774D01*
X772Y774D01*
G37*
D02*
G36*
X787Y744D02*
X787Y743D01*
X788Y743D01*
X788Y739D01*
X777Y739D01*
X777Y741D01*
X778Y741D01*
X778Y744D01*
X787Y744D01*
G37*
D02*
G36*
X787Y739D02*
X787Y738D01*
X754Y738D01*
X754Y739D01*
X787Y739D01*
G37*
D02*
G36*
X787Y739D02*
X787Y738D01*
X754Y738D01*
X754Y739D01*
X787Y739D01*
G37*
D02*
G36*
X787Y738D02*
X787Y733D01*
X785Y733D01*
X785Y731D01*
X764Y731D01*
X764Y729D01*
X752Y729D01*
X752Y738D01*
X787Y738D01*
G37*
D02*
G36*
X783Y731D02*
X783Y729D01*
X770Y729D01*
X770Y731D01*
X783Y731D01*
G37*
D02*
G36*
X769Y731D02*
X769Y729D01*
X765Y729D01*
X765Y731D01*
X769Y731D01*
G37*
D02*
G36*
X765Y729D02*
X765Y726D01*
X767Y726D01*
X767Y725D01*
X769Y725D01*
X769Y721D01*
X770Y721D01*
X770Y718D01*
X774Y718D01*
X774Y716D01*
X775Y716D01*
X775Y707D01*
X777Y707D01*
X777Y705D01*
X775Y705D01*
X775Y703D01*
X774Y703D01*
X774Y700D01*
X772Y700D01*
X772Y698D01*
X765Y698D01*
X765Y707D01*
X767Y707D01*
X767Y711D01*
X765Y711D01*
X765Y715D01*
X764Y715D01*
X764Y716D01*
X762Y716D01*
X762Y718D01*
X759Y718D01*
X759Y721D01*
X757Y721D01*
X757Y723D01*
X756Y723D01*
X756Y726D01*
X754Y726D01*
X754Y728D01*
X752Y728D01*
X752Y729D01*
X765Y729D01*
G37*
D02*
G36*
X852Y769D02*
X852Y764D01*
X851Y764D01*
X851Y759D01*
X849Y759D01*
X849Y756D01*
X847Y756D01*
X847Y752D01*
X846Y752D01*
X846Y751D01*
X844Y751D01*
X844Y748D01*
X842Y748D01*
X842Y741D01*
X841Y741D01*
X841Y739D01*
X839Y739D01*
X839Y734D01*
X833Y734D01*
X833Y739D01*
X834Y739D01*
X834Y743D01*
X836Y743D01*
X836Y748D01*
X838Y748D01*
X838Y751D01*
X839Y751D01*
X839Y752D01*
X841Y752D01*
X841Y757D01*
X842Y757D01*
X842Y762D01*
X844Y762D01*
X844Y766D01*
X846Y766D01*
X846Y767D01*
X847Y767D01*
X847Y769D01*
X852Y769D01*
G37*
D02*
G36*
X321Y738D02*
X321Y736D01*
X327Y736D01*
X327Y734D01*
X331Y734D01*
X331Y733D01*
X337Y733D01*
X337Y731D01*
X344Y731D01*
X344Y729D01*
X352Y729D01*
X352Y728D01*
X357Y728D01*
X357Y726D01*
X360Y726D01*
X360Y723D01*
X359Y723D01*
X359Y721D01*
X350Y721D01*
X350Y723D01*
X342Y723D01*
X342Y725D01*
X337Y725D01*
X337Y726D01*
X326Y726D01*
X326Y728D01*
X322Y728D01*
X322Y729D01*
X316Y729D01*
X316Y731D01*
X313Y731D01*
X313Y733D01*
X311Y733D01*
X311Y736D01*
X313Y736D01*
X313Y738D01*
X321Y738D01*
G37*
D02*
G36*
X608Y828D02*
X608Y826D01*
X629Y826D01*
X629Y825D01*
X637Y825D01*
X637Y823D01*
X644Y823D01*
X644Y821D01*
X591Y821D01*
X591Y820D01*
X587Y820D01*
X587Y818D01*
X577Y818D01*
X577Y816D01*
X570Y816D01*
X570Y815D01*
X565Y815D01*
X565Y813D01*
X562Y813D01*
X562Y812D01*
X559Y812D01*
X559Y810D01*
X555Y810D01*
X555Y808D01*
X550Y808D01*
X550Y807D01*
X547Y807D01*
X547Y805D01*
X546Y805D01*
X546Y803D01*
X542Y803D01*
X542Y802D01*
X541Y802D01*
X541Y800D01*
X539Y800D01*
X539Y798D01*
X537Y798D01*
X537Y797D01*
X536Y797D01*
X536Y793D01*
X534Y793D01*
X534Y792D01*
X531Y792D01*
X531Y789D01*
X529Y789D01*
X529Y787D01*
X527Y787D01*
X527Y785D01*
X526Y785D01*
X526Y782D01*
X524Y782D01*
X524Y780D01*
X523Y780D01*
X523Y779D01*
X521Y779D01*
X521Y774D01*
X519Y774D01*
X519Y766D01*
X518Y766D01*
X518Y761D01*
X519Y761D01*
X519Y757D01*
X518Y757D01*
X518Y754D01*
X519Y754D01*
X519Y749D01*
X521Y749D01*
X521Y746D01*
X523Y746D01*
X523Y743D01*
X524Y743D01*
X524Y739D01*
X526Y739D01*
X526Y738D01*
X527Y738D01*
X527Y734D01*
X529Y734D01*
X529Y731D01*
X531Y731D01*
X531Y729D01*
X532Y729D01*
X532Y728D01*
X534Y728D01*
X534Y726D01*
X537Y726D01*
X537Y725D01*
X539Y725D01*
X539Y716D01*
X537Y716D01*
X537Y713D01*
X536Y713D01*
X536Y710D01*
X534Y710D01*
X534Y708D01*
X536Y708D01*
X536Y707D01*
X524Y707D01*
X524Y708D01*
X526Y708D01*
X526Y710D01*
X527Y710D01*
X527Y711D01*
X529Y711D01*
X529Y716D01*
X531Y716D01*
X531Y720D01*
X529Y720D01*
X529Y721D01*
X527Y721D01*
X527Y723D01*
X526Y723D01*
X526Y726D01*
X523Y726D01*
X523Y728D01*
X521Y728D01*
X521Y733D01*
X519Y733D01*
X519Y734D01*
X518Y734D01*
X518Y739D01*
X516Y739D01*
X516Y743D01*
X514Y743D01*
X514Y746D01*
X513Y746D01*
X513Y757D01*
X511Y757D01*
X511Y766D01*
X513Y766D01*
X513Y775D01*
X514Y775D01*
X514Y779D01*
X516Y779D01*
X516Y782D01*
X518Y782D01*
X518Y785D01*
X519Y785D01*
X519Y787D01*
X521Y787D01*
X521Y789D01*
X523Y789D01*
X523Y790D01*
X524Y790D01*
X524Y792D01*
X526Y792D01*
X526Y793D01*
X527Y793D01*
X527Y795D01*
X529Y795D01*
X529Y797D01*
X531Y797D01*
X531Y800D01*
X532Y800D01*
X532Y802D01*
X534Y802D01*
X534Y803D01*
X536Y803D01*
X536Y805D01*
X537Y805D01*
X537Y807D01*
X539Y807D01*
X539Y808D01*
X541Y808D01*
X541Y810D01*
X544Y810D01*
X544Y812D01*
X547Y812D01*
X547Y813D01*
X550Y813D01*
X550Y815D01*
X554Y815D01*
X554Y816D01*
X557Y816D01*
X557Y818D01*
X560Y818D01*
X560Y820D01*
X567Y820D01*
X567Y821D01*
X570Y821D01*
X570Y823D01*
X575Y823D01*
X575Y825D01*
X582Y825D01*
X582Y826D01*
X606Y826D01*
X606Y828D01*
X608Y828D01*
G37*
D02*
G36*
X649Y821D02*
X649Y820D01*
X654Y820D01*
X654Y818D01*
X665Y818D01*
X665Y816D01*
X673Y816D01*
X673Y815D01*
X678Y815D01*
X678Y813D01*
X657Y813D01*
X657Y812D01*
X654Y812D01*
X654Y813D01*
X651Y813D01*
X651Y815D01*
X647Y815D01*
X647Y816D01*
X639Y816D01*
X639Y818D01*
X628Y818D01*
X628Y820D01*
X616Y820D01*
X616Y821D01*
X649Y821D01*
G37*
D02*
G36*
X683Y813D02*
X683Y812D01*
X687Y812D01*
X687Y810D01*
X688Y810D01*
X688Y808D01*
X692Y808D01*
X692Y807D01*
X693Y807D01*
X693Y805D01*
X695Y805D01*
X695Y803D01*
X696Y803D01*
X696Y802D01*
X698Y802D01*
X698Y800D01*
X700Y800D01*
X700Y798D01*
X701Y798D01*
X701Y795D01*
X703Y795D01*
X703Y792D01*
X705Y792D01*
X705Y789D01*
X706Y789D01*
X706Y785D01*
X708Y785D01*
X708Y779D01*
X710Y779D01*
X710Y774D01*
X711Y774D01*
X711Y766D01*
X713Y766D01*
X713Y757D01*
X711Y757D01*
X711Y748D01*
X710Y748D01*
X710Y746D01*
X708Y746D01*
X708Y741D01*
X706Y741D01*
X706Y736D01*
X705Y736D01*
X705Y734D01*
X703Y734D01*
X703Y733D01*
X701Y733D01*
X701Y729D01*
X700Y729D01*
X700Y726D01*
X698Y726D01*
X698Y725D01*
X696Y725D01*
X696Y723D01*
X695Y723D01*
X695Y721D01*
X692Y721D01*
X692Y720D01*
X690Y720D01*
X690Y718D01*
X688Y718D01*
X688Y710D01*
X687Y710D01*
X687Y703D01*
X685Y703D01*
X685Y702D01*
X683Y702D01*
X683Y700D01*
X682Y700D01*
X682Y698D01*
X683Y698D01*
X683Y692D01*
X685Y692D01*
X685Y690D01*
X672Y690D01*
X672Y688D01*
X670Y688D01*
X670Y693D01*
X669Y693D01*
X669Y695D01*
X667Y695D01*
X667Y700D01*
X670Y700D01*
X670Y702D01*
X673Y702D01*
X673Y703D01*
X675Y703D01*
X675Y705D01*
X677Y705D01*
X677Y707D01*
X678Y707D01*
X678Y710D01*
X680Y710D01*
X680Y715D01*
X678Y715D01*
X678Y720D01*
X680Y720D01*
X680Y721D01*
X682Y721D01*
X682Y723D01*
X685Y723D01*
X685Y725D01*
X687Y725D01*
X687Y726D01*
X688Y726D01*
X688Y728D01*
X690Y728D01*
X690Y729D01*
X693Y729D01*
X693Y733D01*
X695Y733D01*
X695Y734D01*
X696Y734D01*
X696Y738D01*
X698Y738D01*
X698Y741D01*
X700Y741D01*
X700Y743D01*
X701Y743D01*
X701Y748D01*
X703Y748D01*
X703Y751D01*
X705Y751D01*
X705Y774D01*
X703Y774D01*
X703Y779D01*
X701Y779D01*
X701Y784D01*
X700Y784D01*
X700Y789D01*
X698Y789D01*
X698Y792D01*
X696Y792D01*
X696Y793D01*
X695Y793D01*
X695Y797D01*
X693Y797D01*
X693Y798D01*
X692Y798D01*
X692Y802D01*
X690Y802D01*
X690Y803D01*
X687Y803D01*
X687Y805D01*
X683Y805D01*
X683Y807D01*
X682Y807D01*
X682Y808D01*
X677Y808D01*
X677Y810D01*
X675Y810D01*
X675Y812D01*
X667Y812D01*
X667Y813D01*
X683Y813D01*
G37*
D02*
G36*
X562Y708D02*
X562Y707D01*
X552Y707D01*
X552Y708D01*
X562Y708D01*
G37*
D02*
G36*
X550Y708D02*
X550Y707D01*
X544Y707D01*
X544Y708D01*
X550Y708D01*
G37*
D02*
G36*
X564Y707D02*
X564Y705D01*
X523Y705D01*
X523Y707D01*
X564Y707D01*
G37*
D02*
G36*
X564Y707D02*
X564Y705D01*
X523Y705D01*
X523Y707D01*
X564Y707D01*
G37*
D02*
G36*
X564Y707D02*
X564Y705D01*
X523Y705D01*
X523Y707D01*
X564Y707D01*
G37*
D02*
G36*
X564Y705D02*
X564Y703D01*
X565Y703D01*
X565Y702D01*
X541Y702D01*
X541Y700D01*
X534Y700D01*
X534Y698D01*
X527Y698D01*
X527Y697D01*
X519Y697D01*
X519Y698D01*
X516Y698D01*
X516Y700D01*
X518Y700D01*
X518Y702D01*
X519Y702D01*
X519Y703D01*
X521Y703D01*
X521Y705D01*
X564Y705D01*
G37*
D02*
G36*
X600Y703D02*
X600Y702D01*
X603Y702D01*
X603Y700D01*
X605Y700D01*
X605Y698D01*
X608Y698D01*
X608Y697D01*
X610Y697D01*
X610Y695D01*
X585Y695D01*
X585Y697D01*
X591Y697D01*
X591Y698D01*
X593Y698D01*
X593Y702D01*
X595Y702D01*
X595Y703D01*
X600Y703D01*
G37*
D02*
G36*
X569Y702D02*
X569Y700D01*
X572Y700D01*
X572Y698D01*
X575Y698D01*
X575Y697D01*
X580Y697D01*
X580Y695D01*
X564Y695D01*
X564Y697D01*
X562Y697D01*
X562Y698D01*
X560Y698D01*
X560Y700D01*
X549Y700D01*
X549Y702D01*
X569Y702D01*
G37*
D02*
G36*
X613Y695D02*
X613Y693D01*
X565Y693D01*
X565Y695D01*
X613Y695D01*
G37*
D02*
G36*
X613Y695D02*
X613Y693D01*
X565Y693D01*
X565Y695D01*
X613Y695D01*
G37*
D02*
G36*
X614Y693D02*
X614Y692D01*
X616Y692D01*
X616Y690D01*
X619Y690D01*
X619Y688D01*
X623Y688D01*
X623Y687D01*
X636Y687D01*
X636Y685D01*
X611Y685D01*
X611Y687D01*
X608Y687D01*
X608Y688D01*
X606Y688D01*
X606Y690D01*
X603Y690D01*
X603Y692D01*
X601Y692D01*
X601Y693D01*
X614Y693D01*
G37*
D02*
G36*
X598Y693D02*
X598Y692D01*
X596Y692D01*
X596Y690D01*
X593Y690D01*
X593Y688D01*
X583Y688D01*
X583Y687D01*
X578Y687D01*
X578Y688D01*
X572Y688D01*
X572Y690D01*
X569Y690D01*
X569Y692D01*
X567Y692D01*
X567Y693D01*
X598Y693D01*
G37*
D02*
G36*
X687Y690D02*
X687Y688D01*
X690Y688D01*
X690Y687D01*
X693Y687D01*
X693Y685D01*
X695Y685D01*
X695Y684D01*
X696Y684D01*
X696Y682D01*
X680Y682D01*
X680Y684D01*
X678Y684D01*
X678Y685D01*
X677Y685D01*
X677Y687D01*
X675Y687D01*
X675Y688D01*
X673Y688D01*
X673Y690D01*
X687Y690D01*
G37*
D02*
G36*
X665Y688D02*
X665Y687D01*
X669Y687D01*
X669Y685D01*
X673Y685D01*
X673Y684D01*
X659Y684D01*
X659Y687D01*
X660Y687D01*
X660Y688D01*
X665Y688D01*
G37*
D02*
G36*
X654Y688D02*
X654Y687D01*
X655Y687D01*
X655Y685D01*
X637Y685D01*
X637Y687D01*
X651Y687D01*
X651Y688D01*
X654Y688D01*
G37*
D02*
G36*
X654Y685D02*
X654Y684D01*
X613Y684D01*
X613Y685D01*
X654Y685D01*
G37*
D02*
G36*
X654Y685D02*
X654Y684D01*
X613Y684D01*
X613Y685D01*
X654Y685D01*
G37*
D02*
G36*
X678Y684D02*
X678Y682D01*
X660Y682D01*
X660Y684D01*
X678Y684D01*
G37*
D02*
G36*
X651Y684D02*
X651Y682D01*
X646Y682D01*
X646Y680D01*
X621Y680D01*
X621Y682D01*
X616Y682D01*
X616Y684D01*
X651Y684D01*
G37*
D02*
G36*
X698Y682D02*
X698Y680D01*
X662Y680D01*
X662Y682D01*
X698Y682D01*
G37*
D02*
G36*
X698Y682D02*
X698Y680D01*
X662Y680D01*
X662Y682D01*
X698Y682D01*
G37*
D02*
G36*
X701Y680D02*
X701Y677D01*
X705Y677D01*
X705Y675D01*
X706Y675D01*
X706Y674D01*
X708Y674D01*
X708Y670D01*
X710Y670D01*
X710Y667D01*
X708Y667D01*
X708Y666D01*
X700Y666D01*
X700Y667D01*
X693Y667D01*
X693Y669D01*
X690Y669D01*
X690Y670D01*
X687Y670D01*
X687Y672D01*
X682Y672D01*
X682Y674D01*
X678Y674D01*
X678Y675D01*
X673Y675D01*
X673Y677D01*
X670Y677D01*
X670Y679D01*
X667Y679D01*
X667Y680D01*
X701Y680D01*
G37*
D02*
G36*
X769Y652D02*
X769Y651D01*
X770Y651D01*
X770Y647D01*
X760Y647D01*
X760Y649D01*
X762Y649D01*
X762Y651D01*
X765Y651D01*
X765Y652D01*
X769Y652D01*
G37*
D02*
G36*
X756Y652D02*
X756Y651D01*
X757Y651D01*
X757Y649D01*
X759Y649D01*
X759Y647D01*
X749Y647D01*
X749Y652D01*
X756Y652D01*
G37*
D02*
G36*
X770Y647D02*
X770Y646D01*
X749Y646D01*
X749Y647D01*
X770Y647D01*
G37*
D02*
G36*
X770Y647D02*
X770Y646D01*
X749Y646D01*
X749Y647D01*
X770Y647D01*
G37*
D02*
G36*
X770Y646D02*
X770Y644D01*
X769Y644D01*
X769Y643D01*
X767Y643D01*
X767Y641D01*
X760Y641D01*
X760Y639D01*
X757Y639D01*
X757Y641D01*
X752Y641D01*
X752Y643D01*
X751Y643D01*
X751Y644D01*
X749Y644D01*
X749Y646D01*
X770Y646D01*
G37*
D02*
G36*
X626Y615D02*
X626Y613D01*
X624Y613D01*
X624Y615D01*
X626Y615D01*
G37*
D02*
G36*
X841Y600D02*
X841Y598D01*
X846Y598D01*
X846Y597D01*
X849Y597D01*
X849Y595D01*
X852Y595D01*
X852Y593D01*
X856Y593D01*
X856Y592D01*
X857Y592D01*
X857Y590D01*
X859Y590D01*
X859Y588D01*
X860Y588D01*
X860Y587D01*
X862Y587D01*
X862Y585D01*
X865Y585D01*
X865Y583D01*
X869Y583D01*
X869Y582D01*
X870Y582D01*
X870Y580D01*
X872Y580D01*
X872Y579D01*
X874Y579D01*
X874Y577D01*
X879Y577D01*
X879Y575D01*
X880Y575D01*
X880Y574D01*
X882Y574D01*
X882Y572D01*
X883Y572D01*
X883Y570D01*
X885Y570D01*
X885Y569D01*
X888Y569D01*
X888Y567D01*
X890Y567D01*
X890Y564D01*
X888Y564D01*
X888Y562D01*
X885Y562D01*
X885Y564D01*
X882Y564D01*
X882Y565D01*
X880Y565D01*
X880Y567D01*
X877Y567D01*
X877Y569D01*
X875Y569D01*
X875Y570D01*
X872Y570D01*
X872Y572D01*
X870Y572D01*
X870Y574D01*
X865Y574D01*
X865Y575D01*
X864Y575D01*
X864Y577D01*
X860Y577D01*
X860Y579D01*
X856Y579D01*
X856Y582D01*
X854Y582D01*
X854Y583D01*
X851Y583D01*
X851Y585D01*
X849Y585D01*
X849Y587D01*
X846Y587D01*
X846Y588D01*
X844Y588D01*
X844Y590D01*
X842Y590D01*
X842Y592D01*
X839Y592D01*
X839Y593D01*
X838Y593D01*
X838Y595D01*
X834Y595D01*
X834Y598D01*
X836Y598D01*
X836Y600D01*
X841Y600D01*
G37*
D02*
G36*
X383Y598D02*
X383Y595D01*
X381Y595D01*
X381Y593D01*
X378Y593D01*
X378Y590D01*
X377Y590D01*
X377Y588D01*
X375Y588D01*
X375Y577D01*
X372Y577D01*
X372Y575D01*
X370Y575D01*
X370Y579D01*
X368Y579D01*
X368Y590D01*
X370Y590D01*
X370Y593D01*
X372Y593D01*
X372Y595D01*
X373Y595D01*
X373Y597D01*
X377Y597D01*
X377Y598D01*
X383Y598D01*
G37*
D02*
G36*
X698Y574D02*
X698Y572D01*
X700Y572D01*
X700Y567D01*
X698Y567D01*
X698Y565D01*
X700Y565D01*
X700Y559D01*
X701Y559D01*
X701Y554D01*
X703Y554D01*
X703Y549D01*
X705Y549D01*
X705Y546D01*
X706Y546D01*
X706Y538D01*
X705Y538D01*
X705Y539D01*
X701Y539D01*
X701Y544D01*
X700Y544D01*
X700Y546D01*
X698Y546D01*
X698Y551D01*
X696Y551D01*
X696Y554D01*
X695Y554D01*
X695Y559D01*
X693Y559D01*
X693Y561D01*
X695Y561D01*
X695Y562D01*
X693Y562D01*
X693Y569D01*
X695Y569D01*
X695Y572D01*
X696Y572D01*
X696Y574D01*
X698Y574D01*
G37*
D02*
G36*
X678Y567D02*
X678Y565D01*
X680Y565D01*
X680Y561D01*
X682Y561D01*
X682Y559D01*
X683Y559D01*
X683Y552D01*
X685Y552D01*
X685Y551D01*
X687Y551D01*
X687Y549D01*
X688Y549D01*
X688Y546D01*
X690Y546D01*
X690Y542D01*
X692Y542D01*
X692Y538D01*
X685Y538D01*
X685Y539D01*
X683Y539D01*
X683Y541D01*
X682Y541D01*
X682Y542D01*
X680Y542D01*
X680Y547D01*
X678Y547D01*
X678Y551D01*
X677Y551D01*
X677Y554D01*
X673Y554D01*
X673Y561D01*
X675Y561D01*
X675Y565D01*
X677Y565D01*
X677Y567D01*
X678Y567D01*
G37*
D02*
G36*
X657Y564D02*
X657Y561D01*
X659Y561D01*
X659Y556D01*
X660Y556D01*
X660Y542D01*
X662Y542D01*
X662Y541D01*
X664Y541D01*
X664Y539D01*
X665Y539D01*
X665Y536D01*
X667Y536D01*
X667Y531D01*
X660Y531D01*
X660Y533D01*
X659Y533D01*
X659Y534D01*
X657Y534D01*
X657Y538D01*
X654Y538D01*
X654Y542D01*
X652Y542D01*
X652Y554D01*
X651Y554D01*
X651Y556D01*
X652Y556D01*
X652Y561D01*
X651Y561D01*
X651Y562D01*
X654Y562D01*
X654Y564D01*
X657Y564D01*
G37*
D02*
G36*
X442Y757D02*
X442Y756D01*
X454Y756D01*
X454Y754D01*
X459Y754D01*
X459Y752D01*
X464Y752D01*
X464Y751D01*
X421Y751D01*
X421Y749D01*
X416Y749D01*
X416Y748D01*
X411Y748D01*
X411Y746D01*
X408Y746D01*
X408Y744D01*
X406Y744D01*
X406Y739D01*
X408Y739D01*
X408Y734D01*
X409Y734D01*
X409Y733D01*
X411Y733D01*
X411Y729D01*
X413Y729D01*
X413Y728D01*
X414Y728D01*
X414Y726D01*
X403Y726D01*
X403Y723D01*
X401Y723D01*
X401Y711D01*
X406Y711D01*
X406Y710D01*
X408Y710D01*
X408Y708D01*
X409Y708D01*
X409Y703D01*
X411Y703D01*
X411Y700D01*
X408Y700D01*
X408Y697D01*
X409Y697D01*
X409Y695D01*
X411Y695D01*
X411Y692D01*
X400Y692D01*
X400Y690D01*
X391Y690D01*
X391Y698D01*
X393Y698D01*
X393Y716D01*
X395Y716D01*
X395Y748D01*
X396Y748D01*
X396Y749D01*
X401Y749D01*
X401Y751D01*
X406Y751D01*
X406Y752D01*
X411Y752D01*
X411Y754D01*
X421Y754D01*
X421Y756D01*
X429Y756D01*
X429Y757D01*
X442Y757D01*
G37*
D02*
G36*
X470Y751D02*
X470Y749D01*
X473Y749D01*
X473Y748D01*
X477Y748D01*
X477Y746D01*
X478Y746D01*
X478Y744D01*
X480Y744D01*
X480Y743D01*
X483Y743D01*
X483Y739D01*
X486Y739D01*
X486Y738D01*
X488Y738D01*
X488Y736D01*
X490Y736D01*
X490Y733D01*
X491Y733D01*
X491Y729D01*
X493Y729D01*
X493Y726D01*
X495Y726D01*
X495Y720D01*
X496Y720D01*
X496Y715D01*
X495Y715D01*
X495Y713D01*
X496Y713D01*
X496Y710D01*
X495Y710D01*
X495Y702D01*
X493Y702D01*
X493Y692D01*
X483Y692D01*
X483Y690D01*
X480Y690D01*
X480Y688D01*
X460Y688D01*
X460Y690D01*
X464Y690D01*
X464Y692D01*
X470Y692D01*
X470Y693D01*
X473Y693D01*
X473Y695D01*
X475Y695D01*
X475Y697D01*
X477Y697D01*
X477Y698D01*
X480Y698D01*
X480Y700D01*
X482Y700D01*
X482Y702D01*
X483Y702D01*
X483Y707D01*
X485Y707D01*
X485Y711D01*
X486Y711D01*
X486Y715D01*
X485Y715D01*
X485Y716D01*
X486Y716D01*
X486Y720D01*
X485Y720D01*
X485Y721D01*
X486Y721D01*
X486Y725D01*
X485Y725D01*
X485Y729D01*
X483Y729D01*
X483Y733D01*
X482Y733D01*
X482Y734D01*
X480Y734D01*
X480Y738D01*
X477Y738D01*
X477Y739D01*
X473Y739D01*
X473Y741D01*
X472Y741D01*
X472Y743D01*
X468Y743D01*
X468Y744D01*
X467Y744D01*
X467Y746D01*
X464Y746D01*
X464Y748D01*
X457Y748D01*
X457Y749D01*
X450Y749D01*
X450Y751D01*
X470Y751D01*
G37*
D02*
G36*
X414Y726D02*
X414Y725D01*
X416Y725D01*
X416Y723D01*
X419Y723D01*
X419Y720D01*
X421Y720D01*
X421Y718D01*
X423Y718D01*
X423Y715D01*
X424Y715D01*
X424Y711D01*
X426Y711D01*
X426Y710D01*
X427Y710D01*
X427Y708D01*
X429Y708D01*
X429Y707D01*
X431Y707D01*
X431Y705D01*
X432Y705D01*
X432Y703D01*
X434Y703D01*
X434Y700D01*
X437Y700D01*
X437Y698D01*
X439Y698D01*
X439Y697D01*
X441Y697D01*
X441Y695D01*
X442Y695D01*
X442Y692D01*
X445Y692D01*
X445Y690D01*
X455Y690D01*
X455Y688D01*
X436Y688D01*
X436Y690D01*
X434Y690D01*
X434Y692D01*
X432Y692D01*
X432Y693D01*
X431Y693D01*
X431Y697D01*
X429Y697D01*
X429Y698D01*
X427Y698D01*
X427Y700D01*
X426Y700D01*
X426Y702D01*
X424Y702D01*
X424Y703D01*
X423Y703D01*
X423Y705D01*
X421Y705D01*
X421Y707D01*
X419Y707D01*
X419Y708D01*
X418Y708D01*
X418Y711D01*
X416Y711D01*
X416Y713D01*
X414Y713D01*
X414Y716D01*
X413Y716D01*
X413Y718D01*
X411Y718D01*
X411Y720D01*
X409Y720D01*
X409Y721D01*
X408Y721D01*
X408Y723D01*
X404Y723D01*
X404Y726D01*
X414Y726D01*
G37*
D02*
G36*
X756Y715D02*
X756Y713D01*
X759Y713D01*
X759Y710D01*
X756Y710D01*
X756Y708D01*
X754Y708D01*
X754Y707D01*
X752Y707D01*
X752Y703D01*
X751Y703D01*
X751Y700D01*
X749Y700D01*
X749Y698D01*
X752Y698D01*
X752Y695D01*
X754Y695D01*
X754Y692D01*
X756Y692D01*
X756Y690D01*
X759Y690D01*
X759Y688D01*
X760Y688D01*
X760Y687D01*
X764Y687D01*
X764Y685D01*
X733Y685D01*
X733Y688D01*
X734Y688D01*
X734Y692D01*
X736Y692D01*
X736Y698D01*
X737Y698D01*
X737Y703D01*
X739Y703D01*
X739Y707D01*
X741Y707D01*
X741Y708D01*
X744Y708D01*
X744Y710D01*
X746Y710D01*
X746Y711D01*
X749Y711D01*
X749Y713D01*
X752Y713D01*
X752Y715D01*
X756Y715D01*
G37*
D02*
G36*
X787Y711D02*
X787Y710D01*
X790Y710D01*
X790Y708D01*
X792Y708D01*
X792Y707D01*
X793Y707D01*
X793Y705D01*
X795Y705D01*
X795Y703D01*
X797Y703D01*
X797Y700D01*
X798Y700D01*
X798Y697D01*
X800Y697D01*
X800Y687D01*
X801Y687D01*
X801Y685D01*
X780Y685D01*
X780Y687D01*
X787Y687D01*
X787Y690D01*
X790Y690D01*
X790Y693D01*
X788Y693D01*
X788Y695D01*
X790Y695D01*
X790Y697D01*
X787Y697D01*
X787Y700D01*
X785Y700D01*
X785Y702D01*
X783Y702D01*
X783Y703D01*
X780Y703D01*
X780Y707D01*
X778Y707D01*
X778Y710D01*
X780Y710D01*
X780Y711D01*
X787Y711D01*
G37*
D02*
G36*
X493Y692D02*
X493Y682D01*
X491Y682D01*
X491Y667D01*
X490Y667D01*
X490Y666D01*
X491Y666D01*
X491Y664D01*
X490Y664D01*
X490Y659D01*
X488Y659D01*
X488Y656D01*
X486Y656D01*
X486Y652D01*
X485Y652D01*
X485Y651D01*
X486Y651D01*
X486Y647D01*
X485Y647D01*
X485Y644D01*
X486Y644D01*
X486Y643D01*
X490Y643D01*
X490Y641D01*
X493Y641D01*
X493Y639D01*
X495Y639D01*
X495Y638D01*
X496Y638D01*
X496Y636D01*
X477Y636D01*
X477Y634D01*
X475Y634D01*
X475Y633D01*
X473Y633D01*
X473Y629D01*
X472Y629D01*
X472Y628D01*
X470Y628D01*
X470Y626D01*
X457Y626D01*
X457Y628D01*
X459Y628D01*
X459Y629D01*
X462Y629D01*
X462Y631D01*
X464Y631D01*
X464Y633D01*
X465Y633D01*
X465Y634D01*
X467Y634D01*
X467Y636D01*
X468Y636D01*
X468Y638D01*
X470Y638D01*
X470Y641D01*
X472Y641D01*
X472Y644D01*
X470Y644D01*
X470Y649D01*
X472Y649D01*
X472Y651D01*
X478Y651D01*
X478Y652D01*
X480Y652D01*
X480Y657D01*
X482Y657D01*
X482Y661D01*
X483Y661D01*
X483Y666D01*
X485Y666D01*
X485Y692D01*
X493Y692D01*
G37*
D02*
G36*
X424Y692D02*
X424Y690D01*
X426Y690D01*
X426Y688D01*
X419Y688D01*
X419Y692D01*
X424Y692D01*
G37*
D02*
G36*
X413Y692D02*
X413Y690D01*
X401Y690D01*
X401Y692D01*
X413Y692D01*
G37*
D02*
G36*
X416Y690D02*
X416Y688D01*
X391Y688D01*
X391Y690D01*
X416Y690D01*
G37*
D02*
G36*
X416Y690D02*
X416Y688D01*
X391Y688D01*
X391Y690D01*
X416Y690D01*
G37*
D02*
G36*
X477Y688D02*
X477Y687D01*
X439Y687D01*
X439Y688D01*
X477Y688D01*
G37*
D02*
G36*
X477Y688D02*
X477Y687D01*
X439Y687D01*
X439Y688D01*
X477Y688D01*
G37*
D02*
G36*
X426Y688D02*
X426Y687D01*
X406Y687D01*
X406Y688D01*
X426Y688D01*
G37*
D02*
G36*
X426Y688D02*
X426Y687D01*
X406Y687D01*
X406Y688D01*
X426Y688D01*
G37*
D02*
G36*
X400Y688D02*
X400Y685D01*
X401Y685D01*
X401Y684D01*
X403Y684D01*
X403Y682D01*
X404Y682D01*
X404Y680D01*
X406Y680D01*
X406Y679D01*
X411Y679D01*
X411Y677D01*
X413Y677D01*
X413Y674D01*
X414Y674D01*
X414Y670D01*
X401Y670D01*
X401Y667D01*
X403Y667D01*
X403Y666D01*
X401Y666D01*
X401Y664D01*
X403Y664D01*
X403Y661D01*
X404Y661D01*
X404Y657D01*
X406Y657D01*
X406Y656D01*
X409Y656D01*
X409Y654D01*
X413Y654D01*
X413Y652D01*
X414Y652D01*
X414Y651D01*
X416Y651D01*
X416Y647D01*
X418Y647D01*
X418Y646D01*
X419Y646D01*
X419Y644D01*
X421Y644D01*
X421Y643D01*
X424Y643D01*
X424Y641D01*
X426Y641D01*
X426Y638D01*
X429Y638D01*
X429Y636D01*
X431Y636D01*
X431Y634D01*
X434Y634D01*
X434Y633D01*
X436Y633D01*
X436Y631D01*
X437Y631D01*
X437Y629D01*
X439Y629D01*
X439Y628D01*
X442Y628D01*
X442Y626D01*
X427Y626D01*
X427Y628D01*
X426Y628D01*
X426Y631D01*
X423Y631D01*
X423Y634D01*
X419Y634D01*
X419Y636D01*
X418Y636D01*
X418Y638D01*
X416Y638D01*
X416Y639D01*
X414Y639D01*
X414Y641D01*
X413Y641D01*
X413Y643D01*
X411Y643D01*
X411Y644D01*
X408Y644D01*
X408Y646D01*
X404Y646D01*
X404Y647D01*
X403Y647D01*
X403Y651D01*
X401Y651D01*
X401Y652D01*
X400Y652D01*
X400Y656D01*
X398Y656D01*
X398Y657D01*
X396Y657D01*
X396Y659D01*
X395Y659D01*
X395Y664D01*
X393Y664D01*
X393Y666D01*
X395Y666D01*
X395Y672D01*
X393Y672D01*
X393Y679D01*
X391Y679D01*
X391Y680D01*
X393Y680D01*
X393Y684D01*
X391Y684D01*
X391Y688D01*
X400Y688D01*
G37*
D02*
G36*
X473Y687D02*
X473Y685D01*
X468Y685D01*
X468Y684D01*
X465Y684D01*
X465Y682D01*
X464Y682D01*
X464Y680D01*
X460Y680D01*
X460Y679D01*
X459Y679D01*
X459Y677D01*
X457Y677D01*
X457Y672D01*
X455Y672D01*
X455Y667D01*
X457Y667D01*
X457Y666D01*
X455Y666D01*
X455Y654D01*
X457Y654D01*
X457Y652D01*
X455Y652D01*
X455Y643D01*
X454Y643D01*
X454Y628D01*
X455Y628D01*
X455Y626D01*
X444Y626D01*
X444Y629D01*
X445Y629D01*
X445Y634D01*
X447Y634D01*
X447Y636D01*
X445Y636D01*
X445Y639D01*
X447Y639D01*
X447Y649D01*
X449Y649D01*
X449Y677D01*
X447Y677D01*
X447Y682D01*
X445Y682D01*
X445Y684D01*
X444Y684D01*
X444Y685D01*
X442Y685D01*
X442Y687D01*
X473Y687D01*
G37*
D02*
G36*
X427Y687D02*
X427Y685D01*
X431Y685D01*
X431Y684D01*
X432Y684D01*
X432Y682D01*
X434Y682D01*
X434Y680D01*
X432Y680D01*
X432Y679D01*
X427Y679D01*
X427Y680D01*
X424Y680D01*
X424Y682D01*
X423Y682D01*
X423Y684D01*
X421Y684D01*
X421Y685D01*
X419Y685D01*
X419Y687D01*
X427Y687D01*
G37*
D02*
G36*
X418Y687D02*
X418Y685D01*
X416Y685D01*
X416Y684D01*
X411Y684D01*
X411Y685D01*
X408Y685D01*
X408Y687D01*
X418Y687D01*
G37*
D02*
G36*
X801Y685D02*
X801Y684D01*
X733Y684D01*
X733Y685D01*
X801Y685D01*
G37*
D02*
G36*
X801Y685D02*
X801Y684D01*
X733Y684D01*
X733Y685D01*
X801Y685D01*
G37*
D02*
G36*
X800Y684D02*
X800Y680D01*
X798Y680D01*
X798Y679D01*
X800Y679D01*
X800Y677D01*
X739Y677D01*
X739Y672D01*
X737Y672D01*
X737Y670D01*
X736Y670D01*
X736Y666D01*
X734Y666D01*
X734Y661D01*
X733Y661D01*
X733Y656D01*
X731Y656D01*
X731Y652D01*
X729Y652D01*
X729Y649D01*
X728Y649D01*
X728Y646D01*
X726Y646D01*
X726Y639D01*
X724Y639D01*
X724Y636D01*
X723Y636D01*
X723Y629D01*
X721Y629D01*
X721Y625D01*
X719Y625D01*
X719Y620D01*
X705Y620D01*
X705Y618D01*
X698Y618D01*
X698Y616D01*
X665Y616D01*
X665Y618D01*
X675Y618D01*
X675Y620D01*
X685Y620D01*
X685Y621D01*
X692Y621D01*
X692Y623D01*
X696Y623D01*
X696Y625D01*
X700Y625D01*
X700Y626D01*
X705Y626D01*
X705Y628D01*
X708Y628D01*
X708Y629D01*
X711Y629D01*
X711Y633D01*
X713Y633D01*
X713Y634D01*
X715Y634D01*
X715Y639D01*
X716Y639D01*
X716Y643D01*
X718Y643D01*
X718Y647D01*
X719Y647D01*
X719Y652D01*
X721Y652D01*
X721Y657D01*
X723Y657D01*
X723Y659D01*
X724Y659D01*
X724Y666D01*
X726Y666D01*
X726Y670D01*
X728Y670D01*
X728Y675D01*
X729Y675D01*
X729Y677D01*
X731Y677D01*
X731Y682D01*
X733Y682D01*
X733Y684D01*
X800Y684D01*
G37*
D02*
G36*
X798Y677D02*
X798Y674D01*
X749Y674D01*
X749Y672D01*
X747Y672D01*
X747Y674D01*
X746Y674D01*
X746Y675D01*
X742Y675D01*
X742Y677D01*
X798Y677D01*
G37*
D02*
G36*
X798Y674D02*
X798Y670D01*
X797Y670D01*
X797Y667D01*
X795Y667D01*
X795Y662D01*
X793Y662D01*
X793Y661D01*
X792Y661D01*
X792Y656D01*
X790Y656D01*
X790Y654D01*
X788Y654D01*
X788Y649D01*
X787Y649D01*
X787Y644D01*
X785Y644D01*
X785Y641D01*
X783Y641D01*
X783Y638D01*
X782Y638D01*
X782Y636D01*
X783Y636D01*
X783Y634D01*
X787Y634D01*
X787Y633D01*
X790Y633D01*
X790Y631D01*
X792Y631D01*
X792Y629D01*
X793Y629D01*
X793Y628D01*
X795Y628D01*
X795Y625D01*
X797Y625D01*
X797Y620D01*
X778Y620D01*
X778Y621D01*
X782Y621D01*
X782Y625D01*
X777Y625D01*
X777Y626D01*
X772Y626D01*
X772Y628D01*
X770Y628D01*
X770Y629D01*
X769Y629D01*
X769Y631D01*
X767Y631D01*
X767Y636D01*
X769Y636D01*
X769Y639D01*
X772Y639D01*
X772Y643D01*
X774Y643D01*
X774Y644D01*
X775Y644D01*
X775Y647D01*
X777Y647D01*
X777Y651D01*
X778Y651D01*
X778Y656D01*
X780Y656D01*
X780Y659D01*
X782Y659D01*
X782Y662D01*
X780Y662D01*
X780Y664D01*
X775Y664D01*
X775Y666D01*
X765Y666D01*
X765Y667D01*
X760Y667D01*
X760Y669D01*
X757Y669D01*
X757Y670D01*
X754Y670D01*
X754Y672D01*
X751Y672D01*
X751Y674D01*
X798Y674D01*
G37*
D02*
G36*
X413Y670D02*
X413Y669D01*
X408Y669D01*
X408Y670D01*
X413Y670D01*
G37*
D02*
G36*
X406Y670D02*
X406Y669D01*
X404Y669D01*
X404Y670D01*
X406Y670D01*
G37*
D02*
G36*
X610Y644D02*
X610Y643D01*
X598Y643D01*
X598Y644D01*
X610Y644D01*
G37*
D02*
G36*
X595Y644D02*
X595Y643D01*
X580Y643D01*
X580Y644D01*
X595Y644D01*
G37*
D02*
G36*
X611Y643D02*
X611Y641D01*
X575Y641D01*
X575Y643D01*
X611Y643D01*
G37*
D02*
G36*
X611Y643D02*
X611Y641D01*
X575Y641D01*
X575Y643D01*
X611Y643D01*
G37*
D02*
G36*
X614Y641D02*
X614Y639D01*
X616Y639D01*
X616Y638D01*
X578Y638D01*
X578Y636D01*
X575Y636D01*
X575Y634D01*
X572Y634D01*
X572Y631D01*
X570Y631D01*
X570Y629D01*
X569Y629D01*
X569Y628D01*
X529Y628D01*
X529Y629D01*
X554Y629D01*
X554Y631D01*
X555Y631D01*
X555Y633D01*
X557Y633D01*
X557Y634D01*
X560Y634D01*
X560Y636D01*
X564Y636D01*
X564Y638D01*
X567Y638D01*
X567Y639D01*
X569Y639D01*
X569Y641D01*
X614Y641D01*
G37*
D02*
G36*
X619Y638D02*
X619Y636D01*
X605Y636D01*
X605Y629D01*
X608Y629D01*
X608Y626D01*
X610Y626D01*
X610Y623D01*
X611Y623D01*
X611Y620D01*
X610Y620D01*
X610Y618D01*
X605Y618D01*
X605Y616D01*
X598Y616D01*
X598Y615D01*
X596Y615D01*
X596Y613D01*
X595Y613D01*
X595Y606D01*
X585Y606D01*
X585Y620D01*
X587Y620D01*
X587Y621D01*
X590Y621D01*
X590Y623D01*
X593Y623D01*
X593Y625D01*
X596Y625D01*
X596Y628D01*
X595Y628D01*
X595Y629D01*
X593Y629D01*
X593Y633D01*
X591Y633D01*
X591Y636D01*
X590Y636D01*
X590Y638D01*
X619Y638D01*
G37*
D02*
G36*
X621Y636D02*
X621Y634D01*
X623Y634D01*
X623Y633D01*
X624Y633D01*
X624Y629D01*
X626Y629D01*
X626Y626D01*
X628Y626D01*
X628Y625D01*
X629Y625D01*
X629Y623D01*
X631Y623D01*
X631Y621D01*
X632Y621D01*
X632Y620D01*
X634Y620D01*
X634Y618D01*
X637Y618D01*
X637Y616D01*
X626Y616D01*
X626Y618D01*
X624Y618D01*
X624Y623D01*
X623Y623D01*
X623Y625D01*
X619Y625D01*
X619Y626D01*
X618Y626D01*
X618Y628D01*
X616Y628D01*
X616Y629D01*
X614Y629D01*
X614Y633D01*
X611Y633D01*
X611Y634D01*
X606Y634D01*
X606Y636D01*
X621Y636D01*
G37*
D02*
G36*
X500Y636D02*
X500Y634D01*
X503Y634D01*
X503Y633D01*
X506Y633D01*
X506Y631D01*
X514Y631D01*
X514Y629D01*
X521Y629D01*
X521Y628D01*
X495Y628D01*
X495Y629D01*
X493Y629D01*
X493Y631D01*
X490Y631D01*
X490Y633D01*
X486Y633D01*
X486Y634D01*
X483Y634D01*
X483Y636D01*
X500Y636D01*
G37*
D02*
G36*
X762Y633D02*
X762Y631D01*
X765Y631D01*
X765Y626D01*
X767Y626D01*
X767Y625D01*
X769Y625D01*
X769Y621D01*
X777Y621D01*
X777Y620D01*
X759Y620D01*
X759Y621D01*
X757Y621D01*
X757Y623D01*
X756Y623D01*
X756Y631D01*
X757Y631D01*
X757Y633D01*
X762Y633D01*
G37*
D02*
G36*
X564Y628D02*
X564Y626D01*
X498Y626D01*
X498Y628D01*
X564Y628D01*
G37*
D02*
G36*
X564Y628D02*
X564Y626D01*
X498Y626D01*
X498Y628D01*
X564Y628D01*
G37*
D02*
G36*
X564Y626D02*
X564Y625D01*
X562Y625D01*
X562Y623D01*
X527Y623D01*
X527Y621D01*
X514Y621D01*
X514Y623D01*
X508Y623D01*
X508Y625D01*
X503Y625D01*
X503Y626D01*
X564Y626D01*
G37*
D02*
G36*
X467Y626D02*
X467Y625D01*
X426Y625D01*
X426Y626D01*
X467Y626D01*
G37*
D02*
G36*
X467Y626D02*
X467Y625D01*
X426Y625D01*
X426Y626D01*
X467Y626D01*
G37*
D02*
G36*
X467Y626D02*
X467Y625D01*
X426Y625D01*
X426Y626D01*
X467Y626D01*
G37*
D02*
G36*
X467Y625D02*
X467Y623D01*
X465Y623D01*
X465Y621D01*
X432Y621D01*
X432Y620D01*
X431Y620D01*
X431Y618D01*
X429Y618D01*
X429Y615D01*
X427Y615D01*
X427Y613D01*
X426Y613D01*
X426Y608D01*
X424Y608D01*
X424Y605D01*
X423Y605D01*
X423Y593D01*
X424Y593D01*
X424Y587D01*
X426Y587D01*
X426Y582D01*
X427Y582D01*
X427Y579D01*
X429Y579D01*
X429Y575D01*
X431Y575D01*
X431Y574D01*
X432Y574D01*
X432Y570D01*
X434Y570D01*
X434Y569D01*
X436Y569D01*
X436Y565D01*
X424Y565D01*
X424Y570D01*
X423Y570D01*
X423Y577D01*
X421Y577D01*
X421Y579D01*
X419Y579D01*
X419Y580D01*
X418Y580D01*
X418Y590D01*
X416Y590D01*
X416Y593D01*
X414Y593D01*
X414Y605D01*
X416Y605D01*
X416Y610D01*
X418Y610D01*
X418Y615D01*
X419Y615D01*
X419Y616D01*
X421Y616D01*
X421Y620D01*
X423Y620D01*
X423Y621D01*
X424Y621D01*
X424Y625D01*
X467Y625D01*
G37*
D02*
G36*
X562Y623D02*
X562Y620D01*
X564Y620D01*
X564Y616D01*
X567Y616D01*
X567Y613D01*
X569Y613D01*
X569Y611D01*
X572Y611D01*
X572Y610D01*
X573Y610D01*
X573Y608D01*
X578Y608D01*
X578Y606D01*
X562Y606D01*
X562Y608D01*
X560Y608D01*
X560Y610D01*
X559Y610D01*
X559Y611D01*
X557Y611D01*
X557Y615D01*
X555Y615D01*
X555Y618D01*
X552Y618D01*
X552Y621D01*
X550Y621D01*
X550Y623D01*
X562Y623D01*
G37*
D02*
G36*
X464Y621D02*
X464Y620D01*
X460Y620D01*
X460Y616D01*
X452Y616D01*
X452Y615D01*
X442Y615D01*
X442Y616D01*
X439Y616D01*
X439Y620D01*
X434Y620D01*
X434Y621D01*
X464Y621D01*
G37*
D02*
G36*
X795Y620D02*
X795Y618D01*
X759Y618D01*
X759Y620D01*
X795Y620D01*
G37*
D02*
G36*
X795Y620D02*
X795Y618D01*
X759Y618D01*
X759Y620D01*
X795Y620D01*
G37*
D02*
G36*
X718Y620D02*
X718Y616D01*
X716Y616D01*
X716Y608D01*
X715Y608D01*
X715Y603D01*
X716Y603D01*
X716Y600D01*
X718Y600D01*
X718Y598D01*
X719Y598D01*
X719Y597D01*
X721Y597D01*
X721Y595D01*
X723Y595D01*
X723Y593D01*
X728Y593D01*
X728Y592D01*
X733Y592D01*
X733Y590D01*
X741Y590D01*
X741Y588D01*
X715Y588D01*
X715Y590D01*
X713Y590D01*
X713Y592D01*
X711Y592D01*
X711Y595D01*
X710Y595D01*
X710Y597D01*
X708Y597D01*
X708Y598D01*
X706Y598D01*
X706Y603D01*
X705Y603D01*
X705Y605D01*
X706Y605D01*
X706Y608D01*
X705Y608D01*
X705Y611D01*
X706Y611D01*
X706Y620D01*
X718Y620D01*
G37*
D02*
G36*
X793Y618D02*
X793Y616D01*
X790Y616D01*
X790Y615D01*
X782Y615D01*
X782Y613D01*
X772Y613D01*
X772Y611D01*
X769Y611D01*
X769Y610D01*
X767Y610D01*
X767Y606D01*
X765Y606D01*
X765Y603D01*
X764Y603D01*
X764Y598D01*
X762Y598D01*
X762Y593D01*
X760Y593D01*
X760Y592D01*
X759Y592D01*
X759Y588D01*
X749Y588D01*
X749Y590D01*
X751Y590D01*
X751Y595D01*
X752Y595D01*
X752Y598D01*
X754Y598D01*
X754Y605D01*
X756Y605D01*
X756Y608D01*
X757Y608D01*
X757Y611D01*
X759Y611D01*
X759Y616D01*
X760Y616D01*
X760Y618D01*
X793Y618D01*
G37*
D02*
G36*
X642Y618D02*
X642Y616D01*
X639Y616D01*
X639Y618D01*
X642Y618D01*
G37*
D02*
G36*
X693Y616D02*
X693Y615D01*
X628Y615D01*
X628Y616D01*
X693Y616D01*
G37*
D02*
G36*
X693Y616D02*
X693Y615D01*
X628Y615D01*
X628Y616D01*
X693Y616D01*
G37*
D02*
G36*
X693Y616D02*
X693Y615D01*
X628Y615D01*
X628Y616D01*
X693Y616D01*
G37*
D02*
G36*
X462Y616D02*
X462Y613D01*
X464Y613D01*
X464Y598D01*
X462Y598D01*
X462Y597D01*
X460Y597D01*
X460Y595D01*
X459Y595D01*
X459Y593D01*
X455Y593D01*
X455Y590D01*
X454Y590D01*
X454Y588D01*
X452Y588D01*
X452Y587D01*
X450Y587D01*
X450Y583D01*
X449Y583D01*
X449Y572D01*
X439Y572D01*
X439Y579D01*
X441Y579D01*
X441Y585D01*
X442Y585D01*
X442Y588D01*
X444Y588D01*
X444Y592D01*
X445Y592D01*
X445Y593D01*
X447Y593D01*
X447Y595D01*
X449Y595D01*
X449Y597D01*
X450Y597D01*
X450Y598D01*
X452Y598D01*
X452Y600D01*
X455Y600D01*
X455Y605D01*
X457Y605D01*
X457Y610D01*
X455Y610D01*
X455Y616D01*
X462Y616D01*
G37*
D02*
G36*
X785Y615D02*
X785Y613D01*
X783Y613D01*
X783Y615D01*
X785Y615D01*
G37*
D02*
G36*
X688Y615D02*
X688Y613D01*
X685Y613D01*
X685Y611D01*
X672Y611D01*
X672Y610D01*
X664Y610D01*
X664Y608D01*
X642Y608D01*
X642Y606D01*
X641Y606D01*
X641Y603D01*
X639Y603D01*
X639Y597D01*
X637Y597D01*
X637Y595D01*
X618Y595D01*
X618Y597D01*
X623Y597D01*
X623Y598D01*
X626Y598D01*
X626Y600D01*
X629Y600D01*
X629Y602D01*
X631Y602D01*
X631Y606D01*
X632Y606D01*
X632Y611D01*
X631Y611D01*
X631Y613D01*
X629Y613D01*
X629Y615D01*
X688Y615D01*
G37*
D02*
G36*
X598Y606D02*
X598Y605D01*
X565Y605D01*
X565Y606D01*
X598Y606D01*
G37*
D02*
G36*
X598Y606D02*
X598Y605D01*
X565Y605D01*
X565Y606D01*
X598Y606D01*
G37*
D02*
G36*
X600Y605D02*
X600Y603D01*
X601Y603D01*
X601Y602D01*
X603Y602D01*
X603Y600D01*
X605Y600D01*
X605Y598D01*
X610Y598D01*
X610Y597D01*
X575Y597D01*
X575Y598D01*
X573Y598D01*
X573Y600D01*
X572Y600D01*
X572Y602D01*
X570Y602D01*
X570Y603D01*
X569Y603D01*
X569Y605D01*
X600Y605D01*
G37*
D02*
G36*
X613Y598D02*
X613Y597D01*
X611Y597D01*
X611Y598D01*
X613Y598D01*
G37*
D02*
G36*
X614Y597D02*
X614Y595D01*
X591Y595D01*
X591Y597D01*
X614Y597D01*
G37*
D02*
G36*
X614Y597D02*
X614Y595D01*
X591Y595D01*
X591Y597D01*
X614Y597D01*
G37*
D02*
G36*
X634Y595D02*
X634Y593D01*
X596Y593D01*
X596Y595D01*
X634Y595D01*
G37*
D02*
G36*
X634Y595D02*
X634Y593D01*
X596Y593D01*
X596Y595D01*
X634Y595D01*
G37*
D02*
G36*
X629Y593D02*
X629Y592D01*
X626Y592D01*
X626Y590D01*
X624Y590D01*
X624Y588D01*
X621Y588D01*
X621Y587D01*
X610Y587D01*
X610Y590D01*
X605Y590D01*
X605Y592D01*
X598Y592D01*
X598Y593D01*
X629Y593D01*
G37*
D02*
G36*
X757Y588D02*
X757Y587D01*
X716Y587D01*
X716Y588D01*
X757Y588D01*
G37*
D02*
G36*
X757Y588D02*
X757Y587D01*
X716Y587D01*
X716Y588D01*
X757Y588D01*
G37*
D02*
G36*
X754Y587D02*
X754Y580D01*
X733Y580D01*
X733Y579D01*
X731Y579D01*
X731Y575D01*
X729Y575D01*
X729Y574D01*
X731Y574D01*
X731Y564D01*
X729Y564D01*
X729Y552D01*
X731Y552D01*
X731Y549D01*
X733Y549D01*
X733Y546D01*
X723Y546D01*
X723Y547D01*
X721Y547D01*
X721Y551D01*
X719Y551D01*
X719Y559D01*
X718Y559D01*
X718Y561D01*
X719Y561D01*
X719Y575D01*
X721Y575D01*
X721Y585D01*
X718Y585D01*
X718Y587D01*
X754Y587D01*
G37*
D02*
G36*
X752Y580D02*
X752Y579D01*
X744Y579D01*
X744Y577D01*
X741Y577D01*
X741Y580D01*
X752Y580D01*
G37*
D02*
G36*
X480Y575D02*
X480Y574D01*
X483Y574D01*
X483Y572D01*
X452Y572D01*
X452Y574D01*
X467Y574D01*
X467Y575D01*
X480Y575D01*
G37*
D02*
G36*
X404Y574D02*
X404Y572D01*
X408Y572D01*
X408Y570D01*
X414Y570D01*
X414Y569D01*
X418Y569D01*
X418Y567D01*
X421Y567D01*
X421Y565D01*
X398Y565D01*
X398Y562D01*
X396Y562D01*
X396Y561D01*
X398Y561D01*
X398Y557D01*
X403Y557D01*
X403Y556D01*
X406Y556D01*
X406Y554D01*
X390Y554D01*
X390Y561D01*
X388Y561D01*
X388Y565D01*
X390Y565D01*
X390Y569D01*
X391Y569D01*
X391Y570D01*
X393Y570D01*
X393Y572D01*
X395Y572D01*
X395Y574D01*
X404Y574D01*
G37*
D02*
G36*
X483Y572D02*
X483Y570D01*
X439Y570D01*
X439Y572D01*
X483Y572D01*
G37*
D02*
G36*
X483Y572D02*
X483Y570D01*
X439Y570D01*
X439Y572D01*
X483Y572D01*
G37*
D02*
G36*
X483Y570D02*
X483Y567D01*
X460Y567D01*
X460Y565D01*
X464Y565D01*
X464Y564D01*
X441Y564D01*
X441Y569D01*
X439Y569D01*
X439Y570D01*
X483Y570D01*
G37*
D02*
G36*
X483Y567D02*
X483Y564D01*
X468Y564D01*
X468Y565D01*
X470Y565D01*
X470Y567D01*
X483Y567D01*
G37*
D02*
G36*
X437Y565D02*
X437Y564D01*
X406Y564D01*
X406Y565D01*
X437Y565D01*
G37*
D02*
G36*
X437Y565D02*
X437Y564D01*
X406Y564D01*
X406Y565D01*
X437Y565D01*
G37*
D02*
G36*
X482Y564D02*
X482Y562D01*
X442Y562D01*
X442Y564D01*
X482Y564D01*
G37*
D02*
G36*
X482Y564D02*
X482Y562D01*
X442Y562D01*
X442Y564D01*
X482Y564D01*
G37*
D02*
G36*
X437Y564D02*
X437Y554D01*
X419Y554D01*
X419Y557D01*
X416Y557D01*
X416Y559D01*
X414Y559D01*
X414Y561D01*
X411Y561D01*
X411Y562D01*
X408Y562D01*
X408Y564D01*
X437Y564D01*
G37*
D02*
G36*
X480Y562D02*
X480Y561D01*
X478Y561D01*
X478Y559D01*
X477Y559D01*
X477Y557D01*
X472Y557D01*
X472Y556D01*
X457Y556D01*
X457Y557D01*
X452Y557D01*
X452Y559D01*
X447Y559D01*
X447Y561D01*
X445Y561D01*
X445Y562D01*
X480Y562D01*
G37*
D02*
G36*
X409Y556D02*
X409Y554D01*
X408Y554D01*
X408Y556D01*
X409Y556D01*
G37*
D02*
G36*
X772Y554D02*
X772Y552D01*
X775Y552D01*
X775Y551D01*
X778Y551D01*
X778Y547D01*
X780Y547D01*
X780Y538D01*
X765Y538D01*
X765Y539D01*
X767Y539D01*
X767Y541D01*
X769Y541D01*
X769Y542D01*
X770Y542D01*
X770Y544D01*
X769Y544D01*
X769Y546D01*
X741Y546D01*
X741Y547D01*
X746Y547D01*
X746Y549D01*
X751Y549D01*
X751Y551D01*
X754Y551D01*
X754Y552D01*
X760Y552D01*
X760Y554D01*
X772Y554D01*
G37*
D02*
G36*
X436Y554D02*
X436Y552D01*
X391Y552D01*
X391Y554D01*
X436Y554D01*
G37*
D02*
G36*
X436Y554D02*
X436Y552D01*
X391Y552D01*
X391Y554D01*
X436Y554D01*
G37*
D02*
G36*
X436Y554D02*
X436Y552D01*
X391Y552D01*
X391Y554D01*
X436Y554D01*
G37*
D02*
G36*
X432Y552D02*
X432Y551D01*
X431Y551D01*
X431Y549D01*
X426Y549D01*
X426Y547D01*
X409Y547D01*
X409Y546D01*
X408Y546D01*
X408Y547D01*
X401Y547D01*
X401Y549D01*
X398Y549D01*
X398Y551D01*
X393Y551D01*
X393Y552D01*
X432Y552D01*
G37*
D02*
G36*
X760Y546D02*
X760Y544D01*
X723Y544D01*
X723Y546D01*
X760Y546D01*
G37*
D02*
G36*
X760Y546D02*
X760Y544D01*
X723Y544D01*
X723Y546D01*
X760Y546D01*
G37*
D02*
G36*
X759Y544D02*
X759Y542D01*
X756Y542D01*
X756Y541D01*
X754Y541D01*
X754Y539D01*
X751Y539D01*
X751Y538D01*
X742Y538D01*
X742Y536D01*
X741Y536D01*
X741Y534D01*
X739Y534D01*
X739Y533D01*
X741Y533D01*
X741Y531D01*
X742Y531D01*
X742Y529D01*
X731Y529D01*
X731Y531D01*
X729Y531D01*
X729Y533D01*
X728Y533D01*
X728Y534D01*
X729Y534D01*
X729Y536D01*
X728Y536D01*
X728Y538D01*
X726Y538D01*
X726Y541D01*
X724Y541D01*
X724Y542D01*
X723Y542D01*
X723Y544D01*
X759Y544D01*
G37*
D02*
G36*
X764Y539D02*
X764Y538D01*
X762Y538D01*
X762Y539D01*
X764Y539D01*
G37*
D02*
G36*
X778Y538D02*
X778Y536D01*
X762Y536D01*
X762Y538D01*
X778Y538D01*
G37*
D02*
G36*
X778Y538D02*
X778Y536D01*
X762Y536D01*
X762Y538D01*
X778Y538D01*
G37*
D02*
G36*
X777Y536D02*
X777Y534D01*
X774Y534D01*
X774Y533D01*
X772Y533D01*
X772Y531D01*
X767Y531D01*
X767Y529D01*
X749Y529D01*
X749Y531D01*
X754Y531D01*
X754Y533D01*
X759Y533D01*
X759Y534D01*
X760Y534D01*
X760Y536D01*
X777Y536D01*
G37*
D02*
G36*
X764Y529D02*
X764Y528D01*
X731Y528D01*
X731Y529D01*
X764Y529D01*
G37*
D02*
G36*
X764Y529D02*
X764Y528D01*
X731Y528D01*
X731Y529D01*
X764Y529D01*
G37*
D02*
G36*
X760Y528D02*
X760Y526D01*
X757Y526D01*
X757Y524D01*
X756Y524D01*
X756Y523D01*
X751Y523D01*
X751Y521D01*
X737Y521D01*
X737Y523D01*
X734Y523D01*
X734Y524D01*
X733Y524D01*
X733Y526D01*
X731Y526D01*
X731Y528D01*
X760Y528D01*
G37*
D02*
G54D10*
X0Y1181D02*
X1180Y1181D01*
X0Y1180D02*
X1180Y1180D01*
X0Y1179D02*
X1180Y1179D01*
X0Y1178D02*
X1180Y1178D01*
X0Y1177D02*
X1180Y1177D01*
X0Y1176D02*
X1180Y1176D01*
X0Y1175D02*
X1180Y1175D01*
X0Y1174D02*
X1180Y1174D01*
X0Y1173D02*
X7Y1173D01*
X1173Y1173D02*
X1180Y1173D01*
X0Y1172D02*
X7Y1172D01*
X1173Y1172D02*
X1180Y1172D01*
X0Y1171D02*
X7Y1171D01*
X1173Y1171D02*
X1180Y1171D01*
X0Y1170D02*
X7Y1170D01*
X1173Y1170D02*
X1180Y1170D01*
X0Y1169D02*
X7Y1169D01*
X1173Y1169D02*
X1180Y1169D01*
X0Y1168D02*
X7Y1168D01*
X1173Y1168D02*
X1180Y1168D01*
X0Y1167D02*
X7Y1167D01*
X1173Y1167D02*
X1180Y1167D01*
X0Y1166D02*
X7Y1166D01*
X1173Y1166D02*
X1180Y1166D01*
X0Y1165D02*
X7Y1165D01*
X1173Y1165D02*
X1180Y1165D01*
X0Y1164D02*
X7Y1164D01*
X1173Y1164D02*
X1180Y1164D01*
X0Y1163D02*
X7Y1163D01*
X1173Y1163D02*
X1180Y1163D01*
X0Y1162D02*
X7Y1162D01*
X1173Y1162D02*
X1180Y1162D01*
X0Y1161D02*
X7Y1161D01*
X1173Y1161D02*
X1180Y1161D01*
X0Y1160D02*
X7Y1160D01*
X1173Y1160D02*
X1180Y1160D01*
X0Y1159D02*
X7Y1159D01*
X1173Y1159D02*
X1180Y1159D01*
X0Y1158D02*
X7Y1158D01*
X1173Y1158D02*
X1180Y1158D01*
X0Y1157D02*
X7Y1157D01*
X1173Y1157D02*
X1180Y1157D01*
X0Y1156D02*
X7Y1156D01*
X1173Y1156D02*
X1180Y1156D01*
X0Y1155D02*
X7Y1155D01*
X1173Y1155D02*
X1180Y1155D01*
X0Y1154D02*
X7Y1154D01*
X1173Y1154D02*
X1180Y1154D01*
X0Y1153D02*
X7Y1153D01*
X1173Y1153D02*
X1180Y1153D01*
X0Y1152D02*
X7Y1152D01*
X1173Y1152D02*
X1180Y1152D01*
X0Y1151D02*
X7Y1151D01*
X1173Y1151D02*
X1180Y1151D01*
X0Y1150D02*
X7Y1150D01*
X1173Y1150D02*
X1180Y1150D01*
X0Y1149D02*
X7Y1149D01*
X1173Y1149D02*
X1180Y1149D01*
X0Y1148D02*
X7Y1148D01*
X1173Y1148D02*
X1180Y1148D01*
X0Y1147D02*
X7Y1147D01*
X1173Y1147D02*
X1180Y1147D01*
X0Y1146D02*
X7Y1146D01*
X1173Y1146D02*
X1180Y1146D01*
X0Y1145D02*
X7Y1145D01*
X1173Y1145D02*
X1180Y1145D01*
X0Y1144D02*
X7Y1144D01*
X1173Y1144D02*
X1180Y1144D01*
X0Y1143D02*
X7Y1143D01*
X1173Y1143D02*
X1180Y1143D01*
X0Y1142D02*
X7Y1142D01*
X1173Y1142D02*
X1180Y1142D01*
X0Y1141D02*
X7Y1141D01*
X1173Y1141D02*
X1180Y1141D01*
X0Y1140D02*
X7Y1140D01*
X1173Y1140D02*
X1180Y1140D01*
X0Y1139D02*
X7Y1139D01*
X1173Y1139D02*
X1180Y1139D01*
X0Y1138D02*
X7Y1138D01*
X1173Y1138D02*
X1180Y1138D01*
X0Y1137D02*
X7Y1137D01*
X1173Y1137D02*
X1180Y1137D01*
X0Y1136D02*
X7Y1136D01*
X1173Y1136D02*
X1180Y1136D01*
X0Y1135D02*
X7Y1135D01*
X1173Y1135D02*
X1180Y1135D01*
X0Y1134D02*
X7Y1134D01*
X1173Y1134D02*
X1180Y1134D01*
X0Y1133D02*
X7Y1133D01*
X1173Y1133D02*
X1180Y1133D01*
X0Y1132D02*
X7Y1132D01*
X1173Y1132D02*
X1180Y1132D01*
X0Y1131D02*
X7Y1131D01*
X1173Y1131D02*
X1180Y1131D01*
X0Y1130D02*
X7Y1130D01*
X1173Y1130D02*
X1180Y1130D01*
X0Y1129D02*
X7Y1129D01*
X1173Y1129D02*
X1180Y1129D01*
X0Y1128D02*
X7Y1128D01*
X1173Y1128D02*
X1180Y1128D01*
X0Y1127D02*
X7Y1127D01*
X1173Y1127D02*
X1180Y1127D01*
X0Y1126D02*
X7Y1126D01*
X1173Y1126D02*
X1180Y1126D01*
X0Y1125D02*
X7Y1125D01*
X1173Y1125D02*
X1180Y1125D01*
X0Y1124D02*
X7Y1124D01*
X1173Y1124D02*
X1180Y1124D01*
X0Y1123D02*
X7Y1123D01*
X214Y1123D02*
X219Y1123D01*
X995Y1123D02*
X999Y1123D01*
X1173Y1123D02*
X1180Y1123D01*
X0Y1122D02*
X7Y1122D01*
X214Y1122D02*
X219Y1122D01*
X994Y1122D02*
X1000Y1122D01*
X1173Y1122D02*
X1180Y1122D01*
X0Y1121D02*
X7Y1121D01*
X149Y1121D02*
X160Y1121D01*
X214Y1121D02*
X219Y1121D01*
X240Y1121D02*
X256Y1121D01*
X273Y1121D02*
X288Y1121D01*
X305Y1121D02*
X322Y1121D01*
X336Y1121D02*
X337Y1121D01*
X374Y1121D02*
X389Y1121D01*
X401Y1121D02*
X410Y1121D01*
X437Y1121D02*
X454Y1121D01*
X614Y1121D02*
X615Y1121D01*
X665Y1121D02*
X681Y1121D01*
X694Y1121D02*
X695Y1121D01*
X874Y1121D02*
X875Y1121D01*
X939Y1121D02*
X940Y1121D01*
X994Y1121D02*
X1000Y1121D01*
X1173Y1121D02*
X1180Y1121D01*
X0Y1120D02*
X7Y1120D01*
X149Y1120D02*
X161Y1120D01*
X214Y1120D02*
X219Y1120D01*
X239Y1120D02*
X257Y1120D01*
X272Y1120D02*
X289Y1120D01*
X304Y1120D02*
X323Y1120D01*
X335Y1120D02*
X338Y1120D01*
X372Y1120D02*
X389Y1120D01*
X400Y1120D02*
X411Y1120D01*
X436Y1120D02*
X454Y1120D01*
X613Y1120D02*
X616Y1120D01*
X663Y1120D02*
X681Y1120D01*
X693Y1120D02*
X696Y1120D01*
X874Y1120D02*
X876Y1120D01*
X939Y1120D02*
X941Y1120D01*
X994Y1120D02*
X1000Y1120D01*
X1173Y1120D02*
X1180Y1120D01*
X0Y1119D02*
X7Y1119D01*
X149Y1119D02*
X161Y1119D01*
X214Y1119D02*
X219Y1119D01*
X238Y1119D02*
X258Y1119D01*
X271Y1119D02*
X290Y1119D01*
X303Y1119D02*
X324Y1119D01*
X335Y1119D02*
X338Y1119D01*
X371Y1119D02*
X389Y1119D01*
X400Y1119D02*
X412Y1119D01*
X435Y1119D02*
X454Y1119D01*
X613Y1119D02*
X616Y1119D01*
X662Y1119D02*
X681Y1119D01*
X693Y1119D02*
X696Y1119D01*
X873Y1119D02*
X877Y1119D01*
X938Y1119D02*
X942Y1119D01*
X994Y1119D02*
X1000Y1119D01*
X1173Y1119D02*
X1180Y1119D01*
X0Y1118D02*
X7Y1118D01*
X149Y1118D02*
X161Y1118D01*
X214Y1118D02*
X219Y1118D01*
X238Y1118D02*
X258Y1118D01*
X270Y1118D02*
X291Y1118D01*
X303Y1118D02*
X324Y1118D01*
X335Y1118D02*
X339Y1118D01*
X370Y1118D02*
X389Y1118D01*
X400Y1118D02*
X413Y1118D01*
X434Y1118D02*
X454Y1118D01*
X613Y1118D02*
X616Y1118D01*
X662Y1118D02*
X681Y1118D01*
X693Y1118D02*
X697Y1118D01*
X873Y1118D02*
X877Y1118D01*
X938Y1118D02*
X942Y1118D01*
X967Y1118D02*
X969Y1118D01*
X994Y1118D02*
X1000Y1118D01*
X1173Y1118D02*
X1180Y1118D01*
X0Y1117D02*
X7Y1117D01*
X149Y1117D02*
X161Y1117D01*
X214Y1117D02*
X219Y1117D01*
X237Y1117D02*
X258Y1117D01*
X270Y1117D02*
X291Y1117D01*
X302Y1117D02*
X323Y1117D01*
X335Y1117D02*
X339Y1117D01*
X370Y1117D02*
X389Y1117D01*
X400Y1117D02*
X414Y1117D01*
X433Y1117D02*
X454Y1117D01*
X613Y1117D02*
X616Y1117D01*
X661Y1117D02*
X681Y1117D01*
X693Y1117D02*
X697Y1117D01*
X873Y1117D02*
X877Y1117D01*
X938Y1117D02*
X942Y1117D01*
X966Y1117D02*
X970Y1117D01*
X995Y1117D02*
X1000Y1117D01*
X1173Y1117D02*
X1180Y1117D01*
X0Y1116D02*
X7Y1116D01*
X149Y1116D02*
X160Y1116D01*
X215Y1116D02*
X219Y1116D01*
X237Y1116D02*
X259Y1116D01*
X270Y1116D02*
X291Y1116D01*
X302Y1116D02*
X323Y1116D01*
X335Y1116D02*
X340Y1116D01*
X369Y1116D02*
X389Y1116D01*
X401Y1116D02*
X414Y1116D01*
X433Y1116D02*
X454Y1116D01*
X613Y1116D02*
X616Y1116D01*
X661Y1116D02*
X681Y1116D01*
X693Y1116D02*
X698Y1116D01*
X873Y1116D02*
X877Y1116D01*
X938Y1116D02*
X942Y1116D01*
X966Y1116D02*
X970Y1116D01*
X995Y1116D02*
X999Y1116D01*
X1173Y1116D02*
X1180Y1116D01*
X0Y1115D02*
X7Y1115D01*
X149Y1115D02*
X152Y1115D01*
X237Y1115D02*
X241Y1115D01*
X255Y1115D02*
X259Y1115D01*
X270Y1115D02*
X273Y1115D01*
X287Y1115D02*
X291Y1115D01*
X302Y1115D02*
X306Y1115D01*
X336Y1115D02*
X340Y1115D01*
X368Y1115D02*
X374Y1115D01*
X385Y1115D02*
X389Y1115D01*
X410Y1115D02*
X415Y1115D01*
X433Y1115D02*
X437Y1115D01*
X450Y1115D02*
X454Y1115D01*
X613Y1115D02*
X616Y1115D01*
X660Y1115D02*
X665Y1115D01*
X678Y1115D02*
X681Y1115D01*
X694Y1115D02*
X698Y1115D01*
X873Y1115D02*
X877Y1115D01*
X938Y1115D02*
X942Y1115D01*
X966Y1115D02*
X970Y1115D01*
X1173Y1115D02*
X1180Y1115D01*
X0Y1114D02*
X7Y1114D01*
X149Y1114D02*
X152Y1114D01*
X237Y1114D02*
X241Y1114D01*
X255Y1114D02*
X259Y1114D01*
X270Y1114D02*
X273Y1114D01*
X288Y1114D02*
X291Y1114D01*
X302Y1114D02*
X306Y1114D01*
X336Y1114D02*
X341Y1114D01*
X368Y1114D02*
X373Y1114D01*
X385Y1114D02*
X389Y1114D01*
X411Y1114D02*
X415Y1114D01*
X433Y1114D02*
X436Y1114D01*
X450Y1114D02*
X454Y1114D01*
X613Y1114D02*
X616Y1114D01*
X660Y1114D02*
X664Y1114D01*
X678Y1114D02*
X681Y1114D01*
X694Y1114D02*
X698Y1114D01*
X873Y1114D02*
X877Y1114D01*
X938Y1114D02*
X942Y1114D01*
X966Y1114D02*
X970Y1114D01*
X1173Y1114D02*
X1180Y1114D01*
X0Y1113D02*
X7Y1113D01*
X149Y1113D02*
X152Y1113D01*
X237Y1113D02*
X241Y1113D01*
X255Y1113D02*
X259Y1113D01*
X270Y1113D02*
X273Y1113D01*
X288Y1113D02*
X291Y1113D01*
X302Y1113D02*
X306Y1113D01*
X337Y1113D02*
X341Y1113D01*
X368Y1113D02*
X372Y1113D01*
X385Y1113D02*
X389Y1113D01*
X411Y1113D02*
X416Y1113D01*
X432Y1113D02*
X436Y1113D01*
X450Y1113D02*
X454Y1113D01*
X613Y1113D02*
X616Y1113D01*
X660Y1113D02*
X664Y1113D01*
X678Y1113D02*
X681Y1113D01*
X695Y1113D02*
X699Y1113D01*
X873Y1113D02*
X877Y1113D01*
X938Y1113D02*
X942Y1113D01*
X966Y1113D02*
X970Y1113D01*
X1173Y1113D02*
X1180Y1113D01*
X0Y1112D02*
X7Y1112D01*
X149Y1112D02*
X152Y1112D01*
X237Y1112D02*
X241Y1112D01*
X255Y1112D02*
X259Y1112D01*
X270Y1112D02*
X273Y1112D01*
X288Y1112D02*
X291Y1112D01*
X302Y1112D02*
X306Y1112D01*
X337Y1112D02*
X341Y1112D01*
X368Y1112D02*
X371Y1112D01*
X385Y1112D02*
X389Y1112D01*
X412Y1112D02*
X417Y1112D01*
X432Y1112D02*
X436Y1112D01*
X450Y1112D02*
X454Y1112D01*
X613Y1112D02*
X616Y1112D01*
X660Y1112D02*
X664Y1112D01*
X678Y1112D02*
X681Y1112D01*
X695Y1112D02*
X699Y1112D01*
X873Y1112D02*
X877Y1112D01*
X938Y1112D02*
X942Y1112D01*
X966Y1112D02*
X970Y1112D01*
X1173Y1112D02*
X1180Y1112D01*
X0Y1111D02*
X7Y1111D01*
X149Y1111D02*
X152Y1111D01*
X237Y1111D02*
X241Y1111D01*
X255Y1111D02*
X259Y1111D01*
X270Y1111D02*
X273Y1111D01*
X288Y1111D02*
X291Y1111D01*
X302Y1111D02*
X306Y1111D01*
X338Y1111D02*
X342Y1111D01*
X367Y1111D02*
X371Y1111D01*
X385Y1111D02*
X389Y1111D01*
X412Y1111D02*
X417Y1111D01*
X432Y1111D02*
X436Y1111D01*
X450Y1111D02*
X454Y1111D01*
X613Y1111D02*
X616Y1111D01*
X660Y1111D02*
X664Y1111D01*
X678Y1111D02*
X681Y1111D01*
X695Y1111D02*
X700Y1111D01*
X873Y1111D02*
X877Y1111D01*
X938Y1111D02*
X942Y1111D01*
X966Y1111D02*
X970Y1111D01*
X1173Y1111D02*
X1180Y1111D01*
X0Y1110D02*
X7Y1110D01*
X149Y1110D02*
X152Y1110D01*
X237Y1110D02*
X241Y1110D01*
X255Y1110D02*
X259Y1110D01*
X270Y1110D02*
X273Y1110D01*
X288Y1110D02*
X291Y1110D01*
X302Y1110D02*
X306Y1110D01*
X338Y1110D02*
X342Y1110D01*
X367Y1110D02*
X371Y1110D01*
X385Y1110D02*
X389Y1110D01*
X413Y1110D02*
X418Y1110D01*
X432Y1110D02*
X436Y1110D01*
X450Y1110D02*
X454Y1110D01*
X613Y1110D02*
X616Y1110D01*
X660Y1110D02*
X664Y1110D01*
X678Y1110D02*
X681Y1110D01*
X696Y1110D02*
X700Y1110D01*
X873Y1110D02*
X877Y1110D01*
X938Y1110D02*
X942Y1110D01*
X966Y1110D02*
X970Y1110D01*
X1173Y1110D02*
X1180Y1110D01*
X0Y1109D02*
X7Y1109D01*
X149Y1109D02*
X152Y1109D01*
X237Y1109D02*
X241Y1109D01*
X255Y1109D02*
X259Y1109D01*
X270Y1109D02*
X273Y1109D01*
X288Y1109D02*
X291Y1109D01*
X302Y1109D02*
X306Y1109D01*
X338Y1109D02*
X343Y1109D01*
X367Y1109D02*
X371Y1109D01*
X385Y1109D02*
X389Y1109D01*
X414Y1109D02*
X418Y1109D01*
X432Y1109D02*
X436Y1109D01*
X450Y1109D02*
X454Y1109D01*
X613Y1109D02*
X616Y1109D01*
X660Y1109D02*
X664Y1109D01*
X678Y1109D02*
X681Y1109D01*
X696Y1109D02*
X701Y1109D01*
X873Y1109D02*
X877Y1109D01*
X938Y1109D02*
X942Y1109D01*
X966Y1109D02*
X970Y1109D01*
X1173Y1109D02*
X1180Y1109D01*
X0Y1108D02*
X7Y1108D01*
X149Y1108D02*
X152Y1108D01*
X177Y1108D02*
X183Y1108D01*
X191Y1108D02*
X193Y1108D01*
X215Y1108D02*
X223Y1108D01*
X237Y1108D02*
X241Y1108D01*
X255Y1108D02*
X259Y1108D01*
X270Y1108D02*
X273Y1108D01*
X288Y1108D02*
X291Y1108D01*
X302Y1108D02*
X306Y1108D01*
X339Y1108D02*
X343Y1108D01*
X367Y1108D02*
X371Y1108D01*
X385Y1108D02*
X389Y1108D01*
X414Y1108D02*
X419Y1108D01*
X432Y1108D02*
X436Y1108D01*
X450Y1108D02*
X454Y1108D01*
X470Y1108D02*
X481Y1108D01*
X499Y1108D02*
X510Y1108D01*
X531Y1108D02*
X543Y1108D01*
X569Y1108D02*
X578Y1108D01*
X601Y1108D02*
X608Y1108D01*
X613Y1108D02*
X616Y1108D01*
X634Y1108D02*
X643Y1108D01*
X660Y1108D02*
X664Y1108D01*
X678Y1108D02*
X681Y1108D01*
X697Y1108D02*
X701Y1108D01*
X729Y1108D02*
X731Y1108D01*
X738Y1108D02*
X741Y1108D01*
X744Y1108D02*
X746Y1108D01*
X764Y1108D02*
X773Y1108D01*
X791Y1108D02*
X803Y1108D01*
X861Y1108D02*
X868Y1108D01*
X873Y1108D02*
X877Y1108D01*
X889Y1108D02*
X890Y1108D01*
X907Y1108D02*
X908Y1108D01*
X925Y1108D02*
X931Y1108D01*
X938Y1108D02*
X942Y1108D01*
X956Y1108D02*
X973Y1108D01*
X995Y1108D02*
X1003Y1108D01*
X1019Y1108D02*
X1020Y1108D01*
X1026Y1108D02*
X1033Y1108D01*
X1173Y1108D02*
X1180Y1108D01*
X0Y1107D02*
X7Y1107D01*
X149Y1107D02*
X152Y1107D01*
X176Y1107D02*
X185Y1107D01*
X190Y1107D02*
X193Y1107D01*
X214Y1107D02*
X224Y1107D01*
X237Y1107D02*
X241Y1107D01*
X255Y1107D02*
X259Y1107D01*
X270Y1107D02*
X273Y1107D01*
X288Y1107D02*
X291Y1107D01*
X302Y1107D02*
X306Y1107D01*
X339Y1107D02*
X344Y1107D01*
X367Y1107D02*
X371Y1107D01*
X385Y1107D02*
X389Y1107D01*
X415Y1107D02*
X419Y1107D01*
X433Y1107D02*
X437Y1107D01*
X450Y1107D02*
X454Y1107D01*
X469Y1107D02*
X482Y1107D01*
X498Y1107D02*
X512Y1107D01*
X530Y1107D02*
X544Y1107D01*
X567Y1107D02*
X579Y1107D01*
X600Y1107D02*
X610Y1107D01*
X613Y1107D02*
X616Y1107D01*
X632Y1107D02*
X644Y1107D01*
X660Y1107D02*
X664Y1107D01*
X678Y1107D02*
X681Y1107D01*
X697Y1107D02*
X701Y1107D01*
X728Y1107D02*
X733Y1107D01*
X736Y1107D02*
X742Y1107D01*
X744Y1107D02*
X747Y1107D01*
X762Y1107D02*
X774Y1107D01*
X791Y1107D02*
X805Y1107D01*
X860Y1107D02*
X870Y1107D01*
X873Y1107D02*
X877Y1107D01*
X888Y1107D02*
X891Y1107D01*
X906Y1107D02*
X909Y1107D01*
X924Y1107D02*
X933Y1107D01*
X938Y1107D02*
X942Y1107D01*
X955Y1107D02*
X974Y1107D01*
X995Y1107D02*
X1004Y1107D01*
X1018Y1107D02*
X1021Y1107D01*
X1025Y1107D02*
X1035Y1107D01*
X1173Y1107D02*
X1180Y1107D01*
X0Y1106D02*
X7Y1106D01*
X149Y1106D02*
X152Y1106D01*
X175Y1106D02*
X186Y1106D01*
X190Y1106D02*
X193Y1106D01*
X214Y1106D02*
X224Y1106D01*
X237Y1106D02*
X241Y1106D01*
X255Y1106D02*
X259Y1106D01*
X270Y1106D02*
X273Y1106D01*
X288Y1106D02*
X291Y1106D01*
X302Y1106D02*
X306Y1106D01*
X340Y1106D02*
X344Y1106D01*
X367Y1106D02*
X371Y1106D01*
X385Y1106D02*
X389Y1106D01*
X415Y1106D02*
X420Y1106D01*
X433Y1106D02*
X438Y1106D01*
X450Y1106D02*
X454Y1106D01*
X468Y1106D02*
X482Y1106D01*
X497Y1106D02*
X513Y1106D01*
X530Y1106D02*
X546Y1106D01*
X566Y1106D02*
X580Y1106D01*
X599Y1106D02*
X611Y1106D01*
X613Y1106D02*
X616Y1106D01*
X631Y1106D02*
X645Y1106D01*
X660Y1106D02*
X666Y1106D01*
X678Y1106D02*
X681Y1106D01*
X698Y1106D02*
X702Y1106D01*
X727Y1106D02*
X747Y1106D01*
X761Y1106D02*
X775Y1106D01*
X790Y1106D02*
X806Y1106D01*
X859Y1106D02*
X871Y1106D01*
X873Y1106D02*
X877Y1106D01*
X888Y1106D02*
X891Y1106D01*
X906Y1106D02*
X909Y1106D01*
X923Y1106D02*
X934Y1106D01*
X938Y1106D02*
X942Y1106D01*
X955Y1106D02*
X974Y1106D01*
X994Y1106D02*
X1004Y1106D01*
X1018Y1106D02*
X1021Y1106D01*
X1024Y1106D02*
X1036Y1106D01*
X1173Y1106D02*
X1180Y1106D01*
X0Y1105D02*
X7Y1105D01*
X149Y1105D02*
X152Y1105D01*
X174Y1105D02*
X187Y1105D01*
X190Y1105D02*
X194Y1105D01*
X214Y1105D02*
X224Y1105D01*
X237Y1105D02*
X241Y1105D01*
X255Y1105D02*
X259Y1105D01*
X270Y1105D02*
X273Y1105D01*
X288Y1105D02*
X291Y1105D01*
X302Y1105D02*
X306Y1105D01*
X340Y1105D02*
X345Y1105D01*
X367Y1105D02*
X371Y1105D01*
X385Y1105D02*
X389Y1105D01*
X416Y1105D02*
X420Y1105D01*
X433Y1105D02*
X454Y1105D01*
X467Y1105D02*
X482Y1105D01*
X497Y1105D02*
X514Y1105D01*
X530Y1105D02*
X546Y1105D01*
X565Y1105D02*
X581Y1105D01*
X598Y1105D02*
X616Y1105D01*
X630Y1105D02*
X646Y1105D01*
X661Y1105D02*
X681Y1105D01*
X698Y1105D02*
X702Y1105D01*
X726Y1105D02*
X747Y1105D01*
X760Y1105D02*
X776Y1105D01*
X790Y1105D02*
X807Y1105D01*
X858Y1105D02*
X877Y1105D01*
X888Y1105D02*
X891Y1105D01*
X906Y1105D02*
X909Y1105D01*
X922Y1105D02*
X935Y1105D01*
X938Y1105D02*
X942Y1105D01*
X955Y1105D02*
X974Y1105D01*
X994Y1105D02*
X1004Y1105D01*
X1018Y1105D02*
X1036Y1105D01*
X1173Y1105D02*
X1180Y1105D01*
X0Y1104D02*
X7Y1104D01*
X149Y1104D02*
X152Y1104D01*
X174Y1104D02*
X188Y1104D01*
X190Y1104D02*
X194Y1104D01*
X214Y1104D02*
X224Y1104D01*
X237Y1104D02*
X241Y1104D01*
X255Y1104D02*
X259Y1104D01*
X270Y1104D02*
X273Y1104D01*
X288Y1104D02*
X291Y1104D01*
X302Y1104D02*
X306Y1104D01*
X341Y1104D02*
X345Y1104D01*
X368Y1104D02*
X372Y1104D01*
X385Y1104D02*
X389Y1104D01*
X416Y1104D02*
X421Y1104D01*
X434Y1104D02*
X454Y1104D01*
X466Y1104D02*
X482Y1104D01*
X498Y1104D02*
X515Y1104D01*
X530Y1104D02*
X547Y1104D01*
X565Y1104D02*
X582Y1104D01*
X597Y1104D02*
X616Y1104D01*
X630Y1104D02*
X647Y1104D01*
X661Y1104D02*
X681Y1104D01*
X698Y1104D02*
X703Y1104D01*
X726Y1104D02*
X747Y1104D01*
X760Y1104D02*
X777Y1104D01*
X790Y1104D02*
X808Y1104D01*
X857Y1104D02*
X877Y1104D01*
X888Y1104D02*
X891Y1104D01*
X906Y1104D02*
X909Y1104D01*
X922Y1104D02*
X936Y1104D01*
X938Y1104D02*
X942Y1104D01*
X955Y1104D02*
X974Y1104D01*
X994Y1104D02*
X1004Y1104D01*
X1018Y1104D02*
X1037Y1104D01*
X1173Y1104D02*
X1180Y1104D01*
X0Y1103D02*
X7Y1103D01*
X149Y1103D02*
X152Y1103D01*
X173Y1103D02*
X194Y1103D01*
X214Y1103D02*
X223Y1103D01*
X237Y1103D02*
X241Y1103D01*
X255Y1103D02*
X259Y1103D01*
X270Y1103D02*
X273Y1103D01*
X288Y1103D02*
X291Y1103D01*
X302Y1103D02*
X306Y1103D01*
X341Y1103D02*
X345Y1103D01*
X368Y1103D02*
X372Y1103D01*
X385Y1103D02*
X389Y1103D01*
X417Y1103D02*
X421Y1103D01*
X434Y1103D02*
X454Y1103D01*
X466Y1103D02*
X481Y1103D01*
X498Y1103D02*
X516Y1103D01*
X531Y1103D02*
X548Y1103D01*
X564Y1103D02*
X582Y1103D01*
X596Y1103D02*
X616Y1103D01*
X629Y1103D02*
X647Y1103D01*
X662Y1103D02*
X681Y1103D01*
X699Y1103D02*
X703Y1103D01*
X726Y1103D02*
X747Y1103D01*
X759Y1103D02*
X778Y1103D01*
X791Y1103D02*
X808Y1103D01*
X857Y1103D02*
X877Y1103D01*
X888Y1103D02*
X891Y1103D01*
X906Y1103D02*
X909Y1103D01*
X921Y1103D02*
X942Y1103D01*
X956Y1103D02*
X973Y1103D01*
X994Y1103D02*
X1003Y1103D01*
X1018Y1103D02*
X1038Y1103D01*
X1173Y1103D02*
X1180Y1103D01*
X0Y1102D02*
X7Y1102D01*
X149Y1102D02*
X152Y1102D01*
X173Y1102D02*
X177Y1102D01*
X183Y1102D02*
X194Y1102D01*
X214Y1102D02*
X217Y1102D01*
X237Y1102D02*
X241Y1102D01*
X255Y1102D02*
X259Y1102D01*
X270Y1102D02*
X273Y1102D01*
X288Y1102D02*
X291Y1102D01*
X302Y1102D02*
X306Y1102D01*
X342Y1102D02*
X346Y1102D01*
X368Y1102D02*
X373Y1102D01*
X385Y1102D02*
X389Y1102D01*
X417Y1102D02*
X421Y1102D01*
X435Y1102D02*
X454Y1102D01*
X466Y1102D02*
X470Y1102D01*
X510Y1102D02*
X516Y1102D01*
X543Y1102D02*
X549Y1102D01*
X563Y1102D02*
X569Y1102D01*
X578Y1102D02*
X583Y1102D01*
X596Y1102D02*
X601Y1102D01*
X608Y1102D02*
X616Y1102D01*
X628Y1102D02*
X634Y1102D01*
X643Y1102D02*
X648Y1102D01*
X663Y1102D02*
X681Y1102D01*
X699Y1102D02*
X704Y1102D01*
X726Y1102D02*
X729Y1102D01*
X731Y1102D02*
X738Y1102D01*
X740Y1102D02*
X747Y1102D01*
X759Y1102D02*
X764Y1102D01*
X773Y1102D02*
X778Y1102D01*
X803Y1102D02*
X809Y1102D01*
X856Y1102D02*
X862Y1102D01*
X868Y1102D02*
X877Y1102D01*
X888Y1102D02*
X891Y1102D01*
X906Y1102D02*
X909Y1102D01*
X921Y1102D02*
X926Y1102D01*
X931Y1102D02*
X942Y1102D01*
X966Y1102D02*
X970Y1102D01*
X994Y1102D02*
X998Y1102D01*
X1018Y1102D02*
X1026Y1102D01*
X1033Y1102D02*
X1038Y1102D01*
X1173Y1102D02*
X1180Y1102D01*
X0Y1101D02*
X7Y1101D01*
X149Y1101D02*
X152Y1101D01*
X173Y1101D02*
X177Y1101D01*
X184Y1101D02*
X194Y1101D01*
X214Y1101D02*
X217Y1101D01*
X237Y1101D02*
X241Y1101D01*
X255Y1101D02*
X259Y1101D01*
X270Y1101D02*
X273Y1101D01*
X288Y1101D02*
X291Y1101D01*
X302Y1101D02*
X306Y1101D01*
X342Y1101D02*
X346Y1101D01*
X369Y1101D02*
X375Y1101D01*
X385Y1101D02*
X389Y1101D01*
X418Y1101D02*
X421Y1101D01*
X436Y1101D02*
X454Y1101D01*
X466Y1101D02*
X469Y1101D01*
X511Y1101D02*
X517Y1101D01*
X544Y1101D02*
X550Y1101D01*
X563Y1101D02*
X568Y1101D01*
X579Y1101D02*
X583Y1101D01*
X596Y1101D02*
X600Y1101D01*
X609Y1101D02*
X616Y1101D01*
X628Y1101D02*
X633Y1101D01*
X644Y1101D02*
X648Y1101D01*
X664Y1101D02*
X681Y1101D01*
X700Y1101D02*
X704Y1101D01*
X725Y1101D02*
X729Y1101D01*
X732Y1101D02*
X738Y1101D01*
X741Y1101D02*
X747Y1101D01*
X758Y1101D02*
X763Y1101D01*
X774Y1101D02*
X778Y1101D01*
X804Y1101D02*
X810Y1101D01*
X856Y1101D02*
X861Y1101D01*
X869Y1101D02*
X877Y1101D01*
X888Y1101D02*
X891Y1101D01*
X906Y1101D02*
X909Y1101D01*
X921Y1101D02*
X925Y1101D01*
X932Y1101D02*
X942Y1101D01*
X966Y1101D02*
X970Y1101D01*
X994Y1101D02*
X998Y1101D01*
X1018Y1101D02*
X1025Y1101D01*
X1034Y1101D02*
X1039Y1101D01*
X1173Y1101D02*
X1180Y1101D01*
X0Y1100D02*
X7Y1100D01*
X149Y1100D02*
X152Y1100D01*
X173Y1100D02*
X176Y1100D01*
X185Y1100D02*
X194Y1100D01*
X214Y1100D02*
X217Y1100D01*
X237Y1100D02*
X241Y1100D01*
X255Y1100D02*
X259Y1100D01*
X270Y1100D02*
X273Y1100D01*
X288Y1100D02*
X291Y1100D01*
X302Y1100D02*
X321Y1100D01*
X342Y1100D02*
X347Y1100D01*
X369Y1100D02*
X389Y1100D01*
X418Y1100D02*
X421Y1100D01*
X438Y1100D02*
X454Y1100D01*
X466Y1100D02*
X469Y1100D01*
X512Y1100D02*
X518Y1100D01*
X545Y1100D02*
X550Y1100D01*
X563Y1100D02*
X567Y1100D01*
X579Y1100D02*
X584Y1100D01*
X595Y1100D02*
X600Y1100D01*
X610Y1100D02*
X616Y1100D01*
X628Y1100D02*
X632Y1100D01*
X644Y1100D02*
X649Y1100D01*
X666Y1100D02*
X681Y1100D01*
X700Y1100D02*
X704Y1100D01*
X725Y1100D02*
X729Y1100D01*
X733Y1100D02*
X738Y1100D01*
X742Y1100D02*
X747Y1100D01*
X758Y1100D02*
X762Y1100D01*
X775Y1100D02*
X779Y1100D01*
X805Y1100D02*
X810Y1100D01*
X855Y1100D02*
X860Y1100D01*
X870Y1100D02*
X877Y1100D01*
X888Y1100D02*
X891Y1100D01*
X906Y1100D02*
X909Y1100D01*
X921Y1100D02*
X924Y1100D01*
X934Y1100D02*
X942Y1100D01*
X966Y1100D02*
X970Y1100D01*
X994Y1100D02*
X998Y1100D01*
X1018Y1100D02*
X1025Y1100D01*
X1035Y1100D02*
X1039Y1100D01*
X1173Y1100D02*
X1180Y1100D01*
X0Y1099D02*
X7Y1099D01*
X149Y1099D02*
X152Y1099D01*
X173Y1099D02*
X176Y1099D01*
X187Y1099D02*
X194Y1099D01*
X214Y1099D02*
X217Y1099D01*
X237Y1099D02*
X241Y1099D01*
X255Y1099D02*
X259Y1099D01*
X270Y1099D02*
X273Y1099D01*
X288Y1099D02*
X291Y1099D01*
X302Y1099D02*
X322Y1099D01*
X343Y1099D02*
X347Y1099D01*
X370Y1099D02*
X389Y1099D01*
X418Y1099D02*
X421Y1099D01*
X441Y1099D02*
X446Y1099D01*
X450Y1099D02*
X454Y1099D01*
X465Y1099D02*
X469Y1099D01*
X513Y1099D02*
X518Y1099D01*
X546Y1099D02*
X551Y1099D01*
X563Y1099D02*
X566Y1099D01*
X580Y1099D02*
X584Y1099D01*
X595Y1099D02*
X599Y1099D01*
X611Y1099D02*
X616Y1099D01*
X628Y1099D02*
X631Y1099D01*
X645Y1099D02*
X649Y1099D01*
X669Y1099D02*
X673Y1099D01*
X678Y1099D02*
X681Y1099D01*
X701Y1099D02*
X705Y1099D01*
X725Y1099D02*
X729Y1099D01*
X734Y1099D02*
X738Y1099D01*
X743Y1099D02*
X747Y1099D01*
X758Y1099D02*
X762Y1099D01*
X775Y1099D02*
X779Y1099D01*
X806Y1099D02*
X811Y1099D01*
X855Y1099D02*
X859Y1099D01*
X871Y1099D02*
X877Y1099D01*
X888Y1099D02*
X891Y1099D01*
X905Y1099D02*
X909Y1099D01*
X921Y1099D02*
X924Y1099D01*
X935Y1099D02*
X942Y1099D01*
X966Y1099D02*
X970Y1099D01*
X994Y1099D02*
X998Y1099D01*
X1018Y1099D02*
X1024Y1099D01*
X1035Y1099D02*
X1039Y1099D01*
X1173Y1099D02*
X1180Y1099D01*
X0Y1098D02*
X7Y1098D01*
X149Y1098D02*
X152Y1098D01*
X173Y1098D02*
X176Y1098D01*
X188Y1098D02*
X194Y1098D01*
X214Y1098D02*
X217Y1098D01*
X237Y1098D02*
X241Y1098D01*
X255Y1098D02*
X259Y1098D01*
X270Y1098D02*
X273Y1098D01*
X288Y1098D02*
X291Y1098D01*
X303Y1098D02*
X323Y1098D01*
X343Y1098D02*
X348Y1098D01*
X370Y1098D02*
X389Y1098D01*
X418Y1098D02*
X421Y1098D01*
X441Y1098D02*
X445Y1098D01*
X450Y1098D02*
X454Y1098D01*
X465Y1098D02*
X469Y1098D01*
X514Y1098D02*
X518Y1098D01*
X546Y1098D02*
X551Y1098D01*
X563Y1098D02*
X566Y1098D01*
X580Y1098D02*
X584Y1098D01*
X595Y1098D02*
X599Y1098D01*
X611Y1098D02*
X616Y1098D01*
X628Y1098D02*
X631Y1098D01*
X645Y1098D02*
X649Y1098D01*
X669Y1098D02*
X673Y1098D01*
X678Y1098D02*
X681Y1098D01*
X701Y1098D02*
X705Y1098D01*
X725Y1098D02*
X729Y1098D01*
X734Y1098D02*
X738Y1098D01*
X743Y1098D02*
X747Y1098D01*
X758Y1098D02*
X761Y1098D01*
X775Y1098D02*
X779Y1098D01*
X807Y1098D02*
X811Y1098D01*
X855Y1098D02*
X859Y1098D01*
X872Y1098D02*
X877Y1098D01*
X888Y1098D02*
X891Y1098D01*
X905Y1098D02*
X909Y1098D01*
X921Y1098D02*
X924Y1098D01*
X936Y1098D02*
X942Y1098D01*
X966Y1098D02*
X970Y1098D01*
X994Y1098D02*
X998Y1098D01*
X1018Y1098D02*
X1023Y1098D01*
X1036Y1098D02*
X1039Y1098D01*
X1173Y1098D02*
X1180Y1098D01*
X0Y1097D02*
X7Y1097D01*
X149Y1097D02*
X152Y1097D01*
X173Y1097D02*
X176Y1097D01*
X189Y1097D02*
X194Y1097D01*
X214Y1097D02*
X217Y1097D01*
X237Y1097D02*
X241Y1097D01*
X255Y1097D02*
X259Y1097D01*
X270Y1097D02*
X273Y1097D01*
X288Y1097D02*
X291Y1097D01*
X303Y1097D02*
X323Y1097D01*
X344Y1097D02*
X348Y1097D01*
X370Y1097D02*
X389Y1097D01*
X418Y1097D02*
X421Y1097D01*
X441Y1097D02*
X445Y1097D01*
X450Y1097D02*
X454Y1097D01*
X465Y1097D02*
X469Y1097D01*
X515Y1097D02*
X519Y1097D01*
X547Y1097D02*
X551Y1097D01*
X562Y1097D02*
X566Y1097D01*
X580Y1097D02*
X584Y1097D01*
X595Y1097D02*
X599Y1097D01*
X612Y1097D02*
X616Y1097D01*
X628Y1097D02*
X631Y1097D01*
X645Y1097D02*
X649Y1097D01*
X668Y1097D02*
X673Y1097D01*
X678Y1097D02*
X681Y1097D01*
X701Y1097D02*
X706Y1097D01*
X725Y1097D02*
X729Y1097D01*
X734Y1097D02*
X738Y1097D01*
X743Y1097D02*
X747Y1097D01*
X758Y1097D02*
X761Y1097D01*
X775Y1097D02*
X779Y1097D01*
X807Y1097D02*
X811Y1097D01*
X855Y1097D02*
X859Y1097D01*
X872Y1097D02*
X877Y1097D01*
X888Y1097D02*
X891Y1097D01*
X905Y1097D02*
X909Y1097D01*
X921Y1097D02*
X924Y1097D01*
X937Y1097D02*
X942Y1097D01*
X966Y1097D02*
X970Y1097D01*
X994Y1097D02*
X998Y1097D01*
X1018Y1097D02*
X1022Y1097D01*
X1036Y1097D02*
X1039Y1097D01*
X1173Y1097D02*
X1180Y1097D01*
X0Y1096D02*
X7Y1096D01*
X149Y1096D02*
X152Y1096D01*
X173Y1096D02*
X176Y1096D01*
X190Y1096D02*
X194Y1096D01*
X214Y1096D02*
X217Y1096D01*
X237Y1096D02*
X241Y1096D01*
X255Y1096D02*
X259Y1096D01*
X270Y1096D02*
X273Y1096D01*
X288Y1096D02*
X291Y1096D01*
X304Y1096D02*
X324Y1096D01*
X344Y1096D02*
X348Y1096D01*
X369Y1096D02*
X389Y1096D01*
X418Y1096D02*
X421Y1096D01*
X440Y1096D02*
X444Y1096D01*
X450Y1096D02*
X454Y1096D01*
X465Y1096D02*
X469Y1096D01*
X515Y1096D02*
X519Y1096D01*
X548Y1096D02*
X551Y1096D01*
X562Y1096D02*
X566Y1096D01*
X580Y1096D02*
X584Y1096D01*
X595Y1096D02*
X599Y1096D01*
X613Y1096D02*
X616Y1096D01*
X628Y1096D02*
X631Y1096D01*
X645Y1096D02*
X649Y1096D01*
X668Y1096D02*
X672Y1096D01*
X678Y1096D02*
X681Y1096D01*
X702Y1096D02*
X706Y1096D01*
X725Y1096D02*
X729Y1096D01*
X734Y1096D02*
X738Y1096D01*
X743Y1096D02*
X747Y1096D01*
X758Y1096D02*
X761Y1096D01*
X775Y1096D02*
X779Y1096D01*
X808Y1096D02*
X811Y1096D01*
X855Y1096D02*
X859Y1096D01*
X873Y1096D02*
X877Y1096D01*
X888Y1096D02*
X891Y1096D01*
X905Y1096D02*
X909Y1096D01*
X921Y1096D02*
X924Y1096D01*
X938Y1096D02*
X942Y1096D01*
X966Y1096D02*
X970Y1096D01*
X994Y1096D02*
X998Y1096D01*
X1018Y1096D02*
X1022Y1096D01*
X1036Y1096D02*
X1039Y1096D01*
X1173Y1096D02*
X1180Y1096D01*
X0Y1095D02*
X7Y1095D01*
X141Y1095D02*
X142Y1095D01*
X149Y1095D02*
X152Y1095D01*
X173Y1095D02*
X176Y1095D01*
X190Y1095D02*
X194Y1095D01*
X214Y1095D02*
X217Y1095D01*
X237Y1095D02*
X241Y1095D01*
X255Y1095D02*
X259Y1095D01*
X270Y1095D02*
X273Y1095D01*
X288Y1095D02*
X291Y1095D01*
X306Y1095D02*
X324Y1095D01*
X345Y1095D02*
X349Y1095D01*
X369Y1095D02*
X389Y1095D01*
X400Y1095D02*
X409Y1095D01*
X418Y1095D02*
X421Y1095D01*
X440Y1095D02*
X444Y1095D01*
X450Y1095D02*
X454Y1095D01*
X465Y1095D02*
X482Y1095D01*
X515Y1095D02*
X519Y1095D01*
X548Y1095D02*
X551Y1095D01*
X562Y1095D02*
X566Y1095D01*
X580Y1095D02*
X584Y1095D01*
X595Y1095D02*
X599Y1095D01*
X613Y1095D02*
X616Y1095D01*
X628Y1095D02*
X631Y1095D01*
X645Y1095D02*
X649Y1095D01*
X667Y1095D02*
X672Y1095D01*
X678Y1095D02*
X681Y1095D01*
X702Y1095D02*
X707Y1095D01*
X725Y1095D02*
X729Y1095D01*
X734Y1095D02*
X738Y1095D01*
X743Y1095D02*
X747Y1095D01*
X758Y1095D02*
X761Y1095D01*
X775Y1095D02*
X779Y1095D01*
X808Y1095D02*
X812Y1095D01*
X855Y1095D02*
X859Y1095D01*
X873Y1095D02*
X877Y1095D01*
X888Y1095D02*
X891Y1095D01*
X905Y1095D02*
X909Y1095D01*
X921Y1095D02*
X924Y1095D01*
X938Y1095D02*
X942Y1095D01*
X966Y1095D02*
X970Y1095D01*
X994Y1095D02*
X998Y1095D01*
X1018Y1095D02*
X1021Y1095D01*
X1036Y1095D02*
X1039Y1095D01*
X1173Y1095D02*
X1180Y1095D01*
X0Y1094D02*
X7Y1094D01*
X140Y1094D02*
X143Y1094D01*
X149Y1094D02*
X152Y1094D01*
X173Y1094D02*
X176Y1094D01*
X190Y1094D02*
X194Y1094D01*
X214Y1094D02*
X217Y1094D01*
X237Y1094D02*
X241Y1094D01*
X255Y1094D02*
X259Y1094D01*
X270Y1094D02*
X273Y1094D01*
X288Y1094D02*
X291Y1094D01*
X320Y1094D02*
X324Y1094D01*
X345Y1094D02*
X349Y1094D01*
X368Y1094D02*
X373Y1094D01*
X385Y1094D02*
X389Y1094D01*
X400Y1094D02*
X410Y1094D01*
X418Y1094D02*
X421Y1094D01*
X439Y1094D02*
X444Y1094D01*
X450Y1094D02*
X454Y1094D01*
X465Y1094D02*
X483Y1094D01*
X515Y1094D02*
X519Y1094D01*
X548Y1094D02*
X551Y1094D01*
X562Y1094D02*
X566Y1094D01*
X580Y1094D02*
X584Y1094D01*
X595Y1094D02*
X599Y1094D01*
X613Y1094D02*
X616Y1094D01*
X628Y1094D02*
X631Y1094D01*
X645Y1094D02*
X649Y1094D01*
X667Y1094D02*
X671Y1094D01*
X678Y1094D02*
X681Y1094D01*
X703Y1094D02*
X707Y1094D01*
X725Y1094D02*
X729Y1094D01*
X734Y1094D02*
X738Y1094D01*
X743Y1094D02*
X747Y1094D01*
X758Y1094D02*
X761Y1094D01*
X775Y1094D02*
X779Y1094D01*
X808Y1094D02*
X812Y1094D01*
X855Y1094D02*
X859Y1094D01*
X873Y1094D02*
X877Y1094D01*
X888Y1094D02*
X891Y1094D01*
X905Y1094D02*
X909Y1094D01*
X921Y1094D02*
X924Y1094D01*
X938Y1094D02*
X942Y1094D01*
X966Y1094D02*
X970Y1094D01*
X994Y1094D02*
X998Y1094D01*
X1018Y1094D02*
X1021Y1094D01*
X1036Y1094D02*
X1039Y1094D01*
X1173Y1094D02*
X1180Y1094D01*
X0Y1093D02*
X7Y1093D01*
X140Y1093D02*
X143Y1093D01*
X149Y1093D02*
X152Y1093D01*
X173Y1093D02*
X176Y1093D01*
X190Y1093D02*
X194Y1093D01*
X214Y1093D02*
X217Y1093D01*
X237Y1093D02*
X241Y1093D01*
X255Y1093D02*
X259Y1093D01*
X270Y1093D02*
X273Y1093D01*
X288Y1093D02*
X291Y1093D01*
X320Y1093D02*
X324Y1093D01*
X345Y1093D02*
X350Y1093D01*
X368Y1093D02*
X372Y1093D01*
X385Y1093D02*
X389Y1093D01*
X400Y1093D02*
X410Y1093D01*
X418Y1093D02*
X421Y1093D01*
X439Y1093D02*
X443Y1093D01*
X450Y1093D02*
X454Y1093D01*
X465Y1093D02*
X484Y1093D01*
X515Y1093D02*
X519Y1093D01*
X548Y1093D02*
X551Y1093D01*
X562Y1093D02*
X584Y1093D01*
X595Y1093D02*
X599Y1093D01*
X613Y1093D02*
X616Y1093D01*
X628Y1093D02*
X649Y1093D01*
X667Y1093D02*
X671Y1093D01*
X678Y1093D02*
X681Y1093D01*
X703Y1093D02*
X708Y1093D01*
X725Y1093D02*
X729Y1093D01*
X734Y1093D02*
X738Y1093D01*
X743Y1093D02*
X747Y1093D01*
X758Y1093D02*
X761Y1093D01*
X775Y1093D02*
X779Y1093D01*
X808Y1093D02*
X812Y1093D01*
X831Y1093D02*
X836Y1093D01*
X855Y1093D02*
X859Y1093D01*
X873Y1093D02*
X877Y1093D01*
X888Y1093D02*
X891Y1093D01*
X905Y1093D02*
X909Y1093D01*
X921Y1093D02*
X924Y1093D01*
X938Y1093D02*
X942Y1093D01*
X966Y1093D02*
X970Y1093D01*
X994Y1093D02*
X998Y1093D01*
X1018Y1093D02*
X1021Y1093D01*
X1036Y1093D02*
X1039Y1093D01*
X1173Y1093D02*
X1180Y1093D01*
X0Y1092D02*
X7Y1092D01*
X140Y1092D02*
X143Y1092D01*
X149Y1092D02*
X152Y1092D01*
X173Y1092D02*
X176Y1092D01*
X190Y1092D02*
X194Y1092D01*
X214Y1092D02*
X217Y1092D01*
X237Y1092D02*
X241Y1092D01*
X255Y1092D02*
X259Y1092D01*
X270Y1092D02*
X273Y1092D01*
X288Y1092D02*
X291Y1092D01*
X320Y1092D02*
X324Y1092D01*
X346Y1092D02*
X350Y1092D01*
X368Y1092D02*
X372Y1092D01*
X385Y1092D02*
X389Y1092D01*
X400Y1092D02*
X410Y1092D01*
X418Y1092D02*
X421Y1092D01*
X438Y1092D02*
X443Y1092D01*
X450Y1092D02*
X454Y1092D01*
X465Y1092D02*
X485Y1092D01*
X515Y1092D02*
X519Y1092D01*
X548Y1092D02*
X551Y1092D01*
X562Y1092D02*
X584Y1092D01*
X595Y1092D02*
X599Y1092D01*
X613Y1092D02*
X616Y1092D01*
X628Y1092D02*
X649Y1092D01*
X666Y1092D02*
X670Y1092D01*
X678Y1092D02*
X681Y1092D01*
X704Y1092D02*
X708Y1092D01*
X725Y1092D02*
X729Y1092D01*
X734Y1092D02*
X738Y1092D01*
X743Y1092D02*
X747Y1092D01*
X758Y1092D02*
X761Y1092D01*
X775Y1092D02*
X779Y1092D01*
X808Y1092D02*
X812Y1092D01*
X830Y1092D02*
X837Y1092D01*
X855Y1092D02*
X859Y1092D01*
X873Y1092D02*
X877Y1092D01*
X888Y1092D02*
X891Y1092D01*
X905Y1092D02*
X909Y1092D01*
X921Y1092D02*
X924Y1092D01*
X938Y1092D02*
X942Y1092D01*
X966Y1092D02*
X970Y1092D01*
X994Y1092D02*
X998Y1092D01*
X1018Y1092D02*
X1021Y1092D01*
X1036Y1092D02*
X1039Y1092D01*
X1173Y1092D02*
X1180Y1092D01*
X0Y1091D02*
X7Y1091D01*
X140Y1091D02*
X143Y1091D01*
X149Y1091D02*
X152Y1091D01*
X173Y1091D02*
X176Y1091D01*
X190Y1091D02*
X194Y1091D01*
X214Y1091D02*
X217Y1091D01*
X237Y1091D02*
X241Y1091D01*
X255Y1091D02*
X259Y1091D01*
X270Y1091D02*
X273Y1091D01*
X288Y1091D02*
X291Y1091D01*
X320Y1091D02*
X324Y1091D01*
X346Y1091D02*
X351Y1091D01*
X368Y1091D02*
X371Y1091D01*
X385Y1091D02*
X389Y1091D01*
X400Y1091D02*
X410Y1091D01*
X418Y1091D02*
X421Y1091D01*
X438Y1091D02*
X442Y1091D01*
X450Y1091D02*
X454Y1091D01*
X465Y1091D02*
X485Y1091D01*
X515Y1091D02*
X519Y1091D01*
X548Y1091D02*
X551Y1091D01*
X562Y1091D02*
X584Y1091D01*
X595Y1091D02*
X599Y1091D01*
X613Y1091D02*
X616Y1091D01*
X628Y1091D02*
X649Y1091D01*
X666Y1091D02*
X670Y1091D01*
X678Y1091D02*
X681Y1091D01*
X704Y1091D02*
X708Y1091D01*
X725Y1091D02*
X729Y1091D01*
X734Y1091D02*
X738Y1091D01*
X743Y1091D02*
X747Y1091D01*
X758Y1091D02*
X761Y1091D01*
X775Y1091D02*
X779Y1091D01*
X808Y1091D02*
X812Y1091D01*
X830Y1091D02*
X837Y1091D01*
X855Y1091D02*
X859Y1091D01*
X873Y1091D02*
X877Y1091D01*
X888Y1091D02*
X891Y1091D01*
X905Y1091D02*
X909Y1091D01*
X921Y1091D02*
X924Y1091D01*
X938Y1091D02*
X942Y1091D01*
X966Y1091D02*
X970Y1091D01*
X994Y1091D02*
X998Y1091D01*
X1018Y1091D02*
X1021Y1091D01*
X1036Y1091D02*
X1039Y1091D01*
X1173Y1091D02*
X1180Y1091D01*
X0Y1090D02*
X7Y1090D01*
X140Y1090D02*
X143Y1090D01*
X149Y1090D02*
X152Y1090D01*
X173Y1090D02*
X176Y1090D01*
X190Y1090D02*
X194Y1090D01*
X214Y1090D02*
X217Y1090D01*
X237Y1090D02*
X241Y1090D01*
X255Y1090D02*
X259Y1090D01*
X270Y1090D02*
X273Y1090D01*
X288Y1090D02*
X291Y1090D01*
X320Y1090D02*
X324Y1090D01*
X347Y1090D02*
X351Y1090D01*
X367Y1090D02*
X371Y1090D01*
X385Y1090D02*
X389Y1090D01*
X400Y1090D02*
X409Y1090D01*
X418Y1090D02*
X421Y1090D01*
X438Y1090D02*
X442Y1090D01*
X450Y1090D02*
X454Y1090D01*
X465Y1090D02*
X486Y1090D01*
X515Y1090D02*
X519Y1090D01*
X548Y1090D02*
X551Y1090D01*
X563Y1090D02*
X584Y1090D01*
X595Y1090D02*
X599Y1090D01*
X613Y1090D02*
X616Y1090D01*
X628Y1090D02*
X649Y1090D01*
X665Y1090D02*
X670Y1090D01*
X678Y1090D02*
X681Y1090D01*
X705Y1090D02*
X709Y1090D01*
X725Y1090D02*
X729Y1090D01*
X734Y1090D02*
X738Y1090D01*
X743Y1090D02*
X747Y1090D01*
X758Y1090D02*
X761Y1090D01*
X775Y1090D02*
X779Y1090D01*
X808Y1090D02*
X812Y1090D01*
X829Y1090D02*
X837Y1090D01*
X855Y1090D02*
X859Y1090D01*
X873Y1090D02*
X877Y1090D01*
X888Y1090D02*
X891Y1090D01*
X905Y1090D02*
X909Y1090D01*
X921Y1090D02*
X924Y1090D01*
X938Y1090D02*
X942Y1090D01*
X966Y1090D02*
X970Y1090D01*
X994Y1090D02*
X998Y1090D01*
X1018Y1090D02*
X1021Y1090D01*
X1036Y1090D02*
X1039Y1090D01*
X1173Y1090D02*
X1180Y1090D01*
X0Y1089D02*
X7Y1089D01*
X140Y1089D02*
X143Y1089D01*
X149Y1089D02*
X152Y1089D01*
X172Y1089D02*
X176Y1089D01*
X190Y1089D02*
X194Y1089D01*
X214Y1089D02*
X217Y1089D01*
X237Y1089D02*
X241Y1089D01*
X255Y1089D02*
X259Y1089D01*
X270Y1089D02*
X273Y1089D01*
X288Y1089D02*
X291Y1089D01*
X320Y1089D02*
X324Y1089D01*
X347Y1089D02*
X351Y1089D01*
X367Y1089D02*
X371Y1089D01*
X385Y1089D02*
X389Y1089D01*
X400Y1089D02*
X403Y1089D01*
X418Y1089D02*
X421Y1089D01*
X437Y1089D02*
X441Y1089D01*
X450Y1089D02*
X454Y1089D01*
X465Y1089D02*
X470Y1089D01*
X482Y1089D02*
X486Y1089D01*
X515Y1089D02*
X519Y1089D01*
X548Y1089D02*
X551Y1089D01*
X563Y1089D02*
X584Y1089D01*
X595Y1089D02*
X599Y1089D01*
X613Y1089D02*
X616Y1089D01*
X628Y1089D02*
X649Y1089D01*
X665Y1089D02*
X669Y1089D01*
X678Y1089D02*
X681Y1089D01*
X705Y1089D02*
X709Y1089D01*
X725Y1089D02*
X729Y1089D01*
X734Y1089D02*
X738Y1089D01*
X743Y1089D02*
X747Y1089D01*
X758Y1089D02*
X761Y1089D01*
X775Y1089D02*
X779Y1089D01*
X808Y1089D02*
X812Y1089D01*
X829Y1089D02*
X837Y1089D01*
X855Y1089D02*
X859Y1089D01*
X873Y1089D02*
X877Y1089D01*
X888Y1089D02*
X891Y1089D01*
X905Y1089D02*
X909Y1089D01*
X921Y1089D02*
X924Y1089D01*
X938Y1089D02*
X942Y1089D01*
X966Y1089D02*
X970Y1089D01*
X994Y1089D02*
X998Y1089D01*
X1018Y1089D02*
X1022Y1089D01*
X1036Y1089D02*
X1039Y1089D01*
X1173Y1089D02*
X1180Y1089D01*
X0Y1088D02*
X7Y1088D01*
X140Y1088D02*
X143Y1088D01*
X149Y1088D02*
X152Y1088D01*
X172Y1088D02*
X176Y1088D01*
X190Y1088D02*
X194Y1088D01*
X214Y1088D02*
X217Y1088D01*
X237Y1088D02*
X241Y1088D01*
X255Y1088D02*
X259Y1088D01*
X270Y1088D02*
X273Y1088D01*
X288Y1088D02*
X291Y1088D01*
X320Y1088D02*
X324Y1088D01*
X348Y1088D02*
X352Y1088D01*
X367Y1088D02*
X371Y1088D01*
X385Y1088D02*
X389Y1088D01*
X400Y1088D02*
X403Y1088D01*
X418Y1088D02*
X421Y1088D01*
X437Y1088D02*
X441Y1088D01*
X450Y1088D02*
X454Y1088D01*
X465Y1088D02*
X469Y1088D01*
X482Y1088D02*
X486Y1088D01*
X515Y1088D02*
X519Y1088D01*
X548Y1088D02*
X551Y1088D01*
X563Y1088D02*
X584Y1088D01*
X595Y1088D02*
X599Y1088D01*
X613Y1088D02*
X616Y1088D01*
X628Y1088D02*
X649Y1088D01*
X664Y1088D02*
X669Y1088D01*
X678Y1088D02*
X681Y1088D01*
X705Y1088D02*
X710Y1088D01*
X725Y1088D02*
X729Y1088D01*
X734Y1088D02*
X738Y1088D01*
X743Y1088D02*
X747Y1088D01*
X758Y1088D02*
X761Y1088D01*
X775Y1088D02*
X779Y1088D01*
X808Y1088D02*
X812Y1088D01*
X829Y1088D02*
X837Y1088D01*
X855Y1088D02*
X859Y1088D01*
X873Y1088D02*
X877Y1088D01*
X888Y1088D02*
X891Y1088D01*
X905Y1088D02*
X909Y1088D01*
X921Y1088D02*
X924Y1088D01*
X938Y1088D02*
X942Y1088D01*
X966Y1088D02*
X970Y1088D01*
X994Y1088D02*
X998Y1088D01*
X1018Y1088D02*
X1022Y1088D01*
X1036Y1088D02*
X1039Y1088D01*
X1173Y1088D02*
X1180Y1088D01*
X0Y1087D02*
X7Y1087D01*
X140Y1087D02*
X143Y1087D01*
X149Y1087D02*
X152Y1087D01*
X172Y1087D02*
X176Y1087D01*
X190Y1087D02*
X194Y1087D01*
X214Y1087D02*
X217Y1087D01*
X237Y1087D02*
X241Y1087D01*
X255Y1087D02*
X259Y1087D01*
X270Y1087D02*
X273Y1087D01*
X288Y1087D02*
X291Y1087D01*
X320Y1087D02*
X324Y1087D01*
X348Y1087D02*
X352Y1087D01*
X367Y1087D02*
X371Y1087D01*
X385Y1087D02*
X389Y1087D01*
X400Y1087D02*
X403Y1087D01*
X418Y1087D02*
X421Y1087D01*
X436Y1087D02*
X441Y1087D01*
X450Y1087D02*
X454Y1087D01*
X465Y1087D02*
X469Y1087D01*
X483Y1087D02*
X486Y1087D01*
X515Y1087D02*
X519Y1087D01*
X548Y1087D02*
X551Y1087D01*
X565Y1087D02*
X584Y1087D01*
X595Y1087D02*
X599Y1087D01*
X613Y1087D02*
X616Y1087D01*
X630Y1087D02*
X649Y1087D01*
X664Y1087D02*
X668Y1087D01*
X678Y1087D02*
X681Y1087D01*
X706Y1087D02*
X710Y1087D01*
X725Y1087D02*
X729Y1087D01*
X734Y1087D02*
X738Y1087D01*
X743Y1087D02*
X747Y1087D01*
X758Y1087D02*
X761Y1087D01*
X775Y1087D02*
X779Y1087D01*
X808Y1087D02*
X812Y1087D01*
X829Y1087D02*
X837Y1087D01*
X855Y1087D02*
X859Y1087D01*
X873Y1087D02*
X877Y1087D01*
X888Y1087D02*
X891Y1087D01*
X905Y1087D02*
X909Y1087D01*
X921Y1087D02*
X924Y1087D01*
X938Y1087D02*
X942Y1087D01*
X966Y1087D02*
X970Y1087D01*
X994Y1087D02*
X998Y1087D01*
X1018Y1087D02*
X1023Y1087D01*
X1036Y1087D02*
X1039Y1087D01*
X1173Y1087D02*
X1180Y1087D01*
X0Y1086D02*
X7Y1086D01*
X140Y1086D02*
X143Y1086D01*
X149Y1086D02*
X152Y1086D01*
X172Y1086D02*
X176Y1086D01*
X190Y1086D02*
X194Y1086D01*
X214Y1086D02*
X217Y1086D01*
X237Y1086D02*
X241Y1086D01*
X255Y1086D02*
X259Y1086D01*
X270Y1086D02*
X273Y1086D01*
X288Y1086D02*
X291Y1086D01*
X320Y1086D02*
X324Y1086D01*
X348Y1086D02*
X353Y1086D01*
X367Y1086D02*
X371Y1086D01*
X385Y1086D02*
X389Y1086D01*
X400Y1086D02*
X403Y1086D01*
X418Y1086D02*
X421Y1086D01*
X436Y1086D02*
X440Y1086D01*
X450Y1086D02*
X454Y1086D01*
X465Y1086D02*
X469Y1086D01*
X483Y1086D02*
X486Y1086D01*
X515Y1086D02*
X519Y1086D01*
X547Y1086D02*
X551Y1086D01*
X580Y1086D02*
X584Y1086D01*
X595Y1086D02*
X599Y1086D01*
X612Y1086D02*
X616Y1086D01*
X645Y1086D02*
X649Y1086D01*
X664Y1086D02*
X668Y1086D01*
X678Y1086D02*
X681Y1086D01*
X706Y1086D02*
X711Y1086D01*
X725Y1086D02*
X729Y1086D01*
X734Y1086D02*
X738Y1086D01*
X743Y1086D02*
X747Y1086D01*
X758Y1086D02*
X761Y1086D01*
X775Y1086D02*
X779Y1086D01*
X808Y1086D02*
X811Y1086D01*
X829Y1086D02*
X837Y1086D01*
X855Y1086D02*
X859Y1086D01*
X873Y1086D02*
X877Y1086D01*
X888Y1086D02*
X892Y1086D01*
X905Y1086D02*
X909Y1086D01*
X921Y1086D02*
X924Y1086D01*
X938Y1086D02*
X942Y1086D01*
X966Y1086D02*
X970Y1086D01*
X994Y1086D02*
X998Y1086D01*
X1018Y1086D02*
X1024Y1086D01*
X1035Y1086D02*
X1039Y1086D01*
X1173Y1086D02*
X1180Y1086D01*
X0Y1085D02*
X7Y1085D01*
X140Y1085D02*
X143Y1085D01*
X149Y1085D02*
X152Y1085D01*
X172Y1085D02*
X176Y1085D01*
X190Y1085D02*
X194Y1085D01*
X214Y1085D02*
X217Y1085D01*
X237Y1085D02*
X241Y1085D01*
X255Y1085D02*
X259Y1085D01*
X270Y1085D02*
X273Y1085D01*
X288Y1085D02*
X291Y1085D01*
X320Y1085D02*
X324Y1085D01*
X349Y1085D02*
X353Y1085D01*
X367Y1085D02*
X371Y1085D01*
X385Y1085D02*
X389Y1085D01*
X400Y1085D02*
X403Y1085D01*
X418Y1085D02*
X421Y1085D01*
X435Y1085D02*
X440Y1085D01*
X450Y1085D02*
X454Y1085D01*
X465Y1085D02*
X469Y1085D01*
X483Y1085D02*
X486Y1085D01*
X514Y1085D02*
X519Y1085D01*
X547Y1085D02*
X551Y1085D01*
X580Y1085D02*
X584Y1085D01*
X595Y1085D02*
X599Y1085D01*
X612Y1085D02*
X616Y1085D01*
X645Y1085D02*
X649Y1085D01*
X663Y1085D02*
X667Y1085D01*
X678Y1085D02*
X681Y1085D01*
X707Y1085D02*
X711Y1085D01*
X725Y1085D02*
X729Y1085D01*
X734Y1085D02*
X738Y1085D01*
X743Y1085D02*
X747Y1085D01*
X758Y1085D02*
X761Y1085D01*
X775Y1085D02*
X779Y1085D01*
X807Y1085D02*
X811Y1085D01*
X829Y1085D02*
X837Y1085D01*
X855Y1085D02*
X859Y1085D01*
X872Y1085D02*
X877Y1085D01*
X888Y1085D02*
X893Y1085D01*
X905Y1085D02*
X909Y1085D01*
X921Y1085D02*
X924Y1085D01*
X938Y1085D02*
X942Y1085D01*
X954Y1085D02*
X955Y1085D01*
X966Y1085D02*
X970Y1085D01*
X994Y1085D02*
X998Y1085D01*
X1018Y1085D02*
X1025Y1085D01*
X1035Y1085D02*
X1039Y1085D01*
X1173Y1085D02*
X1180Y1085D01*
X0Y1084D02*
X7Y1084D01*
X140Y1084D02*
X143Y1084D01*
X149Y1084D02*
X152Y1084D01*
X172Y1084D02*
X176Y1084D01*
X190Y1084D02*
X194Y1084D01*
X214Y1084D02*
X217Y1084D01*
X237Y1084D02*
X241Y1084D01*
X255Y1084D02*
X259Y1084D01*
X270Y1084D02*
X273Y1084D01*
X288Y1084D02*
X291Y1084D01*
X320Y1084D02*
X324Y1084D01*
X349Y1084D02*
X354Y1084D01*
X368Y1084D02*
X371Y1084D01*
X385Y1084D02*
X389Y1084D01*
X400Y1084D02*
X403Y1084D01*
X418Y1084D02*
X421Y1084D01*
X435Y1084D02*
X439Y1084D01*
X450Y1084D02*
X454Y1084D01*
X465Y1084D02*
X469Y1084D01*
X483Y1084D02*
X486Y1084D01*
X513Y1084D02*
X518Y1084D01*
X546Y1084D02*
X551Y1084D01*
X580Y1084D02*
X584Y1084D01*
X595Y1084D02*
X599Y1084D01*
X611Y1084D02*
X616Y1084D01*
X645Y1084D02*
X649Y1084D01*
X663Y1084D02*
X667Y1084D01*
X678Y1084D02*
X681Y1084D01*
X707Y1084D02*
X711Y1084D01*
X725Y1084D02*
X729Y1084D01*
X734Y1084D02*
X738Y1084D01*
X743Y1084D02*
X747Y1084D01*
X758Y1084D02*
X761Y1084D01*
X775Y1084D02*
X779Y1084D01*
X806Y1084D02*
X811Y1084D01*
X830Y1084D02*
X837Y1084D01*
X855Y1084D02*
X859Y1084D01*
X871Y1084D02*
X877Y1084D01*
X888Y1084D02*
X894Y1084D01*
X905Y1084D02*
X909Y1084D01*
X920Y1084D02*
X924Y1084D01*
X938Y1084D02*
X942Y1084D01*
X953Y1084D02*
X956Y1084D01*
X966Y1084D02*
X970Y1084D01*
X994Y1084D02*
X998Y1084D01*
X1018Y1084D02*
X1026Y1084D01*
X1034Y1084D02*
X1039Y1084D01*
X1173Y1084D02*
X1180Y1084D01*
X0Y1083D02*
X7Y1083D01*
X140Y1083D02*
X143Y1083D01*
X149Y1083D02*
X152Y1083D01*
X172Y1083D02*
X176Y1083D01*
X190Y1083D02*
X194Y1083D01*
X214Y1083D02*
X217Y1083D01*
X237Y1083D02*
X241Y1083D01*
X255Y1083D02*
X259Y1083D01*
X270Y1083D02*
X273Y1083D01*
X288Y1083D02*
X291Y1083D01*
X320Y1083D02*
X324Y1083D01*
X350Y1083D02*
X354Y1083D01*
X368Y1083D02*
X372Y1083D01*
X385Y1083D02*
X389Y1083D01*
X400Y1083D02*
X403Y1083D01*
X418Y1083D02*
X421Y1083D01*
X435Y1083D02*
X439Y1083D01*
X450Y1083D02*
X454Y1083D01*
X465Y1083D02*
X470Y1083D01*
X483Y1083D02*
X486Y1083D01*
X512Y1083D02*
X518Y1083D01*
X545Y1083D02*
X550Y1083D01*
X580Y1083D02*
X584Y1083D01*
X595Y1083D02*
X599Y1083D01*
X610Y1083D02*
X616Y1083D01*
X645Y1083D02*
X649Y1083D01*
X662Y1083D02*
X667Y1083D01*
X678Y1083D02*
X681Y1083D01*
X708Y1083D02*
X712Y1083D01*
X725Y1083D02*
X728Y1083D01*
X734Y1083D02*
X738Y1083D01*
X743Y1083D02*
X747Y1083D01*
X758Y1083D02*
X762Y1083D01*
X775Y1083D02*
X779Y1083D01*
X805Y1083D02*
X811Y1083D01*
X830Y1083D02*
X837Y1083D01*
X855Y1083D02*
X860Y1083D01*
X870Y1083D02*
X877Y1083D01*
X888Y1083D02*
X895Y1083D01*
X905Y1083D02*
X909Y1083D01*
X920Y1083D02*
X924Y1083D01*
X938Y1083D02*
X942Y1083D01*
X953Y1083D02*
X956Y1083D01*
X966Y1083D02*
X970Y1083D01*
X994Y1083D02*
X998Y1083D01*
X1018Y1083D02*
X1027Y1083D01*
X1032Y1083D02*
X1038Y1083D01*
X1173Y1083D02*
X1180Y1083D01*
X0Y1082D02*
X7Y1082D01*
X140Y1082D02*
X143Y1082D01*
X149Y1082D02*
X152Y1082D01*
X172Y1082D02*
X176Y1082D01*
X190Y1082D02*
X194Y1082D01*
X214Y1082D02*
X217Y1082D01*
X237Y1082D02*
X241Y1082D01*
X255Y1082D02*
X259Y1082D01*
X270Y1082D02*
X273Y1082D01*
X288Y1082D02*
X291Y1082D01*
X320Y1082D02*
X324Y1082D01*
X350Y1082D02*
X355Y1082D01*
X368Y1082D02*
X372Y1082D01*
X385Y1082D02*
X389Y1082D01*
X400Y1082D02*
X404Y1082D01*
X417Y1082D02*
X421Y1082D01*
X434Y1082D02*
X438Y1082D01*
X450Y1082D02*
X454Y1082D01*
X465Y1082D02*
X471Y1082D01*
X483Y1082D02*
X486Y1082D01*
X512Y1082D02*
X517Y1082D01*
X544Y1082D02*
X550Y1082D01*
X579Y1082D02*
X583Y1082D01*
X595Y1082D02*
X600Y1082D01*
X609Y1082D02*
X616Y1082D01*
X644Y1082D02*
X649Y1082D01*
X662Y1082D02*
X666Y1082D01*
X678Y1082D02*
X681Y1082D01*
X708Y1082D02*
X712Y1082D01*
X725Y1082D02*
X728Y1082D01*
X734Y1082D02*
X738Y1082D01*
X743Y1082D02*
X747Y1082D01*
X758Y1082D02*
X763Y1082D01*
X774Y1082D02*
X779Y1082D01*
X804Y1082D02*
X810Y1082D01*
X831Y1082D02*
X836Y1082D01*
X856Y1082D02*
X860Y1082D01*
X869Y1082D02*
X877Y1082D01*
X888Y1082D02*
X897Y1082D01*
X905Y1082D02*
X909Y1082D01*
X920Y1082D02*
X924Y1082D01*
X938Y1082D02*
X942Y1082D01*
X953Y1082D02*
X957Y1082D01*
X966Y1082D02*
X970Y1082D01*
X994Y1082D02*
X998Y1082D01*
X1018Y1082D02*
X1038Y1082D01*
X1173Y1082D02*
X1180Y1082D01*
X0Y1081D02*
X7Y1081D01*
X140Y1081D02*
X143Y1081D01*
X149Y1081D02*
X152Y1081D01*
X172Y1081D02*
X176Y1081D01*
X190Y1081D02*
X194Y1081D01*
X214Y1081D02*
X217Y1081D01*
X237Y1081D02*
X241Y1081D01*
X255Y1081D02*
X259Y1081D01*
X270Y1081D02*
X273Y1081D01*
X288Y1081D02*
X291Y1081D01*
X320Y1081D02*
X324Y1081D01*
X351Y1081D02*
X355Y1081D01*
X368Y1081D02*
X373Y1081D01*
X385Y1081D02*
X389Y1081D01*
X400Y1081D02*
X404Y1081D01*
X417Y1081D02*
X421Y1081D01*
X434Y1081D02*
X438Y1081D01*
X450Y1081D02*
X454Y1081D01*
X465Y1081D02*
X473Y1081D01*
X482Y1081D02*
X486Y1081D01*
X511Y1081D02*
X517Y1081D01*
X543Y1081D02*
X549Y1081D01*
X578Y1081D02*
X583Y1081D01*
X596Y1081D02*
X601Y1081D01*
X608Y1081D02*
X616Y1081D01*
X643Y1081D02*
X648Y1081D01*
X661Y1081D02*
X666Y1081D01*
X678Y1081D02*
X681Y1081D01*
X708Y1081D02*
X713Y1081D01*
X725Y1081D02*
X728Y1081D01*
X734Y1081D02*
X738Y1081D01*
X743Y1081D02*
X747Y1081D01*
X758Y1081D02*
X764Y1081D01*
X773Y1081D02*
X778Y1081D01*
X803Y1081D02*
X809Y1081D01*
X856Y1081D02*
X861Y1081D01*
X868Y1081D02*
X877Y1081D01*
X888Y1081D02*
X898Y1081D01*
X904Y1081D02*
X908Y1081D01*
X920Y1081D02*
X924Y1081D01*
X938Y1081D02*
X942Y1081D01*
X953Y1081D02*
X957Y1081D01*
X965Y1081D02*
X970Y1081D01*
X994Y1081D02*
X998Y1081D01*
X1018Y1081D02*
X1037Y1081D01*
X1173Y1081D02*
X1180Y1081D01*
X0Y1080D02*
X7Y1080D01*
X140Y1080D02*
X160Y1080D01*
X172Y1080D02*
X176Y1080D01*
X190Y1080D02*
X194Y1080D01*
X208Y1080D02*
X222Y1080D01*
X237Y1080D02*
X259Y1080D01*
X270Y1080D02*
X291Y1080D01*
X304Y1080D02*
X324Y1080D01*
X351Y1080D02*
X355Y1080D01*
X369Y1080D02*
X389Y1080D01*
X400Y1080D02*
X421Y1080D01*
X433Y1080D02*
X438Y1080D01*
X450Y1080D02*
X454Y1080D01*
X465Y1080D02*
X486Y1080D01*
X499Y1080D02*
X516Y1080D01*
X531Y1080D02*
X548Y1080D01*
X564Y1080D02*
X583Y1080D01*
X596Y1080D02*
X616Y1080D01*
X629Y1080D02*
X648Y1080D01*
X661Y1080D02*
X665Y1080D01*
X678Y1080D02*
X681Y1080D01*
X709Y1080D02*
X713Y1080D01*
X725Y1080D02*
X728Y1080D01*
X734Y1080D02*
X738Y1080D01*
X743Y1080D02*
X747Y1080D01*
X759Y1080D02*
X778Y1080D01*
X792Y1080D02*
X809Y1080D01*
X856Y1080D02*
X877Y1080D01*
X888Y1080D02*
X908Y1080D01*
X920Y1080D02*
X924Y1080D01*
X938Y1080D02*
X942Y1080D01*
X953Y1080D02*
X969Y1080D01*
X989Y1080D02*
X1003Y1080D01*
X1018Y1080D02*
X1021Y1080D01*
X1023Y1080D02*
X1036Y1080D01*
X1173Y1080D02*
X1180Y1080D01*
X0Y1079D02*
X7Y1079D01*
X140Y1079D02*
X161Y1079D01*
X172Y1079D02*
X176Y1079D01*
X190Y1079D02*
X194Y1079D01*
X207Y1079D02*
X223Y1079D01*
X237Y1079D02*
X259Y1079D01*
X270Y1079D02*
X291Y1079D01*
X303Y1079D02*
X324Y1079D01*
X352Y1079D02*
X356Y1079D01*
X369Y1079D02*
X389Y1079D01*
X401Y1079D02*
X420Y1079D01*
X433Y1079D02*
X437Y1079D01*
X450Y1079D02*
X454Y1079D01*
X465Y1079D02*
X486Y1079D01*
X498Y1079D02*
X515Y1079D01*
X530Y1079D02*
X547Y1079D01*
X563Y1079D02*
X582Y1079D01*
X597Y1079D02*
X616Y1079D01*
X628Y1079D02*
X647Y1079D01*
X660Y1079D02*
X665Y1079D01*
X678Y1079D02*
X681Y1079D01*
X709Y1079D02*
X714Y1079D01*
X725Y1079D02*
X728Y1079D01*
X734Y1079D02*
X738Y1079D01*
X743Y1079D02*
X747Y1079D01*
X760Y1079D02*
X777Y1079D01*
X791Y1079D02*
X808Y1079D01*
X857Y1079D02*
X877Y1079D01*
X888Y1079D02*
X908Y1079D01*
X920Y1079D02*
X924Y1079D01*
X938Y1079D02*
X942Y1079D01*
X954Y1079D02*
X969Y1079D01*
X988Y1079D02*
X1004Y1079D01*
X1018Y1079D02*
X1021Y1079D01*
X1024Y1079D02*
X1035Y1079D01*
X1173Y1079D02*
X1180Y1079D01*
X0Y1078D02*
X7Y1078D01*
X140Y1078D02*
X161Y1078D01*
X172Y1078D02*
X176Y1078D01*
X190Y1078D02*
X194Y1078D01*
X207Y1078D02*
X224Y1078D01*
X238Y1078D02*
X258Y1078D01*
X270Y1078D02*
X291Y1078D01*
X302Y1078D02*
X324Y1078D01*
X352Y1078D02*
X356Y1078D01*
X370Y1078D02*
X389Y1078D01*
X401Y1078D02*
X420Y1078D01*
X433Y1078D02*
X437Y1078D01*
X450Y1078D02*
X454Y1078D01*
X465Y1078D02*
X485Y1078D01*
X498Y1078D02*
X514Y1078D01*
X530Y1078D02*
X547Y1078D01*
X563Y1078D02*
X581Y1078D01*
X598Y1078D02*
X616Y1078D01*
X628Y1078D02*
X646Y1078D01*
X660Y1078D02*
X664Y1078D01*
X678Y1078D02*
X681Y1078D01*
X710Y1078D02*
X714Y1078D01*
X725Y1078D02*
X728Y1078D01*
X734Y1078D02*
X738Y1078D01*
X743Y1078D02*
X747Y1078D01*
X760Y1078D02*
X777Y1078D01*
X790Y1078D02*
X807Y1078D01*
X858Y1078D02*
X877Y1078D01*
X888Y1078D02*
X891Y1078D01*
X894Y1078D02*
X907Y1078D01*
X920Y1078D02*
X924Y1078D01*
X938Y1078D02*
X942Y1078D01*
X954Y1078D02*
X968Y1078D01*
X988Y1078D02*
X1004Y1078D01*
X1018Y1078D02*
X1021Y1078D01*
X1025Y1078D02*
X1034Y1078D01*
X1173Y1078D02*
X1180Y1078D01*
X0Y1077D02*
X7Y1077D01*
X140Y1077D02*
X161Y1077D01*
X172Y1077D02*
X176Y1077D01*
X190Y1077D02*
X194Y1077D01*
X207Y1077D02*
X224Y1077D01*
X238Y1077D02*
X258Y1077D01*
X271Y1077D02*
X290Y1077D01*
X302Y1077D02*
X324Y1077D01*
X352Y1077D02*
X356Y1077D01*
X371Y1077D02*
X389Y1077D01*
X402Y1077D02*
X419Y1077D01*
X432Y1077D02*
X436Y1077D01*
X450Y1077D02*
X454Y1077D01*
X465Y1077D02*
X484Y1077D01*
X497Y1077D02*
X513Y1077D01*
X530Y1077D02*
X546Y1077D01*
X563Y1077D02*
X581Y1077D01*
X598Y1077D02*
X611Y1077D01*
X613Y1077D02*
X616Y1077D01*
X628Y1077D02*
X646Y1077D01*
X660Y1077D02*
X664Y1077D01*
X678Y1077D02*
X681Y1077D01*
X710Y1077D02*
X714Y1077D01*
X725Y1077D02*
X728Y1077D01*
X734Y1077D02*
X738Y1077D01*
X743Y1077D02*
X747Y1077D01*
X761Y1077D02*
X776Y1077D01*
X790Y1077D02*
X806Y1077D01*
X859Y1077D02*
X871Y1077D01*
X873Y1077D02*
X877Y1077D01*
X888Y1077D02*
X891Y1077D01*
X895Y1077D02*
X907Y1077D01*
X920Y1077D02*
X924Y1077D01*
X938Y1077D02*
X942Y1077D01*
X955Y1077D02*
X968Y1077D01*
X988Y1077D02*
X1004Y1077D01*
X1018Y1077D02*
X1021Y1077D01*
X1027Y1077D02*
X1033Y1077D01*
X1173Y1077D02*
X1180Y1077D01*
X0Y1076D02*
X7Y1076D01*
X140Y1076D02*
X161Y1076D01*
X172Y1076D02*
X175Y1076D01*
X190Y1076D02*
X193Y1076D01*
X207Y1076D02*
X224Y1076D01*
X239Y1076D02*
X257Y1076D01*
X271Y1076D02*
X290Y1076D01*
X302Y1076D02*
X324Y1076D01*
X353Y1076D02*
X356Y1076D01*
X372Y1076D02*
X389Y1076D01*
X403Y1076D02*
X419Y1076D01*
X433Y1076D02*
X436Y1076D01*
X450Y1076D02*
X454Y1076D01*
X465Y1076D02*
X468Y1076D01*
X471Y1076D02*
X484Y1076D01*
X498Y1076D02*
X512Y1076D01*
X530Y1076D02*
X545Y1076D01*
X563Y1076D02*
X580Y1076D01*
X599Y1076D02*
X610Y1076D01*
X613Y1076D02*
X616Y1076D01*
X628Y1076D02*
X645Y1076D01*
X660Y1076D02*
X663Y1076D01*
X678Y1076D02*
X681Y1076D01*
X711Y1076D02*
X714Y1076D01*
X725Y1076D02*
X728Y1076D01*
X734Y1076D02*
X737Y1076D01*
X744Y1076D02*
X747Y1076D01*
X762Y1076D02*
X775Y1076D01*
X790Y1076D02*
X805Y1076D01*
X860Y1076D02*
X870Y1076D01*
X873Y1076D02*
X876Y1076D01*
X888Y1076D02*
X891Y1076D01*
X896Y1076D02*
X906Y1076D01*
X921Y1076D02*
X924Y1076D01*
X938Y1076D02*
X941Y1076D01*
X956Y1076D02*
X967Y1076D01*
X988Y1076D02*
X1004Y1076D01*
X1018Y1076D02*
X1021Y1076D01*
X1173Y1076D02*
X1180Y1076D01*
X0Y1075D02*
X7Y1075D01*
X140Y1075D02*
X160Y1075D01*
X173Y1075D02*
X175Y1075D01*
X191Y1075D02*
X193Y1075D01*
X208Y1075D02*
X223Y1075D01*
X240Y1075D02*
X256Y1075D01*
X272Y1075D02*
X289Y1075D01*
X303Y1075D02*
X324Y1075D01*
X353Y1075D02*
X355Y1075D01*
X373Y1075D02*
X389Y1075D01*
X404Y1075D02*
X417Y1075D01*
X433Y1075D02*
X435Y1075D01*
X451Y1075D02*
X453Y1075D01*
X466Y1075D02*
X468Y1075D01*
X472Y1075D02*
X482Y1075D01*
X498Y1075D02*
X511Y1075D01*
X531Y1075D02*
X544Y1075D01*
X563Y1075D02*
X578Y1075D01*
X601Y1075D02*
X609Y1075D01*
X614Y1075D02*
X616Y1075D01*
X628Y1075D02*
X643Y1075D01*
X661Y1075D02*
X663Y1075D01*
X679Y1075D02*
X681Y1075D01*
X711Y1075D02*
X713Y1075D01*
X726Y1075D02*
X728Y1075D01*
X735Y1075D02*
X737Y1075D01*
X744Y1075D02*
X746Y1075D01*
X763Y1075D02*
X773Y1075D01*
X791Y1075D02*
X804Y1075D01*
X861Y1075D02*
X869Y1075D01*
X874Y1075D02*
X876Y1075D01*
X889Y1075D02*
X891Y1075D01*
X898Y1075D02*
X905Y1075D01*
X921Y1075D02*
X923Y1075D01*
X939Y1075D02*
X941Y1075D01*
X957Y1075D02*
X966Y1075D01*
X988Y1075D02*
X1004Y1075D01*
X1018Y1075D02*
X1021Y1075D01*
X1173Y1075D02*
X1180Y1075D01*
X0Y1074D02*
X7Y1074D01*
X1018Y1074D02*
X1021Y1074D01*
X1173Y1074D02*
X1180Y1074D01*
X0Y1073D02*
X7Y1073D01*
X1018Y1073D02*
X1021Y1073D01*
X1173Y1073D02*
X1180Y1073D01*
X0Y1072D02*
X7Y1072D01*
X1018Y1072D02*
X1021Y1072D01*
X1173Y1072D02*
X1180Y1072D01*
X0Y1071D02*
X7Y1071D01*
X1018Y1071D02*
X1022Y1071D01*
X1173Y1071D02*
X1180Y1071D01*
X0Y1070D02*
X7Y1070D01*
X1018Y1070D02*
X1022Y1070D01*
X1173Y1070D02*
X1180Y1070D01*
X0Y1069D02*
X7Y1069D01*
X1018Y1069D02*
X1023Y1069D01*
X1173Y1069D02*
X1180Y1069D01*
X0Y1068D02*
X7Y1068D01*
X1019Y1068D02*
X1024Y1068D01*
X1173Y1068D02*
X1180Y1068D01*
X0Y1067D02*
X7Y1067D01*
X1019Y1067D02*
X1036Y1067D01*
X1173Y1067D02*
X1180Y1067D01*
X0Y1066D02*
X7Y1066D01*
X1020Y1066D02*
X1037Y1066D01*
X1173Y1066D02*
X1180Y1066D01*
X0Y1065D02*
X7Y1065D01*
X1021Y1065D02*
X1037Y1065D01*
X1173Y1065D02*
X1180Y1065D01*
X0Y1064D02*
X7Y1064D01*
X1021Y1064D02*
X1037Y1064D01*
X1173Y1064D02*
X1180Y1064D01*
X0Y1063D02*
X7Y1063D01*
X1022Y1063D02*
X1037Y1063D01*
X1173Y1063D02*
X1180Y1063D01*
X0Y1062D02*
X7Y1062D01*
X1024Y1062D02*
X1036Y1062D01*
X1173Y1062D02*
X1180Y1062D01*
X0Y1061D02*
X7Y1061D01*
X1173Y1061D02*
X1180Y1061D01*
X0Y1060D02*
X7Y1060D01*
X1173Y1060D02*
X1180Y1060D01*
X0Y1059D02*
X7Y1059D01*
X1173Y1059D02*
X1180Y1059D01*
X0Y1058D02*
X7Y1058D01*
X1173Y1058D02*
X1180Y1058D01*
X0Y1057D02*
X7Y1057D01*
X1173Y1057D02*
X1180Y1057D01*
X0Y1056D02*
X7Y1056D01*
X1173Y1056D02*
X1180Y1056D01*
X0Y1055D02*
X7Y1055D01*
X1173Y1055D02*
X1180Y1055D01*
X0Y1054D02*
X7Y1054D01*
X1173Y1054D02*
X1180Y1054D01*
X0Y1053D02*
X7Y1053D01*
X1173Y1053D02*
X1180Y1053D01*
X0Y1052D02*
X7Y1052D01*
X1173Y1052D02*
X1180Y1052D01*
X0Y1051D02*
X7Y1051D01*
X1173Y1051D02*
X1180Y1051D01*
X0Y1050D02*
X7Y1050D01*
X1173Y1050D02*
X1180Y1050D01*
X0Y1049D02*
X7Y1049D01*
X1173Y1049D02*
X1180Y1049D01*
X0Y1048D02*
X7Y1048D01*
X1173Y1048D02*
X1180Y1048D01*
X0Y1047D02*
X7Y1047D01*
X1173Y1047D02*
X1180Y1047D01*
X0Y1046D02*
X7Y1046D01*
X1173Y1046D02*
X1180Y1046D01*
X0Y1045D02*
X7Y1045D01*
X1173Y1045D02*
X1180Y1045D01*
X0Y1044D02*
X7Y1044D01*
X1173Y1044D02*
X1180Y1044D01*
X0Y1043D02*
X7Y1043D01*
X1173Y1043D02*
X1180Y1043D01*
X0Y1042D02*
X7Y1042D01*
X1173Y1042D02*
X1180Y1042D01*
X0Y1041D02*
X7Y1041D01*
X1173Y1041D02*
X1180Y1041D01*
X0Y1040D02*
X7Y1040D01*
X1173Y1040D02*
X1180Y1040D01*
X0Y1039D02*
X7Y1039D01*
X1173Y1039D02*
X1180Y1039D01*
X0Y1038D02*
X7Y1038D01*
X1173Y1038D02*
X1180Y1038D01*
X0Y1037D02*
X7Y1037D01*
X1173Y1037D02*
X1180Y1037D01*
X0Y1036D02*
X7Y1036D01*
X1173Y1036D02*
X1180Y1036D01*
X0Y1035D02*
X7Y1035D01*
X1173Y1035D02*
X1180Y1035D01*
X0Y1034D02*
X7Y1034D01*
X1173Y1034D02*
X1180Y1034D01*
X0Y1033D02*
X7Y1033D01*
X1173Y1033D02*
X1180Y1033D01*
X0Y1032D02*
X7Y1032D01*
X1173Y1032D02*
X1180Y1032D01*
X0Y1031D02*
X7Y1031D01*
X1173Y1031D02*
X1180Y1031D01*
X0Y1030D02*
X7Y1030D01*
X1173Y1030D02*
X1180Y1030D01*
X0Y1029D02*
X7Y1029D01*
X1173Y1029D02*
X1180Y1029D01*
X0Y1028D02*
X7Y1028D01*
X1173Y1028D02*
X1180Y1028D01*
X0Y1027D02*
X7Y1027D01*
X1173Y1027D02*
X1180Y1027D01*
X0Y1026D02*
X7Y1026D01*
X1173Y1026D02*
X1180Y1026D01*
X0Y1025D02*
X7Y1025D01*
X1173Y1025D02*
X1180Y1025D01*
X0Y1024D02*
X7Y1024D01*
X1173Y1024D02*
X1180Y1024D01*
X0Y1023D02*
X7Y1023D01*
X1173Y1023D02*
X1180Y1023D01*
X0Y1022D02*
X7Y1022D01*
X1173Y1022D02*
X1180Y1022D01*
X0Y1021D02*
X7Y1021D01*
X1173Y1021D02*
X1180Y1021D01*
X0Y1020D02*
X7Y1020D01*
X1173Y1020D02*
X1180Y1020D01*
X0Y1019D02*
X7Y1019D01*
X1173Y1019D02*
X1180Y1019D01*
X0Y1018D02*
X7Y1018D01*
X1173Y1018D02*
X1180Y1018D01*
X0Y1017D02*
X7Y1017D01*
X1173Y1017D02*
X1180Y1017D01*
X0Y1016D02*
X7Y1016D01*
X1173Y1016D02*
X1180Y1016D01*
X0Y1015D02*
X7Y1015D01*
X1173Y1015D02*
X1180Y1015D01*
X0Y1014D02*
X7Y1014D01*
X1173Y1014D02*
X1180Y1014D01*
X0Y1013D02*
X7Y1013D01*
X1173Y1013D02*
X1180Y1013D01*
X0Y1012D02*
X7Y1012D01*
X1173Y1012D02*
X1180Y1012D01*
X0Y1011D02*
X7Y1011D01*
X1173Y1011D02*
X1180Y1011D01*
X0Y1010D02*
X7Y1010D01*
X1173Y1010D02*
X1180Y1010D01*
X0Y1009D02*
X7Y1009D01*
X1173Y1009D02*
X1180Y1009D01*
X0Y1008D02*
X7Y1008D01*
X1173Y1008D02*
X1180Y1008D01*
X0Y1007D02*
X7Y1007D01*
X1173Y1007D02*
X1180Y1007D01*
X0Y1006D02*
X7Y1006D01*
X1173Y1006D02*
X1180Y1006D01*
X0Y1005D02*
X7Y1005D01*
X1173Y1005D02*
X1180Y1005D01*
X0Y1004D02*
X7Y1004D01*
X1173Y1004D02*
X1180Y1004D01*
X0Y1003D02*
X7Y1003D01*
X1173Y1003D02*
X1180Y1003D01*
X0Y1002D02*
X7Y1002D01*
X1173Y1002D02*
X1180Y1002D01*
X0Y1001D02*
X7Y1001D01*
X1173Y1001D02*
X1180Y1001D01*
X0Y1000D02*
X7Y1000D01*
X1173Y1000D02*
X1180Y1000D01*
X0Y999D02*
X7Y999D01*
X1173Y999D02*
X1180Y999D01*
X0Y998D02*
X7Y998D01*
X1173Y998D02*
X1180Y998D01*
X0Y997D02*
X7Y997D01*
X1173Y997D02*
X1180Y997D01*
X0Y996D02*
X7Y996D01*
X1173Y996D02*
X1180Y996D01*
X0Y995D02*
X7Y995D01*
X1173Y995D02*
X1180Y995D01*
X0Y994D02*
X7Y994D01*
X1173Y994D02*
X1180Y994D01*
X0Y993D02*
X7Y993D01*
X1173Y993D02*
X1180Y993D01*
X0Y992D02*
X7Y992D01*
X1173Y992D02*
X1180Y992D01*
X0Y991D02*
X7Y991D01*
X1173Y991D02*
X1180Y991D01*
X0Y990D02*
X7Y990D01*
X1173Y990D02*
X1180Y990D01*
X0Y989D02*
X7Y989D01*
X1173Y989D02*
X1180Y989D01*
X0Y988D02*
X7Y988D01*
X1173Y988D02*
X1180Y988D01*
X0Y987D02*
X7Y987D01*
X1173Y987D02*
X1180Y987D01*
X0Y986D02*
X7Y986D01*
X1173Y986D02*
X1180Y986D01*
X0Y985D02*
X7Y985D01*
X1173Y985D02*
X1180Y985D01*
X0Y984D02*
X7Y984D01*
X1173Y984D02*
X1180Y984D01*
X0Y983D02*
X7Y983D01*
X1173Y983D02*
X1180Y983D01*
X0Y982D02*
X7Y982D01*
X1173Y982D02*
X1180Y982D01*
X0Y981D02*
X7Y981D01*
X1173Y981D02*
X1180Y981D01*
X0Y980D02*
X7Y980D01*
X1173Y980D02*
X1180Y980D01*
X0Y979D02*
X7Y979D01*
X1173Y979D02*
X1180Y979D01*
X0Y978D02*
X7Y978D01*
X1173Y978D02*
X1180Y978D01*
X0Y977D02*
X7Y977D01*
X1173Y977D02*
X1180Y977D01*
X0Y976D02*
X7Y976D01*
X1173Y976D02*
X1180Y976D01*
X0Y975D02*
X7Y975D01*
X1173Y975D02*
X1180Y975D01*
X0Y974D02*
X7Y974D01*
X1173Y974D02*
X1180Y974D01*
X0Y973D02*
X7Y973D01*
X1173Y973D02*
X1180Y973D01*
X0Y972D02*
X7Y972D01*
X1173Y972D02*
X1180Y972D01*
X0Y971D02*
X7Y971D01*
X1173Y971D02*
X1180Y971D01*
X0Y970D02*
X7Y970D01*
X1173Y970D02*
X1180Y970D01*
X0Y969D02*
X7Y969D01*
X1173Y969D02*
X1180Y969D01*
X0Y968D02*
X7Y968D01*
X1173Y968D02*
X1180Y968D01*
X0Y967D02*
X7Y967D01*
X1173Y967D02*
X1180Y967D01*
X0Y966D02*
X7Y966D01*
X1173Y966D02*
X1180Y966D01*
X0Y965D02*
X7Y965D01*
X1173Y965D02*
X1180Y965D01*
X0Y964D02*
X7Y964D01*
X1173Y964D02*
X1180Y964D01*
X0Y963D02*
X7Y963D01*
X1173Y963D02*
X1180Y963D01*
X0Y962D02*
X7Y962D01*
X1173Y962D02*
X1180Y962D01*
X0Y961D02*
X7Y961D01*
X1173Y961D02*
X1180Y961D01*
X0Y960D02*
X7Y960D01*
X1173Y960D02*
X1180Y960D01*
X0Y959D02*
X7Y959D01*
X1173Y959D02*
X1180Y959D01*
X0Y958D02*
X7Y958D01*
X1173Y958D02*
X1180Y958D01*
X0Y957D02*
X7Y957D01*
X1173Y957D02*
X1180Y957D01*
X0Y956D02*
X7Y956D01*
X1173Y956D02*
X1180Y956D01*
X0Y955D02*
X7Y955D01*
X1173Y955D02*
X1180Y955D01*
X0Y954D02*
X7Y954D01*
X1173Y954D02*
X1180Y954D01*
X0Y953D02*
X7Y953D01*
X1173Y953D02*
X1180Y953D01*
X0Y952D02*
X7Y952D01*
X1173Y952D02*
X1180Y952D01*
X0Y951D02*
X7Y951D01*
X1173Y951D02*
X1180Y951D01*
X0Y950D02*
X7Y950D01*
X1173Y950D02*
X1180Y950D01*
X0Y949D02*
X7Y949D01*
X1173Y949D02*
X1180Y949D01*
X0Y948D02*
X7Y948D01*
X1173Y948D02*
X1180Y948D01*
X0Y947D02*
X7Y947D01*
X1173Y947D02*
X1180Y947D01*
X0Y946D02*
X7Y946D01*
X1173Y946D02*
X1180Y946D01*
X0Y945D02*
X7Y945D01*
X1173Y945D02*
X1180Y945D01*
X0Y944D02*
X7Y944D01*
X1173Y944D02*
X1180Y944D01*
X0Y943D02*
X7Y943D01*
X1173Y943D02*
X1180Y943D01*
X0Y942D02*
X7Y942D01*
X1173Y942D02*
X1180Y942D01*
X0Y941D02*
X7Y941D01*
X1173Y941D02*
X1180Y941D01*
X0Y940D02*
X7Y940D01*
X1173Y940D02*
X1180Y940D01*
X0Y939D02*
X7Y939D01*
X1173Y939D02*
X1180Y939D01*
X0Y938D02*
X7Y938D01*
X1173Y938D02*
X1180Y938D01*
X0Y937D02*
X7Y937D01*
X1173Y937D02*
X1180Y937D01*
X0Y936D02*
X7Y936D01*
X1173Y936D02*
X1180Y936D01*
X0Y935D02*
X7Y935D01*
X1173Y935D02*
X1180Y935D01*
X0Y934D02*
X7Y934D01*
X1173Y934D02*
X1180Y934D01*
X0Y933D02*
X7Y933D01*
X1173Y933D02*
X1180Y933D01*
X0Y932D02*
X7Y932D01*
X1173Y932D02*
X1180Y932D01*
X0Y931D02*
X7Y931D01*
X1173Y931D02*
X1180Y931D01*
X0Y930D02*
X7Y930D01*
X1173Y930D02*
X1180Y930D01*
X0Y929D02*
X7Y929D01*
X1173Y929D02*
X1180Y929D01*
X0Y928D02*
X7Y928D01*
X1173Y928D02*
X1180Y928D01*
X0Y927D02*
X7Y927D01*
X1173Y927D02*
X1180Y927D01*
X0Y926D02*
X7Y926D01*
X1173Y926D02*
X1180Y926D01*
X0Y925D02*
X7Y925D01*
X1173Y925D02*
X1180Y925D01*
X0Y924D02*
X7Y924D01*
X1173Y924D02*
X1180Y924D01*
X0Y923D02*
X7Y923D01*
X1173Y923D02*
X1180Y923D01*
X0Y922D02*
X7Y922D01*
X1173Y922D02*
X1180Y922D01*
X0Y921D02*
X7Y921D01*
X1173Y921D02*
X1180Y921D01*
X0Y920D02*
X7Y920D01*
X1173Y920D02*
X1180Y920D01*
X0Y919D02*
X7Y919D01*
X1173Y919D02*
X1180Y919D01*
X0Y918D02*
X7Y918D01*
X1173Y918D02*
X1180Y918D01*
X0Y917D02*
X7Y917D01*
X1173Y917D02*
X1180Y917D01*
X0Y916D02*
X7Y916D01*
X1173Y916D02*
X1180Y916D01*
X0Y915D02*
X7Y915D01*
X1173Y915D02*
X1180Y915D01*
X0Y914D02*
X7Y914D01*
X1173Y914D02*
X1180Y914D01*
X0Y913D02*
X7Y913D01*
X1173Y913D02*
X1180Y913D01*
X0Y912D02*
X7Y912D01*
X1173Y912D02*
X1180Y912D01*
X0Y911D02*
X7Y911D01*
X1173Y911D02*
X1180Y911D01*
X0Y910D02*
X7Y910D01*
X1173Y910D02*
X1180Y910D01*
X0Y909D02*
X7Y909D01*
X1173Y909D02*
X1180Y909D01*
X0Y908D02*
X7Y908D01*
X1173Y908D02*
X1180Y908D01*
X0Y907D02*
X7Y907D01*
X1173Y907D02*
X1180Y907D01*
X0Y906D02*
X7Y906D01*
X1173Y906D02*
X1180Y906D01*
X0Y905D02*
X7Y905D01*
X1173Y905D02*
X1180Y905D01*
X0Y904D02*
X7Y904D01*
X1173Y904D02*
X1180Y904D01*
X0Y903D02*
X7Y903D01*
X1173Y903D02*
X1180Y903D01*
X0Y902D02*
X7Y902D01*
X1173Y902D02*
X1180Y902D01*
X0Y901D02*
X7Y901D01*
X1173Y901D02*
X1180Y901D01*
X0Y900D02*
X7Y900D01*
X1173Y900D02*
X1180Y900D01*
X0Y899D02*
X7Y899D01*
X1173Y899D02*
X1180Y899D01*
X0Y898D02*
X7Y898D01*
X1173Y898D02*
X1180Y898D01*
X0Y897D02*
X7Y897D01*
X1173Y897D02*
X1180Y897D01*
X0Y896D02*
X7Y896D01*
X1173Y896D02*
X1180Y896D01*
X0Y895D02*
X7Y895D01*
X1173Y895D02*
X1180Y895D01*
X0Y894D02*
X7Y894D01*
X1173Y894D02*
X1180Y894D01*
X0Y893D02*
X7Y893D01*
X1173Y893D02*
X1180Y893D01*
X0Y892D02*
X7Y892D01*
X1173Y892D02*
X1180Y892D01*
X0Y891D02*
X7Y891D01*
X1173Y891D02*
X1180Y891D01*
X0Y890D02*
X7Y890D01*
X1173Y890D02*
X1180Y890D01*
X0Y889D02*
X7Y889D01*
X1173Y889D02*
X1180Y889D01*
X0Y888D02*
X7Y888D01*
X1173Y888D02*
X1180Y888D01*
X0Y887D02*
X7Y887D01*
X1173Y887D02*
X1180Y887D01*
X0Y886D02*
X7Y886D01*
X1173Y886D02*
X1180Y886D01*
X0Y885D02*
X7Y885D01*
X1173Y885D02*
X1180Y885D01*
X0Y884D02*
X7Y884D01*
X1173Y884D02*
X1180Y884D01*
X0Y883D02*
X7Y883D01*
X1173Y883D02*
X1180Y883D01*
X0Y882D02*
X7Y882D01*
X1173Y882D02*
X1180Y882D01*
X0Y881D02*
X7Y881D01*
X1173Y881D02*
X1180Y881D01*
X0Y880D02*
X7Y880D01*
X1173Y880D02*
X1180Y880D01*
X0Y879D02*
X7Y879D01*
X1173Y879D02*
X1180Y879D01*
X0Y878D02*
X7Y878D01*
X1173Y878D02*
X1180Y878D01*
X0Y877D02*
X7Y877D01*
X1173Y877D02*
X1180Y877D01*
X0Y876D02*
X7Y876D01*
X1173Y876D02*
X1180Y876D01*
X0Y875D02*
X7Y875D01*
X1173Y875D02*
X1180Y875D01*
X0Y874D02*
X7Y874D01*
X1173Y874D02*
X1180Y874D01*
X0Y873D02*
X7Y873D01*
X1173Y873D02*
X1180Y873D01*
X0Y872D02*
X7Y872D01*
X1173Y872D02*
X1180Y872D01*
X0Y871D02*
X7Y871D01*
X1173Y871D02*
X1180Y871D01*
X0Y870D02*
X7Y870D01*
X1173Y870D02*
X1180Y870D01*
X0Y869D02*
X7Y869D01*
X1173Y869D02*
X1180Y869D01*
X0Y868D02*
X7Y868D01*
X1173Y868D02*
X1180Y868D01*
X0Y867D02*
X7Y867D01*
X1173Y867D02*
X1180Y867D01*
X0Y866D02*
X7Y866D01*
X1173Y866D02*
X1180Y866D01*
X0Y865D02*
X7Y865D01*
X1173Y865D02*
X1180Y865D01*
X0Y864D02*
X7Y864D01*
X1173Y864D02*
X1180Y864D01*
X0Y863D02*
X7Y863D01*
X1173Y863D02*
X1180Y863D01*
X0Y862D02*
X7Y862D01*
X1173Y862D02*
X1180Y862D01*
X0Y861D02*
X7Y861D01*
X1173Y861D02*
X1180Y861D01*
X0Y860D02*
X7Y860D01*
X1173Y860D02*
X1180Y860D01*
X0Y859D02*
X7Y859D01*
X1173Y859D02*
X1180Y859D01*
X0Y858D02*
X7Y858D01*
X1173Y858D02*
X1180Y858D01*
X0Y857D02*
X7Y857D01*
X1173Y857D02*
X1180Y857D01*
X0Y856D02*
X7Y856D01*
X1173Y856D02*
X1180Y856D01*
X0Y855D02*
X7Y855D01*
X1173Y855D02*
X1180Y855D01*
X0Y854D02*
X7Y854D01*
X1173Y854D02*
X1180Y854D01*
X0Y853D02*
X7Y853D01*
X1173Y853D02*
X1180Y853D01*
X0Y852D02*
X7Y852D01*
X1173Y852D02*
X1180Y852D01*
X0Y851D02*
X7Y851D01*
X1173Y851D02*
X1180Y851D01*
X0Y850D02*
X7Y850D01*
X1173Y850D02*
X1180Y850D01*
X0Y849D02*
X7Y849D01*
X1173Y849D02*
X1180Y849D01*
X0Y848D02*
X7Y848D01*
X1173Y848D02*
X1180Y848D01*
X0Y847D02*
X7Y847D01*
X1173Y847D02*
X1180Y847D01*
X0Y846D02*
X7Y846D01*
X1173Y846D02*
X1180Y846D01*
X0Y845D02*
X7Y845D01*
X1173Y845D02*
X1180Y845D01*
X0Y844D02*
X7Y844D01*
X1173Y844D02*
X1180Y844D01*
X0Y843D02*
X7Y843D01*
X1173Y843D02*
X1180Y843D01*
X0Y842D02*
X7Y842D01*
X1173Y842D02*
X1180Y842D01*
X0Y841D02*
X7Y841D01*
X1173Y841D02*
X1180Y841D01*
X0Y840D02*
X7Y840D01*
X1173Y840D02*
X1180Y840D01*
X0Y839D02*
X7Y839D01*
X1173Y839D02*
X1180Y839D01*
X0Y838D02*
X7Y838D01*
X1173Y838D02*
X1180Y838D01*
X0Y837D02*
X7Y837D01*
X1173Y837D02*
X1180Y837D01*
X0Y836D02*
X7Y836D01*
X1173Y836D02*
X1180Y836D01*
X0Y835D02*
X7Y835D01*
X1173Y835D02*
X1180Y835D01*
X0Y834D02*
X7Y834D01*
X1173Y834D02*
X1180Y834D01*
X0Y833D02*
X7Y833D01*
X1173Y833D02*
X1180Y833D01*
X0Y832D02*
X7Y832D01*
X1173Y832D02*
X1180Y832D01*
X0Y831D02*
X7Y831D01*
X1173Y831D02*
X1180Y831D01*
X0Y830D02*
X7Y830D01*
X1173Y830D02*
X1180Y830D01*
X0Y829D02*
X7Y829D01*
X1173Y829D02*
X1180Y829D01*
X0Y828D02*
X7Y828D01*
X1173Y828D02*
X1180Y828D01*
X0Y827D02*
X7Y827D01*
X1173Y827D02*
X1180Y827D01*
X0Y826D02*
X7Y826D01*
X1173Y826D02*
X1180Y826D01*
X0Y825D02*
X7Y825D01*
X1173Y825D02*
X1180Y825D01*
X0Y824D02*
X7Y824D01*
X1173Y824D02*
X1180Y824D01*
X0Y823D02*
X7Y823D01*
X1173Y823D02*
X1180Y823D01*
X0Y822D02*
X7Y822D01*
X1173Y822D02*
X1180Y822D01*
X0Y821D02*
X7Y821D01*
X1173Y821D02*
X1180Y821D01*
X0Y820D02*
X7Y820D01*
X1173Y820D02*
X1180Y820D01*
X0Y819D02*
X7Y819D01*
X1173Y819D02*
X1180Y819D01*
X0Y818D02*
X7Y818D01*
X1173Y818D02*
X1180Y818D01*
X0Y817D02*
X7Y817D01*
X1173Y817D02*
X1180Y817D01*
X0Y816D02*
X7Y816D01*
X1173Y816D02*
X1180Y816D01*
X0Y815D02*
X7Y815D01*
X1173Y815D02*
X1180Y815D01*
X0Y814D02*
X7Y814D01*
X1173Y814D02*
X1180Y814D01*
X0Y813D02*
X7Y813D01*
X1173Y813D02*
X1180Y813D01*
X0Y812D02*
X7Y812D01*
X1173Y812D02*
X1180Y812D01*
X0Y811D02*
X7Y811D01*
X1173Y811D02*
X1180Y811D01*
X0Y810D02*
X7Y810D01*
X1173Y810D02*
X1180Y810D01*
X0Y809D02*
X7Y809D01*
X1173Y809D02*
X1180Y809D01*
X0Y808D02*
X7Y808D01*
X1173Y808D02*
X1180Y808D01*
X0Y807D02*
X7Y807D01*
X1173Y807D02*
X1180Y807D01*
X0Y806D02*
X7Y806D01*
X1173Y806D02*
X1180Y806D01*
X0Y805D02*
X7Y805D01*
X1173Y805D02*
X1180Y805D01*
X0Y804D02*
X7Y804D01*
X1173Y804D02*
X1180Y804D01*
X0Y803D02*
X7Y803D01*
X1173Y803D02*
X1180Y803D01*
X0Y802D02*
X7Y802D01*
X1173Y802D02*
X1180Y802D01*
X0Y801D02*
X7Y801D01*
X1173Y801D02*
X1180Y801D01*
X0Y800D02*
X7Y800D01*
X1173Y800D02*
X1180Y800D01*
X0Y799D02*
X7Y799D01*
X1173Y799D02*
X1180Y799D01*
X0Y798D02*
X7Y798D01*
X1173Y798D02*
X1180Y798D01*
X0Y797D02*
X7Y797D01*
X1173Y797D02*
X1180Y797D01*
X0Y796D02*
X7Y796D01*
X1173Y796D02*
X1180Y796D01*
X0Y795D02*
X7Y795D01*
X1173Y795D02*
X1180Y795D01*
X0Y794D02*
X7Y794D01*
X1173Y794D02*
X1180Y794D01*
X0Y793D02*
X7Y793D01*
X1173Y793D02*
X1180Y793D01*
X0Y792D02*
X7Y792D01*
X1173Y792D02*
X1180Y792D01*
X0Y791D02*
X7Y791D01*
X1173Y791D02*
X1180Y791D01*
X0Y790D02*
X7Y790D01*
X1173Y790D02*
X1180Y790D01*
X0Y789D02*
X7Y789D01*
X1173Y789D02*
X1180Y789D01*
X0Y788D02*
X7Y788D01*
X1173Y788D02*
X1180Y788D01*
X0Y787D02*
X7Y787D01*
X1173Y787D02*
X1180Y787D01*
X0Y786D02*
X7Y786D01*
X1173Y786D02*
X1180Y786D01*
X0Y785D02*
X7Y785D01*
X1173Y785D02*
X1180Y785D01*
X0Y784D02*
X7Y784D01*
X1173Y784D02*
X1180Y784D01*
X0Y783D02*
X7Y783D01*
X1173Y783D02*
X1180Y783D01*
X0Y782D02*
X7Y782D01*
X1173Y782D02*
X1180Y782D01*
X0Y781D02*
X7Y781D01*
X1173Y781D02*
X1180Y781D01*
X0Y780D02*
X7Y780D01*
X1173Y780D02*
X1180Y780D01*
X0Y779D02*
X7Y779D01*
X1173Y779D02*
X1180Y779D01*
X0Y778D02*
X7Y778D01*
X1173Y778D02*
X1180Y778D01*
X0Y777D02*
X7Y777D01*
X1173Y777D02*
X1180Y777D01*
X0Y776D02*
X7Y776D01*
X1173Y776D02*
X1180Y776D01*
X0Y775D02*
X7Y775D01*
X1173Y775D02*
X1180Y775D01*
X0Y774D02*
X7Y774D01*
X1173Y774D02*
X1180Y774D01*
X0Y773D02*
X7Y773D01*
X1173Y773D02*
X1180Y773D01*
X0Y772D02*
X7Y772D01*
X1173Y772D02*
X1180Y772D01*
X0Y771D02*
X7Y771D01*
X1173Y771D02*
X1180Y771D01*
X0Y770D02*
X7Y770D01*
X1173Y770D02*
X1180Y770D01*
X0Y769D02*
X7Y769D01*
X1173Y769D02*
X1180Y769D01*
X0Y768D02*
X7Y768D01*
X1173Y768D02*
X1180Y768D01*
X0Y767D02*
X7Y767D01*
X1173Y767D02*
X1180Y767D01*
X0Y766D02*
X7Y766D01*
X1173Y766D02*
X1180Y766D01*
X0Y765D02*
X7Y765D01*
X1173Y765D02*
X1180Y765D01*
X0Y764D02*
X7Y764D01*
X1173Y764D02*
X1180Y764D01*
X0Y763D02*
X7Y763D01*
X1173Y763D02*
X1180Y763D01*
X0Y762D02*
X7Y762D01*
X1173Y762D02*
X1180Y762D01*
X0Y761D02*
X7Y761D01*
X1173Y761D02*
X1180Y761D01*
X0Y760D02*
X7Y760D01*
X1173Y760D02*
X1180Y760D01*
X0Y759D02*
X7Y759D01*
X1173Y759D02*
X1180Y759D01*
X0Y758D02*
X7Y758D01*
X1173Y758D02*
X1180Y758D01*
X0Y757D02*
X7Y757D01*
X1173Y757D02*
X1180Y757D01*
X0Y756D02*
X7Y756D01*
X1173Y756D02*
X1180Y756D01*
X0Y755D02*
X7Y755D01*
X1173Y755D02*
X1180Y755D01*
X0Y754D02*
X7Y754D01*
X1173Y754D02*
X1180Y754D01*
X0Y753D02*
X7Y753D01*
X1173Y753D02*
X1180Y753D01*
X0Y752D02*
X7Y752D01*
X1173Y752D02*
X1180Y752D01*
X0Y751D02*
X7Y751D01*
X1173Y751D02*
X1180Y751D01*
X0Y750D02*
X7Y750D01*
X1173Y750D02*
X1180Y750D01*
X0Y749D02*
X7Y749D01*
X1173Y749D02*
X1180Y749D01*
X0Y748D02*
X7Y748D01*
X1173Y748D02*
X1180Y748D01*
X0Y747D02*
X7Y747D01*
X1173Y747D02*
X1180Y747D01*
X0Y746D02*
X7Y746D01*
X1173Y746D02*
X1180Y746D01*
X0Y745D02*
X7Y745D01*
X1173Y745D02*
X1180Y745D01*
X0Y744D02*
X7Y744D01*
X1173Y744D02*
X1180Y744D01*
X0Y743D02*
X7Y743D01*
X1173Y743D02*
X1180Y743D01*
X0Y742D02*
X7Y742D01*
X1173Y742D02*
X1180Y742D01*
X0Y741D02*
X7Y741D01*
X1173Y741D02*
X1180Y741D01*
X0Y740D02*
X7Y740D01*
X1173Y740D02*
X1180Y740D01*
X0Y739D02*
X7Y739D01*
X1173Y739D02*
X1180Y739D01*
X0Y738D02*
X7Y738D01*
X1173Y738D02*
X1180Y738D01*
X0Y737D02*
X7Y737D01*
X1173Y737D02*
X1180Y737D01*
X0Y736D02*
X7Y736D01*
X1173Y736D02*
X1180Y736D01*
X0Y735D02*
X7Y735D01*
X1173Y735D02*
X1180Y735D01*
X0Y734D02*
X7Y734D01*
X1173Y734D02*
X1180Y734D01*
X0Y733D02*
X7Y733D01*
X1173Y733D02*
X1180Y733D01*
X0Y732D02*
X7Y732D01*
X1173Y732D02*
X1180Y732D01*
X0Y731D02*
X7Y731D01*
X1173Y731D02*
X1180Y731D01*
X0Y730D02*
X7Y730D01*
X1173Y730D02*
X1180Y730D01*
X0Y729D02*
X7Y729D01*
X1173Y729D02*
X1180Y729D01*
X0Y728D02*
X7Y728D01*
X1173Y728D02*
X1180Y728D01*
X0Y727D02*
X7Y727D01*
X1173Y727D02*
X1180Y727D01*
X0Y726D02*
X7Y726D01*
X1173Y726D02*
X1180Y726D01*
X0Y725D02*
X7Y725D01*
X1173Y725D02*
X1180Y725D01*
X0Y724D02*
X7Y724D01*
X1173Y724D02*
X1180Y724D01*
X0Y723D02*
X7Y723D01*
X1173Y723D02*
X1180Y723D01*
X0Y722D02*
X7Y722D01*
X1173Y722D02*
X1180Y722D01*
X0Y721D02*
X7Y721D01*
X1173Y721D02*
X1180Y721D01*
X0Y720D02*
X7Y720D01*
X1173Y720D02*
X1180Y720D01*
X0Y719D02*
X7Y719D01*
X1173Y719D02*
X1180Y719D01*
X0Y718D02*
X7Y718D01*
X1173Y718D02*
X1180Y718D01*
X0Y717D02*
X7Y717D01*
X1173Y717D02*
X1180Y717D01*
X0Y716D02*
X7Y716D01*
X1173Y716D02*
X1180Y716D01*
X0Y715D02*
X7Y715D01*
X1173Y715D02*
X1180Y715D01*
X0Y714D02*
X7Y714D01*
X1173Y714D02*
X1180Y714D01*
X0Y713D02*
X7Y713D01*
X885Y713D02*
X889Y713D01*
X1173Y713D02*
X1180Y713D01*
X0Y712D02*
X7Y712D01*
X885Y712D02*
X887Y712D01*
X1173Y712D02*
X1180Y712D01*
X0Y711D02*
X7Y711D01*
X882Y711D02*
X887Y711D01*
X1173Y711D02*
X1180Y711D01*
X0Y710D02*
X7Y710D01*
X875Y710D02*
X887Y710D01*
X1173Y710D02*
X1180Y710D01*
X0Y709D02*
X7Y709D01*
X875Y709D02*
X887Y709D01*
X1173Y709D02*
X1180Y709D01*
X0Y708D02*
X7Y708D01*
X872Y708D02*
X884Y708D01*
X1173Y708D02*
X1180Y708D01*
X0Y707D02*
X7Y707D01*
X871Y707D02*
X884Y707D01*
X1173Y707D02*
X1180Y707D01*
X0Y706D02*
X7Y706D01*
X869Y706D02*
X881Y706D01*
X1173Y706D02*
X1180Y706D01*
X0Y705D02*
X7Y705D01*
X865Y705D02*
X879Y705D01*
X1173Y705D02*
X1180Y705D01*
X0Y704D02*
X7Y704D01*
X865Y704D02*
X879Y704D01*
X1173Y704D02*
X1180Y704D01*
X0Y703D02*
X7Y703D01*
X862Y703D02*
X876Y703D01*
X1173Y703D02*
X1180Y703D01*
X0Y702D02*
X7Y702D01*
X862Y702D02*
X871Y702D01*
X1173Y702D02*
X1180Y702D01*
X0Y701D02*
X7Y701D01*
X862Y701D02*
X871Y701D01*
X1173Y701D02*
X1180Y701D01*
X0Y700D02*
X7Y700D01*
X862Y700D02*
X866Y700D01*
X1173Y700D02*
X1180Y700D01*
X0Y699D02*
X7Y699D01*
X862Y699D02*
X866Y699D01*
X1173Y699D02*
X1180Y699D01*
X0Y698D02*
X7Y698D01*
X1173Y698D02*
X1180Y698D01*
X0Y697D02*
X7Y697D01*
X342Y697D02*
X349Y697D01*
X1173Y697D02*
X1180Y697D01*
X0Y696D02*
X7Y696D01*
X342Y696D02*
X349Y696D01*
X1173Y696D02*
X1180Y696D01*
X0Y695D02*
X7Y695D01*
X336Y695D02*
X356Y695D01*
X1173Y695D02*
X1180Y695D01*
X0Y694D02*
X7Y694D01*
X335Y694D02*
X356Y694D01*
X1173Y694D02*
X1180Y694D01*
X0Y693D02*
X7Y693D01*
X334Y693D02*
X356Y693D01*
X1173Y693D02*
X1180Y693D01*
X0Y692D02*
X7Y692D01*
X326Y692D02*
X357Y692D01*
X1173Y692D02*
X1180Y692D01*
X0Y691D02*
X7Y691D01*
X326Y691D02*
X357Y691D01*
X1173Y691D02*
X1180Y691D01*
X0Y690D02*
X7Y690D01*
X324Y690D02*
X356Y690D01*
X1173Y690D02*
X1180Y690D01*
X0Y689D02*
X7Y689D01*
X324Y689D02*
X356Y689D01*
X1173Y689D02*
X1180Y689D01*
X0Y688D02*
X7Y688D01*
X324Y688D02*
X338Y688D01*
X1173Y688D02*
X1180Y688D01*
X0Y687D02*
X7Y687D01*
X324Y687D02*
X333Y687D01*
X1173Y687D02*
X1180Y687D01*
X0Y686D02*
X7Y686D01*
X1173Y686D02*
X1180Y686D01*
X0Y685D02*
X7Y685D01*
X1173Y685D02*
X1180Y685D01*
X0Y684D02*
X7Y684D01*
X1173Y684D02*
X1180Y684D01*
X0Y683D02*
X7Y683D01*
X1173Y683D02*
X1180Y683D01*
X0Y682D02*
X7Y682D01*
X1173Y682D02*
X1180Y682D01*
X0Y681D02*
X7Y681D01*
X1173Y681D02*
X1180Y681D01*
X0Y680D02*
X7Y680D01*
X1173Y680D02*
X1180Y680D01*
X0Y679D02*
X7Y679D01*
X1173Y679D02*
X1180Y679D01*
X0Y678D02*
X7Y678D01*
X1173Y678D02*
X1180Y678D01*
X0Y677D02*
X7Y677D01*
X1173Y677D02*
X1180Y677D01*
X0Y676D02*
X7Y676D01*
X1173Y676D02*
X1180Y676D01*
X0Y675D02*
X7Y675D01*
X1173Y675D02*
X1180Y675D01*
X0Y674D02*
X7Y674D01*
X1173Y674D02*
X1180Y674D01*
X0Y673D02*
X7Y673D01*
X1173Y673D02*
X1180Y673D01*
X0Y672D02*
X7Y672D01*
X1173Y672D02*
X1180Y672D01*
X0Y671D02*
X7Y671D01*
X1173Y671D02*
X1180Y671D01*
X0Y670D02*
X7Y670D01*
X1173Y670D02*
X1180Y670D01*
X0Y669D02*
X7Y669D01*
X1173Y669D02*
X1180Y669D01*
X0Y668D02*
X7Y668D01*
X1173Y668D02*
X1180Y668D01*
X0Y667D02*
X7Y667D01*
X1173Y667D02*
X1180Y667D01*
X0Y666D02*
X7Y666D01*
X1173Y666D02*
X1180Y666D01*
X0Y665D02*
X7Y665D01*
X1173Y665D02*
X1180Y665D01*
X0Y664D02*
X7Y664D01*
X1173Y664D02*
X1180Y664D01*
X0Y663D02*
X7Y663D01*
X1173Y663D02*
X1180Y663D01*
X0Y662D02*
X7Y662D01*
X1173Y662D02*
X1180Y662D01*
X0Y661D02*
X7Y661D01*
X1173Y661D02*
X1180Y661D01*
X0Y660D02*
X7Y660D01*
X1173Y660D02*
X1180Y660D01*
X0Y659D02*
X7Y659D01*
X1173Y659D02*
X1180Y659D01*
X0Y658D02*
X7Y658D01*
X1173Y658D02*
X1180Y658D01*
X0Y657D02*
X7Y657D01*
X1173Y657D02*
X1180Y657D01*
X0Y656D02*
X7Y656D01*
X1173Y656D02*
X1180Y656D01*
X0Y655D02*
X7Y655D01*
X1173Y655D02*
X1180Y655D01*
X0Y654D02*
X7Y654D01*
X859Y654D02*
X869Y654D01*
X1173Y654D02*
X1180Y654D01*
X0Y653D02*
X7Y653D01*
X859Y653D02*
X870Y653D01*
X1173Y653D02*
X1180Y653D01*
X0Y652D02*
X7Y652D01*
X857Y652D02*
X877Y652D01*
X1173Y652D02*
X1180Y652D01*
X0Y651D02*
X7Y651D01*
X857Y651D02*
X887Y651D01*
X1173Y651D02*
X1180Y651D01*
X0Y650D02*
X7Y650D01*
X857Y650D02*
X887Y650D01*
X1173Y650D02*
X1180Y650D01*
X0Y649D02*
X7Y649D01*
X857Y649D02*
X887Y649D01*
X1173Y649D02*
X1180Y649D01*
X0Y648D02*
X7Y648D01*
X857Y648D02*
X887Y648D01*
X1173Y648D02*
X1180Y648D01*
X0Y647D02*
X7Y647D01*
X859Y647D02*
X887Y647D01*
X1173Y647D02*
X1180Y647D01*
X0Y646D02*
X7Y646D01*
X873Y646D02*
X887Y646D01*
X1173Y646D02*
X1180Y646D01*
X0Y645D02*
X7Y645D01*
X874Y645D02*
X887Y645D01*
X1173Y645D02*
X1180Y645D01*
X0Y644D02*
X7Y644D01*
X1173Y644D02*
X1180Y644D01*
X0Y643D02*
X7Y643D01*
X1173Y643D02*
X1180Y643D01*
X0Y642D02*
X7Y642D01*
X1173Y642D02*
X1180Y642D01*
X0Y641D02*
X7Y641D01*
X1173Y641D02*
X1180Y641D01*
X0Y640D02*
X7Y640D01*
X1173Y640D02*
X1180Y640D01*
X0Y639D02*
X7Y639D01*
X1173Y639D02*
X1180Y639D01*
X0Y638D02*
X7Y638D01*
X1173Y638D02*
X1180Y638D01*
X0Y637D02*
X7Y637D01*
X1173Y637D02*
X1180Y637D01*
X0Y636D02*
X7Y636D01*
X1173Y636D02*
X1180Y636D01*
X0Y635D02*
X7Y635D01*
X1173Y635D02*
X1180Y635D01*
X0Y634D02*
X7Y634D01*
X1173Y634D02*
X1180Y634D01*
X0Y633D02*
X7Y633D01*
X1173Y633D02*
X1180Y633D01*
X0Y632D02*
X7Y632D01*
X1173Y632D02*
X1180Y632D01*
X0Y631D02*
X7Y631D01*
X1173Y631D02*
X1180Y631D01*
X0Y630D02*
X7Y630D01*
X1173Y630D02*
X1180Y630D01*
X0Y629D02*
X7Y629D01*
X1173Y629D02*
X1180Y629D01*
X0Y628D02*
X7Y628D01*
X1173Y628D02*
X1180Y628D01*
X0Y627D02*
X7Y627D01*
X1173Y627D02*
X1180Y627D01*
X0Y626D02*
X7Y626D01*
X1173Y626D02*
X1180Y626D01*
X0Y625D02*
X7Y625D01*
X1173Y625D02*
X1180Y625D01*
X0Y624D02*
X7Y624D01*
X1173Y624D02*
X1180Y624D01*
X0Y623D02*
X7Y623D01*
X1173Y623D02*
X1180Y623D01*
X0Y622D02*
X7Y622D01*
X1173Y622D02*
X1180Y622D01*
X0Y621D02*
X7Y621D01*
X1173Y621D02*
X1180Y621D01*
X0Y620D02*
X7Y620D01*
X1173Y620D02*
X1180Y620D01*
X0Y619D02*
X7Y619D01*
X1173Y619D02*
X1180Y619D01*
X0Y618D02*
X7Y618D01*
X1173Y618D02*
X1180Y618D01*
X0Y617D02*
X7Y617D01*
X1173Y617D02*
X1180Y617D01*
X0Y616D02*
X7Y616D01*
X1173Y616D02*
X1180Y616D01*
X0Y615D02*
X7Y615D01*
X1173Y615D02*
X1180Y615D01*
X0Y614D02*
X7Y614D01*
X1173Y614D02*
X1180Y614D01*
X0Y613D02*
X7Y613D01*
X1173Y613D02*
X1180Y613D01*
X0Y612D02*
X7Y612D01*
X1173Y612D02*
X1180Y612D01*
X0Y611D02*
X7Y611D01*
X358Y611D02*
X359Y611D01*
X1173Y611D02*
X1180Y611D01*
X0Y610D02*
X7Y610D01*
X356Y610D02*
X362Y610D01*
X1173Y610D02*
X1180Y610D01*
X0Y609D02*
X7Y609D01*
X355Y609D02*
X362Y609D01*
X1173Y609D02*
X1180Y609D01*
X0Y608D02*
X7Y608D01*
X354Y608D02*
X362Y608D01*
X1173Y608D02*
X1180Y608D01*
X0Y607D02*
X7Y607D01*
X353Y607D02*
X362Y607D01*
X1173Y607D02*
X1180Y607D01*
X0Y606D02*
X7Y606D01*
X352Y606D02*
X362Y606D01*
X1173Y606D02*
X1180Y606D01*
X0Y605D02*
X7Y605D01*
X350Y605D02*
X359Y605D01*
X1173Y605D02*
X1180Y605D01*
X0Y604D02*
X7Y604D01*
X350Y604D02*
X359Y604D01*
X1173Y604D02*
X1180Y604D01*
X0Y603D02*
X7Y603D01*
X350Y603D02*
X358Y603D01*
X1173Y603D02*
X1180Y603D01*
X0Y602D02*
X7Y602D01*
X350Y602D02*
X357Y602D01*
X1173Y602D02*
X1180Y602D01*
X0Y601D02*
X7Y601D01*
X350Y601D02*
X356Y601D01*
X1173Y601D02*
X1180Y601D01*
X0Y600D02*
X7Y600D01*
X350Y600D02*
X356Y600D01*
X1173Y600D02*
X1180Y600D01*
X0Y599D02*
X7Y599D01*
X350Y599D02*
X356Y599D01*
X1173Y599D02*
X1180Y599D01*
X0Y598D02*
X7Y598D01*
X349Y598D02*
X356Y598D01*
X1173Y598D02*
X1180Y598D01*
X0Y597D02*
X7Y597D01*
X349Y597D02*
X355Y597D01*
X1173Y597D02*
X1180Y597D01*
X0Y596D02*
X7Y596D01*
X349Y596D02*
X354Y596D01*
X1173Y596D02*
X1180Y596D01*
X0Y595D02*
X7Y595D01*
X349Y595D02*
X354Y595D01*
X1173Y595D02*
X1180Y595D01*
X0Y594D02*
X7Y594D01*
X349Y594D02*
X354Y594D01*
X1173Y594D02*
X1180Y594D01*
X0Y593D02*
X7Y593D01*
X349Y593D02*
X354Y593D01*
X1173Y593D02*
X1180Y593D01*
X0Y592D02*
X7Y592D01*
X349Y592D02*
X354Y592D01*
X1173Y592D02*
X1180Y592D01*
X0Y591D02*
X7Y591D01*
X349Y591D02*
X354Y591D01*
X1173Y591D02*
X1180Y591D01*
X0Y590D02*
X7Y590D01*
X350Y590D02*
X354Y590D01*
X1173Y590D02*
X1180Y590D01*
X0Y589D02*
X7Y589D01*
X350Y589D02*
X354Y589D01*
X1173Y589D02*
X1180Y589D01*
X0Y588D02*
X7Y588D01*
X350Y588D02*
X353Y588D01*
X1173Y588D02*
X1180Y588D01*
X0Y587D02*
X7Y587D01*
X1173Y587D02*
X1180Y587D01*
X0Y586D02*
X7Y586D01*
X1173Y586D02*
X1180Y586D01*
X0Y585D02*
X7Y585D01*
X1173Y585D02*
X1180Y585D01*
X0Y584D02*
X7Y584D01*
X1173Y584D02*
X1180Y584D01*
X0Y583D02*
X7Y583D01*
X1173Y583D02*
X1180Y583D01*
X0Y582D02*
X7Y582D01*
X1173Y582D02*
X1180Y582D01*
X0Y581D02*
X7Y581D01*
X1173Y581D02*
X1180Y581D01*
X0Y580D02*
X7Y580D01*
X1173Y580D02*
X1180Y580D01*
X0Y579D02*
X7Y579D01*
X1173Y579D02*
X1180Y579D01*
X0Y578D02*
X7Y578D01*
X1173Y578D02*
X1180Y578D01*
X0Y577D02*
X7Y577D01*
X1173Y577D02*
X1180Y577D01*
X0Y576D02*
X7Y576D01*
X1173Y576D02*
X1180Y576D01*
X0Y575D02*
X7Y575D01*
X1173Y575D02*
X1180Y575D01*
X0Y574D02*
X7Y574D01*
X1173Y574D02*
X1180Y574D01*
X0Y573D02*
X7Y573D01*
X1173Y573D02*
X1180Y573D01*
X0Y572D02*
X7Y572D01*
X1173Y572D02*
X1180Y572D01*
X0Y571D02*
X7Y571D01*
X1173Y571D02*
X1180Y571D01*
X0Y570D02*
X7Y570D01*
X1173Y570D02*
X1180Y570D01*
X0Y569D02*
X7Y569D01*
X1173Y569D02*
X1180Y569D01*
X0Y568D02*
X7Y568D01*
X1173Y568D02*
X1180Y568D01*
X0Y567D02*
X7Y567D01*
X1173Y567D02*
X1180Y567D01*
X0Y566D02*
X7Y566D01*
X1173Y566D02*
X1180Y566D01*
X0Y565D02*
X7Y565D01*
X1173Y565D02*
X1180Y565D01*
X0Y564D02*
X7Y564D01*
X1173Y564D02*
X1180Y564D01*
X0Y563D02*
X7Y563D01*
X1173Y563D02*
X1180Y563D01*
X0Y562D02*
X7Y562D01*
X1173Y562D02*
X1180Y562D01*
X0Y561D02*
X7Y561D01*
X1173Y561D02*
X1180Y561D01*
X0Y560D02*
X7Y560D01*
X1173Y560D02*
X1180Y560D01*
X0Y559D02*
X7Y559D01*
X1173Y559D02*
X1180Y559D01*
X0Y558D02*
X7Y558D01*
X1173Y558D02*
X1180Y558D01*
X0Y557D02*
X7Y557D01*
X1173Y557D02*
X1180Y557D01*
X0Y556D02*
X7Y556D01*
X1173Y556D02*
X1180Y556D01*
X0Y555D02*
X7Y555D01*
X1173Y555D02*
X1180Y555D01*
X0Y554D02*
X7Y554D01*
X1173Y554D02*
X1180Y554D01*
X0Y553D02*
X7Y553D01*
X1173Y553D02*
X1180Y553D01*
X0Y552D02*
X7Y552D01*
X1173Y552D02*
X1180Y552D01*
X0Y551D02*
X7Y551D01*
X1173Y551D02*
X1180Y551D01*
X0Y550D02*
X7Y550D01*
X1173Y550D02*
X1180Y550D01*
X0Y549D02*
X7Y549D01*
X1173Y549D02*
X1180Y549D01*
X0Y548D02*
X7Y548D01*
X1173Y548D02*
X1180Y548D01*
X0Y547D02*
X7Y547D01*
X1173Y547D02*
X1180Y547D01*
X0Y546D02*
X7Y546D01*
X1173Y546D02*
X1180Y546D01*
X0Y545D02*
X7Y545D01*
X1173Y545D02*
X1180Y545D01*
X0Y544D02*
X7Y544D01*
X1173Y544D02*
X1180Y544D01*
X0Y543D02*
X7Y543D01*
X1173Y543D02*
X1180Y543D01*
X0Y542D02*
X7Y542D01*
X1173Y542D02*
X1180Y542D01*
X0Y541D02*
X7Y541D01*
X1173Y541D02*
X1180Y541D01*
X0Y540D02*
X7Y540D01*
X1173Y540D02*
X1180Y540D01*
X0Y539D02*
X7Y539D01*
X1173Y539D02*
X1180Y539D01*
X0Y538D02*
X7Y538D01*
X1173Y538D02*
X1180Y538D01*
X0Y537D02*
X7Y537D01*
X1173Y537D02*
X1180Y537D01*
X0Y536D02*
X7Y536D01*
X1173Y536D02*
X1180Y536D01*
X0Y535D02*
X7Y535D01*
X1173Y535D02*
X1180Y535D01*
X0Y534D02*
X7Y534D01*
X1173Y534D02*
X1180Y534D01*
X0Y533D02*
X7Y533D01*
X1173Y533D02*
X1180Y533D01*
X0Y532D02*
X7Y532D01*
X1173Y532D02*
X1180Y532D01*
X0Y531D02*
X7Y531D01*
X1173Y531D02*
X1180Y531D01*
X0Y530D02*
X7Y530D01*
X1173Y530D02*
X1180Y530D01*
X0Y529D02*
X7Y529D01*
X1173Y529D02*
X1180Y529D01*
X0Y528D02*
X7Y528D01*
X1173Y528D02*
X1180Y528D01*
X0Y527D02*
X7Y527D01*
X1173Y527D02*
X1180Y527D01*
X0Y526D02*
X7Y526D01*
X1173Y526D02*
X1180Y526D01*
X0Y525D02*
X7Y525D01*
X1173Y525D02*
X1180Y525D01*
X0Y524D02*
X7Y524D01*
X1173Y524D02*
X1180Y524D01*
X0Y523D02*
X7Y523D01*
X1173Y523D02*
X1180Y523D01*
X0Y522D02*
X7Y522D01*
X1173Y522D02*
X1180Y522D01*
X0Y521D02*
X7Y521D01*
X1173Y521D02*
X1180Y521D01*
X0Y520D02*
X7Y520D01*
X1173Y520D02*
X1180Y520D01*
X0Y519D02*
X7Y519D01*
X1173Y519D02*
X1180Y519D01*
X0Y518D02*
X7Y518D01*
X1173Y518D02*
X1180Y518D01*
X0Y517D02*
X7Y517D01*
X1173Y517D02*
X1180Y517D01*
X0Y516D02*
X7Y516D01*
X1173Y516D02*
X1180Y516D01*
X0Y515D02*
X7Y515D01*
X1173Y515D02*
X1180Y515D01*
X0Y514D02*
X7Y514D01*
X1173Y514D02*
X1180Y514D01*
X0Y513D02*
X7Y513D01*
X1173Y513D02*
X1180Y513D01*
X0Y512D02*
X7Y512D01*
X1173Y512D02*
X1180Y512D01*
X0Y511D02*
X7Y511D01*
X1173Y511D02*
X1180Y511D01*
X0Y510D02*
X7Y510D01*
X1173Y510D02*
X1180Y510D01*
X0Y509D02*
X7Y509D01*
X1173Y509D02*
X1180Y509D01*
X0Y508D02*
X7Y508D01*
X1173Y508D02*
X1180Y508D01*
X0Y507D02*
X7Y507D01*
X1173Y507D02*
X1180Y507D01*
X0Y506D02*
X7Y506D01*
X1173Y506D02*
X1180Y506D01*
X0Y505D02*
X7Y505D01*
X1173Y505D02*
X1180Y505D01*
X0Y504D02*
X7Y504D01*
X1173Y504D02*
X1180Y504D01*
X0Y503D02*
X7Y503D01*
X1173Y503D02*
X1180Y503D01*
X0Y502D02*
X7Y502D01*
X1173Y502D02*
X1180Y502D01*
X0Y501D02*
X7Y501D01*
X1173Y501D02*
X1180Y501D01*
X0Y500D02*
X7Y500D01*
X1173Y500D02*
X1180Y500D01*
X0Y499D02*
X7Y499D01*
X1173Y499D02*
X1180Y499D01*
X0Y498D02*
X7Y498D01*
X1173Y498D02*
X1180Y498D01*
X0Y497D02*
X7Y497D01*
X1173Y497D02*
X1180Y497D01*
X0Y496D02*
X7Y496D01*
X1173Y496D02*
X1180Y496D01*
X0Y495D02*
X7Y495D01*
X1173Y495D02*
X1180Y495D01*
X0Y494D02*
X7Y494D01*
X1173Y494D02*
X1180Y494D01*
X0Y493D02*
X7Y493D01*
X1173Y493D02*
X1180Y493D01*
X0Y492D02*
X7Y492D01*
X1173Y492D02*
X1180Y492D01*
X0Y491D02*
X7Y491D01*
X1173Y491D02*
X1180Y491D01*
X0Y490D02*
X7Y490D01*
X1173Y490D02*
X1180Y490D01*
X0Y489D02*
X7Y489D01*
X1173Y489D02*
X1180Y489D01*
X0Y488D02*
X7Y488D01*
X1173Y488D02*
X1180Y488D01*
X0Y487D02*
X7Y487D01*
X1173Y487D02*
X1180Y487D01*
X0Y486D02*
X7Y486D01*
X1173Y486D02*
X1180Y486D01*
X0Y485D02*
X7Y485D01*
X1173Y485D02*
X1180Y485D01*
X0Y484D02*
X7Y484D01*
X1173Y484D02*
X1180Y484D01*
X0Y483D02*
X7Y483D01*
X1173Y483D02*
X1180Y483D01*
X0Y482D02*
X7Y482D01*
X1173Y482D02*
X1180Y482D01*
X0Y481D02*
X7Y481D01*
X1173Y481D02*
X1180Y481D01*
X0Y480D02*
X7Y480D01*
X1173Y480D02*
X1180Y480D01*
X0Y479D02*
X7Y479D01*
X1173Y479D02*
X1180Y479D01*
X0Y478D02*
X7Y478D01*
X1173Y478D02*
X1180Y478D01*
X0Y477D02*
X7Y477D01*
X1173Y477D02*
X1180Y477D01*
X0Y476D02*
X7Y476D01*
X1173Y476D02*
X1180Y476D01*
X0Y475D02*
X7Y475D01*
X1173Y475D02*
X1180Y475D01*
X0Y474D02*
X7Y474D01*
X1173Y474D02*
X1180Y474D01*
X0Y473D02*
X7Y473D01*
X1173Y473D02*
X1180Y473D01*
X0Y472D02*
X7Y472D01*
X1173Y472D02*
X1180Y472D01*
X0Y471D02*
X7Y471D01*
X1173Y471D02*
X1180Y471D01*
X0Y470D02*
X7Y470D01*
X1173Y470D02*
X1180Y470D01*
X0Y469D02*
X7Y469D01*
X1173Y469D02*
X1180Y469D01*
X0Y468D02*
X7Y468D01*
X1173Y468D02*
X1180Y468D01*
X0Y467D02*
X7Y467D01*
X1173Y467D02*
X1180Y467D01*
X0Y466D02*
X7Y466D01*
X1173Y466D02*
X1180Y466D01*
X0Y465D02*
X7Y465D01*
X1173Y465D02*
X1180Y465D01*
X0Y464D02*
X7Y464D01*
X1173Y464D02*
X1180Y464D01*
X0Y463D02*
X7Y463D01*
X1173Y463D02*
X1180Y463D01*
X0Y462D02*
X7Y462D01*
X1173Y462D02*
X1180Y462D01*
X0Y461D02*
X7Y461D01*
X1173Y461D02*
X1180Y461D01*
X0Y460D02*
X7Y460D01*
X1173Y460D02*
X1180Y460D01*
X0Y459D02*
X7Y459D01*
X1173Y459D02*
X1180Y459D01*
X0Y458D02*
X7Y458D01*
X1173Y458D02*
X1180Y458D01*
X0Y457D02*
X7Y457D01*
X1173Y457D02*
X1180Y457D01*
X0Y456D02*
X7Y456D01*
X1173Y456D02*
X1180Y456D01*
X0Y455D02*
X7Y455D01*
X1173Y455D02*
X1180Y455D01*
X0Y454D02*
X7Y454D01*
X1173Y454D02*
X1180Y454D01*
X0Y453D02*
X7Y453D01*
X1173Y453D02*
X1180Y453D01*
X0Y452D02*
X7Y452D01*
X1173Y452D02*
X1180Y452D01*
X0Y451D02*
X7Y451D01*
X1173Y451D02*
X1180Y451D01*
X0Y450D02*
X7Y450D01*
X1173Y450D02*
X1180Y450D01*
X0Y449D02*
X7Y449D01*
X1173Y449D02*
X1180Y449D01*
X0Y448D02*
X7Y448D01*
X1173Y448D02*
X1180Y448D01*
X0Y447D02*
X7Y447D01*
X1173Y447D02*
X1180Y447D01*
X0Y446D02*
X7Y446D01*
X1173Y446D02*
X1180Y446D01*
X0Y445D02*
X7Y445D01*
X1173Y445D02*
X1180Y445D01*
X0Y444D02*
X7Y444D01*
X1173Y444D02*
X1180Y444D01*
X0Y443D02*
X7Y443D01*
X1173Y443D02*
X1180Y443D01*
X0Y442D02*
X7Y442D01*
X1173Y442D02*
X1180Y442D01*
X0Y441D02*
X7Y441D01*
X1173Y441D02*
X1180Y441D01*
X0Y440D02*
X7Y440D01*
X1173Y440D02*
X1180Y440D01*
X0Y439D02*
X7Y439D01*
X1173Y439D02*
X1180Y439D01*
X0Y438D02*
X7Y438D01*
X1173Y438D02*
X1180Y438D01*
X0Y437D02*
X7Y437D01*
X1173Y437D02*
X1180Y437D01*
X0Y436D02*
X7Y436D01*
X1173Y436D02*
X1180Y436D01*
X0Y435D02*
X7Y435D01*
X1173Y435D02*
X1180Y435D01*
X0Y434D02*
X7Y434D01*
X1173Y434D02*
X1180Y434D01*
X0Y433D02*
X7Y433D01*
X1173Y433D02*
X1180Y433D01*
X0Y432D02*
X7Y432D01*
X1173Y432D02*
X1180Y432D01*
X0Y431D02*
X7Y431D01*
X1173Y431D02*
X1180Y431D01*
X0Y430D02*
X7Y430D01*
X1173Y430D02*
X1180Y430D01*
X0Y429D02*
X7Y429D01*
X1173Y429D02*
X1180Y429D01*
X0Y428D02*
X7Y428D01*
X1173Y428D02*
X1180Y428D01*
X0Y427D02*
X7Y427D01*
X1173Y427D02*
X1180Y427D01*
X0Y426D02*
X7Y426D01*
X1173Y426D02*
X1180Y426D01*
X0Y425D02*
X7Y425D01*
X1173Y425D02*
X1180Y425D01*
X0Y424D02*
X7Y424D01*
X1173Y424D02*
X1180Y424D01*
X0Y423D02*
X7Y423D01*
X1173Y423D02*
X1180Y423D01*
X0Y422D02*
X7Y422D01*
X1173Y422D02*
X1180Y422D01*
X0Y421D02*
X7Y421D01*
X1173Y421D02*
X1180Y421D01*
X0Y420D02*
X7Y420D01*
X1173Y420D02*
X1180Y420D01*
X0Y419D02*
X7Y419D01*
X1173Y419D02*
X1180Y419D01*
X0Y418D02*
X7Y418D01*
X1173Y418D02*
X1180Y418D01*
X0Y417D02*
X7Y417D01*
X1173Y417D02*
X1180Y417D01*
X0Y416D02*
X7Y416D01*
X1173Y416D02*
X1180Y416D01*
X0Y415D02*
X7Y415D01*
X1173Y415D02*
X1180Y415D01*
X0Y414D02*
X7Y414D01*
X1173Y414D02*
X1180Y414D01*
X0Y413D02*
X7Y413D01*
X1173Y413D02*
X1180Y413D01*
X0Y412D02*
X7Y412D01*
X1173Y412D02*
X1180Y412D01*
X0Y411D02*
X7Y411D01*
X1173Y411D02*
X1180Y411D01*
X0Y410D02*
X7Y410D01*
X1173Y410D02*
X1180Y410D01*
X0Y409D02*
X7Y409D01*
X591Y409D02*
X594Y409D01*
X810Y409D02*
X813Y409D01*
X1173Y409D02*
X1180Y409D01*
X0Y408D02*
X7Y408D01*
X589Y408D02*
X596Y408D01*
X808Y408D02*
X815Y408D01*
X1173Y408D02*
X1180Y408D01*
X0Y407D02*
X7Y407D01*
X589Y407D02*
X596Y407D01*
X808Y407D02*
X815Y407D01*
X1173Y407D02*
X1180Y407D01*
X0Y406D02*
X7Y406D01*
X490Y406D02*
X493Y406D01*
X589Y406D02*
X597Y406D01*
X633Y406D02*
X648Y406D01*
X807Y406D02*
X816Y406D01*
X839Y406D02*
X846Y406D01*
X861Y406D02*
X868Y406D01*
X1173Y406D02*
X1180Y406D01*
X0Y405D02*
X7Y405D01*
X489Y405D02*
X494Y405D01*
X588Y405D02*
X597Y405D01*
X631Y405D02*
X649Y405D01*
X807Y405D02*
X816Y405D01*
X839Y405D02*
X847Y405D01*
X861Y405D02*
X868Y405D01*
X1173Y405D02*
X1180Y405D01*
X0Y404D02*
X7Y404D01*
X489Y404D02*
X494Y404D01*
X588Y404D02*
X597Y404D01*
X630Y404D02*
X649Y404D01*
X807Y404D02*
X816Y404D01*
X839Y404D02*
X848Y404D01*
X860Y404D02*
X868Y404D01*
X1173Y404D02*
X1180Y404D01*
X0Y403D02*
X7Y403D01*
X489Y403D02*
X494Y403D01*
X589Y403D02*
X597Y403D01*
X629Y403D02*
X649Y403D01*
X808Y403D02*
X815Y403D01*
X839Y403D02*
X848Y403D01*
X859Y403D02*
X868Y403D01*
X1173Y403D02*
X1180Y403D01*
X0Y402D02*
X7Y402D01*
X489Y402D02*
X494Y402D01*
X589Y402D02*
X596Y402D01*
X628Y402D02*
X649Y402D01*
X808Y402D02*
X815Y402D01*
X839Y402D02*
X849Y402D01*
X859Y402D02*
X868Y402D01*
X1173Y402D02*
X1180Y402D01*
X0Y401D02*
X7Y401D01*
X489Y401D02*
X494Y401D01*
X590Y401D02*
X595Y401D01*
X628Y401D02*
X648Y401D01*
X809Y401D02*
X814Y401D01*
X839Y401D02*
X850Y401D01*
X858Y401D02*
X868Y401D01*
X1173Y401D02*
X1180Y401D01*
X0Y400D02*
X7Y400D01*
X489Y400D02*
X494Y400D01*
X627Y400D02*
X634Y400D01*
X638Y400D02*
X643Y400D01*
X839Y400D02*
X850Y400D01*
X857Y400D02*
X868Y400D01*
X1173Y400D02*
X1180Y400D01*
X0Y399D02*
X7Y399D01*
X489Y399D02*
X494Y399D01*
X627Y399D02*
X633Y399D01*
X638Y399D02*
X643Y399D01*
X839Y399D02*
X851Y399D01*
X856Y399D02*
X868Y399D01*
X1173Y399D02*
X1180Y399D01*
X0Y398D02*
X7Y398D01*
X489Y398D02*
X494Y398D01*
X626Y398D02*
X632Y398D01*
X638Y398D02*
X643Y398D01*
X839Y398D02*
X852Y398D01*
X856Y398D02*
X868Y398D01*
X1173Y398D02*
X1180Y398D01*
X0Y397D02*
X7Y397D01*
X489Y397D02*
X494Y397D01*
X626Y397D02*
X632Y397D01*
X638Y397D02*
X643Y397D01*
X839Y397D02*
X844Y397D01*
X846Y397D02*
X853Y397D01*
X855Y397D02*
X868Y397D01*
X1173Y397D02*
X1180Y397D01*
X0Y396D02*
X7Y396D01*
X489Y396D02*
X494Y396D01*
X625Y396D02*
X631Y396D01*
X638Y396D02*
X643Y396D01*
X839Y396D02*
X844Y396D01*
X847Y396D02*
X861Y396D01*
X863Y396D02*
X868Y396D01*
X1173Y396D02*
X1180Y396D01*
X0Y395D02*
X7Y395D01*
X489Y395D02*
X494Y395D01*
X625Y395D02*
X631Y395D01*
X638Y395D02*
X643Y395D01*
X839Y395D02*
X844Y395D01*
X847Y395D02*
X860Y395D01*
X863Y395D02*
X868Y395D01*
X1173Y395D02*
X1180Y395D01*
X0Y394D02*
X7Y394D01*
X489Y394D02*
X494Y394D01*
X624Y394D02*
X630Y394D01*
X638Y394D02*
X643Y394D01*
X839Y394D02*
X844Y394D01*
X848Y394D02*
X859Y394D01*
X863Y394D02*
X868Y394D01*
X1173Y394D02*
X1180Y394D01*
X0Y393D02*
X7Y393D01*
X453Y393D02*
X466Y393D01*
X489Y393D02*
X494Y393D01*
X500Y393D02*
X510Y393D01*
X541Y393D02*
X554Y393D01*
X590Y393D02*
X601Y393D01*
X624Y393D02*
X630Y393D01*
X638Y393D02*
X643Y393D01*
X713Y393D02*
X732Y393D01*
X757Y393D02*
X775Y393D01*
X809Y393D02*
X820Y393D01*
X839Y393D02*
X844Y393D01*
X849Y393D02*
X859Y393D01*
X863Y393D02*
X868Y393D01*
X1173Y393D02*
X1180Y393D01*
X0Y392D02*
X7Y392D01*
X451Y392D02*
X468Y392D01*
X489Y392D02*
X494Y392D01*
X498Y392D02*
X512Y392D01*
X539Y392D02*
X556Y392D01*
X589Y392D02*
X602Y392D01*
X623Y392D02*
X629Y392D01*
X638Y392D02*
X643Y392D01*
X711Y392D02*
X733Y392D01*
X755Y392D02*
X777Y392D01*
X808Y392D02*
X821Y392D01*
X839Y392D02*
X844Y392D01*
X850Y392D02*
X858Y392D01*
X863Y392D02*
X868Y392D01*
X1173Y392D02*
X1180Y392D01*
X0Y391D02*
X7Y391D01*
X450Y391D02*
X469Y391D01*
X489Y391D02*
X494Y391D01*
X497Y391D02*
X513Y391D01*
X537Y391D02*
X557Y391D01*
X589Y391D02*
X603Y391D01*
X623Y391D02*
X629Y391D01*
X638Y391D02*
X643Y391D01*
X710Y391D02*
X734Y391D01*
X754Y391D02*
X778Y391D01*
X808Y391D02*
X821Y391D01*
X839Y391D02*
X844Y391D01*
X850Y391D02*
X857Y391D01*
X863Y391D02*
X868Y391D01*
X1173Y391D02*
X1180Y391D01*
X0Y390D02*
X7Y390D01*
X449Y390D02*
X471Y390D01*
X489Y390D02*
X514Y390D01*
X536Y390D02*
X558Y390D01*
X588Y390D02*
X603Y390D01*
X622Y390D02*
X628Y390D01*
X638Y390D02*
X643Y390D01*
X709Y390D02*
X735Y390D01*
X753Y390D02*
X779Y390D01*
X807Y390D02*
X821Y390D01*
X839Y390D02*
X844Y390D01*
X851Y390D02*
X857Y390D01*
X863Y390D02*
X868Y390D01*
X1173Y390D02*
X1180Y390D01*
X0Y389D02*
X7Y389D01*
X448Y389D02*
X472Y389D01*
X489Y389D02*
X515Y389D01*
X535Y389D02*
X559Y389D01*
X588Y389D02*
X602Y389D01*
X622Y389D02*
X628Y389D01*
X638Y389D02*
X643Y389D01*
X709Y389D02*
X736Y389D01*
X752Y389D02*
X779Y389D01*
X807Y389D02*
X821Y389D01*
X839Y389D02*
X844Y389D01*
X851Y389D02*
X856Y389D01*
X863Y389D02*
X868Y389D01*
X1173Y389D02*
X1180Y389D01*
X0Y388D02*
X7Y388D01*
X447Y388D02*
X472Y388D01*
X489Y388D02*
X516Y388D01*
X534Y388D02*
X560Y388D01*
X588Y388D02*
X601Y388D01*
X621Y388D02*
X627Y388D01*
X638Y388D02*
X643Y388D01*
X709Y388D02*
X736Y388D01*
X752Y388D02*
X780Y388D01*
X807Y388D02*
X820Y388D01*
X839Y388D02*
X844Y388D01*
X851Y388D02*
X856Y388D01*
X863Y388D02*
X868Y388D01*
X1173Y388D02*
X1180Y388D01*
X0Y387D02*
X7Y387D01*
X446Y387D02*
X454Y387D01*
X466Y387D02*
X473Y387D01*
X489Y387D02*
X501Y387D01*
X510Y387D02*
X517Y387D01*
X534Y387D02*
X541Y387D01*
X553Y387D02*
X561Y387D01*
X588Y387D02*
X594Y387D01*
X621Y387D02*
X626Y387D01*
X638Y387D02*
X643Y387D01*
X709Y387D02*
X714Y387D01*
X731Y387D02*
X736Y387D01*
X752Y387D02*
X758Y387D01*
X774Y387D02*
X780Y387D01*
X807Y387D02*
X812Y387D01*
X839Y387D02*
X844Y387D01*
X851Y387D02*
X856Y387D01*
X863Y387D02*
X868Y387D01*
X1173Y387D02*
X1180Y387D01*
X0Y386D02*
X7Y386D01*
X446Y386D02*
X452Y386D01*
X467Y386D02*
X474Y386D01*
X489Y386D02*
X499Y386D01*
X511Y386D02*
X517Y386D01*
X533Y386D02*
X540Y386D01*
X555Y386D02*
X561Y386D01*
X588Y386D02*
X594Y386D01*
X621Y386D02*
X626Y386D01*
X638Y386D02*
X643Y386D01*
X709Y386D02*
X713Y386D01*
X731Y386D02*
X736Y386D01*
X753Y386D02*
X756Y386D01*
X775Y386D02*
X780Y386D01*
X807Y386D02*
X812Y386D01*
X839Y386D02*
X844Y386D01*
X852Y386D02*
X855Y386D01*
X863Y386D02*
X868Y386D01*
X1173Y386D02*
X1180Y386D01*
X0Y385D02*
X7Y385D01*
X445Y385D02*
X451Y385D01*
X468Y385D02*
X474Y385D01*
X489Y385D02*
X498Y385D01*
X512Y385D02*
X518Y385D01*
X533Y385D02*
X539Y385D01*
X556Y385D02*
X561Y385D01*
X588Y385D02*
X594Y385D01*
X620Y385D02*
X626Y385D01*
X638Y385D02*
X643Y385D01*
X731Y385D02*
X736Y385D01*
X775Y385D02*
X780Y385D01*
X807Y385D02*
X812Y385D01*
X839Y385D02*
X844Y385D01*
X863Y385D02*
X868Y385D01*
X1173Y385D02*
X1180Y385D01*
X0Y384D02*
X7Y384D01*
X445Y384D02*
X451Y384D01*
X469Y384D02*
X474Y384D01*
X489Y384D02*
X497Y384D01*
X513Y384D02*
X518Y384D01*
X533Y384D02*
X538Y384D01*
X556Y384D02*
X562Y384D01*
X588Y384D02*
X594Y384D01*
X620Y384D02*
X625Y384D01*
X638Y384D02*
X643Y384D01*
X729Y384D02*
X736Y384D01*
X773Y384D02*
X780Y384D01*
X807Y384D02*
X812Y384D01*
X839Y384D02*
X844Y384D01*
X863Y384D02*
X868Y384D01*
X1173Y384D02*
X1180Y384D01*
X0Y383D02*
X7Y383D01*
X445Y383D02*
X450Y383D01*
X469Y383D02*
X474Y383D01*
X489Y383D02*
X496Y383D01*
X513Y383D02*
X518Y383D01*
X533Y383D02*
X538Y383D01*
X557Y383D02*
X562Y383D01*
X588Y383D02*
X594Y383D01*
X620Y383D02*
X625Y383D01*
X638Y383D02*
X643Y383D01*
X727Y383D02*
X736Y383D01*
X771Y383D02*
X779Y383D01*
X807Y383D02*
X812Y383D01*
X839Y383D02*
X844Y383D01*
X863Y383D02*
X868Y383D01*
X1173Y383D02*
X1180Y383D01*
X0Y382D02*
X7Y382D01*
X445Y382D02*
X450Y382D01*
X469Y382D02*
X474Y382D01*
X489Y382D02*
X495Y382D01*
X513Y382D02*
X518Y382D01*
X533Y382D02*
X538Y382D01*
X557Y382D02*
X562Y382D01*
X588Y382D02*
X594Y382D01*
X620Y382D02*
X625Y382D01*
X638Y382D02*
X643Y382D01*
X725Y382D02*
X735Y382D01*
X769Y382D02*
X779Y382D01*
X807Y382D02*
X812Y382D01*
X839Y382D02*
X844Y382D01*
X863Y382D02*
X868Y382D01*
X1173Y382D02*
X1180Y382D01*
X0Y381D02*
X7Y381D01*
X445Y381D02*
X450Y381D01*
X469Y381D02*
X474Y381D01*
X489Y381D02*
X494Y381D01*
X513Y381D02*
X518Y381D01*
X533Y381D02*
X538Y381D01*
X557Y381D02*
X562Y381D01*
X588Y381D02*
X594Y381D01*
X620Y381D02*
X626Y381D01*
X638Y381D02*
X643Y381D01*
X722Y381D02*
X734Y381D01*
X766Y381D02*
X778Y381D01*
X807Y381D02*
X812Y381D01*
X839Y381D02*
X844Y381D01*
X863Y381D02*
X868Y381D01*
X1173Y381D02*
X1180Y381D01*
X0Y380D02*
X7Y380D01*
X445Y380D02*
X450Y380D01*
X469Y380D02*
X474Y380D01*
X489Y380D02*
X494Y380D01*
X513Y380D02*
X518Y380D01*
X533Y380D02*
X538Y380D01*
X557Y380D02*
X562Y380D01*
X588Y380D02*
X594Y380D01*
X621Y380D02*
X626Y380D01*
X638Y380D02*
X643Y380D01*
X720Y380D02*
X733Y380D01*
X764Y380D02*
X777Y380D01*
X807Y380D02*
X812Y380D01*
X839Y380D02*
X844Y380D01*
X863Y380D02*
X868Y380D01*
X1173Y380D02*
X1180Y380D01*
X0Y379D02*
X7Y379D01*
X445Y379D02*
X450Y379D01*
X469Y379D02*
X474Y379D01*
X489Y379D02*
X494Y379D01*
X513Y379D02*
X518Y379D01*
X533Y379D02*
X538Y379D01*
X557Y379D02*
X562Y379D01*
X588Y379D02*
X594Y379D01*
X621Y379D02*
X626Y379D01*
X638Y379D02*
X643Y379D01*
X718Y379D02*
X732Y379D01*
X762Y379D02*
X776Y379D01*
X807Y379D02*
X812Y379D01*
X839Y379D02*
X844Y379D01*
X863Y379D02*
X868Y379D01*
X1173Y379D02*
X1180Y379D01*
X0Y378D02*
X7Y378D01*
X445Y378D02*
X474Y378D01*
X489Y378D02*
X494Y378D01*
X513Y378D02*
X518Y378D01*
X533Y378D02*
X538Y378D01*
X557Y378D02*
X562Y378D01*
X588Y378D02*
X594Y378D01*
X621Y378D02*
X627Y378D01*
X638Y378D02*
X643Y378D01*
X716Y378D02*
X730Y378D01*
X759Y378D02*
X774Y378D01*
X807Y378D02*
X812Y378D01*
X839Y378D02*
X844Y378D01*
X863Y378D02*
X868Y378D01*
X1173Y378D02*
X1180Y378D01*
X0Y377D02*
X7Y377D01*
X445Y377D02*
X474Y377D01*
X489Y377D02*
X494Y377D01*
X513Y377D02*
X518Y377D01*
X533Y377D02*
X538Y377D01*
X557Y377D02*
X562Y377D01*
X588Y377D02*
X594Y377D01*
X622Y377D02*
X627Y377D01*
X638Y377D02*
X643Y377D01*
X713Y377D02*
X727Y377D01*
X757Y377D02*
X771Y377D01*
X807Y377D02*
X812Y377D01*
X839Y377D02*
X844Y377D01*
X863Y377D02*
X868Y377D01*
X1173Y377D02*
X1180Y377D01*
X0Y376D02*
X7Y376D01*
X445Y376D02*
X474Y376D01*
X489Y376D02*
X494Y376D01*
X513Y376D02*
X518Y376D01*
X533Y376D02*
X538Y376D01*
X557Y376D02*
X562Y376D01*
X588Y376D02*
X594Y376D01*
X622Y376D02*
X628Y376D01*
X638Y376D02*
X643Y376D01*
X712Y376D02*
X725Y376D01*
X756Y376D02*
X769Y376D01*
X807Y376D02*
X812Y376D01*
X839Y376D02*
X844Y376D01*
X863Y376D02*
X868Y376D01*
X1173Y376D02*
X1180Y376D01*
X0Y375D02*
X7Y375D01*
X445Y375D02*
X474Y375D01*
X489Y375D02*
X494Y375D01*
X513Y375D02*
X518Y375D01*
X533Y375D02*
X538Y375D01*
X557Y375D02*
X562Y375D01*
X588Y375D02*
X594Y375D01*
X623Y375D02*
X628Y375D01*
X638Y375D02*
X643Y375D01*
X711Y375D02*
X723Y375D01*
X754Y375D02*
X767Y375D01*
X807Y375D02*
X812Y375D01*
X839Y375D02*
X844Y375D01*
X863Y375D02*
X868Y375D01*
X1173Y375D02*
X1180Y375D01*
X0Y374D02*
X7Y374D01*
X445Y374D02*
X474Y374D01*
X489Y374D02*
X494Y374D01*
X513Y374D02*
X518Y374D01*
X533Y374D02*
X538Y374D01*
X557Y374D02*
X562Y374D01*
X588Y374D02*
X594Y374D01*
X623Y374D02*
X629Y374D01*
X638Y374D02*
X643Y374D01*
X710Y374D02*
X721Y374D01*
X754Y374D02*
X764Y374D01*
X807Y374D02*
X812Y374D01*
X839Y374D02*
X844Y374D01*
X863Y374D02*
X868Y374D01*
X1173Y374D02*
X1180Y374D01*
X0Y373D02*
X7Y373D01*
X446Y373D02*
X474Y373D01*
X489Y373D02*
X494Y373D01*
X513Y373D02*
X518Y373D01*
X533Y373D02*
X538Y373D01*
X557Y373D02*
X562Y373D01*
X588Y373D02*
X594Y373D01*
X624Y373D02*
X629Y373D01*
X638Y373D02*
X643Y373D01*
X709Y373D02*
X718Y373D01*
X753Y373D02*
X762Y373D01*
X807Y373D02*
X812Y373D01*
X839Y373D02*
X844Y373D01*
X863Y373D02*
X868Y373D01*
X1173Y373D02*
X1180Y373D01*
X0Y372D02*
X7Y372D01*
X469Y372D02*
X474Y372D01*
X489Y372D02*
X494Y372D01*
X513Y372D02*
X518Y372D01*
X533Y372D02*
X538Y372D01*
X557Y372D02*
X562Y372D01*
X588Y372D02*
X594Y372D01*
X624Y372D02*
X630Y372D01*
X638Y372D02*
X643Y372D01*
X709Y372D02*
X716Y372D01*
X752Y372D02*
X760Y372D01*
X807Y372D02*
X812Y372D01*
X839Y372D02*
X844Y372D01*
X863Y372D02*
X868Y372D01*
X1173Y372D02*
X1180Y372D01*
X0Y371D02*
X7Y371D01*
X469Y371D02*
X474Y371D01*
X489Y371D02*
X495Y371D01*
X513Y371D02*
X518Y371D01*
X533Y371D02*
X538Y371D01*
X557Y371D02*
X562Y371D01*
X588Y371D02*
X594Y371D01*
X625Y371D02*
X630Y371D01*
X638Y371D02*
X643Y371D01*
X708Y371D02*
X714Y371D01*
X752Y371D02*
X758Y371D01*
X807Y371D02*
X812Y371D01*
X839Y371D02*
X844Y371D01*
X863Y371D02*
X868Y371D01*
X1173Y371D02*
X1180Y371D01*
X0Y370D02*
X7Y370D01*
X469Y370D02*
X474Y370D01*
X489Y370D02*
X496Y370D01*
X513Y370D02*
X518Y370D01*
X533Y370D02*
X538Y370D01*
X557Y370D02*
X562Y370D01*
X588Y370D02*
X594Y370D01*
X625Y370D02*
X631Y370D01*
X638Y370D02*
X643Y370D01*
X708Y370D02*
X713Y370D01*
X752Y370D02*
X757Y370D01*
X807Y370D02*
X812Y370D01*
X839Y370D02*
X844Y370D01*
X863Y370D02*
X868Y370D01*
X1173Y370D02*
X1180Y370D01*
X0Y369D02*
X7Y369D01*
X469Y369D02*
X474Y369D01*
X489Y369D02*
X497Y369D01*
X513Y369D02*
X518Y369D01*
X533Y369D02*
X538Y369D01*
X556Y369D02*
X562Y369D01*
X588Y369D02*
X594Y369D01*
X626Y369D02*
X631Y369D01*
X638Y369D02*
X643Y369D01*
X708Y369D02*
X713Y369D01*
X752Y369D02*
X757Y369D01*
X807Y369D02*
X812Y369D01*
X839Y369D02*
X844Y369D01*
X863Y369D02*
X868Y369D01*
X1173Y369D02*
X1180Y369D01*
X0Y368D02*
X7Y368D01*
X468Y368D02*
X474Y368D01*
X489Y368D02*
X498Y368D01*
X512Y368D02*
X518Y368D01*
X533Y368D02*
X539Y368D01*
X556Y368D02*
X562Y368D01*
X588Y368D02*
X594Y368D01*
X626Y368D02*
X632Y368D01*
X638Y368D02*
X643Y368D01*
X708Y368D02*
X713Y368D01*
X752Y368D02*
X757Y368D01*
X807Y368D02*
X812Y368D01*
X839Y368D02*
X844Y368D01*
X863Y368D02*
X868Y368D01*
X1173Y368D02*
X1180Y368D01*
X0Y367D02*
X7Y367D01*
X467Y367D02*
X474Y367D01*
X489Y367D02*
X499Y367D01*
X511Y367D02*
X517Y367D01*
X533Y367D02*
X540Y367D01*
X555Y367D02*
X561Y367D01*
X588Y367D02*
X594Y367D01*
X627Y367D02*
X633Y367D01*
X638Y367D02*
X643Y367D01*
X708Y367D02*
X714Y367D01*
X733Y367D02*
X736Y367D01*
X752Y367D02*
X757Y367D01*
X776Y367D02*
X780Y367D01*
X807Y367D02*
X812Y367D01*
X839Y367D02*
X844Y367D01*
X863Y367D02*
X868Y367D01*
X1173Y367D02*
X1180Y367D01*
X0Y366D02*
X7Y366D01*
X466Y366D02*
X473Y366D01*
X489Y366D02*
X501Y366D01*
X509Y366D02*
X517Y366D01*
X534Y366D02*
X541Y366D01*
X553Y366D02*
X561Y366D01*
X588Y366D02*
X594Y366D01*
X627Y366D02*
X633Y366D01*
X638Y366D02*
X643Y366D01*
X708Y366D02*
X714Y366D01*
X731Y366D02*
X737Y366D01*
X752Y366D02*
X758Y366D01*
X775Y366D02*
X781Y366D01*
X807Y366D02*
X812Y366D01*
X839Y366D02*
X844Y366D01*
X863Y366D02*
X868Y366D01*
X1173Y366D02*
X1180Y366D01*
X0Y365D02*
X7Y365D01*
X447Y365D02*
X473Y365D01*
X489Y365D02*
X516Y365D01*
X534Y365D02*
X560Y365D01*
X581Y365D02*
X601Y365D01*
X628Y365D02*
X648Y365D01*
X709Y365D02*
X737Y365D01*
X752Y365D02*
X781Y365D01*
X800Y365D02*
X820Y365D01*
X839Y365D02*
X844Y365D01*
X863Y365D02*
X868Y365D01*
X1173Y365D02*
X1180Y365D01*
X0Y364D02*
X7Y364D01*
X446Y364D02*
X472Y364D01*
X489Y364D02*
X516Y364D01*
X535Y364D02*
X559Y364D01*
X580Y364D02*
X602Y364D01*
X628Y364D02*
X649Y364D01*
X709Y364D02*
X737Y364D01*
X753Y364D02*
X781Y364D01*
X799Y364D02*
X821Y364D01*
X839Y364D02*
X844Y364D01*
X863Y364D02*
X868Y364D01*
X1173Y364D02*
X1180Y364D01*
X0Y363D02*
X7Y363D01*
X445Y363D02*
X471Y363D01*
X489Y363D02*
X515Y363D01*
X536Y363D02*
X558Y363D01*
X580Y363D02*
X603Y363D01*
X629Y363D02*
X649Y363D01*
X710Y363D02*
X736Y363D01*
X754Y363D02*
X780Y363D01*
X799Y363D02*
X821Y363D01*
X839Y363D02*
X844Y363D01*
X863Y363D02*
X868Y363D01*
X1173Y363D02*
X1180Y363D01*
X0Y362D02*
X7Y362D01*
X445Y362D02*
X470Y362D01*
X489Y362D02*
X494Y362D01*
X496Y362D02*
X513Y362D01*
X537Y362D02*
X557Y362D01*
X580Y362D02*
X603Y362D01*
X630Y362D02*
X649Y362D01*
X711Y362D02*
X735Y362D01*
X754Y362D02*
X779Y362D01*
X798Y362D02*
X821Y362D01*
X839Y362D02*
X844Y362D01*
X863Y362D02*
X868Y362D01*
X1173Y362D02*
X1180Y362D01*
X0Y361D02*
X7Y361D01*
X445Y361D02*
X468Y361D01*
X489Y361D02*
X494Y361D01*
X498Y361D02*
X512Y361D01*
X539Y361D02*
X556Y361D01*
X580Y361D02*
X602Y361D01*
X631Y361D02*
X649Y361D01*
X712Y361D02*
X734Y361D01*
X756Y361D02*
X777Y361D01*
X799Y361D02*
X821Y361D01*
X840Y361D02*
X844Y361D01*
X864Y361D02*
X868Y361D01*
X1173Y361D02*
X1180Y361D01*
X0Y360D02*
X7Y360D01*
X446Y360D02*
X467Y360D01*
X490Y360D02*
X493Y360D01*
X500Y360D02*
X510Y360D01*
X540Y360D02*
X554Y360D01*
X581Y360D02*
X601Y360D01*
X633Y360D02*
X648Y360D01*
X714Y360D02*
X732Y360D01*
X757Y360D02*
X775Y360D01*
X800Y360D02*
X820Y360D01*
X840Y360D02*
X843Y360D01*
X864Y360D02*
X867Y360D01*
X1173Y360D02*
X1180Y360D01*
X0Y359D02*
X7Y359D01*
X1173Y359D02*
X1180Y359D01*
X0Y358D02*
X7Y358D01*
X1173Y358D02*
X1180Y358D01*
X0Y357D02*
X7Y357D01*
X1173Y357D02*
X1180Y357D01*
X0Y356D02*
X7Y356D01*
X1173Y356D02*
X1180Y356D01*
X0Y355D02*
X7Y355D01*
X1173Y355D02*
X1180Y355D01*
X0Y354D02*
X7Y354D01*
X1173Y354D02*
X1180Y354D01*
X0Y353D02*
X7Y353D01*
X1173Y353D02*
X1180Y353D01*
X0Y352D02*
X7Y352D01*
X1173Y352D02*
X1180Y352D01*
X0Y351D02*
X7Y351D01*
X1173Y351D02*
X1180Y351D01*
X0Y350D02*
X7Y350D01*
X1173Y350D02*
X1180Y350D01*
X0Y349D02*
X7Y349D01*
X1173Y349D02*
X1180Y349D01*
X0Y348D02*
X7Y348D01*
X1173Y348D02*
X1180Y348D01*
X0Y347D02*
X7Y347D01*
X1173Y347D02*
X1180Y347D01*
X0Y346D02*
X7Y346D01*
X1173Y346D02*
X1180Y346D01*
X0Y345D02*
X7Y345D01*
X1173Y345D02*
X1180Y345D01*
X0Y344D02*
X7Y344D01*
X1173Y344D02*
X1180Y344D01*
X0Y343D02*
X7Y343D01*
X1173Y343D02*
X1180Y343D01*
X0Y342D02*
X7Y342D01*
X1173Y342D02*
X1180Y342D01*
X0Y341D02*
X7Y341D01*
X1173Y341D02*
X1180Y341D01*
X0Y340D02*
X7Y340D01*
X1173Y340D02*
X1180Y340D01*
X0Y339D02*
X7Y339D01*
X1173Y339D02*
X1180Y339D01*
X0Y338D02*
X7Y338D01*
X1173Y338D02*
X1180Y338D01*
X0Y337D02*
X7Y337D01*
X1173Y337D02*
X1180Y337D01*
X0Y336D02*
X7Y336D01*
X1173Y336D02*
X1180Y336D01*
X0Y335D02*
X7Y335D01*
X1173Y335D02*
X1180Y335D01*
X0Y334D02*
X7Y334D01*
X1173Y334D02*
X1180Y334D01*
X0Y333D02*
X7Y333D01*
X1173Y333D02*
X1180Y333D01*
X0Y332D02*
X7Y332D01*
X1173Y332D02*
X1180Y332D01*
X0Y331D02*
X7Y331D01*
X1173Y331D02*
X1180Y331D01*
X0Y330D02*
X7Y330D01*
X1173Y330D02*
X1180Y330D01*
X0Y329D02*
X7Y329D01*
X1173Y329D02*
X1180Y329D01*
X0Y328D02*
X7Y328D01*
X1173Y328D02*
X1180Y328D01*
X0Y327D02*
X7Y327D01*
X1173Y327D02*
X1180Y327D01*
X0Y326D02*
X7Y326D01*
X1173Y326D02*
X1180Y326D01*
X0Y325D02*
X7Y325D01*
X1173Y325D02*
X1180Y325D01*
X0Y324D02*
X7Y324D01*
X1173Y324D02*
X1180Y324D01*
X0Y323D02*
X7Y323D01*
X1173Y323D02*
X1180Y323D01*
X0Y322D02*
X7Y322D01*
X1173Y322D02*
X1180Y322D01*
X0Y321D02*
X7Y321D01*
X1173Y321D02*
X1180Y321D01*
X0Y320D02*
X7Y320D01*
X1173Y320D02*
X1180Y320D01*
X0Y319D02*
X7Y319D01*
X1173Y319D02*
X1180Y319D01*
X0Y318D02*
X7Y318D01*
X1173Y318D02*
X1180Y318D01*
X0Y317D02*
X7Y317D01*
X1173Y317D02*
X1180Y317D01*
X0Y316D02*
X7Y316D01*
X1173Y316D02*
X1180Y316D01*
X0Y315D02*
X7Y315D01*
X1173Y315D02*
X1180Y315D01*
X0Y314D02*
X7Y314D01*
X1173Y314D02*
X1180Y314D01*
X0Y313D02*
X7Y313D01*
X1173Y313D02*
X1180Y313D01*
X0Y312D02*
X7Y312D01*
X1173Y312D02*
X1180Y312D01*
X0Y311D02*
X7Y311D01*
X1173Y311D02*
X1180Y311D01*
X0Y310D02*
X7Y310D01*
X1173Y310D02*
X1180Y310D01*
X0Y309D02*
X7Y309D01*
X1173Y309D02*
X1180Y309D01*
X0Y308D02*
X7Y308D01*
X1173Y308D02*
X1180Y308D01*
X0Y307D02*
X7Y307D01*
X1173Y307D02*
X1180Y307D01*
X0Y306D02*
X7Y306D01*
X1173Y306D02*
X1180Y306D01*
X0Y305D02*
X7Y305D01*
X1173Y305D02*
X1180Y305D01*
X0Y304D02*
X7Y304D01*
X1173Y304D02*
X1180Y304D01*
X0Y303D02*
X7Y303D01*
X1173Y303D02*
X1180Y303D01*
X0Y302D02*
X7Y302D01*
X1173Y302D02*
X1180Y302D01*
X0Y301D02*
X7Y301D01*
X1173Y301D02*
X1180Y301D01*
X0Y300D02*
X7Y300D01*
X1173Y300D02*
X1180Y300D01*
X0Y299D02*
X7Y299D01*
X1173Y299D02*
X1180Y299D01*
X0Y298D02*
X7Y298D01*
X1173Y298D02*
X1180Y298D01*
X0Y297D02*
X7Y297D01*
X1173Y297D02*
X1180Y297D01*
X0Y296D02*
X7Y296D01*
X1173Y296D02*
X1180Y296D01*
X0Y295D02*
X7Y295D01*
X1173Y295D02*
X1180Y295D01*
X0Y294D02*
X7Y294D01*
X1173Y294D02*
X1180Y294D01*
X0Y293D02*
X7Y293D01*
X1173Y293D02*
X1180Y293D01*
X0Y292D02*
X7Y292D01*
X1173Y292D02*
X1180Y292D01*
X0Y291D02*
X7Y291D01*
X1173Y291D02*
X1180Y291D01*
X0Y290D02*
X7Y290D01*
X1173Y290D02*
X1180Y290D01*
X0Y289D02*
X7Y289D01*
X1173Y289D02*
X1180Y289D01*
X0Y288D02*
X7Y288D01*
X1173Y288D02*
X1180Y288D01*
X0Y287D02*
X7Y287D01*
X1173Y287D02*
X1180Y287D01*
X0Y286D02*
X7Y286D01*
X1173Y286D02*
X1180Y286D01*
X0Y285D02*
X7Y285D01*
X1173Y285D02*
X1180Y285D01*
X0Y284D02*
X7Y284D01*
X1173Y284D02*
X1180Y284D01*
X0Y283D02*
X7Y283D01*
X1173Y283D02*
X1180Y283D01*
X0Y282D02*
X7Y282D01*
X1173Y282D02*
X1180Y282D01*
X0Y281D02*
X7Y281D01*
X1173Y281D02*
X1180Y281D01*
X0Y280D02*
X7Y280D01*
X1173Y280D02*
X1180Y280D01*
X0Y279D02*
X7Y279D01*
X1173Y279D02*
X1180Y279D01*
X0Y278D02*
X7Y278D01*
X1173Y278D02*
X1180Y278D01*
X0Y277D02*
X7Y277D01*
X1173Y277D02*
X1180Y277D01*
X0Y276D02*
X7Y276D01*
X1173Y276D02*
X1180Y276D01*
X0Y275D02*
X7Y275D01*
X1173Y275D02*
X1180Y275D01*
X0Y274D02*
X7Y274D01*
X1173Y274D02*
X1180Y274D01*
X0Y273D02*
X7Y273D01*
X1173Y273D02*
X1180Y273D01*
X0Y272D02*
X7Y272D01*
X1173Y272D02*
X1180Y272D01*
X0Y271D02*
X7Y271D01*
X1173Y271D02*
X1180Y271D01*
X0Y270D02*
X7Y270D01*
X1173Y270D02*
X1180Y270D01*
X0Y269D02*
X7Y269D01*
X1173Y269D02*
X1180Y269D01*
X0Y268D02*
X7Y268D01*
X1173Y268D02*
X1180Y268D01*
X0Y267D02*
X7Y267D01*
X1173Y267D02*
X1180Y267D01*
X0Y266D02*
X7Y266D01*
X1173Y266D02*
X1180Y266D01*
X0Y265D02*
X7Y265D01*
X1173Y265D02*
X1180Y265D01*
X0Y264D02*
X7Y264D01*
X1173Y264D02*
X1180Y264D01*
X0Y263D02*
X7Y263D01*
X1173Y263D02*
X1180Y263D01*
X0Y262D02*
X7Y262D01*
X1173Y262D02*
X1180Y262D01*
X0Y261D02*
X7Y261D01*
X1173Y261D02*
X1180Y261D01*
X0Y260D02*
X7Y260D01*
X1173Y260D02*
X1180Y260D01*
X0Y259D02*
X7Y259D01*
X1173Y259D02*
X1180Y259D01*
X0Y258D02*
X7Y258D01*
X1173Y258D02*
X1180Y258D01*
X0Y257D02*
X7Y257D01*
X1173Y257D02*
X1180Y257D01*
X0Y256D02*
X7Y256D01*
X1173Y256D02*
X1180Y256D01*
X0Y255D02*
X7Y255D01*
X1173Y255D02*
X1180Y255D01*
X0Y254D02*
X7Y254D01*
X1173Y254D02*
X1180Y254D01*
X0Y253D02*
X7Y253D01*
X1173Y253D02*
X1180Y253D01*
X0Y252D02*
X7Y252D01*
X1173Y252D02*
X1180Y252D01*
X0Y251D02*
X7Y251D01*
X1173Y251D02*
X1180Y251D01*
X0Y250D02*
X7Y250D01*
X1173Y250D02*
X1180Y250D01*
X0Y249D02*
X7Y249D01*
X1173Y249D02*
X1180Y249D01*
X0Y248D02*
X7Y248D01*
X1173Y248D02*
X1180Y248D01*
X0Y247D02*
X7Y247D01*
X1173Y247D02*
X1180Y247D01*
X0Y246D02*
X7Y246D01*
X1173Y246D02*
X1180Y246D01*
X0Y245D02*
X7Y245D01*
X1173Y245D02*
X1180Y245D01*
X0Y244D02*
X7Y244D01*
X1173Y244D02*
X1180Y244D01*
X0Y243D02*
X7Y243D01*
X1173Y243D02*
X1180Y243D01*
X0Y242D02*
X7Y242D01*
X1173Y242D02*
X1180Y242D01*
X0Y241D02*
X7Y241D01*
X1173Y241D02*
X1180Y241D01*
X0Y240D02*
X7Y240D01*
X1173Y240D02*
X1180Y240D01*
X0Y239D02*
X7Y239D01*
X1173Y239D02*
X1180Y239D01*
X0Y238D02*
X7Y238D01*
X1173Y238D02*
X1180Y238D01*
X0Y237D02*
X7Y237D01*
X1173Y237D02*
X1180Y237D01*
X0Y236D02*
X7Y236D01*
X1173Y236D02*
X1180Y236D01*
X0Y235D02*
X7Y235D01*
X1173Y235D02*
X1180Y235D01*
X0Y234D02*
X7Y234D01*
X1173Y234D02*
X1180Y234D01*
X0Y233D02*
X7Y233D01*
X1173Y233D02*
X1180Y233D01*
X0Y232D02*
X7Y232D01*
X1173Y232D02*
X1180Y232D01*
X0Y231D02*
X7Y231D01*
X1173Y231D02*
X1180Y231D01*
X0Y230D02*
X7Y230D01*
X195Y230D02*
X206Y230D01*
X501Y230D02*
X503Y230D01*
X578Y230D02*
X589Y230D01*
X720Y230D02*
X731Y230D01*
X844Y230D02*
X862Y230D01*
X1173Y230D02*
X1180Y230D01*
X0Y229D02*
X7Y229D01*
X194Y229D02*
X207Y229D01*
X500Y229D02*
X504Y229D01*
X577Y229D02*
X591Y229D01*
X719Y229D02*
X732Y229D01*
X842Y229D02*
X864Y229D01*
X1173Y229D02*
X1180Y229D01*
X0Y228D02*
X7Y228D01*
X193Y228D02*
X207Y228D01*
X500Y228D02*
X505Y228D01*
X577Y228D02*
X593Y228D01*
X719Y228D02*
X733Y228D01*
X840Y228D02*
X865Y228D01*
X1173Y228D02*
X1180Y228D01*
X0Y227D02*
X7Y227D01*
X193Y227D02*
X207Y227D01*
X499Y227D02*
X505Y227D01*
X577Y227D02*
X594Y227D01*
X719Y227D02*
X733Y227D01*
X840Y227D02*
X866Y227D01*
X1173Y227D02*
X1180Y227D01*
X0Y226D02*
X7Y226D01*
X193Y226D02*
X207Y226D01*
X499Y226D02*
X505Y226D01*
X577Y226D02*
X595Y226D01*
X719Y226D02*
X732Y226D01*
X839Y226D02*
X867Y226D01*
X1173Y226D02*
X1180Y226D01*
X0Y225D02*
X7Y225D01*
X193Y225D02*
X206Y225D01*
X499Y225D02*
X506Y225D01*
X578Y225D02*
X595Y225D01*
X719Y225D02*
X732Y225D01*
X838Y225D02*
X867Y225D01*
X1173Y225D02*
X1180Y225D01*
X0Y224D02*
X7Y224D01*
X193Y224D02*
X198Y224D01*
X499Y224D02*
X506Y224D01*
X588Y224D02*
X596Y224D01*
X719Y224D02*
X724Y224D01*
X838Y224D02*
X844Y224D01*
X862Y224D02*
X867Y224D01*
X1173Y224D02*
X1180Y224D01*
X0Y223D02*
X7Y223D01*
X193Y223D02*
X198Y223D01*
X498Y223D02*
X506Y223D01*
X590Y223D02*
X596Y223D01*
X719Y223D02*
X724Y223D01*
X838Y223D02*
X843Y223D01*
X862Y223D02*
X867Y223D01*
X1173Y223D02*
X1180Y223D01*
X0Y222D02*
X7Y222D01*
X193Y222D02*
X198Y222D01*
X498Y222D02*
X506Y222D01*
X591Y222D02*
X597Y222D01*
X719Y222D02*
X724Y222D01*
X838Y222D02*
X843Y222D01*
X861Y222D02*
X867Y222D01*
X1173Y222D02*
X1180Y222D01*
X0Y221D02*
X7Y221D01*
X193Y221D02*
X198Y221D01*
X498Y221D02*
X507Y221D01*
X592Y221D02*
X597Y221D01*
X719Y221D02*
X724Y221D01*
X838Y221D02*
X843Y221D01*
X860Y221D02*
X867Y221D01*
X1173Y221D02*
X1180Y221D01*
X0Y220D02*
X7Y220D01*
X193Y220D02*
X198Y220D01*
X497Y220D02*
X507Y220D01*
X592Y220D02*
X597Y220D01*
X719Y220D02*
X724Y220D01*
X839Y220D02*
X842Y220D01*
X859Y220D02*
X866Y220D01*
X1173Y220D02*
X1180Y220D01*
X0Y219D02*
X7Y219D01*
X193Y219D02*
X198Y219D01*
X497Y219D02*
X507Y219D01*
X592Y219D02*
X597Y219D01*
X719Y219D02*
X724Y219D01*
X859Y219D02*
X865Y219D01*
X1173Y219D02*
X1180Y219D01*
X0Y218D02*
X7Y218D01*
X193Y218D02*
X198Y218D01*
X411Y218D02*
X418Y218D01*
X425Y218D02*
X428Y218D01*
X455Y218D02*
X462Y218D01*
X469Y218D02*
X472Y218D01*
X497Y218D02*
X508Y218D01*
X592Y218D02*
X597Y218D01*
X719Y218D02*
X724Y218D01*
X858Y218D02*
X865Y218D01*
X1173Y218D02*
X1180Y218D01*
X0Y217D02*
X7Y217D01*
X193Y217D02*
X198Y217D01*
X232Y217D02*
X247Y217D01*
X270Y217D02*
X272Y217D01*
X294Y217D02*
X296Y217D01*
X321Y217D02*
X333Y217D01*
X362Y217D02*
X372Y217D01*
X382Y217D02*
X384Y217D01*
X409Y217D02*
X420Y217D01*
X424Y217D02*
X429Y217D01*
X453Y217D02*
X464Y217D01*
X468Y217D02*
X473Y217D01*
X497Y217D02*
X508Y217D01*
X584Y217D02*
X601Y217D01*
X627Y217D02*
X640Y217D01*
X719Y217D02*
X724Y217D01*
X757Y217D02*
X772Y217D01*
X802Y217D02*
X815Y217D01*
X857Y217D02*
X864Y217D01*
X1173Y217D02*
X1180Y217D01*
X0Y216D02*
X7Y216D01*
X193Y216D02*
X198Y216D01*
X230Y216D02*
X248Y216D01*
X269Y216D02*
X273Y216D01*
X293Y216D02*
X297Y216D01*
X319Y216D02*
X335Y216D01*
X360Y216D02*
X373Y216D01*
X381Y216D02*
X385Y216D01*
X408Y216D02*
X421Y216D01*
X424Y216D02*
X429Y216D01*
X451Y216D02*
X465Y216D01*
X468Y216D02*
X473Y216D01*
X496Y216D02*
X508Y216D01*
X583Y216D02*
X602Y216D01*
X625Y216D02*
X642Y216D01*
X719Y216D02*
X724Y216D01*
X755Y216D02*
X773Y216D01*
X800Y216D02*
X817Y216D01*
X856Y216D02*
X863Y216D01*
X1173Y216D02*
X1180Y216D01*
X0Y215D02*
X7Y215D01*
X193Y215D02*
X198Y215D01*
X229Y215D02*
X248Y215D01*
X269Y215D02*
X274Y215D01*
X293Y215D02*
X298Y215D01*
X318Y215D02*
X337Y215D01*
X359Y215D02*
X374Y215D01*
X380Y215D02*
X385Y215D01*
X407Y215D02*
X422Y215D01*
X424Y215D02*
X429Y215D01*
X450Y215D02*
X466Y215D01*
X468Y215D02*
X473Y215D01*
X496Y215D02*
X501Y215D01*
X503Y215D02*
X509Y215D01*
X583Y215D02*
X603Y215D01*
X624Y215D02*
X643Y215D01*
X719Y215D02*
X724Y215D01*
X754Y215D02*
X773Y215D01*
X799Y215D02*
X818Y215D01*
X856Y215D02*
X862Y215D01*
X1173Y215D02*
X1180Y215D01*
X0Y214D02*
X7Y214D01*
X193Y214D02*
X198Y214D01*
X228Y214D02*
X248Y214D01*
X269Y214D02*
X274Y214D01*
X293Y214D02*
X298Y214D01*
X316Y214D02*
X338Y214D01*
X358Y214D02*
X376Y214D01*
X380Y214D02*
X385Y214D01*
X405Y214D02*
X429Y214D01*
X449Y214D02*
X473Y214D01*
X496Y214D02*
X501Y214D01*
X503Y214D02*
X509Y214D01*
X583Y214D02*
X603Y214D01*
X623Y214D02*
X644Y214D01*
X719Y214D02*
X724Y214D01*
X753Y214D02*
X773Y214D01*
X798Y214D02*
X819Y214D01*
X855Y214D02*
X862Y214D01*
X1173Y214D02*
X1180Y214D01*
X0Y213D02*
X7Y213D01*
X193Y213D02*
X198Y213D01*
X227Y213D02*
X248Y213D01*
X269Y213D02*
X274Y213D01*
X293Y213D02*
X298Y213D01*
X315Y213D02*
X339Y213D01*
X358Y213D02*
X377Y213D01*
X380Y213D02*
X385Y213D01*
X404Y213D02*
X429Y213D01*
X448Y213D02*
X473Y213D01*
X495Y213D02*
X501Y213D01*
X504Y213D02*
X509Y213D01*
X583Y213D02*
X602Y213D01*
X622Y213D02*
X645Y213D01*
X719Y213D02*
X724Y213D01*
X752Y213D02*
X773Y213D01*
X797Y213D02*
X821Y213D01*
X854Y213D02*
X861Y213D01*
X1173Y213D02*
X1180Y213D01*
X0Y212D02*
X7Y212D01*
X193Y212D02*
X198Y212D01*
X226Y212D02*
X247Y212D01*
X269Y212D02*
X274Y212D01*
X293Y212D02*
X298Y212D01*
X314Y212D02*
X340Y212D01*
X357Y212D02*
X378Y212D01*
X380Y212D02*
X385Y212D01*
X403Y212D02*
X412Y212D01*
X418Y212D02*
X429Y212D01*
X447Y212D02*
X455Y212D01*
X461Y212D02*
X473Y212D01*
X495Y212D02*
X500Y212D01*
X504Y212D02*
X509Y212D01*
X584Y212D02*
X602Y212D01*
X621Y212D02*
X646Y212D01*
X719Y212D02*
X724Y212D01*
X752Y212D02*
X772Y212D01*
X796Y212D02*
X821Y212D01*
X853Y212D02*
X860Y212D01*
X1173Y212D02*
X1180Y212D01*
X0Y211D02*
X7Y211D01*
X193Y211D02*
X198Y211D01*
X226Y211D02*
X232Y211D01*
X269Y211D02*
X274Y211D01*
X293Y211D02*
X298Y211D01*
X314Y211D02*
X321Y211D01*
X333Y211D02*
X340Y211D01*
X357Y211D02*
X363Y211D01*
X371Y211D02*
X385Y211D01*
X402Y211D02*
X410Y211D01*
X419Y211D02*
X429Y211D01*
X446Y211D02*
X454Y211D01*
X462Y211D02*
X473Y211D01*
X495Y211D02*
X500Y211D01*
X504Y211D02*
X510Y211D01*
X592Y211D02*
X597Y211D01*
X620Y211D02*
X628Y211D01*
X639Y211D02*
X647Y211D01*
X719Y211D02*
X724Y211D01*
X751Y211D02*
X758Y211D01*
X795Y211D02*
X803Y211D01*
X814Y211D02*
X822Y211D01*
X852Y211D02*
X859Y211D01*
X1173Y211D02*
X1180Y211D01*
X0Y210D02*
X7Y210D01*
X193Y210D02*
X198Y210D01*
X226Y210D02*
X231Y210D01*
X269Y210D02*
X274Y210D01*
X293Y210D02*
X298Y210D01*
X313Y210D02*
X320Y210D01*
X334Y210D02*
X341Y210D01*
X356Y210D02*
X362Y210D01*
X372Y210D02*
X385Y210D01*
X402Y210D02*
X409Y210D01*
X420Y210D02*
X429Y210D01*
X445Y210D02*
X453Y210D01*
X463Y210D02*
X473Y210D01*
X494Y210D02*
X500Y210D01*
X505Y210D02*
X510Y210D01*
X592Y210D02*
X597Y210D01*
X620Y210D02*
X626Y210D01*
X641Y210D02*
X647Y210D01*
X719Y210D02*
X724Y210D01*
X751Y210D02*
X757Y210D01*
X795Y210D02*
X801Y210D01*
X816Y210D02*
X823Y210D01*
X852Y210D02*
X859Y210D01*
X1173Y210D02*
X1180Y210D01*
X0Y209D02*
X7Y209D01*
X193Y209D02*
X198Y209D01*
X226Y209D02*
X231Y209D01*
X269Y209D02*
X274Y209D01*
X292Y209D02*
X298Y209D01*
X313Y209D02*
X319Y209D01*
X335Y209D02*
X341Y209D01*
X356Y209D02*
X361Y209D01*
X373Y209D02*
X385Y209D01*
X401Y209D02*
X408Y209D01*
X421Y209D02*
X429Y209D01*
X445Y209D02*
X452Y209D01*
X464Y209D02*
X473Y209D01*
X494Y209D02*
X500Y209D01*
X505Y209D02*
X510Y209D01*
X592Y209D02*
X597Y209D01*
X619Y209D02*
X625Y209D01*
X642Y209D02*
X648Y209D01*
X719Y209D02*
X724Y209D01*
X751Y209D02*
X756Y209D01*
X794Y209D02*
X800Y209D01*
X817Y209D02*
X823Y209D01*
X851Y209D02*
X858Y209D01*
X1173Y209D02*
X1180Y209D01*
X0Y208D02*
X7Y208D01*
X193Y208D02*
X198Y208D01*
X226Y208D02*
X231Y208D01*
X269Y208D02*
X275Y208D01*
X292Y208D02*
X298Y208D01*
X313Y208D02*
X318Y208D01*
X336Y208D02*
X341Y208D01*
X356Y208D02*
X361Y208D01*
X374Y208D02*
X385Y208D01*
X400Y208D02*
X407Y208D01*
X422Y208D02*
X429Y208D01*
X444Y208D02*
X451Y208D01*
X465Y208D02*
X473Y208D01*
X494Y208D02*
X499Y208D01*
X505Y208D02*
X511Y208D01*
X592Y208D02*
X597Y208D01*
X619Y208D02*
X625Y208D01*
X643Y208D02*
X648Y208D01*
X719Y208D02*
X724Y208D01*
X751Y208D02*
X756Y208D01*
X794Y208D02*
X800Y208D01*
X818Y208D02*
X823Y208D01*
X850Y208D02*
X857Y208D01*
X1173Y208D02*
X1180Y208D01*
X0Y207D02*
X7Y207D01*
X193Y207D02*
X198Y207D01*
X226Y207D02*
X231Y207D01*
X269Y207D02*
X275Y207D01*
X291Y207D02*
X297Y207D01*
X312Y207D02*
X318Y207D01*
X336Y207D02*
X342Y207D01*
X356Y207D02*
X361Y207D01*
X375Y207D02*
X385Y207D01*
X400Y207D02*
X406Y207D01*
X423Y207D02*
X429Y207D01*
X444Y207D02*
X450Y207D01*
X466Y207D02*
X473Y207D01*
X494Y207D02*
X499Y207D01*
X505Y207D02*
X511Y207D01*
X592Y207D02*
X597Y207D01*
X619Y207D02*
X624Y207D01*
X643Y207D02*
X648Y207D01*
X719Y207D02*
X724Y207D01*
X751Y207D02*
X756Y207D01*
X794Y207D02*
X799Y207D01*
X818Y207D02*
X823Y207D01*
X849Y207D02*
X856Y207D01*
X1173Y207D02*
X1180Y207D01*
X0Y206D02*
X7Y206D01*
X193Y206D02*
X198Y206D01*
X226Y206D02*
X231Y206D01*
X270Y206D02*
X276Y206D01*
X291Y206D02*
X297Y206D01*
X312Y206D02*
X318Y206D01*
X336Y206D02*
X342Y206D01*
X356Y206D02*
X361Y206D01*
X377Y206D02*
X385Y206D01*
X400Y206D02*
X405Y206D01*
X423Y206D02*
X429Y206D01*
X444Y206D02*
X449Y206D01*
X467Y206D02*
X473Y206D01*
X493Y206D02*
X499Y206D01*
X506Y206D02*
X511Y206D01*
X592Y206D02*
X597Y206D01*
X619Y206D02*
X624Y206D01*
X643Y206D02*
X648Y206D01*
X719Y206D02*
X724Y206D01*
X751Y206D02*
X756Y206D01*
X794Y206D02*
X799Y206D01*
X818Y206D02*
X823Y206D01*
X849Y206D02*
X855Y206D01*
X1173Y206D02*
X1180Y206D01*
X0Y205D02*
X7Y205D01*
X193Y205D02*
X198Y205D01*
X226Y205D02*
X231Y205D01*
X270Y205D02*
X276Y205D01*
X291Y205D02*
X296Y205D01*
X312Y205D02*
X318Y205D01*
X336Y205D02*
X342Y205D01*
X357Y205D02*
X361Y205D01*
X378Y205D02*
X385Y205D01*
X400Y205D02*
X405Y205D01*
X424Y205D02*
X429Y205D01*
X444Y205D02*
X449Y205D01*
X468Y205D02*
X473Y205D01*
X493Y205D02*
X498Y205D01*
X506Y205D02*
X511Y205D01*
X592Y205D02*
X597Y205D01*
X619Y205D02*
X624Y205D01*
X643Y205D02*
X648Y205D01*
X719Y205D02*
X724Y205D01*
X751Y205D02*
X756Y205D01*
X794Y205D02*
X799Y205D01*
X818Y205D02*
X823Y205D01*
X848Y205D02*
X855Y205D01*
X1173Y205D02*
X1180Y205D01*
X0Y204D02*
X7Y204D01*
X193Y204D02*
X198Y204D01*
X226Y204D02*
X248Y204D01*
X271Y204D02*
X276Y204D01*
X290Y204D02*
X296Y204D01*
X312Y204D02*
X318Y204D01*
X336Y204D02*
X342Y204D01*
X358Y204D02*
X360Y204D01*
X379Y204D02*
X385Y204D01*
X400Y204D02*
X405Y204D01*
X424Y204D02*
X429Y204D01*
X444Y204D02*
X449Y204D01*
X468Y204D02*
X473Y204D01*
X493Y204D02*
X498Y204D01*
X506Y204D02*
X512Y204D01*
X592Y204D02*
X597Y204D01*
X619Y204D02*
X624Y204D01*
X643Y204D02*
X648Y204D01*
X719Y204D02*
X724Y204D01*
X751Y204D02*
X774Y204D01*
X794Y204D02*
X799Y204D01*
X818Y204D02*
X823Y204D01*
X847Y204D02*
X854Y204D01*
X1173Y204D02*
X1180Y204D01*
X0Y203D02*
X7Y203D01*
X193Y203D02*
X198Y203D01*
X225Y203D02*
X250Y203D01*
X271Y203D02*
X277Y203D01*
X290Y203D02*
X295Y203D01*
X312Y203D02*
X318Y203D01*
X336Y203D02*
X342Y203D01*
X380Y203D02*
X385Y203D01*
X400Y203D02*
X405Y203D01*
X424Y203D02*
X429Y203D01*
X444Y203D02*
X449Y203D01*
X468Y203D02*
X473Y203D01*
X492Y203D02*
X498Y203D01*
X507Y203D02*
X512Y203D01*
X592Y203D02*
X597Y203D01*
X619Y203D02*
X624Y203D01*
X643Y203D02*
X648Y203D01*
X719Y203D02*
X724Y203D01*
X751Y203D02*
X776Y203D01*
X794Y203D02*
X799Y203D01*
X818Y203D02*
X823Y203D01*
X846Y203D02*
X853Y203D01*
X1173Y203D02*
X1180Y203D01*
X0Y202D02*
X7Y202D01*
X193Y202D02*
X198Y202D01*
X225Y202D02*
X251Y202D01*
X272Y202D02*
X277Y202D01*
X289Y202D02*
X295Y202D01*
X312Y202D02*
X318Y202D01*
X336Y202D02*
X342Y202D01*
X380Y202D02*
X385Y202D01*
X400Y202D02*
X405Y202D01*
X424Y202D02*
X429Y202D01*
X444Y202D02*
X449Y202D01*
X468Y202D02*
X473Y202D01*
X492Y202D02*
X498Y202D01*
X507Y202D02*
X512Y202D01*
X592Y202D02*
X597Y202D01*
X619Y202D02*
X624Y202D01*
X643Y202D02*
X648Y202D01*
X719Y202D02*
X724Y202D01*
X751Y202D02*
X777Y202D01*
X794Y202D02*
X823Y202D01*
X845Y202D02*
X852Y202D01*
X1173Y202D02*
X1180Y202D01*
X0Y201D02*
X7Y201D01*
X193Y201D02*
X198Y201D01*
X225Y201D02*
X252Y201D01*
X272Y201D02*
X278Y201D01*
X289Y201D02*
X295Y201D01*
X312Y201D02*
X318Y201D01*
X336Y201D02*
X342Y201D01*
X380Y201D02*
X385Y201D01*
X400Y201D02*
X405Y201D01*
X424Y201D02*
X429Y201D01*
X444Y201D02*
X449Y201D01*
X468Y201D02*
X473Y201D01*
X492Y201D02*
X497Y201D01*
X507Y201D02*
X513Y201D01*
X592Y201D02*
X597Y201D01*
X619Y201D02*
X624Y201D01*
X643Y201D02*
X648Y201D01*
X719Y201D02*
X724Y201D01*
X751Y201D02*
X778Y201D01*
X794Y201D02*
X823Y201D01*
X845Y201D02*
X852Y201D01*
X1173Y201D02*
X1180Y201D01*
X0Y200D02*
X7Y200D01*
X193Y200D02*
X198Y200D01*
X225Y200D02*
X253Y200D01*
X272Y200D02*
X278Y200D01*
X288Y200D02*
X294Y200D01*
X312Y200D02*
X318Y200D01*
X336Y200D02*
X342Y200D01*
X380Y200D02*
X385Y200D01*
X400Y200D02*
X405Y200D01*
X424Y200D02*
X429Y200D01*
X444Y200D02*
X449Y200D01*
X468Y200D02*
X473Y200D01*
X492Y200D02*
X497Y200D01*
X507Y200D02*
X513Y200D01*
X592Y200D02*
X597Y200D01*
X619Y200D02*
X624Y200D01*
X643Y200D02*
X648Y200D01*
X719Y200D02*
X724Y200D01*
X751Y200D02*
X778Y200D01*
X794Y200D02*
X823Y200D01*
X844Y200D02*
X851Y200D01*
X1173Y200D02*
X1180Y200D01*
X0Y199D02*
X7Y199D01*
X193Y199D02*
X198Y199D01*
X225Y199D02*
X253Y199D01*
X273Y199D02*
X279Y199D01*
X288Y199D02*
X294Y199D01*
X312Y199D02*
X318Y199D01*
X336Y199D02*
X342Y199D01*
X380Y199D02*
X385Y199D01*
X400Y199D02*
X405Y199D01*
X424Y199D02*
X429Y199D01*
X444Y199D02*
X449Y199D01*
X468Y199D02*
X473Y199D01*
X491Y199D02*
X513Y199D01*
X592Y199D02*
X597Y199D01*
X619Y199D02*
X624Y199D01*
X643Y199D02*
X648Y199D01*
X719Y199D02*
X724Y199D01*
X751Y199D02*
X779Y199D01*
X794Y199D02*
X823Y199D01*
X843Y199D02*
X850Y199D01*
X1173Y199D02*
X1180Y199D01*
X0Y198D02*
X7Y198D01*
X193Y198D02*
X198Y198D01*
X225Y198D02*
X232Y198D01*
X248Y198D02*
X254Y198D01*
X273Y198D02*
X279Y198D01*
X288Y198D02*
X293Y198D01*
X312Y198D02*
X318Y198D01*
X336Y198D02*
X342Y198D01*
X380Y198D02*
X385Y198D01*
X400Y198D02*
X405Y198D01*
X424Y198D02*
X429Y198D01*
X444Y198D02*
X449Y198D01*
X468Y198D02*
X473Y198D01*
X491Y198D02*
X513Y198D01*
X592Y198D02*
X597Y198D01*
X619Y198D02*
X624Y198D01*
X643Y198D02*
X648Y198D01*
X719Y198D02*
X724Y198D01*
X751Y198D02*
X757Y198D01*
X773Y198D02*
X779Y198D01*
X794Y198D02*
X823Y198D01*
X842Y198D02*
X849Y198D01*
X1173Y198D02*
X1180Y198D01*
X0Y197D02*
X7Y197D01*
X193Y197D02*
X198Y197D01*
X225Y197D02*
X231Y197D01*
X249Y197D02*
X254Y197D01*
X274Y197D02*
X279Y197D01*
X287Y197D02*
X293Y197D01*
X312Y197D02*
X318Y197D01*
X336Y197D02*
X342Y197D01*
X380Y197D02*
X385Y197D01*
X400Y197D02*
X405Y197D01*
X424Y197D02*
X429Y197D01*
X444Y197D02*
X449Y197D01*
X468Y197D02*
X473Y197D01*
X491Y197D02*
X514Y197D01*
X592Y197D02*
X597Y197D01*
X619Y197D02*
X624Y197D01*
X643Y197D02*
X648Y197D01*
X719Y197D02*
X724Y197D01*
X751Y197D02*
X756Y197D01*
X774Y197D02*
X779Y197D01*
X795Y197D02*
X823Y197D01*
X842Y197D02*
X848Y197D01*
X1173Y197D02*
X1180Y197D01*
X0Y196D02*
X7Y196D01*
X193Y196D02*
X198Y196D01*
X225Y196D02*
X230Y196D01*
X249Y196D02*
X254Y196D01*
X274Y196D02*
X280Y196D01*
X287Y196D02*
X292Y196D01*
X312Y196D02*
X318Y196D01*
X336Y196D02*
X342Y196D01*
X380Y196D02*
X385Y196D01*
X400Y196D02*
X405Y196D01*
X424Y196D02*
X429Y196D01*
X444Y196D02*
X449Y196D01*
X468Y196D02*
X473Y196D01*
X490Y196D02*
X514Y196D01*
X592Y196D02*
X597Y196D01*
X619Y196D02*
X624Y196D01*
X643Y196D02*
X648Y196D01*
X719Y196D02*
X724Y196D01*
X751Y196D02*
X756Y196D01*
X774Y196D02*
X779Y196D01*
X797Y196D02*
X823Y196D01*
X841Y196D02*
X848Y196D01*
X1173Y196D02*
X1180Y196D01*
X0Y195D02*
X7Y195D01*
X193Y195D02*
X198Y195D01*
X225Y195D02*
X230Y195D01*
X249Y195D02*
X254Y195D01*
X275Y195D02*
X280Y195D01*
X286Y195D02*
X292Y195D01*
X312Y195D02*
X318Y195D01*
X336Y195D02*
X342Y195D01*
X380Y195D02*
X385Y195D01*
X400Y195D02*
X405Y195D01*
X424Y195D02*
X429Y195D01*
X444Y195D02*
X449Y195D01*
X468Y195D02*
X473Y195D01*
X490Y195D02*
X514Y195D01*
X592Y195D02*
X597Y195D01*
X619Y195D02*
X624Y195D01*
X643Y195D02*
X648Y195D01*
X719Y195D02*
X724Y195D01*
X751Y195D02*
X756Y195D01*
X774Y195D02*
X779Y195D01*
X818Y195D02*
X823Y195D01*
X840Y195D02*
X847Y195D01*
X1173Y195D02*
X1180Y195D01*
X0Y194D02*
X7Y194D01*
X193Y194D02*
X198Y194D01*
X225Y194D02*
X230Y194D01*
X249Y194D02*
X254Y194D01*
X275Y194D02*
X281Y194D01*
X286Y194D02*
X291Y194D01*
X312Y194D02*
X318Y194D01*
X336Y194D02*
X342Y194D01*
X380Y194D02*
X385Y194D01*
X400Y194D02*
X406Y194D01*
X423Y194D02*
X429Y194D01*
X444Y194D02*
X449Y194D01*
X467Y194D02*
X473Y194D01*
X490Y194D02*
X515Y194D01*
X592Y194D02*
X597Y194D01*
X619Y194D02*
X624Y194D01*
X643Y194D02*
X648Y194D01*
X719Y194D02*
X724Y194D01*
X751Y194D02*
X756Y194D01*
X774Y194D02*
X779Y194D01*
X818Y194D02*
X823Y194D01*
X839Y194D02*
X846Y194D01*
X864Y194D02*
X865Y194D01*
X1173Y194D02*
X1180Y194D01*
X0Y193D02*
X7Y193D01*
X193Y193D02*
X198Y193D01*
X225Y193D02*
X231Y193D01*
X249Y193D02*
X254Y193D01*
X276Y193D02*
X281Y193D01*
X285Y193D02*
X291Y193D01*
X313Y193D02*
X318Y193D01*
X336Y193D02*
X342Y193D01*
X380Y193D02*
X385Y193D01*
X400Y193D02*
X406Y193D01*
X422Y193D02*
X429Y193D01*
X444Y193D02*
X450Y193D01*
X466Y193D02*
X473Y193D01*
X490Y193D02*
X495Y193D01*
X510Y193D02*
X515Y193D01*
X592Y193D02*
X597Y193D01*
X619Y193D02*
X624Y193D01*
X643Y193D02*
X648Y193D01*
X719Y193D02*
X724Y193D01*
X751Y193D02*
X756Y193D01*
X774Y193D02*
X779Y193D01*
X818Y193D02*
X823Y193D01*
X839Y193D02*
X845Y193D01*
X863Y193D02*
X866Y193D01*
X1173Y193D02*
X1180Y193D01*
X0Y192D02*
X7Y192D01*
X193Y192D02*
X198Y192D01*
X225Y192D02*
X232Y192D01*
X249Y192D02*
X254Y192D01*
X276Y192D02*
X282Y192D01*
X285Y192D02*
X291Y192D01*
X313Y192D02*
X319Y192D01*
X336Y192D02*
X341Y192D01*
X380Y192D02*
X385Y192D01*
X401Y192D02*
X408Y192D01*
X421Y192D02*
X429Y192D01*
X444Y192D02*
X451Y192D01*
X465Y192D02*
X473Y192D01*
X489Y192D02*
X495Y192D01*
X510Y192D02*
X515Y192D01*
X592Y192D02*
X597Y192D01*
X619Y192D02*
X625Y192D01*
X642Y192D02*
X648Y192D01*
X719Y192D02*
X724Y192D01*
X751Y192D02*
X758Y192D01*
X774Y192D02*
X779Y192D01*
X817Y192D02*
X823Y192D01*
X838Y192D02*
X845Y192D01*
X862Y192D02*
X867Y192D01*
X1173Y192D02*
X1180Y192D01*
X0Y191D02*
X7Y191D01*
X193Y191D02*
X198Y191D01*
X225Y191D02*
X234Y191D01*
X249Y191D02*
X254Y191D01*
X276Y191D02*
X282Y191D01*
X284Y191D02*
X290Y191D01*
X313Y191D02*
X320Y191D01*
X335Y191D02*
X341Y191D01*
X380Y191D02*
X385Y191D01*
X401Y191D02*
X409Y191D01*
X420Y191D02*
X429Y191D01*
X445Y191D02*
X453Y191D01*
X464Y191D02*
X473Y191D01*
X489Y191D02*
X494Y191D01*
X510Y191D02*
X516Y191D01*
X592Y191D02*
X597Y191D01*
X620Y191D02*
X626Y191D01*
X641Y191D02*
X648Y191D01*
X719Y191D02*
X724Y191D01*
X750Y191D02*
X759Y191D01*
X774Y191D02*
X779Y191D01*
X816Y191D02*
X823Y191D01*
X838Y191D02*
X844Y191D01*
X862Y191D02*
X867Y191D01*
X1173Y191D02*
X1180Y191D01*
X0Y190D02*
X7Y190D01*
X193Y190D02*
X198Y190D01*
X225Y190D02*
X236Y190D01*
X248Y190D02*
X254Y190D01*
X277Y190D02*
X290Y190D01*
X313Y190D02*
X321Y190D01*
X333Y190D02*
X341Y190D01*
X380Y190D02*
X385Y190D01*
X402Y190D02*
X410Y190D01*
X419Y190D02*
X429Y190D01*
X446Y190D02*
X454Y190D01*
X463Y190D02*
X473Y190D01*
X489Y190D02*
X494Y190D01*
X510Y190D02*
X516Y190D01*
X592Y190D02*
X597Y190D01*
X620Y190D02*
X627Y190D01*
X640Y190D02*
X647Y190D01*
X719Y190D02*
X724Y190D01*
X750Y190D02*
X761Y190D01*
X773Y190D02*
X779Y190D01*
X815Y190D02*
X822Y190D01*
X838Y190D02*
X843Y190D01*
X861Y190D02*
X867Y190D01*
X1173Y190D02*
X1180Y190D01*
X0Y189D02*
X7Y189D01*
X186Y189D02*
X205Y189D01*
X225Y189D02*
X253Y189D01*
X277Y189D02*
X289Y189D01*
X314Y189D02*
X340Y189D01*
X380Y189D02*
X385Y189D01*
X403Y189D02*
X411Y189D01*
X418Y189D02*
X429Y189D01*
X447Y189D02*
X455Y189D01*
X462Y189D02*
X473Y189D01*
X488Y189D02*
X494Y189D01*
X511Y189D02*
X516Y189D01*
X592Y189D02*
X597Y189D01*
X621Y189D02*
X647Y189D01*
X712Y189D02*
X731Y189D01*
X750Y189D02*
X779Y189D01*
X796Y189D02*
X822Y189D01*
X838Y189D02*
X867Y189D01*
X1173Y189D02*
X1180Y189D01*
X0Y188D02*
X7Y188D01*
X185Y188D02*
X207Y188D01*
X225Y188D02*
X253Y188D01*
X278Y188D02*
X289Y188D01*
X315Y188D02*
X339Y188D01*
X380Y188D02*
X385Y188D01*
X404Y188D02*
X413Y188D01*
X416Y188D02*
X429Y188D01*
X448Y188D02*
X457Y188D01*
X460Y188D02*
X473Y188D01*
X488Y188D02*
X493Y188D01*
X511Y188D02*
X516Y188D01*
X592Y188D02*
X597Y188D01*
X621Y188D02*
X646Y188D01*
X710Y188D02*
X732Y188D01*
X750Y188D02*
X778Y188D01*
X795Y188D02*
X821Y188D01*
X838Y188D02*
X866Y188D01*
X1173Y188D02*
X1180Y188D01*
X0Y187D02*
X7Y187D01*
X184Y187D02*
X207Y187D01*
X225Y187D02*
X252Y187D01*
X278Y187D02*
X288Y187D01*
X316Y187D02*
X338Y187D01*
X380Y187D02*
X385Y187D01*
X405Y187D02*
X429Y187D01*
X449Y187D02*
X473Y187D01*
X488Y187D02*
X493Y187D01*
X511Y187D02*
X517Y187D01*
X592Y187D02*
X597Y187D01*
X622Y187D02*
X645Y187D01*
X710Y187D02*
X733Y187D01*
X750Y187D02*
X778Y187D01*
X794Y187D02*
X820Y187D01*
X839Y187D02*
X866Y187D01*
X1173Y187D02*
X1180Y187D01*
X0Y186D02*
X7Y186D01*
X184Y186D02*
X207Y186D01*
X225Y186D02*
X252Y186D01*
X279Y186D02*
X288Y186D01*
X317Y186D02*
X337Y186D01*
X380Y186D02*
X385Y186D01*
X406Y186D02*
X429Y186D01*
X450Y186D02*
X473Y186D01*
X488Y186D02*
X493Y186D01*
X512Y186D02*
X517Y186D01*
X592Y186D02*
X597Y186D01*
X624Y186D02*
X644Y186D01*
X710Y186D02*
X733Y186D01*
X750Y186D02*
X777Y186D01*
X794Y186D02*
X819Y186D01*
X839Y186D02*
X865Y186D01*
X1173Y186D02*
X1180Y186D01*
X0Y185D02*
X7Y185D01*
X184Y185D02*
X207Y185D01*
X225Y185D02*
X230Y185D01*
X233Y185D02*
X250Y185D01*
X279Y185D02*
X287Y185D01*
X318Y185D02*
X336Y185D01*
X381Y185D02*
X385Y185D01*
X407Y185D02*
X422Y185D01*
X424Y185D02*
X429Y185D01*
X451Y185D02*
X465Y185D01*
X468Y185D02*
X473Y185D01*
X488Y185D02*
X492Y185D01*
X512Y185D02*
X517Y185D01*
X592Y185D02*
X597Y185D01*
X625Y185D02*
X642Y185D01*
X710Y185D02*
X732Y185D01*
X751Y185D02*
X755Y185D01*
X758Y185D02*
X776Y185D01*
X794Y185D02*
X801Y185D01*
X805Y185D02*
X818Y185D01*
X840Y185D02*
X864Y185D01*
X1173Y185D02*
X1180Y185D01*
X0Y184D02*
X7Y184D01*
X185Y184D02*
X206Y184D01*
X226Y184D02*
X229Y184D01*
X235Y184D02*
X249Y184D01*
X280Y184D02*
X287Y184D01*
X320Y184D02*
X334Y184D01*
X381Y184D02*
X384Y184D01*
X409Y184D02*
X421Y184D01*
X424Y184D02*
X429Y184D01*
X452Y184D02*
X464Y184D01*
X468Y184D02*
X473Y184D01*
X489Y184D02*
X492Y184D01*
X513Y184D02*
X516Y184D01*
X593Y184D02*
X594Y184D01*
X626Y184D02*
X641Y184D01*
X713Y184D02*
X732Y184D01*
X751Y184D02*
X754Y184D01*
X760Y184D02*
X774Y184D01*
X813Y184D02*
X816Y184D01*
X841Y184D02*
X862Y184D01*
X1173Y184D02*
X1180Y184D01*
X0Y183D02*
X7Y183D01*
X410Y183D02*
X419Y183D01*
X424Y183D02*
X429Y183D01*
X454Y183D02*
X463Y183D01*
X468Y183D02*
X473Y183D01*
X1173Y183D02*
X1180Y183D01*
X0Y182D02*
X7Y182D01*
X413Y182D02*
X416Y182D01*
X424Y182D02*
X429Y182D01*
X457Y182D02*
X460Y182D01*
X468Y182D02*
X473Y182D01*
X1173Y182D02*
X1180Y182D01*
X0Y181D02*
X7Y181D01*
X424Y181D02*
X429Y181D01*
X468Y181D02*
X473Y181D01*
X1173Y181D02*
X1180Y181D01*
X0Y180D02*
X7Y180D01*
X424Y180D02*
X429Y180D01*
X468Y180D02*
X473Y180D01*
X1173Y180D02*
X1180Y180D01*
X0Y179D02*
X7Y179D01*
X424Y179D02*
X429Y179D01*
X468Y179D02*
X473Y179D01*
X1173Y179D02*
X1180Y179D01*
X0Y178D02*
X7Y178D01*
X424Y178D02*
X429Y178D01*
X468Y178D02*
X473Y178D01*
X1173Y178D02*
X1180Y178D01*
X0Y177D02*
X7Y177D01*
X424Y177D02*
X429Y177D01*
X468Y177D02*
X473Y177D01*
X1173Y177D02*
X1180Y177D01*
X0Y176D02*
X7Y176D01*
X424Y176D02*
X429Y176D01*
X468Y176D02*
X473Y176D01*
X1173Y176D02*
X1180Y176D01*
X0Y175D02*
X7Y175D01*
X424Y175D02*
X429Y175D01*
X468Y175D02*
X473Y175D01*
X1173Y175D02*
X1180Y175D01*
X0Y174D02*
X7Y174D01*
X424Y174D02*
X429Y174D01*
X468Y174D02*
X473Y174D01*
X1173Y174D02*
X1180Y174D01*
X0Y173D02*
X7Y173D01*
X424Y173D02*
X429Y173D01*
X468Y173D02*
X473Y173D01*
X1173Y173D02*
X1180Y173D01*
X0Y172D02*
X7Y172D01*
X424Y172D02*
X429Y172D01*
X468Y172D02*
X473Y172D01*
X1173Y172D02*
X1180Y172D01*
X0Y171D02*
X7Y171D01*
X425Y171D02*
X428Y171D01*
X469Y171D02*
X472Y171D01*
X1173Y171D02*
X1180Y171D01*
X0Y170D02*
X7Y170D01*
X1173Y170D02*
X1180Y170D01*
X0Y169D02*
X7Y169D01*
X1173Y169D02*
X1180Y169D01*
X0Y168D02*
X7Y168D01*
X1173Y168D02*
X1180Y168D01*
X0Y167D02*
X7Y167D01*
X1173Y167D02*
X1180Y167D01*
X0Y166D02*
X7Y166D01*
X1173Y166D02*
X1180Y166D01*
X0Y165D02*
X7Y165D01*
X1173Y165D02*
X1180Y165D01*
X0Y164D02*
X7Y164D01*
X1173Y164D02*
X1180Y164D01*
X0Y163D02*
X7Y163D01*
X1173Y163D02*
X1180Y163D01*
X0Y162D02*
X7Y162D01*
X1173Y162D02*
X1180Y162D01*
X0Y161D02*
X7Y161D01*
X1173Y161D02*
X1180Y161D01*
X0Y160D02*
X7Y160D01*
X1173Y160D02*
X1180Y160D01*
X0Y159D02*
X7Y159D01*
X1173Y159D02*
X1180Y159D01*
X0Y158D02*
X7Y158D01*
X1173Y158D02*
X1180Y158D01*
X0Y157D02*
X7Y157D01*
X1173Y157D02*
X1180Y157D01*
X0Y156D02*
X7Y156D01*
X1173Y156D02*
X1180Y156D01*
X0Y155D02*
X7Y155D01*
X1173Y155D02*
X1180Y155D01*
X0Y154D02*
X7Y154D01*
X1173Y154D02*
X1180Y154D01*
X0Y153D02*
X7Y153D01*
X1173Y153D02*
X1180Y153D01*
X0Y152D02*
X7Y152D01*
X1173Y152D02*
X1180Y152D01*
X0Y151D02*
X7Y151D01*
X1173Y151D02*
X1180Y151D01*
X0Y150D02*
X7Y150D01*
X1173Y150D02*
X1180Y150D01*
X0Y149D02*
X7Y149D01*
X1173Y149D02*
X1180Y149D01*
X0Y148D02*
X7Y148D01*
X1173Y148D02*
X1180Y148D01*
X0Y147D02*
X7Y147D01*
X1173Y147D02*
X1180Y147D01*
X0Y146D02*
X7Y146D01*
X1173Y146D02*
X1180Y146D01*
X0Y145D02*
X7Y145D01*
X1173Y145D02*
X1180Y145D01*
X0Y144D02*
X7Y144D01*
X1173Y144D02*
X1180Y144D01*
X0Y143D02*
X7Y143D01*
X1173Y143D02*
X1180Y143D01*
X0Y142D02*
X7Y142D01*
X1173Y142D02*
X1180Y142D01*
X0Y141D02*
X7Y141D01*
X1173Y141D02*
X1180Y141D01*
X0Y140D02*
X7Y140D01*
X1173Y140D02*
X1180Y140D01*
X0Y139D02*
X7Y139D01*
X1173Y139D02*
X1180Y139D01*
X0Y138D02*
X7Y138D01*
X1173Y138D02*
X1180Y138D01*
X0Y137D02*
X7Y137D01*
X1173Y137D02*
X1180Y137D01*
X0Y136D02*
X7Y136D01*
X1173Y136D02*
X1180Y136D01*
X0Y135D02*
X7Y135D01*
X1173Y135D02*
X1180Y135D01*
X0Y134D02*
X7Y134D01*
X1173Y134D02*
X1180Y134D01*
X0Y133D02*
X7Y133D01*
X1173Y133D02*
X1180Y133D01*
X0Y132D02*
X7Y132D01*
X1173Y132D02*
X1180Y132D01*
X0Y131D02*
X7Y131D01*
X1173Y131D02*
X1180Y131D01*
X0Y130D02*
X7Y130D01*
X1173Y130D02*
X1180Y130D01*
X0Y129D02*
X7Y129D01*
X1173Y129D02*
X1180Y129D01*
X0Y128D02*
X7Y128D01*
X1173Y128D02*
X1180Y128D01*
X0Y127D02*
X7Y127D01*
X1173Y127D02*
X1180Y127D01*
X0Y126D02*
X7Y126D01*
X1173Y126D02*
X1180Y126D01*
X0Y125D02*
X7Y125D01*
X1173Y125D02*
X1180Y125D01*
X0Y124D02*
X7Y124D01*
X1173Y124D02*
X1180Y124D01*
X0Y123D02*
X7Y123D01*
X1173Y123D02*
X1180Y123D01*
X0Y122D02*
X7Y122D01*
X1173Y122D02*
X1180Y122D01*
X0Y121D02*
X7Y121D01*
X1173Y121D02*
X1180Y121D01*
X0Y120D02*
X7Y120D01*
X1173Y120D02*
X1180Y120D01*
X0Y119D02*
X7Y119D01*
X1173Y119D02*
X1180Y119D01*
X0Y118D02*
X7Y118D01*
X1173Y118D02*
X1180Y118D01*
X0Y117D02*
X7Y117D01*
X1173Y117D02*
X1180Y117D01*
X0Y116D02*
X7Y116D01*
X1173Y116D02*
X1180Y116D01*
X0Y115D02*
X7Y115D01*
X1173Y115D02*
X1180Y115D01*
X0Y114D02*
X7Y114D01*
X1173Y114D02*
X1180Y114D01*
X0Y113D02*
X7Y113D01*
X1173Y113D02*
X1180Y113D01*
X0Y112D02*
X7Y112D01*
X1173Y112D02*
X1180Y112D01*
X0Y111D02*
X7Y111D01*
X1173Y111D02*
X1180Y111D01*
X0Y110D02*
X7Y110D01*
X1173Y110D02*
X1180Y110D01*
X0Y109D02*
X7Y109D01*
X1173Y109D02*
X1180Y109D01*
X0Y108D02*
X7Y108D01*
X1173Y108D02*
X1180Y108D01*
X0Y107D02*
X7Y107D01*
X1173Y107D02*
X1180Y107D01*
X0Y106D02*
X7Y106D01*
X1173Y106D02*
X1180Y106D01*
X0Y105D02*
X7Y105D01*
X1173Y105D02*
X1180Y105D01*
X0Y104D02*
X7Y104D01*
X1173Y104D02*
X1180Y104D01*
X0Y103D02*
X7Y103D01*
X1173Y103D02*
X1180Y103D01*
X0Y102D02*
X7Y102D01*
X1173Y102D02*
X1180Y102D01*
X0Y101D02*
X7Y101D01*
X1173Y101D02*
X1180Y101D01*
X0Y100D02*
X7Y100D01*
X1173Y100D02*
X1180Y100D01*
X0Y99D02*
X7Y99D01*
X1173Y99D02*
X1180Y99D01*
X0Y98D02*
X7Y98D01*
X1173Y98D02*
X1180Y98D01*
X0Y97D02*
X7Y97D01*
X1173Y97D02*
X1180Y97D01*
X0Y96D02*
X7Y96D01*
X1173Y96D02*
X1180Y96D01*
X0Y95D02*
X7Y95D01*
X1173Y95D02*
X1180Y95D01*
X0Y94D02*
X7Y94D01*
X1173Y94D02*
X1180Y94D01*
X0Y93D02*
X7Y93D01*
X1173Y93D02*
X1180Y93D01*
X0Y92D02*
X7Y92D01*
X1173Y92D02*
X1180Y92D01*
X0Y91D02*
X7Y91D01*
X1173Y91D02*
X1180Y91D01*
X0Y90D02*
X7Y90D01*
X1173Y90D02*
X1180Y90D01*
X0Y89D02*
X7Y89D01*
X1173Y89D02*
X1180Y89D01*
X0Y88D02*
X7Y88D01*
X1173Y88D02*
X1180Y88D01*
X0Y87D02*
X7Y87D01*
X1173Y87D02*
X1180Y87D01*
X0Y86D02*
X7Y86D01*
X1173Y86D02*
X1180Y86D01*
X0Y85D02*
X7Y85D01*
X1173Y85D02*
X1180Y85D01*
X0Y84D02*
X7Y84D01*
X1173Y84D02*
X1180Y84D01*
X0Y83D02*
X7Y83D01*
X1173Y83D02*
X1180Y83D01*
X0Y82D02*
X7Y82D01*
X1173Y82D02*
X1180Y82D01*
X0Y81D02*
X7Y81D01*
X1173Y81D02*
X1180Y81D01*
X0Y80D02*
X7Y80D01*
X1173Y80D02*
X1180Y80D01*
X0Y79D02*
X7Y79D01*
X1173Y79D02*
X1180Y79D01*
X0Y78D02*
X7Y78D01*
X1173Y78D02*
X1180Y78D01*
X0Y77D02*
X7Y77D01*
X1173Y77D02*
X1180Y77D01*
X0Y76D02*
X7Y76D01*
X1173Y76D02*
X1180Y76D01*
X0Y75D02*
X7Y75D01*
X1173Y75D02*
X1180Y75D01*
X0Y74D02*
X7Y74D01*
X1173Y74D02*
X1180Y74D01*
X0Y73D02*
X7Y73D01*
X1173Y73D02*
X1180Y73D01*
X0Y72D02*
X7Y72D01*
X1173Y72D02*
X1180Y72D01*
X0Y71D02*
X7Y71D01*
X1173Y71D02*
X1180Y71D01*
X0Y70D02*
X7Y70D01*
X1173Y70D02*
X1180Y70D01*
X0Y69D02*
X7Y69D01*
X1173Y69D02*
X1180Y69D01*
X0Y68D02*
X7Y68D01*
X1173Y68D02*
X1180Y68D01*
X0Y67D02*
X7Y67D01*
X1173Y67D02*
X1180Y67D01*
X0Y66D02*
X7Y66D01*
X1173Y66D02*
X1180Y66D01*
X0Y65D02*
X7Y65D01*
X1173Y65D02*
X1180Y65D01*
X0Y64D02*
X7Y64D01*
X1173Y64D02*
X1180Y64D01*
X0Y63D02*
X7Y63D01*
X1173Y63D02*
X1180Y63D01*
X0Y62D02*
X7Y62D01*
X1173Y62D02*
X1180Y62D01*
X0Y61D02*
X7Y61D01*
X1173Y61D02*
X1180Y61D01*
X0Y60D02*
X7Y60D01*
X1173Y60D02*
X1180Y60D01*
X0Y59D02*
X7Y59D01*
X1173Y59D02*
X1180Y59D01*
X0Y58D02*
X7Y58D01*
X1173Y58D02*
X1180Y58D01*
X0Y57D02*
X7Y57D01*
X1173Y57D02*
X1180Y57D01*
X0Y56D02*
X7Y56D01*
X1173Y56D02*
X1180Y56D01*
X0Y55D02*
X7Y55D01*
X1173Y55D02*
X1180Y55D01*
X0Y54D02*
X7Y54D01*
X1173Y54D02*
X1180Y54D01*
X0Y53D02*
X7Y53D01*
X1173Y53D02*
X1180Y53D01*
X0Y52D02*
X7Y52D01*
X1173Y52D02*
X1180Y52D01*
X0Y51D02*
X7Y51D01*
X1173Y51D02*
X1180Y51D01*
X0Y50D02*
X7Y50D01*
X1173Y50D02*
X1180Y50D01*
X0Y49D02*
X7Y49D01*
X1173Y49D02*
X1180Y49D01*
X0Y48D02*
X7Y48D01*
X1173Y48D02*
X1180Y48D01*
X0Y47D02*
X7Y47D01*
X1173Y47D02*
X1180Y47D01*
X0Y46D02*
X7Y46D01*
X1173Y46D02*
X1180Y46D01*
X0Y45D02*
X7Y45D01*
X1173Y45D02*
X1180Y45D01*
X0Y44D02*
X7Y44D01*
X1173Y44D02*
X1180Y44D01*
X0Y43D02*
X7Y43D01*
X1173Y43D02*
X1180Y43D01*
X0Y42D02*
X7Y42D01*
X1173Y42D02*
X1180Y42D01*
X0Y41D02*
X7Y41D01*
X1173Y41D02*
X1180Y41D01*
X0Y40D02*
X7Y40D01*
X1173Y40D02*
X1180Y40D01*
X0Y39D02*
X7Y39D01*
X1173Y39D02*
X1180Y39D01*
X0Y38D02*
X7Y38D01*
X1173Y38D02*
X1180Y38D01*
X0Y37D02*
X7Y37D01*
X1173Y37D02*
X1180Y37D01*
X0Y36D02*
X7Y36D01*
X1173Y36D02*
X1180Y36D01*
X0Y35D02*
X7Y35D01*
X1173Y35D02*
X1180Y35D01*
X0Y34D02*
X7Y34D01*
X1173Y34D02*
X1180Y34D01*
X0Y33D02*
X7Y33D01*
X1173Y33D02*
X1180Y33D01*
X0Y32D02*
X7Y32D01*
X1173Y32D02*
X1180Y32D01*
X0Y31D02*
X7Y31D01*
X1173Y31D02*
X1180Y31D01*
X0Y30D02*
X7Y30D01*
X1173Y30D02*
X1180Y30D01*
X0Y29D02*
X7Y29D01*
X1173Y29D02*
X1180Y29D01*
X0Y28D02*
X7Y28D01*
X1173Y28D02*
X1180Y28D01*
X0Y27D02*
X7Y27D01*
X1173Y27D02*
X1180Y27D01*
X0Y26D02*
X7Y26D01*
X1173Y26D02*
X1180Y26D01*
X0Y25D02*
X7Y25D01*
X1173Y25D02*
X1180Y25D01*
X0Y24D02*
X7Y24D01*
X1173Y24D02*
X1180Y24D01*
X0Y23D02*
X7Y23D01*
X1173Y23D02*
X1180Y23D01*
X0Y22D02*
X7Y22D01*
X1173Y22D02*
X1180Y22D01*
X0Y21D02*
X7Y21D01*
X1173Y21D02*
X1180Y21D01*
X0Y20D02*
X7Y20D01*
X1173Y20D02*
X1180Y20D01*
X0Y19D02*
X7Y19D01*
X1173Y19D02*
X1180Y19D01*
X0Y18D02*
X7Y18D01*
X1173Y18D02*
X1180Y18D01*
X0Y17D02*
X7Y17D01*
X1173Y17D02*
X1180Y17D01*
X0Y16D02*
X7Y16D01*
X1173Y16D02*
X1180Y16D01*
X0Y15D02*
X7Y15D01*
X1173Y15D02*
X1180Y15D01*
X0Y14D02*
X7Y14D01*
X1173Y14D02*
X1180Y14D01*
X0Y13D02*
X7Y13D01*
X1173Y13D02*
X1180Y13D01*
X0Y12D02*
X7Y12D01*
X1173Y12D02*
X1180Y12D01*
X0Y11D02*
X7Y11D01*
X1173Y11D02*
X1180Y11D01*
X0Y10D02*
X7Y10D01*
X1173Y10D02*
X1180Y10D01*
X0Y9D02*
X7Y9D01*
X1173Y9D02*
X1180Y9D01*
X0Y8D02*
X174Y8D01*
X203Y8D02*
X351Y8D01*
X381Y8D02*
X1180Y8D01*
X0Y7D02*
X177Y7D01*
X200Y7D02*
X354Y7D01*
X377Y7D02*
X1180Y7D01*
X0Y6D02*
X182Y6D01*
X195Y6D02*
X359Y6D01*
X373Y6D02*
X1180Y6D01*
X0Y5D02*
X1180Y5D01*
X0Y4D02*
X1180Y4D01*
X0Y3D02*
X1180Y3D01*
X0Y2D02*
X1180Y2D01*
X0Y1D02*
X1180Y1D01*
D02*
G04 End of Silk0*
M02*