G04 MADE WITH FRITZING*
G04 WWW.FRITZING.ORG*
G04 DOUBLE SIDED*
G04 HOLES PLATED*
G04 CONTOUR ON CENTER OF CONTOUR VECTOR*
%ASAXBY*%
%FSLAX23Y23*%
%MOIN*%
%OFA0B0*%
%SFA1.0B1.0*%
%ADD10C,0.060921X0.0509212*%
%ADD11C,0.010000*%
%ADD12C,0.005000*%
%ADD13R,0.001000X0.001000*%
%LNSILK1*%
G90*
G70*
G54D10*
X424Y759D03*
G54D11*
X884Y386D02*
X884Y86D01*
D02*
X884Y86D02*
X984Y86D01*
D02*
X984Y86D02*
X984Y386D01*
D02*
X984Y386D02*
X884Y386D01*
D02*
X177Y556D02*
X177Y756D01*
D02*
X177Y756D02*
X243Y756D01*
D02*
X243Y756D02*
X243Y556D01*
D02*
X243Y556D02*
X177Y556D01*
D02*
X634Y206D02*
X774Y206D01*
D02*
X238Y293D02*
X317Y293D01*
D02*
X159Y97D02*
X159Y264D01*
D02*
X396Y97D02*
X396Y264D01*
D02*
X238Y57D02*
X317Y57D01*
D02*
X258Y175D02*
X297Y175D01*
D02*
X278Y195D02*
X278Y156D01*
D02*
X845Y1042D02*
X845Y756D01*
D02*
X845Y756D02*
X1061Y756D01*
D02*
X1061Y756D02*
X1061Y1042D01*
D02*
X1061Y1042D02*
X845Y1042D01*
G54D12*
D02*
X1021Y756D02*
X1021Y1042D01*
G54D11*
D02*
X845Y741D02*
X845Y455D01*
D02*
X845Y455D02*
X1061Y455D01*
D02*
X1061Y455D02*
X1061Y741D01*
D02*
X1061Y741D02*
X845Y741D01*
G54D12*
D02*
X1021Y455D02*
X1021Y741D01*
D02*
X267Y936D02*
X267Y346D01*
D02*
X818Y346D02*
X818Y936D01*
D02*
X413Y938D02*
X413Y1051D01*
D02*
X673Y1051D02*
X673Y937D01*
D02*
X413Y345D02*
X413Y231D01*
D02*
X673Y231D02*
X673Y345D01*
G54D13*
X0Y1181D02*
X1180Y1181D01*
X0Y1180D02*
X1180Y1180D01*
X0Y1179D02*
X1180Y1179D01*
X0Y1178D02*
X1180Y1178D01*
X0Y1177D02*
X1180Y1177D01*
X0Y1176D02*
X1180Y1176D01*
X0Y1175D02*
X1180Y1175D01*
X0Y1174D02*
X1180Y1174D01*
X0Y1173D02*
X7Y1173D01*
X1173Y1173D02*
X1180Y1173D01*
X0Y1172D02*
X7Y1172D01*
X1173Y1172D02*
X1180Y1172D01*
X0Y1171D02*
X7Y1171D01*
X1173Y1171D02*
X1180Y1171D01*
X0Y1170D02*
X7Y1170D01*
X1173Y1170D02*
X1180Y1170D01*
X0Y1169D02*
X7Y1169D01*
X1173Y1169D02*
X1180Y1169D01*
X0Y1168D02*
X7Y1168D01*
X1173Y1168D02*
X1180Y1168D01*
X0Y1167D02*
X7Y1167D01*
X1173Y1167D02*
X1180Y1167D01*
X0Y1166D02*
X7Y1166D01*
X1173Y1166D02*
X1180Y1166D01*
X0Y1165D02*
X7Y1165D01*
X1173Y1165D02*
X1180Y1165D01*
X0Y1164D02*
X7Y1164D01*
X1173Y1164D02*
X1180Y1164D01*
X0Y1163D02*
X7Y1163D01*
X1173Y1163D02*
X1180Y1163D01*
X0Y1162D02*
X7Y1162D01*
X1173Y1162D02*
X1180Y1162D01*
X0Y1161D02*
X7Y1161D01*
X1173Y1161D02*
X1180Y1161D01*
X0Y1160D02*
X7Y1160D01*
X1173Y1160D02*
X1180Y1160D01*
X0Y1159D02*
X7Y1159D01*
X1173Y1159D02*
X1180Y1159D01*
X0Y1158D02*
X7Y1158D01*
X1173Y1158D02*
X1180Y1158D01*
X0Y1157D02*
X7Y1157D01*
X1173Y1157D02*
X1180Y1157D01*
X0Y1156D02*
X7Y1156D01*
X1173Y1156D02*
X1180Y1156D01*
X0Y1155D02*
X7Y1155D01*
X1173Y1155D02*
X1180Y1155D01*
X0Y1154D02*
X7Y1154D01*
X1173Y1154D02*
X1180Y1154D01*
X0Y1153D02*
X7Y1153D01*
X1173Y1153D02*
X1180Y1153D01*
X0Y1152D02*
X7Y1152D01*
X1173Y1152D02*
X1180Y1152D01*
X0Y1151D02*
X7Y1151D01*
X1173Y1151D02*
X1180Y1151D01*
X0Y1150D02*
X7Y1150D01*
X1173Y1150D02*
X1180Y1150D01*
X0Y1149D02*
X7Y1149D01*
X1173Y1149D02*
X1180Y1149D01*
X0Y1148D02*
X7Y1148D01*
X1173Y1148D02*
X1180Y1148D01*
X0Y1147D02*
X7Y1147D01*
X1173Y1147D02*
X1180Y1147D01*
X0Y1146D02*
X7Y1146D01*
X1173Y1146D02*
X1180Y1146D01*
X0Y1145D02*
X7Y1145D01*
X1173Y1145D02*
X1180Y1145D01*
X0Y1144D02*
X7Y1144D01*
X1173Y1144D02*
X1180Y1144D01*
X0Y1143D02*
X7Y1143D01*
X1173Y1143D02*
X1180Y1143D01*
X0Y1142D02*
X7Y1142D01*
X1173Y1142D02*
X1180Y1142D01*
X0Y1141D02*
X7Y1141D01*
X1173Y1141D02*
X1180Y1141D01*
X0Y1140D02*
X7Y1140D01*
X1173Y1140D02*
X1180Y1140D01*
X0Y1139D02*
X7Y1139D01*
X1173Y1139D02*
X1180Y1139D01*
X0Y1138D02*
X7Y1138D01*
X149Y1138D02*
X174Y1138D01*
X223Y1138D02*
X225Y1138D01*
X246Y1138D02*
X272Y1138D01*
X299Y1138D02*
X323Y1138D01*
X350Y1138D02*
X373Y1138D01*
X446Y1138D02*
X478Y1138D01*
X513Y1138D02*
X514Y1138D01*
X547Y1138D02*
X573Y1138D01*
X654Y1138D02*
X675Y1138D01*
X699Y1138D02*
X725Y1138D01*
X752Y1138D02*
X753Y1138D01*
X802Y1138D02*
X832Y1138D01*
X851Y1138D02*
X885Y1138D01*
X901Y1138D02*
X935Y1138D01*
X952Y1138D02*
X983Y1138D01*
X1003Y1138D02*
X1028Y1138D01*
X1173Y1138D02*
X1180Y1138D01*
X0Y1137D02*
X7Y1137D01*
X149Y1137D02*
X175Y1137D01*
X222Y1137D02*
X226Y1137D01*
X245Y1137D02*
X274Y1137D01*
X298Y1137D02*
X324Y1137D01*
X348Y1137D02*
X375Y1137D01*
X446Y1137D02*
X479Y1137D01*
X512Y1137D02*
X515Y1137D01*
X547Y1137D02*
X575Y1137D01*
X653Y1137D02*
X677Y1137D01*
X699Y1137D02*
X727Y1137D01*
X751Y1137D02*
X754Y1137D01*
X801Y1137D02*
X833Y1137D01*
X851Y1137D02*
X885Y1137D01*
X901Y1137D02*
X935Y1137D01*
X952Y1137D02*
X985Y1137D01*
X1003Y1137D02*
X1030Y1137D01*
X1173Y1137D02*
X1180Y1137D01*
X0Y1136D02*
X7Y1136D01*
X149Y1136D02*
X176Y1136D01*
X221Y1136D02*
X226Y1136D01*
X244Y1136D02*
X275Y1136D01*
X297Y1136D02*
X325Y1136D01*
X347Y1136D02*
X376Y1136D01*
X446Y1136D02*
X479Y1136D01*
X511Y1136D02*
X516Y1136D01*
X547Y1136D02*
X576Y1136D01*
X651Y1136D02*
X678Y1136D01*
X699Y1136D02*
X728Y1136D01*
X750Y1136D02*
X755Y1136D01*
X801Y1136D02*
X833Y1136D01*
X851Y1136D02*
X885Y1136D01*
X901Y1136D02*
X935Y1136D01*
X952Y1136D02*
X985Y1136D01*
X1003Y1136D02*
X1031Y1136D01*
X1173Y1136D02*
X1180Y1136D01*
X0Y1135D02*
X7Y1135D01*
X149Y1135D02*
X176Y1135D01*
X221Y1135D02*
X227Y1135D01*
X244Y1135D02*
X276Y1135D01*
X296Y1135D02*
X326Y1135D01*
X347Y1135D02*
X377Y1135D01*
X446Y1135D02*
X480Y1135D01*
X511Y1135D02*
X516Y1135D01*
X547Y1135D02*
X577Y1135D01*
X651Y1135D02*
X679Y1135D01*
X699Y1135D02*
X729Y1135D01*
X750Y1135D02*
X755Y1135D01*
X800Y1135D02*
X834Y1135D01*
X851Y1135D02*
X885Y1135D01*
X901Y1135D02*
X935Y1135D01*
X952Y1135D02*
X986Y1135D01*
X1003Y1135D02*
X1032Y1135D01*
X1173Y1135D02*
X1180Y1135D01*
X0Y1134D02*
X7Y1134D01*
X149Y1134D02*
X176Y1134D01*
X220Y1134D02*
X227Y1134D01*
X244Y1134D02*
X276Y1134D01*
X295Y1134D02*
X327Y1134D01*
X346Y1134D02*
X377Y1134D01*
X446Y1134D02*
X480Y1134D01*
X510Y1134D02*
X517Y1134D01*
X547Y1134D02*
X578Y1134D01*
X650Y1134D02*
X680Y1134D01*
X699Y1134D02*
X730Y1134D01*
X750Y1134D02*
X756Y1134D01*
X800Y1134D02*
X834Y1134D01*
X851Y1134D02*
X885Y1134D01*
X901Y1134D02*
X935Y1134D01*
X952Y1134D02*
X986Y1134D01*
X1003Y1134D02*
X1033Y1134D01*
X1173Y1134D02*
X1180Y1134D01*
X0Y1133D02*
X7Y1133D01*
X149Y1133D02*
X176Y1133D01*
X220Y1133D02*
X227Y1133D01*
X244Y1133D02*
X277Y1133D01*
X295Y1133D02*
X327Y1133D01*
X346Y1133D02*
X378Y1133D01*
X446Y1133D02*
X480Y1133D01*
X510Y1133D02*
X517Y1133D01*
X547Y1133D02*
X578Y1133D01*
X650Y1133D02*
X680Y1133D01*
X699Y1133D02*
X730Y1133D01*
X750Y1133D02*
X756Y1133D01*
X800Y1133D02*
X834Y1133D01*
X851Y1133D02*
X885Y1133D01*
X901Y1133D02*
X935Y1133D01*
X952Y1133D02*
X986Y1133D01*
X1003Y1133D02*
X1034Y1133D01*
X1173Y1133D02*
X1180Y1133D01*
X0Y1132D02*
X7Y1132D01*
X149Y1132D02*
X176Y1132D01*
X220Y1132D02*
X227Y1132D01*
X244Y1132D02*
X277Y1132D01*
X295Y1132D02*
X328Y1132D01*
X345Y1132D02*
X378Y1132D01*
X446Y1132D02*
X480Y1132D01*
X510Y1132D02*
X517Y1132D01*
X547Y1132D02*
X579Y1132D01*
X649Y1132D02*
X681Y1132D01*
X699Y1132D02*
X731Y1132D01*
X750Y1132D02*
X756Y1132D01*
X800Y1132D02*
X834Y1132D01*
X851Y1132D02*
X885Y1132D01*
X901Y1132D02*
X935Y1132D01*
X952Y1132D02*
X986Y1132D01*
X1003Y1132D02*
X1034Y1132D01*
X1173Y1132D02*
X1180Y1132D01*
X0Y1131D02*
X7Y1131D01*
X149Y1131D02*
X176Y1131D01*
X219Y1131D02*
X226Y1131D01*
X244Y1131D02*
X277Y1131D01*
X294Y1131D02*
X328Y1131D01*
X345Y1131D02*
X378Y1131D01*
X446Y1131D02*
X479Y1131D01*
X510Y1131D02*
X517Y1131D01*
X547Y1131D02*
X579Y1131D01*
X649Y1131D02*
X681Y1131D01*
X699Y1131D02*
X731Y1131D01*
X750Y1131D02*
X756Y1131D01*
X801Y1131D02*
X834Y1131D01*
X851Y1131D02*
X885Y1131D01*
X901Y1131D02*
X935Y1131D01*
X952Y1131D02*
X985Y1131D01*
X1003Y1131D02*
X1035Y1131D01*
X1173Y1131D02*
X1180Y1131D01*
X0Y1130D02*
X7Y1130D01*
X149Y1130D02*
X175Y1130D01*
X219Y1130D02*
X226Y1130D01*
X245Y1130D02*
X277Y1130D01*
X294Y1130D02*
X328Y1130D01*
X345Y1130D02*
X379Y1130D01*
X446Y1130D02*
X479Y1130D01*
X510Y1130D02*
X517Y1130D01*
X547Y1130D02*
X580Y1130D01*
X649Y1130D02*
X682Y1130D01*
X699Y1130D02*
X732Y1130D01*
X750Y1130D02*
X756Y1130D01*
X801Y1130D02*
X833Y1130D01*
X851Y1130D02*
X885Y1130D01*
X901Y1130D02*
X935Y1130D01*
X952Y1130D02*
X985Y1130D01*
X1003Y1130D02*
X1035Y1130D01*
X1173Y1130D02*
X1180Y1130D01*
X0Y1129D02*
X7Y1129D01*
X149Y1129D02*
X174Y1129D01*
X218Y1129D02*
X226Y1129D01*
X245Y1129D02*
X277Y1129D01*
X294Y1129D02*
X328Y1129D01*
X345Y1129D02*
X379Y1129D01*
X446Y1129D02*
X478Y1129D01*
X509Y1129D02*
X518Y1129D01*
X547Y1129D02*
X580Y1129D01*
X648Y1129D02*
X682Y1129D01*
X699Y1129D02*
X732Y1129D01*
X750Y1129D02*
X756Y1129D01*
X802Y1129D02*
X832Y1129D01*
X851Y1129D02*
X885Y1129D01*
X901Y1129D02*
X935Y1129D01*
X952Y1129D02*
X984Y1129D01*
X1003Y1129D02*
X1036Y1129D01*
X1173Y1129D02*
X1180Y1129D01*
X0Y1128D02*
X7Y1128D01*
X149Y1128D02*
X156Y1128D01*
X218Y1128D02*
X225Y1128D01*
X271Y1128D02*
X277Y1128D01*
X294Y1128D02*
X300Y1128D01*
X322Y1128D02*
X328Y1128D01*
X345Y1128D02*
X351Y1128D01*
X372Y1128D02*
X379Y1128D01*
X446Y1128D02*
X452Y1128D01*
X509Y1128D02*
X518Y1128D01*
X547Y1128D02*
X553Y1128D01*
X572Y1128D02*
X580Y1128D01*
X648Y1128D02*
X655Y1128D01*
X675Y1128D02*
X682Y1128D01*
X699Y1128D02*
X705Y1128D01*
X724Y1128D02*
X732Y1128D01*
X750Y1128D02*
X756Y1128D01*
X814Y1128D02*
X820Y1128D01*
X851Y1128D02*
X857Y1128D01*
X864Y1128D02*
X871Y1128D01*
X878Y1128D02*
X885Y1128D01*
X901Y1128D02*
X908Y1128D01*
X915Y1128D02*
X921Y1128D01*
X929Y1128D02*
X935Y1128D01*
X952Y1128D02*
X958Y1128D01*
X1003Y1128D02*
X1009Y1128D01*
X1028Y1128D02*
X1036Y1128D01*
X1173Y1128D02*
X1180Y1128D01*
X0Y1127D02*
X7Y1127D01*
X149Y1127D02*
X155Y1127D01*
X218Y1127D02*
X225Y1127D01*
X271Y1127D02*
X277Y1127D01*
X294Y1127D02*
X300Y1127D01*
X322Y1127D02*
X328Y1127D01*
X345Y1127D02*
X351Y1127D01*
X373Y1127D02*
X379Y1127D01*
X446Y1127D02*
X452Y1127D01*
X509Y1127D02*
X518Y1127D01*
X547Y1127D02*
X553Y1127D01*
X574Y1127D02*
X581Y1127D01*
X648Y1127D02*
X654Y1127D01*
X676Y1127D02*
X682Y1127D01*
X699Y1127D02*
X705Y1127D01*
X725Y1127D02*
X732Y1127D01*
X750Y1127D02*
X756Y1127D01*
X814Y1127D02*
X820Y1127D01*
X851Y1127D02*
X857Y1127D01*
X865Y1127D02*
X871Y1127D01*
X879Y1127D02*
X885Y1127D01*
X901Y1127D02*
X907Y1127D01*
X915Y1127D02*
X921Y1127D01*
X929Y1127D02*
X935Y1127D01*
X952Y1127D02*
X958Y1127D01*
X1003Y1127D02*
X1009Y1127D01*
X1029Y1127D02*
X1036Y1127D01*
X1173Y1127D02*
X1180Y1127D01*
X0Y1126D02*
X7Y1126D01*
X149Y1126D02*
X155Y1126D01*
X217Y1126D02*
X224Y1126D01*
X271Y1126D02*
X277Y1126D01*
X294Y1126D02*
X300Y1126D01*
X322Y1126D02*
X328Y1126D01*
X345Y1126D02*
X351Y1126D01*
X373Y1126D02*
X379Y1126D01*
X446Y1126D02*
X452Y1126D01*
X509Y1126D02*
X518Y1126D01*
X547Y1126D02*
X553Y1126D01*
X574Y1126D02*
X581Y1126D01*
X648Y1126D02*
X655Y1126D01*
X676Y1126D02*
X682Y1126D01*
X699Y1126D02*
X705Y1126D01*
X726Y1126D02*
X733Y1126D01*
X750Y1126D02*
X756Y1126D01*
X814Y1126D02*
X820Y1126D01*
X851Y1126D02*
X857Y1126D01*
X865Y1126D02*
X871Y1126D01*
X879Y1126D02*
X885Y1126D01*
X901Y1126D02*
X907Y1126D01*
X915Y1126D02*
X921Y1126D01*
X929Y1126D02*
X935Y1126D01*
X952Y1126D02*
X958Y1126D01*
X1003Y1126D02*
X1009Y1126D01*
X1030Y1126D02*
X1036Y1126D01*
X1173Y1126D02*
X1180Y1126D01*
X0Y1125D02*
X7Y1125D01*
X149Y1125D02*
X155Y1125D01*
X217Y1125D02*
X224Y1125D01*
X271Y1125D02*
X277Y1125D01*
X294Y1125D02*
X300Y1125D01*
X322Y1125D02*
X328Y1125D01*
X345Y1125D02*
X351Y1125D01*
X373Y1125D02*
X379Y1125D01*
X446Y1125D02*
X452Y1125D01*
X509Y1125D02*
X518Y1125D01*
X547Y1125D02*
X553Y1125D01*
X575Y1125D02*
X581Y1125D01*
X648Y1125D02*
X655Y1125D01*
X676Y1125D02*
X682Y1125D01*
X699Y1125D02*
X705Y1125D01*
X726Y1125D02*
X733Y1125D01*
X750Y1125D02*
X756Y1125D01*
X814Y1125D02*
X820Y1125D01*
X851Y1125D02*
X857Y1125D01*
X865Y1125D02*
X871Y1125D01*
X879Y1125D02*
X885Y1125D01*
X901Y1125D02*
X907Y1125D01*
X915Y1125D02*
X921Y1125D01*
X929Y1125D02*
X935Y1125D01*
X952Y1125D02*
X958Y1125D01*
X1003Y1125D02*
X1009Y1125D01*
X1030Y1125D02*
X1036Y1125D01*
X1173Y1125D02*
X1180Y1125D01*
X0Y1124D02*
X7Y1124D01*
X149Y1124D02*
X155Y1124D01*
X216Y1124D02*
X224Y1124D01*
X271Y1124D02*
X277Y1124D01*
X294Y1124D02*
X300Y1124D01*
X322Y1124D02*
X328Y1124D01*
X345Y1124D02*
X351Y1124D01*
X373Y1124D02*
X379Y1124D01*
X446Y1124D02*
X452Y1124D01*
X508Y1124D02*
X519Y1124D01*
X547Y1124D02*
X553Y1124D01*
X575Y1124D02*
X581Y1124D01*
X649Y1124D02*
X656Y1124D01*
X676Y1124D02*
X682Y1124D01*
X699Y1124D02*
X705Y1124D01*
X727Y1124D02*
X733Y1124D01*
X750Y1124D02*
X756Y1124D01*
X814Y1124D02*
X820Y1124D01*
X851Y1124D02*
X857Y1124D01*
X865Y1124D02*
X871Y1124D01*
X879Y1124D02*
X885Y1124D01*
X901Y1124D02*
X907Y1124D01*
X915Y1124D02*
X921Y1124D01*
X929Y1124D02*
X935Y1124D01*
X952Y1124D02*
X958Y1124D01*
X1003Y1124D02*
X1009Y1124D01*
X1030Y1124D02*
X1036Y1124D01*
X1173Y1124D02*
X1180Y1124D01*
X0Y1123D02*
X7Y1123D01*
X149Y1123D02*
X155Y1123D01*
X216Y1123D02*
X223Y1123D01*
X271Y1123D02*
X277Y1123D01*
X294Y1123D02*
X300Y1123D01*
X322Y1123D02*
X328Y1123D01*
X345Y1123D02*
X351Y1123D01*
X373Y1123D02*
X379Y1123D01*
X446Y1123D02*
X452Y1123D01*
X508Y1123D02*
X519Y1123D01*
X547Y1123D02*
X553Y1123D01*
X575Y1123D02*
X581Y1123D01*
X649Y1123D02*
X656Y1123D01*
X676Y1123D02*
X682Y1123D01*
X699Y1123D02*
X705Y1123D01*
X727Y1123D02*
X733Y1123D01*
X750Y1123D02*
X756Y1123D01*
X814Y1123D02*
X820Y1123D01*
X851Y1123D02*
X857Y1123D01*
X865Y1123D02*
X871Y1123D01*
X879Y1123D02*
X884Y1123D01*
X902Y1123D02*
X907Y1123D01*
X915Y1123D02*
X921Y1123D01*
X929Y1123D02*
X935Y1123D01*
X952Y1123D02*
X958Y1123D01*
X1003Y1123D02*
X1009Y1123D01*
X1030Y1123D02*
X1036Y1123D01*
X1173Y1123D02*
X1180Y1123D01*
X0Y1122D02*
X7Y1122D01*
X149Y1122D02*
X155Y1122D01*
X216Y1122D02*
X223Y1122D01*
X271Y1122D02*
X277Y1122D01*
X294Y1122D02*
X300Y1122D01*
X322Y1122D02*
X328Y1122D01*
X345Y1122D02*
X351Y1122D01*
X373Y1122D02*
X379Y1122D01*
X446Y1122D02*
X452Y1122D01*
X508Y1122D02*
X519Y1122D01*
X547Y1122D02*
X553Y1122D01*
X575Y1122D02*
X581Y1122D01*
X649Y1122D02*
X657Y1122D01*
X677Y1122D02*
X682Y1122D01*
X699Y1122D02*
X705Y1122D01*
X727Y1122D02*
X733Y1122D01*
X750Y1122D02*
X756Y1122D01*
X814Y1122D02*
X820Y1122D01*
X851Y1122D02*
X856Y1122D01*
X865Y1122D02*
X871Y1122D01*
X879Y1122D02*
X884Y1122D01*
X902Y1122D02*
X907Y1122D01*
X915Y1122D02*
X921Y1122D01*
X930Y1122D02*
X935Y1122D01*
X952Y1122D02*
X958Y1122D01*
X1003Y1122D02*
X1009Y1122D01*
X1030Y1122D02*
X1036Y1122D01*
X1173Y1122D02*
X1180Y1122D01*
X0Y1121D02*
X7Y1121D01*
X149Y1121D02*
X155Y1121D01*
X215Y1121D02*
X222Y1121D01*
X271Y1121D02*
X277Y1121D01*
X294Y1121D02*
X300Y1121D01*
X322Y1121D02*
X328Y1121D01*
X345Y1121D02*
X351Y1121D01*
X373Y1121D02*
X379Y1121D01*
X446Y1121D02*
X452Y1121D01*
X508Y1121D02*
X519Y1121D01*
X547Y1121D02*
X553Y1121D01*
X575Y1121D02*
X581Y1121D01*
X650Y1121D02*
X657Y1121D01*
X677Y1121D02*
X681Y1121D01*
X699Y1121D02*
X705Y1121D01*
X727Y1121D02*
X733Y1121D01*
X750Y1121D02*
X756Y1121D01*
X814Y1121D02*
X820Y1121D01*
X852Y1121D02*
X855Y1121D01*
X865Y1121D02*
X871Y1121D01*
X880Y1121D02*
X883Y1121D01*
X903Y1121D02*
X906Y1121D01*
X915Y1121D02*
X921Y1121D01*
X930Y1121D02*
X934Y1121D01*
X952Y1121D02*
X958Y1121D01*
X1003Y1121D02*
X1009Y1121D01*
X1030Y1121D02*
X1036Y1121D01*
X1173Y1121D02*
X1180Y1121D01*
X0Y1120D02*
X7Y1120D01*
X149Y1120D02*
X155Y1120D01*
X215Y1120D02*
X222Y1120D01*
X271Y1120D02*
X277Y1120D01*
X294Y1120D02*
X300Y1120D01*
X322Y1120D02*
X328Y1120D01*
X345Y1120D02*
X351Y1120D01*
X373Y1120D02*
X379Y1120D01*
X446Y1120D02*
X452Y1120D01*
X508Y1120D02*
X519Y1120D01*
X547Y1120D02*
X553Y1120D01*
X575Y1120D02*
X581Y1120D01*
X650Y1120D02*
X658Y1120D01*
X679Y1120D02*
X679Y1120D01*
X699Y1120D02*
X705Y1120D01*
X727Y1120D02*
X733Y1120D01*
X750Y1120D02*
X756Y1120D01*
X814Y1120D02*
X820Y1120D01*
X854Y1120D02*
X854Y1120D01*
X865Y1120D02*
X871Y1120D01*
X881Y1120D02*
X882Y1120D01*
X904Y1120D02*
X905Y1120D01*
X915Y1120D02*
X921Y1120D01*
X932Y1120D02*
X932Y1120D01*
X952Y1120D02*
X958Y1120D01*
X1003Y1120D02*
X1009Y1120D01*
X1030Y1120D02*
X1036Y1120D01*
X1173Y1120D02*
X1180Y1120D01*
X0Y1119D02*
X7Y1119D01*
X149Y1119D02*
X155Y1119D01*
X214Y1119D02*
X222Y1119D01*
X271Y1119D02*
X277Y1119D01*
X294Y1119D02*
X300Y1119D01*
X322Y1119D02*
X328Y1119D01*
X345Y1119D02*
X351Y1119D01*
X373Y1119D02*
X379Y1119D01*
X446Y1119D02*
X452Y1119D01*
X507Y1119D02*
X520Y1119D01*
X547Y1119D02*
X553Y1119D01*
X575Y1119D02*
X581Y1119D01*
X651Y1119D02*
X659Y1119D01*
X699Y1119D02*
X705Y1119D01*
X727Y1119D02*
X733Y1119D01*
X750Y1119D02*
X756Y1119D01*
X814Y1119D02*
X820Y1119D01*
X865Y1119D02*
X871Y1119D01*
X915Y1119D02*
X921Y1119D01*
X952Y1119D02*
X958Y1119D01*
X1003Y1119D02*
X1009Y1119D01*
X1030Y1119D02*
X1036Y1119D01*
X1173Y1119D02*
X1180Y1119D01*
X0Y1118D02*
X7Y1118D01*
X149Y1118D02*
X155Y1118D01*
X214Y1118D02*
X221Y1118D01*
X271Y1118D02*
X277Y1118D01*
X294Y1118D02*
X300Y1118D01*
X322Y1118D02*
X328Y1118D01*
X345Y1118D02*
X351Y1118D01*
X373Y1118D02*
X379Y1118D01*
X446Y1118D02*
X452Y1118D01*
X507Y1118D02*
X520Y1118D01*
X547Y1118D02*
X553Y1118D01*
X575Y1118D02*
X581Y1118D01*
X651Y1118D02*
X659Y1118D01*
X699Y1118D02*
X705Y1118D01*
X727Y1118D02*
X733Y1118D01*
X750Y1118D02*
X756Y1118D01*
X814Y1118D02*
X820Y1118D01*
X865Y1118D02*
X871Y1118D01*
X915Y1118D02*
X921Y1118D01*
X952Y1118D02*
X958Y1118D01*
X1003Y1118D02*
X1009Y1118D01*
X1030Y1118D02*
X1036Y1118D01*
X1173Y1118D02*
X1180Y1118D01*
X0Y1117D02*
X7Y1117D01*
X149Y1117D02*
X155Y1117D01*
X213Y1117D02*
X221Y1117D01*
X271Y1117D02*
X277Y1117D01*
X294Y1117D02*
X300Y1117D01*
X322Y1117D02*
X328Y1117D01*
X345Y1117D02*
X351Y1117D01*
X373Y1117D02*
X379Y1117D01*
X446Y1117D02*
X452Y1117D01*
X507Y1117D02*
X520Y1117D01*
X547Y1117D02*
X553Y1117D01*
X575Y1117D02*
X581Y1117D01*
X652Y1117D02*
X660Y1117D01*
X699Y1117D02*
X705Y1117D01*
X727Y1117D02*
X733Y1117D01*
X750Y1117D02*
X756Y1117D01*
X814Y1117D02*
X820Y1117D01*
X865Y1117D02*
X871Y1117D01*
X915Y1117D02*
X921Y1117D01*
X952Y1117D02*
X958Y1117D01*
X1003Y1117D02*
X1009Y1117D01*
X1030Y1117D02*
X1036Y1117D01*
X1173Y1117D02*
X1180Y1117D01*
X0Y1116D02*
X7Y1116D01*
X149Y1116D02*
X155Y1116D01*
X213Y1116D02*
X220Y1116D01*
X271Y1116D02*
X277Y1116D01*
X294Y1116D02*
X300Y1116D01*
X322Y1116D02*
X328Y1116D01*
X345Y1116D02*
X351Y1116D01*
X373Y1116D02*
X379Y1116D01*
X446Y1116D02*
X452Y1116D01*
X507Y1116D02*
X520Y1116D01*
X547Y1116D02*
X553Y1116D01*
X575Y1116D02*
X581Y1116D01*
X652Y1116D02*
X660Y1116D01*
X699Y1116D02*
X705Y1116D01*
X727Y1116D02*
X733Y1116D01*
X750Y1116D02*
X756Y1116D01*
X814Y1116D02*
X820Y1116D01*
X865Y1116D02*
X871Y1116D01*
X915Y1116D02*
X921Y1116D01*
X952Y1116D02*
X958Y1116D01*
X1003Y1116D02*
X1009Y1116D01*
X1030Y1116D02*
X1036Y1116D01*
X1173Y1116D02*
X1180Y1116D01*
X0Y1115D02*
X7Y1115D01*
X149Y1115D02*
X155Y1115D01*
X213Y1115D02*
X220Y1115D01*
X271Y1115D02*
X277Y1115D01*
X294Y1115D02*
X300Y1115D01*
X322Y1115D02*
X328Y1115D01*
X345Y1115D02*
X351Y1115D01*
X373Y1115D02*
X379Y1115D01*
X446Y1115D02*
X452Y1115D01*
X507Y1115D02*
X520Y1115D01*
X547Y1115D02*
X553Y1115D01*
X574Y1115D02*
X581Y1115D01*
X653Y1115D02*
X661Y1115D01*
X699Y1115D02*
X705Y1115D01*
X727Y1115D02*
X733Y1115D01*
X750Y1115D02*
X756Y1115D01*
X814Y1115D02*
X820Y1115D01*
X865Y1115D02*
X871Y1115D01*
X915Y1115D02*
X921Y1115D01*
X952Y1115D02*
X958Y1115D01*
X1003Y1115D02*
X1009Y1115D01*
X1030Y1115D02*
X1036Y1115D01*
X1173Y1115D02*
X1180Y1115D01*
X0Y1114D02*
X7Y1114D01*
X149Y1114D02*
X155Y1114D01*
X212Y1114D02*
X219Y1114D01*
X271Y1114D02*
X277Y1114D01*
X294Y1114D02*
X300Y1114D01*
X322Y1114D02*
X328Y1114D01*
X345Y1114D02*
X351Y1114D01*
X373Y1114D02*
X379Y1114D01*
X446Y1114D02*
X452Y1114D01*
X506Y1114D02*
X521Y1114D01*
X547Y1114D02*
X553Y1114D01*
X573Y1114D02*
X581Y1114D01*
X653Y1114D02*
X661Y1114D01*
X699Y1114D02*
X705Y1114D01*
X727Y1114D02*
X733Y1114D01*
X750Y1114D02*
X756Y1114D01*
X814Y1114D02*
X820Y1114D01*
X865Y1114D02*
X871Y1114D01*
X915Y1114D02*
X921Y1114D01*
X952Y1114D02*
X958Y1114D01*
X1003Y1114D02*
X1009Y1114D01*
X1029Y1114D02*
X1036Y1114D01*
X1173Y1114D02*
X1180Y1114D01*
X0Y1113D02*
X7Y1113D01*
X149Y1113D02*
X155Y1113D01*
X212Y1113D02*
X219Y1113D01*
X271Y1113D02*
X277Y1113D01*
X294Y1113D02*
X300Y1113D01*
X322Y1113D02*
X328Y1113D01*
X345Y1113D02*
X351Y1113D01*
X373Y1113D02*
X379Y1113D01*
X446Y1113D02*
X452Y1113D01*
X506Y1113D02*
X512Y1113D01*
X514Y1113D02*
X521Y1113D01*
X547Y1113D02*
X554Y1113D01*
X572Y1113D02*
X580Y1113D01*
X654Y1113D02*
X662Y1113D01*
X699Y1113D02*
X705Y1113D01*
X727Y1113D02*
X733Y1113D01*
X750Y1113D02*
X756Y1113D01*
X814Y1113D02*
X820Y1113D01*
X865Y1113D02*
X871Y1113D01*
X915Y1113D02*
X921Y1113D01*
X952Y1113D02*
X958Y1113D01*
X1003Y1113D02*
X1009Y1113D01*
X1027Y1113D02*
X1036Y1113D01*
X1173Y1113D02*
X1180Y1113D01*
X0Y1112D02*
X7Y1112D01*
X149Y1112D02*
X155Y1112D01*
X211Y1112D02*
X219Y1112D01*
X271Y1112D02*
X277Y1112D01*
X294Y1112D02*
X300Y1112D01*
X322Y1112D02*
X328Y1112D01*
X345Y1112D02*
X351Y1112D01*
X373Y1112D02*
X379Y1112D01*
X446Y1112D02*
X452Y1112D01*
X506Y1112D02*
X512Y1112D01*
X515Y1112D02*
X521Y1112D01*
X547Y1112D02*
X580Y1112D01*
X654Y1112D02*
X662Y1112D01*
X699Y1112D02*
X705Y1112D01*
X727Y1112D02*
X733Y1112D01*
X750Y1112D02*
X756Y1112D01*
X814Y1112D02*
X820Y1112D01*
X865Y1112D02*
X871Y1112D01*
X915Y1112D02*
X921Y1112D01*
X952Y1112D02*
X958Y1112D01*
X1003Y1112D02*
X1036Y1112D01*
X1173Y1112D02*
X1180Y1112D01*
X0Y1111D02*
X7Y1111D01*
X149Y1111D02*
X155Y1111D01*
X211Y1111D02*
X218Y1111D01*
X271Y1111D02*
X277Y1111D01*
X294Y1111D02*
X300Y1111D01*
X322Y1111D02*
X328Y1111D01*
X345Y1111D02*
X351Y1111D01*
X373Y1111D02*
X379Y1111D01*
X446Y1111D02*
X452Y1111D01*
X506Y1111D02*
X512Y1111D01*
X515Y1111D02*
X521Y1111D01*
X547Y1111D02*
X580Y1111D01*
X655Y1111D02*
X663Y1111D01*
X699Y1111D02*
X705Y1111D01*
X727Y1111D02*
X733Y1111D01*
X750Y1111D02*
X756Y1111D01*
X814Y1111D02*
X820Y1111D01*
X865Y1111D02*
X871Y1111D01*
X915Y1111D02*
X921Y1111D01*
X952Y1111D02*
X958Y1111D01*
X1003Y1111D02*
X1035Y1111D01*
X1173Y1111D02*
X1180Y1111D01*
X0Y1110D02*
X7Y1110D01*
X149Y1110D02*
X155Y1110D01*
X211Y1110D02*
X218Y1110D01*
X271Y1110D02*
X277Y1110D01*
X294Y1110D02*
X300Y1110D01*
X322Y1110D02*
X328Y1110D01*
X345Y1110D02*
X351Y1110D01*
X373Y1110D02*
X379Y1110D01*
X446Y1110D02*
X452Y1110D01*
X505Y1110D02*
X512Y1110D01*
X515Y1110D02*
X521Y1110D01*
X547Y1110D02*
X579Y1110D01*
X655Y1110D02*
X663Y1110D01*
X699Y1110D02*
X705Y1110D01*
X727Y1110D02*
X733Y1110D01*
X750Y1110D02*
X756Y1110D01*
X814Y1110D02*
X820Y1110D01*
X865Y1110D02*
X871Y1110D01*
X915Y1110D02*
X921Y1110D01*
X952Y1110D02*
X958Y1110D01*
X1003Y1110D02*
X1035Y1110D01*
X1173Y1110D02*
X1180Y1110D01*
X0Y1109D02*
X7Y1109D01*
X149Y1109D02*
X155Y1109D01*
X210Y1109D02*
X217Y1109D01*
X271Y1109D02*
X277Y1109D01*
X294Y1109D02*
X300Y1109D01*
X322Y1109D02*
X328Y1109D01*
X345Y1109D02*
X351Y1109D01*
X373Y1109D02*
X379Y1109D01*
X446Y1109D02*
X452Y1109D01*
X505Y1109D02*
X512Y1109D01*
X515Y1109D02*
X522Y1109D01*
X547Y1109D02*
X579Y1109D01*
X656Y1109D02*
X664Y1109D01*
X699Y1109D02*
X705Y1109D01*
X727Y1109D02*
X733Y1109D01*
X750Y1109D02*
X756Y1109D01*
X814Y1109D02*
X820Y1109D01*
X865Y1109D02*
X871Y1109D01*
X915Y1109D02*
X921Y1109D01*
X952Y1109D02*
X958Y1109D01*
X1003Y1109D02*
X1034Y1109D01*
X1173Y1109D02*
X1180Y1109D01*
X0Y1108D02*
X7Y1108D01*
X149Y1108D02*
X155Y1108D01*
X210Y1108D02*
X217Y1108D01*
X271Y1108D02*
X277Y1108D01*
X294Y1108D02*
X300Y1108D01*
X322Y1108D02*
X328Y1108D01*
X345Y1108D02*
X351Y1108D01*
X373Y1108D02*
X379Y1108D01*
X446Y1108D02*
X452Y1108D01*
X505Y1108D02*
X511Y1108D01*
X515Y1108D02*
X522Y1108D01*
X547Y1108D02*
X578Y1108D01*
X656Y1108D02*
X665Y1108D01*
X699Y1108D02*
X705Y1108D01*
X727Y1108D02*
X733Y1108D01*
X750Y1108D02*
X756Y1108D01*
X814Y1108D02*
X820Y1108D01*
X865Y1108D02*
X871Y1108D01*
X915Y1108D02*
X921Y1108D01*
X952Y1108D02*
X958Y1108D01*
X1003Y1108D02*
X1034Y1108D01*
X1173Y1108D02*
X1180Y1108D01*
X0Y1107D02*
X7Y1107D01*
X149Y1107D02*
X155Y1107D01*
X209Y1107D02*
X217Y1107D01*
X271Y1107D02*
X277Y1107D01*
X294Y1107D02*
X300Y1107D01*
X322Y1107D02*
X328Y1107D01*
X345Y1107D02*
X351Y1107D01*
X373Y1107D02*
X379Y1107D01*
X446Y1107D02*
X452Y1107D01*
X505Y1107D02*
X511Y1107D01*
X516Y1107D02*
X522Y1107D01*
X547Y1107D02*
X578Y1107D01*
X657Y1107D02*
X665Y1107D01*
X699Y1107D02*
X705Y1107D01*
X727Y1107D02*
X733Y1107D01*
X750Y1107D02*
X756Y1107D01*
X814Y1107D02*
X820Y1107D01*
X865Y1107D02*
X871Y1107D01*
X915Y1107D02*
X921Y1107D01*
X952Y1107D02*
X958Y1107D01*
X1003Y1107D02*
X1033Y1107D01*
X1173Y1107D02*
X1180Y1107D01*
X0Y1106D02*
X7Y1106D01*
X149Y1106D02*
X155Y1106D01*
X209Y1106D02*
X216Y1106D01*
X271Y1106D02*
X277Y1106D01*
X294Y1106D02*
X300Y1106D01*
X322Y1106D02*
X328Y1106D01*
X345Y1106D02*
X351Y1106D01*
X373Y1106D02*
X379Y1106D01*
X446Y1106D02*
X452Y1106D01*
X505Y1106D02*
X511Y1106D01*
X516Y1106D02*
X522Y1106D01*
X547Y1106D02*
X577Y1106D01*
X658Y1106D02*
X666Y1106D01*
X699Y1106D02*
X705Y1106D01*
X727Y1106D02*
X733Y1106D01*
X750Y1106D02*
X756Y1106D01*
X814Y1106D02*
X820Y1106D01*
X865Y1106D02*
X871Y1106D01*
X915Y1106D02*
X921Y1106D01*
X952Y1106D02*
X958Y1106D01*
X1003Y1106D02*
X1032Y1106D01*
X1173Y1106D02*
X1180Y1106D01*
X0Y1105D02*
X7Y1105D01*
X149Y1105D02*
X155Y1105D01*
X209Y1105D02*
X216Y1105D01*
X271Y1105D02*
X277Y1105D01*
X294Y1105D02*
X300Y1105D01*
X322Y1105D02*
X328Y1105D01*
X345Y1105D02*
X351Y1105D01*
X373Y1105D02*
X379Y1105D01*
X446Y1105D02*
X452Y1105D01*
X504Y1105D02*
X511Y1105D01*
X516Y1105D02*
X522Y1105D01*
X547Y1105D02*
X576Y1105D01*
X658Y1105D02*
X666Y1105D01*
X699Y1105D02*
X705Y1105D01*
X727Y1105D02*
X733Y1105D01*
X750Y1105D02*
X756Y1105D01*
X814Y1105D02*
X820Y1105D01*
X865Y1105D02*
X871Y1105D01*
X915Y1105D02*
X921Y1105D01*
X952Y1105D02*
X958Y1105D01*
X1003Y1105D02*
X1031Y1105D01*
X1173Y1105D02*
X1180Y1105D01*
X0Y1104D02*
X7Y1104D01*
X149Y1104D02*
X171Y1104D01*
X208Y1104D02*
X215Y1104D01*
X249Y1104D02*
X277Y1104D01*
X294Y1104D02*
X300Y1104D01*
X322Y1104D02*
X328Y1104D01*
X345Y1104D02*
X351Y1104D01*
X373Y1104D02*
X379Y1104D01*
X446Y1104D02*
X464Y1104D01*
X504Y1104D02*
X511Y1104D01*
X516Y1104D02*
X523Y1104D01*
X547Y1104D02*
X574Y1104D01*
X659Y1104D02*
X667Y1104D01*
X699Y1104D02*
X705Y1104D01*
X727Y1104D02*
X733Y1104D01*
X750Y1104D02*
X756Y1104D01*
X814Y1104D02*
X820Y1104D01*
X865Y1104D02*
X871Y1104D01*
X915Y1104D02*
X921Y1104D01*
X952Y1104D02*
X970Y1104D01*
X1003Y1104D02*
X1030Y1104D01*
X1173Y1104D02*
X1180Y1104D01*
X0Y1103D02*
X7Y1103D01*
X149Y1103D02*
X173Y1103D01*
X208Y1103D02*
X215Y1103D01*
X247Y1103D02*
X277Y1103D01*
X294Y1103D02*
X300Y1103D01*
X322Y1103D02*
X328Y1103D01*
X345Y1103D02*
X351Y1103D01*
X373Y1103D02*
X379Y1103D01*
X446Y1103D02*
X465Y1103D01*
X504Y1103D02*
X510Y1103D01*
X516Y1103D02*
X523Y1103D01*
X547Y1103D02*
X572Y1103D01*
X659Y1103D02*
X667Y1103D01*
X699Y1103D02*
X705Y1103D01*
X726Y1103D02*
X733Y1103D01*
X750Y1103D02*
X756Y1103D01*
X814Y1103D02*
X820Y1103D01*
X865Y1103D02*
X871Y1103D01*
X915Y1103D02*
X921Y1103D01*
X952Y1103D02*
X971Y1103D01*
X1003Y1103D02*
X1027Y1103D01*
X1173Y1103D02*
X1180Y1103D01*
X0Y1102D02*
X7Y1102D01*
X149Y1102D02*
X174Y1102D01*
X207Y1102D02*
X215Y1102D01*
X246Y1102D02*
X277Y1102D01*
X294Y1102D02*
X300Y1102D01*
X322Y1102D02*
X328Y1102D01*
X345Y1102D02*
X351Y1102D01*
X373Y1102D02*
X379Y1102D01*
X446Y1102D02*
X465Y1102D01*
X504Y1102D02*
X510Y1102D01*
X517Y1102D02*
X523Y1102D01*
X547Y1102D02*
X553Y1102D01*
X559Y1102D02*
X567Y1102D01*
X660Y1102D02*
X668Y1102D01*
X699Y1102D02*
X705Y1102D01*
X726Y1102D02*
X733Y1102D01*
X750Y1102D02*
X756Y1102D01*
X814Y1102D02*
X820Y1102D01*
X865Y1102D02*
X871Y1102D01*
X915Y1102D02*
X921Y1102D01*
X952Y1102D02*
X971Y1102D01*
X1003Y1102D02*
X1009Y1102D01*
X1015Y1102D02*
X1022Y1102D01*
X1173Y1102D02*
X1180Y1102D01*
X0Y1101D02*
X7Y1101D01*
X149Y1101D02*
X174Y1101D01*
X207Y1101D02*
X214Y1101D01*
X245Y1101D02*
X277Y1101D01*
X294Y1101D02*
X300Y1101D01*
X322Y1101D02*
X328Y1101D01*
X345Y1101D02*
X351Y1101D01*
X373Y1101D02*
X379Y1101D01*
X446Y1101D02*
X466Y1101D01*
X504Y1101D02*
X510Y1101D01*
X517Y1101D02*
X523Y1101D01*
X547Y1101D02*
X553Y1101D01*
X560Y1101D02*
X567Y1101D01*
X660Y1101D02*
X668Y1101D01*
X699Y1101D02*
X705Y1101D01*
X725Y1101D02*
X732Y1101D01*
X750Y1101D02*
X756Y1101D01*
X814Y1101D02*
X820Y1101D01*
X865Y1101D02*
X871Y1101D01*
X915Y1101D02*
X921Y1101D01*
X952Y1101D02*
X972Y1101D01*
X1003Y1101D02*
X1009Y1101D01*
X1015Y1101D02*
X1022Y1101D01*
X1173Y1101D02*
X1180Y1101D01*
X0Y1100D02*
X7Y1100D01*
X149Y1100D02*
X175Y1100D01*
X207Y1100D02*
X214Y1100D01*
X245Y1100D02*
X277Y1100D01*
X294Y1100D02*
X300Y1100D01*
X322Y1100D02*
X328Y1100D01*
X345Y1100D02*
X351Y1100D01*
X373Y1100D02*
X379Y1100D01*
X446Y1100D02*
X466Y1100D01*
X503Y1100D02*
X510Y1100D01*
X517Y1100D02*
X523Y1100D01*
X547Y1100D02*
X553Y1100D01*
X560Y1100D02*
X567Y1100D01*
X661Y1100D02*
X669Y1100D01*
X699Y1100D02*
X732Y1100D01*
X750Y1100D02*
X756Y1100D01*
X814Y1100D02*
X820Y1100D01*
X865Y1100D02*
X871Y1100D01*
X915Y1100D02*
X921Y1100D01*
X952Y1100D02*
X972Y1100D01*
X1003Y1100D02*
X1009Y1100D01*
X1016Y1100D02*
X1023Y1100D01*
X1173Y1100D02*
X1180Y1100D01*
X0Y1099D02*
X7Y1099D01*
X149Y1099D02*
X175Y1099D01*
X206Y1099D02*
X213Y1099D01*
X244Y1099D02*
X276Y1099D01*
X294Y1099D02*
X300Y1099D01*
X322Y1099D02*
X328Y1099D01*
X345Y1099D02*
X351Y1099D01*
X373Y1099D02*
X379Y1099D01*
X446Y1099D02*
X466Y1099D01*
X503Y1099D02*
X510Y1099D01*
X517Y1099D02*
X524Y1099D01*
X547Y1099D02*
X553Y1099D01*
X561Y1099D02*
X568Y1099D01*
X661Y1099D02*
X669Y1099D01*
X699Y1099D02*
X732Y1099D01*
X750Y1099D02*
X756Y1099D01*
X814Y1099D02*
X820Y1099D01*
X865Y1099D02*
X871Y1099D01*
X915Y1099D02*
X921Y1099D01*
X952Y1099D02*
X972Y1099D01*
X1003Y1099D02*
X1009Y1099D01*
X1016Y1099D02*
X1023Y1099D01*
X1173Y1099D02*
X1180Y1099D01*
X0Y1098D02*
X7Y1098D01*
X149Y1098D02*
X176Y1098D01*
X206Y1098D02*
X213Y1098D01*
X244Y1098D02*
X276Y1098D01*
X294Y1098D02*
X300Y1098D01*
X322Y1098D02*
X328Y1098D01*
X345Y1098D02*
X351Y1098D01*
X373Y1098D02*
X379Y1098D01*
X446Y1098D02*
X466Y1098D01*
X503Y1098D02*
X509Y1098D01*
X518Y1098D02*
X524Y1098D01*
X547Y1098D02*
X553Y1098D01*
X561Y1098D02*
X568Y1098D01*
X662Y1098D02*
X670Y1098D01*
X699Y1098D02*
X731Y1098D01*
X750Y1098D02*
X756Y1098D01*
X814Y1098D02*
X820Y1098D01*
X865Y1098D02*
X871Y1098D01*
X915Y1098D02*
X921Y1098D01*
X952Y1098D02*
X972Y1098D01*
X1003Y1098D02*
X1009Y1098D01*
X1016Y1098D02*
X1024Y1098D01*
X1173Y1098D02*
X1180Y1098D01*
X0Y1097D02*
X7Y1097D01*
X149Y1097D02*
X176Y1097D01*
X205Y1097D02*
X213Y1097D01*
X244Y1097D02*
X275Y1097D01*
X294Y1097D02*
X300Y1097D01*
X322Y1097D02*
X328Y1097D01*
X345Y1097D02*
X351Y1097D01*
X373Y1097D02*
X379Y1097D01*
X446Y1097D02*
X465Y1097D01*
X503Y1097D02*
X509Y1097D01*
X518Y1097D02*
X524Y1097D01*
X547Y1097D02*
X553Y1097D01*
X561Y1097D02*
X569Y1097D01*
X662Y1097D02*
X671Y1097D01*
X699Y1097D02*
X731Y1097D01*
X750Y1097D02*
X756Y1097D01*
X814Y1097D02*
X820Y1097D01*
X865Y1097D02*
X871Y1097D01*
X915Y1097D02*
X921Y1097D01*
X952Y1097D02*
X971Y1097D01*
X1003Y1097D02*
X1009Y1097D01*
X1017Y1097D02*
X1024Y1097D01*
X1173Y1097D02*
X1180Y1097D01*
X0Y1096D02*
X7Y1096D01*
X149Y1096D02*
X176Y1096D01*
X205Y1096D02*
X212Y1096D01*
X244Y1096D02*
X274Y1096D01*
X294Y1096D02*
X300Y1096D01*
X322Y1096D02*
X328Y1096D01*
X345Y1096D02*
X351Y1096D01*
X373Y1096D02*
X379Y1096D01*
X446Y1096D02*
X465Y1096D01*
X503Y1096D02*
X509Y1096D01*
X518Y1096D02*
X524Y1096D01*
X547Y1096D02*
X553Y1096D01*
X562Y1096D02*
X569Y1096D01*
X663Y1096D02*
X671Y1096D01*
X699Y1096D02*
X731Y1096D01*
X750Y1096D02*
X756Y1096D01*
X814Y1096D02*
X820Y1096D01*
X865Y1096D02*
X871Y1096D01*
X915Y1096D02*
X921Y1096D01*
X952Y1096D02*
X971Y1096D01*
X1003Y1096D02*
X1009Y1096D01*
X1017Y1096D02*
X1024Y1096D01*
X1173Y1096D02*
X1180Y1096D01*
X0Y1095D02*
X7Y1095D01*
X149Y1095D02*
X176Y1095D01*
X204Y1095D02*
X212Y1095D01*
X244Y1095D02*
X273Y1095D01*
X294Y1095D02*
X300Y1095D01*
X322Y1095D02*
X328Y1095D01*
X345Y1095D02*
X351Y1095D01*
X373Y1095D02*
X379Y1095D01*
X446Y1095D02*
X464Y1095D01*
X502Y1095D02*
X509Y1095D01*
X518Y1095D02*
X524Y1095D01*
X547Y1095D02*
X553Y1095D01*
X562Y1095D02*
X570Y1095D01*
X664Y1095D02*
X672Y1095D01*
X699Y1095D02*
X730Y1095D01*
X750Y1095D02*
X756Y1095D01*
X814Y1095D02*
X820Y1095D01*
X865Y1095D02*
X871Y1095D01*
X915Y1095D02*
X921Y1095D01*
X952Y1095D02*
X970Y1095D01*
X1003Y1095D02*
X1009Y1095D01*
X1018Y1095D02*
X1025Y1095D01*
X1173Y1095D02*
X1180Y1095D01*
X0Y1094D02*
X7Y1094D01*
X170Y1094D02*
X176Y1094D01*
X204Y1094D02*
X211Y1094D01*
X244Y1094D02*
X250Y1094D01*
X294Y1094D02*
X300Y1094D01*
X322Y1094D02*
X328Y1094D01*
X345Y1094D02*
X351Y1094D01*
X373Y1094D02*
X379Y1094D01*
X446Y1094D02*
X452Y1094D01*
X502Y1094D02*
X509Y1094D01*
X518Y1094D02*
X525Y1094D01*
X547Y1094D02*
X553Y1094D01*
X563Y1094D02*
X570Y1094D01*
X664Y1094D02*
X672Y1094D01*
X699Y1094D02*
X729Y1094D01*
X750Y1094D02*
X756Y1094D01*
X814Y1094D02*
X820Y1094D01*
X865Y1094D02*
X871Y1094D01*
X915Y1094D02*
X921Y1094D01*
X952Y1094D02*
X958Y1094D01*
X1003Y1094D02*
X1009Y1094D01*
X1018Y1094D02*
X1025Y1094D01*
X1173Y1094D02*
X1180Y1094D01*
X0Y1093D02*
X7Y1093D01*
X170Y1093D02*
X176Y1093D01*
X204Y1093D02*
X211Y1093D01*
X244Y1093D02*
X250Y1093D01*
X294Y1093D02*
X300Y1093D01*
X322Y1093D02*
X328Y1093D01*
X345Y1093D02*
X351Y1093D01*
X373Y1093D02*
X379Y1093D01*
X446Y1093D02*
X452Y1093D01*
X502Y1093D02*
X508Y1093D01*
X519Y1093D02*
X525Y1093D01*
X547Y1093D02*
X553Y1093D01*
X563Y1093D02*
X570Y1093D01*
X665Y1093D02*
X673Y1093D01*
X699Y1093D02*
X728Y1093D01*
X750Y1093D02*
X756Y1093D01*
X814Y1093D02*
X820Y1093D01*
X865Y1093D02*
X871Y1093D01*
X915Y1093D02*
X921Y1093D01*
X952Y1093D02*
X958Y1093D01*
X1003Y1093D02*
X1009Y1093D01*
X1018Y1093D02*
X1026Y1093D01*
X1173Y1093D02*
X1180Y1093D01*
X0Y1092D02*
X7Y1092D01*
X170Y1092D02*
X176Y1092D01*
X203Y1092D02*
X210Y1092D01*
X244Y1092D02*
X250Y1092D01*
X294Y1092D02*
X300Y1092D01*
X322Y1092D02*
X328Y1092D01*
X345Y1092D02*
X351Y1092D01*
X373Y1092D02*
X379Y1092D01*
X446Y1092D02*
X452Y1092D01*
X502Y1092D02*
X508Y1092D01*
X519Y1092D02*
X525Y1092D01*
X547Y1092D02*
X553Y1092D01*
X563Y1092D02*
X571Y1092D01*
X665Y1092D02*
X673Y1092D01*
X699Y1092D02*
X727Y1092D01*
X750Y1092D02*
X756Y1092D01*
X814Y1092D02*
X820Y1092D01*
X865Y1092D02*
X871Y1092D01*
X915Y1092D02*
X921Y1092D01*
X952Y1092D02*
X958Y1092D01*
X1003Y1092D02*
X1009Y1092D01*
X1019Y1092D02*
X1026Y1092D01*
X1173Y1092D02*
X1180Y1092D01*
X0Y1091D02*
X7Y1091D01*
X170Y1091D02*
X176Y1091D01*
X203Y1091D02*
X210Y1091D01*
X244Y1091D02*
X250Y1091D01*
X294Y1091D02*
X300Y1091D01*
X322Y1091D02*
X328Y1091D01*
X345Y1091D02*
X351Y1091D01*
X373Y1091D02*
X379Y1091D01*
X446Y1091D02*
X452Y1091D01*
X502Y1091D02*
X508Y1091D01*
X519Y1091D02*
X525Y1091D01*
X547Y1091D02*
X553Y1091D01*
X564Y1091D02*
X571Y1091D01*
X666Y1091D02*
X674Y1091D01*
X699Y1091D02*
X726Y1091D01*
X750Y1091D02*
X756Y1091D01*
X814Y1091D02*
X820Y1091D01*
X865Y1091D02*
X871Y1091D01*
X915Y1091D02*
X921Y1091D01*
X952Y1091D02*
X958Y1091D01*
X1003Y1091D02*
X1009Y1091D01*
X1019Y1091D02*
X1027Y1091D01*
X1173Y1091D02*
X1180Y1091D01*
X0Y1090D02*
X7Y1090D01*
X170Y1090D02*
X176Y1090D01*
X202Y1090D02*
X210Y1090D01*
X244Y1090D02*
X250Y1090D01*
X294Y1090D02*
X300Y1090D01*
X322Y1090D02*
X328Y1090D01*
X345Y1090D02*
X351Y1090D01*
X373Y1090D02*
X379Y1090D01*
X446Y1090D02*
X452Y1090D01*
X501Y1090D02*
X508Y1090D01*
X519Y1090D02*
X526Y1090D01*
X547Y1090D02*
X553Y1090D01*
X564Y1090D02*
X572Y1090D01*
X666Y1090D02*
X674Y1090D01*
X699Y1090D02*
X705Y1090D01*
X750Y1090D02*
X756Y1090D01*
X814Y1090D02*
X820Y1090D01*
X865Y1090D02*
X871Y1090D01*
X915Y1090D02*
X921Y1090D01*
X952Y1090D02*
X958Y1090D01*
X1003Y1090D02*
X1009Y1090D01*
X1020Y1090D02*
X1027Y1090D01*
X1173Y1090D02*
X1180Y1090D01*
X0Y1089D02*
X7Y1089D01*
X170Y1089D02*
X176Y1089D01*
X202Y1089D02*
X209Y1089D01*
X244Y1089D02*
X250Y1089D01*
X294Y1089D02*
X300Y1089D01*
X322Y1089D02*
X328Y1089D01*
X345Y1089D02*
X351Y1089D01*
X373Y1089D02*
X379Y1089D01*
X446Y1089D02*
X452Y1089D01*
X501Y1089D02*
X508Y1089D01*
X519Y1089D02*
X526Y1089D01*
X547Y1089D02*
X553Y1089D01*
X565Y1089D02*
X572Y1089D01*
X667Y1089D02*
X675Y1089D01*
X699Y1089D02*
X705Y1089D01*
X750Y1089D02*
X756Y1089D01*
X814Y1089D02*
X820Y1089D01*
X865Y1089D02*
X871Y1089D01*
X915Y1089D02*
X921Y1089D01*
X952Y1089D02*
X958Y1089D01*
X1003Y1089D02*
X1009Y1089D01*
X1020Y1089D02*
X1027Y1089D01*
X1173Y1089D02*
X1180Y1089D01*
X0Y1088D02*
X7Y1088D01*
X170Y1088D02*
X176Y1088D01*
X202Y1088D02*
X209Y1088D01*
X244Y1088D02*
X250Y1088D01*
X294Y1088D02*
X300Y1088D01*
X322Y1088D02*
X328Y1088D01*
X345Y1088D02*
X351Y1088D01*
X373Y1088D02*
X379Y1088D01*
X446Y1088D02*
X452Y1088D01*
X501Y1088D02*
X507Y1088D01*
X520Y1088D02*
X526Y1088D01*
X547Y1088D02*
X553Y1088D01*
X565Y1088D02*
X572Y1088D01*
X667Y1088D02*
X675Y1088D01*
X699Y1088D02*
X705Y1088D01*
X750Y1088D02*
X756Y1088D01*
X814Y1088D02*
X820Y1088D01*
X865Y1088D02*
X871Y1088D01*
X915Y1088D02*
X921Y1088D01*
X952Y1088D02*
X958Y1088D01*
X1003Y1088D02*
X1009Y1088D01*
X1020Y1088D02*
X1028Y1088D01*
X1173Y1088D02*
X1180Y1088D01*
X0Y1087D02*
X7Y1087D01*
X170Y1087D02*
X176Y1087D01*
X201Y1087D02*
X208Y1087D01*
X244Y1087D02*
X250Y1087D01*
X294Y1087D02*
X300Y1087D01*
X322Y1087D02*
X328Y1087D01*
X345Y1087D02*
X351Y1087D01*
X373Y1087D02*
X379Y1087D01*
X446Y1087D02*
X452Y1087D01*
X501Y1087D02*
X526Y1087D01*
X547Y1087D02*
X553Y1087D01*
X566Y1087D02*
X573Y1087D01*
X668Y1087D02*
X676Y1087D01*
X699Y1087D02*
X705Y1087D01*
X750Y1087D02*
X756Y1087D01*
X814Y1087D02*
X820Y1087D01*
X865Y1087D02*
X871Y1087D01*
X915Y1087D02*
X921Y1087D01*
X952Y1087D02*
X958Y1087D01*
X1003Y1087D02*
X1009Y1087D01*
X1021Y1087D02*
X1028Y1087D01*
X1173Y1087D02*
X1180Y1087D01*
X0Y1086D02*
X7Y1086D01*
X170Y1086D02*
X176Y1086D01*
X201Y1086D02*
X208Y1086D01*
X244Y1086D02*
X250Y1086D01*
X294Y1086D02*
X300Y1086D01*
X322Y1086D02*
X328Y1086D01*
X345Y1086D02*
X351Y1086D01*
X373Y1086D02*
X379Y1086D01*
X446Y1086D02*
X452Y1086D01*
X501Y1086D02*
X526Y1086D01*
X547Y1086D02*
X553Y1086D01*
X566Y1086D02*
X573Y1086D01*
X668Y1086D02*
X677Y1086D01*
X699Y1086D02*
X705Y1086D01*
X750Y1086D02*
X756Y1086D01*
X814Y1086D02*
X820Y1086D01*
X865Y1086D02*
X871Y1086D01*
X915Y1086D02*
X921Y1086D01*
X952Y1086D02*
X958Y1086D01*
X1003Y1086D02*
X1009Y1086D01*
X1021Y1086D02*
X1029Y1086D01*
X1173Y1086D02*
X1180Y1086D01*
X0Y1085D02*
X7Y1085D01*
X170Y1085D02*
X176Y1085D01*
X200Y1085D02*
X208Y1085D01*
X244Y1085D02*
X250Y1085D01*
X294Y1085D02*
X300Y1085D01*
X322Y1085D02*
X328Y1085D01*
X345Y1085D02*
X351Y1085D01*
X373Y1085D02*
X379Y1085D01*
X446Y1085D02*
X452Y1085D01*
X500Y1085D02*
X527Y1085D01*
X547Y1085D02*
X553Y1085D01*
X566Y1085D02*
X574Y1085D01*
X669Y1085D02*
X677Y1085D01*
X699Y1085D02*
X705Y1085D01*
X750Y1085D02*
X756Y1085D01*
X814Y1085D02*
X820Y1085D01*
X865Y1085D02*
X871Y1085D01*
X915Y1085D02*
X921Y1085D01*
X952Y1085D02*
X958Y1085D01*
X1003Y1085D02*
X1009Y1085D01*
X1022Y1085D02*
X1029Y1085D01*
X1173Y1085D02*
X1180Y1085D01*
X0Y1084D02*
X7Y1084D01*
X170Y1084D02*
X176Y1084D01*
X200Y1084D02*
X207Y1084D01*
X244Y1084D02*
X250Y1084D01*
X294Y1084D02*
X300Y1084D01*
X322Y1084D02*
X328Y1084D01*
X345Y1084D02*
X351Y1084D01*
X373Y1084D02*
X379Y1084D01*
X446Y1084D02*
X452Y1084D01*
X500Y1084D02*
X527Y1084D01*
X547Y1084D02*
X553Y1084D01*
X567Y1084D02*
X574Y1084D01*
X670Y1084D02*
X678Y1084D01*
X699Y1084D02*
X705Y1084D01*
X750Y1084D02*
X756Y1084D01*
X814Y1084D02*
X820Y1084D01*
X865Y1084D02*
X871Y1084D01*
X915Y1084D02*
X921Y1084D01*
X952Y1084D02*
X958Y1084D01*
X1003Y1084D02*
X1009Y1084D01*
X1022Y1084D02*
X1029Y1084D01*
X1173Y1084D02*
X1180Y1084D01*
X0Y1083D02*
X7Y1083D01*
X170Y1083D02*
X176Y1083D01*
X200Y1083D02*
X207Y1083D01*
X244Y1083D02*
X250Y1083D01*
X294Y1083D02*
X300Y1083D01*
X322Y1083D02*
X328Y1083D01*
X345Y1083D02*
X351Y1083D01*
X373Y1083D02*
X379Y1083D01*
X446Y1083D02*
X452Y1083D01*
X500Y1083D02*
X527Y1083D01*
X547Y1083D02*
X553Y1083D01*
X567Y1083D02*
X574Y1083D01*
X670Y1083D02*
X678Y1083D01*
X699Y1083D02*
X705Y1083D01*
X750Y1083D02*
X756Y1083D01*
X814Y1083D02*
X820Y1083D01*
X865Y1083D02*
X871Y1083D01*
X915Y1083D02*
X921Y1083D01*
X952Y1083D02*
X958Y1083D01*
X1003Y1083D02*
X1009Y1083D01*
X1023Y1083D02*
X1030Y1083D01*
X1173Y1083D02*
X1180Y1083D01*
X0Y1082D02*
X7Y1082D01*
X170Y1082D02*
X176Y1082D01*
X199Y1082D02*
X206Y1082D01*
X244Y1082D02*
X250Y1082D01*
X294Y1082D02*
X300Y1082D01*
X322Y1082D02*
X328Y1082D01*
X345Y1082D02*
X351Y1082D01*
X373Y1082D02*
X379Y1082D01*
X446Y1082D02*
X452Y1082D01*
X500Y1082D02*
X527Y1082D01*
X547Y1082D02*
X553Y1082D01*
X568Y1082D02*
X575Y1082D01*
X671Y1082D02*
X679Y1082D01*
X699Y1082D02*
X705Y1082D01*
X750Y1082D02*
X756Y1082D01*
X814Y1082D02*
X820Y1082D01*
X865Y1082D02*
X871Y1082D01*
X915Y1082D02*
X921Y1082D01*
X952Y1082D02*
X958Y1082D01*
X1003Y1082D02*
X1009Y1082D01*
X1023Y1082D02*
X1030Y1082D01*
X1173Y1082D02*
X1180Y1082D01*
X0Y1081D02*
X7Y1081D01*
X170Y1081D02*
X176Y1081D01*
X199Y1081D02*
X206Y1081D01*
X244Y1081D02*
X250Y1081D01*
X294Y1081D02*
X300Y1081D01*
X322Y1081D02*
X328Y1081D01*
X345Y1081D02*
X351Y1081D01*
X373Y1081D02*
X379Y1081D01*
X446Y1081D02*
X452Y1081D01*
X500Y1081D02*
X527Y1081D01*
X547Y1081D02*
X553Y1081D01*
X568Y1081D02*
X575Y1081D01*
X671Y1081D02*
X679Y1081D01*
X699Y1081D02*
X705Y1081D01*
X750Y1081D02*
X756Y1081D01*
X814Y1081D02*
X820Y1081D01*
X865Y1081D02*
X871Y1081D01*
X915Y1081D02*
X921Y1081D01*
X952Y1081D02*
X958Y1081D01*
X1003Y1081D02*
X1009Y1081D01*
X1023Y1081D02*
X1031Y1081D01*
X1173Y1081D02*
X1180Y1081D01*
X0Y1080D02*
X7Y1080D01*
X170Y1080D02*
X176Y1080D01*
X198Y1080D02*
X206Y1080D01*
X244Y1080D02*
X250Y1080D01*
X294Y1080D02*
X300Y1080D01*
X322Y1080D02*
X328Y1080D01*
X345Y1080D02*
X351Y1080D01*
X373Y1080D02*
X379Y1080D01*
X446Y1080D02*
X452Y1080D01*
X499Y1080D02*
X528Y1080D01*
X547Y1080D02*
X553Y1080D01*
X568Y1080D02*
X576Y1080D01*
X672Y1080D02*
X680Y1080D01*
X699Y1080D02*
X705Y1080D01*
X750Y1080D02*
X756Y1080D01*
X814Y1080D02*
X820Y1080D01*
X865Y1080D02*
X871Y1080D01*
X915Y1080D02*
X921Y1080D01*
X952Y1080D02*
X958Y1080D01*
X1003Y1080D02*
X1009Y1080D01*
X1024Y1080D02*
X1031Y1080D01*
X1173Y1080D02*
X1180Y1080D01*
X0Y1079D02*
X7Y1079D01*
X170Y1079D02*
X176Y1079D01*
X198Y1079D02*
X205Y1079D01*
X244Y1079D02*
X250Y1079D01*
X294Y1079D02*
X300Y1079D01*
X322Y1079D02*
X328Y1079D01*
X345Y1079D02*
X351Y1079D01*
X373Y1079D02*
X379Y1079D01*
X446Y1079D02*
X452Y1079D01*
X499Y1079D02*
X528Y1079D01*
X547Y1079D02*
X553Y1079D01*
X569Y1079D02*
X576Y1079D01*
X672Y1079D02*
X680Y1079D01*
X699Y1079D02*
X705Y1079D01*
X750Y1079D02*
X756Y1079D01*
X814Y1079D02*
X820Y1079D01*
X865Y1079D02*
X871Y1079D01*
X915Y1079D02*
X921Y1079D01*
X952Y1079D02*
X958Y1079D01*
X1003Y1079D02*
X1009Y1079D01*
X1024Y1079D02*
X1031Y1079D01*
X1173Y1079D02*
X1180Y1079D01*
X0Y1078D02*
X7Y1078D01*
X170Y1078D02*
X176Y1078D01*
X198Y1078D02*
X205Y1078D01*
X244Y1078D02*
X250Y1078D01*
X294Y1078D02*
X300Y1078D01*
X322Y1078D02*
X328Y1078D01*
X345Y1078D02*
X351Y1078D01*
X373Y1078D02*
X379Y1078D01*
X446Y1078D02*
X452Y1078D01*
X499Y1078D02*
X528Y1078D01*
X547Y1078D02*
X553Y1078D01*
X569Y1078D02*
X576Y1078D01*
X650Y1078D02*
X653Y1078D01*
X673Y1078D02*
X681Y1078D01*
X699Y1078D02*
X705Y1078D01*
X750Y1078D02*
X756Y1078D01*
X814Y1078D02*
X820Y1078D01*
X865Y1078D02*
X871Y1078D01*
X915Y1078D02*
X921Y1078D01*
X952Y1078D02*
X958Y1078D01*
X1003Y1078D02*
X1009Y1078D01*
X1025Y1078D02*
X1032Y1078D01*
X1173Y1078D02*
X1180Y1078D01*
X0Y1077D02*
X7Y1077D01*
X170Y1077D02*
X176Y1077D01*
X197Y1077D02*
X204Y1077D01*
X244Y1077D02*
X250Y1077D01*
X294Y1077D02*
X300Y1077D01*
X322Y1077D02*
X328Y1077D01*
X345Y1077D02*
X351Y1077D01*
X373Y1077D02*
X379Y1077D01*
X446Y1077D02*
X452Y1077D01*
X499Y1077D02*
X505Y1077D01*
X522Y1077D02*
X528Y1077D01*
X547Y1077D02*
X553Y1077D01*
X570Y1077D02*
X577Y1077D01*
X649Y1077D02*
X654Y1077D01*
X673Y1077D02*
X681Y1077D01*
X699Y1077D02*
X705Y1077D01*
X750Y1077D02*
X756Y1077D01*
X814Y1077D02*
X820Y1077D01*
X865Y1077D02*
X871Y1077D01*
X915Y1077D02*
X921Y1077D01*
X952Y1077D02*
X958Y1077D01*
X1003Y1077D02*
X1009Y1077D01*
X1025Y1077D02*
X1032Y1077D01*
X1173Y1077D02*
X1180Y1077D01*
X0Y1076D02*
X7Y1076D01*
X170Y1076D02*
X176Y1076D01*
X197Y1076D02*
X204Y1076D01*
X244Y1076D02*
X250Y1076D01*
X294Y1076D02*
X300Y1076D01*
X322Y1076D02*
X328Y1076D01*
X345Y1076D02*
X351Y1076D01*
X373Y1076D02*
X379Y1076D01*
X446Y1076D02*
X452Y1076D01*
X499Y1076D02*
X505Y1076D01*
X522Y1076D02*
X528Y1076D01*
X547Y1076D02*
X553Y1076D01*
X570Y1076D02*
X577Y1076D01*
X649Y1076D02*
X654Y1076D01*
X674Y1076D02*
X682Y1076D01*
X699Y1076D02*
X705Y1076D01*
X750Y1076D02*
X756Y1076D01*
X814Y1076D02*
X820Y1076D01*
X865Y1076D02*
X871Y1076D01*
X915Y1076D02*
X921Y1076D01*
X952Y1076D02*
X958Y1076D01*
X1003Y1076D02*
X1009Y1076D01*
X1025Y1076D02*
X1033Y1076D01*
X1173Y1076D02*
X1180Y1076D01*
X0Y1075D02*
X7Y1075D01*
X170Y1075D02*
X176Y1075D01*
X196Y1075D02*
X204Y1075D01*
X244Y1075D02*
X250Y1075D01*
X294Y1075D02*
X300Y1075D01*
X322Y1075D02*
X328Y1075D01*
X345Y1075D02*
X351Y1075D01*
X373Y1075D02*
X379Y1075D01*
X446Y1075D02*
X452Y1075D01*
X498Y1075D02*
X505Y1075D01*
X522Y1075D02*
X529Y1075D01*
X547Y1075D02*
X553Y1075D01*
X570Y1075D02*
X578Y1075D01*
X649Y1075D02*
X654Y1075D01*
X674Y1075D02*
X682Y1075D01*
X699Y1075D02*
X705Y1075D01*
X750Y1075D02*
X756Y1075D01*
X814Y1075D02*
X820Y1075D01*
X865Y1075D02*
X871Y1075D01*
X915Y1075D02*
X921Y1075D01*
X952Y1075D02*
X958Y1075D01*
X1003Y1075D02*
X1009Y1075D01*
X1026Y1075D02*
X1033Y1075D01*
X1173Y1075D02*
X1180Y1075D01*
X0Y1074D02*
X7Y1074D01*
X144Y1074D02*
X147Y1074D01*
X170Y1074D02*
X176Y1074D01*
X196Y1074D02*
X203Y1074D01*
X244Y1074D02*
X250Y1074D01*
X294Y1074D02*
X300Y1074D01*
X322Y1074D02*
X328Y1074D01*
X345Y1074D02*
X351Y1074D01*
X373Y1074D02*
X379Y1074D01*
X446Y1074D02*
X452Y1074D01*
X498Y1074D02*
X504Y1074D01*
X522Y1074D02*
X529Y1074D01*
X547Y1074D02*
X553Y1074D01*
X571Y1074D02*
X578Y1074D01*
X648Y1074D02*
X654Y1074D01*
X675Y1074D02*
X682Y1074D01*
X699Y1074D02*
X705Y1074D01*
X750Y1074D02*
X756Y1074D01*
X814Y1074D02*
X820Y1074D01*
X865Y1074D02*
X871Y1074D01*
X915Y1074D02*
X921Y1074D01*
X952Y1074D02*
X958Y1074D01*
X1003Y1074D02*
X1009Y1074D01*
X1026Y1074D02*
X1033Y1074D01*
X1173Y1074D02*
X1180Y1074D01*
X0Y1073D02*
X7Y1073D01*
X143Y1073D02*
X148Y1073D01*
X170Y1073D02*
X176Y1073D01*
X195Y1073D02*
X203Y1073D01*
X244Y1073D02*
X250Y1073D01*
X294Y1073D02*
X300Y1073D01*
X322Y1073D02*
X328Y1073D01*
X345Y1073D02*
X351Y1073D01*
X373Y1073D02*
X379Y1073D01*
X446Y1073D02*
X452Y1073D01*
X498Y1073D02*
X504Y1073D01*
X523Y1073D02*
X529Y1073D01*
X547Y1073D02*
X553Y1073D01*
X571Y1073D02*
X579Y1073D01*
X648Y1073D02*
X655Y1073D01*
X675Y1073D02*
X682Y1073D01*
X699Y1073D02*
X705Y1073D01*
X750Y1073D02*
X756Y1073D01*
X814Y1073D02*
X820Y1073D01*
X865Y1073D02*
X871Y1073D01*
X915Y1073D02*
X921Y1073D01*
X952Y1073D02*
X958Y1073D01*
X1003Y1073D02*
X1009Y1073D01*
X1027Y1073D02*
X1034Y1073D01*
X1173Y1073D02*
X1180Y1073D01*
X0Y1072D02*
X7Y1072D01*
X143Y1072D02*
X150Y1072D01*
X170Y1072D02*
X176Y1072D01*
X195Y1072D02*
X202Y1072D01*
X244Y1072D02*
X250Y1072D01*
X294Y1072D02*
X300Y1072D01*
X322Y1072D02*
X328Y1072D01*
X345Y1072D02*
X351Y1072D01*
X373Y1072D02*
X379Y1072D01*
X446Y1072D02*
X452Y1072D01*
X498Y1072D02*
X504Y1072D01*
X523Y1072D02*
X529Y1072D01*
X547Y1072D02*
X553Y1072D01*
X572Y1072D02*
X579Y1072D01*
X648Y1072D02*
X655Y1072D01*
X676Y1072D02*
X682Y1072D01*
X699Y1072D02*
X705Y1072D01*
X750Y1072D02*
X756Y1072D01*
X814Y1072D02*
X820Y1072D01*
X865Y1072D02*
X871Y1072D01*
X915Y1072D02*
X921Y1072D01*
X952Y1072D02*
X958Y1072D01*
X1003Y1072D02*
X1009Y1072D01*
X1027Y1072D02*
X1034Y1072D01*
X1173Y1072D02*
X1180Y1072D01*
X0Y1071D02*
X7Y1071D01*
X143Y1071D02*
X152Y1071D01*
X170Y1071D02*
X176Y1071D01*
X195Y1071D02*
X202Y1071D01*
X244Y1071D02*
X250Y1071D01*
X294Y1071D02*
X300Y1071D01*
X322Y1071D02*
X328Y1071D01*
X345Y1071D02*
X351Y1071D01*
X373Y1071D02*
X379Y1071D01*
X446Y1071D02*
X452Y1071D01*
X497Y1071D02*
X504Y1071D01*
X523Y1071D02*
X529Y1071D01*
X547Y1071D02*
X553Y1071D01*
X572Y1071D02*
X579Y1071D01*
X649Y1071D02*
X656Y1071D01*
X676Y1071D02*
X682Y1071D01*
X699Y1071D02*
X705Y1071D01*
X750Y1071D02*
X756Y1071D01*
X814Y1071D02*
X820Y1071D01*
X865Y1071D02*
X871Y1071D01*
X915Y1071D02*
X921Y1071D01*
X952Y1071D02*
X958Y1071D01*
X1003Y1071D02*
X1009Y1071D01*
X1027Y1071D02*
X1035Y1071D01*
X1173Y1071D02*
X1180Y1071D01*
X0Y1070D02*
X7Y1070D01*
X142Y1070D02*
X176Y1070D01*
X194Y1070D02*
X201Y1070D01*
X244Y1070D02*
X275Y1070D01*
X294Y1070D02*
X328Y1070D01*
X345Y1070D02*
X379Y1070D01*
X446Y1070D02*
X478Y1070D01*
X497Y1070D02*
X504Y1070D01*
X523Y1070D02*
X530Y1070D01*
X547Y1070D02*
X553Y1070D01*
X572Y1070D02*
X580Y1070D01*
X649Y1070D02*
X682Y1070D01*
X699Y1070D02*
X705Y1070D01*
X750Y1070D02*
X781Y1070D01*
X802Y1070D02*
X832Y1070D01*
X865Y1070D02*
X871Y1070D01*
X915Y1070D02*
X921Y1070D01*
X952Y1070D02*
X984Y1070D01*
X1003Y1070D02*
X1009Y1070D01*
X1028Y1070D02*
X1035Y1070D01*
X1173Y1070D02*
X1180Y1070D01*
X0Y1069D02*
X7Y1069D01*
X142Y1069D02*
X176Y1069D01*
X194Y1069D02*
X201Y1069D01*
X244Y1069D02*
X276Y1069D01*
X294Y1069D02*
X328Y1069D01*
X345Y1069D02*
X379Y1069D01*
X446Y1069D02*
X479Y1069D01*
X497Y1069D02*
X503Y1069D01*
X523Y1069D02*
X530Y1069D01*
X547Y1069D02*
X553Y1069D01*
X573Y1069D02*
X580Y1069D01*
X649Y1069D02*
X682Y1069D01*
X699Y1069D02*
X705Y1069D01*
X750Y1069D02*
X782Y1069D01*
X801Y1069D02*
X833Y1069D01*
X865Y1069D02*
X871Y1069D01*
X915Y1069D02*
X921Y1069D01*
X952Y1069D02*
X985Y1069D01*
X1003Y1069D02*
X1009Y1069D01*
X1028Y1069D02*
X1036Y1069D01*
X1173Y1069D02*
X1180Y1069D01*
X0Y1068D02*
X7Y1068D01*
X143Y1068D02*
X176Y1068D01*
X193Y1068D02*
X201Y1068D01*
X244Y1068D02*
X277Y1068D01*
X294Y1068D02*
X328Y1068D01*
X345Y1068D02*
X378Y1068D01*
X446Y1068D02*
X479Y1068D01*
X497Y1068D02*
X503Y1068D01*
X524Y1068D02*
X530Y1068D01*
X547Y1068D02*
X553Y1068D01*
X573Y1068D02*
X581Y1068D01*
X649Y1068D02*
X682Y1068D01*
X699Y1068D02*
X705Y1068D01*
X750Y1068D02*
X783Y1068D01*
X801Y1068D02*
X833Y1068D01*
X865Y1068D02*
X871Y1068D01*
X915Y1068D02*
X921Y1068D01*
X952Y1068D02*
X985Y1068D01*
X1003Y1068D02*
X1009Y1068D01*
X1029Y1068D02*
X1036Y1068D01*
X1173Y1068D02*
X1180Y1068D01*
X0Y1067D02*
X7Y1067D01*
X143Y1067D02*
X176Y1067D01*
X193Y1067D02*
X200Y1067D01*
X244Y1067D02*
X277Y1067D01*
X295Y1067D02*
X328Y1067D01*
X345Y1067D02*
X378Y1067D01*
X446Y1067D02*
X480Y1067D01*
X497Y1067D02*
X503Y1067D01*
X524Y1067D02*
X530Y1067D01*
X547Y1067D02*
X553Y1067D01*
X574Y1067D02*
X581Y1067D01*
X650Y1067D02*
X681Y1067D01*
X699Y1067D02*
X705Y1067D01*
X750Y1067D02*
X783Y1067D01*
X800Y1067D02*
X834Y1067D01*
X865Y1067D02*
X871Y1067D01*
X915Y1067D02*
X921Y1067D01*
X952Y1067D02*
X986Y1067D01*
X1003Y1067D02*
X1009Y1067D01*
X1029Y1067D02*
X1036Y1067D01*
X1173Y1067D02*
X1180Y1067D01*
X0Y1066D02*
X7Y1066D01*
X143Y1066D02*
X175Y1066D01*
X193Y1066D02*
X200Y1066D01*
X244Y1066D02*
X277Y1066D01*
X295Y1066D02*
X327Y1066D01*
X346Y1066D02*
X378Y1066D01*
X446Y1066D02*
X480Y1066D01*
X496Y1066D02*
X503Y1066D01*
X524Y1066D02*
X530Y1066D01*
X547Y1066D02*
X553Y1066D01*
X574Y1066D02*
X581Y1066D01*
X650Y1066D02*
X681Y1066D01*
X699Y1066D02*
X705Y1066D01*
X750Y1066D02*
X783Y1066D01*
X800Y1066D02*
X834Y1066D01*
X865Y1066D02*
X871Y1066D01*
X915Y1066D02*
X921Y1066D01*
X952Y1066D02*
X986Y1066D01*
X1003Y1066D02*
X1009Y1066D01*
X1029Y1066D02*
X1036Y1066D01*
X1173Y1066D02*
X1180Y1066D01*
X0Y1065D02*
X7Y1065D01*
X145Y1065D02*
X175Y1065D01*
X193Y1065D02*
X199Y1065D01*
X244Y1065D02*
X277Y1065D01*
X295Y1065D02*
X327Y1065D01*
X346Y1065D02*
X377Y1065D01*
X446Y1065D02*
X480Y1065D01*
X496Y1065D02*
X503Y1065D01*
X524Y1065D02*
X530Y1065D01*
X547Y1065D02*
X553Y1065D01*
X575Y1065D02*
X581Y1065D01*
X651Y1065D02*
X681Y1065D01*
X699Y1065D02*
X705Y1065D01*
X750Y1065D02*
X783Y1065D01*
X800Y1065D02*
X834Y1065D01*
X865Y1065D02*
X871Y1065D01*
X915Y1065D02*
X921Y1065D01*
X952Y1065D02*
X986Y1065D01*
X1003Y1065D02*
X1009Y1065D01*
X1030Y1065D02*
X1036Y1065D01*
X1173Y1065D02*
X1180Y1065D01*
X0Y1064D02*
X7Y1064D01*
X146Y1064D02*
X174Y1064D01*
X193Y1064D02*
X199Y1064D01*
X244Y1064D02*
X277Y1064D01*
X296Y1064D02*
X326Y1064D01*
X347Y1064D02*
X377Y1064D01*
X446Y1064D02*
X480Y1064D01*
X497Y1064D02*
X502Y1064D01*
X525Y1064D02*
X530Y1064D01*
X547Y1064D02*
X553Y1064D01*
X575Y1064D02*
X581Y1064D01*
X652Y1064D02*
X680Y1064D01*
X699Y1064D02*
X705Y1064D01*
X750Y1064D02*
X783Y1064D01*
X800Y1064D02*
X834Y1064D01*
X865Y1064D02*
X870Y1064D01*
X915Y1064D02*
X921Y1064D01*
X952Y1064D02*
X986Y1064D01*
X1003Y1064D02*
X1008Y1064D01*
X1030Y1064D02*
X1036Y1064D01*
X1173Y1064D02*
X1180Y1064D01*
X0Y1063D02*
X7Y1063D01*
X148Y1063D02*
X174Y1063D01*
X194Y1063D02*
X199Y1063D01*
X244Y1063D02*
X277Y1063D01*
X297Y1063D02*
X326Y1063D01*
X347Y1063D02*
X376Y1063D01*
X446Y1063D02*
X479Y1063D01*
X497Y1063D02*
X502Y1063D01*
X525Y1063D02*
X530Y1063D01*
X548Y1063D02*
X553Y1063D01*
X575Y1063D02*
X581Y1063D01*
X652Y1063D02*
X679Y1063D01*
X699Y1063D02*
X705Y1063D01*
X750Y1063D02*
X783Y1063D01*
X801Y1063D02*
X834Y1063D01*
X865Y1063D02*
X870Y1063D01*
X916Y1063D02*
X921Y1063D01*
X952Y1063D02*
X985Y1063D01*
X1003Y1063D02*
X1008Y1063D01*
X1031Y1063D02*
X1036Y1063D01*
X1173Y1063D02*
X1180Y1063D01*
X0Y1062D02*
X7Y1062D01*
X149Y1062D02*
X173Y1062D01*
X194Y1062D02*
X198Y1062D01*
X244Y1062D02*
X276Y1062D01*
X298Y1062D02*
X325Y1062D01*
X348Y1062D02*
X375Y1062D01*
X446Y1062D02*
X479Y1062D01*
X497Y1062D02*
X502Y1062D01*
X525Y1062D02*
X529Y1062D01*
X548Y1062D02*
X552Y1062D01*
X576Y1062D02*
X580Y1062D01*
X653Y1062D02*
X678Y1062D01*
X700Y1062D02*
X704Y1062D01*
X750Y1062D02*
X782Y1062D01*
X801Y1062D02*
X833Y1062D01*
X866Y1062D02*
X870Y1062D01*
X916Y1062D02*
X920Y1062D01*
X952Y1062D02*
X985Y1062D01*
X1004Y1062D02*
X1008Y1062D01*
X1031Y1062D02*
X1035Y1062D01*
X1173Y1062D02*
X1180Y1062D01*
X0Y1061D02*
X7Y1061D01*
X151Y1061D02*
X171Y1061D01*
X195Y1061D02*
X197Y1061D01*
X244Y1061D02*
X275Y1061D01*
X299Y1061D02*
X323Y1061D01*
X350Y1061D02*
X374Y1061D01*
X446Y1061D02*
X478Y1061D01*
X498Y1061D02*
X501Y1061D01*
X526Y1061D02*
X528Y1061D01*
X577Y1061D02*
X579Y1061D01*
X655Y1061D02*
X677Y1061D01*
X701Y1061D02*
X703Y1061D01*
X750Y1061D02*
X781Y1061D01*
X802Y1061D02*
X832Y1061D01*
X867Y1061D02*
X869Y1061D01*
X917Y1061D02*
X919Y1061D01*
X952Y1061D02*
X984Y1061D01*
X1005Y1061D02*
X1007Y1061D01*
X1032Y1061D02*
X1034Y1061D01*
X1173Y1061D02*
X1180Y1061D01*
X0Y1060D02*
X7Y1060D01*
X1173Y1060D02*
X1180Y1060D01*
X0Y1059D02*
X7Y1059D01*
X1173Y1059D02*
X1180Y1059D01*
X0Y1058D02*
X7Y1058D01*
X1173Y1058D02*
X1180Y1058D01*
X0Y1057D02*
X7Y1057D01*
X1173Y1057D02*
X1180Y1057D01*
X0Y1056D02*
X7Y1056D01*
X1173Y1056D02*
X1180Y1056D01*
X0Y1055D02*
X7Y1055D01*
X1173Y1055D02*
X1180Y1055D01*
X0Y1054D02*
X7Y1054D01*
X1173Y1054D02*
X1180Y1054D01*
X0Y1053D02*
X7Y1053D01*
X411Y1053D02*
X510Y1053D01*
X578Y1053D02*
X673Y1053D01*
X1173Y1053D02*
X1180Y1053D01*
X0Y1052D02*
X7Y1052D01*
X410Y1052D02*
X508Y1052D01*
X580Y1052D02*
X674Y1052D01*
X1173Y1052D02*
X1180Y1052D01*
X0Y1051D02*
X7Y1051D01*
X410Y1051D02*
X506Y1051D01*
X581Y1051D02*
X674Y1051D01*
X1173Y1051D02*
X1180Y1051D01*
X0Y1050D02*
X7Y1050D01*
X411Y1050D02*
X505Y1050D01*
X583Y1050D02*
X673Y1050D01*
X1173Y1050D02*
X1180Y1050D01*
X0Y1049D02*
X7Y1049D01*
X412Y1049D02*
X503Y1049D01*
X584Y1049D02*
X672Y1049D01*
X1173Y1049D02*
X1180Y1049D01*
X0Y1048D02*
X7Y1048D01*
X1173Y1048D02*
X1180Y1048D01*
X0Y1047D02*
X7Y1047D01*
X1173Y1047D02*
X1180Y1047D01*
X0Y1046D02*
X7Y1046D01*
X1173Y1046D02*
X1180Y1046D01*
X0Y1045D02*
X7Y1045D01*
X1173Y1045D02*
X1180Y1045D01*
X0Y1044D02*
X7Y1044D01*
X1173Y1044D02*
X1180Y1044D01*
X0Y1043D02*
X7Y1043D01*
X1173Y1043D02*
X1180Y1043D01*
X0Y1042D02*
X7Y1042D01*
X1173Y1042D02*
X1180Y1042D01*
X0Y1041D02*
X7Y1041D01*
X1173Y1041D02*
X1180Y1041D01*
X0Y1040D02*
X7Y1040D01*
X1173Y1040D02*
X1180Y1040D01*
X0Y1039D02*
X7Y1039D01*
X1173Y1039D02*
X1180Y1039D01*
X0Y1038D02*
X7Y1038D01*
X1173Y1038D02*
X1180Y1038D01*
X0Y1037D02*
X7Y1037D01*
X1173Y1037D02*
X1180Y1037D01*
X0Y1036D02*
X7Y1036D01*
X1173Y1036D02*
X1180Y1036D01*
X0Y1035D02*
X7Y1035D01*
X1173Y1035D02*
X1180Y1035D01*
X0Y1034D02*
X7Y1034D01*
X1173Y1034D02*
X1180Y1034D01*
X0Y1033D02*
X7Y1033D01*
X1173Y1033D02*
X1180Y1033D01*
X0Y1032D02*
X7Y1032D01*
X1173Y1032D02*
X1180Y1032D01*
X0Y1031D02*
X7Y1031D01*
X1173Y1031D02*
X1180Y1031D01*
X0Y1030D02*
X7Y1030D01*
X1173Y1030D02*
X1180Y1030D01*
X0Y1029D02*
X7Y1029D01*
X1173Y1029D02*
X1180Y1029D01*
X0Y1028D02*
X7Y1028D01*
X1173Y1028D02*
X1180Y1028D01*
X0Y1027D02*
X7Y1027D01*
X1173Y1027D02*
X1180Y1027D01*
X0Y1026D02*
X7Y1026D01*
X1173Y1026D02*
X1180Y1026D01*
X0Y1025D02*
X7Y1025D01*
X1173Y1025D02*
X1180Y1025D01*
X0Y1024D02*
X7Y1024D01*
X1173Y1024D02*
X1180Y1024D01*
X0Y1023D02*
X7Y1023D01*
X1173Y1023D02*
X1180Y1023D01*
X0Y1022D02*
X7Y1022D01*
X1173Y1022D02*
X1180Y1022D01*
X0Y1021D02*
X7Y1021D01*
X1173Y1021D02*
X1180Y1021D01*
X0Y1020D02*
X7Y1020D01*
X1173Y1020D02*
X1180Y1020D01*
X0Y1019D02*
X7Y1019D01*
X1173Y1019D02*
X1180Y1019D01*
X0Y1018D02*
X7Y1018D01*
X1173Y1018D02*
X1180Y1018D01*
X0Y1017D02*
X7Y1017D01*
X1173Y1017D02*
X1180Y1017D01*
X0Y1016D02*
X7Y1016D01*
X1173Y1016D02*
X1180Y1016D01*
X0Y1015D02*
X7Y1015D01*
X1173Y1015D02*
X1180Y1015D01*
X0Y1014D02*
X7Y1014D01*
X1173Y1014D02*
X1180Y1014D01*
X0Y1013D02*
X7Y1013D01*
X1173Y1013D02*
X1180Y1013D01*
X0Y1012D02*
X7Y1012D01*
X1173Y1012D02*
X1180Y1012D01*
X0Y1011D02*
X7Y1011D01*
X1173Y1011D02*
X1180Y1011D01*
X0Y1010D02*
X7Y1010D01*
X1173Y1010D02*
X1180Y1010D01*
X0Y1009D02*
X7Y1009D01*
X1173Y1009D02*
X1180Y1009D01*
X0Y1008D02*
X7Y1008D01*
X1173Y1008D02*
X1180Y1008D01*
X0Y1007D02*
X7Y1007D01*
X1173Y1007D02*
X1180Y1007D01*
X0Y1006D02*
X7Y1006D01*
X1173Y1006D02*
X1180Y1006D01*
X0Y1005D02*
X7Y1005D01*
X1173Y1005D02*
X1180Y1005D01*
X0Y1004D02*
X7Y1004D01*
X1173Y1004D02*
X1180Y1004D01*
X0Y1003D02*
X7Y1003D01*
X1173Y1003D02*
X1180Y1003D01*
X0Y1002D02*
X7Y1002D01*
X1173Y1002D02*
X1180Y1002D01*
X0Y1001D02*
X7Y1001D01*
X1173Y1001D02*
X1180Y1001D01*
X0Y1000D02*
X7Y1000D01*
X1173Y1000D02*
X1180Y1000D01*
X0Y999D02*
X7Y999D01*
X1173Y999D02*
X1180Y999D01*
X0Y998D02*
X7Y998D01*
X1173Y998D02*
X1180Y998D01*
X0Y997D02*
X7Y997D01*
X1173Y997D02*
X1180Y997D01*
X0Y996D02*
X7Y996D01*
X1173Y996D02*
X1180Y996D01*
X0Y995D02*
X7Y995D01*
X1173Y995D02*
X1180Y995D01*
X0Y994D02*
X7Y994D01*
X1098Y994D02*
X1106Y994D01*
X1140Y994D02*
X1141Y994D01*
X1173Y994D02*
X1180Y994D01*
X0Y993D02*
X7Y993D01*
X1096Y993D02*
X1108Y993D01*
X1138Y993D02*
X1142Y993D01*
X1173Y993D02*
X1180Y993D01*
X0Y992D02*
X7Y992D01*
X1094Y992D02*
X1110Y992D01*
X1136Y992D02*
X1143Y992D01*
X1173Y992D02*
X1180Y992D01*
X0Y991D02*
X7Y991D01*
X1093Y991D02*
X1111Y991D01*
X1134Y991D02*
X1143Y991D01*
X1173Y991D02*
X1180Y991D01*
X0Y990D02*
X7Y990D01*
X1092Y990D02*
X1112Y990D01*
X1132Y990D02*
X1143Y990D01*
X1173Y990D02*
X1180Y990D01*
X0Y989D02*
X7Y989D01*
X1091Y989D02*
X1112Y989D01*
X1131Y989D02*
X1143Y989D01*
X1173Y989D02*
X1180Y989D01*
X0Y988D02*
X7Y988D01*
X1091Y988D02*
X1113Y988D01*
X1129Y988D02*
X1142Y988D01*
X1173Y988D02*
X1180Y988D01*
X0Y987D02*
X7Y987D01*
X1091Y987D02*
X1098Y987D01*
X1105Y987D02*
X1113Y987D01*
X1127Y987D02*
X1140Y987D01*
X1173Y987D02*
X1180Y987D01*
X0Y986D02*
X7Y986D01*
X1090Y986D02*
X1097Y986D01*
X1107Y986D02*
X1113Y986D01*
X1126Y986D02*
X1139Y986D01*
X1173Y986D02*
X1180Y986D01*
X0Y985D02*
X7Y985D01*
X1090Y985D02*
X1096Y985D01*
X1107Y985D02*
X1114Y985D01*
X1124Y985D02*
X1137Y985D01*
X1173Y985D02*
X1180Y985D01*
X0Y984D02*
X7Y984D01*
X1090Y984D02*
X1096Y984D01*
X1108Y984D02*
X1114Y984D01*
X1122Y984D02*
X1135Y984D01*
X1173Y984D02*
X1180Y984D01*
X0Y983D02*
X7Y983D01*
X1090Y983D02*
X1096Y983D01*
X1108Y983D02*
X1114Y983D01*
X1120Y983D02*
X1133Y983D01*
X1173Y983D02*
X1180Y983D01*
X0Y982D02*
X7Y982D01*
X1090Y982D02*
X1096Y982D01*
X1108Y982D02*
X1114Y982D01*
X1119Y982D02*
X1132Y982D01*
X1173Y982D02*
X1180Y982D01*
X0Y981D02*
X7Y981D01*
X1090Y981D02*
X1096Y981D01*
X1108Y981D02*
X1114Y981D01*
X1117Y981D02*
X1130Y981D01*
X1173Y981D02*
X1180Y981D01*
X0Y980D02*
X7Y980D01*
X1090Y980D02*
X1096Y980D01*
X1108Y980D02*
X1128Y980D01*
X1173Y980D02*
X1180Y980D01*
X0Y979D02*
X7Y979D01*
X1090Y979D02*
X1096Y979D01*
X1108Y979D02*
X1127Y979D01*
X1173Y979D02*
X1180Y979D01*
X0Y978D02*
X7Y978D01*
X1090Y978D02*
X1096Y978D01*
X1108Y978D02*
X1125Y978D01*
X1173Y978D02*
X1180Y978D01*
X0Y977D02*
X7Y977D01*
X1090Y977D02*
X1096Y977D01*
X1108Y977D02*
X1123Y977D01*
X1173Y977D02*
X1180Y977D01*
X0Y976D02*
X7Y976D01*
X1090Y976D02*
X1096Y976D01*
X1108Y976D02*
X1121Y976D01*
X1173Y976D02*
X1180Y976D01*
X0Y975D02*
X7Y975D01*
X1090Y975D02*
X1096Y975D01*
X1108Y975D02*
X1120Y975D01*
X1173Y975D02*
X1180Y975D01*
X0Y974D02*
X7Y974D01*
X1090Y974D02*
X1096Y974D01*
X1108Y974D02*
X1118Y974D01*
X1173Y974D02*
X1180Y974D01*
X0Y973D02*
X7Y973D01*
X1090Y973D02*
X1096Y973D01*
X1108Y973D02*
X1116Y973D01*
X1173Y973D02*
X1180Y973D01*
X0Y972D02*
X7Y972D01*
X1090Y972D02*
X1096Y972D01*
X1108Y972D02*
X1115Y972D01*
X1173Y972D02*
X1180Y972D01*
X0Y971D02*
X7Y971D01*
X1090Y971D02*
X1096Y971D01*
X1108Y971D02*
X1114Y971D01*
X1173Y971D02*
X1180Y971D01*
X0Y970D02*
X7Y970D01*
X1090Y970D02*
X1096Y970D01*
X1108Y970D02*
X1114Y970D01*
X1173Y970D02*
X1180Y970D01*
X0Y969D02*
X7Y969D01*
X1090Y969D02*
X1096Y969D01*
X1108Y969D02*
X1114Y969D01*
X1173Y969D02*
X1180Y969D01*
X0Y968D02*
X7Y968D01*
X1090Y968D02*
X1096Y968D01*
X1108Y968D02*
X1114Y968D01*
X1173Y968D02*
X1180Y968D01*
X0Y967D02*
X7Y967D01*
X1090Y967D02*
X1096Y967D01*
X1108Y967D02*
X1114Y967D01*
X1173Y967D02*
X1180Y967D01*
X0Y966D02*
X7Y966D01*
X1090Y966D02*
X1142Y966D01*
X1173Y966D02*
X1180Y966D01*
X0Y965D02*
X7Y965D01*
X1090Y965D02*
X1143Y965D01*
X1173Y965D02*
X1180Y965D01*
X0Y964D02*
X7Y964D01*
X1090Y964D02*
X1143Y964D01*
X1173Y964D02*
X1180Y964D01*
X0Y963D02*
X7Y963D01*
X1090Y963D02*
X1143Y963D01*
X1173Y963D02*
X1180Y963D01*
X0Y962D02*
X7Y962D01*
X1090Y962D02*
X1143Y962D01*
X1173Y962D02*
X1180Y962D01*
X0Y961D02*
X7Y961D01*
X1090Y961D02*
X1142Y961D01*
X1173Y961D02*
X1180Y961D01*
X0Y960D02*
X7Y960D01*
X1090Y960D02*
X1141Y960D01*
X1173Y960D02*
X1180Y960D01*
X0Y959D02*
X7Y959D01*
X1173Y959D02*
X1180Y959D01*
X0Y958D02*
X7Y958D01*
X1173Y958D02*
X1180Y958D01*
X0Y957D02*
X7Y957D01*
X1173Y957D02*
X1180Y957D01*
X0Y956D02*
X7Y956D01*
X31Y956D02*
X33Y956D01*
X1173Y956D02*
X1180Y956D01*
X0Y955D02*
X7Y955D01*
X31Y955D02*
X33Y955D01*
X1173Y955D02*
X1180Y955D01*
X0Y954D02*
X7Y954D01*
X30Y954D02*
X34Y954D01*
X1173Y954D02*
X1180Y954D01*
X0Y953D02*
X7Y953D01*
X30Y953D02*
X34Y953D01*
X1173Y953D02*
X1180Y953D01*
X0Y952D02*
X7Y952D01*
X30Y952D02*
X34Y952D01*
X42Y952D02*
X43Y952D01*
X1173Y952D02*
X1180Y952D01*
X0Y951D02*
X7Y951D01*
X30Y951D02*
X34Y951D01*
X41Y951D02*
X44Y951D01*
X1173Y951D02*
X1180Y951D01*
X0Y950D02*
X7Y950D01*
X30Y950D02*
X34Y950D01*
X41Y950D02*
X44Y950D01*
X1173Y950D02*
X1180Y950D01*
X0Y949D02*
X7Y949D01*
X30Y949D02*
X34Y949D01*
X41Y949D02*
X44Y949D01*
X1173Y949D02*
X1180Y949D01*
X0Y948D02*
X7Y948D01*
X30Y948D02*
X34Y948D01*
X41Y948D02*
X44Y948D01*
X1173Y948D02*
X1180Y948D01*
X0Y947D02*
X7Y947D01*
X30Y947D02*
X34Y947D01*
X41Y947D02*
X44Y947D01*
X1173Y947D02*
X1180Y947D01*
X0Y946D02*
X7Y946D01*
X30Y946D02*
X34Y946D01*
X41Y946D02*
X44Y946D01*
X1173Y946D02*
X1180Y946D01*
X0Y945D02*
X7Y945D01*
X30Y945D02*
X34Y945D01*
X41Y945D02*
X44Y945D01*
X1173Y945D02*
X1180Y945D01*
X0Y944D02*
X7Y944D01*
X30Y944D02*
X34Y944D01*
X41Y944D02*
X44Y944D01*
X1093Y944D02*
X1093Y944D01*
X1140Y944D02*
X1140Y944D01*
X1173Y944D02*
X1180Y944D01*
X0Y943D02*
X7Y943D01*
X30Y943D02*
X34Y943D01*
X41Y943D02*
X44Y943D01*
X1091Y943D02*
X1095Y943D01*
X1138Y943D02*
X1142Y943D01*
X1173Y943D02*
X1180Y943D01*
X0Y942D02*
X7Y942D01*
X30Y942D02*
X34Y942D01*
X41Y942D02*
X44Y942D01*
X1090Y942D02*
X1096Y942D01*
X1137Y942D02*
X1143Y942D01*
X1173Y942D02*
X1180Y942D01*
X0Y941D02*
X7Y941D01*
X30Y941D02*
X34Y941D01*
X41Y941D02*
X44Y941D01*
X1090Y941D02*
X1097Y941D01*
X1136Y941D02*
X1143Y941D01*
X1173Y941D02*
X1180Y941D01*
X0Y940D02*
X7Y940D01*
X30Y940D02*
X34Y940D01*
X41Y940D02*
X44Y940D01*
X1090Y940D02*
X1098Y940D01*
X1136Y940D02*
X1143Y940D01*
X1173Y940D02*
X1180Y940D01*
X0Y939D02*
X7Y939D01*
X30Y939D02*
X61Y939D01*
X266Y939D02*
X504Y939D01*
X584Y939D02*
X818Y939D01*
X1090Y939D02*
X1098Y939D01*
X1135Y939D02*
X1143Y939D01*
X1173Y939D02*
X1180Y939D01*
X0Y938D02*
X7Y938D01*
X30Y938D02*
X62Y938D01*
X265Y938D02*
X505Y938D01*
X583Y938D02*
X819Y938D01*
X1091Y938D02*
X1099Y938D01*
X1134Y938D02*
X1142Y938D01*
X1173Y938D02*
X1180Y938D01*
X0Y937D02*
X7Y937D01*
X30Y937D02*
X62Y937D01*
X265Y937D02*
X506Y937D01*
X581Y937D02*
X820Y937D01*
X1092Y937D02*
X1100Y937D01*
X1133Y937D02*
X1141Y937D01*
X1173Y937D02*
X1180Y937D01*
X0Y936D02*
X7Y936D01*
X30Y936D02*
X61Y936D01*
X265Y936D02*
X508Y936D01*
X579Y936D02*
X819Y936D01*
X1093Y936D02*
X1101Y936D01*
X1132Y936D02*
X1140Y936D01*
X1173Y936D02*
X1180Y936D01*
X0Y935D02*
X7Y935D01*
X265Y935D02*
X510Y935D01*
X578Y935D02*
X819Y935D01*
X1094Y935D02*
X1102Y935D01*
X1131Y935D02*
X1140Y935D01*
X1173Y935D02*
X1180Y935D01*
X0Y934D02*
X7Y934D01*
X1094Y934D02*
X1103Y934D01*
X1130Y934D02*
X1139Y934D01*
X1173Y934D02*
X1180Y934D01*
X0Y933D02*
X7Y933D01*
X1095Y933D02*
X1104Y933D01*
X1130Y933D02*
X1138Y933D01*
X1173Y933D02*
X1180Y933D01*
X0Y932D02*
X7Y932D01*
X1096Y932D02*
X1104Y932D01*
X1129Y932D02*
X1137Y932D01*
X1173Y932D02*
X1180Y932D01*
X0Y931D02*
X7Y931D01*
X1097Y931D02*
X1105Y931D01*
X1128Y931D02*
X1136Y931D01*
X1173Y931D02*
X1180Y931D01*
X0Y930D02*
X7Y930D01*
X1098Y930D02*
X1106Y930D01*
X1127Y930D02*
X1135Y930D01*
X1173Y930D02*
X1180Y930D01*
X0Y929D02*
X7Y929D01*
X1099Y929D02*
X1107Y929D01*
X1126Y929D02*
X1134Y929D01*
X1173Y929D02*
X1180Y929D01*
X0Y928D02*
X7Y928D01*
X1100Y928D02*
X1108Y928D01*
X1125Y928D02*
X1134Y928D01*
X1173Y928D02*
X1180Y928D01*
X0Y927D02*
X7Y927D01*
X1100Y927D02*
X1109Y927D01*
X1124Y927D02*
X1133Y927D01*
X1173Y927D02*
X1180Y927D01*
X0Y926D02*
X7Y926D01*
X40Y926D02*
X61Y926D01*
X1101Y926D02*
X1110Y926D01*
X1124Y926D02*
X1132Y926D01*
X1173Y926D02*
X1180Y926D01*
X0Y925D02*
X7Y925D01*
X39Y925D02*
X62Y925D01*
X1102Y925D02*
X1110Y925D01*
X1123Y925D02*
X1131Y925D01*
X1173Y925D02*
X1180Y925D01*
X0Y924D02*
X7Y924D01*
X39Y924D02*
X62Y924D01*
X1103Y924D02*
X1111Y924D01*
X1122Y924D02*
X1130Y924D01*
X1173Y924D02*
X1180Y924D01*
X0Y923D02*
X7Y923D01*
X40Y923D02*
X61Y923D01*
X1104Y923D02*
X1112Y923D01*
X1121Y923D02*
X1129Y923D01*
X1173Y923D02*
X1180Y923D01*
X0Y922D02*
X7Y922D01*
X42Y922D02*
X59Y922D01*
X1105Y922D02*
X1113Y922D01*
X1120Y922D02*
X1128Y922D01*
X1173Y922D02*
X1180Y922D01*
X0Y921D02*
X7Y921D01*
X55Y921D02*
X59Y921D01*
X1106Y921D02*
X1114Y921D01*
X1119Y921D02*
X1128Y921D01*
X1173Y921D02*
X1180Y921D01*
X0Y920D02*
X7Y920D01*
X56Y920D02*
X60Y920D01*
X1106Y920D02*
X1115Y920D01*
X1118Y920D02*
X1127Y920D01*
X1173Y920D02*
X1180Y920D01*
X0Y919D02*
X7Y919D01*
X56Y919D02*
X60Y919D01*
X1107Y919D02*
X1116Y919D01*
X1118Y919D02*
X1126Y919D01*
X1173Y919D02*
X1180Y919D01*
X0Y918D02*
X7Y918D01*
X57Y918D02*
X61Y918D01*
X1108Y918D02*
X1125Y918D01*
X1173Y918D02*
X1180Y918D01*
X0Y917D02*
X7Y917D01*
X57Y917D02*
X61Y917D01*
X1109Y917D02*
X1124Y917D01*
X1173Y917D02*
X1180Y917D01*
X0Y916D02*
X7Y916D01*
X58Y916D02*
X62Y916D01*
X1092Y916D02*
X1141Y916D01*
X1173Y916D02*
X1180Y916D01*
X0Y915D02*
X7Y915D01*
X59Y915D02*
X62Y915D01*
X1091Y915D02*
X1142Y915D01*
X1173Y915D02*
X1180Y915D01*
X0Y914D02*
X7Y914D01*
X59Y914D02*
X62Y914D01*
X1090Y914D02*
X1143Y914D01*
X1173Y914D02*
X1180Y914D01*
X0Y913D02*
X7Y913D01*
X59Y913D02*
X62Y913D01*
X1090Y913D02*
X1143Y913D01*
X1173Y913D02*
X1180Y913D01*
X0Y912D02*
X7Y912D01*
X59Y912D02*
X62Y912D01*
X1090Y912D02*
X1143Y912D01*
X1173Y912D02*
X1180Y912D01*
X0Y911D02*
X7Y911D01*
X58Y911D02*
X62Y911D01*
X1091Y911D02*
X1142Y911D01*
X1173Y911D02*
X1180Y911D01*
X0Y910D02*
X7Y910D01*
X52Y910D02*
X61Y910D01*
X1092Y910D02*
X1141Y910D01*
X1173Y910D02*
X1180Y910D01*
X0Y909D02*
X7Y909D01*
X40Y909D02*
X61Y909D01*
X1173Y909D02*
X1180Y909D01*
X0Y908D02*
X7Y908D01*
X39Y908D02*
X60Y908D01*
X1173Y908D02*
X1180Y908D01*
X0Y907D02*
X7Y907D01*
X39Y907D02*
X59Y907D01*
X1173Y907D02*
X1180Y907D01*
X0Y906D02*
X7Y906D01*
X40Y906D02*
X56Y906D01*
X1173Y906D02*
X1180Y906D01*
X0Y905D02*
X7Y905D01*
X1173Y905D02*
X1180Y905D01*
X0Y904D02*
X7Y904D01*
X1173Y904D02*
X1180Y904D01*
X0Y903D02*
X7Y903D01*
X1173Y903D02*
X1180Y903D01*
X0Y902D02*
X7Y902D01*
X1173Y902D02*
X1180Y902D01*
X0Y901D02*
X7Y901D01*
X1173Y901D02*
X1180Y901D01*
X0Y900D02*
X7Y900D01*
X1173Y900D02*
X1180Y900D01*
X0Y899D02*
X7Y899D01*
X1173Y899D02*
X1180Y899D01*
X0Y898D02*
X7Y898D01*
X1173Y898D02*
X1180Y898D01*
X0Y897D02*
X7Y897D01*
X1173Y897D02*
X1180Y897D01*
X0Y896D02*
X7Y896D01*
X32Y896D02*
X32Y896D01*
X48Y896D02*
X58Y896D01*
X1173Y896D02*
X1180Y896D01*
X0Y895D02*
X7Y895D01*
X31Y895D02*
X33Y895D01*
X46Y895D02*
X60Y895D01*
X1173Y895D02*
X1180Y895D01*
X0Y894D02*
X7Y894D01*
X30Y894D02*
X34Y894D01*
X45Y894D02*
X61Y894D01*
X1173Y894D02*
X1180Y894D01*
X0Y893D02*
X7Y893D01*
X30Y893D02*
X34Y893D01*
X45Y893D02*
X62Y893D01*
X1096Y893D02*
X1116Y893D01*
X1173Y893D02*
X1180Y893D01*
X0Y892D02*
X7Y892D01*
X30Y892D02*
X34Y892D01*
X45Y892D02*
X62Y892D01*
X1095Y892D02*
X1118Y892D01*
X1173Y892D02*
X1180Y892D01*
X0Y891D02*
X7Y891D01*
X30Y891D02*
X34Y891D01*
X44Y891D02*
X48Y891D01*
X59Y891D02*
X62Y891D01*
X1093Y891D02*
X1119Y891D01*
X1173Y891D02*
X1180Y891D01*
X0Y890D02*
X7Y890D01*
X30Y890D02*
X34Y890D01*
X44Y890D02*
X48Y890D01*
X59Y890D02*
X62Y890D01*
X1092Y890D02*
X1120Y890D01*
X1173Y890D02*
X1180Y890D01*
X0Y889D02*
X7Y889D01*
X30Y889D02*
X34Y889D01*
X44Y889D02*
X48Y889D01*
X59Y889D02*
X62Y889D01*
X1092Y889D02*
X1121Y889D01*
X1173Y889D02*
X1180Y889D01*
X0Y888D02*
X7Y888D01*
X30Y888D02*
X34Y888D01*
X44Y888D02*
X48Y888D01*
X59Y888D02*
X62Y888D01*
X1091Y888D02*
X1121Y888D01*
X1173Y888D02*
X1180Y888D01*
X0Y887D02*
X7Y887D01*
X30Y887D02*
X34Y887D01*
X44Y887D02*
X48Y887D01*
X59Y887D02*
X62Y887D01*
X1091Y887D02*
X1122Y887D01*
X1173Y887D02*
X1180Y887D01*
X0Y886D02*
X7Y886D01*
X30Y886D02*
X34Y886D01*
X44Y886D02*
X48Y886D01*
X59Y886D02*
X62Y886D01*
X82Y886D02*
X83Y886D01*
X135Y886D02*
X136Y886D01*
X1090Y886D02*
X1097Y886D01*
X1115Y886D02*
X1122Y886D01*
X1173Y886D02*
X1180Y886D01*
X0Y885D02*
X7Y885D01*
X30Y885D02*
X34Y885D01*
X44Y885D02*
X48Y885D01*
X59Y885D02*
X62Y885D01*
X81Y885D02*
X85Y885D01*
X134Y885D02*
X137Y885D01*
X1090Y885D02*
X1097Y885D01*
X1116Y885D02*
X1122Y885D01*
X1173Y885D02*
X1180Y885D01*
X0Y884D02*
X7Y884D01*
X30Y884D02*
X34Y884D01*
X44Y884D02*
X48Y884D01*
X59Y884D02*
X62Y884D01*
X81Y884D02*
X86Y884D01*
X132Y884D02*
X138Y884D01*
X1090Y884D02*
X1096Y884D01*
X1116Y884D02*
X1122Y884D01*
X1173Y884D02*
X1180Y884D01*
X0Y883D02*
X7Y883D01*
X30Y883D02*
X48Y883D01*
X59Y883D02*
X62Y883D01*
X80Y883D02*
X88Y883D01*
X131Y883D02*
X138Y883D01*
X1090Y883D02*
X1096Y883D01*
X1117Y883D02*
X1123Y883D01*
X1173Y883D02*
X1180Y883D01*
X0Y882D02*
X7Y882D01*
X30Y882D02*
X48Y882D01*
X59Y882D02*
X62Y882D01*
X79Y882D02*
X88Y882D01*
X130Y882D02*
X139Y882D01*
X1090Y882D02*
X1096Y882D01*
X1117Y882D02*
X1123Y882D01*
X1173Y882D02*
X1180Y882D01*
X0Y881D02*
X7Y881D01*
X30Y881D02*
X48Y881D01*
X58Y881D02*
X62Y881D01*
X79Y881D02*
X87Y881D01*
X131Y881D02*
X139Y881D01*
X1090Y881D02*
X1096Y881D01*
X1117Y881D02*
X1123Y881D01*
X1173Y881D02*
X1180Y881D01*
X0Y880D02*
X7Y880D01*
X30Y880D02*
X48Y880D01*
X58Y880D02*
X61Y880D01*
X79Y880D02*
X86Y880D01*
X132Y880D02*
X140Y880D01*
X1090Y880D02*
X1096Y880D01*
X1117Y880D02*
X1123Y880D01*
X1173Y880D02*
X1180Y880D01*
X0Y879D02*
X7Y879D01*
X57Y879D02*
X61Y879D01*
X78Y879D02*
X86Y879D01*
X132Y879D02*
X140Y879D01*
X1090Y879D02*
X1096Y879D01*
X1117Y879D02*
X1123Y879D01*
X1173Y879D02*
X1180Y879D01*
X0Y878D02*
X7Y878D01*
X57Y878D02*
X61Y878D01*
X78Y878D02*
X85Y878D01*
X133Y878D02*
X140Y878D01*
X1090Y878D02*
X1096Y878D01*
X1117Y878D02*
X1123Y878D01*
X1173Y878D02*
X1180Y878D01*
X0Y877D02*
X7Y877D01*
X57Y877D02*
X60Y877D01*
X77Y877D02*
X85Y877D01*
X133Y877D02*
X141Y877D01*
X1090Y877D02*
X1096Y877D01*
X1117Y877D02*
X1123Y877D01*
X1173Y877D02*
X1180Y877D01*
X0Y876D02*
X7Y876D01*
X58Y876D02*
X59Y876D01*
X77Y876D02*
X84Y876D01*
X134Y876D02*
X141Y876D01*
X1090Y876D02*
X1096Y876D01*
X1117Y876D02*
X1123Y876D01*
X1173Y876D02*
X1180Y876D01*
X0Y875D02*
X7Y875D01*
X77Y875D02*
X84Y875D01*
X134Y875D02*
X141Y875D01*
X1090Y875D02*
X1096Y875D01*
X1117Y875D02*
X1123Y875D01*
X1173Y875D02*
X1180Y875D01*
X0Y874D02*
X7Y874D01*
X77Y874D02*
X84Y874D01*
X135Y874D02*
X142Y874D01*
X1090Y874D02*
X1096Y874D01*
X1117Y874D02*
X1123Y874D01*
X1173Y874D02*
X1180Y874D01*
X0Y873D02*
X7Y873D01*
X76Y873D02*
X83Y873D01*
X135Y873D02*
X142Y873D01*
X1090Y873D02*
X1096Y873D01*
X1117Y873D02*
X1123Y873D01*
X1173Y873D02*
X1180Y873D01*
X0Y872D02*
X7Y872D01*
X76Y872D02*
X83Y872D01*
X135Y872D02*
X142Y872D01*
X1090Y872D02*
X1096Y872D01*
X1117Y872D02*
X1123Y872D01*
X1173Y872D02*
X1180Y872D01*
X0Y871D02*
X7Y871D01*
X76Y871D02*
X83Y871D01*
X135Y871D02*
X142Y871D01*
X1090Y871D02*
X1096Y871D01*
X1117Y871D02*
X1123Y871D01*
X1173Y871D02*
X1180Y871D01*
X0Y870D02*
X7Y870D01*
X76Y870D02*
X83Y870D01*
X136Y870D02*
X142Y870D01*
X1090Y870D02*
X1096Y870D01*
X1117Y870D02*
X1123Y870D01*
X1173Y870D02*
X1180Y870D01*
X0Y869D02*
X7Y869D01*
X76Y869D02*
X83Y869D01*
X136Y869D02*
X142Y869D01*
X1090Y869D02*
X1096Y869D01*
X1117Y869D02*
X1123Y869D01*
X1173Y869D02*
X1180Y869D01*
X0Y868D02*
X7Y868D01*
X76Y868D02*
X82Y868D01*
X136Y868D02*
X142Y868D01*
X1090Y868D02*
X1096Y868D01*
X1117Y868D02*
X1123Y868D01*
X1173Y868D02*
X1180Y868D01*
X0Y867D02*
X7Y867D01*
X76Y867D02*
X82Y867D01*
X136Y867D02*
X142Y867D01*
X1090Y867D02*
X1096Y867D01*
X1117Y867D02*
X1123Y867D01*
X1173Y867D02*
X1180Y867D01*
X0Y866D02*
X7Y866D01*
X76Y866D02*
X82Y866D01*
X136Y866D02*
X142Y866D01*
X1090Y866D02*
X1141Y866D01*
X1173Y866D02*
X1180Y866D01*
X0Y865D02*
X7Y865D01*
X32Y865D02*
X60Y865D01*
X76Y865D02*
X83Y865D01*
X136Y865D02*
X142Y865D01*
X1090Y865D02*
X1142Y865D01*
X1173Y865D02*
X1180Y865D01*
X0Y864D02*
X7Y864D01*
X31Y864D02*
X61Y864D01*
X76Y864D02*
X83Y864D01*
X136Y864D02*
X142Y864D01*
X1090Y864D02*
X1143Y864D01*
X1173Y864D02*
X1180Y864D01*
X0Y863D02*
X7Y863D01*
X31Y863D02*
X62Y863D01*
X76Y863D02*
X83Y863D01*
X135Y863D02*
X142Y863D01*
X1090Y863D02*
X1143Y863D01*
X1173Y863D02*
X1180Y863D01*
X0Y862D02*
X7Y862D01*
X30Y862D02*
X62Y862D01*
X76Y862D02*
X83Y862D01*
X135Y862D02*
X142Y862D01*
X1090Y862D02*
X1143Y862D01*
X1173Y862D02*
X1180Y862D01*
X0Y861D02*
X7Y861D01*
X30Y861D02*
X34Y861D01*
X59Y861D02*
X62Y861D01*
X76Y861D02*
X83Y861D01*
X135Y861D02*
X142Y861D01*
X1090Y861D02*
X1143Y861D01*
X1173Y861D02*
X1180Y861D01*
X0Y860D02*
X7Y860D01*
X30Y860D02*
X34Y860D01*
X59Y860D02*
X62Y860D01*
X77Y860D02*
X83Y860D01*
X135Y860D02*
X142Y860D01*
X1090Y860D02*
X1142Y860D01*
X1173Y860D02*
X1180Y860D01*
X0Y859D02*
X7Y859D01*
X30Y859D02*
X34Y859D01*
X59Y859D02*
X62Y859D01*
X77Y859D02*
X84Y859D01*
X134Y859D02*
X141Y859D01*
X1173Y859D02*
X1180Y859D01*
X0Y858D02*
X7Y858D01*
X30Y858D02*
X34Y858D01*
X59Y858D02*
X62Y858D01*
X77Y858D02*
X84Y858D01*
X134Y858D02*
X141Y858D01*
X1173Y858D02*
X1180Y858D01*
X0Y857D02*
X7Y857D01*
X30Y857D02*
X34Y857D01*
X59Y857D02*
X62Y857D01*
X77Y857D02*
X85Y857D01*
X134Y857D02*
X141Y857D01*
X1173Y857D02*
X1180Y857D01*
X0Y856D02*
X7Y856D01*
X30Y856D02*
X34Y856D01*
X59Y856D02*
X62Y856D01*
X77Y856D02*
X85Y856D01*
X133Y856D02*
X141Y856D01*
X1173Y856D02*
X1180Y856D01*
X0Y855D02*
X7Y855D01*
X30Y855D02*
X34Y855D01*
X59Y855D02*
X62Y855D01*
X78Y855D02*
X85Y855D01*
X133Y855D02*
X140Y855D01*
X1173Y855D02*
X1180Y855D01*
X0Y854D02*
X7Y854D01*
X30Y854D02*
X34Y854D01*
X59Y854D02*
X62Y854D01*
X78Y854D02*
X86Y854D01*
X132Y854D02*
X140Y854D01*
X1173Y854D02*
X1180Y854D01*
X0Y853D02*
X7Y853D01*
X30Y853D02*
X34Y853D01*
X59Y853D02*
X62Y853D01*
X79Y853D02*
X87Y853D01*
X131Y853D02*
X139Y853D01*
X1173Y853D02*
X1180Y853D01*
X0Y852D02*
X7Y852D01*
X30Y852D02*
X34Y852D01*
X59Y852D02*
X62Y852D01*
X79Y852D02*
X87Y852D01*
X131Y852D02*
X139Y852D01*
X1173Y852D02*
X1180Y852D01*
X0Y851D02*
X7Y851D01*
X30Y851D02*
X34Y851D01*
X59Y851D02*
X62Y851D01*
X80Y851D02*
X88Y851D01*
X130Y851D02*
X139Y851D01*
X1173Y851D02*
X1180Y851D01*
X0Y850D02*
X7Y850D01*
X30Y850D02*
X34Y850D01*
X59Y850D02*
X62Y850D01*
X80Y850D02*
X87Y850D01*
X132Y850D02*
X138Y850D01*
X1173Y850D02*
X1180Y850D01*
X0Y849D02*
X7Y849D01*
X30Y849D02*
X62Y849D01*
X81Y849D02*
X85Y849D01*
X133Y849D02*
X137Y849D01*
X1173Y849D02*
X1180Y849D01*
X0Y848D02*
X7Y848D01*
X31Y848D02*
X62Y848D01*
X82Y848D02*
X84Y848D01*
X134Y848D02*
X137Y848D01*
X1173Y848D02*
X1180Y848D01*
X0Y847D02*
X7Y847D01*
X31Y847D02*
X61Y847D01*
X82Y847D02*
X83Y847D01*
X136Y847D02*
X136Y847D01*
X1173Y847D02*
X1180Y847D01*
X0Y846D02*
X7Y846D01*
X32Y846D02*
X60Y846D01*
X1173Y846D02*
X1180Y846D01*
X0Y845D02*
X7Y845D01*
X1173Y845D02*
X1180Y845D01*
X0Y844D02*
X7Y844D01*
X1173Y844D02*
X1180Y844D01*
X0Y843D02*
X7Y843D01*
X1096Y843D02*
X1100Y843D01*
X1133Y843D02*
X1138Y843D01*
X1173Y843D02*
X1180Y843D01*
X0Y842D02*
X7Y842D01*
X1094Y842D02*
X1101Y842D01*
X1132Y842D02*
X1140Y842D01*
X1173Y842D02*
X1180Y842D01*
X0Y841D02*
X7Y841D01*
X1093Y841D02*
X1102Y841D01*
X1130Y841D02*
X1141Y841D01*
X1173Y841D02*
X1180Y841D01*
X0Y840D02*
X7Y840D01*
X1092Y840D02*
X1102Y840D01*
X1129Y840D02*
X1142Y840D01*
X1173Y840D02*
X1180Y840D01*
X0Y839D02*
X7Y839D01*
X1091Y839D02*
X1102Y839D01*
X1128Y839D02*
X1142Y839D01*
X1173Y839D02*
X1180Y839D01*
X0Y838D02*
X7Y838D01*
X1091Y838D02*
X1101Y838D01*
X1126Y838D02*
X1143Y838D01*
X1173Y838D02*
X1180Y838D01*
X0Y837D02*
X7Y837D01*
X1090Y837D02*
X1100Y837D01*
X1125Y837D02*
X1143Y837D01*
X1173Y837D02*
X1180Y837D01*
X0Y836D02*
X7Y836D01*
X1090Y836D02*
X1097Y836D01*
X1124Y836D02*
X1134Y836D01*
X1137Y836D02*
X1143Y836D01*
X1173Y836D02*
X1180Y836D01*
X0Y835D02*
X7Y835D01*
X1090Y835D02*
X1096Y835D01*
X1123Y835D02*
X1133Y835D01*
X1137Y835D02*
X1143Y835D01*
X1173Y835D02*
X1180Y835D01*
X0Y834D02*
X7Y834D01*
X1090Y834D02*
X1096Y834D01*
X1121Y834D02*
X1132Y834D01*
X1137Y834D02*
X1143Y834D01*
X1173Y834D02*
X1180Y834D01*
X0Y833D02*
X7Y833D01*
X1090Y833D02*
X1096Y833D01*
X1120Y833D02*
X1131Y833D01*
X1137Y833D02*
X1143Y833D01*
X1173Y833D02*
X1180Y833D01*
X0Y832D02*
X7Y832D01*
X1090Y832D02*
X1096Y832D01*
X1119Y832D02*
X1129Y832D01*
X1137Y832D02*
X1143Y832D01*
X1173Y832D02*
X1180Y832D01*
X0Y831D02*
X7Y831D01*
X1090Y831D02*
X1096Y831D01*
X1117Y831D02*
X1128Y831D01*
X1137Y831D02*
X1143Y831D01*
X1173Y831D02*
X1180Y831D01*
X0Y830D02*
X7Y830D01*
X1090Y830D02*
X1096Y830D01*
X1116Y830D02*
X1127Y830D01*
X1137Y830D02*
X1143Y830D01*
X1173Y830D02*
X1180Y830D01*
X0Y829D02*
X7Y829D01*
X50Y829D02*
X56Y829D01*
X1090Y829D02*
X1096Y829D01*
X1115Y829D02*
X1125Y829D01*
X1137Y829D02*
X1143Y829D01*
X1173Y829D02*
X1180Y829D01*
X0Y828D02*
X7Y828D01*
X50Y828D02*
X56Y828D01*
X1090Y828D02*
X1096Y828D01*
X1114Y828D02*
X1124Y828D01*
X1137Y828D02*
X1143Y828D01*
X1173Y828D02*
X1180Y828D01*
X0Y827D02*
X7Y827D01*
X50Y827D02*
X57Y827D01*
X1090Y827D02*
X1096Y827D01*
X1112Y827D02*
X1123Y827D01*
X1137Y827D02*
X1143Y827D01*
X1173Y827D02*
X1180Y827D01*
X0Y826D02*
X7Y826D01*
X50Y826D02*
X57Y826D01*
X1090Y826D02*
X1096Y826D01*
X1111Y826D02*
X1122Y826D01*
X1137Y826D02*
X1143Y826D01*
X1173Y826D02*
X1180Y826D01*
X0Y825D02*
X7Y825D01*
X50Y825D02*
X57Y825D01*
X1090Y825D02*
X1096Y825D01*
X1110Y825D02*
X1120Y825D01*
X1137Y825D02*
X1143Y825D01*
X1173Y825D02*
X1180Y825D01*
X0Y824D02*
X7Y824D01*
X50Y824D02*
X57Y824D01*
X1090Y824D02*
X1096Y824D01*
X1108Y824D02*
X1119Y824D01*
X1137Y824D02*
X1143Y824D01*
X1173Y824D02*
X1180Y824D01*
X0Y823D02*
X7Y823D01*
X50Y823D02*
X56Y823D01*
X1090Y823D02*
X1096Y823D01*
X1107Y823D02*
X1118Y823D01*
X1137Y823D02*
X1143Y823D01*
X1173Y823D02*
X1180Y823D01*
X0Y822D02*
X7Y822D01*
X50Y822D02*
X56Y822D01*
X1090Y822D02*
X1096Y822D01*
X1106Y822D02*
X1116Y822D01*
X1137Y822D02*
X1143Y822D01*
X1173Y822D02*
X1180Y822D01*
X0Y821D02*
X7Y821D01*
X1090Y821D02*
X1096Y821D01*
X1105Y821D02*
X1115Y821D01*
X1137Y821D02*
X1143Y821D01*
X1173Y821D02*
X1180Y821D01*
X0Y820D02*
X7Y820D01*
X1090Y820D02*
X1096Y820D01*
X1103Y820D02*
X1114Y820D01*
X1137Y820D02*
X1143Y820D01*
X1173Y820D02*
X1180Y820D01*
X0Y819D02*
X7Y819D01*
X1090Y819D02*
X1096Y819D01*
X1102Y819D02*
X1113Y819D01*
X1137Y819D02*
X1143Y819D01*
X1173Y819D02*
X1180Y819D01*
X0Y818D02*
X7Y818D01*
X1090Y818D02*
X1096Y818D01*
X1101Y818D02*
X1111Y818D01*
X1137Y818D02*
X1143Y818D01*
X1173Y818D02*
X1180Y818D01*
X0Y817D02*
X7Y817D01*
X1090Y817D02*
X1096Y817D01*
X1099Y817D02*
X1110Y817D01*
X1137Y817D02*
X1143Y817D01*
X1173Y817D02*
X1180Y817D01*
X0Y816D02*
X7Y816D01*
X1090Y816D02*
X1109Y816D01*
X1134Y816D02*
X1143Y816D01*
X1173Y816D02*
X1180Y816D01*
X0Y815D02*
X7Y815D01*
X1090Y815D02*
X1107Y815D01*
X1132Y815D02*
X1142Y815D01*
X1173Y815D02*
X1180Y815D01*
X0Y814D02*
X7Y814D01*
X1091Y814D02*
X1106Y814D01*
X1132Y814D02*
X1142Y814D01*
X1173Y814D02*
X1180Y814D01*
X0Y813D02*
X7Y813D01*
X1091Y813D02*
X1105Y813D01*
X1131Y813D02*
X1141Y813D01*
X1173Y813D02*
X1180Y813D01*
X0Y812D02*
X7Y812D01*
X1092Y812D02*
X1104Y812D01*
X1131Y812D02*
X1141Y812D01*
X1173Y812D02*
X1180Y812D01*
X0Y811D02*
X7Y811D01*
X1093Y811D02*
X1102Y811D01*
X1132Y811D02*
X1139Y811D01*
X1173Y811D02*
X1180Y811D01*
X0Y810D02*
X7Y810D01*
X1094Y810D02*
X1100Y810D01*
X1133Y810D02*
X1138Y810D01*
X1173Y810D02*
X1180Y810D01*
X0Y809D02*
X7Y809D01*
X1173Y809D02*
X1180Y809D01*
X0Y808D02*
X7Y808D01*
X1173Y808D02*
X1180Y808D01*
X0Y807D02*
X7Y807D01*
X1173Y807D02*
X1180Y807D01*
X0Y806D02*
X7Y806D01*
X1173Y806D02*
X1180Y806D01*
X0Y805D02*
X7Y805D01*
X32Y805D02*
X60Y805D01*
X205Y805D02*
X208Y805D01*
X212Y805D02*
X214Y805D01*
X1173Y805D02*
X1180Y805D01*
X0Y804D02*
X7Y804D01*
X31Y804D02*
X61Y804D01*
X205Y804D02*
X214Y804D01*
X1173Y804D02*
X1180Y804D01*
X0Y803D02*
X7Y803D01*
X31Y803D02*
X62Y803D01*
X205Y803D02*
X214Y803D01*
X1173Y803D02*
X1180Y803D01*
X0Y802D02*
X7Y802D01*
X30Y802D02*
X62Y802D01*
X205Y802D02*
X214Y802D01*
X1173Y802D02*
X1180Y802D01*
X0Y801D02*
X7Y801D01*
X30Y801D02*
X34Y801D01*
X59Y801D02*
X62Y801D01*
X205Y801D02*
X214Y801D01*
X1173Y801D02*
X1180Y801D01*
X0Y800D02*
X7Y800D01*
X30Y800D02*
X34Y800D01*
X59Y800D02*
X62Y800D01*
X205Y800D02*
X214Y800D01*
X1173Y800D02*
X1180Y800D01*
X0Y799D02*
X7Y799D01*
X30Y799D02*
X34Y799D01*
X59Y799D02*
X62Y799D01*
X205Y799D02*
X214Y799D01*
X1173Y799D02*
X1180Y799D01*
X0Y798D02*
X7Y798D01*
X30Y798D02*
X34Y798D01*
X59Y798D02*
X62Y798D01*
X205Y798D02*
X214Y798D01*
X1173Y798D02*
X1180Y798D01*
X0Y797D02*
X7Y797D01*
X30Y797D02*
X34Y797D01*
X59Y797D02*
X62Y797D01*
X205Y797D02*
X214Y797D01*
X1173Y797D02*
X1180Y797D01*
X0Y796D02*
X7Y796D01*
X30Y796D02*
X34Y796D01*
X59Y796D02*
X62Y796D01*
X205Y796D02*
X214Y796D01*
X1173Y796D02*
X1180Y796D01*
X0Y795D02*
X7Y795D01*
X30Y795D02*
X34Y795D01*
X59Y795D02*
X62Y795D01*
X205Y795D02*
X214Y795D01*
X1173Y795D02*
X1180Y795D01*
X0Y794D02*
X7Y794D01*
X30Y794D02*
X34Y794D01*
X59Y794D02*
X62Y794D01*
X205Y794D02*
X214Y794D01*
X1173Y794D02*
X1180Y794D01*
X0Y793D02*
X7Y793D01*
X30Y793D02*
X34Y793D01*
X59Y793D02*
X62Y793D01*
X205Y793D02*
X214Y793D01*
X1173Y793D02*
X1180Y793D01*
X0Y792D02*
X7Y792D01*
X30Y792D02*
X34Y792D01*
X59Y792D02*
X62Y792D01*
X205Y792D02*
X214Y792D01*
X1173Y792D02*
X1180Y792D01*
X0Y791D02*
X7Y791D01*
X30Y791D02*
X34Y791D01*
X59Y791D02*
X62Y791D01*
X205Y791D02*
X214Y791D01*
X1173Y791D02*
X1180Y791D01*
X0Y790D02*
X7Y790D01*
X30Y790D02*
X34Y790D01*
X59Y790D02*
X62Y790D01*
X205Y790D02*
X214Y790D01*
X1173Y790D02*
X1180Y790D01*
X0Y789D02*
X7Y789D01*
X30Y789D02*
X62Y789D01*
X205Y789D02*
X214Y789D01*
X1173Y789D02*
X1180Y789D01*
X0Y788D02*
X7Y788D01*
X31Y788D02*
X62Y788D01*
X205Y788D02*
X214Y788D01*
X1173Y788D02*
X1180Y788D01*
X0Y787D02*
X7Y787D01*
X31Y787D02*
X61Y787D01*
X205Y787D02*
X214Y787D01*
X1173Y787D02*
X1180Y787D01*
X0Y786D02*
X7Y786D01*
X32Y786D02*
X60Y786D01*
X205Y786D02*
X214Y786D01*
X1173Y786D02*
X1180Y786D01*
X0Y785D02*
X7Y785D01*
X35Y785D02*
X58Y785D01*
X205Y785D02*
X214Y785D01*
X1173Y785D02*
X1180Y785D01*
X0Y784D02*
X7Y784D01*
X205Y784D02*
X214Y784D01*
X1173Y784D02*
X1180Y784D01*
X0Y783D02*
X7Y783D01*
X205Y783D02*
X214Y783D01*
X1173Y783D02*
X1180Y783D01*
X0Y782D02*
X7Y782D01*
X205Y782D02*
X214Y782D01*
X1173Y782D02*
X1180Y782D01*
X0Y781D02*
X7Y781D01*
X205Y781D02*
X214Y781D01*
X1173Y781D02*
X1180Y781D01*
X0Y780D02*
X7Y780D01*
X205Y780D02*
X214Y780D01*
X1173Y780D02*
X1180Y780D01*
X0Y779D02*
X7Y779D01*
X205Y779D02*
X214Y779D01*
X1173Y779D02*
X1180Y779D01*
X0Y778D02*
X7Y778D01*
X205Y778D02*
X214Y778D01*
X1173Y778D02*
X1180Y778D01*
X0Y777D02*
X7Y777D01*
X205Y777D02*
X214Y777D01*
X1173Y777D02*
X1180Y777D01*
X0Y776D02*
X7Y776D01*
X205Y776D02*
X214Y776D01*
X1173Y776D02*
X1180Y776D01*
X0Y775D02*
X7Y775D01*
X205Y775D02*
X214Y775D01*
X1173Y775D02*
X1180Y775D01*
X0Y774D02*
X7Y774D01*
X205Y774D02*
X214Y774D01*
X1173Y774D02*
X1180Y774D01*
X0Y773D02*
X7Y773D01*
X205Y773D02*
X214Y773D01*
X1173Y773D02*
X1180Y773D01*
X0Y772D02*
X7Y772D01*
X205Y772D02*
X214Y772D01*
X1173Y772D02*
X1180Y772D01*
X0Y771D02*
X7Y771D01*
X205Y771D02*
X214Y771D01*
X1173Y771D02*
X1180Y771D01*
X0Y770D02*
X7Y770D01*
X205Y770D02*
X214Y770D01*
X1173Y770D02*
X1180Y770D01*
X0Y769D02*
X7Y769D01*
X205Y769D02*
X214Y769D01*
X1173Y769D02*
X1180Y769D01*
X0Y768D02*
X7Y768D01*
X205Y768D02*
X214Y768D01*
X1173Y768D02*
X1180Y768D01*
X0Y767D02*
X7Y767D01*
X205Y767D02*
X214Y767D01*
X1173Y767D02*
X1180Y767D01*
X0Y766D02*
X7Y766D01*
X205Y766D02*
X214Y766D01*
X1173Y766D02*
X1180Y766D01*
X0Y765D02*
X7Y765D01*
X205Y765D02*
X214Y765D01*
X1173Y765D02*
X1180Y765D01*
X0Y764D02*
X7Y764D01*
X205Y764D02*
X214Y764D01*
X1173Y764D02*
X1180Y764D01*
X0Y763D02*
X7Y763D01*
X205Y763D02*
X214Y763D01*
X379Y763D02*
X387Y763D01*
X1173Y763D02*
X1180Y763D01*
X0Y762D02*
X7Y762D01*
X205Y762D02*
X214Y762D01*
X378Y762D02*
X389Y762D01*
X1173Y762D02*
X1180Y762D01*
X0Y761D02*
X7Y761D01*
X205Y761D02*
X214Y761D01*
X378Y761D02*
X390Y761D01*
X1173Y761D02*
X1180Y761D01*
X0Y760D02*
X7Y760D01*
X205Y760D02*
X214Y760D01*
X378Y760D02*
X390Y760D01*
X728Y760D02*
X779Y760D01*
X1173Y760D02*
X1180Y760D01*
X0Y759D02*
X7Y759D01*
X205Y759D02*
X214Y759D01*
X378Y759D02*
X390Y759D01*
X728Y759D02*
X780Y759D01*
X1173Y759D02*
X1180Y759D01*
X0Y758D02*
X7Y758D01*
X205Y758D02*
X214Y758D01*
X378Y758D02*
X390Y758D01*
X728Y758D02*
X781Y758D01*
X1173Y758D02*
X1180Y758D01*
X0Y757D02*
X7Y757D01*
X206Y757D02*
X214Y757D01*
X378Y757D02*
X389Y757D01*
X728Y757D02*
X781Y757D01*
X1173Y757D02*
X1180Y757D01*
X0Y756D02*
X7Y756D01*
X378Y756D02*
X386Y756D01*
X728Y756D02*
X781Y756D01*
X1173Y756D02*
X1180Y756D01*
X0Y755D02*
X7Y755D01*
X378Y755D02*
X384Y755D01*
X728Y755D02*
X781Y755D01*
X1173Y755D02*
X1180Y755D01*
X0Y754D02*
X7Y754D01*
X378Y754D02*
X384Y754D01*
X728Y754D02*
X780Y754D01*
X1173Y754D02*
X1180Y754D01*
X0Y753D02*
X7Y753D01*
X378Y753D02*
X384Y753D01*
X728Y753D02*
X737Y753D01*
X1173Y753D02*
X1180Y753D01*
X0Y752D02*
X7Y752D01*
X378Y752D02*
X384Y752D01*
X728Y752D02*
X738Y752D01*
X1173Y752D02*
X1180Y752D01*
X0Y751D02*
X7Y751D01*
X378Y751D02*
X384Y751D01*
X729Y751D02*
X740Y751D01*
X1173Y751D02*
X1180Y751D01*
X0Y750D02*
X7Y750D01*
X378Y750D02*
X384Y750D01*
X730Y750D02*
X741Y750D01*
X1173Y750D02*
X1180Y750D01*
X0Y749D02*
X7Y749D01*
X378Y749D02*
X429Y749D01*
X731Y749D02*
X743Y749D01*
X1173Y749D02*
X1180Y749D01*
X0Y748D02*
X7Y748D01*
X378Y748D02*
X431Y748D01*
X733Y748D02*
X744Y748D01*
X1173Y748D02*
X1180Y748D01*
X0Y747D02*
X7Y747D01*
X378Y747D02*
X431Y747D01*
X734Y747D02*
X746Y747D01*
X1173Y747D02*
X1180Y747D01*
X0Y746D02*
X7Y746D01*
X378Y746D02*
X431Y746D01*
X736Y746D02*
X750Y746D01*
X1173Y746D02*
X1180Y746D01*
X0Y745D02*
X7Y745D01*
X378Y745D02*
X431Y745D01*
X737Y745D02*
X751Y745D01*
X1173Y745D02*
X1180Y745D01*
X0Y744D02*
X7Y744D01*
X378Y744D02*
X431Y744D01*
X739Y744D02*
X751Y744D01*
X1173Y744D02*
X1180Y744D01*
X0Y743D02*
X7Y743D01*
X378Y743D02*
X430Y743D01*
X740Y743D02*
X752Y743D01*
X1173Y743D02*
X1180Y743D01*
X0Y742D02*
X7Y742D01*
X378Y742D02*
X385Y742D01*
X739Y742D02*
X751Y742D01*
X1173Y742D02*
X1180Y742D01*
X0Y741D02*
X7Y741D01*
X378Y741D02*
X384Y741D01*
X737Y741D02*
X751Y741D01*
X1115Y741D02*
X1120Y741D01*
X1173Y741D02*
X1180Y741D01*
X0Y740D02*
X7Y740D01*
X378Y740D02*
X384Y740D01*
X736Y740D02*
X750Y740D01*
X1114Y740D02*
X1121Y740D01*
X1173Y740D02*
X1180Y740D01*
X0Y739D02*
X7Y739D01*
X378Y739D02*
X384Y739D01*
X734Y739D02*
X746Y739D01*
X1113Y739D02*
X1122Y739D01*
X1173Y739D02*
X1180Y739D01*
X0Y738D02*
X7Y738D01*
X33Y738D02*
X34Y738D01*
X378Y738D02*
X384Y738D01*
X733Y738D02*
X744Y738D01*
X1113Y738D02*
X1122Y738D01*
X1173Y738D02*
X1180Y738D01*
X0Y737D02*
X7Y737D01*
X32Y737D02*
X35Y737D01*
X378Y737D02*
X384Y737D01*
X732Y737D02*
X743Y737D01*
X1113Y737D02*
X1122Y737D01*
X1173Y737D02*
X1180Y737D01*
X0Y736D02*
X7Y736D01*
X32Y736D02*
X35Y736D01*
X378Y736D02*
X384Y736D01*
X730Y736D02*
X741Y736D01*
X1113Y736D02*
X1122Y736D01*
X1173Y736D02*
X1180Y736D01*
X0Y735D02*
X7Y735D01*
X32Y735D02*
X35Y735D01*
X378Y735D02*
X388Y735D01*
X729Y735D02*
X740Y735D01*
X1113Y735D02*
X1122Y735D01*
X1173Y735D02*
X1180Y735D01*
X0Y734D02*
X7Y734D01*
X32Y734D02*
X35Y734D01*
X44Y734D02*
X44Y734D01*
X378Y734D02*
X389Y734D01*
X728Y734D02*
X739Y734D01*
X1113Y734D02*
X1122Y734D01*
X1173Y734D02*
X1180Y734D01*
X0Y733D02*
X7Y733D01*
X32Y733D02*
X35Y733D01*
X43Y733D02*
X45Y733D01*
X378Y733D02*
X390Y733D01*
X728Y733D02*
X737Y733D01*
X1113Y733D02*
X1122Y733D01*
X1173Y733D02*
X1180Y733D01*
X0Y732D02*
X7Y732D01*
X32Y732D02*
X35Y732D01*
X42Y732D02*
X46Y732D01*
X378Y732D02*
X390Y732D01*
X728Y732D02*
X780Y732D01*
X1113Y732D02*
X1122Y732D01*
X1173Y732D02*
X1180Y732D01*
X0Y731D02*
X7Y731D01*
X32Y731D02*
X35Y731D01*
X42Y731D02*
X46Y731D01*
X378Y731D02*
X390Y731D01*
X728Y731D02*
X781Y731D01*
X1113Y731D02*
X1122Y731D01*
X1173Y731D02*
X1180Y731D01*
X0Y730D02*
X7Y730D01*
X32Y730D02*
X35Y730D01*
X42Y730D02*
X46Y730D01*
X378Y730D02*
X390Y730D01*
X728Y730D02*
X781Y730D01*
X1113Y730D02*
X1122Y730D01*
X1173Y730D02*
X1180Y730D01*
X0Y729D02*
X7Y729D01*
X32Y729D02*
X35Y729D01*
X42Y729D02*
X46Y729D01*
X378Y729D02*
X389Y729D01*
X728Y729D02*
X781Y729D01*
X1113Y729D02*
X1122Y729D01*
X1173Y729D02*
X1180Y729D01*
X0Y728D02*
X7Y728D01*
X32Y728D02*
X35Y728D01*
X42Y728D02*
X46Y728D01*
X728Y728D02*
X781Y728D01*
X1113Y728D02*
X1122Y728D01*
X1173Y728D02*
X1180Y728D01*
X0Y727D02*
X7Y727D01*
X32Y727D02*
X35Y727D01*
X42Y727D02*
X46Y727D01*
X728Y727D02*
X780Y727D01*
X1113Y727D02*
X1122Y727D01*
X1173Y727D02*
X1180Y727D01*
X0Y726D02*
X7Y726D01*
X32Y726D02*
X35Y726D01*
X42Y726D02*
X46Y726D01*
X728Y726D02*
X779Y726D01*
X1113Y726D02*
X1122Y726D01*
X1173Y726D02*
X1180Y726D01*
X0Y725D02*
X7Y725D01*
X32Y725D02*
X35Y725D01*
X42Y725D02*
X46Y725D01*
X1113Y725D02*
X1122Y725D01*
X1173Y725D02*
X1180Y725D01*
X0Y724D02*
X7Y724D01*
X32Y724D02*
X35Y724D01*
X42Y724D02*
X46Y724D01*
X1113Y724D02*
X1122Y724D01*
X1173Y724D02*
X1180Y724D01*
X0Y723D02*
X7Y723D01*
X32Y723D02*
X35Y723D01*
X42Y723D02*
X46Y723D01*
X185Y723D02*
X189Y723D01*
X233Y723D02*
X236Y723D01*
X1113Y723D02*
X1122Y723D01*
X1173Y723D02*
X1180Y723D01*
X0Y722D02*
X7Y722D01*
X32Y722D02*
X35Y722D01*
X42Y722D02*
X46Y722D01*
X185Y722D02*
X190Y722D01*
X232Y722D02*
X237Y722D01*
X1113Y722D02*
X1122Y722D01*
X1173Y722D02*
X1180Y722D01*
X0Y721D02*
X7Y721D01*
X32Y721D02*
X63Y721D01*
X184Y721D02*
X191Y721D01*
X231Y721D02*
X237Y721D01*
X1113Y721D02*
X1122Y721D01*
X1173Y721D02*
X1180Y721D01*
X0Y720D02*
X7Y720D01*
X32Y720D02*
X63Y720D01*
X184Y720D02*
X192Y720D01*
X230Y720D02*
X237Y720D01*
X1113Y720D02*
X1122Y720D01*
X1173Y720D02*
X1180Y720D01*
X0Y719D02*
X7Y719D01*
X32Y719D02*
X63Y719D01*
X185Y719D02*
X192Y719D01*
X229Y719D02*
X237Y719D01*
X1113Y719D02*
X1122Y719D01*
X1173Y719D02*
X1180Y719D01*
X0Y718D02*
X7Y718D01*
X32Y718D02*
X62Y718D01*
X185Y718D02*
X193Y718D01*
X228Y718D02*
X236Y718D01*
X1113Y718D02*
X1122Y718D01*
X1173Y718D02*
X1180Y718D01*
X0Y717D02*
X7Y717D01*
X186Y717D02*
X194Y717D01*
X227Y717D02*
X236Y717D01*
X1113Y717D02*
X1122Y717D01*
X1173Y717D02*
X1180Y717D01*
X0Y716D02*
X7Y716D01*
X187Y716D02*
X195Y716D01*
X226Y716D02*
X235Y716D01*
X1113Y716D02*
X1122Y716D01*
X1173Y716D02*
X1180Y716D01*
X0Y715D02*
X7Y715D01*
X188Y715D02*
X196Y715D01*
X226Y715D02*
X234Y715D01*
X1113Y715D02*
X1122Y715D01*
X1173Y715D02*
X1180Y715D01*
X0Y714D02*
X7Y714D01*
X188Y714D02*
X197Y714D01*
X225Y714D02*
X233Y714D01*
X1113Y714D02*
X1122Y714D01*
X1173Y714D02*
X1180Y714D01*
X0Y713D02*
X7Y713D01*
X189Y713D02*
X198Y713D01*
X224Y713D02*
X232Y713D01*
X1113Y713D02*
X1122Y713D01*
X1173Y713D02*
X1180Y713D01*
X0Y712D02*
X7Y712D01*
X190Y712D02*
X198Y712D01*
X223Y712D02*
X231Y712D01*
X380Y712D02*
X383Y712D01*
X427Y712D02*
X430Y712D01*
X1113Y712D02*
X1122Y712D01*
X1173Y712D02*
X1180Y712D01*
X0Y711D02*
X7Y711D01*
X191Y711D02*
X199Y711D01*
X222Y711D02*
X230Y711D01*
X379Y711D02*
X384Y711D01*
X426Y711D02*
X431Y711D01*
X1113Y711D02*
X1122Y711D01*
X1173Y711D02*
X1180Y711D01*
X0Y710D02*
X7Y710D01*
X192Y710D02*
X200Y710D01*
X221Y710D02*
X230Y710D01*
X378Y710D02*
X384Y710D01*
X426Y710D02*
X431Y710D01*
X731Y710D02*
X778Y710D01*
X1113Y710D02*
X1122Y710D01*
X1173Y710D02*
X1180Y710D01*
X0Y709D02*
X7Y709D01*
X193Y709D02*
X201Y709D01*
X221Y709D02*
X229Y709D01*
X378Y709D02*
X384Y709D01*
X425Y709D02*
X431Y709D01*
X729Y709D02*
X780Y709D01*
X1113Y709D02*
X1122Y709D01*
X1173Y709D02*
X1180Y709D01*
X0Y708D02*
X7Y708D01*
X42Y708D02*
X62Y708D01*
X194Y708D02*
X202Y708D01*
X220Y708D02*
X228Y708D01*
X378Y708D02*
X384Y708D01*
X425Y708D02*
X431Y708D01*
X728Y708D02*
X781Y708D01*
X1114Y708D02*
X1121Y708D01*
X1173Y708D02*
X1180Y708D01*
X0Y707D02*
X7Y707D01*
X41Y707D02*
X63Y707D01*
X194Y707D02*
X203Y707D01*
X219Y707D02*
X227Y707D01*
X378Y707D02*
X384Y707D01*
X425Y707D02*
X431Y707D01*
X728Y707D02*
X781Y707D01*
X1116Y707D02*
X1119Y707D01*
X1173Y707D02*
X1180Y707D01*
X0Y706D02*
X7Y706D01*
X41Y706D02*
X63Y706D01*
X195Y706D02*
X204Y706D01*
X218Y706D02*
X226Y706D01*
X378Y706D02*
X384Y706D01*
X425Y706D02*
X431Y706D01*
X728Y706D02*
X781Y706D01*
X1173Y706D02*
X1180Y706D01*
X0Y705D02*
X7Y705D01*
X41Y705D02*
X63Y705D01*
X196Y705D02*
X204Y705D01*
X217Y705D02*
X225Y705D01*
X378Y705D02*
X384Y705D01*
X425Y705D02*
X431Y705D01*
X728Y705D02*
X781Y705D01*
X1173Y705D02*
X1180Y705D01*
X0Y704D02*
X7Y704D01*
X56Y704D02*
X60Y704D01*
X197Y704D02*
X205Y704D01*
X216Y704D02*
X224Y704D01*
X378Y704D02*
X384Y704D01*
X425Y704D02*
X431Y704D01*
X729Y704D02*
X780Y704D01*
X1173Y704D02*
X1180Y704D01*
X0Y703D02*
X7Y703D01*
X56Y703D02*
X60Y703D01*
X198Y703D02*
X206Y703D01*
X215Y703D02*
X224Y703D01*
X378Y703D02*
X384Y703D01*
X425Y703D02*
X431Y703D01*
X751Y703D02*
X758Y703D01*
X1173Y703D02*
X1180Y703D01*
X0Y702D02*
X7Y702D01*
X57Y702D02*
X61Y702D01*
X199Y702D02*
X207Y702D01*
X215Y702D02*
X223Y702D01*
X378Y702D02*
X384Y702D01*
X425Y702D02*
X431Y702D01*
X751Y702D02*
X758Y702D01*
X1173Y702D02*
X1180Y702D01*
X0Y701D02*
X7Y701D01*
X58Y701D02*
X62Y701D01*
X200Y701D02*
X208Y701D01*
X214Y701D02*
X222Y701D01*
X378Y701D02*
X384Y701D01*
X425Y701D02*
X431Y701D01*
X751Y701D02*
X758Y701D01*
X1173Y701D02*
X1180Y701D01*
X0Y700D02*
X7Y700D01*
X58Y700D02*
X62Y700D01*
X200Y700D02*
X209Y700D01*
X213Y700D02*
X221Y700D01*
X378Y700D02*
X384Y700D01*
X425Y700D02*
X431Y700D01*
X751Y700D02*
X758Y700D01*
X1173Y700D02*
X1180Y700D01*
X0Y699D02*
X7Y699D01*
X59Y699D02*
X63Y699D01*
X201Y699D02*
X210Y699D01*
X212Y699D02*
X220Y699D01*
X378Y699D02*
X384Y699D01*
X425Y699D02*
X431Y699D01*
X751Y699D02*
X758Y699D01*
X1173Y699D02*
X1180Y699D01*
X0Y698D02*
X7Y698D01*
X60Y698D02*
X63Y698D01*
X202Y698D02*
X219Y698D01*
X378Y698D02*
X384Y698D01*
X425Y698D02*
X431Y698D01*
X751Y698D02*
X758Y698D01*
X1173Y698D02*
X1180Y698D01*
X0Y697D02*
X7Y697D01*
X60Y697D02*
X63Y697D01*
X203Y697D02*
X218Y697D01*
X378Y697D02*
X384Y697D01*
X425Y697D02*
X431Y697D01*
X751Y697D02*
X758Y697D01*
X1173Y697D02*
X1180Y697D01*
X0Y696D02*
X7Y696D01*
X60Y696D02*
X63Y696D01*
X186Y696D02*
X235Y696D01*
X378Y696D02*
X384Y696D01*
X425Y696D02*
X431Y696D01*
X751Y696D02*
X758Y696D01*
X1173Y696D02*
X1180Y696D01*
X0Y695D02*
X7Y695D01*
X60Y695D02*
X63Y695D01*
X185Y695D02*
X236Y695D01*
X378Y695D02*
X385Y695D01*
X425Y695D02*
X431Y695D01*
X751Y695D02*
X758Y695D01*
X1173Y695D02*
X1180Y695D01*
X0Y694D02*
X7Y694D01*
X60Y694D02*
X63Y694D01*
X184Y694D02*
X237Y694D01*
X379Y694D02*
X385Y694D01*
X424Y694D02*
X431Y694D01*
X751Y694D02*
X758Y694D01*
X1173Y694D02*
X1180Y694D01*
X0Y693D02*
X7Y693D01*
X59Y693D02*
X63Y693D01*
X184Y693D02*
X237Y693D01*
X379Y693D02*
X387Y693D01*
X423Y693D02*
X431Y693D01*
X751Y693D02*
X758Y693D01*
X1173Y693D02*
X1180Y693D01*
X0Y692D02*
X7Y692D01*
X50Y692D02*
X63Y692D01*
X184Y692D02*
X237Y692D01*
X379Y692D02*
X389Y692D01*
X421Y692D02*
X430Y692D01*
X751Y692D02*
X758Y692D01*
X1173Y692D02*
X1180Y692D01*
X0Y691D02*
X7Y691D01*
X41Y691D02*
X62Y691D01*
X185Y691D02*
X237Y691D01*
X380Y691D02*
X391Y691D01*
X419Y691D02*
X430Y691D01*
X751Y691D02*
X758Y691D01*
X1092Y691D02*
X1105Y691D01*
X1173Y691D02*
X1180Y691D01*
X0Y690D02*
X7Y690D01*
X41Y690D02*
X61Y690D01*
X186Y690D02*
X236Y690D01*
X380Y690D02*
X393Y690D01*
X417Y690D02*
X429Y690D01*
X751Y690D02*
X758Y690D01*
X1090Y690D02*
X1108Y690D01*
X1173Y690D02*
X1180Y690D01*
X0Y689D02*
X7Y689D01*
X41Y689D02*
X60Y689D01*
X381Y689D02*
X395Y689D01*
X415Y689D02*
X428Y689D01*
X751Y689D02*
X758Y689D01*
X1090Y689D02*
X1110Y689D01*
X1173Y689D02*
X1180Y689D01*
X0Y688D02*
X7Y688D01*
X41Y688D02*
X55Y688D01*
X382Y688D02*
X397Y688D01*
X413Y688D02*
X427Y688D01*
X751Y688D02*
X758Y688D01*
X1089Y688D02*
X1113Y688D01*
X1173Y688D02*
X1180Y688D01*
X0Y687D02*
X7Y687D01*
X83Y687D02*
X83Y687D01*
X384Y687D02*
X399Y687D01*
X411Y687D02*
X426Y687D01*
X751Y687D02*
X758Y687D01*
X1090Y687D02*
X1115Y687D01*
X1173Y687D02*
X1180Y687D01*
X0Y686D02*
X7Y686D01*
X83Y686D02*
X84Y686D01*
X136Y686D02*
X137Y686D01*
X386Y686D02*
X401Y686D01*
X409Y686D02*
X424Y686D01*
X751Y686D02*
X758Y686D01*
X1090Y686D02*
X1118Y686D01*
X1173Y686D02*
X1180Y686D01*
X0Y685D02*
X7Y685D01*
X82Y685D02*
X85Y685D01*
X134Y685D02*
X137Y685D01*
X388Y685D02*
X422Y685D01*
X751Y685D02*
X758Y685D01*
X1091Y685D02*
X1120Y685D01*
X1173Y685D02*
X1180Y685D01*
X0Y684D02*
X7Y684D01*
X81Y684D02*
X86Y684D01*
X133Y684D02*
X138Y684D01*
X390Y684D02*
X420Y684D01*
X751Y684D02*
X758Y684D01*
X1105Y684D02*
X1123Y684D01*
X1173Y684D02*
X1180Y684D01*
X0Y683D02*
X7Y683D01*
X81Y683D02*
X88Y683D01*
X131Y683D02*
X139Y683D01*
X392Y683D02*
X418Y683D01*
X751Y683D02*
X758Y683D01*
X1107Y683D02*
X1126Y683D01*
X1173Y683D02*
X1180Y683D01*
X0Y682D02*
X7Y682D01*
X80Y682D02*
X88Y682D01*
X131Y682D02*
X139Y682D01*
X394Y682D02*
X416Y682D01*
X730Y682D02*
X779Y682D01*
X1110Y682D02*
X1128Y682D01*
X1173Y682D02*
X1180Y682D01*
X0Y681D02*
X7Y681D01*
X80Y681D02*
X88Y681D01*
X132Y681D02*
X140Y681D01*
X396Y681D02*
X414Y681D01*
X729Y681D02*
X780Y681D01*
X1112Y681D02*
X1131Y681D01*
X1173Y681D02*
X1180Y681D01*
X0Y680D02*
X7Y680D01*
X79Y680D02*
X87Y680D01*
X132Y680D02*
X140Y680D01*
X398Y680D02*
X412Y680D01*
X728Y680D02*
X781Y680D01*
X1115Y680D02*
X1133Y680D01*
X1173Y680D02*
X1180Y680D01*
X0Y679D02*
X7Y679D01*
X79Y679D02*
X86Y679D01*
X133Y679D02*
X141Y679D01*
X401Y679D02*
X409Y679D01*
X728Y679D02*
X781Y679D01*
X1117Y679D02*
X1136Y679D01*
X1173Y679D02*
X1180Y679D01*
X0Y678D02*
X7Y678D01*
X51Y678D02*
X62Y678D01*
X78Y678D02*
X86Y678D01*
X134Y678D02*
X141Y678D01*
X728Y678D02*
X781Y678D01*
X1120Y678D02*
X1138Y678D01*
X1173Y678D02*
X1180Y678D01*
X0Y677D02*
X7Y677D01*
X50Y677D02*
X63Y677D01*
X78Y677D02*
X85Y677D01*
X134Y677D02*
X141Y677D01*
X729Y677D02*
X780Y677D01*
X1123Y677D02*
X1141Y677D01*
X1173Y677D02*
X1180Y677D01*
X0Y676D02*
X7Y676D01*
X49Y676D02*
X63Y676D01*
X78Y676D02*
X85Y676D01*
X134Y676D02*
X142Y676D01*
X730Y676D02*
X779Y676D01*
X1125Y676D02*
X1142Y676D01*
X1173Y676D02*
X1180Y676D01*
X0Y675D02*
X7Y675D01*
X50Y675D02*
X63Y675D01*
X78Y675D02*
X85Y675D01*
X135Y675D02*
X142Y675D01*
X1128Y675D02*
X1142Y675D01*
X1173Y675D02*
X1180Y675D01*
X0Y674D02*
X7Y674D01*
X52Y674D02*
X63Y674D01*
X77Y674D02*
X84Y674D01*
X135Y674D02*
X142Y674D01*
X1130Y674D02*
X1143Y674D01*
X1173Y674D02*
X1180Y674D01*
X0Y673D02*
X7Y673D01*
X60Y673D02*
X63Y673D01*
X77Y673D02*
X84Y673D01*
X135Y673D02*
X142Y673D01*
X184Y673D02*
X206Y673D01*
X1128Y673D02*
X1142Y673D01*
X1173Y673D02*
X1180Y673D01*
X0Y672D02*
X7Y672D01*
X60Y672D02*
X63Y672D01*
X77Y672D02*
X84Y672D01*
X136Y672D02*
X143Y672D01*
X184Y672D02*
X207Y672D01*
X1125Y672D02*
X1142Y672D01*
X1173Y672D02*
X1180Y672D01*
X0Y671D02*
X7Y671D01*
X60Y671D02*
X63Y671D01*
X77Y671D02*
X83Y671D01*
X136Y671D02*
X143Y671D01*
X184Y671D02*
X208Y671D01*
X1123Y671D02*
X1141Y671D01*
X1173Y671D02*
X1180Y671D01*
X0Y670D02*
X7Y670D01*
X60Y670D02*
X63Y670D01*
X77Y670D02*
X83Y670D01*
X136Y670D02*
X143Y670D01*
X184Y670D02*
X209Y670D01*
X1120Y670D02*
X1139Y670D01*
X1173Y670D02*
X1180Y670D01*
X0Y669D02*
X7Y669D01*
X32Y669D02*
X63Y669D01*
X76Y669D02*
X83Y669D01*
X136Y669D02*
X143Y669D01*
X184Y669D02*
X210Y669D01*
X1118Y669D02*
X1136Y669D01*
X1173Y669D02*
X1180Y669D01*
X0Y668D02*
X7Y668D01*
X32Y668D02*
X63Y668D01*
X76Y668D02*
X83Y668D01*
X136Y668D02*
X143Y668D01*
X184Y668D02*
X211Y668D01*
X1115Y668D02*
X1134Y668D01*
X1173Y668D02*
X1180Y668D01*
X0Y667D02*
X7Y667D01*
X32Y667D02*
X63Y667D01*
X76Y667D02*
X83Y667D01*
X136Y667D02*
X143Y667D01*
X184Y667D02*
X212Y667D01*
X1112Y667D02*
X1131Y667D01*
X1173Y667D02*
X1180Y667D01*
X0Y666D02*
X7Y666D01*
X32Y666D02*
X63Y666D01*
X76Y666D02*
X83Y666D01*
X136Y666D02*
X143Y666D01*
X184Y666D02*
X190Y666D01*
X204Y666D02*
X213Y666D01*
X1110Y666D02*
X1128Y666D01*
X1173Y666D02*
X1180Y666D01*
X0Y665D02*
X7Y665D01*
X32Y665D02*
X35Y665D01*
X60Y665D02*
X63Y665D01*
X76Y665D02*
X83Y665D01*
X136Y665D02*
X143Y665D01*
X184Y665D02*
X190Y665D01*
X205Y665D02*
X213Y665D01*
X1107Y665D02*
X1126Y665D01*
X1173Y665D02*
X1180Y665D01*
X0Y664D02*
X7Y664D01*
X32Y664D02*
X35Y664D01*
X60Y664D02*
X63Y664D01*
X77Y664D02*
X83Y664D01*
X136Y664D02*
X143Y664D01*
X184Y664D02*
X190Y664D01*
X206Y664D02*
X214Y664D01*
X1105Y664D02*
X1123Y664D01*
X1173Y664D02*
X1180Y664D01*
X0Y663D02*
X7Y663D01*
X32Y663D02*
X35Y663D01*
X60Y663D02*
X63Y663D01*
X77Y663D02*
X83Y663D01*
X136Y663D02*
X143Y663D01*
X184Y663D02*
X190Y663D01*
X207Y663D02*
X215Y663D01*
X1091Y663D02*
X1121Y663D01*
X1173Y663D02*
X1180Y663D01*
X0Y662D02*
X7Y662D01*
X32Y662D02*
X35Y662D01*
X60Y662D02*
X63Y662D01*
X77Y662D02*
X83Y662D01*
X136Y662D02*
X143Y662D01*
X184Y662D02*
X190Y662D01*
X208Y662D02*
X216Y662D01*
X383Y662D02*
X427Y662D01*
X1090Y662D02*
X1118Y662D01*
X1173Y662D02*
X1180Y662D01*
X0Y661D02*
X7Y661D01*
X32Y661D02*
X35Y661D01*
X60Y661D02*
X63Y661D01*
X77Y661D02*
X84Y661D01*
X136Y661D02*
X143Y661D01*
X184Y661D02*
X190Y661D01*
X209Y661D02*
X217Y661D01*
X381Y661D02*
X429Y661D01*
X1090Y661D02*
X1116Y661D01*
X1173Y661D02*
X1180Y661D01*
X0Y660D02*
X7Y660D01*
X32Y660D02*
X35Y660D01*
X60Y660D02*
X63Y660D01*
X77Y660D02*
X84Y660D01*
X135Y660D02*
X142Y660D01*
X184Y660D02*
X190Y660D01*
X209Y660D02*
X218Y660D01*
X380Y660D02*
X430Y660D01*
X1089Y660D02*
X1113Y660D01*
X1173Y660D02*
X1180Y660D01*
X0Y659D02*
X7Y659D01*
X32Y659D02*
X35Y659D01*
X60Y659D02*
X63Y659D01*
X77Y659D02*
X84Y659D01*
X135Y659D02*
X142Y659D01*
X184Y659D02*
X190Y659D01*
X210Y659D02*
X236Y659D01*
X379Y659D02*
X431Y659D01*
X750Y659D02*
X759Y659D01*
X1090Y659D02*
X1110Y659D01*
X1173Y659D02*
X1180Y659D01*
X0Y658D02*
X7Y658D01*
X33Y658D02*
X34Y658D01*
X61Y658D02*
X63Y658D01*
X78Y658D02*
X85Y658D01*
X135Y658D02*
X142Y658D01*
X184Y658D02*
X190Y658D01*
X211Y658D02*
X237Y658D01*
X379Y658D02*
X431Y658D01*
X748Y658D02*
X761Y658D01*
X1090Y658D02*
X1108Y658D01*
X1173Y658D02*
X1180Y658D01*
X0Y657D02*
X7Y657D01*
X78Y657D02*
X85Y657D01*
X134Y657D02*
X142Y657D01*
X184Y657D02*
X190Y657D01*
X212Y657D02*
X237Y657D01*
X378Y657D02*
X431Y657D01*
X746Y657D02*
X763Y657D01*
X1092Y657D02*
X1105Y657D01*
X1173Y657D02*
X1180Y657D01*
X0Y656D02*
X7Y656D01*
X78Y656D02*
X85Y656D01*
X134Y656D02*
X141Y656D01*
X184Y656D02*
X190Y656D01*
X213Y656D02*
X237Y656D01*
X378Y656D02*
X431Y656D01*
X744Y656D02*
X765Y656D01*
X1173Y656D02*
X1180Y656D01*
X0Y655D02*
X7Y655D01*
X78Y655D02*
X86Y655D01*
X133Y655D02*
X141Y655D01*
X184Y655D02*
X190Y655D01*
X214Y655D02*
X237Y655D01*
X378Y655D02*
X384Y655D01*
X425Y655D02*
X431Y655D01*
X742Y655D02*
X768Y655D01*
X1173Y655D02*
X1180Y655D01*
X0Y654D02*
X7Y654D01*
X79Y654D02*
X87Y654D01*
X133Y654D02*
X141Y654D01*
X184Y654D02*
X190Y654D01*
X215Y654D02*
X236Y654D01*
X378Y654D02*
X384Y654D01*
X425Y654D02*
X431Y654D01*
X740Y654D02*
X770Y654D01*
X1173Y654D02*
X1180Y654D01*
X0Y653D02*
X7Y653D01*
X79Y653D02*
X87Y653D01*
X132Y653D02*
X140Y653D01*
X184Y653D02*
X190Y653D01*
X217Y653D02*
X235Y653D01*
X378Y653D02*
X384Y653D01*
X425Y653D02*
X431Y653D01*
X738Y653D02*
X772Y653D01*
X1173Y653D02*
X1180Y653D01*
X0Y652D02*
X7Y652D01*
X80Y652D02*
X88Y652D01*
X131Y652D02*
X140Y652D01*
X184Y652D02*
X190Y652D01*
X378Y652D02*
X384Y652D01*
X425Y652D02*
X431Y652D01*
X736Y652D02*
X750Y652D01*
X759Y652D02*
X774Y652D01*
X1173Y652D02*
X1180Y652D01*
X0Y651D02*
X7Y651D01*
X80Y651D02*
X89Y651D01*
X131Y651D02*
X139Y651D01*
X184Y651D02*
X190Y651D01*
X378Y651D02*
X384Y651D01*
X425Y651D02*
X431Y651D01*
X734Y651D02*
X748Y651D01*
X761Y651D02*
X776Y651D01*
X1173Y651D02*
X1180Y651D01*
X0Y650D02*
X7Y650D01*
X81Y650D02*
X87Y650D01*
X132Y650D02*
X139Y650D01*
X184Y650D02*
X190Y650D01*
X378Y650D02*
X384Y650D01*
X425Y650D02*
X431Y650D01*
X732Y650D02*
X746Y650D01*
X763Y650D02*
X777Y650D01*
X1173Y650D02*
X1180Y650D01*
X0Y649D02*
X7Y649D01*
X81Y649D02*
X86Y649D01*
X133Y649D02*
X138Y649D01*
X184Y649D02*
X190Y649D01*
X378Y649D02*
X384Y649D01*
X425Y649D02*
X431Y649D01*
X731Y649D02*
X744Y649D01*
X765Y649D02*
X778Y649D01*
X1173Y649D02*
X1180Y649D01*
X0Y648D02*
X7Y648D01*
X82Y648D02*
X85Y648D01*
X135Y648D02*
X137Y648D01*
X184Y648D02*
X190Y648D01*
X378Y648D02*
X384Y648D01*
X425Y648D02*
X431Y648D01*
X730Y648D02*
X742Y648D01*
X767Y648D02*
X779Y648D01*
X1173Y648D02*
X1180Y648D01*
X0Y647D02*
X7Y647D01*
X83Y647D02*
X83Y647D01*
X136Y647D02*
X137Y647D01*
X184Y647D02*
X190Y647D01*
X378Y647D02*
X384Y647D01*
X425Y647D02*
X431Y647D01*
X729Y647D02*
X740Y647D01*
X769Y647D02*
X780Y647D01*
X1173Y647D02*
X1180Y647D01*
X0Y646D02*
X7Y646D01*
X184Y646D02*
X191Y646D01*
X378Y646D02*
X384Y646D01*
X425Y646D02*
X431Y646D01*
X729Y646D02*
X738Y646D01*
X771Y646D02*
X780Y646D01*
X1173Y646D02*
X1180Y646D01*
X0Y645D02*
X7Y645D01*
X184Y645D02*
X192Y645D01*
X378Y645D02*
X384Y645D01*
X425Y645D02*
X431Y645D01*
X728Y645D02*
X736Y645D01*
X773Y645D02*
X781Y645D01*
X1173Y645D02*
X1180Y645D01*
X0Y644D02*
X7Y644D01*
X184Y644D02*
X193Y644D01*
X378Y644D02*
X384Y644D01*
X425Y644D02*
X431Y644D01*
X728Y644D02*
X735Y644D01*
X774Y644D02*
X781Y644D01*
X1173Y644D02*
X1180Y644D01*
X0Y643D02*
X7Y643D01*
X184Y643D02*
X193Y643D01*
X378Y643D02*
X384Y643D01*
X425Y643D02*
X431Y643D01*
X728Y643D02*
X734Y643D01*
X775Y643D02*
X781Y643D01*
X1173Y643D02*
X1180Y643D01*
X0Y642D02*
X7Y642D01*
X184Y642D02*
X193Y642D01*
X378Y642D02*
X384Y642D01*
X425Y642D02*
X431Y642D01*
X728Y642D02*
X734Y642D01*
X775Y642D02*
X781Y642D01*
X1173Y642D02*
X1180Y642D01*
X0Y641D02*
X7Y641D01*
X52Y641D02*
X57Y641D01*
X185Y641D02*
X193Y641D01*
X378Y641D02*
X384Y641D01*
X425Y641D02*
X431Y641D01*
X728Y641D02*
X735Y641D01*
X774Y641D02*
X781Y641D01*
X1092Y641D02*
X1092Y641D01*
X1119Y641D02*
X1136Y641D01*
X1173Y641D02*
X1180Y641D01*
X0Y640D02*
X7Y640D01*
X51Y640D02*
X58Y640D01*
X185Y640D02*
X192Y640D01*
X378Y640D02*
X384Y640D01*
X425Y640D02*
X431Y640D01*
X728Y640D02*
X737Y640D01*
X773Y640D02*
X781Y640D01*
X1091Y640D02*
X1094Y640D01*
X1116Y640D02*
X1139Y640D01*
X1173Y640D02*
X1180Y640D01*
X0Y639D02*
X7Y639D01*
X51Y639D02*
X58Y639D01*
X378Y639D02*
X384Y639D01*
X425Y639D02*
X431Y639D01*
X729Y639D02*
X739Y639D01*
X771Y639D02*
X780Y639D01*
X1090Y639D02*
X1095Y639D01*
X1115Y639D02*
X1140Y639D01*
X1173Y639D02*
X1180Y639D01*
X0Y638D02*
X7Y638D01*
X51Y638D02*
X58Y638D01*
X378Y638D02*
X384Y638D01*
X425Y638D02*
X431Y638D01*
X729Y638D02*
X741Y638D01*
X769Y638D02*
X780Y638D01*
X1089Y638D02*
X1095Y638D01*
X1114Y638D02*
X1141Y638D01*
X1173Y638D02*
X1180Y638D01*
X0Y637D02*
X7Y637D01*
X51Y637D02*
X58Y637D01*
X378Y637D02*
X384Y637D01*
X425Y637D02*
X431Y637D01*
X730Y637D02*
X743Y637D01*
X767Y637D02*
X779Y637D01*
X1089Y637D02*
X1095Y637D01*
X1114Y637D02*
X1142Y637D01*
X1173Y637D02*
X1180Y637D01*
X0Y636D02*
X7Y636D01*
X51Y636D02*
X58Y636D01*
X378Y636D02*
X384Y636D01*
X425Y636D02*
X431Y636D01*
X731Y636D02*
X745Y636D01*
X765Y636D02*
X778Y636D01*
X1089Y636D02*
X1095Y636D01*
X1113Y636D02*
X1142Y636D01*
X1173Y636D02*
X1180Y636D01*
X0Y635D02*
X7Y635D01*
X51Y635D02*
X58Y635D01*
X378Y635D02*
X431Y635D01*
X732Y635D02*
X746Y635D01*
X763Y635D02*
X777Y635D01*
X1089Y635D02*
X1095Y635D01*
X1113Y635D02*
X1142Y635D01*
X1173Y635D02*
X1180Y635D01*
X0Y634D02*
X7Y634D01*
X52Y634D02*
X57Y634D01*
X378Y634D02*
X431Y634D01*
X734Y634D02*
X748Y634D01*
X761Y634D02*
X775Y634D01*
X1089Y634D02*
X1095Y634D01*
X1113Y634D02*
X1119Y634D01*
X1136Y634D02*
X1143Y634D01*
X1173Y634D02*
X1180Y634D01*
X0Y633D02*
X7Y633D01*
X379Y633D02*
X431Y633D01*
X736Y633D02*
X751Y633D01*
X758Y633D02*
X773Y633D01*
X1089Y633D02*
X1095Y633D01*
X1113Y633D02*
X1119Y633D01*
X1137Y633D02*
X1143Y633D01*
X1173Y633D02*
X1180Y633D01*
X0Y632D02*
X7Y632D01*
X379Y632D02*
X431Y632D01*
X738Y632D02*
X771Y632D01*
X1089Y632D02*
X1095Y632D01*
X1113Y632D02*
X1119Y632D01*
X1137Y632D02*
X1143Y632D01*
X1173Y632D02*
X1180Y632D01*
X0Y631D02*
X7Y631D01*
X380Y631D02*
X430Y631D01*
X740Y631D02*
X769Y631D01*
X1089Y631D02*
X1095Y631D01*
X1113Y631D02*
X1119Y631D01*
X1137Y631D02*
X1143Y631D01*
X1173Y631D02*
X1180Y631D01*
X0Y630D02*
X7Y630D01*
X381Y630D02*
X429Y630D01*
X742Y630D02*
X767Y630D01*
X1089Y630D02*
X1095Y630D01*
X1113Y630D02*
X1119Y630D01*
X1137Y630D02*
X1143Y630D01*
X1173Y630D02*
X1180Y630D01*
X0Y629D02*
X7Y629D01*
X382Y629D02*
X428Y629D01*
X744Y629D02*
X765Y629D01*
X1089Y629D02*
X1095Y629D01*
X1113Y629D02*
X1119Y629D01*
X1137Y629D02*
X1143Y629D01*
X1173Y629D02*
X1180Y629D01*
X0Y628D02*
X7Y628D01*
X746Y628D02*
X763Y628D01*
X1089Y628D02*
X1095Y628D01*
X1113Y628D02*
X1119Y628D01*
X1137Y628D02*
X1143Y628D01*
X1173Y628D02*
X1180Y628D01*
X0Y627D02*
X7Y627D01*
X748Y627D02*
X761Y627D01*
X1089Y627D02*
X1095Y627D01*
X1113Y627D02*
X1119Y627D01*
X1137Y627D02*
X1143Y627D01*
X1173Y627D02*
X1180Y627D01*
X0Y626D02*
X7Y626D01*
X751Y626D02*
X759Y626D01*
X1089Y626D02*
X1095Y626D01*
X1113Y626D02*
X1119Y626D01*
X1137Y626D02*
X1143Y626D01*
X1173Y626D02*
X1180Y626D01*
X0Y625D02*
X7Y625D01*
X1089Y625D02*
X1095Y625D01*
X1113Y625D02*
X1119Y625D01*
X1137Y625D02*
X1143Y625D01*
X1173Y625D02*
X1180Y625D01*
X0Y624D02*
X7Y624D01*
X1089Y624D02*
X1095Y624D01*
X1113Y624D02*
X1119Y624D01*
X1137Y624D02*
X1143Y624D01*
X1173Y624D02*
X1180Y624D01*
X0Y623D02*
X7Y623D01*
X1089Y623D02*
X1095Y623D01*
X1113Y623D02*
X1119Y623D01*
X1137Y623D02*
X1143Y623D01*
X1173Y623D02*
X1180Y623D01*
X0Y622D02*
X7Y622D01*
X1089Y622D02*
X1095Y622D01*
X1113Y622D02*
X1119Y622D01*
X1137Y622D02*
X1143Y622D01*
X1173Y622D02*
X1180Y622D01*
X0Y621D02*
X7Y621D01*
X215Y621D02*
X218Y621D01*
X1089Y621D02*
X1095Y621D01*
X1113Y621D02*
X1119Y621D01*
X1137Y621D02*
X1143Y621D01*
X1173Y621D02*
X1180Y621D01*
X0Y620D02*
X7Y620D01*
X214Y620D02*
X219Y620D01*
X1089Y620D02*
X1119Y620D01*
X1137Y620D02*
X1143Y620D01*
X1173Y620D02*
X1180Y620D01*
X0Y619D02*
X7Y619D01*
X214Y619D02*
X220Y619D01*
X1089Y619D02*
X1119Y619D01*
X1137Y619D02*
X1143Y619D01*
X1173Y619D02*
X1180Y619D01*
X0Y618D02*
X7Y618D01*
X192Y618D02*
X235Y618D01*
X1089Y618D02*
X1119Y618D01*
X1137Y618D02*
X1143Y618D01*
X1173Y618D02*
X1180Y618D01*
X0Y617D02*
X7Y617D01*
X33Y617D02*
X62Y617D01*
X191Y617D02*
X236Y617D01*
X1089Y617D02*
X1119Y617D01*
X1136Y617D02*
X1142Y617D01*
X1173Y617D02*
X1180Y617D01*
X0Y616D02*
X7Y616D01*
X33Y616D02*
X62Y616D01*
X190Y616D02*
X237Y616D01*
X1089Y616D02*
X1119Y616D01*
X1136Y616D02*
X1142Y616D01*
X1173Y616D02*
X1180Y616D01*
X0Y615D02*
X7Y615D01*
X32Y615D02*
X63Y615D01*
X190Y615D02*
X237Y615D01*
X1089Y615D02*
X1119Y615D01*
X1135Y615D02*
X1142Y615D01*
X1173Y615D02*
X1180Y615D01*
X0Y614D02*
X7Y614D01*
X32Y614D02*
X63Y614D01*
X190Y614D02*
X237Y614D01*
X1089Y614D02*
X1119Y614D01*
X1135Y614D02*
X1142Y614D01*
X1173Y614D02*
X1180Y614D01*
X0Y613D02*
X7Y613D01*
X32Y613D02*
X35Y613D01*
X60Y613D02*
X63Y613D01*
X191Y613D02*
X237Y613D01*
X1135Y613D02*
X1141Y613D01*
X1173Y613D02*
X1180Y613D01*
X0Y612D02*
X7Y612D01*
X32Y612D02*
X35Y612D01*
X60Y612D02*
X63Y612D01*
X192Y612D02*
X236Y612D01*
X383Y612D02*
X427Y612D01*
X1134Y612D02*
X1141Y612D01*
X1173Y612D02*
X1180Y612D01*
X0Y611D02*
X7Y611D01*
X32Y611D02*
X35Y611D01*
X60Y611D02*
X63Y611D01*
X213Y611D02*
X220Y611D01*
X381Y611D02*
X429Y611D01*
X1134Y611D02*
X1141Y611D01*
X1173Y611D02*
X1180Y611D01*
X0Y610D02*
X7Y610D01*
X32Y610D02*
X35Y610D01*
X60Y610D02*
X63Y610D01*
X214Y610D02*
X220Y610D01*
X380Y610D02*
X430Y610D01*
X1134Y610D02*
X1140Y610D01*
X1173Y610D02*
X1180Y610D01*
X0Y609D02*
X7Y609D01*
X32Y609D02*
X35Y609D01*
X60Y609D02*
X63Y609D01*
X214Y609D02*
X220Y609D01*
X379Y609D02*
X430Y609D01*
X1134Y609D02*
X1140Y609D01*
X1173Y609D02*
X1180Y609D01*
X0Y608D02*
X7Y608D01*
X32Y608D02*
X35Y608D01*
X60Y608D02*
X63Y608D01*
X214Y608D02*
X220Y608D01*
X379Y608D02*
X431Y608D01*
X1134Y608D02*
X1139Y608D01*
X1173Y608D02*
X1180Y608D01*
X0Y607D02*
X7Y607D01*
X32Y607D02*
X35Y607D01*
X60Y607D02*
X63Y607D01*
X214Y607D02*
X220Y607D01*
X379Y607D02*
X431Y607D01*
X1135Y607D02*
X1138Y607D01*
X1173Y607D02*
X1180Y607D01*
X0Y606D02*
X7Y606D01*
X32Y606D02*
X35Y606D01*
X60Y606D02*
X63Y606D01*
X214Y606D02*
X220Y606D01*
X378Y606D02*
X431Y606D01*
X1173Y606D02*
X1180Y606D01*
X0Y605D02*
X7Y605D01*
X32Y605D02*
X35Y605D01*
X60Y605D02*
X63Y605D01*
X214Y605D02*
X220Y605D01*
X378Y605D02*
X384Y605D01*
X425Y605D02*
X431Y605D01*
X1173Y605D02*
X1180Y605D01*
X0Y604D02*
X7Y604D01*
X32Y604D02*
X35Y604D01*
X60Y604D02*
X63Y604D01*
X214Y604D02*
X220Y604D01*
X378Y604D02*
X384Y604D01*
X425Y604D02*
X431Y604D01*
X1173Y604D02*
X1180Y604D01*
X0Y603D02*
X7Y603D01*
X32Y603D02*
X35Y603D01*
X60Y603D02*
X63Y603D01*
X214Y603D02*
X220Y603D01*
X378Y603D02*
X384Y603D01*
X425Y603D02*
X431Y603D01*
X1173Y603D02*
X1180Y603D01*
X0Y602D02*
X7Y602D01*
X32Y602D02*
X35Y602D01*
X60Y602D02*
X63Y602D01*
X214Y602D02*
X220Y602D01*
X378Y602D02*
X384Y602D01*
X425Y602D02*
X431Y602D01*
X1173Y602D02*
X1180Y602D01*
X0Y601D02*
X7Y601D01*
X32Y601D02*
X63Y601D01*
X214Y601D02*
X220Y601D01*
X378Y601D02*
X384Y601D01*
X425Y601D02*
X431Y601D01*
X1173Y601D02*
X1180Y601D01*
X0Y600D02*
X7Y600D01*
X32Y600D02*
X63Y600D01*
X214Y600D02*
X220Y600D01*
X378Y600D02*
X384Y600D01*
X425Y600D02*
X431Y600D01*
X1173Y600D02*
X1180Y600D01*
X0Y599D02*
X7Y599D01*
X33Y599D02*
X62Y599D01*
X214Y599D02*
X220Y599D01*
X378Y599D02*
X384Y599D01*
X425Y599D02*
X431Y599D01*
X1173Y599D02*
X1180Y599D01*
X0Y598D02*
X7Y598D01*
X34Y598D02*
X61Y598D01*
X214Y598D02*
X220Y598D01*
X378Y598D02*
X384Y598D01*
X425Y598D02*
X431Y598D01*
X1173Y598D02*
X1180Y598D01*
X0Y597D02*
X7Y597D01*
X186Y597D02*
X220Y597D01*
X378Y597D02*
X384Y597D01*
X425Y597D02*
X431Y597D01*
X1173Y597D02*
X1180Y597D01*
X0Y596D02*
X7Y596D01*
X185Y596D02*
X220Y596D01*
X378Y596D02*
X384Y596D01*
X425Y596D02*
X431Y596D01*
X1173Y596D02*
X1180Y596D01*
X0Y595D02*
X7Y595D01*
X184Y595D02*
X220Y595D01*
X378Y595D02*
X384Y595D01*
X425Y595D02*
X431Y595D01*
X1173Y595D02*
X1180Y595D01*
X0Y594D02*
X7Y594D01*
X184Y594D02*
X220Y594D01*
X378Y594D02*
X384Y594D01*
X425Y594D02*
X431Y594D01*
X1173Y594D02*
X1180Y594D01*
X0Y593D02*
X7Y593D01*
X184Y593D02*
X220Y593D01*
X378Y593D02*
X384Y593D01*
X425Y593D02*
X431Y593D01*
X1173Y593D02*
X1180Y593D01*
X0Y592D02*
X7Y592D01*
X185Y592D02*
X220Y592D01*
X378Y592D02*
X384Y592D01*
X425Y592D02*
X431Y592D01*
X1173Y592D02*
X1180Y592D01*
X0Y591D02*
X7Y591D01*
X186Y591D02*
X220Y591D01*
X378Y591D02*
X384Y591D01*
X425Y591D02*
X431Y591D01*
X1173Y591D02*
X1180Y591D01*
X0Y590D02*
X7Y590D01*
X378Y590D02*
X384Y590D01*
X425Y590D02*
X431Y590D01*
X1173Y590D02*
X1180Y590D01*
X0Y589D02*
X7Y589D01*
X378Y589D02*
X384Y589D01*
X425Y589D02*
X431Y589D01*
X1173Y589D02*
X1180Y589D01*
X0Y588D02*
X7Y588D01*
X378Y588D02*
X384Y588D01*
X425Y588D02*
X431Y588D01*
X1173Y588D02*
X1180Y588D01*
X0Y587D02*
X7Y587D01*
X378Y587D02*
X384Y587D01*
X425Y587D02*
X431Y587D01*
X1173Y587D02*
X1180Y587D01*
X0Y586D02*
X7Y586D01*
X378Y586D02*
X384Y586D01*
X425Y586D02*
X431Y586D01*
X1173Y586D02*
X1180Y586D01*
X0Y585D02*
X7Y585D01*
X378Y585D02*
X385Y585D01*
X425Y585D02*
X431Y585D01*
X1173Y585D02*
X1180Y585D01*
X0Y584D02*
X7Y584D01*
X378Y584D02*
X431Y584D01*
X1173Y584D02*
X1180Y584D01*
X0Y583D02*
X7Y583D01*
X379Y583D02*
X431Y583D01*
X1173Y583D02*
X1180Y583D01*
X0Y582D02*
X7Y582D01*
X379Y582D02*
X431Y582D01*
X1173Y582D02*
X1180Y582D01*
X0Y581D02*
X7Y581D01*
X380Y581D02*
X430Y581D01*
X1173Y581D02*
X1180Y581D01*
X0Y580D02*
X7Y580D01*
X380Y580D02*
X429Y580D01*
X1124Y580D02*
X1132Y580D01*
X1173Y580D02*
X1180Y580D01*
X0Y579D02*
X7Y579D01*
X382Y579D02*
X428Y579D01*
X1123Y579D02*
X1133Y579D01*
X1173Y579D02*
X1180Y579D01*
X0Y578D02*
X7Y578D01*
X384Y578D02*
X426Y578D01*
X1122Y578D02*
X1134Y578D01*
X1173Y578D02*
X1180Y578D01*
X0Y577D02*
X7Y577D01*
X1122Y577D02*
X1134Y577D01*
X1173Y577D02*
X1180Y577D01*
X0Y576D02*
X7Y576D01*
X1122Y576D02*
X1134Y576D01*
X1173Y576D02*
X1180Y576D01*
X0Y575D02*
X7Y575D01*
X1122Y575D02*
X1134Y575D01*
X1173Y575D02*
X1180Y575D01*
X0Y574D02*
X7Y574D01*
X1122Y574D02*
X1134Y574D01*
X1173Y574D02*
X1180Y574D01*
X0Y573D02*
X7Y573D01*
X1122Y573D02*
X1134Y573D01*
X1173Y573D02*
X1180Y573D01*
X0Y572D02*
X7Y572D01*
X1122Y572D02*
X1134Y572D01*
X1173Y572D02*
X1180Y572D01*
X0Y571D02*
X7Y571D01*
X1122Y571D02*
X1134Y571D01*
X1173Y571D02*
X1180Y571D01*
X0Y570D02*
X7Y570D01*
X1122Y570D02*
X1134Y570D01*
X1173Y570D02*
X1180Y570D01*
X0Y569D02*
X7Y569D01*
X1122Y569D02*
X1134Y569D01*
X1173Y569D02*
X1180Y569D01*
X0Y568D02*
X7Y568D01*
X1123Y568D02*
X1133Y568D01*
X1173Y568D02*
X1180Y568D01*
X0Y567D02*
X7Y567D01*
X1124Y567D02*
X1132Y567D01*
X1173Y567D02*
X1180Y567D01*
X0Y566D02*
X7Y566D01*
X1173Y566D02*
X1180Y566D01*
X0Y565D02*
X7Y565D01*
X1173Y565D02*
X1180Y565D01*
X0Y564D02*
X7Y564D01*
X1173Y564D02*
X1180Y564D01*
X0Y563D02*
X7Y563D01*
X1173Y563D02*
X1180Y563D01*
X0Y562D02*
X7Y562D01*
X381Y562D02*
X429Y562D01*
X1173Y562D02*
X1180Y562D01*
X0Y561D02*
X7Y561D01*
X379Y561D02*
X431Y561D01*
X1173Y561D02*
X1180Y561D01*
X0Y560D02*
X7Y560D01*
X379Y560D02*
X431Y560D01*
X1173Y560D02*
X1180Y560D01*
X0Y559D02*
X7Y559D01*
X378Y559D02*
X431Y559D01*
X756Y559D02*
X777Y559D01*
X1173Y559D02*
X1180Y559D01*
X0Y558D02*
X7Y558D01*
X378Y558D02*
X431Y558D01*
X754Y558D02*
X778Y558D01*
X1173Y558D02*
X1180Y558D01*
X0Y557D02*
X7Y557D01*
X378Y557D02*
X431Y557D01*
X753Y557D02*
X779Y557D01*
X1173Y557D02*
X1180Y557D01*
X0Y556D02*
X7Y556D01*
X205Y556D02*
X214Y556D01*
X378Y556D02*
X431Y556D01*
X753Y556D02*
X780Y556D01*
X1173Y556D02*
X1180Y556D01*
X0Y555D02*
X7Y555D01*
X205Y555D02*
X214Y555D01*
X378Y555D02*
X385Y555D01*
X396Y555D02*
X402Y555D01*
X425Y555D02*
X431Y555D01*
X752Y555D02*
X781Y555D01*
X1173Y555D02*
X1180Y555D01*
X0Y554D02*
X7Y554D01*
X205Y554D02*
X214Y554D01*
X378Y554D02*
X384Y554D01*
X396Y554D02*
X402Y554D01*
X426Y554D02*
X431Y554D01*
X752Y554D02*
X781Y554D01*
X1173Y554D02*
X1180Y554D01*
X0Y553D02*
X7Y553D01*
X205Y553D02*
X214Y553D01*
X378Y553D02*
X384Y553D01*
X396Y553D02*
X402Y553D01*
X426Y553D02*
X431Y553D01*
X752Y553D02*
X781Y553D01*
X1173Y553D02*
X1180Y553D01*
X0Y552D02*
X7Y552D01*
X205Y552D02*
X214Y552D01*
X378Y552D02*
X384Y552D01*
X396Y552D02*
X402Y552D01*
X428Y552D02*
X429Y552D01*
X730Y552D02*
X758Y552D01*
X775Y552D02*
X781Y552D01*
X1173Y552D02*
X1180Y552D01*
X0Y551D02*
X7Y551D01*
X205Y551D02*
X214Y551D01*
X378Y551D02*
X384Y551D01*
X396Y551D02*
X402Y551D01*
X729Y551D02*
X758Y551D01*
X775Y551D02*
X781Y551D01*
X1173Y551D02*
X1180Y551D01*
X0Y550D02*
X7Y550D01*
X205Y550D02*
X214Y550D01*
X378Y550D02*
X384Y550D01*
X396Y550D02*
X402Y550D01*
X728Y550D02*
X758Y550D01*
X775Y550D02*
X781Y550D01*
X1173Y550D02*
X1180Y550D01*
X0Y549D02*
X7Y549D01*
X205Y549D02*
X214Y549D01*
X378Y549D02*
X384Y549D01*
X396Y549D02*
X402Y549D01*
X728Y549D02*
X758Y549D01*
X775Y549D02*
X781Y549D01*
X1173Y549D02*
X1180Y549D01*
X0Y548D02*
X7Y548D01*
X205Y548D02*
X214Y548D01*
X378Y548D02*
X384Y548D01*
X396Y548D02*
X402Y548D01*
X728Y548D02*
X758Y548D01*
X775Y548D02*
X781Y548D01*
X1173Y548D02*
X1180Y548D01*
X0Y547D02*
X7Y547D01*
X205Y547D02*
X214Y547D01*
X378Y547D02*
X384Y547D01*
X396Y547D02*
X402Y547D01*
X728Y547D02*
X758Y547D01*
X775Y547D02*
X781Y547D01*
X1173Y547D02*
X1180Y547D01*
X0Y546D02*
X7Y546D01*
X205Y546D02*
X214Y546D01*
X378Y546D02*
X384Y546D01*
X396Y546D02*
X402Y546D01*
X728Y546D02*
X758Y546D01*
X775Y546D02*
X781Y546D01*
X1173Y546D02*
X1180Y546D01*
X0Y545D02*
X7Y545D01*
X205Y545D02*
X214Y545D01*
X378Y545D02*
X384Y545D01*
X396Y545D02*
X402Y545D01*
X728Y545D02*
X734Y545D01*
X751Y545D02*
X758Y545D01*
X775Y545D02*
X781Y545D01*
X1173Y545D02*
X1180Y545D01*
X0Y544D02*
X7Y544D01*
X205Y544D02*
X214Y544D01*
X378Y544D02*
X384Y544D01*
X396Y544D02*
X402Y544D01*
X728Y544D02*
X734Y544D01*
X751Y544D02*
X758Y544D01*
X775Y544D02*
X781Y544D01*
X1173Y544D02*
X1180Y544D01*
X0Y543D02*
X7Y543D01*
X33Y543D02*
X35Y543D01*
X205Y543D02*
X214Y543D01*
X378Y543D02*
X384Y543D01*
X396Y543D02*
X402Y543D01*
X728Y543D02*
X734Y543D01*
X751Y543D02*
X758Y543D01*
X775Y543D02*
X781Y543D01*
X1173Y543D02*
X1180Y543D01*
X0Y542D02*
X7Y542D01*
X33Y542D02*
X36Y542D01*
X205Y542D02*
X214Y542D01*
X378Y542D02*
X384Y542D01*
X396Y542D02*
X402Y542D01*
X728Y542D02*
X734Y542D01*
X751Y542D02*
X758Y542D01*
X775Y542D02*
X781Y542D01*
X1173Y542D02*
X1180Y542D01*
X0Y541D02*
X7Y541D01*
X32Y541D02*
X36Y541D01*
X205Y541D02*
X214Y541D01*
X378Y541D02*
X384Y541D01*
X396Y541D02*
X402Y541D01*
X728Y541D02*
X734Y541D01*
X751Y541D02*
X758Y541D01*
X775Y541D02*
X781Y541D01*
X1173Y541D02*
X1180Y541D01*
X0Y540D02*
X7Y540D01*
X32Y540D02*
X36Y540D01*
X205Y540D02*
X214Y540D01*
X378Y540D02*
X384Y540D01*
X396Y540D02*
X402Y540D01*
X728Y540D02*
X734Y540D01*
X751Y540D02*
X758Y540D01*
X775Y540D02*
X781Y540D01*
X1173Y540D02*
X1180Y540D01*
X0Y539D02*
X7Y539D01*
X32Y539D02*
X36Y539D01*
X44Y539D02*
X45Y539D01*
X205Y539D02*
X214Y539D01*
X378Y539D02*
X384Y539D01*
X396Y539D02*
X402Y539D01*
X728Y539D02*
X734Y539D01*
X751Y539D02*
X758Y539D01*
X775Y539D02*
X781Y539D01*
X1173Y539D02*
X1180Y539D01*
X0Y538D02*
X7Y538D01*
X32Y538D02*
X36Y538D01*
X43Y538D02*
X46Y538D01*
X205Y538D02*
X214Y538D01*
X378Y538D02*
X384Y538D01*
X396Y538D02*
X402Y538D01*
X728Y538D02*
X758Y538D01*
X775Y538D02*
X781Y538D01*
X1120Y538D02*
X1124Y538D01*
X1173Y538D02*
X1180Y538D01*
X0Y537D02*
X7Y537D01*
X32Y537D02*
X36Y537D01*
X43Y537D02*
X46Y537D01*
X205Y537D02*
X214Y537D01*
X378Y537D02*
X384Y537D01*
X396Y537D02*
X402Y537D01*
X728Y537D02*
X758Y537D01*
X775Y537D02*
X781Y537D01*
X1119Y537D02*
X1124Y537D01*
X1173Y537D02*
X1180Y537D01*
X0Y536D02*
X7Y536D01*
X32Y536D02*
X36Y536D01*
X43Y536D02*
X46Y536D01*
X205Y536D02*
X214Y536D01*
X378Y536D02*
X384Y536D01*
X396Y536D02*
X402Y536D01*
X728Y536D02*
X758Y536D01*
X775Y536D02*
X781Y536D01*
X1119Y536D02*
X1125Y536D01*
X1173Y536D02*
X1180Y536D01*
X0Y535D02*
X7Y535D01*
X32Y535D02*
X36Y535D01*
X43Y535D02*
X46Y535D01*
X205Y535D02*
X214Y535D01*
X378Y535D02*
X384Y535D01*
X396Y535D02*
X402Y535D01*
X728Y535D02*
X758Y535D01*
X775Y535D02*
X781Y535D01*
X1097Y535D02*
X1141Y535D01*
X1173Y535D02*
X1180Y535D01*
X0Y534D02*
X7Y534D01*
X32Y534D02*
X36Y534D01*
X43Y534D02*
X46Y534D01*
X205Y534D02*
X214Y534D01*
X378Y534D02*
X402Y534D01*
X728Y534D02*
X758Y534D01*
X775Y534D02*
X781Y534D01*
X1096Y534D02*
X1142Y534D01*
X1173Y534D02*
X1180Y534D01*
X0Y533D02*
X7Y533D01*
X32Y533D02*
X36Y533D01*
X43Y533D02*
X46Y533D01*
X205Y533D02*
X214Y533D01*
X378Y533D02*
X402Y533D01*
X729Y533D02*
X758Y533D01*
X775Y533D02*
X781Y533D01*
X1096Y533D02*
X1142Y533D01*
X1173Y533D02*
X1180Y533D01*
X0Y532D02*
X7Y532D01*
X32Y532D02*
X36Y532D01*
X43Y532D02*
X46Y532D01*
X205Y532D02*
X214Y532D01*
X378Y532D02*
X402Y532D01*
X730Y532D02*
X758Y532D01*
X775Y532D02*
X781Y532D01*
X1095Y532D02*
X1143Y532D01*
X1173Y532D02*
X1180Y532D01*
X0Y531D02*
X7Y531D01*
X32Y531D02*
X36Y531D01*
X43Y531D02*
X46Y531D01*
X205Y531D02*
X214Y531D01*
X378Y531D02*
X402Y531D01*
X752Y531D02*
X781Y531D01*
X1095Y531D02*
X1142Y531D01*
X1173Y531D02*
X1180Y531D01*
X0Y530D02*
X7Y530D01*
X32Y530D02*
X36Y530D01*
X43Y530D02*
X46Y530D01*
X205Y530D02*
X214Y530D01*
X379Y530D02*
X402Y530D01*
X752Y530D02*
X781Y530D01*
X1096Y530D02*
X1142Y530D01*
X1173Y530D02*
X1180Y530D01*
X0Y529D02*
X7Y529D01*
X32Y529D02*
X36Y529D01*
X43Y529D02*
X46Y529D01*
X205Y529D02*
X214Y529D01*
X379Y529D02*
X401Y529D01*
X752Y529D02*
X780Y529D01*
X1097Y529D02*
X1141Y529D01*
X1173Y529D02*
X1180Y529D01*
X0Y528D02*
X7Y528D01*
X32Y528D02*
X36Y528D01*
X43Y528D02*
X46Y528D01*
X205Y528D02*
X214Y528D01*
X380Y528D02*
X400Y528D01*
X753Y528D02*
X780Y528D01*
X1119Y528D02*
X1125Y528D01*
X1173Y528D02*
X1180Y528D01*
X0Y527D02*
X7Y527D01*
X32Y527D02*
X62Y527D01*
X205Y527D02*
X214Y527D01*
X754Y527D02*
X779Y527D01*
X1119Y527D02*
X1125Y527D01*
X1173Y527D02*
X1180Y527D01*
X0Y526D02*
X7Y526D01*
X32Y526D02*
X64Y526D01*
X205Y526D02*
X214Y526D01*
X755Y526D02*
X778Y526D01*
X1119Y526D02*
X1125Y526D01*
X1173Y526D02*
X1180Y526D01*
X0Y525D02*
X7Y525D01*
X32Y525D02*
X64Y525D01*
X205Y525D02*
X214Y525D01*
X757Y525D02*
X775Y525D01*
X1119Y525D02*
X1125Y525D01*
X1173Y525D02*
X1180Y525D01*
X0Y524D02*
X7Y524D01*
X32Y524D02*
X64Y524D01*
X205Y524D02*
X214Y524D01*
X1119Y524D02*
X1125Y524D01*
X1173Y524D02*
X1180Y524D01*
X0Y523D02*
X7Y523D01*
X33Y523D02*
X62Y523D01*
X205Y523D02*
X214Y523D01*
X1119Y523D02*
X1125Y523D01*
X1173Y523D02*
X1180Y523D01*
X0Y522D02*
X7Y522D01*
X205Y522D02*
X214Y522D01*
X1119Y522D02*
X1125Y522D01*
X1173Y522D02*
X1180Y522D01*
X0Y521D02*
X7Y521D01*
X205Y521D02*
X214Y521D01*
X1119Y521D02*
X1125Y521D01*
X1173Y521D02*
X1180Y521D01*
X0Y520D02*
X7Y520D01*
X205Y520D02*
X214Y520D01*
X1119Y520D02*
X1125Y520D01*
X1173Y520D02*
X1180Y520D01*
X0Y519D02*
X7Y519D01*
X205Y519D02*
X214Y519D01*
X1119Y519D02*
X1125Y519D01*
X1173Y519D02*
X1180Y519D01*
X0Y518D02*
X7Y518D01*
X205Y518D02*
X214Y518D01*
X1119Y518D02*
X1125Y518D01*
X1173Y518D02*
X1180Y518D01*
X0Y517D02*
X7Y517D01*
X205Y517D02*
X214Y517D01*
X1119Y517D02*
X1125Y517D01*
X1173Y517D02*
X1180Y517D01*
X0Y516D02*
X7Y516D01*
X205Y516D02*
X214Y516D01*
X1119Y516D02*
X1125Y516D01*
X1173Y516D02*
X1180Y516D01*
X0Y515D02*
X7Y515D01*
X205Y515D02*
X214Y515D01*
X1119Y515D02*
X1125Y515D01*
X1173Y515D02*
X1180Y515D01*
X0Y514D02*
X7Y514D01*
X205Y514D02*
X214Y514D01*
X1091Y514D02*
X1125Y514D01*
X1173Y514D02*
X1180Y514D01*
X0Y513D02*
X7Y513D01*
X42Y513D02*
X63Y513D01*
X205Y513D02*
X214Y513D01*
X1090Y513D02*
X1125Y513D01*
X1173Y513D02*
X1180Y513D01*
X0Y512D02*
X7Y512D01*
X41Y512D02*
X64Y512D01*
X205Y512D02*
X214Y512D01*
X1090Y512D02*
X1125Y512D01*
X1173Y512D02*
X1180Y512D01*
X0Y511D02*
X7Y511D01*
X41Y511D02*
X64Y511D01*
X205Y511D02*
X214Y511D01*
X1089Y511D02*
X1125Y511D01*
X1173Y511D02*
X1180Y511D01*
X0Y510D02*
X7Y510D01*
X42Y510D02*
X63Y510D01*
X205Y510D02*
X214Y510D01*
X1090Y510D02*
X1125Y510D01*
X1173Y510D02*
X1180Y510D01*
X0Y509D02*
X7Y509D01*
X57Y509D02*
X61Y509D01*
X205Y509D02*
X214Y509D01*
X1090Y509D02*
X1125Y509D01*
X1173Y509D02*
X1180Y509D01*
X0Y508D02*
X7Y508D01*
X57Y508D02*
X61Y508D01*
X205Y508D02*
X214Y508D01*
X1092Y508D02*
X1125Y508D01*
X1173Y508D02*
X1180Y508D01*
X0Y507D02*
X7Y507D01*
X58Y507D02*
X62Y507D01*
X205Y507D02*
X214Y507D01*
X1173Y507D02*
X1180Y507D01*
X0Y506D02*
X7Y506D01*
X59Y506D02*
X62Y506D01*
X205Y506D02*
X214Y506D01*
X1173Y506D02*
X1180Y506D01*
X0Y505D02*
X7Y505D01*
X59Y505D02*
X63Y505D01*
X205Y505D02*
X214Y505D01*
X1173Y505D02*
X1180Y505D01*
X0Y504D02*
X7Y504D01*
X60Y504D02*
X64Y504D01*
X205Y504D02*
X214Y504D01*
X1173Y504D02*
X1180Y504D01*
X0Y503D02*
X7Y503D01*
X60Y503D02*
X64Y503D01*
X205Y503D02*
X214Y503D01*
X1173Y503D02*
X1180Y503D01*
X0Y502D02*
X7Y502D01*
X61Y502D02*
X64Y502D01*
X205Y502D02*
X214Y502D01*
X1173Y502D02*
X1180Y502D01*
X0Y501D02*
X7Y501D01*
X61Y501D02*
X64Y501D01*
X205Y501D02*
X214Y501D01*
X1173Y501D02*
X1180Y501D01*
X0Y500D02*
X7Y500D01*
X61Y500D02*
X64Y500D01*
X205Y500D02*
X214Y500D01*
X1173Y500D02*
X1180Y500D01*
X0Y499D02*
X7Y499D01*
X61Y499D02*
X64Y499D01*
X205Y499D02*
X214Y499D01*
X1173Y499D02*
X1180Y499D01*
X0Y498D02*
X7Y498D01*
X60Y498D02*
X64Y498D01*
X205Y498D02*
X214Y498D01*
X1173Y498D02*
X1180Y498D01*
X0Y497D02*
X7Y497D01*
X44Y497D02*
X63Y497D01*
X205Y497D02*
X214Y497D01*
X1173Y497D02*
X1180Y497D01*
X0Y496D02*
X7Y496D01*
X42Y496D02*
X63Y496D01*
X205Y496D02*
X214Y496D01*
X1173Y496D02*
X1180Y496D01*
X0Y495D02*
X7Y495D01*
X41Y495D02*
X62Y495D01*
X205Y495D02*
X214Y495D01*
X1173Y495D02*
X1180Y495D01*
X0Y494D02*
X7Y494D01*
X42Y494D02*
X60Y494D01*
X205Y494D02*
X214Y494D01*
X1173Y494D02*
X1180Y494D01*
X0Y493D02*
X7Y493D01*
X43Y493D02*
X48Y493D01*
X205Y493D02*
X214Y493D01*
X1173Y493D02*
X1180Y493D01*
X0Y492D02*
X7Y492D01*
X205Y492D02*
X214Y492D01*
X1173Y492D02*
X1180Y492D01*
X0Y491D02*
X7Y491D01*
X205Y491D02*
X214Y491D01*
X1173Y491D02*
X1180Y491D01*
X0Y490D02*
X7Y490D01*
X205Y490D02*
X214Y490D01*
X1115Y490D02*
X1117Y490D01*
X1173Y490D02*
X1180Y490D01*
X0Y489D02*
X7Y489D01*
X1114Y489D02*
X1118Y489D01*
X1173Y489D02*
X1180Y489D01*
X0Y488D02*
X7Y488D01*
X1113Y488D02*
X1119Y488D01*
X1173Y488D02*
X1180Y488D01*
X0Y487D02*
X7Y487D01*
X1113Y487D02*
X1119Y487D01*
X1173Y487D02*
X1180Y487D01*
X0Y486D02*
X7Y486D01*
X1113Y486D02*
X1119Y486D01*
X1173Y486D02*
X1180Y486D01*
X0Y485D02*
X7Y485D01*
X1113Y485D02*
X1119Y485D01*
X1173Y485D02*
X1180Y485D01*
X0Y484D02*
X7Y484D01*
X1113Y484D02*
X1119Y484D01*
X1173Y484D02*
X1180Y484D01*
X0Y483D02*
X7Y483D01*
X51Y483D02*
X63Y483D01*
X1113Y483D02*
X1119Y483D01*
X1173Y483D02*
X1180Y483D01*
X0Y482D02*
X7Y482D01*
X50Y482D02*
X64Y482D01*
X1113Y482D02*
X1119Y482D01*
X1173Y482D02*
X1180Y482D01*
X0Y481D02*
X7Y481D01*
X50Y481D02*
X64Y481D01*
X1113Y481D02*
X1119Y481D01*
X1173Y481D02*
X1180Y481D01*
X0Y480D02*
X7Y480D01*
X51Y480D02*
X64Y480D01*
X1113Y480D02*
X1119Y480D01*
X1173Y480D02*
X1180Y480D01*
X0Y479D02*
X7Y479D01*
X61Y479D02*
X64Y479D01*
X1113Y479D02*
X1119Y479D01*
X1173Y479D02*
X1180Y479D01*
X0Y478D02*
X7Y478D01*
X61Y478D02*
X64Y478D01*
X1113Y478D02*
X1119Y478D01*
X1173Y478D02*
X1180Y478D01*
X0Y477D02*
X7Y477D01*
X61Y477D02*
X64Y477D01*
X136Y477D02*
X136Y477D01*
X1113Y477D02*
X1119Y477D01*
X1173Y477D02*
X1180Y477D01*
X0Y476D02*
X7Y476D01*
X61Y476D02*
X64Y476D01*
X82Y476D02*
X84Y476D01*
X135Y476D02*
X137Y476D01*
X1101Y476D02*
X1131Y476D01*
X1173Y476D02*
X1180Y476D01*
X0Y475D02*
X7Y475D01*
X33Y475D02*
X64Y475D01*
X81Y475D02*
X85Y475D01*
X133Y475D02*
X137Y475D01*
X1100Y475D02*
X1132Y475D01*
X1173Y475D02*
X1180Y475D01*
X0Y474D02*
X7Y474D01*
X32Y474D02*
X64Y474D01*
X81Y474D02*
X86Y474D01*
X132Y474D02*
X138Y474D01*
X1099Y474D02*
X1133Y474D01*
X1173Y474D02*
X1180Y474D01*
X0Y473D02*
X7Y473D01*
X32Y473D02*
X64Y473D01*
X80Y473D02*
X88Y473D01*
X131Y473D02*
X139Y473D01*
X1099Y473D02*
X1133Y473D01*
X1173Y473D02*
X1180Y473D01*
X0Y472D02*
X7Y472D01*
X32Y472D02*
X64Y472D01*
X79Y472D02*
X88Y472D01*
X131Y472D02*
X139Y472D01*
X1099Y472D02*
X1133Y472D01*
X1173Y472D02*
X1180Y472D01*
X0Y471D02*
X7Y471D01*
X32Y471D02*
X64Y471D01*
X79Y471D02*
X87Y471D01*
X131Y471D02*
X139Y471D01*
X1100Y471D02*
X1132Y471D01*
X1173Y471D02*
X1180Y471D01*
X0Y470D02*
X7Y470D01*
X32Y470D02*
X36Y470D01*
X61Y470D02*
X64Y470D01*
X79Y470D02*
X87Y470D01*
X132Y470D02*
X140Y470D01*
X1101Y470D02*
X1131Y470D01*
X1173Y470D02*
X1180Y470D01*
X0Y469D02*
X7Y469D01*
X32Y469D02*
X36Y469D01*
X61Y469D02*
X64Y469D01*
X78Y469D02*
X86Y469D01*
X133Y469D02*
X140Y469D01*
X1113Y469D02*
X1119Y469D01*
X1173Y469D02*
X1180Y469D01*
X0Y468D02*
X7Y468D01*
X32Y468D02*
X36Y468D01*
X61Y468D02*
X64Y468D01*
X78Y468D02*
X85Y468D01*
X133Y468D02*
X141Y468D01*
X1113Y468D02*
X1119Y468D01*
X1173Y468D02*
X1180Y468D01*
X0Y467D02*
X7Y467D01*
X32Y467D02*
X36Y467D01*
X61Y467D02*
X64Y467D01*
X77Y467D02*
X85Y467D01*
X134Y467D02*
X141Y467D01*
X1113Y467D02*
X1119Y467D01*
X1173Y467D02*
X1180Y467D01*
X0Y466D02*
X7Y466D01*
X32Y466D02*
X36Y466D01*
X61Y466D02*
X64Y466D01*
X77Y466D02*
X84Y466D01*
X134Y466D02*
X141Y466D01*
X1113Y466D02*
X1119Y466D01*
X1173Y466D02*
X1180Y466D01*
X0Y465D02*
X7Y465D01*
X32Y465D02*
X36Y465D01*
X61Y465D02*
X64Y465D01*
X77Y465D02*
X84Y465D01*
X135Y465D02*
X142Y465D01*
X1113Y465D02*
X1119Y465D01*
X1173Y465D02*
X1180Y465D01*
X0Y464D02*
X7Y464D01*
X33Y464D02*
X35Y464D01*
X61Y464D02*
X64Y464D01*
X77Y464D02*
X84Y464D01*
X135Y464D02*
X142Y464D01*
X1113Y464D02*
X1119Y464D01*
X1173Y464D02*
X1180Y464D01*
X0Y463D02*
X7Y463D01*
X34Y463D02*
X35Y463D01*
X62Y463D02*
X63Y463D01*
X77Y463D02*
X83Y463D01*
X135Y463D02*
X142Y463D01*
X1113Y463D02*
X1119Y463D01*
X1173Y463D02*
X1180Y463D01*
X0Y462D02*
X7Y462D01*
X76Y462D02*
X83Y462D01*
X135Y462D02*
X142Y462D01*
X1113Y462D02*
X1119Y462D01*
X1173Y462D02*
X1180Y462D01*
X0Y461D02*
X7Y461D01*
X76Y461D02*
X83Y461D01*
X136Y461D02*
X142Y461D01*
X1113Y461D02*
X1119Y461D01*
X1173Y461D02*
X1180Y461D01*
X0Y460D02*
X7Y460D01*
X76Y460D02*
X83Y460D01*
X136Y460D02*
X142Y460D01*
X1113Y460D02*
X1119Y460D01*
X1173Y460D02*
X1180Y460D01*
X0Y459D02*
X7Y459D01*
X76Y459D02*
X83Y459D01*
X136Y459D02*
X142Y459D01*
X1113Y459D02*
X1119Y459D01*
X1173Y459D02*
X1180Y459D01*
X0Y458D02*
X7Y458D01*
X76Y458D02*
X83Y458D01*
X136Y458D02*
X142Y458D01*
X1113Y458D02*
X1119Y458D01*
X1173Y458D02*
X1180Y458D01*
X0Y457D02*
X7Y457D01*
X76Y457D02*
X83Y457D01*
X136Y457D02*
X143Y457D01*
X1114Y457D02*
X1118Y457D01*
X1173Y457D02*
X1180Y457D01*
X0Y456D02*
X7Y456D01*
X76Y456D02*
X83Y456D01*
X136Y456D02*
X142Y456D01*
X1116Y456D02*
X1116Y456D01*
X1173Y456D02*
X1180Y456D01*
X0Y455D02*
X7Y455D01*
X76Y455D02*
X83Y455D01*
X136Y455D02*
X142Y455D01*
X1173Y455D02*
X1180Y455D01*
X0Y454D02*
X7Y454D01*
X76Y454D02*
X83Y454D01*
X136Y454D02*
X142Y454D01*
X1173Y454D02*
X1180Y454D01*
X0Y453D02*
X7Y453D01*
X35Y453D02*
X61Y453D01*
X76Y453D02*
X83Y453D01*
X136Y453D02*
X142Y453D01*
X1173Y453D02*
X1180Y453D01*
X0Y452D02*
X7Y452D01*
X34Y452D02*
X63Y452D01*
X76Y452D02*
X83Y452D01*
X135Y452D02*
X142Y452D01*
X1173Y452D02*
X1180Y452D01*
X0Y451D02*
X7Y451D01*
X33Y451D02*
X63Y451D01*
X76Y451D02*
X83Y451D01*
X135Y451D02*
X142Y451D01*
X1173Y451D02*
X1180Y451D01*
X0Y450D02*
X7Y450D01*
X33Y450D02*
X64Y450D01*
X77Y450D02*
X84Y450D01*
X135Y450D02*
X142Y450D01*
X1173Y450D02*
X1180Y450D01*
X0Y449D02*
X7Y449D01*
X32Y449D02*
X36Y449D01*
X60Y449D02*
X64Y449D01*
X77Y449D02*
X84Y449D01*
X135Y449D02*
X142Y449D01*
X1173Y449D02*
X1180Y449D01*
X0Y448D02*
X7Y448D01*
X32Y448D02*
X36Y448D01*
X61Y448D02*
X64Y448D01*
X77Y448D02*
X84Y448D01*
X134Y448D02*
X141Y448D01*
X1173Y448D02*
X1180Y448D01*
X0Y447D02*
X7Y447D01*
X32Y447D02*
X36Y447D01*
X61Y447D02*
X64Y447D01*
X77Y447D02*
X85Y447D01*
X134Y447D02*
X141Y447D01*
X1173Y447D02*
X1180Y447D01*
X0Y446D02*
X7Y446D01*
X32Y446D02*
X36Y446D01*
X61Y446D02*
X64Y446D01*
X78Y446D02*
X85Y446D01*
X133Y446D02*
X141Y446D01*
X1173Y446D02*
X1180Y446D01*
X0Y445D02*
X7Y445D01*
X32Y445D02*
X36Y445D01*
X61Y445D02*
X64Y445D01*
X78Y445D02*
X86Y445D01*
X133Y445D02*
X140Y445D01*
X1173Y445D02*
X1180Y445D01*
X0Y444D02*
X7Y444D01*
X32Y444D02*
X36Y444D01*
X61Y444D02*
X64Y444D01*
X79Y444D02*
X86Y444D01*
X132Y444D02*
X140Y444D01*
X1173Y444D02*
X1180Y444D01*
X0Y443D02*
X7Y443D01*
X32Y443D02*
X36Y443D01*
X61Y443D02*
X64Y443D01*
X79Y443D02*
X87Y443D01*
X131Y443D02*
X140Y443D01*
X1173Y443D02*
X1180Y443D01*
X0Y442D02*
X7Y442D01*
X32Y442D02*
X36Y442D01*
X61Y442D02*
X64Y442D01*
X79Y442D02*
X88Y442D01*
X131Y442D02*
X139Y442D01*
X1173Y442D02*
X1180Y442D01*
X0Y441D02*
X7Y441D01*
X32Y441D02*
X36Y441D01*
X61Y441D02*
X64Y441D01*
X80Y441D02*
X88Y441D01*
X130Y441D02*
X139Y441D01*
X1173Y441D02*
X1180Y441D01*
X0Y440D02*
X7Y440D01*
X32Y440D02*
X36Y440D01*
X61Y440D02*
X64Y440D01*
X81Y440D02*
X86Y440D01*
X132Y440D02*
X138Y440D01*
X1173Y440D02*
X1180Y440D01*
X0Y439D02*
X7Y439D01*
X32Y439D02*
X36Y439D01*
X61Y439D02*
X64Y439D01*
X81Y439D02*
X85Y439D01*
X133Y439D02*
X137Y439D01*
X1173Y439D02*
X1180Y439D01*
X0Y438D02*
X7Y438D01*
X32Y438D02*
X36Y438D01*
X61Y438D02*
X64Y438D01*
X82Y438D02*
X84Y438D01*
X135Y438D02*
X137Y438D01*
X1173Y438D02*
X1180Y438D01*
X0Y437D02*
X7Y437D01*
X32Y437D02*
X36Y437D01*
X61Y437D02*
X64Y437D01*
X83Y437D02*
X83Y437D01*
X136Y437D02*
X136Y437D01*
X1173Y437D02*
X1180Y437D01*
X0Y436D02*
X7Y436D01*
X33Y436D02*
X64Y436D01*
X1173Y436D02*
X1180Y436D01*
X0Y435D02*
X7Y435D01*
X33Y435D02*
X63Y435D01*
X1173Y435D02*
X1180Y435D01*
X0Y434D02*
X7Y434D01*
X34Y434D02*
X63Y434D01*
X1173Y434D02*
X1180Y434D01*
X0Y433D02*
X7Y433D01*
X35Y433D02*
X61Y433D01*
X1173Y433D02*
X1180Y433D01*
X0Y432D02*
X7Y432D01*
X1173Y432D02*
X1180Y432D01*
X0Y431D02*
X7Y431D01*
X1173Y431D02*
X1180Y431D01*
X0Y430D02*
X7Y430D01*
X1173Y430D02*
X1180Y430D01*
X0Y429D02*
X7Y429D01*
X1173Y429D02*
X1180Y429D01*
X0Y428D02*
X7Y428D01*
X1173Y428D02*
X1180Y428D01*
X0Y427D02*
X7Y427D01*
X1173Y427D02*
X1180Y427D01*
X0Y426D02*
X7Y426D01*
X1173Y426D02*
X1180Y426D01*
X0Y425D02*
X7Y425D01*
X1173Y425D02*
X1180Y425D01*
X0Y424D02*
X7Y424D01*
X1173Y424D02*
X1180Y424D01*
X0Y423D02*
X7Y423D01*
X1173Y423D02*
X1180Y423D01*
X0Y422D02*
X7Y422D01*
X1173Y422D02*
X1180Y422D01*
X0Y421D02*
X7Y421D01*
X1173Y421D02*
X1180Y421D01*
X0Y420D02*
X7Y420D01*
X1173Y420D02*
X1180Y420D01*
X0Y419D02*
X7Y419D01*
X1173Y419D02*
X1180Y419D01*
X0Y418D02*
X7Y418D01*
X1173Y418D02*
X1180Y418D01*
X0Y417D02*
X7Y417D01*
X54Y417D02*
X56Y417D01*
X1173Y417D02*
X1180Y417D01*
X0Y416D02*
X7Y416D01*
X52Y416D02*
X58Y416D01*
X1173Y416D02*
X1180Y416D01*
X0Y415D02*
X7Y415D01*
X52Y415D02*
X59Y415D01*
X1173Y415D02*
X1180Y415D01*
X0Y414D02*
X7Y414D01*
X52Y414D02*
X59Y414D01*
X1173Y414D02*
X1180Y414D01*
X0Y413D02*
X7Y413D01*
X52Y413D02*
X59Y413D01*
X1173Y413D02*
X1180Y413D01*
X0Y412D02*
X7Y412D01*
X52Y412D02*
X59Y412D01*
X1173Y412D02*
X1180Y412D01*
X0Y411D02*
X7Y411D01*
X52Y411D02*
X59Y411D01*
X1173Y411D02*
X1180Y411D01*
X0Y410D02*
X7Y410D01*
X52Y410D02*
X58Y410D01*
X1173Y410D02*
X1180Y410D01*
X0Y409D02*
X7Y409D01*
X53Y409D02*
X58Y409D01*
X1173Y409D02*
X1180Y409D01*
X0Y408D02*
X7Y408D01*
X1173Y408D02*
X1180Y408D01*
X0Y407D02*
X7Y407D01*
X1173Y407D02*
X1180Y407D01*
X0Y406D02*
X7Y406D01*
X1173Y406D02*
X1180Y406D01*
X0Y405D02*
X7Y405D01*
X1173Y405D02*
X1180Y405D01*
X0Y404D02*
X7Y404D01*
X1173Y404D02*
X1180Y404D01*
X0Y403D02*
X7Y403D01*
X1173Y403D02*
X1180Y403D01*
X0Y402D02*
X7Y402D01*
X1173Y402D02*
X1180Y402D01*
X0Y401D02*
X7Y401D01*
X1173Y401D02*
X1180Y401D01*
X0Y400D02*
X7Y400D01*
X1173Y400D02*
X1180Y400D01*
X0Y399D02*
X7Y399D01*
X1173Y399D02*
X1180Y399D01*
X0Y398D02*
X7Y398D01*
X1173Y398D02*
X1180Y398D01*
X0Y397D02*
X7Y397D01*
X1173Y397D02*
X1180Y397D01*
X0Y396D02*
X7Y396D01*
X1173Y396D02*
X1180Y396D01*
X0Y395D02*
X7Y395D01*
X1173Y395D02*
X1180Y395D01*
X0Y394D02*
X7Y394D01*
X1173Y394D02*
X1180Y394D01*
X0Y393D02*
X7Y393D01*
X36Y393D02*
X60Y393D01*
X1173Y393D02*
X1180Y393D01*
X0Y392D02*
X7Y392D01*
X34Y392D02*
X62Y392D01*
X1173Y392D02*
X1180Y392D01*
X0Y391D02*
X7Y391D01*
X33Y391D02*
X63Y391D01*
X1173Y391D02*
X1180Y391D01*
X0Y390D02*
X7Y390D01*
X33Y390D02*
X64Y390D01*
X1173Y390D02*
X1180Y390D01*
X0Y389D02*
X7Y389D01*
X32Y389D02*
X64Y389D01*
X1173Y389D02*
X1180Y389D01*
X0Y388D02*
X7Y388D01*
X32Y388D02*
X36Y388D01*
X61Y388D02*
X64Y388D01*
X916Y388D02*
X916Y388D01*
X1173Y388D02*
X1180Y388D01*
X0Y387D02*
X7Y387D01*
X32Y387D02*
X36Y387D01*
X61Y387D02*
X64Y387D01*
X915Y387D02*
X917Y387D01*
X1173Y387D02*
X1180Y387D01*
X0Y386D02*
X7Y386D01*
X32Y386D02*
X36Y386D01*
X61Y386D02*
X64Y386D01*
X914Y386D02*
X918Y386D01*
X1173Y386D02*
X1180Y386D01*
X0Y385D02*
X7Y385D01*
X32Y385D02*
X36Y385D01*
X61Y385D02*
X64Y385D01*
X913Y385D02*
X919Y385D01*
X1173Y385D02*
X1180Y385D01*
X0Y384D02*
X7Y384D01*
X32Y384D02*
X36Y384D01*
X61Y384D02*
X64Y384D01*
X912Y384D02*
X918Y384D01*
X1173Y384D02*
X1180Y384D01*
X0Y383D02*
X7Y383D01*
X32Y383D02*
X36Y383D01*
X61Y383D02*
X64Y383D01*
X911Y383D02*
X917Y383D01*
X1173Y383D02*
X1180Y383D01*
X0Y382D02*
X7Y382D01*
X32Y382D02*
X36Y382D01*
X61Y382D02*
X64Y382D01*
X910Y382D02*
X916Y382D01*
X1173Y382D02*
X1180Y382D01*
X0Y381D02*
X7Y381D01*
X32Y381D02*
X36Y381D01*
X61Y381D02*
X64Y381D01*
X909Y381D02*
X915Y381D01*
X1173Y381D02*
X1180Y381D01*
X0Y380D02*
X7Y380D01*
X32Y380D02*
X36Y380D01*
X61Y380D02*
X64Y380D01*
X1173Y380D02*
X1180Y380D01*
X0Y379D02*
X7Y379D01*
X32Y379D02*
X36Y379D01*
X61Y379D02*
X64Y379D01*
X1173Y379D02*
X1180Y379D01*
X0Y378D02*
X7Y378D01*
X32Y378D02*
X36Y378D01*
X61Y378D02*
X64Y378D01*
X1173Y378D02*
X1180Y378D01*
X0Y377D02*
X7Y377D01*
X32Y377D02*
X36Y377D01*
X61Y377D02*
X64Y377D01*
X1173Y377D02*
X1180Y377D01*
X0Y376D02*
X7Y376D01*
X33Y376D02*
X64Y376D01*
X1173Y376D02*
X1180Y376D01*
X0Y375D02*
X7Y375D01*
X33Y375D02*
X64Y375D01*
X1173Y375D02*
X1180Y375D01*
X0Y374D02*
X7Y374D01*
X33Y374D02*
X63Y374D01*
X1173Y374D02*
X1180Y374D01*
X0Y373D02*
X7Y373D01*
X35Y373D02*
X62Y373D01*
X1173Y373D02*
X1180Y373D01*
X0Y372D02*
X7Y372D01*
X1173Y372D02*
X1180Y372D01*
X0Y371D02*
X7Y371D01*
X1173Y371D02*
X1180Y371D01*
X0Y370D02*
X7Y370D01*
X1173Y370D02*
X1180Y370D01*
X0Y369D02*
X7Y369D01*
X1173Y369D02*
X1180Y369D01*
X0Y368D02*
X7Y368D01*
X1173Y368D02*
X1180Y368D01*
X0Y367D02*
X7Y367D01*
X1173Y367D02*
X1180Y367D01*
X0Y366D02*
X7Y366D01*
X1173Y366D02*
X1180Y366D01*
X0Y365D02*
X7Y365D01*
X1173Y365D02*
X1180Y365D01*
X0Y364D02*
X7Y364D01*
X1173Y364D02*
X1180Y364D01*
X0Y363D02*
X7Y363D01*
X1173Y363D02*
X1180Y363D01*
X0Y362D02*
X7Y362D01*
X1173Y362D02*
X1180Y362D01*
X0Y361D02*
X7Y361D01*
X889Y361D02*
X889Y361D01*
X1173Y361D02*
X1180Y361D01*
X0Y360D02*
X7Y360D01*
X888Y360D02*
X889Y360D01*
X1173Y360D02*
X1180Y360D01*
X0Y359D02*
X7Y359D01*
X887Y359D02*
X889Y359D01*
X1173Y359D02*
X1180Y359D01*
X0Y358D02*
X7Y358D01*
X886Y358D02*
X889Y358D01*
X1173Y358D02*
X1180Y358D01*
X0Y357D02*
X7Y357D01*
X885Y357D02*
X889Y357D01*
X1013Y357D02*
X1022Y357D01*
X1055Y357D02*
X1057Y357D01*
X1173Y357D02*
X1180Y357D01*
X0Y356D02*
X7Y356D01*
X884Y356D02*
X889Y356D01*
X1011Y356D02*
X1024Y356D01*
X1053Y356D02*
X1058Y356D01*
X1173Y356D02*
X1180Y356D01*
X0Y355D02*
X7Y355D01*
X883Y355D02*
X889Y355D01*
X1010Y355D02*
X1026Y355D01*
X1051Y355D02*
X1059Y355D01*
X1173Y355D02*
X1180Y355D01*
X0Y354D02*
X7Y354D01*
X882Y354D02*
X888Y354D01*
X1009Y354D02*
X1027Y354D01*
X1049Y354D02*
X1059Y354D01*
X1173Y354D02*
X1180Y354D01*
X0Y353D02*
X7Y353D01*
X882Y353D02*
X887Y353D01*
X1008Y353D02*
X1028Y353D01*
X1048Y353D02*
X1059Y353D01*
X1173Y353D02*
X1180Y353D01*
X0Y352D02*
X7Y352D01*
X883Y352D02*
X886Y352D01*
X1007Y352D02*
X1028Y352D01*
X1046Y352D02*
X1058Y352D01*
X1173Y352D02*
X1180Y352D01*
X0Y351D02*
X7Y351D01*
X884Y351D02*
X885Y351D01*
X1007Y351D02*
X1029Y351D01*
X1044Y351D02*
X1057Y351D01*
X1173Y351D02*
X1180Y351D01*
X0Y350D02*
X7Y350D01*
X1006Y350D02*
X1014Y350D01*
X1022Y350D02*
X1029Y350D01*
X1043Y350D02*
X1056Y350D01*
X1173Y350D02*
X1180Y350D01*
X0Y349D02*
X7Y349D01*
X1006Y349D02*
X1013Y349D01*
X1023Y349D02*
X1029Y349D01*
X1041Y349D02*
X1054Y349D01*
X1173Y349D02*
X1180Y349D01*
X0Y348D02*
X7Y348D01*
X265Y348D02*
X508Y348D01*
X577Y348D02*
X819Y348D01*
X1006Y348D02*
X1012Y348D01*
X1023Y348D02*
X1029Y348D01*
X1039Y348D02*
X1052Y348D01*
X1173Y348D02*
X1180Y348D01*
X0Y347D02*
X7Y347D01*
X265Y347D02*
X506Y347D01*
X579Y347D02*
X819Y347D01*
X1006Y347D02*
X1012Y347D01*
X1024Y347D02*
X1030Y347D01*
X1037Y347D02*
X1051Y347D01*
X1173Y347D02*
X1180Y347D01*
X0Y346D02*
X7Y346D01*
X264Y346D02*
X361Y346D01*
X371Y346D02*
X505Y346D01*
X581Y346D02*
X820Y346D01*
X1006Y346D02*
X1012Y346D01*
X1024Y346D02*
X1030Y346D01*
X1036Y346D02*
X1049Y346D01*
X1173Y346D02*
X1180Y346D01*
X0Y345D02*
X7Y345D01*
X265Y345D02*
X355Y345D01*
X376Y345D02*
X503Y345D01*
X582Y345D02*
X819Y345D01*
X1006Y345D02*
X1012Y345D01*
X1024Y345D02*
X1030Y345D01*
X1034Y345D02*
X1047Y345D01*
X1173Y345D02*
X1180Y345D01*
X0Y344D02*
X7Y344D01*
X266Y344D02*
X352Y344D01*
X380Y344D02*
X502Y344D01*
X583Y344D02*
X818Y344D01*
X1006Y344D02*
X1012Y344D01*
X1024Y344D02*
X1030Y344D01*
X1032Y344D02*
X1045Y344D01*
X1173Y344D02*
X1180Y344D01*
X0Y343D02*
X7Y343D01*
X1006Y343D02*
X1012Y343D01*
X1024Y343D02*
X1044Y343D01*
X1173Y343D02*
X1180Y343D01*
X0Y342D02*
X7Y342D01*
X1006Y342D02*
X1012Y342D01*
X1024Y342D02*
X1042Y342D01*
X1173Y342D02*
X1180Y342D01*
X0Y341D02*
X7Y341D01*
X1006Y341D02*
X1012Y341D01*
X1024Y341D02*
X1040Y341D01*
X1173Y341D02*
X1180Y341D01*
X0Y340D02*
X7Y340D01*
X1006Y340D02*
X1012Y340D01*
X1024Y340D02*
X1039Y340D01*
X1173Y340D02*
X1180Y340D01*
X0Y339D02*
X7Y339D01*
X1006Y339D02*
X1012Y339D01*
X1024Y339D02*
X1037Y339D01*
X1173Y339D02*
X1180Y339D01*
X0Y338D02*
X7Y338D01*
X1006Y338D02*
X1012Y338D01*
X1024Y338D02*
X1035Y338D01*
X1173Y338D02*
X1180Y338D01*
X0Y337D02*
X7Y337D01*
X1006Y337D02*
X1012Y337D01*
X1024Y337D02*
X1033Y337D01*
X1173Y337D02*
X1180Y337D01*
X0Y336D02*
X7Y336D01*
X1006Y336D02*
X1012Y336D01*
X1024Y336D02*
X1032Y336D01*
X1173Y336D02*
X1180Y336D01*
X0Y335D02*
X7Y335D01*
X1006Y335D02*
X1012Y335D01*
X1024Y335D02*
X1030Y335D01*
X1173Y335D02*
X1180Y335D01*
X0Y334D02*
X7Y334D01*
X1006Y334D02*
X1012Y334D01*
X1024Y334D02*
X1030Y334D01*
X1173Y334D02*
X1180Y334D01*
X0Y333D02*
X7Y333D01*
X1006Y333D02*
X1012Y333D01*
X1024Y333D02*
X1030Y333D01*
X1173Y333D02*
X1180Y333D01*
X0Y332D02*
X7Y332D01*
X1006Y332D02*
X1012Y332D01*
X1024Y332D02*
X1030Y332D01*
X1173Y332D02*
X1180Y332D01*
X0Y331D02*
X7Y331D01*
X1006Y331D02*
X1012Y331D01*
X1024Y331D02*
X1030Y331D01*
X1173Y331D02*
X1180Y331D01*
X0Y330D02*
X7Y330D01*
X1006Y330D02*
X1055Y330D01*
X1173Y330D02*
X1180Y330D01*
X0Y329D02*
X7Y329D01*
X1006Y329D02*
X1058Y329D01*
X1173Y329D02*
X1180Y329D01*
X0Y328D02*
X7Y328D01*
X1006Y328D02*
X1059Y328D01*
X1173Y328D02*
X1180Y328D01*
X0Y327D02*
X7Y327D01*
X1006Y327D02*
X1059Y327D01*
X1173Y327D02*
X1180Y327D01*
X0Y326D02*
X7Y326D01*
X1006Y326D02*
X1059Y326D01*
X1173Y326D02*
X1180Y326D01*
X0Y325D02*
X7Y325D01*
X1006Y325D02*
X1059Y325D01*
X1173Y325D02*
X1180Y325D01*
X0Y324D02*
X7Y324D01*
X1006Y324D02*
X1058Y324D01*
X1173Y324D02*
X1180Y324D01*
X0Y323D02*
X7Y323D01*
X1006Y323D02*
X1055Y323D01*
X1173Y323D02*
X1180Y323D01*
X0Y322D02*
X7Y322D01*
X1173Y322D02*
X1180Y322D01*
X0Y321D02*
X7Y321D01*
X1173Y321D02*
X1180Y321D01*
X0Y320D02*
X7Y320D01*
X1173Y320D02*
X1180Y320D01*
X0Y319D02*
X7Y319D01*
X1173Y319D02*
X1180Y319D01*
X0Y318D02*
X7Y318D01*
X1173Y318D02*
X1180Y318D01*
X0Y317D02*
X7Y317D01*
X1173Y317D02*
X1180Y317D01*
X0Y316D02*
X7Y316D01*
X1173Y316D02*
X1180Y316D01*
X0Y315D02*
X7Y315D01*
X1173Y315D02*
X1180Y315D01*
X0Y314D02*
X7Y314D01*
X1173Y314D02*
X1180Y314D01*
X0Y313D02*
X7Y313D01*
X1173Y313D02*
X1180Y313D01*
X0Y312D02*
X7Y312D01*
X1173Y312D02*
X1180Y312D01*
X0Y311D02*
X7Y311D01*
X1173Y311D02*
X1180Y311D01*
X0Y310D02*
X7Y310D01*
X1173Y310D02*
X1180Y310D01*
X0Y309D02*
X7Y309D01*
X1173Y309D02*
X1180Y309D01*
X0Y308D02*
X7Y308D01*
X1173Y308D02*
X1180Y308D01*
X0Y307D02*
X7Y307D01*
X1008Y307D02*
X1010Y307D01*
X1055Y307D02*
X1057Y307D01*
X1173Y307D02*
X1180Y307D01*
X0Y306D02*
X7Y306D01*
X1007Y306D02*
X1011Y306D01*
X1054Y306D02*
X1058Y306D01*
X1173Y306D02*
X1180Y306D01*
X0Y305D02*
X7Y305D01*
X1006Y305D02*
X1012Y305D01*
X1053Y305D02*
X1059Y305D01*
X1173Y305D02*
X1180Y305D01*
X0Y304D02*
X7Y304D01*
X688Y304D02*
X712Y304D01*
X739Y304D02*
X746Y304D01*
X769Y304D02*
X769Y304D01*
X789Y304D02*
X813Y304D01*
X1006Y304D02*
X1012Y304D01*
X1053Y304D02*
X1059Y304D01*
X1173Y304D02*
X1180Y304D01*
X0Y303D02*
X7Y303D01*
X688Y303D02*
X716Y303D01*
X738Y303D02*
X747Y303D01*
X767Y303D02*
X771Y303D01*
X788Y303D02*
X816Y303D01*
X1006Y303D02*
X1012Y303D01*
X1053Y303D02*
X1059Y303D01*
X1173Y303D02*
X1180Y303D01*
X0Y302D02*
X7Y302D01*
X688Y302D02*
X717Y302D01*
X738Y302D02*
X747Y302D01*
X766Y302D02*
X771Y302D01*
X788Y302D02*
X818Y302D01*
X1006Y302D02*
X1012Y302D01*
X1053Y302D02*
X1059Y302D01*
X1173Y302D02*
X1180Y302D01*
X0Y301D02*
X7Y301D01*
X688Y301D02*
X718Y301D01*
X738Y301D02*
X748Y301D01*
X766Y301D02*
X772Y301D01*
X788Y301D02*
X819Y301D01*
X1006Y301D02*
X1012Y301D01*
X1053Y301D02*
X1059Y301D01*
X1173Y301D02*
X1180Y301D01*
X0Y300D02*
X7Y300D01*
X688Y300D02*
X719Y300D01*
X738Y300D02*
X748Y300D01*
X766Y300D02*
X772Y300D01*
X788Y300D02*
X820Y300D01*
X1006Y300D02*
X1012Y300D01*
X1053Y300D02*
X1059Y300D01*
X1173Y300D02*
X1180Y300D01*
X0Y299D02*
X7Y299D01*
X688Y299D02*
X720Y299D01*
X738Y299D02*
X749Y299D01*
X766Y299D02*
X772Y299D01*
X788Y299D02*
X820Y299D01*
X1006Y299D02*
X1012Y299D01*
X1053Y299D02*
X1059Y299D01*
X1173Y299D02*
X1180Y299D01*
X0Y298D02*
X7Y298D01*
X688Y298D02*
X721Y298D01*
X738Y298D02*
X749Y298D01*
X766Y298D02*
X772Y298D01*
X788Y298D02*
X821Y298D01*
X1006Y298D02*
X1012Y298D01*
X1053Y298D02*
X1059Y298D01*
X1173Y298D02*
X1180Y298D01*
X0Y297D02*
X7Y297D01*
X688Y297D02*
X694Y297D01*
X712Y297D02*
X721Y297D01*
X738Y297D02*
X750Y297D01*
X766Y297D02*
X772Y297D01*
X788Y297D02*
X795Y297D01*
X813Y297D02*
X821Y297D01*
X1006Y297D02*
X1012Y297D01*
X1053Y297D02*
X1059Y297D01*
X1173Y297D02*
X1180Y297D01*
X0Y296D02*
X7Y296D01*
X688Y296D02*
X694Y296D01*
X714Y296D02*
X721Y296D01*
X738Y296D02*
X750Y296D01*
X766Y296D02*
X772Y296D01*
X788Y296D02*
X794Y296D01*
X815Y296D02*
X822Y296D01*
X1006Y296D02*
X1012Y296D01*
X1053Y296D02*
X1059Y296D01*
X1173Y296D02*
X1180Y296D01*
X0Y295D02*
X7Y295D01*
X688Y295D02*
X694Y295D01*
X715Y295D02*
X721Y295D01*
X738Y295D02*
X750Y295D01*
X766Y295D02*
X772Y295D01*
X788Y295D02*
X794Y295D01*
X816Y295D02*
X822Y295D01*
X1006Y295D02*
X1012Y295D01*
X1053Y295D02*
X1059Y295D01*
X1173Y295D02*
X1180Y295D01*
X0Y294D02*
X7Y294D01*
X688Y294D02*
X694Y294D01*
X715Y294D02*
X722Y294D01*
X738Y294D02*
X751Y294D01*
X766Y294D02*
X772Y294D01*
X788Y294D02*
X794Y294D01*
X816Y294D02*
X822Y294D01*
X1006Y294D02*
X1012Y294D01*
X1053Y294D02*
X1059Y294D01*
X1173Y294D02*
X1180Y294D01*
X0Y293D02*
X7Y293D01*
X688Y293D02*
X694Y293D01*
X716Y293D02*
X722Y293D01*
X738Y293D02*
X751Y293D01*
X766Y293D02*
X772Y293D01*
X788Y293D02*
X794Y293D01*
X816Y293D02*
X822Y293D01*
X1006Y293D02*
X1012Y293D01*
X1031Y293D02*
X1034Y293D01*
X1053Y293D02*
X1059Y293D01*
X1173Y293D02*
X1180Y293D01*
X0Y292D02*
X7Y292D01*
X688Y292D02*
X694Y292D01*
X716Y292D02*
X722Y292D01*
X738Y292D02*
X752Y292D01*
X766Y292D02*
X772Y292D01*
X788Y292D02*
X794Y292D01*
X816Y292D02*
X822Y292D01*
X1006Y292D02*
X1012Y292D01*
X1030Y292D02*
X1035Y292D01*
X1053Y292D02*
X1059Y292D01*
X1173Y292D02*
X1180Y292D01*
X0Y291D02*
X7Y291D01*
X688Y291D02*
X694Y291D01*
X716Y291D02*
X722Y291D01*
X738Y291D02*
X752Y291D01*
X766Y291D02*
X772Y291D01*
X788Y291D02*
X794Y291D01*
X816Y291D02*
X822Y291D01*
X1006Y291D02*
X1012Y291D01*
X1030Y291D02*
X1035Y291D01*
X1053Y291D02*
X1059Y291D01*
X1173Y291D02*
X1180Y291D01*
X0Y290D02*
X7Y290D01*
X688Y290D02*
X694Y290D01*
X716Y290D02*
X722Y290D01*
X738Y290D02*
X744Y290D01*
X746Y290D02*
X753Y290D01*
X766Y290D02*
X772Y290D01*
X788Y290D02*
X794Y290D01*
X816Y290D02*
X822Y290D01*
X1006Y290D02*
X1012Y290D01*
X1029Y290D02*
X1035Y290D01*
X1053Y290D02*
X1059Y290D01*
X1173Y290D02*
X1180Y290D01*
X0Y289D02*
X7Y289D01*
X688Y289D02*
X694Y289D01*
X716Y289D02*
X722Y289D01*
X738Y289D02*
X744Y289D01*
X746Y289D02*
X753Y289D01*
X766Y289D02*
X772Y289D01*
X788Y289D02*
X794Y289D01*
X816Y289D02*
X822Y289D01*
X1006Y289D02*
X1012Y289D01*
X1029Y289D02*
X1035Y289D01*
X1053Y289D02*
X1059Y289D01*
X1173Y289D02*
X1180Y289D01*
X0Y288D02*
X7Y288D01*
X688Y288D02*
X694Y288D01*
X716Y288D02*
X722Y288D01*
X738Y288D02*
X744Y288D01*
X747Y288D02*
X753Y288D01*
X766Y288D02*
X772Y288D01*
X788Y288D02*
X794Y288D01*
X816Y288D02*
X822Y288D01*
X1006Y288D02*
X1012Y288D01*
X1029Y288D02*
X1035Y288D01*
X1053Y288D02*
X1059Y288D01*
X1173Y288D02*
X1180Y288D01*
X0Y287D02*
X7Y287D01*
X688Y287D02*
X694Y287D01*
X716Y287D02*
X722Y287D01*
X738Y287D02*
X744Y287D01*
X747Y287D02*
X754Y287D01*
X766Y287D02*
X772Y287D01*
X788Y287D02*
X794Y287D01*
X816Y287D02*
X822Y287D01*
X1006Y287D02*
X1012Y287D01*
X1029Y287D02*
X1035Y287D01*
X1053Y287D02*
X1059Y287D01*
X1173Y287D02*
X1180Y287D01*
X0Y286D02*
X7Y286D01*
X688Y286D02*
X694Y286D01*
X716Y286D02*
X722Y286D01*
X738Y286D02*
X744Y286D01*
X748Y286D02*
X754Y286D01*
X766Y286D02*
X772Y286D01*
X788Y286D02*
X794Y286D01*
X816Y286D02*
X822Y286D01*
X1006Y286D02*
X1012Y286D01*
X1029Y286D02*
X1035Y286D01*
X1053Y286D02*
X1059Y286D01*
X1173Y286D02*
X1180Y286D01*
X0Y285D02*
X7Y285D01*
X688Y285D02*
X694Y285D01*
X716Y285D02*
X722Y285D01*
X738Y285D02*
X744Y285D01*
X748Y285D02*
X755Y285D01*
X766Y285D02*
X772Y285D01*
X788Y285D02*
X794Y285D01*
X816Y285D02*
X822Y285D01*
X1006Y285D02*
X1012Y285D01*
X1029Y285D02*
X1035Y285D01*
X1053Y285D02*
X1059Y285D01*
X1173Y285D02*
X1180Y285D01*
X0Y284D02*
X7Y284D01*
X688Y284D02*
X694Y284D01*
X716Y284D02*
X722Y284D01*
X738Y284D02*
X744Y284D01*
X749Y284D02*
X755Y284D01*
X766Y284D02*
X772Y284D01*
X788Y284D02*
X794Y284D01*
X816Y284D02*
X822Y284D01*
X1006Y284D02*
X1012Y284D01*
X1029Y284D02*
X1035Y284D01*
X1053Y284D02*
X1059Y284D01*
X1173Y284D02*
X1180Y284D01*
X0Y283D02*
X7Y283D01*
X688Y283D02*
X694Y283D01*
X716Y283D02*
X722Y283D01*
X738Y283D02*
X744Y283D01*
X749Y283D02*
X756Y283D01*
X766Y283D02*
X772Y283D01*
X788Y283D02*
X794Y283D01*
X816Y283D02*
X822Y283D01*
X1006Y283D02*
X1012Y283D01*
X1029Y283D02*
X1035Y283D01*
X1053Y283D02*
X1059Y283D01*
X1173Y283D02*
X1180Y283D01*
X0Y282D02*
X7Y282D01*
X688Y282D02*
X694Y282D01*
X716Y282D02*
X722Y282D01*
X738Y282D02*
X744Y282D01*
X749Y282D02*
X756Y282D01*
X766Y282D02*
X772Y282D01*
X788Y282D02*
X794Y282D01*
X816Y282D02*
X822Y282D01*
X1006Y282D02*
X1012Y282D01*
X1029Y282D02*
X1035Y282D01*
X1053Y282D02*
X1059Y282D01*
X1173Y282D02*
X1180Y282D01*
X0Y281D02*
X7Y281D01*
X688Y281D02*
X694Y281D01*
X716Y281D02*
X722Y281D01*
X738Y281D02*
X744Y281D01*
X750Y281D02*
X757Y281D01*
X766Y281D02*
X772Y281D01*
X788Y281D02*
X794Y281D01*
X816Y281D02*
X822Y281D01*
X1006Y281D02*
X1012Y281D01*
X1029Y281D02*
X1035Y281D01*
X1053Y281D02*
X1059Y281D01*
X1173Y281D02*
X1180Y281D01*
X0Y280D02*
X7Y280D01*
X688Y280D02*
X694Y280D01*
X715Y280D02*
X721Y280D01*
X738Y280D02*
X744Y280D01*
X750Y280D02*
X757Y280D01*
X766Y280D02*
X772Y280D01*
X788Y280D02*
X794Y280D01*
X816Y280D02*
X822Y280D01*
X1006Y280D02*
X1012Y280D01*
X1029Y280D02*
X1036Y280D01*
X1053Y280D02*
X1059Y280D01*
X1173Y280D02*
X1180Y280D01*
X0Y279D02*
X7Y279D01*
X688Y279D02*
X694Y279D01*
X715Y279D02*
X721Y279D01*
X738Y279D02*
X744Y279D01*
X751Y279D02*
X757Y279D01*
X766Y279D02*
X772Y279D01*
X788Y279D02*
X794Y279D01*
X815Y279D02*
X822Y279D01*
X1006Y279D02*
X1059Y279D01*
X1173Y279D02*
X1180Y279D01*
X0Y278D02*
X7Y278D01*
X688Y278D02*
X694Y278D01*
X714Y278D02*
X721Y278D01*
X738Y278D02*
X744Y278D01*
X751Y278D02*
X758Y278D01*
X766Y278D02*
X772Y278D01*
X788Y278D02*
X794Y278D01*
X814Y278D02*
X821Y278D01*
X1006Y278D02*
X1059Y278D01*
X1173Y278D02*
X1180Y278D01*
X0Y277D02*
X7Y277D01*
X688Y277D02*
X721Y277D01*
X738Y277D02*
X744Y277D01*
X752Y277D02*
X758Y277D01*
X766Y277D02*
X772Y277D01*
X788Y277D02*
X821Y277D01*
X1006Y277D02*
X1059Y277D01*
X1173Y277D02*
X1180Y277D01*
X0Y276D02*
X7Y276D01*
X688Y276D02*
X720Y276D01*
X738Y276D02*
X744Y276D01*
X752Y276D02*
X759Y276D01*
X766Y276D02*
X772Y276D01*
X788Y276D02*
X821Y276D01*
X1006Y276D02*
X1059Y276D01*
X1173Y276D02*
X1180Y276D01*
X0Y275D02*
X7Y275D01*
X688Y275D02*
X720Y275D01*
X738Y275D02*
X744Y275D01*
X752Y275D02*
X759Y275D01*
X766Y275D02*
X772Y275D01*
X788Y275D02*
X820Y275D01*
X1006Y275D02*
X1059Y275D01*
X1173Y275D02*
X1180Y275D01*
X0Y274D02*
X7Y274D01*
X688Y274D02*
X719Y274D01*
X738Y274D02*
X744Y274D01*
X753Y274D02*
X760Y274D01*
X766Y274D02*
X772Y274D01*
X788Y274D02*
X819Y274D01*
X1006Y274D02*
X1059Y274D01*
X1173Y274D02*
X1180Y274D01*
X0Y273D02*
X7Y273D01*
X688Y273D02*
X718Y273D01*
X738Y273D02*
X744Y273D01*
X753Y273D02*
X760Y273D01*
X766Y273D02*
X772Y273D01*
X788Y273D02*
X818Y273D01*
X1006Y273D02*
X1059Y273D01*
X1173Y273D02*
X1180Y273D01*
X0Y272D02*
X7Y272D01*
X688Y272D02*
X716Y272D01*
X738Y272D02*
X744Y272D01*
X754Y272D02*
X760Y272D01*
X766Y272D02*
X772Y272D01*
X788Y272D02*
X817Y272D01*
X1173Y272D02*
X1180Y272D01*
X0Y271D02*
X7Y271D01*
X688Y271D02*
X714Y271D01*
X738Y271D02*
X744Y271D01*
X754Y271D02*
X761Y271D01*
X766Y271D02*
X772Y271D01*
X788Y271D02*
X814Y271D01*
X1173Y271D02*
X1180Y271D01*
X0Y270D02*
X7Y270D01*
X688Y270D02*
X694Y270D01*
X738Y270D02*
X744Y270D01*
X755Y270D02*
X761Y270D01*
X766Y270D02*
X772Y270D01*
X788Y270D02*
X794Y270D01*
X1173Y270D02*
X1180Y270D01*
X0Y269D02*
X7Y269D01*
X688Y269D02*
X694Y269D01*
X738Y269D02*
X744Y269D01*
X755Y269D02*
X762Y269D01*
X766Y269D02*
X772Y269D01*
X788Y269D02*
X794Y269D01*
X1173Y269D02*
X1180Y269D01*
X0Y268D02*
X7Y268D01*
X688Y268D02*
X694Y268D01*
X738Y268D02*
X744Y268D01*
X756Y268D02*
X762Y268D01*
X766Y268D02*
X772Y268D01*
X788Y268D02*
X794Y268D01*
X1173Y268D02*
X1180Y268D01*
X0Y267D02*
X7Y267D01*
X688Y267D02*
X694Y267D01*
X738Y267D02*
X744Y267D01*
X756Y267D02*
X763Y267D01*
X766Y267D02*
X772Y267D01*
X788Y267D02*
X794Y267D01*
X1173Y267D02*
X1180Y267D01*
X0Y266D02*
X7Y266D01*
X688Y266D02*
X694Y266D01*
X738Y266D02*
X744Y266D01*
X756Y266D02*
X763Y266D01*
X766Y266D02*
X772Y266D01*
X788Y266D02*
X794Y266D01*
X1173Y266D02*
X1180Y266D01*
X0Y265D02*
X7Y265D01*
X688Y265D02*
X694Y265D01*
X738Y265D02*
X744Y265D01*
X757Y265D02*
X764Y265D01*
X766Y265D02*
X772Y265D01*
X788Y265D02*
X794Y265D01*
X1173Y265D02*
X1180Y265D01*
X0Y264D02*
X7Y264D01*
X688Y264D02*
X694Y264D01*
X738Y264D02*
X744Y264D01*
X757Y264D02*
X764Y264D01*
X766Y264D02*
X772Y264D01*
X788Y264D02*
X794Y264D01*
X1173Y264D02*
X1180Y264D01*
X0Y263D02*
X7Y263D01*
X688Y263D02*
X694Y263D01*
X738Y263D02*
X744Y263D01*
X758Y263D02*
X772Y263D01*
X788Y263D02*
X794Y263D01*
X1173Y263D02*
X1180Y263D01*
X0Y262D02*
X7Y262D01*
X688Y262D02*
X694Y262D01*
X738Y262D02*
X744Y262D01*
X758Y262D02*
X772Y262D01*
X788Y262D02*
X794Y262D01*
X1173Y262D02*
X1180Y262D01*
X0Y261D02*
X7Y261D01*
X688Y261D02*
X694Y261D01*
X738Y261D02*
X744Y261D01*
X759Y261D02*
X772Y261D01*
X788Y261D02*
X794Y261D01*
X1173Y261D02*
X1180Y261D01*
X0Y260D02*
X7Y260D01*
X688Y260D02*
X694Y260D01*
X738Y260D02*
X744Y260D01*
X759Y260D02*
X772Y260D01*
X788Y260D02*
X794Y260D01*
X1173Y260D02*
X1180Y260D01*
X0Y259D02*
X7Y259D01*
X688Y259D02*
X694Y259D01*
X738Y259D02*
X744Y259D01*
X759Y259D02*
X772Y259D01*
X788Y259D02*
X794Y259D01*
X1173Y259D02*
X1180Y259D01*
X0Y258D02*
X7Y258D01*
X688Y258D02*
X694Y258D01*
X738Y258D02*
X744Y258D01*
X760Y258D02*
X772Y258D01*
X788Y258D02*
X794Y258D01*
X1173Y258D02*
X1180Y258D01*
X0Y257D02*
X7Y257D01*
X688Y257D02*
X694Y257D01*
X738Y257D02*
X744Y257D01*
X760Y257D02*
X772Y257D01*
X788Y257D02*
X794Y257D01*
X1008Y257D02*
X1051Y257D01*
X1173Y257D02*
X1180Y257D01*
X0Y256D02*
X7Y256D01*
X688Y256D02*
X694Y256D01*
X738Y256D02*
X744Y256D01*
X761Y256D02*
X772Y256D01*
X788Y256D02*
X794Y256D01*
X1007Y256D02*
X1053Y256D01*
X1173Y256D02*
X1180Y256D01*
X0Y255D02*
X7Y255D01*
X688Y255D02*
X694Y255D01*
X738Y255D02*
X744Y255D01*
X761Y255D02*
X772Y255D01*
X788Y255D02*
X794Y255D01*
X1006Y255D02*
X1054Y255D01*
X1173Y255D02*
X1180Y255D01*
X0Y254D02*
X7Y254D01*
X688Y254D02*
X694Y254D01*
X738Y254D02*
X744Y254D01*
X762Y254D02*
X772Y254D01*
X788Y254D02*
X794Y254D01*
X1006Y254D02*
X1056Y254D01*
X1173Y254D02*
X1180Y254D01*
X0Y253D02*
X7Y253D01*
X688Y253D02*
X694Y253D01*
X738Y253D02*
X744Y253D01*
X762Y253D02*
X772Y253D01*
X788Y253D02*
X794Y253D01*
X1006Y253D02*
X1057Y253D01*
X1173Y253D02*
X1180Y253D01*
X0Y252D02*
X7Y252D01*
X688Y252D02*
X694Y252D01*
X739Y252D02*
X744Y252D01*
X763Y252D02*
X772Y252D01*
X789Y252D02*
X794Y252D01*
X1006Y252D02*
X1058Y252D01*
X1173Y252D02*
X1180Y252D01*
X0Y251D02*
X7Y251D01*
X689Y251D02*
X693Y251D01*
X739Y251D02*
X743Y251D01*
X763Y251D02*
X772Y251D01*
X789Y251D02*
X793Y251D01*
X1007Y251D02*
X1059Y251D01*
X1173Y251D02*
X1180Y251D01*
X0Y250D02*
X7Y250D01*
X691Y250D02*
X691Y250D01*
X741Y250D02*
X741Y250D01*
X764Y250D02*
X771Y250D01*
X1050Y250D02*
X1059Y250D01*
X1173Y250D02*
X1180Y250D01*
X0Y249D02*
X7Y249D01*
X1052Y249D02*
X1059Y249D01*
X1173Y249D02*
X1180Y249D01*
X0Y248D02*
X7Y248D01*
X1053Y248D02*
X1059Y248D01*
X1173Y248D02*
X1180Y248D01*
X0Y247D02*
X7Y247D01*
X1053Y247D02*
X1059Y247D01*
X1173Y247D02*
X1180Y247D01*
X0Y246D02*
X7Y246D01*
X1053Y246D02*
X1059Y246D01*
X1173Y246D02*
X1180Y246D01*
X0Y245D02*
X7Y245D01*
X1052Y245D02*
X1059Y245D01*
X1173Y245D02*
X1180Y245D01*
X0Y244D02*
X7Y244D01*
X1051Y244D02*
X1059Y244D01*
X1173Y244D02*
X1180Y244D01*
X0Y243D02*
X7Y243D01*
X1026Y243D02*
X1059Y243D01*
X1173Y243D02*
X1180Y243D01*
X0Y242D02*
X7Y242D01*
X1024Y242D02*
X1059Y242D01*
X1173Y242D02*
X1180Y242D01*
X0Y241D02*
X7Y241D01*
X1024Y241D02*
X1058Y241D01*
X1173Y241D02*
X1180Y241D01*
X0Y240D02*
X7Y240D01*
X1024Y240D02*
X1057Y240D01*
X1173Y240D02*
X1180Y240D01*
X0Y239D02*
X7Y239D01*
X1024Y239D02*
X1058Y239D01*
X1173Y239D02*
X1180Y239D01*
X0Y238D02*
X7Y238D01*
X1024Y238D02*
X1059Y238D01*
X1173Y238D02*
X1180Y238D01*
X0Y237D02*
X7Y237D01*
X1025Y237D02*
X1059Y237D01*
X1173Y237D02*
X1180Y237D01*
X0Y236D02*
X7Y236D01*
X1050Y236D02*
X1059Y236D01*
X1173Y236D02*
X1180Y236D01*
X0Y235D02*
X7Y235D01*
X1052Y235D02*
X1059Y235D01*
X1173Y235D02*
X1180Y235D01*
X0Y234D02*
X7Y234D01*
X413Y234D02*
X503Y234D01*
X582Y234D02*
X671Y234D01*
X1053Y234D02*
X1059Y234D01*
X1173Y234D02*
X1180Y234D01*
X0Y233D02*
X7Y233D01*
X411Y233D02*
X504Y233D01*
X581Y233D02*
X673Y233D01*
X1053Y233D02*
X1059Y233D01*
X1173Y233D02*
X1180Y233D01*
X0Y232D02*
X7Y232D01*
X410Y232D02*
X506Y232D01*
X579Y232D02*
X674Y232D01*
X1053Y232D02*
X1059Y232D01*
X1173Y232D02*
X1180Y232D01*
X0Y231D02*
X7Y231D01*
X410Y231D02*
X508Y231D01*
X578Y231D02*
X674Y231D01*
X1052Y231D02*
X1059Y231D01*
X1173Y231D02*
X1180Y231D01*
X0Y230D02*
X7Y230D01*
X411Y230D02*
X509Y230D01*
X576Y230D02*
X673Y230D01*
X1050Y230D02*
X1059Y230D01*
X1173Y230D02*
X1180Y230D01*
X0Y229D02*
X7Y229D01*
X1008Y229D02*
X1059Y229D01*
X1173Y229D02*
X1180Y229D01*
X0Y228D02*
X7Y228D01*
X1007Y228D02*
X1059Y228D01*
X1173Y228D02*
X1180Y228D01*
X0Y227D02*
X7Y227D01*
X1006Y227D02*
X1058Y227D01*
X1173Y227D02*
X1180Y227D01*
X0Y226D02*
X7Y226D01*
X1006Y226D02*
X1056Y226D01*
X1173Y226D02*
X1180Y226D01*
X0Y225D02*
X7Y225D01*
X1006Y225D02*
X1055Y225D01*
X1173Y225D02*
X1180Y225D01*
X0Y224D02*
X7Y224D01*
X1007Y224D02*
X1053Y224D01*
X1173Y224D02*
X1180Y224D01*
X0Y223D02*
X7Y223D01*
X1008Y223D02*
X1051Y223D01*
X1173Y223D02*
X1180Y223D01*
X0Y222D02*
X7Y222D01*
X1173Y222D02*
X1180Y222D01*
X0Y221D02*
X7Y221D01*
X1173Y221D02*
X1180Y221D01*
X0Y220D02*
X7Y220D01*
X1173Y220D02*
X1180Y220D01*
X0Y219D02*
X7Y219D01*
X1173Y219D02*
X1180Y219D01*
X0Y218D02*
X7Y218D01*
X1173Y218D02*
X1180Y218D01*
X0Y217D02*
X7Y217D01*
X1173Y217D02*
X1180Y217D01*
X0Y216D02*
X7Y216D01*
X1173Y216D02*
X1180Y216D01*
X0Y215D02*
X7Y215D01*
X1173Y215D02*
X1180Y215D01*
X0Y214D02*
X7Y214D01*
X1173Y214D02*
X1180Y214D01*
X0Y213D02*
X7Y213D01*
X1173Y213D02*
X1180Y213D01*
X0Y212D02*
X7Y212D01*
X1173Y212D02*
X1180Y212D01*
X0Y211D02*
X7Y211D01*
X1173Y211D02*
X1180Y211D01*
X0Y210D02*
X7Y210D01*
X1173Y210D02*
X1180Y210D01*
X0Y209D02*
X7Y209D01*
X1173Y209D02*
X1180Y209D01*
X0Y208D02*
X7Y208D01*
X1173Y208D02*
X1180Y208D01*
X0Y207D02*
X7Y207D01*
X1173Y207D02*
X1180Y207D01*
X0Y206D02*
X7Y206D01*
X1028Y206D02*
X1037Y206D01*
X1173Y206D02*
X1180Y206D01*
X0Y205D02*
X7Y205D01*
X1025Y205D02*
X1040Y205D01*
X1173Y205D02*
X1180Y205D01*
X0Y204D02*
X7Y204D01*
X1023Y204D02*
X1042Y204D01*
X1173Y204D02*
X1180Y204D01*
X0Y203D02*
X7Y203D01*
X1021Y203D02*
X1044Y203D01*
X1173Y203D02*
X1180Y203D01*
X0Y202D02*
X7Y202D01*
X1019Y202D02*
X1046Y202D01*
X1173Y202D02*
X1180Y202D01*
X0Y201D02*
X7Y201D01*
X1017Y201D02*
X1048Y201D01*
X1173Y201D02*
X1180Y201D01*
X0Y200D02*
X7Y200D01*
X1015Y200D02*
X1050Y200D01*
X1173Y200D02*
X1180Y200D01*
X0Y199D02*
X7Y199D01*
X1013Y199D02*
X1028Y199D01*
X1037Y199D02*
X1052Y199D01*
X1173Y199D02*
X1180Y199D01*
X0Y198D02*
X7Y198D01*
X1011Y198D02*
X1026Y198D01*
X1039Y198D02*
X1054Y198D01*
X1173Y198D02*
X1180Y198D01*
X0Y197D02*
X7Y197D01*
X1010Y197D02*
X1024Y197D01*
X1041Y197D02*
X1055Y197D01*
X1173Y197D02*
X1180Y197D01*
X0Y196D02*
X7Y196D01*
X1009Y196D02*
X1022Y196D01*
X1043Y196D02*
X1056Y196D01*
X1173Y196D02*
X1180Y196D01*
X0Y195D02*
X7Y195D01*
X1008Y195D02*
X1020Y195D01*
X1045Y195D02*
X1057Y195D01*
X1173Y195D02*
X1180Y195D01*
X0Y194D02*
X7Y194D01*
X1007Y194D02*
X1018Y194D01*
X1047Y194D02*
X1058Y194D01*
X1173Y194D02*
X1180Y194D01*
X0Y193D02*
X7Y193D01*
X1007Y193D02*
X1016Y193D01*
X1049Y193D02*
X1058Y193D01*
X1173Y193D02*
X1180Y193D01*
X0Y192D02*
X7Y192D01*
X1006Y192D02*
X1014Y192D01*
X1051Y192D02*
X1059Y192D01*
X1173Y192D02*
X1180Y192D01*
X0Y191D02*
X7Y191D01*
X1006Y191D02*
X1013Y191D01*
X1052Y191D02*
X1059Y191D01*
X1173Y191D02*
X1180Y191D01*
X0Y190D02*
X7Y190D01*
X1006Y190D02*
X1012Y190D01*
X1053Y190D02*
X1059Y190D01*
X1173Y190D02*
X1180Y190D01*
X0Y189D02*
X7Y189D01*
X1006Y189D02*
X1012Y189D01*
X1053Y189D02*
X1059Y189D01*
X1173Y189D02*
X1180Y189D01*
X0Y188D02*
X7Y188D01*
X1006Y188D02*
X1013Y188D01*
X1052Y188D02*
X1059Y188D01*
X1173Y188D02*
X1180Y188D01*
X0Y187D02*
X7Y187D01*
X1006Y187D02*
X1015Y187D01*
X1050Y187D02*
X1059Y187D01*
X1173Y187D02*
X1180Y187D01*
X0Y186D02*
X7Y186D01*
X1007Y186D02*
X1017Y186D01*
X1048Y186D02*
X1058Y186D01*
X1173Y186D02*
X1180Y186D01*
X0Y185D02*
X7Y185D01*
X1007Y185D02*
X1019Y185D01*
X1046Y185D02*
X1058Y185D01*
X1173Y185D02*
X1180Y185D01*
X0Y184D02*
X7Y184D01*
X1008Y184D02*
X1021Y184D01*
X1044Y184D02*
X1057Y184D01*
X1173Y184D02*
X1180Y184D01*
X0Y183D02*
X7Y183D01*
X1009Y183D02*
X1023Y183D01*
X1042Y183D02*
X1056Y183D01*
X1173Y183D02*
X1180Y183D01*
X0Y182D02*
X7Y182D01*
X1010Y182D02*
X1025Y182D01*
X1040Y182D02*
X1055Y182D01*
X1173Y182D02*
X1180Y182D01*
X0Y181D02*
X7Y181D01*
X1012Y181D02*
X1027Y181D01*
X1038Y181D02*
X1053Y181D01*
X1173Y181D02*
X1180Y181D01*
X0Y180D02*
X7Y180D01*
X1014Y180D02*
X1029Y180D01*
X1036Y180D02*
X1051Y180D01*
X1173Y180D02*
X1180Y180D01*
X0Y179D02*
X7Y179D01*
X1016Y179D02*
X1049Y179D01*
X1173Y179D02*
X1180Y179D01*
X0Y178D02*
X7Y178D01*
X1018Y178D02*
X1047Y178D01*
X1173Y178D02*
X1180Y178D01*
X0Y177D02*
X7Y177D01*
X1020Y177D02*
X1045Y177D01*
X1173Y177D02*
X1180Y177D01*
X0Y176D02*
X7Y176D01*
X1022Y176D02*
X1043Y176D01*
X1173Y176D02*
X1180Y176D01*
X0Y175D02*
X7Y175D01*
X1024Y175D02*
X1041Y175D01*
X1173Y175D02*
X1180Y175D01*
X0Y174D02*
X7Y174D01*
X1026Y174D02*
X1039Y174D01*
X1173Y174D02*
X1180Y174D01*
X0Y173D02*
X7Y173D01*
X1029Y173D02*
X1036Y173D01*
X1173Y173D02*
X1180Y173D01*
X0Y172D02*
X7Y172D01*
X1173Y172D02*
X1180Y172D01*
X0Y171D02*
X7Y171D01*
X1173Y171D02*
X1180Y171D01*
X0Y170D02*
X7Y170D01*
X1173Y170D02*
X1180Y170D01*
X0Y169D02*
X7Y169D01*
X1173Y169D02*
X1180Y169D01*
X0Y168D02*
X7Y168D01*
X1173Y168D02*
X1180Y168D01*
X0Y167D02*
X7Y167D01*
X1173Y167D02*
X1180Y167D01*
X0Y166D02*
X7Y166D01*
X1173Y166D02*
X1180Y166D01*
X0Y165D02*
X7Y165D01*
X1173Y165D02*
X1180Y165D01*
X0Y164D02*
X7Y164D01*
X1173Y164D02*
X1180Y164D01*
X0Y163D02*
X7Y163D01*
X1173Y163D02*
X1180Y163D01*
X0Y162D02*
X7Y162D01*
X1173Y162D02*
X1180Y162D01*
X0Y161D02*
X7Y161D01*
X1173Y161D02*
X1180Y161D01*
X0Y160D02*
X7Y160D01*
X1173Y160D02*
X1180Y160D01*
X0Y159D02*
X7Y159D01*
X1173Y159D02*
X1180Y159D01*
X0Y158D02*
X7Y158D01*
X1173Y158D02*
X1180Y158D01*
X0Y157D02*
X7Y157D01*
X1173Y157D02*
X1180Y157D01*
X0Y156D02*
X7Y156D01*
X1012Y156D02*
X1032Y156D01*
X1173Y156D02*
X1180Y156D01*
X0Y155D02*
X7Y155D01*
X1011Y155D02*
X1034Y155D01*
X1173Y155D02*
X1180Y155D01*
X0Y154D02*
X7Y154D01*
X1009Y154D02*
X1035Y154D01*
X1173Y154D02*
X1180Y154D01*
X0Y153D02*
X7Y153D01*
X1008Y153D02*
X1036Y153D01*
X1173Y153D02*
X1180Y153D01*
X0Y152D02*
X7Y152D01*
X1008Y152D02*
X1037Y152D01*
X1173Y152D02*
X1180Y152D01*
X0Y151D02*
X7Y151D01*
X1007Y151D02*
X1037Y151D01*
X1173Y151D02*
X1180Y151D01*
X0Y150D02*
X7Y150D01*
X1007Y150D02*
X1038Y150D01*
X1173Y150D02*
X1180Y150D01*
X0Y149D02*
X7Y149D01*
X1006Y149D02*
X1013Y149D01*
X1031Y149D02*
X1038Y149D01*
X1173Y149D02*
X1180Y149D01*
X0Y148D02*
X7Y148D01*
X1006Y148D02*
X1012Y148D01*
X1032Y148D02*
X1038Y148D01*
X1173Y148D02*
X1180Y148D01*
X0Y147D02*
X7Y147D01*
X1006Y147D02*
X1012Y147D01*
X1032Y147D02*
X1038Y147D01*
X1173Y147D02*
X1180Y147D01*
X0Y146D02*
X7Y146D01*
X1006Y146D02*
X1012Y146D01*
X1032Y146D02*
X1038Y146D01*
X1173Y146D02*
X1180Y146D01*
X0Y145D02*
X7Y145D01*
X1006Y145D02*
X1012Y145D01*
X1032Y145D02*
X1038Y145D01*
X1173Y145D02*
X1180Y145D01*
X0Y144D02*
X7Y144D01*
X1006Y144D02*
X1012Y144D01*
X1032Y144D02*
X1038Y144D01*
X1173Y144D02*
X1180Y144D01*
X0Y143D02*
X7Y143D01*
X1006Y143D02*
X1012Y143D01*
X1032Y143D02*
X1038Y143D01*
X1173Y143D02*
X1180Y143D01*
X0Y142D02*
X7Y142D01*
X1006Y142D02*
X1012Y142D01*
X1032Y142D02*
X1038Y142D01*
X1173Y142D02*
X1180Y142D01*
X0Y141D02*
X7Y141D01*
X1006Y141D02*
X1012Y141D01*
X1032Y141D02*
X1038Y141D01*
X1173Y141D02*
X1180Y141D01*
X0Y140D02*
X7Y140D01*
X1006Y140D02*
X1012Y140D01*
X1032Y140D02*
X1038Y140D01*
X1173Y140D02*
X1180Y140D01*
X0Y139D02*
X7Y139D01*
X1006Y139D02*
X1012Y139D01*
X1032Y139D02*
X1038Y139D01*
X1173Y139D02*
X1180Y139D01*
X0Y138D02*
X7Y138D01*
X1006Y138D02*
X1012Y138D01*
X1032Y138D02*
X1038Y138D01*
X1173Y138D02*
X1180Y138D01*
X0Y137D02*
X7Y137D01*
X1006Y137D02*
X1012Y137D01*
X1032Y137D02*
X1038Y137D01*
X1173Y137D02*
X1180Y137D01*
X0Y136D02*
X7Y136D01*
X1006Y136D02*
X1012Y136D01*
X1032Y136D02*
X1038Y136D01*
X1173Y136D02*
X1180Y136D01*
X0Y135D02*
X7Y135D01*
X1006Y135D02*
X1012Y135D01*
X1032Y135D02*
X1038Y135D01*
X1173Y135D02*
X1180Y135D01*
X0Y134D02*
X7Y134D01*
X1006Y134D02*
X1012Y134D01*
X1032Y134D02*
X1038Y134D01*
X1173Y134D02*
X1180Y134D01*
X0Y133D02*
X7Y133D01*
X1006Y133D02*
X1012Y133D01*
X1032Y133D02*
X1038Y133D01*
X1173Y133D02*
X1180Y133D01*
X0Y132D02*
X7Y132D01*
X1006Y132D02*
X1012Y132D01*
X1032Y132D02*
X1038Y132D01*
X1173Y132D02*
X1180Y132D01*
X0Y131D02*
X7Y131D01*
X1006Y131D02*
X1012Y131D01*
X1032Y131D02*
X1038Y131D01*
X1173Y131D02*
X1180Y131D01*
X0Y130D02*
X7Y130D01*
X1006Y130D02*
X1012Y130D01*
X1032Y130D02*
X1038Y130D01*
X1173Y130D02*
X1180Y130D01*
X0Y129D02*
X7Y129D01*
X1006Y129D02*
X1057Y129D01*
X1173Y129D02*
X1180Y129D01*
X0Y128D02*
X7Y128D01*
X1006Y128D02*
X1058Y128D01*
X1173Y128D02*
X1180Y128D01*
X0Y127D02*
X7Y127D01*
X1006Y127D02*
X1059Y127D01*
X1173Y127D02*
X1180Y127D01*
X0Y126D02*
X7Y126D01*
X1006Y126D02*
X1059Y126D01*
X1173Y126D02*
X1180Y126D01*
X0Y125D02*
X7Y125D01*
X1006Y125D02*
X1059Y125D01*
X1173Y125D02*
X1180Y125D01*
X0Y124D02*
X7Y124D01*
X1006Y124D02*
X1059Y124D01*
X1173Y124D02*
X1180Y124D01*
X0Y123D02*
X7Y123D01*
X1006Y123D02*
X1058Y123D01*
X1173Y123D02*
X1180Y123D01*
X0Y122D02*
X7Y122D01*
X1173Y122D02*
X1180Y122D01*
X0Y121D02*
X7Y121D01*
X1173Y121D02*
X1180Y121D01*
X0Y120D02*
X7Y120D01*
X1173Y120D02*
X1180Y120D01*
X0Y119D02*
X7Y119D01*
X1173Y119D02*
X1180Y119D01*
X0Y118D02*
X7Y118D01*
X1173Y118D02*
X1180Y118D01*
X0Y117D02*
X7Y117D01*
X1173Y117D02*
X1180Y117D01*
X0Y116D02*
X7Y116D01*
X1173Y116D02*
X1180Y116D01*
X0Y115D02*
X7Y115D01*
X1173Y115D02*
X1180Y115D01*
X0Y114D02*
X7Y114D01*
X1173Y114D02*
X1180Y114D01*
X0Y113D02*
X7Y113D01*
X1173Y113D02*
X1180Y113D01*
X0Y112D02*
X7Y112D01*
X1173Y112D02*
X1180Y112D01*
X0Y111D02*
X7Y111D01*
X1173Y111D02*
X1180Y111D01*
X0Y110D02*
X7Y110D01*
X1173Y110D02*
X1180Y110D01*
X0Y109D02*
X7Y109D01*
X1173Y109D02*
X1180Y109D01*
X0Y108D02*
X7Y108D01*
X1173Y108D02*
X1180Y108D01*
X0Y107D02*
X7Y107D01*
X1173Y107D02*
X1180Y107D01*
X0Y106D02*
X7Y106D01*
X1173Y106D02*
X1180Y106D01*
X0Y105D02*
X7Y105D01*
X1173Y105D02*
X1180Y105D01*
X0Y104D02*
X7Y104D01*
X783Y104D02*
X785Y104D01*
X1173Y104D02*
X1180Y104D01*
X0Y103D02*
X7Y103D01*
X619Y103D02*
X619Y103D01*
X782Y103D02*
X787Y103D01*
X1173Y103D02*
X1180Y103D01*
X0Y102D02*
X7Y102D01*
X616Y102D02*
X620Y102D01*
X782Y102D02*
X790Y102D01*
X1173Y102D02*
X1180Y102D01*
X0Y101D02*
X7Y101D01*
X612Y101D02*
X620Y101D01*
X781Y101D02*
X790Y101D01*
X1173Y101D02*
X1180Y101D01*
X0Y100D02*
X7Y100D01*
X612Y100D02*
X620Y100D01*
X781Y100D02*
X790Y100D01*
X1173Y100D02*
X1180Y100D01*
X0Y99D02*
X7Y99D01*
X612Y99D02*
X621Y99D01*
X781Y99D02*
X790Y99D01*
X1173Y99D02*
X1180Y99D01*
X0Y98D02*
X7Y98D01*
X612Y98D02*
X621Y98D01*
X781Y98D02*
X790Y98D01*
X1173Y98D02*
X1180Y98D01*
X0Y97D02*
X7Y97D01*
X612Y97D02*
X621Y97D01*
X781Y97D02*
X790Y97D01*
X1173Y97D02*
X1180Y97D01*
X0Y96D02*
X7Y96D01*
X612Y96D02*
X621Y96D01*
X781Y96D02*
X790Y96D01*
X1173Y96D02*
X1180Y96D01*
X0Y95D02*
X7Y95D01*
X612Y95D02*
X621Y95D01*
X781Y95D02*
X790Y95D01*
X1173Y95D02*
X1180Y95D01*
X0Y94D02*
X7Y94D01*
X612Y94D02*
X621Y94D01*
X780Y94D02*
X790Y94D01*
X1173Y94D02*
X1180Y94D01*
X0Y93D02*
X7Y93D01*
X612Y93D02*
X622Y93D01*
X780Y93D02*
X789Y93D01*
X1173Y93D02*
X1180Y93D01*
X0Y92D02*
X7Y92D01*
X613Y92D02*
X622Y92D01*
X780Y92D02*
X789Y92D01*
X1173Y92D02*
X1180Y92D01*
X0Y91D02*
X7Y91D01*
X613Y91D02*
X622Y91D01*
X780Y91D02*
X789Y91D01*
X1173Y91D02*
X1180Y91D01*
X0Y90D02*
X7Y90D01*
X613Y90D02*
X622Y90D01*
X779Y90D02*
X789Y90D01*
X1173Y90D02*
X1180Y90D01*
X0Y89D02*
X7Y89D01*
X613Y89D02*
X623Y89D01*
X779Y89D02*
X788Y89D01*
X1173Y89D02*
X1180Y89D01*
X0Y88D02*
X7Y88D01*
X614Y88D02*
X623Y88D01*
X778Y88D02*
X788Y88D01*
X1173Y88D02*
X1180Y88D01*
X0Y87D02*
X7Y87D01*
X614Y87D02*
X624Y87D01*
X778Y87D02*
X788Y87D01*
X1173Y87D02*
X1180Y87D01*
X0Y86D02*
X7Y86D01*
X615Y86D02*
X624Y86D01*
X778Y86D02*
X787Y86D01*
X1173Y86D02*
X1180Y86D01*
X0Y85D02*
X7Y85D01*
X615Y85D02*
X625Y85D01*
X777Y85D02*
X787Y85D01*
X1173Y85D02*
X1180Y85D01*
X0Y84D02*
X7Y84D01*
X615Y84D02*
X625Y84D01*
X776Y84D02*
X786Y84D01*
X1173Y84D02*
X1180Y84D01*
X0Y83D02*
X7Y83D01*
X616Y83D02*
X626Y83D01*
X776Y83D02*
X786Y83D01*
X1173Y83D02*
X1180Y83D01*
X0Y82D02*
X7Y82D01*
X616Y82D02*
X627Y82D01*
X775Y82D02*
X785Y82D01*
X1173Y82D02*
X1180Y82D01*
X0Y81D02*
X7Y81D01*
X617Y81D02*
X627Y81D01*
X774Y81D02*
X785Y81D01*
X1173Y81D02*
X1180Y81D01*
X0Y80D02*
X7Y80D01*
X618Y80D02*
X628Y80D01*
X773Y80D02*
X784Y80D01*
X1173Y80D02*
X1180Y80D01*
X0Y79D02*
X7Y79D01*
X618Y79D02*
X629Y79D01*
X773Y79D02*
X784Y79D01*
X1173Y79D02*
X1180Y79D01*
X0Y78D02*
X7Y78D01*
X619Y78D02*
X630Y78D01*
X772Y78D02*
X783Y78D01*
X1173Y78D02*
X1180Y78D01*
X0Y77D02*
X7Y77D01*
X619Y77D02*
X631Y77D01*
X771Y77D02*
X782Y77D01*
X1173Y77D02*
X1180Y77D01*
X0Y76D02*
X7Y76D01*
X620Y76D02*
X632Y76D01*
X770Y76D02*
X782Y76D01*
X1173Y76D02*
X1180Y76D01*
X0Y75D02*
X7Y75D01*
X621Y75D02*
X633Y75D01*
X769Y75D02*
X781Y75D01*
X1173Y75D02*
X1180Y75D01*
X0Y74D02*
X7Y74D01*
X622Y74D02*
X634Y74D01*
X768Y74D02*
X780Y74D01*
X1173Y74D02*
X1180Y74D01*
X0Y73D02*
X7Y73D01*
X622Y73D02*
X635Y73D01*
X766Y73D02*
X779Y73D01*
X1173Y73D02*
X1180Y73D01*
X0Y72D02*
X7Y72D01*
X623Y72D02*
X637Y72D01*
X765Y72D02*
X779Y72D01*
X1173Y72D02*
X1180Y72D01*
X0Y71D02*
X7Y71D01*
X624Y71D02*
X638Y71D01*
X764Y71D02*
X778Y71D01*
X1173Y71D02*
X1180Y71D01*
X0Y70D02*
X7Y70D01*
X625Y70D02*
X639Y70D01*
X762Y70D02*
X777Y70D01*
X1173Y70D02*
X1180Y70D01*
X0Y69D02*
X7Y69D01*
X626Y69D02*
X641Y69D01*
X761Y69D02*
X776Y69D01*
X1173Y69D02*
X1180Y69D01*
X0Y68D02*
X7Y68D01*
X627Y68D02*
X642Y68D01*
X760Y68D02*
X775Y68D01*
X1173Y68D02*
X1180Y68D01*
X0Y67D02*
X7Y67D01*
X628Y67D02*
X644Y67D01*
X758Y67D02*
X774Y67D01*
X1173Y67D02*
X1180Y67D01*
X0Y66D02*
X7Y66D01*
X629Y66D02*
X646Y66D01*
X756Y66D02*
X772Y66D01*
X1173Y66D02*
X1180Y66D01*
X0Y65D02*
X7Y65D01*
X631Y65D02*
X647Y65D01*
X754Y65D02*
X771Y65D01*
X1173Y65D02*
X1180Y65D01*
X0Y64D02*
X7Y64D01*
X632Y64D02*
X649Y64D01*
X753Y64D02*
X770Y64D01*
X1173Y64D02*
X1180Y64D01*
X0Y63D02*
X7Y63D01*
X633Y63D02*
X651Y63D01*
X750Y63D02*
X769Y63D01*
X1173Y63D02*
X1180Y63D01*
X0Y62D02*
X7Y62D01*
X634Y62D02*
X654Y62D01*
X748Y62D02*
X767Y62D01*
X1173Y62D02*
X1180Y62D01*
X0Y61D02*
X7Y61D01*
X636Y61D02*
X656Y61D01*
X746Y61D02*
X766Y61D01*
X1173Y61D02*
X1180Y61D01*
X0Y60D02*
X7Y60D01*
X637Y60D02*
X658Y60D01*
X743Y60D02*
X765Y60D01*
X1173Y60D02*
X1180Y60D01*
X0Y59D02*
X7Y59D01*
X639Y59D02*
X661Y59D01*
X741Y59D02*
X763Y59D01*
X1173Y59D02*
X1180Y59D01*
X0Y58D02*
X7Y58D01*
X640Y58D02*
X664Y58D01*
X737Y58D02*
X761Y58D01*
X1173Y58D02*
X1180Y58D01*
X0Y57D02*
X7Y57D01*
X642Y57D02*
X668Y57D01*
X734Y57D02*
X760Y57D01*
X1173Y57D02*
X1180Y57D01*
X0Y56D02*
X7Y56D01*
X644Y56D02*
X672Y56D01*
X730Y56D02*
X758Y56D01*
X1173Y56D02*
X1180Y56D01*
X0Y55D02*
X7Y55D01*
X646Y55D02*
X676Y55D01*
X725Y55D02*
X756Y55D01*
X1173Y55D02*
X1180Y55D01*
X0Y54D02*
X7Y54D01*
X648Y54D02*
X683Y54D01*
X719Y54D02*
X754Y54D01*
X1173Y54D02*
X1180Y54D01*
X0Y53D02*
X7Y53D01*
X650Y53D02*
X693Y53D01*
X708Y53D02*
X752Y53D01*
X1173Y53D02*
X1180Y53D01*
X0Y52D02*
X7Y52D01*
X653Y52D02*
X749Y52D01*
X1173Y52D02*
X1180Y52D01*
X0Y51D02*
X7Y51D01*
X655Y51D02*
X747Y51D01*
X1173Y51D02*
X1180Y51D01*
X0Y50D02*
X7Y50D01*
X658Y50D02*
X744Y50D01*
X1173Y50D02*
X1180Y50D01*
X0Y49D02*
X7Y49D01*
X661Y49D02*
X741Y49D01*
X1173Y49D02*
X1180Y49D01*
X0Y48D02*
X7Y48D01*
X664Y48D02*
X738Y48D01*
X1173Y48D02*
X1180Y48D01*
X0Y47D02*
X7Y47D01*
X668Y47D02*
X734Y47D01*
X1173Y47D02*
X1180Y47D01*
X0Y46D02*
X7Y46D01*
X672Y46D02*
X730Y46D01*
X1173Y46D02*
X1180Y46D01*
X0Y45D02*
X7Y45D01*
X677Y45D02*
X725Y45D01*
X1173Y45D02*
X1180Y45D01*
X0Y44D02*
X7Y44D01*
X683Y44D02*
X719Y44D01*
X1173Y44D02*
X1180Y44D01*
X0Y43D02*
X7Y43D01*
X695Y43D02*
X707Y43D01*
X1173Y43D02*
X1180Y43D01*
X0Y42D02*
X7Y42D01*
X1173Y42D02*
X1180Y42D01*
X0Y41D02*
X7Y41D01*
X1173Y41D02*
X1180Y41D01*
X0Y40D02*
X7Y40D01*
X1173Y40D02*
X1180Y40D01*
X0Y39D02*
X7Y39D01*
X1173Y39D02*
X1180Y39D01*
X0Y38D02*
X7Y38D01*
X1173Y38D02*
X1180Y38D01*
X0Y37D02*
X7Y37D01*
X1173Y37D02*
X1180Y37D01*
X0Y36D02*
X7Y36D01*
X1173Y36D02*
X1180Y36D01*
X0Y35D02*
X7Y35D01*
X1173Y35D02*
X1180Y35D01*
X0Y34D02*
X7Y34D01*
X1173Y34D02*
X1180Y34D01*
X0Y33D02*
X7Y33D01*
X1173Y33D02*
X1180Y33D01*
X0Y32D02*
X7Y32D01*
X1173Y32D02*
X1180Y32D01*
X0Y31D02*
X7Y31D01*
X1173Y31D02*
X1180Y31D01*
X0Y30D02*
X7Y30D01*
X1173Y30D02*
X1180Y30D01*
X0Y29D02*
X7Y29D01*
X1173Y29D02*
X1180Y29D01*
X0Y28D02*
X7Y28D01*
X1173Y28D02*
X1180Y28D01*
X0Y27D02*
X7Y27D01*
X1173Y27D02*
X1180Y27D01*
X0Y26D02*
X7Y26D01*
X1173Y26D02*
X1180Y26D01*
X0Y25D02*
X7Y25D01*
X1173Y25D02*
X1180Y25D01*
X0Y24D02*
X7Y24D01*
X1173Y24D02*
X1180Y24D01*
X0Y23D02*
X7Y23D01*
X1173Y23D02*
X1180Y23D01*
X0Y22D02*
X7Y22D01*
X1173Y22D02*
X1180Y22D01*
X0Y21D02*
X7Y21D01*
X1173Y21D02*
X1180Y21D01*
X0Y20D02*
X7Y20D01*
X1173Y20D02*
X1180Y20D01*
X0Y19D02*
X7Y19D01*
X1173Y19D02*
X1180Y19D01*
X0Y18D02*
X7Y18D01*
X1173Y18D02*
X1180Y18D01*
X0Y17D02*
X7Y17D01*
X1173Y17D02*
X1180Y17D01*
X0Y16D02*
X7Y16D01*
X1173Y16D02*
X1180Y16D01*
X0Y15D02*
X7Y15D01*
X1173Y15D02*
X1180Y15D01*
X0Y14D02*
X7Y14D01*
X1173Y14D02*
X1180Y14D01*
X0Y13D02*
X7Y13D01*
X1173Y13D02*
X1180Y13D01*
X0Y12D02*
X7Y12D01*
X1173Y12D02*
X1180Y12D01*
X0Y11D02*
X7Y11D01*
X1173Y11D02*
X1180Y11D01*
X0Y10D02*
X7Y10D01*
X1173Y10D02*
X1180Y10D01*
X0Y9D02*
X7Y9D01*
X1173Y9D02*
X1180Y9D01*
X0Y8D02*
X174Y8D01*
X203Y8D02*
X351Y8D01*
X381Y8D02*
X1180Y8D01*
X0Y7D02*
X177Y7D01*
X200Y7D02*
X354Y7D01*
X377Y7D02*
X1180Y7D01*
X0Y6D02*
X182Y6D01*
X195Y6D02*
X359Y6D01*
X373Y6D02*
X1180Y6D01*
X0Y5D02*
X1180Y5D01*
X0Y4D02*
X1180Y4D01*
X0Y3D02*
X1180Y3D01*
X0Y2D02*
X1180Y2D01*
X0Y1D02*
X1180Y1D01*
D02*
G04 End of Silk1*
M02*