; NON-PLATED HOLES START AT T1
; THROUGH (PLATED) HOLES START AT T100
M48
INCH
T1C0.086614
T2C0.125984
T100C0.040000
T101C0.038000
T102C0.035000
T103C0.055118
T104C0.030000
%
T1
X000777Y011033
X000777Y000766
X011044Y000766
X011044Y011033
T2
X005432Y002888
X005443Y009936
T100
X009332Y005290
X009332Y006668
X009329Y009676
X009329Y008298
T101
X009337Y001362
X009337Y003362
X009337Y002362
T102
X001889Y000474
X003661Y003033
X002102Y004469
X002102Y008469
X001889Y003033
X008036Y001420
X003661Y000474
X006036Y001420
X007036Y001420
T103
X007531Y004540
X003319Y008280
X003308Y006437
X003319Y004540
X007531Y008280
T104
X001097Y004064
X001095Y009164
X001097Y005066
X001095Y008163
X001101Y007163
X001101Y006161
T00
M30
