G04 MADE WITH FRITZING*
G04 WWW.FRITZING.ORG*
G04 DOUBLE SIDED*
G04 HOLES PLATED*
G04 CONTOUR ON CENTER OF CONTOUR VECTOR*
%ASAXBY*%
%FSLAX23Y23*%
%MOIN*%
%OFA0B0*%
%SFA1.0B1.0*%
%ADD10C,0.078000*%
%ADD11C,0.075000*%
%ADD12C,0.070000*%
%ADD13C,0.080000*%
%ADD14C,0.075118*%
%ADD15C,0.074803*%
%ADD16R,0.078000X0.078000*%
%ADD17R,0.080000X0.080000*%
%ADD18C,0.024000*%
%LNCOPPER1*%
G90*
G70*
G54D10*
X934Y336D03*
X934Y236D03*
X934Y136D03*
G54D11*
X210Y447D03*
X210Y847D03*
X604Y142D03*
X704Y142D03*
X804Y142D03*
G54D12*
X110Y406D03*
X110Y507D03*
X110Y816D03*
X110Y916D03*
X110Y616D03*
X110Y716D03*
G54D11*
X366Y303D03*
X366Y47D03*
X189Y303D03*
X189Y47D03*
G54D13*
X933Y968D03*
X933Y830D03*
X933Y667D03*
X933Y529D03*
G54D14*
X753Y828D03*
X332Y828D03*
X332Y454D03*
X753Y454D03*
X753Y828D03*
X332Y828D03*
X332Y454D03*
X753Y454D03*
G54D15*
X331Y644D03*
G54D16*
X934Y336D03*
G54D17*
X933Y968D03*
X933Y667D03*
G54D18*
X189Y275D02*
X189Y76D01*
D02*
X366Y275D02*
X366Y76D01*
D02*
X611Y47D02*
X395Y47D01*
D02*
X684Y122D02*
X611Y47D01*
D02*
X311Y546D02*
X463Y546D01*
D02*
X704Y318D02*
X704Y171D01*
D02*
X463Y546D02*
X704Y318D01*
D02*
X217Y650D02*
X311Y546D01*
D02*
X217Y714D02*
X217Y650D01*
D02*
X129Y798D02*
X217Y714D01*
D02*
X331Y724D02*
X230Y827D01*
D02*
X331Y682D02*
X331Y724D01*
D02*
X243Y916D02*
X305Y855D01*
D02*
X136Y916D02*
X243Y916D01*
D02*
X44Y715D02*
X84Y716D01*
D02*
X44Y867D02*
X44Y715D01*
D02*
X89Y901D02*
X44Y867D01*
D02*
X44Y565D02*
X90Y524D01*
D02*
X44Y715D02*
X44Y565D01*
D02*
X84Y716D02*
X44Y715D01*
D02*
X525Y142D02*
X575Y142D01*
D02*
X448Y214D02*
X525Y142D01*
D02*
X448Y341D02*
X448Y214D01*
D02*
X360Y427D02*
X448Y341D01*
D02*
X908Y949D02*
X784Y852D01*
D02*
X753Y695D02*
X753Y493D01*
D02*
X908Y811D02*
X753Y695D01*
D02*
X934Y366D02*
X933Y498D01*
D02*
X909Y219D02*
X827Y159D01*
D02*
X172Y326D02*
X126Y386D01*
D02*
X345Y323D02*
X231Y428D01*
D02*
X182Y616D02*
X306Y482D01*
D02*
X136Y616D02*
X182Y616D01*
D02*
X435Y644D02*
X737Y361D01*
D02*
X737Y361D02*
X811Y361D01*
D02*
X369Y644D02*
X435Y644D01*
D02*
X811Y361D02*
X848Y400D01*
D02*
X848Y400D02*
X848Y585D01*
D02*
X848Y585D02*
X911Y645D01*
G04 End of Copper1*
M02*