G04 MADE WITH FRITZING*
G04 WWW.FRITZING.ORG*
G04 DOUBLE SIDED*
G04 HOLES PLATED*
G04 CONTOUR ON CENTER OF CONTOUR VECTOR*
%ASAXBY*%
%FSLAX23Y23*%
%MOIN*%
%OFA0B0*%
%SFA1.0B1.0*%
%ADD10R,2.755910X1.181100X2.739910X1.165100*%
%ADD11C,0.008000*%
%ADD12R,0.001000X0.001000*%
%LNSILK0*%
G90*
G70*
G54D11*
X4Y1177D02*
X2752Y1177D01*
X2752Y4D01*
X4Y4D01*
X4Y1177D01*
D02*
G36*
X1634Y707D02*
X1634Y701D01*
X1635Y701D01*
X1635Y693D01*
X1637Y693D01*
X1637Y685D01*
X1639Y685D01*
X1639Y676D01*
X1634Y676D01*
X1634Y680D01*
X1632Y680D01*
X1632Y683D01*
X1630Y683D01*
X1630Y696D01*
X1629Y696D01*
X1629Y707D01*
X1634Y707D01*
G37*
D02*
G36*
X1589Y701D02*
X1589Y698D01*
X1591Y698D01*
X1591Y694D01*
X1593Y694D01*
X1593Y691D01*
X1594Y691D01*
X1594Y686D01*
X1596Y686D01*
X1596Y681D01*
X1598Y681D01*
X1598Y678D01*
X1599Y678D01*
X1599Y675D01*
X1601Y675D01*
X1601Y670D01*
X1603Y670D01*
X1603Y666D01*
X1601Y666D01*
X1601Y665D01*
X1598Y665D01*
X1598Y666D01*
X1596Y666D01*
X1596Y671D01*
X1594Y671D01*
X1594Y675D01*
X1593Y675D01*
X1593Y678D01*
X1591Y678D01*
X1591Y681D01*
X1589Y681D01*
X1589Y686D01*
X1588Y686D01*
X1588Y693D01*
X1586Y693D01*
X1586Y696D01*
X1585Y696D01*
X1585Y701D01*
X1589Y701D01*
G37*
D02*
G36*
X1537Y673D02*
X1537Y671D01*
X1539Y671D01*
X1539Y670D01*
X1540Y670D01*
X1540Y666D01*
X1542Y666D01*
X1542Y665D01*
X1544Y665D01*
X1544Y663D01*
X1548Y663D01*
X1548Y662D01*
X1550Y662D01*
X1550Y660D01*
X1552Y660D01*
X1552Y658D01*
X1555Y658D01*
X1555Y657D01*
X1558Y657D01*
X1558Y655D01*
X1560Y655D01*
X1560Y653D01*
X1563Y653D01*
X1563Y652D01*
X1567Y652D01*
X1567Y650D01*
X1568Y650D01*
X1568Y647D01*
X1563Y647D01*
X1563Y648D01*
X1560Y648D01*
X1560Y650D01*
X1557Y650D01*
X1557Y652D01*
X1555Y652D01*
X1555Y653D01*
X1552Y653D01*
X1552Y655D01*
X1548Y655D01*
X1548Y657D01*
X1545Y657D01*
X1545Y660D01*
X1540Y660D01*
X1540Y662D01*
X1539Y662D01*
X1539Y663D01*
X1537Y663D01*
X1537Y665D01*
X1534Y665D01*
X1534Y666D01*
X1532Y666D01*
X1532Y668D01*
X1530Y668D01*
X1530Y673D01*
X1537Y673D01*
G37*
D02*
G36*
X1799Y683D02*
X1799Y681D01*
X1806Y681D01*
X1806Y680D01*
X1809Y680D01*
X1809Y678D01*
X1811Y678D01*
X1811Y675D01*
X1791Y675D01*
X1791Y673D01*
X1788Y673D01*
X1788Y671D01*
X1786Y671D01*
X1786Y670D01*
X1785Y670D01*
X1785Y668D01*
X1783Y668D01*
X1783Y665D01*
X1781Y665D01*
X1781Y662D01*
X1780Y662D01*
X1780Y655D01*
X1778Y655D01*
X1778Y652D01*
X1780Y652D01*
X1780Y644D01*
X1781Y644D01*
X1781Y642D01*
X1790Y642D01*
X1790Y640D01*
X1772Y640D01*
X1772Y658D01*
X1773Y658D01*
X1773Y665D01*
X1775Y665D01*
X1775Y668D01*
X1776Y668D01*
X1776Y671D01*
X1778Y671D01*
X1778Y673D01*
X1780Y673D01*
X1780Y675D01*
X1781Y675D01*
X1781Y676D01*
X1783Y676D01*
X1783Y680D01*
X1788Y680D01*
X1788Y681D01*
X1793Y681D01*
X1793Y683D01*
X1799Y683D01*
G37*
D02*
G36*
X1813Y675D02*
X1813Y673D01*
X1814Y673D01*
X1814Y671D01*
X1816Y671D01*
X1816Y670D01*
X1818Y670D01*
X1818Y666D01*
X1811Y666D01*
X1811Y668D01*
X1809Y668D01*
X1809Y671D01*
X1808Y671D01*
X1808Y673D01*
X1803Y673D01*
X1803Y675D01*
X1813Y675D01*
G37*
D02*
G36*
X1845Y670D02*
X1845Y668D01*
X1847Y668D01*
X1847Y666D01*
X1824Y666D01*
X1824Y668D01*
X1832Y668D01*
X1832Y670D01*
X1845Y670D01*
G37*
D02*
G36*
X1849Y666D02*
X1849Y665D01*
X1813Y665D01*
X1813Y666D01*
X1849Y666D01*
G37*
D02*
G36*
X1849Y666D02*
X1849Y665D01*
X1813Y665D01*
X1813Y666D01*
X1849Y666D01*
G37*
D02*
G36*
X1850Y665D02*
X1850Y663D01*
X1852Y663D01*
X1852Y662D01*
X1831Y662D01*
X1831Y660D01*
X1822Y660D01*
X1822Y658D01*
X1819Y658D01*
X1819Y657D01*
X1818Y657D01*
X1818Y658D01*
X1816Y658D01*
X1816Y660D01*
X1814Y660D01*
X1814Y663D01*
X1813Y663D01*
X1813Y665D01*
X1850Y665D01*
G37*
D02*
G36*
X1855Y662D02*
X1855Y658D01*
X1859Y658D01*
X1859Y655D01*
X1860Y655D01*
X1860Y652D01*
X1862Y652D01*
X1862Y642D01*
X1860Y642D01*
X1860Y639D01*
X1859Y639D01*
X1859Y637D01*
X1857Y637D01*
X1857Y635D01*
X1855Y635D01*
X1855Y632D01*
X1854Y632D01*
X1854Y630D01*
X1852Y630D01*
X1852Y629D01*
X1850Y629D01*
X1850Y627D01*
X1849Y627D01*
X1849Y625D01*
X1845Y625D01*
X1845Y624D01*
X1844Y624D01*
X1844Y622D01*
X1840Y622D01*
X1840Y621D01*
X1839Y621D01*
X1839Y617D01*
X1836Y617D01*
X1836Y616D01*
X1829Y616D01*
X1829Y614D01*
X1827Y614D01*
X1827Y612D01*
X1811Y612D01*
X1811Y614D01*
X1814Y614D01*
X1814Y616D01*
X1819Y616D01*
X1819Y617D01*
X1822Y617D01*
X1822Y619D01*
X1826Y619D01*
X1826Y622D01*
X1831Y622D01*
X1831Y624D01*
X1834Y624D01*
X1834Y625D01*
X1836Y625D01*
X1836Y627D01*
X1839Y627D01*
X1839Y629D01*
X1840Y629D01*
X1840Y630D01*
X1844Y630D01*
X1844Y632D01*
X1845Y632D01*
X1845Y635D01*
X1847Y635D01*
X1847Y637D01*
X1849Y637D01*
X1849Y639D01*
X1850Y639D01*
X1850Y640D01*
X1852Y640D01*
X1852Y642D01*
X1854Y642D01*
X1854Y652D01*
X1852Y652D01*
X1852Y653D01*
X1850Y653D01*
X1850Y655D01*
X1849Y655D01*
X1849Y657D01*
X1847Y657D01*
X1847Y658D01*
X1844Y658D01*
X1844Y660D01*
X1840Y660D01*
X1840Y662D01*
X1855Y662D01*
G37*
D02*
G36*
X1757Y655D02*
X1757Y653D01*
X1758Y653D01*
X1758Y650D01*
X1760Y650D01*
X1760Y648D01*
X1762Y648D01*
X1762Y647D01*
X1752Y647D01*
X1752Y645D01*
X1744Y645D01*
X1744Y644D01*
X1742Y644D01*
X1742Y642D01*
X1739Y642D01*
X1739Y640D01*
X1740Y640D01*
X1740Y637D01*
X1727Y637D01*
X1727Y639D01*
X1724Y639D01*
X1724Y645D01*
X1726Y645D01*
X1726Y648D01*
X1735Y648D01*
X1735Y650D01*
X1739Y650D01*
X1739Y652D01*
X1744Y652D01*
X1744Y653D01*
X1750Y653D01*
X1750Y655D01*
X1757Y655D01*
G37*
D02*
G36*
X1762Y647D02*
X1762Y644D01*
X1763Y644D01*
X1763Y642D01*
X1768Y642D01*
X1768Y640D01*
X1757Y640D01*
X1757Y642D01*
X1755Y642D01*
X1755Y644D01*
X1754Y644D01*
X1754Y647D01*
X1762Y647D01*
G37*
D02*
G36*
X1813Y640D02*
X1813Y639D01*
X1755Y639D01*
X1755Y640D01*
X1813Y640D01*
G37*
D02*
G36*
X1813Y640D02*
X1813Y639D01*
X1755Y639D01*
X1755Y640D01*
X1813Y640D01*
G37*
D02*
G36*
X1813Y639D02*
X1813Y637D01*
X1750Y637D01*
X1750Y639D01*
X1813Y639D01*
G37*
D02*
G36*
X1811Y637D02*
X1811Y635D01*
X1729Y635D01*
X1729Y637D01*
X1811Y637D01*
G37*
D02*
G36*
X1811Y637D02*
X1811Y635D01*
X1729Y635D01*
X1729Y637D01*
X1811Y637D01*
G37*
D02*
G36*
X1795Y635D02*
X1795Y634D01*
X1790Y634D01*
X1790Y632D01*
X1773Y632D01*
X1773Y630D01*
X1768Y630D01*
X1768Y629D01*
X1752Y629D01*
X1752Y627D01*
X1732Y627D01*
X1732Y629D01*
X1734Y629D01*
X1734Y630D01*
X1731Y630D01*
X1731Y632D01*
X1732Y632D01*
X1732Y634D01*
X1731Y634D01*
X1731Y635D01*
X1795Y635D01*
G37*
D02*
G36*
X1790Y632D02*
X1790Y627D01*
X1791Y627D01*
X1791Y625D01*
X1793Y625D01*
X1793Y624D01*
X1795Y624D01*
X1795Y622D01*
X1796Y622D01*
X1796Y619D01*
X1798Y619D01*
X1798Y617D01*
X1801Y617D01*
X1801Y616D01*
X1803Y616D01*
X1803Y614D01*
X1806Y614D01*
X1806Y612D01*
X1791Y612D01*
X1791Y614D01*
X1790Y614D01*
X1790Y616D01*
X1788Y616D01*
X1788Y617D01*
X1786Y617D01*
X1786Y621D01*
X1785Y621D01*
X1785Y622D01*
X1783Y622D01*
X1783Y625D01*
X1781Y625D01*
X1781Y627D01*
X1780Y627D01*
X1780Y629D01*
X1778Y629D01*
X1778Y630D01*
X1775Y630D01*
X1775Y632D01*
X1790Y632D01*
G37*
D02*
G36*
X1768Y629D02*
X1768Y627D01*
X1754Y627D01*
X1754Y629D01*
X1768Y629D01*
G37*
D02*
G36*
X1767Y627D02*
X1767Y625D01*
X1732Y625D01*
X1732Y627D01*
X1767Y627D01*
G37*
D02*
G36*
X1767Y627D02*
X1767Y625D01*
X1732Y625D01*
X1732Y627D01*
X1767Y627D01*
G37*
D02*
G36*
X1765Y625D02*
X1765Y622D01*
X1763Y622D01*
X1763Y621D01*
X1762Y621D01*
X1762Y619D01*
X1754Y619D01*
X1754Y617D01*
X1749Y617D01*
X1749Y616D01*
X1745Y616D01*
X1745Y614D01*
X1737Y614D01*
X1737Y616D01*
X1734Y616D01*
X1734Y617D01*
X1732Y617D01*
X1732Y619D01*
X1731Y619D01*
X1731Y622D01*
X1732Y622D01*
X1732Y625D01*
X1765Y625D01*
G37*
D02*
G36*
X1824Y612D02*
X1824Y611D01*
X1793Y611D01*
X1793Y612D01*
X1824Y612D01*
G37*
D02*
G36*
X1824Y612D02*
X1824Y611D01*
X1793Y611D01*
X1793Y612D01*
X1824Y612D01*
G37*
D02*
G36*
X1821Y611D02*
X1821Y609D01*
X1816Y609D01*
X1816Y607D01*
X1813Y607D01*
X1813Y606D01*
X1799Y606D01*
X1799Y607D01*
X1796Y607D01*
X1796Y609D01*
X1795Y609D01*
X1795Y611D01*
X1821Y611D01*
G37*
D02*
G36*
X1959Y662D02*
X1959Y657D01*
X1957Y657D01*
X1957Y655D01*
X1955Y655D01*
X1955Y653D01*
X1954Y653D01*
X1954Y650D01*
X1952Y650D01*
X1952Y648D01*
X1950Y648D01*
X1950Y642D01*
X1954Y642D01*
X1954Y640D01*
X1965Y640D01*
X1965Y639D01*
X1968Y639D01*
X1968Y637D01*
X1970Y637D01*
X1970Y635D01*
X1972Y635D01*
X1972Y632D01*
X1955Y632D01*
X1955Y629D01*
X1957Y629D01*
X1957Y627D01*
X1941Y627D01*
X1941Y639D01*
X1942Y639D01*
X1942Y648D01*
X1944Y648D01*
X1944Y652D01*
X1945Y652D01*
X1945Y655D01*
X1947Y655D01*
X1947Y657D01*
X1949Y657D01*
X1949Y658D01*
X1950Y658D01*
X1950Y660D01*
X1954Y660D01*
X1954Y662D01*
X1959Y662D01*
G37*
D02*
G36*
X1973Y632D02*
X1973Y630D01*
X1975Y630D01*
X1975Y627D01*
X1964Y627D01*
X1964Y629D01*
X1965Y629D01*
X1965Y632D01*
X1973Y632D01*
G37*
D02*
G36*
X1973Y627D02*
X1973Y625D01*
X1941Y625D01*
X1941Y627D01*
X1973Y627D01*
G37*
D02*
G36*
X1973Y627D02*
X1973Y625D01*
X1941Y625D01*
X1941Y627D01*
X1973Y627D01*
G37*
D02*
G36*
X1973Y625D02*
X1973Y621D01*
X1972Y621D01*
X1972Y619D01*
X1950Y619D01*
X1950Y617D01*
X1939Y617D01*
X1939Y625D01*
X1973Y625D01*
G37*
D02*
G36*
X1970Y619D02*
X1970Y617D01*
X1957Y617D01*
X1957Y619D01*
X1970Y619D01*
G37*
D02*
G36*
X1955Y619D02*
X1955Y617D01*
X1952Y617D01*
X1952Y619D01*
X1955Y619D01*
G37*
D02*
G36*
X1952Y617D02*
X1952Y614D01*
X1954Y614D01*
X1954Y612D01*
X1955Y612D01*
X1955Y609D01*
X1957Y609D01*
X1957Y606D01*
X1960Y606D01*
X1960Y604D01*
X1962Y604D01*
X1962Y594D01*
X1964Y594D01*
X1964Y593D01*
X1962Y593D01*
X1962Y591D01*
X1960Y591D01*
X1960Y588D01*
X1959Y588D01*
X1959Y586D01*
X1952Y586D01*
X1952Y594D01*
X1954Y594D01*
X1954Y599D01*
X1952Y599D01*
X1952Y603D01*
X1950Y603D01*
X1950Y604D01*
X1949Y604D01*
X1949Y606D01*
X1945Y606D01*
X1945Y609D01*
X1944Y609D01*
X1944Y611D01*
X1942Y611D01*
X1942Y614D01*
X1941Y614D01*
X1941Y616D01*
X1939Y616D01*
X1939Y617D01*
X1952Y617D01*
G37*
D02*
G36*
X2039Y657D02*
X2039Y652D01*
X2037Y652D01*
X2037Y647D01*
X2036Y647D01*
X2036Y644D01*
X2034Y644D01*
X2034Y640D01*
X2032Y640D01*
X2032Y639D01*
X2031Y639D01*
X2031Y635D01*
X2029Y635D01*
X2029Y629D01*
X2027Y629D01*
X2027Y627D01*
X2026Y627D01*
X2026Y622D01*
X2019Y622D01*
X2019Y627D01*
X2021Y627D01*
X2021Y630D01*
X2023Y630D01*
X2023Y635D01*
X2024Y635D01*
X2024Y639D01*
X2026Y639D01*
X2026Y640D01*
X2027Y640D01*
X2027Y645D01*
X2029Y645D01*
X2029Y650D01*
X2031Y650D01*
X2031Y653D01*
X2032Y653D01*
X2032Y655D01*
X2034Y655D01*
X2034Y657D01*
X2039Y657D01*
G37*
D02*
G36*
X1507Y625D02*
X1507Y624D01*
X1514Y624D01*
X1514Y622D01*
X1517Y622D01*
X1517Y621D01*
X1524Y621D01*
X1524Y619D01*
X1530Y619D01*
X1530Y617D01*
X1539Y617D01*
X1539Y616D01*
X1544Y616D01*
X1544Y614D01*
X1547Y614D01*
X1547Y611D01*
X1545Y611D01*
X1545Y609D01*
X1537Y609D01*
X1537Y611D01*
X1529Y611D01*
X1529Y612D01*
X1524Y612D01*
X1524Y614D01*
X1512Y614D01*
X1512Y616D01*
X1509Y616D01*
X1509Y617D01*
X1503Y617D01*
X1503Y619D01*
X1499Y619D01*
X1499Y621D01*
X1498Y621D01*
X1498Y624D01*
X1499Y624D01*
X1499Y625D01*
X1507Y625D01*
G37*
D02*
G36*
X2077Y601D02*
X2077Y599D01*
X2078Y599D01*
X2078Y598D01*
X2077Y598D01*
X2077Y596D01*
X2072Y596D01*
X2072Y594D01*
X2068Y594D01*
X2068Y593D01*
X2067Y593D01*
X2067Y591D01*
X2064Y591D01*
X2064Y589D01*
X2059Y589D01*
X2059Y588D01*
X2054Y588D01*
X2054Y586D01*
X2049Y586D01*
X2049Y591D01*
X2052Y591D01*
X2052Y593D01*
X2055Y593D01*
X2055Y594D01*
X2059Y594D01*
X2059Y596D01*
X2062Y596D01*
X2062Y598D01*
X2068Y598D01*
X2068Y599D01*
X2072Y599D01*
X2072Y601D01*
X2077Y601D01*
G37*
D02*
G36*
X1537Y584D02*
X1537Y583D01*
X1544Y583D01*
X1544Y580D01*
X1545Y580D01*
X1545Y578D01*
X1544Y578D01*
X1544Y576D01*
X1526Y576D01*
X1526Y575D01*
X1521Y575D01*
X1521Y573D01*
X1511Y573D01*
X1511Y578D01*
X1512Y578D01*
X1512Y580D01*
X1521Y580D01*
X1521Y581D01*
X1522Y581D01*
X1522Y583D01*
X1529Y583D01*
X1529Y584D01*
X1537Y584D01*
G37*
D02*
G36*
X1795Y716D02*
X1795Y714D01*
X1816Y714D01*
X1816Y712D01*
X1824Y712D01*
X1824Y711D01*
X1831Y711D01*
X1831Y709D01*
X1778Y709D01*
X1778Y707D01*
X1773Y707D01*
X1773Y706D01*
X1763Y706D01*
X1763Y704D01*
X1757Y704D01*
X1757Y703D01*
X1752Y703D01*
X1752Y701D01*
X1749Y701D01*
X1749Y699D01*
X1745Y699D01*
X1745Y698D01*
X1742Y698D01*
X1742Y696D01*
X1737Y696D01*
X1737Y694D01*
X1734Y694D01*
X1734Y693D01*
X1732Y693D01*
X1732Y691D01*
X1729Y691D01*
X1729Y689D01*
X1727Y689D01*
X1727Y688D01*
X1726Y688D01*
X1726Y686D01*
X1724Y686D01*
X1724Y685D01*
X1722Y685D01*
X1722Y681D01*
X1721Y681D01*
X1721Y680D01*
X1717Y680D01*
X1717Y676D01*
X1716Y676D01*
X1716Y675D01*
X1714Y675D01*
X1714Y673D01*
X1713Y673D01*
X1713Y670D01*
X1711Y670D01*
X1711Y668D01*
X1709Y668D01*
X1709Y666D01*
X1708Y666D01*
X1708Y662D01*
X1706Y662D01*
X1706Y653D01*
X1704Y653D01*
X1704Y648D01*
X1706Y648D01*
X1706Y645D01*
X1704Y645D01*
X1704Y642D01*
X1706Y642D01*
X1706Y637D01*
X1708Y637D01*
X1708Y634D01*
X1709Y634D01*
X1709Y630D01*
X1711Y630D01*
X1711Y627D01*
X1713Y627D01*
X1713Y625D01*
X1714Y625D01*
X1714Y622D01*
X1716Y622D01*
X1716Y619D01*
X1717Y619D01*
X1717Y617D01*
X1719Y617D01*
X1719Y616D01*
X1721Y616D01*
X1721Y614D01*
X1724Y614D01*
X1724Y612D01*
X1726Y612D01*
X1726Y604D01*
X1724Y604D01*
X1724Y601D01*
X1722Y601D01*
X1722Y598D01*
X1721Y598D01*
X1721Y596D01*
X1722Y596D01*
X1722Y594D01*
X1711Y594D01*
X1711Y596D01*
X1713Y596D01*
X1713Y598D01*
X1714Y598D01*
X1714Y599D01*
X1716Y599D01*
X1716Y604D01*
X1717Y604D01*
X1717Y607D01*
X1716Y607D01*
X1716Y609D01*
X1714Y609D01*
X1714Y611D01*
X1713Y611D01*
X1713Y614D01*
X1709Y614D01*
X1709Y616D01*
X1708Y616D01*
X1708Y621D01*
X1706Y621D01*
X1706Y622D01*
X1704Y622D01*
X1704Y627D01*
X1703Y627D01*
X1703Y630D01*
X1701Y630D01*
X1701Y634D01*
X1699Y634D01*
X1699Y645D01*
X1698Y645D01*
X1698Y653D01*
X1699Y653D01*
X1699Y663D01*
X1701Y663D01*
X1701Y666D01*
X1703Y666D01*
X1703Y670D01*
X1704Y670D01*
X1704Y673D01*
X1706Y673D01*
X1706Y675D01*
X1708Y675D01*
X1708Y676D01*
X1709Y676D01*
X1709Y678D01*
X1711Y678D01*
X1711Y680D01*
X1713Y680D01*
X1713Y681D01*
X1714Y681D01*
X1714Y683D01*
X1716Y683D01*
X1716Y685D01*
X1717Y685D01*
X1717Y688D01*
X1719Y688D01*
X1719Y689D01*
X1721Y689D01*
X1721Y691D01*
X1722Y691D01*
X1722Y693D01*
X1724Y693D01*
X1724Y694D01*
X1726Y694D01*
X1726Y696D01*
X1727Y696D01*
X1727Y698D01*
X1731Y698D01*
X1731Y699D01*
X1734Y699D01*
X1734Y701D01*
X1737Y701D01*
X1737Y703D01*
X1740Y703D01*
X1740Y704D01*
X1744Y704D01*
X1744Y706D01*
X1747Y706D01*
X1747Y707D01*
X1754Y707D01*
X1754Y709D01*
X1757Y709D01*
X1757Y711D01*
X1762Y711D01*
X1762Y712D01*
X1768Y712D01*
X1768Y714D01*
X1793Y714D01*
X1793Y716D01*
X1795Y716D01*
G37*
D02*
G36*
X1836Y709D02*
X1836Y707D01*
X1840Y707D01*
X1840Y706D01*
X1852Y706D01*
X1852Y704D01*
X1860Y704D01*
X1860Y703D01*
X1865Y703D01*
X1865Y701D01*
X1844Y701D01*
X1844Y699D01*
X1840Y699D01*
X1840Y701D01*
X1837Y701D01*
X1837Y703D01*
X1834Y703D01*
X1834Y704D01*
X1826Y704D01*
X1826Y706D01*
X1814Y706D01*
X1814Y707D01*
X1803Y707D01*
X1803Y709D01*
X1836Y709D01*
G37*
D02*
G36*
X1870Y701D02*
X1870Y699D01*
X1873Y699D01*
X1873Y698D01*
X1875Y698D01*
X1875Y696D01*
X1878Y696D01*
X1878Y694D01*
X1880Y694D01*
X1880Y693D01*
X1881Y693D01*
X1881Y691D01*
X1883Y691D01*
X1883Y689D01*
X1885Y689D01*
X1885Y688D01*
X1886Y688D01*
X1886Y686D01*
X1888Y686D01*
X1888Y683D01*
X1890Y683D01*
X1890Y680D01*
X1891Y680D01*
X1891Y676D01*
X1893Y676D01*
X1893Y673D01*
X1895Y673D01*
X1895Y666D01*
X1896Y666D01*
X1896Y662D01*
X1898Y662D01*
X1898Y653D01*
X1900Y653D01*
X1900Y645D01*
X1898Y645D01*
X1898Y635D01*
X1896Y635D01*
X1896Y634D01*
X1895Y634D01*
X1895Y629D01*
X1893Y629D01*
X1893Y624D01*
X1891Y624D01*
X1891Y622D01*
X1890Y622D01*
X1890Y621D01*
X1888Y621D01*
X1888Y617D01*
X1886Y617D01*
X1886Y614D01*
X1885Y614D01*
X1885Y612D01*
X1883Y612D01*
X1883Y611D01*
X1881Y611D01*
X1881Y609D01*
X1878Y609D01*
X1878Y607D01*
X1877Y607D01*
X1877Y606D01*
X1875Y606D01*
X1875Y598D01*
X1873Y598D01*
X1873Y591D01*
X1872Y591D01*
X1872Y589D01*
X1870Y589D01*
X1870Y588D01*
X1868Y588D01*
X1868Y586D01*
X1870Y586D01*
X1870Y580D01*
X1872Y580D01*
X1872Y578D01*
X1859Y578D01*
X1859Y576D01*
X1857Y576D01*
X1857Y581D01*
X1855Y581D01*
X1855Y583D01*
X1854Y583D01*
X1854Y588D01*
X1857Y588D01*
X1857Y589D01*
X1860Y589D01*
X1860Y591D01*
X1862Y591D01*
X1862Y593D01*
X1863Y593D01*
X1863Y594D01*
X1865Y594D01*
X1865Y598D01*
X1867Y598D01*
X1867Y603D01*
X1865Y603D01*
X1865Y607D01*
X1867Y607D01*
X1867Y609D01*
X1868Y609D01*
X1868Y611D01*
X1872Y611D01*
X1872Y612D01*
X1873Y612D01*
X1873Y614D01*
X1875Y614D01*
X1875Y616D01*
X1877Y616D01*
X1877Y617D01*
X1880Y617D01*
X1880Y621D01*
X1881Y621D01*
X1881Y622D01*
X1883Y622D01*
X1883Y625D01*
X1885Y625D01*
X1885Y629D01*
X1886Y629D01*
X1886Y630D01*
X1888Y630D01*
X1888Y635D01*
X1890Y635D01*
X1890Y639D01*
X1891Y639D01*
X1891Y662D01*
X1890Y662D01*
X1890Y666D01*
X1888Y666D01*
X1888Y671D01*
X1886Y671D01*
X1886Y676D01*
X1885Y676D01*
X1885Y680D01*
X1883Y680D01*
X1883Y681D01*
X1881Y681D01*
X1881Y685D01*
X1880Y685D01*
X1880Y686D01*
X1878Y686D01*
X1878Y689D01*
X1877Y689D01*
X1877Y691D01*
X1873Y691D01*
X1873Y693D01*
X1870Y693D01*
X1870Y694D01*
X1868Y694D01*
X1868Y696D01*
X1863Y696D01*
X1863Y698D01*
X1862Y698D01*
X1862Y699D01*
X1854Y699D01*
X1854Y701D01*
X1870Y701D01*
G37*
D02*
G36*
X1749Y596D02*
X1749Y594D01*
X1739Y594D01*
X1739Y596D01*
X1749Y596D01*
G37*
D02*
G36*
X1737Y596D02*
X1737Y594D01*
X1731Y594D01*
X1731Y596D01*
X1737Y596D01*
G37*
D02*
G36*
X1750Y594D02*
X1750Y593D01*
X1709Y593D01*
X1709Y594D01*
X1750Y594D01*
G37*
D02*
G36*
X1750Y594D02*
X1750Y593D01*
X1709Y593D01*
X1709Y594D01*
X1750Y594D01*
G37*
D02*
G36*
X1750Y594D02*
X1750Y593D01*
X1709Y593D01*
X1709Y594D01*
X1750Y594D01*
G37*
D02*
G36*
X1750Y593D02*
X1750Y591D01*
X1752Y591D01*
X1752Y589D01*
X1727Y589D01*
X1727Y588D01*
X1721Y588D01*
X1721Y586D01*
X1714Y586D01*
X1714Y584D01*
X1706Y584D01*
X1706Y586D01*
X1703Y586D01*
X1703Y588D01*
X1704Y588D01*
X1704Y589D01*
X1706Y589D01*
X1706Y591D01*
X1708Y591D01*
X1708Y593D01*
X1750Y593D01*
G37*
D02*
G36*
X1786Y591D02*
X1786Y589D01*
X1790Y589D01*
X1790Y588D01*
X1791Y588D01*
X1791Y586D01*
X1795Y586D01*
X1795Y584D01*
X1796Y584D01*
X1796Y583D01*
X1772Y583D01*
X1772Y584D01*
X1778Y584D01*
X1778Y586D01*
X1780Y586D01*
X1780Y589D01*
X1781Y589D01*
X1781Y591D01*
X1786Y591D01*
G37*
D02*
G36*
X1755Y589D02*
X1755Y588D01*
X1758Y588D01*
X1758Y586D01*
X1762Y586D01*
X1762Y584D01*
X1767Y584D01*
X1767Y583D01*
X1750Y583D01*
X1750Y584D01*
X1749Y584D01*
X1749Y586D01*
X1747Y586D01*
X1747Y588D01*
X1735Y588D01*
X1735Y589D01*
X1755Y589D01*
G37*
D02*
G36*
X1799Y583D02*
X1799Y581D01*
X1752Y581D01*
X1752Y583D01*
X1799Y583D01*
G37*
D02*
G36*
X1799Y583D02*
X1799Y581D01*
X1752Y581D01*
X1752Y583D01*
X1799Y583D01*
G37*
D02*
G36*
X1801Y581D02*
X1801Y580D01*
X1803Y580D01*
X1803Y578D01*
X1806Y578D01*
X1806Y576D01*
X1809Y576D01*
X1809Y575D01*
X1822Y575D01*
X1822Y573D01*
X1798Y573D01*
X1798Y575D01*
X1795Y575D01*
X1795Y576D01*
X1793Y576D01*
X1793Y578D01*
X1790Y578D01*
X1790Y580D01*
X1788Y580D01*
X1788Y581D01*
X1801Y581D01*
G37*
D02*
G36*
X1785Y581D02*
X1785Y580D01*
X1783Y580D01*
X1783Y578D01*
X1780Y578D01*
X1780Y576D01*
X1770Y576D01*
X1770Y575D01*
X1765Y575D01*
X1765Y576D01*
X1758Y576D01*
X1758Y578D01*
X1755Y578D01*
X1755Y580D01*
X1754Y580D01*
X1754Y581D01*
X1785Y581D01*
G37*
D02*
G36*
X1873Y578D02*
X1873Y576D01*
X1877Y576D01*
X1877Y575D01*
X1880Y575D01*
X1880Y573D01*
X1881Y573D01*
X1881Y571D01*
X1883Y571D01*
X1883Y570D01*
X1867Y570D01*
X1867Y571D01*
X1865Y571D01*
X1865Y573D01*
X1863Y573D01*
X1863Y575D01*
X1862Y575D01*
X1862Y576D01*
X1860Y576D01*
X1860Y578D01*
X1873Y578D01*
G37*
D02*
G36*
X1852Y576D02*
X1852Y575D01*
X1855Y575D01*
X1855Y573D01*
X1860Y573D01*
X1860Y571D01*
X1845Y571D01*
X1845Y575D01*
X1847Y575D01*
X1847Y576D01*
X1852Y576D01*
G37*
D02*
G36*
X1840Y576D02*
X1840Y575D01*
X1842Y575D01*
X1842Y573D01*
X1824Y573D01*
X1824Y575D01*
X1837Y575D01*
X1837Y576D01*
X1840Y576D01*
G37*
D02*
G36*
X1840Y573D02*
X1840Y571D01*
X1799Y571D01*
X1799Y573D01*
X1840Y573D01*
G37*
D02*
G36*
X1840Y573D02*
X1840Y571D01*
X1799Y571D01*
X1799Y573D01*
X1840Y573D01*
G37*
D02*
G36*
X1865Y571D02*
X1865Y570D01*
X1847Y570D01*
X1847Y571D01*
X1865Y571D01*
G37*
D02*
G36*
X1837Y571D02*
X1837Y570D01*
X1832Y570D01*
X1832Y568D01*
X1808Y568D01*
X1808Y570D01*
X1803Y570D01*
X1803Y571D01*
X1837Y571D01*
G37*
D02*
G36*
X1885Y570D02*
X1885Y568D01*
X1849Y568D01*
X1849Y570D01*
X1885Y570D01*
G37*
D02*
G36*
X1885Y570D02*
X1885Y568D01*
X1849Y568D01*
X1849Y570D01*
X1885Y570D01*
G37*
D02*
G36*
X1888Y568D02*
X1888Y565D01*
X1891Y565D01*
X1891Y563D01*
X1893Y563D01*
X1893Y561D01*
X1895Y561D01*
X1895Y558D01*
X1896Y558D01*
X1896Y555D01*
X1895Y555D01*
X1895Y553D01*
X1886Y553D01*
X1886Y555D01*
X1880Y555D01*
X1880Y557D01*
X1877Y557D01*
X1877Y558D01*
X1873Y558D01*
X1873Y560D01*
X1868Y560D01*
X1868Y561D01*
X1865Y561D01*
X1865Y563D01*
X1860Y563D01*
X1860Y565D01*
X1857Y565D01*
X1857Y566D01*
X1854Y566D01*
X1854Y568D01*
X1888Y568D01*
G37*
D02*
G36*
X2057Y542D02*
X2057Y540D01*
X2065Y540D01*
X2065Y539D01*
X2075Y539D01*
X2075Y537D01*
X2080Y537D01*
X2080Y535D01*
X2085Y535D01*
X2085Y534D01*
X2090Y534D01*
X2090Y532D01*
X2080Y532D01*
X2080Y530D01*
X2077Y530D01*
X2077Y532D01*
X2060Y532D01*
X2060Y534D01*
X2046Y534D01*
X2046Y535D01*
X2044Y535D01*
X2044Y540D01*
X2046Y540D01*
X2046Y542D01*
X2057Y542D01*
G37*
D02*
G36*
X2093Y532D02*
X2093Y530D01*
X2083Y530D01*
X2083Y532D01*
X2093Y532D01*
G37*
D02*
G36*
X1955Y540D02*
X1955Y539D01*
X1957Y539D01*
X1957Y535D01*
X1947Y535D01*
X1947Y537D01*
X1949Y537D01*
X1949Y539D01*
X1952Y539D01*
X1952Y540D01*
X1955Y540D01*
G37*
D02*
G36*
X1942Y540D02*
X1942Y539D01*
X1944Y539D01*
X1944Y537D01*
X1945Y537D01*
X1945Y535D01*
X1936Y535D01*
X1936Y540D01*
X1942Y540D01*
G37*
D02*
G36*
X1957Y535D02*
X1957Y534D01*
X1936Y534D01*
X1936Y535D01*
X1957Y535D01*
G37*
D02*
G36*
X1957Y535D02*
X1957Y534D01*
X1936Y534D01*
X1936Y535D01*
X1957Y535D01*
G37*
D02*
G36*
X1957Y534D02*
X1957Y532D01*
X1955Y532D01*
X1955Y530D01*
X1954Y530D01*
X1954Y529D01*
X1947Y529D01*
X1947Y527D01*
X1944Y527D01*
X1944Y529D01*
X1939Y529D01*
X1939Y530D01*
X1937Y530D01*
X1937Y532D01*
X1936Y532D01*
X1936Y534D01*
X1957Y534D01*
G37*
D02*
G36*
X1813Y502D02*
X1813Y501D01*
X1811Y501D01*
X1811Y502D01*
X1813Y502D01*
G37*
D02*
G36*
X1547Y499D02*
X1547Y498D01*
X1550Y498D01*
X1550Y493D01*
X1547Y493D01*
X1547Y491D01*
X1545Y491D01*
X1545Y489D01*
X1544Y489D01*
X1544Y484D01*
X1542Y484D01*
X1542Y476D01*
X1540Y476D01*
X1540Y475D01*
X1537Y475D01*
X1537Y478D01*
X1535Y478D01*
X1535Y486D01*
X1537Y486D01*
X1537Y493D01*
X1539Y493D01*
X1539Y494D01*
X1540Y494D01*
X1540Y496D01*
X1542Y496D01*
X1542Y498D01*
X1545Y498D01*
X1545Y499D01*
X1547Y499D01*
G37*
D02*
G36*
X2027Y488D02*
X2027Y486D01*
X2032Y486D01*
X2032Y484D01*
X2036Y484D01*
X2036Y483D01*
X2039Y483D01*
X2039Y481D01*
X2042Y481D01*
X2042Y479D01*
X2044Y479D01*
X2044Y478D01*
X2046Y478D01*
X2046Y476D01*
X2047Y476D01*
X2047Y475D01*
X2049Y475D01*
X2049Y473D01*
X2052Y473D01*
X2052Y471D01*
X2055Y471D01*
X2055Y470D01*
X2057Y470D01*
X2057Y468D01*
X2059Y468D01*
X2059Y466D01*
X2060Y466D01*
X2060Y465D01*
X2065Y465D01*
X2065Y463D01*
X2067Y463D01*
X2067Y461D01*
X2068Y461D01*
X2068Y460D01*
X2070Y460D01*
X2070Y458D01*
X2072Y458D01*
X2072Y457D01*
X2075Y457D01*
X2075Y455D01*
X2077Y455D01*
X2077Y452D01*
X2075Y452D01*
X2075Y450D01*
X2072Y450D01*
X2072Y452D01*
X2068Y452D01*
X2068Y453D01*
X2067Y453D01*
X2067Y455D01*
X2064Y455D01*
X2064Y457D01*
X2062Y457D01*
X2062Y458D01*
X2059Y458D01*
X2059Y460D01*
X2057Y460D01*
X2057Y461D01*
X2052Y461D01*
X2052Y463D01*
X2050Y463D01*
X2050Y465D01*
X2047Y465D01*
X2047Y466D01*
X2042Y466D01*
X2042Y470D01*
X2041Y470D01*
X2041Y471D01*
X2037Y471D01*
X2037Y473D01*
X2036Y473D01*
X2036Y475D01*
X2032Y475D01*
X2032Y476D01*
X2031Y476D01*
X2031Y478D01*
X2029Y478D01*
X2029Y479D01*
X2026Y479D01*
X2026Y481D01*
X2024Y481D01*
X2024Y483D01*
X2021Y483D01*
X2021Y486D01*
X2023Y486D01*
X2023Y488D01*
X2027Y488D01*
G37*
D02*
G36*
X1570Y486D02*
X1570Y483D01*
X1568Y483D01*
X1568Y481D01*
X1565Y481D01*
X1565Y478D01*
X1563Y478D01*
X1563Y476D01*
X1562Y476D01*
X1562Y465D01*
X1558Y465D01*
X1558Y463D01*
X1557Y463D01*
X1557Y466D01*
X1555Y466D01*
X1555Y478D01*
X1557Y478D01*
X1557Y481D01*
X1558Y481D01*
X1558Y483D01*
X1560Y483D01*
X1560Y484D01*
X1563Y484D01*
X1563Y486D01*
X1570Y486D01*
G37*
D02*
G36*
X1885Y461D02*
X1885Y460D01*
X1886Y460D01*
X1886Y455D01*
X1885Y455D01*
X1885Y453D01*
X1886Y453D01*
X1886Y447D01*
X1888Y447D01*
X1888Y442D01*
X1890Y442D01*
X1890Y437D01*
X1891Y437D01*
X1891Y434D01*
X1893Y434D01*
X1893Y425D01*
X1891Y425D01*
X1891Y427D01*
X1888Y427D01*
X1888Y432D01*
X1886Y432D01*
X1886Y434D01*
X1885Y434D01*
X1885Y438D01*
X1883Y438D01*
X1883Y442D01*
X1881Y442D01*
X1881Y447D01*
X1880Y447D01*
X1880Y448D01*
X1881Y448D01*
X1881Y450D01*
X1880Y450D01*
X1880Y457D01*
X1881Y457D01*
X1881Y460D01*
X1883Y460D01*
X1883Y461D01*
X1885Y461D01*
G37*
D02*
G36*
X1865Y455D02*
X1865Y453D01*
X1867Y453D01*
X1867Y448D01*
X1868Y448D01*
X1868Y447D01*
X1870Y447D01*
X1870Y440D01*
X1872Y440D01*
X1872Y438D01*
X1873Y438D01*
X1873Y437D01*
X1875Y437D01*
X1875Y434D01*
X1877Y434D01*
X1877Y430D01*
X1878Y430D01*
X1878Y425D01*
X1872Y425D01*
X1872Y427D01*
X1870Y427D01*
X1870Y429D01*
X1868Y429D01*
X1868Y430D01*
X1867Y430D01*
X1867Y435D01*
X1865Y435D01*
X1865Y438D01*
X1863Y438D01*
X1863Y442D01*
X1860Y442D01*
X1860Y448D01*
X1862Y448D01*
X1862Y453D01*
X1863Y453D01*
X1863Y455D01*
X1865Y455D01*
G37*
D02*
G36*
X1844Y452D02*
X1844Y448D01*
X1845Y448D01*
X1845Y443D01*
X1847Y443D01*
X1847Y430D01*
X1849Y430D01*
X1849Y429D01*
X1850Y429D01*
X1850Y427D01*
X1852Y427D01*
X1852Y424D01*
X1854Y424D01*
X1854Y419D01*
X1847Y419D01*
X1847Y420D01*
X1845Y420D01*
X1845Y422D01*
X1844Y422D01*
X1844Y425D01*
X1840Y425D01*
X1840Y430D01*
X1839Y430D01*
X1839Y442D01*
X1837Y442D01*
X1837Y443D01*
X1839Y443D01*
X1839Y448D01*
X1837Y448D01*
X1837Y450D01*
X1840Y450D01*
X1840Y452D01*
X1844Y452D01*
G37*
D02*
G36*
X1629Y645D02*
X1629Y644D01*
X1640Y644D01*
X1640Y642D01*
X1645Y642D01*
X1645Y640D01*
X1650Y640D01*
X1650Y639D01*
X1608Y639D01*
X1608Y637D01*
X1603Y637D01*
X1603Y635D01*
X1598Y635D01*
X1598Y634D01*
X1594Y634D01*
X1594Y632D01*
X1593Y632D01*
X1593Y627D01*
X1594Y627D01*
X1594Y622D01*
X1596Y622D01*
X1596Y621D01*
X1598Y621D01*
X1598Y617D01*
X1599Y617D01*
X1599Y616D01*
X1601Y616D01*
X1601Y614D01*
X1589Y614D01*
X1589Y611D01*
X1588Y611D01*
X1588Y599D01*
X1593Y599D01*
X1593Y598D01*
X1594Y598D01*
X1594Y596D01*
X1596Y596D01*
X1596Y591D01*
X1598Y591D01*
X1598Y588D01*
X1594Y588D01*
X1594Y584D01*
X1596Y584D01*
X1596Y583D01*
X1598Y583D01*
X1598Y580D01*
X1586Y580D01*
X1586Y578D01*
X1578Y578D01*
X1578Y586D01*
X1580Y586D01*
X1580Y604D01*
X1581Y604D01*
X1581Y635D01*
X1583Y635D01*
X1583Y637D01*
X1588Y637D01*
X1588Y639D01*
X1593Y639D01*
X1593Y640D01*
X1598Y640D01*
X1598Y642D01*
X1608Y642D01*
X1608Y644D01*
X1616Y644D01*
X1616Y645D01*
X1629Y645D01*
G37*
D02*
G36*
X1657Y639D02*
X1657Y637D01*
X1660Y637D01*
X1660Y635D01*
X1663Y635D01*
X1663Y634D01*
X1665Y634D01*
X1665Y632D01*
X1667Y632D01*
X1667Y630D01*
X1670Y630D01*
X1670Y627D01*
X1673Y627D01*
X1673Y625D01*
X1675Y625D01*
X1675Y624D01*
X1676Y624D01*
X1676Y621D01*
X1678Y621D01*
X1678Y617D01*
X1680Y617D01*
X1680Y614D01*
X1681Y614D01*
X1681Y607D01*
X1683Y607D01*
X1683Y603D01*
X1681Y603D01*
X1681Y601D01*
X1683Y601D01*
X1683Y598D01*
X1681Y598D01*
X1681Y589D01*
X1680Y589D01*
X1680Y580D01*
X1670Y580D01*
X1670Y578D01*
X1667Y578D01*
X1667Y576D01*
X1647Y576D01*
X1647Y578D01*
X1650Y578D01*
X1650Y580D01*
X1657Y580D01*
X1657Y581D01*
X1660Y581D01*
X1660Y583D01*
X1662Y583D01*
X1662Y584D01*
X1663Y584D01*
X1663Y586D01*
X1667Y586D01*
X1667Y588D01*
X1668Y588D01*
X1668Y589D01*
X1670Y589D01*
X1670Y594D01*
X1672Y594D01*
X1672Y599D01*
X1673Y599D01*
X1673Y603D01*
X1672Y603D01*
X1672Y604D01*
X1673Y604D01*
X1673Y607D01*
X1672Y607D01*
X1672Y609D01*
X1673Y609D01*
X1673Y612D01*
X1672Y612D01*
X1672Y617D01*
X1670Y617D01*
X1670Y621D01*
X1668Y621D01*
X1668Y622D01*
X1667Y622D01*
X1667Y625D01*
X1663Y625D01*
X1663Y627D01*
X1660Y627D01*
X1660Y629D01*
X1658Y629D01*
X1658Y630D01*
X1655Y630D01*
X1655Y632D01*
X1653Y632D01*
X1653Y634D01*
X1650Y634D01*
X1650Y635D01*
X1644Y635D01*
X1644Y637D01*
X1637Y637D01*
X1637Y639D01*
X1657Y639D01*
G37*
D02*
G36*
X1601Y614D02*
X1601Y612D01*
X1603Y612D01*
X1603Y611D01*
X1606Y611D01*
X1606Y607D01*
X1608Y607D01*
X1608Y606D01*
X1609Y606D01*
X1609Y603D01*
X1611Y603D01*
X1611Y599D01*
X1612Y599D01*
X1612Y598D01*
X1614Y598D01*
X1614Y596D01*
X1616Y596D01*
X1616Y594D01*
X1617Y594D01*
X1617Y593D01*
X1619Y593D01*
X1619Y591D01*
X1621Y591D01*
X1621Y588D01*
X1624Y588D01*
X1624Y586D01*
X1626Y586D01*
X1626Y584D01*
X1627Y584D01*
X1627Y583D01*
X1629Y583D01*
X1629Y580D01*
X1632Y580D01*
X1632Y578D01*
X1642Y578D01*
X1642Y576D01*
X1622Y576D01*
X1622Y578D01*
X1621Y578D01*
X1621Y580D01*
X1619Y580D01*
X1619Y581D01*
X1617Y581D01*
X1617Y584D01*
X1616Y584D01*
X1616Y586D01*
X1614Y586D01*
X1614Y588D01*
X1612Y588D01*
X1612Y589D01*
X1611Y589D01*
X1611Y591D01*
X1609Y591D01*
X1609Y593D01*
X1608Y593D01*
X1608Y594D01*
X1606Y594D01*
X1606Y596D01*
X1604Y596D01*
X1604Y599D01*
X1603Y599D01*
X1603Y601D01*
X1601Y601D01*
X1601Y604D01*
X1599Y604D01*
X1599Y606D01*
X1598Y606D01*
X1598Y607D01*
X1596Y607D01*
X1596Y609D01*
X1594Y609D01*
X1594Y611D01*
X1591Y611D01*
X1591Y614D01*
X1601Y614D01*
G37*
D02*
G36*
X1942Y603D02*
X1942Y601D01*
X1945Y601D01*
X1945Y598D01*
X1942Y598D01*
X1942Y596D01*
X1941Y596D01*
X1941Y594D01*
X1939Y594D01*
X1939Y591D01*
X1937Y591D01*
X1937Y588D01*
X1936Y588D01*
X1936Y586D01*
X1939Y586D01*
X1939Y583D01*
X1941Y583D01*
X1941Y580D01*
X1942Y580D01*
X1942Y578D01*
X1945Y578D01*
X1945Y576D01*
X1947Y576D01*
X1947Y575D01*
X1950Y575D01*
X1950Y573D01*
X1919Y573D01*
X1919Y576D01*
X1921Y576D01*
X1921Y580D01*
X1922Y580D01*
X1922Y586D01*
X1924Y586D01*
X1924Y591D01*
X1926Y591D01*
X1926Y594D01*
X1927Y594D01*
X1927Y596D01*
X1931Y596D01*
X1931Y598D01*
X1932Y598D01*
X1932Y599D01*
X1936Y599D01*
X1936Y601D01*
X1939Y601D01*
X1939Y603D01*
X1942Y603D01*
G37*
D02*
G36*
X1973Y599D02*
X1973Y598D01*
X1977Y598D01*
X1977Y596D01*
X1978Y596D01*
X1978Y594D01*
X1980Y594D01*
X1980Y593D01*
X1982Y593D01*
X1982Y591D01*
X1983Y591D01*
X1983Y588D01*
X1985Y588D01*
X1985Y584D01*
X1986Y584D01*
X1986Y575D01*
X1988Y575D01*
X1988Y573D01*
X1967Y573D01*
X1967Y575D01*
X1973Y575D01*
X1973Y578D01*
X1977Y578D01*
X1977Y581D01*
X1975Y581D01*
X1975Y583D01*
X1977Y583D01*
X1977Y584D01*
X1973Y584D01*
X1973Y588D01*
X1972Y588D01*
X1972Y589D01*
X1970Y589D01*
X1970Y591D01*
X1967Y591D01*
X1967Y594D01*
X1965Y594D01*
X1965Y598D01*
X1967Y598D01*
X1967Y599D01*
X1973Y599D01*
G37*
D02*
G36*
X1680Y580D02*
X1680Y570D01*
X1678Y570D01*
X1678Y555D01*
X1676Y555D01*
X1676Y553D01*
X1678Y553D01*
X1678Y552D01*
X1676Y552D01*
X1676Y547D01*
X1675Y547D01*
X1675Y543D01*
X1673Y543D01*
X1673Y540D01*
X1672Y540D01*
X1672Y539D01*
X1673Y539D01*
X1673Y535D01*
X1672Y535D01*
X1672Y532D01*
X1673Y532D01*
X1673Y530D01*
X1676Y530D01*
X1676Y529D01*
X1680Y529D01*
X1680Y527D01*
X1681Y527D01*
X1681Y525D01*
X1683Y525D01*
X1683Y524D01*
X1663Y524D01*
X1663Y522D01*
X1662Y522D01*
X1662Y520D01*
X1660Y520D01*
X1660Y517D01*
X1658Y517D01*
X1658Y516D01*
X1657Y516D01*
X1657Y514D01*
X1644Y514D01*
X1644Y516D01*
X1645Y516D01*
X1645Y517D01*
X1649Y517D01*
X1649Y519D01*
X1650Y519D01*
X1650Y520D01*
X1652Y520D01*
X1652Y522D01*
X1653Y522D01*
X1653Y524D01*
X1655Y524D01*
X1655Y525D01*
X1657Y525D01*
X1657Y529D01*
X1658Y529D01*
X1658Y532D01*
X1657Y532D01*
X1657Y537D01*
X1658Y537D01*
X1658Y539D01*
X1665Y539D01*
X1665Y540D01*
X1667Y540D01*
X1667Y545D01*
X1668Y545D01*
X1668Y548D01*
X1670Y548D01*
X1670Y553D01*
X1672Y553D01*
X1672Y580D01*
X1680Y580D01*
G37*
D02*
G36*
X1611Y580D02*
X1611Y578D01*
X1612Y578D01*
X1612Y576D01*
X1606Y576D01*
X1606Y580D01*
X1611Y580D01*
G37*
D02*
G36*
X1599Y580D02*
X1599Y578D01*
X1588Y578D01*
X1588Y580D01*
X1599Y580D01*
G37*
D02*
G36*
X1603Y578D02*
X1603Y576D01*
X1578Y576D01*
X1578Y578D01*
X1603Y578D01*
G37*
D02*
G36*
X1603Y578D02*
X1603Y576D01*
X1578Y576D01*
X1578Y578D01*
X1603Y578D01*
G37*
D02*
G36*
X1663Y576D02*
X1663Y575D01*
X1626Y575D01*
X1626Y576D01*
X1663Y576D01*
G37*
D02*
G36*
X1663Y576D02*
X1663Y575D01*
X1626Y575D01*
X1626Y576D01*
X1663Y576D01*
G37*
D02*
G36*
X1612Y576D02*
X1612Y575D01*
X1593Y575D01*
X1593Y576D01*
X1612Y576D01*
G37*
D02*
G36*
X1612Y576D02*
X1612Y575D01*
X1593Y575D01*
X1593Y576D01*
X1612Y576D01*
G37*
D02*
G36*
X1586Y576D02*
X1586Y573D01*
X1588Y573D01*
X1588Y571D01*
X1589Y571D01*
X1589Y570D01*
X1591Y570D01*
X1591Y568D01*
X1593Y568D01*
X1593Y566D01*
X1598Y566D01*
X1598Y565D01*
X1599Y565D01*
X1599Y561D01*
X1601Y561D01*
X1601Y558D01*
X1588Y558D01*
X1588Y555D01*
X1589Y555D01*
X1589Y553D01*
X1588Y553D01*
X1588Y552D01*
X1589Y552D01*
X1589Y548D01*
X1591Y548D01*
X1591Y545D01*
X1593Y545D01*
X1593Y543D01*
X1596Y543D01*
X1596Y542D01*
X1599Y542D01*
X1599Y540D01*
X1601Y540D01*
X1601Y539D01*
X1603Y539D01*
X1603Y535D01*
X1604Y535D01*
X1604Y534D01*
X1606Y534D01*
X1606Y532D01*
X1608Y532D01*
X1608Y530D01*
X1611Y530D01*
X1611Y529D01*
X1612Y529D01*
X1612Y525D01*
X1616Y525D01*
X1616Y524D01*
X1617Y524D01*
X1617Y522D01*
X1621Y522D01*
X1621Y520D01*
X1622Y520D01*
X1622Y519D01*
X1624Y519D01*
X1624Y517D01*
X1626Y517D01*
X1626Y516D01*
X1629Y516D01*
X1629Y514D01*
X1614Y514D01*
X1614Y516D01*
X1612Y516D01*
X1612Y519D01*
X1609Y519D01*
X1609Y522D01*
X1606Y522D01*
X1606Y524D01*
X1604Y524D01*
X1604Y525D01*
X1603Y525D01*
X1603Y527D01*
X1601Y527D01*
X1601Y529D01*
X1599Y529D01*
X1599Y530D01*
X1598Y530D01*
X1598Y532D01*
X1594Y532D01*
X1594Y534D01*
X1591Y534D01*
X1591Y535D01*
X1589Y535D01*
X1589Y539D01*
X1588Y539D01*
X1588Y540D01*
X1586Y540D01*
X1586Y543D01*
X1585Y543D01*
X1585Y545D01*
X1583Y545D01*
X1583Y547D01*
X1581Y547D01*
X1581Y552D01*
X1580Y552D01*
X1580Y553D01*
X1581Y553D01*
X1581Y560D01*
X1580Y560D01*
X1580Y566D01*
X1578Y566D01*
X1578Y568D01*
X1580Y568D01*
X1580Y571D01*
X1578Y571D01*
X1578Y576D01*
X1586Y576D01*
G37*
D02*
G36*
X1660Y575D02*
X1660Y573D01*
X1655Y573D01*
X1655Y571D01*
X1652Y571D01*
X1652Y570D01*
X1650Y570D01*
X1650Y568D01*
X1647Y568D01*
X1647Y566D01*
X1645Y566D01*
X1645Y565D01*
X1644Y565D01*
X1644Y560D01*
X1642Y560D01*
X1642Y555D01*
X1644Y555D01*
X1644Y553D01*
X1642Y553D01*
X1642Y542D01*
X1644Y542D01*
X1644Y540D01*
X1642Y540D01*
X1642Y530D01*
X1640Y530D01*
X1640Y516D01*
X1642Y516D01*
X1642Y514D01*
X1630Y514D01*
X1630Y517D01*
X1632Y517D01*
X1632Y522D01*
X1634Y522D01*
X1634Y524D01*
X1632Y524D01*
X1632Y527D01*
X1634Y527D01*
X1634Y537D01*
X1635Y537D01*
X1635Y565D01*
X1634Y565D01*
X1634Y570D01*
X1632Y570D01*
X1632Y571D01*
X1630Y571D01*
X1630Y573D01*
X1629Y573D01*
X1629Y575D01*
X1660Y575D01*
G37*
D02*
G36*
X1614Y575D02*
X1614Y573D01*
X1617Y573D01*
X1617Y571D01*
X1619Y571D01*
X1619Y570D01*
X1621Y570D01*
X1621Y568D01*
X1619Y568D01*
X1619Y566D01*
X1614Y566D01*
X1614Y568D01*
X1611Y568D01*
X1611Y570D01*
X1609Y570D01*
X1609Y571D01*
X1608Y571D01*
X1608Y573D01*
X1606Y573D01*
X1606Y575D01*
X1614Y575D01*
G37*
D02*
G36*
X1604Y575D02*
X1604Y573D01*
X1603Y573D01*
X1603Y571D01*
X1598Y571D01*
X1598Y573D01*
X1594Y573D01*
X1594Y575D01*
X1604Y575D01*
G37*
D02*
G36*
X1988Y573D02*
X1988Y571D01*
X1919Y571D01*
X1919Y573D01*
X1988Y573D01*
G37*
D02*
G36*
X1988Y573D02*
X1988Y571D01*
X1919Y571D01*
X1919Y573D01*
X1988Y573D01*
G37*
D02*
G36*
X1986Y571D02*
X1986Y568D01*
X1985Y568D01*
X1985Y566D01*
X1986Y566D01*
X1986Y565D01*
X1926Y565D01*
X1926Y560D01*
X1924Y560D01*
X1924Y558D01*
X1922Y558D01*
X1922Y553D01*
X1921Y553D01*
X1921Y548D01*
X1919Y548D01*
X1919Y543D01*
X1918Y543D01*
X1918Y540D01*
X1916Y540D01*
X1916Y537D01*
X1914Y537D01*
X1914Y534D01*
X1913Y534D01*
X1913Y527D01*
X1911Y527D01*
X1911Y524D01*
X1909Y524D01*
X1909Y517D01*
X1908Y517D01*
X1908Y512D01*
X1906Y512D01*
X1906Y507D01*
X1891Y507D01*
X1891Y506D01*
X1885Y506D01*
X1885Y504D01*
X1852Y504D01*
X1852Y506D01*
X1862Y506D01*
X1862Y507D01*
X1872Y507D01*
X1872Y509D01*
X1878Y509D01*
X1878Y511D01*
X1883Y511D01*
X1883Y512D01*
X1886Y512D01*
X1886Y514D01*
X1891Y514D01*
X1891Y516D01*
X1895Y516D01*
X1895Y517D01*
X1898Y517D01*
X1898Y520D01*
X1900Y520D01*
X1900Y522D01*
X1901Y522D01*
X1901Y527D01*
X1903Y527D01*
X1903Y530D01*
X1904Y530D01*
X1904Y535D01*
X1906Y535D01*
X1906Y540D01*
X1908Y540D01*
X1908Y545D01*
X1909Y545D01*
X1909Y547D01*
X1911Y547D01*
X1911Y553D01*
X1913Y553D01*
X1913Y558D01*
X1914Y558D01*
X1914Y563D01*
X1916Y563D01*
X1916Y565D01*
X1918Y565D01*
X1918Y570D01*
X1919Y570D01*
X1919Y571D01*
X1986Y571D01*
G37*
D02*
G36*
X1985Y565D02*
X1985Y561D01*
X1936Y561D01*
X1936Y560D01*
X1934Y560D01*
X1934Y561D01*
X1932Y561D01*
X1932Y563D01*
X1929Y563D01*
X1929Y565D01*
X1985Y565D01*
G37*
D02*
G36*
X1985Y561D02*
X1985Y558D01*
X1983Y558D01*
X1983Y555D01*
X1982Y555D01*
X1982Y550D01*
X1980Y550D01*
X1980Y548D01*
X1978Y548D01*
X1978Y543D01*
X1977Y543D01*
X1977Y542D01*
X1975Y542D01*
X1975Y537D01*
X1973Y537D01*
X1973Y532D01*
X1972Y532D01*
X1972Y529D01*
X1970Y529D01*
X1970Y525D01*
X1968Y525D01*
X1968Y524D01*
X1970Y524D01*
X1970Y522D01*
X1973Y522D01*
X1973Y520D01*
X1977Y520D01*
X1977Y519D01*
X1978Y519D01*
X1978Y517D01*
X1980Y517D01*
X1980Y516D01*
X1982Y516D01*
X1982Y512D01*
X1983Y512D01*
X1983Y507D01*
X1965Y507D01*
X1965Y509D01*
X1968Y509D01*
X1968Y512D01*
X1964Y512D01*
X1964Y514D01*
X1959Y514D01*
X1959Y516D01*
X1957Y516D01*
X1957Y517D01*
X1955Y517D01*
X1955Y519D01*
X1954Y519D01*
X1954Y524D01*
X1955Y524D01*
X1955Y527D01*
X1959Y527D01*
X1959Y530D01*
X1960Y530D01*
X1960Y532D01*
X1962Y532D01*
X1962Y535D01*
X1964Y535D01*
X1964Y539D01*
X1965Y539D01*
X1965Y543D01*
X1967Y543D01*
X1967Y547D01*
X1968Y547D01*
X1968Y550D01*
X1967Y550D01*
X1967Y552D01*
X1962Y552D01*
X1962Y553D01*
X1952Y553D01*
X1952Y555D01*
X1947Y555D01*
X1947Y557D01*
X1944Y557D01*
X1944Y558D01*
X1941Y558D01*
X1941Y560D01*
X1937Y560D01*
X1937Y561D01*
X1985Y561D01*
G37*
D02*
G36*
X1599Y558D02*
X1599Y557D01*
X1594Y557D01*
X1594Y558D01*
X1599Y558D01*
G37*
D02*
G36*
X1593Y558D02*
X1593Y557D01*
X1591Y557D01*
X1591Y558D01*
X1593Y558D01*
G37*
D02*
G36*
X1796Y532D02*
X1796Y530D01*
X1785Y530D01*
X1785Y532D01*
X1796Y532D01*
G37*
D02*
G36*
X1781Y532D02*
X1781Y530D01*
X1767Y530D01*
X1767Y532D01*
X1781Y532D01*
G37*
D02*
G36*
X1798Y530D02*
X1798Y529D01*
X1762Y529D01*
X1762Y530D01*
X1798Y530D01*
G37*
D02*
G36*
X1798Y530D02*
X1798Y529D01*
X1762Y529D01*
X1762Y530D01*
X1798Y530D01*
G37*
D02*
G36*
X1801Y529D02*
X1801Y527D01*
X1803Y527D01*
X1803Y525D01*
X1765Y525D01*
X1765Y524D01*
X1762Y524D01*
X1762Y522D01*
X1758Y522D01*
X1758Y519D01*
X1757Y519D01*
X1757Y517D01*
X1755Y517D01*
X1755Y516D01*
X1716Y516D01*
X1716Y517D01*
X1740Y517D01*
X1740Y519D01*
X1742Y519D01*
X1742Y520D01*
X1744Y520D01*
X1744Y522D01*
X1747Y522D01*
X1747Y524D01*
X1750Y524D01*
X1750Y525D01*
X1754Y525D01*
X1754Y527D01*
X1755Y527D01*
X1755Y529D01*
X1801Y529D01*
G37*
D02*
G36*
X1806Y525D02*
X1806Y524D01*
X1791Y524D01*
X1791Y517D01*
X1795Y517D01*
X1795Y514D01*
X1796Y514D01*
X1796Y511D01*
X1798Y511D01*
X1798Y507D01*
X1796Y507D01*
X1796Y506D01*
X1791Y506D01*
X1791Y504D01*
X1785Y504D01*
X1785Y502D01*
X1783Y502D01*
X1783Y501D01*
X1781Y501D01*
X1781Y494D01*
X1772Y494D01*
X1772Y507D01*
X1773Y507D01*
X1773Y509D01*
X1776Y509D01*
X1776Y511D01*
X1780Y511D01*
X1780Y512D01*
X1783Y512D01*
X1783Y516D01*
X1781Y516D01*
X1781Y517D01*
X1780Y517D01*
X1780Y520D01*
X1778Y520D01*
X1778Y524D01*
X1776Y524D01*
X1776Y525D01*
X1806Y525D01*
G37*
D02*
G36*
X1808Y524D02*
X1808Y522D01*
X1809Y522D01*
X1809Y520D01*
X1811Y520D01*
X1811Y517D01*
X1813Y517D01*
X1813Y514D01*
X1814Y514D01*
X1814Y512D01*
X1816Y512D01*
X1816Y511D01*
X1818Y511D01*
X1818Y509D01*
X1819Y509D01*
X1819Y507D01*
X1821Y507D01*
X1821Y506D01*
X1824Y506D01*
X1824Y504D01*
X1813Y504D01*
X1813Y506D01*
X1811Y506D01*
X1811Y511D01*
X1809Y511D01*
X1809Y512D01*
X1806Y512D01*
X1806Y514D01*
X1804Y514D01*
X1804Y516D01*
X1803Y516D01*
X1803Y517D01*
X1801Y517D01*
X1801Y520D01*
X1798Y520D01*
X1798Y522D01*
X1793Y522D01*
X1793Y524D01*
X1808Y524D01*
G37*
D02*
G36*
X1686Y524D02*
X1686Y522D01*
X1690Y522D01*
X1690Y520D01*
X1693Y520D01*
X1693Y519D01*
X1701Y519D01*
X1701Y517D01*
X1708Y517D01*
X1708Y516D01*
X1681Y516D01*
X1681Y517D01*
X1680Y517D01*
X1680Y519D01*
X1676Y519D01*
X1676Y520D01*
X1673Y520D01*
X1673Y522D01*
X1670Y522D01*
X1670Y524D01*
X1686Y524D01*
G37*
D02*
G36*
X1949Y520D02*
X1949Y519D01*
X1952Y519D01*
X1952Y514D01*
X1954Y514D01*
X1954Y512D01*
X1955Y512D01*
X1955Y509D01*
X1964Y509D01*
X1964Y507D01*
X1945Y507D01*
X1945Y509D01*
X1944Y509D01*
X1944Y511D01*
X1942Y511D01*
X1942Y519D01*
X1944Y519D01*
X1944Y520D01*
X1949Y520D01*
G37*
D02*
G36*
X1750Y516D02*
X1750Y514D01*
X1685Y514D01*
X1685Y516D01*
X1750Y516D01*
G37*
D02*
G36*
X1750Y516D02*
X1750Y514D01*
X1685Y514D01*
X1685Y516D01*
X1750Y516D01*
G37*
D02*
G36*
X1750Y514D02*
X1750Y512D01*
X1749Y512D01*
X1749Y511D01*
X1714Y511D01*
X1714Y509D01*
X1701Y509D01*
X1701Y511D01*
X1694Y511D01*
X1694Y512D01*
X1690Y512D01*
X1690Y514D01*
X1750Y514D01*
G37*
D02*
G36*
X1653Y514D02*
X1653Y512D01*
X1612Y512D01*
X1612Y514D01*
X1653Y514D01*
G37*
D02*
G36*
X1653Y514D02*
X1653Y512D01*
X1612Y512D01*
X1612Y514D01*
X1653Y514D01*
G37*
D02*
G36*
X1653Y514D02*
X1653Y512D01*
X1612Y512D01*
X1612Y514D01*
X1653Y514D01*
G37*
D02*
G36*
X1653Y512D02*
X1653Y511D01*
X1652Y511D01*
X1652Y509D01*
X1619Y509D01*
X1619Y507D01*
X1617Y507D01*
X1617Y506D01*
X1616Y506D01*
X1616Y502D01*
X1614Y502D01*
X1614Y501D01*
X1612Y501D01*
X1612Y496D01*
X1611Y496D01*
X1611Y493D01*
X1609Y493D01*
X1609Y481D01*
X1611Y481D01*
X1611Y475D01*
X1612Y475D01*
X1612Y470D01*
X1614Y470D01*
X1614Y466D01*
X1616Y466D01*
X1616Y463D01*
X1617Y463D01*
X1617Y461D01*
X1619Y461D01*
X1619Y458D01*
X1621Y458D01*
X1621Y457D01*
X1622Y457D01*
X1622Y453D01*
X1611Y453D01*
X1611Y458D01*
X1609Y458D01*
X1609Y465D01*
X1608Y465D01*
X1608Y466D01*
X1606Y466D01*
X1606Y468D01*
X1604Y468D01*
X1604Y478D01*
X1603Y478D01*
X1603Y481D01*
X1601Y481D01*
X1601Y493D01*
X1603Y493D01*
X1603Y498D01*
X1604Y498D01*
X1604Y502D01*
X1606Y502D01*
X1606Y504D01*
X1608Y504D01*
X1608Y507D01*
X1609Y507D01*
X1609Y509D01*
X1611Y509D01*
X1611Y512D01*
X1653Y512D01*
G37*
D02*
G36*
X1749Y511D02*
X1749Y507D01*
X1750Y507D01*
X1750Y504D01*
X1754Y504D01*
X1754Y501D01*
X1755Y501D01*
X1755Y499D01*
X1758Y499D01*
X1758Y498D01*
X1760Y498D01*
X1760Y496D01*
X1765Y496D01*
X1765Y494D01*
X1749Y494D01*
X1749Y496D01*
X1747Y496D01*
X1747Y498D01*
X1745Y498D01*
X1745Y499D01*
X1744Y499D01*
X1744Y502D01*
X1742Y502D01*
X1742Y506D01*
X1739Y506D01*
X1739Y509D01*
X1737Y509D01*
X1737Y511D01*
X1749Y511D01*
G37*
D02*
G36*
X1650Y509D02*
X1650Y507D01*
X1647Y507D01*
X1647Y504D01*
X1639Y504D01*
X1639Y502D01*
X1629Y502D01*
X1629Y504D01*
X1626Y504D01*
X1626Y507D01*
X1621Y507D01*
X1621Y509D01*
X1650Y509D01*
G37*
D02*
G36*
X1982Y507D02*
X1982Y506D01*
X1945Y506D01*
X1945Y507D01*
X1982Y507D01*
G37*
D02*
G36*
X1982Y507D02*
X1982Y506D01*
X1945Y506D01*
X1945Y507D01*
X1982Y507D01*
G37*
D02*
G36*
X1904Y507D02*
X1904Y504D01*
X1903Y504D01*
X1903Y496D01*
X1901Y496D01*
X1901Y491D01*
X1903Y491D01*
X1903Y488D01*
X1904Y488D01*
X1904Y486D01*
X1906Y486D01*
X1906Y484D01*
X1908Y484D01*
X1908Y483D01*
X1909Y483D01*
X1909Y481D01*
X1914Y481D01*
X1914Y479D01*
X1919Y479D01*
X1919Y478D01*
X1927Y478D01*
X1927Y476D01*
X1901Y476D01*
X1901Y478D01*
X1900Y478D01*
X1900Y479D01*
X1898Y479D01*
X1898Y483D01*
X1896Y483D01*
X1896Y484D01*
X1895Y484D01*
X1895Y486D01*
X1893Y486D01*
X1893Y491D01*
X1891Y491D01*
X1891Y493D01*
X1893Y493D01*
X1893Y496D01*
X1891Y496D01*
X1891Y499D01*
X1893Y499D01*
X1893Y507D01*
X1904Y507D01*
G37*
D02*
G36*
X1980Y506D02*
X1980Y504D01*
X1977Y504D01*
X1977Y502D01*
X1968Y502D01*
X1968Y501D01*
X1959Y501D01*
X1959Y499D01*
X1955Y499D01*
X1955Y498D01*
X1954Y498D01*
X1954Y494D01*
X1952Y494D01*
X1952Y491D01*
X1950Y491D01*
X1950Y486D01*
X1949Y486D01*
X1949Y481D01*
X1947Y481D01*
X1947Y479D01*
X1945Y479D01*
X1945Y476D01*
X1936Y476D01*
X1936Y478D01*
X1937Y478D01*
X1937Y483D01*
X1939Y483D01*
X1939Y486D01*
X1941Y486D01*
X1941Y493D01*
X1942Y493D01*
X1942Y496D01*
X1944Y496D01*
X1944Y499D01*
X1945Y499D01*
X1945Y504D01*
X1947Y504D01*
X1947Y506D01*
X1980Y506D01*
G37*
D02*
G36*
X1829Y506D02*
X1829Y504D01*
X1826Y504D01*
X1826Y506D01*
X1829Y506D01*
G37*
D02*
G36*
X1880Y504D02*
X1880Y502D01*
X1814Y502D01*
X1814Y504D01*
X1880Y504D01*
G37*
D02*
G36*
X1880Y504D02*
X1880Y502D01*
X1814Y502D01*
X1814Y504D01*
X1880Y504D01*
G37*
D02*
G36*
X1880Y504D02*
X1880Y502D01*
X1814Y502D01*
X1814Y504D01*
X1880Y504D01*
G37*
D02*
G36*
X1649Y504D02*
X1649Y501D01*
X1650Y501D01*
X1650Y486D01*
X1649Y486D01*
X1649Y484D01*
X1647Y484D01*
X1647Y483D01*
X1645Y483D01*
X1645Y481D01*
X1642Y481D01*
X1642Y478D01*
X1640Y478D01*
X1640Y476D01*
X1639Y476D01*
X1639Y475D01*
X1637Y475D01*
X1637Y471D01*
X1635Y471D01*
X1635Y460D01*
X1626Y460D01*
X1626Y466D01*
X1627Y466D01*
X1627Y473D01*
X1629Y473D01*
X1629Y476D01*
X1630Y476D01*
X1630Y479D01*
X1632Y479D01*
X1632Y481D01*
X1634Y481D01*
X1634Y483D01*
X1635Y483D01*
X1635Y484D01*
X1637Y484D01*
X1637Y486D01*
X1639Y486D01*
X1639Y488D01*
X1642Y488D01*
X1642Y493D01*
X1644Y493D01*
X1644Y498D01*
X1642Y498D01*
X1642Y504D01*
X1649Y504D01*
G37*
D02*
G36*
X1972Y502D02*
X1972Y501D01*
X1970Y501D01*
X1970Y502D01*
X1972Y502D01*
G37*
D02*
G36*
X1875Y502D02*
X1875Y501D01*
X1872Y501D01*
X1872Y499D01*
X1859Y499D01*
X1859Y498D01*
X1850Y498D01*
X1850Y496D01*
X1829Y496D01*
X1829Y494D01*
X1827Y494D01*
X1827Y491D01*
X1826Y491D01*
X1826Y484D01*
X1824Y484D01*
X1824Y483D01*
X1804Y483D01*
X1804Y484D01*
X1809Y484D01*
X1809Y486D01*
X1813Y486D01*
X1813Y488D01*
X1816Y488D01*
X1816Y489D01*
X1818Y489D01*
X1818Y494D01*
X1819Y494D01*
X1819Y499D01*
X1818Y499D01*
X1818Y501D01*
X1816Y501D01*
X1816Y502D01*
X1875Y502D01*
G37*
D02*
G36*
X1785Y494D02*
X1785Y493D01*
X1752Y493D01*
X1752Y494D01*
X1785Y494D01*
G37*
D02*
G36*
X1785Y494D02*
X1785Y493D01*
X1752Y493D01*
X1752Y494D01*
X1785Y494D01*
G37*
D02*
G36*
X1786Y493D02*
X1786Y491D01*
X1788Y491D01*
X1788Y489D01*
X1790Y489D01*
X1790Y488D01*
X1791Y488D01*
X1791Y486D01*
X1796Y486D01*
X1796Y484D01*
X1762Y484D01*
X1762Y486D01*
X1760Y486D01*
X1760Y488D01*
X1758Y488D01*
X1758Y489D01*
X1757Y489D01*
X1757Y491D01*
X1755Y491D01*
X1755Y493D01*
X1786Y493D01*
G37*
D02*
G36*
X1799Y486D02*
X1799Y484D01*
X1798Y484D01*
X1798Y486D01*
X1799Y486D01*
G37*
D02*
G36*
X1801Y484D02*
X1801Y483D01*
X1778Y483D01*
X1778Y484D01*
X1801Y484D01*
G37*
D02*
G36*
X1801Y484D02*
X1801Y483D01*
X1778Y483D01*
X1778Y484D01*
X1801Y484D01*
G37*
D02*
G36*
X1821Y483D02*
X1821Y481D01*
X1783Y481D01*
X1783Y483D01*
X1821Y483D01*
G37*
D02*
G36*
X1821Y483D02*
X1821Y481D01*
X1783Y481D01*
X1783Y483D01*
X1821Y483D01*
G37*
D02*
G36*
X1816Y481D02*
X1816Y479D01*
X1813Y479D01*
X1813Y478D01*
X1811Y478D01*
X1811Y476D01*
X1808Y476D01*
X1808Y475D01*
X1796Y475D01*
X1796Y478D01*
X1791Y478D01*
X1791Y479D01*
X1785Y479D01*
X1785Y481D01*
X1816Y481D01*
G37*
D02*
G36*
X1944Y476D02*
X1944Y475D01*
X1903Y475D01*
X1903Y476D01*
X1944Y476D01*
G37*
D02*
G36*
X1944Y476D02*
X1944Y475D01*
X1903Y475D01*
X1903Y476D01*
X1944Y476D01*
G37*
D02*
G36*
X1941Y475D02*
X1941Y468D01*
X1919Y468D01*
X1919Y466D01*
X1918Y466D01*
X1918Y463D01*
X1916Y463D01*
X1916Y461D01*
X1918Y461D01*
X1918Y452D01*
X1916Y452D01*
X1916Y440D01*
X1918Y440D01*
X1918Y437D01*
X1919Y437D01*
X1919Y434D01*
X1909Y434D01*
X1909Y435D01*
X1908Y435D01*
X1908Y438D01*
X1906Y438D01*
X1906Y447D01*
X1904Y447D01*
X1904Y448D01*
X1906Y448D01*
X1906Y463D01*
X1908Y463D01*
X1908Y473D01*
X1904Y473D01*
X1904Y475D01*
X1941Y475D01*
G37*
D02*
G36*
X1939Y468D02*
X1939Y466D01*
X1931Y466D01*
X1931Y465D01*
X1927Y465D01*
X1927Y468D01*
X1939Y468D01*
G37*
D02*
G36*
X1667Y463D02*
X1667Y461D01*
X1670Y461D01*
X1670Y460D01*
X1639Y460D01*
X1639Y461D01*
X1653Y461D01*
X1653Y463D01*
X1667Y463D01*
G37*
D02*
G36*
X1591Y461D02*
X1591Y460D01*
X1594Y460D01*
X1594Y458D01*
X1601Y458D01*
X1601Y457D01*
X1604Y457D01*
X1604Y455D01*
X1608Y455D01*
X1608Y453D01*
X1585Y453D01*
X1585Y450D01*
X1583Y450D01*
X1583Y448D01*
X1585Y448D01*
X1585Y445D01*
X1589Y445D01*
X1589Y443D01*
X1593Y443D01*
X1593Y442D01*
X1576Y442D01*
X1576Y448D01*
X1575Y448D01*
X1575Y453D01*
X1576Y453D01*
X1576Y457D01*
X1578Y457D01*
X1578Y458D01*
X1580Y458D01*
X1580Y460D01*
X1581Y460D01*
X1581Y461D01*
X1591Y461D01*
G37*
D02*
G36*
X1670Y460D02*
X1670Y458D01*
X1626Y458D01*
X1626Y460D01*
X1670Y460D01*
G37*
D02*
G36*
X1670Y460D02*
X1670Y458D01*
X1626Y458D01*
X1626Y460D01*
X1670Y460D01*
G37*
D02*
G36*
X1670Y458D02*
X1670Y455D01*
X1647Y455D01*
X1647Y453D01*
X1650Y453D01*
X1650Y452D01*
X1627Y452D01*
X1627Y457D01*
X1626Y457D01*
X1626Y458D01*
X1670Y458D01*
G37*
D02*
G36*
X1670Y455D02*
X1670Y452D01*
X1655Y452D01*
X1655Y453D01*
X1657Y453D01*
X1657Y455D01*
X1670Y455D01*
G37*
D02*
G36*
X1624Y453D02*
X1624Y452D01*
X1593Y452D01*
X1593Y453D01*
X1624Y453D01*
G37*
D02*
G36*
X1624Y453D02*
X1624Y452D01*
X1593Y452D01*
X1593Y453D01*
X1624Y453D01*
G37*
D02*
G36*
X1668Y452D02*
X1668Y450D01*
X1629Y450D01*
X1629Y452D01*
X1668Y452D01*
G37*
D02*
G36*
X1668Y452D02*
X1668Y450D01*
X1629Y450D01*
X1629Y452D01*
X1668Y452D01*
G37*
D02*
G36*
X1624Y452D02*
X1624Y442D01*
X1606Y442D01*
X1606Y445D01*
X1603Y445D01*
X1603Y447D01*
X1601Y447D01*
X1601Y448D01*
X1598Y448D01*
X1598Y450D01*
X1594Y450D01*
X1594Y452D01*
X1624Y452D01*
G37*
D02*
G36*
X1667Y450D02*
X1667Y448D01*
X1665Y448D01*
X1665Y447D01*
X1663Y447D01*
X1663Y445D01*
X1658Y445D01*
X1658Y443D01*
X1644Y443D01*
X1644Y445D01*
X1639Y445D01*
X1639Y447D01*
X1634Y447D01*
X1634Y448D01*
X1632Y448D01*
X1632Y450D01*
X1667Y450D01*
G37*
D02*
G36*
X1596Y443D02*
X1596Y442D01*
X1594Y442D01*
X1594Y443D01*
X1596Y443D01*
G37*
D02*
G36*
X1959Y442D02*
X1959Y440D01*
X1962Y440D01*
X1962Y438D01*
X1965Y438D01*
X1965Y435D01*
X1967Y435D01*
X1967Y425D01*
X1952Y425D01*
X1952Y427D01*
X1954Y427D01*
X1954Y429D01*
X1955Y429D01*
X1955Y430D01*
X1957Y430D01*
X1957Y432D01*
X1955Y432D01*
X1955Y434D01*
X1927Y434D01*
X1927Y435D01*
X1932Y435D01*
X1932Y437D01*
X1937Y437D01*
X1937Y438D01*
X1941Y438D01*
X1941Y440D01*
X1947Y440D01*
X1947Y442D01*
X1959Y442D01*
G37*
D02*
G36*
X1622Y442D02*
X1622Y440D01*
X1578Y440D01*
X1578Y442D01*
X1622Y442D01*
G37*
D02*
G36*
X1622Y442D02*
X1622Y440D01*
X1578Y440D01*
X1578Y442D01*
X1622Y442D01*
G37*
D02*
G36*
X1622Y442D02*
X1622Y440D01*
X1578Y440D01*
X1578Y442D01*
X1622Y442D01*
G37*
D02*
G36*
X1619Y440D02*
X1619Y438D01*
X1617Y438D01*
X1617Y437D01*
X1612Y437D01*
X1612Y435D01*
X1596Y435D01*
X1596Y434D01*
X1594Y434D01*
X1594Y435D01*
X1588Y435D01*
X1588Y437D01*
X1585Y437D01*
X1585Y438D01*
X1580Y438D01*
X1580Y440D01*
X1619Y440D01*
G37*
D02*
G36*
X1947Y434D02*
X1947Y432D01*
X1909Y432D01*
X1909Y434D01*
X1947Y434D01*
G37*
D02*
G36*
X1947Y434D02*
X1947Y432D01*
X1909Y432D01*
X1909Y434D01*
X1947Y434D01*
G37*
D02*
G36*
X1945Y432D02*
X1945Y430D01*
X1942Y430D01*
X1942Y429D01*
X1941Y429D01*
X1941Y427D01*
X1937Y427D01*
X1937Y425D01*
X1929Y425D01*
X1929Y424D01*
X1927Y424D01*
X1927Y422D01*
X1926Y422D01*
X1926Y420D01*
X1927Y420D01*
X1927Y419D01*
X1929Y419D01*
X1929Y417D01*
X1918Y417D01*
X1918Y419D01*
X1916Y419D01*
X1916Y420D01*
X1914Y420D01*
X1914Y422D01*
X1916Y422D01*
X1916Y424D01*
X1914Y424D01*
X1914Y425D01*
X1913Y425D01*
X1913Y429D01*
X1911Y429D01*
X1911Y430D01*
X1909Y430D01*
X1909Y432D01*
X1945Y432D01*
G37*
D02*
G36*
X1950Y427D02*
X1950Y425D01*
X1949Y425D01*
X1949Y427D01*
X1950Y427D01*
G37*
D02*
G36*
X1965Y425D02*
X1965Y424D01*
X1949Y424D01*
X1949Y425D01*
X1965Y425D01*
G37*
D02*
G36*
X1965Y425D02*
X1965Y424D01*
X1949Y424D01*
X1949Y425D01*
X1965Y425D01*
G37*
D02*
G36*
X1964Y424D02*
X1964Y422D01*
X1960Y422D01*
X1960Y420D01*
X1959Y420D01*
X1959Y419D01*
X1954Y419D01*
X1954Y417D01*
X1936Y417D01*
X1936Y419D01*
X1941Y419D01*
X1941Y420D01*
X1945Y420D01*
X1945Y422D01*
X1947Y422D01*
X1947Y424D01*
X1964Y424D01*
G37*
D02*
G36*
X1950Y417D02*
X1950Y416D01*
X1918Y416D01*
X1918Y417D01*
X1950Y417D01*
G37*
D02*
G36*
X1950Y417D02*
X1950Y416D01*
X1918Y416D01*
X1918Y417D01*
X1950Y417D01*
G37*
D02*
G36*
X1947Y416D02*
X1947Y414D01*
X1944Y414D01*
X1944Y412D01*
X1942Y412D01*
X1942Y411D01*
X1937Y411D01*
X1937Y409D01*
X1924Y409D01*
X1924Y411D01*
X1921Y411D01*
X1921Y412D01*
X1919Y412D01*
X1919Y414D01*
X1918Y414D01*
X1918Y416D01*
X1947Y416D01*
G37*
D02*
G54D12*
X303Y1121D02*
X308Y1121D01*
X1353Y1121D02*
X1359Y1121D01*
X302Y1120D02*
X309Y1120D01*
X1352Y1120D02*
X1360Y1120D01*
X214Y1119D02*
X229Y1119D01*
X301Y1119D02*
X309Y1119D01*
X338Y1119D02*
X357Y1119D01*
X382Y1119D02*
X401Y1119D01*
X425Y1119D02*
X448Y1119D01*
X467Y1119D02*
X467Y1119D01*
X519Y1119D02*
X537Y1119D01*
X554Y1119D02*
X565Y1119D01*
X603Y1119D02*
X625Y1119D01*
X841Y1119D02*
X842Y1119D01*
X910Y1119D02*
X931Y1119D01*
X948Y1119D02*
X949Y1119D01*
X1191Y1119D02*
X1192Y1119D01*
X1279Y1119D02*
X1279Y1119D01*
X1352Y1119D02*
X1360Y1119D01*
X214Y1118D02*
X230Y1118D01*
X301Y1118D02*
X309Y1118D01*
X336Y1118D02*
X359Y1118D01*
X380Y1118D02*
X403Y1118D01*
X423Y1118D02*
X449Y1118D01*
X465Y1118D02*
X469Y1118D01*
X515Y1118D02*
X537Y1118D01*
X553Y1118D02*
X568Y1118D01*
X601Y1118D02*
X625Y1118D01*
X839Y1118D02*
X843Y1118D01*
X907Y1118D02*
X931Y1118D01*
X947Y1118D02*
X950Y1118D01*
X1190Y1118D02*
X1193Y1118D01*
X1277Y1118D02*
X1281Y1118D01*
X1352Y1118D02*
X1360Y1118D01*
X214Y1117D02*
X231Y1117D01*
X301Y1117D02*
X309Y1117D01*
X335Y1117D02*
X361Y1117D01*
X378Y1117D02*
X404Y1117D01*
X422Y1117D02*
X450Y1117D01*
X465Y1117D02*
X470Y1117D01*
X514Y1117D02*
X537Y1117D01*
X552Y1117D02*
X569Y1117D01*
X599Y1117D02*
X625Y1117D01*
X839Y1117D02*
X844Y1117D01*
X906Y1117D02*
X931Y1117D01*
X946Y1117D02*
X951Y1117D01*
X1189Y1117D02*
X1194Y1117D01*
X1277Y1117D02*
X1281Y1117D01*
X1352Y1117D02*
X1360Y1117D01*
X214Y1116D02*
X231Y1116D01*
X301Y1116D02*
X309Y1116D01*
X334Y1116D02*
X361Y1116D01*
X378Y1116D02*
X405Y1116D01*
X422Y1116D02*
X450Y1116D01*
X464Y1116D02*
X470Y1116D01*
X512Y1116D02*
X537Y1116D01*
X552Y1116D02*
X570Y1116D01*
X598Y1116D02*
X625Y1116D01*
X839Y1116D02*
X844Y1116D01*
X904Y1116D02*
X931Y1116D01*
X946Y1116D02*
X952Y1116D01*
X1189Y1116D02*
X1194Y1116D01*
X1276Y1116D02*
X1281Y1116D01*
X1315Y1116D02*
X1318Y1116D01*
X1352Y1116D02*
X1360Y1116D01*
X214Y1115D02*
X231Y1115D01*
X302Y1115D02*
X309Y1115D01*
X333Y1115D02*
X362Y1115D01*
X377Y1115D02*
X406Y1115D01*
X421Y1115D02*
X450Y1115D01*
X465Y1115D02*
X471Y1115D01*
X511Y1115D02*
X537Y1115D01*
X552Y1115D02*
X571Y1115D01*
X597Y1115D02*
X625Y1115D01*
X839Y1115D02*
X844Y1115D01*
X904Y1115D02*
X931Y1115D01*
X946Y1115D02*
X952Y1115D01*
X1189Y1115D02*
X1194Y1115D01*
X1276Y1115D02*
X1282Y1115D01*
X1315Y1115D02*
X1319Y1115D01*
X1352Y1115D02*
X1360Y1115D01*
X214Y1114D02*
X230Y1114D01*
X302Y1114D02*
X309Y1114D01*
X333Y1114D02*
X362Y1114D01*
X377Y1114D02*
X406Y1114D01*
X421Y1114D02*
X449Y1114D01*
X465Y1114D02*
X471Y1114D01*
X511Y1114D02*
X537Y1114D01*
X553Y1114D02*
X572Y1114D01*
X597Y1114D02*
X625Y1114D01*
X839Y1114D02*
X844Y1114D01*
X903Y1114D02*
X931Y1114D01*
X947Y1114D02*
X953Y1114D01*
X1189Y1114D02*
X1194Y1114D01*
X1276Y1114D02*
X1282Y1114D01*
X1314Y1114D02*
X1319Y1114D01*
X1353Y1114D02*
X1359Y1114D01*
X214Y1113D02*
X219Y1113D01*
X333Y1113D02*
X339Y1113D01*
X357Y1113D02*
X362Y1113D01*
X377Y1113D02*
X382Y1113D01*
X400Y1113D02*
X406Y1113D01*
X421Y1113D02*
X426Y1113D01*
X466Y1113D02*
X472Y1113D01*
X510Y1113D02*
X519Y1113D01*
X532Y1113D02*
X537Y1113D01*
X564Y1113D02*
X572Y1113D01*
X596Y1113D02*
X604Y1113D01*
X619Y1113D02*
X625Y1113D01*
X839Y1113D02*
X844Y1113D01*
X903Y1113D02*
X910Y1113D01*
X926Y1113D02*
X931Y1113D01*
X947Y1113D02*
X953Y1113D01*
X1189Y1113D02*
X1194Y1113D01*
X1276Y1113D02*
X1282Y1113D01*
X1314Y1113D02*
X1319Y1113D01*
X214Y1112D02*
X219Y1112D01*
X333Y1112D02*
X338Y1112D01*
X357Y1112D02*
X362Y1112D01*
X377Y1112D02*
X382Y1112D01*
X401Y1112D02*
X406Y1112D01*
X421Y1112D02*
X426Y1112D01*
X466Y1112D02*
X472Y1112D01*
X509Y1112D02*
X516Y1112D01*
X532Y1112D02*
X537Y1112D01*
X566Y1112D02*
X573Y1112D01*
X596Y1112D02*
X602Y1112D01*
X620Y1112D02*
X625Y1112D01*
X839Y1112D02*
X844Y1112D01*
X902Y1112D02*
X908Y1112D01*
X926Y1112D02*
X931Y1112D01*
X948Y1112D02*
X954Y1112D01*
X1189Y1112D02*
X1194Y1112D01*
X1276Y1112D02*
X1282Y1112D01*
X1314Y1112D02*
X1319Y1112D01*
X214Y1111D02*
X219Y1111D01*
X333Y1111D02*
X338Y1111D01*
X357Y1111D02*
X362Y1111D01*
X377Y1111D02*
X382Y1111D01*
X401Y1111D02*
X406Y1111D01*
X421Y1111D02*
X426Y1111D01*
X467Y1111D02*
X473Y1111D01*
X509Y1111D02*
X515Y1111D01*
X532Y1111D02*
X537Y1111D01*
X567Y1111D02*
X574Y1111D01*
X596Y1111D02*
X601Y1111D01*
X620Y1111D02*
X625Y1111D01*
X839Y1111D02*
X844Y1111D01*
X902Y1111D02*
X907Y1111D01*
X926Y1111D02*
X931Y1111D01*
X948Y1111D02*
X955Y1111D01*
X1189Y1111D02*
X1194Y1111D01*
X1276Y1111D02*
X1282Y1111D01*
X1314Y1111D02*
X1319Y1111D01*
X214Y1110D02*
X219Y1110D01*
X333Y1110D02*
X338Y1110D01*
X357Y1110D02*
X362Y1110D01*
X377Y1110D02*
X382Y1110D01*
X401Y1110D02*
X406Y1110D01*
X421Y1110D02*
X426Y1110D01*
X467Y1110D02*
X474Y1110D01*
X509Y1110D02*
X514Y1110D01*
X532Y1110D02*
X537Y1110D01*
X568Y1110D02*
X575Y1110D01*
X596Y1110D02*
X601Y1110D01*
X620Y1110D02*
X625Y1110D01*
X839Y1110D02*
X844Y1110D01*
X902Y1110D02*
X907Y1110D01*
X926Y1110D02*
X931Y1110D01*
X949Y1110D02*
X955Y1110D01*
X1189Y1110D02*
X1194Y1110D01*
X1276Y1110D02*
X1282Y1110D01*
X1314Y1110D02*
X1319Y1110D01*
X214Y1109D02*
X219Y1109D01*
X333Y1109D02*
X338Y1109D01*
X357Y1109D02*
X362Y1109D01*
X377Y1109D02*
X382Y1109D01*
X401Y1109D02*
X406Y1109D01*
X421Y1109D02*
X426Y1109D01*
X468Y1109D02*
X474Y1109D01*
X508Y1109D02*
X514Y1109D01*
X532Y1109D02*
X537Y1109D01*
X569Y1109D02*
X575Y1109D01*
X596Y1109D02*
X601Y1109D01*
X620Y1109D02*
X625Y1109D01*
X839Y1109D02*
X844Y1109D01*
X902Y1109D02*
X907Y1109D01*
X926Y1109D02*
X931Y1109D01*
X950Y1109D02*
X956Y1109D01*
X1189Y1109D02*
X1194Y1109D01*
X1276Y1109D02*
X1282Y1109D01*
X1314Y1109D02*
X1319Y1109D01*
X214Y1108D02*
X219Y1108D01*
X333Y1108D02*
X338Y1108D01*
X357Y1108D02*
X362Y1108D01*
X377Y1108D02*
X382Y1108D01*
X401Y1108D02*
X406Y1108D01*
X421Y1108D02*
X426Y1108D01*
X469Y1108D02*
X475Y1108D01*
X508Y1108D02*
X513Y1108D01*
X532Y1108D02*
X537Y1108D01*
X569Y1108D02*
X576Y1108D01*
X596Y1108D02*
X601Y1108D01*
X620Y1108D02*
X625Y1108D01*
X839Y1108D02*
X844Y1108D01*
X902Y1108D02*
X907Y1108D01*
X926Y1108D02*
X931Y1108D01*
X950Y1108D02*
X956Y1108D01*
X1189Y1108D02*
X1194Y1108D01*
X1276Y1108D02*
X1282Y1108D01*
X1314Y1108D02*
X1319Y1108D01*
X214Y1107D02*
X219Y1107D01*
X333Y1107D02*
X338Y1107D01*
X357Y1107D02*
X362Y1107D01*
X377Y1107D02*
X382Y1107D01*
X401Y1107D02*
X406Y1107D01*
X421Y1107D02*
X426Y1107D01*
X469Y1107D02*
X475Y1107D01*
X508Y1107D02*
X513Y1107D01*
X532Y1107D02*
X537Y1107D01*
X570Y1107D02*
X577Y1107D01*
X596Y1107D02*
X601Y1107D01*
X620Y1107D02*
X625Y1107D01*
X839Y1107D02*
X844Y1107D01*
X902Y1107D02*
X907Y1107D01*
X926Y1107D02*
X931Y1107D01*
X951Y1107D02*
X957Y1107D01*
X1189Y1107D02*
X1194Y1107D01*
X1276Y1107D02*
X1282Y1107D01*
X1314Y1107D02*
X1319Y1107D01*
X214Y1106D02*
X219Y1106D01*
X253Y1106D02*
X260Y1106D01*
X271Y1106D02*
X273Y1106D01*
X303Y1106D02*
X314Y1106D01*
X333Y1106D02*
X338Y1106D01*
X357Y1106D02*
X362Y1106D01*
X377Y1106D02*
X382Y1106D01*
X401Y1106D02*
X406Y1106D01*
X421Y1106D02*
X426Y1106D01*
X470Y1106D02*
X476Y1106D01*
X508Y1106D02*
X513Y1106D01*
X532Y1106D02*
X537Y1106D01*
X571Y1106D02*
X578Y1106D01*
X596Y1106D02*
X601Y1106D01*
X620Y1106D02*
X625Y1106D01*
X647Y1106D02*
X661Y1106D01*
X685Y1106D02*
X700Y1106D01*
X729Y1106D02*
X744Y1106D01*
X780Y1106D02*
X791Y1106D01*
X824Y1106D02*
X832Y1106D01*
X839Y1106D02*
X844Y1106D01*
X867Y1106D02*
X879Y1106D01*
X902Y1106D02*
X907Y1106D01*
X926Y1106D02*
X931Y1106D01*
X951Y1106D02*
X957Y1106D01*
X996Y1106D02*
X997Y1106D01*
X1007Y1106D02*
X1010Y1106D01*
X1016Y1106D02*
X1018Y1106D01*
X1042Y1106D02*
X1054Y1106D01*
X1079Y1106D02*
X1094Y1106D01*
X1174Y1106D02*
X1182Y1106D01*
X1189Y1106D02*
X1194Y1106D01*
X1210Y1106D02*
X1212Y1106D01*
X1234Y1106D02*
X1236Y1106D01*
X1260Y1106D02*
X1267Y1106D01*
X1276Y1106D02*
X1282Y1106D01*
X1301Y1106D02*
X1323Y1106D01*
X1354Y1106D02*
X1364Y1106D01*
X1385Y1106D02*
X1387Y1106D01*
X1396Y1106D02*
X1404Y1106D01*
X214Y1105D02*
X219Y1105D01*
X251Y1105D02*
X262Y1105D01*
X270Y1105D02*
X274Y1105D01*
X302Y1105D02*
X315Y1105D01*
X333Y1105D02*
X338Y1105D01*
X357Y1105D02*
X362Y1105D01*
X377Y1105D02*
X382Y1105D01*
X401Y1105D02*
X406Y1105D01*
X421Y1105D02*
X426Y1105D01*
X470Y1105D02*
X477Y1105D01*
X508Y1105D02*
X513Y1105D01*
X532Y1105D02*
X537Y1105D01*
X572Y1105D02*
X579Y1105D01*
X596Y1105D02*
X602Y1105D01*
X620Y1105D02*
X625Y1105D01*
X645Y1105D02*
X662Y1105D01*
X684Y1105D02*
X703Y1105D01*
X728Y1105D02*
X747Y1105D01*
X777Y1105D02*
X793Y1105D01*
X821Y1105D02*
X834Y1105D01*
X839Y1105D02*
X844Y1105D01*
X865Y1105D02*
X881Y1105D01*
X902Y1105D02*
X908Y1105D01*
X926Y1105D02*
X931Y1105D01*
X952Y1105D02*
X958Y1105D01*
X994Y1105D02*
X1000Y1105D01*
X1005Y1105D02*
X1012Y1105D01*
X1015Y1105D02*
X1019Y1105D01*
X1040Y1105D02*
X1056Y1105D01*
X1078Y1105D02*
X1097Y1105D01*
X1171Y1105D02*
X1184Y1105D01*
X1189Y1105D02*
X1194Y1105D01*
X1209Y1105D02*
X1213Y1105D01*
X1233Y1105D02*
X1237Y1105D01*
X1258Y1105D02*
X1269Y1105D01*
X1276Y1105D02*
X1282Y1105D01*
X1300Y1105D02*
X1325Y1105D01*
X1353Y1105D02*
X1365Y1105D01*
X1384Y1105D02*
X1388Y1105D01*
X1393Y1105D02*
X1406Y1105D01*
X214Y1104D02*
X219Y1104D01*
X249Y1104D02*
X264Y1104D01*
X270Y1104D02*
X275Y1104D01*
X301Y1104D02*
X315Y1104D01*
X333Y1104D02*
X338Y1104D01*
X357Y1104D02*
X362Y1104D01*
X377Y1104D02*
X382Y1104D01*
X401Y1104D02*
X406Y1104D01*
X421Y1104D02*
X426Y1104D01*
X471Y1104D02*
X477Y1104D01*
X508Y1104D02*
X513Y1104D01*
X532Y1104D02*
X537Y1104D01*
X573Y1104D02*
X579Y1104D01*
X596Y1104D02*
X603Y1104D01*
X620Y1104D02*
X625Y1104D01*
X643Y1104D02*
X662Y1104D01*
X683Y1104D02*
X704Y1104D01*
X727Y1104D02*
X748Y1104D01*
X776Y1104D02*
X795Y1104D01*
X820Y1104D02*
X836Y1104D01*
X839Y1104D02*
X844Y1104D01*
X864Y1104D02*
X882Y1104D01*
X903Y1104D02*
X909Y1104D01*
X926Y1104D02*
X931Y1104D01*
X953Y1104D02*
X959Y1104D01*
X992Y1104D02*
X1002Y1104D01*
X1004Y1104D02*
X1019Y1104D01*
X1039Y1104D02*
X1057Y1104D01*
X1077Y1104D02*
X1098Y1104D01*
X1170Y1104D02*
X1186Y1104D01*
X1189Y1104D02*
X1194Y1104D01*
X1209Y1104D02*
X1214Y1104D01*
X1233Y1104D02*
X1238Y1104D01*
X1256Y1104D02*
X1271Y1104D01*
X1276Y1104D02*
X1282Y1104D01*
X1299Y1104D02*
X1325Y1104D01*
X1352Y1104D02*
X1366Y1104D01*
X1384Y1104D02*
X1389Y1104D01*
X1392Y1104D02*
X1408Y1104D01*
X214Y1103D02*
X219Y1103D01*
X248Y1103D02*
X266Y1103D01*
X270Y1103D02*
X275Y1103D01*
X301Y1103D02*
X315Y1103D01*
X333Y1103D02*
X338Y1103D01*
X357Y1103D02*
X362Y1103D01*
X377Y1103D02*
X382Y1103D01*
X401Y1103D02*
X406Y1103D01*
X421Y1103D02*
X426Y1103D01*
X472Y1103D02*
X478Y1103D01*
X508Y1103D02*
X514Y1103D01*
X532Y1103D02*
X537Y1103D01*
X573Y1103D02*
X580Y1103D01*
X597Y1103D02*
X625Y1103D01*
X642Y1103D02*
X663Y1103D01*
X683Y1103D02*
X706Y1103D01*
X727Y1103D02*
X749Y1103D01*
X775Y1103D02*
X796Y1103D01*
X819Y1103D02*
X844Y1103D01*
X862Y1103D02*
X883Y1103D01*
X903Y1103D02*
X931Y1103D01*
X953Y1103D02*
X959Y1103D01*
X991Y1103D02*
X1019Y1103D01*
X1038Y1103D02*
X1059Y1103D01*
X1077Y1103D02*
X1100Y1103D01*
X1169Y1103D02*
X1187Y1103D01*
X1189Y1103D02*
X1194Y1103D01*
X1209Y1103D02*
X1214Y1103D01*
X1233Y1103D02*
X1238Y1103D01*
X1255Y1103D02*
X1273Y1103D01*
X1276Y1103D02*
X1282Y1103D01*
X1299Y1103D02*
X1325Y1103D01*
X1352Y1103D02*
X1366Y1103D01*
X1384Y1103D02*
X1389Y1103D01*
X1391Y1103D02*
X1409Y1103D01*
X214Y1102D02*
X219Y1102D01*
X248Y1102D02*
X267Y1102D01*
X270Y1102D02*
X275Y1102D01*
X301Y1102D02*
X315Y1102D01*
X333Y1102D02*
X338Y1102D01*
X357Y1102D02*
X362Y1102D01*
X377Y1102D02*
X382Y1102D01*
X401Y1102D02*
X406Y1102D01*
X421Y1102D02*
X426Y1102D01*
X472Y1102D02*
X478Y1102D01*
X508Y1102D02*
X514Y1102D01*
X532Y1102D02*
X537Y1102D01*
X574Y1102D02*
X580Y1102D01*
X597Y1102D02*
X625Y1102D01*
X642Y1102D02*
X662Y1102D01*
X684Y1102D02*
X707Y1102D01*
X727Y1102D02*
X750Y1102D01*
X774Y1102D02*
X797Y1102D01*
X818Y1102D02*
X844Y1102D01*
X861Y1102D02*
X885Y1102D01*
X904Y1102D02*
X931Y1102D01*
X954Y1102D02*
X960Y1102D01*
X991Y1102D02*
X1019Y1102D01*
X1036Y1102D02*
X1060Y1102D01*
X1078Y1102D02*
X1101Y1102D01*
X1168Y1102D02*
X1194Y1102D01*
X1209Y1102D02*
X1214Y1102D01*
X1233Y1102D02*
X1238Y1102D01*
X1254Y1102D02*
X1274Y1102D01*
X1276Y1102D02*
X1282Y1102D01*
X1300Y1102D02*
X1325Y1102D01*
X1352Y1102D02*
X1366Y1102D01*
X1384Y1102D02*
X1410Y1102D01*
X214Y1101D02*
X219Y1101D01*
X247Y1101D02*
X275Y1101D01*
X301Y1101D02*
X314Y1101D01*
X333Y1101D02*
X338Y1101D01*
X357Y1101D02*
X362Y1101D01*
X377Y1101D02*
X382Y1101D01*
X401Y1101D02*
X406Y1101D01*
X421Y1101D02*
X426Y1101D01*
X473Y1101D02*
X479Y1101D01*
X509Y1101D02*
X515Y1101D01*
X532Y1101D02*
X537Y1101D01*
X575Y1101D02*
X581Y1101D01*
X598Y1101D02*
X625Y1101D01*
X641Y1101D02*
X662Y1101D01*
X684Y1101D02*
X708Y1101D01*
X728Y1101D02*
X752Y1101D01*
X773Y1101D02*
X798Y1101D01*
X817Y1101D02*
X844Y1101D01*
X860Y1101D02*
X885Y1101D01*
X904Y1101D02*
X931Y1101D01*
X954Y1101D02*
X960Y1101D01*
X990Y1101D02*
X1019Y1101D01*
X1035Y1101D02*
X1060Y1101D01*
X1078Y1101D02*
X1102Y1101D01*
X1167Y1101D02*
X1194Y1101D01*
X1209Y1101D02*
X1214Y1101D01*
X1233Y1101D02*
X1238Y1101D01*
X1254Y1101D02*
X1282Y1101D01*
X1300Y1101D02*
X1324Y1101D01*
X1352Y1101D02*
X1365Y1101D01*
X1384Y1101D02*
X1411Y1101D01*
X214Y1100D02*
X219Y1100D01*
X247Y1100D02*
X253Y1100D01*
X260Y1100D02*
X275Y1100D01*
X301Y1100D02*
X307Y1100D01*
X333Y1100D02*
X338Y1100D01*
X357Y1100D02*
X362Y1100D01*
X377Y1100D02*
X382Y1100D01*
X401Y1100D02*
X406Y1100D01*
X421Y1100D02*
X426Y1100D01*
X473Y1100D02*
X479Y1100D01*
X509Y1100D02*
X516Y1100D01*
X532Y1100D02*
X537Y1100D01*
X575Y1100D02*
X581Y1100D01*
X599Y1100D02*
X625Y1100D01*
X641Y1100D02*
X647Y1100D01*
X700Y1100D02*
X709Y1100D01*
X744Y1100D02*
X753Y1100D01*
X772Y1100D02*
X780Y1100D01*
X791Y1100D02*
X799Y1100D01*
X816Y1100D02*
X824Y1100D01*
X831Y1100D02*
X844Y1100D01*
X860Y1100D02*
X868Y1100D01*
X878Y1100D02*
X886Y1100D01*
X905Y1100D02*
X931Y1100D01*
X955Y1100D02*
X961Y1100D01*
X990Y1100D02*
X996Y1100D01*
X998Y1100D02*
X1008Y1100D01*
X1010Y1100D02*
X1019Y1100D01*
X1035Y1100D02*
X1043Y1100D01*
X1053Y1100D02*
X1061Y1100D01*
X1094Y1100D02*
X1103Y1100D01*
X1166Y1100D02*
X1174Y1100D01*
X1182Y1100D02*
X1194Y1100D01*
X1209Y1100D02*
X1214Y1100D01*
X1233Y1100D02*
X1238Y1100D01*
X1254Y1100D02*
X1260Y1100D01*
X1267Y1100D02*
X1282Y1100D01*
X1314Y1100D02*
X1319Y1100D01*
X1352Y1100D02*
X1357Y1100D01*
X1384Y1100D02*
X1396Y1100D01*
X1404Y1100D02*
X1412Y1100D01*
X214Y1099D02*
X219Y1099D01*
X246Y1099D02*
X252Y1099D01*
X262Y1099D02*
X275Y1099D01*
X301Y1099D02*
X306Y1099D01*
X333Y1099D02*
X338Y1099D01*
X357Y1099D02*
X362Y1099D01*
X377Y1099D02*
X382Y1099D01*
X401Y1099D02*
X406Y1099D01*
X421Y1099D02*
X426Y1099D01*
X474Y1099D02*
X480Y1099D01*
X510Y1099D02*
X517Y1099D01*
X532Y1099D02*
X537Y1099D01*
X576Y1099D02*
X581Y1099D01*
X600Y1099D02*
X625Y1099D01*
X640Y1099D02*
X646Y1099D01*
X702Y1099D02*
X710Y1099D01*
X745Y1099D02*
X754Y1099D01*
X772Y1099D02*
X778Y1099D01*
X792Y1099D02*
X799Y1099D01*
X815Y1099D02*
X822Y1099D01*
X833Y1099D02*
X844Y1099D01*
X859Y1099D02*
X866Y1099D01*
X880Y1099D02*
X887Y1099D01*
X907Y1099D02*
X931Y1099D01*
X955Y1099D02*
X962Y1099D01*
X990Y1099D02*
X995Y1099D01*
X999Y1099D02*
X1007Y1099D01*
X1011Y1099D02*
X1019Y1099D01*
X1034Y1099D02*
X1041Y1099D01*
X1055Y1099D02*
X1062Y1099D01*
X1096Y1099D02*
X1104Y1099D01*
X1166Y1099D02*
X1173Y1099D01*
X1183Y1099D02*
X1194Y1099D01*
X1209Y1099D02*
X1214Y1099D01*
X1233Y1099D02*
X1238Y1099D01*
X1253Y1099D02*
X1259Y1099D01*
X1268Y1099D02*
X1282Y1099D01*
X1314Y1099D02*
X1319Y1099D01*
X1352Y1099D02*
X1357Y1099D01*
X1384Y1099D02*
X1395Y1099D01*
X1405Y1099D02*
X1412Y1099D01*
X214Y1098D02*
X219Y1098D01*
X246Y1098D02*
X252Y1098D01*
X263Y1098D02*
X275Y1098D01*
X301Y1098D02*
X306Y1098D01*
X333Y1098D02*
X338Y1098D01*
X357Y1098D02*
X362Y1098D01*
X377Y1098D02*
X382Y1098D01*
X401Y1098D02*
X406Y1098D01*
X421Y1098D02*
X446Y1098D01*
X474Y1098D02*
X481Y1098D01*
X510Y1098D02*
X537Y1098D01*
X576Y1098D02*
X581Y1098D01*
X602Y1098D02*
X625Y1098D01*
X640Y1098D02*
X646Y1098D01*
X703Y1098D02*
X711Y1098D01*
X747Y1098D02*
X755Y1098D01*
X771Y1098D02*
X777Y1098D01*
X793Y1098D02*
X799Y1098D01*
X815Y1098D02*
X821Y1098D01*
X834Y1098D02*
X844Y1098D01*
X859Y1098D02*
X865Y1098D01*
X881Y1098D02*
X887Y1098D01*
X909Y1098D02*
X931Y1098D01*
X956Y1098D02*
X962Y1098D01*
X990Y1098D02*
X995Y1098D01*
X1000Y1098D02*
X1007Y1098D01*
X1012Y1098D02*
X1019Y1098D01*
X1034Y1098D02*
X1040Y1098D01*
X1056Y1098D02*
X1062Y1098D01*
X1097Y1098D02*
X1105Y1098D01*
X1165Y1098D02*
X1171Y1098D01*
X1184Y1098D02*
X1194Y1098D01*
X1209Y1098D02*
X1214Y1098D01*
X1232Y1098D02*
X1238Y1098D01*
X1253Y1098D02*
X1258Y1098D01*
X1270Y1098D02*
X1282Y1098D01*
X1314Y1098D02*
X1319Y1098D01*
X1352Y1098D02*
X1357Y1098D01*
X1384Y1098D02*
X1393Y1098D01*
X1406Y1098D02*
X1412Y1098D01*
X214Y1097D02*
X219Y1097D01*
X246Y1097D02*
X251Y1097D01*
X265Y1097D02*
X275Y1097D01*
X301Y1097D02*
X306Y1097D01*
X333Y1097D02*
X338Y1097D01*
X357Y1097D02*
X362Y1097D01*
X377Y1097D02*
X382Y1097D01*
X401Y1097D02*
X406Y1097D01*
X421Y1097D02*
X448Y1097D01*
X475Y1097D02*
X481Y1097D01*
X511Y1097D02*
X537Y1097D01*
X576Y1097D02*
X581Y1097D01*
X608Y1097D02*
X614Y1097D01*
X620Y1097D02*
X625Y1097D01*
X640Y1097D02*
X645Y1097D01*
X704Y1097D02*
X711Y1097D01*
X748Y1097D02*
X755Y1097D01*
X771Y1097D02*
X776Y1097D01*
X794Y1097D02*
X800Y1097D01*
X815Y1097D02*
X820Y1097D01*
X835Y1097D02*
X844Y1097D01*
X859Y1097D02*
X864Y1097D01*
X882Y1097D02*
X887Y1097D01*
X914Y1097D02*
X921Y1097D01*
X926Y1097D02*
X931Y1097D01*
X957Y1097D02*
X963Y1097D01*
X990Y1097D02*
X995Y1097D01*
X1001Y1097D02*
X1007Y1097D01*
X1013Y1097D02*
X1019Y1097D01*
X1034Y1097D02*
X1039Y1097D01*
X1057Y1097D02*
X1062Y1097D01*
X1098Y1097D02*
X1105Y1097D01*
X1165Y1097D02*
X1171Y1097D01*
X1185Y1097D02*
X1194Y1097D01*
X1209Y1097D02*
X1214Y1097D01*
X1232Y1097D02*
X1238Y1097D01*
X1253Y1097D02*
X1258Y1097D01*
X1271Y1097D02*
X1282Y1097D01*
X1314Y1097D02*
X1319Y1097D01*
X1352Y1097D02*
X1357Y1097D01*
X1384Y1097D02*
X1392Y1097D01*
X1407Y1097D02*
X1413Y1097D01*
X214Y1096D02*
X219Y1096D01*
X246Y1096D02*
X251Y1096D01*
X266Y1096D02*
X275Y1096D01*
X301Y1096D02*
X306Y1096D01*
X333Y1096D02*
X338Y1096D01*
X357Y1096D02*
X362Y1096D01*
X377Y1096D02*
X382Y1096D01*
X401Y1096D02*
X406Y1096D01*
X421Y1096D02*
X448Y1096D01*
X476Y1096D02*
X482Y1096D01*
X512Y1096D02*
X537Y1096D01*
X576Y1096D02*
X581Y1096D01*
X607Y1096D02*
X614Y1096D01*
X620Y1096D02*
X625Y1096D01*
X640Y1096D02*
X645Y1096D01*
X705Y1096D02*
X712Y1096D01*
X749Y1096D02*
X756Y1096D01*
X771Y1096D02*
X776Y1096D01*
X795Y1096D02*
X800Y1096D01*
X815Y1096D02*
X820Y1096D01*
X836Y1096D02*
X844Y1096D01*
X858Y1096D02*
X864Y1096D01*
X882Y1096D02*
X887Y1096D01*
X914Y1096D02*
X920Y1096D01*
X926Y1096D02*
X931Y1096D01*
X957Y1096D02*
X963Y1096D01*
X990Y1096D02*
X995Y1096D01*
X1002Y1096D02*
X1007Y1096D01*
X1014Y1096D02*
X1019Y1096D01*
X1034Y1096D02*
X1039Y1096D01*
X1057Y1096D02*
X1063Y1096D01*
X1099Y1096D02*
X1106Y1096D01*
X1165Y1096D02*
X1170Y1096D01*
X1187Y1096D02*
X1194Y1096D01*
X1209Y1096D02*
X1214Y1096D01*
X1232Y1096D02*
X1237Y1096D01*
X1253Y1096D02*
X1258Y1096D01*
X1273Y1096D02*
X1282Y1096D01*
X1314Y1096D02*
X1319Y1096D01*
X1352Y1096D02*
X1357Y1096D01*
X1384Y1096D02*
X1391Y1096D01*
X1408Y1096D02*
X1413Y1096D01*
X214Y1095D02*
X219Y1095D01*
X246Y1095D02*
X251Y1095D01*
X268Y1095D02*
X275Y1095D01*
X301Y1095D02*
X306Y1095D01*
X333Y1095D02*
X338Y1095D01*
X357Y1095D02*
X362Y1095D01*
X377Y1095D02*
X382Y1095D01*
X401Y1095D02*
X406Y1095D01*
X422Y1095D02*
X449Y1095D01*
X476Y1095D02*
X482Y1095D01*
X512Y1095D02*
X537Y1095D01*
X576Y1095D02*
X581Y1095D01*
X607Y1095D02*
X613Y1095D01*
X620Y1095D02*
X625Y1095D01*
X640Y1095D02*
X645Y1095D01*
X706Y1095D02*
X712Y1095D01*
X750Y1095D02*
X756Y1095D01*
X771Y1095D02*
X776Y1095D01*
X795Y1095D02*
X800Y1095D01*
X815Y1095D02*
X820Y1095D01*
X838Y1095D02*
X844Y1095D01*
X858Y1095D02*
X863Y1095D01*
X882Y1095D02*
X888Y1095D01*
X913Y1095D02*
X919Y1095D01*
X926Y1095D02*
X931Y1095D01*
X958Y1095D02*
X964Y1095D01*
X990Y1095D02*
X995Y1095D01*
X1002Y1095D02*
X1007Y1095D01*
X1014Y1095D02*
X1019Y1095D01*
X1033Y1095D02*
X1039Y1095D01*
X1057Y1095D02*
X1063Y1095D01*
X1100Y1095D02*
X1106Y1095D01*
X1165Y1095D02*
X1170Y1095D01*
X1188Y1095D02*
X1194Y1095D01*
X1209Y1095D02*
X1214Y1095D01*
X1232Y1095D02*
X1237Y1095D01*
X1253Y1095D02*
X1258Y1095D01*
X1275Y1095D02*
X1282Y1095D01*
X1314Y1095D02*
X1319Y1095D01*
X1352Y1095D02*
X1357Y1095D01*
X1384Y1095D02*
X1390Y1095D01*
X1408Y1095D02*
X1413Y1095D01*
X214Y1094D02*
X219Y1094D01*
X246Y1094D02*
X251Y1094D01*
X269Y1094D02*
X275Y1094D01*
X301Y1094D02*
X306Y1094D01*
X333Y1094D02*
X338Y1094D01*
X357Y1094D02*
X362Y1094D01*
X377Y1094D02*
X382Y1094D01*
X401Y1094D02*
X406Y1094D01*
X423Y1094D02*
X450Y1094D01*
X477Y1094D02*
X483Y1094D01*
X511Y1094D02*
X537Y1094D01*
X576Y1094D02*
X581Y1094D01*
X606Y1094D02*
X612Y1094D01*
X620Y1094D02*
X625Y1094D01*
X640Y1094D02*
X645Y1094D01*
X707Y1094D02*
X712Y1094D01*
X751Y1094D02*
X756Y1094D01*
X771Y1094D02*
X776Y1094D01*
X795Y1094D02*
X800Y1094D01*
X815Y1094D02*
X820Y1094D01*
X838Y1094D02*
X844Y1094D01*
X858Y1094D02*
X863Y1094D01*
X882Y1094D02*
X888Y1094D01*
X913Y1094D02*
X919Y1094D01*
X926Y1094D02*
X931Y1094D01*
X958Y1094D02*
X964Y1094D01*
X990Y1094D02*
X995Y1094D01*
X1002Y1094D02*
X1007Y1094D01*
X1014Y1094D02*
X1019Y1094D01*
X1033Y1094D02*
X1039Y1094D01*
X1057Y1094D02*
X1063Y1094D01*
X1101Y1094D02*
X1106Y1094D01*
X1165Y1094D02*
X1170Y1094D01*
X1189Y1094D02*
X1194Y1094D01*
X1209Y1094D02*
X1214Y1094D01*
X1232Y1094D02*
X1237Y1094D01*
X1253Y1094D02*
X1258Y1094D01*
X1276Y1094D02*
X1282Y1094D01*
X1314Y1094D02*
X1319Y1094D01*
X1352Y1094D02*
X1357Y1094D01*
X1384Y1094D02*
X1389Y1094D01*
X1408Y1094D02*
X1413Y1094D01*
X203Y1093D02*
X205Y1093D01*
X214Y1093D02*
X219Y1093D01*
X246Y1093D02*
X251Y1093D01*
X270Y1093D02*
X275Y1093D01*
X301Y1093D02*
X306Y1093D01*
X333Y1093D02*
X338Y1093D01*
X357Y1093D02*
X362Y1093D01*
X377Y1093D02*
X382Y1093D01*
X401Y1093D02*
X406Y1093D01*
X424Y1093D02*
X450Y1093D01*
X477Y1093D02*
X484Y1093D01*
X510Y1093D02*
X537Y1093D01*
X552Y1093D02*
X565Y1093D01*
X576Y1093D02*
X581Y1093D01*
X606Y1093D02*
X612Y1093D01*
X620Y1093D02*
X625Y1093D01*
X640Y1093D02*
X663Y1093D01*
X707Y1093D02*
X712Y1093D01*
X751Y1093D02*
X756Y1093D01*
X771Y1093D02*
X776Y1093D01*
X795Y1093D02*
X800Y1093D01*
X815Y1093D02*
X820Y1093D01*
X839Y1093D02*
X844Y1093D01*
X858Y1093D02*
X863Y1093D01*
X882Y1093D02*
X888Y1093D01*
X912Y1093D02*
X918Y1093D01*
X926Y1093D02*
X931Y1093D01*
X959Y1093D02*
X965Y1093D01*
X990Y1093D02*
X995Y1093D01*
X1002Y1093D02*
X1007Y1093D01*
X1014Y1093D02*
X1019Y1093D01*
X1033Y1093D02*
X1039Y1093D01*
X1057Y1093D02*
X1063Y1093D01*
X1101Y1093D02*
X1106Y1093D01*
X1165Y1093D02*
X1170Y1093D01*
X1189Y1093D02*
X1194Y1093D01*
X1209Y1093D02*
X1214Y1093D01*
X1232Y1093D02*
X1237Y1093D01*
X1253Y1093D02*
X1258Y1093D01*
X1276Y1093D02*
X1282Y1093D01*
X1314Y1093D02*
X1319Y1093D01*
X1352Y1093D02*
X1357Y1093D01*
X1384Y1093D02*
X1389Y1093D01*
X1408Y1093D02*
X1413Y1093D01*
X202Y1092D02*
X206Y1092D01*
X214Y1092D02*
X219Y1092D01*
X246Y1092D02*
X251Y1092D01*
X270Y1092D02*
X275Y1092D01*
X301Y1092D02*
X306Y1092D01*
X333Y1092D02*
X338Y1092D01*
X357Y1092D02*
X362Y1092D01*
X377Y1092D02*
X382Y1092D01*
X401Y1092D02*
X406Y1092D01*
X445Y1092D02*
X450Y1092D01*
X478Y1092D02*
X484Y1092D01*
X510Y1092D02*
X517Y1092D01*
X532Y1092D02*
X537Y1092D01*
X552Y1092D02*
X566Y1092D01*
X576Y1092D02*
X581Y1092D01*
X605Y1092D02*
X611Y1092D01*
X620Y1092D02*
X625Y1092D01*
X640Y1092D02*
X665Y1092D01*
X707Y1092D02*
X712Y1092D01*
X751Y1092D02*
X756Y1092D01*
X771Y1092D02*
X776Y1092D01*
X795Y1092D02*
X800Y1092D01*
X815Y1092D02*
X820Y1092D01*
X839Y1092D02*
X844Y1092D01*
X858Y1092D02*
X863Y1092D01*
X882Y1092D02*
X888Y1092D01*
X912Y1092D02*
X918Y1092D01*
X926Y1092D02*
X931Y1092D01*
X960Y1092D02*
X966Y1092D01*
X990Y1092D02*
X995Y1092D01*
X1002Y1092D02*
X1007Y1092D01*
X1014Y1092D02*
X1019Y1092D01*
X1033Y1092D02*
X1039Y1092D01*
X1057Y1092D02*
X1063Y1092D01*
X1101Y1092D02*
X1106Y1092D01*
X1165Y1092D02*
X1170Y1092D01*
X1189Y1092D02*
X1194Y1092D01*
X1209Y1092D02*
X1214Y1092D01*
X1232Y1092D02*
X1237Y1092D01*
X1253Y1092D02*
X1258Y1092D01*
X1276Y1092D02*
X1282Y1092D01*
X1314Y1092D02*
X1319Y1092D01*
X1352Y1092D02*
X1357Y1092D01*
X1384Y1092D02*
X1389Y1092D01*
X1408Y1092D02*
X1413Y1092D01*
X202Y1091D02*
X207Y1091D01*
X214Y1091D02*
X219Y1091D01*
X246Y1091D02*
X251Y1091D01*
X270Y1091D02*
X275Y1091D01*
X301Y1091D02*
X306Y1091D01*
X333Y1091D02*
X338Y1091D01*
X357Y1091D02*
X362Y1091D01*
X377Y1091D02*
X382Y1091D01*
X401Y1091D02*
X406Y1091D01*
X445Y1091D02*
X450Y1091D01*
X479Y1091D02*
X485Y1091D01*
X509Y1091D02*
X516Y1091D01*
X532Y1091D02*
X537Y1091D01*
X552Y1091D02*
X566Y1091D01*
X576Y1091D02*
X581Y1091D01*
X605Y1091D02*
X611Y1091D01*
X620Y1091D02*
X625Y1091D01*
X640Y1091D02*
X666Y1091D01*
X707Y1091D02*
X712Y1091D01*
X751Y1091D02*
X756Y1091D01*
X771Y1091D02*
X776Y1091D01*
X795Y1091D02*
X800Y1091D01*
X815Y1091D02*
X820Y1091D01*
X839Y1091D02*
X844Y1091D01*
X858Y1091D02*
X864Y1091D01*
X882Y1091D02*
X888Y1091D01*
X911Y1091D02*
X917Y1091D01*
X926Y1091D02*
X931Y1091D01*
X960Y1091D02*
X966Y1091D01*
X990Y1091D02*
X995Y1091D01*
X1002Y1091D02*
X1007Y1091D01*
X1014Y1091D02*
X1019Y1091D01*
X1033Y1091D02*
X1039Y1091D01*
X1057Y1091D02*
X1063Y1091D01*
X1101Y1091D02*
X1106Y1091D01*
X1165Y1091D02*
X1170Y1091D01*
X1189Y1091D02*
X1194Y1091D01*
X1209Y1091D02*
X1214Y1091D01*
X1232Y1091D02*
X1237Y1091D01*
X1253Y1091D02*
X1258Y1091D01*
X1276Y1091D02*
X1282Y1091D01*
X1314Y1091D02*
X1319Y1091D01*
X1352Y1091D02*
X1357Y1091D01*
X1384Y1091D02*
X1389Y1091D01*
X1408Y1091D02*
X1413Y1091D01*
X202Y1090D02*
X207Y1090D01*
X214Y1090D02*
X219Y1090D01*
X246Y1090D02*
X251Y1090D01*
X270Y1090D02*
X275Y1090D01*
X301Y1090D02*
X306Y1090D01*
X333Y1090D02*
X338Y1090D01*
X357Y1090D02*
X362Y1090D01*
X377Y1090D02*
X382Y1090D01*
X401Y1090D02*
X406Y1090D01*
X445Y1090D02*
X450Y1090D01*
X479Y1090D02*
X485Y1090D01*
X509Y1090D02*
X515Y1090D01*
X532Y1090D02*
X537Y1090D01*
X552Y1090D02*
X566Y1090D01*
X576Y1090D02*
X581Y1090D01*
X604Y1090D02*
X610Y1090D01*
X620Y1090D02*
X625Y1090D01*
X640Y1090D02*
X667Y1090D01*
X707Y1090D02*
X712Y1090D01*
X751Y1090D02*
X756Y1090D01*
X771Y1090D02*
X800Y1090D01*
X815Y1090D02*
X820Y1090D01*
X839Y1090D02*
X844Y1090D01*
X858Y1090D02*
X888Y1090D01*
X910Y1090D02*
X917Y1090D01*
X926Y1090D02*
X931Y1090D01*
X961Y1090D02*
X967Y1090D01*
X990Y1090D02*
X995Y1090D01*
X1002Y1090D02*
X1007Y1090D01*
X1014Y1090D02*
X1019Y1090D01*
X1033Y1090D02*
X1039Y1090D01*
X1057Y1090D02*
X1063Y1090D01*
X1101Y1090D02*
X1106Y1090D01*
X1131Y1090D02*
X1140Y1090D01*
X1165Y1090D02*
X1170Y1090D01*
X1189Y1090D02*
X1194Y1090D01*
X1209Y1090D02*
X1214Y1090D01*
X1232Y1090D02*
X1237Y1090D01*
X1253Y1090D02*
X1258Y1090D01*
X1276Y1090D02*
X1282Y1090D01*
X1314Y1090D02*
X1319Y1090D01*
X1352Y1090D02*
X1357Y1090D01*
X1384Y1090D02*
X1389Y1090D01*
X1408Y1090D02*
X1413Y1090D01*
X202Y1089D02*
X207Y1089D01*
X214Y1089D02*
X219Y1089D01*
X246Y1089D02*
X251Y1089D01*
X270Y1089D02*
X275Y1089D01*
X301Y1089D02*
X306Y1089D01*
X333Y1089D02*
X338Y1089D01*
X357Y1089D02*
X362Y1089D01*
X377Y1089D02*
X382Y1089D01*
X401Y1089D02*
X406Y1089D01*
X445Y1089D02*
X450Y1089D01*
X480Y1089D02*
X486Y1089D01*
X508Y1089D02*
X514Y1089D01*
X532Y1089D02*
X537Y1089D01*
X552Y1089D02*
X566Y1089D01*
X576Y1089D02*
X581Y1089D01*
X603Y1089D02*
X610Y1089D01*
X620Y1089D02*
X625Y1089D01*
X640Y1089D02*
X667Y1089D01*
X707Y1089D02*
X712Y1089D01*
X751Y1089D02*
X756Y1089D01*
X771Y1089D02*
X800Y1089D01*
X815Y1089D02*
X820Y1089D01*
X839Y1089D02*
X844Y1089D01*
X858Y1089D02*
X888Y1089D01*
X910Y1089D02*
X916Y1089D01*
X926Y1089D02*
X931Y1089D01*
X961Y1089D02*
X967Y1089D01*
X990Y1089D02*
X995Y1089D01*
X1002Y1089D02*
X1007Y1089D01*
X1014Y1089D02*
X1019Y1089D01*
X1033Y1089D02*
X1039Y1089D01*
X1057Y1089D02*
X1063Y1089D01*
X1101Y1089D02*
X1106Y1089D01*
X1130Y1089D02*
X1141Y1089D01*
X1165Y1089D02*
X1170Y1089D01*
X1189Y1089D02*
X1194Y1089D01*
X1209Y1089D02*
X1214Y1089D01*
X1232Y1089D02*
X1237Y1089D01*
X1253Y1089D02*
X1258Y1089D01*
X1276Y1089D02*
X1282Y1089D01*
X1314Y1089D02*
X1319Y1089D01*
X1352Y1089D02*
X1357Y1089D01*
X1384Y1089D02*
X1389Y1089D01*
X1408Y1089D02*
X1413Y1089D01*
X202Y1088D02*
X207Y1088D01*
X214Y1088D02*
X219Y1088D01*
X246Y1088D02*
X251Y1088D01*
X270Y1088D02*
X275Y1088D01*
X301Y1088D02*
X306Y1088D01*
X333Y1088D02*
X338Y1088D01*
X357Y1088D02*
X362Y1088D01*
X377Y1088D02*
X382Y1088D01*
X401Y1088D02*
X406Y1088D01*
X445Y1088D02*
X450Y1088D01*
X480Y1088D02*
X486Y1088D01*
X508Y1088D02*
X514Y1088D01*
X532Y1088D02*
X537Y1088D01*
X552Y1088D02*
X565Y1088D01*
X576Y1088D02*
X581Y1088D01*
X603Y1088D02*
X609Y1088D01*
X620Y1088D02*
X625Y1088D01*
X640Y1088D02*
X668Y1088D01*
X707Y1088D02*
X712Y1088D01*
X751Y1088D02*
X756Y1088D01*
X771Y1088D02*
X800Y1088D01*
X815Y1088D02*
X820Y1088D01*
X839Y1088D02*
X844Y1088D01*
X858Y1088D02*
X888Y1088D01*
X909Y1088D02*
X915Y1088D01*
X926Y1088D02*
X931Y1088D01*
X962Y1088D02*
X968Y1088D01*
X990Y1088D02*
X995Y1088D01*
X1002Y1088D02*
X1007Y1088D01*
X1014Y1088D02*
X1019Y1088D01*
X1033Y1088D02*
X1039Y1088D01*
X1057Y1088D02*
X1063Y1088D01*
X1101Y1088D02*
X1106Y1088D01*
X1130Y1088D02*
X1141Y1088D01*
X1165Y1088D02*
X1170Y1088D01*
X1189Y1088D02*
X1194Y1088D01*
X1209Y1088D02*
X1214Y1088D01*
X1232Y1088D02*
X1237Y1088D01*
X1253Y1088D02*
X1258Y1088D01*
X1276Y1088D02*
X1282Y1088D01*
X1314Y1088D02*
X1319Y1088D01*
X1352Y1088D02*
X1357Y1088D01*
X1384Y1088D02*
X1389Y1088D01*
X1408Y1088D02*
X1413Y1088D01*
X202Y1087D02*
X207Y1087D01*
X214Y1087D02*
X219Y1087D01*
X246Y1087D02*
X251Y1087D01*
X270Y1087D02*
X275Y1087D01*
X301Y1087D02*
X306Y1087D01*
X333Y1087D02*
X338Y1087D01*
X357Y1087D02*
X362Y1087D01*
X377Y1087D02*
X382Y1087D01*
X401Y1087D02*
X406Y1087D01*
X445Y1087D02*
X450Y1087D01*
X481Y1087D02*
X487Y1087D01*
X508Y1087D02*
X513Y1087D01*
X532Y1087D02*
X537Y1087D01*
X552Y1087D02*
X557Y1087D01*
X576Y1087D02*
X581Y1087D01*
X602Y1087D02*
X608Y1087D01*
X620Y1087D02*
X625Y1087D01*
X640Y1087D02*
X647Y1087D01*
X662Y1087D02*
X668Y1087D01*
X707Y1087D02*
X712Y1087D01*
X751Y1087D02*
X756Y1087D01*
X771Y1087D02*
X800Y1087D01*
X815Y1087D02*
X820Y1087D01*
X839Y1087D02*
X844Y1087D01*
X859Y1087D02*
X888Y1087D01*
X909Y1087D02*
X915Y1087D01*
X926Y1087D02*
X931Y1087D01*
X962Y1087D02*
X969Y1087D01*
X990Y1087D02*
X995Y1087D01*
X1002Y1087D02*
X1007Y1087D01*
X1014Y1087D02*
X1019Y1087D01*
X1033Y1087D02*
X1039Y1087D01*
X1057Y1087D02*
X1063Y1087D01*
X1101Y1087D02*
X1106Y1087D01*
X1130Y1087D02*
X1141Y1087D01*
X1165Y1087D02*
X1170Y1087D01*
X1189Y1087D02*
X1194Y1087D01*
X1209Y1087D02*
X1214Y1087D01*
X1232Y1087D02*
X1237Y1087D01*
X1253Y1087D02*
X1258Y1087D01*
X1276Y1087D02*
X1282Y1087D01*
X1314Y1087D02*
X1319Y1087D01*
X1352Y1087D02*
X1357Y1087D01*
X1384Y1087D02*
X1389Y1087D01*
X1408Y1087D02*
X1413Y1087D01*
X202Y1086D02*
X207Y1086D01*
X214Y1086D02*
X219Y1086D01*
X246Y1086D02*
X251Y1086D01*
X270Y1086D02*
X275Y1086D01*
X301Y1086D02*
X306Y1086D01*
X333Y1086D02*
X338Y1086D01*
X357Y1086D02*
X362Y1086D01*
X377Y1086D02*
X382Y1086D01*
X401Y1086D02*
X406Y1086D01*
X445Y1086D02*
X450Y1086D01*
X481Y1086D02*
X488Y1086D01*
X508Y1086D02*
X513Y1086D01*
X532Y1086D02*
X537Y1086D01*
X552Y1086D02*
X557Y1086D01*
X576Y1086D02*
X581Y1086D01*
X602Y1086D02*
X608Y1086D01*
X620Y1086D02*
X625Y1086D01*
X640Y1086D02*
X646Y1086D01*
X663Y1086D02*
X668Y1086D01*
X707Y1086D02*
X712Y1086D01*
X751Y1086D02*
X756Y1086D01*
X772Y1086D02*
X800Y1086D01*
X815Y1086D02*
X820Y1086D01*
X839Y1086D02*
X844Y1086D01*
X859Y1086D02*
X888Y1086D01*
X908Y1086D02*
X914Y1086D01*
X926Y1086D02*
X931Y1086D01*
X963Y1086D02*
X969Y1086D01*
X990Y1086D02*
X995Y1086D01*
X1002Y1086D02*
X1007Y1086D01*
X1014Y1086D02*
X1019Y1086D01*
X1033Y1086D02*
X1039Y1086D01*
X1057Y1086D02*
X1063Y1086D01*
X1101Y1086D02*
X1106Y1086D01*
X1130Y1086D02*
X1141Y1086D01*
X1165Y1086D02*
X1170Y1086D01*
X1189Y1086D02*
X1194Y1086D01*
X1209Y1086D02*
X1214Y1086D01*
X1232Y1086D02*
X1237Y1086D01*
X1253Y1086D02*
X1258Y1086D01*
X1276Y1086D02*
X1282Y1086D01*
X1314Y1086D02*
X1319Y1086D01*
X1352Y1086D02*
X1357Y1086D01*
X1384Y1086D02*
X1390Y1086D01*
X1408Y1086D02*
X1413Y1086D01*
X202Y1085D02*
X207Y1085D01*
X214Y1085D02*
X219Y1085D01*
X246Y1085D02*
X251Y1085D01*
X270Y1085D02*
X275Y1085D01*
X301Y1085D02*
X306Y1085D01*
X333Y1085D02*
X338Y1085D01*
X357Y1085D02*
X362Y1085D01*
X377Y1085D02*
X382Y1085D01*
X401Y1085D02*
X406Y1085D01*
X445Y1085D02*
X450Y1085D01*
X482Y1085D02*
X488Y1085D01*
X508Y1085D02*
X513Y1085D01*
X532Y1085D02*
X537Y1085D01*
X552Y1085D02*
X557Y1085D01*
X576Y1085D02*
X581Y1085D01*
X601Y1085D02*
X607Y1085D01*
X620Y1085D02*
X625Y1085D01*
X640Y1085D02*
X645Y1085D01*
X663Y1085D02*
X669Y1085D01*
X707Y1085D02*
X712Y1085D01*
X751Y1085D02*
X756Y1085D01*
X773Y1085D02*
X800Y1085D01*
X815Y1085D02*
X820Y1085D01*
X839Y1085D02*
X844Y1085D01*
X860Y1085D02*
X888Y1085D01*
X908Y1085D02*
X914Y1085D01*
X926Y1085D02*
X931Y1085D01*
X964Y1085D02*
X970Y1085D01*
X990Y1085D02*
X995Y1085D01*
X1002Y1085D02*
X1007Y1085D01*
X1014Y1085D02*
X1019Y1085D01*
X1033Y1085D02*
X1039Y1085D01*
X1057Y1085D02*
X1063Y1085D01*
X1101Y1085D02*
X1106Y1085D01*
X1130Y1085D02*
X1141Y1085D01*
X1165Y1085D02*
X1170Y1085D01*
X1189Y1085D02*
X1194Y1085D01*
X1209Y1085D02*
X1214Y1085D01*
X1232Y1085D02*
X1237Y1085D01*
X1253Y1085D02*
X1258Y1085D01*
X1276Y1085D02*
X1282Y1085D01*
X1314Y1085D02*
X1319Y1085D01*
X1352Y1085D02*
X1357Y1085D01*
X1384Y1085D02*
X1391Y1085D01*
X1408Y1085D02*
X1413Y1085D01*
X202Y1084D02*
X207Y1084D01*
X214Y1084D02*
X219Y1084D01*
X246Y1084D02*
X251Y1084D01*
X270Y1084D02*
X275Y1084D01*
X301Y1084D02*
X306Y1084D01*
X333Y1084D02*
X338Y1084D01*
X357Y1084D02*
X362Y1084D01*
X377Y1084D02*
X382Y1084D01*
X401Y1084D02*
X406Y1084D01*
X445Y1084D02*
X450Y1084D01*
X483Y1084D02*
X489Y1084D01*
X508Y1084D02*
X513Y1084D01*
X532Y1084D02*
X537Y1084D01*
X552Y1084D02*
X557Y1084D01*
X576Y1084D02*
X581Y1084D01*
X600Y1084D02*
X607Y1084D01*
X620Y1084D02*
X625Y1084D01*
X640Y1084D02*
X645Y1084D01*
X664Y1084D02*
X669Y1084D01*
X707Y1084D02*
X712Y1084D01*
X751Y1084D02*
X756Y1084D01*
X795Y1084D02*
X800Y1084D01*
X815Y1084D02*
X820Y1084D01*
X838Y1084D02*
X844Y1084D01*
X882Y1084D02*
X888Y1084D01*
X907Y1084D02*
X913Y1084D01*
X926Y1084D02*
X931Y1084D01*
X964Y1084D02*
X970Y1084D01*
X990Y1084D02*
X995Y1084D01*
X1002Y1084D02*
X1007Y1084D01*
X1014Y1084D02*
X1019Y1084D01*
X1033Y1084D02*
X1039Y1084D01*
X1057Y1084D02*
X1063Y1084D01*
X1101Y1084D02*
X1106Y1084D01*
X1130Y1084D02*
X1141Y1084D01*
X1165Y1084D02*
X1170Y1084D01*
X1188Y1084D02*
X1194Y1084D01*
X1209Y1084D02*
X1214Y1084D01*
X1232Y1084D02*
X1237Y1084D01*
X1253Y1084D02*
X1258Y1084D01*
X1276Y1084D02*
X1282Y1084D01*
X1314Y1084D02*
X1319Y1084D01*
X1352Y1084D02*
X1357Y1084D01*
X1384Y1084D02*
X1392Y1084D01*
X1407Y1084D02*
X1413Y1084D01*
X202Y1083D02*
X207Y1083D01*
X214Y1083D02*
X219Y1083D01*
X246Y1083D02*
X251Y1083D01*
X270Y1083D02*
X275Y1083D01*
X301Y1083D02*
X306Y1083D01*
X333Y1083D02*
X338Y1083D01*
X357Y1083D02*
X362Y1083D01*
X377Y1083D02*
X382Y1083D01*
X401Y1083D02*
X406Y1083D01*
X445Y1083D02*
X450Y1083D01*
X483Y1083D02*
X489Y1083D01*
X508Y1083D02*
X513Y1083D01*
X532Y1083D02*
X537Y1083D01*
X552Y1083D02*
X557Y1083D01*
X576Y1083D02*
X581Y1083D01*
X600Y1083D02*
X606Y1083D01*
X620Y1083D02*
X625Y1083D01*
X640Y1083D02*
X645Y1083D01*
X664Y1083D02*
X669Y1083D01*
X706Y1083D02*
X712Y1083D01*
X750Y1083D02*
X756Y1083D01*
X795Y1083D02*
X800Y1083D01*
X815Y1083D02*
X820Y1083D01*
X837Y1083D02*
X844Y1083D01*
X882Y1083D02*
X888Y1083D01*
X906Y1083D02*
X912Y1083D01*
X926Y1083D02*
X931Y1083D01*
X965Y1083D02*
X971Y1083D01*
X990Y1083D02*
X995Y1083D01*
X1002Y1083D02*
X1007Y1083D01*
X1014Y1083D02*
X1019Y1083D01*
X1033Y1083D02*
X1039Y1083D01*
X1057Y1083D02*
X1063Y1083D01*
X1100Y1083D02*
X1106Y1083D01*
X1130Y1083D02*
X1141Y1083D01*
X1165Y1083D02*
X1170Y1083D01*
X1187Y1083D02*
X1194Y1083D01*
X1209Y1083D02*
X1216Y1083D01*
X1232Y1083D02*
X1237Y1083D01*
X1253Y1083D02*
X1258Y1083D01*
X1276Y1083D02*
X1282Y1083D01*
X1298Y1083D02*
X1299Y1083D01*
X1314Y1083D02*
X1319Y1083D01*
X1352Y1083D02*
X1357Y1083D01*
X1384Y1083D02*
X1393Y1083D01*
X1407Y1083D02*
X1412Y1083D01*
X202Y1082D02*
X207Y1082D01*
X214Y1082D02*
X219Y1082D01*
X246Y1082D02*
X251Y1082D01*
X270Y1082D02*
X275Y1082D01*
X301Y1082D02*
X306Y1082D01*
X333Y1082D02*
X338Y1082D01*
X357Y1082D02*
X362Y1082D01*
X377Y1082D02*
X382Y1082D01*
X401Y1082D02*
X406Y1082D01*
X445Y1082D02*
X450Y1082D01*
X484Y1082D02*
X490Y1082D01*
X508Y1082D02*
X514Y1082D01*
X532Y1082D02*
X537Y1082D01*
X552Y1082D02*
X557Y1082D01*
X576Y1082D02*
X581Y1082D01*
X599Y1082D02*
X605Y1082D01*
X620Y1082D02*
X625Y1082D01*
X640Y1082D02*
X645Y1082D01*
X664Y1082D02*
X669Y1082D01*
X705Y1082D02*
X712Y1082D01*
X749Y1082D02*
X756Y1082D01*
X795Y1082D02*
X800Y1082D01*
X815Y1082D02*
X820Y1082D01*
X836Y1082D02*
X844Y1082D01*
X882Y1082D02*
X887Y1082D01*
X906Y1082D02*
X912Y1082D01*
X926Y1082D02*
X931Y1082D01*
X965Y1082D02*
X971Y1082D01*
X990Y1082D02*
X995Y1082D01*
X1002Y1082D02*
X1007Y1082D01*
X1014Y1082D02*
X1019Y1082D01*
X1034Y1082D02*
X1039Y1082D01*
X1057Y1082D02*
X1063Y1082D01*
X1099Y1082D02*
X1106Y1082D01*
X1130Y1082D02*
X1141Y1082D01*
X1165Y1082D02*
X1170Y1082D01*
X1186Y1082D02*
X1194Y1082D01*
X1209Y1082D02*
X1217Y1082D01*
X1232Y1082D02*
X1237Y1082D01*
X1253Y1082D02*
X1258Y1082D01*
X1276Y1082D02*
X1282Y1082D01*
X1297Y1082D02*
X1300Y1082D01*
X1314Y1082D02*
X1319Y1082D01*
X1352Y1082D02*
X1357Y1082D01*
X1384Y1082D02*
X1394Y1082D01*
X1406Y1082D02*
X1412Y1082D01*
X202Y1081D02*
X207Y1081D01*
X214Y1081D02*
X219Y1081D01*
X246Y1081D02*
X251Y1081D01*
X270Y1081D02*
X275Y1081D01*
X301Y1081D02*
X306Y1081D01*
X333Y1081D02*
X338Y1081D01*
X357Y1081D02*
X362Y1081D01*
X377Y1081D02*
X382Y1081D01*
X401Y1081D02*
X406Y1081D01*
X445Y1081D02*
X450Y1081D01*
X484Y1081D02*
X491Y1081D01*
X509Y1081D02*
X514Y1081D01*
X532Y1081D02*
X537Y1081D01*
X552Y1081D02*
X557Y1081D01*
X576Y1081D02*
X581Y1081D01*
X599Y1081D02*
X605Y1081D01*
X620Y1081D02*
X625Y1081D01*
X640Y1081D02*
X646Y1081D01*
X663Y1081D02*
X669Y1081D01*
X704Y1081D02*
X711Y1081D01*
X747Y1081D02*
X755Y1081D01*
X794Y1081D02*
X800Y1081D01*
X815Y1081D02*
X820Y1081D01*
X835Y1081D02*
X844Y1081D01*
X882Y1081D02*
X887Y1081D01*
X905Y1081D02*
X911Y1081D01*
X926Y1081D02*
X931Y1081D01*
X966Y1081D02*
X972Y1081D01*
X989Y1081D02*
X995Y1081D01*
X1002Y1081D02*
X1007Y1081D01*
X1014Y1081D02*
X1019Y1081D01*
X1034Y1081D02*
X1039Y1081D01*
X1057Y1081D02*
X1062Y1081D01*
X1098Y1081D02*
X1105Y1081D01*
X1131Y1081D02*
X1141Y1081D01*
X1165Y1081D02*
X1171Y1081D01*
X1185Y1081D02*
X1194Y1081D01*
X1209Y1081D02*
X1219Y1081D01*
X1232Y1081D02*
X1237Y1081D01*
X1253Y1081D02*
X1258Y1081D01*
X1276Y1081D02*
X1282Y1081D01*
X1296Y1081D02*
X1301Y1081D01*
X1314Y1081D02*
X1319Y1081D01*
X1352Y1081D02*
X1357Y1081D01*
X1384Y1081D02*
X1396Y1081D01*
X1404Y1081D02*
X1412Y1081D01*
X202Y1080D02*
X207Y1080D01*
X214Y1080D02*
X219Y1080D01*
X246Y1080D02*
X251Y1080D01*
X270Y1080D02*
X275Y1080D01*
X301Y1080D02*
X306Y1080D01*
X333Y1080D02*
X338Y1080D01*
X357Y1080D02*
X362Y1080D01*
X377Y1080D02*
X382Y1080D01*
X401Y1080D02*
X406Y1080D01*
X445Y1080D02*
X450Y1080D01*
X485Y1080D02*
X491Y1080D01*
X509Y1080D02*
X515Y1080D01*
X532Y1080D02*
X537Y1080D01*
X552Y1080D02*
X557Y1080D01*
X576Y1080D02*
X581Y1080D01*
X598Y1080D02*
X604Y1080D01*
X620Y1080D02*
X625Y1080D01*
X640Y1080D02*
X648Y1080D01*
X663Y1080D02*
X669Y1080D01*
X703Y1080D02*
X711Y1080D01*
X746Y1080D02*
X754Y1080D01*
X793Y1080D02*
X799Y1080D01*
X815Y1080D02*
X821Y1080D01*
X834Y1080D02*
X844Y1080D01*
X881Y1080D02*
X887Y1080D01*
X905Y1080D02*
X911Y1080D01*
X926Y1080D02*
X931Y1080D01*
X967Y1080D02*
X973Y1080D01*
X989Y1080D02*
X995Y1080D01*
X1002Y1080D02*
X1007Y1080D01*
X1014Y1080D02*
X1019Y1080D01*
X1034Y1080D02*
X1040Y1080D01*
X1056Y1080D02*
X1062Y1080D01*
X1096Y1080D02*
X1105Y1080D01*
X1132Y1080D02*
X1139Y1080D01*
X1165Y1080D02*
X1172Y1080D01*
X1184Y1080D02*
X1194Y1080D01*
X1209Y1080D02*
X1221Y1080D01*
X1232Y1080D02*
X1237Y1080D01*
X1253Y1080D02*
X1258Y1080D01*
X1276Y1080D02*
X1282Y1080D01*
X1296Y1080D02*
X1302Y1080D01*
X1314Y1080D02*
X1319Y1080D01*
X1352Y1080D02*
X1357Y1080D01*
X1384Y1080D02*
X1411Y1080D01*
X202Y1079D02*
X207Y1079D01*
X214Y1079D02*
X219Y1079D01*
X246Y1079D02*
X251Y1079D01*
X270Y1079D02*
X275Y1079D01*
X301Y1079D02*
X306Y1079D01*
X333Y1079D02*
X338Y1079D01*
X357Y1079D02*
X362Y1079D01*
X377Y1079D02*
X382Y1079D01*
X401Y1079D02*
X406Y1079D01*
X445Y1079D02*
X450Y1079D01*
X486Y1079D02*
X492Y1079D01*
X509Y1079D02*
X516Y1079D01*
X532Y1079D02*
X537Y1079D01*
X552Y1079D02*
X558Y1079D01*
X575Y1079D02*
X581Y1079D01*
X598Y1079D02*
X604Y1079D01*
X620Y1079D02*
X625Y1079D01*
X640Y1079D02*
X650Y1079D01*
X663Y1079D02*
X668Y1079D01*
X701Y1079D02*
X710Y1079D01*
X745Y1079D02*
X753Y1079D01*
X792Y1079D02*
X799Y1079D01*
X816Y1079D02*
X823Y1079D01*
X833Y1079D02*
X844Y1079D01*
X879Y1079D02*
X887Y1079D01*
X904Y1079D02*
X910Y1079D01*
X926Y1079D02*
X931Y1079D01*
X967Y1079D02*
X973Y1079D01*
X989Y1079D02*
X995Y1079D01*
X1002Y1079D02*
X1007Y1079D01*
X1014Y1079D02*
X1019Y1079D01*
X1034Y1079D02*
X1042Y1079D01*
X1055Y1079D02*
X1062Y1079D01*
X1095Y1079D02*
X1104Y1079D01*
X1166Y1079D02*
X1173Y1079D01*
X1183Y1079D02*
X1194Y1079D01*
X1209Y1079D02*
X1222Y1079D01*
X1231Y1079D02*
X1237Y1079D01*
X1253Y1079D02*
X1258Y1079D01*
X1276Y1079D02*
X1282Y1079D01*
X1296Y1079D02*
X1302Y1079D01*
X1313Y1079D02*
X1319Y1079D01*
X1352Y1079D02*
X1357Y1079D01*
X1384Y1079D02*
X1410Y1079D01*
X202Y1078D02*
X228Y1078D01*
X246Y1078D02*
X251Y1078D01*
X270Y1078D02*
X275Y1078D01*
X295Y1078D02*
X312Y1078D01*
X333Y1078D02*
X362Y1078D01*
X377Y1078D02*
X406Y1078D01*
X424Y1078D02*
X450Y1078D01*
X486Y1078D02*
X492Y1078D01*
X510Y1078D02*
X537Y1078D01*
X552Y1078D02*
X581Y1078D01*
X597Y1078D02*
X603Y1078D01*
X620Y1078D02*
X625Y1078D01*
X640Y1078D02*
X668Y1078D01*
X686Y1078D02*
X709Y1078D01*
X730Y1078D02*
X752Y1078D01*
X774Y1078D02*
X799Y1078D01*
X816Y1078D02*
X844Y1078D01*
X861Y1078D02*
X886Y1078D01*
X903Y1078D02*
X910Y1078D01*
X926Y1078D02*
X931Y1078D01*
X968Y1078D02*
X974Y1078D01*
X989Y1078D02*
X994Y1078D01*
X1002Y1078D02*
X1007Y1078D01*
X1014Y1078D02*
X1019Y1078D01*
X1035Y1078D02*
X1061Y1078D01*
X1080Y1078D02*
X1103Y1078D01*
X1166Y1078D02*
X1194Y1078D01*
X1209Y1078D02*
X1236Y1078D01*
X1252Y1078D02*
X1258Y1078D01*
X1276Y1078D02*
X1282Y1078D01*
X1297Y1078D02*
X1319Y1078D01*
X1346Y1078D02*
X1363Y1078D01*
X1384Y1078D02*
X1409Y1078D01*
X202Y1077D02*
X230Y1077D01*
X246Y1077D02*
X251Y1077D01*
X270Y1077D02*
X275Y1077D01*
X293Y1077D02*
X315Y1077D01*
X333Y1077D02*
X362Y1077D01*
X377Y1077D02*
X406Y1077D01*
X421Y1077D02*
X450Y1077D01*
X487Y1077D02*
X493Y1077D01*
X511Y1077D02*
X537Y1077D01*
X553Y1077D02*
X580Y1077D01*
X596Y1077D02*
X603Y1077D01*
X620Y1077D02*
X625Y1077D01*
X640Y1077D02*
X668Y1077D01*
X684Y1077D02*
X707Y1077D01*
X728Y1077D02*
X751Y1077D01*
X772Y1077D02*
X798Y1077D01*
X817Y1077D02*
X844Y1077D01*
X859Y1077D02*
X885Y1077D01*
X903Y1077D02*
X909Y1077D01*
X926Y1077D02*
X931Y1077D01*
X968Y1077D02*
X974Y1077D01*
X989Y1077D02*
X994Y1077D01*
X1002Y1077D02*
X1007Y1077D01*
X1014Y1077D02*
X1019Y1077D01*
X1036Y1077D02*
X1060Y1077D01*
X1078Y1077D02*
X1101Y1077D01*
X1167Y1077D02*
X1194Y1077D01*
X1209Y1077D02*
X1236Y1077D01*
X1252Y1077D02*
X1258Y1077D01*
X1276Y1077D02*
X1282Y1077D01*
X1297Y1077D02*
X1318Y1077D01*
X1344Y1077D02*
X1365Y1077D01*
X1384Y1077D02*
X1389Y1077D01*
X1392Y1077D02*
X1408Y1077D01*
X202Y1076D02*
X231Y1076D01*
X246Y1076D02*
X251Y1076D01*
X270Y1076D02*
X275Y1076D01*
X293Y1076D02*
X315Y1076D01*
X333Y1076D02*
X362Y1076D01*
X377Y1076D02*
X406Y1076D01*
X421Y1076D02*
X450Y1076D01*
X487Y1076D02*
X493Y1076D01*
X511Y1076D02*
X537Y1076D01*
X554Y1076D02*
X580Y1076D01*
X596Y1076D02*
X602Y1076D01*
X620Y1076D02*
X625Y1076D01*
X640Y1076D02*
X667Y1076D01*
X683Y1076D02*
X706Y1076D01*
X727Y1076D02*
X750Y1076D01*
X771Y1076D02*
X797Y1076D01*
X818Y1076D02*
X844Y1076D01*
X859Y1076D02*
X884Y1076D01*
X902Y1076D02*
X908Y1076D01*
X926Y1076D02*
X931Y1076D01*
X969Y1076D02*
X975Y1076D01*
X989Y1076D02*
X994Y1076D01*
X1002Y1076D02*
X1007Y1076D01*
X1014Y1076D02*
X1019Y1076D01*
X1037Y1076D02*
X1059Y1076D01*
X1077Y1076D02*
X1100Y1076D01*
X1168Y1076D02*
X1194Y1076D01*
X1209Y1076D02*
X1214Y1076D01*
X1216Y1076D02*
X1235Y1076D01*
X1252Y1076D02*
X1257Y1076D01*
X1276Y1076D02*
X1282Y1076D01*
X1298Y1076D02*
X1318Y1076D01*
X1343Y1076D02*
X1366Y1076D01*
X1384Y1076D02*
X1389Y1076D01*
X1393Y1076D02*
X1406Y1076D01*
X202Y1075D02*
X231Y1075D01*
X246Y1075D02*
X251Y1075D01*
X270Y1075D02*
X275Y1075D01*
X292Y1075D02*
X315Y1075D01*
X334Y1075D02*
X361Y1075D01*
X378Y1075D02*
X405Y1075D01*
X421Y1075D02*
X450Y1075D01*
X488Y1075D02*
X493Y1075D01*
X512Y1075D02*
X537Y1075D01*
X554Y1075D02*
X579Y1075D01*
X596Y1075D02*
X601Y1075D01*
X620Y1075D02*
X625Y1075D01*
X640Y1075D02*
X666Y1075D01*
X683Y1075D02*
X705Y1075D01*
X727Y1075D02*
X749Y1075D01*
X771Y1075D02*
X796Y1075D01*
X819Y1075D02*
X837Y1075D01*
X839Y1075D02*
X844Y1075D01*
X858Y1075D02*
X883Y1075D01*
X902Y1075D02*
X908Y1075D01*
X926Y1075D02*
X931Y1075D01*
X969Y1075D02*
X975Y1075D01*
X989Y1075D02*
X994Y1075D01*
X1002Y1075D02*
X1007Y1075D01*
X1014Y1075D02*
X1019Y1075D01*
X1038Y1075D02*
X1058Y1075D01*
X1077Y1075D02*
X1099Y1075D01*
X1169Y1075D02*
X1187Y1075D01*
X1189Y1075D02*
X1194Y1075D01*
X1209Y1075D02*
X1214Y1075D01*
X1218Y1075D02*
X1235Y1075D01*
X1252Y1075D02*
X1257Y1075D01*
X1276Y1075D02*
X1281Y1075D01*
X1299Y1075D02*
X1317Y1075D01*
X1343Y1075D02*
X1366Y1075D01*
X1384Y1075D02*
X1389Y1075D01*
X1395Y1075D02*
X1405Y1075D01*
X202Y1074D02*
X231Y1074D01*
X246Y1074D02*
X250Y1074D01*
X270Y1074D02*
X274Y1074D01*
X293Y1074D02*
X315Y1074D01*
X335Y1074D02*
X361Y1074D01*
X379Y1074D02*
X404Y1074D01*
X421Y1074D02*
X450Y1074D01*
X489Y1074D02*
X493Y1074D01*
X514Y1074D02*
X537Y1074D01*
X555Y1074D02*
X578Y1074D01*
X596Y1074D02*
X601Y1074D01*
X620Y1074D02*
X625Y1074D01*
X640Y1074D02*
X644Y1074D01*
X647Y1074D02*
X665Y1074D01*
X683Y1074D02*
X704Y1074D01*
X727Y1074D02*
X748Y1074D01*
X771Y1074D02*
X795Y1074D01*
X820Y1074D02*
X835Y1074D01*
X839Y1074D02*
X844Y1074D01*
X859Y1074D02*
X882Y1074D01*
X902Y1074D02*
X907Y1074D01*
X926Y1074D02*
X931Y1074D01*
X970Y1074D02*
X975Y1074D01*
X989Y1074D02*
X994Y1074D01*
X1002Y1074D02*
X1007Y1074D01*
X1014Y1074D02*
X1019Y1074D01*
X1039Y1074D02*
X1057Y1074D01*
X1077Y1074D02*
X1098Y1074D01*
X1170Y1074D02*
X1186Y1074D01*
X1189Y1074D02*
X1194Y1074D01*
X1209Y1074D02*
X1213Y1074D01*
X1220Y1074D02*
X1234Y1074D01*
X1253Y1074D02*
X1257Y1074D01*
X1277Y1074D02*
X1281Y1074D01*
X1300Y1074D02*
X1316Y1074D01*
X1343Y1074D02*
X1366Y1074D01*
X1384Y1074D02*
X1389Y1074D01*
X203Y1073D02*
X230Y1073D01*
X246Y1073D02*
X250Y1073D01*
X270Y1073D02*
X274Y1073D01*
X293Y1073D02*
X315Y1073D01*
X336Y1073D02*
X359Y1073D01*
X380Y1073D02*
X403Y1073D01*
X421Y1073D02*
X450Y1073D01*
X489Y1073D02*
X493Y1073D01*
X515Y1073D02*
X537Y1073D01*
X557Y1073D02*
X576Y1073D01*
X597Y1073D02*
X600Y1073D01*
X621Y1073D02*
X624Y1073D01*
X640Y1073D02*
X644Y1073D01*
X649Y1073D02*
X664Y1073D01*
X684Y1073D02*
X702Y1073D01*
X728Y1073D02*
X746Y1073D01*
X772Y1073D02*
X793Y1073D01*
X822Y1073D02*
X834Y1073D01*
X839Y1073D02*
X843Y1073D01*
X859Y1073D02*
X881Y1073D01*
X903Y1073D02*
X906Y1073D01*
X927Y1073D02*
X930Y1073D01*
X971Y1073D02*
X974Y1073D01*
X990Y1073D02*
X994Y1073D01*
X1003Y1073D02*
X1006Y1073D01*
X1015Y1073D02*
X1019Y1073D01*
X1041Y1073D02*
X1056Y1073D01*
X1078Y1073D02*
X1096Y1073D01*
X1172Y1073D02*
X1184Y1073D01*
X1190Y1073D02*
X1193Y1073D01*
X1209Y1073D02*
X1213Y1073D01*
X1221Y1073D02*
X1232Y1073D01*
X1253Y1073D02*
X1257Y1073D01*
X1277Y1073D02*
X1281Y1073D01*
X1301Y1073D02*
X1314Y1073D01*
X1344Y1073D02*
X1365Y1073D01*
X1384Y1073D02*
X1389Y1073D01*
X204Y1072D02*
X228Y1072D01*
X248Y1072D02*
X248Y1072D01*
X272Y1072D02*
X272Y1072D01*
X295Y1072D02*
X313Y1072D01*
X338Y1072D02*
X357Y1072D01*
X382Y1072D02*
X401Y1072D01*
X423Y1072D02*
X449Y1072D01*
X491Y1072D02*
X491Y1072D01*
X520Y1072D02*
X537Y1072D01*
X560Y1072D02*
X573Y1072D01*
X598Y1072D02*
X598Y1072D01*
X622Y1072D02*
X622Y1072D01*
X642Y1072D02*
X642Y1072D01*
X651Y1072D02*
X660Y1072D01*
X686Y1072D02*
X699Y1072D01*
X730Y1072D02*
X743Y1072D01*
X774Y1072D02*
X790Y1072D01*
X825Y1072D02*
X830Y1072D01*
X841Y1072D02*
X841Y1072D01*
X861Y1072D02*
X877Y1072D01*
X929Y1072D02*
X929Y1072D01*
X992Y1072D02*
X992Y1072D01*
X1004Y1072D02*
X1004Y1072D01*
X1017Y1072D02*
X1017Y1072D01*
X1044Y1072D02*
X1052Y1072D01*
X1080Y1072D02*
X1093Y1072D01*
X1175Y1072D02*
X1180Y1072D01*
X1211Y1072D02*
X1211Y1072D01*
X1225Y1072D02*
X1229Y1072D01*
X1255Y1072D02*
X1255Y1072D01*
X1279Y1072D02*
X1279Y1072D01*
X1304Y1072D02*
X1311Y1072D01*
X1346Y1072D02*
X1363Y1072D01*
X1384Y1072D02*
X1389Y1072D01*
X1384Y1071D02*
X1389Y1071D01*
X1384Y1070D02*
X1389Y1070D01*
X1384Y1069D02*
X1389Y1069D01*
X1384Y1068D02*
X1390Y1068D01*
X1384Y1067D02*
X1391Y1067D01*
X1385Y1066D02*
X1392Y1066D01*
X1385Y1065D02*
X1408Y1065D01*
X1386Y1064D02*
X1409Y1064D01*
X1387Y1063D02*
X1410Y1063D01*
X1388Y1062D02*
X1410Y1062D01*
X1389Y1061D02*
X1410Y1061D01*
X1391Y1060D02*
X1409Y1060D01*
X1128Y469D02*
X1133Y469D01*
X1347Y469D02*
X1352Y469D01*
X1127Y468D02*
X1134Y468D01*
X1346Y468D02*
X1353Y468D01*
X254Y467D02*
X262Y467D01*
X560Y467D02*
X560Y467D01*
X637Y467D02*
X644Y467D01*
X779Y467D02*
X788Y467D01*
X903Y467D02*
X919Y467D01*
X1126Y467D02*
X1134Y467D01*
X1173Y467D02*
X1185Y467D01*
X1345Y467D02*
X1353Y467D01*
X1377Y467D02*
X1383Y467D01*
X1400Y467D02*
X1406Y467D01*
X252Y466D02*
X264Y466D01*
X558Y466D02*
X562Y466D01*
X635Y466D02*
X648Y466D01*
X777Y466D02*
X789Y466D01*
X900Y466D02*
X921Y466D01*
X1028Y466D02*
X1031Y466D01*
X1126Y466D02*
X1134Y466D01*
X1170Y466D02*
X1186Y466D01*
X1345Y466D02*
X1353Y466D01*
X1377Y466D02*
X1384Y466D01*
X1399Y466D02*
X1406Y466D01*
X251Y465D02*
X265Y465D01*
X557Y465D02*
X562Y465D01*
X635Y465D02*
X650Y465D01*
X776Y465D02*
X790Y465D01*
X898Y465D02*
X923Y465D01*
X1027Y465D02*
X1032Y465D01*
X1126Y465D02*
X1134Y465D01*
X1168Y465D02*
X1187Y465D01*
X1345Y465D02*
X1353Y465D01*
X1377Y465D02*
X1385Y465D01*
X1398Y465D02*
X1406Y465D01*
X251Y464D02*
X265Y464D01*
X557Y464D02*
X563Y464D01*
X634Y464D02*
X651Y464D01*
X776Y464D02*
X790Y464D01*
X897Y464D02*
X923Y464D01*
X1027Y464D02*
X1032Y464D01*
X1126Y464D02*
X1134Y464D01*
X1167Y464D02*
X1187Y464D01*
X1345Y464D02*
X1353Y464D01*
X1377Y464D02*
X1386Y464D01*
X1397Y464D02*
X1406Y464D01*
X251Y463D02*
X265Y463D01*
X557Y463D02*
X563Y463D01*
X635Y463D02*
X652Y463D01*
X776Y463D02*
X790Y463D01*
X897Y463D02*
X924Y463D01*
X1027Y463D02*
X1032Y463D01*
X1127Y463D02*
X1134Y463D01*
X1166Y463D02*
X1187Y463D01*
X1345Y463D02*
X1353Y463D01*
X1377Y463D02*
X1386Y463D01*
X1397Y463D02*
X1406Y463D01*
X251Y462D02*
X264Y462D01*
X557Y462D02*
X563Y462D01*
X635Y462D02*
X653Y462D01*
X776Y462D02*
X789Y462D01*
X896Y462D02*
X924Y462D01*
X1027Y462D02*
X1032Y462D01*
X1127Y462D02*
X1134Y462D01*
X1166Y462D02*
X1186Y462D01*
X1346Y462D02*
X1352Y462D01*
X1377Y462D02*
X1387Y462D01*
X1396Y462D02*
X1406Y462D01*
X251Y461D02*
X262Y461D01*
X556Y461D02*
X563Y461D01*
X637Y461D02*
X653Y461D01*
X776Y461D02*
X787Y461D01*
X896Y461D02*
X925Y461D01*
X1027Y461D02*
X1032Y461D01*
X1129Y461D02*
X1132Y461D01*
X1165Y461D02*
X1184Y461D01*
X1348Y461D02*
X1350Y461D01*
X1377Y461D02*
X1388Y461D01*
X1395Y461D02*
X1406Y461D01*
X251Y460D02*
X256Y460D01*
X556Y460D02*
X564Y460D01*
X647Y460D02*
X654Y460D01*
X776Y460D02*
X781Y460D01*
X896Y460D02*
X901Y460D01*
X919Y460D02*
X925Y460D01*
X1027Y460D02*
X1032Y460D01*
X1165Y460D02*
X1171Y460D01*
X1176Y460D02*
X1181Y460D01*
X1377Y460D02*
X1389Y460D01*
X1394Y460D02*
X1406Y460D01*
X251Y459D02*
X256Y459D01*
X556Y459D02*
X564Y459D01*
X648Y459D02*
X654Y459D01*
X776Y459D02*
X781Y459D01*
X895Y459D02*
X901Y459D01*
X919Y459D02*
X924Y459D01*
X1027Y459D02*
X1032Y459D01*
X1164Y459D02*
X1170Y459D01*
X1176Y459D02*
X1181Y459D01*
X1377Y459D02*
X1389Y459D01*
X1394Y459D02*
X1406Y459D01*
X251Y458D02*
X256Y458D01*
X555Y458D02*
X564Y458D01*
X649Y458D02*
X654Y458D01*
X776Y458D02*
X781Y458D01*
X896Y458D02*
X900Y458D01*
X918Y458D02*
X924Y458D01*
X1027Y458D02*
X1032Y458D01*
X1164Y458D02*
X1170Y458D01*
X1176Y458D02*
X1181Y458D01*
X1377Y458D02*
X1390Y458D01*
X1393Y458D02*
X1406Y458D01*
X251Y457D02*
X256Y457D01*
X555Y457D02*
X565Y457D01*
X649Y457D02*
X654Y457D01*
X776Y457D02*
X781Y457D01*
X896Y457D02*
X900Y457D01*
X917Y457D02*
X924Y457D01*
X1027Y457D02*
X1032Y457D01*
X1163Y457D02*
X1169Y457D01*
X1176Y457D02*
X1181Y457D01*
X1377Y457D02*
X1382Y457D01*
X1384Y457D02*
X1399Y457D01*
X1401Y457D02*
X1406Y457D01*
X251Y456D02*
X256Y456D01*
X555Y456D02*
X565Y456D01*
X649Y456D02*
X654Y456D01*
X776Y456D02*
X781Y456D01*
X898Y456D02*
X898Y456D01*
X916Y456D02*
X923Y456D01*
X1027Y456D02*
X1032Y456D01*
X1163Y456D02*
X1169Y456D01*
X1176Y456D02*
X1181Y456D01*
X1377Y456D02*
X1382Y456D01*
X1385Y456D02*
X1398Y456D01*
X1401Y456D02*
X1406Y456D01*
X251Y455D02*
X256Y455D01*
X469Y455D02*
X475Y455D01*
X483Y455D02*
X485Y455D01*
X513Y455D02*
X519Y455D01*
X527Y455D02*
X529Y455D01*
X555Y455D02*
X565Y455D01*
X649Y455D02*
X654Y455D01*
X776Y455D02*
X781Y455D01*
X916Y455D02*
X922Y455D01*
X1027Y455D02*
X1032Y455D01*
X1162Y455D02*
X1168Y455D01*
X1176Y455D02*
X1181Y455D01*
X1377Y455D02*
X1382Y455D01*
X1386Y455D02*
X1398Y455D01*
X1401Y455D02*
X1406Y455D01*
X251Y454D02*
X256Y454D01*
X290Y454D02*
X304Y454D01*
X328Y454D02*
X329Y454D01*
X352Y454D02*
X353Y454D01*
X379Y454D02*
X390Y454D01*
X421Y454D02*
X429Y454D01*
X440Y454D02*
X441Y454D01*
X467Y454D02*
X477Y454D01*
X482Y454D02*
X486Y454D01*
X511Y454D02*
X521Y454D01*
X526Y454D02*
X530Y454D01*
X554Y454D02*
X565Y454D01*
X642Y454D02*
X658Y454D01*
X686Y454D02*
X696Y454D01*
X776Y454D02*
X781Y454D01*
X816Y454D02*
X829Y454D01*
X861Y454D02*
X872Y454D01*
X915Y454D02*
X922Y454D01*
X992Y454D02*
X1003Y454D01*
X1027Y454D02*
X1032Y454D01*
X1039Y454D02*
X1047Y454D01*
X1080Y454D02*
X1090Y454D01*
X1128Y454D02*
X1138Y454D01*
X1162Y454D02*
X1168Y454D01*
X1176Y454D02*
X1181Y454D01*
X1252Y454D02*
X1268Y454D01*
X1296Y454D02*
X1312Y454D01*
X1347Y454D02*
X1357Y454D01*
X1377Y454D02*
X1382Y454D01*
X1386Y454D02*
X1397Y454D01*
X1401Y454D02*
X1406Y454D01*
X251Y453D02*
X256Y453D01*
X288Y453D02*
X305Y453D01*
X327Y453D02*
X331Y453D01*
X351Y453D02*
X355Y453D01*
X377Y453D02*
X393Y453D01*
X418Y453D02*
X431Y453D01*
X439Y453D02*
X442Y453D01*
X466Y453D02*
X478Y453D01*
X482Y453D02*
X487Y453D01*
X509Y453D02*
X522Y453D01*
X526Y453D02*
X530Y453D01*
X554Y453D02*
X566Y453D01*
X641Y453D02*
X660Y453D01*
X683Y453D02*
X699Y453D01*
X776Y453D02*
X781Y453D01*
X813Y453D02*
X830Y453D01*
X858Y453D02*
X874Y453D01*
X914Y453D02*
X921Y453D01*
X990Y453D02*
X1005Y453D01*
X1027Y453D02*
X1032Y453D01*
X1037Y453D02*
X1049Y453D01*
X1077Y453D02*
X1093Y453D01*
X1127Y453D02*
X1140Y453D01*
X1161Y453D02*
X1167Y453D01*
X1176Y453D02*
X1181Y453D01*
X1250Y453D02*
X1270Y453D01*
X1294Y453D02*
X1314Y453D01*
X1346Y453D02*
X1359Y453D01*
X1377Y453D02*
X1382Y453D01*
X1387Y453D02*
X1396Y453D01*
X1401Y453D02*
X1406Y453D01*
X251Y452D02*
X256Y452D01*
X287Y452D02*
X306Y452D01*
X327Y452D02*
X331Y452D01*
X351Y452D02*
X355Y452D01*
X376Y452D02*
X394Y452D01*
X417Y452D02*
X432Y452D01*
X438Y452D02*
X443Y452D01*
X464Y452D02*
X480Y452D01*
X482Y452D02*
X487Y452D01*
X508Y452D02*
X523Y452D01*
X525Y452D02*
X531Y452D01*
X554Y452D02*
X559Y452D01*
X561Y452D02*
X566Y452D01*
X640Y452D02*
X660Y452D01*
X682Y452D02*
X700Y452D01*
X776Y452D02*
X781Y452D01*
X812Y452D02*
X831Y452D01*
X857Y452D02*
X875Y452D01*
X913Y452D02*
X920Y452D01*
X988Y452D02*
X1007Y452D01*
X1027Y452D02*
X1032Y452D01*
X1035Y452D02*
X1051Y452D01*
X1076Y452D02*
X1094Y452D01*
X1127Y452D02*
X1140Y452D01*
X1161Y452D02*
X1167Y452D01*
X1176Y452D02*
X1181Y452D01*
X1248Y452D02*
X1272Y452D01*
X1292Y452D02*
X1315Y452D01*
X1345Y452D02*
X1359Y452D01*
X1377Y452D02*
X1382Y452D01*
X1388Y452D02*
X1395Y452D01*
X1401Y452D02*
X1406Y452D01*
X251Y451D02*
X256Y451D01*
X286Y451D02*
X306Y451D01*
X326Y451D02*
X331Y451D01*
X350Y451D02*
X355Y451D01*
X374Y451D02*
X395Y451D01*
X416Y451D02*
X433Y451D01*
X438Y451D02*
X443Y451D01*
X463Y451D02*
X487Y451D01*
X507Y451D02*
X531Y451D01*
X553Y451D02*
X559Y451D01*
X561Y451D02*
X566Y451D01*
X640Y451D02*
X660Y451D01*
X681Y451D02*
X702Y451D01*
X776Y451D02*
X781Y451D01*
X811Y451D02*
X831Y451D01*
X856Y451D02*
X877Y451D01*
X913Y451D02*
X919Y451D01*
X987Y451D02*
X1008Y451D01*
X1027Y451D02*
X1032Y451D01*
X1034Y451D02*
X1052Y451D01*
X1075Y451D02*
X1096Y451D01*
X1126Y451D02*
X1140Y451D01*
X1160Y451D02*
X1166Y451D01*
X1176Y451D02*
X1181Y451D01*
X1247Y451D02*
X1273Y451D01*
X1291Y451D02*
X1316Y451D01*
X1345Y451D02*
X1359Y451D01*
X1377Y451D02*
X1382Y451D01*
X1388Y451D02*
X1395Y451D01*
X1401Y451D02*
X1406Y451D01*
X251Y450D02*
X256Y450D01*
X285Y450D02*
X305Y450D01*
X326Y450D02*
X331Y450D01*
X350Y450D02*
X356Y450D01*
X373Y450D02*
X396Y450D01*
X415Y450D02*
X434Y450D01*
X438Y450D02*
X443Y450D01*
X462Y450D02*
X487Y450D01*
X506Y450D02*
X531Y450D01*
X553Y450D02*
X558Y450D01*
X561Y450D02*
X567Y450D01*
X641Y450D02*
X660Y450D01*
X680Y450D02*
X703Y450D01*
X776Y450D02*
X781Y450D01*
X810Y450D02*
X831Y450D01*
X855Y450D02*
X878Y450D01*
X912Y450D02*
X919Y450D01*
X986Y450D02*
X1009Y450D01*
X1027Y450D02*
X1053Y450D01*
X1074Y450D02*
X1097Y450D01*
X1126Y450D02*
X1140Y450D01*
X1160Y450D02*
X1166Y450D01*
X1176Y450D02*
X1181Y450D01*
X1247Y450D02*
X1273Y450D01*
X1290Y450D02*
X1317Y450D01*
X1345Y450D02*
X1359Y450D01*
X1377Y450D02*
X1382Y450D01*
X1389Y450D02*
X1394Y450D01*
X1401Y450D02*
X1406Y450D01*
X251Y449D02*
X256Y449D01*
X284Y449D02*
X305Y449D01*
X326Y449D02*
X331Y449D01*
X350Y449D02*
X356Y449D01*
X372Y449D02*
X397Y449D01*
X415Y449D02*
X435Y449D01*
X438Y449D02*
X443Y449D01*
X461Y449D02*
X470Y449D01*
X475Y449D02*
X487Y449D01*
X505Y449D02*
X513Y449D01*
X518Y449D02*
X531Y449D01*
X553Y449D02*
X558Y449D01*
X562Y449D02*
X567Y449D01*
X641Y449D02*
X660Y449D01*
X679Y449D02*
X703Y449D01*
X776Y449D02*
X781Y449D01*
X810Y449D02*
X830Y449D01*
X854Y449D02*
X879Y449D01*
X911Y449D02*
X918Y449D01*
X985Y449D02*
X1010Y449D01*
X1027Y449D02*
X1054Y449D01*
X1073Y449D02*
X1097Y449D01*
X1126Y449D02*
X1139Y449D01*
X1159Y449D02*
X1165Y449D01*
X1176Y449D02*
X1181Y449D01*
X1246Y449D02*
X1274Y449D01*
X1290Y449D02*
X1317Y449D01*
X1345Y449D02*
X1358Y449D01*
X1377Y449D02*
X1382Y449D01*
X1389Y449D02*
X1394Y449D01*
X1401Y449D02*
X1406Y449D01*
X251Y448D02*
X256Y448D01*
X284Y448D02*
X291Y448D01*
X326Y448D02*
X331Y448D01*
X350Y448D02*
X356Y448D01*
X371Y448D02*
X380Y448D01*
X389Y448D02*
X398Y448D01*
X414Y448D02*
X421Y448D01*
X428Y448D02*
X443Y448D01*
X460Y448D02*
X468Y448D01*
X476Y448D02*
X487Y448D01*
X504Y448D02*
X512Y448D01*
X520Y448D02*
X531Y448D01*
X552Y448D02*
X558Y448D01*
X562Y448D02*
X567Y448D01*
X649Y448D02*
X655Y448D01*
X678Y448D02*
X686Y448D01*
X696Y448D02*
X704Y448D01*
X776Y448D02*
X781Y448D01*
X809Y448D02*
X816Y448D01*
X853Y448D02*
X862Y448D01*
X871Y448D02*
X879Y448D01*
X910Y448D02*
X917Y448D01*
X984Y448D02*
X993Y448D01*
X1002Y448D02*
X1011Y448D01*
X1027Y448D02*
X1039Y448D01*
X1046Y448D02*
X1055Y448D01*
X1072Y448D02*
X1080Y448D01*
X1090Y448D02*
X1098Y448D01*
X1126Y448D02*
X1132Y448D01*
X1159Y448D02*
X1165Y448D01*
X1176Y448D02*
X1181Y448D01*
X1246Y448D02*
X1253Y448D01*
X1268Y448D02*
X1274Y448D01*
X1290Y448D02*
X1297Y448D01*
X1312Y448D02*
X1318Y448D01*
X1345Y448D02*
X1351Y448D01*
X1377Y448D02*
X1382Y448D01*
X1389Y448D02*
X1394Y448D01*
X1401Y448D02*
X1406Y448D01*
X251Y447D02*
X256Y447D01*
X284Y447D02*
X289Y447D01*
X326Y447D02*
X331Y447D01*
X350Y447D02*
X356Y447D01*
X371Y447D02*
X378Y447D01*
X391Y447D02*
X398Y447D01*
X414Y447D02*
X420Y447D01*
X429Y447D02*
X443Y447D01*
X459Y447D02*
X467Y447D01*
X477Y447D02*
X487Y447D01*
X503Y447D02*
X511Y447D01*
X521Y447D02*
X531Y447D01*
X552Y447D02*
X558Y447D01*
X562Y447D02*
X567Y447D01*
X649Y447D02*
X654Y447D01*
X677Y447D02*
X684Y447D01*
X698Y447D02*
X705Y447D01*
X776Y447D02*
X781Y447D01*
X809Y447D02*
X814Y447D01*
X852Y447D02*
X859Y447D01*
X873Y447D02*
X880Y447D01*
X909Y447D02*
X916Y447D01*
X984Y447D02*
X991Y447D01*
X1004Y447D02*
X1011Y447D01*
X1027Y447D02*
X1038Y447D01*
X1048Y447D02*
X1055Y447D01*
X1071Y447D02*
X1078Y447D01*
X1092Y447D02*
X1099Y447D01*
X1126Y447D02*
X1131Y447D01*
X1159Y447D02*
X1164Y447D01*
X1176Y447D02*
X1181Y447D01*
X1247Y447D02*
X1251Y447D01*
X1269Y447D02*
X1274Y447D01*
X1291Y447D02*
X1295Y447D01*
X1313Y447D02*
X1318Y447D01*
X1345Y447D02*
X1350Y447D01*
X1377Y447D02*
X1382Y447D01*
X1390Y447D02*
X1394Y447D01*
X1401Y447D02*
X1406Y447D01*
X251Y446D02*
X256Y446D01*
X283Y446D02*
X289Y446D01*
X326Y446D02*
X332Y446D01*
X350Y446D02*
X355Y446D01*
X371Y446D02*
X377Y446D01*
X393Y446D02*
X399Y446D01*
X414Y446D02*
X419Y446D01*
X430Y446D02*
X443Y446D01*
X459Y446D02*
X466Y446D01*
X478Y446D02*
X487Y446D01*
X502Y446D02*
X510Y446D01*
X522Y446D02*
X531Y446D01*
X552Y446D02*
X557Y446D01*
X562Y446D02*
X568Y446D01*
X649Y446D02*
X654Y446D01*
X677Y446D02*
X683Y446D01*
X699Y446D02*
X705Y446D01*
X776Y446D02*
X781Y446D01*
X809Y446D02*
X814Y446D01*
X852Y446D02*
X858Y446D01*
X874Y446D02*
X880Y446D01*
X909Y446D02*
X915Y446D01*
X983Y446D02*
X989Y446D01*
X1005Y446D02*
X1012Y446D01*
X1027Y446D02*
X1037Y446D01*
X1049Y446D02*
X1056Y446D01*
X1071Y446D02*
X1077Y446D01*
X1093Y446D02*
X1099Y446D01*
X1126Y446D02*
X1131Y446D01*
X1158Y446D02*
X1164Y446D01*
X1176Y446D02*
X1181Y446D01*
X1248Y446D02*
X1250Y446D01*
X1269Y446D02*
X1274Y446D01*
X1292Y446D02*
X1293Y446D01*
X1313Y446D02*
X1318Y446D01*
X1345Y446D02*
X1350Y446D01*
X1377Y446D02*
X1382Y446D01*
X1391Y446D02*
X1393Y446D01*
X1401Y446D02*
X1406Y446D01*
X251Y445D02*
X256Y445D01*
X283Y445D02*
X288Y445D01*
X327Y445D02*
X332Y445D01*
X350Y445D02*
X355Y445D01*
X370Y445D02*
X376Y445D01*
X394Y445D02*
X399Y445D01*
X414Y445D02*
X419Y445D01*
X431Y445D02*
X443Y445D01*
X458Y445D02*
X465Y445D01*
X479Y445D02*
X487Y445D01*
X502Y445D02*
X509Y445D01*
X523Y445D02*
X531Y445D01*
X552Y445D02*
X557Y445D01*
X563Y445D02*
X568Y445D01*
X649Y445D02*
X654Y445D01*
X677Y445D02*
X682Y445D01*
X700Y445D02*
X705Y445D01*
X776Y445D02*
X781Y445D01*
X809Y445D02*
X814Y445D01*
X852Y445D02*
X857Y445D01*
X875Y445D02*
X881Y445D01*
X908Y445D02*
X915Y445D01*
X983Y445D02*
X989Y445D01*
X1006Y445D02*
X1012Y445D01*
X1027Y445D02*
X1035Y445D01*
X1050Y445D02*
X1056Y445D01*
X1071Y445D02*
X1076Y445D01*
X1094Y445D02*
X1099Y445D01*
X1126Y445D02*
X1131Y445D01*
X1158Y445D02*
X1163Y445D01*
X1176Y445D02*
X1181Y445D01*
X1268Y445D02*
X1274Y445D01*
X1312Y445D02*
X1318Y445D01*
X1345Y445D02*
X1350Y445D01*
X1377Y445D02*
X1382Y445D01*
X1401Y445D02*
X1406Y445D01*
X251Y444D02*
X256Y444D01*
X283Y444D02*
X288Y444D01*
X327Y444D02*
X333Y444D01*
X349Y444D02*
X355Y444D01*
X370Y444D02*
X375Y444D01*
X394Y444D02*
X399Y444D01*
X414Y444D02*
X419Y444D01*
X433Y444D02*
X443Y444D01*
X458Y444D02*
X464Y444D01*
X480Y444D02*
X487Y444D01*
X502Y444D02*
X508Y444D01*
X524Y444D02*
X531Y444D01*
X551Y444D02*
X557Y444D01*
X563Y444D02*
X568Y444D01*
X649Y444D02*
X654Y444D01*
X677Y444D02*
X682Y444D01*
X700Y444D02*
X706Y444D01*
X776Y444D02*
X781Y444D01*
X809Y444D02*
X814Y444D01*
X852Y444D02*
X857Y444D01*
X876Y444D02*
X881Y444D01*
X907Y444D02*
X914Y444D01*
X983Y444D02*
X988Y444D01*
X1007Y444D02*
X1012Y444D01*
X1027Y444D02*
X1034Y444D01*
X1051Y444D02*
X1056Y444D01*
X1071Y444D02*
X1076Y444D01*
X1094Y444D02*
X1100Y444D01*
X1126Y444D02*
X1131Y444D01*
X1158Y444D02*
X1163Y444D01*
X1176Y444D02*
X1181Y444D01*
X1266Y444D02*
X1274Y444D01*
X1310Y444D02*
X1317Y444D01*
X1345Y444D02*
X1350Y444D01*
X1377Y444D02*
X1382Y444D01*
X1401Y444D02*
X1406Y444D01*
X251Y443D02*
X256Y443D01*
X283Y443D02*
X288Y443D01*
X327Y443D02*
X333Y443D01*
X349Y443D02*
X354Y443D01*
X370Y443D02*
X375Y443D01*
X394Y443D02*
X399Y443D01*
X414Y443D02*
X419Y443D01*
X434Y443D02*
X443Y443D01*
X458Y443D02*
X463Y443D01*
X481Y443D02*
X487Y443D01*
X502Y443D02*
X507Y443D01*
X525Y443D02*
X531Y443D01*
X551Y443D02*
X556Y443D01*
X563Y443D02*
X569Y443D01*
X649Y443D02*
X654Y443D01*
X677Y443D02*
X682Y443D01*
X701Y443D02*
X706Y443D01*
X776Y443D02*
X781Y443D01*
X809Y443D02*
X814Y443D01*
X852Y443D02*
X857Y443D01*
X876Y443D02*
X881Y443D01*
X906Y443D02*
X913Y443D01*
X983Y443D02*
X988Y443D01*
X1007Y443D02*
X1012Y443D01*
X1027Y443D02*
X1033Y443D01*
X1051Y443D02*
X1056Y443D01*
X1071Y443D02*
X1076Y443D01*
X1095Y443D02*
X1100Y443D01*
X1126Y443D02*
X1131Y443D01*
X1158Y443D02*
X1163Y443D01*
X1176Y443D02*
X1181Y443D01*
X1264Y443D02*
X1273Y443D01*
X1307Y443D02*
X1317Y443D01*
X1345Y443D02*
X1350Y443D01*
X1377Y443D02*
X1382Y443D01*
X1401Y443D02*
X1406Y443D01*
X251Y442D02*
X256Y442D01*
X283Y442D02*
X288Y442D01*
X328Y442D02*
X333Y442D01*
X348Y442D02*
X354Y442D01*
X370Y442D02*
X375Y442D01*
X394Y442D02*
X399Y442D01*
X414Y442D02*
X419Y442D01*
X435Y442D02*
X443Y442D01*
X458Y442D02*
X463Y442D01*
X481Y442D02*
X487Y442D01*
X501Y442D02*
X507Y442D01*
X525Y442D02*
X531Y442D01*
X551Y442D02*
X556Y442D01*
X564Y442D02*
X569Y442D01*
X649Y442D02*
X654Y442D01*
X677Y442D02*
X682Y442D01*
X701Y442D02*
X706Y442D01*
X776Y442D02*
X781Y442D01*
X809Y442D02*
X814Y442D01*
X852Y442D02*
X857Y442D01*
X876Y442D02*
X881Y442D01*
X906Y442D02*
X912Y442D01*
X983Y442D02*
X988Y442D01*
X1007Y442D02*
X1012Y442D01*
X1027Y442D02*
X1032Y442D01*
X1051Y442D02*
X1056Y442D01*
X1071Y442D02*
X1076Y442D01*
X1095Y442D02*
X1100Y442D01*
X1126Y442D02*
X1131Y442D01*
X1158Y442D02*
X1163Y442D01*
X1176Y442D02*
X1181Y442D01*
X1261Y442D02*
X1273Y442D01*
X1305Y442D02*
X1316Y442D01*
X1345Y442D02*
X1350Y442D01*
X1377Y442D02*
X1382Y442D01*
X1401Y442D02*
X1406Y442D01*
X251Y441D02*
X256Y441D01*
X283Y441D02*
X305Y441D01*
X328Y441D02*
X334Y441D01*
X348Y441D02*
X354Y441D01*
X370Y441D02*
X375Y441D01*
X394Y441D02*
X399Y441D01*
X415Y441D02*
X418Y441D01*
X436Y441D02*
X443Y441D01*
X458Y441D02*
X463Y441D01*
X482Y441D02*
X487Y441D01*
X501Y441D02*
X507Y441D01*
X525Y441D02*
X531Y441D01*
X550Y441D02*
X556Y441D01*
X564Y441D02*
X569Y441D01*
X649Y441D02*
X654Y441D01*
X677Y441D02*
X682Y441D01*
X701Y441D02*
X706Y441D01*
X776Y441D02*
X781Y441D01*
X808Y441D02*
X831Y441D01*
X852Y441D02*
X857Y441D01*
X876Y441D02*
X881Y441D01*
X905Y441D02*
X912Y441D01*
X983Y441D02*
X988Y441D01*
X1007Y441D02*
X1012Y441D01*
X1027Y441D02*
X1032Y441D01*
X1051Y441D02*
X1056Y441D01*
X1071Y441D02*
X1076Y441D01*
X1095Y441D02*
X1100Y441D01*
X1126Y441D02*
X1131Y441D01*
X1158Y441D02*
X1164Y441D01*
X1176Y441D02*
X1181Y441D01*
X1259Y441D02*
X1272Y441D01*
X1303Y441D02*
X1315Y441D01*
X1345Y441D02*
X1350Y441D01*
X1377Y441D02*
X1382Y441D01*
X1401Y441D02*
X1406Y441D01*
X251Y440D02*
X256Y440D01*
X283Y440D02*
X307Y440D01*
X329Y440D02*
X334Y440D01*
X347Y440D02*
X353Y440D01*
X370Y440D02*
X375Y440D01*
X394Y440D02*
X399Y440D01*
X437Y440D02*
X443Y440D01*
X458Y440D02*
X463Y440D01*
X482Y440D02*
X487Y440D01*
X501Y440D02*
X507Y440D01*
X525Y440D02*
X531Y440D01*
X550Y440D02*
X555Y440D01*
X564Y440D02*
X570Y440D01*
X649Y440D02*
X654Y440D01*
X677Y440D02*
X682Y440D01*
X701Y440D02*
X706Y440D01*
X776Y440D02*
X781Y440D01*
X808Y440D02*
X833Y440D01*
X852Y440D02*
X857Y440D01*
X876Y440D02*
X881Y440D01*
X904Y440D02*
X911Y440D01*
X983Y440D02*
X988Y440D01*
X1007Y440D02*
X1012Y440D01*
X1027Y440D02*
X1032Y440D01*
X1051Y440D02*
X1056Y440D01*
X1071Y440D02*
X1076Y440D01*
X1095Y440D02*
X1100Y440D01*
X1126Y440D02*
X1131Y440D01*
X1159Y440D02*
X1164Y440D01*
X1176Y440D02*
X1181Y440D01*
X1257Y440D02*
X1270Y440D01*
X1300Y440D02*
X1314Y440D01*
X1345Y440D02*
X1350Y440D01*
X1377Y440D02*
X1382Y440D01*
X1401Y440D02*
X1406Y440D01*
X251Y439D02*
X256Y439D01*
X283Y439D02*
X309Y439D01*
X329Y439D02*
X335Y439D01*
X347Y439D02*
X353Y439D01*
X370Y439D02*
X375Y439D01*
X394Y439D02*
X399Y439D01*
X438Y439D02*
X443Y439D01*
X458Y439D02*
X463Y439D01*
X482Y439D02*
X487Y439D01*
X501Y439D02*
X507Y439D01*
X525Y439D02*
X531Y439D01*
X550Y439D02*
X555Y439D01*
X564Y439D02*
X570Y439D01*
X649Y439D02*
X654Y439D01*
X677Y439D02*
X682Y439D01*
X701Y439D02*
X706Y439D01*
X776Y439D02*
X781Y439D01*
X808Y439D02*
X834Y439D01*
X852Y439D02*
X857Y439D01*
X875Y439D02*
X881Y439D01*
X903Y439D02*
X910Y439D01*
X983Y439D02*
X988Y439D01*
X1007Y439D02*
X1012Y439D01*
X1027Y439D02*
X1032Y439D01*
X1051Y439D02*
X1056Y439D01*
X1071Y439D02*
X1076Y439D01*
X1095Y439D02*
X1100Y439D01*
X1126Y439D02*
X1131Y439D01*
X1159Y439D02*
X1165Y439D01*
X1176Y439D02*
X1181Y439D01*
X1254Y439D02*
X1269Y439D01*
X1298Y439D02*
X1312Y439D01*
X1345Y439D02*
X1350Y439D01*
X1377Y439D02*
X1382Y439D01*
X1401Y439D02*
X1406Y439D01*
X251Y438D02*
X256Y438D01*
X283Y438D02*
X310Y438D01*
X330Y438D02*
X335Y438D01*
X347Y438D02*
X352Y438D01*
X370Y438D02*
X375Y438D01*
X394Y438D02*
X399Y438D01*
X438Y438D02*
X443Y438D01*
X458Y438D02*
X463Y438D01*
X482Y438D02*
X487Y438D01*
X501Y438D02*
X507Y438D01*
X525Y438D02*
X531Y438D01*
X550Y438D02*
X555Y438D01*
X565Y438D02*
X570Y438D01*
X649Y438D02*
X654Y438D01*
X677Y438D02*
X682Y438D01*
X701Y438D02*
X706Y438D01*
X776Y438D02*
X781Y438D01*
X808Y438D02*
X835Y438D01*
X852Y438D02*
X881Y438D01*
X902Y438D02*
X909Y438D01*
X983Y438D02*
X1012Y438D01*
X1027Y438D02*
X1032Y438D01*
X1051Y438D02*
X1056Y438D01*
X1071Y438D02*
X1076Y438D01*
X1095Y438D02*
X1100Y438D01*
X1126Y438D02*
X1131Y438D01*
X1159Y438D02*
X1165Y438D01*
X1176Y438D02*
X1181Y438D01*
X1252Y438D02*
X1266Y438D01*
X1296Y438D02*
X1310Y438D01*
X1345Y438D02*
X1350Y438D01*
X1377Y438D02*
X1382Y438D01*
X1401Y438D02*
X1406Y438D01*
X251Y437D02*
X256Y437D01*
X283Y437D02*
X310Y437D01*
X330Y437D02*
X336Y437D01*
X346Y437D02*
X352Y437D01*
X370Y437D02*
X375Y437D01*
X394Y437D02*
X399Y437D01*
X438Y437D02*
X443Y437D01*
X458Y437D02*
X463Y437D01*
X482Y437D02*
X487Y437D01*
X501Y437D02*
X507Y437D01*
X525Y437D02*
X531Y437D01*
X549Y437D02*
X555Y437D01*
X565Y437D02*
X570Y437D01*
X649Y437D02*
X654Y437D01*
X677Y437D02*
X682Y437D01*
X701Y437D02*
X706Y437D01*
X776Y437D02*
X781Y437D01*
X808Y437D02*
X836Y437D01*
X852Y437D02*
X881Y437D01*
X902Y437D02*
X908Y437D01*
X983Y437D02*
X1012Y437D01*
X1027Y437D02*
X1032Y437D01*
X1051Y437D02*
X1056Y437D01*
X1071Y437D02*
X1076Y437D01*
X1095Y437D02*
X1100Y437D01*
X1126Y437D02*
X1131Y437D01*
X1160Y437D02*
X1166Y437D01*
X1176Y437D02*
X1181Y437D01*
X1250Y437D02*
X1264Y437D01*
X1294Y437D02*
X1308Y437D01*
X1345Y437D02*
X1350Y437D01*
X1377Y437D02*
X1382Y437D01*
X1401Y437D02*
X1406Y437D01*
X251Y436D02*
X256Y436D01*
X283Y436D02*
X311Y436D01*
X330Y436D02*
X336Y436D01*
X346Y436D02*
X351Y436D01*
X370Y436D02*
X375Y436D01*
X394Y436D02*
X399Y436D01*
X438Y436D02*
X443Y436D01*
X458Y436D02*
X463Y436D01*
X482Y436D02*
X487Y436D01*
X501Y436D02*
X507Y436D01*
X525Y436D02*
X531Y436D01*
X549Y436D02*
X571Y436D01*
X649Y436D02*
X654Y436D01*
X677Y436D02*
X682Y436D01*
X701Y436D02*
X706Y436D01*
X776Y436D02*
X781Y436D01*
X808Y436D02*
X836Y436D01*
X852Y436D02*
X881Y436D01*
X901Y436D02*
X908Y436D01*
X983Y436D02*
X1012Y436D01*
X1027Y436D02*
X1032Y436D01*
X1051Y436D02*
X1056Y436D01*
X1071Y436D02*
X1076Y436D01*
X1095Y436D02*
X1100Y436D01*
X1126Y436D02*
X1131Y436D01*
X1160Y436D02*
X1166Y436D01*
X1176Y436D02*
X1181Y436D01*
X1249Y436D02*
X1262Y436D01*
X1293Y436D02*
X1306Y436D01*
X1345Y436D02*
X1350Y436D01*
X1377Y436D02*
X1382Y436D01*
X1401Y436D02*
X1406Y436D01*
X251Y435D02*
X256Y435D01*
X283Y435D02*
X290Y435D01*
X305Y435D02*
X311Y435D01*
X331Y435D02*
X337Y435D01*
X345Y435D02*
X351Y435D01*
X370Y435D02*
X375Y435D01*
X394Y435D02*
X399Y435D01*
X438Y435D02*
X443Y435D01*
X458Y435D02*
X463Y435D01*
X482Y435D02*
X487Y435D01*
X501Y435D02*
X507Y435D01*
X525Y435D02*
X531Y435D01*
X549Y435D02*
X571Y435D01*
X649Y435D02*
X654Y435D01*
X677Y435D02*
X682Y435D01*
X701Y435D02*
X706Y435D01*
X776Y435D02*
X781Y435D01*
X808Y435D02*
X815Y435D01*
X830Y435D02*
X837Y435D01*
X852Y435D02*
X881Y435D01*
X900Y435D02*
X907Y435D01*
X983Y435D02*
X1012Y435D01*
X1027Y435D02*
X1032Y435D01*
X1051Y435D02*
X1056Y435D01*
X1071Y435D02*
X1076Y435D01*
X1095Y435D02*
X1100Y435D01*
X1126Y435D02*
X1131Y435D01*
X1161Y435D02*
X1167Y435D01*
X1176Y435D02*
X1181Y435D01*
X1248Y435D02*
X1259Y435D01*
X1292Y435D02*
X1303Y435D01*
X1345Y435D02*
X1350Y435D01*
X1377Y435D02*
X1382Y435D01*
X1401Y435D02*
X1406Y435D01*
X251Y434D02*
X256Y434D01*
X283Y434D02*
X289Y434D01*
X306Y434D02*
X312Y434D01*
X331Y434D02*
X337Y434D01*
X345Y434D02*
X351Y434D01*
X370Y434D02*
X375Y434D01*
X394Y434D02*
X399Y434D01*
X438Y434D02*
X443Y434D01*
X458Y434D02*
X463Y434D01*
X482Y434D02*
X487Y434D01*
X501Y434D02*
X507Y434D01*
X525Y434D02*
X531Y434D01*
X548Y434D02*
X571Y434D01*
X649Y434D02*
X654Y434D01*
X677Y434D02*
X682Y434D01*
X701Y434D02*
X706Y434D01*
X776Y434D02*
X781Y434D01*
X808Y434D02*
X814Y434D01*
X831Y434D02*
X837Y434D01*
X852Y434D02*
X881Y434D01*
X899Y434D02*
X906Y434D01*
X984Y434D02*
X1012Y434D01*
X1027Y434D02*
X1032Y434D01*
X1051Y434D02*
X1056Y434D01*
X1071Y434D02*
X1076Y434D01*
X1095Y434D02*
X1100Y434D01*
X1126Y434D02*
X1131Y434D01*
X1161Y434D02*
X1167Y434D01*
X1176Y434D02*
X1181Y434D01*
X1247Y434D02*
X1257Y434D01*
X1291Y434D02*
X1301Y434D01*
X1345Y434D02*
X1350Y434D01*
X1377Y434D02*
X1382Y434D01*
X1401Y434D02*
X1406Y434D01*
X251Y433D02*
X256Y433D01*
X283Y433D02*
X288Y433D01*
X306Y433D02*
X312Y433D01*
X332Y433D02*
X337Y433D01*
X344Y433D02*
X350Y433D01*
X370Y433D02*
X375Y433D01*
X394Y433D02*
X399Y433D01*
X438Y433D02*
X443Y433D01*
X458Y433D02*
X463Y433D01*
X482Y433D02*
X487Y433D01*
X501Y433D02*
X507Y433D01*
X525Y433D02*
X531Y433D01*
X548Y433D02*
X572Y433D01*
X649Y433D02*
X654Y433D01*
X677Y433D02*
X682Y433D01*
X701Y433D02*
X706Y433D01*
X776Y433D02*
X781Y433D01*
X808Y433D02*
X813Y433D01*
X832Y433D02*
X837Y433D01*
X853Y433D02*
X881Y433D01*
X899Y433D02*
X905Y433D01*
X985Y433D02*
X1012Y433D01*
X1027Y433D02*
X1032Y433D01*
X1051Y433D02*
X1056Y433D01*
X1071Y433D02*
X1076Y433D01*
X1095Y433D02*
X1100Y433D01*
X1126Y433D02*
X1131Y433D01*
X1162Y433D02*
X1168Y433D01*
X1176Y433D02*
X1181Y433D01*
X1247Y433D02*
X1255Y433D01*
X1290Y433D02*
X1299Y433D01*
X1345Y433D02*
X1350Y433D01*
X1377Y433D02*
X1382Y433D01*
X1401Y433D02*
X1406Y433D01*
X251Y432D02*
X256Y432D01*
X283Y432D02*
X288Y432D01*
X307Y432D02*
X312Y432D01*
X332Y432D02*
X338Y432D01*
X344Y432D02*
X350Y432D01*
X370Y432D02*
X375Y432D01*
X394Y432D02*
X399Y432D01*
X438Y432D02*
X443Y432D01*
X458Y432D02*
X463Y432D01*
X481Y432D02*
X487Y432D01*
X501Y432D02*
X507Y432D01*
X525Y432D02*
X531Y432D01*
X548Y432D02*
X572Y432D01*
X649Y432D02*
X654Y432D01*
X677Y432D02*
X682Y432D01*
X701Y432D02*
X706Y432D01*
X776Y432D02*
X781Y432D01*
X808Y432D02*
X813Y432D01*
X832Y432D02*
X837Y432D01*
X876Y432D02*
X881Y432D01*
X898Y432D02*
X905Y432D01*
X1007Y432D02*
X1012Y432D01*
X1027Y432D02*
X1032Y432D01*
X1051Y432D02*
X1056Y432D01*
X1071Y432D02*
X1076Y432D01*
X1095Y432D02*
X1100Y432D01*
X1126Y432D02*
X1131Y432D01*
X1162Y432D02*
X1168Y432D01*
X1176Y432D02*
X1181Y432D01*
X1246Y432D02*
X1253Y432D01*
X1290Y432D02*
X1296Y432D01*
X1345Y432D02*
X1350Y432D01*
X1377Y432D02*
X1382Y432D01*
X1401Y432D02*
X1406Y432D01*
X251Y431D02*
X256Y431D01*
X283Y431D02*
X288Y431D01*
X307Y431D02*
X312Y431D01*
X333Y431D02*
X338Y431D01*
X344Y431D02*
X349Y431D01*
X370Y431D02*
X375Y431D01*
X394Y431D02*
X399Y431D01*
X438Y431D02*
X443Y431D01*
X458Y431D02*
X463Y431D01*
X481Y431D02*
X487Y431D01*
X502Y431D02*
X507Y431D01*
X525Y431D02*
X531Y431D01*
X548Y431D02*
X572Y431D01*
X649Y431D02*
X654Y431D01*
X677Y431D02*
X682Y431D01*
X701Y431D02*
X706Y431D01*
X776Y431D02*
X781Y431D01*
X808Y431D02*
X813Y431D01*
X832Y431D02*
X837Y431D01*
X876Y431D02*
X881Y431D01*
X897Y431D02*
X904Y431D01*
X922Y431D02*
X922Y431D01*
X1007Y431D02*
X1012Y431D01*
X1027Y431D02*
X1033Y431D01*
X1051Y431D02*
X1056Y431D01*
X1071Y431D02*
X1076Y431D01*
X1095Y431D02*
X1100Y431D01*
X1126Y431D02*
X1131Y431D01*
X1163Y431D02*
X1169Y431D01*
X1176Y431D02*
X1181Y431D01*
X1246Y431D02*
X1251Y431D01*
X1290Y431D02*
X1295Y431D01*
X1345Y431D02*
X1350Y431D01*
X1377Y431D02*
X1382Y431D01*
X1401Y431D02*
X1406Y431D01*
X251Y430D02*
X256Y430D01*
X283Y430D02*
X288Y430D01*
X307Y430D02*
X312Y430D01*
X333Y430D02*
X339Y430D01*
X343Y430D02*
X349Y430D01*
X370Y430D02*
X375Y430D01*
X394Y430D02*
X399Y430D01*
X438Y430D02*
X443Y430D01*
X458Y430D02*
X464Y430D01*
X480Y430D02*
X487Y430D01*
X502Y430D02*
X508Y430D01*
X524Y430D02*
X531Y430D01*
X547Y430D02*
X553Y430D01*
X567Y430D02*
X572Y430D01*
X649Y430D02*
X654Y430D01*
X677Y430D02*
X682Y430D01*
X700Y430D02*
X706Y430D01*
X776Y430D02*
X781Y430D01*
X808Y430D02*
X813Y430D01*
X832Y430D02*
X837Y430D01*
X875Y430D02*
X881Y430D01*
X896Y430D02*
X903Y430D01*
X920Y430D02*
X924Y430D01*
X1007Y430D02*
X1012Y430D01*
X1027Y430D02*
X1034Y430D01*
X1051Y430D02*
X1056Y430D01*
X1071Y430D02*
X1076Y430D01*
X1094Y430D02*
X1100Y430D01*
X1126Y430D02*
X1131Y430D01*
X1163Y430D02*
X1169Y430D01*
X1176Y430D02*
X1181Y430D01*
X1246Y430D02*
X1251Y430D01*
X1290Y430D02*
X1295Y430D01*
X1345Y430D02*
X1350Y430D01*
X1377Y430D02*
X1382Y430D01*
X1401Y430D02*
X1406Y430D01*
X251Y429D02*
X256Y429D01*
X283Y429D02*
X289Y429D01*
X307Y429D02*
X312Y429D01*
X334Y429D02*
X339Y429D01*
X343Y429D02*
X348Y429D01*
X370Y429D02*
X376Y429D01*
X393Y429D02*
X399Y429D01*
X438Y429D02*
X443Y429D01*
X458Y429D02*
X465Y429D01*
X479Y429D02*
X487Y429D01*
X502Y429D02*
X509Y429D01*
X523Y429D02*
X531Y429D01*
X547Y429D02*
X552Y429D01*
X567Y429D02*
X573Y429D01*
X649Y429D02*
X654Y429D01*
X677Y429D02*
X682Y429D01*
X700Y429D02*
X706Y429D01*
X776Y429D02*
X781Y429D01*
X808Y429D02*
X815Y429D01*
X832Y429D02*
X837Y429D01*
X875Y429D02*
X881Y429D01*
X896Y429D02*
X902Y429D01*
X920Y429D02*
X924Y429D01*
X1006Y429D02*
X1012Y429D01*
X1027Y429D02*
X1035Y429D01*
X1050Y429D02*
X1056Y429D01*
X1071Y429D02*
X1076Y429D01*
X1094Y429D02*
X1099Y429D01*
X1126Y429D02*
X1131Y429D01*
X1164Y429D02*
X1170Y429D01*
X1176Y429D02*
X1181Y429D01*
X1246Y429D02*
X1251Y429D01*
X1290Y429D02*
X1295Y429D01*
X1345Y429D02*
X1350Y429D01*
X1377Y429D02*
X1382Y429D01*
X1401Y429D02*
X1406Y429D01*
X251Y428D02*
X256Y428D01*
X283Y428D02*
X291Y428D01*
X306Y428D02*
X312Y428D01*
X334Y428D02*
X340Y428D01*
X342Y428D02*
X348Y428D01*
X371Y428D02*
X377Y428D01*
X393Y428D02*
X399Y428D01*
X438Y428D02*
X443Y428D01*
X459Y428D02*
X466Y428D01*
X478Y428D02*
X487Y428D01*
X502Y428D02*
X510Y428D01*
X522Y428D02*
X531Y428D01*
X547Y428D02*
X552Y428D01*
X568Y428D02*
X573Y428D01*
X649Y428D02*
X654Y428D01*
X677Y428D02*
X683Y428D01*
X699Y428D02*
X705Y428D01*
X776Y428D02*
X781Y428D01*
X808Y428D02*
X816Y428D01*
X832Y428D02*
X837Y428D01*
X874Y428D02*
X880Y428D01*
X896Y428D02*
X902Y428D01*
X919Y428D02*
X925Y428D01*
X1005Y428D02*
X1012Y428D01*
X1027Y428D02*
X1037Y428D01*
X1049Y428D02*
X1055Y428D01*
X1071Y428D02*
X1077Y428D01*
X1093Y428D02*
X1099Y428D01*
X1126Y428D02*
X1131Y428D01*
X1164Y428D02*
X1170Y428D01*
X1176Y428D02*
X1181Y428D01*
X1246Y428D02*
X1251Y428D01*
X1271Y428D02*
X1273Y428D01*
X1290Y428D02*
X1295Y428D01*
X1315Y428D02*
X1317Y428D01*
X1345Y428D02*
X1350Y428D01*
X1377Y428D02*
X1382Y428D01*
X1401Y428D02*
X1406Y428D01*
X251Y427D02*
X256Y427D01*
X283Y427D02*
X293Y427D01*
X306Y427D02*
X311Y427D01*
X334Y427D02*
X340Y427D01*
X342Y427D02*
X347Y427D01*
X371Y427D02*
X378Y427D01*
X391Y427D02*
X398Y427D01*
X438Y427D02*
X443Y427D01*
X459Y427D02*
X467Y427D01*
X477Y427D02*
X487Y427D01*
X503Y427D02*
X511Y427D01*
X521Y427D02*
X531Y427D01*
X546Y427D02*
X552Y427D01*
X568Y427D02*
X573Y427D01*
X649Y427D02*
X654Y427D01*
X677Y427D02*
X684Y427D01*
X698Y427D02*
X705Y427D01*
X776Y427D02*
X781Y427D01*
X808Y427D02*
X818Y427D01*
X831Y427D02*
X837Y427D01*
X873Y427D02*
X880Y427D01*
X896Y427D02*
X901Y427D01*
X919Y427D02*
X924Y427D01*
X1004Y427D02*
X1011Y427D01*
X1027Y427D02*
X1038Y427D01*
X1048Y427D02*
X1055Y427D01*
X1071Y427D02*
X1078Y427D01*
X1092Y427D02*
X1099Y427D01*
X1126Y427D02*
X1131Y427D01*
X1165Y427D02*
X1171Y427D01*
X1176Y427D02*
X1181Y427D01*
X1246Y427D02*
X1252Y427D01*
X1270Y427D02*
X1274Y427D01*
X1290Y427D02*
X1296Y427D01*
X1313Y427D02*
X1318Y427D01*
X1345Y427D02*
X1350Y427D01*
X1377Y427D02*
X1382Y427D01*
X1401Y427D02*
X1406Y427D01*
X250Y426D02*
X256Y426D01*
X283Y426D02*
X295Y426D01*
X304Y426D02*
X311Y426D01*
X335Y426D02*
X347Y426D01*
X372Y426D02*
X380Y426D01*
X389Y426D02*
X398Y426D01*
X438Y426D02*
X443Y426D01*
X460Y426D02*
X468Y426D01*
X476Y426D02*
X487Y426D01*
X504Y426D02*
X512Y426D01*
X520Y426D02*
X531Y426D01*
X546Y426D02*
X551Y426D01*
X568Y426D02*
X574Y426D01*
X649Y426D02*
X654Y426D01*
X678Y426D02*
X687Y426D01*
X696Y426D02*
X704Y426D01*
X776Y426D02*
X782Y426D01*
X808Y426D02*
X820Y426D01*
X829Y426D02*
X837Y426D01*
X871Y426D02*
X879Y426D01*
X896Y426D02*
X901Y426D01*
X918Y426D02*
X924Y426D01*
X1002Y426D02*
X1011Y426D01*
X1027Y426D02*
X1040Y426D01*
X1046Y426D02*
X1055Y426D01*
X1072Y426D02*
X1081Y426D01*
X1090Y426D02*
X1098Y426D01*
X1126Y426D02*
X1132Y426D01*
X1165Y426D02*
X1172Y426D01*
X1176Y426D02*
X1182Y426D01*
X1246Y426D02*
X1254Y426D01*
X1267Y426D02*
X1275Y426D01*
X1290Y426D02*
X1297Y426D01*
X1311Y426D02*
X1318Y426D01*
X1345Y426D02*
X1351Y426D01*
X1377Y426D02*
X1382Y426D01*
X1401Y426D02*
X1406Y426D01*
X243Y425D02*
X264Y425D01*
X283Y425D02*
X311Y425D01*
X335Y425D02*
X347Y425D01*
X372Y425D02*
X397Y425D01*
X438Y425D02*
X443Y425D01*
X461Y425D02*
X470Y425D01*
X475Y425D02*
X487Y425D01*
X505Y425D02*
X514Y425D01*
X518Y425D02*
X531Y425D01*
X546Y425D02*
X551Y425D01*
X569Y425D02*
X574Y425D01*
X649Y425D02*
X654Y425D01*
X679Y425D02*
X704Y425D01*
X768Y425D02*
X789Y425D01*
X808Y425D02*
X836Y425D01*
X853Y425D02*
X879Y425D01*
X896Y425D02*
X924Y425D01*
X984Y425D02*
X1010Y425D01*
X1027Y425D02*
X1054Y425D01*
X1073Y425D02*
X1098Y425D01*
X1118Y425D02*
X1140Y425D01*
X1166Y425D02*
X1186Y425D01*
X1247Y425D02*
X1275Y425D01*
X1290Y425D02*
X1318Y425D01*
X1337Y425D02*
X1358Y425D01*
X1377Y425D02*
X1382Y425D01*
X1401Y425D02*
X1406Y425D01*
X242Y424D02*
X265Y424D01*
X283Y424D02*
X310Y424D01*
X336Y424D02*
X346Y424D01*
X373Y424D02*
X396Y424D01*
X438Y424D02*
X443Y424D01*
X462Y424D02*
X487Y424D01*
X506Y424D02*
X531Y424D01*
X545Y424D02*
X551Y424D01*
X569Y424D02*
X574Y424D01*
X649Y424D02*
X654Y424D01*
X680Y424D02*
X703Y424D01*
X767Y424D02*
X790Y424D01*
X808Y424D02*
X836Y424D01*
X852Y424D02*
X878Y424D01*
X896Y424D02*
X923Y424D01*
X983Y424D02*
X1009Y424D01*
X1027Y424D02*
X1053Y424D01*
X1074Y424D02*
X1097Y424D01*
X1118Y424D02*
X1140Y424D01*
X1166Y424D02*
X1187Y424D01*
X1247Y424D02*
X1274Y424D01*
X1291Y424D02*
X1318Y424D01*
X1336Y424D02*
X1359Y424D01*
X1377Y424D02*
X1382Y424D01*
X1401Y424D02*
X1406Y424D01*
X242Y423D02*
X265Y423D01*
X283Y423D02*
X309Y423D01*
X336Y423D02*
X346Y423D01*
X374Y423D02*
X395Y423D01*
X438Y423D02*
X443Y423D01*
X463Y423D02*
X487Y423D01*
X507Y423D02*
X531Y423D01*
X545Y423D02*
X550Y423D01*
X569Y423D02*
X574Y423D01*
X649Y423D02*
X654Y423D01*
X681Y423D02*
X701Y423D01*
X767Y423D02*
X790Y423D01*
X808Y423D02*
X835Y423D01*
X852Y423D02*
X877Y423D01*
X897Y423D02*
X923Y423D01*
X983Y423D02*
X1008Y423D01*
X1027Y423D02*
X1032Y423D01*
X1034Y423D02*
X1052Y423D01*
X1075Y423D02*
X1095Y423D01*
X1117Y423D02*
X1140Y423D01*
X1167Y423D02*
X1187Y423D01*
X1248Y423D02*
X1274Y423D01*
X1292Y423D02*
X1317Y423D01*
X1336Y423D02*
X1359Y423D01*
X1377Y423D02*
X1382Y423D01*
X1401Y423D02*
X1406Y423D01*
X242Y422D02*
X265Y422D01*
X283Y422D02*
X287Y422D01*
X290Y422D02*
X308Y422D01*
X337Y422D02*
X345Y422D01*
X376Y422D02*
X394Y422D01*
X438Y422D02*
X443Y422D01*
X465Y422D02*
X480Y422D01*
X482Y422D02*
X487Y422D01*
X508Y422D02*
X523Y422D01*
X525Y422D02*
X531Y422D01*
X545Y422D02*
X550Y422D01*
X569Y422D02*
X574Y422D01*
X650Y422D02*
X654Y422D01*
X682Y422D02*
X700Y422D01*
X767Y422D02*
X790Y422D01*
X808Y422D02*
X813Y422D01*
X815Y422D02*
X834Y422D01*
X852Y422D02*
X875Y422D01*
X897Y422D02*
X922Y422D01*
X983Y422D02*
X1007Y422D01*
X1027Y422D02*
X1032Y422D01*
X1035Y422D02*
X1051Y422D01*
X1076Y422D02*
X1094Y422D01*
X1118Y422D02*
X1140Y422D01*
X1168Y422D02*
X1187Y422D01*
X1249Y422D02*
X1272Y422D01*
X1293Y422D02*
X1316Y422D01*
X1336Y422D02*
X1359Y422D01*
X1377Y422D02*
X1382Y422D01*
X1401Y422D02*
X1406Y422D01*
X243Y421D02*
X264Y421D01*
X283Y421D02*
X287Y421D01*
X292Y421D02*
X307Y421D01*
X337Y421D02*
X345Y421D01*
X377Y421D02*
X392Y421D01*
X439Y421D02*
X442Y421D01*
X466Y421D02*
X479Y421D01*
X482Y421D02*
X487Y421D01*
X510Y421D02*
X522Y421D01*
X525Y421D02*
X531Y421D01*
X546Y421D02*
X550Y421D01*
X570Y421D02*
X574Y421D01*
X650Y421D02*
X654Y421D01*
X683Y421D02*
X699Y421D01*
X768Y421D02*
X790Y421D01*
X809Y421D02*
X812Y421D01*
X817Y421D02*
X832Y421D01*
X852Y421D02*
X874Y421D01*
X898Y421D02*
X921Y421D01*
X984Y421D02*
X1005Y421D01*
X1027Y421D02*
X1031Y421D01*
X1037Y421D02*
X1049Y421D01*
X1077Y421D02*
X1093Y421D01*
X1118Y421D02*
X1140Y421D01*
X1169Y421D02*
X1186Y421D01*
X1251Y421D02*
X1270Y421D01*
X1294Y421D02*
X1314Y421D01*
X1337Y421D02*
X1359Y421D01*
X1378Y421D02*
X1381Y421D01*
X1402Y421D02*
X1405Y421D01*
X244Y420D02*
X263Y420D01*
X285Y420D02*
X285Y420D01*
X294Y420D02*
X304Y420D01*
X339Y420D02*
X343Y420D01*
X380Y420D02*
X389Y420D01*
X440Y420D02*
X441Y420D01*
X467Y420D02*
X477Y420D01*
X482Y420D02*
X487Y420D01*
X511Y420D02*
X521Y420D01*
X525Y420D02*
X531Y420D01*
X547Y420D02*
X548Y420D01*
X572Y420D02*
X572Y420D01*
X652Y420D02*
X652Y420D01*
X686Y420D02*
X696Y420D01*
X769Y420D02*
X788Y420D01*
X810Y420D02*
X811Y420D01*
X819Y420D02*
X830Y420D01*
X854Y420D02*
X871Y420D01*
X901Y420D02*
X918Y420D01*
X985Y420D02*
X1003Y420D01*
X1029Y420D02*
X1030Y420D01*
X1039Y420D02*
X1046Y420D01*
X1080Y420D02*
X1090Y420D01*
X1120Y420D02*
X1138Y420D01*
X1173Y420D02*
X1185Y420D01*
X1253Y420D02*
X1267Y420D01*
X1297Y420D02*
X1311Y420D01*
X1338Y420D02*
X1357Y420D01*
X1379Y420D02*
X1380Y420D01*
X1403Y420D02*
X1404Y420D01*
X469Y419D02*
X475Y419D01*
X482Y419D02*
X487Y419D01*
X513Y419D02*
X519Y419D01*
X525Y419D02*
X531Y419D01*
X482Y418D02*
X487Y418D01*
X525Y418D02*
X531Y418D01*
X482Y417D02*
X487Y417D01*
X525Y417D02*
X531Y417D01*
X482Y416D02*
X487Y416D01*
X525Y416D02*
X531Y416D01*
X482Y415D02*
X487Y415D01*
X525Y415D02*
X531Y415D01*
X482Y414D02*
X487Y414D01*
X525Y414D02*
X531Y414D01*
X482Y413D02*
X487Y413D01*
X525Y413D02*
X531Y413D01*
X482Y412D02*
X487Y412D01*
X525Y412D02*
X531Y412D01*
X482Y411D02*
X487Y411D01*
X525Y411D02*
X531Y411D01*
X482Y410D02*
X487Y410D01*
X525Y410D02*
X531Y410D01*
X482Y409D02*
X487Y409D01*
X526Y409D02*
X530Y409D01*
X483Y408D02*
X486Y408D01*
X526Y408D02*
X530Y408D01*
D02*
G04 End of Silk0*
M02*