; NON-PLATED HOLES START AT T1
; THROUGH (PLATED) HOLES START AT T100
M48
INCH
T1C0.086614
T2C0.125984
T100C0.055118
T101C0.035000
T102C0.040000
T103C0.042000
T104C0.086614
T105C0.044111
T106C0.030000
T107C0.038000
T108C0.044139
T109C0.088356
%
T1
X000777Y011033
X026777Y000783
X000777Y000783
X026777Y011033
T2
X016795Y009113
X016784Y002056
T100
X018884Y003711
X018884Y007451
X014697Y005615
X014671Y003711
X014671Y007451
T101
X022996Y001148
X002623Y008985
X006623Y008985
X022996Y003707
X021225Y003707
X021225Y001148
X011846Y003252
X012925Y008984
X008925Y008984
X009846Y003252
X010846Y003252
T102
X025084Y008392
X025076Y005396
X025076Y006774
X025084Y009770
T103
X021510Y007122
X022705Y007125
X022705Y010105
X009415Y007611
X021510Y010102
X012395Y007611
T104
X002658Y006213
X006557Y006213
T105
X003605Y003236
X004605Y003236
T106
X021700Y005211
X021698Y006108
X022702Y005211
X011852Y006108
X022700Y006108
X010849Y006108
X010849Y005106
X011852Y005106
T107
X025081Y001716
X025081Y002715
X025081Y003715
T108
X005605Y003236
T109
X006546Y006189
X002663Y006189
T00
M30
