G04 MADE WITH FRITZING*
G04 WWW.FRITZING.ORG*
G04 DOUBLE SIDED*
G04 HOLES PLATED*
G04 CONTOUR ON CENTER OF CONTOUR VECTOR*
%ASAXBY*%
%FSLAX23Y23*%
%MOIN*%
%OFA0B0*%
%SFA1.0B1.0*%
%ADD10C,0.075000*%
%ADD11C,0.075118*%
%ADD12C,0.074803*%
%ADD13C,0.082000*%
%ADD14C,0.080000*%
%ADD15C,0.070000*%
%ADD16C,0.071889*%
%ADD17C,0.071917*%
%ADD18C,0.124033*%
%ADD19C,0.078000*%
%ADD20C,0.125984*%
%ADD21R,0.082000X0.082000*%
%ADD22R,0.080000X0.080000*%
%ADD23R,0.078000X0.078000*%
%ADD24C,0.024000*%
%ADD25R,0.001000X0.001000*%
%LNCOPPER1*%
G90*
G70*
G54D10*
X262Y899D03*
X662Y899D03*
G54D11*
X1888Y745D03*
X1467Y745D03*
X1467Y371D03*
X1888Y371D03*
X1888Y745D03*
X1467Y745D03*
X1467Y371D03*
X1888Y371D03*
G54D12*
X1470Y562D03*
G54D10*
X893Y898D03*
X1293Y898D03*
G54D13*
X1240Y761D03*
X942Y761D03*
X2271Y713D03*
X2271Y1011D03*
X2151Y1010D03*
X2151Y712D03*
G54D14*
X2508Y677D03*
X2508Y540D03*
G54D10*
X1185Y325D03*
X1085Y325D03*
X985Y325D03*
G54D15*
X2270Y611D03*
X2170Y611D03*
X2270Y521D03*
X2170Y521D03*
X1085Y611D03*
X1085Y511D03*
X1185Y611D03*
X1185Y511D03*
G54D16*
X361Y324D03*
X461Y324D03*
G54D17*
X561Y324D03*
G54D18*
X266Y619D03*
X655Y619D03*
G54D19*
X2508Y372D03*
X2508Y272D03*
X2508Y172D03*
G54D10*
X2300Y371D03*
X2300Y115D03*
X2123Y371D03*
X2123Y115D03*
G54D14*
X2508Y977D03*
X2508Y839D03*
G54D20*
X266Y621D03*
X656Y621D03*
G54D21*
X1241Y761D03*
X2271Y712D03*
X2151Y1011D03*
G54D22*
X2508Y677D03*
G54D23*
X2508Y372D03*
G54D22*
X2508Y977D03*
G54D24*
X461Y674D02*
X281Y877D01*
D02*
X461Y357D02*
X461Y674D01*
D02*
X702Y45D02*
X2354Y45D01*
D02*
X2435Y272D02*
X2478Y272D01*
D02*
X2354Y45D02*
X2435Y272D01*
D02*
X482Y299D02*
X702Y45D01*
D02*
X789Y1010D02*
X684Y917D01*
D02*
X2119Y1010D02*
X789Y1010D01*
D02*
X2183Y1010D02*
X2238Y1010D01*
D02*
X2303Y1011D02*
X2351Y1011D01*
D02*
X2351Y1011D02*
X2386Y977D01*
D02*
X2386Y977D02*
X2477Y977D01*
D02*
X1210Y773D02*
X919Y888D01*
D02*
X1470Y898D02*
X1321Y898D01*
D02*
X1559Y661D02*
X1559Y814D01*
D02*
X1559Y814D02*
X1470Y898D01*
D02*
X1496Y590D02*
X1559Y661D01*
D02*
X2123Y143D02*
X2123Y342D01*
D02*
X2300Y342D02*
X2300Y143D01*
D02*
X2238Y712D02*
X2183Y712D01*
D02*
X2270Y680D02*
X2270Y637D01*
D02*
X2270Y585D02*
X2270Y547D01*
D02*
X1209Y622D02*
X1432Y728D01*
D02*
X1111Y611D02*
X1159Y611D01*
D02*
X1209Y499D02*
X1433Y388D01*
D02*
X2009Y611D02*
X1914Y716D01*
D02*
X2144Y611D02*
X2009Y611D01*
D02*
X2004Y521D02*
X1912Y402D01*
D02*
X2144Y521D02*
X2004Y521D01*
D02*
X1802Y97D02*
X2070Y443D01*
D02*
X2070Y443D02*
X2289Y443D01*
D02*
X1184Y97D02*
X1802Y97D01*
D02*
X2289Y443D02*
X2486Y655D01*
D02*
X1003Y304D02*
X1184Y97D01*
D02*
X942Y382D02*
X942Y729D01*
D02*
X967Y348D02*
X942Y382D01*
D02*
X2350Y371D02*
X2486Y517D01*
D02*
X2328Y371D02*
X2350Y371D01*
D02*
X2531Y818D02*
X2616Y735D01*
D02*
X2616Y481D02*
X2529Y393D01*
D02*
X2616Y735D02*
X2616Y481D01*
G54D25*
X1236Y773D02*
X1242Y773D01*
X1233Y772D02*
X1244Y772D01*
X1230Y771D02*
X1246Y771D01*
X1228Y770D02*
X1247Y770D01*
X1225Y769D02*
X1248Y769D01*
X1222Y768D02*
X1248Y768D01*
X1220Y767D02*
X1249Y767D01*
X1217Y766D02*
X1249Y766D01*
X1215Y765D02*
X1250Y765D01*
X1212Y764D02*
X1250Y764D01*
X1209Y763D02*
X1250Y763D01*
X1207Y762D02*
X1250Y762D01*
X1204Y761D02*
X1250Y761D01*
X1202Y760D02*
X1250Y760D01*
X1199Y759D02*
X1250Y759D01*
X1196Y758D02*
X1250Y758D01*
X1194Y757D02*
X1249Y757D01*
X1191Y756D02*
X1249Y756D01*
X1189Y755D02*
X1248Y755D01*
X1186Y754D02*
X1247Y754D01*
X1183Y753D02*
X1247Y753D01*
X1181Y752D02*
X1245Y752D01*
X1178Y751D02*
X1244Y751D01*
X1176Y750D02*
X1242Y750D01*
X1173Y749D02*
X1239Y749D01*
X1171Y748D02*
X1236Y748D01*
X1168Y747D02*
X1234Y747D01*
X1165Y746D02*
X1231Y746D01*
X1163Y745D02*
X1229Y745D01*
X1160Y744D02*
X1226Y744D01*
X1158Y743D02*
X1223Y743D01*
X1155Y742D02*
X1221Y742D01*
X1152Y741D02*
X1218Y741D01*
X1150Y740D02*
X1216Y740D01*
X1147Y739D02*
X1213Y739D01*
X1145Y738D02*
X1210Y738D01*
X1142Y737D02*
X1208Y737D01*
X1139Y736D02*
X1205Y736D01*
X1137Y735D02*
X1203Y735D01*
X1134Y734D02*
X1200Y734D01*
X1132Y733D02*
X1197Y733D01*
X1129Y732D02*
X1195Y732D01*
X1126Y731D02*
X1192Y731D01*
X1124Y730D02*
X1190Y730D01*
X1121Y729D02*
X1187Y729D01*
X1119Y728D02*
X1184Y728D01*
X1116Y727D02*
X1182Y727D01*
X1113Y726D02*
X1179Y726D01*
X1111Y725D02*
X1177Y725D01*
X1108Y724D02*
X1174Y724D01*
X1106Y723D02*
X1171Y723D01*
X1103Y722D02*
X1169Y722D01*
X1101Y721D02*
X1166Y721D01*
X1098Y720D02*
X1164Y720D01*
X1096Y719D02*
X1161Y719D01*
X1093Y718D02*
X1158Y718D01*
X1090Y717D02*
X1156Y717D01*
X1088Y716D02*
X1153Y716D01*
X1085Y715D02*
X1151Y715D01*
X1083Y714D02*
X1148Y714D01*
X1080Y713D02*
X1145Y713D01*
X1078Y712D02*
X1143Y712D01*
X1075Y711D02*
X1140Y711D01*
X1072Y710D02*
X1138Y710D01*
X1070Y709D02*
X1135Y709D01*
X1067Y708D02*
X1132Y708D01*
X1065Y707D02*
X1130Y707D01*
X1062Y706D02*
X1127Y706D01*
X1060Y705D02*
X1125Y705D01*
X1057Y704D02*
X1122Y704D01*
X1054Y703D02*
X1120Y703D01*
X1052Y702D02*
X1117Y702D01*
X1049Y701D02*
X1114Y701D01*
X1047Y700D02*
X1112Y700D01*
X1044Y699D02*
X1109Y699D01*
X1042Y698D02*
X1107Y698D01*
X1039Y697D02*
X1104Y697D01*
X1037Y696D02*
X1102Y696D01*
X1034Y695D02*
X1099Y695D01*
X1032Y694D02*
X1096Y694D01*
X1029Y693D02*
X1094Y693D01*
X1027Y692D02*
X1091Y692D01*
X1024Y691D02*
X1089Y691D01*
X1022Y690D02*
X1086Y690D01*
X1019Y689D02*
X1084Y689D01*
X1017Y688D02*
X1081Y688D01*
X1014Y687D02*
X1078Y687D01*
X1012Y686D02*
X1076Y686D01*
X1009Y685D02*
X1073Y685D01*
X1007Y684D02*
X1071Y684D01*
X1005Y683D02*
X1068Y683D01*
X1002Y682D02*
X1066Y682D01*
X1000Y681D02*
X1063Y681D01*
X998Y680D02*
X1060Y680D01*
X996Y679D02*
X1058Y679D01*
X995Y678D02*
X1055Y678D01*
X994Y677D02*
X1053Y677D01*
X993Y676D02*
X1050Y676D01*
X992Y675D02*
X1048Y675D01*
X992Y674D02*
X1045Y674D01*
X992Y673D02*
X1043Y673D01*
X991Y672D02*
X1040Y672D01*
X991Y671D02*
X1038Y671D01*
X991Y670D02*
X1035Y670D01*
X991Y669D02*
X1033Y669D01*
X991Y668D02*
X1030Y668D01*
X991Y667D02*
X1028Y667D01*
X991Y666D02*
X1025Y666D01*
X991Y665D02*
X1023Y665D01*
X991Y664D02*
X1020Y664D01*
X991Y663D02*
X1018Y663D01*
X991Y662D02*
X1015Y662D01*
X991Y661D02*
X1014Y661D01*
X991Y660D02*
X1014Y660D01*
X991Y659D02*
X1014Y659D01*
X991Y658D02*
X1014Y658D01*
X991Y657D02*
X1014Y657D01*
X991Y656D02*
X1014Y656D01*
X991Y655D02*
X1014Y655D01*
X991Y654D02*
X1014Y654D01*
X991Y653D02*
X1014Y653D01*
X991Y652D02*
X1014Y652D01*
X991Y651D02*
X1014Y651D01*
X991Y650D02*
X1014Y650D01*
X991Y649D02*
X1014Y649D01*
X991Y648D02*
X1014Y648D01*
X991Y647D02*
X1014Y647D01*
X991Y646D02*
X1014Y646D01*
X991Y645D02*
X1014Y645D01*
X991Y644D02*
X1014Y644D01*
X991Y643D02*
X1014Y643D01*
X991Y642D02*
X1014Y642D01*
X991Y641D02*
X1014Y641D01*
X991Y640D02*
X1014Y640D01*
X991Y639D02*
X1014Y639D01*
X991Y638D02*
X1014Y638D01*
X991Y637D02*
X1014Y637D01*
X991Y636D02*
X1014Y636D01*
X991Y635D02*
X1014Y635D01*
X991Y634D02*
X1014Y634D01*
X991Y633D02*
X1014Y633D01*
X991Y632D02*
X1014Y632D01*
X991Y631D02*
X1014Y631D01*
X991Y630D02*
X1014Y630D01*
X991Y629D02*
X1014Y629D01*
X991Y628D02*
X1014Y628D01*
X991Y627D02*
X1014Y627D01*
X991Y626D02*
X1014Y626D01*
X991Y625D02*
X1014Y625D01*
X991Y624D02*
X1014Y624D01*
X991Y623D02*
X1014Y623D01*
X991Y622D02*
X1014Y622D01*
X991Y621D02*
X1014Y621D01*
X991Y620D02*
X1014Y620D01*
X991Y619D02*
X1014Y619D01*
X991Y618D02*
X1014Y618D01*
X991Y617D02*
X1014Y617D01*
X991Y616D02*
X1014Y616D01*
X991Y615D02*
X1014Y615D01*
X991Y614D02*
X1014Y614D01*
X991Y613D02*
X1014Y613D01*
X991Y612D02*
X1014Y612D01*
X991Y611D02*
X1014Y611D01*
X991Y610D02*
X1014Y610D01*
X991Y609D02*
X1014Y609D01*
X991Y608D02*
X1014Y608D01*
X991Y607D02*
X1014Y607D01*
X991Y606D02*
X1014Y606D01*
X991Y605D02*
X1014Y605D01*
X991Y604D02*
X1014Y604D01*
X991Y603D02*
X1014Y603D01*
X991Y602D02*
X1014Y602D01*
X991Y601D02*
X1014Y601D01*
X991Y600D02*
X1014Y600D01*
X991Y599D02*
X1014Y599D01*
X991Y598D02*
X1014Y598D01*
X991Y597D02*
X1014Y597D01*
X991Y596D02*
X1014Y596D01*
X991Y595D02*
X1014Y595D01*
X991Y594D02*
X1014Y594D01*
X991Y593D02*
X1014Y593D01*
X991Y592D02*
X1014Y592D01*
X991Y591D02*
X1014Y591D01*
X991Y590D02*
X1014Y590D01*
X991Y589D02*
X1014Y589D01*
X991Y588D02*
X1014Y588D01*
X991Y587D02*
X1014Y587D01*
X991Y586D02*
X1014Y586D01*
X991Y585D02*
X1014Y585D01*
X991Y584D02*
X1014Y584D01*
X991Y583D02*
X1014Y583D01*
X991Y582D02*
X1014Y582D01*
X991Y581D02*
X1014Y581D01*
X991Y580D02*
X1014Y580D01*
X991Y579D02*
X1014Y579D01*
X991Y578D02*
X1014Y578D01*
X991Y577D02*
X1014Y577D01*
X991Y576D02*
X1014Y576D01*
X991Y575D02*
X1014Y575D01*
X991Y574D02*
X1014Y574D01*
X991Y573D02*
X1014Y573D01*
X991Y572D02*
X1014Y572D01*
X991Y571D02*
X1015Y571D01*
X991Y570D02*
X1016Y570D01*
X991Y569D02*
X1018Y569D01*
X991Y568D02*
X1019Y568D01*
X991Y567D02*
X1021Y567D01*
X991Y566D02*
X1022Y566D01*
X991Y565D02*
X1024Y565D01*
X991Y564D02*
X1025Y564D01*
X991Y563D02*
X1027Y563D01*
X991Y562D02*
X1028Y562D01*
X992Y561D02*
X1030Y561D01*
X992Y560D02*
X1031Y560D01*
X993Y559D02*
X1033Y559D01*
X993Y558D02*
X1034Y558D01*
X994Y557D02*
X1036Y557D01*
X995Y556D02*
X1037Y556D01*
X996Y555D02*
X1039Y555D01*
X998Y554D02*
X1040Y554D01*
X999Y553D02*
X1042Y553D01*
X1001Y552D02*
X1043Y552D01*
X1002Y551D02*
X1045Y551D01*
X1004Y550D02*
X1046Y550D01*
X1005Y549D02*
X1048Y549D01*
X1007Y548D02*
X1049Y548D01*
X1008Y547D02*
X1051Y547D01*
X1010Y546D02*
X1052Y546D01*
X1011Y545D02*
X1054Y545D01*
X1013Y544D02*
X1055Y544D01*
X1014Y543D02*
X1057Y543D01*
X1016Y542D02*
X1058Y542D01*
X1017Y541D02*
X1060Y541D01*
X1019Y540D02*
X1062Y540D01*
X1020Y539D02*
X1063Y539D01*
X1022Y538D02*
X1065Y538D01*
X1023Y537D02*
X1066Y537D01*
X1025Y536D02*
X1068Y536D01*
X1027Y535D02*
X1069Y535D01*
X1028Y534D02*
X1071Y534D01*
X1030Y533D02*
X1072Y533D01*
X1031Y532D02*
X1074Y532D01*
X1033Y531D02*
X1075Y531D01*
X1034Y530D02*
X1077Y530D01*
X1036Y529D02*
X1078Y529D01*
X1037Y528D02*
X1080Y528D01*
X1039Y527D02*
X1081Y527D01*
X1040Y526D02*
X1083Y526D01*
X1042Y525D02*
X1084Y525D01*
X1043Y524D02*
X1086Y524D01*
X1045Y523D02*
X1087Y523D01*
X1184Y523D02*
X1185Y523D01*
X1046Y522D02*
X1089Y522D01*
X1180Y522D02*
X1189Y522D01*
X1048Y521D02*
X1090Y521D01*
X1178Y521D02*
X1191Y521D01*
X1049Y520D02*
X1092Y520D01*
X1177Y520D02*
X1192Y520D01*
X1051Y519D02*
X1092Y519D01*
X1176Y519D02*
X1193Y519D01*
X1052Y518D02*
X1093Y518D01*
X1175Y518D02*
X1194Y518D01*
X1054Y517D02*
X1094Y517D01*
X1174Y517D02*
X1194Y517D01*
X1055Y516D02*
X1094Y516D01*
X1174Y516D02*
X1195Y516D01*
X1057Y515D02*
X1095Y515D01*
X1174Y515D02*
X1195Y515D01*
X1058Y514D02*
X1095Y514D01*
X1173Y514D02*
X1195Y514D01*
X1060Y513D02*
X1095Y513D01*
X1173Y513D02*
X1196Y513D01*
X1061Y512D02*
X1095Y512D01*
X1173Y512D02*
X1196Y512D01*
X1063Y511D02*
X1096Y511D01*
X1173Y511D02*
X1196Y511D01*
X1064Y510D02*
X1096Y510D01*
X1173Y510D02*
X1196Y510D01*
X1066Y509D02*
X1096Y509D01*
X1173Y509D02*
X1196Y509D01*
X1067Y508D02*
X1096Y508D01*
X1173Y508D02*
X1196Y508D01*
X1069Y507D02*
X1096Y507D01*
X1173Y507D02*
X1196Y507D01*
X1070Y506D02*
X1096Y506D01*
X1173Y506D02*
X1196Y506D01*
X1072Y505D02*
X1096Y505D01*
X1173Y505D02*
X1196Y505D01*
X1073Y504D02*
X1096Y504D01*
X1173Y504D02*
X1196Y504D01*
X1073Y503D02*
X1096Y503D01*
X1173Y503D02*
X1196Y503D01*
X1073Y502D02*
X1096Y502D01*
X1173Y502D02*
X1196Y502D01*
X1073Y501D02*
X1096Y501D01*
X1173Y501D02*
X1196Y501D01*
X1073Y500D02*
X1096Y500D01*
X1173Y500D02*
X1196Y500D01*
X1073Y499D02*
X1096Y499D01*
X1173Y499D02*
X1196Y499D01*
X1073Y498D02*
X1096Y498D01*
X1173Y498D02*
X1196Y498D01*
X1073Y497D02*
X1096Y497D01*
X1173Y497D02*
X1196Y497D01*
X1073Y496D02*
X1096Y496D01*
X1173Y496D02*
X1196Y496D01*
X1073Y495D02*
X1096Y495D01*
X1173Y495D02*
X1196Y495D01*
X1073Y494D02*
X1096Y494D01*
X1173Y494D02*
X1196Y494D01*
X1073Y493D02*
X1096Y493D01*
X1173Y493D02*
X1196Y493D01*
X1073Y492D02*
X1096Y492D01*
X1173Y492D02*
X1196Y492D01*
X1073Y491D02*
X1096Y491D01*
X1173Y491D02*
X1196Y491D01*
X1073Y490D02*
X1096Y490D01*
X1173Y490D02*
X1196Y490D01*
X1073Y489D02*
X1096Y489D01*
X1173Y489D02*
X1196Y489D01*
X1073Y488D02*
X1096Y488D01*
X1173Y488D02*
X1196Y488D01*
X1073Y487D02*
X1096Y487D01*
X1173Y487D02*
X1196Y487D01*
X1073Y486D02*
X1096Y486D01*
X1173Y486D02*
X1196Y486D01*
X1073Y485D02*
X1095Y485D01*
X1173Y485D02*
X1196Y485D01*
X1073Y484D02*
X1095Y484D01*
X1173Y484D02*
X1196Y484D01*
X1073Y483D02*
X1095Y483D01*
X1173Y483D02*
X1196Y483D01*
X1073Y482D02*
X1095Y482D01*
X1173Y482D02*
X1196Y482D01*
X1073Y481D02*
X1095Y481D01*
X1173Y481D02*
X1196Y481D01*
X1073Y480D02*
X1095Y480D01*
X1173Y480D02*
X1196Y480D01*
X1073Y479D02*
X1095Y479D01*
X1173Y479D02*
X1196Y479D01*
X1073Y478D02*
X1095Y478D01*
X1173Y478D02*
X1196Y478D01*
X1072Y477D02*
X1095Y477D01*
X1173Y477D02*
X1196Y477D01*
X1072Y476D02*
X1095Y476D01*
X1173Y476D02*
X1196Y476D01*
X1072Y475D02*
X1095Y475D01*
X1173Y475D02*
X1196Y475D01*
X1072Y474D02*
X1095Y474D01*
X1173Y474D02*
X1196Y474D01*
X1072Y473D02*
X1095Y473D01*
X1173Y473D02*
X1196Y473D01*
X1072Y472D02*
X1095Y472D01*
X1173Y472D02*
X1196Y472D01*
X1072Y471D02*
X1095Y471D01*
X1173Y471D02*
X1196Y471D01*
X1072Y470D02*
X1095Y470D01*
X1173Y470D02*
X1196Y470D01*
X1072Y469D02*
X1095Y469D01*
X1173Y469D02*
X1196Y469D01*
X1072Y468D02*
X1095Y468D01*
X1173Y468D02*
X1196Y468D01*
X1072Y467D02*
X1095Y467D01*
X1173Y467D02*
X1196Y467D01*
X1072Y466D02*
X1095Y466D01*
X1173Y466D02*
X1196Y466D01*
X1072Y465D02*
X1095Y465D01*
X1173Y465D02*
X1196Y465D01*
X1072Y464D02*
X1095Y464D01*
X1173Y464D02*
X1196Y464D01*
X1072Y463D02*
X1095Y463D01*
X1173Y463D02*
X1196Y463D01*
X1072Y462D02*
X1095Y462D01*
X1173Y462D02*
X1196Y462D01*
X1072Y461D02*
X1095Y461D01*
X1173Y461D02*
X1196Y461D01*
X1072Y460D02*
X1095Y460D01*
X1173Y460D02*
X1196Y460D01*
X1072Y459D02*
X1095Y459D01*
X1173Y459D02*
X1196Y459D01*
X1072Y458D02*
X1095Y458D01*
X1173Y458D02*
X1196Y458D01*
X1072Y457D02*
X1095Y457D01*
X1173Y457D02*
X1196Y457D01*
X1072Y456D02*
X1095Y456D01*
X1173Y456D02*
X1196Y456D01*
X1072Y455D02*
X1095Y455D01*
X1173Y455D02*
X1196Y455D01*
X1072Y454D02*
X1095Y454D01*
X1173Y454D02*
X1196Y454D01*
X1072Y453D02*
X1095Y453D01*
X1173Y453D02*
X1196Y453D01*
X1072Y452D02*
X1095Y452D01*
X1173Y452D02*
X1196Y452D01*
X1072Y451D02*
X1095Y451D01*
X1173Y451D02*
X1196Y451D01*
X1072Y450D02*
X1095Y450D01*
X1173Y450D02*
X1196Y450D01*
X1072Y449D02*
X1095Y449D01*
X1173Y449D02*
X1196Y449D01*
X1072Y448D02*
X1095Y448D01*
X1173Y448D02*
X1196Y448D01*
X1072Y447D02*
X1095Y447D01*
X1173Y447D02*
X1196Y447D01*
X1072Y446D02*
X1095Y446D01*
X1173Y446D02*
X1196Y446D01*
X1072Y445D02*
X1095Y445D01*
X1173Y445D02*
X1196Y445D01*
X1072Y444D02*
X1095Y444D01*
X1173Y444D02*
X1196Y444D01*
X1072Y443D02*
X1095Y443D01*
X1173Y443D02*
X1196Y443D01*
X1072Y442D02*
X1095Y442D01*
X1173Y442D02*
X1196Y442D01*
X1072Y441D02*
X1095Y441D01*
X1173Y441D02*
X1196Y441D01*
X1072Y440D02*
X1095Y440D01*
X1173Y440D02*
X1196Y440D01*
X1072Y439D02*
X1095Y439D01*
X1173Y439D02*
X1196Y439D01*
X1072Y438D02*
X1095Y438D01*
X1173Y438D02*
X1196Y438D01*
X1072Y437D02*
X1095Y437D01*
X1173Y437D02*
X1196Y437D01*
X1072Y436D02*
X1095Y436D01*
X1173Y436D02*
X1196Y436D01*
X1072Y435D02*
X1095Y435D01*
X1173Y435D02*
X1196Y435D01*
X1072Y434D02*
X1095Y434D01*
X1173Y434D02*
X1196Y434D01*
X1072Y433D02*
X1095Y433D01*
X1173Y433D02*
X1196Y433D01*
X1072Y432D02*
X1095Y432D01*
X1173Y432D02*
X1196Y432D01*
X1072Y431D02*
X1095Y431D01*
X1173Y431D02*
X1196Y431D01*
X1072Y430D02*
X1095Y430D01*
X1173Y430D02*
X1196Y430D01*
X1072Y429D02*
X1095Y429D01*
X1173Y429D02*
X1196Y429D01*
X1072Y428D02*
X1095Y428D01*
X1173Y428D02*
X1196Y428D01*
X1072Y427D02*
X1095Y427D01*
X1173Y427D02*
X1196Y427D01*
X1072Y426D02*
X1095Y426D01*
X1173Y426D02*
X1196Y426D01*
X1072Y425D02*
X1095Y425D01*
X1173Y425D02*
X1196Y425D01*
X1072Y424D02*
X1095Y424D01*
X1173Y424D02*
X1196Y424D01*
X1072Y423D02*
X1095Y423D01*
X1173Y423D02*
X1196Y423D01*
X1072Y422D02*
X1095Y422D01*
X1173Y422D02*
X1196Y422D01*
X1072Y421D02*
X1095Y421D01*
X1173Y421D02*
X1196Y421D01*
X1072Y420D02*
X1095Y420D01*
X1173Y420D02*
X1196Y420D01*
X1072Y419D02*
X1095Y419D01*
X1173Y419D02*
X1196Y419D01*
X1072Y418D02*
X1095Y418D01*
X1173Y418D02*
X1196Y418D01*
X1072Y417D02*
X1095Y417D01*
X1173Y417D02*
X1196Y417D01*
X1072Y416D02*
X1095Y416D01*
X1173Y416D02*
X1196Y416D01*
X1072Y415D02*
X1095Y415D01*
X1173Y415D02*
X1196Y415D01*
X1072Y414D02*
X1095Y414D01*
X1173Y414D02*
X1196Y414D01*
X1072Y413D02*
X1095Y413D01*
X1173Y413D02*
X1196Y413D01*
X1072Y412D02*
X1095Y412D01*
X1173Y412D02*
X1196Y412D01*
X1072Y411D02*
X1095Y411D01*
X1173Y411D02*
X1196Y411D01*
X1072Y410D02*
X1095Y410D01*
X1173Y410D02*
X1196Y410D01*
X1072Y409D02*
X1095Y409D01*
X1173Y409D02*
X1196Y409D01*
X1072Y408D02*
X1095Y408D01*
X1173Y408D02*
X1196Y408D01*
X1072Y407D02*
X1095Y407D01*
X1173Y407D02*
X1196Y407D01*
X1072Y406D02*
X1095Y406D01*
X1173Y406D02*
X1196Y406D01*
X1072Y405D02*
X1095Y405D01*
X1173Y405D02*
X1196Y405D01*
X1072Y404D02*
X1095Y404D01*
X1173Y404D02*
X1196Y404D01*
X1072Y403D02*
X1095Y403D01*
X1173Y403D02*
X1196Y403D01*
X1072Y402D02*
X1095Y402D01*
X1173Y402D02*
X1196Y402D01*
X1072Y401D02*
X1095Y401D01*
X1173Y401D02*
X1196Y401D01*
X1072Y400D02*
X1095Y400D01*
X1172Y400D02*
X1196Y400D01*
X1072Y399D02*
X1095Y399D01*
X1172Y399D02*
X1196Y399D01*
X1072Y398D02*
X1095Y398D01*
X1172Y398D02*
X1195Y398D01*
X1072Y397D02*
X1095Y397D01*
X1172Y397D02*
X1195Y397D01*
X1072Y396D02*
X1095Y396D01*
X1172Y396D02*
X1195Y396D01*
X1072Y395D02*
X1095Y395D01*
X1172Y395D02*
X1195Y395D01*
X1072Y394D02*
X1095Y394D01*
X1172Y394D02*
X1195Y394D01*
X1072Y393D02*
X1095Y393D01*
X1172Y393D02*
X1195Y393D01*
X1072Y392D02*
X1095Y392D01*
X1172Y392D02*
X1195Y392D01*
X1072Y391D02*
X1095Y391D01*
X1172Y391D02*
X1195Y391D01*
X1072Y390D02*
X1095Y390D01*
X1172Y390D02*
X1195Y390D01*
X1072Y389D02*
X1095Y389D01*
X1172Y389D02*
X1195Y389D01*
X1072Y388D02*
X1095Y388D01*
X1172Y388D02*
X1195Y388D01*
X1072Y387D02*
X1095Y387D01*
X1172Y387D02*
X1195Y387D01*
X1072Y386D02*
X1095Y386D01*
X1172Y386D02*
X1195Y386D01*
X1072Y385D02*
X1095Y385D01*
X1172Y385D02*
X1195Y385D01*
X1072Y384D02*
X1095Y384D01*
X1172Y384D02*
X1195Y384D01*
X1072Y383D02*
X1095Y383D01*
X1172Y383D02*
X1195Y383D01*
X1072Y382D02*
X1095Y382D01*
X1172Y382D02*
X1195Y382D01*
X1072Y381D02*
X1095Y381D01*
X1172Y381D02*
X1195Y381D01*
X1072Y380D02*
X1095Y380D01*
X1172Y380D02*
X1195Y380D01*
X1072Y379D02*
X1095Y379D01*
X1172Y379D02*
X1195Y379D01*
X1072Y378D02*
X1095Y378D01*
X1172Y378D02*
X1195Y378D01*
X1072Y377D02*
X1095Y377D01*
X1172Y377D02*
X1195Y377D01*
X1072Y376D02*
X1095Y376D01*
X1172Y376D02*
X1195Y376D01*
X1072Y375D02*
X1095Y375D01*
X1172Y375D02*
X1195Y375D01*
X1072Y374D02*
X1095Y374D01*
X1172Y374D02*
X1195Y374D01*
X1072Y373D02*
X1095Y373D01*
X1172Y373D02*
X1195Y373D01*
X1072Y372D02*
X1095Y372D01*
X1172Y372D02*
X1195Y372D01*
X1072Y371D02*
X1095Y371D01*
X1172Y371D02*
X1195Y371D01*
X1072Y370D02*
X1095Y370D01*
X1172Y370D02*
X1195Y370D01*
X1072Y369D02*
X1095Y369D01*
X1172Y369D02*
X1195Y369D01*
X1072Y368D02*
X1095Y368D01*
X1172Y368D02*
X1195Y368D01*
X1072Y367D02*
X1095Y367D01*
X1172Y367D02*
X1195Y367D01*
X1072Y366D02*
X1095Y366D01*
X1172Y366D02*
X1195Y366D01*
X1072Y365D02*
X1095Y365D01*
X1172Y365D02*
X1195Y365D01*
X1072Y364D02*
X1095Y364D01*
X1172Y364D02*
X1195Y364D01*
X1072Y363D02*
X1095Y363D01*
X1172Y363D02*
X1195Y363D01*
X1072Y362D02*
X1095Y362D01*
X1172Y362D02*
X1195Y362D01*
X1072Y361D02*
X1095Y361D01*
X1172Y361D02*
X1195Y361D01*
X1072Y360D02*
X1095Y360D01*
X1172Y360D02*
X1195Y360D01*
X1072Y359D02*
X1095Y359D01*
X1172Y359D02*
X1195Y359D01*
X1072Y358D02*
X1095Y358D01*
X1172Y358D02*
X1195Y358D01*
X1072Y357D02*
X1095Y357D01*
X1172Y357D02*
X1195Y357D01*
X1072Y356D02*
X1095Y356D01*
X1172Y356D02*
X1195Y356D01*
X1072Y355D02*
X1095Y355D01*
X1172Y355D02*
X1195Y355D01*
X1072Y354D02*
X1095Y354D01*
X1172Y354D02*
X1195Y354D01*
X1072Y353D02*
X1095Y353D01*
X1172Y353D02*
X1195Y353D01*
X1072Y352D02*
X1095Y352D01*
X1172Y352D02*
X1195Y352D01*
X1072Y351D02*
X1095Y351D01*
X1172Y351D02*
X1195Y351D01*
X1072Y350D02*
X1095Y350D01*
X1172Y350D02*
X1195Y350D01*
X1072Y349D02*
X1095Y349D01*
X1172Y349D02*
X1195Y349D01*
X1072Y348D02*
X1095Y348D01*
X1172Y348D02*
X1195Y348D01*
X1072Y347D02*
X1095Y347D01*
X1172Y347D02*
X1195Y347D01*
X1072Y346D02*
X1095Y346D01*
X1172Y346D02*
X1195Y346D01*
X1072Y345D02*
X1095Y345D01*
X1172Y345D02*
X1195Y345D01*
X1072Y344D02*
X1095Y344D01*
X1172Y344D02*
X1195Y344D01*
X1072Y343D02*
X1095Y343D01*
X1172Y343D02*
X1195Y343D01*
X1072Y342D02*
X1095Y342D01*
X1172Y342D02*
X1195Y342D01*
X1072Y341D02*
X1095Y341D01*
X1172Y341D02*
X1195Y341D01*
X1072Y340D02*
X1095Y340D01*
X1172Y340D02*
X1195Y340D01*
X1072Y339D02*
X1095Y339D01*
X1172Y339D02*
X1195Y339D01*
X1072Y338D02*
X1095Y338D01*
X1172Y338D02*
X1195Y338D01*
X1072Y337D02*
X1095Y337D01*
X1172Y337D02*
X1195Y337D01*
X1072Y336D02*
X1095Y336D01*
X1172Y336D02*
X1195Y336D01*
X1072Y335D02*
X1095Y335D01*
X1172Y335D02*
X1195Y335D01*
X1072Y334D02*
X1095Y334D01*
X1172Y334D02*
X1195Y334D01*
X1072Y333D02*
X1095Y333D01*
X1172Y333D02*
X1195Y333D01*
X1072Y332D02*
X1095Y332D01*
X1172Y332D02*
X1195Y332D01*
X1072Y331D02*
X1095Y331D01*
X1172Y331D02*
X1195Y331D01*
X1072Y330D02*
X1095Y330D01*
X1172Y330D02*
X1195Y330D01*
X1072Y329D02*
X1095Y329D01*
X1172Y329D02*
X1195Y329D01*
X1072Y328D02*
X1095Y328D01*
X1172Y328D02*
X1195Y328D01*
X1072Y327D02*
X1095Y327D01*
X1172Y327D02*
X1195Y327D01*
X1072Y326D02*
X1095Y326D01*
X1172Y326D02*
X1195Y326D01*
X1072Y325D02*
X1095Y325D01*
X1172Y325D02*
X1195Y325D01*
X1072Y324D02*
X1095Y324D01*
X1172Y324D02*
X1195Y324D01*
X1073Y323D02*
X1095Y323D01*
X1173Y323D02*
X1195Y323D01*
X1073Y322D02*
X1095Y322D01*
X1173Y322D02*
X1195Y322D01*
X1073Y321D02*
X1094Y321D01*
X1173Y321D02*
X1194Y321D01*
X1074Y320D02*
X1094Y320D01*
X1174Y320D02*
X1194Y320D01*
X1074Y319D02*
X1093Y319D01*
X1174Y319D02*
X1193Y319D01*
X1075Y318D02*
X1092Y318D01*
X1175Y318D02*
X1192Y318D01*
X1076Y317D02*
X1091Y317D01*
X1176Y317D02*
X1191Y317D01*
X1077Y316D02*
X1090Y316D01*
X1177Y316D02*
X1190Y316D01*
X1079Y315D02*
X1089Y315D01*
X1179Y315D02*
X1189Y315D01*
X1082Y314D02*
X1086Y314D01*
X1182Y314D02*
X1186Y314D01*
D02*
G04 End of Copper1*
M02*