G04 MADE WITH FRITZING*
G04 WWW.FRITZING.ORG*
G04 DOUBLE SIDED*
G04 HOLES PLATED*
G04 CONTOUR ON CENTER OF CONTOUR VECTOR*
%ASAXBY*%
%FSLAX23Y23*%
%MOIN*%
%OFA0B0*%
%SFA1.0B1.0*%
%ADD10R,0.001000X0.001000*%
%LNSILK0*%
G90*
G70*
G36*
X2125Y1137D02*
X2125Y1130D01*
X2127Y1130D01*
X2127Y1122D01*
X2128Y1122D01*
X2128Y1114D01*
X2130Y1114D01*
X2130Y1106D01*
X2125Y1106D01*
X2125Y1109D01*
X2123Y1109D01*
X2123Y1112D01*
X2122Y1112D01*
X2122Y1125D01*
X2120Y1125D01*
X2120Y1137D01*
X2125Y1137D01*
G37*
D02*
G36*
X2081Y1130D02*
X2081Y1127D01*
X2082Y1127D01*
X2082Y1124D01*
X2084Y1124D01*
X2084Y1121D01*
X2086Y1121D01*
X2086Y1116D01*
X2087Y1116D01*
X2087Y1111D01*
X2089Y1111D01*
X2089Y1107D01*
X2090Y1107D01*
X2090Y1104D01*
X2092Y1104D01*
X2092Y1099D01*
X2094Y1099D01*
X2094Y1096D01*
X2092Y1096D01*
X2092Y1094D01*
X2089Y1094D01*
X2089Y1096D01*
X2087Y1096D01*
X2087Y1101D01*
X2086Y1101D01*
X2086Y1104D01*
X2084Y1104D01*
X2084Y1107D01*
X2082Y1107D01*
X2082Y1111D01*
X2081Y1111D01*
X2081Y1116D01*
X2079Y1116D01*
X2079Y1122D01*
X2077Y1122D01*
X2077Y1125D01*
X2076Y1125D01*
X2076Y1130D01*
X2081Y1130D01*
G37*
D02*
G36*
X2028Y1102D02*
X2028Y1101D01*
X2030Y1101D01*
X2030Y1099D01*
X2031Y1099D01*
X2031Y1096D01*
X2033Y1096D01*
X2033Y1094D01*
X2035Y1094D01*
X2035Y1093D01*
X2040Y1093D01*
X2040Y1091D01*
X2041Y1091D01*
X2041Y1089D01*
X2043Y1089D01*
X2043Y1088D01*
X2046Y1088D01*
X2046Y1086D01*
X2049Y1086D01*
X2049Y1084D01*
X2051Y1084D01*
X2051Y1083D01*
X2054Y1083D01*
X2054Y1081D01*
X2058Y1081D01*
X2058Y1080D01*
X2059Y1080D01*
X2059Y1076D01*
X2054Y1076D01*
X2054Y1078D01*
X2051Y1078D01*
X2051Y1080D01*
X2048Y1080D01*
X2048Y1081D01*
X2046Y1081D01*
X2046Y1083D01*
X2043Y1083D01*
X2043Y1084D01*
X2040Y1084D01*
X2040Y1086D01*
X2036Y1086D01*
X2036Y1089D01*
X2031Y1089D01*
X2031Y1091D01*
X2030Y1091D01*
X2030Y1093D01*
X2028Y1093D01*
X2028Y1094D01*
X2025Y1094D01*
X2025Y1096D01*
X2023Y1096D01*
X2023Y1098D01*
X2022Y1098D01*
X2022Y1102D01*
X2028Y1102D01*
G37*
D02*
G36*
X2291Y1112D02*
X2291Y1111D01*
X2297Y1111D01*
X2297Y1109D01*
X2300Y1109D01*
X2300Y1107D01*
X2302Y1107D01*
X2302Y1104D01*
X2282Y1104D01*
X2282Y1102D01*
X2279Y1102D01*
X2279Y1101D01*
X2277Y1101D01*
X2277Y1099D01*
X2276Y1099D01*
X2276Y1098D01*
X2274Y1098D01*
X2274Y1094D01*
X2273Y1094D01*
X2273Y1091D01*
X2271Y1091D01*
X2271Y1084D01*
X2269Y1084D01*
X2269Y1081D01*
X2271Y1081D01*
X2271Y1073D01*
X2273Y1073D01*
X2273Y1071D01*
X2281Y1071D01*
X2281Y1070D01*
X2263Y1070D01*
X2263Y1088D01*
X2264Y1088D01*
X2264Y1094D01*
X2266Y1094D01*
X2266Y1098D01*
X2268Y1098D01*
X2268Y1101D01*
X2269Y1101D01*
X2269Y1102D01*
X2271Y1102D01*
X2271Y1104D01*
X2273Y1104D01*
X2273Y1106D01*
X2274Y1106D01*
X2274Y1109D01*
X2279Y1109D01*
X2279Y1111D01*
X2284Y1111D01*
X2284Y1112D01*
X2291Y1112D01*
G37*
D02*
G36*
X2304Y1104D02*
X2304Y1102D01*
X2305Y1102D01*
X2305Y1101D01*
X2307Y1101D01*
X2307Y1099D01*
X2309Y1099D01*
X2309Y1096D01*
X2302Y1096D01*
X2302Y1098D01*
X2300Y1098D01*
X2300Y1101D01*
X2299Y1101D01*
X2299Y1102D01*
X2294Y1102D01*
X2294Y1104D01*
X2304Y1104D01*
G37*
D02*
G36*
X2337Y1099D02*
X2337Y1098D01*
X2338Y1098D01*
X2338Y1096D01*
X2315Y1096D01*
X2315Y1098D01*
X2323Y1098D01*
X2323Y1099D01*
X2337Y1099D01*
G37*
D02*
G36*
X2340Y1096D02*
X2340Y1094D01*
X2304Y1094D01*
X2304Y1096D01*
X2340Y1096D01*
G37*
D02*
G36*
X2340Y1096D02*
X2340Y1094D01*
X2304Y1094D01*
X2304Y1096D01*
X2340Y1096D01*
G37*
D02*
G36*
X2341Y1094D02*
X2341Y1093D01*
X2343Y1093D01*
X2343Y1091D01*
X2322Y1091D01*
X2322Y1089D01*
X2314Y1089D01*
X2314Y1088D01*
X2310Y1088D01*
X2310Y1086D01*
X2309Y1086D01*
X2309Y1088D01*
X2307Y1088D01*
X2307Y1089D01*
X2305Y1089D01*
X2305Y1093D01*
X2304Y1093D01*
X2304Y1094D01*
X2341Y1094D01*
G37*
D02*
G36*
X2346Y1091D02*
X2346Y1088D01*
X2350Y1088D01*
X2350Y1084D01*
X2351Y1084D01*
X2351Y1081D01*
X2353Y1081D01*
X2353Y1071D01*
X2351Y1071D01*
X2351Y1068D01*
X2350Y1068D01*
X2350Y1066D01*
X2348Y1066D01*
X2348Y1065D01*
X2346Y1065D01*
X2346Y1061D01*
X2345Y1061D01*
X2345Y1060D01*
X2343Y1060D01*
X2343Y1058D01*
X2341Y1058D01*
X2341Y1057D01*
X2340Y1057D01*
X2340Y1055D01*
X2337Y1055D01*
X2337Y1053D01*
X2335Y1053D01*
X2335Y1052D01*
X2332Y1052D01*
X2332Y1050D01*
X2330Y1050D01*
X2330Y1047D01*
X2327Y1047D01*
X2327Y1045D01*
X2320Y1045D01*
X2320Y1043D01*
X2318Y1043D01*
X2318Y1042D01*
X2302Y1042D01*
X2302Y1043D01*
X2305Y1043D01*
X2305Y1045D01*
X2310Y1045D01*
X2310Y1047D01*
X2314Y1047D01*
X2314Y1048D01*
X2317Y1048D01*
X2317Y1052D01*
X2322Y1052D01*
X2322Y1053D01*
X2325Y1053D01*
X2325Y1055D01*
X2327Y1055D01*
X2327Y1057D01*
X2330Y1057D01*
X2330Y1058D01*
X2332Y1058D01*
X2332Y1060D01*
X2335Y1060D01*
X2335Y1061D01*
X2337Y1061D01*
X2337Y1065D01*
X2338Y1065D01*
X2338Y1066D01*
X2340Y1066D01*
X2340Y1068D01*
X2341Y1068D01*
X2341Y1070D01*
X2343Y1070D01*
X2343Y1071D01*
X2345Y1071D01*
X2345Y1081D01*
X2343Y1081D01*
X2343Y1083D01*
X2341Y1083D01*
X2341Y1084D01*
X2340Y1084D01*
X2340Y1086D01*
X2338Y1086D01*
X2338Y1088D01*
X2335Y1088D01*
X2335Y1089D01*
X2332Y1089D01*
X2332Y1091D01*
X2346Y1091D01*
G37*
D02*
G36*
X2248Y1084D02*
X2248Y1083D01*
X2250Y1083D01*
X2250Y1080D01*
X2251Y1080D01*
X2251Y1078D01*
X2253Y1078D01*
X2253Y1076D01*
X2243Y1076D01*
X2243Y1075D01*
X2235Y1075D01*
X2235Y1073D01*
X2233Y1073D01*
X2233Y1071D01*
X2230Y1071D01*
X2230Y1070D01*
X2232Y1070D01*
X2232Y1066D01*
X2218Y1066D01*
X2218Y1068D01*
X2215Y1068D01*
X2215Y1075D01*
X2217Y1075D01*
X2217Y1078D01*
X2227Y1078D01*
X2227Y1080D01*
X2230Y1080D01*
X2230Y1081D01*
X2235Y1081D01*
X2235Y1083D01*
X2241Y1083D01*
X2241Y1084D01*
X2248Y1084D01*
G37*
D02*
G36*
X2253Y1076D02*
X2253Y1073D01*
X2254Y1073D01*
X2254Y1071D01*
X2259Y1071D01*
X2259Y1070D01*
X2248Y1070D01*
X2248Y1071D01*
X2246Y1071D01*
X2246Y1073D01*
X2245Y1073D01*
X2245Y1076D01*
X2253Y1076D01*
G37*
D02*
G36*
X2304Y1070D02*
X2304Y1068D01*
X2246Y1068D01*
X2246Y1070D01*
X2304Y1070D01*
G37*
D02*
G36*
X2304Y1070D02*
X2304Y1068D01*
X2246Y1068D01*
X2246Y1070D01*
X2304Y1070D01*
G37*
D02*
G36*
X2304Y1068D02*
X2304Y1066D01*
X2241Y1066D01*
X2241Y1068D01*
X2304Y1068D01*
G37*
D02*
G36*
X2302Y1066D02*
X2302Y1065D01*
X2220Y1065D01*
X2220Y1066D01*
X2302Y1066D01*
G37*
D02*
G36*
X2302Y1066D02*
X2302Y1065D01*
X2220Y1065D01*
X2220Y1066D01*
X2302Y1066D01*
G37*
D02*
G36*
X2286Y1065D02*
X2286Y1063D01*
X2281Y1063D01*
X2281Y1061D01*
X2264Y1061D01*
X2264Y1060D01*
X2259Y1060D01*
X2259Y1058D01*
X2243Y1058D01*
X2243Y1057D01*
X2223Y1057D01*
X2223Y1058D01*
X2225Y1058D01*
X2225Y1060D01*
X2222Y1060D01*
X2222Y1061D01*
X2223Y1061D01*
X2223Y1063D01*
X2222Y1063D01*
X2222Y1065D01*
X2286Y1065D01*
G37*
D02*
G36*
X2281Y1061D02*
X2281Y1057D01*
X2282Y1057D01*
X2282Y1055D01*
X2284Y1055D01*
X2284Y1053D01*
X2286Y1053D01*
X2286Y1052D01*
X2287Y1052D01*
X2287Y1048D01*
X2289Y1048D01*
X2289Y1047D01*
X2292Y1047D01*
X2292Y1045D01*
X2294Y1045D01*
X2294Y1043D01*
X2297Y1043D01*
X2297Y1042D01*
X2282Y1042D01*
X2282Y1043D01*
X2281Y1043D01*
X2281Y1045D01*
X2279Y1045D01*
X2279Y1047D01*
X2277Y1047D01*
X2277Y1050D01*
X2276Y1050D01*
X2276Y1052D01*
X2274Y1052D01*
X2274Y1055D01*
X2273Y1055D01*
X2273Y1057D01*
X2271Y1057D01*
X2271Y1058D01*
X2269Y1058D01*
X2269Y1060D01*
X2266Y1060D01*
X2266Y1061D01*
X2281Y1061D01*
G37*
D02*
G36*
X2259Y1058D02*
X2259Y1057D01*
X2245Y1057D01*
X2245Y1058D01*
X2259Y1058D01*
G37*
D02*
G36*
X2258Y1057D02*
X2258Y1055D01*
X2223Y1055D01*
X2223Y1057D01*
X2258Y1057D01*
G37*
D02*
G36*
X2258Y1057D02*
X2258Y1055D01*
X2223Y1055D01*
X2223Y1057D01*
X2258Y1057D01*
G37*
D02*
G36*
X2256Y1055D02*
X2256Y1052D01*
X2254Y1052D01*
X2254Y1050D01*
X2253Y1050D01*
X2253Y1048D01*
X2245Y1048D01*
X2245Y1047D01*
X2240Y1047D01*
X2240Y1045D01*
X2236Y1045D01*
X2236Y1043D01*
X2228Y1043D01*
X2228Y1045D01*
X2225Y1045D01*
X2225Y1047D01*
X2223Y1047D01*
X2223Y1048D01*
X2222Y1048D01*
X2222Y1052D01*
X2223Y1052D01*
X2223Y1055D01*
X2256Y1055D01*
G37*
D02*
G36*
X2315Y1042D02*
X2315Y1040D01*
X2284Y1040D01*
X2284Y1042D01*
X2315Y1042D01*
G37*
D02*
G36*
X2315Y1042D02*
X2315Y1040D01*
X2284Y1040D01*
X2284Y1042D01*
X2315Y1042D01*
G37*
D02*
G36*
X2312Y1040D02*
X2312Y1039D01*
X2307Y1039D01*
X2307Y1037D01*
X2304Y1037D01*
X2304Y1035D01*
X2291Y1035D01*
X2291Y1037D01*
X2287Y1037D01*
X2287Y1039D01*
X2286Y1039D01*
X2286Y1040D01*
X2312Y1040D01*
G37*
D02*
G36*
X2450Y1091D02*
X2450Y1086D01*
X2448Y1086D01*
X2448Y1084D01*
X2446Y1084D01*
X2446Y1083D01*
X2445Y1083D01*
X2445Y1080D01*
X2443Y1080D01*
X2443Y1078D01*
X2441Y1078D01*
X2441Y1071D01*
X2445Y1071D01*
X2445Y1070D01*
X2456Y1070D01*
X2456Y1068D01*
X2460Y1068D01*
X2460Y1066D01*
X2461Y1066D01*
X2461Y1065D01*
X2463Y1065D01*
X2463Y1061D01*
X2446Y1061D01*
X2446Y1058D01*
X2448Y1058D01*
X2448Y1057D01*
X2432Y1057D01*
X2432Y1068D01*
X2433Y1068D01*
X2433Y1078D01*
X2435Y1078D01*
X2435Y1081D01*
X2437Y1081D01*
X2437Y1084D01*
X2438Y1084D01*
X2438Y1086D01*
X2440Y1086D01*
X2440Y1088D01*
X2441Y1088D01*
X2441Y1089D01*
X2445Y1089D01*
X2445Y1091D01*
X2450Y1091D01*
G37*
D02*
G36*
X2464Y1061D02*
X2464Y1060D01*
X2466Y1060D01*
X2466Y1057D01*
X2455Y1057D01*
X2455Y1058D01*
X2456Y1058D01*
X2456Y1061D01*
X2464Y1061D01*
G37*
D02*
G36*
X2464Y1057D02*
X2464Y1055D01*
X2432Y1055D01*
X2432Y1057D01*
X2464Y1057D01*
G37*
D02*
G36*
X2464Y1057D02*
X2464Y1055D01*
X2432Y1055D01*
X2432Y1057D01*
X2464Y1057D01*
G37*
D02*
G36*
X2464Y1055D02*
X2464Y1050D01*
X2463Y1050D01*
X2463Y1048D01*
X2441Y1048D01*
X2441Y1047D01*
X2430Y1047D01*
X2430Y1055D01*
X2464Y1055D01*
G37*
D02*
G36*
X2461Y1048D02*
X2461Y1047D01*
X2448Y1047D01*
X2448Y1048D01*
X2461Y1048D01*
G37*
D02*
G36*
X2446Y1048D02*
X2446Y1047D01*
X2443Y1047D01*
X2443Y1048D01*
X2446Y1048D01*
G37*
D02*
G36*
X2443Y1047D02*
X2443Y1043D01*
X2445Y1043D01*
X2445Y1042D01*
X2446Y1042D01*
X2446Y1039D01*
X2448Y1039D01*
X2448Y1035D01*
X2451Y1035D01*
X2451Y1034D01*
X2453Y1034D01*
X2453Y1024D01*
X2455Y1024D01*
X2455Y1022D01*
X2453Y1022D01*
X2453Y1020D01*
X2451Y1020D01*
X2451Y1017D01*
X2450Y1017D01*
X2450Y1016D01*
X2443Y1016D01*
X2443Y1024D01*
X2445Y1024D01*
X2445Y1029D01*
X2443Y1029D01*
X2443Y1032D01*
X2441Y1032D01*
X2441Y1034D01*
X2440Y1034D01*
X2440Y1035D01*
X2437Y1035D01*
X2437Y1039D01*
X2435Y1039D01*
X2435Y1040D01*
X2433Y1040D01*
X2433Y1043D01*
X2432Y1043D01*
X2432Y1045D01*
X2430Y1045D01*
X2430Y1047D01*
X2443Y1047D01*
G37*
D02*
G36*
X2530Y1086D02*
X2530Y1081D01*
X2528Y1081D01*
X2528Y1076D01*
X2527Y1076D01*
X2527Y1073D01*
X2525Y1073D01*
X2525Y1070D01*
X2524Y1070D01*
X2524Y1068D01*
X2522Y1068D01*
X2522Y1065D01*
X2520Y1065D01*
X2520Y1058D01*
X2519Y1058D01*
X2519Y1057D01*
X2517Y1057D01*
X2517Y1052D01*
X2510Y1052D01*
X2510Y1057D01*
X2512Y1057D01*
X2512Y1060D01*
X2514Y1060D01*
X2514Y1065D01*
X2515Y1065D01*
X2515Y1068D01*
X2517Y1068D01*
X2517Y1070D01*
X2519Y1070D01*
X2519Y1075D01*
X2520Y1075D01*
X2520Y1080D01*
X2522Y1080D01*
X2522Y1083D01*
X2524Y1083D01*
X2524Y1084D01*
X2525Y1084D01*
X2525Y1086D01*
X2530Y1086D01*
G37*
D02*
G36*
X1999Y1055D02*
X1999Y1053D01*
X2005Y1053D01*
X2005Y1052D01*
X2008Y1052D01*
X2008Y1050D01*
X2015Y1050D01*
X2015Y1048D01*
X2022Y1048D01*
X2022Y1047D01*
X2030Y1047D01*
X2030Y1045D01*
X2035Y1045D01*
X2035Y1043D01*
X2038Y1043D01*
X2038Y1040D01*
X2036Y1040D01*
X2036Y1039D01*
X2028Y1039D01*
X2028Y1040D01*
X2020Y1040D01*
X2020Y1042D01*
X2015Y1042D01*
X2015Y1043D01*
X2004Y1043D01*
X2004Y1045D01*
X2000Y1045D01*
X2000Y1047D01*
X1994Y1047D01*
X1994Y1048D01*
X1990Y1048D01*
X1990Y1050D01*
X1989Y1050D01*
X1989Y1053D01*
X1990Y1053D01*
X1990Y1055D01*
X1999Y1055D01*
G37*
D02*
G36*
X2568Y1030D02*
X2568Y1029D01*
X2569Y1029D01*
X2569Y1027D01*
X2568Y1027D01*
X2568Y1025D01*
X2563Y1025D01*
X2563Y1024D01*
X2560Y1024D01*
X2560Y1022D01*
X2558Y1022D01*
X2558Y1020D01*
X2555Y1020D01*
X2555Y1019D01*
X2550Y1019D01*
X2550Y1017D01*
X2545Y1017D01*
X2545Y1016D01*
X2540Y1016D01*
X2540Y1020D01*
X2543Y1020D01*
X2543Y1022D01*
X2546Y1022D01*
X2546Y1024D01*
X2550Y1024D01*
X2550Y1025D01*
X2553Y1025D01*
X2553Y1027D01*
X2560Y1027D01*
X2560Y1029D01*
X2563Y1029D01*
X2563Y1030D01*
X2568Y1030D01*
G37*
D02*
G36*
X2028Y1014D02*
X2028Y1012D01*
X2035Y1012D01*
X2035Y1009D01*
X2036Y1009D01*
X2036Y1007D01*
X2035Y1007D01*
X2035Y1006D01*
X2017Y1006D01*
X2017Y1004D01*
X2012Y1004D01*
X2012Y1002D01*
X2002Y1002D01*
X2002Y1007D01*
X2004Y1007D01*
X2004Y1009D01*
X2012Y1009D01*
X2012Y1011D01*
X2013Y1011D01*
X2013Y1012D01*
X2020Y1012D01*
X2020Y1014D01*
X2028Y1014D01*
G37*
D02*
G36*
X2286Y1145D02*
X2286Y1144D01*
X2307Y1144D01*
X2307Y1142D01*
X2315Y1142D01*
X2315Y1140D01*
X2322Y1140D01*
X2322Y1139D01*
X2269Y1139D01*
X2269Y1137D01*
X2264Y1137D01*
X2264Y1135D01*
X2254Y1135D01*
X2254Y1134D01*
X2248Y1134D01*
X2248Y1132D01*
X2243Y1132D01*
X2243Y1130D01*
X2240Y1130D01*
X2240Y1129D01*
X2236Y1129D01*
X2236Y1127D01*
X2233Y1127D01*
X2233Y1125D01*
X2228Y1125D01*
X2228Y1124D01*
X2225Y1124D01*
X2225Y1122D01*
X2223Y1122D01*
X2223Y1121D01*
X2220Y1121D01*
X2220Y1119D01*
X2218Y1119D01*
X2218Y1117D01*
X2217Y1117D01*
X2217Y1116D01*
X2215Y1116D01*
X2215Y1114D01*
X2213Y1114D01*
X2213Y1111D01*
X2212Y1111D01*
X2212Y1109D01*
X2209Y1109D01*
X2209Y1106D01*
X2207Y1106D01*
X2207Y1104D01*
X2205Y1104D01*
X2205Y1102D01*
X2204Y1102D01*
X2204Y1099D01*
X2202Y1099D01*
X2202Y1098D01*
X2200Y1098D01*
X2200Y1096D01*
X2199Y1096D01*
X2199Y1091D01*
X2197Y1091D01*
X2197Y1083D01*
X2195Y1083D01*
X2195Y1078D01*
X2197Y1078D01*
X2197Y1075D01*
X2195Y1075D01*
X2195Y1071D01*
X2197Y1071D01*
X2197Y1066D01*
X2199Y1066D01*
X2199Y1063D01*
X2200Y1063D01*
X2200Y1060D01*
X2202Y1060D01*
X2202Y1057D01*
X2204Y1057D01*
X2204Y1055D01*
X2205Y1055D01*
X2205Y1052D01*
X2207Y1052D01*
X2207Y1048D01*
X2209Y1048D01*
X2209Y1047D01*
X2210Y1047D01*
X2210Y1045D01*
X2212Y1045D01*
X2212Y1043D01*
X2215Y1043D01*
X2215Y1042D01*
X2217Y1042D01*
X2217Y1034D01*
X2215Y1034D01*
X2215Y1030D01*
X2213Y1030D01*
X2213Y1027D01*
X2212Y1027D01*
X2212Y1025D01*
X2213Y1025D01*
X2213Y1024D01*
X2202Y1024D01*
X2202Y1025D01*
X2204Y1025D01*
X2204Y1027D01*
X2205Y1027D01*
X2205Y1029D01*
X2207Y1029D01*
X2207Y1034D01*
X2209Y1034D01*
X2209Y1037D01*
X2207Y1037D01*
X2207Y1039D01*
X2205Y1039D01*
X2205Y1040D01*
X2204Y1040D01*
X2204Y1043D01*
X2200Y1043D01*
X2200Y1045D01*
X2199Y1045D01*
X2199Y1050D01*
X2197Y1050D01*
X2197Y1052D01*
X2195Y1052D01*
X2195Y1057D01*
X2194Y1057D01*
X2194Y1060D01*
X2192Y1060D01*
X2192Y1063D01*
X2191Y1063D01*
X2191Y1075D01*
X2189Y1075D01*
X2189Y1083D01*
X2191Y1083D01*
X2191Y1093D01*
X2192Y1093D01*
X2192Y1096D01*
X2194Y1096D01*
X2194Y1099D01*
X2195Y1099D01*
X2195Y1102D01*
X2197Y1102D01*
X2197Y1104D01*
X2199Y1104D01*
X2199Y1106D01*
X2200Y1106D01*
X2200Y1107D01*
X2202Y1107D01*
X2202Y1109D01*
X2204Y1109D01*
X2204Y1111D01*
X2205Y1111D01*
X2205Y1112D01*
X2207Y1112D01*
X2207Y1114D01*
X2209Y1114D01*
X2209Y1117D01*
X2210Y1117D01*
X2210Y1119D01*
X2212Y1119D01*
X2212Y1121D01*
X2213Y1121D01*
X2213Y1122D01*
X2215Y1122D01*
X2215Y1124D01*
X2217Y1124D01*
X2217Y1125D01*
X2218Y1125D01*
X2218Y1127D01*
X2222Y1127D01*
X2222Y1129D01*
X2225Y1129D01*
X2225Y1130D01*
X2228Y1130D01*
X2228Y1132D01*
X2232Y1132D01*
X2232Y1134D01*
X2235Y1134D01*
X2235Y1135D01*
X2238Y1135D01*
X2238Y1137D01*
X2245Y1137D01*
X2245Y1139D01*
X2248Y1139D01*
X2248Y1140D01*
X2253Y1140D01*
X2253Y1142D01*
X2259Y1142D01*
X2259Y1144D01*
X2284Y1144D01*
X2284Y1145D01*
X2286Y1145D01*
G37*
D02*
G36*
X2327Y1139D02*
X2327Y1137D01*
X2332Y1137D01*
X2332Y1135D01*
X2343Y1135D01*
X2343Y1134D01*
X2351Y1134D01*
X2351Y1132D01*
X2356Y1132D01*
X2356Y1130D01*
X2335Y1130D01*
X2335Y1129D01*
X2332Y1129D01*
X2332Y1130D01*
X2328Y1130D01*
X2328Y1132D01*
X2325Y1132D01*
X2325Y1134D01*
X2317Y1134D01*
X2317Y1135D01*
X2305Y1135D01*
X2305Y1137D01*
X2294Y1137D01*
X2294Y1139D01*
X2327Y1139D01*
G37*
D02*
G36*
X2361Y1130D02*
X2361Y1129D01*
X2364Y1129D01*
X2364Y1127D01*
X2366Y1127D01*
X2366Y1125D01*
X2369Y1125D01*
X2369Y1124D01*
X2371Y1124D01*
X2371Y1122D01*
X2373Y1122D01*
X2373Y1121D01*
X2374Y1121D01*
X2374Y1119D01*
X2376Y1119D01*
X2376Y1117D01*
X2378Y1117D01*
X2378Y1116D01*
X2379Y1116D01*
X2379Y1112D01*
X2381Y1112D01*
X2381Y1109D01*
X2382Y1109D01*
X2382Y1106D01*
X2384Y1106D01*
X2384Y1102D01*
X2386Y1102D01*
X2386Y1096D01*
X2387Y1096D01*
X2387Y1091D01*
X2389Y1091D01*
X2389Y1083D01*
X2391Y1083D01*
X2391Y1075D01*
X2389Y1075D01*
X2389Y1065D01*
X2387Y1065D01*
X2387Y1063D01*
X2386Y1063D01*
X2386Y1058D01*
X2384Y1058D01*
X2384Y1053D01*
X2382Y1053D01*
X2382Y1052D01*
X2381Y1052D01*
X2381Y1050D01*
X2379Y1050D01*
X2379Y1047D01*
X2378Y1047D01*
X2378Y1043D01*
X2376Y1043D01*
X2376Y1042D01*
X2374Y1042D01*
X2374Y1040D01*
X2373Y1040D01*
X2373Y1039D01*
X2369Y1039D01*
X2369Y1037D01*
X2368Y1037D01*
X2368Y1035D01*
X2366Y1035D01*
X2366Y1027D01*
X2364Y1027D01*
X2364Y1020D01*
X2363Y1020D01*
X2363Y1019D01*
X2361Y1019D01*
X2361Y1017D01*
X2359Y1017D01*
X2359Y1016D01*
X2361Y1016D01*
X2361Y1009D01*
X2363Y1009D01*
X2363Y1007D01*
X2350Y1007D01*
X2350Y1006D01*
X2348Y1006D01*
X2348Y1011D01*
X2346Y1011D01*
X2346Y1012D01*
X2345Y1012D01*
X2345Y1017D01*
X2348Y1017D01*
X2348Y1019D01*
X2351Y1019D01*
X2351Y1020D01*
X2353Y1020D01*
X2353Y1022D01*
X2355Y1022D01*
X2355Y1024D01*
X2356Y1024D01*
X2356Y1027D01*
X2358Y1027D01*
X2358Y1032D01*
X2356Y1032D01*
X2356Y1037D01*
X2358Y1037D01*
X2358Y1039D01*
X2359Y1039D01*
X2359Y1040D01*
X2363Y1040D01*
X2363Y1042D01*
X2364Y1042D01*
X2364Y1043D01*
X2366Y1043D01*
X2366Y1045D01*
X2368Y1045D01*
X2368Y1047D01*
X2371Y1047D01*
X2371Y1050D01*
X2373Y1050D01*
X2373Y1052D01*
X2374Y1052D01*
X2374Y1055D01*
X2376Y1055D01*
X2376Y1058D01*
X2378Y1058D01*
X2378Y1060D01*
X2379Y1060D01*
X2379Y1065D01*
X2381Y1065D01*
X2381Y1068D01*
X2382Y1068D01*
X2382Y1091D01*
X2381Y1091D01*
X2381Y1096D01*
X2379Y1096D01*
X2379Y1101D01*
X2378Y1101D01*
X2378Y1106D01*
X2376Y1106D01*
X2376Y1109D01*
X2374Y1109D01*
X2374Y1111D01*
X2373Y1111D01*
X2373Y1114D01*
X2371Y1114D01*
X2371Y1116D01*
X2369Y1116D01*
X2369Y1119D01*
X2368Y1119D01*
X2368Y1121D01*
X2364Y1121D01*
X2364Y1122D01*
X2361Y1122D01*
X2361Y1124D01*
X2359Y1124D01*
X2359Y1125D01*
X2355Y1125D01*
X2355Y1127D01*
X2353Y1127D01*
X2353Y1129D01*
X2345Y1129D01*
X2345Y1130D01*
X2361Y1130D01*
G37*
D02*
G36*
X2240Y1025D02*
X2240Y1024D01*
X2230Y1024D01*
X2230Y1025D01*
X2240Y1025D01*
G37*
D02*
G36*
X2228Y1025D02*
X2228Y1024D01*
X2222Y1024D01*
X2222Y1025D01*
X2228Y1025D01*
G37*
D02*
G36*
X2241Y1024D02*
X2241Y1022D01*
X2200Y1022D01*
X2200Y1024D01*
X2241Y1024D01*
G37*
D02*
G36*
X2241Y1024D02*
X2241Y1022D01*
X2200Y1022D01*
X2200Y1024D01*
X2241Y1024D01*
G37*
D02*
G36*
X2241Y1024D02*
X2241Y1022D01*
X2200Y1022D01*
X2200Y1024D01*
X2241Y1024D01*
G37*
D02*
G36*
X2241Y1022D02*
X2241Y1020D01*
X2243Y1020D01*
X2243Y1019D01*
X2218Y1019D01*
X2218Y1017D01*
X2212Y1017D01*
X2212Y1016D01*
X2205Y1016D01*
X2205Y1014D01*
X2197Y1014D01*
X2197Y1016D01*
X2194Y1016D01*
X2194Y1017D01*
X2195Y1017D01*
X2195Y1019D01*
X2197Y1019D01*
X2197Y1020D01*
X2199Y1020D01*
X2199Y1022D01*
X2241Y1022D01*
G37*
D02*
G36*
X2277Y1020D02*
X2277Y1019D01*
X2281Y1019D01*
X2281Y1017D01*
X2282Y1017D01*
X2282Y1016D01*
X2286Y1016D01*
X2286Y1014D01*
X2287Y1014D01*
X2287Y1012D01*
X2263Y1012D01*
X2263Y1014D01*
X2269Y1014D01*
X2269Y1016D01*
X2271Y1016D01*
X2271Y1019D01*
X2273Y1019D01*
X2273Y1020D01*
X2277Y1020D01*
G37*
D02*
G36*
X2246Y1019D02*
X2246Y1017D01*
X2250Y1017D01*
X2250Y1016D01*
X2253Y1016D01*
X2253Y1014D01*
X2258Y1014D01*
X2258Y1012D01*
X2241Y1012D01*
X2241Y1014D01*
X2240Y1014D01*
X2240Y1016D01*
X2238Y1016D01*
X2238Y1017D01*
X2227Y1017D01*
X2227Y1019D01*
X2246Y1019D01*
G37*
D02*
G36*
X2291Y1012D02*
X2291Y1011D01*
X2243Y1011D01*
X2243Y1012D01*
X2291Y1012D01*
G37*
D02*
G36*
X2291Y1012D02*
X2291Y1011D01*
X2243Y1011D01*
X2243Y1012D01*
X2291Y1012D01*
G37*
D02*
G36*
X2292Y1011D02*
X2292Y1009D01*
X2294Y1009D01*
X2294Y1007D01*
X2297Y1007D01*
X2297Y1006D01*
X2300Y1006D01*
X2300Y1004D01*
X2314Y1004D01*
X2314Y1002D01*
X2289Y1002D01*
X2289Y1004D01*
X2286Y1004D01*
X2286Y1006D01*
X2284Y1006D01*
X2284Y1007D01*
X2281Y1007D01*
X2281Y1009D01*
X2279Y1009D01*
X2279Y1011D01*
X2292Y1011D01*
G37*
D02*
G36*
X2276Y1011D02*
X2276Y1009D01*
X2274Y1009D01*
X2274Y1007D01*
X2271Y1007D01*
X2271Y1006D01*
X2261Y1006D01*
X2261Y1004D01*
X2256Y1004D01*
X2256Y1006D01*
X2250Y1006D01*
X2250Y1007D01*
X2246Y1007D01*
X2246Y1009D01*
X2245Y1009D01*
X2245Y1011D01*
X2276Y1011D01*
G37*
D02*
G36*
X2364Y1007D02*
X2364Y1006D01*
X2368Y1006D01*
X2368Y1004D01*
X2371Y1004D01*
X2371Y1002D01*
X2373Y1002D01*
X2373Y1001D01*
X2374Y1001D01*
X2374Y999D01*
X2358Y999D01*
X2358Y1001D01*
X2356Y1001D01*
X2356Y1002D01*
X2355Y1002D01*
X2355Y1004D01*
X2353Y1004D01*
X2353Y1006D01*
X2351Y1006D01*
X2351Y1007D01*
X2364Y1007D01*
G37*
D02*
G36*
X2343Y1006D02*
X2343Y1004D01*
X2346Y1004D01*
X2346Y1002D01*
X2351Y1002D01*
X2351Y1001D01*
X2337Y1001D01*
X2337Y1004D01*
X2338Y1004D01*
X2338Y1006D01*
X2343Y1006D01*
G37*
D02*
G36*
X2332Y1006D02*
X2332Y1004D01*
X2333Y1004D01*
X2333Y1002D01*
X2315Y1002D01*
X2315Y1004D01*
X2328Y1004D01*
X2328Y1006D01*
X2332Y1006D01*
G37*
D02*
G36*
X2332Y1002D02*
X2332Y1001D01*
X2291Y1001D01*
X2291Y1002D01*
X2332Y1002D01*
G37*
D02*
G36*
X2332Y1002D02*
X2332Y1001D01*
X2291Y1001D01*
X2291Y1002D01*
X2332Y1002D01*
G37*
D02*
G36*
X2356Y1001D02*
X2356Y999D01*
X2338Y999D01*
X2338Y1001D01*
X2356Y1001D01*
G37*
D02*
G36*
X2328Y1001D02*
X2328Y999D01*
X2323Y999D01*
X2323Y998D01*
X2299Y998D01*
X2299Y999D01*
X2294Y999D01*
X2294Y1001D01*
X2328Y1001D01*
G37*
D02*
G36*
X2376Y999D02*
X2376Y998D01*
X2340Y998D01*
X2340Y999D01*
X2376Y999D01*
G37*
D02*
G36*
X2376Y999D02*
X2376Y998D01*
X2340Y998D01*
X2340Y999D01*
X2376Y999D01*
G37*
D02*
G36*
X2379Y998D02*
X2379Y994D01*
X2382Y994D01*
X2382Y993D01*
X2384Y993D01*
X2384Y991D01*
X2386Y991D01*
X2386Y988D01*
X2387Y988D01*
X2387Y984D01*
X2386Y984D01*
X2386Y983D01*
X2378Y983D01*
X2378Y984D01*
X2371Y984D01*
X2371Y986D01*
X2368Y986D01*
X2368Y988D01*
X2364Y988D01*
X2364Y989D01*
X2359Y989D01*
X2359Y991D01*
X2356Y991D01*
X2356Y993D01*
X2351Y993D01*
X2351Y994D01*
X2348Y994D01*
X2348Y996D01*
X2345Y996D01*
X2345Y998D01*
X2379Y998D01*
G37*
D02*
G36*
X2548Y971D02*
X2548Y970D01*
X2556Y970D01*
X2556Y968D01*
X2566Y968D01*
X2566Y966D01*
X2571Y966D01*
X2571Y965D01*
X2576Y965D01*
X2576Y963D01*
X2581Y963D01*
X2581Y961D01*
X2571Y961D01*
X2571Y960D01*
X2568Y960D01*
X2568Y961D01*
X2551Y961D01*
X2551Y963D01*
X2537Y963D01*
X2537Y965D01*
X2535Y965D01*
X2535Y970D01*
X2537Y970D01*
X2537Y971D01*
X2548Y971D01*
G37*
D02*
G36*
X2584Y961D02*
X2584Y960D01*
X2574Y960D01*
X2574Y961D01*
X2584Y961D01*
G37*
D02*
G36*
X2446Y970D02*
X2446Y968D01*
X2448Y968D01*
X2448Y965D01*
X2438Y965D01*
X2438Y966D01*
X2440Y966D01*
X2440Y968D01*
X2443Y968D01*
X2443Y970D01*
X2446Y970D01*
G37*
D02*
G36*
X2433Y970D02*
X2433Y968D01*
X2435Y968D01*
X2435Y966D01*
X2437Y966D01*
X2437Y965D01*
X2427Y965D01*
X2427Y970D01*
X2433Y970D01*
G37*
D02*
G36*
X2448Y965D02*
X2448Y963D01*
X2427Y963D01*
X2427Y965D01*
X2448Y965D01*
G37*
D02*
G36*
X2448Y965D02*
X2448Y963D01*
X2427Y963D01*
X2427Y965D01*
X2448Y965D01*
G37*
D02*
G36*
X2448Y963D02*
X2448Y961D01*
X2446Y961D01*
X2446Y960D01*
X2445Y960D01*
X2445Y958D01*
X2438Y958D01*
X2438Y956D01*
X2435Y956D01*
X2435Y958D01*
X2430Y958D01*
X2430Y960D01*
X2428Y960D01*
X2428Y961D01*
X2427Y961D01*
X2427Y963D01*
X2448Y963D01*
G37*
D02*
G36*
X2304Y932D02*
X2304Y930D01*
X2302Y930D01*
X2302Y932D01*
X2304Y932D01*
G37*
D02*
G36*
X2038Y929D02*
X2038Y927D01*
X2041Y927D01*
X2041Y922D01*
X2038Y922D01*
X2038Y920D01*
X2036Y920D01*
X2036Y919D01*
X2035Y919D01*
X2035Y914D01*
X2033Y914D01*
X2033Y906D01*
X2031Y906D01*
X2031Y904D01*
X2028Y904D01*
X2028Y907D01*
X2026Y907D01*
X2026Y915D01*
X2028Y915D01*
X2028Y922D01*
X2030Y922D01*
X2030Y924D01*
X2031Y924D01*
X2031Y925D01*
X2033Y925D01*
X2033Y927D01*
X2036Y927D01*
X2036Y929D01*
X2038Y929D01*
G37*
D02*
G36*
X2061Y915D02*
X2061Y912D01*
X2059Y912D01*
X2059Y911D01*
X2056Y911D01*
X2056Y907D01*
X2054Y907D01*
X2054Y906D01*
X2053Y906D01*
X2053Y894D01*
X2049Y894D01*
X2049Y893D01*
X2048Y893D01*
X2048Y896D01*
X2046Y896D01*
X2046Y907D01*
X2048Y907D01*
X2048Y911D01*
X2049Y911D01*
X2049Y912D01*
X2051Y912D01*
X2051Y914D01*
X2054Y914D01*
X2054Y915D01*
X2061Y915D01*
G37*
D02*
G36*
X2376Y891D02*
X2376Y889D01*
X2378Y889D01*
X2378Y884D01*
X2376Y884D01*
X2376Y883D01*
X2378Y883D01*
X2378Y876D01*
X2379Y876D01*
X2379Y871D01*
X2381Y871D01*
X2381Y866D01*
X2382Y866D01*
X2382Y863D01*
X2384Y863D01*
X2384Y855D01*
X2382Y855D01*
X2382Y856D01*
X2379Y856D01*
X2379Y861D01*
X2378Y861D01*
X2378Y863D01*
X2376Y863D01*
X2376Y868D01*
X2374Y868D01*
X2374Y871D01*
X2373Y871D01*
X2373Y876D01*
X2371Y876D01*
X2371Y878D01*
X2373Y878D01*
X2373Y879D01*
X2371Y879D01*
X2371Y886D01*
X2373Y886D01*
X2373Y889D01*
X2374Y889D01*
X2374Y891D01*
X2376Y891D01*
G37*
D02*
G36*
X2356Y884D02*
X2356Y883D01*
X2358Y883D01*
X2358Y878D01*
X2359Y878D01*
X2359Y876D01*
X2361Y876D01*
X2361Y870D01*
X2363Y870D01*
X2363Y868D01*
X2364Y868D01*
X2364Y866D01*
X2366Y866D01*
X2366Y863D01*
X2368Y863D01*
X2368Y860D01*
X2369Y860D01*
X2369Y855D01*
X2363Y855D01*
X2363Y856D01*
X2361Y856D01*
X2361Y858D01*
X2359Y858D01*
X2359Y860D01*
X2358Y860D01*
X2358Y865D01*
X2356Y865D01*
X2356Y868D01*
X2355Y868D01*
X2355Y871D01*
X2351Y871D01*
X2351Y878D01*
X2353Y878D01*
X2353Y883D01*
X2355Y883D01*
X2355Y884D01*
X2356Y884D01*
G37*
D02*
G36*
X2335Y881D02*
X2335Y878D01*
X2337Y878D01*
X2337Y873D01*
X2338Y873D01*
X2338Y860D01*
X2340Y860D01*
X2340Y858D01*
X2341Y858D01*
X2341Y856D01*
X2343Y856D01*
X2343Y853D01*
X2345Y853D01*
X2345Y848D01*
X2338Y848D01*
X2338Y850D01*
X2337Y850D01*
X2337Y852D01*
X2335Y852D01*
X2335Y855D01*
X2332Y855D01*
X2332Y860D01*
X2330Y860D01*
X2330Y871D01*
X2328Y871D01*
X2328Y873D01*
X2330Y873D01*
X2330Y878D01*
X2328Y878D01*
X2328Y879D01*
X2332Y879D01*
X2332Y881D01*
X2335Y881D01*
G37*
D02*
G36*
X2120Y1075D02*
X2120Y1073D01*
X2131Y1073D01*
X2131Y1071D01*
X2136Y1071D01*
X2136Y1070D01*
X2141Y1070D01*
X2141Y1068D01*
X2099Y1068D01*
X2099Y1066D01*
X2094Y1066D01*
X2094Y1065D01*
X2089Y1065D01*
X2089Y1063D01*
X2086Y1063D01*
X2086Y1061D01*
X2084Y1061D01*
X2084Y1057D01*
X2086Y1057D01*
X2086Y1052D01*
X2087Y1052D01*
X2087Y1050D01*
X2089Y1050D01*
X2089Y1047D01*
X2090Y1047D01*
X2090Y1045D01*
X2092Y1045D01*
X2092Y1043D01*
X2081Y1043D01*
X2081Y1040D01*
X2079Y1040D01*
X2079Y1029D01*
X2084Y1029D01*
X2084Y1027D01*
X2086Y1027D01*
X2086Y1025D01*
X2087Y1025D01*
X2087Y1020D01*
X2089Y1020D01*
X2089Y1017D01*
X2086Y1017D01*
X2086Y1014D01*
X2087Y1014D01*
X2087Y1012D01*
X2089Y1012D01*
X2089Y1009D01*
X2077Y1009D01*
X2077Y1007D01*
X2069Y1007D01*
X2069Y1016D01*
X2071Y1016D01*
X2071Y1034D01*
X2072Y1034D01*
X2072Y1065D01*
X2074Y1065D01*
X2074Y1066D01*
X2079Y1066D01*
X2079Y1068D01*
X2084Y1068D01*
X2084Y1070D01*
X2089Y1070D01*
X2089Y1071D01*
X2099Y1071D01*
X2099Y1073D01*
X2107Y1073D01*
X2107Y1075D01*
X2120Y1075D01*
G37*
D02*
G36*
X2148Y1068D02*
X2148Y1066D01*
X2151Y1066D01*
X2151Y1065D01*
X2154Y1065D01*
X2154Y1063D01*
X2156Y1063D01*
X2156Y1061D01*
X2158Y1061D01*
X2158Y1060D01*
X2161Y1060D01*
X2161Y1057D01*
X2164Y1057D01*
X2164Y1055D01*
X2166Y1055D01*
X2166Y1053D01*
X2168Y1053D01*
X2168Y1050D01*
X2169Y1050D01*
X2169Y1047D01*
X2171Y1047D01*
X2171Y1043D01*
X2172Y1043D01*
X2172Y1037D01*
X2174Y1037D01*
X2174Y1032D01*
X2172Y1032D01*
X2172Y1030D01*
X2174Y1030D01*
X2174Y1027D01*
X2172Y1027D01*
X2172Y1019D01*
X2171Y1019D01*
X2171Y1009D01*
X2161Y1009D01*
X2161Y1007D01*
X2158Y1007D01*
X2158Y1006D01*
X2138Y1006D01*
X2138Y1007D01*
X2141Y1007D01*
X2141Y1009D01*
X2148Y1009D01*
X2148Y1011D01*
X2151Y1011D01*
X2151Y1012D01*
X2153Y1012D01*
X2153Y1014D01*
X2154Y1014D01*
X2154Y1016D01*
X2158Y1016D01*
X2158Y1017D01*
X2159Y1017D01*
X2159Y1019D01*
X2161Y1019D01*
X2161Y1024D01*
X2163Y1024D01*
X2163Y1029D01*
X2164Y1029D01*
X2164Y1032D01*
X2163Y1032D01*
X2163Y1034D01*
X2164Y1034D01*
X2164Y1037D01*
X2163Y1037D01*
X2163Y1039D01*
X2164Y1039D01*
X2164Y1042D01*
X2163Y1042D01*
X2163Y1047D01*
X2161Y1047D01*
X2161Y1050D01*
X2159Y1050D01*
X2159Y1052D01*
X2158Y1052D01*
X2158Y1055D01*
X2154Y1055D01*
X2154Y1057D01*
X2151Y1057D01*
X2151Y1058D01*
X2149Y1058D01*
X2149Y1060D01*
X2146Y1060D01*
X2146Y1061D01*
X2145Y1061D01*
X2145Y1063D01*
X2141Y1063D01*
X2141Y1065D01*
X2135Y1065D01*
X2135Y1066D01*
X2128Y1066D01*
X2128Y1068D01*
X2148Y1068D01*
G37*
D02*
G36*
X2092Y1043D02*
X2092Y1042D01*
X2094Y1042D01*
X2094Y1040D01*
X2097Y1040D01*
X2097Y1037D01*
X2099Y1037D01*
X2099Y1035D01*
X2100Y1035D01*
X2100Y1032D01*
X2102Y1032D01*
X2102Y1029D01*
X2104Y1029D01*
X2104Y1027D01*
X2105Y1027D01*
X2105Y1025D01*
X2107Y1025D01*
X2107Y1024D01*
X2108Y1024D01*
X2108Y1022D01*
X2110Y1022D01*
X2110Y1020D01*
X2112Y1020D01*
X2112Y1017D01*
X2115Y1017D01*
X2115Y1016D01*
X2117Y1016D01*
X2117Y1014D01*
X2118Y1014D01*
X2118Y1012D01*
X2120Y1012D01*
X2120Y1009D01*
X2123Y1009D01*
X2123Y1007D01*
X2133Y1007D01*
X2133Y1006D01*
X2113Y1006D01*
X2113Y1007D01*
X2112Y1007D01*
X2112Y1009D01*
X2110Y1009D01*
X2110Y1011D01*
X2108Y1011D01*
X2108Y1014D01*
X2107Y1014D01*
X2107Y1016D01*
X2105Y1016D01*
X2105Y1017D01*
X2104Y1017D01*
X2104Y1019D01*
X2102Y1019D01*
X2102Y1020D01*
X2100Y1020D01*
X2100Y1022D01*
X2099Y1022D01*
X2099Y1024D01*
X2097Y1024D01*
X2097Y1025D01*
X2095Y1025D01*
X2095Y1029D01*
X2094Y1029D01*
X2094Y1030D01*
X2092Y1030D01*
X2092Y1034D01*
X2090Y1034D01*
X2090Y1035D01*
X2089Y1035D01*
X2089Y1037D01*
X2087Y1037D01*
X2087Y1039D01*
X2086Y1039D01*
X2086Y1040D01*
X2082Y1040D01*
X2082Y1043D01*
X2092Y1043D01*
G37*
D02*
G36*
X2433Y1032D02*
X2433Y1030D01*
X2437Y1030D01*
X2437Y1027D01*
X2433Y1027D01*
X2433Y1025D01*
X2432Y1025D01*
X2432Y1024D01*
X2430Y1024D01*
X2430Y1020D01*
X2428Y1020D01*
X2428Y1017D01*
X2427Y1017D01*
X2427Y1016D01*
X2430Y1016D01*
X2430Y1012D01*
X2432Y1012D01*
X2432Y1009D01*
X2433Y1009D01*
X2433Y1007D01*
X2437Y1007D01*
X2437Y1006D01*
X2438Y1006D01*
X2438Y1004D01*
X2441Y1004D01*
X2441Y1002D01*
X2410Y1002D01*
X2410Y1006D01*
X2412Y1006D01*
X2412Y1009D01*
X2414Y1009D01*
X2414Y1016D01*
X2415Y1016D01*
X2415Y1020D01*
X2417Y1020D01*
X2417Y1024D01*
X2419Y1024D01*
X2419Y1025D01*
X2422Y1025D01*
X2422Y1027D01*
X2423Y1027D01*
X2423Y1029D01*
X2427Y1029D01*
X2427Y1030D01*
X2430Y1030D01*
X2430Y1032D01*
X2433Y1032D01*
G37*
D02*
G36*
X2464Y1029D02*
X2464Y1027D01*
X2468Y1027D01*
X2468Y1025D01*
X2469Y1025D01*
X2469Y1024D01*
X2471Y1024D01*
X2471Y1022D01*
X2473Y1022D01*
X2473Y1020D01*
X2474Y1020D01*
X2474Y1017D01*
X2476Y1017D01*
X2476Y1014D01*
X2478Y1014D01*
X2478Y1004D01*
X2479Y1004D01*
X2479Y1002D01*
X2458Y1002D01*
X2458Y1004D01*
X2464Y1004D01*
X2464Y1007D01*
X2468Y1007D01*
X2468Y1011D01*
X2466Y1011D01*
X2466Y1012D01*
X2468Y1012D01*
X2468Y1014D01*
X2464Y1014D01*
X2464Y1017D01*
X2463Y1017D01*
X2463Y1019D01*
X2461Y1019D01*
X2461Y1020D01*
X2458Y1020D01*
X2458Y1024D01*
X2456Y1024D01*
X2456Y1027D01*
X2458Y1027D01*
X2458Y1029D01*
X2464Y1029D01*
G37*
D02*
G36*
X2171Y1009D02*
X2171Y999D01*
X2169Y999D01*
X2169Y984D01*
X2168Y984D01*
X2168Y983D01*
X2169Y983D01*
X2169Y981D01*
X2168Y981D01*
X2168Y976D01*
X2166Y976D01*
X2166Y973D01*
X2164Y973D01*
X2164Y970D01*
X2163Y970D01*
X2163Y968D01*
X2164Y968D01*
X2164Y965D01*
X2163Y965D01*
X2163Y961D01*
X2164Y961D01*
X2164Y960D01*
X2168Y960D01*
X2168Y958D01*
X2171Y958D01*
X2171Y956D01*
X2172Y956D01*
X2172Y955D01*
X2174Y955D01*
X2174Y953D01*
X2154Y953D01*
X2154Y952D01*
X2153Y952D01*
X2153Y950D01*
X2151Y950D01*
X2151Y947D01*
X2149Y947D01*
X2149Y945D01*
X2148Y945D01*
X2148Y943D01*
X2135Y943D01*
X2135Y945D01*
X2136Y945D01*
X2136Y947D01*
X2140Y947D01*
X2140Y948D01*
X2141Y948D01*
X2141Y950D01*
X2143Y950D01*
X2143Y952D01*
X2145Y952D01*
X2145Y953D01*
X2146Y953D01*
X2146Y955D01*
X2148Y955D01*
X2148Y958D01*
X2149Y958D01*
X2149Y961D01*
X2148Y961D01*
X2148Y966D01*
X2149Y966D01*
X2149Y968D01*
X2156Y968D01*
X2156Y970D01*
X2158Y970D01*
X2158Y975D01*
X2159Y975D01*
X2159Y978D01*
X2161Y978D01*
X2161Y983D01*
X2163Y983D01*
X2163Y1009D01*
X2171Y1009D01*
G37*
D02*
G36*
X2102Y1009D02*
X2102Y1007D01*
X2104Y1007D01*
X2104Y1006D01*
X2097Y1006D01*
X2097Y1009D01*
X2102Y1009D01*
G37*
D02*
G36*
X2090Y1009D02*
X2090Y1007D01*
X2079Y1007D01*
X2079Y1009D01*
X2090Y1009D01*
G37*
D02*
G36*
X2094Y1007D02*
X2094Y1006D01*
X2069Y1006D01*
X2069Y1007D01*
X2094Y1007D01*
G37*
D02*
G36*
X2094Y1007D02*
X2094Y1006D01*
X2069Y1006D01*
X2069Y1007D01*
X2094Y1007D01*
G37*
D02*
G36*
X2154Y1006D02*
X2154Y1004D01*
X2117Y1004D01*
X2117Y1006D01*
X2154Y1006D01*
G37*
D02*
G36*
X2154Y1006D02*
X2154Y1004D01*
X2117Y1004D01*
X2117Y1006D01*
X2154Y1006D01*
G37*
D02*
G36*
X2104Y1006D02*
X2104Y1004D01*
X2084Y1004D01*
X2084Y1006D01*
X2104Y1006D01*
G37*
D02*
G36*
X2104Y1006D02*
X2104Y1004D01*
X2084Y1004D01*
X2084Y1006D01*
X2104Y1006D01*
G37*
D02*
G36*
X2077Y1006D02*
X2077Y1002D01*
X2079Y1002D01*
X2079Y1001D01*
X2081Y1001D01*
X2081Y999D01*
X2082Y999D01*
X2082Y998D01*
X2084Y998D01*
X2084Y996D01*
X2089Y996D01*
X2089Y994D01*
X2090Y994D01*
X2090Y991D01*
X2092Y991D01*
X2092Y988D01*
X2079Y988D01*
X2079Y984D01*
X2081Y984D01*
X2081Y983D01*
X2079Y983D01*
X2079Y981D01*
X2081Y981D01*
X2081Y978D01*
X2082Y978D01*
X2082Y975D01*
X2084Y975D01*
X2084Y973D01*
X2087Y973D01*
X2087Y971D01*
X2090Y971D01*
X2090Y970D01*
X2092Y970D01*
X2092Y968D01*
X2094Y968D01*
X2094Y965D01*
X2095Y965D01*
X2095Y963D01*
X2097Y963D01*
X2097Y961D01*
X2099Y961D01*
X2099Y960D01*
X2102Y960D01*
X2102Y958D01*
X2104Y958D01*
X2104Y955D01*
X2107Y955D01*
X2107Y953D01*
X2108Y953D01*
X2108Y952D01*
X2112Y952D01*
X2112Y950D01*
X2113Y950D01*
X2113Y948D01*
X2115Y948D01*
X2115Y947D01*
X2117Y947D01*
X2117Y945D01*
X2120Y945D01*
X2120Y943D01*
X2105Y943D01*
X2105Y945D01*
X2104Y945D01*
X2104Y948D01*
X2100Y948D01*
X2100Y952D01*
X2097Y952D01*
X2097Y953D01*
X2095Y953D01*
X2095Y955D01*
X2094Y955D01*
X2094Y956D01*
X2092Y956D01*
X2092Y958D01*
X2090Y958D01*
X2090Y960D01*
X2089Y960D01*
X2089Y961D01*
X2086Y961D01*
X2086Y963D01*
X2082Y963D01*
X2082Y965D01*
X2081Y965D01*
X2081Y968D01*
X2079Y968D01*
X2079Y970D01*
X2077Y970D01*
X2077Y973D01*
X2076Y973D01*
X2076Y975D01*
X2074Y975D01*
X2074Y976D01*
X2072Y976D01*
X2072Y981D01*
X2071Y981D01*
X2071Y983D01*
X2072Y983D01*
X2072Y989D01*
X2071Y989D01*
X2071Y996D01*
X2069Y996D01*
X2069Y998D01*
X2071Y998D01*
X2071Y1001D01*
X2069Y1001D01*
X2069Y1006D01*
X2077Y1006D01*
G37*
D02*
G36*
X2151Y1004D02*
X2151Y1002D01*
X2146Y1002D01*
X2146Y1001D01*
X2143Y1001D01*
X2143Y999D01*
X2141Y999D01*
X2141Y998D01*
X2138Y998D01*
X2138Y996D01*
X2136Y996D01*
X2136Y994D01*
X2135Y994D01*
X2135Y989D01*
X2133Y989D01*
X2133Y984D01*
X2135Y984D01*
X2135Y983D01*
X2133Y983D01*
X2133Y971D01*
X2135Y971D01*
X2135Y970D01*
X2133Y970D01*
X2133Y960D01*
X2131Y960D01*
X2131Y945D01*
X2133Y945D01*
X2133Y943D01*
X2122Y943D01*
X2122Y947D01*
X2123Y947D01*
X2123Y952D01*
X2125Y952D01*
X2125Y953D01*
X2123Y953D01*
X2123Y956D01*
X2125Y956D01*
X2125Y966D01*
X2127Y966D01*
X2127Y994D01*
X2125Y994D01*
X2125Y999D01*
X2123Y999D01*
X2123Y1001D01*
X2122Y1001D01*
X2122Y1002D01*
X2120Y1002D01*
X2120Y1004D01*
X2151Y1004D01*
G37*
D02*
G36*
X2105Y1004D02*
X2105Y1002D01*
X2108Y1002D01*
X2108Y1001D01*
X2110Y1001D01*
X2110Y999D01*
X2112Y999D01*
X2112Y998D01*
X2110Y998D01*
X2110Y996D01*
X2105Y996D01*
X2105Y998D01*
X2102Y998D01*
X2102Y999D01*
X2100Y999D01*
X2100Y1001D01*
X2099Y1001D01*
X2099Y1002D01*
X2097Y1002D01*
X2097Y1004D01*
X2105Y1004D01*
G37*
D02*
G36*
X2095Y1004D02*
X2095Y1002D01*
X2094Y1002D01*
X2094Y1001D01*
X2089Y1001D01*
X2089Y1002D01*
X2086Y1002D01*
X2086Y1004D01*
X2095Y1004D01*
G37*
D02*
G36*
X2479Y1002D02*
X2479Y1001D01*
X2410Y1001D01*
X2410Y1002D01*
X2479Y1002D01*
G37*
D02*
G36*
X2479Y1002D02*
X2479Y1001D01*
X2410Y1001D01*
X2410Y1002D01*
X2479Y1002D01*
G37*
D02*
G36*
X2478Y1001D02*
X2478Y998D01*
X2476Y998D01*
X2476Y996D01*
X2478Y996D01*
X2478Y994D01*
X2417Y994D01*
X2417Y989D01*
X2415Y989D01*
X2415Y988D01*
X2414Y988D01*
X2414Y983D01*
X2412Y983D01*
X2412Y978D01*
X2410Y978D01*
X2410Y973D01*
X2409Y973D01*
X2409Y970D01*
X2407Y970D01*
X2407Y966D01*
X2405Y966D01*
X2405Y963D01*
X2404Y963D01*
X2404Y956D01*
X2402Y956D01*
X2402Y953D01*
X2400Y953D01*
X2400Y947D01*
X2399Y947D01*
X2399Y942D01*
X2397Y942D01*
X2397Y937D01*
X2382Y937D01*
X2382Y935D01*
X2376Y935D01*
X2376Y934D01*
X2343Y934D01*
X2343Y935D01*
X2353Y935D01*
X2353Y937D01*
X2363Y937D01*
X2363Y938D01*
X2369Y938D01*
X2369Y940D01*
X2374Y940D01*
X2374Y942D01*
X2378Y942D01*
X2378Y943D01*
X2382Y943D01*
X2382Y945D01*
X2386Y945D01*
X2386Y947D01*
X2389Y947D01*
X2389Y950D01*
X2391Y950D01*
X2391Y952D01*
X2392Y952D01*
X2392Y956D01*
X2394Y956D01*
X2394Y960D01*
X2396Y960D01*
X2396Y965D01*
X2397Y965D01*
X2397Y970D01*
X2399Y970D01*
X2399Y975D01*
X2400Y975D01*
X2400Y976D01*
X2402Y976D01*
X2402Y983D01*
X2404Y983D01*
X2404Y988D01*
X2405Y988D01*
X2405Y993D01*
X2407Y993D01*
X2407Y994D01*
X2409Y994D01*
X2409Y999D01*
X2410Y999D01*
X2410Y1001D01*
X2478Y1001D01*
G37*
D02*
G36*
X2476Y994D02*
X2476Y991D01*
X2427Y991D01*
X2427Y989D01*
X2425Y989D01*
X2425Y991D01*
X2423Y991D01*
X2423Y993D01*
X2420Y993D01*
X2420Y994D01*
X2476Y994D01*
G37*
D02*
G36*
X2476Y991D02*
X2476Y988D01*
X2474Y988D01*
X2474Y984D01*
X2473Y984D01*
X2473Y979D01*
X2471Y979D01*
X2471Y978D01*
X2469Y978D01*
X2469Y973D01*
X2468Y973D01*
X2468Y971D01*
X2466Y971D01*
X2466Y966D01*
X2464Y966D01*
X2464Y961D01*
X2463Y961D01*
X2463Y958D01*
X2461Y958D01*
X2461Y955D01*
X2460Y955D01*
X2460Y953D01*
X2461Y953D01*
X2461Y952D01*
X2464Y952D01*
X2464Y950D01*
X2468Y950D01*
X2468Y948D01*
X2469Y948D01*
X2469Y947D01*
X2471Y947D01*
X2471Y945D01*
X2473Y945D01*
X2473Y942D01*
X2474Y942D01*
X2474Y937D01*
X2456Y937D01*
X2456Y938D01*
X2460Y938D01*
X2460Y942D01*
X2455Y942D01*
X2455Y943D01*
X2450Y943D01*
X2450Y945D01*
X2448Y945D01*
X2448Y947D01*
X2446Y947D01*
X2446Y948D01*
X2445Y948D01*
X2445Y953D01*
X2446Y953D01*
X2446Y956D01*
X2450Y956D01*
X2450Y960D01*
X2451Y960D01*
X2451Y961D01*
X2453Y961D01*
X2453Y965D01*
X2455Y965D01*
X2455Y968D01*
X2456Y968D01*
X2456Y973D01*
X2458Y973D01*
X2458Y976D01*
X2460Y976D01*
X2460Y979D01*
X2458Y979D01*
X2458Y981D01*
X2453Y981D01*
X2453Y983D01*
X2443Y983D01*
X2443Y984D01*
X2438Y984D01*
X2438Y986D01*
X2435Y986D01*
X2435Y988D01*
X2432Y988D01*
X2432Y989D01*
X2428Y989D01*
X2428Y991D01*
X2476Y991D01*
G37*
D02*
G36*
X2090Y988D02*
X2090Y986D01*
X2086Y986D01*
X2086Y988D01*
X2090Y988D01*
G37*
D02*
G36*
X2084Y988D02*
X2084Y986D01*
X2082Y986D01*
X2082Y988D01*
X2084Y988D01*
G37*
D02*
G36*
X2287Y961D02*
X2287Y960D01*
X2276Y960D01*
X2276Y961D01*
X2287Y961D01*
G37*
D02*
G36*
X2273Y961D02*
X2273Y960D01*
X2258Y960D01*
X2258Y961D01*
X2273Y961D01*
G37*
D02*
G36*
X2289Y960D02*
X2289Y958D01*
X2253Y958D01*
X2253Y960D01*
X2289Y960D01*
G37*
D02*
G36*
X2289Y960D02*
X2289Y958D01*
X2253Y958D01*
X2253Y960D01*
X2289Y960D01*
G37*
D02*
G36*
X2292Y958D02*
X2292Y956D01*
X2294Y956D01*
X2294Y955D01*
X2256Y955D01*
X2256Y953D01*
X2253Y953D01*
X2253Y952D01*
X2250Y952D01*
X2250Y948D01*
X2248Y948D01*
X2248Y947D01*
X2246Y947D01*
X2246Y945D01*
X2207Y945D01*
X2207Y947D01*
X2232Y947D01*
X2232Y948D01*
X2233Y948D01*
X2233Y950D01*
X2235Y950D01*
X2235Y952D01*
X2238Y952D01*
X2238Y953D01*
X2241Y953D01*
X2241Y955D01*
X2245Y955D01*
X2245Y956D01*
X2246Y956D01*
X2246Y958D01*
X2292Y958D01*
G37*
D02*
G36*
X2297Y955D02*
X2297Y953D01*
X2282Y953D01*
X2282Y947D01*
X2286Y947D01*
X2286Y943D01*
X2287Y943D01*
X2287Y940D01*
X2289Y940D01*
X2289Y937D01*
X2287Y937D01*
X2287Y935D01*
X2282Y935D01*
X2282Y934D01*
X2276Y934D01*
X2276Y932D01*
X2274Y932D01*
X2274Y930D01*
X2273Y930D01*
X2273Y924D01*
X2263Y924D01*
X2263Y937D01*
X2264Y937D01*
X2264Y938D01*
X2268Y938D01*
X2268Y940D01*
X2271Y940D01*
X2271Y942D01*
X2274Y942D01*
X2274Y945D01*
X2273Y945D01*
X2273Y947D01*
X2271Y947D01*
X2271Y950D01*
X2269Y950D01*
X2269Y953D01*
X2268Y953D01*
X2268Y955D01*
X2297Y955D01*
G37*
D02*
G36*
X2299Y953D02*
X2299Y952D01*
X2300Y952D01*
X2300Y950D01*
X2302Y950D01*
X2302Y947D01*
X2304Y947D01*
X2304Y943D01*
X2305Y943D01*
X2305Y942D01*
X2307Y942D01*
X2307Y940D01*
X2309Y940D01*
X2309Y938D01*
X2310Y938D01*
X2310Y937D01*
X2312Y937D01*
X2312Y935D01*
X2315Y935D01*
X2315Y934D01*
X2304Y934D01*
X2304Y935D01*
X2302Y935D01*
X2302Y940D01*
X2300Y940D01*
X2300Y942D01*
X2297Y942D01*
X2297Y943D01*
X2295Y943D01*
X2295Y945D01*
X2294Y945D01*
X2294Y947D01*
X2292Y947D01*
X2292Y950D01*
X2289Y950D01*
X2289Y952D01*
X2284Y952D01*
X2284Y953D01*
X2299Y953D01*
G37*
D02*
G36*
X2177Y953D02*
X2177Y952D01*
X2181Y952D01*
X2181Y950D01*
X2184Y950D01*
X2184Y948D01*
X2192Y948D01*
X2192Y947D01*
X2199Y947D01*
X2199Y945D01*
X2172Y945D01*
X2172Y947D01*
X2171Y947D01*
X2171Y948D01*
X2168Y948D01*
X2168Y950D01*
X2164Y950D01*
X2164Y952D01*
X2161Y952D01*
X2161Y953D01*
X2177Y953D01*
G37*
D02*
G36*
X2440Y950D02*
X2440Y948D01*
X2443Y948D01*
X2443Y943D01*
X2445Y943D01*
X2445Y942D01*
X2446Y942D01*
X2446Y938D01*
X2455Y938D01*
X2455Y937D01*
X2437Y937D01*
X2437Y938D01*
X2435Y938D01*
X2435Y940D01*
X2433Y940D01*
X2433Y948D01*
X2435Y948D01*
X2435Y950D01*
X2440Y950D01*
G37*
D02*
G36*
X2241Y945D02*
X2241Y943D01*
X2176Y943D01*
X2176Y945D01*
X2241Y945D01*
G37*
D02*
G36*
X2241Y945D02*
X2241Y943D01*
X2176Y943D01*
X2176Y945D01*
X2241Y945D01*
G37*
D02*
G36*
X2241Y943D02*
X2241Y942D01*
X2240Y942D01*
X2240Y940D01*
X2205Y940D01*
X2205Y938D01*
X2192Y938D01*
X2192Y940D01*
X2186Y940D01*
X2186Y942D01*
X2181Y942D01*
X2181Y943D01*
X2241Y943D01*
G37*
D02*
G36*
X2145Y943D02*
X2145Y942D01*
X2104Y942D01*
X2104Y943D01*
X2145Y943D01*
G37*
D02*
G36*
X2145Y943D02*
X2145Y942D01*
X2104Y942D01*
X2104Y943D01*
X2145Y943D01*
G37*
D02*
G36*
X2145Y943D02*
X2145Y942D01*
X2104Y942D01*
X2104Y943D01*
X2145Y943D01*
G37*
D02*
G36*
X2145Y942D02*
X2145Y940D01*
X2143Y940D01*
X2143Y938D01*
X2110Y938D01*
X2110Y937D01*
X2108Y937D01*
X2108Y935D01*
X2107Y935D01*
X2107Y932D01*
X2105Y932D01*
X2105Y930D01*
X2104Y930D01*
X2104Y925D01*
X2102Y925D01*
X2102Y922D01*
X2100Y922D01*
X2100Y911D01*
X2102Y911D01*
X2102Y904D01*
X2104Y904D01*
X2104Y899D01*
X2105Y899D01*
X2105Y896D01*
X2107Y896D01*
X2107Y893D01*
X2108Y893D01*
X2108Y891D01*
X2110Y891D01*
X2110Y888D01*
X2112Y888D01*
X2112Y886D01*
X2113Y886D01*
X2113Y883D01*
X2102Y883D01*
X2102Y888D01*
X2100Y888D01*
X2100Y894D01*
X2099Y894D01*
X2099Y896D01*
X2097Y896D01*
X2097Y897D01*
X2095Y897D01*
X2095Y907D01*
X2094Y907D01*
X2094Y911D01*
X2092Y911D01*
X2092Y922D01*
X2094Y922D01*
X2094Y927D01*
X2095Y927D01*
X2095Y932D01*
X2097Y932D01*
X2097Y934D01*
X2099Y934D01*
X2099Y937D01*
X2100Y937D01*
X2100Y938D01*
X2102Y938D01*
X2102Y942D01*
X2145Y942D01*
G37*
D02*
G36*
X2240Y940D02*
X2240Y937D01*
X2241Y937D01*
X2241Y934D01*
X2245Y934D01*
X2245Y930D01*
X2246Y930D01*
X2246Y929D01*
X2250Y929D01*
X2250Y927D01*
X2251Y927D01*
X2251Y925D01*
X2256Y925D01*
X2256Y924D01*
X2240Y924D01*
X2240Y925D01*
X2238Y925D01*
X2238Y927D01*
X2236Y927D01*
X2236Y929D01*
X2235Y929D01*
X2235Y932D01*
X2233Y932D01*
X2233Y935D01*
X2230Y935D01*
X2230Y938D01*
X2228Y938D01*
X2228Y940D01*
X2240Y940D01*
G37*
D02*
G36*
X2141Y938D02*
X2141Y937D01*
X2138Y937D01*
X2138Y934D01*
X2130Y934D01*
X2130Y932D01*
X2120Y932D01*
X2120Y934D01*
X2117Y934D01*
X2117Y937D01*
X2112Y937D01*
X2112Y938D01*
X2141Y938D01*
G37*
D02*
G36*
X2473Y937D02*
X2473Y935D01*
X2437Y935D01*
X2437Y937D01*
X2473Y937D01*
G37*
D02*
G36*
X2473Y937D02*
X2473Y935D01*
X2437Y935D01*
X2437Y937D01*
X2473Y937D01*
G37*
D02*
G36*
X2396Y937D02*
X2396Y934D01*
X2394Y934D01*
X2394Y925D01*
X2392Y925D01*
X2392Y920D01*
X2394Y920D01*
X2394Y917D01*
X2396Y917D01*
X2396Y915D01*
X2397Y915D01*
X2397Y914D01*
X2399Y914D01*
X2399Y912D01*
X2400Y912D01*
X2400Y911D01*
X2405Y911D01*
X2405Y909D01*
X2410Y909D01*
X2410Y907D01*
X2419Y907D01*
X2419Y906D01*
X2392Y906D01*
X2392Y907D01*
X2391Y907D01*
X2391Y909D01*
X2389Y909D01*
X2389Y912D01*
X2387Y912D01*
X2387Y914D01*
X2386Y914D01*
X2386Y915D01*
X2384Y915D01*
X2384Y920D01*
X2382Y920D01*
X2382Y922D01*
X2384Y922D01*
X2384Y925D01*
X2382Y925D01*
X2382Y929D01*
X2384Y929D01*
X2384Y937D01*
X2396Y937D01*
G37*
D02*
G36*
X2471Y935D02*
X2471Y934D01*
X2468Y934D01*
X2468Y932D01*
X2460Y932D01*
X2460Y930D01*
X2450Y930D01*
X2450Y929D01*
X2446Y929D01*
X2446Y927D01*
X2445Y927D01*
X2445Y924D01*
X2443Y924D01*
X2443Y920D01*
X2441Y920D01*
X2441Y915D01*
X2440Y915D01*
X2440Y911D01*
X2438Y911D01*
X2438Y909D01*
X2437Y909D01*
X2437Y906D01*
X2427Y906D01*
X2427Y907D01*
X2428Y907D01*
X2428Y912D01*
X2430Y912D01*
X2430Y915D01*
X2432Y915D01*
X2432Y922D01*
X2433Y922D01*
X2433Y925D01*
X2435Y925D01*
X2435Y929D01*
X2437Y929D01*
X2437Y934D01*
X2438Y934D01*
X2438Y935D01*
X2471Y935D01*
G37*
D02*
G36*
X2320Y935D02*
X2320Y934D01*
X2317Y934D01*
X2317Y935D01*
X2320Y935D01*
G37*
D02*
G36*
X2371Y934D02*
X2371Y932D01*
X2305Y932D01*
X2305Y934D01*
X2371Y934D01*
G37*
D02*
G36*
X2371Y934D02*
X2371Y932D01*
X2305Y932D01*
X2305Y934D01*
X2371Y934D01*
G37*
D02*
G36*
X2371Y934D02*
X2371Y932D01*
X2305Y932D01*
X2305Y934D01*
X2371Y934D01*
G37*
D02*
G36*
X2140Y934D02*
X2140Y930D01*
X2141Y930D01*
X2141Y915D01*
X2140Y915D01*
X2140Y914D01*
X2138Y914D01*
X2138Y912D01*
X2136Y912D01*
X2136Y911D01*
X2133Y911D01*
X2133Y907D01*
X2131Y907D01*
X2131Y906D01*
X2130Y906D01*
X2130Y904D01*
X2128Y904D01*
X2128Y901D01*
X2127Y901D01*
X2127Y889D01*
X2117Y889D01*
X2117Y896D01*
X2118Y896D01*
X2118Y902D01*
X2120Y902D01*
X2120Y906D01*
X2122Y906D01*
X2122Y909D01*
X2123Y909D01*
X2123Y911D01*
X2125Y911D01*
X2125Y912D01*
X2127Y912D01*
X2127Y914D01*
X2128Y914D01*
X2128Y915D01*
X2130Y915D01*
X2130Y917D01*
X2133Y917D01*
X2133Y922D01*
X2135Y922D01*
X2135Y927D01*
X2133Y927D01*
X2133Y934D01*
X2140Y934D01*
G37*
D02*
G36*
X2463Y932D02*
X2463Y930D01*
X2461Y930D01*
X2461Y932D01*
X2463Y932D01*
G37*
D02*
G36*
X2366Y932D02*
X2366Y930D01*
X2363Y930D01*
X2363Y929D01*
X2350Y929D01*
X2350Y927D01*
X2341Y927D01*
X2341Y925D01*
X2320Y925D01*
X2320Y924D01*
X2318Y924D01*
X2318Y920D01*
X2317Y920D01*
X2317Y914D01*
X2315Y914D01*
X2315Y912D01*
X2295Y912D01*
X2295Y914D01*
X2300Y914D01*
X2300Y915D01*
X2304Y915D01*
X2304Y917D01*
X2307Y917D01*
X2307Y919D01*
X2309Y919D01*
X2309Y924D01*
X2310Y924D01*
X2310Y929D01*
X2309Y929D01*
X2309Y930D01*
X2307Y930D01*
X2307Y932D01*
X2366Y932D01*
G37*
D02*
G36*
X2276Y924D02*
X2276Y922D01*
X2243Y922D01*
X2243Y924D01*
X2276Y924D01*
G37*
D02*
G36*
X2276Y924D02*
X2276Y922D01*
X2243Y922D01*
X2243Y924D01*
X2276Y924D01*
G37*
D02*
G36*
X2277Y922D02*
X2277Y920D01*
X2279Y920D01*
X2279Y919D01*
X2281Y919D01*
X2281Y917D01*
X2282Y917D01*
X2282Y915D01*
X2287Y915D01*
X2287Y914D01*
X2253Y914D01*
X2253Y915D01*
X2251Y915D01*
X2251Y917D01*
X2250Y917D01*
X2250Y919D01*
X2248Y919D01*
X2248Y920D01*
X2246Y920D01*
X2246Y922D01*
X2277Y922D01*
G37*
D02*
G36*
X2291Y915D02*
X2291Y914D01*
X2289Y914D01*
X2289Y915D01*
X2291Y915D01*
G37*
D02*
G36*
X2292Y914D02*
X2292Y912D01*
X2269Y912D01*
X2269Y914D01*
X2292Y914D01*
G37*
D02*
G36*
X2292Y914D02*
X2292Y912D01*
X2269Y912D01*
X2269Y914D01*
X2292Y914D01*
G37*
D02*
G36*
X2312Y912D02*
X2312Y911D01*
X2274Y911D01*
X2274Y912D01*
X2312Y912D01*
G37*
D02*
G36*
X2312Y912D02*
X2312Y911D01*
X2274Y911D01*
X2274Y912D01*
X2312Y912D01*
G37*
D02*
G36*
X2307Y911D02*
X2307Y909D01*
X2304Y909D01*
X2304Y907D01*
X2302Y907D01*
X2302Y906D01*
X2299Y906D01*
X2299Y904D01*
X2287Y904D01*
X2287Y907D01*
X2282Y907D01*
X2282Y909D01*
X2276Y909D01*
X2276Y911D01*
X2307Y911D01*
G37*
D02*
G36*
X2435Y906D02*
X2435Y904D01*
X2394Y904D01*
X2394Y906D01*
X2435Y906D01*
G37*
D02*
G36*
X2435Y906D02*
X2435Y904D01*
X2394Y904D01*
X2394Y906D01*
X2435Y906D01*
G37*
D02*
G36*
X2432Y904D02*
X2432Y897D01*
X2410Y897D01*
X2410Y896D01*
X2409Y896D01*
X2409Y893D01*
X2407Y893D01*
X2407Y891D01*
X2409Y891D01*
X2409Y881D01*
X2407Y881D01*
X2407Y870D01*
X2409Y870D01*
X2409Y866D01*
X2410Y866D01*
X2410Y863D01*
X2400Y863D01*
X2400Y865D01*
X2399Y865D01*
X2399Y868D01*
X2397Y868D01*
X2397Y876D01*
X2396Y876D01*
X2396Y878D01*
X2397Y878D01*
X2397Y893D01*
X2399Y893D01*
X2399Y902D01*
X2396Y902D01*
X2396Y904D01*
X2432Y904D01*
G37*
D02*
G36*
X2430Y897D02*
X2430Y896D01*
X2422Y896D01*
X2422Y894D01*
X2419Y894D01*
X2419Y897D01*
X2430Y897D01*
G37*
D02*
G36*
X2158Y893D02*
X2158Y891D01*
X2161Y891D01*
X2161Y889D01*
X2130Y889D01*
X2130Y891D01*
X2145Y891D01*
X2145Y893D01*
X2158Y893D01*
G37*
D02*
G36*
X2082Y891D02*
X2082Y889D01*
X2086Y889D01*
X2086Y888D01*
X2092Y888D01*
X2092Y886D01*
X2095Y886D01*
X2095Y884D01*
X2099Y884D01*
X2099Y883D01*
X2076Y883D01*
X2076Y879D01*
X2074Y879D01*
X2074Y878D01*
X2076Y878D01*
X2076Y874D01*
X2081Y874D01*
X2081Y873D01*
X2084Y873D01*
X2084Y871D01*
X2067Y871D01*
X2067Y878D01*
X2066Y878D01*
X2066Y883D01*
X2067Y883D01*
X2067Y886D01*
X2069Y886D01*
X2069Y888D01*
X2071Y888D01*
X2071Y889D01*
X2072Y889D01*
X2072Y891D01*
X2082Y891D01*
G37*
D02*
G36*
X2161Y889D02*
X2161Y888D01*
X2117Y888D01*
X2117Y889D01*
X2161Y889D01*
G37*
D02*
G36*
X2161Y889D02*
X2161Y888D01*
X2117Y888D01*
X2117Y889D01*
X2161Y889D01*
G37*
D02*
G36*
X2161Y888D02*
X2161Y884D01*
X2138Y884D01*
X2138Y883D01*
X2141Y883D01*
X2141Y881D01*
X2118Y881D01*
X2118Y886D01*
X2117Y886D01*
X2117Y888D01*
X2161Y888D01*
G37*
D02*
G36*
X2161Y884D02*
X2161Y881D01*
X2146Y881D01*
X2146Y883D01*
X2148Y883D01*
X2148Y884D01*
X2161Y884D01*
G37*
D02*
G36*
X2115Y883D02*
X2115Y881D01*
X2084Y881D01*
X2084Y883D01*
X2115Y883D01*
G37*
D02*
G36*
X2115Y883D02*
X2115Y881D01*
X2084Y881D01*
X2084Y883D01*
X2115Y883D01*
G37*
D02*
G36*
X2159Y881D02*
X2159Y879D01*
X2120Y879D01*
X2120Y881D01*
X2159Y881D01*
G37*
D02*
G36*
X2159Y881D02*
X2159Y879D01*
X2120Y879D01*
X2120Y881D01*
X2159Y881D01*
G37*
D02*
G36*
X2115Y881D02*
X2115Y871D01*
X2097Y871D01*
X2097Y874D01*
X2094Y874D01*
X2094Y876D01*
X2092Y876D01*
X2092Y878D01*
X2089Y878D01*
X2089Y879D01*
X2086Y879D01*
X2086Y881D01*
X2115Y881D01*
G37*
D02*
G36*
X2158Y879D02*
X2158Y878D01*
X2156Y878D01*
X2156Y876D01*
X2154Y876D01*
X2154Y874D01*
X2149Y874D01*
X2149Y873D01*
X2135Y873D01*
X2135Y874D01*
X2130Y874D01*
X2130Y876D01*
X2125Y876D01*
X2125Y878D01*
X2123Y878D01*
X2123Y879D01*
X2158Y879D01*
G37*
D02*
G36*
X2087Y873D02*
X2087Y871D01*
X2086Y871D01*
X2086Y873D01*
X2087Y873D01*
G37*
D02*
G36*
X2450Y871D02*
X2450Y870D01*
X2453Y870D01*
X2453Y868D01*
X2456Y868D01*
X2456Y865D01*
X2458Y865D01*
X2458Y855D01*
X2443Y855D01*
X2443Y856D01*
X2445Y856D01*
X2445Y858D01*
X2446Y858D01*
X2446Y860D01*
X2448Y860D01*
X2448Y861D01*
X2446Y861D01*
X2446Y863D01*
X2419Y863D01*
X2419Y865D01*
X2423Y865D01*
X2423Y866D01*
X2428Y866D01*
X2428Y868D01*
X2432Y868D01*
X2432Y870D01*
X2438Y870D01*
X2438Y871D01*
X2450Y871D01*
G37*
D02*
G36*
X2113Y871D02*
X2113Y870D01*
X2069Y870D01*
X2069Y871D01*
X2113Y871D01*
G37*
D02*
G36*
X2113Y871D02*
X2113Y870D01*
X2069Y870D01*
X2069Y871D01*
X2113Y871D01*
G37*
D02*
G36*
X2113Y871D02*
X2113Y870D01*
X2069Y870D01*
X2069Y871D01*
X2113Y871D01*
G37*
D02*
G36*
X2110Y870D02*
X2110Y868D01*
X2108Y868D01*
X2108Y866D01*
X2104Y866D01*
X2104Y865D01*
X2087Y865D01*
X2087Y863D01*
X2086Y863D01*
X2086Y865D01*
X2079Y865D01*
X2079Y866D01*
X2076Y866D01*
X2076Y868D01*
X2071Y868D01*
X2071Y870D01*
X2110Y870D01*
G37*
D02*
G36*
X2438Y863D02*
X2438Y861D01*
X2400Y861D01*
X2400Y863D01*
X2438Y863D01*
G37*
D02*
G36*
X2438Y863D02*
X2438Y861D01*
X2400Y861D01*
X2400Y863D01*
X2438Y863D01*
G37*
D02*
G36*
X2437Y861D02*
X2437Y860D01*
X2433Y860D01*
X2433Y858D01*
X2432Y858D01*
X2432Y856D01*
X2428Y856D01*
X2428Y855D01*
X2420Y855D01*
X2420Y853D01*
X2419Y853D01*
X2419Y852D01*
X2417Y852D01*
X2417Y850D01*
X2419Y850D01*
X2419Y848D01*
X2420Y848D01*
X2420Y847D01*
X2409Y847D01*
X2409Y848D01*
X2407Y848D01*
X2407Y850D01*
X2405Y850D01*
X2405Y852D01*
X2407Y852D01*
X2407Y853D01*
X2405Y853D01*
X2405Y855D01*
X2404Y855D01*
X2404Y858D01*
X2402Y858D01*
X2402Y860D01*
X2400Y860D01*
X2400Y861D01*
X2437Y861D01*
G37*
D02*
G36*
X2441Y856D02*
X2441Y855D01*
X2440Y855D01*
X2440Y856D01*
X2441Y856D01*
G37*
D02*
G36*
X2456Y855D02*
X2456Y853D01*
X2440Y853D01*
X2440Y855D01*
X2456Y855D01*
G37*
D02*
G36*
X2456Y855D02*
X2456Y853D01*
X2440Y853D01*
X2440Y855D01*
X2456Y855D01*
G37*
D02*
G36*
X2455Y853D02*
X2455Y852D01*
X2451Y852D01*
X2451Y850D01*
X2450Y850D01*
X2450Y848D01*
X2445Y848D01*
X2445Y847D01*
X2427Y847D01*
X2427Y848D01*
X2432Y848D01*
X2432Y850D01*
X2437Y850D01*
X2437Y852D01*
X2438Y852D01*
X2438Y853D01*
X2455Y853D01*
G37*
D02*
G36*
X2441Y847D02*
X2441Y845D01*
X2409Y845D01*
X2409Y847D01*
X2441Y847D01*
G37*
D02*
G36*
X2441Y847D02*
X2441Y845D01*
X2409Y845D01*
X2409Y847D01*
X2441Y847D01*
G37*
D02*
G36*
X2438Y845D02*
X2438Y843D01*
X2435Y843D01*
X2435Y842D01*
X2433Y842D01*
X2433Y840D01*
X2428Y840D01*
X2428Y838D01*
X2415Y838D01*
X2415Y840D01*
X2412Y840D01*
X2412Y842D01*
X2410Y842D01*
X2410Y843D01*
X2409Y843D01*
X2409Y845D01*
X2438Y845D01*
G37*
D02*
G54D10*
X0Y1181D02*
X2754Y1181D01*
X0Y1180D02*
X2754Y1180D01*
X0Y1179D02*
X2754Y1179D01*
X0Y1178D02*
X2754Y1178D01*
X0Y1177D02*
X2754Y1177D01*
X0Y1176D02*
X2754Y1176D01*
X0Y1175D02*
X2754Y1175D01*
X0Y1174D02*
X2754Y1174D01*
X0Y1173D02*
X7Y1173D01*
X2747Y1173D02*
X2754Y1173D01*
X0Y1172D02*
X7Y1172D01*
X2747Y1172D02*
X2754Y1172D01*
X0Y1171D02*
X7Y1171D01*
X2747Y1171D02*
X2754Y1171D01*
X0Y1170D02*
X7Y1170D01*
X2747Y1170D02*
X2754Y1170D01*
X0Y1169D02*
X7Y1169D01*
X2747Y1169D02*
X2754Y1169D01*
X0Y1168D02*
X7Y1168D01*
X2747Y1168D02*
X2754Y1168D01*
X0Y1167D02*
X7Y1167D01*
X2747Y1167D02*
X2754Y1167D01*
X0Y1166D02*
X7Y1166D01*
X2747Y1166D02*
X2754Y1166D01*
X0Y1165D02*
X7Y1165D01*
X2747Y1165D02*
X2754Y1165D01*
X0Y1164D02*
X7Y1164D01*
X2747Y1164D02*
X2754Y1164D01*
X0Y1163D02*
X7Y1163D01*
X2747Y1163D02*
X2754Y1163D01*
X0Y1162D02*
X7Y1162D01*
X2747Y1162D02*
X2754Y1162D01*
X0Y1161D02*
X7Y1161D01*
X2747Y1161D02*
X2754Y1161D01*
X0Y1160D02*
X7Y1160D01*
X2747Y1160D02*
X2754Y1160D01*
X0Y1159D02*
X7Y1159D01*
X2747Y1159D02*
X2754Y1159D01*
X0Y1158D02*
X7Y1158D01*
X2747Y1158D02*
X2754Y1158D01*
X0Y1157D02*
X7Y1157D01*
X2747Y1157D02*
X2754Y1157D01*
X0Y1156D02*
X7Y1156D01*
X2747Y1156D02*
X2754Y1156D01*
X0Y1155D02*
X7Y1155D01*
X2747Y1155D02*
X2754Y1155D01*
X0Y1154D02*
X7Y1154D01*
X2747Y1154D02*
X2754Y1154D01*
X0Y1153D02*
X7Y1153D01*
X2747Y1153D02*
X2754Y1153D01*
X0Y1152D02*
X7Y1152D01*
X2747Y1152D02*
X2754Y1152D01*
X0Y1151D02*
X7Y1151D01*
X2747Y1151D02*
X2754Y1151D01*
X0Y1150D02*
X7Y1150D01*
X2747Y1150D02*
X2754Y1150D01*
X0Y1149D02*
X7Y1149D01*
X2747Y1149D02*
X2754Y1149D01*
X0Y1148D02*
X7Y1148D01*
X2747Y1148D02*
X2754Y1148D01*
X0Y1147D02*
X7Y1147D01*
X2747Y1147D02*
X2754Y1147D01*
X0Y1146D02*
X7Y1146D01*
X2747Y1146D02*
X2754Y1146D01*
X0Y1145D02*
X7Y1145D01*
X2747Y1145D02*
X2754Y1145D01*
X0Y1144D02*
X7Y1144D01*
X2747Y1144D02*
X2754Y1144D01*
X0Y1143D02*
X7Y1143D01*
X2747Y1143D02*
X2754Y1143D01*
X0Y1142D02*
X7Y1142D01*
X2747Y1142D02*
X2754Y1142D01*
X0Y1141D02*
X7Y1141D01*
X2747Y1141D02*
X2754Y1141D01*
X0Y1140D02*
X7Y1140D01*
X2747Y1140D02*
X2754Y1140D01*
X0Y1139D02*
X7Y1139D01*
X2747Y1139D02*
X2754Y1139D01*
X0Y1138D02*
X7Y1138D01*
X2747Y1138D02*
X2754Y1138D01*
X0Y1137D02*
X7Y1137D01*
X2747Y1137D02*
X2754Y1137D01*
X0Y1136D02*
X7Y1136D01*
X2747Y1136D02*
X2754Y1136D01*
X0Y1135D02*
X7Y1135D01*
X2747Y1135D02*
X2754Y1135D01*
X0Y1134D02*
X7Y1134D01*
X2747Y1134D02*
X2754Y1134D01*
X0Y1133D02*
X7Y1133D01*
X2747Y1133D02*
X2754Y1133D01*
X0Y1132D02*
X7Y1132D01*
X2747Y1132D02*
X2754Y1132D01*
X0Y1131D02*
X7Y1131D01*
X2747Y1131D02*
X2754Y1131D01*
X0Y1130D02*
X7Y1130D01*
X2747Y1130D02*
X2754Y1130D01*
X0Y1129D02*
X7Y1129D01*
X2747Y1129D02*
X2754Y1129D01*
X0Y1128D02*
X7Y1128D01*
X2747Y1128D02*
X2754Y1128D01*
X0Y1127D02*
X7Y1127D01*
X2747Y1127D02*
X2754Y1127D01*
X0Y1126D02*
X7Y1126D01*
X2747Y1126D02*
X2754Y1126D01*
X0Y1125D02*
X7Y1125D01*
X2747Y1125D02*
X2754Y1125D01*
X0Y1124D02*
X7Y1124D01*
X2747Y1124D02*
X2754Y1124D01*
X0Y1123D02*
X7Y1123D01*
X2747Y1123D02*
X2754Y1123D01*
X0Y1122D02*
X7Y1122D01*
X2747Y1122D02*
X2754Y1122D01*
X0Y1121D02*
X7Y1121D01*
X303Y1121D02*
X308Y1121D01*
X1353Y1121D02*
X1359Y1121D01*
X2747Y1121D02*
X2754Y1121D01*
X0Y1120D02*
X7Y1120D01*
X302Y1120D02*
X309Y1120D01*
X1352Y1120D02*
X1360Y1120D01*
X2747Y1120D02*
X2754Y1120D01*
X0Y1119D02*
X7Y1119D01*
X214Y1119D02*
X229Y1119D01*
X301Y1119D02*
X309Y1119D01*
X338Y1119D02*
X357Y1119D01*
X382Y1119D02*
X401Y1119D01*
X425Y1119D02*
X448Y1119D01*
X467Y1119D02*
X467Y1119D01*
X519Y1119D02*
X537Y1119D01*
X554Y1119D02*
X565Y1119D01*
X603Y1119D02*
X625Y1119D01*
X841Y1119D02*
X842Y1119D01*
X910Y1119D02*
X931Y1119D01*
X948Y1119D02*
X949Y1119D01*
X1191Y1119D02*
X1192Y1119D01*
X1279Y1119D02*
X1279Y1119D01*
X1352Y1119D02*
X1360Y1119D01*
X2747Y1119D02*
X2754Y1119D01*
X0Y1118D02*
X7Y1118D01*
X214Y1118D02*
X230Y1118D01*
X301Y1118D02*
X309Y1118D01*
X336Y1118D02*
X359Y1118D01*
X380Y1118D02*
X403Y1118D01*
X423Y1118D02*
X449Y1118D01*
X465Y1118D02*
X469Y1118D01*
X515Y1118D02*
X537Y1118D01*
X553Y1118D02*
X568Y1118D01*
X601Y1118D02*
X625Y1118D01*
X839Y1118D02*
X843Y1118D01*
X907Y1118D02*
X931Y1118D01*
X947Y1118D02*
X950Y1118D01*
X1190Y1118D02*
X1193Y1118D01*
X1277Y1118D02*
X1281Y1118D01*
X1352Y1118D02*
X1360Y1118D01*
X2747Y1118D02*
X2754Y1118D01*
X0Y1117D02*
X7Y1117D01*
X214Y1117D02*
X231Y1117D01*
X301Y1117D02*
X309Y1117D01*
X335Y1117D02*
X361Y1117D01*
X378Y1117D02*
X404Y1117D01*
X422Y1117D02*
X450Y1117D01*
X465Y1117D02*
X470Y1117D01*
X514Y1117D02*
X537Y1117D01*
X552Y1117D02*
X569Y1117D01*
X599Y1117D02*
X625Y1117D01*
X839Y1117D02*
X844Y1117D01*
X906Y1117D02*
X931Y1117D01*
X946Y1117D02*
X951Y1117D01*
X1189Y1117D02*
X1194Y1117D01*
X1277Y1117D02*
X1281Y1117D01*
X1352Y1117D02*
X1360Y1117D01*
X2747Y1117D02*
X2754Y1117D01*
X0Y1116D02*
X7Y1116D01*
X214Y1116D02*
X231Y1116D01*
X301Y1116D02*
X309Y1116D01*
X334Y1116D02*
X361Y1116D01*
X378Y1116D02*
X405Y1116D01*
X422Y1116D02*
X450Y1116D01*
X464Y1116D02*
X470Y1116D01*
X512Y1116D02*
X537Y1116D01*
X552Y1116D02*
X570Y1116D01*
X598Y1116D02*
X625Y1116D01*
X839Y1116D02*
X844Y1116D01*
X904Y1116D02*
X931Y1116D01*
X946Y1116D02*
X952Y1116D01*
X1189Y1116D02*
X1194Y1116D01*
X1276Y1116D02*
X1281Y1116D01*
X1315Y1116D02*
X1318Y1116D01*
X1352Y1116D02*
X1360Y1116D01*
X2747Y1116D02*
X2754Y1116D01*
X0Y1115D02*
X7Y1115D01*
X214Y1115D02*
X231Y1115D01*
X302Y1115D02*
X309Y1115D01*
X333Y1115D02*
X362Y1115D01*
X377Y1115D02*
X406Y1115D01*
X421Y1115D02*
X450Y1115D01*
X465Y1115D02*
X471Y1115D01*
X511Y1115D02*
X537Y1115D01*
X552Y1115D02*
X571Y1115D01*
X597Y1115D02*
X625Y1115D01*
X839Y1115D02*
X844Y1115D01*
X904Y1115D02*
X931Y1115D01*
X946Y1115D02*
X952Y1115D01*
X1189Y1115D02*
X1194Y1115D01*
X1276Y1115D02*
X1282Y1115D01*
X1315Y1115D02*
X1319Y1115D01*
X1352Y1115D02*
X1360Y1115D01*
X2747Y1115D02*
X2754Y1115D01*
X0Y1114D02*
X7Y1114D01*
X214Y1114D02*
X230Y1114D01*
X302Y1114D02*
X309Y1114D01*
X333Y1114D02*
X362Y1114D01*
X377Y1114D02*
X406Y1114D01*
X421Y1114D02*
X449Y1114D01*
X465Y1114D02*
X471Y1114D01*
X511Y1114D02*
X537Y1114D01*
X553Y1114D02*
X572Y1114D01*
X597Y1114D02*
X625Y1114D01*
X839Y1114D02*
X844Y1114D01*
X903Y1114D02*
X931Y1114D01*
X947Y1114D02*
X953Y1114D01*
X1189Y1114D02*
X1194Y1114D01*
X1276Y1114D02*
X1282Y1114D01*
X1314Y1114D02*
X1319Y1114D01*
X1353Y1114D02*
X1359Y1114D01*
X2747Y1114D02*
X2754Y1114D01*
X0Y1113D02*
X7Y1113D01*
X214Y1113D02*
X219Y1113D01*
X333Y1113D02*
X339Y1113D01*
X357Y1113D02*
X362Y1113D01*
X377Y1113D02*
X382Y1113D01*
X400Y1113D02*
X406Y1113D01*
X421Y1113D02*
X426Y1113D01*
X466Y1113D02*
X472Y1113D01*
X510Y1113D02*
X519Y1113D01*
X532Y1113D02*
X537Y1113D01*
X564Y1113D02*
X572Y1113D01*
X596Y1113D02*
X604Y1113D01*
X619Y1113D02*
X625Y1113D01*
X839Y1113D02*
X844Y1113D01*
X903Y1113D02*
X910Y1113D01*
X926Y1113D02*
X931Y1113D01*
X947Y1113D02*
X953Y1113D01*
X1189Y1113D02*
X1194Y1113D01*
X1276Y1113D02*
X1282Y1113D01*
X1314Y1113D02*
X1319Y1113D01*
X2747Y1113D02*
X2754Y1113D01*
X0Y1112D02*
X7Y1112D01*
X214Y1112D02*
X219Y1112D01*
X333Y1112D02*
X338Y1112D01*
X357Y1112D02*
X362Y1112D01*
X377Y1112D02*
X382Y1112D01*
X401Y1112D02*
X406Y1112D01*
X421Y1112D02*
X426Y1112D01*
X466Y1112D02*
X472Y1112D01*
X509Y1112D02*
X516Y1112D01*
X532Y1112D02*
X537Y1112D01*
X566Y1112D02*
X573Y1112D01*
X596Y1112D02*
X602Y1112D01*
X620Y1112D02*
X625Y1112D01*
X839Y1112D02*
X844Y1112D01*
X902Y1112D02*
X908Y1112D01*
X926Y1112D02*
X931Y1112D01*
X948Y1112D02*
X954Y1112D01*
X1189Y1112D02*
X1194Y1112D01*
X1276Y1112D02*
X1282Y1112D01*
X1314Y1112D02*
X1319Y1112D01*
X2747Y1112D02*
X2754Y1112D01*
X0Y1111D02*
X7Y1111D01*
X214Y1111D02*
X219Y1111D01*
X333Y1111D02*
X338Y1111D01*
X357Y1111D02*
X362Y1111D01*
X377Y1111D02*
X382Y1111D01*
X401Y1111D02*
X406Y1111D01*
X421Y1111D02*
X426Y1111D01*
X467Y1111D02*
X473Y1111D01*
X509Y1111D02*
X515Y1111D01*
X532Y1111D02*
X537Y1111D01*
X567Y1111D02*
X574Y1111D01*
X596Y1111D02*
X601Y1111D01*
X620Y1111D02*
X625Y1111D01*
X839Y1111D02*
X844Y1111D01*
X902Y1111D02*
X907Y1111D01*
X926Y1111D02*
X931Y1111D01*
X948Y1111D02*
X955Y1111D01*
X1189Y1111D02*
X1194Y1111D01*
X1276Y1111D02*
X1282Y1111D01*
X1314Y1111D02*
X1319Y1111D01*
X2747Y1111D02*
X2754Y1111D01*
X0Y1110D02*
X7Y1110D01*
X214Y1110D02*
X219Y1110D01*
X333Y1110D02*
X338Y1110D01*
X357Y1110D02*
X362Y1110D01*
X377Y1110D02*
X382Y1110D01*
X401Y1110D02*
X406Y1110D01*
X421Y1110D02*
X426Y1110D01*
X467Y1110D02*
X474Y1110D01*
X509Y1110D02*
X514Y1110D01*
X532Y1110D02*
X537Y1110D01*
X568Y1110D02*
X575Y1110D01*
X596Y1110D02*
X601Y1110D01*
X620Y1110D02*
X625Y1110D01*
X839Y1110D02*
X844Y1110D01*
X902Y1110D02*
X907Y1110D01*
X926Y1110D02*
X931Y1110D01*
X949Y1110D02*
X955Y1110D01*
X1189Y1110D02*
X1194Y1110D01*
X1276Y1110D02*
X1282Y1110D01*
X1314Y1110D02*
X1319Y1110D01*
X2747Y1110D02*
X2754Y1110D01*
X0Y1109D02*
X7Y1109D01*
X214Y1109D02*
X219Y1109D01*
X333Y1109D02*
X338Y1109D01*
X357Y1109D02*
X362Y1109D01*
X377Y1109D02*
X382Y1109D01*
X401Y1109D02*
X406Y1109D01*
X421Y1109D02*
X426Y1109D01*
X468Y1109D02*
X474Y1109D01*
X508Y1109D02*
X514Y1109D01*
X532Y1109D02*
X537Y1109D01*
X569Y1109D02*
X575Y1109D01*
X596Y1109D02*
X601Y1109D01*
X620Y1109D02*
X625Y1109D01*
X839Y1109D02*
X844Y1109D01*
X902Y1109D02*
X907Y1109D01*
X926Y1109D02*
X931Y1109D01*
X950Y1109D02*
X956Y1109D01*
X1189Y1109D02*
X1194Y1109D01*
X1276Y1109D02*
X1282Y1109D01*
X1314Y1109D02*
X1319Y1109D01*
X2747Y1109D02*
X2754Y1109D01*
X0Y1108D02*
X7Y1108D01*
X214Y1108D02*
X219Y1108D01*
X333Y1108D02*
X338Y1108D01*
X357Y1108D02*
X362Y1108D01*
X377Y1108D02*
X382Y1108D01*
X401Y1108D02*
X406Y1108D01*
X421Y1108D02*
X426Y1108D01*
X469Y1108D02*
X475Y1108D01*
X508Y1108D02*
X513Y1108D01*
X532Y1108D02*
X537Y1108D01*
X569Y1108D02*
X576Y1108D01*
X596Y1108D02*
X601Y1108D01*
X620Y1108D02*
X625Y1108D01*
X839Y1108D02*
X844Y1108D01*
X902Y1108D02*
X907Y1108D01*
X926Y1108D02*
X931Y1108D01*
X950Y1108D02*
X956Y1108D01*
X1189Y1108D02*
X1194Y1108D01*
X1276Y1108D02*
X1282Y1108D01*
X1314Y1108D02*
X1319Y1108D01*
X2747Y1108D02*
X2754Y1108D01*
X0Y1107D02*
X7Y1107D01*
X214Y1107D02*
X219Y1107D01*
X333Y1107D02*
X338Y1107D01*
X357Y1107D02*
X362Y1107D01*
X377Y1107D02*
X382Y1107D01*
X401Y1107D02*
X406Y1107D01*
X421Y1107D02*
X426Y1107D01*
X469Y1107D02*
X475Y1107D01*
X508Y1107D02*
X513Y1107D01*
X532Y1107D02*
X537Y1107D01*
X570Y1107D02*
X577Y1107D01*
X596Y1107D02*
X601Y1107D01*
X620Y1107D02*
X625Y1107D01*
X839Y1107D02*
X844Y1107D01*
X902Y1107D02*
X907Y1107D01*
X926Y1107D02*
X931Y1107D01*
X951Y1107D02*
X957Y1107D01*
X1189Y1107D02*
X1194Y1107D01*
X1276Y1107D02*
X1282Y1107D01*
X1314Y1107D02*
X1319Y1107D01*
X2747Y1107D02*
X2754Y1107D01*
X0Y1106D02*
X7Y1106D01*
X214Y1106D02*
X219Y1106D01*
X253Y1106D02*
X260Y1106D01*
X271Y1106D02*
X273Y1106D01*
X303Y1106D02*
X314Y1106D01*
X333Y1106D02*
X338Y1106D01*
X357Y1106D02*
X362Y1106D01*
X377Y1106D02*
X382Y1106D01*
X401Y1106D02*
X406Y1106D01*
X421Y1106D02*
X426Y1106D01*
X470Y1106D02*
X476Y1106D01*
X508Y1106D02*
X513Y1106D01*
X532Y1106D02*
X537Y1106D01*
X571Y1106D02*
X578Y1106D01*
X596Y1106D02*
X601Y1106D01*
X620Y1106D02*
X625Y1106D01*
X647Y1106D02*
X661Y1106D01*
X685Y1106D02*
X700Y1106D01*
X729Y1106D02*
X744Y1106D01*
X780Y1106D02*
X791Y1106D01*
X824Y1106D02*
X832Y1106D01*
X839Y1106D02*
X844Y1106D01*
X867Y1106D02*
X879Y1106D01*
X902Y1106D02*
X907Y1106D01*
X926Y1106D02*
X931Y1106D01*
X951Y1106D02*
X957Y1106D01*
X996Y1106D02*
X997Y1106D01*
X1007Y1106D02*
X1010Y1106D01*
X1016Y1106D02*
X1018Y1106D01*
X1042Y1106D02*
X1054Y1106D01*
X1079Y1106D02*
X1094Y1106D01*
X1174Y1106D02*
X1182Y1106D01*
X1189Y1106D02*
X1194Y1106D01*
X1210Y1106D02*
X1212Y1106D01*
X1234Y1106D02*
X1236Y1106D01*
X1260Y1106D02*
X1267Y1106D01*
X1276Y1106D02*
X1282Y1106D01*
X1301Y1106D02*
X1323Y1106D01*
X1354Y1106D02*
X1364Y1106D01*
X1385Y1106D02*
X1387Y1106D01*
X1396Y1106D02*
X1404Y1106D01*
X2747Y1106D02*
X2754Y1106D01*
X0Y1105D02*
X7Y1105D01*
X214Y1105D02*
X219Y1105D01*
X251Y1105D02*
X262Y1105D01*
X270Y1105D02*
X274Y1105D01*
X302Y1105D02*
X315Y1105D01*
X333Y1105D02*
X338Y1105D01*
X357Y1105D02*
X362Y1105D01*
X377Y1105D02*
X382Y1105D01*
X401Y1105D02*
X406Y1105D01*
X421Y1105D02*
X426Y1105D01*
X470Y1105D02*
X477Y1105D01*
X508Y1105D02*
X513Y1105D01*
X532Y1105D02*
X537Y1105D01*
X572Y1105D02*
X579Y1105D01*
X596Y1105D02*
X602Y1105D01*
X620Y1105D02*
X625Y1105D01*
X645Y1105D02*
X662Y1105D01*
X684Y1105D02*
X703Y1105D01*
X728Y1105D02*
X747Y1105D01*
X777Y1105D02*
X793Y1105D01*
X821Y1105D02*
X834Y1105D01*
X839Y1105D02*
X844Y1105D01*
X865Y1105D02*
X881Y1105D01*
X902Y1105D02*
X908Y1105D01*
X926Y1105D02*
X931Y1105D01*
X952Y1105D02*
X958Y1105D01*
X994Y1105D02*
X1000Y1105D01*
X1005Y1105D02*
X1012Y1105D01*
X1015Y1105D02*
X1019Y1105D01*
X1040Y1105D02*
X1056Y1105D01*
X1078Y1105D02*
X1097Y1105D01*
X1171Y1105D02*
X1184Y1105D01*
X1189Y1105D02*
X1194Y1105D01*
X1209Y1105D02*
X1213Y1105D01*
X1233Y1105D02*
X1237Y1105D01*
X1258Y1105D02*
X1269Y1105D01*
X1276Y1105D02*
X1282Y1105D01*
X1300Y1105D02*
X1325Y1105D01*
X1353Y1105D02*
X1365Y1105D01*
X1384Y1105D02*
X1388Y1105D01*
X1393Y1105D02*
X1406Y1105D01*
X2747Y1105D02*
X2754Y1105D01*
X0Y1104D02*
X7Y1104D01*
X214Y1104D02*
X219Y1104D01*
X249Y1104D02*
X264Y1104D01*
X270Y1104D02*
X275Y1104D01*
X301Y1104D02*
X315Y1104D01*
X333Y1104D02*
X338Y1104D01*
X357Y1104D02*
X362Y1104D01*
X377Y1104D02*
X382Y1104D01*
X401Y1104D02*
X406Y1104D01*
X421Y1104D02*
X426Y1104D01*
X471Y1104D02*
X477Y1104D01*
X508Y1104D02*
X513Y1104D01*
X532Y1104D02*
X537Y1104D01*
X573Y1104D02*
X579Y1104D01*
X596Y1104D02*
X603Y1104D01*
X620Y1104D02*
X625Y1104D01*
X643Y1104D02*
X662Y1104D01*
X683Y1104D02*
X704Y1104D01*
X727Y1104D02*
X748Y1104D01*
X776Y1104D02*
X795Y1104D01*
X820Y1104D02*
X836Y1104D01*
X839Y1104D02*
X844Y1104D01*
X864Y1104D02*
X882Y1104D01*
X903Y1104D02*
X909Y1104D01*
X926Y1104D02*
X931Y1104D01*
X953Y1104D02*
X959Y1104D01*
X992Y1104D02*
X1002Y1104D01*
X1004Y1104D02*
X1019Y1104D01*
X1039Y1104D02*
X1057Y1104D01*
X1077Y1104D02*
X1098Y1104D01*
X1170Y1104D02*
X1186Y1104D01*
X1189Y1104D02*
X1194Y1104D01*
X1209Y1104D02*
X1214Y1104D01*
X1233Y1104D02*
X1238Y1104D01*
X1256Y1104D02*
X1271Y1104D01*
X1276Y1104D02*
X1282Y1104D01*
X1299Y1104D02*
X1325Y1104D01*
X1352Y1104D02*
X1366Y1104D01*
X1384Y1104D02*
X1389Y1104D01*
X1392Y1104D02*
X1408Y1104D01*
X2747Y1104D02*
X2754Y1104D01*
X0Y1103D02*
X7Y1103D01*
X214Y1103D02*
X219Y1103D01*
X248Y1103D02*
X266Y1103D01*
X270Y1103D02*
X275Y1103D01*
X301Y1103D02*
X315Y1103D01*
X333Y1103D02*
X338Y1103D01*
X357Y1103D02*
X362Y1103D01*
X377Y1103D02*
X382Y1103D01*
X401Y1103D02*
X406Y1103D01*
X421Y1103D02*
X426Y1103D01*
X472Y1103D02*
X478Y1103D01*
X508Y1103D02*
X514Y1103D01*
X532Y1103D02*
X537Y1103D01*
X573Y1103D02*
X580Y1103D01*
X597Y1103D02*
X625Y1103D01*
X642Y1103D02*
X663Y1103D01*
X683Y1103D02*
X706Y1103D01*
X727Y1103D02*
X749Y1103D01*
X775Y1103D02*
X796Y1103D01*
X819Y1103D02*
X844Y1103D01*
X862Y1103D02*
X883Y1103D01*
X903Y1103D02*
X931Y1103D01*
X953Y1103D02*
X959Y1103D01*
X991Y1103D02*
X1019Y1103D01*
X1038Y1103D02*
X1059Y1103D01*
X1077Y1103D02*
X1100Y1103D01*
X1169Y1103D02*
X1187Y1103D01*
X1189Y1103D02*
X1194Y1103D01*
X1209Y1103D02*
X1214Y1103D01*
X1233Y1103D02*
X1238Y1103D01*
X1255Y1103D02*
X1273Y1103D01*
X1276Y1103D02*
X1282Y1103D01*
X1299Y1103D02*
X1325Y1103D01*
X1352Y1103D02*
X1366Y1103D01*
X1384Y1103D02*
X1389Y1103D01*
X1391Y1103D02*
X1409Y1103D01*
X2747Y1103D02*
X2754Y1103D01*
X0Y1102D02*
X7Y1102D01*
X214Y1102D02*
X219Y1102D01*
X248Y1102D02*
X267Y1102D01*
X270Y1102D02*
X275Y1102D01*
X301Y1102D02*
X315Y1102D01*
X333Y1102D02*
X338Y1102D01*
X357Y1102D02*
X362Y1102D01*
X377Y1102D02*
X382Y1102D01*
X401Y1102D02*
X406Y1102D01*
X421Y1102D02*
X426Y1102D01*
X472Y1102D02*
X478Y1102D01*
X508Y1102D02*
X514Y1102D01*
X532Y1102D02*
X537Y1102D01*
X574Y1102D02*
X580Y1102D01*
X597Y1102D02*
X625Y1102D01*
X642Y1102D02*
X662Y1102D01*
X684Y1102D02*
X707Y1102D01*
X727Y1102D02*
X750Y1102D01*
X774Y1102D02*
X797Y1102D01*
X818Y1102D02*
X844Y1102D01*
X861Y1102D02*
X885Y1102D01*
X904Y1102D02*
X931Y1102D01*
X954Y1102D02*
X960Y1102D01*
X991Y1102D02*
X1019Y1102D01*
X1036Y1102D02*
X1060Y1102D01*
X1078Y1102D02*
X1101Y1102D01*
X1168Y1102D02*
X1194Y1102D01*
X1209Y1102D02*
X1214Y1102D01*
X1233Y1102D02*
X1238Y1102D01*
X1254Y1102D02*
X1274Y1102D01*
X1276Y1102D02*
X1282Y1102D01*
X1300Y1102D02*
X1325Y1102D01*
X1352Y1102D02*
X1366Y1102D01*
X1384Y1102D02*
X1410Y1102D01*
X2747Y1102D02*
X2754Y1102D01*
X0Y1101D02*
X7Y1101D01*
X214Y1101D02*
X219Y1101D01*
X247Y1101D02*
X275Y1101D01*
X301Y1101D02*
X314Y1101D01*
X333Y1101D02*
X338Y1101D01*
X357Y1101D02*
X362Y1101D01*
X377Y1101D02*
X382Y1101D01*
X401Y1101D02*
X406Y1101D01*
X421Y1101D02*
X426Y1101D01*
X473Y1101D02*
X479Y1101D01*
X509Y1101D02*
X515Y1101D01*
X532Y1101D02*
X537Y1101D01*
X575Y1101D02*
X581Y1101D01*
X598Y1101D02*
X625Y1101D01*
X641Y1101D02*
X662Y1101D01*
X684Y1101D02*
X708Y1101D01*
X728Y1101D02*
X752Y1101D01*
X773Y1101D02*
X798Y1101D01*
X817Y1101D02*
X844Y1101D01*
X860Y1101D02*
X885Y1101D01*
X904Y1101D02*
X931Y1101D01*
X954Y1101D02*
X960Y1101D01*
X990Y1101D02*
X1019Y1101D01*
X1035Y1101D02*
X1060Y1101D01*
X1078Y1101D02*
X1102Y1101D01*
X1167Y1101D02*
X1194Y1101D01*
X1209Y1101D02*
X1214Y1101D01*
X1233Y1101D02*
X1238Y1101D01*
X1254Y1101D02*
X1282Y1101D01*
X1300Y1101D02*
X1324Y1101D01*
X1352Y1101D02*
X1365Y1101D01*
X1384Y1101D02*
X1411Y1101D01*
X2747Y1101D02*
X2754Y1101D01*
X0Y1100D02*
X7Y1100D01*
X214Y1100D02*
X219Y1100D01*
X247Y1100D02*
X253Y1100D01*
X260Y1100D02*
X275Y1100D01*
X301Y1100D02*
X307Y1100D01*
X333Y1100D02*
X338Y1100D01*
X357Y1100D02*
X362Y1100D01*
X377Y1100D02*
X382Y1100D01*
X401Y1100D02*
X406Y1100D01*
X421Y1100D02*
X426Y1100D01*
X473Y1100D02*
X479Y1100D01*
X509Y1100D02*
X516Y1100D01*
X532Y1100D02*
X537Y1100D01*
X575Y1100D02*
X581Y1100D01*
X599Y1100D02*
X625Y1100D01*
X641Y1100D02*
X647Y1100D01*
X700Y1100D02*
X709Y1100D01*
X744Y1100D02*
X753Y1100D01*
X772Y1100D02*
X780Y1100D01*
X791Y1100D02*
X799Y1100D01*
X816Y1100D02*
X824Y1100D01*
X831Y1100D02*
X844Y1100D01*
X860Y1100D02*
X868Y1100D01*
X878Y1100D02*
X886Y1100D01*
X905Y1100D02*
X931Y1100D01*
X955Y1100D02*
X961Y1100D01*
X990Y1100D02*
X996Y1100D01*
X998Y1100D02*
X1008Y1100D01*
X1010Y1100D02*
X1019Y1100D01*
X1035Y1100D02*
X1043Y1100D01*
X1053Y1100D02*
X1061Y1100D01*
X1094Y1100D02*
X1103Y1100D01*
X1166Y1100D02*
X1174Y1100D01*
X1182Y1100D02*
X1194Y1100D01*
X1209Y1100D02*
X1214Y1100D01*
X1233Y1100D02*
X1238Y1100D01*
X1254Y1100D02*
X1260Y1100D01*
X1267Y1100D02*
X1282Y1100D01*
X1314Y1100D02*
X1319Y1100D01*
X1352Y1100D02*
X1357Y1100D01*
X1384Y1100D02*
X1396Y1100D01*
X1404Y1100D02*
X1412Y1100D01*
X2747Y1100D02*
X2754Y1100D01*
X0Y1099D02*
X7Y1099D01*
X214Y1099D02*
X219Y1099D01*
X246Y1099D02*
X252Y1099D01*
X262Y1099D02*
X275Y1099D01*
X301Y1099D02*
X306Y1099D01*
X333Y1099D02*
X338Y1099D01*
X357Y1099D02*
X362Y1099D01*
X377Y1099D02*
X382Y1099D01*
X401Y1099D02*
X406Y1099D01*
X421Y1099D02*
X426Y1099D01*
X474Y1099D02*
X480Y1099D01*
X510Y1099D02*
X517Y1099D01*
X532Y1099D02*
X537Y1099D01*
X576Y1099D02*
X581Y1099D01*
X600Y1099D02*
X625Y1099D01*
X640Y1099D02*
X646Y1099D01*
X702Y1099D02*
X710Y1099D01*
X745Y1099D02*
X754Y1099D01*
X772Y1099D02*
X778Y1099D01*
X792Y1099D02*
X799Y1099D01*
X815Y1099D02*
X822Y1099D01*
X833Y1099D02*
X844Y1099D01*
X859Y1099D02*
X866Y1099D01*
X880Y1099D02*
X887Y1099D01*
X907Y1099D02*
X931Y1099D01*
X955Y1099D02*
X962Y1099D01*
X990Y1099D02*
X995Y1099D01*
X999Y1099D02*
X1007Y1099D01*
X1011Y1099D02*
X1019Y1099D01*
X1034Y1099D02*
X1041Y1099D01*
X1055Y1099D02*
X1062Y1099D01*
X1096Y1099D02*
X1104Y1099D01*
X1166Y1099D02*
X1173Y1099D01*
X1183Y1099D02*
X1194Y1099D01*
X1209Y1099D02*
X1214Y1099D01*
X1233Y1099D02*
X1238Y1099D01*
X1253Y1099D02*
X1259Y1099D01*
X1268Y1099D02*
X1282Y1099D01*
X1314Y1099D02*
X1319Y1099D01*
X1352Y1099D02*
X1357Y1099D01*
X1384Y1099D02*
X1395Y1099D01*
X1405Y1099D02*
X1412Y1099D01*
X2747Y1099D02*
X2754Y1099D01*
X0Y1098D02*
X7Y1098D01*
X214Y1098D02*
X219Y1098D01*
X246Y1098D02*
X252Y1098D01*
X263Y1098D02*
X275Y1098D01*
X301Y1098D02*
X306Y1098D01*
X333Y1098D02*
X338Y1098D01*
X357Y1098D02*
X362Y1098D01*
X377Y1098D02*
X382Y1098D01*
X401Y1098D02*
X406Y1098D01*
X421Y1098D02*
X446Y1098D01*
X474Y1098D02*
X481Y1098D01*
X510Y1098D02*
X537Y1098D01*
X576Y1098D02*
X581Y1098D01*
X602Y1098D02*
X625Y1098D01*
X640Y1098D02*
X646Y1098D01*
X703Y1098D02*
X711Y1098D01*
X747Y1098D02*
X755Y1098D01*
X771Y1098D02*
X777Y1098D01*
X793Y1098D02*
X799Y1098D01*
X815Y1098D02*
X821Y1098D01*
X834Y1098D02*
X844Y1098D01*
X859Y1098D02*
X865Y1098D01*
X881Y1098D02*
X887Y1098D01*
X909Y1098D02*
X931Y1098D01*
X956Y1098D02*
X962Y1098D01*
X990Y1098D02*
X995Y1098D01*
X1000Y1098D02*
X1007Y1098D01*
X1012Y1098D02*
X1019Y1098D01*
X1034Y1098D02*
X1040Y1098D01*
X1056Y1098D02*
X1062Y1098D01*
X1097Y1098D02*
X1105Y1098D01*
X1165Y1098D02*
X1171Y1098D01*
X1184Y1098D02*
X1194Y1098D01*
X1209Y1098D02*
X1214Y1098D01*
X1232Y1098D02*
X1238Y1098D01*
X1253Y1098D02*
X1258Y1098D01*
X1270Y1098D02*
X1282Y1098D01*
X1314Y1098D02*
X1319Y1098D01*
X1352Y1098D02*
X1357Y1098D01*
X1384Y1098D02*
X1393Y1098D01*
X1406Y1098D02*
X1412Y1098D01*
X2747Y1098D02*
X2754Y1098D01*
X0Y1097D02*
X7Y1097D01*
X214Y1097D02*
X219Y1097D01*
X246Y1097D02*
X251Y1097D01*
X265Y1097D02*
X275Y1097D01*
X301Y1097D02*
X306Y1097D01*
X333Y1097D02*
X338Y1097D01*
X357Y1097D02*
X362Y1097D01*
X377Y1097D02*
X382Y1097D01*
X401Y1097D02*
X406Y1097D01*
X421Y1097D02*
X448Y1097D01*
X475Y1097D02*
X481Y1097D01*
X511Y1097D02*
X537Y1097D01*
X576Y1097D02*
X581Y1097D01*
X608Y1097D02*
X614Y1097D01*
X620Y1097D02*
X625Y1097D01*
X640Y1097D02*
X645Y1097D01*
X704Y1097D02*
X711Y1097D01*
X748Y1097D02*
X755Y1097D01*
X771Y1097D02*
X776Y1097D01*
X794Y1097D02*
X800Y1097D01*
X815Y1097D02*
X820Y1097D01*
X835Y1097D02*
X844Y1097D01*
X859Y1097D02*
X864Y1097D01*
X882Y1097D02*
X887Y1097D01*
X914Y1097D02*
X921Y1097D01*
X926Y1097D02*
X931Y1097D01*
X957Y1097D02*
X963Y1097D01*
X990Y1097D02*
X995Y1097D01*
X1001Y1097D02*
X1007Y1097D01*
X1013Y1097D02*
X1019Y1097D01*
X1034Y1097D02*
X1039Y1097D01*
X1057Y1097D02*
X1062Y1097D01*
X1098Y1097D02*
X1105Y1097D01*
X1165Y1097D02*
X1171Y1097D01*
X1185Y1097D02*
X1194Y1097D01*
X1209Y1097D02*
X1214Y1097D01*
X1232Y1097D02*
X1238Y1097D01*
X1253Y1097D02*
X1258Y1097D01*
X1271Y1097D02*
X1282Y1097D01*
X1314Y1097D02*
X1319Y1097D01*
X1352Y1097D02*
X1357Y1097D01*
X1384Y1097D02*
X1392Y1097D01*
X1407Y1097D02*
X1413Y1097D01*
X2747Y1097D02*
X2754Y1097D01*
X0Y1096D02*
X7Y1096D01*
X214Y1096D02*
X219Y1096D01*
X246Y1096D02*
X251Y1096D01*
X266Y1096D02*
X275Y1096D01*
X301Y1096D02*
X306Y1096D01*
X333Y1096D02*
X338Y1096D01*
X357Y1096D02*
X362Y1096D01*
X377Y1096D02*
X382Y1096D01*
X401Y1096D02*
X406Y1096D01*
X421Y1096D02*
X448Y1096D01*
X476Y1096D02*
X482Y1096D01*
X512Y1096D02*
X537Y1096D01*
X576Y1096D02*
X581Y1096D01*
X607Y1096D02*
X614Y1096D01*
X620Y1096D02*
X625Y1096D01*
X640Y1096D02*
X645Y1096D01*
X705Y1096D02*
X712Y1096D01*
X749Y1096D02*
X756Y1096D01*
X771Y1096D02*
X776Y1096D01*
X795Y1096D02*
X800Y1096D01*
X815Y1096D02*
X820Y1096D01*
X836Y1096D02*
X844Y1096D01*
X858Y1096D02*
X864Y1096D01*
X882Y1096D02*
X887Y1096D01*
X914Y1096D02*
X920Y1096D01*
X926Y1096D02*
X931Y1096D01*
X957Y1096D02*
X963Y1096D01*
X990Y1096D02*
X995Y1096D01*
X1002Y1096D02*
X1007Y1096D01*
X1014Y1096D02*
X1019Y1096D01*
X1034Y1096D02*
X1039Y1096D01*
X1057Y1096D02*
X1063Y1096D01*
X1099Y1096D02*
X1106Y1096D01*
X1165Y1096D02*
X1170Y1096D01*
X1187Y1096D02*
X1194Y1096D01*
X1209Y1096D02*
X1214Y1096D01*
X1232Y1096D02*
X1237Y1096D01*
X1253Y1096D02*
X1258Y1096D01*
X1273Y1096D02*
X1282Y1096D01*
X1314Y1096D02*
X1319Y1096D01*
X1352Y1096D02*
X1357Y1096D01*
X1384Y1096D02*
X1391Y1096D01*
X1408Y1096D02*
X1413Y1096D01*
X2747Y1096D02*
X2754Y1096D01*
X0Y1095D02*
X7Y1095D01*
X214Y1095D02*
X219Y1095D01*
X246Y1095D02*
X251Y1095D01*
X268Y1095D02*
X275Y1095D01*
X301Y1095D02*
X306Y1095D01*
X333Y1095D02*
X338Y1095D01*
X357Y1095D02*
X362Y1095D01*
X377Y1095D02*
X382Y1095D01*
X401Y1095D02*
X406Y1095D01*
X422Y1095D02*
X449Y1095D01*
X476Y1095D02*
X482Y1095D01*
X512Y1095D02*
X537Y1095D01*
X576Y1095D02*
X581Y1095D01*
X607Y1095D02*
X613Y1095D01*
X620Y1095D02*
X625Y1095D01*
X640Y1095D02*
X645Y1095D01*
X706Y1095D02*
X712Y1095D01*
X750Y1095D02*
X756Y1095D01*
X771Y1095D02*
X776Y1095D01*
X795Y1095D02*
X800Y1095D01*
X815Y1095D02*
X820Y1095D01*
X838Y1095D02*
X844Y1095D01*
X858Y1095D02*
X863Y1095D01*
X882Y1095D02*
X888Y1095D01*
X913Y1095D02*
X919Y1095D01*
X926Y1095D02*
X931Y1095D01*
X958Y1095D02*
X964Y1095D01*
X990Y1095D02*
X995Y1095D01*
X1002Y1095D02*
X1007Y1095D01*
X1014Y1095D02*
X1019Y1095D01*
X1033Y1095D02*
X1039Y1095D01*
X1057Y1095D02*
X1063Y1095D01*
X1100Y1095D02*
X1106Y1095D01*
X1165Y1095D02*
X1170Y1095D01*
X1188Y1095D02*
X1194Y1095D01*
X1209Y1095D02*
X1214Y1095D01*
X1232Y1095D02*
X1237Y1095D01*
X1253Y1095D02*
X1258Y1095D01*
X1275Y1095D02*
X1282Y1095D01*
X1314Y1095D02*
X1319Y1095D01*
X1352Y1095D02*
X1357Y1095D01*
X1384Y1095D02*
X1390Y1095D01*
X1408Y1095D02*
X1413Y1095D01*
X2747Y1095D02*
X2754Y1095D01*
X0Y1094D02*
X7Y1094D01*
X214Y1094D02*
X219Y1094D01*
X246Y1094D02*
X251Y1094D01*
X269Y1094D02*
X275Y1094D01*
X301Y1094D02*
X306Y1094D01*
X333Y1094D02*
X338Y1094D01*
X357Y1094D02*
X362Y1094D01*
X377Y1094D02*
X382Y1094D01*
X401Y1094D02*
X406Y1094D01*
X423Y1094D02*
X450Y1094D01*
X477Y1094D02*
X483Y1094D01*
X511Y1094D02*
X537Y1094D01*
X576Y1094D02*
X581Y1094D01*
X606Y1094D02*
X612Y1094D01*
X620Y1094D02*
X625Y1094D01*
X640Y1094D02*
X645Y1094D01*
X707Y1094D02*
X712Y1094D01*
X751Y1094D02*
X756Y1094D01*
X771Y1094D02*
X776Y1094D01*
X795Y1094D02*
X800Y1094D01*
X815Y1094D02*
X820Y1094D01*
X838Y1094D02*
X844Y1094D01*
X858Y1094D02*
X863Y1094D01*
X882Y1094D02*
X888Y1094D01*
X913Y1094D02*
X919Y1094D01*
X926Y1094D02*
X931Y1094D01*
X958Y1094D02*
X964Y1094D01*
X990Y1094D02*
X995Y1094D01*
X1002Y1094D02*
X1007Y1094D01*
X1014Y1094D02*
X1019Y1094D01*
X1033Y1094D02*
X1039Y1094D01*
X1057Y1094D02*
X1063Y1094D01*
X1101Y1094D02*
X1106Y1094D01*
X1165Y1094D02*
X1170Y1094D01*
X1189Y1094D02*
X1194Y1094D01*
X1209Y1094D02*
X1214Y1094D01*
X1232Y1094D02*
X1237Y1094D01*
X1253Y1094D02*
X1258Y1094D01*
X1276Y1094D02*
X1282Y1094D01*
X1314Y1094D02*
X1319Y1094D01*
X1352Y1094D02*
X1357Y1094D01*
X1384Y1094D02*
X1389Y1094D01*
X1408Y1094D02*
X1413Y1094D01*
X2747Y1094D02*
X2754Y1094D01*
X0Y1093D02*
X7Y1093D01*
X203Y1093D02*
X205Y1093D01*
X214Y1093D02*
X219Y1093D01*
X246Y1093D02*
X251Y1093D01*
X270Y1093D02*
X275Y1093D01*
X301Y1093D02*
X306Y1093D01*
X333Y1093D02*
X338Y1093D01*
X357Y1093D02*
X362Y1093D01*
X377Y1093D02*
X382Y1093D01*
X401Y1093D02*
X406Y1093D01*
X424Y1093D02*
X450Y1093D01*
X477Y1093D02*
X484Y1093D01*
X510Y1093D02*
X537Y1093D01*
X552Y1093D02*
X565Y1093D01*
X576Y1093D02*
X581Y1093D01*
X606Y1093D02*
X612Y1093D01*
X620Y1093D02*
X625Y1093D01*
X640Y1093D02*
X663Y1093D01*
X707Y1093D02*
X712Y1093D01*
X751Y1093D02*
X756Y1093D01*
X771Y1093D02*
X776Y1093D01*
X795Y1093D02*
X800Y1093D01*
X815Y1093D02*
X820Y1093D01*
X839Y1093D02*
X844Y1093D01*
X858Y1093D02*
X863Y1093D01*
X882Y1093D02*
X888Y1093D01*
X912Y1093D02*
X918Y1093D01*
X926Y1093D02*
X931Y1093D01*
X959Y1093D02*
X965Y1093D01*
X990Y1093D02*
X995Y1093D01*
X1002Y1093D02*
X1007Y1093D01*
X1014Y1093D02*
X1019Y1093D01*
X1033Y1093D02*
X1039Y1093D01*
X1057Y1093D02*
X1063Y1093D01*
X1101Y1093D02*
X1106Y1093D01*
X1165Y1093D02*
X1170Y1093D01*
X1189Y1093D02*
X1194Y1093D01*
X1209Y1093D02*
X1214Y1093D01*
X1232Y1093D02*
X1237Y1093D01*
X1253Y1093D02*
X1258Y1093D01*
X1276Y1093D02*
X1282Y1093D01*
X1314Y1093D02*
X1319Y1093D01*
X1352Y1093D02*
X1357Y1093D01*
X1384Y1093D02*
X1389Y1093D01*
X1408Y1093D02*
X1413Y1093D01*
X2747Y1093D02*
X2754Y1093D01*
X0Y1092D02*
X7Y1092D01*
X202Y1092D02*
X206Y1092D01*
X214Y1092D02*
X219Y1092D01*
X246Y1092D02*
X251Y1092D01*
X270Y1092D02*
X275Y1092D01*
X301Y1092D02*
X306Y1092D01*
X333Y1092D02*
X338Y1092D01*
X357Y1092D02*
X362Y1092D01*
X377Y1092D02*
X382Y1092D01*
X401Y1092D02*
X406Y1092D01*
X445Y1092D02*
X450Y1092D01*
X478Y1092D02*
X484Y1092D01*
X510Y1092D02*
X517Y1092D01*
X532Y1092D02*
X537Y1092D01*
X552Y1092D02*
X566Y1092D01*
X576Y1092D02*
X581Y1092D01*
X605Y1092D02*
X611Y1092D01*
X620Y1092D02*
X625Y1092D01*
X640Y1092D02*
X665Y1092D01*
X707Y1092D02*
X712Y1092D01*
X751Y1092D02*
X756Y1092D01*
X771Y1092D02*
X776Y1092D01*
X795Y1092D02*
X800Y1092D01*
X815Y1092D02*
X820Y1092D01*
X839Y1092D02*
X844Y1092D01*
X858Y1092D02*
X863Y1092D01*
X882Y1092D02*
X888Y1092D01*
X912Y1092D02*
X918Y1092D01*
X926Y1092D02*
X931Y1092D01*
X960Y1092D02*
X966Y1092D01*
X990Y1092D02*
X995Y1092D01*
X1002Y1092D02*
X1007Y1092D01*
X1014Y1092D02*
X1019Y1092D01*
X1033Y1092D02*
X1039Y1092D01*
X1057Y1092D02*
X1063Y1092D01*
X1101Y1092D02*
X1106Y1092D01*
X1165Y1092D02*
X1170Y1092D01*
X1189Y1092D02*
X1194Y1092D01*
X1209Y1092D02*
X1214Y1092D01*
X1232Y1092D02*
X1237Y1092D01*
X1253Y1092D02*
X1258Y1092D01*
X1276Y1092D02*
X1282Y1092D01*
X1314Y1092D02*
X1319Y1092D01*
X1352Y1092D02*
X1357Y1092D01*
X1384Y1092D02*
X1389Y1092D01*
X1408Y1092D02*
X1413Y1092D01*
X2747Y1092D02*
X2754Y1092D01*
X0Y1091D02*
X7Y1091D01*
X202Y1091D02*
X207Y1091D01*
X214Y1091D02*
X219Y1091D01*
X246Y1091D02*
X251Y1091D01*
X270Y1091D02*
X275Y1091D01*
X301Y1091D02*
X306Y1091D01*
X333Y1091D02*
X338Y1091D01*
X357Y1091D02*
X362Y1091D01*
X377Y1091D02*
X382Y1091D01*
X401Y1091D02*
X406Y1091D01*
X445Y1091D02*
X450Y1091D01*
X479Y1091D02*
X485Y1091D01*
X509Y1091D02*
X516Y1091D01*
X532Y1091D02*
X537Y1091D01*
X552Y1091D02*
X566Y1091D01*
X576Y1091D02*
X581Y1091D01*
X605Y1091D02*
X611Y1091D01*
X620Y1091D02*
X625Y1091D01*
X640Y1091D02*
X666Y1091D01*
X707Y1091D02*
X712Y1091D01*
X751Y1091D02*
X756Y1091D01*
X771Y1091D02*
X776Y1091D01*
X795Y1091D02*
X800Y1091D01*
X815Y1091D02*
X820Y1091D01*
X839Y1091D02*
X844Y1091D01*
X858Y1091D02*
X864Y1091D01*
X882Y1091D02*
X888Y1091D01*
X911Y1091D02*
X917Y1091D01*
X926Y1091D02*
X931Y1091D01*
X960Y1091D02*
X966Y1091D01*
X990Y1091D02*
X995Y1091D01*
X1002Y1091D02*
X1007Y1091D01*
X1014Y1091D02*
X1019Y1091D01*
X1033Y1091D02*
X1039Y1091D01*
X1057Y1091D02*
X1063Y1091D01*
X1101Y1091D02*
X1106Y1091D01*
X1165Y1091D02*
X1170Y1091D01*
X1189Y1091D02*
X1194Y1091D01*
X1209Y1091D02*
X1214Y1091D01*
X1232Y1091D02*
X1237Y1091D01*
X1253Y1091D02*
X1258Y1091D01*
X1276Y1091D02*
X1282Y1091D01*
X1314Y1091D02*
X1319Y1091D01*
X1352Y1091D02*
X1357Y1091D01*
X1384Y1091D02*
X1389Y1091D01*
X1408Y1091D02*
X1413Y1091D01*
X2747Y1091D02*
X2754Y1091D01*
X0Y1090D02*
X7Y1090D01*
X202Y1090D02*
X207Y1090D01*
X214Y1090D02*
X219Y1090D01*
X246Y1090D02*
X251Y1090D01*
X270Y1090D02*
X275Y1090D01*
X301Y1090D02*
X306Y1090D01*
X333Y1090D02*
X338Y1090D01*
X357Y1090D02*
X362Y1090D01*
X377Y1090D02*
X382Y1090D01*
X401Y1090D02*
X406Y1090D01*
X445Y1090D02*
X450Y1090D01*
X479Y1090D02*
X485Y1090D01*
X509Y1090D02*
X515Y1090D01*
X532Y1090D02*
X537Y1090D01*
X552Y1090D02*
X566Y1090D01*
X576Y1090D02*
X581Y1090D01*
X604Y1090D02*
X610Y1090D01*
X620Y1090D02*
X625Y1090D01*
X640Y1090D02*
X667Y1090D01*
X707Y1090D02*
X712Y1090D01*
X751Y1090D02*
X756Y1090D01*
X771Y1090D02*
X800Y1090D01*
X815Y1090D02*
X820Y1090D01*
X839Y1090D02*
X844Y1090D01*
X858Y1090D02*
X888Y1090D01*
X910Y1090D02*
X917Y1090D01*
X926Y1090D02*
X931Y1090D01*
X961Y1090D02*
X967Y1090D01*
X990Y1090D02*
X995Y1090D01*
X1002Y1090D02*
X1007Y1090D01*
X1014Y1090D02*
X1019Y1090D01*
X1033Y1090D02*
X1039Y1090D01*
X1057Y1090D02*
X1063Y1090D01*
X1101Y1090D02*
X1106Y1090D01*
X1131Y1090D02*
X1140Y1090D01*
X1165Y1090D02*
X1170Y1090D01*
X1189Y1090D02*
X1194Y1090D01*
X1209Y1090D02*
X1214Y1090D01*
X1232Y1090D02*
X1237Y1090D01*
X1253Y1090D02*
X1258Y1090D01*
X1276Y1090D02*
X1282Y1090D01*
X1314Y1090D02*
X1319Y1090D01*
X1352Y1090D02*
X1357Y1090D01*
X1384Y1090D02*
X1389Y1090D01*
X1408Y1090D02*
X1413Y1090D01*
X2747Y1090D02*
X2754Y1090D01*
X0Y1089D02*
X7Y1089D01*
X202Y1089D02*
X207Y1089D01*
X214Y1089D02*
X219Y1089D01*
X246Y1089D02*
X251Y1089D01*
X270Y1089D02*
X275Y1089D01*
X301Y1089D02*
X306Y1089D01*
X333Y1089D02*
X338Y1089D01*
X357Y1089D02*
X362Y1089D01*
X377Y1089D02*
X382Y1089D01*
X401Y1089D02*
X406Y1089D01*
X445Y1089D02*
X450Y1089D01*
X480Y1089D02*
X486Y1089D01*
X508Y1089D02*
X514Y1089D01*
X532Y1089D02*
X537Y1089D01*
X552Y1089D02*
X566Y1089D01*
X576Y1089D02*
X581Y1089D01*
X603Y1089D02*
X610Y1089D01*
X620Y1089D02*
X625Y1089D01*
X640Y1089D02*
X667Y1089D01*
X707Y1089D02*
X712Y1089D01*
X751Y1089D02*
X756Y1089D01*
X771Y1089D02*
X800Y1089D01*
X815Y1089D02*
X820Y1089D01*
X839Y1089D02*
X844Y1089D01*
X858Y1089D02*
X888Y1089D01*
X910Y1089D02*
X916Y1089D01*
X926Y1089D02*
X931Y1089D01*
X961Y1089D02*
X967Y1089D01*
X990Y1089D02*
X995Y1089D01*
X1002Y1089D02*
X1007Y1089D01*
X1014Y1089D02*
X1019Y1089D01*
X1033Y1089D02*
X1039Y1089D01*
X1057Y1089D02*
X1063Y1089D01*
X1101Y1089D02*
X1106Y1089D01*
X1130Y1089D02*
X1141Y1089D01*
X1165Y1089D02*
X1170Y1089D01*
X1189Y1089D02*
X1194Y1089D01*
X1209Y1089D02*
X1214Y1089D01*
X1232Y1089D02*
X1237Y1089D01*
X1253Y1089D02*
X1258Y1089D01*
X1276Y1089D02*
X1282Y1089D01*
X1314Y1089D02*
X1319Y1089D01*
X1352Y1089D02*
X1357Y1089D01*
X1384Y1089D02*
X1389Y1089D01*
X1408Y1089D02*
X1413Y1089D01*
X2747Y1089D02*
X2754Y1089D01*
X0Y1088D02*
X7Y1088D01*
X202Y1088D02*
X207Y1088D01*
X214Y1088D02*
X219Y1088D01*
X246Y1088D02*
X251Y1088D01*
X270Y1088D02*
X275Y1088D01*
X301Y1088D02*
X306Y1088D01*
X333Y1088D02*
X338Y1088D01*
X357Y1088D02*
X362Y1088D01*
X377Y1088D02*
X382Y1088D01*
X401Y1088D02*
X406Y1088D01*
X445Y1088D02*
X450Y1088D01*
X480Y1088D02*
X486Y1088D01*
X508Y1088D02*
X514Y1088D01*
X532Y1088D02*
X537Y1088D01*
X552Y1088D02*
X565Y1088D01*
X576Y1088D02*
X581Y1088D01*
X603Y1088D02*
X609Y1088D01*
X620Y1088D02*
X625Y1088D01*
X640Y1088D02*
X668Y1088D01*
X707Y1088D02*
X712Y1088D01*
X751Y1088D02*
X756Y1088D01*
X771Y1088D02*
X800Y1088D01*
X815Y1088D02*
X820Y1088D01*
X839Y1088D02*
X844Y1088D01*
X858Y1088D02*
X888Y1088D01*
X909Y1088D02*
X915Y1088D01*
X926Y1088D02*
X931Y1088D01*
X962Y1088D02*
X968Y1088D01*
X990Y1088D02*
X995Y1088D01*
X1002Y1088D02*
X1007Y1088D01*
X1014Y1088D02*
X1019Y1088D01*
X1033Y1088D02*
X1039Y1088D01*
X1057Y1088D02*
X1063Y1088D01*
X1101Y1088D02*
X1106Y1088D01*
X1130Y1088D02*
X1141Y1088D01*
X1165Y1088D02*
X1170Y1088D01*
X1189Y1088D02*
X1194Y1088D01*
X1209Y1088D02*
X1214Y1088D01*
X1232Y1088D02*
X1237Y1088D01*
X1253Y1088D02*
X1258Y1088D01*
X1276Y1088D02*
X1282Y1088D01*
X1314Y1088D02*
X1319Y1088D01*
X1352Y1088D02*
X1357Y1088D01*
X1384Y1088D02*
X1389Y1088D01*
X1408Y1088D02*
X1413Y1088D01*
X2747Y1088D02*
X2754Y1088D01*
X0Y1087D02*
X7Y1087D01*
X202Y1087D02*
X207Y1087D01*
X214Y1087D02*
X219Y1087D01*
X246Y1087D02*
X251Y1087D01*
X270Y1087D02*
X275Y1087D01*
X301Y1087D02*
X306Y1087D01*
X333Y1087D02*
X338Y1087D01*
X357Y1087D02*
X362Y1087D01*
X377Y1087D02*
X382Y1087D01*
X401Y1087D02*
X406Y1087D01*
X445Y1087D02*
X450Y1087D01*
X481Y1087D02*
X487Y1087D01*
X508Y1087D02*
X513Y1087D01*
X532Y1087D02*
X537Y1087D01*
X552Y1087D02*
X557Y1087D01*
X576Y1087D02*
X581Y1087D01*
X602Y1087D02*
X608Y1087D01*
X620Y1087D02*
X625Y1087D01*
X640Y1087D02*
X647Y1087D01*
X662Y1087D02*
X668Y1087D01*
X707Y1087D02*
X712Y1087D01*
X751Y1087D02*
X756Y1087D01*
X771Y1087D02*
X800Y1087D01*
X815Y1087D02*
X820Y1087D01*
X839Y1087D02*
X844Y1087D01*
X859Y1087D02*
X888Y1087D01*
X909Y1087D02*
X915Y1087D01*
X926Y1087D02*
X931Y1087D01*
X962Y1087D02*
X969Y1087D01*
X990Y1087D02*
X995Y1087D01*
X1002Y1087D02*
X1007Y1087D01*
X1014Y1087D02*
X1019Y1087D01*
X1033Y1087D02*
X1039Y1087D01*
X1057Y1087D02*
X1063Y1087D01*
X1101Y1087D02*
X1106Y1087D01*
X1130Y1087D02*
X1141Y1087D01*
X1165Y1087D02*
X1170Y1087D01*
X1189Y1087D02*
X1194Y1087D01*
X1209Y1087D02*
X1214Y1087D01*
X1232Y1087D02*
X1237Y1087D01*
X1253Y1087D02*
X1258Y1087D01*
X1276Y1087D02*
X1282Y1087D01*
X1314Y1087D02*
X1319Y1087D01*
X1352Y1087D02*
X1357Y1087D01*
X1384Y1087D02*
X1389Y1087D01*
X1408Y1087D02*
X1413Y1087D01*
X2747Y1087D02*
X2754Y1087D01*
X0Y1086D02*
X7Y1086D01*
X202Y1086D02*
X207Y1086D01*
X214Y1086D02*
X219Y1086D01*
X246Y1086D02*
X251Y1086D01*
X270Y1086D02*
X275Y1086D01*
X301Y1086D02*
X306Y1086D01*
X333Y1086D02*
X338Y1086D01*
X357Y1086D02*
X362Y1086D01*
X377Y1086D02*
X382Y1086D01*
X401Y1086D02*
X406Y1086D01*
X445Y1086D02*
X450Y1086D01*
X481Y1086D02*
X488Y1086D01*
X508Y1086D02*
X513Y1086D01*
X532Y1086D02*
X537Y1086D01*
X552Y1086D02*
X557Y1086D01*
X576Y1086D02*
X581Y1086D01*
X602Y1086D02*
X608Y1086D01*
X620Y1086D02*
X625Y1086D01*
X640Y1086D02*
X646Y1086D01*
X663Y1086D02*
X668Y1086D01*
X707Y1086D02*
X712Y1086D01*
X751Y1086D02*
X756Y1086D01*
X772Y1086D02*
X800Y1086D01*
X815Y1086D02*
X820Y1086D01*
X839Y1086D02*
X844Y1086D01*
X859Y1086D02*
X888Y1086D01*
X908Y1086D02*
X914Y1086D01*
X926Y1086D02*
X931Y1086D01*
X963Y1086D02*
X969Y1086D01*
X990Y1086D02*
X995Y1086D01*
X1002Y1086D02*
X1007Y1086D01*
X1014Y1086D02*
X1019Y1086D01*
X1033Y1086D02*
X1039Y1086D01*
X1057Y1086D02*
X1063Y1086D01*
X1101Y1086D02*
X1106Y1086D01*
X1130Y1086D02*
X1141Y1086D01*
X1165Y1086D02*
X1170Y1086D01*
X1189Y1086D02*
X1194Y1086D01*
X1209Y1086D02*
X1214Y1086D01*
X1232Y1086D02*
X1237Y1086D01*
X1253Y1086D02*
X1258Y1086D01*
X1276Y1086D02*
X1282Y1086D01*
X1314Y1086D02*
X1319Y1086D01*
X1352Y1086D02*
X1357Y1086D01*
X1384Y1086D02*
X1390Y1086D01*
X1408Y1086D02*
X1413Y1086D01*
X2747Y1086D02*
X2754Y1086D01*
X0Y1085D02*
X7Y1085D01*
X202Y1085D02*
X207Y1085D01*
X214Y1085D02*
X219Y1085D01*
X246Y1085D02*
X251Y1085D01*
X270Y1085D02*
X275Y1085D01*
X301Y1085D02*
X306Y1085D01*
X333Y1085D02*
X338Y1085D01*
X357Y1085D02*
X362Y1085D01*
X377Y1085D02*
X382Y1085D01*
X401Y1085D02*
X406Y1085D01*
X445Y1085D02*
X450Y1085D01*
X482Y1085D02*
X488Y1085D01*
X508Y1085D02*
X513Y1085D01*
X532Y1085D02*
X537Y1085D01*
X552Y1085D02*
X557Y1085D01*
X576Y1085D02*
X581Y1085D01*
X601Y1085D02*
X607Y1085D01*
X620Y1085D02*
X625Y1085D01*
X640Y1085D02*
X645Y1085D01*
X663Y1085D02*
X669Y1085D01*
X707Y1085D02*
X712Y1085D01*
X751Y1085D02*
X756Y1085D01*
X773Y1085D02*
X800Y1085D01*
X815Y1085D02*
X820Y1085D01*
X839Y1085D02*
X844Y1085D01*
X860Y1085D02*
X888Y1085D01*
X908Y1085D02*
X914Y1085D01*
X926Y1085D02*
X931Y1085D01*
X964Y1085D02*
X970Y1085D01*
X990Y1085D02*
X995Y1085D01*
X1002Y1085D02*
X1007Y1085D01*
X1014Y1085D02*
X1019Y1085D01*
X1033Y1085D02*
X1039Y1085D01*
X1057Y1085D02*
X1063Y1085D01*
X1101Y1085D02*
X1106Y1085D01*
X1130Y1085D02*
X1141Y1085D01*
X1165Y1085D02*
X1170Y1085D01*
X1189Y1085D02*
X1194Y1085D01*
X1209Y1085D02*
X1214Y1085D01*
X1232Y1085D02*
X1237Y1085D01*
X1253Y1085D02*
X1258Y1085D01*
X1276Y1085D02*
X1282Y1085D01*
X1314Y1085D02*
X1319Y1085D01*
X1352Y1085D02*
X1357Y1085D01*
X1384Y1085D02*
X1391Y1085D01*
X1408Y1085D02*
X1413Y1085D01*
X2747Y1085D02*
X2754Y1085D01*
X0Y1084D02*
X7Y1084D01*
X202Y1084D02*
X207Y1084D01*
X214Y1084D02*
X219Y1084D01*
X246Y1084D02*
X251Y1084D01*
X270Y1084D02*
X275Y1084D01*
X301Y1084D02*
X306Y1084D01*
X333Y1084D02*
X338Y1084D01*
X357Y1084D02*
X362Y1084D01*
X377Y1084D02*
X382Y1084D01*
X401Y1084D02*
X406Y1084D01*
X445Y1084D02*
X450Y1084D01*
X483Y1084D02*
X489Y1084D01*
X508Y1084D02*
X513Y1084D01*
X532Y1084D02*
X537Y1084D01*
X552Y1084D02*
X557Y1084D01*
X576Y1084D02*
X581Y1084D01*
X600Y1084D02*
X607Y1084D01*
X620Y1084D02*
X625Y1084D01*
X640Y1084D02*
X645Y1084D01*
X664Y1084D02*
X669Y1084D01*
X707Y1084D02*
X712Y1084D01*
X751Y1084D02*
X756Y1084D01*
X795Y1084D02*
X800Y1084D01*
X815Y1084D02*
X820Y1084D01*
X838Y1084D02*
X844Y1084D01*
X882Y1084D02*
X888Y1084D01*
X907Y1084D02*
X913Y1084D01*
X926Y1084D02*
X931Y1084D01*
X964Y1084D02*
X970Y1084D01*
X990Y1084D02*
X995Y1084D01*
X1002Y1084D02*
X1007Y1084D01*
X1014Y1084D02*
X1019Y1084D01*
X1033Y1084D02*
X1039Y1084D01*
X1057Y1084D02*
X1063Y1084D01*
X1101Y1084D02*
X1106Y1084D01*
X1130Y1084D02*
X1141Y1084D01*
X1165Y1084D02*
X1170Y1084D01*
X1188Y1084D02*
X1194Y1084D01*
X1209Y1084D02*
X1214Y1084D01*
X1232Y1084D02*
X1237Y1084D01*
X1253Y1084D02*
X1258Y1084D01*
X1276Y1084D02*
X1282Y1084D01*
X1314Y1084D02*
X1319Y1084D01*
X1352Y1084D02*
X1357Y1084D01*
X1384Y1084D02*
X1392Y1084D01*
X1407Y1084D02*
X1413Y1084D01*
X2747Y1084D02*
X2754Y1084D01*
X0Y1083D02*
X7Y1083D01*
X202Y1083D02*
X207Y1083D01*
X214Y1083D02*
X219Y1083D01*
X246Y1083D02*
X251Y1083D01*
X270Y1083D02*
X275Y1083D01*
X301Y1083D02*
X306Y1083D01*
X333Y1083D02*
X338Y1083D01*
X357Y1083D02*
X362Y1083D01*
X377Y1083D02*
X382Y1083D01*
X401Y1083D02*
X406Y1083D01*
X445Y1083D02*
X450Y1083D01*
X483Y1083D02*
X489Y1083D01*
X508Y1083D02*
X513Y1083D01*
X532Y1083D02*
X537Y1083D01*
X552Y1083D02*
X557Y1083D01*
X576Y1083D02*
X581Y1083D01*
X600Y1083D02*
X606Y1083D01*
X620Y1083D02*
X625Y1083D01*
X640Y1083D02*
X645Y1083D01*
X664Y1083D02*
X669Y1083D01*
X706Y1083D02*
X712Y1083D01*
X750Y1083D02*
X756Y1083D01*
X795Y1083D02*
X800Y1083D01*
X815Y1083D02*
X820Y1083D01*
X837Y1083D02*
X844Y1083D01*
X882Y1083D02*
X888Y1083D01*
X906Y1083D02*
X912Y1083D01*
X926Y1083D02*
X931Y1083D01*
X965Y1083D02*
X971Y1083D01*
X990Y1083D02*
X995Y1083D01*
X1002Y1083D02*
X1007Y1083D01*
X1014Y1083D02*
X1019Y1083D01*
X1033Y1083D02*
X1039Y1083D01*
X1057Y1083D02*
X1063Y1083D01*
X1100Y1083D02*
X1106Y1083D01*
X1130Y1083D02*
X1141Y1083D01*
X1165Y1083D02*
X1170Y1083D01*
X1187Y1083D02*
X1194Y1083D01*
X1209Y1083D02*
X1216Y1083D01*
X1232Y1083D02*
X1237Y1083D01*
X1253Y1083D02*
X1258Y1083D01*
X1276Y1083D02*
X1282Y1083D01*
X1298Y1083D02*
X1299Y1083D01*
X1314Y1083D02*
X1319Y1083D01*
X1352Y1083D02*
X1357Y1083D01*
X1384Y1083D02*
X1393Y1083D01*
X1407Y1083D02*
X1412Y1083D01*
X2747Y1083D02*
X2754Y1083D01*
X0Y1082D02*
X7Y1082D01*
X202Y1082D02*
X207Y1082D01*
X214Y1082D02*
X219Y1082D01*
X246Y1082D02*
X251Y1082D01*
X270Y1082D02*
X275Y1082D01*
X301Y1082D02*
X306Y1082D01*
X333Y1082D02*
X338Y1082D01*
X357Y1082D02*
X362Y1082D01*
X377Y1082D02*
X382Y1082D01*
X401Y1082D02*
X406Y1082D01*
X445Y1082D02*
X450Y1082D01*
X484Y1082D02*
X490Y1082D01*
X508Y1082D02*
X514Y1082D01*
X532Y1082D02*
X537Y1082D01*
X552Y1082D02*
X557Y1082D01*
X576Y1082D02*
X581Y1082D01*
X599Y1082D02*
X605Y1082D01*
X620Y1082D02*
X625Y1082D01*
X640Y1082D02*
X645Y1082D01*
X664Y1082D02*
X669Y1082D01*
X705Y1082D02*
X712Y1082D01*
X749Y1082D02*
X756Y1082D01*
X795Y1082D02*
X800Y1082D01*
X815Y1082D02*
X820Y1082D01*
X836Y1082D02*
X844Y1082D01*
X882Y1082D02*
X887Y1082D01*
X906Y1082D02*
X912Y1082D01*
X926Y1082D02*
X931Y1082D01*
X965Y1082D02*
X971Y1082D01*
X990Y1082D02*
X995Y1082D01*
X1002Y1082D02*
X1007Y1082D01*
X1014Y1082D02*
X1019Y1082D01*
X1034Y1082D02*
X1039Y1082D01*
X1057Y1082D02*
X1063Y1082D01*
X1099Y1082D02*
X1106Y1082D01*
X1130Y1082D02*
X1141Y1082D01*
X1165Y1082D02*
X1170Y1082D01*
X1186Y1082D02*
X1194Y1082D01*
X1209Y1082D02*
X1217Y1082D01*
X1232Y1082D02*
X1237Y1082D01*
X1253Y1082D02*
X1258Y1082D01*
X1276Y1082D02*
X1282Y1082D01*
X1297Y1082D02*
X1300Y1082D01*
X1314Y1082D02*
X1319Y1082D01*
X1352Y1082D02*
X1357Y1082D01*
X1384Y1082D02*
X1394Y1082D01*
X1406Y1082D02*
X1412Y1082D01*
X2747Y1082D02*
X2754Y1082D01*
X0Y1081D02*
X7Y1081D01*
X202Y1081D02*
X207Y1081D01*
X214Y1081D02*
X219Y1081D01*
X246Y1081D02*
X251Y1081D01*
X270Y1081D02*
X275Y1081D01*
X301Y1081D02*
X306Y1081D01*
X333Y1081D02*
X338Y1081D01*
X357Y1081D02*
X362Y1081D01*
X377Y1081D02*
X382Y1081D01*
X401Y1081D02*
X406Y1081D01*
X445Y1081D02*
X450Y1081D01*
X484Y1081D02*
X491Y1081D01*
X509Y1081D02*
X514Y1081D01*
X532Y1081D02*
X537Y1081D01*
X552Y1081D02*
X557Y1081D01*
X576Y1081D02*
X581Y1081D01*
X599Y1081D02*
X605Y1081D01*
X620Y1081D02*
X625Y1081D01*
X640Y1081D02*
X646Y1081D01*
X663Y1081D02*
X669Y1081D01*
X704Y1081D02*
X711Y1081D01*
X747Y1081D02*
X755Y1081D01*
X794Y1081D02*
X800Y1081D01*
X815Y1081D02*
X820Y1081D01*
X835Y1081D02*
X844Y1081D01*
X882Y1081D02*
X887Y1081D01*
X905Y1081D02*
X911Y1081D01*
X926Y1081D02*
X931Y1081D01*
X966Y1081D02*
X972Y1081D01*
X989Y1081D02*
X995Y1081D01*
X1002Y1081D02*
X1007Y1081D01*
X1014Y1081D02*
X1019Y1081D01*
X1034Y1081D02*
X1039Y1081D01*
X1057Y1081D02*
X1062Y1081D01*
X1098Y1081D02*
X1105Y1081D01*
X1131Y1081D02*
X1141Y1081D01*
X1165Y1081D02*
X1171Y1081D01*
X1185Y1081D02*
X1194Y1081D01*
X1209Y1081D02*
X1219Y1081D01*
X1232Y1081D02*
X1237Y1081D01*
X1253Y1081D02*
X1258Y1081D01*
X1276Y1081D02*
X1282Y1081D01*
X1296Y1081D02*
X1301Y1081D01*
X1314Y1081D02*
X1319Y1081D01*
X1352Y1081D02*
X1357Y1081D01*
X1384Y1081D02*
X1396Y1081D01*
X1404Y1081D02*
X1412Y1081D01*
X2747Y1081D02*
X2754Y1081D01*
X0Y1080D02*
X7Y1080D01*
X202Y1080D02*
X207Y1080D01*
X214Y1080D02*
X219Y1080D01*
X246Y1080D02*
X251Y1080D01*
X270Y1080D02*
X275Y1080D01*
X301Y1080D02*
X306Y1080D01*
X333Y1080D02*
X338Y1080D01*
X357Y1080D02*
X362Y1080D01*
X377Y1080D02*
X382Y1080D01*
X401Y1080D02*
X406Y1080D01*
X445Y1080D02*
X450Y1080D01*
X485Y1080D02*
X491Y1080D01*
X509Y1080D02*
X515Y1080D01*
X532Y1080D02*
X537Y1080D01*
X552Y1080D02*
X557Y1080D01*
X576Y1080D02*
X581Y1080D01*
X598Y1080D02*
X604Y1080D01*
X620Y1080D02*
X625Y1080D01*
X640Y1080D02*
X648Y1080D01*
X663Y1080D02*
X669Y1080D01*
X703Y1080D02*
X711Y1080D01*
X746Y1080D02*
X754Y1080D01*
X793Y1080D02*
X799Y1080D01*
X815Y1080D02*
X821Y1080D01*
X834Y1080D02*
X844Y1080D01*
X881Y1080D02*
X887Y1080D01*
X905Y1080D02*
X911Y1080D01*
X926Y1080D02*
X931Y1080D01*
X967Y1080D02*
X973Y1080D01*
X989Y1080D02*
X995Y1080D01*
X1002Y1080D02*
X1007Y1080D01*
X1014Y1080D02*
X1019Y1080D01*
X1034Y1080D02*
X1040Y1080D01*
X1056Y1080D02*
X1062Y1080D01*
X1096Y1080D02*
X1105Y1080D01*
X1132Y1080D02*
X1139Y1080D01*
X1165Y1080D02*
X1172Y1080D01*
X1184Y1080D02*
X1194Y1080D01*
X1209Y1080D02*
X1221Y1080D01*
X1232Y1080D02*
X1237Y1080D01*
X1253Y1080D02*
X1258Y1080D01*
X1276Y1080D02*
X1282Y1080D01*
X1296Y1080D02*
X1302Y1080D01*
X1314Y1080D02*
X1319Y1080D01*
X1352Y1080D02*
X1357Y1080D01*
X1384Y1080D02*
X1411Y1080D01*
X2747Y1080D02*
X2754Y1080D01*
X0Y1079D02*
X7Y1079D01*
X202Y1079D02*
X207Y1079D01*
X214Y1079D02*
X219Y1079D01*
X246Y1079D02*
X251Y1079D01*
X270Y1079D02*
X275Y1079D01*
X301Y1079D02*
X306Y1079D01*
X333Y1079D02*
X338Y1079D01*
X357Y1079D02*
X362Y1079D01*
X377Y1079D02*
X382Y1079D01*
X401Y1079D02*
X406Y1079D01*
X445Y1079D02*
X450Y1079D01*
X486Y1079D02*
X492Y1079D01*
X509Y1079D02*
X516Y1079D01*
X532Y1079D02*
X537Y1079D01*
X552Y1079D02*
X558Y1079D01*
X575Y1079D02*
X581Y1079D01*
X598Y1079D02*
X604Y1079D01*
X620Y1079D02*
X625Y1079D01*
X640Y1079D02*
X650Y1079D01*
X663Y1079D02*
X668Y1079D01*
X701Y1079D02*
X710Y1079D01*
X745Y1079D02*
X753Y1079D01*
X792Y1079D02*
X799Y1079D01*
X816Y1079D02*
X823Y1079D01*
X833Y1079D02*
X844Y1079D01*
X879Y1079D02*
X887Y1079D01*
X904Y1079D02*
X910Y1079D01*
X926Y1079D02*
X931Y1079D01*
X967Y1079D02*
X973Y1079D01*
X989Y1079D02*
X995Y1079D01*
X1002Y1079D02*
X1007Y1079D01*
X1014Y1079D02*
X1019Y1079D01*
X1034Y1079D02*
X1042Y1079D01*
X1055Y1079D02*
X1062Y1079D01*
X1095Y1079D02*
X1104Y1079D01*
X1166Y1079D02*
X1173Y1079D01*
X1183Y1079D02*
X1194Y1079D01*
X1209Y1079D02*
X1222Y1079D01*
X1231Y1079D02*
X1237Y1079D01*
X1253Y1079D02*
X1258Y1079D01*
X1276Y1079D02*
X1282Y1079D01*
X1296Y1079D02*
X1302Y1079D01*
X1313Y1079D02*
X1319Y1079D01*
X1352Y1079D02*
X1357Y1079D01*
X1384Y1079D02*
X1410Y1079D01*
X2747Y1079D02*
X2754Y1079D01*
X0Y1078D02*
X7Y1078D01*
X202Y1078D02*
X228Y1078D01*
X246Y1078D02*
X251Y1078D01*
X270Y1078D02*
X275Y1078D01*
X295Y1078D02*
X312Y1078D01*
X333Y1078D02*
X362Y1078D01*
X377Y1078D02*
X406Y1078D01*
X424Y1078D02*
X450Y1078D01*
X486Y1078D02*
X492Y1078D01*
X510Y1078D02*
X537Y1078D01*
X552Y1078D02*
X581Y1078D01*
X597Y1078D02*
X603Y1078D01*
X620Y1078D02*
X625Y1078D01*
X640Y1078D02*
X668Y1078D01*
X686Y1078D02*
X709Y1078D01*
X730Y1078D02*
X752Y1078D01*
X774Y1078D02*
X799Y1078D01*
X816Y1078D02*
X844Y1078D01*
X861Y1078D02*
X886Y1078D01*
X903Y1078D02*
X910Y1078D01*
X926Y1078D02*
X931Y1078D01*
X968Y1078D02*
X974Y1078D01*
X989Y1078D02*
X994Y1078D01*
X1002Y1078D02*
X1007Y1078D01*
X1014Y1078D02*
X1019Y1078D01*
X1035Y1078D02*
X1061Y1078D01*
X1080Y1078D02*
X1103Y1078D01*
X1166Y1078D02*
X1194Y1078D01*
X1209Y1078D02*
X1236Y1078D01*
X1252Y1078D02*
X1258Y1078D01*
X1276Y1078D02*
X1282Y1078D01*
X1297Y1078D02*
X1319Y1078D01*
X1346Y1078D02*
X1363Y1078D01*
X1384Y1078D02*
X1409Y1078D01*
X2747Y1078D02*
X2754Y1078D01*
X0Y1077D02*
X7Y1077D01*
X202Y1077D02*
X230Y1077D01*
X246Y1077D02*
X251Y1077D01*
X270Y1077D02*
X275Y1077D01*
X293Y1077D02*
X315Y1077D01*
X333Y1077D02*
X362Y1077D01*
X377Y1077D02*
X406Y1077D01*
X421Y1077D02*
X450Y1077D01*
X487Y1077D02*
X493Y1077D01*
X511Y1077D02*
X537Y1077D01*
X553Y1077D02*
X580Y1077D01*
X596Y1077D02*
X603Y1077D01*
X620Y1077D02*
X625Y1077D01*
X640Y1077D02*
X668Y1077D01*
X684Y1077D02*
X707Y1077D01*
X728Y1077D02*
X751Y1077D01*
X772Y1077D02*
X798Y1077D01*
X817Y1077D02*
X844Y1077D01*
X859Y1077D02*
X885Y1077D01*
X903Y1077D02*
X909Y1077D01*
X926Y1077D02*
X931Y1077D01*
X968Y1077D02*
X974Y1077D01*
X989Y1077D02*
X994Y1077D01*
X1002Y1077D02*
X1007Y1077D01*
X1014Y1077D02*
X1019Y1077D01*
X1036Y1077D02*
X1060Y1077D01*
X1078Y1077D02*
X1101Y1077D01*
X1167Y1077D02*
X1194Y1077D01*
X1209Y1077D02*
X1236Y1077D01*
X1252Y1077D02*
X1258Y1077D01*
X1276Y1077D02*
X1282Y1077D01*
X1297Y1077D02*
X1318Y1077D01*
X1344Y1077D02*
X1365Y1077D01*
X1384Y1077D02*
X1389Y1077D01*
X1392Y1077D02*
X1408Y1077D01*
X2747Y1077D02*
X2754Y1077D01*
X0Y1076D02*
X7Y1076D01*
X202Y1076D02*
X231Y1076D01*
X246Y1076D02*
X251Y1076D01*
X270Y1076D02*
X275Y1076D01*
X293Y1076D02*
X315Y1076D01*
X333Y1076D02*
X362Y1076D01*
X377Y1076D02*
X406Y1076D01*
X421Y1076D02*
X450Y1076D01*
X487Y1076D02*
X493Y1076D01*
X511Y1076D02*
X537Y1076D01*
X554Y1076D02*
X580Y1076D01*
X596Y1076D02*
X602Y1076D01*
X620Y1076D02*
X625Y1076D01*
X640Y1076D02*
X667Y1076D01*
X683Y1076D02*
X706Y1076D01*
X727Y1076D02*
X750Y1076D01*
X771Y1076D02*
X797Y1076D01*
X818Y1076D02*
X844Y1076D01*
X859Y1076D02*
X884Y1076D01*
X902Y1076D02*
X908Y1076D01*
X926Y1076D02*
X931Y1076D01*
X969Y1076D02*
X975Y1076D01*
X989Y1076D02*
X994Y1076D01*
X1002Y1076D02*
X1007Y1076D01*
X1014Y1076D02*
X1019Y1076D01*
X1037Y1076D02*
X1059Y1076D01*
X1077Y1076D02*
X1100Y1076D01*
X1168Y1076D02*
X1194Y1076D01*
X1209Y1076D02*
X1214Y1076D01*
X1216Y1076D02*
X1235Y1076D01*
X1252Y1076D02*
X1257Y1076D01*
X1276Y1076D02*
X1282Y1076D01*
X1298Y1076D02*
X1318Y1076D01*
X1343Y1076D02*
X1366Y1076D01*
X1384Y1076D02*
X1389Y1076D01*
X1393Y1076D02*
X1406Y1076D01*
X2747Y1076D02*
X2754Y1076D01*
X0Y1075D02*
X7Y1075D01*
X202Y1075D02*
X231Y1075D01*
X246Y1075D02*
X251Y1075D01*
X270Y1075D02*
X275Y1075D01*
X292Y1075D02*
X315Y1075D01*
X334Y1075D02*
X361Y1075D01*
X378Y1075D02*
X405Y1075D01*
X421Y1075D02*
X450Y1075D01*
X488Y1075D02*
X493Y1075D01*
X512Y1075D02*
X537Y1075D01*
X554Y1075D02*
X579Y1075D01*
X596Y1075D02*
X601Y1075D01*
X620Y1075D02*
X625Y1075D01*
X640Y1075D02*
X666Y1075D01*
X683Y1075D02*
X705Y1075D01*
X727Y1075D02*
X749Y1075D01*
X771Y1075D02*
X796Y1075D01*
X819Y1075D02*
X837Y1075D01*
X839Y1075D02*
X844Y1075D01*
X858Y1075D02*
X883Y1075D01*
X902Y1075D02*
X908Y1075D01*
X926Y1075D02*
X931Y1075D01*
X969Y1075D02*
X975Y1075D01*
X989Y1075D02*
X994Y1075D01*
X1002Y1075D02*
X1007Y1075D01*
X1014Y1075D02*
X1019Y1075D01*
X1038Y1075D02*
X1058Y1075D01*
X1077Y1075D02*
X1099Y1075D01*
X1169Y1075D02*
X1187Y1075D01*
X1189Y1075D02*
X1194Y1075D01*
X1209Y1075D02*
X1214Y1075D01*
X1218Y1075D02*
X1235Y1075D01*
X1252Y1075D02*
X1257Y1075D01*
X1276Y1075D02*
X1281Y1075D01*
X1299Y1075D02*
X1317Y1075D01*
X1343Y1075D02*
X1366Y1075D01*
X1384Y1075D02*
X1389Y1075D01*
X1395Y1075D02*
X1405Y1075D01*
X2747Y1075D02*
X2754Y1075D01*
X0Y1074D02*
X7Y1074D01*
X202Y1074D02*
X231Y1074D01*
X246Y1074D02*
X250Y1074D01*
X270Y1074D02*
X274Y1074D01*
X293Y1074D02*
X315Y1074D01*
X335Y1074D02*
X361Y1074D01*
X379Y1074D02*
X404Y1074D01*
X421Y1074D02*
X450Y1074D01*
X489Y1074D02*
X493Y1074D01*
X514Y1074D02*
X537Y1074D01*
X555Y1074D02*
X578Y1074D01*
X596Y1074D02*
X601Y1074D01*
X620Y1074D02*
X625Y1074D01*
X640Y1074D02*
X644Y1074D01*
X647Y1074D02*
X665Y1074D01*
X683Y1074D02*
X704Y1074D01*
X727Y1074D02*
X748Y1074D01*
X771Y1074D02*
X795Y1074D01*
X820Y1074D02*
X835Y1074D01*
X839Y1074D02*
X844Y1074D01*
X859Y1074D02*
X882Y1074D01*
X902Y1074D02*
X907Y1074D01*
X926Y1074D02*
X931Y1074D01*
X970Y1074D02*
X975Y1074D01*
X989Y1074D02*
X994Y1074D01*
X1002Y1074D02*
X1007Y1074D01*
X1014Y1074D02*
X1019Y1074D01*
X1039Y1074D02*
X1057Y1074D01*
X1077Y1074D02*
X1098Y1074D01*
X1170Y1074D02*
X1186Y1074D01*
X1189Y1074D02*
X1194Y1074D01*
X1209Y1074D02*
X1213Y1074D01*
X1220Y1074D02*
X1234Y1074D01*
X1253Y1074D02*
X1257Y1074D01*
X1277Y1074D02*
X1281Y1074D01*
X1300Y1074D02*
X1316Y1074D01*
X1343Y1074D02*
X1366Y1074D01*
X1384Y1074D02*
X1389Y1074D01*
X2747Y1074D02*
X2754Y1074D01*
X0Y1073D02*
X7Y1073D01*
X203Y1073D02*
X230Y1073D01*
X246Y1073D02*
X250Y1073D01*
X270Y1073D02*
X274Y1073D01*
X293Y1073D02*
X315Y1073D01*
X336Y1073D02*
X359Y1073D01*
X380Y1073D02*
X403Y1073D01*
X421Y1073D02*
X450Y1073D01*
X489Y1073D02*
X493Y1073D01*
X515Y1073D02*
X537Y1073D01*
X557Y1073D02*
X576Y1073D01*
X597Y1073D02*
X600Y1073D01*
X621Y1073D02*
X624Y1073D01*
X640Y1073D02*
X644Y1073D01*
X649Y1073D02*
X664Y1073D01*
X684Y1073D02*
X702Y1073D01*
X728Y1073D02*
X746Y1073D01*
X772Y1073D02*
X793Y1073D01*
X822Y1073D02*
X834Y1073D01*
X839Y1073D02*
X843Y1073D01*
X859Y1073D02*
X881Y1073D01*
X903Y1073D02*
X906Y1073D01*
X927Y1073D02*
X930Y1073D01*
X971Y1073D02*
X974Y1073D01*
X990Y1073D02*
X994Y1073D01*
X1003Y1073D02*
X1006Y1073D01*
X1015Y1073D02*
X1019Y1073D01*
X1041Y1073D02*
X1056Y1073D01*
X1078Y1073D02*
X1096Y1073D01*
X1172Y1073D02*
X1184Y1073D01*
X1190Y1073D02*
X1193Y1073D01*
X1209Y1073D02*
X1213Y1073D01*
X1221Y1073D02*
X1232Y1073D01*
X1253Y1073D02*
X1257Y1073D01*
X1277Y1073D02*
X1281Y1073D01*
X1301Y1073D02*
X1314Y1073D01*
X1344Y1073D02*
X1365Y1073D01*
X1384Y1073D02*
X1389Y1073D01*
X2747Y1073D02*
X2754Y1073D01*
X0Y1072D02*
X7Y1072D01*
X204Y1072D02*
X228Y1072D01*
X248Y1072D02*
X248Y1072D01*
X272Y1072D02*
X272Y1072D01*
X295Y1072D02*
X313Y1072D01*
X338Y1072D02*
X357Y1072D01*
X382Y1072D02*
X401Y1072D01*
X423Y1072D02*
X449Y1072D01*
X491Y1072D02*
X491Y1072D01*
X520Y1072D02*
X537Y1072D01*
X560Y1072D02*
X573Y1072D01*
X598Y1072D02*
X598Y1072D01*
X622Y1072D02*
X622Y1072D01*
X642Y1072D02*
X642Y1072D01*
X651Y1072D02*
X660Y1072D01*
X686Y1072D02*
X699Y1072D01*
X730Y1072D02*
X743Y1072D01*
X774Y1072D02*
X790Y1072D01*
X825Y1072D02*
X830Y1072D01*
X841Y1072D02*
X841Y1072D01*
X861Y1072D02*
X877Y1072D01*
X929Y1072D02*
X929Y1072D01*
X992Y1072D02*
X992Y1072D01*
X1004Y1072D02*
X1004Y1072D01*
X1017Y1072D02*
X1017Y1072D01*
X1044Y1072D02*
X1052Y1072D01*
X1080Y1072D02*
X1093Y1072D01*
X1175Y1072D02*
X1180Y1072D01*
X1211Y1072D02*
X1211Y1072D01*
X1225Y1072D02*
X1229Y1072D01*
X1255Y1072D02*
X1255Y1072D01*
X1279Y1072D02*
X1279Y1072D01*
X1304Y1072D02*
X1311Y1072D01*
X1346Y1072D02*
X1363Y1072D01*
X1384Y1072D02*
X1389Y1072D01*
X2747Y1072D02*
X2754Y1072D01*
X0Y1071D02*
X7Y1071D01*
X1384Y1071D02*
X1389Y1071D01*
X2747Y1071D02*
X2754Y1071D01*
X0Y1070D02*
X7Y1070D01*
X1384Y1070D02*
X1389Y1070D01*
X2747Y1070D02*
X2754Y1070D01*
X0Y1069D02*
X7Y1069D01*
X1384Y1069D02*
X1389Y1069D01*
X2747Y1069D02*
X2754Y1069D01*
X0Y1068D02*
X7Y1068D01*
X1384Y1068D02*
X1390Y1068D01*
X2747Y1068D02*
X2754Y1068D01*
X0Y1067D02*
X7Y1067D01*
X1384Y1067D02*
X1391Y1067D01*
X2747Y1067D02*
X2754Y1067D01*
X0Y1066D02*
X7Y1066D01*
X1385Y1066D02*
X1392Y1066D01*
X2747Y1066D02*
X2754Y1066D01*
X0Y1065D02*
X7Y1065D01*
X1385Y1065D02*
X1408Y1065D01*
X2747Y1065D02*
X2754Y1065D01*
X0Y1064D02*
X7Y1064D01*
X1386Y1064D02*
X1409Y1064D01*
X2747Y1064D02*
X2754Y1064D01*
X0Y1063D02*
X7Y1063D01*
X1387Y1063D02*
X1410Y1063D01*
X2747Y1063D02*
X2754Y1063D01*
X0Y1062D02*
X7Y1062D01*
X1388Y1062D02*
X1410Y1062D01*
X2747Y1062D02*
X2754Y1062D01*
X0Y1061D02*
X7Y1061D01*
X1389Y1061D02*
X1410Y1061D01*
X2747Y1061D02*
X2754Y1061D01*
X0Y1060D02*
X7Y1060D01*
X1391Y1060D02*
X1409Y1060D01*
X2747Y1060D02*
X2754Y1060D01*
X0Y1059D02*
X7Y1059D01*
X2747Y1059D02*
X2754Y1059D01*
X0Y1058D02*
X7Y1058D01*
X2747Y1058D02*
X2754Y1058D01*
X0Y1057D02*
X7Y1057D01*
X2747Y1057D02*
X2754Y1057D01*
X0Y1056D02*
X7Y1056D01*
X2747Y1056D02*
X2754Y1056D01*
X0Y1055D02*
X7Y1055D01*
X2747Y1055D02*
X2754Y1055D01*
X0Y1054D02*
X7Y1054D01*
X2747Y1054D02*
X2754Y1054D01*
X0Y1053D02*
X7Y1053D01*
X2747Y1053D02*
X2754Y1053D01*
X0Y1052D02*
X7Y1052D01*
X2747Y1052D02*
X2754Y1052D01*
X0Y1051D02*
X7Y1051D01*
X2747Y1051D02*
X2754Y1051D01*
X0Y1050D02*
X7Y1050D01*
X2747Y1050D02*
X2754Y1050D01*
X0Y1049D02*
X7Y1049D01*
X2747Y1049D02*
X2754Y1049D01*
X0Y1048D02*
X7Y1048D01*
X2747Y1048D02*
X2754Y1048D01*
X0Y1047D02*
X7Y1047D01*
X2747Y1047D02*
X2754Y1047D01*
X0Y1046D02*
X7Y1046D01*
X2747Y1046D02*
X2754Y1046D01*
X0Y1045D02*
X7Y1045D01*
X2747Y1045D02*
X2754Y1045D01*
X0Y1044D02*
X7Y1044D01*
X2747Y1044D02*
X2754Y1044D01*
X0Y1043D02*
X7Y1043D01*
X2747Y1043D02*
X2754Y1043D01*
X0Y1042D02*
X7Y1042D01*
X2747Y1042D02*
X2754Y1042D01*
X0Y1041D02*
X7Y1041D01*
X2747Y1041D02*
X2754Y1041D01*
X0Y1040D02*
X7Y1040D01*
X2747Y1040D02*
X2754Y1040D01*
X0Y1039D02*
X7Y1039D01*
X2747Y1039D02*
X2754Y1039D01*
X0Y1038D02*
X7Y1038D01*
X2747Y1038D02*
X2754Y1038D01*
X0Y1037D02*
X7Y1037D01*
X2747Y1037D02*
X2754Y1037D01*
X0Y1036D02*
X7Y1036D01*
X2747Y1036D02*
X2754Y1036D01*
X0Y1035D02*
X7Y1035D01*
X2747Y1035D02*
X2754Y1035D01*
X0Y1034D02*
X7Y1034D01*
X2747Y1034D02*
X2754Y1034D01*
X0Y1033D02*
X7Y1033D01*
X2747Y1033D02*
X2754Y1033D01*
X0Y1032D02*
X7Y1032D01*
X2747Y1032D02*
X2754Y1032D01*
X0Y1031D02*
X7Y1031D01*
X2747Y1031D02*
X2754Y1031D01*
X0Y1030D02*
X7Y1030D01*
X2747Y1030D02*
X2754Y1030D01*
X0Y1029D02*
X7Y1029D01*
X2747Y1029D02*
X2754Y1029D01*
X0Y1028D02*
X7Y1028D01*
X2747Y1028D02*
X2754Y1028D01*
X0Y1027D02*
X7Y1027D01*
X2747Y1027D02*
X2754Y1027D01*
X0Y1026D02*
X7Y1026D01*
X2747Y1026D02*
X2754Y1026D01*
X0Y1025D02*
X7Y1025D01*
X2747Y1025D02*
X2754Y1025D01*
X0Y1024D02*
X7Y1024D01*
X2747Y1024D02*
X2754Y1024D01*
X0Y1023D02*
X7Y1023D01*
X2747Y1023D02*
X2754Y1023D01*
X0Y1022D02*
X7Y1022D01*
X2747Y1022D02*
X2754Y1022D01*
X0Y1021D02*
X7Y1021D01*
X2747Y1021D02*
X2754Y1021D01*
X0Y1020D02*
X7Y1020D01*
X2747Y1020D02*
X2754Y1020D01*
X0Y1019D02*
X7Y1019D01*
X2747Y1019D02*
X2754Y1019D01*
X0Y1018D02*
X7Y1018D01*
X2747Y1018D02*
X2754Y1018D01*
X0Y1017D02*
X7Y1017D01*
X2747Y1017D02*
X2754Y1017D01*
X0Y1016D02*
X7Y1016D01*
X2747Y1016D02*
X2754Y1016D01*
X0Y1015D02*
X7Y1015D01*
X2747Y1015D02*
X2754Y1015D01*
X0Y1014D02*
X7Y1014D01*
X2747Y1014D02*
X2754Y1014D01*
X0Y1013D02*
X7Y1013D01*
X2747Y1013D02*
X2754Y1013D01*
X0Y1012D02*
X7Y1012D01*
X2747Y1012D02*
X2754Y1012D01*
X0Y1011D02*
X7Y1011D01*
X2747Y1011D02*
X2754Y1011D01*
X0Y1010D02*
X7Y1010D01*
X2747Y1010D02*
X2754Y1010D01*
X0Y1009D02*
X7Y1009D01*
X2747Y1009D02*
X2754Y1009D01*
X0Y1008D02*
X7Y1008D01*
X2747Y1008D02*
X2754Y1008D01*
X0Y1007D02*
X7Y1007D01*
X2747Y1007D02*
X2754Y1007D01*
X0Y1006D02*
X7Y1006D01*
X2747Y1006D02*
X2754Y1006D01*
X0Y1005D02*
X7Y1005D01*
X2747Y1005D02*
X2754Y1005D01*
X0Y1004D02*
X7Y1004D01*
X2747Y1004D02*
X2754Y1004D01*
X0Y1003D02*
X7Y1003D01*
X2747Y1003D02*
X2754Y1003D01*
X0Y1002D02*
X7Y1002D01*
X2747Y1002D02*
X2754Y1002D01*
X0Y1001D02*
X7Y1001D01*
X2747Y1001D02*
X2754Y1001D01*
X0Y1000D02*
X7Y1000D01*
X2747Y1000D02*
X2754Y1000D01*
X0Y999D02*
X7Y999D01*
X2747Y999D02*
X2754Y999D01*
X0Y998D02*
X7Y998D01*
X2747Y998D02*
X2754Y998D01*
X0Y997D02*
X7Y997D01*
X2747Y997D02*
X2754Y997D01*
X0Y996D02*
X7Y996D01*
X2747Y996D02*
X2754Y996D01*
X0Y995D02*
X7Y995D01*
X2747Y995D02*
X2754Y995D01*
X0Y994D02*
X7Y994D01*
X2747Y994D02*
X2754Y994D01*
X0Y993D02*
X7Y993D01*
X2747Y993D02*
X2754Y993D01*
X0Y992D02*
X7Y992D01*
X2747Y992D02*
X2754Y992D01*
X0Y991D02*
X7Y991D01*
X2747Y991D02*
X2754Y991D01*
X0Y990D02*
X7Y990D01*
X2747Y990D02*
X2754Y990D01*
X0Y989D02*
X7Y989D01*
X2747Y989D02*
X2754Y989D01*
X0Y988D02*
X7Y988D01*
X2747Y988D02*
X2754Y988D01*
X0Y987D02*
X7Y987D01*
X2747Y987D02*
X2754Y987D01*
X0Y986D02*
X7Y986D01*
X2747Y986D02*
X2754Y986D01*
X0Y985D02*
X7Y985D01*
X2747Y985D02*
X2754Y985D01*
X0Y984D02*
X7Y984D01*
X2747Y984D02*
X2754Y984D01*
X0Y983D02*
X7Y983D01*
X2747Y983D02*
X2754Y983D01*
X0Y982D02*
X7Y982D01*
X2747Y982D02*
X2754Y982D01*
X0Y981D02*
X7Y981D01*
X2747Y981D02*
X2754Y981D01*
X0Y980D02*
X7Y980D01*
X2747Y980D02*
X2754Y980D01*
X0Y979D02*
X7Y979D01*
X2747Y979D02*
X2754Y979D01*
X0Y978D02*
X7Y978D01*
X2747Y978D02*
X2754Y978D01*
X0Y977D02*
X7Y977D01*
X2747Y977D02*
X2754Y977D01*
X0Y976D02*
X7Y976D01*
X2747Y976D02*
X2754Y976D01*
X0Y975D02*
X7Y975D01*
X1676Y975D02*
X1679Y975D01*
X1895Y975D02*
X1898Y975D01*
X2747Y975D02*
X2754Y975D01*
X0Y974D02*
X7Y974D01*
X1674Y974D02*
X1681Y974D01*
X1893Y974D02*
X1900Y974D01*
X2747Y974D02*
X2754Y974D01*
X0Y973D02*
X7Y973D01*
X1674Y973D02*
X1681Y973D01*
X1892Y973D02*
X1900Y973D01*
X2747Y973D02*
X2754Y973D01*
X0Y972D02*
X7Y972D01*
X799Y972D02*
X811Y972D01*
X1106Y972D02*
X1108Y972D01*
X1183Y972D02*
X1194Y972D01*
X1325Y972D02*
X1336Y972D01*
X1448Y972D02*
X1467Y972D01*
X1575Y972D02*
X1578Y972D01*
X1673Y972D02*
X1681Y972D01*
X1718Y972D02*
X1733Y972D01*
X1892Y972D02*
X1900Y972D01*
X1924Y972D02*
X1931Y972D01*
X1946Y972D02*
X1953Y972D01*
X2747Y972D02*
X2754Y972D01*
X0Y971D02*
X7Y971D01*
X798Y971D02*
X812Y971D01*
X1105Y971D02*
X1109Y971D01*
X1182Y971D02*
X1196Y971D01*
X1324Y971D02*
X1337Y971D01*
X1446Y971D02*
X1469Y971D01*
X1574Y971D02*
X1579Y971D01*
X1673Y971D02*
X1682Y971D01*
X1716Y971D02*
X1734Y971D01*
X1892Y971D02*
X1900Y971D01*
X1924Y971D02*
X1932Y971D01*
X1945Y971D02*
X1953Y971D01*
X2747Y971D02*
X2754Y971D01*
X0Y970D02*
X7Y970D01*
X798Y970D02*
X812Y970D01*
X1104Y970D02*
X1109Y970D01*
X1181Y970D02*
X1198Y970D01*
X1323Y970D02*
X1337Y970D01*
X1445Y970D02*
X1470Y970D01*
X1574Y970D02*
X1579Y970D01*
X1673Y970D02*
X1682Y970D01*
X1715Y970D02*
X1734Y970D01*
X1892Y970D02*
X1900Y970D01*
X1924Y970D02*
X1932Y970D01*
X1945Y970D02*
X1953Y970D01*
X2747Y970D02*
X2754Y970D01*
X0Y969D02*
X7Y969D01*
X798Y969D02*
X812Y969D01*
X1104Y969D02*
X1110Y969D01*
X1181Y969D02*
X1199Y969D01*
X1323Y969D02*
X1337Y969D01*
X1444Y969D02*
X1471Y969D01*
X1574Y969D02*
X1579Y969D01*
X1673Y969D02*
X1681Y969D01*
X1714Y969D02*
X1734Y969D01*
X1892Y969D02*
X1900Y969D01*
X1924Y969D02*
X1933Y969D01*
X1944Y969D02*
X1953Y969D01*
X2747Y969D02*
X2754Y969D01*
X0Y968D02*
X7Y968D01*
X798Y968D02*
X812Y968D01*
X1104Y968D02*
X1110Y968D01*
X1182Y968D02*
X1200Y968D01*
X1323Y968D02*
X1337Y968D01*
X1443Y968D02*
X1471Y968D01*
X1574Y968D02*
X1579Y968D01*
X1674Y968D02*
X1681Y968D01*
X1713Y968D02*
X1734Y968D01*
X1893Y968D02*
X1900Y968D01*
X1924Y968D02*
X1934Y968D01*
X1943Y968D02*
X1953Y968D01*
X2747Y968D02*
X2754Y968D01*
X0Y967D02*
X7Y967D01*
X798Y967D02*
X811Y967D01*
X1103Y967D02*
X1110Y967D01*
X1183Y967D02*
X1200Y967D01*
X1323Y967D02*
X1336Y967D01*
X1443Y967D02*
X1471Y967D01*
X1574Y967D02*
X1579Y967D01*
X1675Y967D02*
X1680Y967D01*
X1713Y967D02*
X1733Y967D01*
X1894Y967D02*
X1899Y967D01*
X1924Y967D02*
X1935Y967D01*
X1943Y967D02*
X1953Y967D01*
X2747Y967D02*
X2754Y967D01*
X0Y966D02*
X7Y966D01*
X798Y966D02*
X803Y966D01*
X1103Y966D02*
X1111Y966D01*
X1194Y966D02*
X1201Y966D01*
X1323Y966D02*
X1328Y966D01*
X1443Y966D02*
X1448Y966D01*
X1466Y966D02*
X1472Y966D01*
X1574Y966D02*
X1579Y966D01*
X1712Y966D02*
X1718Y966D01*
X1723Y966D02*
X1728Y966D01*
X1924Y966D02*
X1935Y966D01*
X1942Y966D02*
X1953Y966D01*
X2747Y966D02*
X2754Y966D01*
X0Y965D02*
X7Y965D01*
X798Y965D02*
X803Y965D01*
X1103Y965D02*
X1111Y965D01*
X1195Y965D02*
X1201Y965D01*
X1323Y965D02*
X1328Y965D01*
X1443Y965D02*
X1448Y965D01*
X1466Y965D02*
X1472Y965D01*
X1574Y965D02*
X1579Y965D01*
X1712Y965D02*
X1718Y965D01*
X1723Y965D02*
X1728Y965D01*
X1924Y965D02*
X1936Y965D01*
X1941Y965D02*
X1953Y965D01*
X2747Y965D02*
X2754Y965D01*
X0Y964D02*
X7Y964D01*
X798Y964D02*
X803Y964D01*
X1103Y964D02*
X1111Y964D01*
X1196Y964D02*
X1201Y964D01*
X1323Y964D02*
X1328Y964D01*
X1443Y964D02*
X1448Y964D01*
X1465Y964D02*
X1471Y964D01*
X1574Y964D02*
X1579Y964D01*
X1711Y964D02*
X1717Y964D01*
X1723Y964D02*
X1728Y964D01*
X1924Y964D02*
X1937Y964D01*
X1940Y964D02*
X1953Y964D01*
X2747Y964D02*
X2754Y964D01*
X0Y963D02*
X7Y963D01*
X798Y963D02*
X803Y963D01*
X1102Y963D02*
X1111Y963D01*
X1196Y963D02*
X1201Y963D01*
X1323Y963D02*
X1328Y963D01*
X1443Y963D02*
X1447Y963D01*
X1465Y963D02*
X1471Y963D01*
X1574Y963D02*
X1579Y963D01*
X1711Y963D02*
X1716Y963D01*
X1723Y963D02*
X1728Y963D01*
X1924Y963D02*
X1929Y963D01*
X1931Y963D02*
X1937Y963D01*
X1940Y963D02*
X1946Y963D01*
X1948Y963D02*
X1953Y963D01*
X2747Y963D02*
X2754Y963D01*
X0Y962D02*
X7Y962D01*
X798Y962D02*
X803Y962D01*
X1102Y962D02*
X1112Y962D01*
X1196Y962D02*
X1201Y962D01*
X1323Y962D02*
X1328Y962D01*
X1444Y962D02*
X1446Y962D01*
X1464Y962D02*
X1471Y962D01*
X1574Y962D02*
X1579Y962D01*
X1710Y962D02*
X1716Y962D01*
X1723Y962D02*
X1728Y962D01*
X1924Y962D02*
X1929Y962D01*
X1932Y962D02*
X1946Y962D01*
X1948Y962D02*
X1953Y962D01*
X2747Y962D02*
X2754Y962D01*
X0Y961D02*
X7Y961D01*
X798Y961D02*
X803Y961D01*
X1019Y961D02*
X1020Y961D01*
X1063Y961D02*
X1063Y961D01*
X1102Y961D02*
X1112Y961D01*
X1196Y961D02*
X1202Y961D01*
X1323Y961D02*
X1328Y961D01*
X1463Y961D02*
X1470Y961D01*
X1574Y961D02*
X1579Y961D01*
X1710Y961D02*
X1715Y961D01*
X1723Y961D02*
X1728Y961D01*
X1924Y961D02*
X1929Y961D01*
X1932Y961D02*
X1945Y961D01*
X1948Y961D02*
X1953Y961D01*
X2747Y961D02*
X2754Y961D01*
X0Y960D02*
X7Y960D01*
X798Y960D02*
X803Y960D01*
X1015Y960D02*
X1023Y960D01*
X1030Y960D02*
X1033Y960D01*
X1059Y960D02*
X1067Y960D01*
X1073Y960D02*
X1077Y960D01*
X1101Y960D02*
X1112Y960D01*
X1196Y960D02*
X1202Y960D01*
X1323Y960D02*
X1328Y960D01*
X1462Y960D02*
X1469Y960D01*
X1574Y960D02*
X1579Y960D01*
X1709Y960D02*
X1715Y960D01*
X1723Y960D02*
X1728Y960D01*
X1924Y960D02*
X1929Y960D01*
X1933Y960D02*
X1944Y960D01*
X1948Y960D02*
X1953Y960D01*
X2747Y960D02*
X2754Y960D01*
X0Y959D02*
X7Y959D01*
X798Y959D02*
X803Y959D01*
X836Y959D02*
X852Y959D01*
X875Y959D02*
X877Y959D01*
X899Y959D02*
X901Y959D01*
X925Y959D02*
X939Y959D01*
X966Y959D02*
X977Y959D01*
X986Y959D02*
X989Y959D01*
X1013Y959D02*
X1025Y959D01*
X1029Y959D02*
X1034Y959D01*
X1057Y959D02*
X1069Y959D01*
X1073Y959D02*
X1077Y959D01*
X1101Y959D02*
X1113Y959D01*
X1189Y959D02*
X1206Y959D01*
X1231Y959D02*
X1245Y959D01*
X1323Y959D02*
X1328Y959D01*
X1361Y959D02*
X1377Y959D01*
X1406Y959D02*
X1420Y959D01*
X1461Y959D02*
X1468Y959D01*
X1538Y959D02*
X1551Y959D01*
X1574Y959D02*
X1579Y959D01*
X1585Y959D02*
X1595Y959D01*
X1625Y959D02*
X1639Y959D01*
X1675Y959D02*
X1686Y959D01*
X1709Y959D02*
X1714Y959D01*
X1723Y959D02*
X1728Y959D01*
X1798Y959D02*
X1817Y959D01*
X1842Y959D02*
X1860Y959D01*
X1893Y959D02*
X1905Y959D01*
X1924Y959D02*
X1929Y959D01*
X1934Y959D02*
X1943Y959D01*
X1948Y959D02*
X1953Y959D01*
X2747Y959D02*
X2754Y959D01*
X0Y958D02*
X7Y958D01*
X798Y958D02*
X803Y958D01*
X834Y958D02*
X852Y958D01*
X874Y958D02*
X878Y958D01*
X898Y958D02*
X902Y958D01*
X923Y958D02*
X940Y958D01*
X965Y958D02*
X978Y958D01*
X985Y958D02*
X990Y958D01*
X1012Y958D02*
X1026Y958D01*
X1029Y958D02*
X1034Y958D01*
X1056Y958D02*
X1070Y958D01*
X1073Y958D02*
X1078Y958D01*
X1101Y958D02*
X1113Y958D01*
X1188Y958D02*
X1207Y958D01*
X1230Y958D02*
X1247Y958D01*
X1323Y958D02*
X1328Y958D01*
X1359Y958D02*
X1378Y958D01*
X1405Y958D02*
X1422Y958D01*
X1461Y958D02*
X1468Y958D01*
X1536Y958D02*
X1553Y958D01*
X1574Y958D02*
X1579Y958D01*
X1583Y958D02*
X1597Y958D01*
X1624Y958D02*
X1641Y958D01*
X1674Y958D02*
X1687Y958D01*
X1708Y958D02*
X1714Y958D01*
X1723Y958D02*
X1728Y958D01*
X1796Y958D02*
X1818Y958D01*
X1840Y958D02*
X1862Y958D01*
X1893Y958D02*
X1906Y958D01*
X1924Y958D02*
X1929Y958D01*
X1934Y958D02*
X1943Y958D01*
X1948Y958D02*
X1953Y958D01*
X2747Y958D02*
X2754Y958D01*
X0Y957D02*
X7Y957D01*
X798Y957D02*
X803Y957D01*
X833Y957D02*
X853Y957D01*
X873Y957D02*
X878Y957D01*
X897Y957D02*
X902Y957D01*
X922Y957D02*
X942Y957D01*
X964Y957D02*
X979Y957D01*
X985Y957D02*
X990Y957D01*
X1011Y957D02*
X1027Y957D01*
X1029Y957D02*
X1034Y957D01*
X1055Y957D02*
X1078Y957D01*
X1101Y957D02*
X1106Y957D01*
X1108Y957D02*
X1113Y957D01*
X1187Y957D02*
X1207Y957D01*
X1228Y957D02*
X1248Y957D01*
X1323Y957D02*
X1328Y957D01*
X1358Y957D02*
X1378Y957D01*
X1403Y957D02*
X1423Y957D01*
X1460Y957D02*
X1467Y957D01*
X1535Y957D02*
X1554Y957D01*
X1574Y957D02*
X1579Y957D01*
X1581Y957D02*
X1598Y957D01*
X1622Y957D02*
X1642Y957D01*
X1673Y957D02*
X1687Y957D01*
X1708Y957D02*
X1713Y957D01*
X1723Y957D02*
X1728Y957D01*
X1795Y957D02*
X1819Y957D01*
X1839Y957D02*
X1863Y957D01*
X1892Y957D02*
X1906Y957D01*
X1924Y957D02*
X1929Y957D01*
X1935Y957D02*
X1942Y957D01*
X1948Y957D02*
X1953Y957D01*
X2747Y957D02*
X2754Y957D01*
X0Y956D02*
X7Y956D01*
X798Y956D02*
X803Y956D01*
X832Y956D02*
X853Y956D01*
X873Y956D02*
X879Y956D01*
X897Y956D02*
X903Y956D01*
X921Y956D02*
X943Y956D01*
X963Y956D02*
X981Y956D01*
X985Y956D02*
X990Y956D01*
X1010Y956D02*
X1034Y956D01*
X1054Y956D02*
X1078Y956D01*
X1100Y956D02*
X1106Y956D01*
X1108Y956D02*
X1114Y956D01*
X1187Y956D02*
X1207Y956D01*
X1227Y956D02*
X1249Y956D01*
X1323Y956D02*
X1328Y956D01*
X1357Y956D02*
X1378Y956D01*
X1402Y956D02*
X1424Y956D01*
X1459Y956D02*
X1466Y956D01*
X1534Y956D02*
X1556Y956D01*
X1574Y956D02*
X1599Y956D01*
X1621Y956D02*
X1643Y956D01*
X1673Y956D02*
X1687Y956D01*
X1707Y956D02*
X1713Y956D01*
X1723Y956D02*
X1728Y956D01*
X1794Y956D02*
X1820Y956D01*
X1838Y956D02*
X1864Y956D01*
X1892Y956D02*
X1906Y956D01*
X1924Y956D02*
X1929Y956D01*
X1936Y956D02*
X1941Y956D01*
X1948Y956D02*
X1953Y956D01*
X2747Y956D02*
X2754Y956D01*
X0Y955D02*
X7Y955D01*
X798Y955D02*
X803Y955D01*
X832Y955D02*
X852Y955D01*
X873Y955D02*
X879Y955D01*
X897Y955D02*
X903Y955D01*
X920Y955D02*
X944Y955D01*
X962Y955D02*
X982Y955D01*
X985Y955D02*
X990Y955D01*
X1009Y955D02*
X1034Y955D01*
X1052Y955D02*
X1078Y955D01*
X1100Y955D02*
X1105Y955D01*
X1108Y955D02*
X1114Y955D01*
X1188Y955D02*
X1207Y955D01*
X1226Y955D02*
X1250Y955D01*
X1323Y955D02*
X1328Y955D01*
X1357Y955D02*
X1378Y955D01*
X1401Y955D02*
X1425Y955D01*
X1458Y955D02*
X1465Y955D01*
X1533Y955D02*
X1557Y955D01*
X1574Y955D02*
X1600Y955D01*
X1620Y955D02*
X1644Y955D01*
X1673Y955D02*
X1687Y955D01*
X1707Y955D02*
X1712Y955D01*
X1723Y955D02*
X1728Y955D01*
X1794Y955D02*
X1821Y955D01*
X1837Y955D02*
X1864Y955D01*
X1892Y955D02*
X1906Y955D01*
X1924Y955D02*
X1929Y955D01*
X1936Y955D02*
X1941Y955D01*
X1948Y955D02*
X1953Y955D01*
X2747Y955D02*
X2754Y955D01*
X0Y954D02*
X7Y954D01*
X798Y954D02*
X803Y954D01*
X831Y954D02*
X851Y954D01*
X873Y954D02*
X879Y954D01*
X897Y954D02*
X903Y954D01*
X919Y954D02*
X944Y954D01*
X962Y954D02*
X983Y954D01*
X985Y954D02*
X990Y954D01*
X1008Y954D02*
X1016Y954D01*
X1022Y954D02*
X1034Y954D01*
X1051Y954D02*
X1060Y954D01*
X1066Y954D02*
X1078Y954D01*
X1100Y954D02*
X1105Y954D01*
X1109Y954D02*
X1114Y954D01*
X1189Y954D02*
X1206Y954D01*
X1225Y954D02*
X1251Y954D01*
X1323Y954D02*
X1328Y954D01*
X1356Y954D02*
X1376Y954D01*
X1400Y954D02*
X1426Y954D01*
X1458Y954D02*
X1464Y954D01*
X1532Y954D02*
X1557Y954D01*
X1574Y954D02*
X1601Y954D01*
X1619Y954D02*
X1645Y954D01*
X1673Y954D02*
X1686Y954D01*
X1706Y954D02*
X1712Y954D01*
X1723Y954D02*
X1728Y954D01*
X1793Y954D02*
X1821Y954D01*
X1837Y954D02*
X1865Y954D01*
X1892Y954D02*
X1905Y954D01*
X1924Y954D02*
X1929Y954D01*
X1936Y954D02*
X1941Y954D01*
X1948Y954D02*
X1953Y954D01*
X2747Y954D02*
X2754Y954D01*
X0Y953D02*
X7Y953D01*
X798Y953D02*
X803Y953D01*
X831Y953D02*
X837Y953D01*
X873Y953D02*
X879Y953D01*
X897Y953D02*
X903Y953D01*
X918Y953D02*
X926Y953D01*
X938Y953D02*
X945Y953D01*
X961Y953D02*
X967Y953D01*
X976Y953D02*
X990Y953D01*
X1007Y953D02*
X1015Y953D01*
X1023Y953D02*
X1034Y953D01*
X1051Y953D02*
X1059Y953D01*
X1067Y953D02*
X1078Y953D01*
X1099Y953D02*
X1105Y953D01*
X1109Y953D02*
X1114Y953D01*
X1196Y953D02*
X1202Y953D01*
X1225Y953D02*
X1232Y953D01*
X1244Y953D02*
X1252Y953D01*
X1323Y953D02*
X1328Y953D01*
X1356Y953D02*
X1362Y953D01*
X1400Y953D02*
X1407Y953D01*
X1419Y953D02*
X1427Y953D01*
X1457Y953D02*
X1464Y953D01*
X1531Y953D02*
X1538Y953D01*
X1551Y953D02*
X1558Y953D01*
X1574Y953D02*
X1585Y953D01*
X1594Y953D02*
X1602Y953D01*
X1619Y953D02*
X1626Y953D01*
X1638Y953D02*
X1646Y953D01*
X1673Y953D02*
X1678Y953D01*
X1706Y953D02*
X1711Y953D01*
X1723Y953D02*
X1728Y953D01*
X1794Y953D02*
X1799Y953D01*
X1816Y953D02*
X1821Y953D01*
X1837Y953D02*
X1843Y953D01*
X1859Y953D02*
X1865Y953D01*
X1892Y953D02*
X1897Y953D01*
X1924Y953D02*
X1929Y953D01*
X1936Y953D02*
X1941Y953D01*
X1948Y953D02*
X1953Y953D01*
X2747Y953D02*
X2754Y953D01*
X0Y952D02*
X7Y952D01*
X798Y952D02*
X803Y952D01*
X831Y952D02*
X836Y952D01*
X873Y952D02*
X879Y952D01*
X897Y952D02*
X903Y952D01*
X918Y952D02*
X924Y952D01*
X939Y952D02*
X946Y952D01*
X961Y952D02*
X966Y952D01*
X977Y952D02*
X990Y952D01*
X1006Y952D02*
X1014Y952D01*
X1024Y952D02*
X1034Y952D01*
X1050Y952D02*
X1057Y952D01*
X1068Y952D02*
X1078Y952D01*
X1099Y952D02*
X1104Y952D01*
X1109Y952D02*
X1115Y952D01*
X1196Y952D02*
X1202Y952D01*
X1224Y952D02*
X1231Y952D01*
X1246Y952D02*
X1252Y952D01*
X1323Y952D02*
X1328Y952D01*
X1356Y952D02*
X1361Y952D01*
X1399Y952D02*
X1406Y952D01*
X1421Y952D02*
X1427Y952D01*
X1456Y952D02*
X1463Y952D01*
X1531Y952D02*
X1537Y952D01*
X1552Y952D02*
X1558Y952D01*
X1574Y952D02*
X1584Y952D01*
X1596Y952D02*
X1602Y952D01*
X1618Y952D02*
X1625Y952D01*
X1640Y952D02*
X1646Y952D01*
X1673Y952D02*
X1678Y952D01*
X1705Y952D02*
X1711Y952D01*
X1723Y952D02*
X1728Y952D01*
X1794Y952D02*
X1797Y952D01*
X1816Y952D02*
X1821Y952D01*
X1838Y952D02*
X1841Y952D01*
X1860Y952D02*
X1865Y952D01*
X1892Y952D02*
X1897Y952D01*
X1924Y952D02*
X1929Y952D01*
X1937Y952D02*
X1940Y952D01*
X1948Y952D02*
X1953Y952D01*
X2747Y952D02*
X2754Y952D01*
X0Y951D02*
X7Y951D01*
X798Y951D02*
X803Y951D01*
X830Y951D02*
X836Y951D01*
X873Y951D02*
X879Y951D01*
X897Y951D02*
X902Y951D01*
X917Y951D02*
X923Y951D01*
X940Y951D02*
X946Y951D01*
X961Y951D02*
X966Y951D01*
X978Y951D02*
X990Y951D01*
X1005Y951D02*
X1012Y951D01*
X1025Y951D02*
X1034Y951D01*
X1049Y951D02*
X1056Y951D01*
X1069Y951D02*
X1078Y951D01*
X1099Y951D02*
X1104Y951D01*
X1110Y951D02*
X1115Y951D01*
X1196Y951D02*
X1202Y951D01*
X1224Y951D02*
X1230Y951D01*
X1247Y951D02*
X1252Y951D01*
X1323Y951D02*
X1328Y951D01*
X1356Y951D02*
X1361Y951D01*
X1399Y951D02*
X1405Y951D01*
X1422Y951D02*
X1428Y951D01*
X1455Y951D02*
X1462Y951D01*
X1530Y951D02*
X1536Y951D01*
X1553Y951D02*
X1559Y951D01*
X1574Y951D02*
X1583Y951D01*
X1597Y951D02*
X1603Y951D01*
X1618Y951D02*
X1624Y951D01*
X1641Y951D02*
X1646Y951D01*
X1673Y951D02*
X1678Y951D01*
X1705Y951D02*
X1711Y951D01*
X1723Y951D02*
X1728Y951D01*
X1816Y951D02*
X1821Y951D01*
X1859Y951D02*
X1865Y951D01*
X1892Y951D02*
X1897Y951D01*
X1924Y951D02*
X1929Y951D01*
X1948Y951D02*
X1953Y951D01*
X2747Y951D02*
X2754Y951D01*
X0Y950D02*
X7Y950D01*
X798Y950D02*
X803Y950D01*
X830Y950D02*
X835Y950D01*
X874Y950D02*
X879Y950D01*
X896Y950D02*
X902Y950D01*
X917Y950D02*
X923Y950D01*
X941Y950D02*
X946Y950D01*
X961Y950D02*
X966Y950D01*
X979Y950D02*
X990Y950D01*
X1005Y950D02*
X1011Y950D01*
X1026Y950D02*
X1034Y950D01*
X1049Y950D02*
X1055Y950D01*
X1070Y950D02*
X1078Y950D01*
X1098Y950D02*
X1104Y950D01*
X1110Y950D02*
X1115Y950D01*
X1196Y950D02*
X1202Y950D01*
X1224Y950D02*
X1229Y950D01*
X1247Y950D02*
X1253Y950D01*
X1323Y950D02*
X1328Y950D01*
X1356Y950D02*
X1361Y950D01*
X1399Y950D02*
X1404Y950D01*
X1422Y950D02*
X1428Y950D01*
X1455Y950D02*
X1461Y950D01*
X1530Y950D02*
X1535Y950D01*
X1554Y950D02*
X1559Y950D01*
X1574Y950D02*
X1582Y950D01*
X1597Y950D02*
X1603Y950D01*
X1618Y950D02*
X1623Y950D01*
X1641Y950D02*
X1647Y950D01*
X1673Y950D02*
X1678Y950D01*
X1705Y950D02*
X1710Y950D01*
X1723Y950D02*
X1728Y950D01*
X1814Y950D02*
X1821Y950D01*
X1858Y950D02*
X1865Y950D01*
X1892Y950D02*
X1897Y950D01*
X1924Y950D02*
X1929Y950D01*
X1948Y950D02*
X1953Y950D01*
X2747Y950D02*
X2754Y950D01*
X0Y949D02*
X7Y949D01*
X798Y949D02*
X803Y949D01*
X830Y949D02*
X835Y949D01*
X874Y949D02*
X880Y949D01*
X896Y949D02*
X902Y949D01*
X917Y949D02*
X922Y949D01*
X941Y949D02*
X946Y949D01*
X961Y949D02*
X966Y949D01*
X980Y949D02*
X990Y949D01*
X1005Y949D02*
X1010Y949D01*
X1027Y949D02*
X1034Y949D01*
X1049Y949D02*
X1054Y949D01*
X1071Y949D02*
X1078Y949D01*
X1098Y949D02*
X1104Y949D01*
X1110Y949D02*
X1116Y949D01*
X1196Y949D02*
X1202Y949D01*
X1224Y949D02*
X1229Y949D01*
X1248Y949D02*
X1253Y949D01*
X1323Y949D02*
X1328Y949D01*
X1356Y949D02*
X1361Y949D01*
X1399Y949D02*
X1404Y949D01*
X1423Y949D02*
X1428Y949D01*
X1454Y949D02*
X1461Y949D01*
X1530Y949D02*
X1535Y949D01*
X1554Y949D02*
X1559Y949D01*
X1574Y949D02*
X1581Y949D01*
X1598Y949D02*
X1603Y949D01*
X1618Y949D02*
X1623Y949D01*
X1642Y949D02*
X1647Y949D01*
X1673Y949D02*
X1678Y949D01*
X1705Y949D02*
X1710Y949D01*
X1723Y949D02*
X1728Y949D01*
X1812Y949D02*
X1820Y949D01*
X1856Y949D02*
X1864Y949D01*
X1892Y949D02*
X1897Y949D01*
X1924Y949D02*
X1929Y949D01*
X1948Y949D02*
X1953Y949D01*
X2747Y949D02*
X2754Y949D01*
X0Y948D02*
X7Y948D01*
X798Y948D02*
X803Y948D01*
X830Y948D02*
X835Y948D01*
X875Y948D02*
X880Y948D01*
X896Y948D02*
X901Y948D01*
X917Y948D02*
X922Y948D01*
X941Y948D02*
X946Y948D01*
X961Y948D02*
X966Y948D01*
X981Y948D02*
X990Y948D01*
X1005Y948D02*
X1010Y948D01*
X1028Y948D02*
X1034Y948D01*
X1049Y948D02*
X1054Y948D01*
X1072Y948D02*
X1078Y948D01*
X1098Y948D02*
X1103Y948D01*
X1110Y948D02*
X1116Y948D01*
X1196Y948D02*
X1202Y948D01*
X1224Y948D02*
X1229Y948D01*
X1248Y948D02*
X1253Y948D01*
X1323Y948D02*
X1328Y948D01*
X1356Y948D02*
X1361Y948D01*
X1399Y948D02*
X1404Y948D01*
X1423Y948D02*
X1428Y948D01*
X1453Y948D02*
X1460Y948D01*
X1530Y948D02*
X1535Y948D01*
X1554Y948D02*
X1559Y948D01*
X1574Y948D02*
X1580Y948D01*
X1598Y948D02*
X1603Y948D01*
X1618Y948D02*
X1623Y948D01*
X1642Y948D02*
X1647Y948D01*
X1673Y948D02*
X1678Y948D01*
X1705Y948D02*
X1710Y948D01*
X1723Y948D02*
X1728Y948D01*
X1809Y948D02*
X1820Y948D01*
X1853Y948D02*
X1864Y948D01*
X1892Y948D02*
X1897Y948D01*
X1924Y948D02*
X1929Y948D01*
X1948Y948D02*
X1953Y948D01*
X2747Y948D02*
X2754Y948D01*
X0Y947D02*
X7Y947D01*
X798Y947D02*
X803Y947D01*
X830Y947D02*
X835Y947D01*
X875Y947D02*
X881Y947D01*
X895Y947D02*
X901Y947D01*
X917Y947D02*
X922Y947D01*
X941Y947D02*
X946Y947D01*
X962Y947D02*
X965Y947D01*
X983Y947D02*
X990Y947D01*
X1005Y947D02*
X1010Y947D01*
X1029Y947D02*
X1034Y947D01*
X1048Y947D02*
X1054Y947D01*
X1072Y947D02*
X1078Y947D01*
X1098Y947D02*
X1103Y947D01*
X1111Y947D02*
X1116Y947D01*
X1196Y947D02*
X1202Y947D01*
X1224Y947D02*
X1229Y947D01*
X1248Y947D02*
X1253Y947D01*
X1323Y947D02*
X1328Y947D01*
X1356Y947D02*
X1361Y947D01*
X1399Y947D02*
X1404Y947D01*
X1423Y947D02*
X1428Y947D01*
X1452Y947D02*
X1459Y947D01*
X1530Y947D02*
X1535Y947D01*
X1554Y947D02*
X1559Y947D01*
X1574Y947D02*
X1579Y947D01*
X1598Y947D02*
X1603Y947D01*
X1618Y947D02*
X1623Y947D01*
X1642Y947D02*
X1647Y947D01*
X1673Y947D02*
X1678Y947D01*
X1705Y947D02*
X1711Y947D01*
X1723Y947D02*
X1728Y947D01*
X1807Y947D02*
X1819Y947D01*
X1851Y947D02*
X1863Y947D01*
X1892Y947D02*
X1897Y947D01*
X1924Y947D02*
X1929Y947D01*
X1948Y947D02*
X1953Y947D01*
X2747Y947D02*
X2754Y947D01*
X0Y946D02*
X7Y946D01*
X798Y946D02*
X803Y946D01*
X830Y946D02*
X854Y946D01*
X876Y946D02*
X881Y946D01*
X895Y946D02*
X900Y946D01*
X917Y946D02*
X922Y946D01*
X941Y946D02*
X946Y946D01*
X984Y946D02*
X990Y946D01*
X1005Y946D02*
X1010Y946D01*
X1029Y946D02*
X1034Y946D01*
X1048Y946D02*
X1054Y946D01*
X1073Y946D02*
X1078Y946D01*
X1097Y946D02*
X1103Y946D01*
X1111Y946D02*
X1116Y946D01*
X1196Y946D02*
X1202Y946D01*
X1224Y946D02*
X1229Y946D01*
X1248Y946D02*
X1253Y946D01*
X1323Y946D02*
X1328Y946D01*
X1356Y946D02*
X1379Y946D01*
X1399Y946D02*
X1404Y946D01*
X1423Y946D02*
X1428Y946D01*
X1451Y946D02*
X1458Y946D01*
X1530Y946D02*
X1535Y946D01*
X1554Y946D02*
X1559Y946D01*
X1574Y946D02*
X1579Y946D01*
X1598Y946D02*
X1603Y946D01*
X1618Y946D02*
X1623Y946D01*
X1642Y946D02*
X1647Y946D01*
X1673Y946D02*
X1678Y946D01*
X1705Y946D02*
X1711Y946D01*
X1723Y946D02*
X1728Y946D01*
X1805Y946D02*
X1818Y946D01*
X1849Y946D02*
X1862Y946D01*
X1892Y946D02*
X1897Y946D01*
X1924Y946D02*
X1929Y946D01*
X1948Y946D02*
X1953Y946D01*
X2747Y946D02*
X2754Y946D01*
X0Y945D02*
X7Y945D01*
X798Y945D02*
X803Y945D01*
X830Y945D02*
X855Y945D01*
X876Y945D02*
X882Y945D01*
X894Y945D02*
X900Y945D01*
X917Y945D02*
X922Y945D01*
X941Y945D02*
X946Y945D01*
X985Y945D02*
X990Y945D01*
X1005Y945D02*
X1010Y945D01*
X1029Y945D02*
X1034Y945D01*
X1048Y945D02*
X1054Y945D01*
X1073Y945D02*
X1078Y945D01*
X1097Y945D02*
X1102Y945D01*
X1111Y945D02*
X1117Y945D01*
X1196Y945D02*
X1202Y945D01*
X1224Y945D02*
X1229Y945D01*
X1248Y945D02*
X1253Y945D01*
X1323Y945D02*
X1328Y945D01*
X1355Y945D02*
X1380Y945D01*
X1399Y945D02*
X1404Y945D01*
X1423Y945D02*
X1428Y945D01*
X1451Y945D02*
X1457Y945D01*
X1530Y945D02*
X1535Y945D01*
X1554Y945D02*
X1559Y945D01*
X1574Y945D02*
X1579Y945D01*
X1598Y945D02*
X1603Y945D01*
X1618Y945D02*
X1623Y945D01*
X1642Y945D02*
X1647Y945D01*
X1673Y945D02*
X1678Y945D01*
X1706Y945D02*
X1711Y945D01*
X1723Y945D02*
X1728Y945D01*
X1803Y945D02*
X1817Y945D01*
X1846Y945D02*
X1860Y945D01*
X1892Y945D02*
X1897Y945D01*
X1924Y945D02*
X1929Y945D01*
X1948Y945D02*
X1953Y945D01*
X2747Y945D02*
X2754Y945D01*
X0Y944D02*
X7Y944D01*
X798Y944D02*
X803Y944D01*
X830Y944D02*
X856Y944D01*
X876Y944D02*
X882Y944D01*
X894Y944D02*
X900Y944D01*
X917Y944D02*
X922Y944D01*
X941Y944D02*
X946Y944D01*
X985Y944D02*
X990Y944D01*
X1005Y944D02*
X1010Y944D01*
X1029Y944D02*
X1034Y944D01*
X1048Y944D02*
X1054Y944D01*
X1073Y944D02*
X1078Y944D01*
X1097Y944D02*
X1102Y944D01*
X1112Y944D02*
X1117Y944D01*
X1196Y944D02*
X1202Y944D01*
X1224Y944D02*
X1229Y944D01*
X1248Y944D02*
X1253Y944D01*
X1323Y944D02*
X1328Y944D01*
X1355Y944D02*
X1382Y944D01*
X1399Y944D02*
X1428Y944D01*
X1450Y944D02*
X1457Y944D01*
X1530Y944D02*
X1559Y944D01*
X1574Y944D02*
X1579Y944D01*
X1598Y944D02*
X1603Y944D01*
X1618Y944D02*
X1623Y944D01*
X1642Y944D02*
X1647Y944D01*
X1673Y944D02*
X1678Y944D01*
X1706Y944D02*
X1712Y944D01*
X1723Y944D02*
X1728Y944D01*
X1800Y944D02*
X1815Y944D01*
X1844Y944D02*
X1858Y944D01*
X1892Y944D02*
X1897Y944D01*
X1924Y944D02*
X1929Y944D01*
X1948Y944D02*
X1953Y944D01*
X2747Y944D02*
X2754Y944D01*
X0Y943D02*
X7Y943D01*
X798Y943D02*
X803Y943D01*
X830Y943D02*
X857Y943D01*
X877Y943D02*
X883Y943D01*
X893Y943D02*
X899Y943D01*
X917Y943D02*
X922Y943D01*
X941Y943D02*
X946Y943D01*
X985Y943D02*
X990Y943D01*
X1005Y943D02*
X1010Y943D01*
X1029Y943D02*
X1034Y943D01*
X1048Y943D02*
X1054Y943D01*
X1073Y943D02*
X1078Y943D01*
X1096Y943D02*
X1102Y943D01*
X1112Y943D02*
X1117Y943D01*
X1196Y943D02*
X1202Y943D01*
X1224Y943D02*
X1229Y943D01*
X1248Y943D02*
X1253Y943D01*
X1323Y943D02*
X1328Y943D01*
X1355Y943D02*
X1382Y943D01*
X1399Y943D02*
X1428Y943D01*
X1449Y943D02*
X1456Y943D01*
X1530Y943D02*
X1559Y943D01*
X1574Y943D02*
X1579Y943D01*
X1598Y943D02*
X1603Y943D01*
X1618Y943D02*
X1623Y943D01*
X1642Y943D02*
X1647Y943D01*
X1673Y943D02*
X1678Y943D01*
X1707Y943D02*
X1712Y943D01*
X1723Y943D02*
X1728Y943D01*
X1798Y943D02*
X1812Y943D01*
X1842Y943D02*
X1856Y943D01*
X1892Y943D02*
X1897Y943D01*
X1924Y943D02*
X1929Y943D01*
X1948Y943D02*
X1953Y943D01*
X2747Y943D02*
X2754Y943D01*
X0Y942D02*
X7Y942D01*
X798Y942D02*
X803Y942D01*
X830Y942D02*
X858Y942D01*
X877Y942D02*
X883Y942D01*
X893Y942D02*
X899Y942D01*
X917Y942D02*
X922Y942D01*
X941Y942D02*
X946Y942D01*
X985Y942D02*
X990Y942D01*
X1005Y942D02*
X1010Y942D01*
X1029Y942D02*
X1034Y942D01*
X1048Y942D02*
X1054Y942D01*
X1073Y942D02*
X1078Y942D01*
X1096Y942D02*
X1102Y942D01*
X1112Y942D02*
X1118Y942D01*
X1196Y942D02*
X1202Y942D01*
X1224Y942D02*
X1229Y942D01*
X1248Y942D02*
X1253Y942D01*
X1323Y942D02*
X1328Y942D01*
X1355Y942D02*
X1383Y942D01*
X1399Y942D02*
X1428Y942D01*
X1448Y942D02*
X1455Y942D01*
X1530Y942D02*
X1559Y942D01*
X1574Y942D02*
X1579Y942D01*
X1598Y942D02*
X1603Y942D01*
X1618Y942D02*
X1623Y942D01*
X1642Y942D02*
X1647Y942D01*
X1673Y942D02*
X1678Y942D01*
X1707Y942D02*
X1713Y942D01*
X1723Y942D02*
X1728Y942D01*
X1796Y942D02*
X1810Y942D01*
X1840Y942D02*
X1854Y942D01*
X1892Y942D02*
X1897Y942D01*
X1924Y942D02*
X1929Y942D01*
X1948Y942D02*
X1953Y942D01*
X2747Y942D02*
X2754Y942D01*
X0Y941D02*
X7Y941D01*
X798Y941D02*
X803Y941D01*
X830Y941D02*
X858Y941D01*
X878Y941D02*
X883Y941D01*
X893Y941D02*
X898Y941D01*
X917Y941D02*
X922Y941D01*
X941Y941D02*
X946Y941D01*
X985Y941D02*
X990Y941D01*
X1005Y941D02*
X1010Y941D01*
X1029Y941D02*
X1034Y941D01*
X1048Y941D02*
X1054Y941D01*
X1073Y941D02*
X1078Y941D01*
X1096Y941D02*
X1118Y941D01*
X1196Y941D02*
X1202Y941D01*
X1224Y941D02*
X1229Y941D01*
X1248Y941D02*
X1253Y941D01*
X1323Y941D02*
X1328Y941D01*
X1355Y941D02*
X1383Y941D01*
X1399Y941D02*
X1428Y941D01*
X1448Y941D02*
X1454Y941D01*
X1530Y941D02*
X1559Y941D01*
X1574Y941D02*
X1579Y941D01*
X1598Y941D02*
X1603Y941D01*
X1618Y941D02*
X1623Y941D01*
X1642Y941D02*
X1647Y941D01*
X1673Y941D02*
X1678Y941D01*
X1707Y941D02*
X1713Y941D01*
X1723Y941D02*
X1728Y941D01*
X1795Y941D02*
X1808Y941D01*
X1839Y941D02*
X1851Y941D01*
X1892Y941D02*
X1897Y941D01*
X1924Y941D02*
X1929Y941D01*
X1948Y941D02*
X1953Y941D01*
X2747Y941D02*
X2754Y941D01*
X0Y940D02*
X7Y940D01*
X798Y940D02*
X803Y940D01*
X830Y940D02*
X836Y940D01*
X853Y940D02*
X858Y940D01*
X878Y940D02*
X884Y940D01*
X892Y940D02*
X898Y940D01*
X917Y940D02*
X922Y940D01*
X941Y940D02*
X946Y940D01*
X985Y940D02*
X990Y940D01*
X1005Y940D02*
X1010Y940D01*
X1029Y940D02*
X1034Y940D01*
X1048Y940D02*
X1054Y940D01*
X1073Y940D02*
X1078Y940D01*
X1096Y940D02*
X1118Y940D01*
X1196Y940D02*
X1202Y940D01*
X1224Y940D02*
X1229Y940D01*
X1248Y940D02*
X1253Y940D01*
X1323Y940D02*
X1328Y940D01*
X1355Y940D02*
X1362Y940D01*
X1378Y940D02*
X1384Y940D01*
X1399Y940D02*
X1428Y940D01*
X1447Y940D02*
X1454Y940D01*
X1530Y940D02*
X1559Y940D01*
X1574Y940D02*
X1579Y940D01*
X1598Y940D02*
X1603Y940D01*
X1618Y940D02*
X1623Y940D01*
X1642Y940D02*
X1647Y940D01*
X1673Y940D02*
X1678Y940D01*
X1708Y940D02*
X1714Y940D01*
X1723Y940D02*
X1728Y940D01*
X1795Y940D02*
X1805Y940D01*
X1838Y940D02*
X1849Y940D01*
X1892Y940D02*
X1897Y940D01*
X1924Y940D02*
X1929Y940D01*
X1948Y940D02*
X1953Y940D01*
X2747Y940D02*
X2754Y940D01*
X0Y939D02*
X7Y939D01*
X798Y939D02*
X803Y939D01*
X830Y939D02*
X835Y939D01*
X853Y939D02*
X859Y939D01*
X879Y939D02*
X884Y939D01*
X892Y939D02*
X897Y939D01*
X917Y939D02*
X922Y939D01*
X941Y939D02*
X946Y939D01*
X985Y939D02*
X990Y939D01*
X1005Y939D02*
X1010Y939D01*
X1029Y939D02*
X1034Y939D01*
X1048Y939D02*
X1054Y939D01*
X1073Y939D02*
X1078Y939D01*
X1095Y939D02*
X1118Y939D01*
X1196Y939D02*
X1202Y939D01*
X1224Y939D02*
X1229Y939D01*
X1248Y939D02*
X1253Y939D01*
X1323Y939D02*
X1328Y939D01*
X1355Y939D02*
X1361Y939D01*
X1379Y939D02*
X1384Y939D01*
X1400Y939D02*
X1428Y939D01*
X1446Y939D02*
X1453Y939D01*
X1531Y939D02*
X1559Y939D01*
X1574Y939D02*
X1579Y939D01*
X1598Y939D02*
X1603Y939D01*
X1618Y939D02*
X1623Y939D01*
X1642Y939D02*
X1647Y939D01*
X1673Y939D02*
X1678Y939D01*
X1708Y939D02*
X1714Y939D01*
X1723Y939D02*
X1728Y939D01*
X1794Y939D02*
X1803Y939D01*
X1838Y939D02*
X1847Y939D01*
X1892Y939D02*
X1897Y939D01*
X1924Y939D02*
X1929Y939D01*
X1948Y939D02*
X1953Y939D01*
X2747Y939D02*
X2754Y939D01*
X0Y938D02*
X7Y938D01*
X798Y938D02*
X803Y938D01*
X830Y938D02*
X835Y938D01*
X854Y938D02*
X859Y938D01*
X879Y938D02*
X885Y938D01*
X891Y938D02*
X897Y938D01*
X917Y938D02*
X922Y938D01*
X941Y938D02*
X946Y938D01*
X985Y938D02*
X990Y938D01*
X1005Y938D02*
X1010Y938D01*
X1029Y938D02*
X1034Y938D01*
X1048Y938D02*
X1054Y938D01*
X1072Y938D02*
X1078Y938D01*
X1095Y938D02*
X1119Y938D01*
X1196Y938D02*
X1202Y938D01*
X1224Y938D02*
X1229Y938D01*
X1248Y938D02*
X1253Y938D01*
X1323Y938D02*
X1328Y938D01*
X1355Y938D02*
X1360Y938D01*
X1379Y938D02*
X1384Y938D01*
X1422Y938D02*
X1428Y938D01*
X1445Y938D02*
X1452Y938D01*
X1554Y938D02*
X1559Y938D01*
X1574Y938D02*
X1579Y938D01*
X1598Y938D02*
X1603Y938D01*
X1618Y938D02*
X1623Y938D01*
X1642Y938D02*
X1647Y938D01*
X1673Y938D02*
X1678Y938D01*
X1709Y938D02*
X1715Y938D01*
X1723Y938D02*
X1728Y938D01*
X1793Y938D02*
X1801Y938D01*
X1837Y938D02*
X1844Y938D01*
X1892Y938D02*
X1897Y938D01*
X1924Y938D02*
X1929Y938D01*
X1948Y938D02*
X1953Y938D01*
X2747Y938D02*
X2754Y938D01*
X0Y937D02*
X7Y937D01*
X798Y937D02*
X803Y937D01*
X830Y937D02*
X835Y937D01*
X854Y937D02*
X859Y937D01*
X879Y937D02*
X885Y937D01*
X891Y937D02*
X896Y937D01*
X917Y937D02*
X922Y937D01*
X941Y937D02*
X946Y937D01*
X985Y937D02*
X990Y937D01*
X1005Y937D02*
X1010Y937D01*
X1028Y937D02*
X1034Y937D01*
X1049Y937D02*
X1054Y937D01*
X1072Y937D02*
X1078Y937D01*
X1095Y937D02*
X1119Y937D01*
X1196Y937D02*
X1202Y937D01*
X1224Y937D02*
X1229Y937D01*
X1248Y937D02*
X1253Y937D01*
X1323Y937D02*
X1328Y937D01*
X1355Y937D02*
X1360Y937D01*
X1379Y937D02*
X1384Y937D01*
X1423Y937D02*
X1428Y937D01*
X1444Y937D02*
X1451Y937D01*
X1554Y937D02*
X1559Y937D01*
X1574Y937D02*
X1580Y937D01*
X1598Y937D02*
X1603Y937D01*
X1618Y937D02*
X1623Y937D01*
X1642Y937D02*
X1647Y937D01*
X1673Y937D02*
X1678Y937D01*
X1709Y937D02*
X1715Y937D01*
X1723Y937D02*
X1728Y937D01*
X1793Y937D02*
X1799Y937D01*
X1837Y937D02*
X1843Y937D01*
X1892Y937D02*
X1897Y937D01*
X1924Y937D02*
X1929Y937D01*
X1948Y937D02*
X1953Y937D01*
X2747Y937D02*
X2754Y937D01*
X0Y936D02*
X7Y936D01*
X798Y936D02*
X803Y936D01*
X830Y936D02*
X835Y936D01*
X854Y936D02*
X859Y936D01*
X880Y936D02*
X886Y936D01*
X890Y936D02*
X896Y936D01*
X917Y936D02*
X922Y936D01*
X941Y936D02*
X946Y936D01*
X985Y936D02*
X990Y936D01*
X1005Y936D02*
X1010Y936D01*
X1028Y936D02*
X1034Y936D01*
X1049Y936D02*
X1054Y936D01*
X1071Y936D02*
X1078Y936D01*
X1094Y936D02*
X1119Y936D01*
X1196Y936D02*
X1202Y936D01*
X1224Y936D02*
X1229Y936D01*
X1248Y936D02*
X1253Y936D01*
X1323Y936D02*
X1328Y936D01*
X1355Y936D02*
X1360Y936D01*
X1379Y936D02*
X1384Y936D01*
X1423Y936D02*
X1428Y936D01*
X1444Y936D02*
X1450Y936D01*
X1468Y936D02*
X1470Y936D01*
X1554Y936D02*
X1559Y936D01*
X1574Y936D02*
X1581Y936D01*
X1598Y936D02*
X1603Y936D01*
X1618Y936D02*
X1623Y936D01*
X1642Y936D02*
X1647Y936D01*
X1673Y936D02*
X1678Y936D01*
X1710Y936D02*
X1716Y936D01*
X1723Y936D02*
X1728Y936D01*
X1793Y936D02*
X1798Y936D01*
X1837Y936D02*
X1842Y936D01*
X1892Y936D02*
X1897Y936D01*
X1924Y936D02*
X1929Y936D01*
X1948Y936D02*
X1953Y936D01*
X2747Y936D02*
X2754Y936D01*
X0Y935D02*
X7Y935D01*
X798Y935D02*
X803Y935D01*
X830Y935D02*
X836Y935D01*
X854Y935D02*
X859Y935D01*
X880Y935D02*
X886Y935D01*
X890Y935D02*
X896Y935D01*
X917Y935D02*
X923Y935D01*
X941Y935D02*
X946Y935D01*
X985Y935D02*
X990Y935D01*
X1005Y935D02*
X1011Y935D01*
X1026Y935D02*
X1034Y935D01*
X1049Y935D02*
X1055Y935D01*
X1070Y935D02*
X1078Y935D01*
X1094Y935D02*
X1099Y935D01*
X1114Y935D02*
X1120Y935D01*
X1196Y935D02*
X1202Y935D01*
X1224Y935D02*
X1229Y935D01*
X1247Y935D02*
X1253Y935D01*
X1323Y935D02*
X1328Y935D01*
X1355Y935D02*
X1361Y935D01*
X1379Y935D02*
X1384Y935D01*
X1422Y935D02*
X1428Y935D01*
X1443Y935D02*
X1450Y935D01*
X1467Y935D02*
X1471Y935D01*
X1554Y935D02*
X1559Y935D01*
X1574Y935D02*
X1582Y935D01*
X1597Y935D02*
X1603Y935D01*
X1618Y935D02*
X1623Y935D01*
X1641Y935D02*
X1647Y935D01*
X1673Y935D02*
X1678Y935D01*
X1710Y935D02*
X1716Y935D01*
X1723Y935D02*
X1728Y935D01*
X1793Y935D02*
X1798Y935D01*
X1837Y935D02*
X1842Y935D01*
X1892Y935D02*
X1897Y935D01*
X1924Y935D02*
X1929Y935D01*
X1948Y935D02*
X1953Y935D01*
X2747Y935D02*
X2754Y935D01*
X0Y934D02*
X7Y934D01*
X798Y934D02*
X803Y934D01*
X830Y934D02*
X837Y934D01*
X854Y934D02*
X859Y934D01*
X881Y934D02*
X886Y934D01*
X890Y934D02*
X895Y934D01*
X917Y934D02*
X923Y934D01*
X940Y934D02*
X946Y934D01*
X985Y934D02*
X990Y934D01*
X1005Y934D02*
X1012Y934D01*
X1025Y934D02*
X1034Y934D01*
X1049Y934D02*
X1056Y934D01*
X1069Y934D02*
X1078Y934D01*
X1094Y934D02*
X1099Y934D01*
X1115Y934D02*
X1120Y934D01*
X1196Y934D02*
X1202Y934D01*
X1224Y934D02*
X1230Y934D01*
X1247Y934D02*
X1252Y934D01*
X1323Y934D02*
X1328Y934D01*
X1355Y934D02*
X1363Y934D01*
X1379Y934D02*
X1384Y934D01*
X1422Y934D02*
X1428Y934D01*
X1443Y934D02*
X1449Y934D01*
X1467Y934D02*
X1472Y934D01*
X1553Y934D02*
X1559Y934D01*
X1574Y934D02*
X1583Y934D01*
X1597Y934D02*
X1603Y934D01*
X1618Y934D02*
X1624Y934D01*
X1641Y934D02*
X1646Y934D01*
X1673Y934D02*
X1678Y934D01*
X1711Y934D02*
X1717Y934D01*
X1723Y934D02*
X1728Y934D01*
X1793Y934D02*
X1798Y934D01*
X1837Y934D02*
X1842Y934D01*
X1892Y934D02*
X1897Y934D01*
X1924Y934D02*
X1929Y934D01*
X1948Y934D02*
X1953Y934D01*
X2747Y934D02*
X2754Y934D01*
X0Y933D02*
X7Y933D01*
X798Y933D02*
X803Y933D01*
X830Y933D02*
X839Y933D01*
X853Y933D02*
X859Y933D01*
X881Y933D02*
X887Y933D01*
X889Y933D02*
X895Y933D01*
X918Y933D02*
X925Y933D01*
X939Y933D02*
X946Y933D01*
X985Y933D02*
X990Y933D01*
X1006Y933D02*
X1014Y933D01*
X1024Y933D02*
X1034Y933D01*
X1050Y933D02*
X1057Y933D01*
X1068Y933D02*
X1078Y933D01*
X1094Y933D02*
X1099Y933D01*
X1115Y933D02*
X1120Y933D01*
X1196Y933D02*
X1202Y933D01*
X1224Y933D02*
X1231Y933D01*
X1245Y933D02*
X1252Y933D01*
X1323Y933D02*
X1328Y933D01*
X1355Y933D02*
X1364Y933D01*
X1379Y933D02*
X1384Y933D01*
X1421Y933D02*
X1427Y933D01*
X1443Y933D02*
X1448Y933D01*
X1466Y933D02*
X1472Y933D01*
X1552Y933D02*
X1559Y933D01*
X1574Y933D02*
X1584Y933D01*
X1596Y933D02*
X1602Y933D01*
X1618Y933D02*
X1625Y933D01*
X1639Y933D02*
X1646Y933D01*
X1673Y933D02*
X1678Y933D01*
X1711Y933D02*
X1717Y933D01*
X1723Y933D02*
X1728Y933D01*
X1793Y933D02*
X1798Y933D01*
X1817Y933D02*
X1821Y933D01*
X1837Y933D02*
X1842Y933D01*
X1861Y933D02*
X1865Y933D01*
X1892Y933D02*
X1897Y933D01*
X1924Y933D02*
X1929Y933D01*
X1948Y933D02*
X1953Y933D01*
X2747Y933D02*
X2754Y933D01*
X0Y932D02*
X7Y932D01*
X798Y932D02*
X803Y932D01*
X830Y932D02*
X841Y932D01*
X852Y932D02*
X858Y932D01*
X882Y932D02*
X894Y932D01*
X918Y932D02*
X926Y932D01*
X938Y932D02*
X945Y932D01*
X985Y932D02*
X990Y932D01*
X1007Y932D02*
X1015Y932D01*
X1023Y932D02*
X1034Y932D01*
X1050Y932D02*
X1059Y932D01*
X1067Y932D02*
X1078Y932D01*
X1093Y932D02*
X1099Y932D01*
X1115Y932D02*
X1121Y932D01*
X1196Y932D02*
X1202Y932D01*
X1225Y932D02*
X1232Y932D01*
X1244Y932D02*
X1252Y932D01*
X1323Y932D02*
X1328Y932D01*
X1355Y932D02*
X1366Y932D01*
X1378Y932D02*
X1384Y932D01*
X1419Y932D02*
X1427Y932D01*
X1443Y932D02*
X1448Y932D01*
X1466Y932D02*
X1471Y932D01*
X1550Y932D02*
X1558Y932D01*
X1574Y932D02*
X1586Y932D01*
X1594Y932D02*
X1602Y932D01*
X1619Y932D02*
X1626Y932D01*
X1638Y932D02*
X1646Y932D01*
X1673Y932D02*
X1678Y932D01*
X1712Y932D02*
X1718Y932D01*
X1723Y932D02*
X1728Y932D01*
X1793Y932D02*
X1799Y932D01*
X1816Y932D02*
X1822Y932D01*
X1837Y932D02*
X1843Y932D01*
X1860Y932D02*
X1865Y932D01*
X1892Y932D02*
X1897Y932D01*
X1924Y932D02*
X1929Y932D01*
X1948Y932D02*
X1953Y932D01*
X2747Y932D02*
X2754Y932D01*
X0Y931D02*
X7Y931D01*
X790Y931D02*
X810Y931D01*
X830Y931D02*
X858Y931D01*
X882Y931D02*
X894Y931D01*
X919Y931D02*
X945Y931D01*
X985Y931D02*
X990Y931D01*
X1008Y931D02*
X1016Y931D01*
X1022Y931D02*
X1034Y931D01*
X1051Y931D02*
X1060Y931D01*
X1066Y931D02*
X1078Y931D01*
X1093Y931D02*
X1098Y931D01*
X1115Y931D02*
X1121Y931D01*
X1196Y931D02*
X1202Y931D01*
X1225Y931D02*
X1251Y931D01*
X1316Y931D02*
X1336Y931D01*
X1355Y931D02*
X1383Y931D01*
X1400Y931D02*
X1426Y931D01*
X1443Y931D02*
X1471Y931D01*
X1532Y931D02*
X1557Y931D01*
X1574Y931D02*
X1601Y931D01*
X1619Y931D02*
X1645Y931D01*
X1666Y931D02*
X1686Y931D01*
X1712Y931D02*
X1733Y931D01*
X1793Y931D02*
X1822Y931D01*
X1837Y931D02*
X1866Y931D01*
X1885Y931D02*
X1905Y931D01*
X1924Y931D02*
X1929Y931D01*
X1948Y931D02*
X1953Y931D01*
X2747Y931D02*
X2754Y931D01*
X0Y930D02*
X7Y930D01*
X789Y930D02*
X811Y930D01*
X830Y930D02*
X858Y930D01*
X883Y930D02*
X893Y930D01*
X920Y930D02*
X944Y930D01*
X985Y930D02*
X990Y930D01*
X1009Y930D02*
X1034Y930D01*
X1053Y930D02*
X1078Y930D01*
X1093Y930D02*
X1098Y930D01*
X1116Y930D02*
X1121Y930D01*
X1196Y930D02*
X1202Y930D01*
X1226Y930D02*
X1250Y930D01*
X1315Y930D02*
X1337Y930D01*
X1355Y930D02*
X1383Y930D01*
X1399Y930D02*
X1425Y930D01*
X1443Y930D02*
X1471Y930D01*
X1531Y930D02*
X1557Y930D01*
X1574Y930D02*
X1600Y930D01*
X1620Y930D02*
X1644Y930D01*
X1665Y930D02*
X1687Y930D01*
X1713Y930D02*
X1734Y930D01*
X1794Y930D02*
X1822Y930D01*
X1838Y930D02*
X1865Y930D01*
X1884Y930D02*
X1906Y930D01*
X1924Y930D02*
X1929Y930D01*
X1948Y930D02*
X1953Y930D01*
X2747Y930D02*
X2754Y930D01*
X0Y929D02*
X7Y929D01*
X789Y929D02*
X812Y929D01*
X830Y929D02*
X857Y929D01*
X883Y929D02*
X893Y929D01*
X921Y929D02*
X943Y929D01*
X985Y929D02*
X990Y929D01*
X1010Y929D02*
X1034Y929D01*
X1054Y929D02*
X1078Y929D01*
X1092Y929D02*
X1098Y929D01*
X1116Y929D02*
X1121Y929D01*
X1196Y929D02*
X1202Y929D01*
X1227Y929D02*
X1249Y929D01*
X1314Y929D02*
X1337Y929D01*
X1355Y929D02*
X1382Y929D01*
X1399Y929D02*
X1424Y929D01*
X1443Y929D02*
X1470Y929D01*
X1530Y929D02*
X1556Y929D01*
X1574Y929D02*
X1599Y929D01*
X1621Y929D02*
X1643Y929D01*
X1664Y929D02*
X1687Y929D01*
X1714Y929D02*
X1734Y929D01*
X1795Y929D02*
X1821Y929D01*
X1838Y929D02*
X1865Y929D01*
X1883Y929D02*
X1906Y929D01*
X1924Y929D02*
X1929Y929D01*
X1948Y929D02*
X1953Y929D01*
X2747Y929D02*
X2754Y929D01*
X0Y928D02*
X7Y928D01*
X789Y928D02*
X812Y928D01*
X830Y928D02*
X856Y928D01*
X883Y928D02*
X893Y928D01*
X922Y928D02*
X942Y928D01*
X985Y928D02*
X990Y928D01*
X1011Y928D02*
X1027Y928D01*
X1029Y928D02*
X1034Y928D01*
X1055Y928D02*
X1078Y928D01*
X1092Y928D02*
X1097Y928D01*
X1116Y928D02*
X1122Y928D01*
X1196Y928D02*
X1201Y928D01*
X1228Y928D02*
X1248Y928D01*
X1314Y928D02*
X1337Y928D01*
X1355Y928D02*
X1360Y928D01*
X1362Y928D02*
X1381Y928D01*
X1399Y928D02*
X1423Y928D01*
X1444Y928D02*
X1469Y928D01*
X1530Y928D02*
X1554Y928D01*
X1574Y928D02*
X1579Y928D01*
X1581Y928D02*
X1598Y928D01*
X1622Y928D02*
X1642Y928D01*
X1664Y928D02*
X1687Y928D01*
X1714Y928D02*
X1734Y928D01*
X1796Y928D02*
X1820Y928D01*
X1839Y928D02*
X1864Y928D01*
X2747Y928D02*
X2754Y928D01*
X0Y927D02*
X7Y927D01*
X789Y927D02*
X812Y927D01*
X830Y927D02*
X834Y927D01*
X838Y927D02*
X855Y927D01*
X884Y927D02*
X892Y927D01*
X923Y927D02*
X940Y927D01*
X985Y927D02*
X990Y927D01*
X1012Y927D02*
X1026Y927D01*
X1029Y927D02*
X1034Y927D01*
X1056Y927D02*
X1070Y927D01*
X1073Y927D02*
X1078Y927D01*
X1093Y927D02*
X1097Y927D01*
X1117Y927D02*
X1121Y927D01*
X1197Y927D02*
X1201Y927D01*
X1230Y927D02*
X1247Y927D01*
X1315Y927D02*
X1337Y927D01*
X1355Y927D02*
X1360Y927D01*
X1363Y927D02*
X1380Y927D01*
X1399Y927D02*
X1422Y927D01*
X1445Y927D02*
X1468Y927D01*
X1530Y927D02*
X1553Y927D01*
X1574Y927D02*
X1578Y927D01*
X1583Y927D02*
X1597Y927D01*
X1624Y927D02*
X1641Y927D01*
X1666Y927D02*
X1687Y927D01*
X1716Y927D02*
X1734Y927D01*
X1797Y927D02*
X1818Y927D01*
X1841Y927D02*
X1862Y927D01*
X2747Y927D02*
X2754Y927D01*
X0Y926D02*
X7Y926D01*
X790Y926D02*
X811Y926D01*
X831Y926D02*
X833Y926D01*
X840Y926D02*
X853Y926D01*
X885Y926D02*
X891Y926D01*
X925Y926D02*
X938Y926D01*
X986Y926D02*
X989Y926D01*
X1013Y926D02*
X1025Y926D01*
X1029Y926D02*
X1034Y926D01*
X1057Y926D02*
X1069Y926D01*
X1073Y926D02*
X1078Y926D01*
X1094Y926D02*
X1096Y926D01*
X1118Y926D02*
X1120Y926D01*
X1198Y926D02*
X1200Y926D01*
X1232Y926D02*
X1245Y926D01*
X1315Y926D02*
X1336Y926D01*
X1356Y926D02*
X1359Y926D01*
X1365Y926D02*
X1378Y926D01*
X1400Y926D02*
X1420Y926D01*
X1446Y926D02*
X1467Y926D01*
X1531Y926D02*
X1551Y926D01*
X1575Y926D02*
X1578Y926D01*
X1585Y926D02*
X1595Y926D01*
X1626Y926D02*
X1639Y926D01*
X1670Y926D02*
X1686Y926D01*
X1718Y926D02*
X1733Y926D01*
X1799Y926D02*
X1816Y926D01*
X1842Y926D02*
X1860Y926D01*
X2747Y926D02*
X2754Y926D01*
X0Y925D02*
X7Y925D01*
X1015Y925D02*
X1023Y925D01*
X1029Y925D02*
X1034Y925D01*
X1059Y925D02*
X1067Y925D01*
X1073Y925D02*
X1078Y925D01*
X2747Y925D02*
X2754Y925D01*
X0Y924D02*
X7Y924D01*
X1029Y924D02*
X1034Y924D01*
X1073Y924D02*
X1078Y924D01*
X2747Y924D02*
X2754Y924D01*
X0Y923D02*
X7Y923D01*
X1029Y923D02*
X1034Y923D01*
X1073Y923D02*
X1078Y923D01*
X2747Y923D02*
X2754Y923D01*
X0Y922D02*
X7Y922D01*
X1029Y922D02*
X1034Y922D01*
X1073Y922D02*
X1078Y922D01*
X2747Y922D02*
X2754Y922D01*
X0Y921D02*
X7Y921D01*
X1029Y921D02*
X1034Y921D01*
X1073Y921D02*
X1078Y921D01*
X2747Y921D02*
X2754Y921D01*
X0Y920D02*
X7Y920D01*
X1029Y920D02*
X1034Y920D01*
X1073Y920D02*
X1078Y920D01*
X2747Y920D02*
X2754Y920D01*
X0Y919D02*
X7Y919D01*
X1029Y919D02*
X1034Y919D01*
X1073Y919D02*
X1078Y919D01*
X2747Y919D02*
X2754Y919D01*
X0Y918D02*
X7Y918D01*
X1029Y918D02*
X1034Y918D01*
X1073Y918D02*
X1078Y918D01*
X2747Y918D02*
X2754Y918D01*
X0Y917D02*
X7Y917D01*
X1029Y917D02*
X1034Y917D01*
X1073Y917D02*
X1078Y917D01*
X2747Y917D02*
X2754Y917D01*
X0Y916D02*
X7Y916D01*
X1029Y916D02*
X1034Y916D01*
X1073Y916D02*
X1078Y916D01*
X2747Y916D02*
X2754Y916D01*
X0Y915D02*
X7Y915D01*
X1029Y915D02*
X1034Y915D01*
X1073Y915D02*
X1078Y915D01*
X2747Y915D02*
X2754Y915D01*
X0Y914D02*
X7Y914D01*
X1029Y914D02*
X1033Y914D01*
X1073Y914D02*
X1077Y914D01*
X2747Y914D02*
X2754Y914D01*
X0Y913D02*
X7Y913D01*
X1030Y913D02*
X1032Y913D01*
X1074Y913D02*
X1076Y913D01*
X2747Y913D02*
X2754Y913D01*
X0Y912D02*
X7Y912D01*
X2747Y912D02*
X2754Y912D01*
X0Y911D02*
X7Y911D01*
X2747Y911D02*
X2754Y911D01*
X0Y910D02*
X7Y910D01*
X2747Y910D02*
X2754Y910D01*
X0Y909D02*
X7Y909D01*
X2747Y909D02*
X2754Y909D01*
X0Y908D02*
X7Y908D01*
X2747Y908D02*
X2754Y908D01*
X0Y907D02*
X7Y907D01*
X2747Y907D02*
X2754Y907D01*
X0Y906D02*
X7Y906D01*
X2747Y906D02*
X2754Y906D01*
X0Y905D02*
X7Y905D01*
X2747Y905D02*
X2754Y905D01*
X0Y904D02*
X7Y904D01*
X2747Y904D02*
X2754Y904D01*
X0Y903D02*
X7Y903D01*
X2747Y903D02*
X2754Y903D01*
X0Y902D02*
X7Y902D01*
X2747Y902D02*
X2754Y902D01*
X0Y901D02*
X7Y901D01*
X2747Y901D02*
X2754Y901D01*
X0Y900D02*
X7Y900D01*
X2747Y900D02*
X2754Y900D01*
X0Y899D02*
X7Y899D01*
X2747Y899D02*
X2754Y899D01*
X0Y898D02*
X7Y898D01*
X2747Y898D02*
X2754Y898D01*
X0Y897D02*
X7Y897D01*
X2747Y897D02*
X2754Y897D01*
X0Y896D02*
X7Y896D01*
X2747Y896D02*
X2754Y896D01*
X0Y895D02*
X7Y895D01*
X2747Y895D02*
X2754Y895D01*
X0Y894D02*
X7Y894D01*
X2552Y894D02*
X2554Y894D01*
X2747Y894D02*
X2754Y894D01*
X0Y893D02*
X7Y893D01*
X2552Y893D02*
X2555Y893D01*
X2747Y893D02*
X2754Y893D01*
X0Y892D02*
X7Y892D01*
X2552Y892D02*
X2556Y892D01*
X2747Y892D02*
X2754Y892D01*
X0Y891D02*
X7Y891D01*
X2552Y891D02*
X2558Y891D01*
X2747Y891D02*
X2754Y891D01*
X0Y890D02*
X7Y890D01*
X2552Y890D02*
X2558Y890D01*
X2747Y890D02*
X2754Y890D01*
X0Y889D02*
X7Y889D01*
X2552Y889D02*
X2559Y889D01*
X2747Y889D02*
X2754Y889D01*
X0Y888D02*
X7Y888D01*
X2552Y888D02*
X2561Y888D01*
X2747Y888D02*
X2754Y888D01*
X0Y887D02*
X7Y887D01*
X2552Y887D02*
X2561Y887D01*
X2747Y887D02*
X2754Y887D01*
X0Y886D02*
X7Y886D01*
X2554Y886D02*
X2564Y886D01*
X2747Y886D02*
X2754Y886D01*
X0Y885D02*
X7Y885D01*
X2554Y885D02*
X2564Y885D01*
X2747Y885D02*
X2754Y885D01*
X0Y884D02*
X7Y884D01*
X2557Y884D02*
X2566Y884D01*
X2747Y884D02*
X2754Y884D01*
X0Y883D02*
X7Y883D01*
X2558Y883D02*
X2566Y883D01*
X2747Y883D02*
X2754Y883D01*
X0Y882D02*
X7Y882D01*
X2559Y882D02*
X2566Y882D01*
X2747Y882D02*
X2754Y882D01*
X0Y881D02*
X7Y881D01*
X2562Y881D02*
X2564Y881D01*
X2747Y881D02*
X2754Y881D01*
X0Y880D02*
X7Y880D01*
X2562Y880D02*
X2564Y880D01*
X2747Y880D02*
X2754Y880D01*
X0Y879D02*
X7Y879D01*
X2747Y879D02*
X2754Y879D01*
X0Y878D02*
X7Y878D01*
X2747Y878D02*
X2754Y878D01*
X0Y877D02*
X7Y877D01*
X2747Y877D02*
X2754Y877D01*
X0Y876D02*
X7Y876D01*
X2747Y876D02*
X2754Y876D01*
X0Y875D02*
X7Y875D01*
X2747Y875D02*
X2754Y875D01*
X0Y874D02*
X7Y874D01*
X2747Y874D02*
X2754Y874D01*
X0Y873D02*
X7Y873D01*
X2747Y873D02*
X2754Y873D01*
X0Y872D02*
X7Y872D01*
X2747Y872D02*
X2754Y872D01*
X0Y871D02*
X7Y871D01*
X2747Y871D02*
X2754Y871D01*
X0Y870D02*
X7Y870D01*
X2747Y870D02*
X2754Y870D01*
X0Y869D02*
X7Y869D01*
X2747Y869D02*
X2754Y869D01*
X0Y868D02*
X7Y868D01*
X2747Y868D02*
X2754Y868D01*
X0Y867D02*
X7Y867D01*
X2747Y867D02*
X2754Y867D01*
X0Y866D02*
X7Y866D01*
X2747Y866D02*
X2754Y866D01*
X0Y865D02*
X7Y865D01*
X2747Y865D02*
X2754Y865D01*
X0Y864D02*
X7Y864D01*
X2747Y864D02*
X2754Y864D01*
X0Y863D02*
X7Y863D01*
X2747Y863D02*
X2754Y863D01*
X0Y862D02*
X7Y862D01*
X2747Y862D02*
X2754Y862D01*
X0Y861D02*
X7Y861D01*
X2747Y861D02*
X2754Y861D01*
X0Y860D02*
X7Y860D01*
X2747Y860D02*
X2754Y860D01*
X0Y859D02*
X7Y859D01*
X2747Y859D02*
X2754Y859D01*
X0Y858D02*
X7Y858D01*
X2747Y858D02*
X2754Y858D01*
X0Y857D02*
X7Y857D01*
X2747Y857D02*
X2754Y857D01*
X0Y856D02*
X7Y856D01*
X2747Y856D02*
X2754Y856D01*
X0Y855D02*
X7Y855D01*
X2747Y855D02*
X2754Y855D01*
X0Y854D02*
X7Y854D01*
X2747Y854D02*
X2754Y854D01*
X0Y853D02*
X7Y853D01*
X2747Y853D02*
X2754Y853D01*
X0Y852D02*
X7Y852D01*
X2747Y852D02*
X2754Y852D01*
X0Y851D02*
X7Y851D01*
X2747Y851D02*
X2754Y851D01*
X0Y850D02*
X7Y850D01*
X2747Y850D02*
X2754Y850D01*
X0Y849D02*
X7Y849D01*
X2747Y849D02*
X2754Y849D01*
X0Y848D02*
X7Y848D01*
X2747Y848D02*
X2754Y848D01*
X0Y847D02*
X7Y847D01*
X2747Y847D02*
X2754Y847D01*
X0Y846D02*
X7Y846D01*
X2747Y846D02*
X2754Y846D01*
X0Y845D02*
X7Y845D01*
X2747Y845D02*
X2754Y845D01*
X0Y844D02*
X7Y844D01*
X2747Y844D02*
X2754Y844D01*
X0Y843D02*
X7Y843D01*
X2747Y843D02*
X2754Y843D01*
X0Y842D02*
X7Y842D01*
X2747Y842D02*
X2754Y842D01*
X0Y841D02*
X7Y841D01*
X2747Y841D02*
X2754Y841D01*
X0Y840D02*
X7Y840D01*
X2747Y840D02*
X2754Y840D01*
X0Y839D02*
X7Y839D01*
X2747Y839D02*
X2754Y839D01*
X0Y838D02*
X7Y838D01*
X2747Y838D02*
X2754Y838D01*
X0Y837D02*
X7Y837D01*
X2747Y837D02*
X2754Y837D01*
X0Y836D02*
X7Y836D01*
X2747Y836D02*
X2754Y836D01*
X0Y835D02*
X7Y835D01*
X2747Y835D02*
X2754Y835D01*
X0Y834D02*
X7Y834D01*
X2747Y834D02*
X2754Y834D01*
X0Y833D02*
X7Y833D01*
X2747Y833D02*
X2754Y833D01*
X0Y832D02*
X7Y832D01*
X2747Y832D02*
X2754Y832D01*
X0Y831D02*
X7Y831D01*
X2747Y831D02*
X2754Y831D01*
X0Y830D02*
X7Y830D01*
X2747Y830D02*
X2754Y830D01*
X0Y829D02*
X7Y829D01*
X2747Y829D02*
X2754Y829D01*
X0Y828D02*
X7Y828D01*
X2747Y828D02*
X2754Y828D01*
X0Y827D02*
X7Y827D01*
X2747Y827D02*
X2754Y827D01*
X0Y826D02*
X7Y826D01*
X2747Y826D02*
X2754Y826D01*
X0Y825D02*
X7Y825D01*
X2747Y825D02*
X2754Y825D01*
X0Y824D02*
X7Y824D01*
X2747Y824D02*
X2754Y824D01*
X0Y823D02*
X7Y823D01*
X2747Y823D02*
X2754Y823D01*
X0Y822D02*
X7Y822D01*
X2747Y822D02*
X2754Y822D01*
X0Y821D02*
X7Y821D01*
X2747Y821D02*
X2754Y821D01*
X0Y820D02*
X7Y820D01*
X2747Y820D02*
X2754Y820D01*
X0Y819D02*
X7Y819D01*
X2747Y819D02*
X2754Y819D01*
X0Y818D02*
X7Y818D01*
X2747Y818D02*
X2754Y818D01*
X0Y817D02*
X7Y817D01*
X2747Y817D02*
X2754Y817D01*
X0Y816D02*
X7Y816D01*
X2747Y816D02*
X2754Y816D01*
X0Y815D02*
X7Y815D01*
X2747Y815D02*
X2754Y815D01*
X0Y814D02*
X7Y814D01*
X2747Y814D02*
X2754Y814D01*
X0Y813D02*
X7Y813D01*
X2747Y813D02*
X2754Y813D01*
X0Y812D02*
X7Y812D01*
X2747Y812D02*
X2754Y812D01*
X0Y811D02*
X7Y811D01*
X2747Y811D02*
X2754Y811D01*
X0Y810D02*
X7Y810D01*
X2747Y810D02*
X2754Y810D01*
X0Y809D02*
X7Y809D01*
X2747Y809D02*
X2754Y809D01*
X0Y808D02*
X7Y808D01*
X2747Y808D02*
X2754Y808D01*
X0Y807D02*
X7Y807D01*
X2747Y807D02*
X2754Y807D01*
X0Y806D02*
X7Y806D01*
X2747Y806D02*
X2754Y806D01*
X0Y805D02*
X7Y805D01*
X2747Y805D02*
X2754Y805D01*
X0Y804D02*
X7Y804D01*
X2747Y804D02*
X2754Y804D01*
X0Y803D02*
X7Y803D01*
X2747Y803D02*
X2754Y803D01*
X0Y802D02*
X7Y802D01*
X2747Y802D02*
X2754Y802D01*
X0Y801D02*
X7Y801D01*
X2747Y801D02*
X2754Y801D01*
X0Y800D02*
X7Y800D01*
X2747Y800D02*
X2754Y800D01*
X0Y799D02*
X7Y799D01*
X2747Y799D02*
X2754Y799D01*
X0Y798D02*
X7Y798D01*
X2747Y798D02*
X2754Y798D01*
X0Y797D02*
X7Y797D01*
X2747Y797D02*
X2754Y797D01*
X0Y796D02*
X7Y796D01*
X2747Y796D02*
X2754Y796D01*
X0Y795D02*
X7Y795D01*
X2747Y795D02*
X2754Y795D01*
X0Y794D02*
X7Y794D01*
X2747Y794D02*
X2754Y794D01*
X0Y793D02*
X7Y793D01*
X2747Y793D02*
X2754Y793D01*
X0Y792D02*
X7Y792D01*
X2747Y792D02*
X2754Y792D01*
X0Y791D02*
X7Y791D01*
X2747Y791D02*
X2754Y791D01*
X0Y790D02*
X7Y790D01*
X2747Y790D02*
X2754Y790D01*
X0Y789D02*
X7Y789D01*
X2747Y789D02*
X2754Y789D01*
X0Y788D02*
X7Y788D01*
X2747Y788D02*
X2754Y788D01*
X0Y787D02*
X7Y787D01*
X2747Y787D02*
X2754Y787D01*
X0Y786D02*
X7Y786D01*
X2747Y786D02*
X2754Y786D01*
X0Y785D02*
X7Y785D01*
X2747Y785D02*
X2754Y785D01*
X0Y784D02*
X7Y784D01*
X2747Y784D02*
X2754Y784D01*
X0Y783D02*
X7Y783D01*
X2747Y783D02*
X2754Y783D01*
X0Y782D02*
X7Y782D01*
X2747Y782D02*
X2754Y782D01*
X0Y781D02*
X7Y781D01*
X2747Y781D02*
X2754Y781D01*
X0Y780D02*
X7Y780D01*
X2747Y780D02*
X2754Y780D01*
X0Y779D02*
X7Y779D01*
X2747Y779D02*
X2754Y779D01*
X0Y778D02*
X7Y778D01*
X2747Y778D02*
X2754Y778D01*
X0Y777D02*
X7Y777D01*
X2747Y777D02*
X2754Y777D01*
X0Y776D02*
X7Y776D01*
X2747Y776D02*
X2754Y776D01*
X0Y775D02*
X7Y775D01*
X2747Y775D02*
X2754Y775D01*
X0Y774D02*
X7Y774D01*
X2747Y774D02*
X2754Y774D01*
X0Y773D02*
X7Y773D01*
X2747Y773D02*
X2754Y773D01*
X0Y772D02*
X7Y772D01*
X2747Y772D02*
X2754Y772D01*
X0Y771D02*
X7Y771D01*
X2747Y771D02*
X2754Y771D01*
X0Y770D02*
X7Y770D01*
X2747Y770D02*
X2754Y770D01*
X0Y769D02*
X7Y769D01*
X2747Y769D02*
X2754Y769D01*
X0Y768D02*
X7Y768D01*
X2747Y768D02*
X2754Y768D01*
X0Y767D02*
X7Y767D01*
X2747Y767D02*
X2754Y767D01*
X0Y766D02*
X7Y766D01*
X2747Y766D02*
X2754Y766D01*
X0Y765D02*
X7Y765D01*
X2747Y765D02*
X2754Y765D01*
X0Y764D02*
X7Y764D01*
X2747Y764D02*
X2754Y764D01*
X0Y763D02*
X7Y763D01*
X2747Y763D02*
X2754Y763D01*
X0Y762D02*
X7Y762D01*
X2747Y762D02*
X2754Y762D01*
X0Y761D02*
X7Y761D01*
X2747Y761D02*
X2754Y761D01*
X0Y760D02*
X7Y760D01*
X2747Y760D02*
X2754Y760D01*
X0Y759D02*
X7Y759D01*
X2747Y759D02*
X2754Y759D01*
X0Y758D02*
X7Y758D01*
X2747Y758D02*
X2754Y758D01*
X0Y757D02*
X7Y757D01*
X2747Y757D02*
X2754Y757D01*
X0Y756D02*
X7Y756D01*
X2747Y756D02*
X2754Y756D01*
X0Y755D02*
X7Y755D01*
X2747Y755D02*
X2754Y755D01*
X0Y754D02*
X7Y754D01*
X2747Y754D02*
X2754Y754D01*
X0Y753D02*
X7Y753D01*
X2747Y753D02*
X2754Y753D01*
X0Y752D02*
X7Y752D01*
X2747Y752D02*
X2754Y752D01*
X0Y751D02*
X7Y751D01*
X2747Y751D02*
X2754Y751D01*
X0Y750D02*
X7Y750D01*
X2747Y750D02*
X2754Y750D01*
X0Y749D02*
X7Y749D01*
X2747Y749D02*
X2754Y749D01*
X0Y748D02*
X7Y748D01*
X2747Y748D02*
X2754Y748D01*
X0Y747D02*
X7Y747D01*
X2747Y747D02*
X2754Y747D01*
X0Y746D02*
X7Y746D01*
X2747Y746D02*
X2754Y746D01*
X0Y745D02*
X7Y745D01*
X2747Y745D02*
X2754Y745D01*
X0Y744D02*
X7Y744D01*
X2747Y744D02*
X2754Y744D01*
X0Y743D02*
X7Y743D01*
X2747Y743D02*
X2754Y743D01*
X0Y742D02*
X7Y742D01*
X2747Y742D02*
X2754Y742D01*
X0Y741D02*
X7Y741D01*
X2747Y741D02*
X2754Y741D01*
X0Y740D02*
X7Y740D01*
X2747Y740D02*
X2754Y740D01*
X0Y739D02*
X7Y739D01*
X2747Y739D02*
X2754Y739D01*
X0Y738D02*
X7Y738D01*
X2747Y738D02*
X2754Y738D01*
X0Y737D02*
X7Y737D01*
X2747Y737D02*
X2754Y737D01*
X0Y736D02*
X7Y736D01*
X2747Y736D02*
X2754Y736D01*
X0Y735D02*
X7Y735D01*
X2747Y735D02*
X2754Y735D01*
X0Y734D02*
X7Y734D01*
X2747Y734D02*
X2754Y734D01*
X0Y733D02*
X7Y733D01*
X2747Y733D02*
X2754Y733D01*
X0Y732D02*
X7Y732D01*
X2747Y732D02*
X2754Y732D01*
X0Y731D02*
X7Y731D01*
X2747Y731D02*
X2754Y731D01*
X0Y730D02*
X7Y730D01*
X2747Y730D02*
X2754Y730D01*
X0Y729D02*
X7Y729D01*
X2747Y729D02*
X2754Y729D01*
X0Y728D02*
X7Y728D01*
X2747Y728D02*
X2754Y728D01*
X0Y727D02*
X7Y727D01*
X2747Y727D02*
X2754Y727D01*
X0Y726D02*
X7Y726D01*
X2747Y726D02*
X2754Y726D01*
X0Y725D02*
X7Y725D01*
X2747Y725D02*
X2754Y725D01*
X0Y724D02*
X7Y724D01*
X2747Y724D02*
X2754Y724D01*
X0Y723D02*
X7Y723D01*
X2747Y723D02*
X2754Y723D01*
X0Y722D02*
X7Y722D01*
X2747Y722D02*
X2754Y722D01*
X0Y721D02*
X7Y721D01*
X2747Y721D02*
X2754Y721D01*
X0Y720D02*
X7Y720D01*
X2747Y720D02*
X2754Y720D01*
X0Y719D02*
X7Y719D01*
X2747Y719D02*
X2754Y719D01*
X0Y718D02*
X7Y718D01*
X2747Y718D02*
X2754Y718D01*
X0Y717D02*
X7Y717D01*
X2747Y717D02*
X2754Y717D01*
X0Y716D02*
X7Y716D01*
X2747Y716D02*
X2754Y716D01*
X0Y715D02*
X7Y715D01*
X2747Y715D02*
X2754Y715D01*
X0Y714D02*
X7Y714D01*
X2747Y714D02*
X2754Y714D01*
X0Y713D02*
X7Y713D01*
X2747Y713D02*
X2754Y713D01*
X0Y712D02*
X7Y712D01*
X2747Y712D02*
X2754Y712D01*
X0Y711D02*
X7Y711D01*
X2747Y711D02*
X2754Y711D01*
X0Y710D02*
X7Y710D01*
X2747Y710D02*
X2754Y710D01*
X0Y709D02*
X7Y709D01*
X2747Y709D02*
X2754Y709D01*
X0Y708D02*
X7Y708D01*
X2747Y708D02*
X2754Y708D01*
X0Y707D02*
X7Y707D01*
X2747Y707D02*
X2754Y707D01*
X0Y706D02*
X7Y706D01*
X2747Y706D02*
X2754Y706D01*
X0Y705D02*
X7Y705D01*
X2747Y705D02*
X2754Y705D01*
X0Y704D02*
X7Y704D01*
X2747Y704D02*
X2754Y704D01*
X0Y703D02*
X7Y703D01*
X2747Y703D02*
X2754Y703D01*
X0Y702D02*
X7Y702D01*
X2747Y702D02*
X2754Y702D01*
X0Y701D02*
X7Y701D01*
X2747Y701D02*
X2754Y701D01*
X0Y700D02*
X7Y700D01*
X2747Y700D02*
X2754Y700D01*
X0Y699D02*
X7Y699D01*
X2747Y699D02*
X2754Y699D01*
X0Y698D02*
X7Y698D01*
X2747Y698D02*
X2754Y698D01*
X0Y697D02*
X7Y697D01*
X2747Y697D02*
X2754Y697D01*
X0Y696D02*
X7Y696D01*
X2747Y696D02*
X2754Y696D01*
X0Y695D02*
X7Y695D01*
X2747Y695D02*
X2754Y695D01*
X0Y694D02*
X7Y694D01*
X2747Y694D02*
X2754Y694D01*
X0Y693D02*
X7Y693D01*
X2747Y693D02*
X2754Y693D01*
X0Y692D02*
X7Y692D01*
X2747Y692D02*
X2754Y692D01*
X0Y691D02*
X7Y691D01*
X2747Y691D02*
X2754Y691D01*
X0Y690D02*
X7Y690D01*
X2747Y690D02*
X2754Y690D01*
X0Y689D02*
X7Y689D01*
X2747Y689D02*
X2754Y689D01*
X0Y688D02*
X7Y688D01*
X2747Y688D02*
X2754Y688D01*
X0Y687D02*
X7Y687D01*
X2747Y687D02*
X2754Y687D01*
X0Y686D02*
X7Y686D01*
X2747Y686D02*
X2754Y686D01*
X0Y685D02*
X7Y685D01*
X2747Y685D02*
X2754Y685D01*
X0Y684D02*
X7Y684D01*
X2747Y684D02*
X2754Y684D01*
X0Y683D02*
X7Y683D01*
X2747Y683D02*
X2754Y683D01*
X0Y682D02*
X7Y682D01*
X2747Y682D02*
X2754Y682D01*
X0Y681D02*
X7Y681D01*
X2747Y681D02*
X2754Y681D01*
X0Y680D02*
X7Y680D01*
X2747Y680D02*
X2754Y680D01*
X0Y679D02*
X7Y679D01*
X2747Y679D02*
X2754Y679D01*
X0Y678D02*
X7Y678D01*
X2747Y678D02*
X2754Y678D01*
X0Y677D02*
X7Y677D01*
X2747Y677D02*
X2754Y677D01*
X0Y676D02*
X7Y676D01*
X2747Y676D02*
X2754Y676D01*
X0Y675D02*
X7Y675D01*
X2747Y675D02*
X2754Y675D01*
X0Y674D02*
X7Y674D01*
X2747Y674D02*
X2754Y674D01*
X0Y673D02*
X7Y673D01*
X2747Y673D02*
X2754Y673D01*
X0Y672D02*
X7Y672D01*
X2747Y672D02*
X2754Y672D01*
X0Y671D02*
X7Y671D01*
X2747Y671D02*
X2754Y671D01*
X0Y670D02*
X7Y670D01*
X2747Y670D02*
X2754Y670D01*
X0Y669D02*
X7Y669D01*
X2747Y669D02*
X2754Y669D01*
X0Y668D02*
X7Y668D01*
X2747Y668D02*
X2754Y668D01*
X0Y667D02*
X7Y667D01*
X2747Y667D02*
X2754Y667D01*
X0Y666D02*
X7Y666D01*
X2747Y666D02*
X2754Y666D01*
X0Y665D02*
X7Y665D01*
X2747Y665D02*
X2754Y665D01*
X0Y664D02*
X7Y664D01*
X2747Y664D02*
X2754Y664D01*
X0Y663D02*
X7Y663D01*
X2747Y663D02*
X2754Y663D01*
X0Y662D02*
X7Y662D01*
X2747Y662D02*
X2754Y662D01*
X0Y661D02*
X7Y661D01*
X2747Y661D02*
X2754Y661D01*
X0Y660D02*
X7Y660D01*
X2747Y660D02*
X2754Y660D01*
X0Y659D02*
X7Y659D01*
X2747Y659D02*
X2754Y659D01*
X0Y658D02*
X7Y658D01*
X2747Y658D02*
X2754Y658D01*
X0Y657D02*
X7Y657D01*
X2747Y657D02*
X2754Y657D01*
X0Y656D02*
X7Y656D01*
X2747Y656D02*
X2754Y656D01*
X0Y655D02*
X7Y655D01*
X2747Y655D02*
X2754Y655D01*
X0Y654D02*
X7Y654D01*
X2747Y654D02*
X2754Y654D01*
X0Y653D02*
X7Y653D01*
X2747Y653D02*
X2754Y653D01*
X0Y652D02*
X7Y652D01*
X2747Y652D02*
X2754Y652D01*
X0Y651D02*
X7Y651D01*
X2747Y651D02*
X2754Y651D01*
X0Y650D02*
X7Y650D01*
X2747Y650D02*
X2754Y650D01*
X0Y649D02*
X7Y649D01*
X2747Y649D02*
X2754Y649D01*
X0Y648D02*
X7Y648D01*
X2747Y648D02*
X2754Y648D01*
X0Y647D02*
X7Y647D01*
X2747Y647D02*
X2754Y647D01*
X0Y646D02*
X7Y646D01*
X2747Y646D02*
X2754Y646D01*
X0Y645D02*
X7Y645D01*
X2747Y645D02*
X2754Y645D01*
X0Y644D02*
X7Y644D01*
X2747Y644D02*
X2754Y644D01*
X0Y643D02*
X7Y643D01*
X2747Y643D02*
X2754Y643D01*
X0Y642D02*
X7Y642D01*
X2747Y642D02*
X2754Y642D01*
X0Y641D02*
X7Y641D01*
X2747Y641D02*
X2754Y641D01*
X0Y640D02*
X7Y640D01*
X2747Y640D02*
X2754Y640D01*
X0Y639D02*
X7Y639D01*
X2747Y639D02*
X2754Y639D01*
X0Y638D02*
X7Y638D01*
X2747Y638D02*
X2754Y638D01*
X0Y637D02*
X7Y637D01*
X2747Y637D02*
X2754Y637D01*
X0Y636D02*
X7Y636D01*
X2747Y636D02*
X2754Y636D01*
X0Y635D02*
X7Y635D01*
X2747Y635D02*
X2754Y635D01*
X0Y634D02*
X7Y634D01*
X2747Y634D02*
X2754Y634D01*
X0Y633D02*
X7Y633D01*
X2747Y633D02*
X2754Y633D01*
X0Y632D02*
X7Y632D01*
X2747Y632D02*
X2754Y632D01*
X0Y631D02*
X7Y631D01*
X2747Y631D02*
X2754Y631D01*
X0Y630D02*
X7Y630D01*
X2747Y630D02*
X2754Y630D01*
X0Y629D02*
X7Y629D01*
X2747Y629D02*
X2754Y629D01*
X0Y628D02*
X7Y628D01*
X2747Y628D02*
X2754Y628D01*
X0Y627D02*
X7Y627D01*
X2747Y627D02*
X2754Y627D01*
X0Y626D02*
X7Y626D01*
X2747Y626D02*
X2754Y626D01*
X0Y625D02*
X7Y625D01*
X2747Y625D02*
X2754Y625D01*
X0Y624D02*
X7Y624D01*
X2747Y624D02*
X2754Y624D01*
X0Y623D02*
X7Y623D01*
X2747Y623D02*
X2754Y623D01*
X0Y622D02*
X7Y622D01*
X2747Y622D02*
X2754Y622D01*
X0Y621D02*
X7Y621D01*
X2747Y621D02*
X2754Y621D01*
X0Y620D02*
X7Y620D01*
X2747Y620D02*
X2754Y620D01*
X0Y619D02*
X7Y619D01*
X2747Y619D02*
X2754Y619D01*
X0Y618D02*
X7Y618D01*
X2747Y618D02*
X2754Y618D01*
X0Y617D02*
X7Y617D01*
X2747Y617D02*
X2754Y617D01*
X0Y616D02*
X7Y616D01*
X2747Y616D02*
X2754Y616D01*
X0Y615D02*
X7Y615D01*
X2747Y615D02*
X2754Y615D01*
X0Y614D02*
X7Y614D01*
X2747Y614D02*
X2754Y614D01*
X0Y613D02*
X7Y613D01*
X2747Y613D02*
X2754Y613D01*
X0Y612D02*
X7Y612D01*
X2747Y612D02*
X2754Y612D01*
X0Y611D02*
X7Y611D01*
X2747Y611D02*
X2754Y611D01*
X0Y610D02*
X7Y610D01*
X2747Y610D02*
X2754Y610D01*
X0Y609D02*
X7Y609D01*
X2747Y609D02*
X2754Y609D01*
X0Y608D02*
X7Y608D01*
X2747Y608D02*
X2754Y608D01*
X0Y607D02*
X7Y607D01*
X2747Y607D02*
X2754Y607D01*
X0Y606D02*
X7Y606D01*
X2747Y606D02*
X2754Y606D01*
X0Y605D02*
X7Y605D01*
X2747Y605D02*
X2754Y605D01*
X0Y604D02*
X7Y604D01*
X2747Y604D02*
X2754Y604D01*
X0Y603D02*
X7Y603D01*
X2747Y603D02*
X2754Y603D01*
X0Y602D02*
X7Y602D01*
X2747Y602D02*
X2754Y602D01*
X0Y601D02*
X7Y601D01*
X2747Y601D02*
X2754Y601D01*
X0Y600D02*
X7Y600D01*
X2747Y600D02*
X2754Y600D01*
X0Y599D02*
X7Y599D01*
X2747Y599D02*
X2754Y599D01*
X0Y598D02*
X7Y598D01*
X2747Y598D02*
X2754Y598D01*
X0Y597D02*
X7Y597D01*
X2747Y597D02*
X2754Y597D01*
X0Y596D02*
X7Y596D01*
X2747Y596D02*
X2754Y596D01*
X0Y595D02*
X7Y595D01*
X2747Y595D02*
X2754Y595D01*
X0Y594D02*
X7Y594D01*
X2747Y594D02*
X2754Y594D01*
X0Y593D02*
X7Y593D01*
X2747Y593D02*
X2754Y593D01*
X0Y592D02*
X7Y592D01*
X2747Y592D02*
X2754Y592D01*
X0Y591D02*
X7Y591D01*
X2747Y591D02*
X2754Y591D01*
X0Y590D02*
X7Y590D01*
X2747Y590D02*
X2754Y590D01*
X0Y589D02*
X7Y589D01*
X2747Y589D02*
X2754Y589D01*
X0Y588D02*
X7Y588D01*
X2747Y588D02*
X2754Y588D01*
X0Y587D02*
X7Y587D01*
X2747Y587D02*
X2754Y587D01*
X0Y586D02*
X7Y586D01*
X2747Y586D02*
X2754Y586D01*
X0Y585D02*
X7Y585D01*
X2747Y585D02*
X2754Y585D01*
X0Y584D02*
X7Y584D01*
X2747Y584D02*
X2754Y584D01*
X0Y583D02*
X7Y583D01*
X2747Y583D02*
X2754Y583D01*
X0Y582D02*
X7Y582D01*
X2747Y582D02*
X2754Y582D01*
X0Y581D02*
X7Y581D01*
X2747Y581D02*
X2754Y581D01*
X0Y580D02*
X7Y580D01*
X2747Y580D02*
X2754Y580D01*
X0Y579D02*
X7Y579D01*
X2747Y579D02*
X2754Y579D01*
X0Y578D02*
X7Y578D01*
X2747Y578D02*
X2754Y578D01*
X0Y577D02*
X7Y577D01*
X2747Y577D02*
X2754Y577D01*
X0Y576D02*
X7Y576D01*
X2747Y576D02*
X2754Y576D01*
X0Y575D02*
X7Y575D01*
X2747Y575D02*
X2754Y575D01*
X0Y574D02*
X7Y574D01*
X2747Y574D02*
X2754Y574D01*
X0Y573D02*
X7Y573D01*
X2747Y573D02*
X2754Y573D01*
X0Y572D02*
X7Y572D01*
X2747Y572D02*
X2754Y572D01*
X0Y571D02*
X7Y571D01*
X2747Y571D02*
X2754Y571D01*
X0Y570D02*
X7Y570D01*
X2747Y570D02*
X2754Y570D01*
X0Y569D02*
X7Y569D01*
X2747Y569D02*
X2754Y569D01*
X0Y568D02*
X7Y568D01*
X2747Y568D02*
X2754Y568D01*
X0Y567D02*
X7Y567D01*
X2747Y567D02*
X2754Y567D01*
X0Y566D02*
X7Y566D01*
X2747Y566D02*
X2754Y566D01*
X0Y565D02*
X7Y565D01*
X2747Y565D02*
X2754Y565D01*
X0Y564D02*
X7Y564D01*
X2747Y564D02*
X2754Y564D01*
X0Y563D02*
X7Y563D01*
X2747Y563D02*
X2754Y563D01*
X0Y562D02*
X7Y562D01*
X2747Y562D02*
X2754Y562D01*
X0Y561D02*
X7Y561D01*
X2747Y561D02*
X2754Y561D01*
X0Y560D02*
X7Y560D01*
X2747Y560D02*
X2754Y560D01*
X0Y559D02*
X7Y559D01*
X2747Y559D02*
X2754Y559D01*
X0Y558D02*
X7Y558D01*
X2747Y558D02*
X2754Y558D01*
X0Y557D02*
X7Y557D01*
X2747Y557D02*
X2754Y557D01*
X0Y556D02*
X7Y556D01*
X2747Y556D02*
X2754Y556D01*
X0Y555D02*
X7Y555D01*
X2747Y555D02*
X2754Y555D01*
X0Y554D02*
X7Y554D01*
X2747Y554D02*
X2754Y554D01*
X0Y553D02*
X7Y553D01*
X2747Y553D02*
X2754Y553D01*
X0Y552D02*
X7Y552D01*
X2747Y552D02*
X2754Y552D01*
X0Y551D02*
X7Y551D01*
X2747Y551D02*
X2754Y551D01*
X0Y550D02*
X7Y550D01*
X2747Y550D02*
X2754Y550D01*
X0Y549D02*
X7Y549D01*
X2747Y549D02*
X2754Y549D01*
X0Y548D02*
X7Y548D01*
X2747Y548D02*
X2754Y548D01*
X0Y547D02*
X7Y547D01*
X2747Y547D02*
X2754Y547D01*
X0Y546D02*
X7Y546D01*
X2747Y546D02*
X2754Y546D01*
X0Y545D02*
X7Y545D01*
X2747Y545D02*
X2754Y545D01*
X0Y544D02*
X7Y544D01*
X2747Y544D02*
X2754Y544D01*
X0Y543D02*
X7Y543D01*
X2747Y543D02*
X2754Y543D01*
X0Y542D02*
X7Y542D01*
X2747Y542D02*
X2754Y542D01*
X0Y541D02*
X7Y541D01*
X2747Y541D02*
X2754Y541D01*
X0Y540D02*
X7Y540D01*
X2747Y540D02*
X2754Y540D01*
X0Y539D02*
X7Y539D01*
X2747Y539D02*
X2754Y539D01*
X0Y538D02*
X7Y538D01*
X2747Y538D02*
X2754Y538D01*
X0Y537D02*
X7Y537D01*
X2747Y537D02*
X2754Y537D01*
X0Y536D02*
X7Y536D01*
X2747Y536D02*
X2754Y536D01*
X0Y535D02*
X7Y535D01*
X2747Y535D02*
X2754Y535D01*
X0Y534D02*
X7Y534D01*
X2747Y534D02*
X2754Y534D01*
X0Y533D02*
X7Y533D01*
X2747Y533D02*
X2754Y533D01*
X0Y532D02*
X7Y532D01*
X2747Y532D02*
X2754Y532D01*
X0Y531D02*
X7Y531D01*
X2747Y531D02*
X2754Y531D01*
X0Y530D02*
X7Y530D01*
X2747Y530D02*
X2754Y530D01*
X0Y529D02*
X7Y529D01*
X2747Y529D02*
X2754Y529D01*
X0Y528D02*
X7Y528D01*
X2747Y528D02*
X2754Y528D01*
X0Y527D02*
X7Y527D01*
X2747Y527D02*
X2754Y527D01*
X0Y526D02*
X7Y526D01*
X2747Y526D02*
X2754Y526D01*
X0Y525D02*
X7Y525D01*
X2747Y525D02*
X2754Y525D01*
X0Y524D02*
X7Y524D01*
X2747Y524D02*
X2754Y524D01*
X0Y523D02*
X7Y523D01*
X2747Y523D02*
X2754Y523D01*
X0Y522D02*
X7Y522D01*
X2747Y522D02*
X2754Y522D01*
X0Y521D02*
X7Y521D01*
X2747Y521D02*
X2754Y521D01*
X0Y520D02*
X7Y520D01*
X2747Y520D02*
X2754Y520D01*
X0Y519D02*
X7Y519D01*
X2747Y519D02*
X2754Y519D01*
X0Y518D02*
X7Y518D01*
X2747Y518D02*
X2754Y518D01*
X0Y517D02*
X7Y517D01*
X2747Y517D02*
X2754Y517D01*
X0Y516D02*
X7Y516D01*
X2747Y516D02*
X2754Y516D01*
X0Y515D02*
X7Y515D01*
X2747Y515D02*
X2754Y515D01*
X0Y514D02*
X7Y514D01*
X2747Y514D02*
X2754Y514D01*
X0Y513D02*
X7Y513D01*
X2747Y513D02*
X2754Y513D01*
X0Y512D02*
X7Y512D01*
X2747Y512D02*
X2754Y512D01*
X0Y511D02*
X7Y511D01*
X2747Y511D02*
X2754Y511D01*
X0Y510D02*
X7Y510D01*
X2747Y510D02*
X2754Y510D01*
X0Y509D02*
X7Y509D01*
X2747Y509D02*
X2754Y509D01*
X0Y508D02*
X7Y508D01*
X2747Y508D02*
X2754Y508D01*
X0Y507D02*
X7Y507D01*
X2747Y507D02*
X2754Y507D01*
X0Y506D02*
X7Y506D01*
X2747Y506D02*
X2754Y506D01*
X0Y505D02*
X7Y505D01*
X2747Y505D02*
X2754Y505D01*
X0Y504D02*
X7Y504D01*
X2747Y504D02*
X2754Y504D01*
X0Y503D02*
X7Y503D01*
X2747Y503D02*
X2754Y503D01*
X0Y502D02*
X7Y502D01*
X2747Y502D02*
X2754Y502D01*
X0Y501D02*
X7Y501D01*
X2747Y501D02*
X2754Y501D01*
X0Y500D02*
X7Y500D01*
X2747Y500D02*
X2754Y500D01*
X0Y499D02*
X7Y499D01*
X2747Y499D02*
X2754Y499D01*
X0Y498D02*
X7Y498D01*
X2747Y498D02*
X2754Y498D01*
X0Y497D02*
X7Y497D01*
X2747Y497D02*
X2754Y497D01*
X0Y496D02*
X7Y496D01*
X2747Y496D02*
X2754Y496D01*
X0Y495D02*
X7Y495D01*
X2747Y495D02*
X2754Y495D01*
X0Y494D02*
X7Y494D01*
X2747Y494D02*
X2754Y494D01*
X0Y493D02*
X7Y493D01*
X2747Y493D02*
X2754Y493D01*
X0Y492D02*
X7Y492D01*
X2747Y492D02*
X2754Y492D01*
X0Y491D02*
X7Y491D01*
X2747Y491D02*
X2754Y491D01*
X0Y490D02*
X7Y490D01*
X2747Y490D02*
X2754Y490D01*
X0Y489D02*
X7Y489D01*
X2747Y489D02*
X2754Y489D01*
X0Y488D02*
X7Y488D01*
X2747Y488D02*
X2754Y488D01*
X0Y487D02*
X7Y487D01*
X2747Y487D02*
X2754Y487D01*
X0Y486D02*
X7Y486D01*
X2747Y486D02*
X2754Y486D01*
X0Y485D02*
X7Y485D01*
X2747Y485D02*
X2754Y485D01*
X0Y484D02*
X7Y484D01*
X2747Y484D02*
X2754Y484D01*
X0Y483D02*
X7Y483D01*
X2747Y483D02*
X2754Y483D01*
X0Y482D02*
X7Y482D01*
X2747Y482D02*
X2754Y482D01*
X0Y481D02*
X7Y481D01*
X2747Y481D02*
X2754Y481D01*
X0Y480D02*
X7Y480D01*
X2747Y480D02*
X2754Y480D01*
X0Y479D02*
X7Y479D01*
X2747Y479D02*
X2754Y479D01*
X0Y478D02*
X7Y478D01*
X2747Y478D02*
X2754Y478D01*
X0Y477D02*
X7Y477D01*
X2747Y477D02*
X2754Y477D01*
X0Y476D02*
X7Y476D01*
X2747Y476D02*
X2754Y476D01*
X0Y475D02*
X7Y475D01*
X2747Y475D02*
X2754Y475D01*
X0Y474D02*
X7Y474D01*
X2747Y474D02*
X2754Y474D01*
X0Y473D02*
X7Y473D01*
X2747Y473D02*
X2754Y473D01*
X0Y472D02*
X7Y472D01*
X2747Y472D02*
X2754Y472D01*
X0Y471D02*
X7Y471D01*
X2747Y471D02*
X2754Y471D01*
X0Y470D02*
X7Y470D01*
X2747Y470D02*
X2754Y470D01*
X0Y469D02*
X7Y469D01*
X2747Y469D02*
X2754Y469D01*
X0Y468D02*
X7Y468D01*
X2747Y468D02*
X2754Y468D01*
X0Y467D02*
X7Y467D01*
X2747Y467D02*
X2754Y467D01*
X0Y466D02*
X7Y466D01*
X2747Y466D02*
X2754Y466D01*
X0Y465D02*
X7Y465D01*
X2747Y465D02*
X2754Y465D01*
X0Y464D02*
X7Y464D01*
X2747Y464D02*
X2754Y464D01*
X0Y463D02*
X7Y463D01*
X2747Y463D02*
X2754Y463D01*
X0Y462D02*
X7Y462D01*
X2747Y462D02*
X2754Y462D01*
X0Y461D02*
X7Y461D01*
X2747Y461D02*
X2754Y461D01*
X0Y460D02*
X7Y460D01*
X2747Y460D02*
X2754Y460D01*
X0Y459D02*
X7Y459D01*
X2747Y459D02*
X2754Y459D01*
X0Y458D02*
X7Y458D01*
X2747Y458D02*
X2754Y458D01*
X0Y457D02*
X7Y457D01*
X2747Y457D02*
X2754Y457D01*
X0Y456D02*
X7Y456D01*
X2747Y456D02*
X2754Y456D01*
X0Y455D02*
X7Y455D01*
X2747Y455D02*
X2754Y455D01*
X0Y454D02*
X7Y454D01*
X2747Y454D02*
X2754Y454D01*
X0Y453D02*
X7Y453D01*
X2747Y453D02*
X2754Y453D01*
X0Y452D02*
X7Y452D01*
X2747Y452D02*
X2754Y452D01*
X0Y451D02*
X7Y451D01*
X2747Y451D02*
X2754Y451D01*
X0Y450D02*
X7Y450D01*
X2747Y450D02*
X2754Y450D01*
X0Y449D02*
X7Y449D01*
X2747Y449D02*
X2754Y449D01*
X0Y448D02*
X7Y448D01*
X2747Y448D02*
X2754Y448D01*
X0Y447D02*
X7Y447D01*
X2747Y447D02*
X2754Y447D01*
X0Y446D02*
X7Y446D01*
X2747Y446D02*
X2754Y446D01*
X0Y445D02*
X7Y445D01*
X2747Y445D02*
X2754Y445D01*
X0Y444D02*
X7Y444D01*
X2747Y444D02*
X2754Y444D01*
X0Y443D02*
X7Y443D01*
X2747Y443D02*
X2754Y443D01*
X0Y442D02*
X7Y442D01*
X2747Y442D02*
X2754Y442D01*
X0Y441D02*
X7Y441D01*
X2747Y441D02*
X2754Y441D01*
X0Y440D02*
X7Y440D01*
X2747Y440D02*
X2754Y440D01*
X0Y439D02*
X7Y439D01*
X2747Y439D02*
X2754Y439D01*
X0Y438D02*
X7Y438D01*
X2747Y438D02*
X2754Y438D01*
X0Y437D02*
X7Y437D01*
X2747Y437D02*
X2754Y437D01*
X0Y436D02*
X7Y436D01*
X2747Y436D02*
X2754Y436D01*
X0Y435D02*
X7Y435D01*
X2747Y435D02*
X2754Y435D01*
X0Y434D02*
X7Y434D01*
X2747Y434D02*
X2754Y434D01*
X0Y433D02*
X7Y433D01*
X2747Y433D02*
X2754Y433D01*
X0Y432D02*
X7Y432D01*
X2747Y432D02*
X2754Y432D01*
X0Y431D02*
X7Y431D01*
X2747Y431D02*
X2754Y431D01*
X0Y430D02*
X7Y430D01*
X2747Y430D02*
X2754Y430D01*
X0Y429D02*
X7Y429D01*
X2747Y429D02*
X2754Y429D01*
X0Y428D02*
X7Y428D01*
X2747Y428D02*
X2754Y428D01*
X0Y427D02*
X7Y427D01*
X2747Y427D02*
X2754Y427D01*
X0Y426D02*
X7Y426D01*
X2747Y426D02*
X2754Y426D01*
X0Y425D02*
X7Y425D01*
X2747Y425D02*
X2754Y425D01*
X0Y424D02*
X7Y424D01*
X2747Y424D02*
X2754Y424D01*
X0Y423D02*
X7Y423D01*
X2747Y423D02*
X2754Y423D01*
X0Y422D02*
X7Y422D01*
X2747Y422D02*
X2754Y422D01*
X0Y421D02*
X7Y421D01*
X2747Y421D02*
X2754Y421D01*
X0Y420D02*
X7Y420D01*
X2747Y420D02*
X2754Y420D01*
X0Y419D02*
X7Y419D01*
X2747Y419D02*
X2754Y419D01*
X0Y418D02*
X7Y418D01*
X2747Y418D02*
X2754Y418D01*
X0Y417D02*
X7Y417D01*
X2747Y417D02*
X2754Y417D01*
X0Y416D02*
X7Y416D01*
X2747Y416D02*
X2754Y416D01*
X0Y415D02*
X7Y415D01*
X2747Y415D02*
X2754Y415D01*
X0Y414D02*
X7Y414D01*
X2747Y414D02*
X2754Y414D01*
X0Y413D02*
X7Y413D01*
X2747Y413D02*
X2754Y413D01*
X0Y412D02*
X7Y412D01*
X2747Y412D02*
X2754Y412D01*
X0Y411D02*
X7Y411D01*
X2747Y411D02*
X2754Y411D01*
X0Y410D02*
X7Y410D01*
X2747Y410D02*
X2754Y410D01*
X0Y409D02*
X7Y409D01*
X2747Y409D02*
X2754Y409D01*
X0Y408D02*
X7Y408D01*
X2747Y408D02*
X2754Y408D01*
X0Y407D02*
X7Y407D01*
X2747Y407D02*
X2754Y407D01*
X0Y406D02*
X7Y406D01*
X2747Y406D02*
X2754Y406D01*
X0Y405D02*
X7Y405D01*
X2747Y405D02*
X2754Y405D01*
X0Y404D02*
X7Y404D01*
X2747Y404D02*
X2754Y404D01*
X0Y403D02*
X7Y403D01*
X2747Y403D02*
X2754Y403D01*
X0Y402D02*
X7Y402D01*
X2747Y402D02*
X2754Y402D01*
X0Y401D02*
X7Y401D01*
X2747Y401D02*
X2754Y401D01*
X0Y400D02*
X7Y400D01*
X2747Y400D02*
X2754Y400D01*
X0Y399D02*
X7Y399D01*
X2747Y399D02*
X2754Y399D01*
X0Y398D02*
X7Y398D01*
X2747Y398D02*
X2754Y398D01*
X0Y397D02*
X7Y397D01*
X2747Y397D02*
X2754Y397D01*
X0Y396D02*
X7Y396D01*
X2747Y396D02*
X2754Y396D01*
X0Y395D02*
X7Y395D01*
X2747Y395D02*
X2754Y395D01*
X0Y394D02*
X7Y394D01*
X2747Y394D02*
X2754Y394D01*
X0Y393D02*
X7Y393D01*
X2747Y393D02*
X2754Y393D01*
X0Y392D02*
X7Y392D01*
X2747Y392D02*
X2754Y392D01*
X0Y391D02*
X7Y391D01*
X2747Y391D02*
X2754Y391D01*
X0Y390D02*
X7Y390D01*
X2747Y390D02*
X2754Y390D01*
X0Y389D02*
X7Y389D01*
X2747Y389D02*
X2754Y389D01*
X0Y388D02*
X7Y388D01*
X2747Y388D02*
X2754Y388D01*
X0Y387D02*
X7Y387D01*
X2747Y387D02*
X2754Y387D01*
X0Y386D02*
X7Y386D01*
X2747Y386D02*
X2754Y386D01*
X0Y385D02*
X7Y385D01*
X2747Y385D02*
X2754Y385D01*
X0Y384D02*
X7Y384D01*
X2747Y384D02*
X2754Y384D01*
X0Y383D02*
X7Y383D01*
X2747Y383D02*
X2754Y383D01*
X0Y382D02*
X7Y382D01*
X2747Y382D02*
X2754Y382D01*
X0Y381D02*
X7Y381D01*
X2747Y381D02*
X2754Y381D01*
X0Y380D02*
X7Y380D01*
X2747Y380D02*
X2754Y380D01*
X0Y379D02*
X7Y379D01*
X2747Y379D02*
X2754Y379D01*
X0Y378D02*
X7Y378D01*
X2747Y378D02*
X2754Y378D01*
X0Y377D02*
X7Y377D01*
X2747Y377D02*
X2754Y377D01*
X0Y376D02*
X7Y376D01*
X2747Y376D02*
X2754Y376D01*
X0Y375D02*
X7Y375D01*
X2747Y375D02*
X2754Y375D01*
X0Y374D02*
X7Y374D01*
X2747Y374D02*
X2754Y374D01*
X0Y373D02*
X7Y373D01*
X2747Y373D02*
X2754Y373D01*
X0Y372D02*
X7Y372D01*
X2747Y372D02*
X2754Y372D01*
X0Y371D02*
X7Y371D01*
X2747Y371D02*
X2754Y371D01*
X0Y370D02*
X7Y370D01*
X2747Y370D02*
X2754Y370D01*
X0Y369D02*
X7Y369D01*
X2747Y369D02*
X2754Y369D01*
X0Y368D02*
X7Y368D01*
X2747Y368D02*
X2754Y368D01*
X0Y367D02*
X7Y367D01*
X2747Y367D02*
X2754Y367D01*
X0Y366D02*
X7Y366D01*
X2747Y366D02*
X2754Y366D01*
X0Y365D02*
X7Y365D01*
X2747Y365D02*
X2754Y365D01*
X0Y364D02*
X7Y364D01*
X2747Y364D02*
X2754Y364D01*
X0Y363D02*
X7Y363D01*
X2747Y363D02*
X2754Y363D01*
X0Y362D02*
X7Y362D01*
X2747Y362D02*
X2754Y362D01*
X0Y361D02*
X7Y361D01*
X2747Y361D02*
X2754Y361D01*
X0Y360D02*
X7Y360D01*
X2747Y360D02*
X2754Y360D01*
X0Y359D02*
X7Y359D01*
X2747Y359D02*
X2754Y359D01*
X0Y358D02*
X7Y358D01*
X2747Y358D02*
X2754Y358D01*
X0Y357D02*
X7Y357D01*
X2747Y357D02*
X2754Y357D01*
X0Y356D02*
X7Y356D01*
X2747Y356D02*
X2754Y356D01*
X0Y355D02*
X7Y355D01*
X2747Y355D02*
X2754Y355D01*
X0Y354D02*
X7Y354D01*
X2747Y354D02*
X2754Y354D01*
X0Y353D02*
X7Y353D01*
X2747Y353D02*
X2754Y353D01*
X0Y352D02*
X7Y352D01*
X2747Y352D02*
X2754Y352D01*
X0Y351D02*
X7Y351D01*
X2747Y351D02*
X2754Y351D01*
X0Y350D02*
X7Y350D01*
X2747Y350D02*
X2754Y350D01*
X0Y349D02*
X7Y349D01*
X2747Y349D02*
X2754Y349D01*
X0Y348D02*
X7Y348D01*
X2747Y348D02*
X2754Y348D01*
X0Y347D02*
X7Y347D01*
X2747Y347D02*
X2754Y347D01*
X0Y346D02*
X7Y346D01*
X2747Y346D02*
X2754Y346D01*
X0Y345D02*
X7Y345D01*
X2747Y345D02*
X2754Y345D01*
X0Y344D02*
X7Y344D01*
X2747Y344D02*
X2754Y344D01*
X0Y343D02*
X7Y343D01*
X2747Y343D02*
X2754Y343D01*
X0Y342D02*
X7Y342D01*
X2747Y342D02*
X2754Y342D01*
X0Y341D02*
X7Y341D01*
X2747Y341D02*
X2754Y341D01*
X0Y340D02*
X7Y340D01*
X2747Y340D02*
X2754Y340D01*
X0Y339D02*
X7Y339D01*
X2747Y339D02*
X2754Y339D01*
X0Y338D02*
X7Y338D01*
X2747Y338D02*
X2754Y338D01*
X0Y337D02*
X7Y337D01*
X2747Y337D02*
X2754Y337D01*
X0Y336D02*
X7Y336D01*
X2747Y336D02*
X2754Y336D01*
X0Y335D02*
X7Y335D01*
X2747Y335D02*
X2754Y335D01*
X0Y334D02*
X7Y334D01*
X2747Y334D02*
X2754Y334D01*
X0Y333D02*
X7Y333D01*
X2747Y333D02*
X2754Y333D01*
X0Y332D02*
X7Y332D01*
X2747Y332D02*
X2754Y332D01*
X0Y331D02*
X7Y331D01*
X2747Y331D02*
X2754Y331D01*
X0Y330D02*
X7Y330D01*
X2747Y330D02*
X2754Y330D01*
X0Y329D02*
X7Y329D01*
X2747Y329D02*
X2754Y329D01*
X0Y328D02*
X7Y328D01*
X2747Y328D02*
X2754Y328D01*
X0Y327D02*
X7Y327D01*
X2747Y327D02*
X2754Y327D01*
X0Y326D02*
X7Y326D01*
X2747Y326D02*
X2754Y326D01*
X0Y325D02*
X7Y325D01*
X2747Y325D02*
X2754Y325D01*
X0Y324D02*
X7Y324D01*
X2747Y324D02*
X2754Y324D01*
X0Y323D02*
X7Y323D01*
X2747Y323D02*
X2754Y323D01*
X0Y322D02*
X7Y322D01*
X2747Y322D02*
X2754Y322D01*
X0Y321D02*
X7Y321D01*
X2747Y321D02*
X2754Y321D01*
X0Y320D02*
X7Y320D01*
X2747Y320D02*
X2754Y320D01*
X0Y319D02*
X7Y319D01*
X2747Y319D02*
X2754Y319D01*
X0Y318D02*
X7Y318D01*
X2747Y318D02*
X2754Y318D01*
X0Y317D02*
X7Y317D01*
X2747Y317D02*
X2754Y317D01*
X0Y316D02*
X7Y316D01*
X2747Y316D02*
X2754Y316D01*
X0Y315D02*
X7Y315D01*
X2747Y315D02*
X2754Y315D01*
X0Y314D02*
X7Y314D01*
X2747Y314D02*
X2754Y314D01*
X0Y313D02*
X7Y313D01*
X2747Y313D02*
X2754Y313D01*
X0Y312D02*
X7Y312D01*
X2747Y312D02*
X2754Y312D01*
X0Y311D02*
X7Y311D01*
X2747Y311D02*
X2754Y311D01*
X0Y310D02*
X7Y310D01*
X2747Y310D02*
X2754Y310D01*
X0Y309D02*
X7Y309D01*
X2747Y309D02*
X2754Y309D01*
X0Y308D02*
X7Y308D01*
X2747Y308D02*
X2754Y308D01*
X0Y307D02*
X7Y307D01*
X2747Y307D02*
X2754Y307D01*
X0Y306D02*
X7Y306D01*
X2747Y306D02*
X2754Y306D01*
X0Y305D02*
X7Y305D01*
X2747Y305D02*
X2754Y305D01*
X0Y304D02*
X7Y304D01*
X2747Y304D02*
X2754Y304D01*
X0Y303D02*
X7Y303D01*
X2747Y303D02*
X2754Y303D01*
X0Y302D02*
X7Y302D01*
X2747Y302D02*
X2754Y302D01*
X0Y301D02*
X7Y301D01*
X2747Y301D02*
X2754Y301D01*
X0Y300D02*
X7Y300D01*
X2747Y300D02*
X2754Y300D01*
X0Y299D02*
X7Y299D01*
X2747Y299D02*
X2754Y299D01*
X0Y298D02*
X7Y298D01*
X2747Y298D02*
X2754Y298D01*
X0Y297D02*
X7Y297D01*
X2747Y297D02*
X2754Y297D01*
X0Y296D02*
X7Y296D01*
X2747Y296D02*
X2754Y296D01*
X0Y295D02*
X7Y295D01*
X2747Y295D02*
X2754Y295D01*
X0Y294D02*
X7Y294D01*
X2747Y294D02*
X2754Y294D01*
X0Y293D02*
X7Y293D01*
X2747Y293D02*
X2754Y293D01*
X0Y292D02*
X7Y292D01*
X2747Y292D02*
X2754Y292D01*
X0Y291D02*
X7Y291D01*
X2747Y291D02*
X2754Y291D01*
X0Y290D02*
X7Y290D01*
X2747Y290D02*
X2754Y290D01*
X0Y289D02*
X7Y289D01*
X2747Y289D02*
X2754Y289D01*
X0Y288D02*
X7Y288D01*
X2747Y288D02*
X2754Y288D01*
X0Y287D02*
X7Y287D01*
X2747Y287D02*
X2754Y287D01*
X0Y286D02*
X7Y286D01*
X2747Y286D02*
X2754Y286D01*
X0Y285D02*
X7Y285D01*
X2747Y285D02*
X2754Y285D01*
X0Y284D02*
X7Y284D01*
X2747Y284D02*
X2754Y284D01*
X0Y283D02*
X7Y283D01*
X2747Y283D02*
X2754Y283D01*
X0Y282D02*
X7Y282D01*
X2747Y282D02*
X2754Y282D01*
X0Y281D02*
X7Y281D01*
X2747Y281D02*
X2754Y281D01*
X0Y280D02*
X7Y280D01*
X2747Y280D02*
X2754Y280D01*
X0Y279D02*
X7Y279D01*
X2747Y279D02*
X2754Y279D01*
X0Y278D02*
X7Y278D01*
X2747Y278D02*
X2754Y278D01*
X0Y277D02*
X7Y277D01*
X2747Y277D02*
X2754Y277D01*
X0Y276D02*
X7Y276D01*
X2747Y276D02*
X2754Y276D01*
X0Y275D02*
X7Y275D01*
X2747Y275D02*
X2754Y275D01*
X0Y274D02*
X7Y274D01*
X2747Y274D02*
X2754Y274D01*
X0Y273D02*
X7Y273D01*
X2747Y273D02*
X2754Y273D01*
X0Y272D02*
X7Y272D01*
X2747Y272D02*
X2754Y272D01*
X0Y271D02*
X7Y271D01*
X2747Y271D02*
X2754Y271D01*
X0Y270D02*
X7Y270D01*
X2747Y270D02*
X2754Y270D01*
X0Y269D02*
X7Y269D01*
X2747Y269D02*
X2754Y269D01*
X0Y268D02*
X7Y268D01*
X2747Y268D02*
X2754Y268D01*
X0Y267D02*
X7Y267D01*
X2747Y267D02*
X2754Y267D01*
X0Y266D02*
X7Y266D01*
X2747Y266D02*
X2754Y266D01*
X0Y265D02*
X7Y265D01*
X2747Y265D02*
X2754Y265D01*
X0Y264D02*
X7Y264D01*
X2747Y264D02*
X2754Y264D01*
X0Y263D02*
X7Y263D01*
X2747Y263D02*
X2754Y263D01*
X0Y262D02*
X7Y262D01*
X2747Y262D02*
X2754Y262D01*
X0Y261D02*
X7Y261D01*
X2747Y261D02*
X2754Y261D01*
X0Y260D02*
X7Y260D01*
X2747Y260D02*
X2754Y260D01*
X0Y259D02*
X7Y259D01*
X2747Y259D02*
X2754Y259D01*
X0Y258D02*
X7Y258D01*
X2747Y258D02*
X2754Y258D01*
X0Y257D02*
X7Y257D01*
X2747Y257D02*
X2754Y257D01*
X0Y256D02*
X7Y256D01*
X2747Y256D02*
X2754Y256D01*
X0Y255D02*
X7Y255D01*
X2747Y255D02*
X2754Y255D01*
X0Y254D02*
X7Y254D01*
X2747Y254D02*
X2754Y254D01*
X0Y253D02*
X7Y253D01*
X2747Y253D02*
X2754Y253D01*
X0Y252D02*
X7Y252D01*
X2747Y252D02*
X2754Y252D01*
X0Y251D02*
X7Y251D01*
X2747Y251D02*
X2754Y251D01*
X0Y250D02*
X7Y250D01*
X2747Y250D02*
X2754Y250D01*
X0Y249D02*
X7Y249D01*
X2747Y249D02*
X2754Y249D01*
X0Y248D02*
X7Y248D01*
X2747Y248D02*
X2754Y248D01*
X0Y247D02*
X7Y247D01*
X2747Y247D02*
X2754Y247D01*
X0Y246D02*
X7Y246D01*
X2747Y246D02*
X2754Y246D01*
X0Y245D02*
X7Y245D01*
X2747Y245D02*
X2754Y245D01*
X0Y244D02*
X7Y244D01*
X2747Y244D02*
X2754Y244D01*
X0Y243D02*
X7Y243D01*
X2747Y243D02*
X2754Y243D01*
X0Y242D02*
X7Y242D01*
X2747Y242D02*
X2754Y242D01*
X0Y241D02*
X7Y241D01*
X2747Y241D02*
X2754Y241D01*
X0Y240D02*
X7Y240D01*
X2747Y240D02*
X2754Y240D01*
X0Y239D02*
X7Y239D01*
X2747Y239D02*
X2754Y239D01*
X0Y238D02*
X7Y238D01*
X2747Y238D02*
X2754Y238D01*
X0Y237D02*
X7Y237D01*
X2747Y237D02*
X2754Y237D01*
X0Y236D02*
X7Y236D01*
X2747Y236D02*
X2754Y236D01*
X0Y235D02*
X7Y235D01*
X2747Y235D02*
X2754Y235D01*
X0Y234D02*
X7Y234D01*
X2747Y234D02*
X2754Y234D01*
X0Y233D02*
X7Y233D01*
X2747Y233D02*
X2754Y233D01*
X0Y232D02*
X7Y232D01*
X2747Y232D02*
X2754Y232D01*
X0Y231D02*
X7Y231D01*
X2747Y231D02*
X2754Y231D01*
X0Y230D02*
X7Y230D01*
X2747Y230D02*
X2754Y230D01*
X0Y229D02*
X7Y229D01*
X2747Y229D02*
X2754Y229D01*
X0Y228D02*
X7Y228D01*
X2747Y228D02*
X2754Y228D01*
X0Y227D02*
X7Y227D01*
X2747Y227D02*
X2754Y227D01*
X0Y226D02*
X7Y226D01*
X2747Y226D02*
X2754Y226D01*
X0Y225D02*
X7Y225D01*
X2747Y225D02*
X2754Y225D01*
X0Y224D02*
X7Y224D01*
X2747Y224D02*
X2754Y224D01*
X0Y223D02*
X7Y223D01*
X2747Y223D02*
X2754Y223D01*
X0Y222D02*
X7Y222D01*
X2747Y222D02*
X2754Y222D01*
X0Y221D02*
X7Y221D01*
X2747Y221D02*
X2754Y221D01*
X0Y220D02*
X7Y220D01*
X2747Y220D02*
X2754Y220D01*
X0Y219D02*
X7Y219D01*
X2747Y219D02*
X2754Y219D01*
X0Y218D02*
X7Y218D01*
X2747Y218D02*
X2754Y218D01*
X0Y217D02*
X7Y217D01*
X2747Y217D02*
X2754Y217D01*
X0Y216D02*
X7Y216D01*
X2747Y216D02*
X2754Y216D01*
X0Y215D02*
X7Y215D01*
X2747Y215D02*
X2754Y215D01*
X0Y214D02*
X7Y214D01*
X2747Y214D02*
X2754Y214D01*
X0Y213D02*
X7Y213D01*
X2747Y213D02*
X2754Y213D01*
X0Y212D02*
X7Y212D01*
X2747Y212D02*
X2754Y212D01*
X0Y211D02*
X7Y211D01*
X2747Y211D02*
X2754Y211D01*
X0Y210D02*
X7Y210D01*
X2747Y210D02*
X2754Y210D01*
X0Y209D02*
X7Y209D01*
X2747Y209D02*
X2754Y209D01*
X0Y208D02*
X7Y208D01*
X2747Y208D02*
X2754Y208D01*
X0Y207D02*
X7Y207D01*
X2747Y207D02*
X2754Y207D01*
X0Y206D02*
X7Y206D01*
X2747Y206D02*
X2754Y206D01*
X0Y205D02*
X7Y205D01*
X2747Y205D02*
X2754Y205D01*
X0Y204D02*
X7Y204D01*
X2747Y204D02*
X2754Y204D01*
X0Y203D02*
X7Y203D01*
X2747Y203D02*
X2754Y203D01*
X0Y202D02*
X7Y202D01*
X2747Y202D02*
X2754Y202D01*
X0Y201D02*
X7Y201D01*
X2747Y201D02*
X2754Y201D01*
X0Y200D02*
X7Y200D01*
X2747Y200D02*
X2754Y200D01*
X0Y199D02*
X7Y199D01*
X2747Y199D02*
X2754Y199D01*
X0Y198D02*
X7Y198D01*
X2747Y198D02*
X2754Y198D01*
X0Y197D02*
X7Y197D01*
X2747Y197D02*
X2754Y197D01*
X0Y196D02*
X7Y196D01*
X2747Y196D02*
X2754Y196D01*
X0Y195D02*
X7Y195D01*
X2747Y195D02*
X2754Y195D01*
X0Y194D02*
X7Y194D01*
X2747Y194D02*
X2754Y194D01*
X0Y193D02*
X7Y193D01*
X2747Y193D02*
X2754Y193D01*
X0Y192D02*
X7Y192D01*
X2747Y192D02*
X2754Y192D01*
X0Y191D02*
X7Y191D01*
X2747Y191D02*
X2754Y191D01*
X0Y190D02*
X7Y190D01*
X2747Y190D02*
X2754Y190D01*
X0Y189D02*
X7Y189D01*
X2747Y189D02*
X2754Y189D01*
X0Y188D02*
X7Y188D01*
X2747Y188D02*
X2754Y188D01*
X0Y187D02*
X7Y187D01*
X2747Y187D02*
X2754Y187D01*
X0Y186D02*
X7Y186D01*
X2747Y186D02*
X2754Y186D01*
X0Y185D02*
X7Y185D01*
X2747Y185D02*
X2754Y185D01*
X0Y184D02*
X7Y184D01*
X2747Y184D02*
X2754Y184D01*
X0Y183D02*
X7Y183D01*
X2747Y183D02*
X2754Y183D01*
X0Y182D02*
X7Y182D01*
X2747Y182D02*
X2754Y182D01*
X0Y181D02*
X7Y181D01*
X2747Y181D02*
X2754Y181D01*
X0Y180D02*
X7Y180D01*
X2747Y180D02*
X2754Y180D01*
X0Y179D02*
X7Y179D01*
X2747Y179D02*
X2754Y179D01*
X0Y178D02*
X7Y178D01*
X2747Y178D02*
X2754Y178D01*
X0Y177D02*
X7Y177D01*
X2747Y177D02*
X2754Y177D01*
X0Y176D02*
X7Y176D01*
X2747Y176D02*
X2754Y176D01*
X0Y175D02*
X7Y175D01*
X2747Y175D02*
X2754Y175D01*
X0Y174D02*
X7Y174D01*
X2747Y174D02*
X2754Y174D01*
X0Y173D02*
X7Y173D01*
X2747Y173D02*
X2754Y173D01*
X0Y172D02*
X7Y172D01*
X2747Y172D02*
X2754Y172D01*
X0Y171D02*
X7Y171D01*
X2747Y171D02*
X2754Y171D01*
X0Y170D02*
X7Y170D01*
X2747Y170D02*
X2754Y170D01*
X0Y169D02*
X7Y169D01*
X2747Y169D02*
X2754Y169D01*
X0Y168D02*
X7Y168D01*
X2747Y168D02*
X2754Y168D01*
X0Y167D02*
X7Y167D01*
X2747Y167D02*
X2754Y167D01*
X0Y166D02*
X7Y166D01*
X2747Y166D02*
X2754Y166D01*
X0Y165D02*
X7Y165D01*
X2747Y165D02*
X2754Y165D01*
X0Y164D02*
X7Y164D01*
X2747Y164D02*
X2754Y164D01*
X0Y163D02*
X7Y163D01*
X2747Y163D02*
X2754Y163D01*
X0Y162D02*
X7Y162D01*
X2747Y162D02*
X2754Y162D01*
X0Y161D02*
X7Y161D01*
X2747Y161D02*
X2754Y161D01*
X0Y160D02*
X7Y160D01*
X2747Y160D02*
X2754Y160D01*
X0Y159D02*
X7Y159D01*
X2747Y159D02*
X2754Y159D01*
X0Y158D02*
X7Y158D01*
X2747Y158D02*
X2754Y158D01*
X0Y157D02*
X7Y157D01*
X2747Y157D02*
X2754Y157D01*
X0Y156D02*
X7Y156D01*
X2747Y156D02*
X2754Y156D01*
X0Y155D02*
X7Y155D01*
X2747Y155D02*
X2754Y155D01*
X0Y154D02*
X7Y154D01*
X2747Y154D02*
X2754Y154D01*
X0Y153D02*
X7Y153D01*
X2747Y153D02*
X2754Y153D01*
X0Y152D02*
X7Y152D01*
X2747Y152D02*
X2754Y152D01*
X0Y151D02*
X7Y151D01*
X2747Y151D02*
X2754Y151D01*
X0Y150D02*
X7Y150D01*
X2747Y150D02*
X2754Y150D01*
X0Y149D02*
X7Y149D01*
X2747Y149D02*
X2754Y149D01*
X0Y148D02*
X7Y148D01*
X2747Y148D02*
X2754Y148D01*
X0Y147D02*
X7Y147D01*
X2747Y147D02*
X2754Y147D01*
X0Y146D02*
X7Y146D01*
X2747Y146D02*
X2754Y146D01*
X0Y145D02*
X7Y145D01*
X2747Y145D02*
X2754Y145D01*
X0Y144D02*
X7Y144D01*
X2747Y144D02*
X2754Y144D01*
X0Y143D02*
X7Y143D01*
X2747Y143D02*
X2754Y143D01*
X0Y142D02*
X7Y142D01*
X2747Y142D02*
X2754Y142D01*
X0Y141D02*
X7Y141D01*
X2747Y141D02*
X2754Y141D01*
X0Y140D02*
X7Y140D01*
X2747Y140D02*
X2754Y140D01*
X0Y139D02*
X7Y139D01*
X2747Y139D02*
X2754Y139D01*
X0Y138D02*
X7Y138D01*
X2747Y138D02*
X2754Y138D01*
X0Y137D02*
X7Y137D01*
X2747Y137D02*
X2754Y137D01*
X0Y136D02*
X7Y136D01*
X2747Y136D02*
X2754Y136D01*
X0Y135D02*
X7Y135D01*
X2747Y135D02*
X2754Y135D01*
X0Y134D02*
X7Y134D01*
X2747Y134D02*
X2754Y134D01*
X0Y133D02*
X7Y133D01*
X2747Y133D02*
X2754Y133D01*
X0Y132D02*
X7Y132D01*
X2747Y132D02*
X2754Y132D01*
X0Y131D02*
X7Y131D01*
X2747Y131D02*
X2754Y131D01*
X0Y130D02*
X7Y130D01*
X2747Y130D02*
X2754Y130D01*
X0Y129D02*
X7Y129D01*
X2747Y129D02*
X2754Y129D01*
X0Y128D02*
X7Y128D01*
X2747Y128D02*
X2754Y128D01*
X0Y127D02*
X7Y127D01*
X2747Y127D02*
X2754Y127D01*
X0Y126D02*
X7Y126D01*
X2747Y126D02*
X2754Y126D01*
X0Y125D02*
X7Y125D01*
X2747Y125D02*
X2754Y125D01*
X0Y124D02*
X7Y124D01*
X2747Y124D02*
X2754Y124D01*
X0Y123D02*
X7Y123D01*
X2747Y123D02*
X2754Y123D01*
X0Y122D02*
X7Y122D01*
X2747Y122D02*
X2754Y122D01*
X0Y121D02*
X7Y121D01*
X2747Y121D02*
X2754Y121D01*
X0Y120D02*
X7Y120D01*
X2747Y120D02*
X2754Y120D01*
X0Y119D02*
X7Y119D01*
X2747Y119D02*
X2754Y119D01*
X0Y118D02*
X7Y118D01*
X2747Y118D02*
X2754Y118D01*
X0Y117D02*
X7Y117D01*
X2747Y117D02*
X2754Y117D01*
X0Y116D02*
X7Y116D01*
X2747Y116D02*
X2754Y116D01*
X0Y115D02*
X7Y115D01*
X2747Y115D02*
X2754Y115D01*
X0Y114D02*
X7Y114D01*
X2747Y114D02*
X2754Y114D01*
X0Y113D02*
X7Y113D01*
X2747Y113D02*
X2754Y113D01*
X0Y112D02*
X7Y112D01*
X2747Y112D02*
X2754Y112D01*
X0Y111D02*
X7Y111D01*
X2747Y111D02*
X2754Y111D01*
X0Y110D02*
X7Y110D01*
X2747Y110D02*
X2754Y110D01*
X0Y109D02*
X7Y109D01*
X2747Y109D02*
X2754Y109D01*
X0Y108D02*
X7Y108D01*
X2747Y108D02*
X2754Y108D01*
X0Y107D02*
X7Y107D01*
X2747Y107D02*
X2754Y107D01*
X0Y106D02*
X7Y106D01*
X2747Y106D02*
X2754Y106D01*
X0Y105D02*
X7Y105D01*
X2747Y105D02*
X2754Y105D01*
X0Y104D02*
X7Y104D01*
X2747Y104D02*
X2754Y104D01*
X0Y103D02*
X7Y103D01*
X2747Y103D02*
X2754Y103D01*
X0Y102D02*
X7Y102D01*
X2747Y102D02*
X2754Y102D01*
X0Y101D02*
X7Y101D01*
X2747Y101D02*
X2754Y101D01*
X0Y100D02*
X7Y100D01*
X2747Y100D02*
X2754Y100D01*
X0Y99D02*
X7Y99D01*
X2747Y99D02*
X2754Y99D01*
X0Y98D02*
X7Y98D01*
X2747Y98D02*
X2754Y98D01*
X0Y97D02*
X7Y97D01*
X2747Y97D02*
X2754Y97D01*
X0Y96D02*
X7Y96D01*
X2747Y96D02*
X2754Y96D01*
X0Y95D02*
X7Y95D01*
X2747Y95D02*
X2754Y95D01*
X0Y94D02*
X7Y94D01*
X2747Y94D02*
X2754Y94D01*
X0Y93D02*
X7Y93D01*
X2747Y93D02*
X2754Y93D01*
X0Y92D02*
X7Y92D01*
X2747Y92D02*
X2754Y92D01*
X0Y91D02*
X7Y91D01*
X2747Y91D02*
X2754Y91D01*
X0Y90D02*
X7Y90D01*
X2747Y90D02*
X2754Y90D01*
X0Y89D02*
X7Y89D01*
X2747Y89D02*
X2754Y89D01*
X0Y88D02*
X7Y88D01*
X2747Y88D02*
X2754Y88D01*
X0Y87D02*
X7Y87D01*
X2747Y87D02*
X2754Y87D01*
X0Y86D02*
X7Y86D01*
X2747Y86D02*
X2754Y86D01*
X0Y85D02*
X7Y85D01*
X2747Y85D02*
X2754Y85D01*
X0Y84D02*
X7Y84D01*
X2747Y84D02*
X2754Y84D01*
X0Y83D02*
X7Y83D01*
X2747Y83D02*
X2754Y83D01*
X0Y82D02*
X7Y82D01*
X2747Y82D02*
X2754Y82D01*
X0Y81D02*
X7Y81D01*
X2747Y81D02*
X2754Y81D01*
X0Y80D02*
X7Y80D01*
X2747Y80D02*
X2754Y80D01*
X0Y79D02*
X7Y79D01*
X2747Y79D02*
X2754Y79D01*
X0Y78D02*
X7Y78D01*
X2747Y78D02*
X2754Y78D01*
X0Y77D02*
X7Y77D01*
X2747Y77D02*
X2754Y77D01*
X0Y76D02*
X7Y76D01*
X2747Y76D02*
X2754Y76D01*
X0Y75D02*
X7Y75D01*
X2747Y75D02*
X2754Y75D01*
X0Y74D02*
X7Y74D01*
X2747Y74D02*
X2754Y74D01*
X0Y73D02*
X7Y73D01*
X2747Y73D02*
X2754Y73D01*
X0Y72D02*
X7Y72D01*
X2747Y72D02*
X2754Y72D01*
X0Y71D02*
X7Y71D01*
X2747Y71D02*
X2754Y71D01*
X0Y70D02*
X7Y70D01*
X2747Y70D02*
X2754Y70D01*
X0Y69D02*
X7Y69D01*
X2747Y69D02*
X2754Y69D01*
X0Y68D02*
X7Y68D01*
X2747Y68D02*
X2754Y68D01*
X0Y67D02*
X7Y67D01*
X2747Y67D02*
X2754Y67D01*
X0Y66D02*
X7Y66D01*
X2747Y66D02*
X2754Y66D01*
X0Y65D02*
X7Y65D01*
X2747Y65D02*
X2754Y65D01*
X0Y64D02*
X7Y64D01*
X2747Y64D02*
X2754Y64D01*
X0Y63D02*
X7Y63D01*
X2747Y63D02*
X2754Y63D01*
X0Y62D02*
X7Y62D01*
X2747Y62D02*
X2754Y62D01*
X0Y61D02*
X7Y61D01*
X2747Y61D02*
X2754Y61D01*
X0Y60D02*
X7Y60D01*
X2747Y60D02*
X2754Y60D01*
X0Y59D02*
X7Y59D01*
X2747Y59D02*
X2754Y59D01*
X0Y58D02*
X7Y58D01*
X2747Y58D02*
X2754Y58D01*
X0Y57D02*
X7Y57D01*
X2747Y57D02*
X2754Y57D01*
X0Y56D02*
X7Y56D01*
X2747Y56D02*
X2754Y56D01*
X0Y55D02*
X7Y55D01*
X2747Y55D02*
X2754Y55D01*
X0Y54D02*
X7Y54D01*
X2747Y54D02*
X2754Y54D01*
X0Y53D02*
X7Y53D01*
X2747Y53D02*
X2754Y53D01*
X0Y52D02*
X7Y52D01*
X2747Y52D02*
X2754Y52D01*
X0Y51D02*
X7Y51D01*
X2747Y51D02*
X2754Y51D01*
X0Y50D02*
X7Y50D01*
X2747Y50D02*
X2754Y50D01*
X0Y49D02*
X7Y49D01*
X2747Y49D02*
X2754Y49D01*
X0Y48D02*
X7Y48D01*
X2747Y48D02*
X2754Y48D01*
X0Y47D02*
X7Y47D01*
X2747Y47D02*
X2754Y47D01*
X0Y46D02*
X7Y46D01*
X2747Y46D02*
X2754Y46D01*
X0Y45D02*
X7Y45D01*
X2747Y45D02*
X2754Y45D01*
X0Y44D02*
X7Y44D01*
X2747Y44D02*
X2754Y44D01*
X0Y43D02*
X7Y43D01*
X2747Y43D02*
X2754Y43D01*
X0Y42D02*
X7Y42D01*
X2747Y42D02*
X2754Y42D01*
X0Y41D02*
X7Y41D01*
X2747Y41D02*
X2754Y41D01*
X0Y40D02*
X7Y40D01*
X2747Y40D02*
X2754Y40D01*
X0Y39D02*
X7Y39D01*
X2747Y39D02*
X2754Y39D01*
X0Y38D02*
X7Y38D01*
X2747Y38D02*
X2754Y38D01*
X0Y37D02*
X7Y37D01*
X2747Y37D02*
X2754Y37D01*
X0Y36D02*
X7Y36D01*
X2747Y36D02*
X2754Y36D01*
X0Y35D02*
X7Y35D01*
X2747Y35D02*
X2754Y35D01*
X0Y34D02*
X7Y34D01*
X2747Y34D02*
X2754Y34D01*
X0Y33D02*
X7Y33D01*
X2747Y33D02*
X2754Y33D01*
X0Y32D02*
X7Y32D01*
X2747Y32D02*
X2754Y32D01*
X0Y31D02*
X7Y31D01*
X2747Y31D02*
X2754Y31D01*
X0Y30D02*
X7Y30D01*
X2747Y30D02*
X2754Y30D01*
X0Y29D02*
X7Y29D01*
X2747Y29D02*
X2754Y29D01*
X0Y28D02*
X7Y28D01*
X2747Y28D02*
X2754Y28D01*
X0Y27D02*
X7Y27D01*
X2747Y27D02*
X2754Y27D01*
X0Y26D02*
X7Y26D01*
X2747Y26D02*
X2754Y26D01*
X0Y25D02*
X7Y25D01*
X2747Y25D02*
X2754Y25D01*
X0Y24D02*
X7Y24D01*
X2747Y24D02*
X2754Y24D01*
X0Y23D02*
X7Y23D01*
X2747Y23D02*
X2754Y23D01*
X0Y22D02*
X7Y22D01*
X2747Y22D02*
X2754Y22D01*
X0Y21D02*
X7Y21D01*
X2747Y21D02*
X2754Y21D01*
X0Y20D02*
X7Y20D01*
X2747Y20D02*
X2754Y20D01*
X0Y19D02*
X7Y19D01*
X2747Y19D02*
X2754Y19D01*
X0Y18D02*
X7Y18D01*
X2747Y18D02*
X2754Y18D01*
X0Y17D02*
X7Y17D01*
X2747Y17D02*
X2754Y17D01*
X0Y16D02*
X7Y16D01*
X2747Y16D02*
X2754Y16D01*
X0Y15D02*
X7Y15D01*
X2747Y15D02*
X2754Y15D01*
X0Y14D02*
X7Y14D01*
X2747Y14D02*
X2754Y14D01*
X0Y13D02*
X7Y13D01*
X2747Y13D02*
X2754Y13D01*
X0Y12D02*
X7Y12D01*
X2747Y12D02*
X2754Y12D01*
X0Y11D02*
X7Y11D01*
X2747Y11D02*
X2754Y11D01*
X0Y10D02*
X7Y10D01*
X2747Y10D02*
X2754Y10D01*
X0Y9D02*
X7Y9D01*
X2747Y9D02*
X2754Y9D01*
X0Y8D02*
X2754Y8D01*
X0Y7D02*
X2754Y7D01*
X0Y6D02*
X2754Y6D01*
X0Y5D02*
X2754Y5D01*
X0Y4D02*
X2754Y4D01*
X0Y3D02*
X2754Y3D01*
X0Y2D02*
X2754Y2D01*
X0Y1D02*
X2754Y1D01*
D02*
G04 End of Silk0*
M02*