G04 MADE WITH FRITZING*
G04 WWW.FRITZING.ORG*
G04 DOUBLE SIDED*
G04 HOLES PLATED*
G04 CONTOUR ON CENTER OF CONTOUR VECTOR*
%ASAXBY*%
%FSLAX23Y23*%
%MOIN*%
%OFA0B0*%
%SFA1.0B1.0*%
%ADD10C,0.075000*%
%ADD11C,0.080000*%
%ADD12C,0.078000*%
%ADD13C,0.062992*%
%ADD14R,0.080000X0.080000*%
%ADD15R,0.075000X0.075000*%
%ADD16R,0.078000X0.078000*%
%ADD17R,0.062992X0.062992*%
%ADD18C,0.024000*%
%ADD19R,0.001000X0.001000*%
%LNCOPPER1*%
G90*
G70*
G54D10*
X1758Y485D03*
X1758Y885D03*
X138Y485D03*
X138Y885D03*
X1657Y485D03*
X1657Y885D03*
X238Y485D03*
X238Y885D03*
X747Y408D03*
X1147Y408D03*
G54D11*
X2508Y888D03*
X2508Y750D03*
G54D10*
X1920Y886D03*
X2220Y886D03*
X1920Y786D03*
X2220Y786D03*
X1920Y686D03*
X2220Y686D03*
X1920Y586D03*
X2220Y586D03*
X1920Y486D03*
X2220Y486D03*
X1920Y386D03*
X2220Y386D03*
X1920Y286D03*
X2220Y286D03*
X1920Y186D03*
X2220Y186D03*
G54D12*
X2508Y472D03*
X2508Y372D03*
X2508Y272D03*
G54D13*
X1317Y884D03*
X1317Y786D03*
X577Y884D03*
X577Y786D03*
G54D10*
X820Y686D03*
X1076Y686D03*
X820Y509D03*
X1076Y509D03*
G54D11*
X1392Y223D03*
X1254Y223D03*
X642Y224D03*
X504Y224D03*
G54D14*
X2508Y888D03*
G54D15*
X1920Y886D03*
G54D16*
X2508Y472D03*
G54D17*
X1317Y884D03*
X577Y884D03*
G54D14*
X1392Y223D03*
X642Y224D03*
G54D18*
X237Y981D02*
X158Y905D01*
D02*
X1737Y905D02*
X1657Y981D01*
D02*
X1657Y981D02*
X237Y981D01*
D02*
X2477Y887D02*
X2248Y886D01*
D02*
X2220Y514D02*
X2220Y557D01*
D02*
X2306Y656D02*
X2306Y886D01*
D02*
X2242Y604D02*
X2306Y656D01*
D02*
X2306Y886D02*
X2248Y886D01*
D02*
X848Y509D02*
X1047Y509D01*
D02*
X848Y686D02*
X1047Y686D01*
D02*
X1344Y885D02*
X1629Y885D01*
D02*
X550Y884D02*
X266Y885D01*
D02*
X1147Y608D02*
X1147Y437D01*
D02*
X1095Y665D02*
X1147Y608D01*
D02*
X2508Y502D02*
X2508Y719D01*
D02*
X1891Y586D02*
X1541Y586D01*
D02*
X1541Y586D02*
X1337Y768D01*
D02*
X1891Y386D02*
X1758Y386D01*
D02*
X1758Y386D02*
X1758Y456D01*
D02*
X1542Y386D02*
X1413Y246D01*
D02*
X1758Y386D02*
X1542Y386D01*
D02*
X1758Y456D02*
X1758Y386D01*
D02*
X395Y224D02*
X158Y464D01*
D02*
X473Y224D02*
X395Y224D01*
D02*
X67Y555D02*
X117Y505D01*
D02*
X67Y940D02*
X67Y555D01*
D02*
X152Y1024D02*
X67Y940D01*
D02*
X1778Y1024D02*
X152Y1024D01*
D02*
X1899Y906D02*
X1778Y1024D01*
D02*
X389Y485D02*
X620Y246D01*
D02*
X266Y485D02*
X389Y485D01*
D02*
X1492Y485D02*
X1629Y485D01*
D02*
X1275Y246D02*
X1492Y485D01*
D02*
X1382Y100D02*
X2022Y100D01*
D02*
X2022Y100D02*
X2022Y286D01*
D02*
X2022Y286D02*
X1948Y286D01*
D02*
X1276Y201D02*
X1382Y100D01*
D02*
X2022Y694D02*
X2022Y486D01*
D02*
X2022Y486D02*
X1948Y486D01*
D02*
X1941Y767D02*
X2022Y694D01*
D02*
X2022Y286D02*
X1948Y286D01*
D02*
X2022Y486D02*
X2022Y286D01*
D02*
X747Y224D02*
X673Y224D01*
D02*
X747Y380D02*
X747Y224D01*
D02*
X1223Y223D02*
X673Y224D01*
D02*
X508Y509D02*
X791Y509D01*
D02*
X158Y864D02*
X508Y509D01*
D02*
X2425Y372D02*
X2478Y372D01*
D02*
X1276Y201D02*
X1382Y98D01*
D02*
X1382Y98D02*
X2300Y98D01*
D02*
X2300Y98D02*
X2425Y372D01*
G54D19*
X1917Y498D02*
X2022Y498D01*
X1914Y497D02*
X2026Y497D01*
X1912Y496D02*
X2027Y496D01*
X1911Y495D02*
X2029Y495D01*
X1910Y494D02*
X2030Y494D01*
X1909Y493D02*
X2030Y493D01*
X1909Y492D02*
X2031Y492D01*
X1908Y491D02*
X2032Y491D01*
X1908Y490D02*
X2032Y490D01*
X1908Y489D02*
X2032Y489D01*
X1907Y488D02*
X2032Y488D01*
X1907Y487D02*
X2032Y487D01*
X1907Y486D02*
X2033Y486D01*
X1907Y485D02*
X2032Y485D01*
X1907Y484D02*
X2032Y484D01*
X1908Y483D02*
X2032Y483D01*
X1908Y482D02*
X2032Y482D01*
X1908Y481D02*
X2031Y481D01*
X1909Y480D02*
X2031Y480D01*
X1910Y479D02*
X2030Y479D01*
X1910Y478D02*
X2029Y478D01*
X1912Y477D02*
X2028Y477D01*
X1913Y476D02*
X2027Y476D01*
X1915Y475D02*
X2025Y475D01*
D02*
G04 End of Copper1*
M02*