; NON-PLATED HOLES START AT T1
; THROUGH (PLATED) HOLES START AT T100
M48
INCH
T1C0.086614
T100C0.035000
T101C0.040000
T102C0.031497
T103C0.038000
%
T1
X000777Y011033
X026777Y000811
X000777Y000811
X026777Y011033
T100
X017578Y008849
X008197Y005089
X016574Y004852
X002375Y004847
X019197Y008857
X019197Y006857
X022197Y008857
X022197Y005857
X011472Y004082
X019197Y001857
X019197Y004857
X022197Y007857
X022197Y004857
X010756Y005089
X002375Y008847
X022197Y002857
X019197Y005857
X001377Y008847
X022197Y006857
X019197Y002857
X017578Y004849
X022197Y001857
X019197Y007857
X019197Y003857
X022197Y003857
X016574Y008852
X001377Y004847
X008197Y006861
X010756Y006861
X007472Y004082
T101
X013916Y002229
X012538Y002229
X005043Y002238
X025077Y007497
X025077Y008875
X006421Y002238
T102
X005768Y008843
X013173Y007860
X013173Y008844
X005768Y007859
T103
X025079Y003715
X025079Y004715
X025079Y002715
T00
M30
