G04 MADE WITH FRITZING*
G04 WWW.FRITZING.ORG*
G04 DOUBLE SIDED*
G04 HOLES PLATED*
G04 CONTOUR ON CENTER OF CONTOUR VECTOR*
%ASAXBY*%
%FSLAX23Y23*%
%MOIN*%
%OFA0B0*%
%SFA1.0B1.0*%
%ADD10C,0.075000*%
%ADD11C,0.080000*%
%ADD12C,0.078000*%
%ADD13C,0.062992*%
%ADD14R,0.080000X0.080000*%
%ADD15R,0.075000X0.075000*%
%ADD16R,0.078000X0.078000*%
%ADD17R,0.062992X0.062992*%
%ADD18C,0.024000*%
%ADD19R,0.001000X0.001000*%
%LNCOPPER0*%
G90*
G70*
G54D10*
X1758Y485D03*
X1758Y885D03*
X138Y485D03*
X138Y885D03*
X1657Y485D03*
X1657Y885D03*
X238Y485D03*
X238Y885D03*
X747Y408D03*
X1147Y408D03*
G54D11*
X2508Y888D03*
X2508Y750D03*
G54D10*
X1920Y886D03*
X2220Y886D03*
X1920Y786D03*
X2220Y786D03*
X1920Y686D03*
X2220Y686D03*
X1920Y586D03*
X2220Y586D03*
X1920Y486D03*
X2220Y486D03*
X1920Y386D03*
X2220Y386D03*
X1920Y286D03*
X2220Y286D03*
X1920Y186D03*
X2220Y186D03*
G54D12*
X2508Y472D03*
X2508Y372D03*
X2508Y272D03*
G54D13*
X1317Y884D03*
X1317Y786D03*
X577Y884D03*
X577Y786D03*
G54D10*
X820Y686D03*
X1076Y686D03*
X820Y509D03*
X1076Y509D03*
G54D11*
X1392Y223D03*
X1254Y223D03*
X642Y224D03*
X504Y224D03*
G54D14*
X2508Y888D03*
G54D15*
X1920Y886D03*
G54D16*
X2508Y472D03*
G54D17*
X1317Y884D03*
X577Y884D03*
G54D14*
X1392Y223D03*
X642Y224D03*
G54D18*
X848Y509D02*
X1047Y509D01*
D02*
X848Y686D02*
X1047Y686D01*
D02*
X1833Y686D02*
X1833Y253D01*
D02*
X1833Y253D02*
X1897Y203D01*
D02*
X1940Y565D02*
X2200Y306D01*
D02*
X2305Y612D02*
X2305Y258D01*
D02*
X2305Y258D02*
X2242Y204D01*
D02*
X1849Y981D02*
X2018Y981D01*
D02*
X2087Y919D02*
X2087Y614D01*
D02*
X2018Y981D02*
X2087Y919D01*
D02*
X1778Y906D02*
X1849Y981D01*
D02*
X2087Y614D02*
X2199Y506D01*
D02*
X2042Y1023D02*
X904Y1023D01*
D02*
X2136Y937D02*
X2042Y1023D01*
D02*
X664Y786D02*
X604Y786D01*
D02*
X904Y1023D02*
X664Y786D01*
D02*
X2136Y757D02*
X2136Y937D01*
D02*
X2198Y704D02*
X2136Y757D01*
D02*
X1104Y686D02*
X1891Y686D01*
G54D19*
X1831Y698D02*
X1920Y698D01*
X2217Y698D02*
X2220Y698D01*
X1828Y697D02*
X1923Y697D01*
X2214Y697D02*
X2223Y697D01*
X1826Y696D02*
X1925Y696D01*
X2212Y696D02*
X2225Y696D01*
X1825Y695D02*
X1926Y695D01*
X2211Y695D02*
X2226Y695D01*
X1824Y694D02*
X1927Y694D01*
X2210Y694D02*
X2227Y694D01*
X1823Y693D02*
X1928Y693D01*
X2209Y693D02*
X2228Y693D01*
X1822Y692D02*
X1929Y692D01*
X2209Y692D02*
X2230Y692D01*
X1822Y691D02*
X1929Y691D01*
X2208Y691D02*
X2231Y691D01*
X1821Y690D02*
X1929Y690D01*
X2208Y690D02*
X2232Y690D01*
X1821Y689D02*
X1930Y689D01*
X2207Y689D02*
X2233Y689D01*
X1821Y688D02*
X1930Y688D01*
X2207Y688D02*
X2234Y688D01*
X1821Y687D02*
X1930Y687D01*
X2207Y687D02*
X2235Y687D01*
X1821Y686D02*
X1930Y686D01*
X2207Y686D02*
X2237Y686D01*
X1821Y685D02*
X1930Y685D01*
X2207Y685D02*
X2238Y685D01*
X1821Y684D02*
X1930Y684D01*
X2207Y684D02*
X2239Y684D01*
X1821Y683D02*
X1930Y683D01*
X2207Y683D02*
X2240Y683D01*
X1822Y682D02*
X1929Y682D01*
X2208Y682D02*
X2241Y682D01*
X1822Y681D02*
X1929Y681D01*
X2208Y681D02*
X2242Y681D01*
X1822Y680D02*
X1928Y680D01*
X2209Y680D02*
X2243Y680D01*
X1823Y679D02*
X1928Y679D01*
X2209Y679D02*
X2245Y679D01*
X1824Y678D02*
X1927Y678D01*
X2210Y678D02*
X2246Y678D01*
X1825Y677D02*
X1926Y677D01*
X2211Y677D02*
X2247Y677D01*
X1826Y676D02*
X1924Y676D01*
X2212Y676D02*
X2248Y676D01*
X1828Y675D02*
X1922Y675D01*
X2214Y675D02*
X2249Y675D01*
X2215Y674D02*
X2250Y674D01*
X2216Y673D02*
X2252Y673D01*
X2217Y672D02*
X2253Y672D01*
X2218Y671D02*
X2254Y671D01*
X2219Y670D02*
X2255Y670D01*
X2221Y669D02*
X2256Y669D01*
X2222Y668D02*
X2257Y668D01*
X2223Y667D02*
X2258Y667D01*
X2224Y666D02*
X2260Y666D01*
X2225Y665D02*
X2261Y665D01*
X2226Y664D02*
X2262Y664D01*
X2227Y663D02*
X2263Y663D01*
X2229Y662D02*
X2264Y662D01*
X2230Y661D02*
X2265Y661D01*
X2231Y660D02*
X2267Y660D01*
X2232Y659D02*
X2268Y659D01*
X2233Y658D02*
X2269Y658D01*
X2234Y657D02*
X2270Y657D01*
X2236Y656D02*
X2271Y656D01*
X2237Y655D02*
X2272Y655D01*
X2238Y654D02*
X2274Y654D01*
X2239Y653D02*
X2275Y653D01*
X2240Y652D02*
X2276Y652D01*
X2241Y651D02*
X2277Y651D01*
X2242Y650D02*
X2278Y650D01*
X2244Y649D02*
X2279Y649D01*
X2245Y648D02*
X2280Y648D01*
X2246Y647D02*
X2282Y647D01*
X2247Y646D02*
X2283Y646D01*
X2248Y645D02*
X2284Y645D01*
X2249Y644D02*
X2285Y644D01*
X2251Y643D02*
X2286Y643D01*
X2252Y642D02*
X2287Y642D01*
X2253Y641D02*
X2289Y641D01*
X2254Y640D02*
X2290Y640D01*
X2255Y639D02*
X2291Y639D01*
X2256Y638D02*
X2292Y638D01*
X2257Y637D02*
X2293Y637D01*
X2259Y636D02*
X2294Y636D01*
X2260Y635D02*
X2295Y635D01*
X2261Y634D02*
X2297Y634D01*
X2262Y633D02*
X2298Y633D01*
X2263Y632D02*
X2299Y632D01*
X2264Y631D02*
X2300Y631D01*
X2266Y630D02*
X2301Y630D01*
X2267Y629D02*
X2302Y629D01*
X2268Y628D02*
X2304Y628D01*
X2269Y627D02*
X2305Y627D01*
X2270Y626D02*
X2306Y626D01*
X2271Y625D02*
X2307Y625D01*
X2272Y624D02*
X2308Y624D01*
X2274Y623D02*
X2309Y623D01*
X2275Y622D02*
X2310Y622D01*
X2276Y621D02*
X2311Y621D01*
X2277Y620D02*
X2312Y620D01*
X2278Y619D02*
X2313Y619D01*
X2279Y618D02*
X2314Y618D01*
X2281Y617D02*
X2314Y617D01*
X2282Y616D02*
X2315Y616D01*
X2283Y615D02*
X2315Y615D01*
X2284Y614D02*
X2315Y614D01*
X2285Y613D02*
X2315Y613D01*
X2286Y612D02*
X2315Y612D01*
X2287Y611D02*
X2315Y611D01*
X2289Y610D02*
X2315Y610D01*
X2290Y609D02*
X2315Y609D01*
X2291Y608D02*
X2314Y608D01*
X2292Y607D02*
X2314Y607D01*
X2293Y606D02*
X2313Y606D01*
X2294Y605D02*
X2313Y605D01*
X2296Y604D02*
X2312Y604D01*
X2297Y603D02*
X2311Y603D01*
X2298Y602D02*
X2309Y602D01*
X2301Y601D02*
X2307Y601D01*
D02*
G04 End of Copper0*
M02*