G04 MADE WITH FRITZING*
G04 WWW.FRITZING.ORG*
G04 DOUBLE SIDED*
G04 HOLES PLATED*
G04 CONTOUR ON CENTER OF CONTOUR VECTOR*
%ASAXBY*%
%FSLAX23Y23*%
%MOIN*%
%OFA0B0*%
%SFA1.0B1.0*%
%ADD10R,2.755910X1.181100X2.739910X1.165100*%
%ADD11C,0.008000*%
%ADD12R,0.001000X0.001000*%
%LNSILK0*%
G90*
G70*
G54D11*
X4Y1177D02*
X2752Y1177D01*
X2752Y4D01*
X4Y4D01*
X4Y1177D01*
D02*
G36*
X2001Y735D02*
X2001Y729D01*
X2002Y729D01*
X2002Y720D01*
X2004Y720D01*
X2004Y712D01*
X2006Y712D01*
X2006Y704D01*
X2001Y704D01*
X2001Y707D01*
X1999Y707D01*
X1999Y711D01*
X1998Y711D01*
X1998Y724D01*
X1996Y724D01*
X1996Y735D01*
X2001Y735D01*
G37*
D02*
G36*
X1957Y729D02*
X1957Y725D01*
X1958Y725D01*
X1958Y722D01*
X1960Y722D01*
X1960Y719D01*
X1961Y719D01*
X1961Y714D01*
X1963Y714D01*
X1963Y709D01*
X1965Y709D01*
X1965Y706D01*
X1966Y706D01*
X1966Y702D01*
X1968Y702D01*
X1968Y697D01*
X1970Y697D01*
X1970Y694D01*
X1968Y694D01*
X1968Y693D01*
X1965Y693D01*
X1965Y694D01*
X1963Y694D01*
X1963Y699D01*
X1961Y699D01*
X1961Y702D01*
X1960Y702D01*
X1960Y706D01*
X1958Y706D01*
X1958Y709D01*
X1957Y709D01*
X1957Y714D01*
X1955Y714D01*
X1955Y720D01*
X1953Y720D01*
X1953Y724D01*
X1952Y724D01*
X1952Y729D01*
X1957Y729D01*
G37*
D02*
G36*
X1904Y701D02*
X1904Y699D01*
X1906Y699D01*
X1906Y697D01*
X1907Y697D01*
X1907Y694D01*
X1909Y694D01*
X1909Y693D01*
X1911Y693D01*
X1911Y691D01*
X1916Y691D01*
X1916Y689D01*
X1917Y689D01*
X1917Y688D01*
X1919Y688D01*
X1919Y686D01*
X1922Y686D01*
X1922Y684D01*
X1925Y684D01*
X1925Y683D01*
X1927Y683D01*
X1927Y681D01*
X1930Y681D01*
X1930Y679D01*
X1934Y679D01*
X1934Y678D01*
X1935Y678D01*
X1935Y674D01*
X1930Y674D01*
X1930Y676D01*
X1927Y676D01*
X1927Y678D01*
X1924Y678D01*
X1924Y679D01*
X1922Y679D01*
X1922Y681D01*
X1919Y681D01*
X1919Y683D01*
X1916Y683D01*
X1916Y684D01*
X1912Y684D01*
X1912Y688D01*
X1907Y688D01*
X1907Y689D01*
X1906Y689D01*
X1906Y691D01*
X1904Y691D01*
X1904Y693D01*
X1901Y693D01*
X1901Y694D01*
X1899Y694D01*
X1899Y696D01*
X1898Y696D01*
X1898Y701D01*
X1904Y701D01*
G37*
D02*
G36*
X2167Y711D02*
X2167Y709D01*
X2173Y709D01*
X2173Y707D01*
X2176Y707D01*
X2176Y706D01*
X2178Y706D01*
X2178Y702D01*
X2158Y702D01*
X2158Y701D01*
X2155Y701D01*
X2155Y699D01*
X2153Y699D01*
X2153Y697D01*
X2152Y697D01*
X2152Y696D01*
X2150Y696D01*
X2150Y693D01*
X2148Y693D01*
X2148Y689D01*
X2147Y689D01*
X2147Y683D01*
X2145Y683D01*
X2145Y679D01*
X2147Y679D01*
X2147Y671D01*
X2148Y671D01*
X2148Y670D01*
X2157Y670D01*
X2157Y668D01*
X2139Y668D01*
X2139Y686D01*
X2140Y686D01*
X2140Y693D01*
X2142Y693D01*
X2142Y696D01*
X2144Y696D01*
X2144Y699D01*
X2145Y699D01*
X2145Y701D01*
X2147Y701D01*
X2147Y702D01*
X2148Y702D01*
X2148Y704D01*
X2150Y704D01*
X2150Y707D01*
X2155Y707D01*
X2155Y709D01*
X2160Y709D01*
X2160Y711D01*
X2167Y711D01*
G37*
D02*
G36*
X2180Y702D02*
X2180Y701D01*
X2181Y701D01*
X2181Y699D01*
X2183Y699D01*
X2183Y697D01*
X2185Y697D01*
X2185Y694D01*
X2178Y694D01*
X2178Y696D01*
X2176Y696D01*
X2176Y699D01*
X2175Y699D01*
X2175Y701D01*
X2170Y701D01*
X2170Y702D01*
X2180Y702D01*
G37*
D02*
G36*
X2212Y697D02*
X2212Y696D01*
X2214Y696D01*
X2214Y694D01*
X2191Y694D01*
X2191Y696D01*
X2199Y696D01*
X2199Y697D01*
X2212Y697D01*
G37*
D02*
G36*
X2216Y694D02*
X2216Y693D01*
X2180Y693D01*
X2180Y694D01*
X2216Y694D01*
G37*
D02*
G36*
X2216Y694D02*
X2216Y693D01*
X2180Y693D01*
X2180Y694D01*
X2216Y694D01*
G37*
D02*
G36*
X2217Y693D02*
X2217Y691D01*
X2219Y691D01*
X2219Y689D01*
X2198Y689D01*
X2198Y688D01*
X2189Y688D01*
X2189Y686D01*
X2186Y686D01*
X2186Y684D01*
X2185Y684D01*
X2185Y686D01*
X2183Y686D01*
X2183Y688D01*
X2181Y688D01*
X2181Y691D01*
X2180Y691D01*
X2180Y693D01*
X2217Y693D01*
G37*
D02*
G36*
X2222Y689D02*
X2222Y686D01*
X2226Y686D01*
X2226Y683D01*
X2227Y683D01*
X2227Y679D01*
X2229Y679D01*
X2229Y670D01*
X2227Y670D01*
X2227Y666D01*
X2226Y666D01*
X2226Y665D01*
X2224Y665D01*
X2224Y663D01*
X2222Y663D01*
X2222Y660D01*
X2221Y660D01*
X2221Y658D01*
X2219Y658D01*
X2219Y656D01*
X2217Y656D01*
X2217Y655D01*
X2216Y655D01*
X2216Y653D01*
X2212Y653D01*
X2212Y652D01*
X2211Y652D01*
X2211Y650D01*
X2208Y650D01*
X2208Y648D01*
X2206Y648D01*
X2206Y645D01*
X2203Y645D01*
X2203Y643D01*
X2196Y643D01*
X2196Y642D01*
X2194Y642D01*
X2194Y640D01*
X2178Y640D01*
X2178Y642D01*
X2181Y642D01*
X2181Y643D01*
X2186Y643D01*
X2186Y645D01*
X2189Y645D01*
X2189Y647D01*
X2193Y647D01*
X2193Y650D01*
X2198Y650D01*
X2198Y652D01*
X2201Y652D01*
X2201Y653D01*
X2203Y653D01*
X2203Y655D01*
X2206Y655D01*
X2206Y656D01*
X2208Y656D01*
X2208Y658D01*
X2211Y658D01*
X2211Y660D01*
X2212Y660D01*
X2212Y663D01*
X2214Y663D01*
X2214Y665D01*
X2216Y665D01*
X2216Y666D01*
X2217Y666D01*
X2217Y668D01*
X2219Y668D01*
X2219Y670D01*
X2221Y670D01*
X2221Y679D01*
X2219Y679D01*
X2219Y681D01*
X2217Y681D01*
X2217Y683D01*
X2216Y683D01*
X2216Y684D01*
X2214Y684D01*
X2214Y686D01*
X2211Y686D01*
X2211Y688D01*
X2208Y688D01*
X2208Y689D01*
X2222Y689D01*
G37*
D02*
G36*
X2124Y683D02*
X2124Y681D01*
X2126Y681D01*
X2126Y678D01*
X2127Y678D01*
X2127Y676D01*
X2129Y676D01*
X2129Y674D01*
X2119Y674D01*
X2119Y673D01*
X2111Y673D01*
X2111Y671D01*
X2109Y671D01*
X2109Y670D01*
X2106Y670D01*
X2106Y668D01*
X2107Y668D01*
X2107Y665D01*
X2094Y665D01*
X2094Y666D01*
X2091Y666D01*
X2091Y673D01*
X2093Y673D01*
X2093Y676D01*
X2103Y676D01*
X2103Y678D01*
X2106Y678D01*
X2106Y679D01*
X2111Y679D01*
X2111Y681D01*
X2117Y681D01*
X2117Y683D01*
X2124Y683D01*
G37*
D02*
G36*
X2129Y674D02*
X2129Y671D01*
X2130Y671D01*
X2130Y670D01*
X2135Y670D01*
X2135Y668D01*
X2124Y668D01*
X2124Y670D01*
X2122Y670D01*
X2122Y671D01*
X2121Y671D01*
X2121Y674D01*
X2129Y674D01*
G37*
D02*
G36*
X2180Y668D02*
X2180Y666D01*
X2122Y666D01*
X2122Y668D01*
X2180Y668D01*
G37*
D02*
G36*
X2180Y668D02*
X2180Y666D01*
X2122Y666D01*
X2122Y668D01*
X2180Y668D01*
G37*
D02*
G36*
X2180Y666D02*
X2180Y665D01*
X2117Y665D01*
X2117Y666D01*
X2180Y666D01*
G37*
D02*
G36*
X2178Y665D02*
X2178Y663D01*
X2096Y663D01*
X2096Y665D01*
X2178Y665D01*
G37*
D02*
G36*
X2178Y665D02*
X2178Y663D01*
X2096Y663D01*
X2096Y665D01*
X2178Y665D01*
G37*
D02*
G36*
X2162Y663D02*
X2162Y661D01*
X2157Y661D01*
X2157Y660D01*
X2140Y660D01*
X2140Y658D01*
X2135Y658D01*
X2135Y656D01*
X2119Y656D01*
X2119Y655D01*
X2099Y655D01*
X2099Y656D01*
X2101Y656D01*
X2101Y658D01*
X2098Y658D01*
X2098Y660D01*
X2099Y660D01*
X2099Y661D01*
X2098Y661D01*
X2098Y663D01*
X2162Y663D01*
G37*
D02*
G36*
X2157Y660D02*
X2157Y655D01*
X2158Y655D01*
X2158Y653D01*
X2160Y653D01*
X2160Y652D01*
X2162Y652D01*
X2162Y650D01*
X2163Y650D01*
X2163Y647D01*
X2165Y647D01*
X2165Y645D01*
X2168Y645D01*
X2168Y643D01*
X2170Y643D01*
X2170Y642D01*
X2173Y642D01*
X2173Y640D01*
X2158Y640D01*
X2158Y642D01*
X2157Y642D01*
X2157Y643D01*
X2155Y643D01*
X2155Y645D01*
X2153Y645D01*
X2153Y648D01*
X2152Y648D01*
X2152Y650D01*
X2150Y650D01*
X2150Y653D01*
X2148Y653D01*
X2148Y655D01*
X2147Y655D01*
X2147Y656D01*
X2145Y656D01*
X2145Y658D01*
X2142Y658D01*
X2142Y660D01*
X2157Y660D01*
G37*
D02*
G36*
X2135Y656D02*
X2135Y655D01*
X2121Y655D01*
X2121Y656D01*
X2135Y656D01*
G37*
D02*
G36*
X2134Y655D02*
X2134Y653D01*
X2099Y653D01*
X2099Y655D01*
X2134Y655D01*
G37*
D02*
G36*
X2134Y655D02*
X2134Y653D01*
X2099Y653D01*
X2099Y655D01*
X2134Y655D01*
G37*
D02*
G36*
X2132Y653D02*
X2132Y650D01*
X2130Y650D01*
X2130Y648D01*
X2129Y648D01*
X2129Y647D01*
X2121Y647D01*
X2121Y645D01*
X2116Y645D01*
X2116Y643D01*
X2112Y643D01*
X2112Y642D01*
X2104Y642D01*
X2104Y643D01*
X2101Y643D01*
X2101Y645D01*
X2099Y645D01*
X2099Y647D01*
X2098Y647D01*
X2098Y650D01*
X2099Y650D01*
X2099Y653D01*
X2132Y653D01*
G37*
D02*
G36*
X2191Y640D02*
X2191Y638D01*
X2160Y638D01*
X2160Y640D01*
X2191Y640D01*
G37*
D02*
G36*
X2191Y640D02*
X2191Y638D01*
X2160Y638D01*
X2160Y640D01*
X2191Y640D01*
G37*
D02*
G36*
X2188Y638D02*
X2188Y637D01*
X2183Y637D01*
X2183Y635D01*
X2180Y635D01*
X2180Y633D01*
X2167Y633D01*
X2167Y635D01*
X2163Y635D01*
X2163Y637D01*
X2162Y637D01*
X2162Y638D01*
X2188Y638D01*
G37*
D02*
G36*
X2326Y689D02*
X2326Y684D01*
X2324Y684D01*
X2324Y683D01*
X2322Y683D01*
X2322Y681D01*
X2321Y681D01*
X2321Y678D01*
X2319Y678D01*
X2319Y676D01*
X2317Y676D01*
X2317Y670D01*
X2321Y670D01*
X2321Y668D01*
X2332Y668D01*
X2332Y666D01*
X2335Y666D01*
X2335Y665D01*
X2337Y665D01*
X2337Y663D01*
X2339Y663D01*
X2339Y660D01*
X2322Y660D01*
X2322Y656D01*
X2324Y656D01*
X2324Y655D01*
X2308Y655D01*
X2308Y666D01*
X2309Y666D01*
X2309Y676D01*
X2311Y676D01*
X2311Y679D01*
X2313Y679D01*
X2313Y683D01*
X2314Y683D01*
X2314Y684D01*
X2316Y684D01*
X2316Y686D01*
X2317Y686D01*
X2317Y688D01*
X2321Y688D01*
X2321Y689D01*
X2326Y689D01*
G37*
D02*
G36*
X2340Y660D02*
X2340Y658D01*
X2342Y658D01*
X2342Y655D01*
X2331Y655D01*
X2331Y656D01*
X2332Y656D01*
X2332Y660D01*
X2340Y660D01*
G37*
D02*
G36*
X2340Y655D02*
X2340Y653D01*
X2308Y653D01*
X2308Y655D01*
X2340Y655D01*
G37*
D02*
G36*
X2340Y655D02*
X2340Y653D01*
X2308Y653D01*
X2308Y655D01*
X2340Y655D01*
G37*
D02*
G36*
X2340Y653D02*
X2340Y648D01*
X2339Y648D01*
X2339Y647D01*
X2317Y647D01*
X2317Y645D01*
X2306Y645D01*
X2306Y653D01*
X2340Y653D01*
G37*
D02*
G36*
X2337Y647D02*
X2337Y645D01*
X2324Y645D01*
X2324Y647D01*
X2337Y647D01*
G37*
D02*
G36*
X2322Y647D02*
X2322Y645D01*
X2319Y645D01*
X2319Y647D01*
X2322Y647D01*
G37*
D02*
G36*
X2319Y645D02*
X2319Y642D01*
X2321Y642D01*
X2321Y640D01*
X2322Y640D01*
X2322Y637D01*
X2324Y637D01*
X2324Y633D01*
X2327Y633D01*
X2327Y632D01*
X2329Y632D01*
X2329Y622D01*
X2331Y622D01*
X2331Y620D01*
X2329Y620D01*
X2329Y619D01*
X2327Y619D01*
X2327Y615D01*
X2326Y615D01*
X2326Y614D01*
X2319Y614D01*
X2319Y622D01*
X2321Y622D01*
X2321Y627D01*
X2319Y627D01*
X2319Y630D01*
X2317Y630D01*
X2317Y632D01*
X2316Y632D01*
X2316Y633D01*
X2313Y633D01*
X2313Y637D01*
X2311Y637D01*
X2311Y638D01*
X2309Y638D01*
X2309Y642D01*
X2308Y642D01*
X2308Y643D01*
X2306Y643D01*
X2306Y645D01*
X2319Y645D01*
G37*
D02*
G36*
X2406Y684D02*
X2406Y679D01*
X2404Y679D01*
X2404Y674D01*
X2403Y674D01*
X2403Y671D01*
X2401Y671D01*
X2401Y668D01*
X2399Y668D01*
X2399Y666D01*
X2398Y666D01*
X2398Y663D01*
X2396Y663D01*
X2396Y656D01*
X2395Y656D01*
X2395Y655D01*
X2393Y655D01*
X2393Y650D01*
X2386Y650D01*
X2386Y655D01*
X2388Y655D01*
X2388Y658D01*
X2390Y658D01*
X2390Y663D01*
X2391Y663D01*
X2391Y666D01*
X2393Y666D01*
X2393Y668D01*
X2395Y668D01*
X2395Y673D01*
X2396Y673D01*
X2396Y678D01*
X2398Y678D01*
X2398Y681D01*
X2399Y681D01*
X2399Y683D01*
X2401Y683D01*
X2401Y684D01*
X2406Y684D01*
G37*
D02*
G36*
X1875Y653D02*
X1875Y652D01*
X1881Y652D01*
X1881Y650D01*
X1884Y650D01*
X1884Y648D01*
X1891Y648D01*
X1891Y647D01*
X1898Y647D01*
X1898Y645D01*
X1906Y645D01*
X1906Y643D01*
X1911Y643D01*
X1911Y642D01*
X1914Y642D01*
X1914Y638D01*
X1912Y638D01*
X1912Y637D01*
X1904Y637D01*
X1904Y638D01*
X1896Y638D01*
X1896Y640D01*
X1891Y640D01*
X1891Y642D01*
X1879Y642D01*
X1879Y643D01*
X1876Y643D01*
X1876Y645D01*
X1870Y645D01*
X1870Y647D01*
X1866Y647D01*
X1866Y648D01*
X1865Y648D01*
X1865Y652D01*
X1866Y652D01*
X1866Y653D01*
X1875Y653D01*
G37*
D02*
G36*
X2444Y629D02*
X2444Y627D01*
X2445Y627D01*
X2445Y625D01*
X2444Y625D01*
X2444Y624D01*
X2439Y624D01*
X2439Y622D01*
X2436Y622D01*
X2436Y620D01*
X2434Y620D01*
X2434Y619D01*
X2431Y619D01*
X2431Y617D01*
X2426Y617D01*
X2426Y615D01*
X2421Y615D01*
X2421Y614D01*
X2416Y614D01*
X2416Y619D01*
X2419Y619D01*
X2419Y620D01*
X2422Y620D01*
X2422Y622D01*
X2426Y622D01*
X2426Y624D01*
X2429Y624D01*
X2429Y625D01*
X2436Y625D01*
X2436Y627D01*
X2439Y627D01*
X2439Y629D01*
X2444Y629D01*
G37*
D02*
G36*
X1904Y612D02*
X1904Y611D01*
X1911Y611D01*
X1911Y607D01*
X1912Y607D01*
X1912Y606D01*
X1911Y606D01*
X1911Y604D01*
X1893Y604D01*
X1893Y602D01*
X1888Y602D01*
X1888Y601D01*
X1878Y601D01*
X1878Y606D01*
X1879Y606D01*
X1879Y607D01*
X1888Y607D01*
X1888Y609D01*
X1889Y609D01*
X1889Y611D01*
X1896Y611D01*
X1896Y612D01*
X1904Y612D01*
G37*
D02*
G36*
X2162Y743D02*
X2162Y742D01*
X2183Y742D01*
X2183Y740D01*
X2191Y740D01*
X2191Y738D01*
X2198Y738D01*
X2198Y737D01*
X2145Y737D01*
X2145Y735D01*
X2140Y735D01*
X2140Y734D01*
X2130Y734D01*
X2130Y732D01*
X2124Y732D01*
X2124Y730D01*
X2119Y730D01*
X2119Y729D01*
X2116Y729D01*
X2116Y727D01*
X2112Y727D01*
X2112Y725D01*
X2109Y725D01*
X2109Y724D01*
X2104Y724D01*
X2104Y722D01*
X2101Y722D01*
X2101Y720D01*
X2099Y720D01*
X2099Y719D01*
X2096Y719D01*
X2096Y717D01*
X2094Y717D01*
X2094Y715D01*
X2093Y715D01*
X2093Y714D01*
X2091Y714D01*
X2091Y712D01*
X2089Y712D01*
X2089Y709D01*
X2088Y709D01*
X2088Y707D01*
X2085Y707D01*
X2085Y704D01*
X2083Y704D01*
X2083Y702D01*
X2081Y702D01*
X2081Y701D01*
X2080Y701D01*
X2080Y697D01*
X2078Y697D01*
X2078Y696D01*
X2076Y696D01*
X2076Y694D01*
X2075Y694D01*
X2075Y689D01*
X2073Y689D01*
X2073Y681D01*
X2071Y681D01*
X2071Y676D01*
X2073Y676D01*
X2073Y673D01*
X2071Y673D01*
X2071Y670D01*
X2073Y670D01*
X2073Y665D01*
X2075Y665D01*
X2075Y661D01*
X2076Y661D01*
X2076Y658D01*
X2078Y658D01*
X2078Y655D01*
X2080Y655D01*
X2080Y653D01*
X2081Y653D01*
X2081Y650D01*
X2083Y650D01*
X2083Y647D01*
X2085Y647D01*
X2085Y645D01*
X2086Y645D01*
X2086Y643D01*
X2088Y643D01*
X2088Y642D01*
X2091Y642D01*
X2091Y640D01*
X2093Y640D01*
X2093Y632D01*
X2091Y632D01*
X2091Y629D01*
X2089Y629D01*
X2089Y625D01*
X2088Y625D01*
X2088Y624D01*
X2089Y624D01*
X2089Y622D01*
X2078Y622D01*
X2078Y624D01*
X2080Y624D01*
X2080Y625D01*
X2081Y625D01*
X2081Y627D01*
X2083Y627D01*
X2083Y632D01*
X2085Y632D01*
X2085Y635D01*
X2083Y635D01*
X2083Y637D01*
X2081Y637D01*
X2081Y638D01*
X2080Y638D01*
X2080Y642D01*
X2076Y642D01*
X2076Y643D01*
X2075Y643D01*
X2075Y648D01*
X2073Y648D01*
X2073Y650D01*
X2071Y650D01*
X2071Y655D01*
X2070Y655D01*
X2070Y658D01*
X2068Y658D01*
X2068Y661D01*
X2066Y661D01*
X2066Y673D01*
X2065Y673D01*
X2065Y681D01*
X2066Y681D01*
X2066Y691D01*
X2068Y691D01*
X2068Y694D01*
X2070Y694D01*
X2070Y697D01*
X2071Y697D01*
X2071Y701D01*
X2073Y701D01*
X2073Y702D01*
X2075Y702D01*
X2075Y704D01*
X2076Y704D01*
X2076Y706D01*
X2078Y706D01*
X2078Y707D01*
X2080Y707D01*
X2080Y709D01*
X2081Y709D01*
X2081Y711D01*
X2083Y711D01*
X2083Y712D01*
X2085Y712D01*
X2085Y715D01*
X2086Y715D01*
X2086Y717D01*
X2088Y717D01*
X2088Y719D01*
X2089Y719D01*
X2089Y720D01*
X2091Y720D01*
X2091Y722D01*
X2093Y722D01*
X2093Y724D01*
X2094Y724D01*
X2094Y725D01*
X2098Y725D01*
X2098Y727D01*
X2101Y727D01*
X2101Y729D01*
X2104Y729D01*
X2104Y730D01*
X2107Y730D01*
X2107Y732D01*
X2111Y732D01*
X2111Y734D01*
X2114Y734D01*
X2114Y735D01*
X2121Y735D01*
X2121Y737D01*
X2124Y737D01*
X2124Y738D01*
X2129Y738D01*
X2129Y740D01*
X2135Y740D01*
X2135Y742D01*
X2160Y742D01*
X2160Y743D01*
X2162Y743D01*
G37*
D02*
G36*
X2203Y737D02*
X2203Y735D01*
X2208Y735D01*
X2208Y734D01*
X2219Y734D01*
X2219Y732D01*
X2227Y732D01*
X2227Y730D01*
X2232Y730D01*
X2232Y729D01*
X2211Y729D01*
X2211Y727D01*
X2208Y727D01*
X2208Y729D01*
X2204Y729D01*
X2204Y730D01*
X2201Y730D01*
X2201Y732D01*
X2193Y732D01*
X2193Y734D01*
X2181Y734D01*
X2181Y735D01*
X2170Y735D01*
X2170Y737D01*
X2203Y737D01*
G37*
D02*
G36*
X2237Y729D02*
X2237Y727D01*
X2240Y727D01*
X2240Y725D01*
X2242Y725D01*
X2242Y724D01*
X2245Y724D01*
X2245Y722D01*
X2247Y722D01*
X2247Y720D01*
X2249Y720D01*
X2249Y719D01*
X2250Y719D01*
X2250Y717D01*
X2252Y717D01*
X2252Y715D01*
X2253Y715D01*
X2253Y714D01*
X2255Y714D01*
X2255Y711D01*
X2257Y711D01*
X2257Y707D01*
X2258Y707D01*
X2258Y704D01*
X2260Y704D01*
X2260Y701D01*
X2262Y701D01*
X2262Y694D01*
X2263Y694D01*
X2263Y689D01*
X2265Y689D01*
X2265Y681D01*
X2267Y681D01*
X2267Y673D01*
X2265Y673D01*
X2265Y663D01*
X2263Y663D01*
X2263Y661D01*
X2262Y661D01*
X2262Y656D01*
X2260Y656D01*
X2260Y652D01*
X2258Y652D01*
X2258Y650D01*
X2257Y650D01*
X2257Y648D01*
X2255Y648D01*
X2255Y645D01*
X2253Y645D01*
X2253Y642D01*
X2252Y642D01*
X2252Y640D01*
X2250Y640D01*
X2250Y638D01*
X2249Y638D01*
X2249Y637D01*
X2245Y637D01*
X2245Y635D01*
X2244Y635D01*
X2244Y633D01*
X2242Y633D01*
X2242Y625D01*
X2240Y625D01*
X2240Y619D01*
X2239Y619D01*
X2239Y617D01*
X2237Y617D01*
X2237Y615D01*
X2235Y615D01*
X2235Y614D01*
X2237Y614D01*
X2237Y607D01*
X2239Y607D01*
X2239Y606D01*
X2226Y606D01*
X2226Y604D01*
X2224Y604D01*
X2224Y609D01*
X2222Y609D01*
X2222Y611D01*
X2221Y611D01*
X2221Y615D01*
X2224Y615D01*
X2224Y617D01*
X2227Y617D01*
X2227Y619D01*
X2229Y619D01*
X2229Y620D01*
X2231Y620D01*
X2231Y622D01*
X2232Y622D01*
X2232Y625D01*
X2234Y625D01*
X2234Y630D01*
X2232Y630D01*
X2232Y635D01*
X2234Y635D01*
X2234Y637D01*
X2235Y637D01*
X2235Y638D01*
X2239Y638D01*
X2239Y640D01*
X2240Y640D01*
X2240Y642D01*
X2242Y642D01*
X2242Y643D01*
X2244Y643D01*
X2244Y645D01*
X2247Y645D01*
X2247Y648D01*
X2249Y648D01*
X2249Y650D01*
X2250Y650D01*
X2250Y653D01*
X2252Y653D01*
X2252Y656D01*
X2253Y656D01*
X2253Y658D01*
X2255Y658D01*
X2255Y663D01*
X2257Y663D01*
X2257Y666D01*
X2258Y666D01*
X2258Y689D01*
X2257Y689D01*
X2257Y694D01*
X2255Y694D01*
X2255Y699D01*
X2253Y699D01*
X2253Y704D01*
X2252Y704D01*
X2252Y707D01*
X2250Y707D01*
X2250Y709D01*
X2249Y709D01*
X2249Y712D01*
X2247Y712D01*
X2247Y714D01*
X2245Y714D01*
X2245Y717D01*
X2244Y717D01*
X2244Y719D01*
X2240Y719D01*
X2240Y720D01*
X2237Y720D01*
X2237Y722D01*
X2235Y722D01*
X2235Y724D01*
X2231Y724D01*
X2231Y725D01*
X2229Y725D01*
X2229Y727D01*
X2221Y727D01*
X2221Y729D01*
X2237Y729D01*
G37*
D02*
G36*
X2116Y624D02*
X2116Y622D01*
X2106Y622D01*
X2106Y624D01*
X2116Y624D01*
G37*
D02*
G36*
X2104Y624D02*
X2104Y622D01*
X2098Y622D01*
X2098Y624D01*
X2104Y624D01*
G37*
D02*
G36*
X2117Y622D02*
X2117Y620D01*
X2076Y620D01*
X2076Y622D01*
X2117Y622D01*
G37*
D02*
G36*
X2117Y622D02*
X2117Y620D01*
X2076Y620D01*
X2076Y622D01*
X2117Y622D01*
G37*
D02*
G36*
X2117Y622D02*
X2117Y620D01*
X2076Y620D01*
X2076Y622D01*
X2117Y622D01*
G37*
D02*
G36*
X2117Y620D02*
X2117Y619D01*
X2119Y619D01*
X2119Y617D01*
X2094Y617D01*
X2094Y615D01*
X2088Y615D01*
X2088Y614D01*
X2081Y614D01*
X2081Y612D01*
X2073Y612D01*
X2073Y614D01*
X2070Y614D01*
X2070Y615D01*
X2071Y615D01*
X2071Y617D01*
X2073Y617D01*
X2073Y619D01*
X2075Y619D01*
X2075Y620D01*
X2117Y620D01*
G37*
D02*
G36*
X2153Y619D02*
X2153Y617D01*
X2157Y617D01*
X2157Y615D01*
X2158Y615D01*
X2158Y614D01*
X2162Y614D01*
X2162Y612D01*
X2163Y612D01*
X2163Y611D01*
X2139Y611D01*
X2139Y612D01*
X2145Y612D01*
X2145Y614D01*
X2147Y614D01*
X2147Y617D01*
X2148Y617D01*
X2148Y619D01*
X2153Y619D01*
G37*
D02*
G36*
X2122Y617D02*
X2122Y615D01*
X2126Y615D01*
X2126Y614D01*
X2129Y614D01*
X2129Y612D01*
X2134Y612D01*
X2134Y611D01*
X2117Y611D01*
X2117Y612D01*
X2116Y612D01*
X2116Y614D01*
X2114Y614D01*
X2114Y615D01*
X2103Y615D01*
X2103Y617D01*
X2122Y617D01*
G37*
D02*
G36*
X2167Y611D02*
X2167Y609D01*
X2119Y609D01*
X2119Y611D01*
X2167Y611D01*
G37*
D02*
G36*
X2167Y611D02*
X2167Y609D01*
X2119Y609D01*
X2119Y611D01*
X2167Y611D01*
G37*
D02*
G36*
X2168Y609D02*
X2168Y607D01*
X2170Y607D01*
X2170Y606D01*
X2173Y606D01*
X2173Y604D01*
X2176Y604D01*
X2176Y602D01*
X2189Y602D01*
X2189Y601D01*
X2165Y601D01*
X2165Y602D01*
X2162Y602D01*
X2162Y604D01*
X2160Y604D01*
X2160Y606D01*
X2157Y606D01*
X2157Y607D01*
X2155Y607D01*
X2155Y609D01*
X2168Y609D01*
G37*
D02*
G36*
X2152Y609D02*
X2152Y607D01*
X2150Y607D01*
X2150Y606D01*
X2147Y606D01*
X2147Y604D01*
X2137Y604D01*
X2137Y602D01*
X2132Y602D01*
X2132Y604D01*
X2126Y604D01*
X2126Y606D01*
X2122Y606D01*
X2122Y607D01*
X2121Y607D01*
X2121Y609D01*
X2152Y609D01*
G37*
D02*
G36*
X2240Y606D02*
X2240Y604D01*
X2244Y604D01*
X2244Y602D01*
X2247Y602D01*
X2247Y601D01*
X2249Y601D01*
X2249Y599D01*
X2250Y599D01*
X2250Y597D01*
X2234Y597D01*
X2234Y599D01*
X2232Y599D01*
X2232Y601D01*
X2231Y601D01*
X2231Y602D01*
X2229Y602D01*
X2229Y604D01*
X2227Y604D01*
X2227Y606D01*
X2240Y606D01*
G37*
D02*
G36*
X2219Y604D02*
X2219Y602D01*
X2222Y602D01*
X2222Y601D01*
X2227Y601D01*
X2227Y599D01*
X2212Y599D01*
X2212Y602D01*
X2214Y602D01*
X2214Y604D01*
X2219Y604D01*
G37*
D02*
G36*
X2208Y604D02*
X2208Y602D01*
X2209Y602D01*
X2209Y601D01*
X2191Y601D01*
X2191Y602D01*
X2204Y602D01*
X2204Y604D01*
X2208Y604D01*
G37*
D02*
G36*
X2208Y601D02*
X2208Y599D01*
X2167Y599D01*
X2167Y601D01*
X2208Y601D01*
G37*
D02*
G36*
X2208Y601D02*
X2208Y599D01*
X2167Y599D01*
X2167Y601D01*
X2208Y601D01*
G37*
D02*
G36*
X2232Y599D02*
X2232Y597D01*
X2214Y597D01*
X2214Y599D01*
X2232Y599D01*
G37*
D02*
G36*
X2204Y599D02*
X2204Y597D01*
X2199Y597D01*
X2199Y596D01*
X2175Y596D01*
X2175Y597D01*
X2170Y597D01*
X2170Y599D01*
X2204Y599D01*
G37*
D02*
G36*
X2252Y597D02*
X2252Y596D01*
X2216Y596D01*
X2216Y597D01*
X2252Y597D01*
G37*
D02*
G36*
X2252Y597D02*
X2252Y596D01*
X2216Y596D01*
X2216Y597D01*
X2252Y597D01*
G37*
D02*
G36*
X2255Y596D02*
X2255Y592D01*
X2258Y592D01*
X2258Y591D01*
X2260Y591D01*
X2260Y589D01*
X2262Y589D01*
X2262Y586D01*
X2263Y586D01*
X2263Y583D01*
X2262Y583D01*
X2262Y581D01*
X2253Y581D01*
X2253Y583D01*
X2247Y583D01*
X2247Y584D01*
X2244Y584D01*
X2244Y586D01*
X2240Y586D01*
X2240Y588D01*
X2235Y588D01*
X2235Y589D01*
X2232Y589D01*
X2232Y591D01*
X2227Y591D01*
X2227Y592D01*
X2224Y592D01*
X2224Y594D01*
X2221Y594D01*
X2221Y596D01*
X2255Y596D01*
G37*
D02*
G36*
X2424Y569D02*
X2424Y568D01*
X2432Y568D01*
X2432Y566D01*
X2442Y566D01*
X2442Y565D01*
X2447Y565D01*
X2447Y563D01*
X2452Y563D01*
X2452Y561D01*
X2457Y561D01*
X2457Y560D01*
X2447Y560D01*
X2447Y558D01*
X2444Y558D01*
X2444Y560D01*
X2427Y560D01*
X2427Y561D01*
X2413Y561D01*
X2413Y563D01*
X2411Y563D01*
X2411Y568D01*
X2413Y568D01*
X2413Y569D01*
X2424Y569D01*
G37*
D02*
G36*
X2460Y560D02*
X2460Y558D01*
X2450Y558D01*
X2450Y560D01*
X2460Y560D01*
G37*
D02*
G36*
X2322Y568D02*
X2322Y566D01*
X2324Y566D01*
X2324Y563D01*
X2314Y563D01*
X2314Y565D01*
X2316Y565D01*
X2316Y566D01*
X2319Y566D01*
X2319Y568D01*
X2322Y568D01*
G37*
D02*
G36*
X2309Y568D02*
X2309Y566D01*
X2311Y566D01*
X2311Y565D01*
X2313Y565D01*
X2313Y563D01*
X2303Y563D01*
X2303Y568D01*
X2309Y568D01*
G37*
D02*
G36*
X2324Y563D02*
X2324Y561D01*
X2303Y561D01*
X2303Y563D01*
X2324Y563D01*
G37*
D02*
G36*
X2324Y563D02*
X2324Y561D01*
X2303Y561D01*
X2303Y563D01*
X2324Y563D01*
G37*
D02*
G36*
X2324Y561D02*
X2324Y560D01*
X2322Y560D01*
X2322Y558D01*
X2321Y558D01*
X2321Y556D01*
X2314Y556D01*
X2314Y555D01*
X2311Y555D01*
X2311Y556D01*
X2306Y556D01*
X2306Y558D01*
X2304Y558D01*
X2304Y560D01*
X2303Y560D01*
X2303Y561D01*
X2324Y561D01*
G37*
D02*
G36*
X2180Y530D02*
X2180Y528D01*
X2178Y528D01*
X2178Y530D01*
X2180Y530D01*
G37*
D02*
G36*
X1914Y527D02*
X1914Y525D01*
X1917Y525D01*
X1917Y520D01*
X1914Y520D01*
X1914Y519D01*
X1912Y519D01*
X1912Y517D01*
X1911Y517D01*
X1911Y512D01*
X1909Y512D01*
X1909Y504D01*
X1907Y504D01*
X1907Y502D01*
X1904Y502D01*
X1904Y506D01*
X1902Y506D01*
X1902Y514D01*
X1904Y514D01*
X1904Y520D01*
X1906Y520D01*
X1906Y522D01*
X1907Y522D01*
X1907Y524D01*
X1909Y524D01*
X1909Y525D01*
X1912Y525D01*
X1912Y527D01*
X1914Y527D01*
G37*
D02*
G36*
X2395Y515D02*
X2395Y514D01*
X2399Y514D01*
X2399Y512D01*
X2403Y512D01*
X2403Y510D01*
X2406Y510D01*
X2406Y509D01*
X2409Y509D01*
X2409Y507D01*
X2411Y507D01*
X2411Y506D01*
X2413Y506D01*
X2413Y504D01*
X2414Y504D01*
X2414Y502D01*
X2416Y502D01*
X2416Y501D01*
X2419Y501D01*
X2419Y499D01*
X2422Y499D01*
X2422Y497D01*
X2424Y497D01*
X2424Y496D01*
X2426Y496D01*
X2426Y494D01*
X2427Y494D01*
X2427Y492D01*
X2432Y492D01*
X2432Y491D01*
X2434Y491D01*
X2434Y489D01*
X2436Y489D01*
X2436Y487D01*
X2437Y487D01*
X2437Y486D01*
X2439Y486D01*
X2439Y484D01*
X2442Y484D01*
X2442Y483D01*
X2444Y483D01*
X2444Y479D01*
X2442Y479D01*
X2442Y478D01*
X2439Y478D01*
X2439Y479D01*
X2436Y479D01*
X2436Y481D01*
X2434Y481D01*
X2434Y483D01*
X2431Y483D01*
X2431Y484D01*
X2429Y484D01*
X2429Y486D01*
X2426Y486D01*
X2426Y487D01*
X2424Y487D01*
X2424Y489D01*
X2419Y489D01*
X2419Y491D01*
X2418Y491D01*
X2418Y492D01*
X2414Y492D01*
X2414Y494D01*
X2409Y494D01*
X2409Y497D01*
X2408Y497D01*
X2408Y499D01*
X2404Y499D01*
X2404Y501D01*
X2403Y501D01*
X2403Y502D01*
X2399Y502D01*
X2399Y504D01*
X2398Y504D01*
X2398Y506D01*
X2396Y506D01*
X2396Y507D01*
X2393Y507D01*
X2393Y509D01*
X2391Y509D01*
X2391Y510D01*
X2388Y510D01*
X2388Y514D01*
X2390Y514D01*
X2390Y515D01*
X2395Y515D01*
G37*
D02*
G36*
X1937Y514D02*
X1937Y510D01*
X1935Y510D01*
X1935Y509D01*
X1932Y509D01*
X1932Y506D01*
X1930Y506D01*
X1930Y504D01*
X1929Y504D01*
X1929Y492D01*
X1925Y492D01*
X1925Y491D01*
X1924Y491D01*
X1924Y494D01*
X1922Y494D01*
X1922Y506D01*
X1924Y506D01*
X1924Y509D01*
X1925Y509D01*
X1925Y510D01*
X1927Y510D01*
X1927Y512D01*
X1930Y512D01*
X1930Y514D01*
X1937Y514D01*
G37*
D02*
G36*
X2252Y489D02*
X2252Y487D01*
X2253Y487D01*
X2253Y483D01*
X2252Y483D01*
X2252Y481D01*
X2253Y481D01*
X2253Y474D01*
X2255Y474D01*
X2255Y469D01*
X2257Y469D01*
X2257Y465D01*
X2258Y465D01*
X2258Y461D01*
X2260Y461D01*
X2260Y453D01*
X2258Y453D01*
X2258Y455D01*
X2255Y455D01*
X2255Y460D01*
X2253Y460D01*
X2253Y461D01*
X2252Y461D01*
X2252Y466D01*
X2250Y466D01*
X2250Y469D01*
X2249Y469D01*
X2249Y474D01*
X2247Y474D01*
X2247Y476D01*
X2249Y476D01*
X2249Y478D01*
X2247Y478D01*
X2247Y484D01*
X2249Y484D01*
X2249Y487D01*
X2250Y487D01*
X2250Y489D01*
X2252Y489D01*
G37*
D02*
G36*
X2232Y483D02*
X2232Y481D01*
X2234Y481D01*
X2234Y476D01*
X2235Y476D01*
X2235Y474D01*
X2237Y474D01*
X2237Y468D01*
X2239Y468D01*
X2239Y466D01*
X2240Y466D01*
X2240Y465D01*
X2242Y465D01*
X2242Y461D01*
X2244Y461D01*
X2244Y458D01*
X2245Y458D01*
X2245Y453D01*
X2239Y453D01*
X2239Y455D01*
X2237Y455D01*
X2237Y456D01*
X2235Y456D01*
X2235Y458D01*
X2234Y458D01*
X2234Y463D01*
X2232Y463D01*
X2232Y466D01*
X2231Y466D01*
X2231Y469D01*
X2227Y469D01*
X2227Y476D01*
X2229Y476D01*
X2229Y481D01*
X2231Y481D01*
X2231Y483D01*
X2232Y483D01*
G37*
D02*
G36*
X2211Y479D02*
X2211Y476D01*
X2212Y476D01*
X2212Y471D01*
X2214Y471D01*
X2214Y458D01*
X2216Y458D01*
X2216Y456D01*
X2217Y456D01*
X2217Y455D01*
X2219Y455D01*
X2219Y451D01*
X2221Y451D01*
X2221Y446D01*
X2214Y446D01*
X2214Y448D01*
X2212Y448D01*
X2212Y450D01*
X2211Y450D01*
X2211Y453D01*
X2208Y453D01*
X2208Y458D01*
X2206Y458D01*
X2206Y469D01*
X2204Y469D01*
X2204Y471D01*
X2206Y471D01*
X2206Y476D01*
X2204Y476D01*
X2204Y478D01*
X2208Y478D01*
X2208Y479D01*
X2211Y479D01*
G37*
D02*
G36*
X1996Y673D02*
X1996Y671D01*
X2007Y671D01*
X2007Y670D01*
X2012Y670D01*
X2012Y668D01*
X2017Y668D01*
X2017Y666D01*
X1975Y666D01*
X1975Y665D01*
X1970Y665D01*
X1970Y663D01*
X1965Y663D01*
X1965Y661D01*
X1961Y661D01*
X1961Y660D01*
X1960Y660D01*
X1960Y655D01*
X1961Y655D01*
X1961Y650D01*
X1963Y650D01*
X1963Y648D01*
X1965Y648D01*
X1965Y645D01*
X1966Y645D01*
X1966Y643D01*
X1968Y643D01*
X1968Y642D01*
X1957Y642D01*
X1957Y638D01*
X1955Y638D01*
X1955Y627D01*
X1960Y627D01*
X1960Y625D01*
X1961Y625D01*
X1961Y624D01*
X1963Y624D01*
X1963Y619D01*
X1965Y619D01*
X1965Y615D01*
X1961Y615D01*
X1961Y612D01*
X1963Y612D01*
X1963Y611D01*
X1965Y611D01*
X1965Y607D01*
X1953Y607D01*
X1953Y606D01*
X1945Y606D01*
X1945Y614D01*
X1947Y614D01*
X1947Y632D01*
X1948Y632D01*
X1948Y663D01*
X1950Y663D01*
X1950Y665D01*
X1955Y665D01*
X1955Y666D01*
X1960Y666D01*
X1960Y668D01*
X1965Y668D01*
X1965Y670D01*
X1975Y670D01*
X1975Y671D01*
X1983Y671D01*
X1983Y673D01*
X1996Y673D01*
G37*
D02*
G36*
X2024Y666D02*
X2024Y665D01*
X2027Y665D01*
X2027Y663D01*
X2030Y663D01*
X2030Y661D01*
X2032Y661D01*
X2032Y660D01*
X2034Y660D01*
X2034Y658D01*
X2037Y658D01*
X2037Y655D01*
X2040Y655D01*
X2040Y653D01*
X2042Y653D01*
X2042Y652D01*
X2044Y652D01*
X2044Y648D01*
X2045Y648D01*
X2045Y645D01*
X2047Y645D01*
X2047Y642D01*
X2048Y642D01*
X2048Y635D01*
X2050Y635D01*
X2050Y630D01*
X2048Y630D01*
X2048Y629D01*
X2050Y629D01*
X2050Y625D01*
X2048Y625D01*
X2048Y617D01*
X2047Y617D01*
X2047Y607D01*
X2037Y607D01*
X2037Y606D01*
X2034Y606D01*
X2034Y604D01*
X2014Y604D01*
X2014Y606D01*
X2017Y606D01*
X2017Y607D01*
X2024Y607D01*
X2024Y609D01*
X2027Y609D01*
X2027Y611D01*
X2029Y611D01*
X2029Y612D01*
X2030Y612D01*
X2030Y614D01*
X2034Y614D01*
X2034Y615D01*
X2035Y615D01*
X2035Y617D01*
X2037Y617D01*
X2037Y622D01*
X2039Y622D01*
X2039Y627D01*
X2040Y627D01*
X2040Y630D01*
X2039Y630D01*
X2039Y632D01*
X2040Y632D01*
X2040Y635D01*
X2039Y635D01*
X2039Y637D01*
X2040Y637D01*
X2040Y640D01*
X2039Y640D01*
X2039Y645D01*
X2037Y645D01*
X2037Y648D01*
X2035Y648D01*
X2035Y650D01*
X2034Y650D01*
X2034Y653D01*
X2030Y653D01*
X2030Y655D01*
X2027Y655D01*
X2027Y656D01*
X2025Y656D01*
X2025Y658D01*
X2022Y658D01*
X2022Y660D01*
X2021Y660D01*
X2021Y661D01*
X2017Y661D01*
X2017Y663D01*
X2011Y663D01*
X2011Y665D01*
X2004Y665D01*
X2004Y666D01*
X2024Y666D01*
G37*
D02*
G36*
X1968Y642D02*
X1968Y640D01*
X1970Y640D01*
X1970Y638D01*
X1973Y638D01*
X1973Y635D01*
X1975Y635D01*
X1975Y633D01*
X1976Y633D01*
X1976Y630D01*
X1978Y630D01*
X1978Y627D01*
X1980Y627D01*
X1980Y625D01*
X1981Y625D01*
X1981Y624D01*
X1983Y624D01*
X1983Y622D01*
X1984Y622D01*
X1984Y620D01*
X1986Y620D01*
X1986Y619D01*
X1988Y619D01*
X1988Y615D01*
X1991Y615D01*
X1991Y614D01*
X1993Y614D01*
X1993Y612D01*
X1994Y612D01*
X1994Y611D01*
X1996Y611D01*
X1996Y607D01*
X1999Y607D01*
X1999Y606D01*
X2009Y606D01*
X2009Y604D01*
X1989Y604D01*
X1989Y606D01*
X1988Y606D01*
X1988Y607D01*
X1986Y607D01*
X1986Y609D01*
X1984Y609D01*
X1984Y612D01*
X1983Y612D01*
X1983Y614D01*
X1981Y614D01*
X1981Y615D01*
X1980Y615D01*
X1980Y617D01*
X1978Y617D01*
X1978Y619D01*
X1976Y619D01*
X1976Y620D01*
X1975Y620D01*
X1975Y622D01*
X1973Y622D01*
X1973Y624D01*
X1971Y624D01*
X1971Y627D01*
X1970Y627D01*
X1970Y629D01*
X1968Y629D01*
X1968Y632D01*
X1966Y632D01*
X1966Y633D01*
X1965Y633D01*
X1965Y635D01*
X1963Y635D01*
X1963Y637D01*
X1961Y637D01*
X1961Y638D01*
X1958Y638D01*
X1958Y642D01*
X1968Y642D01*
G37*
D02*
G36*
X2309Y630D02*
X2309Y629D01*
X2313Y629D01*
X2313Y625D01*
X2309Y625D01*
X2309Y624D01*
X2308Y624D01*
X2308Y622D01*
X2306Y622D01*
X2306Y619D01*
X2304Y619D01*
X2304Y615D01*
X2303Y615D01*
X2303Y614D01*
X2306Y614D01*
X2306Y611D01*
X2308Y611D01*
X2308Y607D01*
X2309Y607D01*
X2309Y606D01*
X2313Y606D01*
X2313Y604D01*
X2314Y604D01*
X2314Y602D01*
X2317Y602D01*
X2317Y601D01*
X2286Y601D01*
X2286Y604D01*
X2288Y604D01*
X2288Y607D01*
X2290Y607D01*
X2290Y614D01*
X2291Y614D01*
X2291Y619D01*
X2293Y619D01*
X2293Y622D01*
X2294Y622D01*
X2294Y624D01*
X2298Y624D01*
X2298Y625D01*
X2299Y625D01*
X2299Y627D01*
X2303Y627D01*
X2303Y629D01*
X2306Y629D01*
X2306Y630D01*
X2309Y630D01*
G37*
D02*
G36*
X2340Y627D02*
X2340Y625D01*
X2344Y625D01*
X2344Y624D01*
X2345Y624D01*
X2345Y622D01*
X2347Y622D01*
X2347Y620D01*
X2349Y620D01*
X2349Y619D01*
X2350Y619D01*
X2350Y615D01*
X2352Y615D01*
X2352Y612D01*
X2354Y612D01*
X2354Y602D01*
X2355Y602D01*
X2355Y601D01*
X2334Y601D01*
X2334Y602D01*
X2340Y602D01*
X2340Y606D01*
X2344Y606D01*
X2344Y609D01*
X2342Y609D01*
X2342Y611D01*
X2344Y611D01*
X2344Y612D01*
X2340Y612D01*
X2340Y615D01*
X2339Y615D01*
X2339Y617D01*
X2337Y617D01*
X2337Y619D01*
X2334Y619D01*
X2334Y622D01*
X2332Y622D01*
X2332Y625D01*
X2334Y625D01*
X2334Y627D01*
X2340Y627D01*
G37*
D02*
G36*
X2047Y607D02*
X2047Y597D01*
X2045Y597D01*
X2045Y583D01*
X2044Y583D01*
X2044Y581D01*
X2045Y581D01*
X2045Y579D01*
X2044Y579D01*
X2044Y574D01*
X2042Y574D01*
X2042Y571D01*
X2040Y571D01*
X2040Y568D01*
X2039Y568D01*
X2039Y566D01*
X2040Y566D01*
X2040Y563D01*
X2039Y563D01*
X2039Y560D01*
X2040Y560D01*
X2040Y558D01*
X2044Y558D01*
X2044Y556D01*
X2047Y556D01*
X2047Y555D01*
X2048Y555D01*
X2048Y553D01*
X2050Y553D01*
X2050Y551D01*
X2030Y551D01*
X2030Y550D01*
X2029Y550D01*
X2029Y548D01*
X2027Y548D01*
X2027Y545D01*
X2025Y545D01*
X2025Y543D01*
X2024Y543D01*
X2024Y542D01*
X2011Y542D01*
X2011Y543D01*
X2012Y543D01*
X2012Y545D01*
X2016Y545D01*
X2016Y547D01*
X2017Y547D01*
X2017Y548D01*
X2019Y548D01*
X2019Y550D01*
X2021Y550D01*
X2021Y551D01*
X2022Y551D01*
X2022Y553D01*
X2024Y553D01*
X2024Y556D01*
X2025Y556D01*
X2025Y560D01*
X2024Y560D01*
X2024Y565D01*
X2025Y565D01*
X2025Y566D01*
X2032Y566D01*
X2032Y568D01*
X2034Y568D01*
X2034Y573D01*
X2035Y573D01*
X2035Y576D01*
X2037Y576D01*
X2037Y581D01*
X2039Y581D01*
X2039Y607D01*
X2047Y607D01*
G37*
D02*
G36*
X1978Y607D02*
X1978Y606D01*
X1980Y606D01*
X1980Y604D01*
X1973Y604D01*
X1973Y607D01*
X1978Y607D01*
G37*
D02*
G36*
X1966Y607D02*
X1966Y606D01*
X1955Y606D01*
X1955Y607D01*
X1966Y607D01*
G37*
D02*
G36*
X1970Y606D02*
X1970Y604D01*
X1945Y604D01*
X1945Y606D01*
X1970Y606D01*
G37*
D02*
G36*
X1970Y606D02*
X1970Y604D01*
X1945Y604D01*
X1945Y606D01*
X1970Y606D01*
G37*
D02*
G36*
X2030Y604D02*
X2030Y602D01*
X1993Y602D01*
X1993Y604D01*
X2030Y604D01*
G37*
D02*
G36*
X2030Y604D02*
X2030Y602D01*
X1993Y602D01*
X1993Y604D01*
X2030Y604D01*
G37*
D02*
G36*
X1980Y604D02*
X1980Y602D01*
X1960Y602D01*
X1960Y604D01*
X1980Y604D01*
G37*
D02*
G36*
X1980Y604D02*
X1980Y602D01*
X1960Y602D01*
X1960Y604D01*
X1980Y604D01*
G37*
D02*
G36*
X1953Y604D02*
X1953Y601D01*
X1955Y601D01*
X1955Y599D01*
X1957Y599D01*
X1957Y597D01*
X1958Y597D01*
X1958Y596D01*
X1960Y596D01*
X1960Y594D01*
X1965Y594D01*
X1965Y592D01*
X1966Y592D01*
X1966Y589D01*
X1968Y589D01*
X1968Y586D01*
X1955Y586D01*
X1955Y583D01*
X1957Y583D01*
X1957Y581D01*
X1955Y581D01*
X1955Y579D01*
X1957Y579D01*
X1957Y576D01*
X1958Y576D01*
X1958Y573D01*
X1960Y573D01*
X1960Y571D01*
X1963Y571D01*
X1963Y569D01*
X1966Y569D01*
X1966Y568D01*
X1968Y568D01*
X1968Y566D01*
X1970Y566D01*
X1970Y563D01*
X1971Y563D01*
X1971Y561D01*
X1973Y561D01*
X1973Y560D01*
X1975Y560D01*
X1975Y558D01*
X1978Y558D01*
X1978Y556D01*
X1980Y556D01*
X1980Y553D01*
X1983Y553D01*
X1983Y551D01*
X1984Y551D01*
X1984Y550D01*
X1988Y550D01*
X1988Y548D01*
X1989Y548D01*
X1989Y547D01*
X1991Y547D01*
X1991Y545D01*
X1993Y545D01*
X1993Y543D01*
X1996Y543D01*
X1996Y542D01*
X1981Y542D01*
X1981Y543D01*
X1980Y543D01*
X1980Y547D01*
X1976Y547D01*
X1976Y550D01*
X1973Y550D01*
X1973Y551D01*
X1971Y551D01*
X1971Y553D01*
X1970Y553D01*
X1970Y555D01*
X1968Y555D01*
X1968Y556D01*
X1966Y556D01*
X1966Y558D01*
X1965Y558D01*
X1965Y560D01*
X1961Y560D01*
X1961Y561D01*
X1958Y561D01*
X1958Y563D01*
X1957Y563D01*
X1957Y566D01*
X1955Y566D01*
X1955Y568D01*
X1953Y568D01*
X1953Y571D01*
X1952Y571D01*
X1952Y573D01*
X1950Y573D01*
X1950Y574D01*
X1948Y574D01*
X1948Y579D01*
X1947Y579D01*
X1947Y581D01*
X1948Y581D01*
X1948Y588D01*
X1947Y588D01*
X1947Y594D01*
X1945Y594D01*
X1945Y596D01*
X1947Y596D01*
X1947Y599D01*
X1945Y599D01*
X1945Y604D01*
X1953Y604D01*
G37*
D02*
G36*
X2027Y602D02*
X2027Y601D01*
X2022Y601D01*
X2022Y599D01*
X2019Y599D01*
X2019Y597D01*
X2017Y597D01*
X2017Y596D01*
X2014Y596D01*
X2014Y594D01*
X2012Y594D01*
X2012Y592D01*
X2011Y592D01*
X2011Y588D01*
X2009Y588D01*
X2009Y583D01*
X2011Y583D01*
X2011Y581D01*
X2009Y581D01*
X2009Y569D01*
X2011Y569D01*
X2011Y568D01*
X2009Y568D01*
X2009Y558D01*
X2007Y558D01*
X2007Y543D01*
X2009Y543D01*
X2009Y542D01*
X1998Y542D01*
X1998Y545D01*
X1999Y545D01*
X1999Y550D01*
X2001Y550D01*
X2001Y551D01*
X1999Y551D01*
X1999Y555D01*
X2001Y555D01*
X2001Y565D01*
X2002Y565D01*
X2002Y592D01*
X2001Y592D01*
X2001Y597D01*
X1999Y597D01*
X1999Y599D01*
X1998Y599D01*
X1998Y601D01*
X1996Y601D01*
X1996Y602D01*
X2027Y602D01*
G37*
D02*
G36*
X1981Y602D02*
X1981Y601D01*
X1984Y601D01*
X1984Y599D01*
X1986Y599D01*
X1986Y597D01*
X1988Y597D01*
X1988Y596D01*
X1986Y596D01*
X1986Y594D01*
X1981Y594D01*
X1981Y596D01*
X1978Y596D01*
X1978Y597D01*
X1976Y597D01*
X1976Y599D01*
X1975Y599D01*
X1975Y601D01*
X1973Y601D01*
X1973Y602D01*
X1981Y602D01*
G37*
D02*
G36*
X1971Y602D02*
X1971Y601D01*
X1970Y601D01*
X1970Y599D01*
X1965Y599D01*
X1965Y601D01*
X1961Y601D01*
X1961Y602D01*
X1971Y602D01*
G37*
D02*
G36*
X2355Y601D02*
X2355Y599D01*
X2286Y599D01*
X2286Y601D01*
X2355Y601D01*
G37*
D02*
G36*
X2355Y601D02*
X2355Y599D01*
X2286Y599D01*
X2286Y601D01*
X2355Y601D01*
G37*
D02*
G36*
X2354Y599D02*
X2354Y596D01*
X2352Y596D01*
X2352Y594D01*
X2354Y594D01*
X2354Y592D01*
X2293Y592D01*
X2293Y588D01*
X2291Y588D01*
X2291Y586D01*
X2290Y586D01*
X2290Y581D01*
X2288Y581D01*
X2288Y576D01*
X2286Y576D01*
X2286Y571D01*
X2285Y571D01*
X2285Y568D01*
X2283Y568D01*
X2283Y565D01*
X2281Y565D01*
X2281Y561D01*
X2280Y561D01*
X2280Y555D01*
X2278Y555D01*
X2278Y551D01*
X2276Y551D01*
X2276Y545D01*
X2275Y545D01*
X2275Y540D01*
X2273Y540D01*
X2273Y535D01*
X2258Y535D01*
X2258Y533D01*
X2252Y533D01*
X2252Y532D01*
X2219Y532D01*
X2219Y533D01*
X2229Y533D01*
X2229Y535D01*
X2239Y535D01*
X2239Y537D01*
X2245Y537D01*
X2245Y538D01*
X2250Y538D01*
X2250Y540D01*
X2253Y540D01*
X2253Y542D01*
X2258Y542D01*
X2258Y543D01*
X2262Y543D01*
X2262Y545D01*
X2265Y545D01*
X2265Y548D01*
X2267Y548D01*
X2267Y550D01*
X2268Y550D01*
X2268Y555D01*
X2270Y555D01*
X2270Y558D01*
X2272Y558D01*
X2272Y563D01*
X2273Y563D01*
X2273Y568D01*
X2275Y568D01*
X2275Y573D01*
X2276Y573D01*
X2276Y574D01*
X2278Y574D01*
X2278Y581D01*
X2280Y581D01*
X2280Y586D01*
X2281Y586D01*
X2281Y591D01*
X2283Y591D01*
X2283Y592D01*
X2285Y592D01*
X2285Y597D01*
X2286Y597D01*
X2286Y599D01*
X2354Y599D01*
G37*
D02*
G36*
X2352Y592D02*
X2352Y589D01*
X2303Y589D01*
X2303Y588D01*
X2301Y588D01*
X2301Y589D01*
X2299Y589D01*
X2299Y591D01*
X2296Y591D01*
X2296Y592D01*
X2352Y592D01*
G37*
D02*
G36*
X2352Y589D02*
X2352Y586D01*
X2350Y586D01*
X2350Y583D01*
X2349Y583D01*
X2349Y578D01*
X2347Y578D01*
X2347Y576D01*
X2345Y576D01*
X2345Y571D01*
X2344Y571D01*
X2344Y569D01*
X2342Y569D01*
X2342Y565D01*
X2340Y565D01*
X2340Y560D01*
X2339Y560D01*
X2339Y556D01*
X2337Y556D01*
X2337Y553D01*
X2335Y553D01*
X2335Y551D01*
X2337Y551D01*
X2337Y550D01*
X2340Y550D01*
X2340Y548D01*
X2344Y548D01*
X2344Y547D01*
X2345Y547D01*
X2345Y545D01*
X2347Y545D01*
X2347Y543D01*
X2349Y543D01*
X2349Y540D01*
X2350Y540D01*
X2350Y535D01*
X2332Y535D01*
X2332Y537D01*
X2335Y537D01*
X2335Y540D01*
X2331Y540D01*
X2331Y542D01*
X2326Y542D01*
X2326Y543D01*
X2324Y543D01*
X2324Y545D01*
X2322Y545D01*
X2322Y547D01*
X2321Y547D01*
X2321Y551D01*
X2322Y551D01*
X2322Y555D01*
X2326Y555D01*
X2326Y558D01*
X2327Y558D01*
X2327Y560D01*
X2329Y560D01*
X2329Y563D01*
X2331Y563D01*
X2331Y566D01*
X2332Y566D01*
X2332Y571D01*
X2334Y571D01*
X2334Y574D01*
X2335Y574D01*
X2335Y578D01*
X2334Y578D01*
X2334Y579D01*
X2329Y579D01*
X2329Y581D01*
X2319Y581D01*
X2319Y583D01*
X2314Y583D01*
X2314Y584D01*
X2311Y584D01*
X2311Y586D01*
X2308Y586D01*
X2308Y588D01*
X2304Y588D01*
X2304Y589D01*
X2352Y589D01*
G37*
D02*
G36*
X1966Y586D02*
X1966Y584D01*
X1961Y584D01*
X1961Y586D01*
X1966Y586D01*
G37*
D02*
G36*
X1960Y586D02*
X1960Y584D01*
X1958Y584D01*
X1958Y586D01*
X1960Y586D01*
G37*
D02*
G36*
X2163Y560D02*
X2163Y558D01*
X2152Y558D01*
X2152Y560D01*
X2163Y560D01*
G37*
D02*
G36*
X2148Y560D02*
X2148Y558D01*
X2134Y558D01*
X2134Y560D01*
X2148Y560D01*
G37*
D02*
G36*
X2165Y558D02*
X2165Y556D01*
X2129Y556D01*
X2129Y558D01*
X2165Y558D01*
G37*
D02*
G36*
X2165Y558D02*
X2165Y556D01*
X2129Y556D01*
X2129Y558D01*
X2165Y558D01*
G37*
D02*
G36*
X2168Y556D02*
X2168Y555D01*
X2170Y555D01*
X2170Y553D01*
X2132Y553D01*
X2132Y551D01*
X2129Y551D01*
X2129Y550D01*
X2126Y550D01*
X2126Y547D01*
X2124Y547D01*
X2124Y545D01*
X2122Y545D01*
X2122Y543D01*
X2083Y543D01*
X2083Y545D01*
X2107Y545D01*
X2107Y547D01*
X2109Y547D01*
X2109Y548D01*
X2111Y548D01*
X2111Y550D01*
X2114Y550D01*
X2114Y551D01*
X2117Y551D01*
X2117Y553D01*
X2121Y553D01*
X2121Y555D01*
X2122Y555D01*
X2122Y556D01*
X2168Y556D01*
G37*
D02*
G36*
X2173Y553D02*
X2173Y551D01*
X2158Y551D01*
X2158Y545D01*
X2162Y545D01*
X2162Y542D01*
X2163Y542D01*
X2163Y538D01*
X2165Y538D01*
X2165Y535D01*
X2163Y535D01*
X2163Y533D01*
X2158Y533D01*
X2158Y532D01*
X2152Y532D01*
X2152Y530D01*
X2150Y530D01*
X2150Y528D01*
X2148Y528D01*
X2148Y522D01*
X2139Y522D01*
X2139Y535D01*
X2140Y535D01*
X2140Y537D01*
X2144Y537D01*
X2144Y538D01*
X2147Y538D01*
X2147Y540D01*
X2150Y540D01*
X2150Y543D01*
X2148Y543D01*
X2148Y545D01*
X2147Y545D01*
X2147Y548D01*
X2145Y548D01*
X2145Y551D01*
X2144Y551D01*
X2144Y553D01*
X2173Y553D01*
G37*
D02*
G36*
X2175Y551D02*
X2175Y550D01*
X2176Y550D01*
X2176Y548D01*
X2178Y548D01*
X2178Y545D01*
X2180Y545D01*
X2180Y542D01*
X2181Y542D01*
X2181Y540D01*
X2183Y540D01*
X2183Y538D01*
X2185Y538D01*
X2185Y537D01*
X2186Y537D01*
X2186Y535D01*
X2188Y535D01*
X2188Y533D01*
X2191Y533D01*
X2191Y532D01*
X2180Y532D01*
X2180Y533D01*
X2178Y533D01*
X2178Y538D01*
X2176Y538D01*
X2176Y540D01*
X2173Y540D01*
X2173Y542D01*
X2171Y542D01*
X2171Y543D01*
X2170Y543D01*
X2170Y545D01*
X2168Y545D01*
X2168Y548D01*
X2165Y548D01*
X2165Y550D01*
X2160Y550D01*
X2160Y551D01*
X2175Y551D01*
G37*
D02*
G36*
X2053Y551D02*
X2053Y550D01*
X2057Y550D01*
X2057Y548D01*
X2060Y548D01*
X2060Y547D01*
X2068Y547D01*
X2068Y545D01*
X2075Y545D01*
X2075Y543D01*
X2048Y543D01*
X2048Y545D01*
X2047Y545D01*
X2047Y547D01*
X2044Y547D01*
X2044Y548D01*
X2040Y548D01*
X2040Y550D01*
X2037Y550D01*
X2037Y551D01*
X2053Y551D01*
G37*
D02*
G36*
X2316Y548D02*
X2316Y547D01*
X2319Y547D01*
X2319Y542D01*
X2321Y542D01*
X2321Y540D01*
X2322Y540D01*
X2322Y537D01*
X2331Y537D01*
X2331Y535D01*
X2313Y535D01*
X2313Y537D01*
X2311Y537D01*
X2311Y538D01*
X2309Y538D01*
X2309Y547D01*
X2311Y547D01*
X2311Y548D01*
X2316Y548D01*
G37*
D02*
G36*
X2117Y543D02*
X2117Y542D01*
X2052Y542D01*
X2052Y543D01*
X2117Y543D01*
G37*
D02*
G36*
X2117Y543D02*
X2117Y542D01*
X2052Y542D01*
X2052Y543D01*
X2117Y543D01*
G37*
D02*
G36*
X2117Y542D02*
X2117Y540D01*
X2116Y540D01*
X2116Y538D01*
X2081Y538D01*
X2081Y537D01*
X2068Y537D01*
X2068Y538D01*
X2062Y538D01*
X2062Y540D01*
X2057Y540D01*
X2057Y542D01*
X2117Y542D01*
G37*
D02*
G36*
X2021Y542D02*
X2021Y540D01*
X1980Y540D01*
X1980Y542D01*
X2021Y542D01*
G37*
D02*
G36*
X2021Y542D02*
X2021Y540D01*
X1980Y540D01*
X1980Y542D01*
X2021Y542D01*
G37*
D02*
G36*
X2021Y542D02*
X2021Y540D01*
X1980Y540D01*
X1980Y542D01*
X2021Y542D01*
G37*
D02*
G36*
X2021Y540D02*
X2021Y538D01*
X2019Y538D01*
X2019Y537D01*
X1986Y537D01*
X1986Y535D01*
X1984Y535D01*
X1984Y533D01*
X1983Y533D01*
X1983Y530D01*
X1981Y530D01*
X1981Y528D01*
X1980Y528D01*
X1980Y524D01*
X1978Y524D01*
X1978Y520D01*
X1976Y520D01*
X1976Y509D01*
X1978Y509D01*
X1978Y502D01*
X1980Y502D01*
X1980Y497D01*
X1981Y497D01*
X1981Y494D01*
X1983Y494D01*
X1983Y491D01*
X1984Y491D01*
X1984Y489D01*
X1986Y489D01*
X1986Y486D01*
X1988Y486D01*
X1988Y484D01*
X1989Y484D01*
X1989Y481D01*
X1978Y481D01*
X1978Y486D01*
X1976Y486D01*
X1976Y492D01*
X1975Y492D01*
X1975Y494D01*
X1973Y494D01*
X1973Y496D01*
X1971Y496D01*
X1971Y506D01*
X1970Y506D01*
X1970Y509D01*
X1968Y509D01*
X1968Y520D01*
X1970Y520D01*
X1970Y525D01*
X1971Y525D01*
X1971Y530D01*
X1973Y530D01*
X1973Y532D01*
X1975Y532D01*
X1975Y535D01*
X1976Y535D01*
X1976Y537D01*
X1978Y537D01*
X1978Y540D01*
X2021Y540D01*
G37*
D02*
G36*
X2116Y538D02*
X2116Y535D01*
X2117Y535D01*
X2117Y532D01*
X2121Y532D01*
X2121Y528D01*
X2122Y528D01*
X2122Y527D01*
X2126Y527D01*
X2126Y525D01*
X2127Y525D01*
X2127Y524D01*
X2132Y524D01*
X2132Y522D01*
X2116Y522D01*
X2116Y524D01*
X2114Y524D01*
X2114Y525D01*
X2112Y525D01*
X2112Y527D01*
X2111Y527D01*
X2111Y530D01*
X2109Y530D01*
X2109Y533D01*
X2106Y533D01*
X2106Y537D01*
X2104Y537D01*
X2104Y538D01*
X2116Y538D01*
G37*
D02*
G36*
X2017Y537D02*
X2017Y535D01*
X2014Y535D01*
X2014Y532D01*
X2006Y532D01*
X2006Y530D01*
X1996Y530D01*
X1996Y532D01*
X1993Y532D01*
X1993Y535D01*
X1988Y535D01*
X1988Y537D01*
X2017Y537D01*
G37*
D02*
G36*
X2349Y535D02*
X2349Y533D01*
X2313Y533D01*
X2313Y535D01*
X2349Y535D01*
G37*
D02*
G36*
X2349Y535D02*
X2349Y533D01*
X2313Y533D01*
X2313Y535D01*
X2349Y535D01*
G37*
D02*
G36*
X2272Y535D02*
X2272Y532D01*
X2270Y532D01*
X2270Y524D01*
X2268Y524D01*
X2268Y519D01*
X2270Y519D01*
X2270Y515D01*
X2272Y515D01*
X2272Y514D01*
X2273Y514D01*
X2273Y512D01*
X2275Y512D01*
X2275Y510D01*
X2276Y510D01*
X2276Y509D01*
X2281Y509D01*
X2281Y507D01*
X2286Y507D01*
X2286Y506D01*
X2294Y506D01*
X2294Y504D01*
X2268Y504D01*
X2268Y506D01*
X2267Y506D01*
X2267Y507D01*
X2265Y507D01*
X2265Y510D01*
X2263Y510D01*
X2263Y512D01*
X2262Y512D01*
X2262Y514D01*
X2260Y514D01*
X2260Y519D01*
X2258Y519D01*
X2258Y520D01*
X2260Y520D01*
X2260Y524D01*
X2258Y524D01*
X2258Y527D01*
X2260Y527D01*
X2260Y535D01*
X2272Y535D01*
G37*
D02*
G36*
X2347Y533D02*
X2347Y532D01*
X2344Y532D01*
X2344Y530D01*
X2335Y530D01*
X2335Y528D01*
X2326Y528D01*
X2326Y527D01*
X2322Y527D01*
X2322Y525D01*
X2321Y525D01*
X2321Y522D01*
X2319Y522D01*
X2319Y519D01*
X2317Y519D01*
X2317Y514D01*
X2316Y514D01*
X2316Y509D01*
X2314Y509D01*
X2314Y507D01*
X2313Y507D01*
X2313Y504D01*
X2303Y504D01*
X2303Y506D01*
X2304Y506D01*
X2304Y510D01*
X2306Y510D01*
X2306Y514D01*
X2308Y514D01*
X2308Y520D01*
X2309Y520D01*
X2309Y524D01*
X2311Y524D01*
X2311Y527D01*
X2313Y527D01*
X2313Y532D01*
X2314Y532D01*
X2314Y533D01*
X2347Y533D01*
G37*
D02*
G36*
X2196Y533D02*
X2196Y532D01*
X2193Y532D01*
X2193Y533D01*
X2196Y533D01*
G37*
D02*
G36*
X2247Y532D02*
X2247Y530D01*
X2181Y530D01*
X2181Y532D01*
X2247Y532D01*
G37*
D02*
G36*
X2247Y532D02*
X2247Y530D01*
X2181Y530D01*
X2181Y532D01*
X2247Y532D01*
G37*
D02*
G36*
X2247Y532D02*
X2247Y530D01*
X2181Y530D01*
X2181Y532D01*
X2247Y532D01*
G37*
D02*
G36*
X2016Y532D02*
X2016Y528D01*
X2017Y528D01*
X2017Y514D01*
X2016Y514D01*
X2016Y512D01*
X2014Y512D01*
X2014Y510D01*
X2012Y510D01*
X2012Y509D01*
X2009Y509D01*
X2009Y506D01*
X2007Y506D01*
X2007Y504D01*
X2006Y504D01*
X2006Y502D01*
X2004Y502D01*
X2004Y499D01*
X2002Y499D01*
X2002Y487D01*
X1993Y487D01*
X1993Y494D01*
X1994Y494D01*
X1994Y501D01*
X1996Y501D01*
X1996Y504D01*
X1998Y504D01*
X1998Y507D01*
X1999Y507D01*
X1999Y509D01*
X2001Y509D01*
X2001Y510D01*
X2002Y510D01*
X2002Y512D01*
X2004Y512D01*
X2004Y514D01*
X2006Y514D01*
X2006Y515D01*
X2009Y515D01*
X2009Y520D01*
X2011Y520D01*
X2011Y525D01*
X2009Y525D01*
X2009Y532D01*
X2016Y532D01*
G37*
D02*
G36*
X2339Y530D02*
X2339Y528D01*
X2337Y528D01*
X2337Y530D01*
X2339Y530D01*
G37*
D02*
G36*
X2242Y530D02*
X2242Y528D01*
X2239Y528D01*
X2239Y527D01*
X2226Y527D01*
X2226Y525D01*
X2217Y525D01*
X2217Y524D01*
X2196Y524D01*
X2196Y522D01*
X2194Y522D01*
X2194Y519D01*
X2193Y519D01*
X2193Y512D01*
X2191Y512D01*
X2191Y510D01*
X2171Y510D01*
X2171Y512D01*
X2176Y512D01*
X2176Y514D01*
X2180Y514D01*
X2180Y515D01*
X2183Y515D01*
X2183Y517D01*
X2185Y517D01*
X2185Y522D01*
X2186Y522D01*
X2186Y527D01*
X2185Y527D01*
X2185Y528D01*
X2183Y528D01*
X2183Y530D01*
X2242Y530D01*
G37*
D02*
G36*
X2152Y522D02*
X2152Y520D01*
X2119Y520D01*
X2119Y522D01*
X2152Y522D01*
G37*
D02*
G36*
X2152Y522D02*
X2152Y520D01*
X2119Y520D01*
X2119Y522D01*
X2152Y522D01*
G37*
D02*
G36*
X2153Y520D02*
X2153Y519D01*
X2155Y519D01*
X2155Y517D01*
X2157Y517D01*
X2157Y515D01*
X2158Y515D01*
X2158Y514D01*
X2163Y514D01*
X2163Y512D01*
X2129Y512D01*
X2129Y514D01*
X2127Y514D01*
X2127Y515D01*
X2126Y515D01*
X2126Y517D01*
X2124Y517D01*
X2124Y519D01*
X2122Y519D01*
X2122Y520D01*
X2153Y520D01*
G37*
D02*
G36*
X2167Y514D02*
X2167Y512D01*
X2165Y512D01*
X2165Y514D01*
X2167Y514D01*
G37*
D02*
G36*
X2168Y512D02*
X2168Y510D01*
X2145Y510D01*
X2145Y512D01*
X2168Y512D01*
G37*
D02*
G36*
X2168Y512D02*
X2168Y510D01*
X2145Y510D01*
X2145Y512D01*
X2168Y512D01*
G37*
D02*
G36*
X2188Y510D02*
X2188Y509D01*
X2150Y509D01*
X2150Y510D01*
X2188Y510D01*
G37*
D02*
G36*
X2188Y510D02*
X2188Y509D01*
X2150Y509D01*
X2150Y510D01*
X2188Y510D01*
G37*
D02*
G36*
X2183Y509D02*
X2183Y507D01*
X2180Y507D01*
X2180Y506D01*
X2178Y506D01*
X2178Y504D01*
X2175Y504D01*
X2175Y502D01*
X2163Y502D01*
X2163Y506D01*
X2158Y506D01*
X2158Y507D01*
X2152Y507D01*
X2152Y509D01*
X2183Y509D01*
G37*
D02*
G36*
X2311Y504D02*
X2311Y502D01*
X2270Y502D01*
X2270Y504D01*
X2311Y504D01*
G37*
D02*
G36*
X2311Y504D02*
X2311Y502D01*
X2270Y502D01*
X2270Y504D01*
X2311Y504D01*
G37*
D02*
G36*
X2308Y502D02*
X2308Y496D01*
X2286Y496D01*
X2286Y494D01*
X2285Y494D01*
X2285Y491D01*
X2283Y491D01*
X2283Y489D01*
X2285Y489D01*
X2285Y479D01*
X2283Y479D01*
X2283Y468D01*
X2285Y468D01*
X2285Y465D01*
X2286Y465D01*
X2286Y461D01*
X2276Y461D01*
X2276Y463D01*
X2275Y463D01*
X2275Y466D01*
X2273Y466D01*
X2273Y474D01*
X2272Y474D01*
X2272Y476D01*
X2273Y476D01*
X2273Y491D01*
X2275Y491D01*
X2275Y501D01*
X2272Y501D01*
X2272Y502D01*
X2308Y502D01*
G37*
D02*
G36*
X2306Y496D02*
X2306Y494D01*
X2298Y494D01*
X2298Y492D01*
X2294Y492D01*
X2294Y496D01*
X2306Y496D01*
G37*
D02*
G36*
X2034Y491D02*
X2034Y489D01*
X2037Y489D01*
X2037Y487D01*
X2006Y487D01*
X2006Y489D01*
X2021Y489D01*
X2021Y491D01*
X2034Y491D01*
G37*
D02*
G36*
X1958Y489D02*
X1958Y487D01*
X1961Y487D01*
X1961Y486D01*
X1968Y486D01*
X1968Y484D01*
X1971Y484D01*
X1971Y483D01*
X1975Y483D01*
X1975Y481D01*
X1952Y481D01*
X1952Y478D01*
X1950Y478D01*
X1950Y476D01*
X1952Y476D01*
X1952Y473D01*
X1957Y473D01*
X1957Y471D01*
X1960Y471D01*
X1960Y469D01*
X1943Y469D01*
X1943Y476D01*
X1942Y476D01*
X1942Y481D01*
X1943Y481D01*
X1943Y484D01*
X1945Y484D01*
X1945Y486D01*
X1947Y486D01*
X1947Y487D01*
X1948Y487D01*
X1948Y489D01*
X1958Y489D01*
G37*
D02*
G36*
X2037Y487D02*
X2037Y486D01*
X1993Y486D01*
X1993Y487D01*
X2037Y487D01*
G37*
D02*
G36*
X2037Y487D02*
X2037Y486D01*
X1993Y486D01*
X1993Y487D01*
X2037Y487D01*
G37*
D02*
G36*
X2037Y486D02*
X2037Y483D01*
X2014Y483D01*
X2014Y481D01*
X2017Y481D01*
X2017Y479D01*
X1994Y479D01*
X1994Y484D01*
X1993Y484D01*
X1993Y486D01*
X2037Y486D01*
G37*
D02*
G36*
X2037Y483D02*
X2037Y479D01*
X2022Y479D01*
X2022Y481D01*
X2024Y481D01*
X2024Y483D01*
X2037Y483D01*
G37*
D02*
G36*
X1991Y481D02*
X1991Y479D01*
X1960Y479D01*
X1960Y481D01*
X1991Y481D01*
G37*
D02*
G36*
X1991Y481D02*
X1991Y479D01*
X1960Y479D01*
X1960Y481D01*
X1991Y481D01*
G37*
D02*
G36*
X2035Y479D02*
X2035Y478D01*
X1996Y478D01*
X1996Y479D01*
X2035Y479D01*
G37*
D02*
G36*
X2035Y479D02*
X2035Y478D01*
X1996Y478D01*
X1996Y479D01*
X2035Y479D01*
G37*
D02*
G36*
X1991Y479D02*
X1991Y469D01*
X1973Y469D01*
X1973Y473D01*
X1970Y473D01*
X1970Y474D01*
X1968Y474D01*
X1968Y476D01*
X1965Y476D01*
X1965Y478D01*
X1961Y478D01*
X1961Y479D01*
X1991Y479D01*
G37*
D02*
G36*
X2034Y478D02*
X2034Y476D01*
X2032Y476D01*
X2032Y474D01*
X2030Y474D01*
X2030Y473D01*
X2025Y473D01*
X2025Y471D01*
X2011Y471D01*
X2011Y473D01*
X2006Y473D01*
X2006Y474D01*
X2001Y474D01*
X2001Y476D01*
X1999Y476D01*
X1999Y478D01*
X2034Y478D01*
G37*
D02*
G36*
X1963Y471D02*
X1963Y469D01*
X1961Y469D01*
X1961Y471D01*
X1963Y471D01*
G37*
D02*
G36*
X2326Y469D02*
X2326Y468D01*
X2329Y468D01*
X2329Y466D01*
X2332Y466D01*
X2332Y463D01*
X2334Y463D01*
X2334Y453D01*
X2319Y453D01*
X2319Y455D01*
X2321Y455D01*
X2321Y456D01*
X2322Y456D01*
X2322Y458D01*
X2324Y458D01*
X2324Y460D01*
X2322Y460D01*
X2322Y461D01*
X2294Y461D01*
X2294Y463D01*
X2299Y463D01*
X2299Y465D01*
X2304Y465D01*
X2304Y466D01*
X2308Y466D01*
X2308Y468D01*
X2314Y468D01*
X2314Y469D01*
X2326Y469D01*
G37*
D02*
G36*
X1989Y469D02*
X1989Y468D01*
X1945Y468D01*
X1945Y469D01*
X1989Y469D01*
G37*
D02*
G36*
X1989Y469D02*
X1989Y468D01*
X1945Y468D01*
X1945Y469D01*
X1989Y469D01*
G37*
D02*
G36*
X1989Y469D02*
X1989Y468D01*
X1945Y468D01*
X1945Y469D01*
X1989Y469D01*
G37*
D02*
G36*
X1986Y468D02*
X1986Y466D01*
X1984Y466D01*
X1984Y465D01*
X1980Y465D01*
X1980Y463D01*
X1963Y463D01*
X1963Y461D01*
X1961Y461D01*
X1961Y463D01*
X1955Y463D01*
X1955Y465D01*
X1952Y465D01*
X1952Y466D01*
X1947Y466D01*
X1947Y468D01*
X1986Y468D01*
G37*
D02*
G36*
X2314Y461D02*
X2314Y460D01*
X2276Y460D01*
X2276Y461D01*
X2314Y461D01*
G37*
D02*
G36*
X2314Y461D02*
X2314Y460D01*
X2276Y460D01*
X2276Y461D01*
X2314Y461D01*
G37*
D02*
G36*
X2313Y460D02*
X2313Y458D01*
X2309Y458D01*
X2309Y456D01*
X2308Y456D01*
X2308Y455D01*
X2304Y455D01*
X2304Y453D01*
X2296Y453D01*
X2296Y451D01*
X2294Y451D01*
X2294Y450D01*
X2293Y450D01*
X2293Y448D01*
X2294Y448D01*
X2294Y446D01*
X2296Y446D01*
X2296Y445D01*
X2285Y445D01*
X2285Y446D01*
X2283Y446D01*
X2283Y448D01*
X2281Y448D01*
X2281Y450D01*
X2283Y450D01*
X2283Y451D01*
X2281Y451D01*
X2281Y453D01*
X2280Y453D01*
X2280Y456D01*
X2278Y456D01*
X2278Y458D01*
X2276Y458D01*
X2276Y460D01*
X2313Y460D01*
G37*
D02*
G36*
X2317Y455D02*
X2317Y453D01*
X2316Y453D01*
X2316Y455D01*
X2317Y455D01*
G37*
D02*
G36*
X2332Y453D02*
X2332Y451D01*
X2316Y451D01*
X2316Y453D01*
X2332Y453D01*
G37*
D02*
G36*
X2332Y453D02*
X2332Y451D01*
X2316Y451D01*
X2316Y453D01*
X2332Y453D01*
G37*
D02*
G36*
X2331Y451D02*
X2331Y450D01*
X2327Y450D01*
X2327Y448D01*
X2326Y448D01*
X2326Y446D01*
X2321Y446D01*
X2321Y445D01*
X2303Y445D01*
X2303Y446D01*
X2308Y446D01*
X2308Y448D01*
X2313Y448D01*
X2313Y450D01*
X2314Y450D01*
X2314Y451D01*
X2331Y451D01*
G37*
D02*
G36*
X2317Y445D02*
X2317Y443D01*
X2285Y443D01*
X2285Y445D01*
X2317Y445D01*
G37*
D02*
G36*
X2317Y445D02*
X2317Y443D01*
X2285Y443D01*
X2285Y445D01*
X2317Y445D01*
G37*
D02*
G36*
X2314Y443D02*
X2314Y442D01*
X2311Y442D01*
X2311Y440D01*
X2309Y440D01*
X2309Y438D01*
X2304Y438D01*
X2304Y437D01*
X2291Y437D01*
X2291Y438D01*
X2288Y438D01*
X2288Y440D01*
X2286Y440D01*
X2286Y442D01*
X2285Y442D01*
X2285Y443D01*
X2314Y443D01*
G37*
D02*
G54D12*
X303Y1121D02*
X308Y1121D01*
X1353Y1121D02*
X1359Y1121D01*
X302Y1120D02*
X309Y1120D01*
X1352Y1120D02*
X1360Y1120D01*
X214Y1119D02*
X229Y1119D01*
X301Y1119D02*
X309Y1119D01*
X338Y1119D02*
X357Y1119D01*
X382Y1119D02*
X401Y1119D01*
X425Y1119D02*
X448Y1119D01*
X467Y1119D02*
X467Y1119D01*
X519Y1119D02*
X537Y1119D01*
X554Y1119D02*
X565Y1119D01*
X603Y1119D02*
X625Y1119D01*
X841Y1119D02*
X842Y1119D01*
X910Y1119D02*
X931Y1119D01*
X948Y1119D02*
X949Y1119D01*
X1191Y1119D02*
X1192Y1119D01*
X1279Y1119D02*
X1279Y1119D01*
X1352Y1119D02*
X1360Y1119D01*
X214Y1118D02*
X230Y1118D01*
X301Y1118D02*
X309Y1118D01*
X336Y1118D02*
X359Y1118D01*
X380Y1118D02*
X403Y1118D01*
X423Y1118D02*
X449Y1118D01*
X465Y1118D02*
X469Y1118D01*
X515Y1118D02*
X537Y1118D01*
X553Y1118D02*
X568Y1118D01*
X601Y1118D02*
X625Y1118D01*
X839Y1118D02*
X843Y1118D01*
X907Y1118D02*
X931Y1118D01*
X947Y1118D02*
X950Y1118D01*
X1190Y1118D02*
X1193Y1118D01*
X1277Y1118D02*
X1281Y1118D01*
X1352Y1118D02*
X1360Y1118D01*
X214Y1117D02*
X231Y1117D01*
X301Y1117D02*
X309Y1117D01*
X335Y1117D02*
X361Y1117D01*
X378Y1117D02*
X404Y1117D01*
X422Y1117D02*
X450Y1117D01*
X465Y1117D02*
X470Y1117D01*
X514Y1117D02*
X537Y1117D01*
X552Y1117D02*
X569Y1117D01*
X599Y1117D02*
X625Y1117D01*
X839Y1117D02*
X844Y1117D01*
X906Y1117D02*
X931Y1117D01*
X946Y1117D02*
X951Y1117D01*
X1189Y1117D02*
X1194Y1117D01*
X1277Y1117D02*
X1281Y1117D01*
X1352Y1117D02*
X1360Y1117D01*
X214Y1116D02*
X231Y1116D01*
X301Y1116D02*
X309Y1116D01*
X334Y1116D02*
X361Y1116D01*
X378Y1116D02*
X405Y1116D01*
X422Y1116D02*
X450Y1116D01*
X464Y1116D02*
X470Y1116D01*
X512Y1116D02*
X537Y1116D01*
X552Y1116D02*
X570Y1116D01*
X598Y1116D02*
X625Y1116D01*
X839Y1116D02*
X844Y1116D01*
X904Y1116D02*
X931Y1116D01*
X946Y1116D02*
X952Y1116D01*
X1189Y1116D02*
X1194Y1116D01*
X1276Y1116D02*
X1281Y1116D01*
X1315Y1116D02*
X1318Y1116D01*
X1352Y1116D02*
X1360Y1116D01*
X214Y1115D02*
X231Y1115D01*
X302Y1115D02*
X309Y1115D01*
X333Y1115D02*
X362Y1115D01*
X377Y1115D02*
X406Y1115D01*
X421Y1115D02*
X450Y1115D01*
X465Y1115D02*
X471Y1115D01*
X511Y1115D02*
X537Y1115D01*
X552Y1115D02*
X571Y1115D01*
X597Y1115D02*
X625Y1115D01*
X839Y1115D02*
X844Y1115D01*
X904Y1115D02*
X931Y1115D01*
X946Y1115D02*
X952Y1115D01*
X1189Y1115D02*
X1194Y1115D01*
X1276Y1115D02*
X1282Y1115D01*
X1315Y1115D02*
X1319Y1115D01*
X1352Y1115D02*
X1360Y1115D01*
X214Y1114D02*
X230Y1114D01*
X302Y1114D02*
X309Y1114D01*
X333Y1114D02*
X362Y1114D01*
X377Y1114D02*
X406Y1114D01*
X421Y1114D02*
X449Y1114D01*
X465Y1114D02*
X471Y1114D01*
X511Y1114D02*
X537Y1114D01*
X553Y1114D02*
X572Y1114D01*
X597Y1114D02*
X625Y1114D01*
X839Y1114D02*
X844Y1114D01*
X903Y1114D02*
X931Y1114D01*
X947Y1114D02*
X953Y1114D01*
X1189Y1114D02*
X1194Y1114D01*
X1276Y1114D02*
X1282Y1114D01*
X1314Y1114D02*
X1319Y1114D01*
X1353Y1114D02*
X1359Y1114D01*
X214Y1113D02*
X219Y1113D01*
X333Y1113D02*
X339Y1113D01*
X357Y1113D02*
X362Y1113D01*
X377Y1113D02*
X382Y1113D01*
X400Y1113D02*
X406Y1113D01*
X421Y1113D02*
X426Y1113D01*
X466Y1113D02*
X472Y1113D01*
X510Y1113D02*
X519Y1113D01*
X532Y1113D02*
X537Y1113D01*
X564Y1113D02*
X572Y1113D01*
X596Y1113D02*
X604Y1113D01*
X619Y1113D02*
X625Y1113D01*
X839Y1113D02*
X844Y1113D01*
X903Y1113D02*
X910Y1113D01*
X926Y1113D02*
X931Y1113D01*
X947Y1113D02*
X953Y1113D01*
X1189Y1113D02*
X1194Y1113D01*
X1276Y1113D02*
X1282Y1113D01*
X1314Y1113D02*
X1319Y1113D01*
X214Y1112D02*
X219Y1112D01*
X333Y1112D02*
X338Y1112D01*
X357Y1112D02*
X362Y1112D01*
X377Y1112D02*
X382Y1112D01*
X401Y1112D02*
X406Y1112D01*
X421Y1112D02*
X426Y1112D01*
X466Y1112D02*
X472Y1112D01*
X509Y1112D02*
X516Y1112D01*
X532Y1112D02*
X537Y1112D01*
X566Y1112D02*
X573Y1112D01*
X596Y1112D02*
X602Y1112D01*
X620Y1112D02*
X625Y1112D01*
X839Y1112D02*
X844Y1112D01*
X902Y1112D02*
X908Y1112D01*
X926Y1112D02*
X931Y1112D01*
X948Y1112D02*
X954Y1112D01*
X1189Y1112D02*
X1194Y1112D01*
X1276Y1112D02*
X1282Y1112D01*
X1314Y1112D02*
X1319Y1112D01*
X214Y1111D02*
X219Y1111D01*
X333Y1111D02*
X338Y1111D01*
X357Y1111D02*
X362Y1111D01*
X377Y1111D02*
X382Y1111D01*
X401Y1111D02*
X406Y1111D01*
X421Y1111D02*
X426Y1111D01*
X467Y1111D02*
X473Y1111D01*
X509Y1111D02*
X515Y1111D01*
X532Y1111D02*
X537Y1111D01*
X567Y1111D02*
X574Y1111D01*
X596Y1111D02*
X601Y1111D01*
X620Y1111D02*
X625Y1111D01*
X839Y1111D02*
X844Y1111D01*
X902Y1111D02*
X907Y1111D01*
X926Y1111D02*
X931Y1111D01*
X948Y1111D02*
X955Y1111D01*
X1189Y1111D02*
X1194Y1111D01*
X1276Y1111D02*
X1282Y1111D01*
X1314Y1111D02*
X1319Y1111D01*
X214Y1110D02*
X219Y1110D01*
X333Y1110D02*
X338Y1110D01*
X357Y1110D02*
X362Y1110D01*
X377Y1110D02*
X382Y1110D01*
X401Y1110D02*
X406Y1110D01*
X421Y1110D02*
X426Y1110D01*
X467Y1110D02*
X474Y1110D01*
X509Y1110D02*
X514Y1110D01*
X532Y1110D02*
X537Y1110D01*
X568Y1110D02*
X575Y1110D01*
X596Y1110D02*
X601Y1110D01*
X620Y1110D02*
X625Y1110D01*
X839Y1110D02*
X844Y1110D01*
X902Y1110D02*
X907Y1110D01*
X926Y1110D02*
X931Y1110D01*
X949Y1110D02*
X955Y1110D01*
X1189Y1110D02*
X1194Y1110D01*
X1276Y1110D02*
X1282Y1110D01*
X1314Y1110D02*
X1319Y1110D01*
X214Y1109D02*
X219Y1109D01*
X333Y1109D02*
X338Y1109D01*
X357Y1109D02*
X362Y1109D01*
X377Y1109D02*
X382Y1109D01*
X401Y1109D02*
X406Y1109D01*
X421Y1109D02*
X426Y1109D01*
X468Y1109D02*
X474Y1109D01*
X508Y1109D02*
X514Y1109D01*
X532Y1109D02*
X537Y1109D01*
X569Y1109D02*
X575Y1109D01*
X596Y1109D02*
X601Y1109D01*
X620Y1109D02*
X625Y1109D01*
X839Y1109D02*
X844Y1109D01*
X902Y1109D02*
X907Y1109D01*
X926Y1109D02*
X931Y1109D01*
X950Y1109D02*
X956Y1109D01*
X1189Y1109D02*
X1194Y1109D01*
X1276Y1109D02*
X1282Y1109D01*
X1314Y1109D02*
X1319Y1109D01*
X214Y1108D02*
X219Y1108D01*
X333Y1108D02*
X338Y1108D01*
X357Y1108D02*
X362Y1108D01*
X377Y1108D02*
X382Y1108D01*
X401Y1108D02*
X406Y1108D01*
X421Y1108D02*
X426Y1108D01*
X469Y1108D02*
X475Y1108D01*
X508Y1108D02*
X513Y1108D01*
X532Y1108D02*
X537Y1108D01*
X569Y1108D02*
X576Y1108D01*
X596Y1108D02*
X601Y1108D01*
X620Y1108D02*
X625Y1108D01*
X839Y1108D02*
X844Y1108D01*
X902Y1108D02*
X907Y1108D01*
X926Y1108D02*
X931Y1108D01*
X950Y1108D02*
X956Y1108D01*
X1189Y1108D02*
X1194Y1108D01*
X1276Y1108D02*
X1282Y1108D01*
X1314Y1108D02*
X1319Y1108D01*
X214Y1107D02*
X219Y1107D01*
X333Y1107D02*
X338Y1107D01*
X357Y1107D02*
X362Y1107D01*
X377Y1107D02*
X382Y1107D01*
X401Y1107D02*
X406Y1107D01*
X421Y1107D02*
X426Y1107D01*
X469Y1107D02*
X475Y1107D01*
X508Y1107D02*
X513Y1107D01*
X532Y1107D02*
X537Y1107D01*
X570Y1107D02*
X577Y1107D01*
X596Y1107D02*
X601Y1107D01*
X620Y1107D02*
X625Y1107D01*
X839Y1107D02*
X844Y1107D01*
X902Y1107D02*
X907Y1107D01*
X926Y1107D02*
X931Y1107D01*
X951Y1107D02*
X957Y1107D01*
X1189Y1107D02*
X1194Y1107D01*
X1276Y1107D02*
X1282Y1107D01*
X1314Y1107D02*
X1319Y1107D01*
X214Y1106D02*
X219Y1106D01*
X253Y1106D02*
X260Y1106D01*
X271Y1106D02*
X273Y1106D01*
X303Y1106D02*
X314Y1106D01*
X333Y1106D02*
X338Y1106D01*
X357Y1106D02*
X362Y1106D01*
X377Y1106D02*
X382Y1106D01*
X401Y1106D02*
X406Y1106D01*
X421Y1106D02*
X426Y1106D01*
X470Y1106D02*
X476Y1106D01*
X508Y1106D02*
X513Y1106D01*
X532Y1106D02*
X537Y1106D01*
X571Y1106D02*
X578Y1106D01*
X596Y1106D02*
X601Y1106D01*
X620Y1106D02*
X625Y1106D01*
X647Y1106D02*
X661Y1106D01*
X685Y1106D02*
X700Y1106D01*
X729Y1106D02*
X744Y1106D01*
X780Y1106D02*
X791Y1106D01*
X824Y1106D02*
X832Y1106D01*
X839Y1106D02*
X844Y1106D01*
X867Y1106D02*
X879Y1106D01*
X902Y1106D02*
X907Y1106D01*
X926Y1106D02*
X931Y1106D01*
X951Y1106D02*
X957Y1106D01*
X996Y1106D02*
X997Y1106D01*
X1007Y1106D02*
X1010Y1106D01*
X1016Y1106D02*
X1018Y1106D01*
X1042Y1106D02*
X1054Y1106D01*
X1079Y1106D02*
X1094Y1106D01*
X1174Y1106D02*
X1182Y1106D01*
X1189Y1106D02*
X1194Y1106D01*
X1210Y1106D02*
X1212Y1106D01*
X1234Y1106D02*
X1236Y1106D01*
X1260Y1106D02*
X1267Y1106D01*
X1276Y1106D02*
X1282Y1106D01*
X1301Y1106D02*
X1323Y1106D01*
X1354Y1106D02*
X1364Y1106D01*
X1385Y1106D02*
X1387Y1106D01*
X1396Y1106D02*
X1404Y1106D01*
X214Y1105D02*
X219Y1105D01*
X251Y1105D02*
X262Y1105D01*
X270Y1105D02*
X274Y1105D01*
X302Y1105D02*
X315Y1105D01*
X333Y1105D02*
X338Y1105D01*
X357Y1105D02*
X362Y1105D01*
X377Y1105D02*
X382Y1105D01*
X401Y1105D02*
X406Y1105D01*
X421Y1105D02*
X426Y1105D01*
X470Y1105D02*
X477Y1105D01*
X508Y1105D02*
X513Y1105D01*
X532Y1105D02*
X537Y1105D01*
X572Y1105D02*
X579Y1105D01*
X596Y1105D02*
X602Y1105D01*
X620Y1105D02*
X625Y1105D01*
X645Y1105D02*
X662Y1105D01*
X684Y1105D02*
X703Y1105D01*
X728Y1105D02*
X747Y1105D01*
X777Y1105D02*
X793Y1105D01*
X821Y1105D02*
X834Y1105D01*
X839Y1105D02*
X844Y1105D01*
X865Y1105D02*
X881Y1105D01*
X902Y1105D02*
X908Y1105D01*
X926Y1105D02*
X931Y1105D01*
X952Y1105D02*
X958Y1105D01*
X994Y1105D02*
X1000Y1105D01*
X1005Y1105D02*
X1012Y1105D01*
X1015Y1105D02*
X1019Y1105D01*
X1040Y1105D02*
X1056Y1105D01*
X1078Y1105D02*
X1097Y1105D01*
X1171Y1105D02*
X1184Y1105D01*
X1189Y1105D02*
X1194Y1105D01*
X1209Y1105D02*
X1213Y1105D01*
X1233Y1105D02*
X1237Y1105D01*
X1258Y1105D02*
X1269Y1105D01*
X1276Y1105D02*
X1282Y1105D01*
X1300Y1105D02*
X1325Y1105D01*
X1353Y1105D02*
X1365Y1105D01*
X1384Y1105D02*
X1388Y1105D01*
X1393Y1105D02*
X1406Y1105D01*
X214Y1104D02*
X219Y1104D01*
X249Y1104D02*
X264Y1104D01*
X270Y1104D02*
X275Y1104D01*
X301Y1104D02*
X315Y1104D01*
X333Y1104D02*
X338Y1104D01*
X357Y1104D02*
X362Y1104D01*
X377Y1104D02*
X382Y1104D01*
X401Y1104D02*
X406Y1104D01*
X421Y1104D02*
X426Y1104D01*
X471Y1104D02*
X477Y1104D01*
X508Y1104D02*
X513Y1104D01*
X532Y1104D02*
X537Y1104D01*
X573Y1104D02*
X579Y1104D01*
X596Y1104D02*
X603Y1104D01*
X620Y1104D02*
X625Y1104D01*
X643Y1104D02*
X662Y1104D01*
X683Y1104D02*
X704Y1104D01*
X727Y1104D02*
X748Y1104D01*
X776Y1104D02*
X795Y1104D01*
X820Y1104D02*
X836Y1104D01*
X839Y1104D02*
X844Y1104D01*
X864Y1104D02*
X882Y1104D01*
X903Y1104D02*
X909Y1104D01*
X926Y1104D02*
X931Y1104D01*
X953Y1104D02*
X959Y1104D01*
X992Y1104D02*
X1002Y1104D01*
X1004Y1104D02*
X1019Y1104D01*
X1039Y1104D02*
X1057Y1104D01*
X1077Y1104D02*
X1098Y1104D01*
X1170Y1104D02*
X1186Y1104D01*
X1189Y1104D02*
X1194Y1104D01*
X1209Y1104D02*
X1214Y1104D01*
X1233Y1104D02*
X1238Y1104D01*
X1256Y1104D02*
X1271Y1104D01*
X1276Y1104D02*
X1282Y1104D01*
X1299Y1104D02*
X1325Y1104D01*
X1352Y1104D02*
X1366Y1104D01*
X1384Y1104D02*
X1389Y1104D01*
X1392Y1104D02*
X1408Y1104D01*
X214Y1103D02*
X219Y1103D01*
X248Y1103D02*
X266Y1103D01*
X270Y1103D02*
X275Y1103D01*
X301Y1103D02*
X315Y1103D01*
X333Y1103D02*
X338Y1103D01*
X357Y1103D02*
X362Y1103D01*
X377Y1103D02*
X382Y1103D01*
X401Y1103D02*
X406Y1103D01*
X421Y1103D02*
X426Y1103D01*
X472Y1103D02*
X478Y1103D01*
X508Y1103D02*
X514Y1103D01*
X532Y1103D02*
X537Y1103D01*
X573Y1103D02*
X580Y1103D01*
X597Y1103D02*
X625Y1103D01*
X642Y1103D02*
X663Y1103D01*
X683Y1103D02*
X706Y1103D01*
X727Y1103D02*
X749Y1103D01*
X775Y1103D02*
X796Y1103D01*
X819Y1103D02*
X844Y1103D01*
X862Y1103D02*
X883Y1103D01*
X903Y1103D02*
X931Y1103D01*
X953Y1103D02*
X959Y1103D01*
X991Y1103D02*
X1019Y1103D01*
X1038Y1103D02*
X1059Y1103D01*
X1077Y1103D02*
X1100Y1103D01*
X1169Y1103D02*
X1187Y1103D01*
X1189Y1103D02*
X1194Y1103D01*
X1209Y1103D02*
X1214Y1103D01*
X1233Y1103D02*
X1238Y1103D01*
X1255Y1103D02*
X1273Y1103D01*
X1276Y1103D02*
X1282Y1103D01*
X1299Y1103D02*
X1325Y1103D01*
X1352Y1103D02*
X1366Y1103D01*
X1384Y1103D02*
X1389Y1103D01*
X1391Y1103D02*
X1409Y1103D01*
X214Y1102D02*
X219Y1102D01*
X248Y1102D02*
X267Y1102D01*
X270Y1102D02*
X275Y1102D01*
X301Y1102D02*
X315Y1102D01*
X333Y1102D02*
X338Y1102D01*
X357Y1102D02*
X362Y1102D01*
X377Y1102D02*
X382Y1102D01*
X401Y1102D02*
X406Y1102D01*
X421Y1102D02*
X426Y1102D01*
X472Y1102D02*
X478Y1102D01*
X508Y1102D02*
X514Y1102D01*
X532Y1102D02*
X537Y1102D01*
X574Y1102D02*
X580Y1102D01*
X597Y1102D02*
X625Y1102D01*
X642Y1102D02*
X662Y1102D01*
X684Y1102D02*
X707Y1102D01*
X727Y1102D02*
X750Y1102D01*
X774Y1102D02*
X797Y1102D01*
X818Y1102D02*
X844Y1102D01*
X861Y1102D02*
X885Y1102D01*
X904Y1102D02*
X931Y1102D01*
X954Y1102D02*
X960Y1102D01*
X991Y1102D02*
X1019Y1102D01*
X1036Y1102D02*
X1060Y1102D01*
X1078Y1102D02*
X1101Y1102D01*
X1168Y1102D02*
X1194Y1102D01*
X1209Y1102D02*
X1214Y1102D01*
X1233Y1102D02*
X1238Y1102D01*
X1254Y1102D02*
X1274Y1102D01*
X1276Y1102D02*
X1282Y1102D01*
X1300Y1102D02*
X1325Y1102D01*
X1352Y1102D02*
X1366Y1102D01*
X1384Y1102D02*
X1410Y1102D01*
X214Y1101D02*
X219Y1101D01*
X247Y1101D02*
X275Y1101D01*
X301Y1101D02*
X314Y1101D01*
X333Y1101D02*
X338Y1101D01*
X357Y1101D02*
X362Y1101D01*
X377Y1101D02*
X382Y1101D01*
X401Y1101D02*
X406Y1101D01*
X421Y1101D02*
X426Y1101D01*
X473Y1101D02*
X479Y1101D01*
X509Y1101D02*
X515Y1101D01*
X532Y1101D02*
X537Y1101D01*
X575Y1101D02*
X581Y1101D01*
X598Y1101D02*
X625Y1101D01*
X641Y1101D02*
X662Y1101D01*
X684Y1101D02*
X708Y1101D01*
X728Y1101D02*
X752Y1101D01*
X773Y1101D02*
X798Y1101D01*
X817Y1101D02*
X844Y1101D01*
X860Y1101D02*
X885Y1101D01*
X904Y1101D02*
X931Y1101D01*
X954Y1101D02*
X960Y1101D01*
X990Y1101D02*
X1019Y1101D01*
X1035Y1101D02*
X1060Y1101D01*
X1078Y1101D02*
X1102Y1101D01*
X1167Y1101D02*
X1194Y1101D01*
X1209Y1101D02*
X1214Y1101D01*
X1233Y1101D02*
X1238Y1101D01*
X1254Y1101D02*
X1282Y1101D01*
X1300Y1101D02*
X1324Y1101D01*
X1352Y1101D02*
X1365Y1101D01*
X1384Y1101D02*
X1411Y1101D01*
X214Y1100D02*
X219Y1100D01*
X247Y1100D02*
X253Y1100D01*
X260Y1100D02*
X275Y1100D01*
X301Y1100D02*
X307Y1100D01*
X333Y1100D02*
X338Y1100D01*
X357Y1100D02*
X362Y1100D01*
X377Y1100D02*
X382Y1100D01*
X401Y1100D02*
X406Y1100D01*
X421Y1100D02*
X426Y1100D01*
X473Y1100D02*
X479Y1100D01*
X509Y1100D02*
X516Y1100D01*
X532Y1100D02*
X537Y1100D01*
X575Y1100D02*
X581Y1100D01*
X599Y1100D02*
X625Y1100D01*
X641Y1100D02*
X647Y1100D01*
X700Y1100D02*
X709Y1100D01*
X744Y1100D02*
X753Y1100D01*
X772Y1100D02*
X780Y1100D01*
X791Y1100D02*
X799Y1100D01*
X816Y1100D02*
X824Y1100D01*
X831Y1100D02*
X844Y1100D01*
X860Y1100D02*
X868Y1100D01*
X878Y1100D02*
X886Y1100D01*
X905Y1100D02*
X931Y1100D01*
X955Y1100D02*
X961Y1100D01*
X990Y1100D02*
X996Y1100D01*
X998Y1100D02*
X1008Y1100D01*
X1010Y1100D02*
X1019Y1100D01*
X1035Y1100D02*
X1043Y1100D01*
X1053Y1100D02*
X1061Y1100D01*
X1094Y1100D02*
X1103Y1100D01*
X1166Y1100D02*
X1174Y1100D01*
X1182Y1100D02*
X1194Y1100D01*
X1209Y1100D02*
X1214Y1100D01*
X1233Y1100D02*
X1238Y1100D01*
X1254Y1100D02*
X1260Y1100D01*
X1267Y1100D02*
X1282Y1100D01*
X1314Y1100D02*
X1319Y1100D01*
X1352Y1100D02*
X1357Y1100D01*
X1384Y1100D02*
X1396Y1100D01*
X1404Y1100D02*
X1412Y1100D01*
X214Y1099D02*
X219Y1099D01*
X246Y1099D02*
X252Y1099D01*
X262Y1099D02*
X275Y1099D01*
X301Y1099D02*
X306Y1099D01*
X333Y1099D02*
X338Y1099D01*
X357Y1099D02*
X362Y1099D01*
X377Y1099D02*
X382Y1099D01*
X401Y1099D02*
X406Y1099D01*
X421Y1099D02*
X426Y1099D01*
X474Y1099D02*
X480Y1099D01*
X510Y1099D02*
X517Y1099D01*
X532Y1099D02*
X537Y1099D01*
X576Y1099D02*
X581Y1099D01*
X600Y1099D02*
X625Y1099D01*
X640Y1099D02*
X646Y1099D01*
X702Y1099D02*
X710Y1099D01*
X745Y1099D02*
X754Y1099D01*
X772Y1099D02*
X778Y1099D01*
X792Y1099D02*
X799Y1099D01*
X815Y1099D02*
X822Y1099D01*
X833Y1099D02*
X844Y1099D01*
X859Y1099D02*
X866Y1099D01*
X880Y1099D02*
X887Y1099D01*
X907Y1099D02*
X931Y1099D01*
X955Y1099D02*
X962Y1099D01*
X990Y1099D02*
X995Y1099D01*
X999Y1099D02*
X1007Y1099D01*
X1011Y1099D02*
X1019Y1099D01*
X1034Y1099D02*
X1041Y1099D01*
X1055Y1099D02*
X1062Y1099D01*
X1096Y1099D02*
X1104Y1099D01*
X1166Y1099D02*
X1173Y1099D01*
X1183Y1099D02*
X1194Y1099D01*
X1209Y1099D02*
X1214Y1099D01*
X1233Y1099D02*
X1238Y1099D01*
X1253Y1099D02*
X1259Y1099D01*
X1268Y1099D02*
X1282Y1099D01*
X1314Y1099D02*
X1319Y1099D01*
X1352Y1099D02*
X1357Y1099D01*
X1384Y1099D02*
X1395Y1099D01*
X1405Y1099D02*
X1412Y1099D01*
X214Y1098D02*
X219Y1098D01*
X246Y1098D02*
X252Y1098D01*
X263Y1098D02*
X275Y1098D01*
X301Y1098D02*
X306Y1098D01*
X333Y1098D02*
X338Y1098D01*
X357Y1098D02*
X362Y1098D01*
X377Y1098D02*
X382Y1098D01*
X401Y1098D02*
X406Y1098D01*
X421Y1098D02*
X446Y1098D01*
X474Y1098D02*
X481Y1098D01*
X510Y1098D02*
X537Y1098D01*
X576Y1098D02*
X581Y1098D01*
X602Y1098D02*
X625Y1098D01*
X640Y1098D02*
X646Y1098D01*
X703Y1098D02*
X711Y1098D01*
X747Y1098D02*
X755Y1098D01*
X771Y1098D02*
X777Y1098D01*
X793Y1098D02*
X799Y1098D01*
X815Y1098D02*
X821Y1098D01*
X834Y1098D02*
X844Y1098D01*
X859Y1098D02*
X865Y1098D01*
X881Y1098D02*
X887Y1098D01*
X909Y1098D02*
X931Y1098D01*
X956Y1098D02*
X962Y1098D01*
X990Y1098D02*
X995Y1098D01*
X1000Y1098D02*
X1007Y1098D01*
X1012Y1098D02*
X1019Y1098D01*
X1034Y1098D02*
X1040Y1098D01*
X1056Y1098D02*
X1062Y1098D01*
X1097Y1098D02*
X1105Y1098D01*
X1165Y1098D02*
X1171Y1098D01*
X1184Y1098D02*
X1194Y1098D01*
X1209Y1098D02*
X1214Y1098D01*
X1232Y1098D02*
X1238Y1098D01*
X1253Y1098D02*
X1258Y1098D01*
X1270Y1098D02*
X1282Y1098D01*
X1314Y1098D02*
X1319Y1098D01*
X1352Y1098D02*
X1357Y1098D01*
X1384Y1098D02*
X1393Y1098D01*
X1406Y1098D02*
X1412Y1098D01*
X214Y1097D02*
X219Y1097D01*
X246Y1097D02*
X251Y1097D01*
X265Y1097D02*
X275Y1097D01*
X301Y1097D02*
X306Y1097D01*
X333Y1097D02*
X338Y1097D01*
X357Y1097D02*
X362Y1097D01*
X377Y1097D02*
X382Y1097D01*
X401Y1097D02*
X406Y1097D01*
X421Y1097D02*
X448Y1097D01*
X475Y1097D02*
X481Y1097D01*
X511Y1097D02*
X537Y1097D01*
X576Y1097D02*
X581Y1097D01*
X608Y1097D02*
X614Y1097D01*
X620Y1097D02*
X625Y1097D01*
X640Y1097D02*
X645Y1097D01*
X704Y1097D02*
X711Y1097D01*
X748Y1097D02*
X755Y1097D01*
X771Y1097D02*
X776Y1097D01*
X794Y1097D02*
X800Y1097D01*
X815Y1097D02*
X820Y1097D01*
X835Y1097D02*
X844Y1097D01*
X859Y1097D02*
X864Y1097D01*
X882Y1097D02*
X887Y1097D01*
X914Y1097D02*
X921Y1097D01*
X926Y1097D02*
X931Y1097D01*
X957Y1097D02*
X963Y1097D01*
X990Y1097D02*
X995Y1097D01*
X1001Y1097D02*
X1007Y1097D01*
X1013Y1097D02*
X1019Y1097D01*
X1034Y1097D02*
X1039Y1097D01*
X1057Y1097D02*
X1062Y1097D01*
X1098Y1097D02*
X1105Y1097D01*
X1165Y1097D02*
X1171Y1097D01*
X1185Y1097D02*
X1194Y1097D01*
X1209Y1097D02*
X1214Y1097D01*
X1232Y1097D02*
X1238Y1097D01*
X1253Y1097D02*
X1258Y1097D01*
X1271Y1097D02*
X1282Y1097D01*
X1314Y1097D02*
X1319Y1097D01*
X1352Y1097D02*
X1357Y1097D01*
X1384Y1097D02*
X1392Y1097D01*
X1407Y1097D02*
X1413Y1097D01*
X214Y1096D02*
X219Y1096D01*
X246Y1096D02*
X251Y1096D01*
X266Y1096D02*
X275Y1096D01*
X301Y1096D02*
X306Y1096D01*
X333Y1096D02*
X338Y1096D01*
X357Y1096D02*
X362Y1096D01*
X377Y1096D02*
X382Y1096D01*
X401Y1096D02*
X406Y1096D01*
X421Y1096D02*
X448Y1096D01*
X476Y1096D02*
X482Y1096D01*
X512Y1096D02*
X537Y1096D01*
X576Y1096D02*
X581Y1096D01*
X607Y1096D02*
X614Y1096D01*
X620Y1096D02*
X625Y1096D01*
X640Y1096D02*
X645Y1096D01*
X705Y1096D02*
X712Y1096D01*
X749Y1096D02*
X756Y1096D01*
X771Y1096D02*
X776Y1096D01*
X795Y1096D02*
X800Y1096D01*
X815Y1096D02*
X820Y1096D01*
X836Y1096D02*
X844Y1096D01*
X858Y1096D02*
X864Y1096D01*
X882Y1096D02*
X887Y1096D01*
X914Y1096D02*
X920Y1096D01*
X926Y1096D02*
X931Y1096D01*
X957Y1096D02*
X963Y1096D01*
X990Y1096D02*
X995Y1096D01*
X1002Y1096D02*
X1007Y1096D01*
X1014Y1096D02*
X1019Y1096D01*
X1034Y1096D02*
X1039Y1096D01*
X1057Y1096D02*
X1063Y1096D01*
X1099Y1096D02*
X1106Y1096D01*
X1165Y1096D02*
X1170Y1096D01*
X1187Y1096D02*
X1194Y1096D01*
X1209Y1096D02*
X1214Y1096D01*
X1232Y1096D02*
X1237Y1096D01*
X1253Y1096D02*
X1258Y1096D01*
X1273Y1096D02*
X1282Y1096D01*
X1314Y1096D02*
X1319Y1096D01*
X1352Y1096D02*
X1357Y1096D01*
X1384Y1096D02*
X1391Y1096D01*
X1408Y1096D02*
X1413Y1096D01*
X214Y1095D02*
X219Y1095D01*
X246Y1095D02*
X251Y1095D01*
X268Y1095D02*
X275Y1095D01*
X301Y1095D02*
X306Y1095D01*
X333Y1095D02*
X338Y1095D01*
X357Y1095D02*
X362Y1095D01*
X377Y1095D02*
X382Y1095D01*
X401Y1095D02*
X406Y1095D01*
X422Y1095D02*
X449Y1095D01*
X476Y1095D02*
X482Y1095D01*
X512Y1095D02*
X537Y1095D01*
X576Y1095D02*
X581Y1095D01*
X607Y1095D02*
X613Y1095D01*
X620Y1095D02*
X625Y1095D01*
X640Y1095D02*
X645Y1095D01*
X706Y1095D02*
X712Y1095D01*
X750Y1095D02*
X756Y1095D01*
X771Y1095D02*
X776Y1095D01*
X795Y1095D02*
X800Y1095D01*
X815Y1095D02*
X820Y1095D01*
X838Y1095D02*
X844Y1095D01*
X858Y1095D02*
X863Y1095D01*
X882Y1095D02*
X888Y1095D01*
X913Y1095D02*
X919Y1095D01*
X926Y1095D02*
X931Y1095D01*
X958Y1095D02*
X964Y1095D01*
X990Y1095D02*
X995Y1095D01*
X1002Y1095D02*
X1007Y1095D01*
X1014Y1095D02*
X1019Y1095D01*
X1033Y1095D02*
X1039Y1095D01*
X1057Y1095D02*
X1063Y1095D01*
X1100Y1095D02*
X1106Y1095D01*
X1165Y1095D02*
X1170Y1095D01*
X1188Y1095D02*
X1194Y1095D01*
X1209Y1095D02*
X1214Y1095D01*
X1232Y1095D02*
X1237Y1095D01*
X1253Y1095D02*
X1258Y1095D01*
X1275Y1095D02*
X1282Y1095D01*
X1314Y1095D02*
X1319Y1095D01*
X1352Y1095D02*
X1357Y1095D01*
X1384Y1095D02*
X1390Y1095D01*
X1408Y1095D02*
X1413Y1095D01*
X214Y1094D02*
X219Y1094D01*
X246Y1094D02*
X251Y1094D01*
X269Y1094D02*
X275Y1094D01*
X301Y1094D02*
X306Y1094D01*
X333Y1094D02*
X338Y1094D01*
X357Y1094D02*
X362Y1094D01*
X377Y1094D02*
X382Y1094D01*
X401Y1094D02*
X406Y1094D01*
X423Y1094D02*
X450Y1094D01*
X477Y1094D02*
X483Y1094D01*
X511Y1094D02*
X537Y1094D01*
X576Y1094D02*
X581Y1094D01*
X606Y1094D02*
X612Y1094D01*
X620Y1094D02*
X625Y1094D01*
X640Y1094D02*
X645Y1094D01*
X707Y1094D02*
X712Y1094D01*
X751Y1094D02*
X756Y1094D01*
X771Y1094D02*
X776Y1094D01*
X795Y1094D02*
X800Y1094D01*
X815Y1094D02*
X820Y1094D01*
X838Y1094D02*
X844Y1094D01*
X858Y1094D02*
X863Y1094D01*
X882Y1094D02*
X888Y1094D01*
X913Y1094D02*
X919Y1094D01*
X926Y1094D02*
X931Y1094D01*
X958Y1094D02*
X964Y1094D01*
X990Y1094D02*
X995Y1094D01*
X1002Y1094D02*
X1007Y1094D01*
X1014Y1094D02*
X1019Y1094D01*
X1033Y1094D02*
X1039Y1094D01*
X1057Y1094D02*
X1063Y1094D01*
X1101Y1094D02*
X1106Y1094D01*
X1165Y1094D02*
X1170Y1094D01*
X1189Y1094D02*
X1194Y1094D01*
X1209Y1094D02*
X1214Y1094D01*
X1232Y1094D02*
X1237Y1094D01*
X1253Y1094D02*
X1258Y1094D01*
X1276Y1094D02*
X1282Y1094D01*
X1314Y1094D02*
X1319Y1094D01*
X1352Y1094D02*
X1357Y1094D01*
X1384Y1094D02*
X1389Y1094D01*
X1408Y1094D02*
X1413Y1094D01*
X203Y1093D02*
X205Y1093D01*
X214Y1093D02*
X219Y1093D01*
X246Y1093D02*
X251Y1093D01*
X270Y1093D02*
X275Y1093D01*
X301Y1093D02*
X306Y1093D01*
X333Y1093D02*
X338Y1093D01*
X357Y1093D02*
X362Y1093D01*
X377Y1093D02*
X382Y1093D01*
X401Y1093D02*
X406Y1093D01*
X424Y1093D02*
X450Y1093D01*
X477Y1093D02*
X484Y1093D01*
X510Y1093D02*
X537Y1093D01*
X552Y1093D02*
X565Y1093D01*
X576Y1093D02*
X581Y1093D01*
X606Y1093D02*
X612Y1093D01*
X620Y1093D02*
X625Y1093D01*
X640Y1093D02*
X663Y1093D01*
X707Y1093D02*
X712Y1093D01*
X751Y1093D02*
X756Y1093D01*
X771Y1093D02*
X776Y1093D01*
X795Y1093D02*
X800Y1093D01*
X815Y1093D02*
X820Y1093D01*
X839Y1093D02*
X844Y1093D01*
X858Y1093D02*
X863Y1093D01*
X882Y1093D02*
X888Y1093D01*
X912Y1093D02*
X918Y1093D01*
X926Y1093D02*
X931Y1093D01*
X959Y1093D02*
X965Y1093D01*
X990Y1093D02*
X995Y1093D01*
X1002Y1093D02*
X1007Y1093D01*
X1014Y1093D02*
X1019Y1093D01*
X1033Y1093D02*
X1039Y1093D01*
X1057Y1093D02*
X1063Y1093D01*
X1101Y1093D02*
X1106Y1093D01*
X1165Y1093D02*
X1170Y1093D01*
X1189Y1093D02*
X1194Y1093D01*
X1209Y1093D02*
X1214Y1093D01*
X1232Y1093D02*
X1237Y1093D01*
X1253Y1093D02*
X1258Y1093D01*
X1276Y1093D02*
X1282Y1093D01*
X1314Y1093D02*
X1319Y1093D01*
X1352Y1093D02*
X1357Y1093D01*
X1384Y1093D02*
X1389Y1093D01*
X1408Y1093D02*
X1413Y1093D01*
X202Y1092D02*
X206Y1092D01*
X214Y1092D02*
X219Y1092D01*
X246Y1092D02*
X251Y1092D01*
X270Y1092D02*
X275Y1092D01*
X301Y1092D02*
X306Y1092D01*
X333Y1092D02*
X338Y1092D01*
X357Y1092D02*
X362Y1092D01*
X377Y1092D02*
X382Y1092D01*
X401Y1092D02*
X406Y1092D01*
X445Y1092D02*
X450Y1092D01*
X478Y1092D02*
X484Y1092D01*
X510Y1092D02*
X517Y1092D01*
X532Y1092D02*
X537Y1092D01*
X552Y1092D02*
X566Y1092D01*
X576Y1092D02*
X581Y1092D01*
X605Y1092D02*
X611Y1092D01*
X620Y1092D02*
X625Y1092D01*
X640Y1092D02*
X665Y1092D01*
X707Y1092D02*
X712Y1092D01*
X751Y1092D02*
X756Y1092D01*
X771Y1092D02*
X776Y1092D01*
X795Y1092D02*
X800Y1092D01*
X815Y1092D02*
X820Y1092D01*
X839Y1092D02*
X844Y1092D01*
X858Y1092D02*
X863Y1092D01*
X882Y1092D02*
X888Y1092D01*
X912Y1092D02*
X918Y1092D01*
X926Y1092D02*
X931Y1092D01*
X960Y1092D02*
X966Y1092D01*
X990Y1092D02*
X995Y1092D01*
X1002Y1092D02*
X1007Y1092D01*
X1014Y1092D02*
X1019Y1092D01*
X1033Y1092D02*
X1039Y1092D01*
X1057Y1092D02*
X1063Y1092D01*
X1101Y1092D02*
X1106Y1092D01*
X1165Y1092D02*
X1170Y1092D01*
X1189Y1092D02*
X1194Y1092D01*
X1209Y1092D02*
X1214Y1092D01*
X1232Y1092D02*
X1237Y1092D01*
X1253Y1092D02*
X1258Y1092D01*
X1276Y1092D02*
X1282Y1092D01*
X1314Y1092D02*
X1319Y1092D01*
X1352Y1092D02*
X1357Y1092D01*
X1384Y1092D02*
X1389Y1092D01*
X1408Y1092D02*
X1413Y1092D01*
X202Y1091D02*
X207Y1091D01*
X214Y1091D02*
X219Y1091D01*
X246Y1091D02*
X251Y1091D01*
X270Y1091D02*
X275Y1091D01*
X301Y1091D02*
X306Y1091D01*
X333Y1091D02*
X338Y1091D01*
X357Y1091D02*
X362Y1091D01*
X377Y1091D02*
X382Y1091D01*
X401Y1091D02*
X406Y1091D01*
X445Y1091D02*
X450Y1091D01*
X479Y1091D02*
X485Y1091D01*
X509Y1091D02*
X516Y1091D01*
X532Y1091D02*
X537Y1091D01*
X552Y1091D02*
X566Y1091D01*
X576Y1091D02*
X581Y1091D01*
X605Y1091D02*
X611Y1091D01*
X620Y1091D02*
X625Y1091D01*
X640Y1091D02*
X666Y1091D01*
X707Y1091D02*
X712Y1091D01*
X751Y1091D02*
X756Y1091D01*
X771Y1091D02*
X776Y1091D01*
X795Y1091D02*
X800Y1091D01*
X815Y1091D02*
X820Y1091D01*
X839Y1091D02*
X844Y1091D01*
X858Y1091D02*
X864Y1091D01*
X882Y1091D02*
X888Y1091D01*
X911Y1091D02*
X917Y1091D01*
X926Y1091D02*
X931Y1091D01*
X960Y1091D02*
X966Y1091D01*
X990Y1091D02*
X995Y1091D01*
X1002Y1091D02*
X1007Y1091D01*
X1014Y1091D02*
X1019Y1091D01*
X1033Y1091D02*
X1039Y1091D01*
X1057Y1091D02*
X1063Y1091D01*
X1101Y1091D02*
X1106Y1091D01*
X1165Y1091D02*
X1170Y1091D01*
X1189Y1091D02*
X1194Y1091D01*
X1209Y1091D02*
X1214Y1091D01*
X1232Y1091D02*
X1237Y1091D01*
X1253Y1091D02*
X1258Y1091D01*
X1276Y1091D02*
X1282Y1091D01*
X1314Y1091D02*
X1319Y1091D01*
X1352Y1091D02*
X1357Y1091D01*
X1384Y1091D02*
X1389Y1091D01*
X1408Y1091D02*
X1413Y1091D01*
X202Y1090D02*
X207Y1090D01*
X214Y1090D02*
X219Y1090D01*
X246Y1090D02*
X251Y1090D01*
X270Y1090D02*
X275Y1090D01*
X301Y1090D02*
X306Y1090D01*
X333Y1090D02*
X338Y1090D01*
X357Y1090D02*
X362Y1090D01*
X377Y1090D02*
X382Y1090D01*
X401Y1090D02*
X406Y1090D01*
X445Y1090D02*
X450Y1090D01*
X479Y1090D02*
X485Y1090D01*
X509Y1090D02*
X515Y1090D01*
X532Y1090D02*
X537Y1090D01*
X552Y1090D02*
X566Y1090D01*
X576Y1090D02*
X581Y1090D01*
X604Y1090D02*
X610Y1090D01*
X620Y1090D02*
X625Y1090D01*
X640Y1090D02*
X667Y1090D01*
X707Y1090D02*
X712Y1090D01*
X751Y1090D02*
X756Y1090D01*
X771Y1090D02*
X800Y1090D01*
X815Y1090D02*
X820Y1090D01*
X839Y1090D02*
X844Y1090D01*
X858Y1090D02*
X888Y1090D01*
X910Y1090D02*
X917Y1090D01*
X926Y1090D02*
X931Y1090D01*
X961Y1090D02*
X967Y1090D01*
X990Y1090D02*
X995Y1090D01*
X1002Y1090D02*
X1007Y1090D01*
X1014Y1090D02*
X1019Y1090D01*
X1033Y1090D02*
X1039Y1090D01*
X1057Y1090D02*
X1063Y1090D01*
X1101Y1090D02*
X1106Y1090D01*
X1131Y1090D02*
X1140Y1090D01*
X1165Y1090D02*
X1170Y1090D01*
X1189Y1090D02*
X1194Y1090D01*
X1209Y1090D02*
X1214Y1090D01*
X1232Y1090D02*
X1237Y1090D01*
X1253Y1090D02*
X1258Y1090D01*
X1276Y1090D02*
X1282Y1090D01*
X1314Y1090D02*
X1319Y1090D01*
X1352Y1090D02*
X1357Y1090D01*
X1384Y1090D02*
X1389Y1090D01*
X1408Y1090D02*
X1413Y1090D01*
X202Y1089D02*
X207Y1089D01*
X214Y1089D02*
X219Y1089D01*
X246Y1089D02*
X251Y1089D01*
X270Y1089D02*
X275Y1089D01*
X301Y1089D02*
X306Y1089D01*
X333Y1089D02*
X338Y1089D01*
X357Y1089D02*
X362Y1089D01*
X377Y1089D02*
X382Y1089D01*
X401Y1089D02*
X406Y1089D01*
X445Y1089D02*
X450Y1089D01*
X480Y1089D02*
X486Y1089D01*
X508Y1089D02*
X514Y1089D01*
X532Y1089D02*
X537Y1089D01*
X552Y1089D02*
X566Y1089D01*
X576Y1089D02*
X581Y1089D01*
X603Y1089D02*
X610Y1089D01*
X620Y1089D02*
X625Y1089D01*
X640Y1089D02*
X667Y1089D01*
X707Y1089D02*
X712Y1089D01*
X751Y1089D02*
X756Y1089D01*
X771Y1089D02*
X800Y1089D01*
X815Y1089D02*
X820Y1089D01*
X839Y1089D02*
X844Y1089D01*
X858Y1089D02*
X888Y1089D01*
X910Y1089D02*
X916Y1089D01*
X926Y1089D02*
X931Y1089D01*
X961Y1089D02*
X967Y1089D01*
X990Y1089D02*
X995Y1089D01*
X1002Y1089D02*
X1007Y1089D01*
X1014Y1089D02*
X1019Y1089D01*
X1033Y1089D02*
X1039Y1089D01*
X1057Y1089D02*
X1063Y1089D01*
X1101Y1089D02*
X1106Y1089D01*
X1130Y1089D02*
X1141Y1089D01*
X1165Y1089D02*
X1170Y1089D01*
X1189Y1089D02*
X1194Y1089D01*
X1209Y1089D02*
X1214Y1089D01*
X1232Y1089D02*
X1237Y1089D01*
X1253Y1089D02*
X1258Y1089D01*
X1276Y1089D02*
X1282Y1089D01*
X1314Y1089D02*
X1319Y1089D01*
X1352Y1089D02*
X1357Y1089D01*
X1384Y1089D02*
X1389Y1089D01*
X1408Y1089D02*
X1413Y1089D01*
X202Y1088D02*
X207Y1088D01*
X214Y1088D02*
X219Y1088D01*
X246Y1088D02*
X251Y1088D01*
X270Y1088D02*
X275Y1088D01*
X301Y1088D02*
X306Y1088D01*
X333Y1088D02*
X338Y1088D01*
X357Y1088D02*
X362Y1088D01*
X377Y1088D02*
X382Y1088D01*
X401Y1088D02*
X406Y1088D01*
X445Y1088D02*
X450Y1088D01*
X480Y1088D02*
X486Y1088D01*
X508Y1088D02*
X514Y1088D01*
X532Y1088D02*
X537Y1088D01*
X552Y1088D02*
X565Y1088D01*
X576Y1088D02*
X581Y1088D01*
X603Y1088D02*
X609Y1088D01*
X620Y1088D02*
X625Y1088D01*
X640Y1088D02*
X668Y1088D01*
X707Y1088D02*
X712Y1088D01*
X751Y1088D02*
X756Y1088D01*
X771Y1088D02*
X800Y1088D01*
X815Y1088D02*
X820Y1088D01*
X839Y1088D02*
X844Y1088D01*
X858Y1088D02*
X888Y1088D01*
X909Y1088D02*
X915Y1088D01*
X926Y1088D02*
X931Y1088D01*
X962Y1088D02*
X968Y1088D01*
X990Y1088D02*
X995Y1088D01*
X1002Y1088D02*
X1007Y1088D01*
X1014Y1088D02*
X1019Y1088D01*
X1033Y1088D02*
X1039Y1088D01*
X1057Y1088D02*
X1063Y1088D01*
X1101Y1088D02*
X1106Y1088D01*
X1130Y1088D02*
X1141Y1088D01*
X1165Y1088D02*
X1170Y1088D01*
X1189Y1088D02*
X1194Y1088D01*
X1209Y1088D02*
X1214Y1088D01*
X1232Y1088D02*
X1237Y1088D01*
X1253Y1088D02*
X1258Y1088D01*
X1276Y1088D02*
X1282Y1088D01*
X1314Y1088D02*
X1319Y1088D01*
X1352Y1088D02*
X1357Y1088D01*
X1384Y1088D02*
X1389Y1088D01*
X1408Y1088D02*
X1413Y1088D01*
X202Y1087D02*
X207Y1087D01*
X214Y1087D02*
X219Y1087D01*
X246Y1087D02*
X251Y1087D01*
X270Y1087D02*
X275Y1087D01*
X301Y1087D02*
X306Y1087D01*
X333Y1087D02*
X338Y1087D01*
X357Y1087D02*
X362Y1087D01*
X377Y1087D02*
X382Y1087D01*
X401Y1087D02*
X406Y1087D01*
X445Y1087D02*
X450Y1087D01*
X481Y1087D02*
X487Y1087D01*
X508Y1087D02*
X513Y1087D01*
X532Y1087D02*
X537Y1087D01*
X552Y1087D02*
X557Y1087D01*
X576Y1087D02*
X581Y1087D01*
X602Y1087D02*
X608Y1087D01*
X620Y1087D02*
X625Y1087D01*
X640Y1087D02*
X647Y1087D01*
X662Y1087D02*
X668Y1087D01*
X707Y1087D02*
X712Y1087D01*
X751Y1087D02*
X756Y1087D01*
X771Y1087D02*
X800Y1087D01*
X815Y1087D02*
X820Y1087D01*
X839Y1087D02*
X844Y1087D01*
X859Y1087D02*
X888Y1087D01*
X909Y1087D02*
X915Y1087D01*
X926Y1087D02*
X931Y1087D01*
X962Y1087D02*
X969Y1087D01*
X990Y1087D02*
X995Y1087D01*
X1002Y1087D02*
X1007Y1087D01*
X1014Y1087D02*
X1019Y1087D01*
X1033Y1087D02*
X1039Y1087D01*
X1057Y1087D02*
X1063Y1087D01*
X1101Y1087D02*
X1106Y1087D01*
X1130Y1087D02*
X1141Y1087D01*
X1165Y1087D02*
X1170Y1087D01*
X1189Y1087D02*
X1194Y1087D01*
X1209Y1087D02*
X1214Y1087D01*
X1232Y1087D02*
X1237Y1087D01*
X1253Y1087D02*
X1258Y1087D01*
X1276Y1087D02*
X1282Y1087D01*
X1314Y1087D02*
X1319Y1087D01*
X1352Y1087D02*
X1357Y1087D01*
X1384Y1087D02*
X1389Y1087D01*
X1408Y1087D02*
X1413Y1087D01*
X202Y1086D02*
X207Y1086D01*
X214Y1086D02*
X219Y1086D01*
X246Y1086D02*
X251Y1086D01*
X270Y1086D02*
X275Y1086D01*
X301Y1086D02*
X306Y1086D01*
X333Y1086D02*
X338Y1086D01*
X357Y1086D02*
X362Y1086D01*
X377Y1086D02*
X382Y1086D01*
X401Y1086D02*
X406Y1086D01*
X445Y1086D02*
X450Y1086D01*
X481Y1086D02*
X488Y1086D01*
X508Y1086D02*
X513Y1086D01*
X532Y1086D02*
X537Y1086D01*
X552Y1086D02*
X557Y1086D01*
X576Y1086D02*
X581Y1086D01*
X602Y1086D02*
X608Y1086D01*
X620Y1086D02*
X625Y1086D01*
X640Y1086D02*
X646Y1086D01*
X663Y1086D02*
X668Y1086D01*
X707Y1086D02*
X712Y1086D01*
X751Y1086D02*
X756Y1086D01*
X772Y1086D02*
X800Y1086D01*
X815Y1086D02*
X820Y1086D01*
X839Y1086D02*
X844Y1086D01*
X859Y1086D02*
X888Y1086D01*
X908Y1086D02*
X914Y1086D01*
X926Y1086D02*
X931Y1086D01*
X963Y1086D02*
X969Y1086D01*
X990Y1086D02*
X995Y1086D01*
X1002Y1086D02*
X1007Y1086D01*
X1014Y1086D02*
X1019Y1086D01*
X1033Y1086D02*
X1039Y1086D01*
X1057Y1086D02*
X1063Y1086D01*
X1101Y1086D02*
X1106Y1086D01*
X1130Y1086D02*
X1141Y1086D01*
X1165Y1086D02*
X1170Y1086D01*
X1189Y1086D02*
X1194Y1086D01*
X1209Y1086D02*
X1214Y1086D01*
X1232Y1086D02*
X1237Y1086D01*
X1253Y1086D02*
X1258Y1086D01*
X1276Y1086D02*
X1282Y1086D01*
X1314Y1086D02*
X1319Y1086D01*
X1352Y1086D02*
X1357Y1086D01*
X1384Y1086D02*
X1390Y1086D01*
X1408Y1086D02*
X1413Y1086D01*
X202Y1085D02*
X207Y1085D01*
X214Y1085D02*
X219Y1085D01*
X246Y1085D02*
X251Y1085D01*
X270Y1085D02*
X275Y1085D01*
X301Y1085D02*
X306Y1085D01*
X333Y1085D02*
X338Y1085D01*
X357Y1085D02*
X362Y1085D01*
X377Y1085D02*
X382Y1085D01*
X401Y1085D02*
X406Y1085D01*
X445Y1085D02*
X450Y1085D01*
X482Y1085D02*
X488Y1085D01*
X508Y1085D02*
X513Y1085D01*
X532Y1085D02*
X537Y1085D01*
X552Y1085D02*
X557Y1085D01*
X576Y1085D02*
X581Y1085D01*
X601Y1085D02*
X607Y1085D01*
X620Y1085D02*
X625Y1085D01*
X640Y1085D02*
X645Y1085D01*
X663Y1085D02*
X669Y1085D01*
X707Y1085D02*
X712Y1085D01*
X751Y1085D02*
X756Y1085D01*
X773Y1085D02*
X800Y1085D01*
X815Y1085D02*
X820Y1085D01*
X839Y1085D02*
X844Y1085D01*
X860Y1085D02*
X888Y1085D01*
X908Y1085D02*
X914Y1085D01*
X926Y1085D02*
X931Y1085D01*
X964Y1085D02*
X970Y1085D01*
X990Y1085D02*
X995Y1085D01*
X1002Y1085D02*
X1007Y1085D01*
X1014Y1085D02*
X1019Y1085D01*
X1033Y1085D02*
X1039Y1085D01*
X1057Y1085D02*
X1063Y1085D01*
X1101Y1085D02*
X1106Y1085D01*
X1130Y1085D02*
X1141Y1085D01*
X1165Y1085D02*
X1170Y1085D01*
X1189Y1085D02*
X1194Y1085D01*
X1209Y1085D02*
X1214Y1085D01*
X1232Y1085D02*
X1237Y1085D01*
X1253Y1085D02*
X1258Y1085D01*
X1276Y1085D02*
X1282Y1085D01*
X1314Y1085D02*
X1319Y1085D01*
X1352Y1085D02*
X1357Y1085D01*
X1384Y1085D02*
X1391Y1085D01*
X1408Y1085D02*
X1413Y1085D01*
X202Y1084D02*
X207Y1084D01*
X214Y1084D02*
X219Y1084D01*
X246Y1084D02*
X251Y1084D01*
X270Y1084D02*
X275Y1084D01*
X301Y1084D02*
X306Y1084D01*
X333Y1084D02*
X338Y1084D01*
X357Y1084D02*
X362Y1084D01*
X377Y1084D02*
X382Y1084D01*
X401Y1084D02*
X406Y1084D01*
X445Y1084D02*
X450Y1084D01*
X483Y1084D02*
X489Y1084D01*
X508Y1084D02*
X513Y1084D01*
X532Y1084D02*
X537Y1084D01*
X552Y1084D02*
X557Y1084D01*
X576Y1084D02*
X581Y1084D01*
X600Y1084D02*
X607Y1084D01*
X620Y1084D02*
X625Y1084D01*
X640Y1084D02*
X645Y1084D01*
X664Y1084D02*
X669Y1084D01*
X707Y1084D02*
X712Y1084D01*
X751Y1084D02*
X756Y1084D01*
X795Y1084D02*
X800Y1084D01*
X815Y1084D02*
X820Y1084D01*
X838Y1084D02*
X844Y1084D01*
X882Y1084D02*
X888Y1084D01*
X907Y1084D02*
X913Y1084D01*
X926Y1084D02*
X931Y1084D01*
X964Y1084D02*
X970Y1084D01*
X990Y1084D02*
X995Y1084D01*
X1002Y1084D02*
X1007Y1084D01*
X1014Y1084D02*
X1019Y1084D01*
X1033Y1084D02*
X1039Y1084D01*
X1057Y1084D02*
X1063Y1084D01*
X1101Y1084D02*
X1106Y1084D01*
X1130Y1084D02*
X1141Y1084D01*
X1165Y1084D02*
X1170Y1084D01*
X1188Y1084D02*
X1194Y1084D01*
X1209Y1084D02*
X1214Y1084D01*
X1232Y1084D02*
X1237Y1084D01*
X1253Y1084D02*
X1258Y1084D01*
X1276Y1084D02*
X1282Y1084D01*
X1314Y1084D02*
X1319Y1084D01*
X1352Y1084D02*
X1357Y1084D01*
X1384Y1084D02*
X1392Y1084D01*
X1407Y1084D02*
X1413Y1084D01*
X202Y1083D02*
X207Y1083D01*
X214Y1083D02*
X219Y1083D01*
X246Y1083D02*
X251Y1083D01*
X270Y1083D02*
X275Y1083D01*
X301Y1083D02*
X306Y1083D01*
X333Y1083D02*
X338Y1083D01*
X357Y1083D02*
X362Y1083D01*
X377Y1083D02*
X382Y1083D01*
X401Y1083D02*
X406Y1083D01*
X445Y1083D02*
X450Y1083D01*
X483Y1083D02*
X489Y1083D01*
X508Y1083D02*
X513Y1083D01*
X532Y1083D02*
X537Y1083D01*
X552Y1083D02*
X557Y1083D01*
X576Y1083D02*
X581Y1083D01*
X600Y1083D02*
X606Y1083D01*
X620Y1083D02*
X625Y1083D01*
X640Y1083D02*
X645Y1083D01*
X664Y1083D02*
X669Y1083D01*
X706Y1083D02*
X712Y1083D01*
X750Y1083D02*
X756Y1083D01*
X795Y1083D02*
X800Y1083D01*
X815Y1083D02*
X820Y1083D01*
X837Y1083D02*
X844Y1083D01*
X882Y1083D02*
X888Y1083D01*
X906Y1083D02*
X912Y1083D01*
X926Y1083D02*
X931Y1083D01*
X965Y1083D02*
X971Y1083D01*
X990Y1083D02*
X995Y1083D01*
X1002Y1083D02*
X1007Y1083D01*
X1014Y1083D02*
X1019Y1083D01*
X1033Y1083D02*
X1039Y1083D01*
X1057Y1083D02*
X1063Y1083D01*
X1100Y1083D02*
X1106Y1083D01*
X1130Y1083D02*
X1141Y1083D01*
X1165Y1083D02*
X1170Y1083D01*
X1187Y1083D02*
X1194Y1083D01*
X1209Y1083D02*
X1216Y1083D01*
X1232Y1083D02*
X1237Y1083D01*
X1253Y1083D02*
X1258Y1083D01*
X1276Y1083D02*
X1282Y1083D01*
X1298Y1083D02*
X1299Y1083D01*
X1314Y1083D02*
X1319Y1083D01*
X1352Y1083D02*
X1357Y1083D01*
X1384Y1083D02*
X1393Y1083D01*
X1407Y1083D02*
X1412Y1083D01*
X202Y1082D02*
X207Y1082D01*
X214Y1082D02*
X219Y1082D01*
X246Y1082D02*
X251Y1082D01*
X270Y1082D02*
X275Y1082D01*
X301Y1082D02*
X306Y1082D01*
X333Y1082D02*
X338Y1082D01*
X357Y1082D02*
X362Y1082D01*
X377Y1082D02*
X382Y1082D01*
X401Y1082D02*
X406Y1082D01*
X445Y1082D02*
X450Y1082D01*
X484Y1082D02*
X490Y1082D01*
X508Y1082D02*
X514Y1082D01*
X532Y1082D02*
X537Y1082D01*
X552Y1082D02*
X557Y1082D01*
X576Y1082D02*
X581Y1082D01*
X599Y1082D02*
X605Y1082D01*
X620Y1082D02*
X625Y1082D01*
X640Y1082D02*
X645Y1082D01*
X664Y1082D02*
X669Y1082D01*
X705Y1082D02*
X712Y1082D01*
X749Y1082D02*
X756Y1082D01*
X795Y1082D02*
X800Y1082D01*
X815Y1082D02*
X820Y1082D01*
X836Y1082D02*
X844Y1082D01*
X882Y1082D02*
X887Y1082D01*
X906Y1082D02*
X912Y1082D01*
X926Y1082D02*
X931Y1082D01*
X965Y1082D02*
X971Y1082D01*
X990Y1082D02*
X995Y1082D01*
X1002Y1082D02*
X1007Y1082D01*
X1014Y1082D02*
X1019Y1082D01*
X1034Y1082D02*
X1039Y1082D01*
X1057Y1082D02*
X1063Y1082D01*
X1099Y1082D02*
X1106Y1082D01*
X1130Y1082D02*
X1141Y1082D01*
X1165Y1082D02*
X1170Y1082D01*
X1186Y1082D02*
X1194Y1082D01*
X1209Y1082D02*
X1217Y1082D01*
X1232Y1082D02*
X1237Y1082D01*
X1253Y1082D02*
X1258Y1082D01*
X1276Y1082D02*
X1282Y1082D01*
X1297Y1082D02*
X1300Y1082D01*
X1314Y1082D02*
X1319Y1082D01*
X1352Y1082D02*
X1357Y1082D01*
X1384Y1082D02*
X1394Y1082D01*
X1406Y1082D02*
X1412Y1082D01*
X202Y1081D02*
X207Y1081D01*
X214Y1081D02*
X219Y1081D01*
X246Y1081D02*
X251Y1081D01*
X270Y1081D02*
X275Y1081D01*
X301Y1081D02*
X306Y1081D01*
X333Y1081D02*
X338Y1081D01*
X357Y1081D02*
X362Y1081D01*
X377Y1081D02*
X382Y1081D01*
X401Y1081D02*
X406Y1081D01*
X445Y1081D02*
X450Y1081D01*
X484Y1081D02*
X491Y1081D01*
X509Y1081D02*
X514Y1081D01*
X532Y1081D02*
X537Y1081D01*
X552Y1081D02*
X557Y1081D01*
X576Y1081D02*
X581Y1081D01*
X599Y1081D02*
X605Y1081D01*
X620Y1081D02*
X625Y1081D01*
X640Y1081D02*
X646Y1081D01*
X663Y1081D02*
X669Y1081D01*
X704Y1081D02*
X711Y1081D01*
X747Y1081D02*
X755Y1081D01*
X794Y1081D02*
X800Y1081D01*
X815Y1081D02*
X820Y1081D01*
X835Y1081D02*
X844Y1081D01*
X882Y1081D02*
X887Y1081D01*
X905Y1081D02*
X911Y1081D01*
X926Y1081D02*
X931Y1081D01*
X966Y1081D02*
X972Y1081D01*
X989Y1081D02*
X995Y1081D01*
X1002Y1081D02*
X1007Y1081D01*
X1014Y1081D02*
X1019Y1081D01*
X1034Y1081D02*
X1039Y1081D01*
X1057Y1081D02*
X1062Y1081D01*
X1098Y1081D02*
X1105Y1081D01*
X1131Y1081D02*
X1141Y1081D01*
X1165Y1081D02*
X1171Y1081D01*
X1185Y1081D02*
X1194Y1081D01*
X1209Y1081D02*
X1219Y1081D01*
X1232Y1081D02*
X1237Y1081D01*
X1253Y1081D02*
X1258Y1081D01*
X1276Y1081D02*
X1282Y1081D01*
X1296Y1081D02*
X1301Y1081D01*
X1314Y1081D02*
X1319Y1081D01*
X1352Y1081D02*
X1357Y1081D01*
X1384Y1081D02*
X1396Y1081D01*
X1404Y1081D02*
X1412Y1081D01*
X202Y1080D02*
X207Y1080D01*
X214Y1080D02*
X219Y1080D01*
X246Y1080D02*
X251Y1080D01*
X270Y1080D02*
X275Y1080D01*
X301Y1080D02*
X306Y1080D01*
X333Y1080D02*
X338Y1080D01*
X357Y1080D02*
X362Y1080D01*
X377Y1080D02*
X382Y1080D01*
X401Y1080D02*
X406Y1080D01*
X445Y1080D02*
X450Y1080D01*
X485Y1080D02*
X491Y1080D01*
X509Y1080D02*
X515Y1080D01*
X532Y1080D02*
X537Y1080D01*
X552Y1080D02*
X557Y1080D01*
X576Y1080D02*
X581Y1080D01*
X598Y1080D02*
X604Y1080D01*
X620Y1080D02*
X625Y1080D01*
X640Y1080D02*
X648Y1080D01*
X663Y1080D02*
X669Y1080D01*
X703Y1080D02*
X711Y1080D01*
X746Y1080D02*
X754Y1080D01*
X793Y1080D02*
X799Y1080D01*
X815Y1080D02*
X821Y1080D01*
X834Y1080D02*
X844Y1080D01*
X881Y1080D02*
X887Y1080D01*
X905Y1080D02*
X911Y1080D01*
X926Y1080D02*
X931Y1080D01*
X967Y1080D02*
X973Y1080D01*
X989Y1080D02*
X995Y1080D01*
X1002Y1080D02*
X1007Y1080D01*
X1014Y1080D02*
X1019Y1080D01*
X1034Y1080D02*
X1040Y1080D01*
X1056Y1080D02*
X1062Y1080D01*
X1096Y1080D02*
X1105Y1080D01*
X1132Y1080D02*
X1139Y1080D01*
X1165Y1080D02*
X1172Y1080D01*
X1184Y1080D02*
X1194Y1080D01*
X1209Y1080D02*
X1221Y1080D01*
X1232Y1080D02*
X1237Y1080D01*
X1253Y1080D02*
X1258Y1080D01*
X1276Y1080D02*
X1282Y1080D01*
X1296Y1080D02*
X1302Y1080D01*
X1314Y1080D02*
X1319Y1080D01*
X1352Y1080D02*
X1357Y1080D01*
X1384Y1080D02*
X1411Y1080D01*
X202Y1079D02*
X207Y1079D01*
X214Y1079D02*
X219Y1079D01*
X246Y1079D02*
X251Y1079D01*
X270Y1079D02*
X275Y1079D01*
X301Y1079D02*
X306Y1079D01*
X333Y1079D02*
X338Y1079D01*
X357Y1079D02*
X362Y1079D01*
X377Y1079D02*
X382Y1079D01*
X401Y1079D02*
X406Y1079D01*
X445Y1079D02*
X450Y1079D01*
X486Y1079D02*
X492Y1079D01*
X509Y1079D02*
X516Y1079D01*
X532Y1079D02*
X537Y1079D01*
X552Y1079D02*
X558Y1079D01*
X575Y1079D02*
X581Y1079D01*
X598Y1079D02*
X604Y1079D01*
X620Y1079D02*
X625Y1079D01*
X640Y1079D02*
X650Y1079D01*
X663Y1079D02*
X668Y1079D01*
X701Y1079D02*
X710Y1079D01*
X745Y1079D02*
X753Y1079D01*
X792Y1079D02*
X799Y1079D01*
X816Y1079D02*
X823Y1079D01*
X833Y1079D02*
X844Y1079D01*
X879Y1079D02*
X887Y1079D01*
X904Y1079D02*
X910Y1079D01*
X926Y1079D02*
X931Y1079D01*
X967Y1079D02*
X973Y1079D01*
X989Y1079D02*
X995Y1079D01*
X1002Y1079D02*
X1007Y1079D01*
X1014Y1079D02*
X1019Y1079D01*
X1034Y1079D02*
X1042Y1079D01*
X1055Y1079D02*
X1062Y1079D01*
X1095Y1079D02*
X1104Y1079D01*
X1166Y1079D02*
X1173Y1079D01*
X1183Y1079D02*
X1194Y1079D01*
X1209Y1079D02*
X1222Y1079D01*
X1231Y1079D02*
X1237Y1079D01*
X1253Y1079D02*
X1258Y1079D01*
X1276Y1079D02*
X1282Y1079D01*
X1296Y1079D02*
X1302Y1079D01*
X1313Y1079D02*
X1319Y1079D01*
X1352Y1079D02*
X1357Y1079D01*
X1384Y1079D02*
X1410Y1079D01*
X202Y1078D02*
X228Y1078D01*
X246Y1078D02*
X251Y1078D01*
X270Y1078D02*
X275Y1078D01*
X295Y1078D02*
X312Y1078D01*
X333Y1078D02*
X362Y1078D01*
X377Y1078D02*
X406Y1078D01*
X424Y1078D02*
X450Y1078D01*
X486Y1078D02*
X492Y1078D01*
X510Y1078D02*
X537Y1078D01*
X552Y1078D02*
X581Y1078D01*
X597Y1078D02*
X603Y1078D01*
X620Y1078D02*
X625Y1078D01*
X640Y1078D02*
X668Y1078D01*
X686Y1078D02*
X709Y1078D01*
X730Y1078D02*
X752Y1078D01*
X774Y1078D02*
X799Y1078D01*
X816Y1078D02*
X844Y1078D01*
X861Y1078D02*
X886Y1078D01*
X903Y1078D02*
X910Y1078D01*
X926Y1078D02*
X931Y1078D01*
X968Y1078D02*
X974Y1078D01*
X989Y1078D02*
X994Y1078D01*
X1002Y1078D02*
X1007Y1078D01*
X1014Y1078D02*
X1019Y1078D01*
X1035Y1078D02*
X1061Y1078D01*
X1080Y1078D02*
X1103Y1078D01*
X1166Y1078D02*
X1194Y1078D01*
X1209Y1078D02*
X1236Y1078D01*
X1252Y1078D02*
X1258Y1078D01*
X1276Y1078D02*
X1282Y1078D01*
X1297Y1078D02*
X1319Y1078D01*
X1346Y1078D02*
X1363Y1078D01*
X1384Y1078D02*
X1409Y1078D01*
X202Y1077D02*
X230Y1077D01*
X246Y1077D02*
X251Y1077D01*
X270Y1077D02*
X275Y1077D01*
X293Y1077D02*
X315Y1077D01*
X333Y1077D02*
X362Y1077D01*
X377Y1077D02*
X406Y1077D01*
X421Y1077D02*
X450Y1077D01*
X487Y1077D02*
X493Y1077D01*
X511Y1077D02*
X537Y1077D01*
X553Y1077D02*
X580Y1077D01*
X596Y1077D02*
X603Y1077D01*
X620Y1077D02*
X625Y1077D01*
X640Y1077D02*
X668Y1077D01*
X684Y1077D02*
X707Y1077D01*
X728Y1077D02*
X751Y1077D01*
X772Y1077D02*
X798Y1077D01*
X817Y1077D02*
X844Y1077D01*
X859Y1077D02*
X885Y1077D01*
X903Y1077D02*
X909Y1077D01*
X926Y1077D02*
X931Y1077D01*
X968Y1077D02*
X974Y1077D01*
X989Y1077D02*
X994Y1077D01*
X1002Y1077D02*
X1007Y1077D01*
X1014Y1077D02*
X1019Y1077D01*
X1036Y1077D02*
X1060Y1077D01*
X1078Y1077D02*
X1101Y1077D01*
X1167Y1077D02*
X1194Y1077D01*
X1209Y1077D02*
X1236Y1077D01*
X1252Y1077D02*
X1258Y1077D01*
X1276Y1077D02*
X1282Y1077D01*
X1297Y1077D02*
X1318Y1077D01*
X1344Y1077D02*
X1365Y1077D01*
X1384Y1077D02*
X1389Y1077D01*
X1392Y1077D02*
X1408Y1077D01*
X202Y1076D02*
X231Y1076D01*
X246Y1076D02*
X251Y1076D01*
X270Y1076D02*
X275Y1076D01*
X293Y1076D02*
X315Y1076D01*
X333Y1076D02*
X362Y1076D01*
X377Y1076D02*
X406Y1076D01*
X421Y1076D02*
X450Y1076D01*
X487Y1076D02*
X493Y1076D01*
X511Y1076D02*
X537Y1076D01*
X554Y1076D02*
X580Y1076D01*
X596Y1076D02*
X602Y1076D01*
X620Y1076D02*
X625Y1076D01*
X640Y1076D02*
X667Y1076D01*
X683Y1076D02*
X706Y1076D01*
X727Y1076D02*
X750Y1076D01*
X771Y1076D02*
X797Y1076D01*
X818Y1076D02*
X844Y1076D01*
X859Y1076D02*
X884Y1076D01*
X902Y1076D02*
X908Y1076D01*
X926Y1076D02*
X931Y1076D01*
X969Y1076D02*
X975Y1076D01*
X989Y1076D02*
X994Y1076D01*
X1002Y1076D02*
X1007Y1076D01*
X1014Y1076D02*
X1019Y1076D01*
X1037Y1076D02*
X1059Y1076D01*
X1077Y1076D02*
X1100Y1076D01*
X1168Y1076D02*
X1194Y1076D01*
X1209Y1076D02*
X1214Y1076D01*
X1216Y1076D02*
X1235Y1076D01*
X1252Y1076D02*
X1257Y1076D01*
X1276Y1076D02*
X1282Y1076D01*
X1298Y1076D02*
X1318Y1076D01*
X1343Y1076D02*
X1366Y1076D01*
X1384Y1076D02*
X1389Y1076D01*
X1393Y1076D02*
X1406Y1076D01*
X202Y1075D02*
X231Y1075D01*
X246Y1075D02*
X251Y1075D01*
X270Y1075D02*
X275Y1075D01*
X292Y1075D02*
X315Y1075D01*
X334Y1075D02*
X361Y1075D01*
X378Y1075D02*
X405Y1075D01*
X421Y1075D02*
X450Y1075D01*
X488Y1075D02*
X493Y1075D01*
X512Y1075D02*
X537Y1075D01*
X554Y1075D02*
X579Y1075D01*
X596Y1075D02*
X601Y1075D01*
X620Y1075D02*
X625Y1075D01*
X640Y1075D02*
X666Y1075D01*
X683Y1075D02*
X705Y1075D01*
X727Y1075D02*
X749Y1075D01*
X771Y1075D02*
X796Y1075D01*
X819Y1075D02*
X837Y1075D01*
X839Y1075D02*
X844Y1075D01*
X858Y1075D02*
X883Y1075D01*
X902Y1075D02*
X908Y1075D01*
X926Y1075D02*
X931Y1075D01*
X969Y1075D02*
X975Y1075D01*
X989Y1075D02*
X994Y1075D01*
X1002Y1075D02*
X1007Y1075D01*
X1014Y1075D02*
X1019Y1075D01*
X1038Y1075D02*
X1058Y1075D01*
X1077Y1075D02*
X1099Y1075D01*
X1169Y1075D02*
X1187Y1075D01*
X1189Y1075D02*
X1194Y1075D01*
X1209Y1075D02*
X1214Y1075D01*
X1218Y1075D02*
X1235Y1075D01*
X1252Y1075D02*
X1257Y1075D01*
X1276Y1075D02*
X1281Y1075D01*
X1299Y1075D02*
X1317Y1075D01*
X1343Y1075D02*
X1366Y1075D01*
X1384Y1075D02*
X1389Y1075D01*
X1395Y1075D02*
X1405Y1075D01*
X202Y1074D02*
X231Y1074D01*
X246Y1074D02*
X250Y1074D01*
X270Y1074D02*
X274Y1074D01*
X293Y1074D02*
X315Y1074D01*
X335Y1074D02*
X361Y1074D01*
X379Y1074D02*
X404Y1074D01*
X421Y1074D02*
X450Y1074D01*
X489Y1074D02*
X493Y1074D01*
X514Y1074D02*
X537Y1074D01*
X555Y1074D02*
X578Y1074D01*
X596Y1074D02*
X601Y1074D01*
X620Y1074D02*
X625Y1074D01*
X640Y1074D02*
X644Y1074D01*
X647Y1074D02*
X665Y1074D01*
X683Y1074D02*
X704Y1074D01*
X727Y1074D02*
X748Y1074D01*
X771Y1074D02*
X795Y1074D01*
X820Y1074D02*
X835Y1074D01*
X839Y1074D02*
X844Y1074D01*
X859Y1074D02*
X882Y1074D01*
X902Y1074D02*
X907Y1074D01*
X926Y1074D02*
X931Y1074D01*
X970Y1074D02*
X975Y1074D01*
X989Y1074D02*
X994Y1074D01*
X1002Y1074D02*
X1007Y1074D01*
X1014Y1074D02*
X1019Y1074D01*
X1039Y1074D02*
X1057Y1074D01*
X1077Y1074D02*
X1098Y1074D01*
X1170Y1074D02*
X1186Y1074D01*
X1189Y1074D02*
X1194Y1074D01*
X1209Y1074D02*
X1213Y1074D01*
X1220Y1074D02*
X1234Y1074D01*
X1253Y1074D02*
X1257Y1074D01*
X1277Y1074D02*
X1281Y1074D01*
X1300Y1074D02*
X1316Y1074D01*
X1343Y1074D02*
X1366Y1074D01*
X1384Y1074D02*
X1389Y1074D01*
X203Y1073D02*
X230Y1073D01*
X246Y1073D02*
X250Y1073D01*
X270Y1073D02*
X274Y1073D01*
X293Y1073D02*
X315Y1073D01*
X336Y1073D02*
X359Y1073D01*
X380Y1073D02*
X403Y1073D01*
X421Y1073D02*
X450Y1073D01*
X489Y1073D02*
X493Y1073D01*
X515Y1073D02*
X537Y1073D01*
X557Y1073D02*
X576Y1073D01*
X597Y1073D02*
X600Y1073D01*
X621Y1073D02*
X624Y1073D01*
X640Y1073D02*
X644Y1073D01*
X649Y1073D02*
X664Y1073D01*
X684Y1073D02*
X702Y1073D01*
X728Y1073D02*
X746Y1073D01*
X772Y1073D02*
X793Y1073D01*
X822Y1073D02*
X834Y1073D01*
X839Y1073D02*
X843Y1073D01*
X859Y1073D02*
X881Y1073D01*
X903Y1073D02*
X906Y1073D01*
X927Y1073D02*
X930Y1073D01*
X971Y1073D02*
X974Y1073D01*
X990Y1073D02*
X994Y1073D01*
X1003Y1073D02*
X1006Y1073D01*
X1015Y1073D02*
X1019Y1073D01*
X1041Y1073D02*
X1056Y1073D01*
X1078Y1073D02*
X1096Y1073D01*
X1172Y1073D02*
X1184Y1073D01*
X1190Y1073D02*
X1193Y1073D01*
X1209Y1073D02*
X1213Y1073D01*
X1221Y1073D02*
X1232Y1073D01*
X1253Y1073D02*
X1257Y1073D01*
X1277Y1073D02*
X1281Y1073D01*
X1301Y1073D02*
X1314Y1073D01*
X1344Y1073D02*
X1365Y1073D01*
X1384Y1073D02*
X1389Y1073D01*
X204Y1072D02*
X228Y1072D01*
X248Y1072D02*
X248Y1072D01*
X272Y1072D02*
X272Y1072D01*
X295Y1072D02*
X313Y1072D01*
X338Y1072D02*
X357Y1072D01*
X382Y1072D02*
X401Y1072D01*
X423Y1072D02*
X449Y1072D01*
X491Y1072D02*
X491Y1072D01*
X520Y1072D02*
X537Y1072D01*
X560Y1072D02*
X573Y1072D01*
X598Y1072D02*
X598Y1072D01*
X622Y1072D02*
X622Y1072D01*
X642Y1072D02*
X642Y1072D01*
X651Y1072D02*
X660Y1072D01*
X686Y1072D02*
X699Y1072D01*
X730Y1072D02*
X743Y1072D01*
X774Y1072D02*
X790Y1072D01*
X825Y1072D02*
X830Y1072D01*
X841Y1072D02*
X841Y1072D01*
X861Y1072D02*
X877Y1072D01*
X929Y1072D02*
X929Y1072D01*
X992Y1072D02*
X992Y1072D01*
X1004Y1072D02*
X1004Y1072D01*
X1017Y1072D02*
X1017Y1072D01*
X1044Y1072D02*
X1052Y1072D01*
X1080Y1072D02*
X1093Y1072D01*
X1175Y1072D02*
X1180Y1072D01*
X1211Y1072D02*
X1211Y1072D01*
X1225Y1072D02*
X1229Y1072D01*
X1255Y1072D02*
X1255Y1072D01*
X1279Y1072D02*
X1279Y1072D01*
X1304Y1072D02*
X1311Y1072D01*
X1346Y1072D02*
X1363Y1072D01*
X1384Y1072D02*
X1389Y1072D01*
X1384Y1071D02*
X1389Y1071D01*
X1384Y1070D02*
X1389Y1070D01*
X1384Y1069D02*
X1389Y1069D01*
X1384Y1068D02*
X1390Y1068D01*
X1384Y1067D02*
X1391Y1067D01*
X1385Y1066D02*
X1392Y1066D01*
X1385Y1065D02*
X1408Y1065D01*
X1386Y1064D02*
X1409Y1064D01*
X1387Y1063D02*
X1410Y1063D01*
X1388Y1062D02*
X1410Y1062D01*
X1389Y1061D02*
X1410Y1061D01*
X1391Y1060D02*
X1409Y1060D01*
X1371Y577D02*
X1375Y577D01*
X1590Y577D02*
X1593Y577D01*
X1369Y576D02*
X1376Y576D01*
X1588Y576D02*
X1595Y576D01*
X1369Y575D02*
X1377Y575D01*
X1588Y575D02*
X1595Y575D01*
X494Y574D02*
X506Y574D01*
X801Y574D02*
X803Y574D01*
X878Y574D02*
X890Y574D01*
X1020Y574D02*
X1031Y574D01*
X1143Y574D02*
X1163Y574D01*
X1270Y574D02*
X1273Y574D01*
X1369Y574D02*
X1377Y574D01*
X1413Y574D02*
X1428Y574D01*
X1588Y574D02*
X1596Y574D01*
X1619Y574D02*
X1626Y574D01*
X1641Y574D02*
X1648Y574D01*
X494Y573D02*
X507Y573D01*
X800Y573D02*
X804Y573D01*
X877Y573D02*
X892Y573D01*
X1019Y573D02*
X1032Y573D01*
X1141Y573D02*
X1164Y573D01*
X1269Y573D02*
X1274Y573D01*
X1369Y573D02*
X1377Y573D01*
X1411Y573D02*
X1429Y573D01*
X1587Y573D02*
X1596Y573D01*
X1619Y573D02*
X1627Y573D01*
X1641Y573D02*
X1648Y573D01*
X493Y572D02*
X507Y572D01*
X800Y572D02*
X805Y572D01*
X877Y572D02*
X893Y572D01*
X1019Y572D02*
X1032Y572D01*
X1140Y572D02*
X1165Y572D01*
X1269Y572D02*
X1274Y572D01*
X1369Y572D02*
X1377Y572D01*
X1410Y572D02*
X1429Y572D01*
X1588Y572D02*
X1596Y572D01*
X1619Y572D02*
X1628Y572D01*
X1640Y572D02*
X1648Y572D01*
X493Y571D02*
X507Y571D01*
X799Y571D02*
X805Y571D01*
X877Y571D02*
X894Y571D01*
X1018Y571D02*
X1032Y571D01*
X1139Y571D02*
X1166Y571D01*
X1269Y571D02*
X1274Y571D01*
X1369Y571D02*
X1377Y571D01*
X1409Y571D02*
X1429Y571D01*
X1588Y571D02*
X1596Y571D01*
X1619Y571D02*
X1628Y571D01*
X1639Y571D02*
X1648Y571D01*
X493Y570D02*
X507Y570D01*
X799Y570D02*
X805Y570D01*
X877Y570D02*
X895Y570D01*
X1018Y570D02*
X1032Y570D01*
X1139Y570D02*
X1166Y570D01*
X1269Y570D02*
X1274Y570D01*
X1369Y570D02*
X1376Y570D01*
X1408Y570D02*
X1429Y570D01*
X1588Y570D02*
X1595Y570D01*
X1619Y570D02*
X1629Y570D01*
X1638Y570D02*
X1648Y570D01*
X493Y569D02*
X506Y569D01*
X799Y569D02*
X806Y569D01*
X878Y569D02*
X895Y569D01*
X1018Y569D02*
X1031Y569D01*
X1138Y569D02*
X1167Y569D01*
X1269Y569D02*
X1274Y569D01*
X1370Y569D02*
X1375Y569D01*
X1408Y569D02*
X1428Y569D01*
X1589Y569D02*
X1594Y569D01*
X1619Y569D02*
X1630Y569D01*
X1638Y569D02*
X1648Y569D01*
X493Y568D02*
X498Y568D01*
X798Y568D02*
X806Y568D01*
X889Y568D02*
X896Y568D01*
X1018Y568D02*
X1024Y568D01*
X1138Y568D02*
X1144Y568D01*
X1162Y568D02*
X1167Y568D01*
X1269Y568D02*
X1274Y568D01*
X1407Y568D02*
X1414Y568D01*
X1418Y568D02*
X1424Y568D01*
X1619Y568D02*
X1631Y568D01*
X1637Y568D02*
X1648Y568D01*
X493Y567D02*
X498Y567D01*
X798Y567D02*
X806Y567D01*
X890Y567D02*
X896Y567D01*
X1018Y567D02*
X1024Y567D01*
X1138Y567D02*
X1143Y567D01*
X1161Y567D02*
X1167Y567D01*
X1269Y567D02*
X1274Y567D01*
X1407Y567D02*
X1413Y567D01*
X1418Y567D02*
X1424Y567D01*
X1619Y567D02*
X1631Y567D01*
X1636Y567D02*
X1648Y567D01*
X493Y566D02*
X498Y566D01*
X798Y566D02*
X806Y566D01*
X891Y566D02*
X897Y566D01*
X1018Y566D02*
X1024Y566D01*
X1138Y566D02*
X1143Y566D01*
X1161Y566D02*
X1167Y566D01*
X1269Y566D02*
X1274Y566D01*
X1406Y566D02*
X1412Y566D01*
X1418Y566D02*
X1424Y566D01*
X1619Y566D02*
X1632Y566D01*
X1636Y566D02*
X1648Y566D01*
X493Y565D02*
X498Y565D01*
X797Y565D02*
X807Y565D01*
X891Y565D02*
X897Y565D01*
X1018Y565D02*
X1024Y565D01*
X1138Y565D02*
X1142Y565D01*
X1160Y565D02*
X1166Y565D01*
X1269Y565D02*
X1274Y565D01*
X1406Y565D02*
X1412Y565D01*
X1418Y565D02*
X1424Y565D01*
X1619Y565D02*
X1624Y565D01*
X1626Y565D02*
X1633Y565D01*
X1635Y565D02*
X1641Y565D01*
X1643Y565D02*
X1648Y565D01*
X493Y564D02*
X498Y564D01*
X797Y564D02*
X807Y564D01*
X892Y564D02*
X897Y564D01*
X1018Y564D02*
X1024Y564D01*
X1139Y564D02*
X1142Y564D01*
X1159Y564D02*
X1166Y564D01*
X1269Y564D02*
X1274Y564D01*
X1405Y564D02*
X1411Y564D01*
X1418Y564D02*
X1424Y564D01*
X1619Y564D02*
X1624Y564D01*
X1627Y564D02*
X1641Y564D01*
X1643Y564D02*
X1648Y564D01*
X493Y563D02*
X498Y563D01*
X713Y563D02*
X716Y563D01*
X757Y563D02*
X760Y563D01*
X770Y563D02*
X770Y563D01*
X797Y563D02*
X807Y563D01*
X892Y563D02*
X897Y563D01*
X1018Y563D02*
X1024Y563D01*
X1158Y563D02*
X1165Y563D01*
X1269Y563D02*
X1274Y563D01*
X1405Y563D02*
X1411Y563D01*
X1418Y563D02*
X1424Y563D01*
X1619Y563D02*
X1624Y563D01*
X1628Y563D02*
X1640Y563D01*
X1643Y563D02*
X1648Y563D01*
X493Y562D02*
X498Y562D01*
X710Y562D02*
X719Y562D01*
X725Y562D02*
X728Y562D01*
X754Y562D02*
X763Y562D01*
X769Y562D02*
X772Y562D01*
X797Y562D02*
X808Y562D01*
X891Y562D02*
X897Y562D01*
X1018Y562D02*
X1024Y562D01*
X1157Y562D02*
X1164Y562D01*
X1269Y562D02*
X1274Y562D01*
X1404Y562D02*
X1410Y562D01*
X1418Y562D02*
X1424Y562D01*
X1619Y562D02*
X1624Y562D01*
X1628Y562D02*
X1639Y562D01*
X1643Y562D02*
X1648Y562D01*
X493Y561D02*
X498Y561D01*
X531Y561D02*
X547Y561D01*
X570Y561D02*
X573Y561D01*
X594Y561D02*
X597Y561D01*
X620Y561D02*
X634Y561D01*
X662Y561D02*
X672Y561D01*
X681Y561D02*
X684Y561D01*
X708Y561D02*
X720Y561D01*
X724Y561D02*
X729Y561D01*
X752Y561D02*
X764Y561D01*
X768Y561D02*
X773Y561D01*
X796Y561D02*
X808Y561D01*
X884Y561D02*
X902Y561D01*
X926Y561D02*
X940Y561D01*
X1018Y561D02*
X1024Y561D01*
X1056Y561D02*
X1072Y561D01*
X1102Y561D02*
X1116Y561D01*
X1157Y561D02*
X1164Y561D01*
X1233Y561D02*
X1247Y561D01*
X1269Y561D02*
X1274Y561D01*
X1280Y561D02*
X1291Y561D01*
X1320Y561D02*
X1334Y561D01*
X1370Y561D02*
X1382Y561D01*
X1404Y561D02*
X1410Y561D01*
X1418Y561D02*
X1424Y561D01*
X1493Y561D02*
X1512Y561D01*
X1537Y561D02*
X1556Y561D01*
X1589Y561D02*
X1601Y561D01*
X1619Y561D02*
X1624Y561D01*
X1629Y561D02*
X1639Y561D01*
X1643Y561D02*
X1648Y561D01*
X493Y560D02*
X498Y560D01*
X529Y560D02*
X548Y560D01*
X569Y560D02*
X573Y560D01*
X593Y560D02*
X597Y560D01*
X618Y560D02*
X636Y560D01*
X660Y560D02*
X674Y560D01*
X681Y560D02*
X685Y560D01*
X707Y560D02*
X721Y560D01*
X724Y560D02*
X729Y560D01*
X751Y560D02*
X765Y560D01*
X768Y560D02*
X773Y560D01*
X796Y560D02*
X808Y560D01*
X883Y560D02*
X902Y560D01*
X925Y560D02*
X942Y560D01*
X1018Y560D02*
X1024Y560D01*
X1055Y560D02*
X1073Y560D01*
X1100Y560D02*
X1117Y560D01*
X1156Y560D02*
X1163Y560D01*
X1231Y560D02*
X1249Y560D01*
X1269Y560D02*
X1274Y560D01*
X1278Y560D02*
X1292Y560D01*
X1319Y560D02*
X1336Y560D01*
X1369Y560D02*
X1382Y560D01*
X1403Y560D02*
X1409Y560D01*
X1418Y560D02*
X1424Y560D01*
X1491Y560D02*
X1514Y560D01*
X1535Y560D02*
X1557Y560D01*
X1588Y560D02*
X1601Y560D01*
X1619Y560D02*
X1624Y560D01*
X1630Y560D02*
X1638Y560D01*
X1643Y560D02*
X1648Y560D01*
X493Y559D02*
X498Y559D01*
X528Y559D02*
X548Y559D01*
X569Y559D02*
X574Y559D01*
X593Y559D02*
X598Y559D01*
X617Y559D02*
X637Y559D01*
X659Y559D02*
X675Y559D01*
X680Y559D02*
X685Y559D01*
X706Y559D02*
X722Y559D01*
X724Y559D02*
X729Y559D01*
X750Y559D02*
X766Y559D01*
X768Y559D02*
X773Y559D01*
X796Y559D02*
X801Y559D01*
X803Y559D02*
X808Y559D01*
X883Y559D02*
X903Y559D01*
X923Y559D02*
X943Y559D01*
X1018Y559D02*
X1024Y559D01*
X1054Y559D02*
X1073Y559D01*
X1099Y559D02*
X1118Y559D01*
X1155Y559D02*
X1162Y559D01*
X1230Y559D02*
X1250Y559D01*
X1269Y559D02*
X1274Y559D01*
X1277Y559D02*
X1294Y559D01*
X1317Y559D02*
X1337Y559D01*
X1369Y559D02*
X1383Y559D01*
X1403Y559D02*
X1409Y559D01*
X1418Y559D02*
X1424Y559D01*
X1490Y559D02*
X1515Y559D01*
X1534Y559D02*
X1558Y559D01*
X1588Y559D02*
X1602Y559D01*
X1619Y559D02*
X1624Y559D01*
X1630Y559D02*
X1637Y559D01*
X1643Y559D02*
X1648Y559D01*
X493Y558D02*
X498Y558D01*
X527Y558D02*
X548Y558D01*
X569Y558D02*
X574Y558D01*
X593Y558D02*
X598Y558D01*
X616Y558D02*
X638Y558D01*
X658Y558D02*
X676Y558D01*
X680Y558D02*
X685Y558D01*
X705Y558D02*
X729Y558D01*
X749Y558D02*
X773Y558D01*
X795Y558D02*
X801Y558D01*
X803Y558D02*
X809Y558D01*
X883Y558D02*
X903Y558D01*
X922Y558D02*
X944Y558D01*
X1018Y558D02*
X1024Y558D01*
X1053Y558D02*
X1073Y558D01*
X1097Y558D02*
X1120Y558D01*
X1154Y558D02*
X1161Y558D01*
X1229Y558D02*
X1251Y558D01*
X1269Y558D02*
X1295Y558D01*
X1316Y558D02*
X1338Y558D01*
X1369Y558D02*
X1383Y558D01*
X1402Y558D02*
X1408Y558D01*
X1418Y558D02*
X1424Y558D01*
X1489Y558D02*
X1515Y558D01*
X1533Y558D02*
X1559Y558D01*
X1587Y558D02*
X1601Y558D01*
X1619Y558D02*
X1624Y558D01*
X1631Y558D02*
X1637Y558D01*
X1643Y558D02*
X1648Y558D01*
X493Y557D02*
X498Y557D01*
X527Y557D02*
X547Y557D01*
X569Y557D02*
X574Y557D01*
X593Y557D02*
X598Y557D01*
X615Y557D02*
X639Y557D01*
X657Y557D02*
X677Y557D01*
X680Y557D02*
X685Y557D01*
X704Y557D02*
X729Y557D01*
X748Y557D02*
X773Y557D01*
X795Y557D02*
X801Y557D01*
X804Y557D02*
X809Y557D01*
X883Y557D02*
X902Y557D01*
X921Y557D02*
X945Y557D01*
X1018Y557D02*
X1024Y557D01*
X1052Y557D02*
X1073Y557D01*
X1096Y557D02*
X1121Y557D01*
X1154Y557D02*
X1160Y557D01*
X1228Y557D02*
X1252Y557D01*
X1269Y557D02*
X1296Y557D01*
X1315Y557D02*
X1339Y557D01*
X1369Y557D02*
X1382Y557D01*
X1402Y557D02*
X1408Y557D01*
X1418Y557D02*
X1424Y557D01*
X1489Y557D02*
X1516Y557D01*
X1532Y557D02*
X1560Y557D01*
X1587Y557D02*
X1601Y557D01*
X1619Y557D02*
X1624Y557D01*
X1631Y557D02*
X1636Y557D01*
X1643Y557D02*
X1648Y557D01*
X493Y556D02*
X498Y556D01*
X526Y556D02*
X546Y556D01*
X569Y556D02*
X574Y556D01*
X593Y556D02*
X598Y556D01*
X614Y556D02*
X640Y556D01*
X657Y556D02*
X678Y556D01*
X680Y556D02*
X685Y556D01*
X703Y556D02*
X711Y556D01*
X718Y556D02*
X729Y556D01*
X747Y556D02*
X755Y556D01*
X762Y556D02*
X773Y556D01*
X795Y556D02*
X800Y556D01*
X804Y556D02*
X809Y556D01*
X884Y556D02*
X901Y556D01*
X920Y556D02*
X946Y556D01*
X1018Y556D02*
X1024Y556D01*
X1052Y556D02*
X1072Y556D01*
X1096Y556D02*
X1121Y556D01*
X1153Y556D02*
X1160Y556D01*
X1227Y556D02*
X1253Y556D01*
X1269Y556D02*
X1297Y556D01*
X1314Y556D02*
X1340Y556D01*
X1369Y556D02*
X1381Y556D01*
X1401Y556D02*
X1407Y556D01*
X1418Y556D02*
X1424Y556D01*
X1489Y556D02*
X1516Y556D01*
X1532Y556D02*
X1560Y556D01*
X1587Y556D02*
X1600Y556D01*
X1619Y556D02*
X1624Y556D01*
X1631Y556D02*
X1636Y556D01*
X1643Y556D02*
X1648Y556D01*
X493Y555D02*
X498Y555D01*
X526Y555D02*
X532Y555D01*
X569Y555D02*
X574Y555D01*
X593Y555D02*
X598Y555D01*
X613Y555D02*
X621Y555D01*
X633Y555D02*
X640Y555D01*
X656Y555D02*
X662Y555D01*
X671Y555D02*
X685Y555D01*
X702Y555D02*
X710Y555D01*
X719Y555D02*
X729Y555D01*
X746Y555D02*
X754Y555D01*
X763Y555D02*
X773Y555D01*
X795Y555D02*
X800Y555D01*
X804Y555D02*
X810Y555D01*
X892Y555D02*
X897Y555D01*
X920Y555D02*
X927Y555D01*
X940Y555D02*
X947Y555D01*
X1018Y555D02*
X1024Y555D01*
X1051Y555D02*
X1057Y555D01*
X1095Y555D02*
X1102Y555D01*
X1115Y555D02*
X1122Y555D01*
X1152Y555D02*
X1159Y555D01*
X1226Y555D02*
X1234Y555D01*
X1246Y555D02*
X1253Y555D01*
X1269Y555D02*
X1281Y555D01*
X1290Y555D02*
X1297Y555D01*
X1314Y555D02*
X1321Y555D01*
X1334Y555D02*
X1341Y555D01*
X1369Y555D02*
X1374Y555D01*
X1401Y555D02*
X1407Y555D01*
X1418Y555D02*
X1424Y555D01*
X1489Y555D02*
X1494Y555D01*
X1511Y555D02*
X1516Y555D01*
X1533Y555D02*
X1538Y555D01*
X1555Y555D02*
X1560Y555D01*
X1587Y555D02*
X1593Y555D01*
X1619Y555D02*
X1624Y555D01*
X1632Y555D02*
X1636Y555D01*
X1643Y555D02*
X1648Y555D01*
X493Y554D02*
X498Y554D01*
X526Y554D02*
X531Y554D01*
X569Y554D02*
X574Y554D01*
X593Y554D02*
X598Y554D01*
X613Y554D02*
X619Y554D01*
X634Y554D02*
X641Y554D01*
X656Y554D02*
X662Y554D01*
X672Y554D02*
X685Y554D01*
X701Y554D02*
X709Y554D01*
X720Y554D02*
X729Y554D01*
X745Y554D02*
X753Y554D01*
X764Y554D02*
X773Y554D01*
X794Y554D02*
X800Y554D01*
X805Y554D02*
X810Y554D01*
X892Y554D02*
X897Y554D01*
X919Y554D02*
X926Y554D01*
X941Y554D02*
X947Y554D01*
X1018Y554D02*
X1024Y554D01*
X1051Y554D02*
X1056Y554D01*
X1095Y554D02*
X1101Y554D01*
X1116Y554D02*
X1122Y554D01*
X1151Y554D02*
X1158Y554D01*
X1226Y554D02*
X1232Y554D01*
X1247Y554D02*
X1254Y554D01*
X1269Y554D02*
X1279Y554D01*
X1291Y554D02*
X1298Y554D01*
X1313Y554D02*
X1320Y554D01*
X1335Y554D02*
X1341Y554D01*
X1369Y554D02*
X1374Y554D01*
X1401Y554D02*
X1406Y554D01*
X1418Y554D02*
X1424Y554D01*
X1490Y554D02*
X1493Y554D01*
X1511Y554D02*
X1516Y554D01*
X1533Y554D02*
X1536Y554D01*
X1555Y554D02*
X1560Y554D01*
X1587Y554D02*
X1593Y554D01*
X1619Y554D02*
X1624Y554D01*
X1632Y554D02*
X1635Y554D01*
X1643Y554D02*
X1648Y554D01*
X493Y553D02*
X498Y553D01*
X526Y553D02*
X531Y553D01*
X569Y553D02*
X574Y553D01*
X592Y553D02*
X598Y553D01*
X613Y553D02*
X618Y553D01*
X635Y553D02*
X641Y553D01*
X656Y553D02*
X661Y553D01*
X673Y553D02*
X685Y553D01*
X701Y553D02*
X708Y553D01*
X721Y553D02*
X729Y553D01*
X744Y553D02*
X751Y553D01*
X765Y553D02*
X773Y553D01*
X794Y553D02*
X799Y553D01*
X805Y553D02*
X810Y553D01*
X892Y553D02*
X897Y553D01*
X919Y553D02*
X925Y553D01*
X942Y553D02*
X948Y553D01*
X1018Y553D02*
X1024Y553D01*
X1051Y553D02*
X1056Y553D01*
X1094Y553D02*
X1100Y553D01*
X1117Y553D02*
X1123Y553D01*
X1150Y553D02*
X1157Y553D01*
X1226Y553D02*
X1231Y553D01*
X1248Y553D02*
X1254Y553D01*
X1269Y553D02*
X1278Y553D01*
X1292Y553D02*
X1298Y553D01*
X1313Y553D02*
X1319Y553D01*
X1336Y553D02*
X1342Y553D01*
X1369Y553D02*
X1374Y553D01*
X1401Y553D02*
X1406Y553D01*
X1418Y553D02*
X1424Y553D01*
X1511Y553D02*
X1516Y553D01*
X1555Y553D02*
X1560Y553D01*
X1587Y553D02*
X1593Y553D01*
X1619Y553D02*
X1624Y553D01*
X1643Y553D02*
X1648Y553D01*
X493Y552D02*
X498Y552D01*
X526Y552D02*
X531Y552D01*
X569Y552D02*
X575Y552D01*
X592Y552D02*
X597Y552D01*
X613Y552D02*
X618Y552D01*
X636Y552D02*
X641Y552D01*
X656Y552D02*
X661Y552D01*
X674Y552D02*
X685Y552D01*
X700Y552D02*
X706Y552D01*
X722Y552D02*
X729Y552D01*
X744Y552D02*
X750Y552D01*
X766Y552D02*
X773Y552D01*
X794Y552D02*
X799Y552D01*
X805Y552D02*
X811Y552D01*
X892Y552D02*
X897Y552D01*
X919Y552D02*
X924Y552D01*
X943Y552D02*
X948Y552D01*
X1018Y552D02*
X1024Y552D01*
X1051Y552D02*
X1056Y552D01*
X1094Y552D02*
X1099Y552D01*
X1118Y552D02*
X1123Y552D01*
X1150Y552D02*
X1157Y552D01*
X1225Y552D02*
X1231Y552D01*
X1249Y552D02*
X1254Y552D01*
X1269Y552D02*
X1277Y552D01*
X1293Y552D02*
X1298Y552D01*
X1313Y552D02*
X1318Y552D01*
X1337Y552D02*
X1342Y552D01*
X1369Y552D02*
X1374Y552D01*
X1400Y552D02*
X1406Y552D01*
X1418Y552D02*
X1424Y552D01*
X1509Y552D02*
X1516Y552D01*
X1553Y552D02*
X1560Y552D01*
X1587Y552D02*
X1593Y552D01*
X1619Y552D02*
X1624Y552D01*
X1643Y552D02*
X1648Y552D01*
X493Y551D02*
X498Y551D01*
X526Y551D02*
X531Y551D01*
X570Y551D02*
X575Y551D01*
X591Y551D02*
X597Y551D01*
X612Y551D02*
X618Y551D01*
X636Y551D02*
X642Y551D01*
X656Y551D02*
X661Y551D01*
X676Y551D02*
X685Y551D01*
X700Y551D02*
X706Y551D01*
X723Y551D02*
X729Y551D01*
X744Y551D02*
X749Y551D01*
X767Y551D02*
X773Y551D01*
X793Y551D02*
X799Y551D01*
X805Y551D02*
X811Y551D01*
X892Y551D02*
X897Y551D01*
X919Y551D02*
X924Y551D01*
X943Y551D02*
X948Y551D01*
X1018Y551D02*
X1024Y551D01*
X1051Y551D02*
X1056Y551D01*
X1094Y551D02*
X1099Y551D01*
X1118Y551D02*
X1123Y551D01*
X1149Y551D02*
X1156Y551D01*
X1225Y551D02*
X1230Y551D01*
X1249Y551D02*
X1254Y551D01*
X1269Y551D02*
X1276Y551D01*
X1293Y551D02*
X1298Y551D01*
X1313Y551D02*
X1318Y551D01*
X1337Y551D02*
X1342Y551D01*
X1369Y551D02*
X1374Y551D01*
X1400Y551D02*
X1406Y551D01*
X1418Y551D02*
X1424Y551D01*
X1507Y551D02*
X1516Y551D01*
X1551Y551D02*
X1559Y551D01*
X1587Y551D02*
X1593Y551D01*
X1619Y551D02*
X1624Y551D01*
X1643Y551D02*
X1648Y551D01*
X493Y550D02*
X498Y550D01*
X526Y550D02*
X531Y550D01*
X570Y550D02*
X576Y550D01*
X591Y550D02*
X597Y550D01*
X612Y550D02*
X618Y550D01*
X636Y550D02*
X642Y550D01*
X656Y550D02*
X661Y550D01*
X677Y550D02*
X685Y550D01*
X700Y550D02*
X705Y550D01*
X724Y550D02*
X729Y550D01*
X744Y550D02*
X749Y550D01*
X767Y550D02*
X773Y550D01*
X793Y550D02*
X798Y550D01*
X806Y550D02*
X811Y550D01*
X892Y550D02*
X897Y550D01*
X919Y550D02*
X924Y550D01*
X943Y550D02*
X948Y550D01*
X1018Y550D02*
X1024Y550D01*
X1051Y550D02*
X1056Y550D01*
X1094Y550D02*
X1099Y550D01*
X1118Y550D02*
X1123Y550D01*
X1148Y550D02*
X1155Y550D01*
X1225Y550D02*
X1230Y550D01*
X1249Y550D02*
X1254Y550D01*
X1269Y550D02*
X1275Y550D01*
X1293Y550D02*
X1298Y550D01*
X1313Y550D02*
X1318Y550D01*
X1337Y550D02*
X1342Y550D01*
X1369Y550D02*
X1374Y550D01*
X1400Y550D02*
X1406Y550D01*
X1418Y550D02*
X1424Y550D01*
X1505Y550D02*
X1515Y550D01*
X1548Y550D02*
X1559Y550D01*
X1587Y550D02*
X1593Y550D01*
X1619Y550D02*
X1624Y550D01*
X1643Y550D02*
X1648Y550D01*
X493Y549D02*
X498Y549D01*
X525Y549D02*
X531Y549D01*
X570Y549D02*
X576Y549D01*
X590Y549D02*
X596Y549D01*
X612Y549D02*
X618Y549D01*
X636Y549D02*
X642Y549D01*
X657Y549D02*
X660Y549D01*
X678Y549D02*
X685Y549D01*
X700Y549D02*
X705Y549D01*
X724Y549D02*
X729Y549D01*
X744Y549D02*
X749Y549D01*
X768Y549D02*
X773Y549D01*
X793Y549D02*
X798Y549D01*
X806Y549D02*
X811Y549D01*
X892Y549D02*
X897Y549D01*
X919Y549D02*
X924Y549D01*
X943Y549D02*
X948Y549D01*
X1018Y549D02*
X1024Y549D01*
X1051Y549D02*
X1056Y549D01*
X1094Y549D02*
X1099Y549D01*
X1118Y549D02*
X1123Y549D01*
X1147Y549D02*
X1154Y549D01*
X1225Y549D02*
X1230Y549D01*
X1249Y549D02*
X1254Y549D01*
X1269Y549D02*
X1274Y549D01*
X1293Y549D02*
X1298Y549D01*
X1313Y549D02*
X1318Y549D01*
X1337Y549D02*
X1342Y549D01*
X1369Y549D02*
X1374Y549D01*
X1401Y549D02*
X1406Y549D01*
X1418Y549D02*
X1424Y549D01*
X1502Y549D02*
X1514Y549D01*
X1546Y549D02*
X1558Y549D01*
X1587Y549D02*
X1593Y549D01*
X1619Y549D02*
X1624Y549D01*
X1643Y549D02*
X1648Y549D01*
X493Y548D02*
X498Y548D01*
X525Y548D02*
X549Y548D01*
X571Y548D02*
X576Y548D01*
X590Y548D02*
X596Y548D01*
X612Y548D02*
X618Y548D01*
X636Y548D02*
X642Y548D01*
X679Y548D02*
X685Y548D01*
X700Y548D02*
X705Y548D01*
X724Y548D02*
X729Y548D01*
X744Y548D02*
X749Y548D01*
X768Y548D02*
X773Y548D01*
X793Y548D02*
X798Y548D01*
X806Y548D02*
X812Y548D01*
X892Y548D02*
X897Y548D01*
X919Y548D02*
X924Y548D01*
X943Y548D02*
X948Y548D01*
X1018Y548D02*
X1024Y548D01*
X1051Y548D02*
X1074Y548D01*
X1094Y548D02*
X1099Y548D01*
X1118Y548D02*
X1123Y548D01*
X1147Y548D02*
X1153Y548D01*
X1225Y548D02*
X1230Y548D01*
X1249Y548D02*
X1254Y548D01*
X1269Y548D02*
X1274Y548D01*
X1293Y548D02*
X1298Y548D01*
X1313Y548D02*
X1318Y548D01*
X1337Y548D02*
X1342Y548D01*
X1369Y548D02*
X1374Y548D01*
X1401Y548D02*
X1406Y548D01*
X1418Y548D02*
X1424Y548D01*
X1500Y548D02*
X1513Y548D01*
X1544Y548D02*
X1557Y548D01*
X1587Y548D02*
X1593Y548D01*
X1619Y548D02*
X1624Y548D01*
X1643Y548D02*
X1648Y548D01*
X493Y547D02*
X498Y547D01*
X525Y547D02*
X551Y547D01*
X571Y547D02*
X577Y547D01*
X590Y547D02*
X595Y547D01*
X612Y547D02*
X618Y547D01*
X636Y547D02*
X642Y547D01*
X680Y547D02*
X685Y547D01*
X700Y547D02*
X705Y547D01*
X724Y547D02*
X729Y547D01*
X744Y547D02*
X749Y547D01*
X768Y547D02*
X773Y547D01*
X792Y547D02*
X798Y547D01*
X807Y547D02*
X812Y547D01*
X892Y547D02*
X897Y547D01*
X919Y547D02*
X924Y547D01*
X943Y547D02*
X948Y547D01*
X1018Y547D02*
X1024Y547D01*
X1051Y547D02*
X1076Y547D01*
X1094Y547D02*
X1099Y547D01*
X1118Y547D02*
X1123Y547D01*
X1146Y547D02*
X1153Y547D01*
X1225Y547D02*
X1230Y547D01*
X1249Y547D02*
X1254Y547D01*
X1269Y547D02*
X1274Y547D01*
X1293Y547D02*
X1298Y547D01*
X1313Y547D02*
X1318Y547D01*
X1337Y547D02*
X1342Y547D01*
X1369Y547D02*
X1374Y547D01*
X1401Y547D02*
X1407Y547D01*
X1418Y547D02*
X1424Y547D01*
X1498Y547D02*
X1512Y547D01*
X1541Y547D02*
X1556Y547D01*
X1587Y547D02*
X1593Y547D01*
X1619Y547D02*
X1624Y547D01*
X1643Y547D02*
X1648Y547D01*
X493Y546D02*
X498Y546D01*
X525Y546D02*
X552Y546D01*
X572Y546D02*
X577Y546D01*
X589Y546D02*
X595Y546D01*
X612Y546D02*
X618Y546D01*
X636Y546D02*
X642Y546D01*
X680Y546D02*
X685Y546D01*
X700Y546D02*
X705Y546D01*
X724Y546D02*
X729Y546D01*
X744Y546D02*
X749Y546D01*
X768Y546D02*
X773Y546D01*
X792Y546D02*
X797Y546D01*
X807Y546D02*
X812Y546D01*
X892Y546D02*
X897Y546D01*
X919Y546D02*
X924Y546D01*
X943Y546D02*
X948Y546D01*
X1018Y546D02*
X1024Y546D01*
X1051Y546D02*
X1077Y546D01*
X1094Y546D02*
X1123Y546D01*
X1145Y546D02*
X1152Y546D01*
X1225Y546D02*
X1254Y546D01*
X1269Y546D02*
X1274Y546D01*
X1293Y546D02*
X1298Y546D01*
X1313Y546D02*
X1318Y546D01*
X1337Y546D02*
X1342Y546D01*
X1369Y546D02*
X1374Y546D01*
X1401Y546D02*
X1407Y546D01*
X1418Y546D02*
X1424Y546D01*
X1495Y546D02*
X1510Y546D01*
X1539Y546D02*
X1553Y546D01*
X1587Y546D02*
X1593Y546D01*
X1619Y546D02*
X1624Y546D01*
X1643Y546D02*
X1648Y546D01*
X493Y545D02*
X498Y545D01*
X525Y545D02*
X552Y545D01*
X572Y545D02*
X578Y545D01*
X589Y545D02*
X594Y545D01*
X612Y545D02*
X618Y545D01*
X636Y545D02*
X642Y545D01*
X680Y545D02*
X685Y545D01*
X700Y545D02*
X705Y545D01*
X724Y545D02*
X729Y545D01*
X744Y545D02*
X749Y545D01*
X768Y545D02*
X773Y545D01*
X792Y545D02*
X797Y545D01*
X807Y545D02*
X813Y545D01*
X892Y545D02*
X897Y545D01*
X919Y545D02*
X924Y545D01*
X943Y545D02*
X948Y545D01*
X1018Y545D02*
X1024Y545D01*
X1051Y545D02*
X1078Y545D01*
X1094Y545D02*
X1123Y545D01*
X1144Y545D02*
X1151Y545D01*
X1225Y545D02*
X1254Y545D01*
X1269Y545D02*
X1274Y545D01*
X1293Y545D02*
X1298Y545D01*
X1313Y545D02*
X1318Y545D01*
X1337Y545D02*
X1342Y545D01*
X1369Y545D02*
X1374Y545D01*
X1402Y545D02*
X1408Y545D01*
X1418Y545D02*
X1424Y545D01*
X1493Y545D02*
X1507Y545D01*
X1537Y545D02*
X1551Y545D01*
X1587Y545D02*
X1593Y545D01*
X1619Y545D02*
X1624Y545D01*
X1643Y545D02*
X1648Y545D01*
X493Y544D02*
X498Y544D01*
X525Y544D02*
X553Y544D01*
X573Y544D02*
X578Y544D01*
X588Y544D02*
X594Y544D01*
X612Y544D02*
X618Y544D01*
X636Y544D02*
X642Y544D01*
X680Y544D02*
X685Y544D01*
X700Y544D02*
X705Y544D01*
X724Y544D02*
X729Y544D01*
X744Y544D02*
X749Y544D01*
X768Y544D02*
X773Y544D01*
X791Y544D02*
X797Y544D01*
X807Y544D02*
X813Y544D01*
X892Y544D02*
X897Y544D01*
X919Y544D02*
X924Y544D01*
X943Y544D02*
X948Y544D01*
X1018Y544D02*
X1024Y544D01*
X1051Y544D02*
X1078Y544D01*
X1094Y544D02*
X1123Y544D01*
X1143Y544D02*
X1150Y544D01*
X1225Y544D02*
X1254Y544D01*
X1269Y544D02*
X1274Y544D01*
X1293Y544D02*
X1298Y544D01*
X1313Y544D02*
X1318Y544D01*
X1337Y544D02*
X1342Y544D01*
X1369Y544D02*
X1374Y544D01*
X1402Y544D02*
X1408Y544D01*
X1418Y544D02*
X1424Y544D01*
X1492Y544D02*
X1505Y544D01*
X1535Y544D02*
X1549Y544D01*
X1587Y544D02*
X1593Y544D01*
X1619Y544D02*
X1624Y544D01*
X1643Y544D02*
X1648Y544D01*
X493Y543D02*
X498Y543D01*
X525Y543D02*
X553Y543D01*
X573Y543D02*
X579Y543D01*
X588Y543D02*
X593Y543D01*
X612Y543D02*
X618Y543D01*
X636Y543D02*
X642Y543D01*
X680Y543D02*
X685Y543D01*
X700Y543D02*
X705Y543D01*
X724Y543D02*
X729Y543D01*
X744Y543D02*
X749Y543D01*
X768Y543D02*
X773Y543D01*
X791Y543D02*
X813Y543D01*
X892Y543D02*
X897Y543D01*
X919Y543D02*
X924Y543D01*
X943Y543D02*
X948Y543D01*
X1018Y543D02*
X1024Y543D01*
X1051Y543D02*
X1079Y543D01*
X1094Y543D02*
X1123Y543D01*
X1143Y543D02*
X1150Y543D01*
X1225Y543D02*
X1254Y543D01*
X1269Y543D02*
X1274Y543D01*
X1293Y543D02*
X1298Y543D01*
X1313Y543D02*
X1318Y543D01*
X1337Y543D02*
X1342Y543D01*
X1369Y543D02*
X1374Y543D01*
X1403Y543D02*
X1409Y543D01*
X1418Y543D02*
X1424Y543D01*
X1491Y543D02*
X1503Y543D01*
X1534Y543D02*
X1546Y543D01*
X1587Y543D02*
X1593Y543D01*
X1619Y543D02*
X1624Y543D01*
X1643Y543D02*
X1648Y543D01*
X493Y542D02*
X498Y542D01*
X525Y542D02*
X531Y542D01*
X548Y542D02*
X554Y542D01*
X573Y542D02*
X579Y542D01*
X587Y542D02*
X593Y542D01*
X612Y542D02*
X618Y542D01*
X636Y542D02*
X642Y542D01*
X680Y542D02*
X685Y542D01*
X700Y542D02*
X705Y542D01*
X724Y542D02*
X729Y542D01*
X744Y542D02*
X749Y542D01*
X768Y542D02*
X773Y542D01*
X791Y542D02*
X813Y542D01*
X892Y542D02*
X897Y542D01*
X919Y542D02*
X924Y542D01*
X943Y542D02*
X948Y542D01*
X1018Y542D02*
X1024Y542D01*
X1051Y542D02*
X1057Y542D01*
X1073Y542D02*
X1079Y542D01*
X1094Y542D02*
X1123Y542D01*
X1142Y542D02*
X1149Y542D01*
X1226Y542D02*
X1254Y542D01*
X1269Y542D02*
X1274Y542D01*
X1293Y542D02*
X1298Y542D01*
X1313Y542D02*
X1318Y542D01*
X1337Y542D02*
X1342Y542D01*
X1369Y542D02*
X1374Y542D01*
X1403Y542D02*
X1409Y542D01*
X1418Y542D02*
X1424Y542D01*
X1490Y542D02*
X1500Y542D01*
X1534Y542D02*
X1544Y542D01*
X1587Y542D02*
X1593Y542D01*
X1619Y542D02*
X1624Y542D01*
X1643Y542D02*
X1648Y542D01*
X493Y541D02*
X498Y541D01*
X525Y541D02*
X531Y541D01*
X549Y541D02*
X554Y541D01*
X574Y541D02*
X580Y541D01*
X587Y541D02*
X593Y541D01*
X612Y541D02*
X618Y541D01*
X636Y541D02*
X642Y541D01*
X680Y541D02*
X685Y541D01*
X700Y541D02*
X705Y541D01*
X724Y541D02*
X729Y541D01*
X744Y541D02*
X749Y541D01*
X768Y541D02*
X773Y541D01*
X790Y541D02*
X814Y541D01*
X892Y541D02*
X897Y541D01*
X919Y541D02*
X924Y541D01*
X943Y541D02*
X948Y541D01*
X1018Y541D02*
X1024Y541D01*
X1051Y541D02*
X1056Y541D01*
X1074Y541D02*
X1079Y541D01*
X1095Y541D02*
X1123Y541D01*
X1141Y541D02*
X1148Y541D01*
X1226Y541D02*
X1254Y541D01*
X1269Y541D02*
X1274Y541D01*
X1293Y541D02*
X1298Y541D01*
X1313Y541D02*
X1318Y541D01*
X1337Y541D02*
X1342Y541D01*
X1369Y541D02*
X1374Y541D01*
X1404Y541D02*
X1410Y541D01*
X1418Y541D02*
X1424Y541D01*
X1489Y541D02*
X1498Y541D01*
X1533Y541D02*
X1542Y541D01*
X1587Y541D02*
X1593Y541D01*
X1619Y541D02*
X1624Y541D01*
X1643Y541D02*
X1648Y541D01*
X493Y540D02*
X498Y540D01*
X525Y540D02*
X530Y540D01*
X549Y540D02*
X554Y540D01*
X574Y540D02*
X580Y540D01*
X586Y540D02*
X592Y540D01*
X612Y540D02*
X618Y540D01*
X636Y540D02*
X642Y540D01*
X680Y540D02*
X685Y540D01*
X700Y540D02*
X705Y540D01*
X724Y540D02*
X729Y540D01*
X744Y540D02*
X749Y540D01*
X768Y540D02*
X773Y540D01*
X790Y540D02*
X814Y540D01*
X892Y540D02*
X897Y540D01*
X919Y540D02*
X924Y540D01*
X943Y540D02*
X948Y540D01*
X1018Y540D02*
X1024Y540D01*
X1050Y540D02*
X1056Y540D01*
X1074Y540D02*
X1079Y540D01*
X1118Y540D02*
X1123Y540D01*
X1140Y540D02*
X1147Y540D01*
X1249Y540D02*
X1254Y540D01*
X1269Y540D02*
X1274Y540D01*
X1293Y540D02*
X1298Y540D01*
X1313Y540D02*
X1318Y540D01*
X1337Y540D02*
X1342Y540D01*
X1369Y540D02*
X1374Y540D01*
X1404Y540D02*
X1410Y540D01*
X1418Y540D02*
X1424Y540D01*
X1489Y540D02*
X1496Y540D01*
X1532Y540D02*
X1540Y540D01*
X1587Y540D02*
X1593Y540D01*
X1619Y540D02*
X1624Y540D01*
X1643Y540D02*
X1648Y540D01*
X493Y539D02*
X498Y539D01*
X525Y539D02*
X530Y539D01*
X549Y539D02*
X554Y539D01*
X575Y539D02*
X580Y539D01*
X586Y539D02*
X592Y539D01*
X612Y539D02*
X618Y539D01*
X636Y539D02*
X642Y539D01*
X680Y539D02*
X685Y539D01*
X700Y539D02*
X705Y539D01*
X723Y539D02*
X729Y539D01*
X744Y539D02*
X749Y539D01*
X767Y539D02*
X773Y539D01*
X790Y539D02*
X814Y539D01*
X892Y539D02*
X897Y539D01*
X919Y539D02*
X924Y539D01*
X943Y539D02*
X948Y539D01*
X1018Y539D02*
X1024Y539D01*
X1050Y539D02*
X1056Y539D01*
X1074Y539D02*
X1079Y539D01*
X1118Y539D02*
X1123Y539D01*
X1140Y539D02*
X1146Y539D01*
X1249Y539D02*
X1254Y539D01*
X1269Y539D02*
X1275Y539D01*
X1293Y539D02*
X1298Y539D01*
X1313Y539D02*
X1318Y539D01*
X1337Y539D02*
X1342Y539D01*
X1369Y539D02*
X1374Y539D01*
X1405Y539D02*
X1411Y539D01*
X1418Y539D02*
X1424Y539D01*
X1488Y539D02*
X1494Y539D01*
X1532Y539D02*
X1538Y539D01*
X1587Y539D02*
X1593Y539D01*
X1619Y539D02*
X1624Y539D01*
X1643Y539D02*
X1648Y539D01*
X493Y538D02*
X498Y538D01*
X525Y538D02*
X530Y538D01*
X549Y538D02*
X554Y538D01*
X575Y538D02*
X581Y538D01*
X586Y538D02*
X591Y538D01*
X612Y538D02*
X618Y538D01*
X636Y538D02*
X642Y538D01*
X680Y538D02*
X685Y538D01*
X700Y538D02*
X706Y538D01*
X723Y538D02*
X729Y538D01*
X744Y538D02*
X749Y538D01*
X766Y538D02*
X773Y538D01*
X790Y538D02*
X815Y538D01*
X892Y538D02*
X897Y538D01*
X919Y538D02*
X924Y538D01*
X943Y538D02*
X948Y538D01*
X1018Y538D02*
X1024Y538D01*
X1050Y538D02*
X1056Y538D01*
X1074Y538D02*
X1079Y538D01*
X1118Y538D02*
X1123Y538D01*
X1139Y538D02*
X1146Y538D01*
X1163Y538D02*
X1166Y538D01*
X1249Y538D02*
X1254Y538D01*
X1269Y538D02*
X1276Y538D01*
X1293Y538D02*
X1298Y538D01*
X1313Y538D02*
X1318Y538D01*
X1337Y538D02*
X1342Y538D01*
X1369Y538D02*
X1374Y538D01*
X1405Y538D02*
X1411Y538D01*
X1418Y538D02*
X1424Y538D01*
X1488Y538D02*
X1493Y538D01*
X1532Y538D02*
X1537Y538D01*
X1587Y538D02*
X1593Y538D01*
X1619Y538D02*
X1624Y538D01*
X1643Y538D02*
X1648Y538D01*
X493Y537D02*
X498Y537D01*
X525Y537D02*
X531Y537D01*
X549Y537D02*
X554Y537D01*
X576Y537D02*
X581Y537D01*
X585Y537D02*
X591Y537D01*
X612Y537D02*
X618Y537D01*
X636Y537D02*
X641Y537D01*
X680Y537D02*
X685Y537D01*
X700Y537D02*
X707Y537D01*
X722Y537D02*
X729Y537D01*
X744Y537D02*
X750Y537D01*
X765Y537D02*
X773Y537D01*
X789Y537D02*
X795Y537D01*
X810Y537D02*
X815Y537D01*
X892Y537D02*
X897Y537D01*
X919Y537D02*
X924Y537D01*
X942Y537D02*
X948Y537D01*
X1018Y537D02*
X1024Y537D01*
X1050Y537D02*
X1056Y537D01*
X1074Y537D02*
X1079Y537D01*
X1118Y537D02*
X1123Y537D01*
X1138Y537D02*
X1145Y537D01*
X1162Y537D02*
X1166Y537D01*
X1249Y537D02*
X1254Y537D01*
X1269Y537D02*
X1277Y537D01*
X1293Y537D02*
X1298Y537D01*
X1313Y537D02*
X1318Y537D01*
X1336Y537D02*
X1342Y537D01*
X1369Y537D02*
X1374Y537D01*
X1406Y537D02*
X1412Y537D01*
X1418Y537D02*
X1424Y537D01*
X1488Y537D02*
X1493Y537D01*
X1532Y537D02*
X1537Y537D01*
X1587Y537D02*
X1593Y537D01*
X1619Y537D02*
X1624Y537D01*
X1643Y537D02*
X1648Y537D01*
X493Y536D02*
X498Y536D01*
X525Y536D02*
X533Y536D01*
X549Y536D02*
X554Y536D01*
X576Y536D02*
X582Y536D01*
X585Y536D02*
X590Y536D01*
X613Y536D02*
X619Y536D01*
X635Y536D02*
X641Y536D01*
X680Y536D02*
X685Y536D01*
X701Y536D02*
X708Y536D01*
X721Y536D02*
X729Y536D01*
X745Y536D02*
X752Y536D01*
X764Y536D02*
X773Y536D01*
X789Y536D02*
X794Y536D01*
X810Y536D02*
X815Y536D01*
X892Y536D02*
X897Y536D01*
X919Y536D02*
X925Y536D01*
X942Y536D02*
X948Y536D01*
X1018Y536D02*
X1024Y536D01*
X1050Y536D02*
X1058Y536D01*
X1074Y536D02*
X1079Y536D01*
X1117Y536D02*
X1123Y536D01*
X1138Y536D02*
X1144Y536D01*
X1162Y536D02*
X1167Y536D01*
X1248Y536D02*
X1254Y536D01*
X1269Y536D02*
X1278Y536D01*
X1292Y536D02*
X1298Y536D01*
X1313Y536D02*
X1319Y536D01*
X1336Y536D02*
X1342Y536D01*
X1369Y536D02*
X1374Y536D01*
X1406Y536D02*
X1412Y536D01*
X1418Y536D02*
X1424Y536D01*
X1488Y536D02*
X1493Y536D01*
X1532Y536D02*
X1537Y536D01*
X1587Y536D02*
X1593Y536D01*
X1619Y536D02*
X1624Y536D01*
X1643Y536D02*
X1648Y536D01*
X493Y535D02*
X498Y535D01*
X525Y535D02*
X534Y535D01*
X548Y535D02*
X554Y535D01*
X577Y535D02*
X582Y535D01*
X584Y535D02*
X590Y535D01*
X613Y535D02*
X620Y535D01*
X634Y535D02*
X641Y535D01*
X680Y535D02*
X685Y535D01*
X701Y535D02*
X709Y535D01*
X720Y535D02*
X729Y535D01*
X745Y535D02*
X753Y535D01*
X763Y535D02*
X773Y535D01*
X789Y535D02*
X794Y535D01*
X810Y535D02*
X816Y535D01*
X892Y535D02*
X897Y535D01*
X920Y535D02*
X926Y535D01*
X941Y535D02*
X947Y535D01*
X1018Y535D02*
X1024Y535D01*
X1050Y535D02*
X1060Y535D01*
X1074Y535D02*
X1079Y535D01*
X1116Y535D02*
X1122Y535D01*
X1138Y535D02*
X1143Y535D01*
X1162Y535D02*
X1167Y535D01*
X1247Y535D02*
X1254Y535D01*
X1269Y535D02*
X1280Y535D01*
X1291Y535D02*
X1298Y535D01*
X1313Y535D02*
X1320Y535D01*
X1335Y535D02*
X1341Y535D01*
X1369Y535D02*
X1374Y535D01*
X1407Y535D02*
X1413Y535D01*
X1418Y535D02*
X1424Y535D01*
X1488Y535D02*
X1494Y535D01*
X1513Y535D02*
X1516Y535D01*
X1532Y535D02*
X1537Y535D01*
X1556Y535D02*
X1560Y535D01*
X1587Y535D02*
X1593Y535D01*
X1619Y535D02*
X1624Y535D01*
X1643Y535D02*
X1648Y535D01*
X493Y534D02*
X498Y534D01*
X525Y534D02*
X536Y534D01*
X547Y534D02*
X554Y534D01*
X577Y534D02*
X590Y534D01*
X614Y534D02*
X621Y534D01*
X633Y534D02*
X640Y534D01*
X680Y534D02*
X685Y534D01*
X702Y534D02*
X710Y534D01*
X719Y534D02*
X729Y534D01*
X746Y534D02*
X754Y534D01*
X762Y534D02*
X773Y534D01*
X788Y534D02*
X794Y534D01*
X810Y534D02*
X816Y534D01*
X892Y534D02*
X897Y534D01*
X920Y534D02*
X928Y534D01*
X939Y534D02*
X947Y534D01*
X1018Y534D02*
X1024Y534D01*
X1050Y534D02*
X1061Y534D01*
X1073Y534D02*
X1079Y534D01*
X1114Y534D02*
X1122Y534D01*
X1138Y534D02*
X1143Y534D01*
X1161Y534D02*
X1167Y534D01*
X1246Y534D02*
X1253Y534D01*
X1269Y534D02*
X1281Y534D01*
X1289Y534D02*
X1297Y534D01*
X1314Y534D02*
X1322Y534D01*
X1333Y534D02*
X1341Y534D01*
X1369Y534D02*
X1374Y534D01*
X1407Y534D02*
X1414Y534D01*
X1418Y534D02*
X1424Y534D01*
X1488Y534D02*
X1495Y534D01*
X1511Y534D02*
X1517Y534D01*
X1532Y534D02*
X1538Y534D01*
X1555Y534D02*
X1561Y534D01*
X1587Y534D02*
X1593Y534D01*
X1619Y534D02*
X1624Y534D01*
X1643Y534D02*
X1648Y534D01*
X486Y533D02*
X506Y533D01*
X525Y533D02*
X553Y533D01*
X577Y533D02*
X589Y533D01*
X614Y533D02*
X640Y533D01*
X680Y533D02*
X685Y533D01*
X703Y533D02*
X711Y533D01*
X718Y533D02*
X729Y533D01*
X747Y533D02*
X755Y533D01*
X761Y533D02*
X773Y533D01*
X788Y533D02*
X793Y533D01*
X811Y533D02*
X816Y533D01*
X892Y533D02*
X897Y533D01*
X921Y533D02*
X946Y533D01*
X1011Y533D02*
X1031Y533D01*
X1050Y533D02*
X1079Y533D01*
X1095Y533D02*
X1121Y533D01*
X1138Y533D02*
X1166Y533D01*
X1227Y533D02*
X1253Y533D01*
X1269Y533D02*
X1296Y533D01*
X1315Y533D02*
X1340Y533D01*
X1361Y533D02*
X1381Y533D01*
X1408Y533D02*
X1428Y533D01*
X1489Y533D02*
X1517Y533D01*
X1533Y533D02*
X1561Y533D01*
X1580Y533D02*
X1600Y533D01*
X1619Y533D02*
X1624Y533D01*
X1643Y533D02*
X1648Y533D01*
X485Y532D02*
X507Y532D01*
X525Y532D02*
X553Y532D01*
X578Y532D02*
X589Y532D01*
X615Y532D02*
X639Y532D01*
X680Y532D02*
X685Y532D01*
X704Y532D02*
X729Y532D01*
X748Y532D02*
X773Y532D01*
X788Y532D02*
X793Y532D01*
X811Y532D02*
X816Y532D01*
X892Y532D02*
X897Y532D01*
X922Y532D02*
X945Y532D01*
X1010Y532D02*
X1032Y532D01*
X1050Y532D02*
X1078Y532D01*
X1094Y532D02*
X1120Y532D01*
X1138Y532D02*
X1166Y532D01*
X1226Y532D02*
X1252Y532D01*
X1269Y532D02*
X1296Y532D01*
X1316Y532D02*
X1339Y532D01*
X1360Y532D02*
X1382Y532D01*
X1408Y532D02*
X1429Y532D01*
X1489Y532D02*
X1517Y532D01*
X1533Y532D02*
X1561Y532D01*
X1579Y532D02*
X1601Y532D01*
X1619Y532D02*
X1624Y532D01*
X1643Y532D02*
X1648Y532D01*
X484Y531D02*
X507Y531D01*
X525Y531D02*
X552Y531D01*
X578Y531D02*
X588Y531D01*
X616Y531D02*
X638Y531D01*
X680Y531D02*
X685Y531D01*
X705Y531D02*
X729Y531D01*
X749Y531D02*
X773Y531D01*
X788Y531D02*
X793Y531D01*
X811Y531D02*
X817Y531D01*
X892Y531D02*
X897Y531D01*
X923Y531D02*
X944Y531D01*
X1010Y531D02*
X1032Y531D01*
X1050Y531D02*
X1061Y531D01*
X1071Y531D02*
X1077Y531D01*
X1094Y531D02*
X1119Y531D01*
X1139Y531D02*
X1165Y531D01*
X1225Y531D02*
X1251Y531D01*
X1269Y531D02*
X1274Y531D01*
X1276Y531D02*
X1295Y531D01*
X1317Y531D02*
X1338Y531D01*
X1360Y531D02*
X1383Y531D01*
X1409Y531D02*
X1429Y531D01*
X1490Y531D02*
X1491Y531D01*
X1502Y531D02*
X1516Y531D01*
X1534Y531D02*
X1560Y531D01*
X1579Y531D02*
X1593Y531D01*
X1600Y531D02*
X1602Y531D01*
X1619Y531D02*
X1624Y531D01*
X1643Y531D02*
X1648Y531D01*
X484Y530D02*
X507Y530D01*
X525Y530D02*
X530Y530D01*
X532Y530D02*
X551Y530D01*
X579Y530D02*
X588Y530D01*
X617Y530D02*
X637Y530D01*
X680Y530D02*
X685Y530D01*
X706Y530D02*
X722Y530D01*
X724Y530D02*
X729Y530D01*
X750Y530D02*
X766Y530D01*
X768Y530D02*
X773Y530D01*
X788Y530D02*
X793Y530D01*
X812Y530D02*
X817Y530D01*
X892Y530D02*
X897Y530D01*
X924Y530D02*
X943Y530D01*
X1009Y530D02*
X1032Y530D01*
X1050Y530D02*
X1055Y530D01*
X1077Y530D02*
X1077Y530D01*
X1094Y530D02*
X1118Y530D01*
X1139Y530D02*
X1165Y530D01*
X1225Y530D02*
X1236Y530D01*
X1269Y530D02*
X1274Y530D01*
X1277Y530D02*
X1293Y530D01*
X1318Y530D02*
X1337Y530D01*
X1360Y530D02*
X1383Y530D01*
X1410Y530D02*
X1429Y530D01*
X1508Y530D02*
X1515Y530D01*
X1535Y530D02*
X1559Y530D01*
X1579Y530D02*
X1586Y530D01*
X1619Y530D02*
X1624Y530D01*
X1643Y530D02*
X1648Y530D01*
X485Y529D02*
X507Y529D01*
X525Y529D02*
X530Y529D01*
X533Y529D02*
X550Y529D01*
X579Y529D02*
X587Y529D01*
X619Y529D02*
X635Y529D01*
X681Y529D02*
X685Y529D01*
X708Y529D02*
X721Y529D01*
X724Y529D02*
X729Y529D01*
X751Y529D02*
X765Y529D01*
X768Y529D02*
X773Y529D01*
X788Y529D02*
X792Y529D01*
X812Y529D02*
X816Y529D01*
X892Y529D02*
X896Y529D01*
X925Y529D02*
X942Y529D01*
X1010Y529D02*
X1032Y529D01*
X1051Y529D02*
X1052Y529D01*
X1094Y529D02*
X1117Y529D01*
X1140Y529D02*
X1163Y529D01*
X1226Y529D02*
X1232Y529D01*
X1269Y529D02*
X1274Y529D01*
X1278Y529D02*
X1292Y529D01*
X1319Y529D02*
X1336Y529D01*
X1360Y529D02*
X1382Y529D01*
X1411Y529D02*
X1429Y529D01*
X1511Y529D02*
X1514Y529D01*
X1536Y529D02*
X1557Y529D01*
X1579Y529D02*
X1583Y529D01*
X1620Y529D02*
X1624Y529D01*
X1644Y529D02*
X1648Y529D01*
X485Y528D02*
X506Y528D01*
X526Y528D02*
X529Y528D01*
X535Y528D02*
X548Y528D01*
X580Y528D02*
X586Y528D01*
X621Y528D02*
X633Y528D01*
X682Y528D02*
X684Y528D01*
X709Y528D02*
X720Y528D01*
X724Y528D02*
X729Y528D01*
X753Y528D02*
X764Y528D01*
X768Y528D02*
X773Y528D01*
X789Y528D02*
X791Y528D01*
X813Y528D02*
X815Y528D01*
X893Y528D02*
X895Y528D01*
X927Y528D02*
X940Y528D01*
X1011Y528D02*
X1031Y528D01*
X1095Y528D02*
X1115Y528D01*
X1142Y528D02*
X1162Y528D01*
X1227Y528D02*
X1229Y528D01*
X1270Y528D02*
X1273Y528D01*
X1280Y528D02*
X1290Y528D01*
X1321Y528D02*
X1334Y528D01*
X1361Y528D02*
X1381Y528D01*
X1413Y528D02*
X1428Y528D01*
X1538Y528D02*
X1555Y528D01*
X1580Y528D02*
X1580Y528D01*
X1621Y528D02*
X1623Y528D01*
X1645Y528D02*
X1647Y528D01*
X710Y527D02*
X718Y527D01*
X724Y527D02*
X729Y527D01*
X754Y527D02*
X762Y527D01*
X768Y527D02*
X773Y527D01*
X724Y526D02*
X729Y526D01*
X768Y526D02*
X773Y526D01*
X724Y525D02*
X729Y525D01*
X768Y525D02*
X773Y525D01*
X724Y524D02*
X729Y524D01*
X768Y524D02*
X773Y524D01*
X724Y523D02*
X729Y523D01*
X768Y523D02*
X773Y523D01*
X724Y522D02*
X729Y522D01*
X768Y522D02*
X773Y522D01*
X724Y521D02*
X729Y521D01*
X768Y521D02*
X773Y521D01*
X724Y520D02*
X729Y520D01*
X768Y520D02*
X773Y520D01*
X724Y519D02*
X729Y519D01*
X768Y519D02*
X773Y519D01*
X724Y518D02*
X729Y518D01*
X768Y518D02*
X773Y518D01*
X724Y517D02*
X729Y517D01*
X768Y517D02*
X773Y517D01*
X725Y516D02*
X729Y516D01*
X768Y516D02*
X772Y516D01*
X726Y515D02*
X728Y515D01*
X769Y515D02*
X771Y515D01*
D02*
G04 End of Silk0*
M02*