; NON-PLATED HOLES START AT T1
; THROUGH (PLATED) HOLES START AT T100
M48
INCH
T1C0.086614
T100C0.035433
T101C0.088356
T102C0.044111
T103C0.038000
T104C0.086614
T105C0.044139
T106C0.031497
T107C0.035000
T108C0.042000
T109C0.040000
%
T1
X000774Y011036
X026784Y011036
X026784Y000779
X000774Y000779
T100
X006101Y002866
X007676Y002866
T101
X007045Y007820
X003162Y007820
T102
X005103Y004867
X004103Y004867
T103
X025066Y003608
X025066Y004608
X025066Y002608
T104
X007034Y007821
X003154Y007813
T105
X006103Y004867
T106
X003619Y002236
X003619Y003221
T107
X015973Y008882
X018175Y004879
X009671Y004878
X015978Y002880
X009671Y008878
X015973Y004882
X010670Y004883
X019596Y007870
X017078Y002882
X012456Y003879
X012142Y007877
X018175Y008879
X010670Y008883
X013978Y002880
X022596Y008870
X014977Y004884
X019596Y008870
X022596Y007870
X012142Y008877
X019596Y003870
X018078Y002882
X012456Y004879
X014978Y002880
X022596Y003870
X012142Y006877
X013975Y008878
X012456Y002879
X013975Y004878
X014977Y008884
T108
X017080Y008882
X017080Y005902
T109
X025081Y007491
X025081Y008869
T00
M30
