G04 MADE WITH FRITZING*
G04 WWW.FRITZING.ORG*
G04 DOUBLE SIDED*
G04 HOLES PLATED*
G04 CONTOUR ON CENTER OF CONTOUR VECTOR*
%ASAXBY*%
%FSLAX23Y23*%
%MOIN*%
%OFA0B0*%
%SFA1.0B1.0*%
%ADD10C,0.075000*%
%ADD11C,0.074000*%
%ADD12C,0.082000*%
%ADD13C,0.080000*%
%ADD14C,0.071889*%
%ADD15C,0.071917*%
%ADD16C,0.124033*%
%ADD17C,0.078000*%
%ADD18C,0.062992*%
%ADD19C,0.125984*%
%ADD20R,0.075000X0.075000*%
%ADD21R,0.082000X0.082000*%
%ADD22R,0.080000X0.080000*%
%ADD23R,0.078000X0.078000*%
%ADD24R,0.062992X0.062992*%
%ADD25C,0.024000*%
%LNCOPPER0*%
G90*
G70*
G54D10*
X1818Y488D03*
X1818Y888D03*
X1960Y887D03*
X1960Y787D03*
X1960Y387D03*
X2260Y387D03*
X2260Y787D03*
X2260Y887D03*
X1597Y488D03*
X1597Y888D03*
G54D11*
X610Y287D03*
X768Y287D03*
G54D10*
X1498Y488D03*
X1498Y888D03*
X1398Y488D03*
X1398Y888D03*
X1067Y888D03*
X1067Y488D03*
X967Y488D03*
X967Y888D03*
G54D12*
X1708Y590D03*
X1708Y888D03*
G54D13*
X2508Y887D03*
X2508Y749D03*
G54D10*
X1214Y688D03*
X1214Y788D03*
X1214Y888D03*
X1246Y488D03*
X1246Y388D03*
X1246Y288D03*
X1598Y288D03*
X1498Y288D03*
X1398Y288D03*
X1708Y288D03*
X1808Y288D03*
G54D14*
X410Y487D03*
X510Y487D03*
G54D15*
X610Y487D03*
G54D16*
X316Y782D03*
X705Y782D03*
G54D17*
X2507Y461D03*
X2507Y361D03*
X2507Y261D03*
G54D18*
X362Y224D03*
X362Y322D03*
G54D19*
X315Y781D03*
X703Y782D03*
G54D20*
X1960Y887D03*
G54D21*
X1708Y589D03*
G54D22*
X2508Y887D03*
G54D20*
X1708Y288D03*
G54D23*
X2507Y461D03*
G54D24*
X362Y224D03*
G54D25*
X1988Y387D02*
X2231Y387D01*
G04 End of Copper0*
M02*