G04 MADE WITH FRITZING*
G04 WWW.FRITZING.ORG*
G04 DOUBLE SIDED*
G04 HOLES PLATED*
G04 CONTOUR ON CENTER OF CONTOUR VECTOR*
%ASAXBY*%
%FSLAX23Y23*%
%MOIN*%
%OFA0B0*%
%SFA1.0B1.0*%
%ADD10C,0.085000*%
%ADD11C,0.085118*%
%ADD12C,0.084803*%
%ADD13C,0.135984*%
%ADD14C,0.092000*%
%ADD15C,0.090000*%
%ADD16C,0.080000*%
%ADD17C,0.081889*%
%ADD18C,0.081917*%
%ADD19C,0.134033*%
%ADD20C,0.088000*%
%ADD21C,0.084000*%
%ADD22C,0.072992*%
%ADD23C,0.049370*%
%ADD24C,0.096614*%
%ADD25R,0.092000X0.092000*%
%ADD26R,0.090000X0.090000*%
%ADD27R,0.085000X0.085000*%
%ADD28R,0.088000X0.088000*%
%ADD29R,0.084000X0.084000*%
%ADD30R,0.072992X0.072992*%
%LNMASK0*%
G90*
G70*
G54D10*
X630Y1615D03*
X630Y1215D03*
X530Y1215D03*
X530Y1615D03*
X863Y1861D03*
X863Y1461D03*
X862Y963D03*
X862Y1363D03*
G54D11*
X2251Y1554D03*
X1830Y1554D03*
X1830Y1180D03*
X2251Y1180D03*
G54D12*
X1830Y1368D03*
G54D13*
X2043Y1721D03*
G54D10*
X260Y1215D03*
X260Y1615D03*
G54D13*
X2043Y1016D03*
G54D10*
X360Y963D03*
X760Y963D03*
X359Y1215D03*
X359Y1615D03*
X730Y1214D03*
X730Y1614D03*
X962Y1615D03*
X962Y1215D03*
G54D14*
X151Y1215D03*
X151Y917D03*
G54D10*
X1566Y1103D03*
X1566Y1503D03*
G54D14*
X151Y1317D03*
X151Y1615D03*
X1263Y1462D03*
X1263Y1760D03*
G54D15*
X2508Y862D03*
X2508Y724D03*
G54D10*
X1840Y796D03*
X2140Y796D03*
X1840Y696D03*
X2140Y696D03*
X1840Y596D03*
X2140Y596D03*
X1840Y496D03*
X2140Y496D03*
X1840Y396D03*
X2140Y396D03*
X1840Y296D03*
X2140Y296D03*
X1840Y196D03*
X2140Y196D03*
X1300Y896D03*
X1600Y896D03*
X1300Y796D03*
X1600Y796D03*
X1300Y696D03*
X1600Y696D03*
X1300Y596D03*
X1600Y596D03*
X1300Y496D03*
X1600Y496D03*
X1300Y396D03*
X1600Y396D03*
X1300Y296D03*
X1600Y296D03*
X1300Y196D03*
X1600Y196D03*
X1404Y1180D03*
X1404Y1280D03*
X1404Y1380D03*
X1404Y1515D03*
X1404Y1615D03*
X1404Y1715D03*
X1121Y1615D03*
X1121Y1515D03*
X1121Y1415D03*
X1121Y1315D03*
X1121Y1215D03*
X1121Y1115D03*
G54D16*
X1665Y1554D03*
X1665Y1654D03*
X1665Y1281D03*
X1665Y1181D03*
G54D10*
X685Y1861D03*
X685Y1761D03*
X205Y1861D03*
X205Y1761D03*
X1037Y1861D03*
X1037Y1761D03*
X445Y1861D03*
X445Y1761D03*
G54D17*
X260Y209D03*
X360Y209D03*
G54D18*
X460Y209D03*
G54D19*
X166Y504D03*
X554Y504D03*
G54D20*
X2507Y466D03*
X2507Y366D03*
X2507Y266D03*
G54D21*
X1587Y2353D03*
X1587Y2253D03*
X1587Y2153D03*
X1587Y2053D03*
X1587Y1954D03*
X1888Y1954D03*
X1888Y2053D03*
X1888Y2153D03*
X1888Y2253D03*
X1888Y2353D03*
X1587Y2353D03*
X1587Y2253D03*
X1587Y2153D03*
X1587Y2053D03*
X1587Y1954D03*
X1888Y1954D03*
X1888Y2053D03*
X1888Y2153D03*
X1888Y2253D03*
X1888Y2353D03*
G54D10*
X1037Y2353D03*
X1437Y2353D03*
X1036Y2252D03*
X1436Y2252D03*
X1037Y2053D03*
X1437Y2053D03*
X2039Y1955D03*
X2439Y1955D03*
X2039Y2053D03*
X2439Y2053D03*
X2039Y2252D03*
X2439Y2252D03*
X2039Y2353D03*
X2439Y2353D03*
G54D22*
X482Y2208D03*
X482Y2306D03*
G54D10*
X833Y196D03*
X833Y452D03*
X1010Y196D03*
X1010Y452D03*
G54D15*
X2508Y1712D03*
X2508Y1575D03*
G54D20*
X2507Y1316D03*
X2507Y1216D03*
X2507Y1116D03*
G54D13*
X166Y503D03*
X556Y503D03*
G54D23*
X444Y1294D03*
G54D24*
X2678Y78D03*
X78Y78D03*
X2678Y2678D03*
X78Y2678D03*
G54D25*
X151Y1216D03*
X151Y1316D03*
X1263Y1461D03*
G54D26*
X2508Y862D03*
G54D27*
X1840Y796D03*
X1300Y896D03*
X685Y1861D03*
X205Y1861D03*
X1037Y1861D03*
X445Y1861D03*
G54D28*
X2507Y466D03*
G54D29*
X1588Y2352D03*
G54D30*
X482Y2208D03*
G54D26*
X2508Y1712D03*
G54D28*
X2507Y1316D03*
G04 End of Mask0*
M02*