G04 MADE WITH FRITZING*
G04 WWW.FRITZING.ORG*
G04 DOUBLE SIDED*
G04 HOLES PLATED*
G04 CONTOUR ON CENTER OF CONTOUR VECTOR*
%ASAXBY*%
%FSLAX23Y23*%
%MOIN*%
%OFA0B0*%
%SFA1.0B1.0*%
%ADD10C,0.075000*%
%ADD11C,0.075118*%
%ADD12C,0.074803*%
%ADD13C,0.082000*%
%ADD14C,0.080000*%
%ADD15C,0.070000*%
%ADD16C,0.071889*%
%ADD17C,0.071917*%
%ADD18C,0.124033*%
%ADD19C,0.078000*%
%ADD20C,0.074000*%
%ADD21C,0.062992*%
%ADD22C,0.125984*%
%ADD23C,0.039370*%
%ADD24R,0.082000X0.082000*%
%ADD25R,0.080000X0.080000*%
%ADD26R,0.075000X0.075000*%
%ADD27R,0.078000X0.078000*%
%ADD28R,0.074000X0.074000*%
%ADD29R,0.062992X0.062992*%
%ADD30C,0.024000*%
%LNCOPPER1*%
G90*
G70*
G54D10*
X630Y1615D03*
X630Y1215D03*
X530Y1215D03*
X530Y1615D03*
X863Y1861D03*
X863Y1461D03*
X862Y963D03*
X862Y1363D03*
G54D11*
X2251Y1554D03*
X1830Y1554D03*
X1830Y1180D03*
X2251Y1180D03*
X2251Y1554D03*
X1830Y1554D03*
X1830Y1180D03*
X2251Y1180D03*
G54D12*
X1830Y1368D03*
G54D10*
X260Y1215D03*
X260Y1615D03*
X360Y963D03*
X760Y963D03*
X359Y1215D03*
X359Y1615D03*
X730Y1214D03*
X730Y1614D03*
X962Y1615D03*
X962Y1215D03*
G54D13*
X151Y1215D03*
X151Y917D03*
G54D10*
X1566Y1103D03*
X1566Y1503D03*
G54D13*
X151Y1317D03*
X151Y1615D03*
X1263Y1462D03*
X1263Y1760D03*
G54D14*
X2508Y862D03*
X2508Y724D03*
G54D10*
X1840Y796D03*
X2140Y796D03*
X1840Y696D03*
X2140Y696D03*
X1840Y596D03*
X2140Y596D03*
X1840Y496D03*
X2140Y496D03*
X1840Y396D03*
X2140Y396D03*
X1840Y296D03*
X2140Y296D03*
X1840Y196D03*
X2140Y196D03*
X1300Y896D03*
X1600Y896D03*
X1300Y796D03*
X1600Y796D03*
X1300Y696D03*
X1600Y696D03*
X1300Y596D03*
X1600Y596D03*
X1300Y496D03*
X1600Y496D03*
X1300Y396D03*
X1600Y396D03*
X1300Y296D03*
X1600Y296D03*
X1300Y196D03*
X1600Y196D03*
X1404Y1180D03*
X1404Y1280D03*
X1404Y1380D03*
X1404Y1515D03*
X1404Y1615D03*
X1404Y1715D03*
X1121Y1615D03*
X1121Y1515D03*
X1121Y1415D03*
X1121Y1315D03*
X1121Y1215D03*
X1121Y1115D03*
G54D15*
X1665Y1554D03*
X1665Y1654D03*
X1665Y1281D03*
X1665Y1181D03*
G54D10*
X685Y1861D03*
X685Y1761D03*
X205Y1861D03*
X205Y1761D03*
X1037Y1861D03*
X1037Y1761D03*
X445Y1861D03*
X445Y1761D03*
G54D16*
X260Y209D03*
X360Y209D03*
G54D17*
X460Y209D03*
G54D18*
X166Y504D03*
X554Y504D03*
G54D19*
X2507Y466D03*
X2507Y366D03*
X2507Y266D03*
G54D20*
X1587Y2353D03*
X1587Y2253D03*
X1587Y2153D03*
X1587Y2053D03*
X1587Y1954D03*
X1888Y1954D03*
X1888Y2053D03*
X1888Y2153D03*
X1888Y2253D03*
X1888Y2353D03*
G54D10*
X1037Y2353D03*
X1437Y2353D03*
X1036Y2252D03*
X1436Y2252D03*
X1037Y2053D03*
X1437Y2053D03*
X2039Y1955D03*
X2439Y1955D03*
X2039Y2053D03*
X2439Y2053D03*
X2039Y2252D03*
X2439Y2252D03*
X2039Y2353D03*
X2439Y2353D03*
G54D21*
X482Y2208D03*
X482Y2306D03*
G54D10*
X833Y196D03*
X833Y452D03*
X1010Y196D03*
X1010Y452D03*
G54D14*
X2508Y1712D03*
X2508Y1575D03*
G54D19*
X2507Y1316D03*
X2507Y1216D03*
X2507Y1116D03*
G54D22*
X166Y503D03*
X556Y503D03*
G54D23*
X444Y1294D03*
G54D24*
X151Y1216D03*
X151Y1316D03*
X1263Y1461D03*
G54D25*
X2508Y862D03*
G54D26*
X1840Y796D03*
X1300Y896D03*
X685Y1861D03*
X205Y1861D03*
X1037Y1861D03*
X445Y1861D03*
G54D27*
X2507Y466D03*
G54D28*
X1588Y2352D03*
G54D29*
X482Y2208D03*
G54D25*
X2508Y1712D03*
G54D27*
X2507Y1316D03*
G54D30*
X1651Y1866D02*
X1967Y1866D01*
D02*
X1967Y1866D02*
X2021Y1932D01*
D02*
X1606Y1929D02*
X1651Y1866D01*
D02*
X2010Y2353D02*
X1919Y2353D01*
D02*
X2010Y2252D02*
X1919Y2253D01*
D02*
X1919Y2053D02*
X2010Y2053D01*
D02*
X1857Y2153D02*
X1618Y2153D01*
D02*
X1465Y2353D02*
X1556Y2353D01*
D02*
X1556Y2253D02*
X1465Y2252D01*
D02*
X1465Y2053D02*
X1556Y2053D01*
D02*
X1008Y1861D02*
X891Y1861D01*
D02*
X714Y1861D02*
X834Y1861D01*
D02*
X651Y1634D02*
X863Y1821D01*
D02*
X863Y1821D02*
X863Y1833D01*
D02*
X1269Y1861D02*
X1385Y1736D01*
D02*
X1065Y1861D02*
X1269Y1861D01*
D02*
X1477Y1448D02*
X1425Y1399D01*
D02*
X1433Y1715D02*
X1477Y1715D01*
D02*
X1477Y1715D02*
X1477Y1448D01*
D02*
X234Y1861D02*
X416Y1861D01*
D02*
X1754Y762D02*
X1754Y924D01*
D02*
X1754Y924D02*
X1653Y1025D01*
D02*
X1010Y878D02*
X1010Y480D01*
D02*
X1151Y1025D02*
X1010Y878D01*
D02*
X1653Y1025D02*
X1151Y1025D01*
D02*
X1817Y713D02*
X1754Y762D01*
D02*
X260Y242D02*
X260Y1186D01*
D02*
X231Y1615D02*
X183Y1615D01*
D02*
X288Y1615D02*
X331Y1615D01*
D02*
X260Y1644D02*
X260Y1702D01*
D02*
X260Y1702D02*
X225Y1740D01*
D02*
X760Y775D02*
X833Y688D01*
D02*
X833Y688D02*
X833Y480D01*
D02*
X760Y934D02*
X760Y775D01*
D02*
X833Y224D02*
X833Y423D01*
D02*
X1010Y224D02*
X1010Y423D01*
D02*
X1093Y1215D02*
X991Y1215D01*
D02*
X1645Y1637D02*
X1566Y1572D01*
D02*
X1566Y1572D02*
X1566Y1532D01*
D02*
X1425Y1299D02*
X1566Y1434D01*
D02*
X1566Y1434D02*
X1566Y1475D01*
D02*
X1065Y1760D02*
X1231Y1760D01*
D02*
X759Y1614D02*
X934Y1615D01*
D02*
X1024Y1735D02*
X975Y1640D01*
D02*
X1691Y1554D02*
X1791Y1554D01*
D02*
X1665Y1528D02*
X1665Y1307D01*
D02*
X1873Y1103D02*
X1921Y1151D01*
D02*
X1921Y1151D02*
X1921Y1280D01*
D02*
X1921Y1280D02*
X1858Y1341D01*
D02*
X1594Y1103D02*
X1873Y1103D01*
D02*
X1190Y1315D02*
X1150Y1315D01*
D02*
X1537Y1103D02*
X1335Y1103D01*
D02*
X1335Y1103D02*
X1190Y1315D01*
D02*
X1691Y1180D02*
X1791Y1180D01*
D02*
X1433Y1180D02*
X1639Y1180D01*
D02*
X2343Y1554D02*
X2290Y1554D01*
D02*
X2422Y1712D02*
X2343Y1554D01*
D02*
X2477Y1712D02*
X2422Y1712D01*
D02*
X2343Y1180D02*
X2290Y1180D01*
D02*
X2422Y1216D02*
X2343Y1180D01*
D02*
X2477Y1216D02*
X2422Y1216D01*
D02*
X2507Y496D02*
X2508Y693D01*
D02*
X151Y1284D02*
X151Y1247D01*
D02*
X1687Y719D02*
X1817Y614D01*
D02*
X1133Y202D02*
X1133Y908D01*
D02*
X1626Y982D02*
X1687Y923D01*
D02*
X1207Y982D02*
X1626Y982D01*
D02*
X1133Y908D02*
X1207Y982D01*
D02*
X1018Y89D02*
X1133Y202D01*
D02*
X1687Y923D02*
X1687Y719D01*
D02*
X151Y1065D02*
X64Y978D01*
D02*
X64Y267D02*
X219Y89D01*
D02*
X64Y978D02*
X64Y267D01*
D02*
X219Y89D02*
X1018Y89D01*
D02*
X151Y1183D02*
X151Y1065D01*
D02*
X933Y1515D02*
X1092Y1515D01*
D02*
X886Y1479D02*
X933Y1515D01*
D02*
X862Y1391D02*
X863Y1433D01*
D02*
X1148Y1505D02*
X1233Y1473D01*
D02*
X1293Y1473D02*
X1377Y1505D01*
D02*
X1375Y1615D02*
X1149Y1615D01*
D02*
X444Y1313D02*
X445Y1732D01*
D02*
X1098Y1398D02*
X963Y1294D01*
D02*
X963Y1294D02*
X463Y1294D01*
D02*
X1863Y512D02*
X2116Y680D01*
D02*
X1818Y514D02*
X1622Y677D01*
D02*
X1819Y108D02*
X1978Y108D01*
D02*
X1978Y108D02*
X2067Y197D01*
D02*
X2067Y197D02*
X2067Y545D01*
D02*
X2067Y545D02*
X2116Y579D01*
D02*
X1622Y277D02*
X1819Y108D01*
D02*
X2140Y367D02*
X2140Y324D01*
D02*
X2140Y424D02*
X2140Y467D01*
D02*
X1036Y2224D02*
X1037Y2081D01*
D02*
X1328Y196D02*
X1571Y196D01*
D02*
X1300Y224D02*
X1300Y267D01*
D02*
X1324Y312D02*
X1576Y480D01*
D02*
X1571Y496D02*
X1328Y496D01*
D02*
X1300Y524D02*
X1300Y567D01*
D02*
X1300Y624D02*
X1300Y667D01*
D02*
X1300Y724D02*
X1300Y767D01*
D02*
X1327Y805D02*
X1573Y887D01*
D02*
X360Y991D02*
X360Y1186D01*
D02*
X680Y1146D02*
X713Y1191D01*
D02*
X580Y1146D02*
X680Y1146D01*
D02*
X547Y1192D02*
X580Y1146D01*
D02*
X862Y1115D02*
X1093Y1115D01*
D02*
X862Y991D02*
X862Y1115D01*
D02*
X388Y1215D02*
X501Y1215D01*
D02*
X862Y1116D02*
X753Y1197D01*
D02*
X862Y991D02*
X862Y1116D01*
D02*
X2613Y426D02*
X2533Y381D01*
D02*
X2613Y2066D02*
X2613Y426D01*
D02*
X2512Y2153D02*
X2613Y2066D01*
D02*
X1919Y2153D02*
X2512Y2153D01*
D02*
X2508Y1544D02*
X2507Y1346D01*
D02*
X473Y1861D02*
X657Y1861D01*
D02*
X2227Y145D02*
X2143Y56D01*
D02*
X1758Y56D02*
X1621Y177D01*
D02*
X2227Y366D02*
X2227Y145D01*
D02*
X2143Y56D02*
X1758Y56D01*
D02*
X2477Y366D02*
X2227Y366D01*
D02*
X2273Y862D02*
X2477Y862D01*
D02*
X1881Y1715D02*
X2273Y862D01*
D02*
X1433Y1715D02*
X1881Y1715D01*
D02*
X1628Y396D02*
X1811Y396D01*
D02*
X2227Y366D02*
X2477Y366D01*
D02*
X2160Y776D02*
X2227Y711D01*
D02*
X2227Y711D02*
X2227Y366D01*
G04 End of Copper1*
M02*