; NON-PLATED HOLES START AT T1
; THROUGH (PLATED) HOLES START AT T100
M48
INCH
T1C0.086614
T2C0.125984
T100C0.088356
T101C0.031497
T102C0.042000
T103C0.038000
T104C0.015748
T105C0.035000
T106C0.044139
T107C0.086614
T108C0.044111
T109C0.055118
T110C0.030000
T111C0.040000
%
T1
X000777Y026781
X026777Y026781
X026777Y000781
X000777Y000781
T2
X020426Y017208
X020425Y010157
T100
X005544Y005043
X001661Y005043
T101
X004819Y022080
X004819Y023064
T102
X012628Y017597
X001510Y012149
X001513Y016145
X012628Y014617
X001510Y009169
X001513Y013165
T103
X025072Y013161
X025069Y004657
X025069Y002657
X025072Y011161
X025072Y012161
X025069Y003657
T104
X004441Y012936
T105
X021396Y001956
X008331Y004517
X012998Y003956
X004445Y017605
X006851Y017606
X002598Y012149
X010365Y023525
X018396Y005956
X015656Y015032
X007300Y016144
X018396Y007956
X004445Y018605
X014040Y015147
X008628Y014612
X003594Y016149
X018396Y003956
X011212Y012150
X010103Y001958
X008619Y013626
X002052Y017613
X011212Y013150
X012998Y008956
X014040Y016147
X020389Y023526
X012998Y001956
X021396Y002956
X005296Y016146
X015998Y006956
X011212Y011150
X006295Y016151
X009621Y016147
X010368Y017605
X009621Y012147
X005296Y012146
X024389Y020527
X015998Y003956
X012998Y002956
X010363Y022521
X012998Y004956
X012998Y007956
X020386Y022520
X015998Y007956
X014042Y012796
X003594Y012149
X014367Y020527
X011207Y014149
X018396Y002956
X007300Y012144
X015998Y004956
X008628Y018612
X010367Y020527
X015998Y002956
X018396Y001956
X020386Y019545
X007596Y009627
X024389Y023526
X010368Y018605
X015656Y011032
X008331Y001958
X021396Y003956
X015998Y001956
X014365Y023525
X014040Y017147
X021396Y005956
X021396Y006956
X020389Y020527
X015998Y008956
X002598Y016149
X012998Y006956
X014042Y013796
X006851Y018606
X021396Y004956
X014363Y022521
X008619Y009626
X011207Y015149
X003596Y009627
X014042Y011796
X018396Y006956
X002052Y018613
X024386Y019545
X024386Y022520
X012998Y005956
X006295Y012151
X018396Y004956
X021396Y007956
X011207Y016149
X015998Y005956
X010103Y004517
T106
X004603Y002090
T107
X005555Y005025
X001656Y005025
T108
X003603Y002090
X002603Y002090
T109
X018299Y011801
X018301Y013680
X022512Y015541
X022512Y011801
X018299Y015541
T110
X016651Y015538
X016650Y012807
X016651Y016540
X016650Y011805
T111
X018877Y019540
X015871Y021530
X018877Y022529
X018877Y020529
X015871Y020530
X015871Y022530
X025078Y007244
X018881Y023532
X025078Y008621
X015871Y023530
X018877Y021528
X015872Y019541
X025077Y017124
X025077Y015746
T00
M30
