G04 MADE WITH FRITZING*
G04 WWW.FRITZING.ORG*
G04 DOUBLE SIDED*
G04 HOLES PLATED*
G04 CONTOUR ON CENTER OF CONTOUR VECTOR*
%ASAXBY*%
%FSLAX23Y23*%
%MOIN*%
%OFA0B0*%
%SFA1.0B1.0*%
%ADD10R,2.755910X2.755910X2.739910X2.739910*%
%ADD11C,0.008000*%
%ADD12R,0.001000X0.001000*%
%LNSILK0*%
G90*
G70*
G54D11*
X4Y2752D02*
X2752Y2752D01*
X2752Y4D01*
X4Y4D01*
X4Y2752D01*
D02*
G36*
X2039Y2687D02*
X2039Y2680D01*
X2040Y2680D01*
X2040Y2672D01*
X2042Y2672D01*
X2042Y2664D01*
X2044Y2664D01*
X2044Y2656D01*
X2039Y2656D01*
X2039Y2659D01*
X2037Y2659D01*
X2037Y2662D01*
X2035Y2662D01*
X2035Y2675D01*
X2034Y2675D01*
X2034Y2687D01*
X2039Y2687D01*
G37*
D02*
G36*
X1994Y2680D02*
X1994Y2677D01*
X1996Y2677D01*
X1996Y2674D01*
X1998Y2674D01*
X1998Y2670D01*
X1999Y2670D01*
X1999Y2665D01*
X2001Y2665D01*
X2001Y2661D01*
X2003Y2661D01*
X2003Y2657D01*
X2004Y2657D01*
X2004Y2654D01*
X2006Y2654D01*
X2006Y2649D01*
X2008Y2649D01*
X2008Y2646D01*
X2006Y2646D01*
X2006Y2644D01*
X2003Y2644D01*
X2003Y2646D01*
X2001Y2646D01*
X2001Y2651D01*
X1999Y2651D01*
X1999Y2654D01*
X1998Y2654D01*
X1998Y2657D01*
X1996Y2657D01*
X1996Y2661D01*
X1994Y2661D01*
X1994Y2665D01*
X1993Y2665D01*
X1993Y2672D01*
X1991Y2672D01*
X1991Y2675D01*
X1990Y2675D01*
X1990Y2680D01*
X1994Y2680D01*
G37*
D02*
G36*
X1942Y2652D02*
X1942Y2651D01*
X1944Y2651D01*
X1944Y2649D01*
X1945Y2649D01*
X1945Y2646D01*
X1947Y2646D01*
X1947Y2644D01*
X1949Y2644D01*
X1949Y2642D01*
X1953Y2642D01*
X1953Y2641D01*
X1955Y2641D01*
X1955Y2639D01*
X1957Y2639D01*
X1957Y2638D01*
X1960Y2638D01*
X1960Y2636D01*
X1963Y2636D01*
X1963Y2634D01*
X1965Y2634D01*
X1965Y2633D01*
X1968Y2633D01*
X1968Y2631D01*
X1972Y2631D01*
X1972Y2629D01*
X1973Y2629D01*
X1973Y2626D01*
X1968Y2626D01*
X1968Y2628D01*
X1965Y2628D01*
X1965Y2629D01*
X1962Y2629D01*
X1962Y2631D01*
X1960Y2631D01*
X1960Y2633D01*
X1957Y2633D01*
X1957Y2634D01*
X1953Y2634D01*
X1953Y2636D01*
X1950Y2636D01*
X1950Y2639D01*
X1945Y2639D01*
X1945Y2641D01*
X1944Y2641D01*
X1944Y2642D01*
X1942Y2642D01*
X1942Y2644D01*
X1939Y2644D01*
X1939Y2646D01*
X1937Y2646D01*
X1937Y2647D01*
X1935Y2647D01*
X1935Y2652D01*
X1942Y2652D01*
G37*
D02*
G36*
X2204Y2662D02*
X2204Y2661D01*
X2211Y2661D01*
X2211Y2659D01*
X2214Y2659D01*
X2214Y2657D01*
X2216Y2657D01*
X2216Y2654D01*
X2196Y2654D01*
X2196Y2652D01*
X2193Y2652D01*
X2193Y2651D01*
X2191Y2651D01*
X2191Y2649D01*
X2190Y2649D01*
X2190Y2647D01*
X2188Y2647D01*
X2188Y2644D01*
X2186Y2644D01*
X2186Y2641D01*
X2185Y2641D01*
X2185Y2634D01*
X2183Y2634D01*
X2183Y2631D01*
X2185Y2631D01*
X2185Y2623D01*
X2186Y2623D01*
X2186Y2621D01*
X2195Y2621D01*
X2195Y2619D01*
X2177Y2619D01*
X2177Y2638D01*
X2178Y2638D01*
X2178Y2644D01*
X2180Y2644D01*
X2180Y2647D01*
X2181Y2647D01*
X2181Y2651D01*
X2183Y2651D01*
X2183Y2652D01*
X2185Y2652D01*
X2185Y2654D01*
X2186Y2654D01*
X2186Y2656D01*
X2188Y2656D01*
X2188Y2659D01*
X2193Y2659D01*
X2193Y2661D01*
X2198Y2661D01*
X2198Y2662D01*
X2204Y2662D01*
G37*
D02*
G36*
X2218Y2654D02*
X2218Y2652D01*
X2219Y2652D01*
X2219Y2651D01*
X2221Y2651D01*
X2221Y2649D01*
X2222Y2649D01*
X2222Y2646D01*
X2216Y2646D01*
X2216Y2647D01*
X2214Y2647D01*
X2214Y2651D01*
X2213Y2651D01*
X2213Y2652D01*
X2208Y2652D01*
X2208Y2654D01*
X2218Y2654D01*
G37*
D02*
G36*
X2250Y2649D02*
X2250Y2647D01*
X2252Y2647D01*
X2252Y2646D01*
X2229Y2646D01*
X2229Y2647D01*
X2237Y2647D01*
X2237Y2649D01*
X2250Y2649D01*
G37*
D02*
G36*
X2254Y2646D02*
X2254Y2644D01*
X2218Y2644D01*
X2218Y2646D01*
X2254Y2646D01*
G37*
D02*
G36*
X2254Y2646D02*
X2254Y2644D01*
X2218Y2644D01*
X2218Y2646D01*
X2254Y2646D01*
G37*
D02*
G36*
X2255Y2644D02*
X2255Y2642D01*
X2257Y2642D01*
X2257Y2641D01*
X2236Y2641D01*
X2236Y2639D01*
X2227Y2639D01*
X2227Y2638D01*
X2224Y2638D01*
X2224Y2636D01*
X2222Y2636D01*
X2222Y2638D01*
X2221Y2638D01*
X2221Y2639D01*
X2219Y2639D01*
X2219Y2642D01*
X2218Y2642D01*
X2218Y2644D01*
X2255Y2644D01*
G37*
D02*
G36*
X2260Y2641D02*
X2260Y2638D01*
X2263Y2638D01*
X2263Y2634D01*
X2265Y2634D01*
X2265Y2631D01*
X2267Y2631D01*
X2267Y2621D01*
X2265Y2621D01*
X2265Y2618D01*
X2263Y2618D01*
X2263Y2616D01*
X2262Y2616D01*
X2262Y2615D01*
X2260Y2615D01*
X2260Y2611D01*
X2259Y2611D01*
X2259Y2610D01*
X2257Y2610D01*
X2257Y2608D01*
X2255Y2608D01*
X2255Y2606D01*
X2254Y2606D01*
X2254Y2605D01*
X2250Y2605D01*
X2250Y2603D01*
X2249Y2603D01*
X2249Y2601D01*
X2245Y2601D01*
X2245Y2600D01*
X2244Y2600D01*
X2244Y2597D01*
X2241Y2597D01*
X2241Y2595D01*
X2234Y2595D01*
X2234Y2593D01*
X2232Y2593D01*
X2232Y2592D01*
X2216Y2592D01*
X2216Y2593D01*
X2219Y2593D01*
X2219Y2595D01*
X2224Y2595D01*
X2224Y2597D01*
X2227Y2597D01*
X2227Y2598D01*
X2231Y2598D01*
X2231Y2601D01*
X2236Y2601D01*
X2236Y2603D01*
X2239Y2603D01*
X2239Y2605D01*
X2241Y2605D01*
X2241Y2606D01*
X2244Y2606D01*
X2244Y2608D01*
X2245Y2608D01*
X2245Y2610D01*
X2249Y2610D01*
X2249Y2611D01*
X2250Y2611D01*
X2250Y2615D01*
X2252Y2615D01*
X2252Y2616D01*
X2254Y2616D01*
X2254Y2618D01*
X2255Y2618D01*
X2255Y2619D01*
X2257Y2619D01*
X2257Y2621D01*
X2259Y2621D01*
X2259Y2631D01*
X2257Y2631D01*
X2257Y2633D01*
X2255Y2633D01*
X2255Y2634D01*
X2254Y2634D01*
X2254Y2636D01*
X2252Y2636D01*
X2252Y2638D01*
X2249Y2638D01*
X2249Y2639D01*
X2245Y2639D01*
X2245Y2641D01*
X2260Y2641D01*
G37*
D02*
G36*
X2162Y2634D02*
X2162Y2633D01*
X2163Y2633D01*
X2163Y2629D01*
X2165Y2629D01*
X2165Y2628D01*
X2167Y2628D01*
X2167Y2626D01*
X2157Y2626D01*
X2157Y2624D01*
X2149Y2624D01*
X2149Y2623D01*
X2147Y2623D01*
X2147Y2621D01*
X2144Y2621D01*
X2144Y2619D01*
X2145Y2619D01*
X2145Y2616D01*
X2132Y2616D01*
X2132Y2618D01*
X2129Y2618D01*
X2129Y2624D01*
X2131Y2624D01*
X2131Y2628D01*
X2140Y2628D01*
X2140Y2629D01*
X2144Y2629D01*
X2144Y2631D01*
X2149Y2631D01*
X2149Y2633D01*
X2155Y2633D01*
X2155Y2634D01*
X2162Y2634D01*
G37*
D02*
G36*
X2167Y2626D02*
X2167Y2623D01*
X2168Y2623D01*
X2168Y2621D01*
X2173Y2621D01*
X2173Y2619D01*
X2162Y2619D01*
X2162Y2621D01*
X2160Y2621D01*
X2160Y2623D01*
X2159Y2623D01*
X2159Y2626D01*
X2167Y2626D01*
G37*
D02*
G36*
X2218Y2619D02*
X2218Y2618D01*
X2160Y2618D01*
X2160Y2619D01*
X2218Y2619D01*
G37*
D02*
G36*
X2218Y2619D02*
X2218Y2618D01*
X2160Y2618D01*
X2160Y2619D01*
X2218Y2619D01*
G37*
D02*
G36*
X2218Y2618D02*
X2218Y2616D01*
X2155Y2616D01*
X2155Y2618D01*
X2218Y2618D01*
G37*
D02*
G36*
X2216Y2616D02*
X2216Y2615D01*
X2134Y2615D01*
X2134Y2616D01*
X2216Y2616D01*
G37*
D02*
G36*
X2216Y2616D02*
X2216Y2615D01*
X2134Y2615D01*
X2134Y2616D01*
X2216Y2616D01*
G37*
D02*
G36*
X2200Y2615D02*
X2200Y2613D01*
X2195Y2613D01*
X2195Y2611D01*
X2178Y2611D01*
X2178Y2610D01*
X2173Y2610D01*
X2173Y2608D01*
X2157Y2608D01*
X2157Y2606D01*
X2137Y2606D01*
X2137Y2608D01*
X2139Y2608D01*
X2139Y2610D01*
X2136Y2610D01*
X2136Y2611D01*
X2137Y2611D01*
X2137Y2613D01*
X2136Y2613D01*
X2136Y2615D01*
X2200Y2615D01*
G37*
D02*
G36*
X2195Y2611D02*
X2195Y2606D01*
X2196Y2606D01*
X2196Y2605D01*
X2198Y2605D01*
X2198Y2603D01*
X2200Y2603D01*
X2200Y2601D01*
X2201Y2601D01*
X2201Y2598D01*
X2203Y2598D01*
X2203Y2597D01*
X2206Y2597D01*
X2206Y2595D01*
X2208Y2595D01*
X2208Y2593D01*
X2211Y2593D01*
X2211Y2592D01*
X2196Y2592D01*
X2196Y2593D01*
X2195Y2593D01*
X2195Y2595D01*
X2193Y2595D01*
X2193Y2597D01*
X2191Y2597D01*
X2191Y2600D01*
X2190Y2600D01*
X2190Y2601D01*
X2188Y2601D01*
X2188Y2605D01*
X2186Y2605D01*
X2186Y2606D01*
X2185Y2606D01*
X2185Y2608D01*
X2183Y2608D01*
X2183Y2610D01*
X2180Y2610D01*
X2180Y2611D01*
X2195Y2611D01*
G37*
D02*
G36*
X2173Y2608D02*
X2173Y2606D01*
X2159Y2606D01*
X2159Y2608D01*
X2173Y2608D01*
G37*
D02*
G36*
X2172Y2606D02*
X2172Y2605D01*
X2137Y2605D01*
X2137Y2606D01*
X2172Y2606D01*
G37*
D02*
G36*
X2172Y2606D02*
X2172Y2605D01*
X2137Y2605D01*
X2137Y2606D01*
X2172Y2606D01*
G37*
D02*
G36*
X2170Y2605D02*
X2170Y2601D01*
X2168Y2601D01*
X2168Y2600D01*
X2167Y2600D01*
X2167Y2598D01*
X2159Y2598D01*
X2159Y2597D01*
X2154Y2597D01*
X2154Y2595D01*
X2150Y2595D01*
X2150Y2593D01*
X2142Y2593D01*
X2142Y2595D01*
X2139Y2595D01*
X2139Y2597D01*
X2137Y2597D01*
X2137Y2598D01*
X2136Y2598D01*
X2136Y2601D01*
X2137Y2601D01*
X2137Y2605D01*
X2170Y2605D01*
G37*
D02*
G36*
X2229Y2592D02*
X2229Y2590D01*
X2198Y2590D01*
X2198Y2592D01*
X2229Y2592D01*
G37*
D02*
G36*
X2229Y2592D02*
X2229Y2590D01*
X2198Y2590D01*
X2198Y2592D01*
X2229Y2592D01*
G37*
D02*
G36*
X2226Y2590D02*
X2226Y2588D01*
X2221Y2588D01*
X2221Y2587D01*
X2218Y2587D01*
X2218Y2585D01*
X2204Y2585D01*
X2204Y2587D01*
X2201Y2587D01*
X2201Y2588D01*
X2200Y2588D01*
X2200Y2590D01*
X2226Y2590D01*
G37*
D02*
G36*
X2364Y2641D02*
X2364Y2636D01*
X2362Y2636D01*
X2362Y2634D01*
X2360Y2634D01*
X2360Y2633D01*
X2359Y2633D01*
X2359Y2629D01*
X2357Y2629D01*
X2357Y2628D01*
X2355Y2628D01*
X2355Y2621D01*
X2359Y2621D01*
X2359Y2619D01*
X2370Y2619D01*
X2370Y2618D01*
X2373Y2618D01*
X2373Y2616D01*
X2375Y2616D01*
X2375Y2615D01*
X2377Y2615D01*
X2377Y2611D01*
X2360Y2611D01*
X2360Y2608D01*
X2362Y2608D01*
X2362Y2606D01*
X2346Y2606D01*
X2346Y2618D01*
X2347Y2618D01*
X2347Y2628D01*
X2349Y2628D01*
X2349Y2631D01*
X2350Y2631D01*
X2350Y2634D01*
X2352Y2634D01*
X2352Y2636D01*
X2354Y2636D01*
X2354Y2638D01*
X2355Y2638D01*
X2355Y2639D01*
X2359Y2639D01*
X2359Y2641D01*
X2364Y2641D01*
G37*
D02*
G36*
X2378Y2611D02*
X2378Y2610D01*
X2380Y2610D01*
X2380Y2606D01*
X2368Y2606D01*
X2368Y2608D01*
X2370Y2608D01*
X2370Y2611D01*
X2378Y2611D01*
G37*
D02*
G36*
X2378Y2606D02*
X2378Y2605D01*
X2346Y2605D01*
X2346Y2606D01*
X2378Y2606D01*
G37*
D02*
G36*
X2378Y2606D02*
X2378Y2605D01*
X2346Y2605D01*
X2346Y2606D01*
X2378Y2606D01*
G37*
D02*
G36*
X2378Y2605D02*
X2378Y2600D01*
X2377Y2600D01*
X2377Y2598D01*
X2355Y2598D01*
X2355Y2597D01*
X2344Y2597D01*
X2344Y2605D01*
X2378Y2605D01*
G37*
D02*
G36*
X2375Y2598D02*
X2375Y2597D01*
X2362Y2597D01*
X2362Y2598D01*
X2375Y2598D01*
G37*
D02*
G36*
X2360Y2598D02*
X2360Y2597D01*
X2357Y2597D01*
X2357Y2598D01*
X2360Y2598D01*
G37*
D02*
G36*
X2357Y2597D02*
X2357Y2593D01*
X2359Y2593D01*
X2359Y2592D01*
X2360Y2592D01*
X2360Y2588D01*
X2362Y2588D01*
X2362Y2585D01*
X2365Y2585D01*
X2365Y2583D01*
X2367Y2583D01*
X2367Y2574D01*
X2368Y2574D01*
X2368Y2572D01*
X2367Y2572D01*
X2367Y2570D01*
X2365Y2570D01*
X2365Y2567D01*
X2364Y2567D01*
X2364Y2565D01*
X2357Y2565D01*
X2357Y2574D01*
X2359Y2574D01*
X2359Y2578D01*
X2357Y2578D01*
X2357Y2582D01*
X2355Y2582D01*
X2355Y2583D01*
X2354Y2583D01*
X2354Y2585D01*
X2350Y2585D01*
X2350Y2588D01*
X2349Y2588D01*
X2349Y2590D01*
X2347Y2590D01*
X2347Y2593D01*
X2346Y2593D01*
X2346Y2595D01*
X2344Y2595D01*
X2344Y2597D01*
X2357Y2597D01*
G37*
D02*
G36*
X2444Y2636D02*
X2444Y2631D01*
X2442Y2631D01*
X2442Y2626D01*
X2441Y2626D01*
X2441Y2623D01*
X2439Y2623D01*
X2439Y2619D01*
X2437Y2619D01*
X2437Y2618D01*
X2436Y2618D01*
X2436Y2615D01*
X2434Y2615D01*
X2434Y2608D01*
X2432Y2608D01*
X2432Y2606D01*
X2431Y2606D01*
X2431Y2601D01*
X2424Y2601D01*
X2424Y2606D01*
X2426Y2606D01*
X2426Y2610D01*
X2428Y2610D01*
X2428Y2615D01*
X2429Y2615D01*
X2429Y2618D01*
X2431Y2618D01*
X2431Y2619D01*
X2432Y2619D01*
X2432Y2624D01*
X2434Y2624D01*
X2434Y2629D01*
X2436Y2629D01*
X2436Y2633D01*
X2437Y2633D01*
X2437Y2634D01*
X2439Y2634D01*
X2439Y2636D01*
X2444Y2636D01*
G37*
D02*
G36*
X1912Y2605D02*
X1912Y2603D01*
X1919Y2603D01*
X1919Y2601D01*
X1922Y2601D01*
X1922Y2600D01*
X1929Y2600D01*
X1929Y2598D01*
X1935Y2598D01*
X1935Y2597D01*
X1944Y2597D01*
X1944Y2595D01*
X1949Y2595D01*
X1949Y2593D01*
X1952Y2593D01*
X1952Y2590D01*
X1950Y2590D01*
X1950Y2588D01*
X1942Y2588D01*
X1942Y2590D01*
X1934Y2590D01*
X1934Y2592D01*
X1929Y2592D01*
X1929Y2593D01*
X1917Y2593D01*
X1917Y2595D01*
X1914Y2595D01*
X1914Y2597D01*
X1908Y2597D01*
X1908Y2598D01*
X1904Y2598D01*
X1904Y2600D01*
X1903Y2600D01*
X1903Y2603D01*
X1904Y2603D01*
X1904Y2605D01*
X1912Y2605D01*
G37*
D02*
G36*
X2482Y2580D02*
X2482Y2578D01*
X2483Y2578D01*
X2483Y2577D01*
X2482Y2577D01*
X2482Y2575D01*
X2477Y2575D01*
X2477Y2574D01*
X2473Y2574D01*
X2473Y2572D01*
X2472Y2572D01*
X2472Y2570D01*
X2469Y2570D01*
X2469Y2569D01*
X2464Y2569D01*
X2464Y2567D01*
X2459Y2567D01*
X2459Y2565D01*
X2454Y2565D01*
X2454Y2570D01*
X2457Y2570D01*
X2457Y2572D01*
X2460Y2572D01*
X2460Y2574D01*
X2464Y2574D01*
X2464Y2575D01*
X2467Y2575D01*
X2467Y2577D01*
X2473Y2577D01*
X2473Y2578D01*
X2477Y2578D01*
X2477Y2580D01*
X2482Y2580D01*
G37*
D02*
G36*
X1942Y2564D02*
X1942Y2562D01*
X1949Y2562D01*
X1949Y2559D01*
X1950Y2559D01*
X1950Y2557D01*
X1949Y2557D01*
X1949Y2556D01*
X1930Y2556D01*
X1930Y2554D01*
X1926Y2554D01*
X1926Y2552D01*
X1916Y2552D01*
X1916Y2557D01*
X1917Y2557D01*
X1917Y2559D01*
X1926Y2559D01*
X1926Y2560D01*
X1927Y2560D01*
X1927Y2562D01*
X1934Y2562D01*
X1934Y2564D01*
X1942Y2564D01*
G37*
D02*
G36*
X2200Y2695D02*
X2200Y2693D01*
X2221Y2693D01*
X2221Y2692D01*
X2229Y2692D01*
X2229Y2690D01*
X2236Y2690D01*
X2236Y2688D01*
X2183Y2688D01*
X2183Y2687D01*
X2178Y2687D01*
X2178Y2685D01*
X2168Y2685D01*
X2168Y2683D01*
X2162Y2683D01*
X2162Y2682D01*
X2157Y2682D01*
X2157Y2680D01*
X2154Y2680D01*
X2154Y2679D01*
X2150Y2679D01*
X2150Y2677D01*
X2147Y2677D01*
X2147Y2675D01*
X2142Y2675D01*
X2142Y2674D01*
X2139Y2674D01*
X2139Y2672D01*
X2137Y2672D01*
X2137Y2670D01*
X2134Y2670D01*
X2134Y2669D01*
X2132Y2669D01*
X2132Y2667D01*
X2131Y2667D01*
X2131Y2665D01*
X2129Y2665D01*
X2129Y2664D01*
X2127Y2664D01*
X2127Y2661D01*
X2126Y2661D01*
X2126Y2659D01*
X2122Y2659D01*
X2122Y2656D01*
X2121Y2656D01*
X2121Y2654D01*
X2119Y2654D01*
X2119Y2652D01*
X2118Y2652D01*
X2118Y2649D01*
X2116Y2649D01*
X2116Y2647D01*
X2114Y2647D01*
X2114Y2646D01*
X2113Y2646D01*
X2113Y2641D01*
X2111Y2641D01*
X2111Y2633D01*
X2109Y2633D01*
X2109Y2628D01*
X2111Y2628D01*
X2111Y2624D01*
X2109Y2624D01*
X2109Y2621D01*
X2111Y2621D01*
X2111Y2616D01*
X2113Y2616D01*
X2113Y2613D01*
X2114Y2613D01*
X2114Y2610D01*
X2116Y2610D01*
X2116Y2606D01*
X2118Y2606D01*
X2118Y2605D01*
X2119Y2605D01*
X2119Y2601D01*
X2121Y2601D01*
X2121Y2598D01*
X2122Y2598D01*
X2122Y2597D01*
X2124Y2597D01*
X2124Y2595D01*
X2126Y2595D01*
X2126Y2593D01*
X2129Y2593D01*
X2129Y2592D01*
X2131Y2592D01*
X2131Y2583D01*
X2129Y2583D01*
X2129Y2580D01*
X2127Y2580D01*
X2127Y2577D01*
X2126Y2577D01*
X2126Y2575D01*
X2127Y2575D01*
X2127Y2574D01*
X2116Y2574D01*
X2116Y2575D01*
X2118Y2575D01*
X2118Y2577D01*
X2119Y2577D01*
X2119Y2578D01*
X2121Y2578D01*
X2121Y2583D01*
X2122Y2583D01*
X2122Y2587D01*
X2121Y2587D01*
X2121Y2588D01*
X2119Y2588D01*
X2119Y2590D01*
X2118Y2590D01*
X2118Y2593D01*
X2114Y2593D01*
X2114Y2595D01*
X2113Y2595D01*
X2113Y2600D01*
X2111Y2600D01*
X2111Y2601D01*
X2109Y2601D01*
X2109Y2606D01*
X2108Y2606D01*
X2108Y2610D01*
X2106Y2610D01*
X2106Y2613D01*
X2104Y2613D01*
X2104Y2624D01*
X2103Y2624D01*
X2103Y2633D01*
X2104Y2633D01*
X2104Y2642D01*
X2106Y2642D01*
X2106Y2646D01*
X2108Y2646D01*
X2108Y2649D01*
X2109Y2649D01*
X2109Y2652D01*
X2111Y2652D01*
X2111Y2654D01*
X2113Y2654D01*
X2113Y2656D01*
X2114Y2656D01*
X2114Y2657D01*
X2116Y2657D01*
X2116Y2659D01*
X2118Y2659D01*
X2118Y2661D01*
X2119Y2661D01*
X2119Y2662D01*
X2121Y2662D01*
X2121Y2664D01*
X2122Y2664D01*
X2122Y2667D01*
X2124Y2667D01*
X2124Y2669D01*
X2126Y2669D01*
X2126Y2670D01*
X2127Y2670D01*
X2127Y2672D01*
X2129Y2672D01*
X2129Y2674D01*
X2131Y2674D01*
X2131Y2675D01*
X2132Y2675D01*
X2132Y2677D01*
X2136Y2677D01*
X2136Y2679D01*
X2139Y2679D01*
X2139Y2680D01*
X2142Y2680D01*
X2142Y2682D01*
X2145Y2682D01*
X2145Y2683D01*
X2149Y2683D01*
X2149Y2685D01*
X2152Y2685D01*
X2152Y2687D01*
X2159Y2687D01*
X2159Y2688D01*
X2162Y2688D01*
X2162Y2690D01*
X2167Y2690D01*
X2167Y2692D01*
X2173Y2692D01*
X2173Y2693D01*
X2198Y2693D01*
X2198Y2695D01*
X2200Y2695D01*
G37*
D02*
G36*
X2241Y2688D02*
X2241Y2687D01*
X2245Y2687D01*
X2245Y2685D01*
X2257Y2685D01*
X2257Y2683D01*
X2265Y2683D01*
X2265Y2682D01*
X2270Y2682D01*
X2270Y2680D01*
X2249Y2680D01*
X2249Y2679D01*
X2245Y2679D01*
X2245Y2680D01*
X2242Y2680D01*
X2242Y2682D01*
X2239Y2682D01*
X2239Y2683D01*
X2231Y2683D01*
X2231Y2685D01*
X2219Y2685D01*
X2219Y2687D01*
X2208Y2687D01*
X2208Y2688D01*
X2241Y2688D01*
G37*
D02*
G36*
X2275Y2680D02*
X2275Y2679D01*
X2278Y2679D01*
X2278Y2677D01*
X2280Y2677D01*
X2280Y2675D01*
X2283Y2675D01*
X2283Y2674D01*
X2285Y2674D01*
X2285Y2672D01*
X2286Y2672D01*
X2286Y2670D01*
X2288Y2670D01*
X2288Y2669D01*
X2290Y2669D01*
X2290Y2667D01*
X2291Y2667D01*
X2291Y2665D01*
X2293Y2665D01*
X2293Y2662D01*
X2295Y2662D01*
X2295Y2659D01*
X2296Y2659D01*
X2296Y2656D01*
X2298Y2656D01*
X2298Y2652D01*
X2300Y2652D01*
X2300Y2646D01*
X2301Y2646D01*
X2301Y2641D01*
X2303Y2641D01*
X2303Y2633D01*
X2305Y2633D01*
X2305Y2624D01*
X2303Y2624D01*
X2303Y2615D01*
X2301Y2615D01*
X2301Y2613D01*
X2300Y2613D01*
X2300Y2608D01*
X2298Y2608D01*
X2298Y2603D01*
X2296Y2603D01*
X2296Y2601D01*
X2295Y2601D01*
X2295Y2600D01*
X2293Y2600D01*
X2293Y2597D01*
X2291Y2597D01*
X2291Y2593D01*
X2290Y2593D01*
X2290Y2592D01*
X2288Y2592D01*
X2288Y2590D01*
X2286Y2590D01*
X2286Y2588D01*
X2283Y2588D01*
X2283Y2587D01*
X2282Y2587D01*
X2282Y2585D01*
X2280Y2585D01*
X2280Y2577D01*
X2278Y2577D01*
X2278Y2570D01*
X2277Y2570D01*
X2277Y2569D01*
X2275Y2569D01*
X2275Y2567D01*
X2273Y2567D01*
X2273Y2565D01*
X2275Y2565D01*
X2275Y2559D01*
X2277Y2559D01*
X2277Y2557D01*
X2263Y2557D01*
X2263Y2556D01*
X2262Y2556D01*
X2262Y2560D01*
X2260Y2560D01*
X2260Y2562D01*
X2259Y2562D01*
X2259Y2567D01*
X2262Y2567D01*
X2262Y2569D01*
X2265Y2569D01*
X2265Y2570D01*
X2267Y2570D01*
X2267Y2572D01*
X2268Y2572D01*
X2268Y2574D01*
X2270Y2574D01*
X2270Y2577D01*
X2272Y2577D01*
X2272Y2582D01*
X2270Y2582D01*
X2270Y2587D01*
X2272Y2587D01*
X2272Y2588D01*
X2273Y2588D01*
X2273Y2590D01*
X2277Y2590D01*
X2277Y2592D01*
X2278Y2592D01*
X2278Y2593D01*
X2280Y2593D01*
X2280Y2595D01*
X2282Y2595D01*
X2282Y2597D01*
X2285Y2597D01*
X2285Y2600D01*
X2286Y2600D01*
X2286Y2601D01*
X2288Y2601D01*
X2288Y2605D01*
X2290Y2605D01*
X2290Y2608D01*
X2291Y2608D01*
X2291Y2610D01*
X2293Y2610D01*
X2293Y2615D01*
X2295Y2615D01*
X2295Y2618D01*
X2296Y2618D01*
X2296Y2641D01*
X2295Y2641D01*
X2295Y2646D01*
X2293Y2646D01*
X2293Y2651D01*
X2291Y2651D01*
X2291Y2656D01*
X2290Y2656D01*
X2290Y2659D01*
X2288Y2659D01*
X2288Y2661D01*
X2286Y2661D01*
X2286Y2664D01*
X2285Y2664D01*
X2285Y2665D01*
X2283Y2665D01*
X2283Y2669D01*
X2282Y2669D01*
X2282Y2670D01*
X2278Y2670D01*
X2278Y2672D01*
X2275Y2672D01*
X2275Y2674D01*
X2273Y2674D01*
X2273Y2675D01*
X2268Y2675D01*
X2268Y2677D01*
X2267Y2677D01*
X2267Y2679D01*
X2259Y2679D01*
X2259Y2680D01*
X2275Y2680D01*
G37*
D02*
G36*
X2154Y2575D02*
X2154Y2574D01*
X2144Y2574D01*
X2144Y2575D01*
X2154Y2575D01*
G37*
D02*
G36*
X2142Y2575D02*
X2142Y2574D01*
X2136Y2574D01*
X2136Y2575D01*
X2142Y2575D01*
G37*
D02*
G36*
X2155Y2574D02*
X2155Y2572D01*
X2114Y2572D01*
X2114Y2574D01*
X2155Y2574D01*
G37*
D02*
G36*
X2155Y2574D02*
X2155Y2572D01*
X2114Y2572D01*
X2114Y2574D01*
X2155Y2574D01*
G37*
D02*
G36*
X2155Y2574D02*
X2155Y2572D01*
X2114Y2572D01*
X2114Y2574D01*
X2155Y2574D01*
G37*
D02*
G36*
X2155Y2572D02*
X2155Y2570D01*
X2157Y2570D01*
X2157Y2569D01*
X2132Y2569D01*
X2132Y2567D01*
X2126Y2567D01*
X2126Y2565D01*
X2119Y2565D01*
X2119Y2564D01*
X2111Y2564D01*
X2111Y2565D01*
X2108Y2565D01*
X2108Y2567D01*
X2109Y2567D01*
X2109Y2569D01*
X2111Y2569D01*
X2111Y2570D01*
X2113Y2570D01*
X2113Y2572D01*
X2155Y2572D01*
G37*
D02*
G36*
X2191Y2570D02*
X2191Y2569D01*
X2195Y2569D01*
X2195Y2567D01*
X2196Y2567D01*
X2196Y2565D01*
X2200Y2565D01*
X2200Y2564D01*
X2201Y2564D01*
X2201Y2562D01*
X2177Y2562D01*
X2177Y2564D01*
X2183Y2564D01*
X2183Y2565D01*
X2185Y2565D01*
X2185Y2569D01*
X2186Y2569D01*
X2186Y2570D01*
X2191Y2570D01*
G37*
D02*
G36*
X2160Y2569D02*
X2160Y2567D01*
X2163Y2567D01*
X2163Y2565D01*
X2167Y2565D01*
X2167Y2564D01*
X2172Y2564D01*
X2172Y2562D01*
X2155Y2562D01*
X2155Y2564D01*
X2154Y2564D01*
X2154Y2565D01*
X2152Y2565D01*
X2152Y2567D01*
X2140Y2567D01*
X2140Y2569D01*
X2160Y2569D01*
G37*
D02*
G36*
X2204Y2562D02*
X2204Y2560D01*
X2157Y2560D01*
X2157Y2562D01*
X2204Y2562D01*
G37*
D02*
G36*
X2204Y2562D02*
X2204Y2560D01*
X2157Y2560D01*
X2157Y2562D01*
X2204Y2562D01*
G37*
D02*
G36*
X2206Y2560D02*
X2206Y2559D01*
X2208Y2559D01*
X2208Y2557D01*
X2211Y2557D01*
X2211Y2556D01*
X2214Y2556D01*
X2214Y2554D01*
X2227Y2554D01*
X2227Y2552D01*
X2203Y2552D01*
X2203Y2554D01*
X2200Y2554D01*
X2200Y2556D01*
X2198Y2556D01*
X2198Y2557D01*
X2195Y2557D01*
X2195Y2559D01*
X2193Y2559D01*
X2193Y2560D01*
X2206Y2560D01*
G37*
D02*
G36*
X2190Y2560D02*
X2190Y2559D01*
X2188Y2559D01*
X2188Y2557D01*
X2185Y2557D01*
X2185Y2556D01*
X2175Y2556D01*
X2175Y2554D01*
X2170Y2554D01*
X2170Y2556D01*
X2163Y2556D01*
X2163Y2557D01*
X2160Y2557D01*
X2160Y2559D01*
X2159Y2559D01*
X2159Y2560D01*
X2190Y2560D01*
G37*
D02*
G36*
X2278Y2557D02*
X2278Y2556D01*
X2282Y2556D01*
X2282Y2554D01*
X2285Y2554D01*
X2285Y2552D01*
X2286Y2552D01*
X2286Y2551D01*
X2288Y2551D01*
X2288Y2549D01*
X2272Y2549D01*
X2272Y2551D01*
X2270Y2551D01*
X2270Y2552D01*
X2268Y2552D01*
X2268Y2554D01*
X2267Y2554D01*
X2267Y2556D01*
X2265Y2556D01*
X2265Y2557D01*
X2278Y2557D01*
G37*
D02*
G36*
X2257Y2556D02*
X2257Y2554D01*
X2260Y2554D01*
X2260Y2552D01*
X2265Y2552D01*
X2265Y2551D01*
X2250Y2551D01*
X2250Y2554D01*
X2252Y2554D01*
X2252Y2556D01*
X2257Y2556D01*
G37*
D02*
G36*
X2245Y2556D02*
X2245Y2554D01*
X2247Y2554D01*
X2247Y2552D01*
X2229Y2552D01*
X2229Y2554D01*
X2242Y2554D01*
X2242Y2556D01*
X2245Y2556D01*
G37*
D02*
G36*
X2245Y2552D02*
X2245Y2551D01*
X2204Y2551D01*
X2204Y2552D01*
X2245Y2552D01*
G37*
D02*
G36*
X2245Y2552D02*
X2245Y2551D01*
X2204Y2551D01*
X2204Y2552D01*
X2245Y2552D01*
G37*
D02*
G36*
X2270Y2551D02*
X2270Y2549D01*
X2252Y2549D01*
X2252Y2551D01*
X2270Y2551D01*
G37*
D02*
G36*
X2242Y2551D02*
X2242Y2549D01*
X2237Y2549D01*
X2237Y2547D01*
X2213Y2547D01*
X2213Y2549D01*
X2208Y2549D01*
X2208Y2551D01*
X2242Y2551D01*
G37*
D02*
G36*
X2290Y2549D02*
X2290Y2547D01*
X2254Y2547D01*
X2254Y2549D01*
X2290Y2549D01*
G37*
D02*
G36*
X2290Y2549D02*
X2290Y2547D01*
X2254Y2547D01*
X2254Y2549D01*
X2290Y2549D01*
G37*
D02*
G36*
X2293Y2547D02*
X2293Y2544D01*
X2296Y2544D01*
X2296Y2542D01*
X2298Y2542D01*
X2298Y2541D01*
X2300Y2541D01*
X2300Y2537D01*
X2301Y2537D01*
X2301Y2534D01*
X2300Y2534D01*
X2300Y2533D01*
X2291Y2533D01*
X2291Y2534D01*
X2285Y2534D01*
X2285Y2536D01*
X2282Y2536D01*
X2282Y2537D01*
X2278Y2537D01*
X2278Y2539D01*
X2273Y2539D01*
X2273Y2541D01*
X2270Y2541D01*
X2270Y2542D01*
X2265Y2542D01*
X2265Y2544D01*
X2262Y2544D01*
X2262Y2546D01*
X2259Y2546D01*
X2259Y2547D01*
X2293Y2547D01*
G37*
D02*
G36*
X2462Y2521D02*
X2462Y2519D01*
X2470Y2519D01*
X2470Y2518D01*
X2480Y2518D01*
X2480Y2516D01*
X2485Y2516D01*
X2485Y2515D01*
X2490Y2515D01*
X2490Y2513D01*
X2495Y2513D01*
X2495Y2511D01*
X2485Y2511D01*
X2485Y2510D01*
X2482Y2510D01*
X2482Y2511D01*
X2465Y2511D01*
X2465Y2513D01*
X2451Y2513D01*
X2451Y2515D01*
X2449Y2515D01*
X2449Y2519D01*
X2451Y2519D01*
X2451Y2521D01*
X2462Y2521D01*
G37*
D02*
G36*
X2498Y2511D02*
X2498Y2510D01*
X2488Y2510D01*
X2488Y2511D01*
X2498Y2511D01*
G37*
D02*
G36*
X2360Y2519D02*
X2360Y2518D01*
X2362Y2518D01*
X2362Y2515D01*
X2352Y2515D01*
X2352Y2516D01*
X2354Y2516D01*
X2354Y2518D01*
X2357Y2518D01*
X2357Y2519D01*
X2360Y2519D01*
G37*
D02*
G36*
X2347Y2519D02*
X2347Y2518D01*
X2349Y2518D01*
X2349Y2516D01*
X2350Y2516D01*
X2350Y2515D01*
X2341Y2515D01*
X2341Y2519D01*
X2347Y2519D01*
G37*
D02*
G36*
X2362Y2515D02*
X2362Y2513D01*
X2341Y2513D01*
X2341Y2515D01*
X2362Y2515D01*
G37*
D02*
G36*
X2362Y2515D02*
X2362Y2513D01*
X2341Y2513D01*
X2341Y2515D01*
X2362Y2515D01*
G37*
D02*
G36*
X2362Y2513D02*
X2362Y2511D01*
X2360Y2511D01*
X2360Y2510D01*
X2359Y2510D01*
X2359Y2508D01*
X2352Y2508D01*
X2352Y2506D01*
X2349Y2506D01*
X2349Y2508D01*
X2344Y2508D01*
X2344Y2510D01*
X2342Y2510D01*
X2342Y2511D01*
X2341Y2511D01*
X2341Y2513D01*
X2362Y2513D01*
G37*
D02*
G36*
X2218Y2482D02*
X2218Y2480D01*
X2216Y2480D01*
X2216Y2482D01*
X2218Y2482D01*
G37*
D02*
G36*
X1952Y2478D02*
X1952Y2477D01*
X1955Y2477D01*
X1955Y2472D01*
X1952Y2472D01*
X1952Y2470D01*
X1950Y2470D01*
X1950Y2469D01*
X1949Y2469D01*
X1949Y2464D01*
X1947Y2464D01*
X1947Y2455D01*
X1945Y2455D01*
X1945Y2454D01*
X1942Y2454D01*
X1942Y2457D01*
X1940Y2457D01*
X1940Y2465D01*
X1942Y2465D01*
X1942Y2472D01*
X1944Y2472D01*
X1944Y2473D01*
X1945Y2473D01*
X1945Y2475D01*
X1947Y2475D01*
X1947Y2477D01*
X1950Y2477D01*
X1950Y2478D01*
X1952Y2478D01*
G37*
D02*
G36*
X2432Y2467D02*
X2432Y2465D01*
X2437Y2465D01*
X2437Y2464D01*
X2441Y2464D01*
X2441Y2462D01*
X2444Y2462D01*
X2444Y2460D01*
X2447Y2460D01*
X2447Y2459D01*
X2449Y2459D01*
X2449Y2457D01*
X2451Y2457D01*
X2451Y2455D01*
X2452Y2455D01*
X2452Y2454D01*
X2454Y2454D01*
X2454Y2452D01*
X2457Y2452D01*
X2457Y2451D01*
X2460Y2451D01*
X2460Y2449D01*
X2462Y2449D01*
X2462Y2447D01*
X2464Y2447D01*
X2464Y2446D01*
X2465Y2446D01*
X2465Y2444D01*
X2470Y2444D01*
X2470Y2442D01*
X2472Y2442D01*
X2472Y2441D01*
X2473Y2441D01*
X2473Y2439D01*
X2475Y2439D01*
X2475Y2437D01*
X2477Y2437D01*
X2477Y2436D01*
X2480Y2436D01*
X2480Y2434D01*
X2482Y2434D01*
X2482Y2431D01*
X2480Y2431D01*
X2480Y2429D01*
X2477Y2429D01*
X2477Y2431D01*
X2473Y2431D01*
X2473Y2432D01*
X2472Y2432D01*
X2472Y2434D01*
X2469Y2434D01*
X2469Y2436D01*
X2467Y2436D01*
X2467Y2437D01*
X2464Y2437D01*
X2464Y2439D01*
X2462Y2439D01*
X2462Y2441D01*
X2457Y2441D01*
X2457Y2442D01*
X2455Y2442D01*
X2455Y2444D01*
X2452Y2444D01*
X2452Y2446D01*
X2447Y2446D01*
X2447Y2449D01*
X2446Y2449D01*
X2446Y2451D01*
X2442Y2451D01*
X2442Y2452D01*
X2441Y2452D01*
X2441Y2454D01*
X2437Y2454D01*
X2437Y2455D01*
X2436Y2455D01*
X2436Y2457D01*
X2434Y2457D01*
X2434Y2459D01*
X2431Y2459D01*
X2431Y2460D01*
X2429Y2460D01*
X2429Y2462D01*
X2426Y2462D01*
X2426Y2465D01*
X2428Y2465D01*
X2428Y2467D01*
X2432Y2467D01*
G37*
D02*
G36*
X1975Y2465D02*
X1975Y2462D01*
X1973Y2462D01*
X1973Y2460D01*
X1970Y2460D01*
X1970Y2457D01*
X1968Y2457D01*
X1968Y2455D01*
X1967Y2455D01*
X1967Y2444D01*
X1963Y2444D01*
X1963Y2442D01*
X1962Y2442D01*
X1962Y2446D01*
X1960Y2446D01*
X1960Y2457D01*
X1962Y2457D01*
X1962Y2460D01*
X1963Y2460D01*
X1963Y2462D01*
X1965Y2462D01*
X1965Y2464D01*
X1968Y2464D01*
X1968Y2465D01*
X1975Y2465D01*
G37*
D02*
G36*
X2290Y2441D02*
X2290Y2439D01*
X2291Y2439D01*
X2291Y2434D01*
X2290Y2434D01*
X2290Y2432D01*
X2291Y2432D01*
X2291Y2426D01*
X2293Y2426D01*
X2293Y2421D01*
X2295Y2421D01*
X2295Y2416D01*
X2296Y2416D01*
X2296Y2413D01*
X2298Y2413D01*
X2298Y2405D01*
X2296Y2405D01*
X2296Y2406D01*
X2293Y2406D01*
X2293Y2411D01*
X2291Y2411D01*
X2291Y2413D01*
X2290Y2413D01*
X2290Y2418D01*
X2288Y2418D01*
X2288Y2421D01*
X2286Y2421D01*
X2286Y2426D01*
X2285Y2426D01*
X2285Y2428D01*
X2286Y2428D01*
X2286Y2429D01*
X2285Y2429D01*
X2285Y2436D01*
X2286Y2436D01*
X2286Y2439D01*
X2288Y2439D01*
X2288Y2441D01*
X2290Y2441D01*
G37*
D02*
G36*
X2270Y2434D02*
X2270Y2432D01*
X2272Y2432D01*
X2272Y2428D01*
X2273Y2428D01*
X2273Y2426D01*
X2275Y2426D01*
X2275Y2419D01*
X2277Y2419D01*
X2277Y2418D01*
X2278Y2418D01*
X2278Y2416D01*
X2280Y2416D01*
X2280Y2413D01*
X2282Y2413D01*
X2282Y2410D01*
X2283Y2410D01*
X2283Y2405D01*
X2277Y2405D01*
X2277Y2406D01*
X2275Y2406D01*
X2275Y2408D01*
X2273Y2408D01*
X2273Y2410D01*
X2272Y2410D01*
X2272Y2414D01*
X2270Y2414D01*
X2270Y2418D01*
X2268Y2418D01*
X2268Y2421D01*
X2265Y2421D01*
X2265Y2428D01*
X2267Y2428D01*
X2267Y2432D01*
X2268Y2432D01*
X2268Y2434D01*
X2270Y2434D01*
G37*
D02*
G36*
X2249Y2431D02*
X2249Y2428D01*
X2250Y2428D01*
X2250Y2423D01*
X2252Y2423D01*
X2252Y2410D01*
X2254Y2410D01*
X2254Y2408D01*
X2255Y2408D01*
X2255Y2406D01*
X2257Y2406D01*
X2257Y2403D01*
X2259Y2403D01*
X2259Y2398D01*
X2252Y2398D01*
X2252Y2400D01*
X2250Y2400D01*
X2250Y2401D01*
X2249Y2401D01*
X2249Y2405D01*
X2245Y2405D01*
X2245Y2410D01*
X2244Y2410D01*
X2244Y2421D01*
X2242Y2421D01*
X2242Y2423D01*
X2244Y2423D01*
X2244Y2428D01*
X2242Y2428D01*
X2242Y2429D01*
X2245Y2429D01*
X2245Y2431D01*
X2249Y2431D01*
G37*
D02*
G36*
X2034Y2624D02*
X2034Y2623D01*
X2045Y2623D01*
X2045Y2621D01*
X2050Y2621D01*
X2050Y2619D01*
X2055Y2619D01*
X2055Y2618D01*
X2013Y2618D01*
X2013Y2616D01*
X2008Y2616D01*
X2008Y2615D01*
X2003Y2615D01*
X2003Y2613D01*
X1999Y2613D01*
X1999Y2611D01*
X1998Y2611D01*
X1998Y2606D01*
X1999Y2606D01*
X1999Y2601D01*
X2001Y2601D01*
X2001Y2600D01*
X2003Y2600D01*
X2003Y2597D01*
X2004Y2597D01*
X2004Y2595D01*
X2006Y2595D01*
X2006Y2593D01*
X1994Y2593D01*
X1994Y2590D01*
X1993Y2590D01*
X1993Y2578D01*
X1998Y2578D01*
X1998Y2577D01*
X1999Y2577D01*
X1999Y2575D01*
X2001Y2575D01*
X2001Y2570D01*
X2003Y2570D01*
X2003Y2567D01*
X1999Y2567D01*
X1999Y2564D01*
X2001Y2564D01*
X2001Y2562D01*
X2003Y2562D01*
X2003Y2559D01*
X1991Y2559D01*
X1991Y2557D01*
X1983Y2557D01*
X1983Y2565D01*
X1985Y2565D01*
X1985Y2583D01*
X1986Y2583D01*
X1986Y2615D01*
X1988Y2615D01*
X1988Y2616D01*
X1993Y2616D01*
X1993Y2618D01*
X1998Y2618D01*
X1998Y2619D01*
X2003Y2619D01*
X2003Y2621D01*
X2013Y2621D01*
X2013Y2623D01*
X2021Y2623D01*
X2021Y2624D01*
X2034Y2624D01*
G37*
D02*
G36*
X2062Y2618D02*
X2062Y2616D01*
X2065Y2616D01*
X2065Y2615D01*
X2068Y2615D01*
X2068Y2613D01*
X2070Y2613D01*
X2070Y2611D01*
X2072Y2611D01*
X2072Y2610D01*
X2075Y2610D01*
X2075Y2606D01*
X2078Y2606D01*
X2078Y2605D01*
X2080Y2605D01*
X2080Y2603D01*
X2081Y2603D01*
X2081Y2600D01*
X2083Y2600D01*
X2083Y2597D01*
X2085Y2597D01*
X2085Y2593D01*
X2086Y2593D01*
X2086Y2587D01*
X2088Y2587D01*
X2088Y2582D01*
X2086Y2582D01*
X2086Y2580D01*
X2088Y2580D01*
X2088Y2577D01*
X2086Y2577D01*
X2086Y2569D01*
X2085Y2569D01*
X2085Y2559D01*
X2075Y2559D01*
X2075Y2557D01*
X2072Y2557D01*
X2072Y2556D01*
X2052Y2556D01*
X2052Y2557D01*
X2055Y2557D01*
X2055Y2559D01*
X2062Y2559D01*
X2062Y2560D01*
X2065Y2560D01*
X2065Y2562D01*
X2067Y2562D01*
X2067Y2564D01*
X2068Y2564D01*
X2068Y2565D01*
X2072Y2565D01*
X2072Y2567D01*
X2073Y2567D01*
X2073Y2569D01*
X2075Y2569D01*
X2075Y2574D01*
X2076Y2574D01*
X2076Y2578D01*
X2078Y2578D01*
X2078Y2582D01*
X2076Y2582D01*
X2076Y2583D01*
X2078Y2583D01*
X2078Y2587D01*
X2076Y2587D01*
X2076Y2588D01*
X2078Y2588D01*
X2078Y2592D01*
X2076Y2592D01*
X2076Y2597D01*
X2075Y2597D01*
X2075Y2600D01*
X2073Y2600D01*
X2073Y2601D01*
X2072Y2601D01*
X2072Y2605D01*
X2068Y2605D01*
X2068Y2606D01*
X2065Y2606D01*
X2065Y2608D01*
X2063Y2608D01*
X2063Y2610D01*
X2060Y2610D01*
X2060Y2611D01*
X2058Y2611D01*
X2058Y2613D01*
X2055Y2613D01*
X2055Y2615D01*
X2049Y2615D01*
X2049Y2616D01*
X2042Y2616D01*
X2042Y2618D01*
X2062Y2618D01*
G37*
D02*
G36*
X2006Y2593D02*
X2006Y2592D01*
X2008Y2592D01*
X2008Y2590D01*
X2011Y2590D01*
X2011Y2587D01*
X2013Y2587D01*
X2013Y2585D01*
X2014Y2585D01*
X2014Y2582D01*
X2016Y2582D01*
X2016Y2578D01*
X2017Y2578D01*
X2017Y2577D01*
X2019Y2577D01*
X2019Y2575D01*
X2021Y2575D01*
X2021Y2574D01*
X2022Y2574D01*
X2022Y2572D01*
X2024Y2572D01*
X2024Y2570D01*
X2026Y2570D01*
X2026Y2567D01*
X2029Y2567D01*
X2029Y2565D01*
X2031Y2565D01*
X2031Y2564D01*
X2032Y2564D01*
X2032Y2562D01*
X2034Y2562D01*
X2034Y2559D01*
X2037Y2559D01*
X2037Y2557D01*
X2047Y2557D01*
X2047Y2556D01*
X2027Y2556D01*
X2027Y2557D01*
X2026Y2557D01*
X2026Y2559D01*
X2024Y2559D01*
X2024Y2560D01*
X2022Y2560D01*
X2022Y2564D01*
X2021Y2564D01*
X2021Y2565D01*
X2019Y2565D01*
X2019Y2567D01*
X2017Y2567D01*
X2017Y2569D01*
X2016Y2569D01*
X2016Y2570D01*
X2014Y2570D01*
X2014Y2572D01*
X2013Y2572D01*
X2013Y2574D01*
X2011Y2574D01*
X2011Y2575D01*
X2009Y2575D01*
X2009Y2578D01*
X2008Y2578D01*
X2008Y2580D01*
X2006Y2580D01*
X2006Y2583D01*
X2004Y2583D01*
X2004Y2585D01*
X2003Y2585D01*
X2003Y2587D01*
X2001Y2587D01*
X2001Y2588D01*
X1999Y2588D01*
X1999Y2590D01*
X1996Y2590D01*
X1996Y2593D01*
X2006Y2593D01*
G37*
D02*
G36*
X2347Y2582D02*
X2347Y2580D01*
X2350Y2580D01*
X2350Y2577D01*
X2347Y2577D01*
X2347Y2575D01*
X2346Y2575D01*
X2346Y2574D01*
X2344Y2574D01*
X2344Y2570D01*
X2342Y2570D01*
X2342Y2567D01*
X2341Y2567D01*
X2341Y2565D01*
X2344Y2565D01*
X2344Y2562D01*
X2346Y2562D01*
X2346Y2559D01*
X2347Y2559D01*
X2347Y2557D01*
X2350Y2557D01*
X2350Y2556D01*
X2352Y2556D01*
X2352Y2554D01*
X2355Y2554D01*
X2355Y2552D01*
X2324Y2552D01*
X2324Y2556D01*
X2326Y2556D01*
X2326Y2559D01*
X2327Y2559D01*
X2327Y2565D01*
X2329Y2565D01*
X2329Y2570D01*
X2331Y2570D01*
X2331Y2574D01*
X2332Y2574D01*
X2332Y2575D01*
X2336Y2575D01*
X2336Y2577D01*
X2337Y2577D01*
X2337Y2578D01*
X2341Y2578D01*
X2341Y2580D01*
X2344Y2580D01*
X2344Y2582D01*
X2347Y2582D01*
G37*
D02*
G36*
X2378Y2578D02*
X2378Y2577D01*
X2382Y2577D01*
X2382Y2575D01*
X2383Y2575D01*
X2383Y2574D01*
X2385Y2574D01*
X2385Y2572D01*
X2387Y2572D01*
X2387Y2570D01*
X2388Y2570D01*
X2388Y2567D01*
X2390Y2567D01*
X2390Y2564D01*
X2391Y2564D01*
X2391Y2554D01*
X2393Y2554D01*
X2393Y2552D01*
X2372Y2552D01*
X2372Y2554D01*
X2378Y2554D01*
X2378Y2557D01*
X2382Y2557D01*
X2382Y2560D01*
X2380Y2560D01*
X2380Y2562D01*
X2382Y2562D01*
X2382Y2564D01*
X2378Y2564D01*
X2378Y2567D01*
X2377Y2567D01*
X2377Y2569D01*
X2375Y2569D01*
X2375Y2570D01*
X2372Y2570D01*
X2372Y2574D01*
X2370Y2574D01*
X2370Y2577D01*
X2372Y2577D01*
X2372Y2578D01*
X2378Y2578D01*
G37*
D02*
G36*
X2085Y2559D02*
X2085Y2549D01*
X2083Y2549D01*
X2083Y2534D01*
X2081Y2534D01*
X2081Y2533D01*
X2083Y2533D01*
X2083Y2531D01*
X2081Y2531D01*
X2081Y2526D01*
X2080Y2526D01*
X2080Y2523D01*
X2078Y2523D01*
X2078Y2519D01*
X2076Y2519D01*
X2076Y2518D01*
X2078Y2518D01*
X2078Y2515D01*
X2076Y2515D01*
X2076Y2511D01*
X2078Y2511D01*
X2078Y2510D01*
X2081Y2510D01*
X2081Y2508D01*
X2085Y2508D01*
X2085Y2506D01*
X2086Y2506D01*
X2086Y2505D01*
X2088Y2505D01*
X2088Y2503D01*
X2068Y2503D01*
X2068Y2501D01*
X2067Y2501D01*
X2067Y2500D01*
X2065Y2500D01*
X2065Y2496D01*
X2063Y2496D01*
X2063Y2495D01*
X2062Y2495D01*
X2062Y2493D01*
X2049Y2493D01*
X2049Y2495D01*
X2050Y2495D01*
X2050Y2496D01*
X2054Y2496D01*
X2054Y2498D01*
X2055Y2498D01*
X2055Y2500D01*
X2057Y2500D01*
X2057Y2501D01*
X2058Y2501D01*
X2058Y2503D01*
X2060Y2503D01*
X2060Y2505D01*
X2062Y2505D01*
X2062Y2508D01*
X2063Y2508D01*
X2063Y2511D01*
X2062Y2511D01*
X2062Y2516D01*
X2063Y2516D01*
X2063Y2518D01*
X2070Y2518D01*
X2070Y2519D01*
X2072Y2519D01*
X2072Y2524D01*
X2073Y2524D01*
X2073Y2528D01*
X2075Y2528D01*
X2075Y2533D01*
X2076Y2533D01*
X2076Y2559D01*
X2085Y2559D01*
G37*
D02*
G36*
X2016Y2559D02*
X2016Y2557D01*
X2017Y2557D01*
X2017Y2556D01*
X2011Y2556D01*
X2011Y2559D01*
X2016Y2559D01*
G37*
D02*
G36*
X2004Y2559D02*
X2004Y2557D01*
X1993Y2557D01*
X1993Y2559D01*
X2004Y2559D01*
G37*
D02*
G36*
X2008Y2557D02*
X2008Y2556D01*
X1983Y2556D01*
X1983Y2557D01*
X2008Y2557D01*
G37*
D02*
G36*
X2008Y2557D02*
X2008Y2556D01*
X1983Y2556D01*
X1983Y2557D01*
X2008Y2557D01*
G37*
D02*
G36*
X2068Y2556D02*
X2068Y2554D01*
X2031Y2554D01*
X2031Y2556D01*
X2068Y2556D01*
G37*
D02*
G36*
X2068Y2556D02*
X2068Y2554D01*
X2031Y2554D01*
X2031Y2556D01*
X2068Y2556D01*
G37*
D02*
G36*
X2017Y2556D02*
X2017Y2554D01*
X1998Y2554D01*
X1998Y2556D01*
X2017Y2556D01*
G37*
D02*
G36*
X2017Y2556D02*
X2017Y2554D01*
X1998Y2554D01*
X1998Y2556D01*
X2017Y2556D01*
G37*
D02*
G36*
X1991Y2556D02*
X1991Y2552D01*
X1993Y2552D01*
X1993Y2551D01*
X1994Y2551D01*
X1994Y2549D01*
X1996Y2549D01*
X1996Y2547D01*
X1998Y2547D01*
X1998Y2546D01*
X2003Y2546D01*
X2003Y2544D01*
X2004Y2544D01*
X2004Y2541D01*
X2006Y2541D01*
X2006Y2537D01*
X1993Y2537D01*
X1993Y2534D01*
X1994Y2534D01*
X1994Y2533D01*
X1993Y2533D01*
X1993Y2531D01*
X1994Y2531D01*
X1994Y2528D01*
X1996Y2528D01*
X1996Y2524D01*
X1998Y2524D01*
X1998Y2523D01*
X2001Y2523D01*
X2001Y2521D01*
X2004Y2521D01*
X2004Y2519D01*
X2006Y2519D01*
X2006Y2518D01*
X2008Y2518D01*
X2008Y2515D01*
X2009Y2515D01*
X2009Y2513D01*
X2011Y2513D01*
X2011Y2511D01*
X2013Y2511D01*
X2013Y2510D01*
X2016Y2510D01*
X2016Y2508D01*
X2017Y2508D01*
X2017Y2505D01*
X2021Y2505D01*
X2021Y2503D01*
X2022Y2503D01*
X2022Y2501D01*
X2026Y2501D01*
X2026Y2500D01*
X2027Y2500D01*
X2027Y2498D01*
X2029Y2498D01*
X2029Y2496D01*
X2031Y2496D01*
X2031Y2495D01*
X2034Y2495D01*
X2034Y2493D01*
X2019Y2493D01*
X2019Y2495D01*
X2017Y2495D01*
X2017Y2498D01*
X2014Y2498D01*
X2014Y2501D01*
X2011Y2501D01*
X2011Y2503D01*
X2009Y2503D01*
X2009Y2505D01*
X2008Y2505D01*
X2008Y2506D01*
X2006Y2506D01*
X2006Y2508D01*
X2004Y2508D01*
X2004Y2510D01*
X2003Y2510D01*
X2003Y2511D01*
X1999Y2511D01*
X1999Y2513D01*
X1996Y2513D01*
X1996Y2515D01*
X1994Y2515D01*
X1994Y2518D01*
X1993Y2518D01*
X1993Y2519D01*
X1991Y2519D01*
X1991Y2523D01*
X1990Y2523D01*
X1990Y2524D01*
X1988Y2524D01*
X1988Y2526D01*
X1986Y2526D01*
X1986Y2531D01*
X1985Y2531D01*
X1985Y2533D01*
X1986Y2533D01*
X1986Y2539D01*
X1985Y2539D01*
X1985Y2546D01*
X1983Y2546D01*
X1983Y2547D01*
X1985Y2547D01*
X1985Y2551D01*
X1983Y2551D01*
X1983Y2556D01*
X1991Y2556D01*
G37*
D02*
G36*
X2065Y2554D02*
X2065Y2552D01*
X2060Y2552D01*
X2060Y2551D01*
X2057Y2551D01*
X2057Y2549D01*
X2055Y2549D01*
X2055Y2547D01*
X2052Y2547D01*
X2052Y2546D01*
X2050Y2546D01*
X2050Y2544D01*
X2049Y2544D01*
X2049Y2539D01*
X2047Y2539D01*
X2047Y2534D01*
X2049Y2534D01*
X2049Y2533D01*
X2047Y2533D01*
X2047Y2521D01*
X2049Y2521D01*
X2049Y2519D01*
X2047Y2519D01*
X2047Y2510D01*
X2045Y2510D01*
X2045Y2495D01*
X2047Y2495D01*
X2047Y2493D01*
X2035Y2493D01*
X2035Y2496D01*
X2037Y2496D01*
X2037Y2501D01*
X2039Y2501D01*
X2039Y2503D01*
X2037Y2503D01*
X2037Y2506D01*
X2039Y2506D01*
X2039Y2516D01*
X2040Y2516D01*
X2040Y2544D01*
X2039Y2544D01*
X2039Y2549D01*
X2037Y2549D01*
X2037Y2551D01*
X2035Y2551D01*
X2035Y2552D01*
X2034Y2552D01*
X2034Y2554D01*
X2065Y2554D01*
G37*
D02*
G36*
X2019Y2554D02*
X2019Y2552D01*
X2022Y2552D01*
X2022Y2551D01*
X2024Y2551D01*
X2024Y2549D01*
X2026Y2549D01*
X2026Y2547D01*
X2024Y2547D01*
X2024Y2546D01*
X2019Y2546D01*
X2019Y2547D01*
X2016Y2547D01*
X2016Y2549D01*
X2014Y2549D01*
X2014Y2551D01*
X2013Y2551D01*
X2013Y2552D01*
X2011Y2552D01*
X2011Y2554D01*
X2019Y2554D01*
G37*
D02*
G36*
X2009Y2554D02*
X2009Y2552D01*
X2008Y2552D01*
X2008Y2551D01*
X2003Y2551D01*
X2003Y2552D01*
X1999Y2552D01*
X1999Y2554D01*
X2009Y2554D01*
G37*
D02*
G36*
X2393Y2552D02*
X2393Y2551D01*
X2324Y2551D01*
X2324Y2552D01*
X2393Y2552D01*
G37*
D02*
G36*
X2393Y2552D02*
X2393Y2551D01*
X2324Y2551D01*
X2324Y2552D01*
X2393Y2552D01*
G37*
D02*
G36*
X2391Y2551D02*
X2391Y2547D01*
X2390Y2547D01*
X2390Y2546D01*
X2391Y2546D01*
X2391Y2544D01*
X2331Y2544D01*
X2331Y2539D01*
X2329Y2539D01*
X2329Y2537D01*
X2327Y2537D01*
X2327Y2533D01*
X2326Y2533D01*
X2326Y2528D01*
X2324Y2528D01*
X2324Y2523D01*
X2323Y2523D01*
X2323Y2519D01*
X2321Y2519D01*
X2321Y2516D01*
X2319Y2516D01*
X2319Y2513D01*
X2318Y2513D01*
X2318Y2506D01*
X2316Y2506D01*
X2316Y2503D01*
X2314Y2503D01*
X2314Y2496D01*
X2313Y2496D01*
X2313Y2492D01*
X2311Y2492D01*
X2311Y2487D01*
X2296Y2487D01*
X2296Y2485D01*
X2290Y2485D01*
X2290Y2483D01*
X2257Y2483D01*
X2257Y2485D01*
X2267Y2485D01*
X2267Y2487D01*
X2277Y2487D01*
X2277Y2488D01*
X2283Y2488D01*
X2283Y2490D01*
X2288Y2490D01*
X2288Y2492D01*
X2291Y2492D01*
X2291Y2493D01*
X2296Y2493D01*
X2296Y2495D01*
X2300Y2495D01*
X2300Y2496D01*
X2303Y2496D01*
X2303Y2500D01*
X2305Y2500D01*
X2305Y2501D01*
X2306Y2501D01*
X2306Y2506D01*
X2308Y2506D01*
X2308Y2510D01*
X2309Y2510D01*
X2309Y2515D01*
X2311Y2515D01*
X2311Y2519D01*
X2313Y2519D01*
X2313Y2524D01*
X2314Y2524D01*
X2314Y2526D01*
X2316Y2526D01*
X2316Y2533D01*
X2318Y2533D01*
X2318Y2537D01*
X2319Y2537D01*
X2319Y2542D01*
X2321Y2542D01*
X2321Y2544D01*
X2323Y2544D01*
X2323Y2549D01*
X2324Y2549D01*
X2324Y2551D01*
X2391Y2551D01*
G37*
D02*
G36*
X2390Y2544D02*
X2390Y2541D01*
X2341Y2541D01*
X2341Y2539D01*
X2339Y2539D01*
X2339Y2541D01*
X2337Y2541D01*
X2337Y2542D01*
X2334Y2542D01*
X2334Y2544D01*
X2390Y2544D01*
G37*
D02*
G36*
X2390Y2541D02*
X2390Y2537D01*
X2388Y2537D01*
X2388Y2534D01*
X2387Y2534D01*
X2387Y2529D01*
X2385Y2529D01*
X2385Y2528D01*
X2383Y2528D01*
X2383Y2523D01*
X2382Y2523D01*
X2382Y2521D01*
X2380Y2521D01*
X2380Y2516D01*
X2378Y2516D01*
X2378Y2511D01*
X2377Y2511D01*
X2377Y2508D01*
X2375Y2508D01*
X2375Y2505D01*
X2373Y2505D01*
X2373Y2503D01*
X2375Y2503D01*
X2375Y2501D01*
X2378Y2501D01*
X2378Y2500D01*
X2382Y2500D01*
X2382Y2498D01*
X2383Y2498D01*
X2383Y2496D01*
X2385Y2496D01*
X2385Y2495D01*
X2387Y2495D01*
X2387Y2492D01*
X2388Y2492D01*
X2388Y2487D01*
X2370Y2487D01*
X2370Y2488D01*
X2373Y2488D01*
X2373Y2492D01*
X2368Y2492D01*
X2368Y2493D01*
X2364Y2493D01*
X2364Y2495D01*
X2362Y2495D01*
X2362Y2496D01*
X2360Y2496D01*
X2360Y2498D01*
X2359Y2498D01*
X2359Y2503D01*
X2360Y2503D01*
X2360Y2506D01*
X2364Y2506D01*
X2364Y2510D01*
X2365Y2510D01*
X2365Y2511D01*
X2367Y2511D01*
X2367Y2515D01*
X2368Y2515D01*
X2368Y2518D01*
X2370Y2518D01*
X2370Y2523D01*
X2372Y2523D01*
X2372Y2526D01*
X2373Y2526D01*
X2373Y2529D01*
X2372Y2529D01*
X2372Y2531D01*
X2367Y2531D01*
X2367Y2533D01*
X2357Y2533D01*
X2357Y2534D01*
X2352Y2534D01*
X2352Y2536D01*
X2349Y2536D01*
X2349Y2537D01*
X2346Y2537D01*
X2346Y2539D01*
X2342Y2539D01*
X2342Y2541D01*
X2390Y2541D01*
G37*
D02*
G36*
X2004Y2537D02*
X2004Y2536D01*
X1999Y2536D01*
X1999Y2537D01*
X2004Y2537D01*
G37*
D02*
G36*
X1998Y2537D02*
X1998Y2536D01*
X1996Y2536D01*
X1996Y2537D01*
X1998Y2537D01*
G37*
D02*
G36*
X2201Y2511D02*
X2201Y2510D01*
X2190Y2510D01*
X2190Y2511D01*
X2201Y2511D01*
G37*
D02*
G36*
X2186Y2511D02*
X2186Y2510D01*
X2172Y2510D01*
X2172Y2511D01*
X2186Y2511D01*
G37*
D02*
G36*
X2203Y2510D02*
X2203Y2508D01*
X2167Y2508D01*
X2167Y2510D01*
X2203Y2510D01*
G37*
D02*
G36*
X2203Y2510D02*
X2203Y2508D01*
X2167Y2508D01*
X2167Y2510D01*
X2203Y2510D01*
G37*
D02*
G36*
X2206Y2508D02*
X2206Y2506D01*
X2208Y2506D01*
X2208Y2505D01*
X2170Y2505D01*
X2170Y2503D01*
X2167Y2503D01*
X2167Y2501D01*
X2163Y2501D01*
X2163Y2498D01*
X2162Y2498D01*
X2162Y2496D01*
X2160Y2496D01*
X2160Y2495D01*
X2121Y2495D01*
X2121Y2496D01*
X2145Y2496D01*
X2145Y2498D01*
X2147Y2498D01*
X2147Y2500D01*
X2149Y2500D01*
X2149Y2501D01*
X2152Y2501D01*
X2152Y2503D01*
X2155Y2503D01*
X2155Y2505D01*
X2159Y2505D01*
X2159Y2506D01*
X2160Y2506D01*
X2160Y2508D01*
X2206Y2508D01*
G37*
D02*
G36*
X2211Y2505D02*
X2211Y2503D01*
X2196Y2503D01*
X2196Y2496D01*
X2200Y2496D01*
X2200Y2493D01*
X2201Y2493D01*
X2201Y2490D01*
X2203Y2490D01*
X2203Y2487D01*
X2201Y2487D01*
X2201Y2485D01*
X2196Y2485D01*
X2196Y2483D01*
X2190Y2483D01*
X2190Y2482D01*
X2188Y2482D01*
X2188Y2480D01*
X2186Y2480D01*
X2186Y2473D01*
X2177Y2473D01*
X2177Y2487D01*
X2178Y2487D01*
X2178Y2488D01*
X2181Y2488D01*
X2181Y2490D01*
X2185Y2490D01*
X2185Y2492D01*
X2188Y2492D01*
X2188Y2495D01*
X2186Y2495D01*
X2186Y2496D01*
X2185Y2496D01*
X2185Y2500D01*
X2183Y2500D01*
X2183Y2503D01*
X2181Y2503D01*
X2181Y2505D01*
X2211Y2505D01*
G37*
D02*
G36*
X2213Y2503D02*
X2213Y2501D01*
X2214Y2501D01*
X2214Y2500D01*
X2216Y2500D01*
X2216Y2496D01*
X2218Y2496D01*
X2218Y2493D01*
X2219Y2493D01*
X2219Y2492D01*
X2221Y2492D01*
X2221Y2490D01*
X2222Y2490D01*
X2222Y2488D01*
X2224Y2488D01*
X2224Y2487D01*
X2226Y2487D01*
X2226Y2485D01*
X2229Y2485D01*
X2229Y2483D01*
X2218Y2483D01*
X2218Y2485D01*
X2216Y2485D01*
X2216Y2490D01*
X2214Y2490D01*
X2214Y2492D01*
X2211Y2492D01*
X2211Y2493D01*
X2209Y2493D01*
X2209Y2495D01*
X2208Y2495D01*
X2208Y2496D01*
X2206Y2496D01*
X2206Y2500D01*
X2203Y2500D01*
X2203Y2501D01*
X2198Y2501D01*
X2198Y2503D01*
X2213Y2503D01*
G37*
D02*
G36*
X2091Y2503D02*
X2091Y2501D01*
X2095Y2501D01*
X2095Y2500D01*
X2098Y2500D01*
X2098Y2498D01*
X2106Y2498D01*
X2106Y2496D01*
X2113Y2496D01*
X2113Y2495D01*
X2086Y2495D01*
X2086Y2496D01*
X2085Y2496D01*
X2085Y2498D01*
X2081Y2498D01*
X2081Y2500D01*
X2078Y2500D01*
X2078Y2501D01*
X2075Y2501D01*
X2075Y2503D01*
X2091Y2503D01*
G37*
D02*
G36*
X2354Y2500D02*
X2354Y2498D01*
X2357Y2498D01*
X2357Y2493D01*
X2359Y2493D01*
X2359Y2492D01*
X2360Y2492D01*
X2360Y2488D01*
X2368Y2488D01*
X2368Y2487D01*
X2350Y2487D01*
X2350Y2488D01*
X2349Y2488D01*
X2349Y2490D01*
X2347Y2490D01*
X2347Y2498D01*
X2349Y2498D01*
X2349Y2500D01*
X2354Y2500D01*
G37*
D02*
G36*
X2155Y2495D02*
X2155Y2493D01*
X2090Y2493D01*
X2090Y2495D01*
X2155Y2495D01*
G37*
D02*
G36*
X2155Y2495D02*
X2155Y2493D01*
X2090Y2493D01*
X2090Y2495D01*
X2155Y2495D01*
G37*
D02*
G36*
X2155Y2493D02*
X2155Y2492D01*
X2154Y2492D01*
X2154Y2490D01*
X2119Y2490D01*
X2119Y2488D01*
X2106Y2488D01*
X2106Y2490D01*
X2099Y2490D01*
X2099Y2492D01*
X2095Y2492D01*
X2095Y2493D01*
X2155Y2493D01*
G37*
D02*
G36*
X2058Y2493D02*
X2058Y2492D01*
X2017Y2492D01*
X2017Y2493D01*
X2058Y2493D01*
G37*
D02*
G36*
X2058Y2493D02*
X2058Y2492D01*
X2017Y2492D01*
X2017Y2493D01*
X2058Y2493D01*
G37*
D02*
G36*
X2058Y2493D02*
X2058Y2492D01*
X2017Y2492D01*
X2017Y2493D01*
X2058Y2493D01*
G37*
D02*
G36*
X2058Y2492D02*
X2058Y2490D01*
X2057Y2490D01*
X2057Y2488D01*
X2024Y2488D01*
X2024Y2487D01*
X2022Y2487D01*
X2022Y2485D01*
X2021Y2485D01*
X2021Y2482D01*
X2019Y2482D01*
X2019Y2480D01*
X2017Y2480D01*
X2017Y2475D01*
X2016Y2475D01*
X2016Y2472D01*
X2014Y2472D01*
X2014Y2460D01*
X2016Y2460D01*
X2016Y2454D01*
X2017Y2454D01*
X2017Y2449D01*
X2019Y2449D01*
X2019Y2446D01*
X2021Y2446D01*
X2021Y2442D01*
X2022Y2442D01*
X2022Y2441D01*
X2024Y2441D01*
X2024Y2437D01*
X2026Y2437D01*
X2026Y2436D01*
X2027Y2436D01*
X2027Y2432D01*
X2016Y2432D01*
X2016Y2437D01*
X2014Y2437D01*
X2014Y2444D01*
X2013Y2444D01*
X2013Y2446D01*
X2011Y2446D01*
X2011Y2447D01*
X2009Y2447D01*
X2009Y2457D01*
X2008Y2457D01*
X2008Y2460D01*
X2006Y2460D01*
X2006Y2472D01*
X2008Y2472D01*
X2008Y2477D01*
X2009Y2477D01*
X2009Y2482D01*
X2011Y2482D01*
X2011Y2483D01*
X2013Y2483D01*
X2013Y2487D01*
X2014Y2487D01*
X2014Y2488D01*
X2016Y2488D01*
X2016Y2492D01*
X2058Y2492D01*
G37*
D02*
G36*
X2154Y2490D02*
X2154Y2487D01*
X2155Y2487D01*
X2155Y2483D01*
X2159Y2483D01*
X2159Y2480D01*
X2160Y2480D01*
X2160Y2478D01*
X2163Y2478D01*
X2163Y2477D01*
X2165Y2477D01*
X2165Y2475D01*
X2170Y2475D01*
X2170Y2473D01*
X2154Y2473D01*
X2154Y2475D01*
X2152Y2475D01*
X2152Y2477D01*
X2150Y2477D01*
X2150Y2478D01*
X2149Y2478D01*
X2149Y2482D01*
X2147Y2482D01*
X2147Y2485D01*
X2144Y2485D01*
X2144Y2488D01*
X2142Y2488D01*
X2142Y2490D01*
X2154Y2490D01*
G37*
D02*
G36*
X2055Y2488D02*
X2055Y2487D01*
X2052Y2487D01*
X2052Y2483D01*
X2044Y2483D01*
X2044Y2482D01*
X2034Y2482D01*
X2034Y2483D01*
X2031Y2483D01*
X2031Y2487D01*
X2026Y2487D01*
X2026Y2488D01*
X2055Y2488D01*
G37*
D02*
G36*
X2387Y2487D02*
X2387Y2485D01*
X2350Y2485D01*
X2350Y2487D01*
X2387Y2487D01*
G37*
D02*
G36*
X2387Y2487D02*
X2387Y2485D01*
X2350Y2485D01*
X2350Y2487D01*
X2387Y2487D01*
G37*
D02*
G36*
X2309Y2487D02*
X2309Y2483D01*
X2308Y2483D01*
X2308Y2475D01*
X2306Y2475D01*
X2306Y2470D01*
X2308Y2470D01*
X2308Y2467D01*
X2309Y2467D01*
X2309Y2465D01*
X2311Y2465D01*
X2311Y2464D01*
X2313Y2464D01*
X2313Y2462D01*
X2314Y2462D01*
X2314Y2460D01*
X2319Y2460D01*
X2319Y2459D01*
X2324Y2459D01*
X2324Y2457D01*
X2332Y2457D01*
X2332Y2455D01*
X2306Y2455D01*
X2306Y2457D01*
X2305Y2457D01*
X2305Y2459D01*
X2303Y2459D01*
X2303Y2462D01*
X2301Y2462D01*
X2301Y2464D01*
X2300Y2464D01*
X2300Y2465D01*
X2298Y2465D01*
X2298Y2470D01*
X2296Y2470D01*
X2296Y2472D01*
X2298Y2472D01*
X2298Y2475D01*
X2296Y2475D01*
X2296Y2478D01*
X2298Y2478D01*
X2298Y2487D01*
X2309Y2487D01*
G37*
D02*
G36*
X2385Y2485D02*
X2385Y2483D01*
X2382Y2483D01*
X2382Y2482D01*
X2373Y2482D01*
X2373Y2480D01*
X2364Y2480D01*
X2364Y2478D01*
X2360Y2478D01*
X2360Y2477D01*
X2359Y2477D01*
X2359Y2473D01*
X2357Y2473D01*
X2357Y2470D01*
X2355Y2470D01*
X2355Y2465D01*
X2354Y2465D01*
X2354Y2460D01*
X2352Y2460D01*
X2352Y2459D01*
X2350Y2459D01*
X2350Y2455D01*
X2341Y2455D01*
X2341Y2457D01*
X2342Y2457D01*
X2342Y2462D01*
X2344Y2462D01*
X2344Y2465D01*
X2346Y2465D01*
X2346Y2472D01*
X2347Y2472D01*
X2347Y2475D01*
X2349Y2475D01*
X2349Y2478D01*
X2350Y2478D01*
X2350Y2483D01*
X2352Y2483D01*
X2352Y2485D01*
X2385Y2485D01*
G37*
D02*
G36*
X2234Y2485D02*
X2234Y2483D01*
X2231Y2483D01*
X2231Y2485D01*
X2234Y2485D01*
G37*
D02*
G36*
X2285Y2483D02*
X2285Y2482D01*
X2219Y2482D01*
X2219Y2483D01*
X2285Y2483D01*
G37*
D02*
G36*
X2285Y2483D02*
X2285Y2482D01*
X2219Y2482D01*
X2219Y2483D01*
X2285Y2483D01*
G37*
D02*
G36*
X2285Y2483D02*
X2285Y2482D01*
X2219Y2482D01*
X2219Y2483D01*
X2285Y2483D01*
G37*
D02*
G36*
X2054Y2483D02*
X2054Y2480D01*
X2055Y2480D01*
X2055Y2465D01*
X2054Y2465D01*
X2054Y2464D01*
X2052Y2464D01*
X2052Y2462D01*
X2050Y2462D01*
X2050Y2460D01*
X2047Y2460D01*
X2047Y2457D01*
X2045Y2457D01*
X2045Y2455D01*
X2044Y2455D01*
X2044Y2454D01*
X2042Y2454D01*
X2042Y2451D01*
X2040Y2451D01*
X2040Y2439D01*
X2031Y2439D01*
X2031Y2446D01*
X2032Y2446D01*
X2032Y2452D01*
X2034Y2452D01*
X2034Y2455D01*
X2035Y2455D01*
X2035Y2459D01*
X2037Y2459D01*
X2037Y2460D01*
X2039Y2460D01*
X2039Y2462D01*
X2040Y2462D01*
X2040Y2464D01*
X2042Y2464D01*
X2042Y2465D01*
X2044Y2465D01*
X2044Y2467D01*
X2047Y2467D01*
X2047Y2472D01*
X2049Y2472D01*
X2049Y2477D01*
X2047Y2477D01*
X2047Y2483D01*
X2054Y2483D01*
G37*
D02*
G36*
X2377Y2482D02*
X2377Y2480D01*
X2375Y2480D01*
X2375Y2482D01*
X2377Y2482D01*
G37*
D02*
G36*
X2280Y2482D02*
X2280Y2480D01*
X2277Y2480D01*
X2277Y2478D01*
X2263Y2478D01*
X2263Y2477D01*
X2255Y2477D01*
X2255Y2475D01*
X2234Y2475D01*
X2234Y2473D01*
X2232Y2473D01*
X2232Y2470D01*
X2231Y2470D01*
X2231Y2464D01*
X2229Y2464D01*
X2229Y2462D01*
X2209Y2462D01*
X2209Y2464D01*
X2214Y2464D01*
X2214Y2465D01*
X2218Y2465D01*
X2218Y2467D01*
X2221Y2467D01*
X2221Y2469D01*
X2222Y2469D01*
X2222Y2473D01*
X2224Y2473D01*
X2224Y2478D01*
X2222Y2478D01*
X2222Y2480D01*
X2221Y2480D01*
X2221Y2482D01*
X2280Y2482D01*
G37*
D02*
G36*
X2190Y2473D02*
X2190Y2472D01*
X2157Y2472D01*
X2157Y2473D01*
X2190Y2473D01*
G37*
D02*
G36*
X2190Y2473D02*
X2190Y2472D01*
X2157Y2472D01*
X2157Y2473D01*
X2190Y2473D01*
G37*
D02*
G36*
X2191Y2472D02*
X2191Y2470D01*
X2193Y2470D01*
X2193Y2469D01*
X2195Y2469D01*
X2195Y2467D01*
X2196Y2467D01*
X2196Y2465D01*
X2201Y2465D01*
X2201Y2464D01*
X2167Y2464D01*
X2167Y2465D01*
X2165Y2465D01*
X2165Y2467D01*
X2163Y2467D01*
X2163Y2469D01*
X2162Y2469D01*
X2162Y2470D01*
X2160Y2470D01*
X2160Y2472D01*
X2191Y2472D01*
G37*
D02*
G36*
X2204Y2465D02*
X2204Y2464D01*
X2203Y2464D01*
X2203Y2465D01*
X2204Y2465D01*
G37*
D02*
G36*
X2206Y2464D02*
X2206Y2462D01*
X2183Y2462D01*
X2183Y2464D01*
X2206Y2464D01*
G37*
D02*
G36*
X2206Y2464D02*
X2206Y2462D01*
X2183Y2462D01*
X2183Y2464D01*
X2206Y2464D01*
G37*
D02*
G36*
X2226Y2462D02*
X2226Y2460D01*
X2188Y2460D01*
X2188Y2462D01*
X2226Y2462D01*
G37*
D02*
G36*
X2226Y2462D02*
X2226Y2460D01*
X2188Y2460D01*
X2188Y2462D01*
X2226Y2462D01*
G37*
D02*
G36*
X2221Y2460D02*
X2221Y2459D01*
X2218Y2459D01*
X2218Y2457D01*
X2216Y2457D01*
X2216Y2455D01*
X2213Y2455D01*
X2213Y2454D01*
X2201Y2454D01*
X2201Y2457D01*
X2196Y2457D01*
X2196Y2459D01*
X2190Y2459D01*
X2190Y2460D01*
X2221Y2460D01*
G37*
D02*
G36*
X2349Y2455D02*
X2349Y2454D01*
X2308Y2454D01*
X2308Y2455D01*
X2349Y2455D01*
G37*
D02*
G36*
X2349Y2455D02*
X2349Y2454D01*
X2308Y2454D01*
X2308Y2455D01*
X2349Y2455D01*
G37*
D02*
G36*
X2346Y2454D02*
X2346Y2447D01*
X2324Y2447D01*
X2324Y2446D01*
X2323Y2446D01*
X2323Y2442D01*
X2321Y2442D01*
X2321Y2441D01*
X2323Y2441D01*
X2323Y2431D01*
X2321Y2431D01*
X2321Y2419D01*
X2323Y2419D01*
X2323Y2416D01*
X2324Y2416D01*
X2324Y2413D01*
X2314Y2413D01*
X2314Y2414D01*
X2313Y2414D01*
X2313Y2418D01*
X2311Y2418D01*
X2311Y2426D01*
X2309Y2426D01*
X2309Y2428D01*
X2311Y2428D01*
X2311Y2442D01*
X2313Y2442D01*
X2313Y2452D01*
X2309Y2452D01*
X2309Y2454D01*
X2346Y2454D01*
G37*
D02*
G36*
X2344Y2447D02*
X2344Y2446D01*
X2336Y2446D01*
X2336Y2444D01*
X2332Y2444D01*
X2332Y2447D01*
X2344Y2447D01*
G37*
D02*
G36*
X2072Y2442D02*
X2072Y2441D01*
X2075Y2441D01*
X2075Y2439D01*
X2044Y2439D01*
X2044Y2441D01*
X2058Y2441D01*
X2058Y2442D01*
X2072Y2442D01*
G37*
D02*
G36*
X1996Y2441D02*
X1996Y2439D01*
X1999Y2439D01*
X1999Y2437D01*
X2006Y2437D01*
X2006Y2436D01*
X2009Y2436D01*
X2009Y2434D01*
X2013Y2434D01*
X2013Y2432D01*
X1990Y2432D01*
X1990Y2429D01*
X1988Y2429D01*
X1988Y2428D01*
X1990Y2428D01*
X1990Y2424D01*
X1994Y2424D01*
X1994Y2423D01*
X1998Y2423D01*
X1998Y2421D01*
X1981Y2421D01*
X1981Y2428D01*
X1980Y2428D01*
X1980Y2432D01*
X1981Y2432D01*
X1981Y2436D01*
X1983Y2436D01*
X1983Y2437D01*
X1985Y2437D01*
X1985Y2439D01*
X1986Y2439D01*
X1986Y2441D01*
X1996Y2441D01*
G37*
D02*
G36*
X2075Y2439D02*
X2075Y2437D01*
X2031Y2437D01*
X2031Y2439D01*
X2075Y2439D01*
G37*
D02*
G36*
X2075Y2439D02*
X2075Y2437D01*
X2031Y2437D01*
X2031Y2439D01*
X2075Y2439D01*
G37*
D02*
G36*
X2075Y2437D02*
X2075Y2434D01*
X2052Y2434D01*
X2052Y2432D01*
X2055Y2432D01*
X2055Y2431D01*
X2032Y2431D01*
X2032Y2436D01*
X2031Y2436D01*
X2031Y2437D01*
X2075Y2437D01*
G37*
D02*
G36*
X2075Y2434D02*
X2075Y2431D01*
X2060Y2431D01*
X2060Y2432D01*
X2062Y2432D01*
X2062Y2434D01*
X2075Y2434D01*
G37*
D02*
G36*
X2029Y2432D02*
X2029Y2431D01*
X1998Y2431D01*
X1998Y2432D01*
X2029Y2432D01*
G37*
D02*
G36*
X2029Y2432D02*
X2029Y2431D01*
X1998Y2431D01*
X1998Y2432D01*
X2029Y2432D01*
G37*
D02*
G36*
X2073Y2431D02*
X2073Y2429D01*
X2034Y2429D01*
X2034Y2431D01*
X2073Y2431D01*
G37*
D02*
G36*
X2073Y2431D02*
X2073Y2429D01*
X2034Y2429D01*
X2034Y2431D01*
X2073Y2431D01*
G37*
D02*
G36*
X2029Y2431D02*
X2029Y2421D01*
X2011Y2421D01*
X2011Y2424D01*
X2008Y2424D01*
X2008Y2426D01*
X2006Y2426D01*
X2006Y2428D01*
X2003Y2428D01*
X2003Y2429D01*
X1999Y2429D01*
X1999Y2431D01*
X2029Y2431D01*
G37*
D02*
G36*
X2072Y2429D02*
X2072Y2428D01*
X2070Y2428D01*
X2070Y2426D01*
X2068Y2426D01*
X2068Y2424D01*
X2063Y2424D01*
X2063Y2423D01*
X2049Y2423D01*
X2049Y2424D01*
X2044Y2424D01*
X2044Y2426D01*
X2039Y2426D01*
X2039Y2428D01*
X2037Y2428D01*
X2037Y2429D01*
X2072Y2429D01*
G37*
D02*
G36*
X2001Y2423D02*
X2001Y2421D01*
X1999Y2421D01*
X1999Y2423D01*
X2001Y2423D01*
G37*
D02*
G36*
X2364Y2421D02*
X2364Y2419D01*
X2367Y2419D01*
X2367Y2418D01*
X2370Y2418D01*
X2370Y2414D01*
X2372Y2414D01*
X2372Y2405D01*
X2357Y2405D01*
X2357Y2406D01*
X2359Y2406D01*
X2359Y2408D01*
X2360Y2408D01*
X2360Y2410D01*
X2362Y2410D01*
X2362Y2411D01*
X2360Y2411D01*
X2360Y2413D01*
X2332Y2413D01*
X2332Y2414D01*
X2337Y2414D01*
X2337Y2416D01*
X2342Y2416D01*
X2342Y2418D01*
X2346Y2418D01*
X2346Y2419D01*
X2352Y2419D01*
X2352Y2421D01*
X2364Y2421D01*
G37*
D02*
G36*
X2027Y2421D02*
X2027Y2419D01*
X1983Y2419D01*
X1983Y2421D01*
X2027Y2421D01*
G37*
D02*
G36*
X2027Y2421D02*
X2027Y2419D01*
X1983Y2419D01*
X1983Y2421D01*
X2027Y2421D01*
G37*
D02*
G36*
X2027Y2421D02*
X2027Y2419D01*
X1983Y2419D01*
X1983Y2421D01*
X2027Y2421D01*
G37*
D02*
G36*
X2024Y2419D02*
X2024Y2418D01*
X2022Y2418D01*
X2022Y2416D01*
X2017Y2416D01*
X2017Y2414D01*
X2001Y2414D01*
X2001Y2413D01*
X1999Y2413D01*
X1999Y2414D01*
X1993Y2414D01*
X1993Y2416D01*
X1990Y2416D01*
X1990Y2418D01*
X1985Y2418D01*
X1985Y2419D01*
X2024Y2419D01*
G37*
D02*
G36*
X2352Y2413D02*
X2352Y2411D01*
X2314Y2411D01*
X2314Y2413D01*
X2352Y2413D01*
G37*
D02*
G36*
X2352Y2413D02*
X2352Y2411D01*
X2314Y2411D01*
X2314Y2413D01*
X2352Y2413D01*
G37*
D02*
G36*
X2350Y2411D02*
X2350Y2410D01*
X2347Y2410D01*
X2347Y2408D01*
X2346Y2408D01*
X2346Y2406D01*
X2342Y2406D01*
X2342Y2405D01*
X2334Y2405D01*
X2334Y2403D01*
X2332Y2403D01*
X2332Y2401D01*
X2331Y2401D01*
X2331Y2400D01*
X2332Y2400D01*
X2332Y2398D01*
X2334Y2398D01*
X2334Y2396D01*
X2323Y2396D01*
X2323Y2398D01*
X2321Y2398D01*
X2321Y2400D01*
X2319Y2400D01*
X2319Y2401D01*
X2321Y2401D01*
X2321Y2403D01*
X2319Y2403D01*
X2319Y2405D01*
X2318Y2405D01*
X2318Y2408D01*
X2316Y2408D01*
X2316Y2410D01*
X2314Y2410D01*
X2314Y2411D01*
X2350Y2411D01*
G37*
D02*
G36*
X2355Y2406D02*
X2355Y2405D01*
X2354Y2405D01*
X2354Y2406D01*
X2355Y2406D01*
G37*
D02*
G36*
X2370Y2405D02*
X2370Y2403D01*
X2354Y2403D01*
X2354Y2405D01*
X2370Y2405D01*
G37*
D02*
G36*
X2370Y2405D02*
X2370Y2403D01*
X2354Y2403D01*
X2354Y2405D01*
X2370Y2405D01*
G37*
D02*
G36*
X2368Y2403D02*
X2368Y2401D01*
X2365Y2401D01*
X2365Y2400D01*
X2364Y2400D01*
X2364Y2398D01*
X2359Y2398D01*
X2359Y2396D01*
X2341Y2396D01*
X2341Y2398D01*
X2346Y2398D01*
X2346Y2400D01*
X2350Y2400D01*
X2350Y2401D01*
X2352Y2401D01*
X2352Y2403D01*
X2368Y2403D01*
G37*
D02*
G36*
X2355Y2396D02*
X2355Y2395D01*
X2323Y2395D01*
X2323Y2396D01*
X2355Y2396D01*
G37*
D02*
G36*
X2355Y2396D02*
X2355Y2395D01*
X2323Y2395D01*
X2323Y2396D01*
X2355Y2396D01*
G37*
D02*
G36*
X2352Y2395D02*
X2352Y2393D01*
X2349Y2393D01*
X2349Y2391D01*
X2347Y2391D01*
X2347Y2390D01*
X2342Y2390D01*
X2342Y2388D01*
X2329Y2388D01*
X2329Y2390D01*
X2326Y2390D01*
X2326Y2391D01*
X2324Y2391D01*
X2324Y2393D01*
X2323Y2393D01*
X2323Y2395D01*
X2352Y2395D01*
G37*
D02*
G54D12*
X302Y2696D02*
X308Y2696D01*
X1353Y2696D02*
X1359Y2696D01*
X302Y2695D02*
X309Y2695D01*
X1352Y2695D02*
X1360Y2695D01*
X214Y2694D02*
X229Y2694D01*
X301Y2694D02*
X309Y2694D01*
X338Y2694D02*
X357Y2694D01*
X382Y2694D02*
X401Y2694D01*
X425Y2694D02*
X448Y2694D01*
X467Y2694D02*
X467Y2694D01*
X518Y2694D02*
X537Y2694D01*
X554Y2694D02*
X565Y2694D01*
X603Y2694D02*
X625Y2694D01*
X841Y2694D02*
X842Y2694D01*
X910Y2694D02*
X931Y2694D01*
X948Y2694D02*
X949Y2694D01*
X1191Y2694D02*
X1192Y2694D01*
X1279Y2694D02*
X1279Y2694D01*
X1352Y2694D02*
X1360Y2694D01*
X214Y2693D02*
X230Y2693D01*
X301Y2693D02*
X309Y2693D01*
X336Y2693D02*
X359Y2693D01*
X380Y2693D02*
X403Y2693D01*
X423Y2693D02*
X449Y2693D01*
X465Y2693D02*
X469Y2693D01*
X515Y2693D02*
X537Y2693D01*
X553Y2693D02*
X568Y2693D01*
X601Y2693D02*
X625Y2693D01*
X839Y2693D02*
X843Y2693D01*
X907Y2693D02*
X931Y2693D01*
X947Y2693D02*
X950Y2693D01*
X1190Y2693D02*
X1193Y2693D01*
X1277Y2693D02*
X1281Y2693D01*
X1352Y2693D02*
X1360Y2693D01*
X214Y2692D02*
X231Y2692D01*
X301Y2692D02*
X309Y2692D01*
X335Y2692D02*
X361Y2692D01*
X378Y2692D02*
X404Y2692D01*
X422Y2692D02*
X450Y2692D01*
X465Y2692D02*
X470Y2692D01*
X514Y2692D02*
X537Y2692D01*
X552Y2692D02*
X569Y2692D01*
X599Y2692D02*
X625Y2692D01*
X839Y2692D02*
X844Y2692D01*
X906Y2692D02*
X931Y2692D01*
X946Y2692D02*
X951Y2692D01*
X1189Y2692D02*
X1194Y2692D01*
X1277Y2692D02*
X1281Y2692D01*
X1352Y2692D02*
X1360Y2692D01*
X214Y2691D02*
X231Y2691D01*
X301Y2691D02*
X309Y2691D01*
X334Y2691D02*
X361Y2691D01*
X378Y2691D02*
X405Y2691D01*
X421Y2691D02*
X450Y2691D01*
X464Y2691D02*
X470Y2691D01*
X512Y2691D02*
X537Y2691D01*
X552Y2691D02*
X570Y2691D01*
X598Y2691D02*
X625Y2691D01*
X839Y2691D02*
X844Y2691D01*
X904Y2691D02*
X931Y2691D01*
X946Y2691D02*
X952Y2691D01*
X1189Y2691D02*
X1194Y2691D01*
X1276Y2691D02*
X1281Y2691D01*
X1315Y2691D02*
X1318Y2691D01*
X1352Y2691D02*
X1360Y2691D01*
X214Y2690D02*
X231Y2690D01*
X302Y2690D02*
X309Y2690D01*
X333Y2690D02*
X362Y2690D01*
X377Y2690D02*
X406Y2690D01*
X421Y2690D02*
X450Y2690D01*
X465Y2690D02*
X471Y2690D01*
X511Y2690D02*
X537Y2690D01*
X552Y2690D02*
X571Y2690D01*
X597Y2690D02*
X625Y2690D01*
X839Y2690D02*
X844Y2690D01*
X904Y2690D02*
X931Y2690D01*
X946Y2690D02*
X952Y2690D01*
X1189Y2690D02*
X1194Y2690D01*
X1276Y2690D02*
X1282Y2690D01*
X1315Y2690D02*
X1319Y2690D01*
X1352Y2690D02*
X1360Y2690D01*
X214Y2689D02*
X230Y2689D01*
X302Y2689D02*
X309Y2689D01*
X333Y2689D02*
X362Y2689D01*
X377Y2689D02*
X406Y2689D01*
X421Y2689D02*
X449Y2689D01*
X465Y2689D02*
X471Y2689D01*
X511Y2689D02*
X537Y2689D01*
X553Y2689D02*
X572Y2689D01*
X597Y2689D02*
X625Y2689D01*
X839Y2689D02*
X844Y2689D01*
X903Y2689D02*
X931Y2689D01*
X947Y2689D02*
X953Y2689D01*
X1189Y2689D02*
X1194Y2689D01*
X1276Y2689D02*
X1282Y2689D01*
X1314Y2689D02*
X1319Y2689D01*
X1353Y2689D02*
X1359Y2689D01*
X214Y2688D02*
X219Y2688D01*
X333Y2688D02*
X339Y2688D01*
X357Y2688D02*
X362Y2688D01*
X377Y2688D02*
X382Y2688D01*
X400Y2688D02*
X406Y2688D01*
X421Y2688D02*
X426Y2688D01*
X466Y2688D02*
X472Y2688D01*
X510Y2688D02*
X519Y2688D01*
X532Y2688D02*
X537Y2688D01*
X564Y2688D02*
X572Y2688D01*
X596Y2688D02*
X604Y2688D01*
X619Y2688D02*
X625Y2688D01*
X839Y2688D02*
X844Y2688D01*
X903Y2688D02*
X910Y2688D01*
X926Y2688D02*
X931Y2688D01*
X947Y2688D02*
X953Y2688D01*
X1189Y2688D02*
X1194Y2688D01*
X1276Y2688D02*
X1282Y2688D01*
X1314Y2688D02*
X1319Y2688D01*
X214Y2687D02*
X219Y2687D01*
X333Y2687D02*
X338Y2687D01*
X357Y2687D02*
X362Y2687D01*
X377Y2687D02*
X382Y2687D01*
X401Y2687D02*
X406Y2687D01*
X421Y2687D02*
X426Y2687D01*
X466Y2687D02*
X472Y2687D01*
X509Y2687D02*
X516Y2687D01*
X532Y2687D02*
X537Y2687D01*
X566Y2687D02*
X573Y2687D01*
X596Y2687D02*
X602Y2687D01*
X620Y2687D02*
X625Y2687D01*
X839Y2687D02*
X844Y2687D01*
X902Y2687D02*
X908Y2687D01*
X926Y2687D02*
X931Y2687D01*
X948Y2687D02*
X954Y2687D01*
X1189Y2687D02*
X1194Y2687D01*
X1276Y2687D02*
X1282Y2687D01*
X1314Y2687D02*
X1319Y2687D01*
X214Y2686D02*
X219Y2686D01*
X333Y2686D02*
X338Y2686D01*
X357Y2686D02*
X362Y2686D01*
X377Y2686D02*
X382Y2686D01*
X401Y2686D02*
X406Y2686D01*
X421Y2686D02*
X426Y2686D01*
X467Y2686D02*
X473Y2686D01*
X509Y2686D02*
X515Y2686D01*
X532Y2686D02*
X537Y2686D01*
X567Y2686D02*
X574Y2686D01*
X596Y2686D02*
X601Y2686D01*
X620Y2686D02*
X625Y2686D01*
X839Y2686D02*
X844Y2686D01*
X902Y2686D02*
X907Y2686D01*
X926Y2686D02*
X931Y2686D01*
X948Y2686D02*
X955Y2686D01*
X1189Y2686D02*
X1194Y2686D01*
X1276Y2686D02*
X1282Y2686D01*
X1314Y2686D02*
X1319Y2686D01*
X214Y2685D02*
X219Y2685D01*
X333Y2685D02*
X338Y2685D01*
X357Y2685D02*
X362Y2685D01*
X377Y2685D02*
X382Y2685D01*
X401Y2685D02*
X406Y2685D01*
X421Y2685D02*
X426Y2685D01*
X467Y2685D02*
X474Y2685D01*
X509Y2685D02*
X514Y2685D01*
X532Y2685D02*
X537Y2685D01*
X568Y2685D02*
X575Y2685D01*
X596Y2685D02*
X601Y2685D01*
X620Y2685D02*
X625Y2685D01*
X839Y2685D02*
X844Y2685D01*
X902Y2685D02*
X907Y2685D01*
X926Y2685D02*
X931Y2685D01*
X949Y2685D02*
X955Y2685D01*
X1189Y2685D02*
X1194Y2685D01*
X1276Y2685D02*
X1282Y2685D01*
X1314Y2685D02*
X1319Y2685D01*
X214Y2684D02*
X219Y2684D01*
X333Y2684D02*
X338Y2684D01*
X357Y2684D02*
X362Y2684D01*
X377Y2684D02*
X382Y2684D01*
X401Y2684D02*
X406Y2684D01*
X421Y2684D02*
X426Y2684D01*
X468Y2684D02*
X474Y2684D01*
X508Y2684D02*
X514Y2684D01*
X532Y2684D02*
X537Y2684D01*
X569Y2684D02*
X575Y2684D01*
X596Y2684D02*
X601Y2684D01*
X620Y2684D02*
X625Y2684D01*
X839Y2684D02*
X844Y2684D01*
X902Y2684D02*
X907Y2684D01*
X926Y2684D02*
X931Y2684D01*
X950Y2684D02*
X956Y2684D01*
X1189Y2684D02*
X1194Y2684D01*
X1276Y2684D02*
X1282Y2684D01*
X1314Y2684D02*
X1319Y2684D01*
X214Y2683D02*
X219Y2683D01*
X333Y2683D02*
X338Y2683D01*
X357Y2683D02*
X362Y2683D01*
X377Y2683D02*
X382Y2683D01*
X401Y2683D02*
X406Y2683D01*
X421Y2683D02*
X426Y2683D01*
X469Y2683D02*
X475Y2683D01*
X508Y2683D02*
X513Y2683D01*
X532Y2683D02*
X537Y2683D01*
X569Y2683D02*
X576Y2683D01*
X596Y2683D02*
X601Y2683D01*
X620Y2683D02*
X625Y2683D01*
X839Y2683D02*
X844Y2683D01*
X902Y2683D02*
X907Y2683D01*
X926Y2683D02*
X931Y2683D01*
X950Y2683D02*
X956Y2683D01*
X1189Y2683D02*
X1194Y2683D01*
X1276Y2683D02*
X1282Y2683D01*
X1314Y2683D02*
X1319Y2683D01*
X214Y2682D02*
X219Y2682D01*
X333Y2682D02*
X338Y2682D01*
X357Y2682D02*
X362Y2682D01*
X377Y2682D02*
X382Y2682D01*
X401Y2682D02*
X406Y2682D01*
X421Y2682D02*
X426Y2682D01*
X469Y2682D02*
X475Y2682D01*
X508Y2682D02*
X513Y2682D01*
X532Y2682D02*
X537Y2682D01*
X570Y2682D02*
X577Y2682D01*
X596Y2682D02*
X601Y2682D01*
X620Y2682D02*
X625Y2682D01*
X839Y2682D02*
X844Y2682D01*
X902Y2682D02*
X907Y2682D01*
X926Y2682D02*
X931Y2682D01*
X951Y2682D02*
X957Y2682D01*
X1189Y2682D02*
X1194Y2682D01*
X1276Y2682D02*
X1282Y2682D01*
X1314Y2682D02*
X1319Y2682D01*
X214Y2681D02*
X219Y2681D01*
X253Y2681D02*
X260Y2681D01*
X271Y2681D02*
X273Y2681D01*
X303Y2681D02*
X314Y2681D01*
X333Y2681D02*
X338Y2681D01*
X357Y2681D02*
X362Y2681D01*
X377Y2681D02*
X382Y2681D01*
X401Y2681D02*
X406Y2681D01*
X421Y2681D02*
X426Y2681D01*
X470Y2681D02*
X476Y2681D01*
X508Y2681D02*
X513Y2681D01*
X532Y2681D02*
X537Y2681D01*
X571Y2681D02*
X578Y2681D01*
X596Y2681D02*
X601Y2681D01*
X620Y2681D02*
X625Y2681D01*
X647Y2681D02*
X661Y2681D01*
X685Y2681D02*
X700Y2681D01*
X729Y2681D02*
X744Y2681D01*
X780Y2681D02*
X791Y2681D01*
X824Y2681D02*
X832Y2681D01*
X839Y2681D02*
X844Y2681D01*
X867Y2681D02*
X879Y2681D01*
X902Y2681D02*
X907Y2681D01*
X926Y2681D02*
X931Y2681D01*
X951Y2681D02*
X957Y2681D01*
X996Y2681D02*
X997Y2681D01*
X1007Y2681D02*
X1010Y2681D01*
X1016Y2681D02*
X1018Y2681D01*
X1042Y2681D02*
X1054Y2681D01*
X1079Y2681D02*
X1094Y2681D01*
X1174Y2681D02*
X1182Y2681D01*
X1189Y2681D02*
X1194Y2681D01*
X1210Y2681D02*
X1212Y2681D01*
X1234Y2681D02*
X1236Y2681D01*
X1260Y2681D02*
X1267Y2681D01*
X1276Y2681D02*
X1282Y2681D01*
X1301Y2681D02*
X1324Y2681D01*
X1354Y2681D02*
X1364Y2681D01*
X1385Y2681D02*
X1387Y2681D01*
X1396Y2681D02*
X1404Y2681D01*
X214Y2680D02*
X219Y2680D01*
X251Y2680D02*
X262Y2680D01*
X270Y2680D02*
X274Y2680D01*
X302Y2680D02*
X315Y2680D01*
X333Y2680D02*
X338Y2680D01*
X357Y2680D02*
X362Y2680D01*
X377Y2680D02*
X382Y2680D01*
X401Y2680D02*
X406Y2680D01*
X421Y2680D02*
X426Y2680D01*
X470Y2680D02*
X477Y2680D01*
X508Y2680D02*
X513Y2680D01*
X532Y2680D02*
X537Y2680D01*
X572Y2680D02*
X579Y2680D01*
X596Y2680D02*
X602Y2680D01*
X620Y2680D02*
X625Y2680D01*
X645Y2680D02*
X662Y2680D01*
X684Y2680D02*
X703Y2680D01*
X728Y2680D02*
X747Y2680D01*
X777Y2680D02*
X793Y2680D01*
X821Y2680D02*
X834Y2680D01*
X839Y2680D02*
X844Y2680D01*
X865Y2680D02*
X881Y2680D01*
X902Y2680D02*
X908Y2680D01*
X926Y2680D02*
X931Y2680D01*
X952Y2680D02*
X958Y2680D01*
X994Y2680D02*
X1000Y2680D01*
X1005Y2680D02*
X1012Y2680D01*
X1015Y2680D02*
X1019Y2680D01*
X1040Y2680D02*
X1056Y2680D01*
X1078Y2680D02*
X1097Y2680D01*
X1171Y2680D02*
X1184Y2680D01*
X1189Y2680D02*
X1194Y2680D01*
X1209Y2680D02*
X1213Y2680D01*
X1233Y2680D02*
X1237Y2680D01*
X1257Y2680D02*
X1269Y2680D01*
X1276Y2680D02*
X1282Y2680D01*
X1300Y2680D02*
X1325Y2680D01*
X1353Y2680D02*
X1365Y2680D01*
X1384Y2680D02*
X1388Y2680D01*
X1393Y2680D02*
X1406Y2680D01*
X214Y2679D02*
X219Y2679D01*
X249Y2679D02*
X264Y2679D01*
X270Y2679D02*
X275Y2679D01*
X301Y2679D02*
X315Y2679D01*
X333Y2679D02*
X338Y2679D01*
X357Y2679D02*
X362Y2679D01*
X377Y2679D02*
X382Y2679D01*
X401Y2679D02*
X406Y2679D01*
X421Y2679D02*
X426Y2679D01*
X471Y2679D02*
X477Y2679D01*
X508Y2679D02*
X513Y2679D01*
X532Y2679D02*
X537Y2679D01*
X573Y2679D02*
X579Y2679D01*
X596Y2679D02*
X603Y2679D01*
X620Y2679D02*
X625Y2679D01*
X643Y2679D02*
X663Y2679D01*
X683Y2679D02*
X704Y2679D01*
X727Y2679D02*
X748Y2679D01*
X776Y2679D02*
X795Y2679D01*
X820Y2679D02*
X836Y2679D01*
X839Y2679D02*
X844Y2679D01*
X864Y2679D02*
X882Y2679D01*
X903Y2679D02*
X909Y2679D01*
X926Y2679D02*
X931Y2679D01*
X953Y2679D02*
X959Y2679D01*
X992Y2679D02*
X1002Y2679D01*
X1004Y2679D02*
X1019Y2679D01*
X1039Y2679D02*
X1057Y2679D01*
X1077Y2679D02*
X1098Y2679D01*
X1170Y2679D02*
X1186Y2679D01*
X1189Y2679D02*
X1194Y2679D01*
X1209Y2679D02*
X1214Y2679D01*
X1233Y2679D02*
X1238Y2679D01*
X1256Y2679D02*
X1271Y2679D01*
X1276Y2679D02*
X1282Y2679D01*
X1299Y2679D02*
X1325Y2679D01*
X1352Y2679D02*
X1366Y2679D01*
X1384Y2679D02*
X1389Y2679D01*
X1392Y2679D02*
X1408Y2679D01*
X214Y2678D02*
X219Y2678D01*
X248Y2678D02*
X266Y2678D01*
X270Y2678D02*
X275Y2678D01*
X301Y2678D02*
X315Y2678D01*
X333Y2678D02*
X338Y2678D01*
X357Y2678D02*
X362Y2678D01*
X377Y2678D02*
X382Y2678D01*
X401Y2678D02*
X406Y2678D01*
X421Y2678D02*
X426Y2678D01*
X472Y2678D02*
X478Y2678D01*
X508Y2678D02*
X514Y2678D01*
X532Y2678D02*
X537Y2678D01*
X573Y2678D02*
X580Y2678D01*
X597Y2678D02*
X625Y2678D01*
X642Y2678D02*
X663Y2678D01*
X683Y2678D02*
X706Y2678D01*
X727Y2678D02*
X749Y2678D01*
X775Y2678D02*
X796Y2678D01*
X819Y2678D02*
X844Y2678D01*
X862Y2678D02*
X883Y2678D01*
X903Y2678D02*
X931Y2678D01*
X953Y2678D02*
X959Y2678D01*
X991Y2678D02*
X1019Y2678D01*
X1037Y2678D02*
X1059Y2678D01*
X1077Y2678D02*
X1100Y2678D01*
X1169Y2678D02*
X1187Y2678D01*
X1189Y2678D02*
X1194Y2678D01*
X1209Y2678D02*
X1214Y2678D01*
X1233Y2678D02*
X1238Y2678D01*
X1255Y2678D02*
X1273Y2678D01*
X1276Y2678D02*
X1282Y2678D01*
X1299Y2678D02*
X1325Y2678D01*
X1352Y2678D02*
X1366Y2678D01*
X1384Y2678D02*
X1389Y2678D01*
X1391Y2678D02*
X1409Y2678D01*
X214Y2677D02*
X219Y2677D01*
X248Y2677D02*
X267Y2677D01*
X270Y2677D02*
X275Y2677D01*
X301Y2677D02*
X315Y2677D01*
X333Y2677D02*
X338Y2677D01*
X357Y2677D02*
X362Y2677D01*
X377Y2677D02*
X382Y2677D01*
X401Y2677D02*
X406Y2677D01*
X421Y2677D02*
X426Y2677D01*
X472Y2677D02*
X478Y2677D01*
X508Y2677D02*
X514Y2677D01*
X532Y2677D02*
X537Y2677D01*
X574Y2677D02*
X580Y2677D01*
X597Y2677D02*
X625Y2677D01*
X642Y2677D02*
X662Y2677D01*
X684Y2677D02*
X707Y2677D01*
X727Y2677D02*
X751Y2677D01*
X774Y2677D02*
X797Y2677D01*
X818Y2677D02*
X844Y2677D01*
X861Y2677D02*
X885Y2677D01*
X904Y2677D02*
X931Y2677D01*
X954Y2677D02*
X960Y2677D01*
X991Y2677D02*
X1019Y2677D01*
X1036Y2677D02*
X1060Y2677D01*
X1078Y2677D02*
X1101Y2677D01*
X1168Y2677D02*
X1194Y2677D01*
X1209Y2677D02*
X1214Y2677D01*
X1233Y2677D02*
X1238Y2677D01*
X1254Y2677D02*
X1274Y2677D01*
X1276Y2677D02*
X1282Y2677D01*
X1300Y2677D02*
X1325Y2677D01*
X1352Y2677D02*
X1366Y2677D01*
X1384Y2677D02*
X1410Y2677D01*
X214Y2676D02*
X219Y2676D01*
X247Y2676D02*
X275Y2676D01*
X301Y2676D02*
X314Y2676D01*
X333Y2676D02*
X338Y2676D01*
X357Y2676D02*
X362Y2676D01*
X377Y2676D02*
X382Y2676D01*
X401Y2676D02*
X406Y2676D01*
X421Y2676D02*
X426Y2676D01*
X473Y2676D02*
X479Y2676D01*
X509Y2676D02*
X515Y2676D01*
X532Y2676D02*
X537Y2676D01*
X575Y2676D02*
X581Y2676D01*
X598Y2676D02*
X625Y2676D01*
X641Y2676D02*
X662Y2676D01*
X684Y2676D02*
X708Y2676D01*
X728Y2676D02*
X752Y2676D01*
X773Y2676D02*
X798Y2676D01*
X817Y2676D02*
X844Y2676D01*
X860Y2676D02*
X885Y2676D01*
X904Y2676D02*
X931Y2676D01*
X954Y2676D02*
X960Y2676D01*
X990Y2676D02*
X1019Y2676D01*
X1035Y2676D02*
X1060Y2676D01*
X1078Y2676D02*
X1102Y2676D01*
X1167Y2676D02*
X1194Y2676D01*
X1209Y2676D02*
X1214Y2676D01*
X1233Y2676D02*
X1238Y2676D01*
X1254Y2676D02*
X1282Y2676D01*
X1300Y2676D02*
X1324Y2676D01*
X1352Y2676D02*
X1365Y2676D01*
X1384Y2676D02*
X1411Y2676D01*
X214Y2675D02*
X219Y2675D01*
X247Y2675D02*
X253Y2675D01*
X260Y2675D02*
X275Y2675D01*
X301Y2675D02*
X307Y2675D01*
X333Y2675D02*
X338Y2675D01*
X357Y2675D02*
X362Y2675D01*
X377Y2675D02*
X382Y2675D01*
X401Y2675D02*
X406Y2675D01*
X421Y2675D02*
X426Y2675D01*
X473Y2675D02*
X479Y2675D01*
X509Y2675D02*
X516Y2675D01*
X532Y2675D02*
X537Y2675D01*
X575Y2675D02*
X581Y2675D01*
X599Y2675D02*
X625Y2675D01*
X641Y2675D02*
X647Y2675D01*
X700Y2675D02*
X709Y2675D01*
X744Y2675D02*
X753Y2675D01*
X772Y2675D02*
X780Y2675D01*
X791Y2675D02*
X799Y2675D01*
X816Y2675D02*
X824Y2675D01*
X832Y2675D02*
X844Y2675D01*
X860Y2675D02*
X868Y2675D01*
X878Y2675D02*
X886Y2675D01*
X905Y2675D02*
X931Y2675D01*
X955Y2675D02*
X961Y2675D01*
X990Y2675D02*
X996Y2675D01*
X998Y2675D02*
X1008Y2675D01*
X1010Y2675D02*
X1019Y2675D01*
X1035Y2675D02*
X1043Y2675D01*
X1053Y2675D02*
X1061Y2675D01*
X1094Y2675D02*
X1103Y2675D01*
X1166Y2675D02*
X1174Y2675D01*
X1182Y2675D02*
X1194Y2675D01*
X1209Y2675D02*
X1214Y2675D01*
X1233Y2675D02*
X1238Y2675D01*
X1254Y2675D02*
X1260Y2675D01*
X1267Y2675D02*
X1282Y2675D01*
X1314Y2675D02*
X1319Y2675D01*
X1352Y2675D02*
X1357Y2675D01*
X1384Y2675D02*
X1396Y2675D01*
X1404Y2675D02*
X1412Y2675D01*
X214Y2674D02*
X219Y2674D01*
X246Y2674D02*
X252Y2674D01*
X262Y2674D02*
X275Y2674D01*
X301Y2674D02*
X306Y2674D01*
X333Y2674D02*
X338Y2674D01*
X357Y2674D02*
X362Y2674D01*
X377Y2674D02*
X382Y2674D01*
X401Y2674D02*
X406Y2674D01*
X421Y2674D02*
X426Y2674D01*
X474Y2674D02*
X480Y2674D01*
X510Y2674D02*
X517Y2674D01*
X532Y2674D02*
X537Y2674D01*
X576Y2674D02*
X581Y2674D01*
X600Y2674D02*
X625Y2674D01*
X640Y2674D02*
X646Y2674D01*
X702Y2674D02*
X710Y2674D01*
X745Y2674D02*
X754Y2674D01*
X772Y2674D02*
X778Y2674D01*
X792Y2674D02*
X799Y2674D01*
X815Y2674D02*
X822Y2674D01*
X833Y2674D02*
X844Y2674D01*
X859Y2674D02*
X866Y2674D01*
X880Y2674D02*
X887Y2674D01*
X907Y2674D02*
X931Y2674D01*
X955Y2674D02*
X962Y2674D01*
X990Y2674D02*
X995Y2674D01*
X999Y2674D02*
X1007Y2674D01*
X1011Y2674D02*
X1019Y2674D01*
X1034Y2674D02*
X1041Y2674D01*
X1055Y2674D02*
X1062Y2674D01*
X1096Y2674D02*
X1104Y2674D01*
X1166Y2674D02*
X1173Y2674D01*
X1183Y2674D02*
X1194Y2674D01*
X1209Y2674D02*
X1214Y2674D01*
X1233Y2674D02*
X1238Y2674D01*
X1253Y2674D02*
X1259Y2674D01*
X1268Y2674D02*
X1282Y2674D01*
X1314Y2674D02*
X1319Y2674D01*
X1352Y2674D02*
X1357Y2674D01*
X1384Y2674D02*
X1394Y2674D01*
X1405Y2674D02*
X1412Y2674D01*
X214Y2673D02*
X219Y2673D01*
X246Y2673D02*
X252Y2673D01*
X263Y2673D02*
X275Y2673D01*
X301Y2673D02*
X306Y2673D01*
X333Y2673D02*
X338Y2673D01*
X357Y2673D02*
X362Y2673D01*
X377Y2673D02*
X382Y2673D01*
X401Y2673D02*
X406Y2673D01*
X421Y2673D02*
X446Y2673D01*
X474Y2673D02*
X481Y2673D01*
X510Y2673D02*
X537Y2673D01*
X576Y2673D02*
X581Y2673D01*
X602Y2673D02*
X625Y2673D01*
X640Y2673D02*
X646Y2673D01*
X703Y2673D02*
X711Y2673D01*
X747Y2673D02*
X755Y2673D01*
X771Y2673D02*
X777Y2673D01*
X793Y2673D02*
X799Y2673D01*
X815Y2673D02*
X821Y2673D01*
X834Y2673D02*
X844Y2673D01*
X859Y2673D02*
X865Y2673D01*
X881Y2673D02*
X887Y2673D01*
X909Y2673D02*
X931Y2673D01*
X956Y2673D02*
X962Y2673D01*
X990Y2673D02*
X995Y2673D01*
X1000Y2673D02*
X1007Y2673D01*
X1012Y2673D02*
X1019Y2673D01*
X1034Y2673D02*
X1040Y2673D01*
X1056Y2673D02*
X1062Y2673D01*
X1097Y2673D02*
X1105Y2673D01*
X1165Y2673D02*
X1171Y2673D01*
X1184Y2673D02*
X1194Y2673D01*
X1209Y2673D02*
X1214Y2673D01*
X1232Y2673D02*
X1238Y2673D01*
X1253Y2673D02*
X1258Y2673D01*
X1270Y2673D02*
X1282Y2673D01*
X1314Y2673D02*
X1319Y2673D01*
X1352Y2673D02*
X1357Y2673D01*
X1384Y2673D02*
X1393Y2673D01*
X1406Y2673D02*
X1412Y2673D01*
X214Y2672D02*
X219Y2672D01*
X246Y2672D02*
X251Y2672D01*
X265Y2672D02*
X275Y2672D01*
X301Y2672D02*
X306Y2672D01*
X333Y2672D02*
X338Y2672D01*
X357Y2672D02*
X362Y2672D01*
X377Y2672D02*
X382Y2672D01*
X401Y2672D02*
X406Y2672D01*
X421Y2672D02*
X448Y2672D01*
X475Y2672D02*
X481Y2672D01*
X511Y2672D02*
X537Y2672D01*
X576Y2672D02*
X581Y2672D01*
X608Y2672D02*
X614Y2672D01*
X620Y2672D02*
X625Y2672D01*
X640Y2672D02*
X645Y2672D01*
X704Y2672D02*
X711Y2672D01*
X748Y2672D02*
X755Y2672D01*
X771Y2672D02*
X776Y2672D01*
X794Y2672D02*
X800Y2672D01*
X815Y2672D02*
X820Y2672D01*
X835Y2672D02*
X844Y2672D01*
X859Y2672D02*
X864Y2672D01*
X882Y2672D02*
X887Y2672D01*
X914Y2672D02*
X921Y2672D01*
X926Y2672D02*
X931Y2672D01*
X957Y2672D02*
X963Y2672D01*
X990Y2672D02*
X995Y2672D01*
X1001Y2672D02*
X1007Y2672D01*
X1013Y2672D02*
X1019Y2672D01*
X1034Y2672D02*
X1039Y2672D01*
X1057Y2672D02*
X1062Y2672D01*
X1098Y2672D02*
X1105Y2672D01*
X1165Y2672D02*
X1170Y2672D01*
X1186Y2672D02*
X1194Y2672D01*
X1209Y2672D02*
X1214Y2672D01*
X1232Y2672D02*
X1238Y2672D01*
X1253Y2672D02*
X1258Y2672D01*
X1272Y2672D02*
X1282Y2672D01*
X1314Y2672D02*
X1319Y2672D01*
X1352Y2672D02*
X1357Y2672D01*
X1384Y2672D02*
X1392Y2672D01*
X1407Y2672D02*
X1413Y2672D01*
X214Y2671D02*
X219Y2671D01*
X246Y2671D02*
X251Y2671D01*
X266Y2671D02*
X275Y2671D01*
X301Y2671D02*
X306Y2671D01*
X333Y2671D02*
X338Y2671D01*
X357Y2671D02*
X362Y2671D01*
X377Y2671D02*
X382Y2671D01*
X401Y2671D02*
X406Y2671D01*
X421Y2671D02*
X449Y2671D01*
X476Y2671D02*
X482Y2671D01*
X512Y2671D02*
X537Y2671D01*
X576Y2671D02*
X581Y2671D01*
X607Y2671D02*
X614Y2671D01*
X620Y2671D02*
X625Y2671D01*
X640Y2671D02*
X645Y2671D01*
X705Y2671D02*
X712Y2671D01*
X749Y2671D02*
X756Y2671D01*
X771Y2671D02*
X776Y2671D01*
X795Y2671D02*
X800Y2671D01*
X815Y2671D02*
X820Y2671D01*
X836Y2671D02*
X844Y2671D01*
X858Y2671D02*
X864Y2671D01*
X882Y2671D02*
X887Y2671D01*
X914Y2671D02*
X920Y2671D01*
X926Y2671D02*
X931Y2671D01*
X957Y2671D02*
X963Y2671D01*
X990Y2671D02*
X995Y2671D01*
X1002Y2671D02*
X1007Y2671D01*
X1014Y2671D02*
X1019Y2671D01*
X1034Y2671D02*
X1039Y2671D01*
X1057Y2671D02*
X1063Y2671D01*
X1099Y2671D02*
X1106Y2671D01*
X1165Y2671D02*
X1170Y2671D01*
X1187Y2671D02*
X1194Y2671D01*
X1209Y2671D02*
X1214Y2671D01*
X1232Y2671D02*
X1237Y2671D01*
X1253Y2671D02*
X1258Y2671D01*
X1273Y2671D02*
X1282Y2671D01*
X1314Y2671D02*
X1319Y2671D01*
X1352Y2671D02*
X1357Y2671D01*
X1384Y2671D02*
X1391Y2671D01*
X1408Y2671D02*
X1413Y2671D01*
X214Y2670D02*
X219Y2670D01*
X246Y2670D02*
X251Y2670D01*
X268Y2670D02*
X275Y2670D01*
X301Y2670D02*
X306Y2670D01*
X333Y2670D02*
X338Y2670D01*
X357Y2670D02*
X362Y2670D01*
X377Y2670D02*
X382Y2670D01*
X401Y2670D02*
X406Y2670D01*
X422Y2670D02*
X449Y2670D01*
X476Y2670D02*
X482Y2670D01*
X512Y2670D02*
X537Y2670D01*
X576Y2670D02*
X581Y2670D01*
X607Y2670D02*
X613Y2670D01*
X620Y2670D02*
X625Y2670D01*
X640Y2670D02*
X645Y2670D01*
X706Y2670D02*
X712Y2670D01*
X750Y2670D02*
X756Y2670D01*
X771Y2670D02*
X776Y2670D01*
X795Y2670D02*
X800Y2670D01*
X815Y2670D02*
X820Y2670D01*
X838Y2670D02*
X844Y2670D01*
X858Y2670D02*
X863Y2670D01*
X882Y2670D02*
X888Y2670D01*
X913Y2670D02*
X919Y2670D01*
X926Y2670D02*
X931Y2670D01*
X958Y2670D02*
X964Y2670D01*
X990Y2670D02*
X995Y2670D01*
X1002Y2670D02*
X1007Y2670D01*
X1014Y2670D02*
X1019Y2670D01*
X1033Y2670D02*
X1039Y2670D01*
X1057Y2670D02*
X1063Y2670D01*
X1100Y2670D02*
X1106Y2670D01*
X1165Y2670D02*
X1170Y2670D01*
X1188Y2670D02*
X1194Y2670D01*
X1209Y2670D02*
X1214Y2670D01*
X1232Y2670D02*
X1237Y2670D01*
X1253Y2670D02*
X1258Y2670D01*
X1275Y2670D02*
X1282Y2670D01*
X1314Y2670D02*
X1319Y2670D01*
X1352Y2670D02*
X1357Y2670D01*
X1384Y2670D02*
X1390Y2670D01*
X1408Y2670D02*
X1413Y2670D01*
X214Y2669D02*
X219Y2669D01*
X246Y2669D02*
X251Y2669D01*
X269Y2669D02*
X275Y2669D01*
X301Y2669D02*
X306Y2669D01*
X333Y2669D02*
X338Y2669D01*
X357Y2669D02*
X362Y2669D01*
X377Y2669D02*
X382Y2669D01*
X401Y2669D02*
X406Y2669D01*
X423Y2669D02*
X450Y2669D01*
X477Y2669D02*
X483Y2669D01*
X511Y2669D02*
X537Y2669D01*
X576Y2669D02*
X581Y2669D01*
X606Y2669D02*
X612Y2669D01*
X620Y2669D02*
X625Y2669D01*
X640Y2669D02*
X645Y2669D01*
X707Y2669D02*
X712Y2669D01*
X751Y2669D02*
X756Y2669D01*
X771Y2669D02*
X776Y2669D01*
X795Y2669D02*
X800Y2669D01*
X815Y2669D02*
X820Y2669D01*
X838Y2669D02*
X844Y2669D01*
X858Y2669D02*
X863Y2669D01*
X882Y2669D02*
X888Y2669D01*
X913Y2669D02*
X919Y2669D01*
X926Y2669D02*
X931Y2669D01*
X958Y2669D02*
X964Y2669D01*
X990Y2669D02*
X995Y2669D01*
X1002Y2669D02*
X1007Y2669D01*
X1014Y2669D02*
X1019Y2669D01*
X1033Y2669D02*
X1039Y2669D01*
X1057Y2669D02*
X1063Y2669D01*
X1101Y2669D02*
X1106Y2669D01*
X1165Y2669D02*
X1170Y2669D01*
X1189Y2669D02*
X1194Y2669D01*
X1209Y2669D02*
X1214Y2669D01*
X1232Y2669D02*
X1237Y2669D01*
X1253Y2669D02*
X1258Y2669D01*
X1276Y2669D02*
X1282Y2669D01*
X1314Y2669D02*
X1319Y2669D01*
X1352Y2669D02*
X1357Y2669D01*
X1384Y2669D02*
X1389Y2669D01*
X1408Y2669D02*
X1413Y2669D01*
X203Y2668D02*
X205Y2668D01*
X214Y2668D02*
X219Y2668D01*
X246Y2668D02*
X251Y2668D01*
X270Y2668D02*
X275Y2668D01*
X301Y2668D02*
X306Y2668D01*
X333Y2668D02*
X338Y2668D01*
X357Y2668D02*
X362Y2668D01*
X377Y2668D02*
X382Y2668D01*
X401Y2668D02*
X406Y2668D01*
X424Y2668D02*
X450Y2668D01*
X477Y2668D02*
X484Y2668D01*
X510Y2668D02*
X537Y2668D01*
X552Y2668D02*
X565Y2668D01*
X576Y2668D02*
X581Y2668D01*
X606Y2668D02*
X612Y2668D01*
X620Y2668D02*
X625Y2668D01*
X640Y2668D02*
X663Y2668D01*
X707Y2668D02*
X712Y2668D01*
X751Y2668D02*
X756Y2668D01*
X771Y2668D02*
X776Y2668D01*
X795Y2668D02*
X800Y2668D01*
X815Y2668D02*
X820Y2668D01*
X839Y2668D02*
X844Y2668D01*
X858Y2668D02*
X863Y2668D01*
X882Y2668D02*
X888Y2668D01*
X912Y2668D02*
X918Y2668D01*
X926Y2668D02*
X931Y2668D01*
X959Y2668D02*
X965Y2668D01*
X990Y2668D02*
X995Y2668D01*
X1002Y2668D02*
X1007Y2668D01*
X1014Y2668D02*
X1019Y2668D01*
X1033Y2668D02*
X1039Y2668D01*
X1057Y2668D02*
X1063Y2668D01*
X1101Y2668D02*
X1106Y2668D01*
X1165Y2668D02*
X1170Y2668D01*
X1189Y2668D02*
X1194Y2668D01*
X1209Y2668D02*
X1214Y2668D01*
X1232Y2668D02*
X1237Y2668D01*
X1253Y2668D02*
X1258Y2668D01*
X1276Y2668D02*
X1282Y2668D01*
X1314Y2668D02*
X1319Y2668D01*
X1352Y2668D02*
X1357Y2668D01*
X1384Y2668D02*
X1389Y2668D01*
X1408Y2668D02*
X1413Y2668D01*
X202Y2667D02*
X206Y2667D01*
X214Y2667D02*
X219Y2667D01*
X246Y2667D02*
X251Y2667D01*
X270Y2667D02*
X275Y2667D01*
X301Y2667D02*
X306Y2667D01*
X333Y2667D02*
X338Y2667D01*
X357Y2667D02*
X362Y2667D01*
X377Y2667D02*
X382Y2667D01*
X401Y2667D02*
X406Y2667D01*
X445Y2667D02*
X450Y2667D01*
X478Y2667D02*
X484Y2667D01*
X510Y2667D02*
X517Y2667D01*
X532Y2667D02*
X537Y2667D01*
X552Y2667D02*
X566Y2667D01*
X576Y2667D02*
X581Y2667D01*
X605Y2667D02*
X611Y2667D01*
X620Y2667D02*
X625Y2667D01*
X640Y2667D02*
X665Y2667D01*
X707Y2667D02*
X712Y2667D01*
X751Y2667D02*
X756Y2667D01*
X771Y2667D02*
X776Y2667D01*
X795Y2667D02*
X800Y2667D01*
X815Y2667D02*
X820Y2667D01*
X839Y2667D02*
X844Y2667D01*
X858Y2667D02*
X863Y2667D01*
X882Y2667D02*
X888Y2667D01*
X912Y2667D02*
X918Y2667D01*
X926Y2667D02*
X931Y2667D01*
X960Y2667D02*
X966Y2667D01*
X990Y2667D02*
X995Y2667D01*
X1002Y2667D02*
X1007Y2667D01*
X1014Y2667D02*
X1019Y2667D01*
X1033Y2667D02*
X1039Y2667D01*
X1057Y2667D02*
X1063Y2667D01*
X1101Y2667D02*
X1106Y2667D01*
X1165Y2667D02*
X1170Y2667D01*
X1189Y2667D02*
X1194Y2667D01*
X1209Y2667D02*
X1214Y2667D01*
X1232Y2667D02*
X1237Y2667D01*
X1253Y2667D02*
X1258Y2667D01*
X1276Y2667D02*
X1282Y2667D01*
X1314Y2667D02*
X1319Y2667D01*
X1352Y2667D02*
X1357Y2667D01*
X1384Y2667D02*
X1389Y2667D01*
X1408Y2667D02*
X1413Y2667D01*
X202Y2666D02*
X207Y2666D01*
X214Y2666D02*
X219Y2666D01*
X246Y2666D02*
X251Y2666D01*
X270Y2666D02*
X275Y2666D01*
X301Y2666D02*
X306Y2666D01*
X333Y2666D02*
X338Y2666D01*
X357Y2666D02*
X362Y2666D01*
X377Y2666D02*
X382Y2666D01*
X401Y2666D02*
X406Y2666D01*
X445Y2666D02*
X450Y2666D01*
X479Y2666D02*
X485Y2666D01*
X509Y2666D02*
X516Y2666D01*
X532Y2666D02*
X537Y2666D01*
X552Y2666D02*
X566Y2666D01*
X576Y2666D02*
X581Y2666D01*
X605Y2666D02*
X611Y2666D01*
X620Y2666D02*
X625Y2666D01*
X640Y2666D02*
X666Y2666D01*
X707Y2666D02*
X712Y2666D01*
X751Y2666D02*
X756Y2666D01*
X771Y2666D02*
X776Y2666D01*
X795Y2666D02*
X800Y2666D01*
X815Y2666D02*
X820Y2666D01*
X839Y2666D02*
X844Y2666D01*
X858Y2666D02*
X864Y2666D01*
X882Y2666D02*
X888Y2666D01*
X911Y2666D02*
X917Y2666D01*
X926Y2666D02*
X931Y2666D01*
X960Y2666D02*
X966Y2666D01*
X990Y2666D02*
X995Y2666D01*
X1002Y2666D02*
X1007Y2666D01*
X1014Y2666D02*
X1019Y2666D01*
X1033Y2666D02*
X1039Y2666D01*
X1057Y2666D02*
X1063Y2666D01*
X1101Y2666D02*
X1106Y2666D01*
X1165Y2666D02*
X1170Y2666D01*
X1189Y2666D02*
X1194Y2666D01*
X1209Y2666D02*
X1214Y2666D01*
X1232Y2666D02*
X1237Y2666D01*
X1253Y2666D02*
X1258Y2666D01*
X1276Y2666D02*
X1282Y2666D01*
X1314Y2666D02*
X1319Y2666D01*
X1352Y2666D02*
X1357Y2666D01*
X1384Y2666D02*
X1389Y2666D01*
X1408Y2666D02*
X1413Y2666D01*
X202Y2665D02*
X207Y2665D01*
X214Y2665D02*
X219Y2665D01*
X246Y2665D02*
X251Y2665D01*
X270Y2665D02*
X275Y2665D01*
X301Y2665D02*
X306Y2665D01*
X333Y2665D02*
X338Y2665D01*
X357Y2665D02*
X362Y2665D01*
X377Y2665D02*
X382Y2665D01*
X401Y2665D02*
X406Y2665D01*
X445Y2665D02*
X450Y2665D01*
X479Y2665D02*
X485Y2665D01*
X509Y2665D02*
X515Y2665D01*
X532Y2665D02*
X537Y2665D01*
X552Y2665D02*
X566Y2665D01*
X576Y2665D02*
X581Y2665D01*
X604Y2665D02*
X610Y2665D01*
X620Y2665D02*
X625Y2665D01*
X640Y2665D02*
X667Y2665D01*
X707Y2665D02*
X712Y2665D01*
X751Y2665D02*
X756Y2665D01*
X771Y2665D02*
X800Y2665D01*
X815Y2665D02*
X820Y2665D01*
X839Y2665D02*
X844Y2665D01*
X858Y2665D02*
X888Y2665D01*
X910Y2665D02*
X917Y2665D01*
X926Y2665D02*
X931Y2665D01*
X961Y2665D02*
X967Y2665D01*
X990Y2665D02*
X995Y2665D01*
X1002Y2665D02*
X1007Y2665D01*
X1014Y2665D02*
X1019Y2665D01*
X1033Y2665D02*
X1039Y2665D01*
X1057Y2665D02*
X1063Y2665D01*
X1101Y2665D02*
X1106Y2665D01*
X1131Y2665D02*
X1140Y2665D01*
X1165Y2665D02*
X1170Y2665D01*
X1189Y2665D02*
X1194Y2665D01*
X1209Y2665D02*
X1214Y2665D01*
X1232Y2665D02*
X1237Y2665D01*
X1253Y2665D02*
X1258Y2665D01*
X1276Y2665D02*
X1282Y2665D01*
X1314Y2665D02*
X1319Y2665D01*
X1352Y2665D02*
X1357Y2665D01*
X1384Y2665D02*
X1389Y2665D01*
X1408Y2665D02*
X1413Y2665D01*
X202Y2664D02*
X207Y2664D01*
X214Y2664D02*
X219Y2664D01*
X246Y2664D02*
X251Y2664D01*
X270Y2664D02*
X275Y2664D01*
X301Y2664D02*
X306Y2664D01*
X333Y2664D02*
X338Y2664D01*
X357Y2664D02*
X362Y2664D01*
X377Y2664D02*
X382Y2664D01*
X401Y2664D02*
X406Y2664D01*
X445Y2664D02*
X450Y2664D01*
X480Y2664D02*
X486Y2664D01*
X508Y2664D02*
X514Y2664D01*
X532Y2664D02*
X537Y2664D01*
X552Y2664D02*
X566Y2664D01*
X576Y2664D02*
X581Y2664D01*
X603Y2664D02*
X610Y2664D01*
X620Y2664D02*
X625Y2664D01*
X640Y2664D02*
X667Y2664D01*
X707Y2664D02*
X712Y2664D01*
X751Y2664D02*
X756Y2664D01*
X771Y2664D02*
X800Y2664D01*
X815Y2664D02*
X820Y2664D01*
X839Y2664D02*
X844Y2664D01*
X858Y2664D02*
X888Y2664D01*
X910Y2664D02*
X916Y2664D01*
X926Y2664D02*
X931Y2664D01*
X961Y2664D02*
X967Y2664D01*
X990Y2664D02*
X995Y2664D01*
X1002Y2664D02*
X1007Y2664D01*
X1014Y2664D02*
X1019Y2664D01*
X1033Y2664D02*
X1039Y2664D01*
X1057Y2664D02*
X1063Y2664D01*
X1101Y2664D02*
X1106Y2664D01*
X1130Y2664D02*
X1141Y2664D01*
X1165Y2664D02*
X1170Y2664D01*
X1189Y2664D02*
X1194Y2664D01*
X1209Y2664D02*
X1214Y2664D01*
X1232Y2664D02*
X1237Y2664D01*
X1253Y2664D02*
X1258Y2664D01*
X1276Y2664D02*
X1282Y2664D01*
X1314Y2664D02*
X1319Y2664D01*
X1352Y2664D02*
X1357Y2664D01*
X1384Y2664D02*
X1389Y2664D01*
X1408Y2664D02*
X1413Y2664D01*
X202Y2663D02*
X207Y2663D01*
X214Y2663D02*
X219Y2663D01*
X246Y2663D02*
X251Y2663D01*
X270Y2663D02*
X275Y2663D01*
X301Y2663D02*
X306Y2663D01*
X333Y2663D02*
X338Y2663D01*
X357Y2663D02*
X362Y2663D01*
X377Y2663D02*
X382Y2663D01*
X401Y2663D02*
X406Y2663D01*
X445Y2663D02*
X450Y2663D01*
X480Y2663D02*
X486Y2663D01*
X508Y2663D02*
X514Y2663D01*
X532Y2663D02*
X537Y2663D01*
X552Y2663D02*
X565Y2663D01*
X576Y2663D02*
X581Y2663D01*
X603Y2663D02*
X609Y2663D01*
X620Y2663D02*
X625Y2663D01*
X640Y2663D02*
X668Y2663D01*
X707Y2663D02*
X712Y2663D01*
X751Y2663D02*
X756Y2663D01*
X771Y2663D02*
X800Y2663D01*
X815Y2663D02*
X820Y2663D01*
X839Y2663D02*
X844Y2663D01*
X858Y2663D02*
X888Y2663D01*
X909Y2663D02*
X915Y2663D01*
X926Y2663D02*
X931Y2663D01*
X962Y2663D02*
X968Y2663D01*
X990Y2663D02*
X995Y2663D01*
X1002Y2663D02*
X1007Y2663D01*
X1014Y2663D02*
X1019Y2663D01*
X1033Y2663D02*
X1039Y2663D01*
X1057Y2663D02*
X1063Y2663D01*
X1101Y2663D02*
X1106Y2663D01*
X1130Y2663D02*
X1141Y2663D01*
X1165Y2663D02*
X1170Y2663D01*
X1189Y2663D02*
X1194Y2663D01*
X1209Y2663D02*
X1214Y2663D01*
X1232Y2663D02*
X1237Y2663D01*
X1253Y2663D02*
X1258Y2663D01*
X1276Y2663D02*
X1282Y2663D01*
X1314Y2663D02*
X1319Y2663D01*
X1352Y2663D02*
X1357Y2663D01*
X1384Y2663D02*
X1389Y2663D01*
X1408Y2663D02*
X1413Y2663D01*
X202Y2662D02*
X207Y2662D01*
X214Y2662D02*
X219Y2662D01*
X246Y2662D02*
X251Y2662D01*
X270Y2662D02*
X275Y2662D01*
X301Y2662D02*
X306Y2662D01*
X333Y2662D02*
X338Y2662D01*
X357Y2662D02*
X362Y2662D01*
X377Y2662D02*
X382Y2662D01*
X401Y2662D02*
X406Y2662D01*
X445Y2662D02*
X450Y2662D01*
X481Y2662D02*
X487Y2662D01*
X508Y2662D02*
X513Y2662D01*
X532Y2662D02*
X537Y2662D01*
X552Y2662D02*
X557Y2662D01*
X576Y2662D02*
X581Y2662D01*
X602Y2662D02*
X608Y2662D01*
X620Y2662D02*
X625Y2662D01*
X640Y2662D02*
X647Y2662D01*
X662Y2662D02*
X668Y2662D01*
X707Y2662D02*
X712Y2662D01*
X751Y2662D02*
X756Y2662D01*
X771Y2662D02*
X800Y2662D01*
X815Y2662D02*
X820Y2662D01*
X839Y2662D02*
X844Y2662D01*
X859Y2662D02*
X888Y2662D01*
X909Y2662D02*
X915Y2662D01*
X926Y2662D02*
X931Y2662D01*
X962Y2662D02*
X969Y2662D01*
X990Y2662D02*
X995Y2662D01*
X1002Y2662D02*
X1007Y2662D01*
X1014Y2662D02*
X1019Y2662D01*
X1033Y2662D02*
X1039Y2662D01*
X1057Y2662D02*
X1063Y2662D01*
X1101Y2662D02*
X1106Y2662D01*
X1130Y2662D02*
X1141Y2662D01*
X1165Y2662D02*
X1170Y2662D01*
X1189Y2662D02*
X1194Y2662D01*
X1209Y2662D02*
X1214Y2662D01*
X1232Y2662D02*
X1237Y2662D01*
X1253Y2662D02*
X1258Y2662D01*
X1276Y2662D02*
X1282Y2662D01*
X1314Y2662D02*
X1319Y2662D01*
X1352Y2662D02*
X1357Y2662D01*
X1384Y2662D02*
X1389Y2662D01*
X1408Y2662D02*
X1413Y2662D01*
X202Y2661D02*
X207Y2661D01*
X214Y2661D02*
X219Y2661D01*
X246Y2661D02*
X251Y2661D01*
X270Y2661D02*
X275Y2661D01*
X301Y2661D02*
X306Y2661D01*
X333Y2661D02*
X338Y2661D01*
X357Y2661D02*
X362Y2661D01*
X377Y2661D02*
X382Y2661D01*
X401Y2661D02*
X406Y2661D01*
X445Y2661D02*
X450Y2661D01*
X482Y2661D02*
X488Y2661D01*
X508Y2661D02*
X513Y2661D01*
X532Y2661D02*
X537Y2661D01*
X552Y2661D02*
X557Y2661D01*
X576Y2661D02*
X581Y2661D01*
X602Y2661D02*
X608Y2661D01*
X620Y2661D02*
X625Y2661D01*
X640Y2661D02*
X646Y2661D01*
X663Y2661D02*
X668Y2661D01*
X707Y2661D02*
X712Y2661D01*
X751Y2661D02*
X756Y2661D01*
X772Y2661D02*
X800Y2661D01*
X815Y2661D02*
X820Y2661D01*
X839Y2661D02*
X844Y2661D01*
X859Y2661D02*
X888Y2661D01*
X908Y2661D02*
X914Y2661D01*
X926Y2661D02*
X931Y2661D01*
X963Y2661D02*
X969Y2661D01*
X990Y2661D02*
X995Y2661D01*
X1002Y2661D02*
X1007Y2661D01*
X1014Y2661D02*
X1019Y2661D01*
X1033Y2661D02*
X1039Y2661D01*
X1057Y2661D02*
X1063Y2661D01*
X1101Y2661D02*
X1106Y2661D01*
X1130Y2661D02*
X1141Y2661D01*
X1165Y2661D02*
X1170Y2661D01*
X1189Y2661D02*
X1194Y2661D01*
X1209Y2661D02*
X1214Y2661D01*
X1232Y2661D02*
X1237Y2661D01*
X1253Y2661D02*
X1258Y2661D01*
X1276Y2661D02*
X1282Y2661D01*
X1314Y2661D02*
X1319Y2661D01*
X1352Y2661D02*
X1357Y2661D01*
X1384Y2661D02*
X1390Y2661D01*
X1408Y2661D02*
X1413Y2661D01*
X202Y2660D02*
X207Y2660D01*
X214Y2660D02*
X219Y2660D01*
X246Y2660D02*
X251Y2660D01*
X270Y2660D02*
X275Y2660D01*
X301Y2660D02*
X306Y2660D01*
X333Y2660D02*
X338Y2660D01*
X357Y2660D02*
X362Y2660D01*
X377Y2660D02*
X382Y2660D01*
X401Y2660D02*
X406Y2660D01*
X445Y2660D02*
X450Y2660D01*
X482Y2660D02*
X488Y2660D01*
X508Y2660D02*
X513Y2660D01*
X532Y2660D02*
X537Y2660D01*
X552Y2660D02*
X557Y2660D01*
X576Y2660D02*
X581Y2660D01*
X601Y2660D02*
X607Y2660D01*
X620Y2660D02*
X625Y2660D01*
X640Y2660D02*
X645Y2660D01*
X663Y2660D02*
X669Y2660D01*
X707Y2660D02*
X712Y2660D01*
X751Y2660D02*
X756Y2660D01*
X773Y2660D02*
X800Y2660D01*
X815Y2660D02*
X820Y2660D01*
X839Y2660D02*
X844Y2660D01*
X860Y2660D02*
X888Y2660D01*
X907Y2660D02*
X914Y2660D01*
X926Y2660D02*
X931Y2660D01*
X964Y2660D02*
X970Y2660D01*
X990Y2660D02*
X995Y2660D01*
X1002Y2660D02*
X1007Y2660D01*
X1014Y2660D02*
X1019Y2660D01*
X1033Y2660D02*
X1039Y2660D01*
X1057Y2660D02*
X1063Y2660D01*
X1101Y2660D02*
X1106Y2660D01*
X1130Y2660D02*
X1141Y2660D01*
X1165Y2660D02*
X1170Y2660D01*
X1189Y2660D02*
X1194Y2660D01*
X1209Y2660D02*
X1214Y2660D01*
X1232Y2660D02*
X1237Y2660D01*
X1253Y2660D02*
X1258Y2660D01*
X1276Y2660D02*
X1282Y2660D01*
X1314Y2660D02*
X1319Y2660D01*
X1352Y2660D02*
X1357Y2660D01*
X1384Y2660D02*
X1391Y2660D01*
X1408Y2660D02*
X1413Y2660D01*
X202Y2659D02*
X207Y2659D01*
X214Y2659D02*
X219Y2659D01*
X246Y2659D02*
X251Y2659D01*
X270Y2659D02*
X275Y2659D01*
X301Y2659D02*
X306Y2659D01*
X333Y2659D02*
X338Y2659D01*
X357Y2659D02*
X362Y2659D01*
X377Y2659D02*
X382Y2659D01*
X401Y2659D02*
X406Y2659D01*
X445Y2659D02*
X450Y2659D01*
X483Y2659D02*
X489Y2659D01*
X508Y2659D02*
X513Y2659D01*
X532Y2659D02*
X537Y2659D01*
X552Y2659D02*
X557Y2659D01*
X576Y2659D02*
X581Y2659D01*
X600Y2659D02*
X607Y2659D01*
X620Y2659D02*
X625Y2659D01*
X640Y2659D02*
X645Y2659D01*
X664Y2659D02*
X669Y2659D01*
X707Y2659D02*
X712Y2659D01*
X751Y2659D02*
X756Y2659D01*
X795Y2659D02*
X800Y2659D01*
X815Y2659D02*
X820Y2659D01*
X838Y2659D02*
X844Y2659D01*
X882Y2659D02*
X888Y2659D01*
X907Y2659D02*
X913Y2659D01*
X926Y2659D02*
X931Y2659D01*
X964Y2659D02*
X970Y2659D01*
X990Y2659D02*
X995Y2659D01*
X1002Y2659D02*
X1007Y2659D01*
X1014Y2659D02*
X1019Y2659D01*
X1033Y2659D02*
X1039Y2659D01*
X1057Y2659D02*
X1063Y2659D01*
X1101Y2659D02*
X1106Y2659D01*
X1130Y2659D02*
X1141Y2659D01*
X1165Y2659D02*
X1170Y2659D01*
X1188Y2659D02*
X1194Y2659D01*
X1209Y2659D02*
X1214Y2659D01*
X1232Y2659D02*
X1237Y2659D01*
X1253Y2659D02*
X1258Y2659D01*
X1276Y2659D02*
X1282Y2659D01*
X1314Y2659D02*
X1319Y2659D01*
X1352Y2659D02*
X1357Y2659D01*
X1384Y2659D02*
X1392Y2659D01*
X1407Y2659D02*
X1413Y2659D01*
X202Y2658D02*
X207Y2658D01*
X214Y2658D02*
X219Y2658D01*
X246Y2658D02*
X251Y2658D01*
X270Y2658D02*
X275Y2658D01*
X301Y2658D02*
X306Y2658D01*
X333Y2658D02*
X338Y2658D01*
X357Y2658D02*
X362Y2658D01*
X377Y2658D02*
X382Y2658D01*
X401Y2658D02*
X406Y2658D01*
X445Y2658D02*
X450Y2658D01*
X483Y2658D02*
X489Y2658D01*
X508Y2658D02*
X513Y2658D01*
X532Y2658D02*
X537Y2658D01*
X552Y2658D02*
X557Y2658D01*
X576Y2658D02*
X581Y2658D01*
X600Y2658D02*
X606Y2658D01*
X620Y2658D02*
X625Y2658D01*
X640Y2658D02*
X645Y2658D01*
X664Y2658D02*
X669Y2658D01*
X706Y2658D02*
X712Y2658D01*
X750Y2658D02*
X756Y2658D01*
X795Y2658D02*
X800Y2658D01*
X815Y2658D02*
X820Y2658D01*
X837Y2658D02*
X844Y2658D01*
X882Y2658D02*
X888Y2658D01*
X906Y2658D02*
X912Y2658D01*
X926Y2658D02*
X931Y2658D01*
X965Y2658D02*
X971Y2658D01*
X990Y2658D02*
X995Y2658D01*
X1002Y2658D02*
X1007Y2658D01*
X1014Y2658D02*
X1019Y2658D01*
X1033Y2658D02*
X1039Y2658D01*
X1057Y2658D02*
X1063Y2658D01*
X1100Y2658D02*
X1106Y2658D01*
X1130Y2658D02*
X1141Y2658D01*
X1165Y2658D02*
X1170Y2658D01*
X1187Y2658D02*
X1194Y2658D01*
X1209Y2658D02*
X1216Y2658D01*
X1232Y2658D02*
X1237Y2658D01*
X1253Y2658D02*
X1258Y2658D01*
X1276Y2658D02*
X1282Y2658D01*
X1298Y2658D02*
X1299Y2658D01*
X1314Y2658D02*
X1319Y2658D01*
X1352Y2658D02*
X1357Y2658D01*
X1384Y2658D02*
X1393Y2658D01*
X1407Y2658D02*
X1412Y2658D01*
X202Y2657D02*
X207Y2657D01*
X214Y2657D02*
X219Y2657D01*
X246Y2657D02*
X251Y2657D01*
X270Y2657D02*
X275Y2657D01*
X301Y2657D02*
X306Y2657D01*
X333Y2657D02*
X338Y2657D01*
X357Y2657D02*
X362Y2657D01*
X377Y2657D02*
X382Y2657D01*
X401Y2657D02*
X406Y2657D01*
X445Y2657D02*
X450Y2657D01*
X484Y2657D02*
X490Y2657D01*
X508Y2657D02*
X514Y2657D01*
X532Y2657D02*
X537Y2657D01*
X552Y2657D02*
X557Y2657D01*
X576Y2657D02*
X581Y2657D01*
X599Y2657D02*
X605Y2657D01*
X620Y2657D02*
X625Y2657D01*
X640Y2657D02*
X645Y2657D01*
X664Y2657D02*
X669Y2657D01*
X705Y2657D02*
X712Y2657D01*
X749Y2657D02*
X755Y2657D01*
X795Y2657D02*
X800Y2657D01*
X815Y2657D02*
X820Y2657D01*
X836Y2657D02*
X844Y2657D01*
X882Y2657D02*
X887Y2657D01*
X906Y2657D02*
X912Y2657D01*
X926Y2657D02*
X931Y2657D01*
X965Y2657D02*
X972Y2657D01*
X990Y2657D02*
X995Y2657D01*
X1002Y2657D02*
X1007Y2657D01*
X1014Y2657D02*
X1019Y2657D01*
X1034Y2657D02*
X1039Y2657D01*
X1057Y2657D02*
X1063Y2657D01*
X1099Y2657D02*
X1106Y2657D01*
X1130Y2657D02*
X1141Y2657D01*
X1165Y2657D02*
X1170Y2657D01*
X1186Y2657D02*
X1194Y2657D01*
X1209Y2657D02*
X1217Y2657D01*
X1232Y2657D02*
X1237Y2657D01*
X1253Y2657D02*
X1258Y2657D01*
X1276Y2657D02*
X1282Y2657D01*
X1297Y2657D02*
X1300Y2657D01*
X1314Y2657D02*
X1319Y2657D01*
X1352Y2657D02*
X1357Y2657D01*
X1384Y2657D02*
X1394Y2657D01*
X1406Y2657D02*
X1412Y2657D01*
X202Y2656D02*
X207Y2656D01*
X214Y2656D02*
X219Y2656D01*
X246Y2656D02*
X251Y2656D01*
X270Y2656D02*
X275Y2656D01*
X301Y2656D02*
X306Y2656D01*
X333Y2656D02*
X338Y2656D01*
X357Y2656D02*
X362Y2656D01*
X377Y2656D02*
X382Y2656D01*
X401Y2656D02*
X406Y2656D01*
X445Y2656D02*
X450Y2656D01*
X484Y2656D02*
X491Y2656D01*
X509Y2656D02*
X514Y2656D01*
X532Y2656D02*
X537Y2656D01*
X552Y2656D02*
X557Y2656D01*
X576Y2656D02*
X581Y2656D01*
X599Y2656D02*
X605Y2656D01*
X620Y2656D02*
X625Y2656D01*
X640Y2656D02*
X646Y2656D01*
X663Y2656D02*
X669Y2656D01*
X704Y2656D02*
X711Y2656D01*
X747Y2656D02*
X755Y2656D01*
X794Y2656D02*
X800Y2656D01*
X815Y2656D02*
X821Y2656D01*
X835Y2656D02*
X844Y2656D01*
X882Y2656D02*
X887Y2656D01*
X905Y2656D02*
X911Y2656D01*
X926Y2656D02*
X931Y2656D01*
X966Y2656D02*
X972Y2656D01*
X989Y2656D02*
X995Y2656D01*
X1002Y2656D02*
X1007Y2656D01*
X1014Y2656D02*
X1019Y2656D01*
X1034Y2656D02*
X1039Y2656D01*
X1057Y2656D02*
X1062Y2656D01*
X1098Y2656D02*
X1105Y2656D01*
X1131Y2656D02*
X1141Y2656D01*
X1165Y2656D02*
X1171Y2656D01*
X1185Y2656D02*
X1194Y2656D01*
X1209Y2656D02*
X1219Y2656D01*
X1232Y2656D02*
X1237Y2656D01*
X1253Y2656D02*
X1258Y2656D01*
X1276Y2656D02*
X1282Y2656D01*
X1296Y2656D02*
X1301Y2656D01*
X1314Y2656D02*
X1319Y2656D01*
X1352Y2656D02*
X1357Y2656D01*
X1384Y2656D02*
X1396Y2656D01*
X1404Y2656D02*
X1412Y2656D01*
X202Y2655D02*
X207Y2655D01*
X214Y2655D02*
X219Y2655D01*
X246Y2655D02*
X251Y2655D01*
X270Y2655D02*
X275Y2655D01*
X301Y2655D02*
X306Y2655D01*
X333Y2655D02*
X338Y2655D01*
X357Y2655D02*
X362Y2655D01*
X377Y2655D02*
X382Y2655D01*
X401Y2655D02*
X406Y2655D01*
X445Y2655D02*
X450Y2655D01*
X485Y2655D02*
X491Y2655D01*
X509Y2655D02*
X515Y2655D01*
X532Y2655D02*
X537Y2655D01*
X552Y2655D02*
X557Y2655D01*
X576Y2655D02*
X581Y2655D01*
X598Y2655D02*
X604Y2655D01*
X620Y2655D02*
X625Y2655D01*
X640Y2655D02*
X648Y2655D01*
X663Y2655D02*
X669Y2655D01*
X702Y2655D02*
X711Y2655D01*
X746Y2655D02*
X754Y2655D01*
X793Y2655D02*
X799Y2655D01*
X815Y2655D02*
X822Y2655D01*
X834Y2655D02*
X844Y2655D01*
X881Y2655D02*
X887Y2655D01*
X905Y2655D02*
X911Y2655D01*
X926Y2655D02*
X931Y2655D01*
X967Y2655D02*
X973Y2655D01*
X989Y2655D02*
X995Y2655D01*
X1002Y2655D02*
X1007Y2655D01*
X1014Y2655D02*
X1019Y2655D01*
X1034Y2655D02*
X1040Y2655D01*
X1056Y2655D02*
X1062Y2655D01*
X1096Y2655D02*
X1105Y2655D01*
X1132Y2655D02*
X1139Y2655D01*
X1165Y2655D02*
X1172Y2655D01*
X1184Y2655D02*
X1194Y2655D01*
X1209Y2655D02*
X1221Y2655D01*
X1232Y2655D02*
X1237Y2655D01*
X1253Y2655D02*
X1258Y2655D01*
X1276Y2655D02*
X1282Y2655D01*
X1296Y2655D02*
X1302Y2655D01*
X1314Y2655D02*
X1319Y2655D01*
X1352Y2655D02*
X1357Y2655D01*
X1384Y2655D02*
X1411Y2655D01*
X202Y2654D02*
X207Y2654D01*
X214Y2654D02*
X219Y2654D01*
X246Y2654D02*
X251Y2654D01*
X270Y2654D02*
X275Y2654D01*
X301Y2654D02*
X306Y2654D01*
X333Y2654D02*
X338Y2654D01*
X357Y2654D02*
X362Y2654D01*
X377Y2654D02*
X382Y2654D01*
X401Y2654D02*
X406Y2654D01*
X445Y2654D02*
X450Y2654D01*
X486Y2654D02*
X492Y2654D01*
X509Y2654D02*
X516Y2654D01*
X532Y2654D02*
X537Y2654D01*
X552Y2654D02*
X558Y2654D01*
X575Y2654D02*
X581Y2654D01*
X598Y2654D02*
X604Y2654D01*
X620Y2654D02*
X625Y2654D01*
X640Y2654D02*
X650Y2654D01*
X663Y2654D02*
X668Y2654D01*
X701Y2654D02*
X710Y2654D01*
X745Y2654D02*
X753Y2654D01*
X792Y2654D02*
X799Y2654D01*
X816Y2654D02*
X823Y2654D01*
X833Y2654D02*
X844Y2654D01*
X879Y2654D02*
X887Y2654D01*
X904Y2654D02*
X910Y2654D01*
X926Y2654D02*
X931Y2654D01*
X967Y2654D02*
X973Y2654D01*
X989Y2654D02*
X995Y2654D01*
X1002Y2654D02*
X1007Y2654D01*
X1014Y2654D02*
X1019Y2654D01*
X1034Y2654D02*
X1042Y2654D01*
X1055Y2654D02*
X1062Y2654D01*
X1095Y2654D02*
X1104Y2654D01*
X1166Y2654D02*
X1173Y2654D01*
X1183Y2654D02*
X1194Y2654D01*
X1209Y2654D02*
X1222Y2654D01*
X1231Y2654D02*
X1237Y2654D01*
X1253Y2654D02*
X1258Y2654D01*
X1276Y2654D02*
X1282Y2654D01*
X1296Y2654D02*
X1302Y2654D01*
X1313Y2654D02*
X1319Y2654D01*
X1352Y2654D02*
X1357Y2654D01*
X1384Y2654D02*
X1410Y2654D01*
X202Y2653D02*
X228Y2653D01*
X246Y2653D02*
X251Y2653D01*
X270Y2653D02*
X275Y2653D01*
X295Y2653D02*
X313Y2653D01*
X333Y2653D02*
X362Y2653D01*
X377Y2653D02*
X406Y2653D01*
X423Y2653D02*
X450Y2653D01*
X486Y2653D02*
X492Y2653D01*
X510Y2653D02*
X537Y2653D01*
X553Y2653D02*
X581Y2653D01*
X597Y2653D02*
X603Y2653D01*
X620Y2653D02*
X625Y2653D01*
X640Y2653D02*
X668Y2653D01*
X686Y2653D02*
X709Y2653D01*
X730Y2653D02*
X752Y2653D01*
X774Y2653D02*
X799Y2653D01*
X816Y2653D02*
X844Y2653D01*
X861Y2653D02*
X886Y2653D01*
X903Y2653D02*
X910Y2653D01*
X926Y2653D02*
X931Y2653D01*
X968Y2653D02*
X974Y2653D01*
X989Y2653D02*
X994Y2653D01*
X1002Y2653D02*
X1007Y2653D01*
X1014Y2653D02*
X1019Y2653D01*
X1035Y2653D02*
X1061Y2653D01*
X1080Y2653D02*
X1103Y2653D01*
X1166Y2653D02*
X1194Y2653D01*
X1209Y2653D02*
X1236Y2653D01*
X1252Y2653D02*
X1258Y2653D01*
X1276Y2653D02*
X1282Y2653D01*
X1297Y2653D02*
X1319Y2653D01*
X1346Y2653D02*
X1363Y2653D01*
X1384Y2653D02*
X1409Y2653D01*
X202Y2652D02*
X230Y2652D01*
X246Y2652D02*
X251Y2652D01*
X270Y2652D02*
X275Y2652D01*
X293Y2652D02*
X315Y2652D01*
X333Y2652D02*
X362Y2652D01*
X377Y2652D02*
X406Y2652D01*
X421Y2652D02*
X450Y2652D01*
X487Y2652D02*
X493Y2652D01*
X511Y2652D02*
X537Y2652D01*
X553Y2652D02*
X580Y2652D01*
X596Y2652D02*
X603Y2652D01*
X620Y2652D02*
X625Y2652D01*
X640Y2652D02*
X668Y2652D01*
X684Y2652D02*
X707Y2652D01*
X728Y2652D02*
X751Y2652D01*
X772Y2652D02*
X798Y2652D01*
X817Y2652D02*
X844Y2652D01*
X859Y2652D02*
X885Y2652D01*
X903Y2652D02*
X909Y2652D01*
X926Y2652D02*
X931Y2652D01*
X968Y2652D02*
X974Y2652D01*
X989Y2652D02*
X994Y2652D01*
X1002Y2652D02*
X1007Y2652D01*
X1014Y2652D02*
X1019Y2652D01*
X1036Y2652D02*
X1060Y2652D01*
X1078Y2652D02*
X1101Y2652D01*
X1167Y2652D02*
X1194Y2652D01*
X1209Y2652D02*
X1236Y2652D01*
X1252Y2652D02*
X1258Y2652D01*
X1276Y2652D02*
X1282Y2652D01*
X1297Y2652D02*
X1318Y2652D01*
X1344Y2652D02*
X1365Y2652D01*
X1384Y2652D02*
X1389Y2652D01*
X1392Y2652D02*
X1408Y2652D01*
X202Y2651D02*
X231Y2651D01*
X246Y2651D02*
X251Y2651D01*
X270Y2651D02*
X275Y2651D01*
X293Y2651D02*
X315Y2651D01*
X333Y2651D02*
X362Y2651D01*
X377Y2651D02*
X406Y2651D01*
X421Y2651D02*
X450Y2651D01*
X487Y2651D02*
X493Y2651D01*
X511Y2651D02*
X537Y2651D01*
X554Y2651D02*
X580Y2651D01*
X596Y2651D02*
X602Y2651D01*
X620Y2651D02*
X625Y2651D01*
X640Y2651D02*
X667Y2651D01*
X683Y2651D02*
X706Y2651D01*
X727Y2651D02*
X750Y2651D01*
X771Y2651D02*
X797Y2651D01*
X818Y2651D02*
X844Y2651D01*
X859Y2651D02*
X884Y2651D01*
X902Y2651D02*
X908Y2651D01*
X926Y2651D02*
X931Y2651D01*
X969Y2651D02*
X975Y2651D01*
X989Y2651D02*
X994Y2651D01*
X1002Y2651D02*
X1007Y2651D01*
X1014Y2651D02*
X1019Y2651D01*
X1037Y2651D02*
X1059Y2651D01*
X1077Y2651D02*
X1100Y2651D01*
X1168Y2651D02*
X1194Y2651D01*
X1209Y2651D02*
X1214Y2651D01*
X1216Y2651D02*
X1235Y2651D01*
X1252Y2651D02*
X1257Y2651D01*
X1276Y2651D02*
X1282Y2651D01*
X1298Y2651D02*
X1318Y2651D01*
X1343Y2651D02*
X1366Y2651D01*
X1384Y2651D02*
X1389Y2651D01*
X1393Y2651D02*
X1406Y2651D01*
X202Y2650D02*
X231Y2650D01*
X246Y2650D02*
X251Y2650D01*
X270Y2650D02*
X275Y2650D01*
X292Y2650D02*
X315Y2650D01*
X334Y2650D02*
X361Y2650D01*
X378Y2650D02*
X405Y2650D01*
X421Y2650D02*
X450Y2650D01*
X488Y2650D02*
X493Y2650D01*
X512Y2650D02*
X537Y2650D01*
X554Y2650D02*
X579Y2650D01*
X596Y2650D02*
X601Y2650D01*
X620Y2650D02*
X625Y2650D01*
X640Y2650D02*
X666Y2650D01*
X683Y2650D02*
X705Y2650D01*
X727Y2650D02*
X749Y2650D01*
X771Y2650D02*
X796Y2650D01*
X819Y2650D02*
X837Y2650D01*
X839Y2650D02*
X844Y2650D01*
X858Y2650D02*
X883Y2650D01*
X902Y2650D02*
X908Y2650D01*
X926Y2650D02*
X931Y2650D01*
X969Y2650D02*
X975Y2650D01*
X989Y2650D02*
X994Y2650D01*
X1002Y2650D02*
X1007Y2650D01*
X1014Y2650D02*
X1019Y2650D01*
X1038Y2650D02*
X1058Y2650D01*
X1077Y2650D02*
X1099Y2650D01*
X1169Y2650D02*
X1187Y2650D01*
X1189Y2650D02*
X1194Y2650D01*
X1209Y2650D02*
X1214Y2650D01*
X1218Y2650D02*
X1235Y2650D01*
X1252Y2650D02*
X1257Y2650D01*
X1276Y2650D02*
X1281Y2650D01*
X1299Y2650D02*
X1317Y2650D01*
X1343Y2650D02*
X1366Y2650D01*
X1384Y2650D02*
X1389Y2650D01*
X1395Y2650D02*
X1405Y2650D01*
X202Y2649D02*
X231Y2649D01*
X246Y2649D02*
X250Y2649D01*
X270Y2649D02*
X274Y2649D01*
X293Y2649D02*
X315Y2649D01*
X335Y2649D02*
X361Y2649D01*
X379Y2649D02*
X404Y2649D01*
X421Y2649D02*
X450Y2649D01*
X489Y2649D02*
X493Y2649D01*
X514Y2649D02*
X537Y2649D01*
X555Y2649D02*
X578Y2649D01*
X596Y2649D02*
X601Y2649D01*
X620Y2649D02*
X625Y2649D01*
X640Y2649D02*
X644Y2649D01*
X647Y2649D02*
X665Y2649D01*
X683Y2649D02*
X704Y2649D01*
X727Y2649D02*
X748Y2649D01*
X771Y2649D02*
X794Y2649D01*
X820Y2649D02*
X835Y2649D01*
X839Y2649D02*
X844Y2649D01*
X859Y2649D02*
X882Y2649D01*
X902Y2649D02*
X907Y2649D01*
X926Y2649D02*
X931Y2649D01*
X970Y2649D02*
X975Y2649D01*
X989Y2649D02*
X994Y2649D01*
X1002Y2649D02*
X1007Y2649D01*
X1014Y2649D02*
X1019Y2649D01*
X1039Y2649D02*
X1057Y2649D01*
X1077Y2649D02*
X1098Y2649D01*
X1170Y2649D02*
X1186Y2649D01*
X1189Y2649D02*
X1194Y2649D01*
X1209Y2649D02*
X1213Y2649D01*
X1220Y2649D02*
X1234Y2649D01*
X1253Y2649D02*
X1257Y2649D01*
X1277Y2649D02*
X1281Y2649D01*
X1300Y2649D02*
X1316Y2649D01*
X1343Y2649D02*
X1366Y2649D01*
X1384Y2649D02*
X1389Y2649D01*
X203Y2648D02*
X230Y2648D01*
X246Y2648D02*
X250Y2648D01*
X270Y2648D02*
X274Y2648D01*
X293Y2648D02*
X315Y2648D01*
X336Y2648D02*
X359Y2648D01*
X380Y2648D02*
X403Y2648D01*
X421Y2648D02*
X450Y2648D01*
X489Y2648D02*
X493Y2648D01*
X516Y2648D02*
X537Y2648D01*
X557Y2648D02*
X576Y2648D01*
X597Y2648D02*
X600Y2648D01*
X621Y2648D02*
X624Y2648D01*
X640Y2648D02*
X644Y2648D01*
X649Y2648D02*
X664Y2648D01*
X684Y2648D02*
X702Y2648D01*
X728Y2648D02*
X746Y2648D01*
X772Y2648D02*
X793Y2648D01*
X822Y2648D02*
X834Y2648D01*
X839Y2648D02*
X843Y2648D01*
X859Y2648D02*
X880Y2648D01*
X903Y2648D02*
X906Y2648D01*
X927Y2648D02*
X930Y2648D01*
X971Y2648D02*
X974Y2648D01*
X990Y2648D02*
X993Y2648D01*
X1003Y2648D02*
X1006Y2648D01*
X1015Y2648D02*
X1018Y2648D01*
X1041Y2648D02*
X1055Y2648D01*
X1078Y2648D02*
X1096Y2648D01*
X1172Y2648D02*
X1184Y2648D01*
X1190Y2648D02*
X1193Y2648D01*
X1209Y2648D02*
X1213Y2648D01*
X1221Y2648D02*
X1232Y2648D01*
X1253Y2648D02*
X1257Y2648D01*
X1277Y2648D02*
X1281Y2648D01*
X1301Y2648D02*
X1314Y2648D01*
X1344Y2648D02*
X1365Y2648D01*
X1384Y2648D02*
X1389Y2648D01*
X205Y2647D02*
X228Y2647D01*
X295Y2647D02*
X313Y2647D01*
X339Y2647D02*
X357Y2647D01*
X382Y2647D02*
X400Y2647D01*
X423Y2647D02*
X449Y2647D01*
X520Y2647D02*
X537Y2647D01*
X561Y2647D02*
X572Y2647D01*
X651Y2647D02*
X660Y2647D01*
X686Y2647D02*
X699Y2647D01*
X730Y2647D02*
X742Y2647D01*
X774Y2647D02*
X790Y2647D01*
X825Y2647D02*
X830Y2647D01*
X861Y2647D02*
X877Y2647D01*
X1044Y2647D02*
X1052Y2647D01*
X1080Y2647D02*
X1093Y2647D01*
X1176Y2647D02*
X1180Y2647D01*
X1225Y2647D02*
X1228Y2647D01*
X1305Y2647D02*
X1311Y2647D01*
X1346Y2647D02*
X1363Y2647D01*
X1384Y2647D02*
X1389Y2647D01*
X1384Y2646D02*
X1389Y2646D01*
X1384Y2645D02*
X1389Y2645D01*
X1384Y2644D02*
X1389Y2644D01*
X1384Y2643D02*
X1390Y2643D01*
X1384Y2642D02*
X1391Y2642D01*
X1385Y2641D02*
X1392Y2641D01*
X1385Y2640D02*
X1408Y2640D01*
X1386Y2639D02*
X1409Y2639D01*
X1387Y2638D02*
X1410Y2638D01*
X1388Y2637D02*
X1410Y2637D01*
X1390Y2636D02*
X1410Y2636D01*
X1391Y2635D02*
X1409Y2635D01*
X1520Y2466D02*
X1526Y2466D01*
X1738Y2466D02*
X1745Y2466D01*
X1519Y2465D02*
X1526Y2465D01*
X1738Y2465D02*
X1745Y2465D01*
X645Y2464D02*
X655Y2464D01*
X951Y2464D02*
X953Y2464D01*
X1028Y2464D02*
X1038Y2464D01*
X1170Y2464D02*
X1181Y2464D01*
X1294Y2464D02*
X1312Y2464D01*
X1421Y2464D02*
X1422Y2464D01*
X1519Y2464D02*
X1527Y2464D01*
X1564Y2464D02*
X1578Y2464D01*
X1737Y2464D02*
X1746Y2464D01*
X1769Y2464D02*
X1776Y2464D01*
X1791Y2464D02*
X1798Y2464D01*
X644Y2463D02*
X657Y2463D01*
X950Y2463D02*
X954Y2463D01*
X1027Y2463D02*
X1041Y2463D01*
X1169Y2463D02*
X1182Y2463D01*
X1291Y2463D02*
X1314Y2463D01*
X1420Y2463D02*
X1424Y2463D01*
X1519Y2463D02*
X1527Y2463D01*
X1562Y2463D02*
X1579Y2463D01*
X1737Y2463D02*
X1746Y2463D01*
X1769Y2463D02*
X1777Y2463D01*
X1791Y2463D02*
X1798Y2463D01*
X643Y2462D02*
X657Y2462D01*
X950Y2462D02*
X954Y2462D01*
X1027Y2462D02*
X1043Y2462D01*
X1168Y2462D02*
X1182Y2462D01*
X1290Y2462D02*
X1315Y2462D01*
X1419Y2462D02*
X1424Y2462D01*
X1519Y2462D02*
X1527Y2462D01*
X1560Y2462D02*
X1579Y2462D01*
X1737Y2462D02*
X1746Y2462D01*
X1769Y2462D02*
X1777Y2462D01*
X1790Y2462D02*
X1798Y2462D01*
X643Y2461D02*
X657Y2461D01*
X949Y2461D02*
X955Y2461D01*
X1027Y2461D02*
X1044Y2461D01*
X1168Y2461D02*
X1182Y2461D01*
X1289Y2461D02*
X1316Y2461D01*
X1419Y2461D02*
X1424Y2461D01*
X1519Y2461D02*
X1527Y2461D01*
X1559Y2461D02*
X1579Y2461D01*
X1737Y2461D02*
X1745Y2461D01*
X1769Y2461D02*
X1778Y2461D01*
X1789Y2461D02*
X1798Y2461D01*
X643Y2460D02*
X657Y2460D01*
X949Y2460D02*
X955Y2460D01*
X1027Y2460D02*
X1045Y2460D01*
X1168Y2460D02*
X1182Y2460D01*
X1289Y2460D02*
X1316Y2460D01*
X1419Y2460D02*
X1424Y2460D01*
X1519Y2460D02*
X1526Y2460D01*
X1558Y2460D02*
X1579Y2460D01*
X1738Y2460D02*
X1745Y2460D01*
X1769Y2460D02*
X1779Y2460D01*
X1789Y2460D02*
X1798Y2460D01*
X643Y2459D02*
X656Y2459D01*
X949Y2459D02*
X955Y2459D01*
X1028Y2459D02*
X1045Y2459D01*
X1168Y2459D02*
X1181Y2459D01*
X1288Y2459D02*
X1317Y2459D01*
X1419Y2459D02*
X1424Y2459D01*
X1520Y2459D02*
X1526Y2459D01*
X1558Y2459D02*
X1578Y2459D01*
X1739Y2459D02*
X1744Y2459D01*
X1769Y2459D02*
X1780Y2459D01*
X1788Y2459D02*
X1798Y2459D01*
X643Y2458D02*
X648Y2458D01*
X948Y2458D02*
X956Y2458D01*
X1038Y2458D02*
X1046Y2458D01*
X1168Y2458D02*
X1174Y2458D01*
X1288Y2458D02*
X1294Y2458D01*
X1311Y2458D02*
X1317Y2458D01*
X1419Y2458D02*
X1424Y2458D01*
X1557Y2458D02*
X1564Y2458D01*
X1568Y2458D02*
X1574Y2458D01*
X1769Y2458D02*
X1780Y2458D01*
X1787Y2458D02*
X1798Y2458D01*
X643Y2457D02*
X648Y2457D01*
X948Y2457D02*
X956Y2457D01*
X1040Y2457D02*
X1046Y2457D01*
X1168Y2457D02*
X1173Y2457D01*
X1288Y2457D02*
X1293Y2457D01*
X1311Y2457D02*
X1317Y2457D01*
X1419Y2457D02*
X1424Y2457D01*
X1557Y2457D02*
X1563Y2457D01*
X1568Y2457D02*
X1573Y2457D01*
X1769Y2457D02*
X1781Y2457D01*
X1787Y2457D02*
X1798Y2457D01*
X643Y2456D02*
X648Y2456D01*
X948Y2456D02*
X956Y2456D01*
X1041Y2456D02*
X1046Y2456D01*
X1168Y2456D02*
X1173Y2456D01*
X1288Y2456D02*
X1293Y2456D01*
X1311Y2456D02*
X1317Y2456D01*
X1419Y2456D02*
X1424Y2456D01*
X1556Y2456D02*
X1562Y2456D01*
X1568Y2456D02*
X1573Y2456D01*
X1769Y2456D02*
X1782Y2456D01*
X1786Y2456D02*
X1798Y2456D01*
X643Y2455D02*
X648Y2455D01*
X947Y2455D02*
X957Y2455D01*
X1041Y2455D02*
X1047Y2455D01*
X1168Y2455D02*
X1173Y2455D01*
X1288Y2455D02*
X1292Y2455D01*
X1310Y2455D02*
X1316Y2455D01*
X1419Y2455D02*
X1424Y2455D01*
X1556Y2455D02*
X1562Y2455D01*
X1568Y2455D02*
X1573Y2455D01*
X1769Y2455D02*
X1774Y2455D01*
X1776Y2455D02*
X1782Y2455D01*
X1785Y2455D02*
X1798Y2455D01*
X643Y2454D02*
X648Y2454D01*
X947Y2454D02*
X957Y2454D01*
X1041Y2454D02*
X1047Y2454D01*
X1168Y2454D02*
X1173Y2454D01*
X1289Y2454D02*
X1292Y2454D01*
X1309Y2454D02*
X1316Y2454D01*
X1419Y2454D02*
X1424Y2454D01*
X1555Y2454D02*
X1561Y2454D01*
X1568Y2454D02*
X1573Y2454D01*
X1769Y2454D02*
X1774Y2454D01*
X1777Y2454D02*
X1791Y2454D01*
X1793Y2454D02*
X1798Y2454D01*
X643Y2453D02*
X648Y2453D01*
X947Y2453D02*
X957Y2453D01*
X1042Y2453D02*
X1047Y2453D01*
X1168Y2453D02*
X1173Y2453D01*
X1308Y2453D02*
X1315Y2453D01*
X1419Y2453D02*
X1424Y2453D01*
X1555Y2453D02*
X1561Y2453D01*
X1568Y2453D02*
X1573Y2453D01*
X1769Y2453D02*
X1774Y2453D01*
X1777Y2453D02*
X1790Y2453D01*
X1793Y2453D02*
X1798Y2453D01*
X643Y2452D02*
X648Y2452D01*
X861Y2452D02*
X868Y2452D01*
X875Y2452D02*
X878Y2452D01*
X905Y2452D02*
X912Y2452D01*
X919Y2452D02*
X922Y2452D01*
X947Y2452D02*
X957Y2452D01*
X1042Y2452D02*
X1047Y2452D01*
X1168Y2452D02*
X1173Y2452D01*
X1308Y2452D02*
X1314Y2452D01*
X1419Y2452D02*
X1424Y2452D01*
X1554Y2452D02*
X1560Y2452D01*
X1568Y2452D02*
X1573Y2452D01*
X1769Y2452D02*
X1774Y2452D01*
X1778Y2452D02*
X1790Y2452D01*
X1793Y2452D02*
X1798Y2452D01*
X643Y2451D02*
X648Y2451D01*
X682Y2451D02*
X696Y2451D01*
X720Y2451D02*
X722Y2451D01*
X744Y2451D02*
X746Y2451D01*
X771Y2451D02*
X783Y2451D01*
X812Y2451D02*
X822Y2451D01*
X832Y2451D02*
X834Y2451D01*
X859Y2451D02*
X870Y2451D01*
X874Y2451D02*
X879Y2451D01*
X903Y2451D02*
X914Y2451D01*
X918Y2451D02*
X922Y2451D01*
X946Y2451D02*
X958Y2451D01*
X1034Y2451D02*
X1051Y2451D01*
X1077Y2451D02*
X1090Y2451D01*
X1168Y2451D02*
X1173Y2451D01*
X1207Y2451D02*
X1222Y2451D01*
X1252Y2451D02*
X1265Y2451D01*
X1307Y2451D02*
X1314Y2451D01*
X1384Y2451D02*
X1396Y2451D01*
X1419Y2451D02*
X1424Y2451D01*
X1430Y2451D02*
X1440Y2451D01*
X1471Y2451D02*
X1484Y2451D01*
X1520Y2451D02*
X1531Y2451D01*
X1554Y2451D02*
X1560Y2451D01*
X1568Y2451D02*
X1573Y2451D01*
X1644Y2451D02*
X1661Y2451D01*
X1687Y2451D02*
X1705Y2451D01*
X1739Y2451D02*
X1750Y2451D01*
X1769Y2451D02*
X1774Y2451D01*
X1779Y2451D02*
X1789Y2451D01*
X1793Y2451D02*
X1798Y2451D01*
X643Y2450D02*
X648Y2450D01*
X680Y2450D02*
X697Y2450D01*
X719Y2450D02*
X723Y2450D01*
X743Y2450D02*
X747Y2450D01*
X769Y2450D02*
X785Y2450D01*
X810Y2450D02*
X823Y2450D01*
X831Y2450D02*
X835Y2450D01*
X858Y2450D02*
X871Y2450D01*
X874Y2450D02*
X879Y2450D01*
X901Y2450D02*
X915Y2450D01*
X918Y2450D02*
X923Y2450D01*
X946Y2450D02*
X958Y2450D01*
X1033Y2450D02*
X1052Y2450D01*
X1075Y2450D02*
X1092Y2450D01*
X1168Y2450D02*
X1173Y2450D01*
X1205Y2450D02*
X1223Y2450D01*
X1250Y2450D02*
X1267Y2450D01*
X1306Y2450D02*
X1313Y2450D01*
X1382Y2450D02*
X1398Y2450D01*
X1419Y2450D02*
X1424Y2450D01*
X1428Y2450D02*
X1442Y2450D01*
X1469Y2450D02*
X1486Y2450D01*
X1519Y2450D02*
X1532Y2450D01*
X1553Y2450D02*
X1559Y2450D01*
X1568Y2450D02*
X1573Y2450D01*
X1642Y2450D02*
X1663Y2450D01*
X1685Y2450D02*
X1707Y2450D01*
X1738Y2450D02*
X1751Y2450D01*
X1769Y2450D02*
X1774Y2450D01*
X1779Y2450D02*
X1788Y2450D01*
X1793Y2450D02*
X1798Y2450D01*
X643Y2449D02*
X648Y2449D01*
X678Y2449D02*
X698Y2449D01*
X719Y2449D02*
X724Y2449D01*
X743Y2449D02*
X748Y2449D01*
X767Y2449D02*
X786Y2449D01*
X809Y2449D02*
X824Y2449D01*
X830Y2449D02*
X835Y2449D01*
X856Y2449D02*
X872Y2449D01*
X874Y2449D02*
X879Y2449D01*
X900Y2449D02*
X916Y2449D01*
X918Y2449D02*
X923Y2449D01*
X946Y2449D02*
X951Y2449D01*
X953Y2449D02*
X958Y2449D01*
X1033Y2449D02*
X1053Y2449D01*
X1074Y2449D02*
X1093Y2449D01*
X1168Y2449D02*
X1173Y2449D01*
X1204Y2449D02*
X1223Y2449D01*
X1249Y2449D02*
X1268Y2449D01*
X1305Y2449D02*
X1312Y2449D01*
X1380Y2449D02*
X1399Y2449D01*
X1419Y2449D02*
X1424Y2449D01*
X1427Y2449D02*
X1443Y2449D01*
X1468Y2449D02*
X1487Y2449D01*
X1519Y2449D02*
X1533Y2449D01*
X1553Y2449D02*
X1559Y2449D01*
X1568Y2449D02*
X1573Y2449D01*
X1640Y2449D02*
X1664Y2449D01*
X1684Y2449D02*
X1708Y2449D01*
X1738Y2449D02*
X1751Y2449D01*
X1769Y2449D02*
X1774Y2449D01*
X1780Y2449D02*
X1787Y2449D01*
X1793Y2449D02*
X1798Y2449D01*
X643Y2448D02*
X648Y2448D01*
X678Y2448D02*
X698Y2448D01*
X719Y2448D02*
X724Y2448D01*
X743Y2448D02*
X748Y2448D01*
X766Y2448D02*
X788Y2448D01*
X808Y2448D02*
X825Y2448D01*
X830Y2448D02*
X835Y2448D01*
X855Y2448D02*
X879Y2448D01*
X899Y2448D02*
X923Y2448D01*
X945Y2448D02*
X951Y2448D01*
X953Y2448D02*
X959Y2448D01*
X1033Y2448D02*
X1053Y2448D01*
X1073Y2448D02*
X1094Y2448D01*
X1168Y2448D02*
X1173Y2448D01*
X1203Y2448D02*
X1223Y2448D01*
X1248Y2448D02*
X1269Y2448D01*
X1305Y2448D02*
X1311Y2448D01*
X1379Y2448D02*
X1400Y2448D01*
X1419Y2448D02*
X1424Y2448D01*
X1426Y2448D02*
X1444Y2448D01*
X1467Y2448D02*
X1488Y2448D01*
X1519Y2448D02*
X1533Y2448D01*
X1552Y2448D02*
X1558Y2448D01*
X1568Y2448D02*
X1573Y2448D01*
X1639Y2448D02*
X1665Y2448D01*
X1683Y2448D02*
X1709Y2448D01*
X1737Y2448D02*
X1751Y2448D01*
X1769Y2448D02*
X1774Y2448D01*
X1781Y2448D02*
X1787Y2448D01*
X1793Y2448D02*
X1798Y2448D01*
X643Y2447D02*
X648Y2447D01*
X677Y2447D02*
X698Y2447D01*
X719Y2447D02*
X724Y2447D01*
X743Y2447D02*
X748Y2447D01*
X765Y2447D02*
X789Y2447D01*
X807Y2447D02*
X827Y2447D01*
X830Y2447D02*
X835Y2447D01*
X854Y2447D02*
X879Y2447D01*
X898Y2447D02*
X923Y2447D01*
X945Y2447D02*
X951Y2447D01*
X954Y2447D02*
X959Y2447D01*
X1033Y2447D02*
X1052Y2447D01*
X1072Y2447D02*
X1095Y2447D01*
X1168Y2447D02*
X1173Y2447D01*
X1202Y2447D02*
X1223Y2447D01*
X1247Y2447D02*
X1270Y2447D01*
X1304Y2447D02*
X1311Y2447D01*
X1378Y2447D02*
X1402Y2447D01*
X1419Y2447D02*
X1445Y2447D01*
X1466Y2447D02*
X1489Y2447D01*
X1519Y2447D02*
X1532Y2447D01*
X1552Y2447D02*
X1558Y2447D01*
X1568Y2447D02*
X1573Y2447D01*
X1639Y2447D02*
X1666Y2447D01*
X1683Y2447D02*
X1709Y2447D01*
X1737Y2447D02*
X1751Y2447D01*
X1769Y2447D02*
X1774Y2447D01*
X1781Y2447D02*
X1786Y2447D01*
X1793Y2447D02*
X1798Y2447D01*
X643Y2446D02*
X648Y2446D01*
X676Y2446D02*
X697Y2446D01*
X719Y2446D02*
X724Y2446D01*
X743Y2446D02*
X748Y2446D01*
X764Y2446D02*
X789Y2446D01*
X807Y2446D02*
X828Y2446D01*
X830Y2446D02*
X835Y2446D01*
X853Y2446D02*
X861Y2446D01*
X867Y2446D02*
X879Y2446D01*
X897Y2446D02*
X905Y2446D01*
X911Y2446D02*
X923Y2446D01*
X945Y2446D02*
X950Y2446D01*
X954Y2446D02*
X959Y2446D01*
X1034Y2446D02*
X1051Y2446D01*
X1071Y2446D02*
X1096Y2446D01*
X1168Y2446D02*
X1173Y2446D01*
X1202Y2446D02*
X1222Y2446D01*
X1246Y2446D02*
X1271Y2446D01*
X1303Y2446D02*
X1310Y2446D01*
X1377Y2446D02*
X1402Y2446D01*
X1419Y2446D02*
X1446Y2446D01*
X1465Y2446D02*
X1490Y2446D01*
X1519Y2446D02*
X1531Y2446D01*
X1551Y2446D02*
X1557Y2446D01*
X1568Y2446D02*
X1573Y2446D01*
X1639Y2446D02*
X1666Y2446D01*
X1682Y2446D02*
X1710Y2446D01*
X1737Y2446D02*
X1750Y2446D01*
X1769Y2446D02*
X1774Y2446D01*
X1781Y2446D02*
X1786Y2446D01*
X1793Y2446D02*
X1798Y2446D01*
X643Y2445D02*
X648Y2445D01*
X676Y2445D02*
X682Y2445D01*
X719Y2445D02*
X724Y2445D01*
X743Y2445D02*
X748Y2445D01*
X764Y2445D02*
X771Y2445D01*
X783Y2445D02*
X790Y2445D01*
X806Y2445D02*
X813Y2445D01*
X821Y2445D02*
X835Y2445D01*
X852Y2445D02*
X860Y2445D01*
X868Y2445D02*
X879Y2445D01*
X896Y2445D02*
X904Y2445D01*
X912Y2445D02*
X923Y2445D01*
X945Y2445D02*
X950Y2445D01*
X954Y2445D02*
X959Y2445D01*
X1041Y2445D02*
X1047Y2445D01*
X1070Y2445D02*
X1078Y2445D01*
X1089Y2445D02*
X1097Y2445D01*
X1168Y2445D02*
X1173Y2445D01*
X1201Y2445D02*
X1207Y2445D01*
X1245Y2445D02*
X1253Y2445D01*
X1264Y2445D02*
X1272Y2445D01*
X1302Y2445D02*
X1309Y2445D01*
X1376Y2445D02*
X1384Y2445D01*
X1395Y2445D02*
X1403Y2445D01*
X1419Y2445D02*
X1431Y2445D01*
X1439Y2445D02*
X1447Y2445D01*
X1464Y2445D02*
X1472Y2445D01*
X1483Y2445D02*
X1491Y2445D01*
X1519Y2445D02*
X1524Y2445D01*
X1551Y2445D02*
X1557Y2445D01*
X1568Y2445D02*
X1573Y2445D01*
X1639Y2445D02*
X1644Y2445D01*
X1660Y2445D02*
X1666Y2445D01*
X1682Y2445D02*
X1688Y2445D01*
X1704Y2445D02*
X1710Y2445D01*
X1737Y2445D02*
X1743Y2445D01*
X1769Y2445D02*
X1774Y2445D01*
X1781Y2445D02*
X1786Y2445D01*
X1793Y2445D02*
X1798Y2445D01*
X643Y2444D02*
X648Y2444D01*
X676Y2444D02*
X681Y2444D01*
X719Y2444D02*
X724Y2444D01*
X743Y2444D02*
X748Y2444D01*
X763Y2444D02*
X770Y2444D01*
X784Y2444D02*
X791Y2444D01*
X806Y2444D02*
X812Y2444D01*
X822Y2444D02*
X835Y2444D01*
X851Y2444D02*
X859Y2444D01*
X869Y2444D02*
X879Y2444D01*
X895Y2444D02*
X903Y2444D01*
X913Y2444D02*
X923Y2444D01*
X944Y2444D02*
X950Y2444D01*
X954Y2444D02*
X960Y2444D01*
X1042Y2444D02*
X1047Y2444D01*
X1069Y2444D02*
X1076Y2444D01*
X1090Y2444D02*
X1097Y2444D01*
X1168Y2444D02*
X1173Y2444D01*
X1201Y2444D02*
X1206Y2444D01*
X1245Y2444D02*
X1251Y2444D01*
X1265Y2444D02*
X1272Y2444D01*
X1301Y2444D02*
X1308Y2444D01*
X1376Y2444D02*
X1382Y2444D01*
X1397Y2444D02*
X1404Y2444D01*
X1419Y2444D02*
X1430Y2444D01*
X1441Y2444D02*
X1447Y2444D01*
X1463Y2444D02*
X1470Y2444D01*
X1484Y2444D02*
X1491Y2444D01*
X1519Y2444D02*
X1524Y2444D01*
X1551Y2444D02*
X1556Y2444D01*
X1568Y2444D02*
X1573Y2444D01*
X1639Y2444D02*
X1643Y2444D01*
X1661Y2444D02*
X1666Y2444D01*
X1683Y2444D02*
X1687Y2444D01*
X1705Y2444D02*
X1710Y2444D01*
X1737Y2444D02*
X1742Y2444D01*
X1769Y2444D02*
X1774Y2444D01*
X1782Y2444D02*
X1786Y2444D01*
X1793Y2444D02*
X1798Y2444D01*
X643Y2443D02*
X648Y2443D01*
X676Y2443D02*
X681Y2443D01*
X719Y2443D02*
X724Y2443D01*
X742Y2443D02*
X748Y2443D01*
X763Y2443D02*
X769Y2443D01*
X785Y2443D02*
X791Y2443D01*
X806Y2443D02*
X811Y2443D01*
X823Y2443D02*
X835Y2443D01*
X851Y2443D02*
X858Y2443D01*
X870Y2443D02*
X879Y2443D01*
X895Y2443D02*
X902Y2443D01*
X914Y2443D02*
X923Y2443D01*
X944Y2443D02*
X949Y2443D01*
X955Y2443D02*
X960Y2443D01*
X1042Y2443D02*
X1047Y2443D01*
X1069Y2443D02*
X1075Y2443D01*
X1092Y2443D02*
X1097Y2443D01*
X1168Y2443D02*
X1173Y2443D01*
X1201Y2443D02*
X1206Y2443D01*
X1244Y2443D02*
X1250Y2443D01*
X1267Y2443D02*
X1273Y2443D01*
X1301Y2443D02*
X1307Y2443D01*
X1376Y2443D02*
X1381Y2443D01*
X1398Y2443D02*
X1404Y2443D01*
X1419Y2443D02*
X1428Y2443D01*
X1442Y2443D02*
X1448Y2443D01*
X1463Y2443D02*
X1469Y2443D01*
X1485Y2443D02*
X1491Y2443D01*
X1519Y2443D02*
X1524Y2443D01*
X1551Y2443D02*
X1556Y2443D01*
X1568Y2443D02*
X1573Y2443D01*
X1641Y2443D02*
X1641Y2443D01*
X1661Y2443D02*
X1666Y2443D01*
X1684Y2443D02*
X1685Y2443D01*
X1705Y2443D02*
X1710Y2443D01*
X1737Y2443D02*
X1742Y2443D01*
X1769Y2443D02*
X1774Y2443D01*
X1783Y2443D02*
X1784Y2443D01*
X1793Y2443D02*
X1798Y2443D01*
X643Y2442D02*
X648Y2442D01*
X676Y2442D02*
X681Y2442D01*
X719Y2442D02*
X724Y2442D01*
X742Y2442D02*
X747Y2442D01*
X762Y2442D02*
X768Y2442D01*
X786Y2442D02*
X791Y2442D01*
X806Y2442D02*
X811Y2442D01*
X824Y2442D02*
X835Y2442D01*
X850Y2442D02*
X857Y2442D01*
X871Y2442D02*
X879Y2442D01*
X894Y2442D02*
X900Y2442D01*
X915Y2442D02*
X923Y2442D01*
X944Y2442D02*
X949Y2442D01*
X955Y2442D02*
X960Y2442D01*
X1042Y2442D02*
X1047Y2442D01*
X1069Y2442D02*
X1074Y2442D01*
X1092Y2442D02*
X1098Y2442D01*
X1168Y2442D02*
X1173Y2442D01*
X1201Y2442D02*
X1206Y2442D01*
X1244Y2442D02*
X1249Y2442D01*
X1267Y2442D02*
X1273Y2442D01*
X1300Y2442D02*
X1307Y2442D01*
X1375Y2442D02*
X1381Y2442D01*
X1399Y2442D02*
X1404Y2442D01*
X1419Y2442D02*
X1427Y2442D01*
X1443Y2442D02*
X1448Y2442D01*
X1463Y2442D02*
X1468Y2442D01*
X1486Y2442D02*
X1492Y2442D01*
X1519Y2442D02*
X1524Y2442D01*
X1550Y2442D02*
X1556Y2442D01*
X1568Y2442D02*
X1573Y2442D01*
X1660Y2442D02*
X1666Y2442D01*
X1704Y2442D02*
X1710Y2442D01*
X1737Y2442D02*
X1742Y2442D01*
X1769Y2442D02*
X1774Y2442D01*
X1793Y2442D02*
X1798Y2442D01*
X643Y2441D02*
X648Y2441D01*
X675Y2441D02*
X681Y2441D01*
X719Y2441D02*
X725Y2441D01*
X741Y2441D02*
X747Y2441D01*
X762Y2441D02*
X768Y2441D01*
X786Y2441D02*
X791Y2441D01*
X806Y2441D02*
X811Y2441D01*
X825Y2441D02*
X835Y2441D01*
X850Y2441D02*
X856Y2441D01*
X872Y2441D02*
X879Y2441D01*
X894Y2441D02*
X899Y2441D01*
X916Y2441D02*
X923Y2441D01*
X943Y2441D02*
X949Y2441D01*
X955Y2441D02*
X961Y2441D01*
X1042Y2441D02*
X1047Y2441D01*
X1069Y2441D02*
X1074Y2441D01*
X1093Y2441D02*
X1098Y2441D01*
X1168Y2441D02*
X1173Y2441D01*
X1201Y2441D02*
X1206Y2441D01*
X1244Y2441D02*
X1249Y2441D01*
X1268Y2441D02*
X1273Y2441D01*
X1299Y2441D02*
X1306Y2441D01*
X1375Y2441D02*
X1380Y2441D01*
X1399Y2441D02*
X1404Y2441D01*
X1419Y2441D02*
X1426Y2441D01*
X1443Y2441D02*
X1448Y2441D01*
X1463Y2441D02*
X1468Y2441D01*
X1487Y2441D02*
X1492Y2441D01*
X1519Y2441D02*
X1524Y2441D01*
X1550Y2441D02*
X1555Y2441D01*
X1568Y2441D02*
X1573Y2441D01*
X1658Y2441D02*
X1666Y2441D01*
X1701Y2441D02*
X1709Y2441D01*
X1737Y2441D02*
X1742Y2441D01*
X1769Y2441D02*
X1774Y2441D01*
X1793Y2441D02*
X1798Y2441D01*
X643Y2440D02*
X648Y2440D01*
X675Y2440D02*
X681Y2440D01*
X720Y2440D02*
X725Y2440D01*
X741Y2440D02*
X747Y2440D01*
X762Y2440D02*
X767Y2440D01*
X786Y2440D02*
X791Y2440D01*
X806Y2440D02*
X811Y2440D01*
X826Y2440D02*
X835Y2440D01*
X850Y2440D02*
X855Y2440D01*
X873Y2440D02*
X879Y2440D01*
X894Y2440D02*
X899Y2440D01*
X917Y2440D02*
X923Y2440D01*
X943Y2440D02*
X949Y2440D01*
X956Y2440D02*
X961Y2440D01*
X1042Y2440D02*
X1047Y2440D01*
X1069Y2440D02*
X1074Y2440D01*
X1093Y2440D02*
X1098Y2440D01*
X1168Y2440D02*
X1173Y2440D01*
X1201Y2440D02*
X1206Y2440D01*
X1244Y2440D02*
X1249Y2440D01*
X1268Y2440D02*
X1273Y2440D01*
X1298Y2440D02*
X1305Y2440D01*
X1375Y2440D02*
X1380Y2440D01*
X1399Y2440D02*
X1404Y2440D01*
X1419Y2440D02*
X1425Y2440D01*
X1443Y2440D02*
X1448Y2440D01*
X1463Y2440D02*
X1468Y2440D01*
X1487Y2440D02*
X1492Y2440D01*
X1519Y2440D02*
X1524Y2440D01*
X1550Y2440D02*
X1555Y2440D01*
X1568Y2440D02*
X1573Y2440D01*
X1655Y2440D02*
X1665Y2440D01*
X1699Y2440D02*
X1709Y2440D01*
X1737Y2440D02*
X1742Y2440D01*
X1769Y2440D02*
X1774Y2440D01*
X1793Y2440D02*
X1798Y2440D01*
X643Y2439D02*
X648Y2439D01*
X675Y2439D02*
X681Y2439D01*
X720Y2439D02*
X726Y2439D01*
X740Y2439D02*
X746Y2439D01*
X762Y2439D02*
X767Y2439D01*
X786Y2439D02*
X791Y2439D01*
X807Y2439D02*
X811Y2439D01*
X827Y2439D02*
X835Y2439D01*
X850Y2439D02*
X855Y2439D01*
X874Y2439D02*
X879Y2439D01*
X894Y2439D02*
X899Y2439D01*
X918Y2439D02*
X923Y2439D01*
X943Y2439D02*
X948Y2439D01*
X956Y2439D02*
X961Y2439D01*
X1042Y2439D02*
X1047Y2439D01*
X1069Y2439D02*
X1074Y2439D01*
X1093Y2439D02*
X1098Y2439D01*
X1168Y2439D02*
X1173Y2439D01*
X1201Y2439D02*
X1206Y2439D01*
X1244Y2439D02*
X1249Y2439D01*
X1268Y2439D02*
X1273Y2439D01*
X1298Y2439D02*
X1304Y2439D01*
X1375Y2439D02*
X1380Y2439D01*
X1399Y2439D02*
X1404Y2439D01*
X1419Y2439D02*
X1424Y2439D01*
X1443Y2439D02*
X1448Y2439D01*
X1463Y2439D02*
X1468Y2439D01*
X1487Y2439D02*
X1492Y2439D01*
X1519Y2439D02*
X1524Y2439D01*
X1550Y2439D02*
X1556Y2439D01*
X1568Y2439D02*
X1573Y2439D01*
X1653Y2439D02*
X1665Y2439D01*
X1697Y2439D02*
X1708Y2439D01*
X1737Y2439D02*
X1742Y2439D01*
X1769Y2439D02*
X1774Y2439D01*
X1793Y2439D02*
X1798Y2439D01*
X643Y2438D02*
X648Y2438D01*
X675Y2438D02*
X698Y2438D01*
X721Y2438D02*
X726Y2438D01*
X740Y2438D02*
X746Y2438D01*
X762Y2438D02*
X767Y2438D01*
X786Y2438D02*
X791Y2438D01*
X808Y2438D02*
X809Y2438D01*
X829Y2438D02*
X835Y2438D01*
X850Y2438D02*
X855Y2438D01*
X874Y2438D02*
X879Y2438D01*
X894Y2438D02*
X899Y2438D01*
X918Y2438D02*
X923Y2438D01*
X943Y2438D02*
X948Y2438D01*
X956Y2438D02*
X962Y2438D01*
X1042Y2438D02*
X1047Y2438D01*
X1069Y2438D02*
X1074Y2438D01*
X1093Y2438D02*
X1098Y2438D01*
X1168Y2438D02*
X1173Y2438D01*
X1201Y2438D02*
X1224Y2438D01*
X1244Y2438D02*
X1249Y2438D01*
X1268Y2438D02*
X1273Y2438D01*
X1297Y2438D02*
X1304Y2438D01*
X1375Y2438D02*
X1380Y2438D01*
X1399Y2438D02*
X1404Y2438D01*
X1419Y2438D02*
X1424Y2438D01*
X1443Y2438D02*
X1448Y2438D01*
X1463Y2438D02*
X1468Y2438D01*
X1487Y2438D02*
X1492Y2438D01*
X1519Y2438D02*
X1524Y2438D01*
X1551Y2438D02*
X1556Y2438D01*
X1568Y2438D02*
X1573Y2438D01*
X1651Y2438D02*
X1664Y2438D01*
X1694Y2438D02*
X1707Y2438D01*
X1737Y2438D02*
X1742Y2438D01*
X1769Y2438D02*
X1774Y2438D01*
X1793Y2438D02*
X1798Y2438D01*
X643Y2437D02*
X648Y2437D01*
X675Y2437D02*
X700Y2437D01*
X721Y2437D02*
X727Y2437D01*
X740Y2437D02*
X745Y2437D01*
X762Y2437D02*
X767Y2437D01*
X786Y2437D02*
X791Y2437D01*
X830Y2437D02*
X835Y2437D01*
X850Y2437D02*
X855Y2437D01*
X874Y2437D02*
X879Y2437D01*
X894Y2437D02*
X899Y2437D01*
X918Y2437D02*
X923Y2437D01*
X942Y2437D02*
X948Y2437D01*
X956Y2437D02*
X962Y2437D01*
X1042Y2437D02*
X1047Y2437D01*
X1069Y2437D02*
X1074Y2437D01*
X1093Y2437D02*
X1098Y2437D01*
X1168Y2437D02*
X1173Y2437D01*
X1201Y2437D02*
X1225Y2437D01*
X1244Y2437D02*
X1249Y2437D01*
X1268Y2437D02*
X1273Y2437D01*
X1296Y2437D02*
X1303Y2437D01*
X1375Y2437D02*
X1380Y2437D01*
X1399Y2437D02*
X1404Y2437D01*
X1419Y2437D02*
X1424Y2437D01*
X1443Y2437D02*
X1448Y2437D01*
X1463Y2437D02*
X1468Y2437D01*
X1487Y2437D02*
X1492Y2437D01*
X1519Y2437D02*
X1524Y2437D01*
X1551Y2437D02*
X1556Y2437D01*
X1568Y2437D02*
X1573Y2437D01*
X1648Y2437D02*
X1662Y2437D01*
X1692Y2437D02*
X1706Y2437D01*
X1737Y2437D02*
X1742Y2437D01*
X1769Y2437D02*
X1774Y2437D01*
X1793Y2437D02*
X1798Y2437D01*
X643Y2436D02*
X648Y2436D01*
X675Y2436D02*
X701Y2436D01*
X721Y2436D02*
X727Y2436D01*
X739Y2436D02*
X745Y2436D01*
X762Y2436D02*
X767Y2436D01*
X786Y2436D02*
X791Y2436D01*
X830Y2436D02*
X835Y2436D01*
X850Y2436D02*
X855Y2436D01*
X874Y2436D02*
X879Y2436D01*
X894Y2436D02*
X899Y2436D01*
X918Y2436D02*
X923Y2436D01*
X942Y2436D02*
X947Y2436D01*
X957Y2436D02*
X962Y2436D01*
X1042Y2436D02*
X1047Y2436D01*
X1069Y2436D02*
X1074Y2436D01*
X1093Y2436D02*
X1098Y2436D01*
X1168Y2436D02*
X1173Y2436D01*
X1201Y2436D02*
X1227Y2436D01*
X1244Y2436D02*
X1273Y2436D01*
X1295Y2436D02*
X1302Y2436D01*
X1375Y2436D02*
X1404Y2436D01*
X1419Y2436D02*
X1424Y2436D01*
X1443Y2436D02*
X1448Y2436D01*
X1463Y2436D02*
X1468Y2436D01*
X1487Y2436D02*
X1492Y2436D01*
X1519Y2436D02*
X1524Y2436D01*
X1551Y2436D02*
X1557Y2436D01*
X1568Y2436D02*
X1573Y2436D01*
X1646Y2436D02*
X1660Y2436D01*
X1690Y2436D02*
X1704Y2436D01*
X1737Y2436D02*
X1742Y2436D01*
X1769Y2436D02*
X1774Y2436D01*
X1793Y2436D02*
X1798Y2436D01*
X643Y2435D02*
X648Y2435D01*
X675Y2435D02*
X702Y2435D01*
X722Y2435D02*
X728Y2435D01*
X739Y2435D02*
X744Y2435D01*
X762Y2435D02*
X767Y2435D01*
X786Y2435D02*
X791Y2435D01*
X830Y2435D02*
X835Y2435D01*
X850Y2435D02*
X855Y2435D01*
X874Y2435D02*
X879Y2435D01*
X894Y2435D02*
X899Y2435D01*
X918Y2435D02*
X923Y2435D01*
X942Y2435D02*
X947Y2435D01*
X957Y2435D02*
X962Y2435D01*
X1042Y2435D02*
X1047Y2435D01*
X1069Y2435D02*
X1074Y2435D01*
X1093Y2435D02*
X1098Y2435D01*
X1168Y2435D02*
X1173Y2435D01*
X1201Y2435D02*
X1227Y2435D01*
X1244Y2435D02*
X1273Y2435D01*
X1294Y2435D02*
X1301Y2435D01*
X1375Y2435D02*
X1404Y2435D01*
X1419Y2435D02*
X1424Y2435D01*
X1443Y2435D02*
X1448Y2435D01*
X1463Y2435D02*
X1468Y2435D01*
X1487Y2435D02*
X1492Y2435D01*
X1519Y2435D02*
X1524Y2435D01*
X1552Y2435D02*
X1557Y2435D01*
X1568Y2435D02*
X1573Y2435D01*
X1644Y2435D02*
X1658Y2435D01*
X1687Y2435D02*
X1702Y2435D01*
X1737Y2435D02*
X1742Y2435D01*
X1769Y2435D02*
X1774Y2435D01*
X1793Y2435D02*
X1798Y2435D01*
X643Y2434D02*
X648Y2434D01*
X675Y2434D02*
X703Y2434D01*
X722Y2434D02*
X728Y2434D01*
X738Y2434D02*
X744Y2434D01*
X762Y2434D02*
X767Y2434D01*
X786Y2434D02*
X791Y2434D01*
X830Y2434D02*
X835Y2434D01*
X850Y2434D02*
X855Y2434D01*
X874Y2434D02*
X879Y2434D01*
X894Y2434D02*
X899Y2434D01*
X918Y2434D02*
X923Y2434D01*
X941Y2434D02*
X947Y2434D01*
X957Y2434D02*
X963Y2434D01*
X1042Y2434D02*
X1047Y2434D01*
X1069Y2434D02*
X1074Y2434D01*
X1093Y2434D02*
X1098Y2434D01*
X1168Y2434D02*
X1173Y2434D01*
X1201Y2434D02*
X1228Y2434D01*
X1244Y2434D02*
X1273Y2434D01*
X1294Y2434D02*
X1300Y2434D01*
X1375Y2434D02*
X1404Y2434D01*
X1419Y2434D02*
X1424Y2434D01*
X1443Y2434D02*
X1448Y2434D01*
X1463Y2434D02*
X1468Y2434D01*
X1487Y2434D02*
X1492Y2434D01*
X1519Y2434D02*
X1524Y2434D01*
X1552Y2434D02*
X1558Y2434D01*
X1568Y2434D02*
X1573Y2434D01*
X1642Y2434D02*
X1656Y2434D01*
X1686Y2434D02*
X1699Y2434D01*
X1737Y2434D02*
X1742Y2434D01*
X1769Y2434D02*
X1774Y2434D01*
X1793Y2434D02*
X1798Y2434D01*
X643Y2433D02*
X648Y2433D01*
X675Y2433D02*
X703Y2433D01*
X723Y2433D02*
X728Y2433D01*
X738Y2433D02*
X743Y2433D01*
X762Y2433D02*
X767Y2433D01*
X786Y2433D02*
X791Y2433D01*
X830Y2433D02*
X835Y2433D01*
X850Y2433D02*
X855Y2433D01*
X874Y2433D02*
X879Y2433D01*
X894Y2433D02*
X899Y2433D01*
X918Y2433D02*
X923Y2433D01*
X941Y2433D02*
X963Y2433D01*
X1042Y2433D02*
X1047Y2433D01*
X1069Y2433D02*
X1074Y2433D01*
X1093Y2433D02*
X1098Y2433D01*
X1168Y2433D02*
X1173Y2433D01*
X1201Y2433D02*
X1229Y2433D01*
X1244Y2433D02*
X1273Y2433D01*
X1293Y2433D02*
X1300Y2433D01*
X1375Y2433D02*
X1404Y2433D01*
X1419Y2433D02*
X1424Y2433D01*
X1443Y2433D02*
X1448Y2433D01*
X1463Y2433D02*
X1468Y2433D01*
X1487Y2433D02*
X1492Y2433D01*
X1519Y2433D02*
X1524Y2433D01*
X1553Y2433D02*
X1558Y2433D01*
X1568Y2433D02*
X1573Y2433D01*
X1641Y2433D02*
X1653Y2433D01*
X1685Y2433D02*
X1697Y2433D01*
X1737Y2433D02*
X1742Y2433D01*
X1769Y2433D02*
X1774Y2433D01*
X1793Y2433D02*
X1798Y2433D01*
X643Y2432D02*
X648Y2432D01*
X675Y2432D02*
X682Y2432D01*
X697Y2432D02*
X704Y2432D01*
X723Y2432D02*
X729Y2432D01*
X737Y2432D02*
X743Y2432D01*
X762Y2432D02*
X767Y2432D01*
X786Y2432D02*
X791Y2432D01*
X830Y2432D02*
X835Y2432D01*
X850Y2432D02*
X855Y2432D01*
X874Y2432D02*
X879Y2432D01*
X894Y2432D02*
X899Y2432D01*
X918Y2432D02*
X923Y2432D01*
X941Y2432D02*
X963Y2432D01*
X1042Y2432D02*
X1047Y2432D01*
X1069Y2432D02*
X1074Y2432D01*
X1093Y2432D02*
X1098Y2432D01*
X1168Y2432D02*
X1173Y2432D01*
X1200Y2432D02*
X1207Y2432D01*
X1223Y2432D02*
X1229Y2432D01*
X1244Y2432D02*
X1273Y2432D01*
X1292Y2432D02*
X1299Y2432D01*
X1375Y2432D02*
X1404Y2432D01*
X1419Y2432D02*
X1424Y2432D01*
X1443Y2432D02*
X1448Y2432D01*
X1463Y2432D02*
X1468Y2432D01*
X1487Y2432D02*
X1492Y2432D01*
X1519Y2432D02*
X1524Y2432D01*
X1553Y2432D02*
X1559Y2432D01*
X1568Y2432D02*
X1573Y2432D01*
X1640Y2432D02*
X1651Y2432D01*
X1684Y2432D02*
X1695Y2432D01*
X1737Y2432D02*
X1742Y2432D01*
X1769Y2432D02*
X1774Y2432D01*
X1793Y2432D02*
X1798Y2432D01*
X643Y2431D02*
X648Y2431D01*
X675Y2431D02*
X681Y2431D01*
X698Y2431D02*
X704Y2431D01*
X724Y2431D02*
X729Y2431D01*
X737Y2431D02*
X743Y2431D01*
X762Y2431D02*
X767Y2431D01*
X786Y2431D02*
X791Y2431D01*
X830Y2431D02*
X835Y2431D01*
X850Y2431D02*
X855Y2431D01*
X874Y2431D02*
X879Y2431D01*
X894Y2431D02*
X899Y2431D01*
X918Y2431D02*
X923Y2431D01*
X941Y2431D02*
X964Y2431D01*
X1042Y2431D02*
X1047Y2431D01*
X1069Y2431D02*
X1074Y2431D01*
X1093Y2431D02*
X1098Y2431D01*
X1168Y2431D02*
X1173Y2431D01*
X1200Y2431D02*
X1206Y2431D01*
X1224Y2431D02*
X1229Y2431D01*
X1245Y2431D02*
X1273Y2431D01*
X1291Y2431D02*
X1298Y2431D01*
X1376Y2431D02*
X1404Y2431D01*
X1419Y2431D02*
X1424Y2431D01*
X1443Y2431D02*
X1448Y2431D01*
X1463Y2431D02*
X1468Y2431D01*
X1487Y2431D02*
X1492Y2431D01*
X1519Y2431D02*
X1524Y2431D01*
X1554Y2431D02*
X1559Y2431D01*
X1568Y2431D02*
X1573Y2431D01*
X1639Y2431D02*
X1649Y2431D01*
X1683Y2431D02*
X1693Y2431D01*
X1737Y2431D02*
X1742Y2431D01*
X1769Y2431D02*
X1774Y2431D01*
X1793Y2431D02*
X1798Y2431D01*
X643Y2430D02*
X648Y2430D01*
X675Y2430D02*
X680Y2430D01*
X699Y2430D02*
X704Y2430D01*
X724Y2430D02*
X730Y2430D01*
X737Y2430D02*
X742Y2430D01*
X762Y2430D02*
X767Y2430D01*
X786Y2430D02*
X791Y2430D01*
X830Y2430D02*
X835Y2430D01*
X850Y2430D02*
X855Y2430D01*
X874Y2430D02*
X879Y2430D01*
X894Y2430D02*
X899Y2430D01*
X918Y2430D02*
X923Y2430D01*
X940Y2430D02*
X964Y2430D01*
X1042Y2430D02*
X1047Y2430D01*
X1069Y2430D02*
X1074Y2430D01*
X1093Y2430D02*
X1098Y2430D01*
X1168Y2430D02*
X1173Y2430D01*
X1200Y2430D02*
X1206Y2430D01*
X1224Y2430D02*
X1229Y2430D01*
X1247Y2430D02*
X1273Y2430D01*
X1291Y2430D02*
X1297Y2430D01*
X1378Y2430D02*
X1404Y2430D01*
X1419Y2430D02*
X1424Y2430D01*
X1443Y2430D02*
X1448Y2430D01*
X1463Y2430D02*
X1468Y2430D01*
X1487Y2430D02*
X1492Y2430D01*
X1519Y2430D02*
X1524Y2430D01*
X1554Y2430D02*
X1560Y2430D01*
X1568Y2430D02*
X1573Y2430D01*
X1639Y2430D02*
X1646Y2430D01*
X1683Y2430D02*
X1690Y2430D01*
X1737Y2430D02*
X1742Y2430D01*
X1769Y2430D02*
X1774Y2430D01*
X1793Y2430D02*
X1798Y2430D01*
X643Y2429D02*
X648Y2429D01*
X675Y2429D02*
X680Y2429D01*
X699Y2429D02*
X704Y2429D01*
X725Y2429D02*
X730Y2429D01*
X736Y2429D02*
X742Y2429D01*
X762Y2429D02*
X767Y2429D01*
X786Y2429D02*
X791Y2429D01*
X830Y2429D02*
X835Y2429D01*
X850Y2429D02*
X855Y2429D01*
X874Y2429D02*
X879Y2429D01*
X894Y2429D02*
X899Y2429D01*
X917Y2429D02*
X923Y2429D01*
X940Y2429D02*
X964Y2429D01*
X1042Y2429D02*
X1047Y2429D01*
X1069Y2429D02*
X1074Y2429D01*
X1093Y2429D02*
X1098Y2429D01*
X1168Y2429D02*
X1173Y2429D01*
X1200Y2429D02*
X1206Y2429D01*
X1224Y2429D02*
X1229Y2429D01*
X1268Y2429D02*
X1273Y2429D01*
X1290Y2429D02*
X1297Y2429D01*
X1399Y2429D02*
X1404Y2429D01*
X1419Y2429D02*
X1425Y2429D01*
X1443Y2429D02*
X1448Y2429D01*
X1463Y2429D02*
X1468Y2429D01*
X1487Y2429D02*
X1492Y2429D01*
X1519Y2429D02*
X1524Y2429D01*
X1554Y2429D02*
X1560Y2429D01*
X1568Y2429D02*
X1573Y2429D01*
X1638Y2429D02*
X1644Y2429D01*
X1682Y2429D02*
X1688Y2429D01*
X1737Y2429D02*
X1742Y2429D01*
X1769Y2429D02*
X1774Y2429D01*
X1793Y2429D02*
X1798Y2429D01*
X643Y2428D02*
X648Y2428D01*
X675Y2428D02*
X680Y2428D01*
X699Y2428D02*
X704Y2428D01*
X725Y2428D02*
X731Y2428D01*
X736Y2428D02*
X741Y2428D01*
X762Y2428D02*
X767Y2428D01*
X786Y2428D02*
X791Y2428D01*
X830Y2428D02*
X835Y2428D01*
X850Y2428D02*
X855Y2428D01*
X873Y2428D02*
X879Y2428D01*
X894Y2428D02*
X899Y2428D01*
X917Y2428D02*
X923Y2428D01*
X940Y2428D02*
X964Y2428D01*
X1042Y2428D02*
X1047Y2428D01*
X1069Y2428D02*
X1074Y2428D01*
X1093Y2428D02*
X1098Y2428D01*
X1168Y2428D02*
X1173Y2428D01*
X1200Y2428D02*
X1206Y2428D01*
X1224Y2428D02*
X1229Y2428D01*
X1268Y2428D02*
X1273Y2428D01*
X1289Y2428D02*
X1296Y2428D01*
X1313Y2428D02*
X1315Y2428D01*
X1399Y2428D02*
X1404Y2428D01*
X1419Y2428D02*
X1426Y2428D01*
X1443Y2428D02*
X1448Y2428D01*
X1463Y2428D02*
X1468Y2428D01*
X1487Y2428D02*
X1492Y2428D01*
X1519Y2428D02*
X1524Y2428D01*
X1555Y2428D02*
X1561Y2428D01*
X1568Y2428D02*
X1573Y2428D01*
X1638Y2428D02*
X1643Y2428D01*
X1682Y2428D02*
X1687Y2428D01*
X1737Y2428D02*
X1742Y2428D01*
X1769Y2428D02*
X1774Y2428D01*
X1793Y2428D02*
X1798Y2428D01*
X643Y2427D02*
X648Y2427D01*
X675Y2427D02*
X680Y2427D01*
X699Y2427D02*
X704Y2427D01*
X725Y2427D02*
X731Y2427D01*
X735Y2427D02*
X741Y2427D01*
X762Y2427D02*
X768Y2427D01*
X786Y2427D02*
X791Y2427D01*
X830Y2427D02*
X835Y2427D01*
X850Y2427D02*
X856Y2427D01*
X872Y2427D02*
X879Y2427D01*
X894Y2427D02*
X900Y2427D01*
X916Y2427D02*
X923Y2427D01*
X939Y2427D02*
X945Y2427D01*
X959Y2427D02*
X965Y2427D01*
X1042Y2427D02*
X1047Y2427D01*
X1069Y2427D02*
X1074Y2427D01*
X1092Y2427D02*
X1098Y2427D01*
X1168Y2427D02*
X1173Y2427D01*
X1200Y2427D02*
X1206Y2427D01*
X1224Y2427D02*
X1229Y2427D01*
X1268Y2427D02*
X1273Y2427D01*
X1288Y2427D02*
X1295Y2427D01*
X1312Y2427D02*
X1316Y2427D01*
X1399Y2427D02*
X1404Y2427D01*
X1419Y2427D02*
X1427Y2427D01*
X1443Y2427D02*
X1448Y2427D01*
X1463Y2427D02*
X1468Y2427D01*
X1486Y2427D02*
X1492Y2427D01*
X1519Y2427D02*
X1524Y2427D01*
X1555Y2427D02*
X1561Y2427D01*
X1568Y2427D02*
X1573Y2427D01*
X1638Y2427D02*
X1643Y2427D01*
X1682Y2427D02*
X1687Y2427D01*
X1737Y2427D02*
X1742Y2427D01*
X1769Y2427D02*
X1774Y2427D01*
X1793Y2427D02*
X1798Y2427D01*
X643Y2426D02*
X648Y2426D01*
X675Y2426D02*
X682Y2426D01*
X699Y2426D02*
X704Y2426D01*
X726Y2426D02*
X732Y2426D01*
X735Y2426D02*
X740Y2426D01*
X763Y2426D02*
X768Y2426D01*
X785Y2426D02*
X791Y2426D01*
X830Y2426D02*
X835Y2426D01*
X851Y2426D02*
X857Y2426D01*
X871Y2426D02*
X879Y2426D01*
X894Y2426D02*
X901Y2426D01*
X915Y2426D02*
X923Y2426D01*
X939Y2426D02*
X944Y2426D01*
X960Y2426D02*
X965Y2426D01*
X1042Y2426D02*
X1047Y2426D01*
X1069Y2426D02*
X1075Y2426D01*
X1092Y2426D02*
X1098Y2426D01*
X1168Y2426D02*
X1173Y2426D01*
X1200Y2426D02*
X1207Y2426D01*
X1224Y2426D02*
X1229Y2426D01*
X1267Y2426D02*
X1273Y2426D01*
X1288Y2426D02*
X1294Y2426D01*
X1312Y2426D02*
X1317Y2426D01*
X1398Y2426D02*
X1404Y2426D01*
X1419Y2426D02*
X1428Y2426D01*
X1442Y2426D02*
X1448Y2426D01*
X1463Y2426D02*
X1469Y2426D01*
X1486Y2426D02*
X1492Y2426D01*
X1519Y2426D02*
X1524Y2426D01*
X1556Y2426D02*
X1562Y2426D01*
X1568Y2426D02*
X1573Y2426D01*
X1638Y2426D02*
X1643Y2426D01*
X1682Y2426D02*
X1687Y2426D01*
X1737Y2426D02*
X1742Y2426D01*
X1769Y2426D02*
X1774Y2426D01*
X1793Y2426D02*
X1798Y2426D01*
X643Y2425D02*
X648Y2425D01*
X675Y2425D02*
X684Y2425D01*
X698Y2425D02*
X704Y2425D01*
X726Y2425D02*
X732Y2425D01*
X734Y2425D02*
X740Y2425D01*
X763Y2425D02*
X769Y2425D01*
X784Y2425D02*
X791Y2425D01*
X830Y2425D02*
X835Y2425D01*
X851Y2425D02*
X859Y2425D01*
X870Y2425D02*
X879Y2425D01*
X895Y2425D02*
X902Y2425D01*
X914Y2425D02*
X923Y2425D01*
X939Y2425D02*
X944Y2425D01*
X960Y2425D02*
X965Y2425D01*
X1042Y2425D02*
X1047Y2425D01*
X1069Y2425D02*
X1076Y2425D01*
X1091Y2425D02*
X1097Y2425D01*
X1168Y2425D02*
X1173Y2425D01*
X1200Y2425D02*
X1209Y2425D01*
X1224Y2425D02*
X1229Y2425D01*
X1266Y2425D02*
X1272Y2425D01*
X1288Y2425D02*
X1294Y2425D01*
X1312Y2425D02*
X1317Y2425D01*
X1397Y2425D02*
X1404Y2425D01*
X1419Y2425D02*
X1429Y2425D01*
X1441Y2425D02*
X1448Y2425D01*
X1463Y2425D02*
X1470Y2425D01*
X1485Y2425D02*
X1491Y2425D01*
X1519Y2425D02*
X1524Y2425D01*
X1556Y2425D02*
X1562Y2425D01*
X1568Y2425D02*
X1573Y2425D01*
X1638Y2425D02*
X1643Y2425D01*
X1663Y2425D02*
X1666Y2425D01*
X1682Y2425D02*
X1687Y2425D01*
X1707Y2425D02*
X1710Y2425D01*
X1737Y2425D02*
X1742Y2425D01*
X1769Y2425D02*
X1774Y2425D01*
X1793Y2425D02*
X1798Y2425D01*
X643Y2424D02*
X648Y2424D01*
X675Y2424D02*
X685Y2424D01*
X698Y2424D02*
X704Y2424D01*
X727Y2424D02*
X740Y2424D01*
X763Y2424D02*
X771Y2424D01*
X783Y2424D02*
X791Y2424D01*
X830Y2424D02*
X835Y2424D01*
X852Y2424D02*
X860Y2424D01*
X869Y2424D02*
X879Y2424D01*
X895Y2424D02*
X903Y2424D01*
X913Y2424D02*
X923Y2424D01*
X938Y2424D02*
X944Y2424D01*
X960Y2424D02*
X966Y2424D01*
X1042Y2424D02*
X1047Y2424D01*
X1070Y2424D02*
X1077Y2424D01*
X1090Y2424D02*
X1097Y2424D01*
X1168Y2424D02*
X1173Y2424D01*
X1200Y2424D02*
X1211Y2424D01*
X1223Y2424D02*
X1229Y2424D01*
X1265Y2424D02*
X1272Y2424D01*
X1288Y2424D02*
X1293Y2424D01*
X1311Y2424D02*
X1317Y2424D01*
X1396Y2424D02*
X1403Y2424D01*
X1419Y2424D02*
X1430Y2424D01*
X1440Y2424D02*
X1447Y2424D01*
X1464Y2424D02*
X1471Y2424D01*
X1484Y2424D02*
X1491Y2424D01*
X1519Y2424D02*
X1524Y2424D01*
X1557Y2424D02*
X1563Y2424D01*
X1568Y2424D02*
X1573Y2424D01*
X1638Y2424D02*
X1644Y2424D01*
X1661Y2424D02*
X1667Y2424D01*
X1682Y2424D02*
X1688Y2424D01*
X1705Y2424D02*
X1710Y2424D01*
X1737Y2424D02*
X1742Y2424D01*
X1769Y2424D02*
X1774Y2424D01*
X1793Y2424D02*
X1798Y2424D01*
X636Y2423D02*
X655Y2423D01*
X675Y2423D02*
X703Y2423D01*
X727Y2423D02*
X739Y2423D01*
X764Y2423D02*
X790Y2423D01*
X830Y2423D02*
X835Y2423D01*
X853Y2423D02*
X861Y2423D01*
X868Y2423D02*
X879Y2423D01*
X896Y2423D02*
X905Y2423D01*
X912Y2423D02*
X923Y2423D01*
X938Y2423D02*
X943Y2423D01*
X961Y2423D02*
X966Y2423D01*
X1042Y2423D02*
X1047Y2423D01*
X1070Y2423D02*
X1096Y2423D01*
X1161Y2423D02*
X1180Y2423D01*
X1200Y2423D02*
X1229Y2423D01*
X1246Y2423D02*
X1271Y2423D01*
X1288Y2423D02*
X1316Y2423D01*
X1377Y2423D02*
X1403Y2423D01*
X1419Y2423D02*
X1447Y2423D01*
X1464Y2423D02*
X1490Y2423D01*
X1512Y2423D02*
X1531Y2423D01*
X1557Y2423D02*
X1577Y2423D01*
X1639Y2423D02*
X1667Y2423D01*
X1682Y2423D02*
X1711Y2423D01*
X1730Y2423D02*
X1749Y2423D01*
X1769Y2423D02*
X1774Y2423D01*
X1793Y2423D02*
X1798Y2423D01*
X635Y2422D02*
X656Y2422D01*
X675Y2422D02*
X703Y2422D01*
X728Y2422D02*
X739Y2422D01*
X765Y2422D02*
X789Y2422D01*
X830Y2422D02*
X835Y2422D01*
X854Y2422D02*
X863Y2422D01*
X866Y2422D02*
X879Y2422D01*
X897Y2422D02*
X907Y2422D01*
X910Y2422D02*
X923Y2422D01*
X938Y2422D02*
X943Y2422D01*
X961Y2422D02*
X966Y2422D01*
X1042Y2422D02*
X1047Y2422D01*
X1071Y2422D02*
X1096Y2422D01*
X1160Y2422D02*
X1182Y2422D01*
X1200Y2422D02*
X1228Y2422D01*
X1245Y2422D02*
X1271Y2422D01*
X1288Y2422D02*
X1316Y2422D01*
X1376Y2422D02*
X1402Y2422D01*
X1419Y2422D02*
X1446Y2422D01*
X1465Y2422D02*
X1490Y2422D01*
X1510Y2422D02*
X1532Y2422D01*
X1558Y2422D02*
X1579Y2422D01*
X1639Y2422D02*
X1667Y2422D01*
X1683Y2422D02*
X1711Y2422D01*
X1729Y2422D02*
X1751Y2422D01*
X1769Y2422D02*
X1774Y2422D01*
X1793Y2422D02*
X1798Y2422D01*
X634Y2421D02*
X657Y2421D01*
X675Y2421D02*
X702Y2421D01*
X728Y2421D02*
X738Y2421D01*
X766Y2421D02*
X788Y2421D01*
X830Y2421D02*
X835Y2421D01*
X855Y2421D02*
X879Y2421D01*
X899Y2421D02*
X923Y2421D01*
X938Y2421D02*
X943Y2421D01*
X961Y2421D02*
X967Y2421D01*
X1042Y2421D02*
X1047Y2421D01*
X1072Y2421D02*
X1095Y2421D01*
X1159Y2421D02*
X1182Y2421D01*
X1200Y2421D02*
X1228Y2421D01*
X1244Y2421D02*
X1270Y2421D01*
X1288Y2421D02*
X1316Y2421D01*
X1375Y2421D02*
X1401Y2421D01*
X1419Y2421D02*
X1445Y2421D01*
X1466Y2421D02*
X1489Y2421D01*
X1510Y2421D02*
X1533Y2421D01*
X1559Y2421D02*
X1579Y2421D01*
X1640Y2421D02*
X1666Y2421D01*
X1683Y2421D02*
X1710Y2421D01*
X1729Y2421D02*
X1751Y2421D01*
X1769Y2421D02*
X1774Y2421D01*
X1793Y2421D02*
X1798Y2421D01*
X634Y2420D02*
X657Y2420D01*
X675Y2420D02*
X701Y2420D01*
X728Y2420D02*
X738Y2420D01*
X767Y2420D02*
X787Y2420D01*
X830Y2420D02*
X835Y2420D01*
X856Y2420D02*
X879Y2420D01*
X900Y2420D02*
X923Y2420D01*
X937Y2420D02*
X943Y2420D01*
X961Y2420D02*
X967Y2420D01*
X1042Y2420D02*
X1047Y2420D01*
X1073Y2420D02*
X1093Y2420D01*
X1159Y2420D02*
X1182Y2420D01*
X1200Y2420D02*
X1227Y2420D01*
X1244Y2420D02*
X1269Y2420D01*
X1289Y2420D02*
X1315Y2420D01*
X1375Y2420D02*
X1400Y2420D01*
X1419Y2420D02*
X1424Y2420D01*
X1426Y2420D02*
X1444Y2420D01*
X1467Y2420D02*
X1487Y2420D01*
X1510Y2420D02*
X1533Y2420D01*
X1559Y2420D02*
X1579Y2420D01*
X1641Y2420D02*
X1665Y2420D01*
X1684Y2420D02*
X1709Y2420D01*
X1728Y2420D02*
X1751Y2420D01*
X1769Y2420D02*
X1774Y2420D01*
X1793Y2420D02*
X1798Y2420D01*
X634Y2419D02*
X657Y2419D01*
X675Y2419D02*
X680Y2419D01*
X683Y2419D02*
X700Y2419D01*
X729Y2419D02*
X737Y2419D01*
X768Y2419D02*
X786Y2419D01*
X830Y2419D02*
X835Y2419D01*
X857Y2419D02*
X872Y2419D01*
X874Y2419D02*
X879Y2419D01*
X901Y2419D02*
X915Y2419D01*
X918Y2419D02*
X923Y2419D01*
X938Y2419D02*
X942Y2419D01*
X962Y2419D02*
X966Y2419D01*
X1042Y2419D02*
X1046Y2419D01*
X1075Y2419D02*
X1092Y2419D01*
X1160Y2419D02*
X1182Y2419D01*
X1200Y2419D02*
X1205Y2419D01*
X1208Y2419D02*
X1226Y2419D01*
X1244Y2419D02*
X1267Y2419D01*
X1290Y2419D02*
X1314Y2419D01*
X1375Y2419D02*
X1399Y2419D01*
X1419Y2419D02*
X1424Y2419D01*
X1428Y2419D02*
X1442Y2419D01*
X1469Y2419D02*
X1486Y2419D01*
X1510Y2419D02*
X1532Y2419D01*
X1561Y2419D02*
X1579Y2419D01*
X1642Y2419D02*
X1664Y2419D01*
X1685Y2419D02*
X1708Y2419D01*
X1729Y2419D02*
X1751Y2419D01*
X1769Y2419D02*
X1774Y2419D01*
X1793Y2419D02*
X1798Y2419D01*
X635Y2418D02*
X656Y2418D01*
X676Y2418D02*
X679Y2418D01*
X685Y2418D02*
X699Y2418D01*
X730Y2418D02*
X737Y2418D01*
X770Y2418D02*
X784Y2418D01*
X831Y2418D02*
X834Y2418D01*
X858Y2418D02*
X870Y2418D01*
X874Y2418D02*
X879Y2418D01*
X902Y2418D02*
X914Y2418D01*
X918Y2418D02*
X923Y2418D01*
X938Y2418D02*
X942Y2418D01*
X962Y2418D02*
X966Y2418D01*
X1043Y2418D02*
X1046Y2418D01*
X1076Y2418D02*
X1090Y2418D01*
X1160Y2418D02*
X1181Y2418D01*
X1201Y2418D02*
X1204Y2418D01*
X1210Y2418D02*
X1224Y2418D01*
X1245Y2418D02*
X1266Y2418D01*
X1291Y2418D02*
X1312Y2418D01*
X1376Y2418D02*
X1397Y2418D01*
X1420Y2418D02*
X1423Y2418D01*
X1429Y2418D02*
X1441Y2418D01*
X1470Y2418D02*
X1484Y2418D01*
X1511Y2418D02*
X1532Y2418D01*
X1562Y2418D02*
X1578Y2418D01*
X1643Y2418D02*
X1662Y2418D01*
X1687Y2418D02*
X1706Y2418D01*
X1729Y2418D02*
X1751Y2418D01*
X1770Y2418D02*
X1773Y2418D01*
X1794Y2418D02*
X1797Y2418D01*
X860Y2417D02*
X869Y2417D01*
X874Y2417D02*
X879Y2417D01*
X904Y2417D02*
X913Y2417D01*
X918Y2417D02*
X923Y2417D01*
X863Y2416D02*
X866Y2416D01*
X874Y2416D02*
X879Y2416D01*
X906Y2416D02*
X910Y2416D01*
X918Y2416D02*
X923Y2416D01*
X874Y2415D02*
X879Y2415D01*
X918Y2415D02*
X923Y2415D01*
X874Y2414D02*
X879Y2414D01*
X918Y2414D02*
X923Y2414D01*
X874Y2413D02*
X879Y2413D01*
X918Y2413D02*
X923Y2413D01*
X874Y2412D02*
X879Y2412D01*
X918Y2412D02*
X923Y2412D01*
X874Y2411D02*
X879Y2411D01*
X918Y2411D02*
X923Y2411D01*
X874Y2410D02*
X879Y2410D01*
X918Y2410D02*
X923Y2410D01*
X874Y2409D02*
X879Y2409D01*
X918Y2409D02*
X923Y2409D01*
X874Y2408D02*
X879Y2408D01*
X918Y2408D02*
X923Y2408D01*
X874Y2407D02*
X879Y2407D01*
X918Y2407D02*
X923Y2407D01*
X874Y2406D02*
X879Y2406D01*
X918Y2406D02*
X922Y2406D01*
X875Y2405D02*
X878Y2405D01*
X919Y2405D02*
X922Y2405D01*
D02*
G04 End of Silk0*
M02*