G04 MADE WITH FRITZING*
G04 WWW.FRITZING.ORG*
G04 DOUBLE SIDED*
G04 HOLES PLATED*
G04 CONTOUR ON CENTER OF CONTOUR VECTOR*
%ASAXBY*%
%FSLAX23Y23*%
%MOIN*%
%OFA0B0*%
%SFA1.0B1.0*%
%ADD10C,0.085000*%
%ADD11C,0.085118*%
%ADD12C,0.084803*%
%ADD13C,0.135984*%
%ADD14C,0.090000*%
%ADD15C,0.080000*%
%ADD16C,0.088000*%
%ADD17C,0.084000*%
%ADD18C,0.072992*%
%ADD19C,0.096614*%
%ADD20R,0.090000X0.090000*%
%ADD21R,0.085000X0.085000*%
%ADD22R,0.088000X0.088000*%
%ADD23R,0.084000X0.084000*%
%ADD24R,0.072992X0.072992*%
%LNMASK0*%
G90*
G70*
G54D10*
X622Y1693D03*
X622Y1293D03*
X321Y1693D03*
X321Y1293D03*
G54D11*
X2129Y1570D03*
X1707Y1570D03*
X1707Y1196D03*
X2129Y1196D03*
G54D12*
X1706Y1386D03*
G54D13*
X1920Y1736D03*
G54D10*
X321Y397D03*
X321Y797D03*
G54D13*
X1919Y1031D03*
G54D10*
X621Y397D03*
X621Y797D03*
X1268Y1556D03*
X1268Y1156D03*
G54D14*
X2508Y862D03*
X2508Y724D03*
G54D10*
X1840Y796D03*
X2140Y796D03*
X1840Y696D03*
X2140Y696D03*
X1840Y596D03*
X2140Y596D03*
X1840Y496D03*
X2140Y496D03*
X1840Y396D03*
X2140Y396D03*
X1840Y296D03*
X2140Y296D03*
X1840Y196D03*
X2140Y196D03*
X1300Y896D03*
X1600Y896D03*
X1300Y796D03*
X1600Y796D03*
X1300Y696D03*
X1600Y696D03*
X1300Y596D03*
X1600Y596D03*
X1300Y496D03*
X1600Y496D03*
X1300Y396D03*
X1600Y396D03*
X1300Y296D03*
X1600Y296D03*
X1300Y196D03*
X1600Y196D03*
X479Y896D03*
X479Y796D03*
X479Y696D03*
X779Y896D03*
X779Y796D03*
X779Y696D03*
X1096Y1656D03*
X1096Y1556D03*
X1096Y1456D03*
G54D15*
X1420Y1181D03*
X1420Y1281D03*
X1420Y1656D03*
X1420Y1556D03*
G54D10*
X621Y1050D03*
X621Y1150D03*
X321Y1051D03*
X321Y1151D03*
G54D16*
X2507Y466D03*
X2507Y366D03*
X2507Y266D03*
G54D17*
X1546Y2364D03*
X1546Y2264D03*
X1546Y2164D03*
X1546Y2064D03*
X1546Y1965D03*
X1847Y1965D03*
X1847Y2064D03*
X1847Y2164D03*
X1847Y2264D03*
X1847Y2364D03*
X1546Y2364D03*
X1546Y2264D03*
X1546Y2164D03*
X1546Y2064D03*
X1546Y1965D03*
X1847Y1965D03*
X1847Y2064D03*
X1847Y2164D03*
X1847Y2264D03*
X1847Y2364D03*
G54D10*
X988Y2364D03*
X1388Y2364D03*
X987Y2264D03*
X1387Y2264D03*
X987Y2064D03*
X1387Y2064D03*
X987Y1964D03*
X1387Y1964D03*
X2003Y2064D03*
X2403Y2064D03*
X2002Y2264D03*
X2402Y2264D03*
X2003Y2364D03*
X2403Y2364D03*
G54D18*
X622Y2211D03*
X622Y2112D03*
X322Y2210D03*
X322Y2112D03*
G54D14*
X2508Y1712D03*
X2508Y1574D03*
G54D16*
X2508Y1316D03*
X2508Y1216D03*
X2508Y1116D03*
G54D19*
X78Y2678D03*
X2678Y78D03*
X78Y78D03*
X2678Y2678D03*
G54D20*
X2508Y862D03*
G54D21*
X1840Y796D03*
X1300Y896D03*
X621Y1050D03*
X321Y1051D03*
G54D22*
X2507Y466D03*
G54D23*
X1547Y2363D03*
G54D24*
X622Y2211D03*
X322Y2210D03*
G54D20*
X2508Y1712D03*
G54D22*
X2508Y1316D03*
G04 End of Mask0*
M02*