; NON-PLATED HOLES START AT T1
; THROUGH (PLATED) HOLES START AT T100
M48
INCH
T1C0.125984
T2C0.086614
T100C0.030000
T101C0.031497
T102C0.035000
T103C0.040000
T104C0.038000
T105C0.055118
%
T1
X019197Y017356
X019186Y010309
T2
X026777Y026781
X026777Y000781
X000777Y000781
X000777Y026781
T100
X014202Y016557
X014204Y012811
X014202Y015555
X014204Y011809
T101
X003222Y021117
X003222Y022101
X006224Y021121
X006224Y022105
T102
X018403Y007958
X015999Y004958
X015999Y002958
X015999Y008958
X012999Y006958
X007789Y006957
X021403Y004958
X021403Y006958
X018403Y005958
X003212Y012927
X020028Y020641
X020028Y023640
X004785Y006962
X007789Y007957
X024028Y020641
X006206Y010504
X003212Y016927
X021403Y001958
X009875Y023642
X013871Y019643
X018403Y001958
X012999Y003958
X013873Y022639
X018403Y006958
X018403Y004958
X012999Y005958
X012677Y015557
X012999Y004958
X012999Y001958
X012677Y011557
X015999Y001958
X010960Y016560
X003214Y007970
X003213Y011512
X013875Y023642
X006212Y007965
X009871Y020639
X006217Y012927
X009871Y019643
X015999Y005958
X015999Y007958
X003214Y003970
X024023Y022636
X010960Y014560
X006217Y016927
X004785Y007962
X021403Y005958
X009872Y022639
X015999Y003958
X021403Y007958
X018403Y003958
X021403Y003958
X010960Y015560
X004785Y008962
X003213Y010512
X013871Y020639
X006212Y003965
X006206Y011504
X012999Y007958
X018403Y002958
X012999Y008958
X024028Y023640
X020023Y022636
X021403Y002958
X015999Y006958
X007789Y008957
X012999Y002958
T103
X015463Y020638
X018468Y022637
X015463Y019649
X018472Y023640
X018468Y020637
X015463Y022638
X015463Y023638
X018468Y021636
X025084Y015744
X025084Y017122
X018468Y019648
X015463Y021638
X025083Y008616
X025083Y007238
T104
X025075Y013160
X025068Y003658
X025068Y002658
X025075Y011160
X025068Y004658
X025075Y012160
T105
X021286Y015701
X021286Y011960
X017062Y013858
X017073Y011960
X017073Y015701
T00
M30
