G04 MADE WITH FRITZING*
G04 WWW.FRITZING.ORG*
G04 DOUBLE SIDED*
G04 HOLES PLATED*
G04 CONTOUR ON CENTER OF CONTOUR VECTOR*
%ASAXBY*%
%FSLAX23Y23*%
%MOIN*%
%OFA0B0*%
%SFA1.0B1.0*%
%ADD10C,0.075000*%
%ADD11C,0.075118*%
%ADD12C,0.074803*%
%ADD13C,0.080000*%
%ADD14C,0.070000*%
%ADD15C,0.078000*%
%ADD16C,0.074000*%
%ADD17C,0.062992*%
%ADD18R,0.080000X0.080000*%
%ADD19R,0.075000X0.075000*%
%ADD20R,0.078000X0.078000*%
%ADD21R,0.074000X0.074000*%
%ADD22R,0.062992X0.062992*%
%ADD23C,0.024000*%
%LNCOPPER0*%
G90*
G70*
G54D10*
X622Y1693D03*
X622Y1293D03*
X321Y1693D03*
X321Y1293D03*
G54D11*
X2129Y1570D03*
X1707Y1570D03*
X1707Y1196D03*
X2129Y1196D03*
G54D12*
X1706Y1386D03*
G54D10*
X321Y397D03*
X321Y797D03*
X621Y397D03*
X621Y797D03*
X1268Y1556D03*
X1268Y1156D03*
G54D13*
X2508Y862D03*
X2508Y724D03*
G54D10*
X1840Y796D03*
X2140Y796D03*
X1840Y696D03*
X2140Y696D03*
X1840Y596D03*
X2140Y596D03*
X1840Y496D03*
X2140Y496D03*
X1840Y396D03*
X2140Y396D03*
X1840Y296D03*
X2140Y296D03*
X1840Y196D03*
X2140Y196D03*
X1300Y896D03*
X1600Y896D03*
X1300Y796D03*
X1600Y796D03*
X1300Y696D03*
X1600Y696D03*
X1300Y596D03*
X1600Y596D03*
X1300Y496D03*
X1600Y496D03*
X1300Y396D03*
X1600Y396D03*
X1300Y296D03*
X1600Y296D03*
X1300Y196D03*
X1600Y196D03*
X479Y896D03*
X479Y796D03*
X479Y696D03*
X779Y896D03*
X779Y796D03*
X779Y696D03*
X1096Y1656D03*
X1096Y1556D03*
X1096Y1456D03*
G54D14*
X1420Y1181D03*
X1420Y1281D03*
X1420Y1656D03*
X1420Y1556D03*
G54D10*
X621Y1050D03*
X621Y1150D03*
X321Y1051D03*
X321Y1151D03*
G54D15*
X2507Y466D03*
X2507Y366D03*
X2507Y266D03*
G54D16*
X1546Y2364D03*
X1546Y2264D03*
X1546Y2164D03*
X1546Y2064D03*
X1546Y1965D03*
X1847Y1965D03*
X1847Y2064D03*
X1847Y2164D03*
X1847Y2264D03*
X1847Y2364D03*
X1546Y2364D03*
X1546Y2264D03*
X1546Y2164D03*
X1546Y2064D03*
X1546Y1965D03*
X1847Y1965D03*
X1847Y2064D03*
X1847Y2164D03*
X1847Y2264D03*
X1847Y2364D03*
G54D10*
X988Y2364D03*
X1388Y2364D03*
X987Y2264D03*
X1387Y2264D03*
X987Y2064D03*
X1387Y2064D03*
X987Y1964D03*
X1387Y1964D03*
X2003Y2064D03*
X2403Y2064D03*
X2002Y2264D03*
X2402Y2264D03*
X2003Y2364D03*
X2403Y2364D03*
G54D17*
X622Y2211D03*
X622Y2112D03*
X322Y2210D03*
X322Y2112D03*
G54D13*
X2508Y1712D03*
X2508Y1574D03*
G54D15*
X2508Y1316D03*
X2508Y1216D03*
X2508Y1116D03*
G54D18*
X2508Y862D03*
G54D19*
X1840Y796D03*
X1300Y896D03*
X621Y1050D03*
X321Y1051D03*
G54D20*
X2507Y466D03*
G54D21*
X1547Y2363D03*
G54D22*
X622Y2211D03*
X322Y2210D03*
G54D18*
X2508Y1712D03*
G54D20*
X2508Y1316D03*
G54D23*
X1816Y2164D02*
X1577Y2164D01*
D02*
X919Y973D02*
X1630Y973D01*
D02*
X1961Y895D02*
X2121Y717D01*
D02*
X1713Y897D02*
X1961Y895D01*
D02*
X1630Y973D02*
X1713Y897D01*
D02*
X739Y1150D02*
X919Y973D01*
D02*
X649Y1150D02*
X739Y1150D01*
D02*
X1770Y196D02*
X1669Y596D01*
D02*
X1669Y596D02*
X1629Y596D01*
D02*
X1812Y196D02*
X1770Y196D01*
D02*
X808Y896D02*
X1271Y896D01*
D02*
X837Y196D02*
X1271Y196D01*
D02*
X642Y377D02*
X837Y196D01*
D02*
X1531Y796D02*
X1369Y396D01*
D02*
X1369Y396D02*
X1329Y396D01*
D02*
X1571Y796D02*
X1531Y796D01*
D02*
X1719Y98D02*
X1909Y98D01*
D02*
X1909Y98D02*
X2071Y296D01*
D02*
X1670Y296D02*
X1719Y98D01*
D02*
X2071Y296D02*
X2112Y296D01*
D02*
X1629Y296D02*
X1670Y296D01*
D02*
X2211Y862D02*
X2135Y942D01*
D02*
X1648Y1031D02*
X1500Y1031D01*
D02*
X2135Y942D02*
X1741Y942D01*
D02*
X1741Y942D02*
X1648Y1031D01*
D02*
X2211Y558D02*
X2211Y862D01*
D02*
X1500Y1031D02*
X1293Y1142D01*
D02*
X2162Y515D02*
X2211Y558D01*
D02*
X2489Y2016D02*
X2319Y1848D01*
D02*
X2319Y1848D02*
X2319Y296D01*
D02*
X2489Y2180D02*
X2489Y2016D01*
D02*
X2423Y2244D02*
X2489Y2180D01*
D02*
X2319Y296D02*
X2230Y196D01*
D02*
X2230Y196D02*
X2169Y196D01*
D02*
X1573Y887D02*
X1327Y805D01*
G04 End of Copper0*
M02*